<svg xmlns="http://www.w3.org/2000/svg" width="25.893" height="25.898" viewBox="0 0 25.893 25.898"><defs><style>.a{fill:#fff;}</style></defs><g transform="translate(-8.519 20.348)"><path class="a" d="M21.465-20.348A12.963,12.963,0,0,0,8.519-7.4,12.962,12.962,0,0,0,21.465,5.55,12.963,12.963,0,0,0,34.412-7.4,12.963,12.963,0,0,0,21.465-20.348Zm0,23.786A10.847,10.847,0,0,1,10.631-7.4,10.847,10.847,0,0,1,21.465-18.236,10.848,10.848,0,0,1,32.3-7.4,10.847,10.847,0,0,1,21.465,3.438Z" transform="translate(0 0)"/><path class="a" d="M19.333-7.526V-17.3H17.222v9.732l-4.355-4.284-1.481,1.506L18.34-3.505l6.841-6.954L23.676-11.94Z" transform="translate(3.188 3.389)"/></g></svg>