<svg xmlns="http://www.w3.org/2000/svg" width="50" height="50" viewBox="0 0 50 50"><defs><style>.a{fill:#b7c5f4;}.b{fill:#5fa7fb;}.c{fill:#df6718;}.d{fill:#ebae98;}.e{fill:#ffaf97;}.f{fill:#0855c4;}.g{fill:#fff;}.h{fill:#162458;}.i{fill:#df8879;}.j{fill:#c8158c;}</style></defs><g transform="translate(-423.221 -533.5)"><g transform="translate(423.221 533.5)"><ellipse class="a" cx="25" cy="24.94" rx="25" ry="24.94"/><g transform="translate(13.36 37.755)"><path class="b" d="M3080.617,2784.049h-.257v-2a2.757,2.757,0,0,0-2.906-2.57h-11.8a2.757,2.757,0,0,0-2.906,2.57v2h-.257v-2a3.012,3.012,0,0,1,3.163-2.826h11.8a3.012,3.012,0,0,1,3.163,2.826Z" transform="translate(-3062.489 -2779.223)"/></g><g transform="translate(33.409 21.765)"><path class="c" d="M3218.753,2654.715l.488.534.37-.886-.684-.031a.2.2,0,0,0-.2.141l-.016.047A.194.194,0,0,0,3218.753,2654.715Z" transform="translate(-3218.703 -2654.331)"/></g><g transform="translate(19.91 8.05)"><g transform="translate(0 0)"><path class="b" d="M0,.008l1.412,0V.266L0,.265Z" transform="matrix(0.584, -0.812, 0.812, 0.584, 0, 1.141)"/></g><g transform="translate(0.912 0.792)"><path class="b" d="M0,.008l1.344,0V.266L0,.264Z" transform="matrix(0.584, -0.812, 0.812, 0.584, 0, 1.087)"/></g><g transform="translate(0.201 0.008)"><path class="b" d="M0,.013l2.261,0V.272L0,.27Z" transform="translate(0 1.829) rotate(-54.339)"/></g></g><g transform="translate(36.688 38.328)"><path class="b" d="M3247.913,2787.949h-.256v-2.62a1.381,1.381,0,0,0-1.381-1.378h-.385a1.381,1.381,0,0,0-1.381,1.378v2.62h-.257v-2.62a1.638,1.638,0,0,1,1.638-1.634h.385a1.638,1.638,0,0,1,1.638,1.634Z" transform="translate(-3244.252 -2783.695)"/></g><g transform="translate(6.763 20.021)"><path class="d" d="M3016.651,2642.543s-3.74-2.337-5.006-1.734c0,0-1.605.754.624,3.656a15.069,15.069,0,0,0,5.5,3.656Z" transform="translate(-3011.086 -2640.71)"/></g><g transform="translate(5.909 19.073)"><path class="e" d="M3010.711,2635.38s-4.218-2.635-5.645-1.955c0,0-1.811.85.7,4.123a16.984,16.984,0,0,0,6.2,4.123Z" transform="translate(-3004.434 -2633.312)"/></g><g transform="translate(11.723 7.011)"><path class="f" d="M3072.785,2539.1h-20.329a2.712,2.712,0,0,0-2.718,2.705v36.368a25.12,25.12,0,0,0,25.765.474v-36.842A2.711,2.711,0,0,0,3072.785,2539.1Z" transform="translate(-3049.738 -2539.1)"/></g><g transform="translate(12.89 10.472)"><path class="g" d="M3058.827,2566.929v35.793a26.137,26.137,0,0,0,23.421.329v-36.121a.8.8,0,0,0-.8-.8h-21.821A.8.8,0,0,0,3058.827,2566.929Z" transform="translate(-3058.827 -2566.131)"/></g><g transform="translate(19.752 8.196)"><rect class="g" width="6.525" height="0.906" rx="0.453" transform="translate(0 0)"/></g><g transform="translate(27.366 8.196)"><ellipse class="g" cx="0.454" cy="0.453" rx="0.454" ry="0.453" transform="translate(0 0)"/></g><g transform="translate(29.049 8.196)"><ellipse class="g" cx="0.454" cy="0.453" rx="0.454" ry="0.453" transform="translate(0 0)"/></g><g transform="translate(27.951 26.514)"><path class="d" d="M3189.6,2708.7s3.069-4.927,1.407-9.484c0,0-1.965-4.838-4.685-7.26,0,0-.756-1.2-3.476,0,0,0-8.387,3.514-6.347,5.182,0,0,1.749,1.323,7.335-.992,0,0-.081,3.751,1.884,5.392v9.922l2.183-1.423Z" transform="translate(-3176.176 -2691.429)"/></g><g transform="translate(27.951 26.514)"><path class="e" d="M3189.6,2708.7s3.069-4.927,1.407-9.484c0,0-1.965-4.838-4.685-7.26,0,0-.756-1.2-3.476,0,0,0-8.387,3.514-6.347,5.182,0,0,1.749,1.323,7.335-.992,0,0-.081,3.751,1.884,5.392v9.922l1.873-1.209q.243-.156.47-.336Z" transform="translate(-3176.176 -2691.429)"/></g><g transform="translate(35.55 31.244)"><path class="h" d="M3240.144,2735.8c-4.885-1.428-4.761-7.37-4.759-7.429l.257.008c0,.058-.119,5.8,4.574,7.176Z" transform="translate(-3235.385 -2728.37)"/></g><g transform="translate(6.652 36.265)"><path class="e" d="M3015.938,2768.744s2.187,1.5,1.843,2.644c0,0-.094,1.165-2.312,1.165a6.233,6.233,0,0,1-4.281-1.569s-2.656-2.993.844-3.4C3012.031,2767.587,3015.407,2767.813,3015.938,2768.744Z" transform="translate(-3010.223 -2767.587)"/></g><g transform="translate(7.938 27.64)"><path class="e" d="M3022.611,2700.231s3.468.471,6.343,4.451c0,0,.75,1.29-1.125,1.731a8.664,8.664,0,0,1-4.208-.326s-3.7-1.027-3.354-3.4C3020.267,2702.684,3020.83,2700.061,3022.611,2700.231Z" transform="translate(-3020.245 -2700.223)"/></g><g transform="translate(14.473 31.476)"><path class="i" d="M3071.324,2732.031a1.4,1.4,0,0,1,.59-1.846l.063.111a1.261,1.261,0,0,0-.539,1.678Z" transform="translate(-3071.159 -2730.184)"/></g><g transform="translate(11.944 38.749)"><path class="i" d="M3051.62,2788.822a1.4,1.4,0,0,1,.587-1.835l.063.111a1.252,1.252,0,0,0-.535,1.667Z" transform="translate(-3051.457 -2786.987)"/></g><g transform="translate(6.886 31.575)"><path class="e" d="M3014.412,2730.962s3.468.471,6.342,4.451c0,0,.75,1.291-1.124,1.731a8.664,8.664,0,0,1-4.208-.326s-3.7-1.027-3.354-3.4C3012.069,2733.415,3012.631,2730.792,3014.412,2730.962Z" transform="translate(-3012.046 -2730.954)"/></g><g transform="translate(13.448 35.313)"><path class="i" d="M3063.341,2762.028a1.428,1.428,0,0,1,.6-1.877l.064.112a1.283,1.283,0,0,0-.549,1.708Z" transform="translate(-3063.174 -2760.151)"/></g><path class="a" d="M3099.471,2618.044a4.514,4.514,0,0,0-.957-2.359c-.97-1.214-3.111-1.571-4-1.668-1.214-1.759-3.281-2.687-5.994-2.687a7.693,7.693,0,0,0-1.025.065l-.029,0a4.444,4.444,0,0,0-3.628,2.6,1.952,1.952,0,0,0-1.835,1.915v2.171a1.142,1.142,0,0,0,1.118,1.163h1.022a1.882,1.882,0,0,0,3.521,0h5.9a1.881,1.881,0,0,0,3.521,0h1.075c.823,0,1.313-.435,1.313-1.163C3099.472,2618.074,3099.472,2618.06,3099.471,2618.044Zm-11.923-5.834.028,0a6.852,6.852,0,0,1,.941-.061,6.359,6.359,0,0,1,4.965,1.882h-8.735A3.606,3.606,0,0,1,3087.549,2612.211Zm-1.648,7.442a1.063,1.063,0,1,1,1.065-1.062A1.065,1.065,0,0,1,3085.9,2619.653Zm9.423,0a1.063,1.063,0,1,1,1.065-1.062A1.065,1.065,0,0,1,3095.324,2619.653Zm2.835-1.218h-.96a1.882,1.882,0,0,0-3.75,0h-5.673a1.882,1.882,0,0,0-3.75,0h-.907a.326.326,0,0,1-.3-.347v-2.171a1.166,1.166,0,0,1,1.239-1.109h.047v.036h10.176v-.029c1.25.115,2.927.542,3.6,1.379a3.721,3.721,0,0,1,.78,1.895C3098.655,2618.235,3098.655,2618.435,3098.159,2618.435Z" transform="translate(-3066.136 -2595.071)"/><rect class="j" width="15.724" height="4.72" rx="2.36" transform="translate(16.795 33.954)"/></g></g></svg>