<svg xmlns="http://www.w3.org/2000/svg" xmlns:xlink="http://www.w3.org/1999/xlink" width="42" height="42" viewBox="0 0 42 42"><defs><style>.a{fill:#fff;}.ad,.b{fill:none;}.c{clip-path:url(#a);}.d{fill:#dce3ed;}.e{fill:#c1cde0;}.f{fill:#dbdbdb;}.g{fill:#c5e300;}.h{fill:#0854c4;opacity:0.162;}.i{fill:#63d9f7;}.j{fill:#e3e3e3;}.k{fill:#f7f7f7;}.l{fill:#f2f2f2;}.m,.p{mix-blend-mode:multiply;isolation:isolate;}.m{fill:url(#b);}.n{fill:#73799b;}.o{fill:#d5d7e3;}.p{fill:url(#c);}.q{fill:url(#d);}.r{fill:url(#e);}.s{fill:url(#f);}.t{fill:#2786ff;}.u{fill:#c6e4ff;}.v{fill:#00b3ff;}.w{clip-path:url(#g);}.x{fill:#0855c4;}.y{fill:#237bf9;}.z{fill:#10a1ff;}.aa{fill:#41a9a3;}.ab{clip-path:url(#h);}.ac{fill:#83baff;}.ad{stroke:#83baff;stroke-linejoin:round;stroke-miterlimit:10;stroke-width:0.5px;}.ae{fill:#ea0f8f;}</style><clipPath id="a"><circle class="a" cx="21" cy="21" r="21"/></clipPath><linearGradient id="b" x1="0.216" y1="1.63" x2="0.617" y2="-0.092" gradientUnits="objectBoundingBox"><stop offset="0" stop-color="#fff"/><stop offset="1" stop-color="#bdbdbd"/></linearGradient><linearGradient id="c" y1="0.5" x2="1" y2="0.5" gradientUnits="objectBoundingBox"><stop offset="0" stop-color="#bdbdbd"/><stop offset="1" stop-color="#fff"/></linearGradient><linearGradient id="d" x1="0.5" y1="1" x2="0.5" gradientUnits="objectBoundingBox"><stop offset="0" stop-color="#c7180e"/><stop offset="0.506" stop-color="#e34a41"/><stop offset="1" stop-color="#ffaba6"/></linearGradient><linearGradient id="e" x1="0.5" y1="1" x2="0.5" gradientUnits="objectBoundingBox"><stop offset="0" stop-color="#f51e11"/><stop offset="0.506" stop-color="#fa5148"/><stop offset="1" stop-color="#ffaba6"/></linearGradient><linearGradient id="f" x1="0.5" y1="1" x2="0.5" gradientUnits="objectBoundingBox"><stop offset="0" stop-color="#ffaba6"/><stop offset="0.494" stop-color="#e34a41"/><stop offset="1" stop-color="#c7180e"/></linearGradient><clipPath id="g"><path class="b" d="M0,0H5.444V5.444H0Z"/></clipPath><clipPath id="h"><path class="b" d="M0,25.838H28.7V0H0Z"/></clipPath></defs><g transform="translate(-363 -10)"><g transform="translate(363 10)"><circle class="a" cx="21" cy="21" r="21"/><g class="c"><g transform="translate(-106.13 -3.295)"><path class="d" d="M100.415,87.364,50.392,87.6l-6.171-1.59.853-2.4,1.02-2.869-1.872-5.7L34.99,73.49,30.183,82.87H0v24.6H100.415Z" transform="translate(52.742 -61.995)"/><g transform="translate(52.741 11.398)"><g transform="translate(48.484 26.342)"><path class="e" d="M122.75,149.1c0,.516-.909.934-2.03.934s-2.029-.418-2.029-.934.908-.935,2.029-.935S122.75,148.587,122.75,149.1Z" transform="translate(-118.691 -148.169)"/><path class="e" d="M135.539,149.1c0,.516-.909.934-2.03.934s-2.029-.418-2.029-.934.908-.935,2.029-.935S135.539,148.587,135.539,149.1Z" transform="translate(-126.256 -148.169)"/><path class="e" d="M148.327,149.1c0,.516-.909.934-2.029.934s-2.029-.418-2.029-.934.908-.935,2.029-.935S148.327,148.587,148.327,149.1Z" transform="translate(-133.82 -148.169)"/><path class="e" d="M161.116,149.1c0,.516-.909.934-2.03.934s-2.029-.418-2.029-.934.908-.935,2.029-.935S161.116,148.587,161.116,149.1Z" transform="translate(-141.385 -148.169)"/><path class="e" d="M184.128,149.1c0,.516-.909.934-2.029.934s-2.03-.418-2.03-.934.909-.935,2.03-.935S184.128,148.587,184.128,149.1Z" transform="translate(-154.997 -148.169)"/><path class="e" d="M196.918,149.1c0,.516-.909.934-2.03.934s-2.029-.418-2.029-.934.908-.935,2.029-.935S196.918,148.587,196.918,149.1Z" transform="translate(-162.563 -148.169)"/><path class="e" d="M209.706,149.1c0,.516-.909.934-2.029.934s-2.029-.418-2.029-.934.908-.935,2.029-.935S209.706,148.587,209.706,149.1Z" transform="translate(-170.127 -148.169)"/><path class="e" d="M222.495,149.1c0,.516-.909.934-2.03.934s-2.029-.418-2.029-.934.908-.935,2.029-.935S222.495,148.587,222.495,149.1Z" transform="translate(-177.692 -148.169)"/><path class="e" d="M244.094,149.1c0,.516-.909.934-2.03.934s-2.029-.418-2.029-.934.909-.935,2.029-.935S244.094,148.587,244.094,149.1Z" transform="translate(-190.468 -148.169)"/><path class="e" d="M256.883,149.1c0,.516-.909.934-2.03.934s-2.029-.418-2.029-.934.909-.935,2.029-.935S256.883,148.587,256.883,149.1Z" transform="translate(-198.033 -148.169)"/><path class="e" d="M269.671,149.1c0,.516-.909.934-2.029.934s-2.03-.418-2.03-.934.909-.935,2.03-.935S269.671,148.587,269.671,149.1Z" transform="translate(-205.597 -148.169)"/><path class="e" d="M282.46,149.1c0,.516-.909.934-2.029.934s-2.029-.418-2.029-.934.908-.935,2.029-.935S282.46,148.587,282.46,149.1Z" transform="translate(-213.162 -148.169)"/></g><path class="e" d="M136.761,166.295h-23.1l.722-3.021h21.962Z" transform="translate(-67.762 -132.358)"/><path class="e" d="M193.689,166.295H183.458l-.532-3.021h9.694Z" transform="translate(-113.528 -132.358)"/><path class="e" d="M223.243,166.295H212.975l-1.265-3.021h9.728Z" transform="translate(-131.086 -132.358)"/><path class="f" d="M260.255,166.141h-9.642l-1.606-2.867h9.136Z" transform="translate(-147.291 -130.761)"/><path class="f" d="M285.882,166.141H278.43l-2.3-2.867H285.3l.582.594Z" transform="translate(-163.336 -130.761)"/><path class="f" d="M239.216,134.206h-7.391l-2.4-3.379h4.016l1.29,1.813h2.921Z" transform="translate(-135.705 -111.568)"/><path class="f" d="M291.59,134.156h-2.841l-2.967-3.329H289.8l1.592,1.786h.2Z" transform="translate(-169.044 -111.568)"/><path class="f" d="M185.68,134.206h-8.228l-.858-3.379h3.976l.64,1.813h3.811Z" transform="translate(-104.458 -111.568)"/><path class="f" d="M130.085,132.91h-7.406l1.129-4.274h3.256l-.511,2.708h3.81Z" transform="translate(-72.566 -110.272)"/><path class="f" d="M147.45,132.91h7.406l-.624-4.274h-3.219l-.032,2.708h-3.3Z" transform="translate(-87.218 -110.272)"/><path class="f" d="M209.563,134.206H202.37l-.645-1.511h3.7l-.987-1.868h3.206Z" transform="translate(-119.323 -111.568)"/><path class="f" d="M264.98,134.13h-7.558l-1.6-1.477H260.1l-1.442-1.826H262.1Z" transform="translate(-151.323 -111.568)"/><path class="f" d="M129.559,120.491h-3.071l.874-3.341h2.864Z" transform="translate(-74.819 -103.478)"/><path class="e" d="M136.861,132.016c0,.263-.462.475-1.032.475s-1.032-.213-1.032-.475.462-.475,1.032-.475S136.861,131.754,136.861,132.016Z" transform="translate(-79.734 -111.991)"/><path class="e" d="M150.75,132.016c0,.263-.463.475-1.033.475s-1.032-.213-1.032-.475.462-.475,1.032-.475S150.75,131.754,150.75,132.016Z" transform="translate(-87.949 -111.991)"/><path class="g" d="M62.067,117.947c0,.263-.462.475-1.033.475S60,118.21,60,117.947s.462-.475,1.032-.475S62.067,117.685,62.067,117.947Z" transform="translate(-35.491 -103.669)"/><path class="g" d="M66.135,109.18c0,.226-.4.41-.89.41s-.89-.183-.89-.41.4-.41.89-.41S66.135,108.953,66.135,109.18Z" transform="translate(-38.067 -98.521)"/><path class="e" d="M112.147,97.682c0,.226-.4.41-.89.41s-.89-.183-.89-.41.4-.409.89-.409S112.147,97.456,112.147,97.682Z" transform="translate(-65.284 -91.721)"/><path class="e" d="M113.59,93.531c0,.226-.4.41-.89.41s-.89-.183-.89-.41.4-.41.89-.41S113.59,93.3,113.59,93.531Z" transform="translate(-66.137 -89.265)"/><path class="g" d="M58.337,122.114c0,.263-.462.475-1.033.475s-1.032-.213-1.032-.475.462-.475,1.032-.475S58.337,121.852,58.337,122.114Z" transform="translate(-33.285 -106.134)"/><path class="g" d="M70.777,135.66c0,.263-.462.475-1.033.475s-1.032-.213-1.032-.475.462-.475,1.032-.475S70.777,135.4,70.777,135.66Z" transform="translate(-40.643 -114.146)"/><path class="g" d="M67.462,140.591c0,.263-.462.475-1.032.475s-1.032-.213-1.032-.475.462-.475,1.032-.475S67.462,140.329,67.462,140.591Z" transform="translate(-38.683 -117.063)"/><path class="g" d="M64.935,145.928c0,.263-.462.475-1.032.475s-1.032-.213-1.032-.475.462-.475,1.032-.475S64.935,145.665,64.935,145.928Z" transform="translate(-37.188 -120.22)"/><path class="g" d="M62.067,150.931c0,.262-.462.475-1.033.475S60,151.194,60,150.931s.462-.475,1.032-.475S62.067,150.669,62.067,150.931Z" transform="translate(-35.491 -123.179)"/><path class="e" d="M190.868,132.61c0,.208-.366.376-.816.376s-.816-.168-.816-.376.365-.376.816-.376S190.868,132.4,190.868,132.61Z" transform="translate(-111.935 -112.401)"/><path class="e" d="M205.281,132.61c0,.208-.366.376-.816.376s-.816-.168-.816-.376.365-.376.816-.376S205.281,132.4,205.281,132.61Z" transform="translate(-120.461 -112.401)"/><path class="e" d="M245.3,132.61c0,.208-.365.376-.816.376s-.816-.168-.816-.376.365-.376.816-.376S245.3,132.4,245.3,132.61Z" transform="translate(-144.133 -112.401)"/><path class="e" d="M258.43,132.61c0,.208-.365.376-.816.376s-.816-.168-.816-.376.365-.376.816-.376S258.43,132.4,258.43,132.61Z" transform="translate(-151.9 -112.401)"/><path class="e" d="M67.925,160.482s3.149-7.038,3.685-8.327c.547-1.316,1.105-1.7,2.358-1.7h6.946c1.087,0,1.627.421,1.03,1.993s-2.955,8.032-2.955,8.032Z" transform="translate(-40.178 -123.179)"/><path class="h" d="M85,127.713c-.851,0-1.265-.631-.915-1.545.817-2.128,2.228-5.792,2.573-6.623.5-1.212,1.018-1.564,2.172-1.564h6.4c1,0,1.437.366.949,1.835-.43,1.293-1.583,5.165-2.085,6.492a1.763,1.763,0,0,1-1.793,1.4Z" transform="translate(-49.664 -103.97)"/><path class="g" d="M0,160.642v-9.691a3.3,3.3,0,0,1,1.311-.224H8.255c1.087,0,1.475.417.312,1.971s-5.847,7.944-5.847,7.944Z" transform="translate(0.002 -123.34)"/><path class="g" d="M10.16,128.234c-.851,0-1.038-.624-.358-1.528,1.583-2.1,4.314-5.728,4.958-6.55a3.057,3.057,0,0,1,2.735-1.547h6.4c1,0,1.3.362.287,1.815-.9,1.279-3.444,5.108-4.423,6.421a2.754,2.754,0,0,1-2.3,1.388Z" transform="translate(-5.553 -104.342)"/><path class="i" d="M49.194,106.189s.726,3.159-2.276,6.574a43.977,43.977,0,0,0-7.771,11.509A36.085,36.085,0,0,0,36.478,134.3H26a55.825,55.825,0,0,1,12.7-18.044,44.127,44.127,0,0,0,5.748-6.226c1.081-1.583-.074-3.839-.074-3.839Z" transform="translate(-15.379 -96.995)"/><g transform="translate(27.448 10.658)"><path class="j" d="M67.192,113.66H68.1l1.455-.786h2.709l1.277.786h.987l-2.04-1.032-2.933-.049Z" transform="translate(-67.192 -111.433)"/><path class="k" d="M72.986,110.919l.72-1.146,2.789.046-.576,1.15Z" transform="translate(-70.619 -109.773)"/><path class="l" d="M67.192,112l2.367-1.081.72-1.146-2.25,1Z" transform="translate(-67.192 -109.773)"/><path class="a" d="M80.168,111.034l.576-1.15,1.94.951-.476,1.231Z" transform="translate(-74.867 -109.839)"/><path class="m" d="M68.1,114.087l1.455-.786h2.709l1.277.786h.987l-2.8,1.126H67.491l-.3-1.126Z" transform="translate(-67.192 -111.859)"/></g><path class="f" d="M114.848,93.926h2.3l-2.095,6.473h-2.51Z" transform="translate(-66.572 -89.741)"/><path class="f" d="M131.227,93.926h2.3l-1.451,6.473h-2.51Z" transform="translate(-76.641 -89.741)"/><path class="f" d="M99.427,97.162l1.561-3.236h-2.51L95.356,100.4H101l1.376-3.237Z" transform="translate(-56.404 -89.741)"/><path class="f" d="M113.51,83.681h5.3l-.389,1.483H113.51Z" transform="translate(-67.142 -83.681)"/><path class="f" d="M40.449,107.617h5.7l-1.037,1.336h-5.95Z" transform="translate(-23.167 -97.839)"/><path class="f" d="M20.886,107.617h6.106l-1.414,1.336h-5.95Z" transform="translate(-11.609 -97.839)"/><path class="f" d="M0,117.367H6.347l-4.688,5.841H0Z" transform="translate(0.002 -103.607)"/><path class="f" d="M1.957,107.617H7.739l-1.414,1.336H.375Z" transform="translate(-0.221 -97.839)"/></g><g transform="translate(0 0)"><path class="n" d="M152.956,103.216h0V94.3H81.648l-.489-4.987H100.74a7.018,7.018,0,0,0,2-.267,3.584,3.584,0,0,0,1.364-.714,1.77,1.77,0,0,0,.6-1.027,15.553,15.553,0,0,0,.02-1.663L99.7,77.372a2.51,2.51,0,0,0-.772-.806,5.614,5.614,0,0,0-1.236-.637,8.643,8.643,0,0,0-1.529-.419,9.448,9.448,0,0,0-1.675-.151H56.576a9.461,9.461,0,0,0-1.675.151,8.7,8.7,0,0,0-1.532.419,5.66,5.66,0,0,0-1.24.637,2.535,2.535,0,0,0-.779.806L47.016,85.2H0v6.6H49.087a9.944,9.944,0,0,0,2.35-.291,9.776,9.776,0,0,0,2.112-.779,6.818,6.818,0,0,0,1.613-1.118,3.5,3.5,0,0,0,.9-1.31l3.115-8.721H91.85l1.277,3.645H75.675a8.411,8.411,0,0,0-1.909.214,6.4,6.4,0,0,0-1.6.592,3.861,3.861,0,0,0-1.146.9,2.138,2.138,0,0,0-.51,1.155L69.264,97.636l-.041,1a4.078,4.078,0,0,0,.392,1.859,4.648,4.648,0,0,0,1.3,1.6,6.721,6.721,0,0,0,2.1,1.122,8.451,8.451,0,0,0,2.664.421h77.282Z" transform="translate(0 -68.034)"/><path class="o" d="M152.956,100.507h0V91.592H81.648L81.159,86.6H100.74a7.02,7.02,0,0,0,2-.266,3.577,3.577,0,0,0,1.364-.715,1.768,1.768,0,0,0,.6-1.026,1.864,1.864,0,0,0-.244-1.207L99.7,74.662a2.5,2.5,0,0,0-.772-.806,5.637,5.637,0,0,0-1.236-.637,8.689,8.689,0,0,0-1.529-.419,9.5,9.5,0,0,0-1.675-.151H56.576A9.511,9.511,0,0,0,54.9,72.8a8.742,8.742,0,0,0-1.532.419,5.684,5.684,0,0,0-1.24.637,2.528,2.528,0,0,0-.779.806l-4.333,7.831H0v6.6H49.087a9.917,9.917,0,0,0,2.35-.291,9.777,9.777,0,0,0,2.112-.779,6.817,6.817,0,0,0,1.613-1.117,3.5,3.5,0,0,0,.9-1.311l3.115-8.721H91.85l1.277,3.646H75.675a8.411,8.411,0,0,0-1.909.214,6.4,6.4,0,0,0-1.6.592,3.862,3.862,0,0,0-1.146.905,2.137,2.137,0,0,0-.51,1.154L69.28,95.928a3.5,3.5,0,0,0,.334,1.859,4.651,4.651,0,0,0,1.3,1.6,6.7,6.7,0,0,0,2.1,1.122,8.436,8.436,0,0,0,2.664.421h77.282Z" transform="translate(0 -66.706)"/><g transform="translate(0.816 7.881)"><path class="a" d="M165.891,76.449l.033.151h-1.843l-.027-.151Z" transform="translate(-81.227 -76.449)"/><path class="a" d="M115.411,76.449l-.055.151H113.51l.061-.151Z" transform="translate(-56.453 -76.449)"/><path class="a" d="M122.632,76.449l-.042.151h-1.843l.048-.151Z" transform="translate(-60 -76.449)"/><path class="a" d="M129.851,76.449l-.029.151h-1.843l.036-.151Z" transform="translate(-63.544 -76.449)"/><path class="a" d="M137.064,76.449l-.017.151H135.2l.023-.151Z" transform="translate(-67.086 -76.449)"/><path class="a" d="M144.278,76.449l0,.151H142.43l.011-.151Z" transform="translate(-70.628 -76.449)"/><path class="a" d="M151.492,76.449l.008.151h-1.84l0-.151Z" transform="translate(-74.17 -76.449)"/><path class="a" d="M158.69,76.449l.021.151h-1.844l-.015-.151Z" transform="translate(-77.697 -76.449)"/><path class="a" d="M173.093,76.449l.046.151H171.3l-.04-.151Z" transform="translate(-84.756 -76.449)"/><path class="a" d="M185.767,76.54a2.842,2.842,0,0,1,.378.077,1.712,1.712,0,0,1,.3.115.938.938,0,0,1,.221.151.589.589,0,0,1,.136.186l.133.295h-.313l-.132-.295a.437.437,0,0,0-.1-.138.626.626,0,0,0-.156-.109,1.157,1.157,0,0,0-.218-.082,2.349,2.349,0,0,0-.283-.057Z" transform="translate(-91.855 -76.494)"/><path class="a" d="M188.292,80.02h.321l.444.992h-.327Z" transform="translate(-93.107 -78.199)"/><path class="a" d="M106.929,80.557l-.455,1.007h-.329l.462-1.007Z" transform="translate(-52.843 -78.463)"/><path class="a" d="M105.053,84.592l-.5,1.1h-.344l.5-1.1Z" transform="translate(-51.896 -80.44)"/><path class="a" d="M192.318,88.344q.075.162.146.319l.14.306.131.29c.043.094.084.185.122.271H192.5l-.121-.271-.13-.29-.137-.306-.142-.319Z" transform="translate(-94.909 -82.28)"/><path class="a" d="M166.994,93.5l.043.216H164.83L164.8,93.5Z" transform="translate(-81.59 -84.807)"/><path class="a" d="M175.611,93.5l.061.216h-2.2l-.052-.216Z" transform="translate(-85.816 -84.807)"/><path class="a" d="M192.37,93.036l.378.069a.314.314,0,0,1-.159.222,1,1,0,0,1-.339.114,3.141,3.141,0,0,1-.431.042c-.15.006-.3.006-.438.006h-.633l-.089-.216h.63c.147,0,.287,0,.413-.006a2.734,2.734,0,0,0,.336-.031.71.71,0,0,0,.231-.071A.181.181,0,0,0,192.37,93.036Z" transform="translate(-94.267 -84.579)"/><path class="a" d="M150.02,93.5l.007.216h-.556a3.385,3.385,0,0,0-.424.022,1.158,1.158,0,0,0-.3.072.487.487,0,0,0-.186.13.459.459,0,0,0-.094.194L148.1,94.1a.617.617,0,0,1,.188-.321.9.9,0,0,1,.329-.182,1.967,1.967,0,0,1,.411-.081,4.323,4.323,0,0,1,.436-.019Z" transform="translate(-73.408 -84.808)"/><path class="a" d="M100.721,93.841l-.365.807-.065.142c-.021.046-.042.092-.064.136s-.043.088-.066.13-.045.084-.07.124l-.37-.019c.023-.038.045-.077.067-.117s.043-.082.064-.124.042-.085.063-.13.041-.088.062-.134l.374-.815Z" transform="translate(-49.695 -84.974)"/><path class="a" d="M94.21,97.815l-.1.235H91.8l.123-.235H94.21Z" transform="translate(-45.812 -86.922)"/><path class="a" d="M49.237,97.815l-.211.235h-2.3l.221-.235Z" transform="translate(-23.719 -86.922)"/><path class="a" d="M58.231,97.815l-.192.235h-2.3l.2-.235Z" transform="translate(-28.137 -86.922)"/><path class="a" d="M67.225,97.815l-.172.235h-2.3l.182-.235Z" transform="translate(-32.555 -86.922)"/><path class="a" d="M85.209,97.815l-.133.235h-2.3l.143-.235Z" transform="translate(-41.391 -86.922)"/><path class="a" d="M76.215,97.815l-.153.235h-2.3l.162-.235Z" transform="translate(-36.973 -86.922)"/><path class="a" d="M4.112,97.815,3.9,98.05H1.6l.221-.235Z" transform="translate(-1.601 -86.922)"/><path class="a" d="M13.106,97.815l-.192.235h-2.3l.2-.235Z" transform="translate(-6.019 -86.922)"/><path class="a" d="M22.1,97.815l-.172.235h-2.3l.182-.235Z" transform="translate(-10.437 -86.922)"/><path class="a" d="M40.084,97.815l-.133.235h-2.3l.143-.235Z" transform="translate(-19.273 -86.922)"/><path class="a" d="M31.09,97.815l-.153.235h-2.3l.162-.235Z" transform="translate(-14.855 -86.922)"/><path class="a" d="M148.431,97.367l0,1.42h-.392l.005-1.42Z" transform="translate(-73.379 -86.702)"/><path class="a" d="M148.43,103.093l.006,1.579h-.414l.006-1.579Z" transform="translate(-73.369 -89.509)"/><path class="a" d="M148.43,109.46l.006,1.765H148l.006-1.765Z" transform="translate(-73.357 -92.63)"/><path class="a" d="M160.528,117.98l.038.335h-2.737l-.024-.335Z" transform="translate(-78.164 -96.805)"/><path class="a" d="M171.2,117.98l.066.335h-2.738l-.053-.335Z" transform="translate(-83.396 -96.805)"/><path class="a" d="M192.542,117.98l.123.335h-2.734l-.109-.335Z" transform="translate(-93.857 -96.805)"/><path class="a" d="M148.444,116.586a.636.636,0,0,0,.146.371.815.815,0,0,0,.309.216,1.586,1.586,0,0,0,.38.1,2.586,2.586,0,0,0,.361.024h.624l.01.334h-.627a2.966,2.966,0,0,1-.672-.072,1.72,1.72,0,0,1-.513-.205,1.03,1.03,0,0,1-.332-.323.907.907,0,0,1-.136-.427Z" transform="translate(-73.355 -96.122)"/><path class="a" d="M200.489,117.981h2.72l.15.334h-2.733Z" transform="translate(-99.085 -96.806)"/><path class="a" d="M168.479,117.981H171.2l.066.334h-2.738Z" transform="translate(-83.396 -96.806)"/><path class="a" d="M160.527,117.981l.038.334h-2.737l-.025-.334Z" transform="translate(-78.163 -96.806)"/><path class="a" d="M180.307,76.449l.059.151H178.52l-.052-.151Z" transform="translate(-88.291 -76.449)"/><path class="a" d="M108.9,76.886l.17.107a2.386,2.386,0,0,0-.253.12,1.665,1.665,0,0,0-.209.136,1.067,1.067,0,0,0-.159.147.633.633,0,0,0-.1.153l-.111.245h-.315l.112-.245a.755.755,0,0,1,.122-.184,1.28,1.28,0,0,1,.19-.176,1.985,1.985,0,0,1,.25-.162A2.762,2.762,0,0,1,108.9,76.886Z" transform="translate(-53.712 -76.663)"/><path class="a" d="M190.381,84l.486,1.083h-.342L190.044,84Z" transform="translate(-93.966 -80.15)"/><path class="a" d="M103,89l-.545,1.206h-.36L102.647,89Z" transform="translate(-50.857 -82.6)"/><path class="a" d="M184.23,93.5l.079.216H182.1l-.07-.216Z" transform="translate(-90.038 -84.807)"/><path class="a" d="M158.372,93.5l.026.216h-2.207l-.016-.216Z" transform="translate(-77.365 -84.807)"/><path class="a" d="M179.155,117.981h2.72l.095.334h-2.734Z" transform="translate(-88.628 -96.806)"/><path class="a" d="M181.874,117.98l.095.335h-2.734l-.081-.335Z" transform="translate(-88.628 -96.805)"/><path class="a" d="M203.209,117.98l.15.335h-2.733l-.136-.335Z" transform="translate(-99.086 -96.805)"/><path class="a" d="M213.872,117.98l.179.335h-2.738l-.164-.335Z" transform="translate(-104.31 -96.805)"/><path class="a" d="M221.825,117.981h2.719l.206.334h-2.733Z" transform="translate(-109.543 -96.806)"/><path class="a" d="M224.544,117.98l.206.335h-2.733l-.192-.335Z" transform="translate(-109.543 -96.805)"/><path class="a" d="M232.491,117.981h2.72l.234.334h-2.734Z" transform="translate(-114.771 -96.806)"/><path class="a" d="M235.211,117.98l.234.335h-2.734l-.22-.335Z" transform="translate(-114.771 -96.805)"/><path class="a" d="M245.879,117.98l.262.335h-2.733l-.248-.335Z" transform="translate(-120 -96.805)"/><path class="a" d="M243.159,117.981h2.72l.262.334h-2.733Z" transform="translate(-120 -96.806)"/><path class="a" d="M189.822,117.981h2.72l.123.334H189.93Z" transform="translate(-93.857 -96.806)"/><path class="a" d="M211.149,117.981h2.723l.179.334h-2.738Z" transform="translate(-104.31 -96.806)"/><path class="a" d="M253.285,117.981h2.534l.221.334h-2.479Z" transform="translate(-124.963 -96.806)"/><path class="a" d="M262.761,117.981h2.719l.206.334h-2.733Z" transform="translate(-129.607 -96.806)"/><path class="a" d="M265.48,117.98l.206.335h-2.733l-.192-.335Z" transform="translate(-129.607 -96.805)"/><path class="a" d="M273.428,117.981h2.72l.234.334h-2.734Z" transform="translate(-134.836 -96.806)"/><path class="a" d="M276.147,117.98l.234.335h-2.734l-.22-.335Z" transform="translate(-134.836 -96.805)"/><path class="a" d="M286.815,117.98l.262.335h-2.733l-.248-.335Z" transform="translate(-140.064 -96.805)"/><path class="a" d="M284.1,117.981h2.72l.262.334h-2.733Z" transform="translate(-140.064 -96.806)"/><path class="a" d="M294.221,117.981h2.534v.334H294.5Z" transform="translate(-145.027 -96.806)"/></g><g transform="translate(32.331)"><path class="p" d="M75.853,95.2c1.634-.443,5.752-1.77,8.082-2.554,1.283-.432,2.45-.84,3.419-1.224H75.237c-.094.273-.165.541-.23.794a11.221,11.221,0,0,0-.52,2.982C74.523,95.359,75.357,95.332,75.853,95.2Z" transform="translate(-68.831 -75.906)"/><path class="q" d="M69.825,60.992a6.413,6.413,0,0,0-6.413,6.415c0,1.944,1.295,4.408,2.337,6.413,1.037,1.988,2.769,5.3,3.495,6.335a.76.76,0,0,0,1.1,0,59.552,59.552,0,0,0,3.629-6.17c1.252-2.4,2.262-4.677,2.262-6.579A6.414,6.414,0,0,0,69.825,60.992Zm0,9.6a3.19,3.19,0,1,1,3.19-3.189A3.191,3.191,0,0,1,69.825,70.6Z" transform="translate(-63.412 -60.992)"/><path class="r" d="M79.181,67.407a3.19,3.19,0,0,1-3.19,3.189v9.793a.732.732,0,0,0,.522-.234,59.55,59.55,0,0,0,3.629-6.17c1.252-2.4,2.262-4.677,2.262-6.579a6.414,6.414,0,0,0-6.413-6.415v3.223A3.191,3.191,0,0,1,79.181,67.407Z" transform="translate(-69.578 -60.992)"/><path class="s" d="M71.389,64.184a4.787,4.787,0,1,0,4.789,4.788A4.787,4.787,0,0,0,71.389,64.184Zm0,7.977a3.19,3.19,0,1,1,3.19-3.189A3.191,3.191,0,0,1,71.389,72.161Z" transform="translate(-64.975 -62.557)"/></g><g transform="translate(112.958 6.857)"><path class="t" d="M21.121,3.633,15.665.329A33.869,33.869,0,0,0,9.8.049a13.66,13.66,0,0,0-4.694,1.12A17.568,17.568,0,0,1,0,2.826L19.958,4.833l1.163-1.2" transform="translate(2.04 14.777)"/><path class="u" d="M5.469,0a11.973,11.973,0,0,0-4.4.658C.984.694.821.769.787.785l-.3.146L.48.944S-.844,2.026.906,2.254c1.865.066,3.946.15,5.811.249L7.062.051C6.555.02,6.019,0,5.469,0" transform="translate(7.581 15.518)"/><path class="u" d="M5.824,2.366,2.14.181S.852.054.253,0L0,2.366c2.977.163,5.824,0,5.824,0" transform="translate(15.241 15.634)"/><path class="t" d="M28.468,6.4V4.148a3.914,3.914,0,0,0-1.486-2.424s-1.8-.86-7.447-1.153L2.042,0A1.594,1.594,0,0,0,.263,1.528L0,5.6,4.6,6.4l23.872,0" transform="translate(0 17.32)"/><path class="v" d="M.286,1.285c.333.486.826.727,1.1.539S1.612,1.089,1.279.6.452-.124.178.064-.048.8.286,1.285" transform="translate(26.33 19.386)"/><g transform="translate(21.013 20.394)"><path class="b" d="M0,0H5.444V5.444H0Z" transform="translate(0 0)"/><g class="w" transform="translate(0 0)"><path class="x" d="M3.26.054A2.721,2.721,0,1,1,.054,2.184,2.721,2.721,0,0,1,3.26.054" transform="translate(0 0)"/></g></g><path class="y" d="M.88,2.172A1.1,1.1,0,1,0,.022.879,1.1,1.1,0,0,0,.88,2.172" transform="translate(22.638 22.018)"/><path class="z" d="M2.159,0,0,2.159l1.517.285s0-.079,0-.118A3.561,3.561,0,0,1,2.159,0" transform="translate(1.795 21.041)"/><path class="aa" d="M.5,0V0Z" transform="translate(14.741 17.803)"/><path class="b" d="M0,25.838H28.7V0H0Z" transform="translate(0 0)"/><g class="ab" transform="translate(0 0)"><path class="t" d="M.275,5.929H.392V0H.275Z" transform="translate(14.908 17.803)"/><path class="aa" d="M.5,0V0Z" transform="translate(7.249 17.511)"/><path class="t" d="M.275,6.221H.392V0H.275Z" transform="translate(7.416 17.512)"/><path class="x" d="M2.183,5.39A2.721,2.721,0,1,1,5.39,3.26,2.721,2.721,0,0,1,2.183,5.39" transform="translate(4.424 20.394)"/><path class="y" d="M1.314.022a1.1,1.1,0,1,0,.857,1.291A1.1,1.1,0,0,0,1.314.022" transform="translate(6.049 22.018)"/><path class="ac" d="M0,.365H1.538V0H0Z" transform="translate(15.737 18.699)"/><path class="ad" d="M0,.365H1.538V0H0Z" transform="translate(15.737 18.699)"/><path class="ac" d="M0,.365H1.538V0H0Z" transform="translate(8.231 18.699)"/><path class="ad" d="M0,.365H1.538V0H0Z" transform="translate(8.231 18.699)"/><path class="z" d="M1.642,0H0A2.256,2.256,0,0,1,.1.269,3.172,3.172,0,0,1,0,1.759H1.642a.234.234,0,0,0,.235-.234V.235A.235.235,0,0,0,1.642,0" transform="translate(26.827 22.048)"/></g></g></g></g></g></g><g transform="translate(379.352 14.2)"><path class="ae" d="M439.783,2194.075l-5.072,1.711-.027.006a.449.449,0,0,0-.363.437v2.476a5.672,5.672,0,1,0,10.927,0v-2.476a.449.449,0,0,0-.363-.437l-.055-.015Z" transform="translate(-434.32 -2194.075)"/><g transform="translate(2.718 3.659)"><path class="a" d="M453.638,2222.459l-1.719-1.554.567-.581,1.172,1.06,3.206-2.7.545.6Z" transform="translate(-451.919 -2218.682)"/></g></g></g></svg>