<?xml version="1.0" encoding="utf-8"?>
<!-- Generator: Adobe Illustrator 23.0.1, SVG Export Plug-In . SVG Version: 6.00 Build 0)  -->
<svg version="1.1" xmlns="http://www.w3.org/2000/svg" xmlns:xlink="http://www.w3.org/1999/xlink" x="0px" y="0px"
	 viewBox="0 0 160 155" style="enable-background:new 0 0 160 155;" xml:space="preserve">
<style type="text/css">
	.st0{fill:#5FA7FB;}
	.st1{fill:#599DD6;}
	.st2{fill:#77D168;}
	.st3{fill:#3256BF;}
	.st4{fill:#1C3272;}
	.st5{fill:#AFE0FD;}
	.st6{fill:#EEF8FF;}
	.st7{fill:#C7FFCF;}
	.st8{fill:#B7D1FC;}
	.st9{fill:#575D66;}
	.st10{fill:#272425;}
	.st11{fill:#EEF0F3;}
	.st12{fill:none;}
	.st13{fill:#F5F6FA;}
	.st14{fill:#FFFFFF;}
	.st15{fill:#9EEC8D;}
	.st16{fill:#76CF68;}
	.st17{clip-path:url(#SVGID_4_);fill:#C7FFCF;}
	.st18{clip-path:url(#SVGID_6_);fill:#C7FFCF;}
	.st19{fill:#ADDEFB;}
	.st20{fill:#74C9F7;}
	.st21{clip-path:url(#SVGID_8_);fill:#ADDEFB;}
	.st22{fill:#038EED;}
	.st23{clip-path:url(#SVGID_10_);fill:#ADDEFB;}
	.st24{fill:#A7ACB5;}
	.st25{clip-path:url(#SVGID_12_);fill:#EEF0F3;}
	.st26{clip-path:url(#SVGID_14_);fill:#EEF0F3;}
	.st27{fill:#8FDB7D;}
	.st28{fill:#5FA5F9;}
	.st29{clip-path:url(#SVGID_16_);fill:#ADDEFB;}
	.st30{fill:#E0E5E7;}
	.st31{fill:#B0B0B0;}
	.st32{fill:#FFFFFF;stroke:#1C3272;stroke-width:1.65;stroke-linecap:round;stroke-linejoin:round;}
	.st33{fill:#19306D;}
	.st34{fill:none;stroke:#704EFB;stroke-width:1.65;stroke-linejoin:round;}
	.st35{fill:none;stroke:#704EFB;stroke-width:1.65;stroke-linejoin:round;stroke-dasharray:2.24,2.24;}
	.st36{fill:none;stroke:#704EFB;stroke-width:1.65;stroke-linejoin:round;stroke-dasharray:2.28,2.28;}
	.st37{fill:none;stroke:#1C3272;stroke-width:1.65;stroke-linejoin:round;}
	.st38{fill:none;stroke:#704EFB;stroke-width:1.65;stroke-linejoin:round;stroke-dasharray:2.16,2.16;}
	.st39{fill:none;stroke:#74C9F7;stroke-width:1.68;stroke-linecap:round;stroke-linejoin:round;}
	.st40{fill:none;stroke:#19306D;stroke-width:1.65;stroke-linejoin:round;stroke-dasharray:2.28,2.28;}
	.st41{fill:none;stroke:#1C3272;stroke-width:1.65;stroke-linejoin:round;stroke-dasharray:2.16,2.16;}
	.st42{fill:none;stroke:#19306D;stroke-width:1.65;stroke-linejoin:round;stroke-dasharray:2.1,2.1;}
	.st43{fill:none;stroke:#19306D;stroke-width:1.65;stroke-linejoin:round;stroke-dasharray:2.11,2.11;}
	.st44{fill:none;stroke:#19306D;stroke-width:1.65;stroke-linejoin:round;}
	.st45{fill:none;stroke:#19306D;stroke-width:1.65;stroke-linejoin:round;stroke-dasharray:2.01,2.01;}
	.st46{fill:none;stroke:#19306D;stroke-width:1.65;stroke-linejoin:round;stroke-dasharray:2.24,2.24;}
	.st47{fill:none;stroke:#19306D;stroke-width:1.65;stroke-linejoin:round;stroke-dasharray:2.22,2.22;}
	.st48{fill:none;stroke:#19306D;stroke-width:1.65;stroke-miterlimit:10;stroke-dasharray:2.16,2.16;}
</style>
<g id="Capa_1">
</g>
<g id="Capa_2">
</g>
<g id="Capa_3">
	<path class="st11" d="M159.2,74.2c-1.2-1.1-5.5-1.1-6.2-0.9c-0.4,0.1-0.5,1.2-0.4,2.3C154.8,75.1,157.8,76.1,159.2,74.2z"/>
	<path class="st4" d="M159.2,74.2c-1.4,2-4.4,0.9-6.6,1.4c0,1.2,0.2,2.4,0.2,2.4s5.1-0.3,5.6-0.6s1.2-0.9,1.2-2.6
		C159.5,74.5,159.4,74.3,159.2,74.2z"/>
	<path class="st11" d="M41.8,91.7c13,7,28,0,38-9c4-3,11,2,14-1c0.3-0.3,0.8-1,1.1-1.9c-0.3-0.2-0.6-0.3-1.1-0.3
		c-1.1,0.1-2.1,0.2-3.2,0.1c-2.4-0.6-4.6-1.6-6.6-2.9c-2.4-1.7-13.7-10.2-23-13.3c-6.3-2.1-35.6-3.7-42.9,0.4
		c-3.9,2.3-9,12.9-10.6,27.7l5.6,9.4c0-7.2,5.9-12.9,13-12.9c3.9,0,7.4,1.8,9.7,4.5C37.8,90.7,40.1,90.9,41.8,91.7z"/>
	<path class="st24" d="M104.1,86.6c-0.2-2.3-3.2-6.5-4.6-6.7c-0.6-0.1-2,1.6-2.8,1.3c-0.6-0.2-1-1-1.9-1.4c-0.3,0.8-0.8,1.5-1.1,1.9
		c-3,3-10-2-14,1c-10,9-25,16-38,9c-1.6-0.8-4-1-5.9,0.7c2,2.3,3.2,5.3,3.2,8.5h31.5c0-7.2,5.8-13,13-13c7.2,0,13,5.8,13,13L101,94
		C101,94,104.4,90.7,104.1,86.6z"/>
	<path class="st4" d="M93.5,99.7c-0.1,0-0.1,0-0.2,0c-0.3-0.1-0.5-0.4-0.5-0.7c0-6.7-5.5-12.2-12.2-12.2c0,0,0,0,0,0
		c-3.3,0-6.3,1.3-8.6,3.6c-2.3,2.3-3.6,5.4-3.6,8.6c0,0.4-0.3,0.8-0.8,0.8H36.1c-0.2,0-0.4-0.1-0.5-0.2c-0.1-0.1-0.2-0.3-0.2-0.5
		c0-6.7-5.4-12.2-12.2-12.2c0,0,0,0,0,0c-6.7,0-12.2,5.4-12.2,12.2c0,0.3-0.2,0.6-0.6,0.7c-0.3,0.1-0.7-0.1-0.9-0.3l-5.6-9.4
		c-0.1-0.1-0.1-0.3-0.1-0.5c1.7-15.2,6.9-25.9,11-28.2c7.7-4.4,37.2-2.6,43.5-0.4c8.8,3,19.2,10.6,22.6,13.1l0.5,0.4
		c1.9,1.3,4,2.3,6.3,2.8c1,0,2,0,3-0.1c0,0,0.1,0,0.1,0c1.3,0.1,2,0.8,2.6,1.3c0.2,0.2,0.4,0.4,0.6,0.4c0.1,0,0.7-0.4,1-0.6
		c0.6-0.4,1.1-0.8,1.7-0.7c1.8,0.2,5.1,4.8,5.3,7.4c0.3,4.2-2.8,7.5-3.3,8l-4.5,6.8C94,99.5,93.7,99.7,93.5,99.7z M36.8,98.1h30
		c0.4-7.2,6.4-13,13.7-13c0,0,0,0,0,0c6.8,0,12.5,5,13.5,11.5l3.3-5c0,0,0.1-0.1,0.1-0.1c0,0,3.2-3.1,2.9-6.8
		c-0.2-2.1-3-5.7-3.9-5.9c-0.2,0.1-0.5,0.3-0.7,0.4c-0.7,0.5-1.5,1.1-2.3,0.8c-0.5-0.2-0.8-0.5-1.1-0.8c-0.4-0.4-0.8-0.8-1.6-0.9
		c-1.1,0.1-2.1,0.1-3.2,0.1c-0.1,0-0.1,0-0.2,0c-2.5-0.6-4.8-1.6-6.9-3.1l-0.5-0.4c-3.4-2.5-13.7-9.9-22.2-12.8
		c-6-2-35-3.8-42.2,0.3c-3.8,2.2-8.6,12.8-10.2,26.8l4.2,7.2c1.2-6.4,6.8-11.3,13.5-11.3c0,0,0,0,0.1,0
		C30.5,85.1,36.5,90.9,36.8,98.1z"/>
	<path class="st14" d="M10.2,98.9H5c-1.9,0-3.5-1.6-3.5-3.5v-2.5c0-1.9,1.6-3.5,3.5-3.5l0,0l0,0h9.3C11.7,91.8,10.2,95.3,10.2,98.9
		L10.2,98.9z"/>
	<path class="st11" d="M16.3,91.4H7c-1.9,0-3.5,1.6-3.5,3.5v2.5c0,0,0,0.1,0,0.1c3.5-0.8,6.8-1,10-2.3
		C14.2,93.8,15.1,92.5,16.3,91.4z"/>
	<path class="st24" d="M3.5,97.5c0,1.9,1.6,3.4,3.5,3.4h5.2v0c0-2,0.5-3.9,1.3-5.7C10.3,96.5,7,96.6,3.5,97.5z"/>
	<path class="st4" d="M10.2,99.6H5c-2.3,0-4.3-1.9-4.3-4.3v-2.5c0-2.3,1.9-4.3,4.3-4.3h9.3c0.3,0,0.6,0.2,0.7,0.5
		c0.1,0.3,0,0.6-0.2,0.8c-2.5,2.3-3.9,5.5-3.9,8.9c0,0.2-0.1,0.4-0.2,0.5C10.6,99.6,10.4,99.6,10.2,99.6z M5,90.2
		c-1.5,0-2.7,1.2-2.7,2.7v2.5c0,1.5,1.2,2.7,2.7,2.7h4.4c0.2-2.9,1.3-5.7,3.1-7.9H5z"/>
	<path class="st30" d="M100.3,98.3c-1.6,0-2.9,1.3-2.9,2.9v5c0,1.6,1.3,2.9,2.9,2.9h3.2c2.3-2.7,1.9-6.1,2.9-10.1
		c-0.5-0.5-1.2-0.7-1.9-0.7H100.3z"/>
	<path class="st31" d="M102.5,109.1c1.6,0,2.9-1.3,2.9-2.9v-5c0-0.9-0.4-1.6-1-2.2c-1,3.9-0.6,7.4-2.9,10.1H102.5z"/>
	<path class="st30" d="M152.2,98.7h-2.7c-1.6,0-2.9,1.3-2.9,2.9v5c0,0.9,0.4,1.6,1,2.2C153.7,109.1,153.1,103.4,152.2,98.7z"/>
	<path class="st31" d="M153.6,98.7h-1.4c0.9,4.7,1.5,10.4-4.7,10.1c0.5,0.5,1.2,0.7,1.9,0.7h4.1c1.6,0,2.9-1.3,2.9-2.9v-5
		C156.5,100,155.2,98.7,153.6,98.7z"/>
	<path class="st24" d="M89.7,98.9c0-5.1-4.1-9.2-9.2-9.2c-5.1,0-9.2,4.1-9.2,9.2c0,5.1,4.1,9.2,9.2,9.2h0
		C85.6,108.1,89.7,104,89.7,98.9C89.7,98.9,89.7,98.9,89.7,98.9z"/>
	<path class="st4" d="M80.5,108.9C80.5,108.9,80.5,108.9,80.5,108.9c-5.5,0-10-4.5-10-10s4.5-10,10-10s10,4.5,10,10v0
		C90.5,104.5,86,108.9,80.5,108.9z M80.5,90.6c-4.6,0-8.3,3.7-8.3,8.3s3.7,8.3,8.3,8.3c0,0,0,0,0,0c4.6,0,8.3-3.7,8.3-8.3l0.8,0
		h-0.8C88.8,94.3,85.1,90.6,80.5,90.6z"/>
	<path class="st24" d="M32.3,98.9c0-5.1-4.1-9.2-9.2-9.2s-9.2,4.1-9.2,9.2c0,5.1,4.1,9.2,9.2,9.2c0,0,0,0,0,0
		C28.1,108.1,32.3,104,32.3,98.9C32.3,98.9,32.3,98.9,32.3,98.9z"/>
	<path class="st4" d="M23.1,108.9c-5.5,0-10-4.5-10-10s4.5-10,10-10c5.5,0,10,4.5,10,10v0C33.1,104.4,28.6,108.9,23.1,108.9z
		 M23.1,90.6c-4.6,0-8.3,3.7-8.3,8.3s3.7,8.3,8.3,8.3c4.6,0,8.3-3.7,8.3-8.3v0C31.4,94.3,27.7,90.6,23.1,90.6z"/>
	<path class="st14" d="M23.2,64.3v12.5h-7.8c-2.3,0-3.1-1.4-2.4-3.2c1.1-3,3.2-7.3,6.1-8.3C20.4,64.7,21.8,64.4,23.2,64.3z"/>
	<path class="st14" d="M86,98.9c0-3.1-2.5-5.5-5.5-5.5c-3.1,0-5.5,2.5-5.5,5.5c0,3.1,2.5,5.5,5.5,5.5l0,0C83.6,104.5,86,102,86,98.9
		z"/>
	<path class="st4" d="M80.5,105.3c-3.5,0-6.4-2.9-6.4-6.4s2.9-6.4,6.4-6.4s6.4,2.9,6.4,6.4S84,105.3,80.5,105.3z M80.5,94.2
		c-2.6,0-4.7,2.1-4.7,4.7s2.1,4.7,4.7,4.7c2.6,0,4.7-2.1,4.7-4.7S83.1,94.2,80.5,94.2z"/>
	<path class="st14" d="M28.6,98.9c0-3.1-2.5-5.5-5.5-5.5s-5.5,2.5-5.5,5.5c0,3.1,2.5,5.5,5.5,5.5c0,0,0,0,0,0
		C26.1,104.4,28.6,102,28.6,98.9z"/>
	<path class="st4" d="M23.1,105.3c-3.5,0-6.4-2.9-6.4-6.4s2.9-6.4,6.4-6.4s6.4,2.9,6.4,6.4c0,0,0,0,0,0
		C29.4,102.4,26.6,105.3,23.1,105.3z M23.1,94.2c-2.6,0-4.7,2.1-4.7,4.7s2.1,4.7,4.7,4.7c2.6,0,4.7-2.1,4.7-4.7
		C27.8,96.3,25.7,94.2,23.1,94.2z"/>
	<path class="st4" d="M33.3,81.2h-2.7c-0.4,0-0.8-0.3-0.8-0.8s0.3-0.8,0.8-0.8h2.7c0.4,0,0.8,0.3,0.8,0.8S33.7,81.2,33.3,81.2z"/>
	<path class="st4" d="M52.6,81.2h-2.7c-0.4,0-0.8-0.3-0.8-0.8s0.3-0.8,0.8-0.8h2.7c0.4,0,0.8,0.3,0.8,0.8S53.1,81.2,52.6,81.2z"/>
	<rect x="28.7" y="64.3" class="st14" width="16.1" height="12.5"/>
	<path class="st14" d="M71.2,73.3c-4.2-3.7-9.7-7.1-14-8.2c-1.6-0.4-3.3-0.6-4.9-0.6c-1.5-0.1-1.1,0-2.9-0.1v12.5h21.9
		C71.2,76.8,74.1,75.9,71.2,73.3z"/>
	<path class="st20" d="M23.2,67.9v8.9h-7.3c0-0.1,0-0.1,0.1-0.2c1.1-3,3.2-7.3,6.1-8.3C22.4,68.1,22.8,68,23.2,67.9z"/>
	<rect x="31.7" y="67.3" class="st20" width="13.1" height="9.5"/>
	<path class="st20" d="M71.2,76.8H52.3v-9.5c1.8,0.1,1.4,0,2.9,0.1c1.6,0,3.3,0.3,4.9,0.6c3.7,1,8.3,3.6,12.2,6.7
		C73,76.2,71.2,76.8,71.2,76.8z"/>
	<path class="st4" d="M23.2,77.5h-7.8c-1.7,0-2.5-0.7-2.9-1.2c-0.5-0.8-0.6-1.8-0.2-3c1.3-3.4,3.4-7.7,6.6-8.8
		c1.4-0.5,2.8-0.9,4.3-1c0.2,0,0.4,0,0.6,0.2c0.2,0.1,0.2,0.3,0.2,0.6v12.5C24,77.2,23.6,77.5,23.2,77.5z M22.5,65.1
		c-1.1,0.2-2.1,0.4-3.1,0.8c-2,0.7-4,3.5-5.7,7.9c-0.3,0.7-0.3,1.3,0,1.6c0.3,0.4,0.9,0.6,1.7,0.6h7.1V65.1z"/>
	<path class="st4" d="M44.8,77.5H28.7c-0.4,0-0.8-0.3-0.8-0.8V64.3c0-0.4,0.3-0.8,0.8-0.8h16.1c0.4,0,0.8,0.3,0.8,0.8v12.5
		C45.6,77.2,45.3,77.5,44.8,77.5z M29.5,76h14.6V65H29.5V76z"/>
	<path class="st4" d="M71.2,77.5H49.3c-0.4,0-0.8-0.3-0.8-0.8V64.3c0-0.2,0.1-0.4,0.2-0.6c0.2-0.1,0.4-0.2,0.6-0.2
		c0.9,0,1.3,0,1.6,0c0.3,0,0.6,0,1.4,0c1.7,0.1,3.4,0.3,5,0.6c4.3,1.2,9.8,4.4,14.4,8.4c0.7,0.6,1.2,1.2,1.4,1.8
		c0.3,0.7,0.2,1.3,0,1.7c-0.4,0.9-1.5,1.3-1.7,1.3C71.3,77.5,71.2,77.5,71.2,77.5z M50.1,76h21c0.2-0.1,0.5-0.3,0.6-0.5
		c0-0.1,0.1-0.2,0-0.5c-0.1-0.2-0.3-0.6-1-1.2c-4.3-3.8-9.7-7-13.7-8.1c-1.5-0.3-3.1-0.6-4.7-0.6c-1.3-0.1-1.2,0-2.2-0.1V76z"/>
	<path class="st4" d="M93.7,81c0,0-0.1,0-0.1,0c-0.4-0.1-0.7-0.5-0.6-0.9l0.2-1c0.1-0.4,0.5-0.7,0.9-0.6c0.4,0.1,0.7,0.5,0.6,0.9
		l-0.2,1C94.4,80.8,94,81,93.7,81z"/>
	<path class="st4" d="M88.1,80.2C88.1,80.2,88.1,80.2,88.1,80.2c-0.5,0-0.8-0.4-0.8-0.8l0.1-1.4c0-0.4,0.4-0.7,0.8-0.7
		c0.4,0,0.7,0.4,0.7,0.8l-0.1,1.4C88.8,79.9,88.5,80.2,88.1,80.2z"/>
	<path class="st19" d="M93.5,98.9h3.7c1.9,0,1.9-1.5,1.9-3.4l0,0c0-1.9,0-3.4-1.9-3.4h-5.6C92.8,94.1,93.5,96.5,93.5,98.9z"/>
	<path class="st4" d="M97.1,99.7h-3.7c-0.2,0-0.4-0.1-0.6-0.2c-0.2-0.2-0.2-0.4-0.2-0.6c0-2.3-0.6-4.5-1.8-6.4
		c-0.2-0.3-0.2-0.6,0-0.9c0.1-0.3,0.4-0.4,0.7-0.4h5.6c2.7,0,2.7,2.5,2.7,4.3c0,1,0,2-0.3,2.7C99.3,98.9,98.7,99.7,97.1,99.7z
		 M94.3,98h2.8c0.7,0,0.8-0.2,0.9-0.5c0.2-0.5,0.2-1.3,0.2-2.1c0-2.4-0.2-2.6-1-2.6h-4.2C93.7,94.5,94.2,96.2,94.3,98z"/>
	<path class="st11" d="M149.2,75.1l-3.2-7.9c-0.6-1.7-1.8-3.2-3.5-4c-2.7-1.3-7.8-2.8-17.7-2.8h-0.1c-9.8,0-15,1.5-17.7,2.8
		c-1.6,0.8-2.9,2.3-3.5,4l-3.2,7.9c0,0,0.3,7.4,26.6,7.4S149.2,75.1,149.2,75.1z"/>
	<path class="st4" d="M127.1,83.3c-26.4,0-27.5-7.4-27.5-8.2c0-0.1,0-0.2,0.1-0.3l3.2-7.9c0.7-1.9,2-3.5,3.9-4.5
		c3.8-1.9,10-2.9,18-2.9c10.3,0,15.5,1.6,18.1,2.9c1.9,0.9,3.2,2.5,3.9,4.5l3.2,7.9c0.3,0.6,0.6,1.9-0.2,3.3
		C147.7,81.5,140.1,83.3,127.1,83.3z M101.3,75.2c0.3,0.9,2.9,6.5,25.8,6.5c16.1,0,20.2-2.8,21.2-4.4c0.6-0.9,0.2-1.7,0.2-1.7
		c0,0,0-0.1,0-0.1l-3.2-7.9c-0.5-1.6-1.6-2.9-3.1-3.6c-2.4-1.2-7.4-2.7-17.3-2.7c-9.9,0-14.9,1.5-17.4,2.7c-1.4,0.7-2.5,2-3.1,3.5
		L101.3,75.2z"/>
	<path class="st14" d="M146.3,76.2l-2.8-7c-0.5-1.5-1.6-2.8-3.1-3.5c-2.4-1.2-6.9-2.5-15.5-2.5h-0.1c-8.6,0-13.1,1.3-15.5,2.5
		c-1.4,0.7-2.5,2-3.1,3.5l-2.7,7c0,0-2.2,5.6,21.4,5.6S146.3,76.2,146.3,76.2z"/>
	<path class="st20" d="M148.3,79.2l-2.8-7c-0.5-1.5-1.6-2.8-3.1-3.5c-2.4-1.2-6.9-2.5-15.5-2.5h-0.1c-8.6,0-13.1,1.3-15.5,2.5
		c-1.4,0.7-2.5,2-3.1,3.5l-2.7,7c0,0-2.2,5.6,21.4,5.6S148.3,79.2,148.3,79.2z"/>
	<path class="st4" d="M124.9,82.6c-12.2,0-19.7-1.5-21.7-4.5c-0.8-1.1-0.4-2.1-0.4-2.2l2.7-7c0.6-1.7,1.8-3.1,3.4-3.9
		c2.3-1.2,6.9-2.5,15.8-2.5c7.3,0,12.6,0.9,15.9,2.5c1.6,0.8,2.8,2.3,3.4,4l2.8,6.9c0,0.1,0.4,1.1-0.4,2.2
		C144.6,81.1,137.1,82.6,124.9,82.6z M104.3,76.5c0,0-0.1,0.4,0.3,0.9c0.8,1.1,4.5,3.7,20.4,3.7c15.9,0,19.5-2.6,20.3-3.7
		c0.4-0.5,0.3-0.8,0.3-0.9l-2.8-6.9c-0.5-1.4-1.4-2.5-2.7-3.2c-2.1-1.1-6.5-2.4-15.1-2.4c-8.7,0-13.1,1.3-15.2,2.4
		c-1.3,0.6-2.2,1.8-2.7,3.1L104.3,76.5C104.3,76.5,104.3,76.5,104.3,76.5z"/>
	<path class="st22" d="M142.6,78.2c0-3.5-2.8-6.3-6.3-6.3c-3.5,0-6.3,2.8-6.3,6.3"/>
	<path class="st4" d="M141.8,78.2c0-3-2.5-5.5-5.5-5.5c0,0,0,0,0,0c-3,0-5.5,2.5-5.5,5.5l-1.7,0c0-3.9,3.2-7.2,7.2-7.2c0,0,0,0,0,0
		c4,0,7.2,3.2,7.2,7.2L141.8,78.2z"/>
	<path class="st4" d="M102.5,108.9h-4.1c-2,0-3.7-1.6-3.7-3.7v-5c0-2,1.6-3.7,3.7-3.7h4.1c2,0,3.7,1.6,3.7,3.7v5
		C106.1,107.2,104.5,108.9,102.5,108.9z M98.3,98.1c-1.2,0-2.2,1-2.2,2.2v5c0,1.2,1,2.2,2.2,2.2h4.1c1.2,0,2.2-1,2.2-2.2v-5
		c0-1.2-1-2.2-2.2-2.2H98.3z"/>
	<path class="st4" d="M151.6,108.9h-4.1c-2,0-3.7-1.6-3.7-3.7v-5c0-2,1.6-3.7,3.7-3.7h4.1c2,0,3.7,1.6,3.7,3.7v5
		C155.2,107.2,153.6,108.9,151.6,108.9z M147.5,98.1c-1.2,0-2.2,1-2.2,2.2v5c0,1.2,1,2.2,2.2,2.2h4.1c1.2,0,2.2-1,2.2-2.2v-5
		c0-1.2-1-2.2-2.2-2.2H147.5z"/>
	<rect x="98.1" y="73.8" class="st19" width="2.7" height="2.2"/>
	<path class="st4" d="M100.8,76.8h-2.7c-0.5,0-0.8-0.4-0.8-0.8v-2.2c0-0.5,0.4-0.8,0.8-0.8h2.7c0.5,0,0.8,0.4,0.8,0.8V76
		C101.6,76.4,101.2,76.8,100.8,76.8z M98.9,75.1h1v-0.5h-1V75.1z"/>
	<rect x="148.9" y="73.8" class="st19" width="2.8" height="2.2"/>
	<path class="st4" d="M151.7,76.8h-2.8c-0.5,0-0.8-0.4-0.8-0.8v-2.2c0-0.5,0.4-0.8,0.8-0.8h2.8c0.5,0,0.8,0.4,0.8,0.8V76
		C152.6,76.4,152.2,76.8,151.7,76.8z M149.8,75.1h1.1v-0.5h-1.1V75.1z"/>
	<path class="st28" d="M92.5,75.3c0.2,0.6,0.6,0.9,0.9,1.1C94,76.7,99,77,99,77s0.3-2.1,0.2-3.5C97,73.2,94,73.7,92.5,75.3z"/>
	<path class="st4" d="M98.8,72.3C98,72,92.3,72,92.3,73.8c0,0.7,0.1,1.2,0.2,1.5c1.4-1.7,4.5-2.2,6.7-1.9
		C99.1,72.8,99,72.4,98.8,72.3z"/>
	<path class="st4" d="M98,76.7C98,76.7,98,76.7,98,76.7c-3.5-0.2-5.5-0.4-5.9-0.7c-1.1-0.6-1.6-1.7-1.6-3.3c0-0.4,0.1-0.9,0.8-1.4
		c1.7-1.2,5.9-1.1,6.7-0.8c0.4,0.1,1.4,0.4,0.8,5.5C98.7,76.5,98.4,76.7,98,76.7z M96.3,71.9c-1.4,0-3.4,0.2-4.1,0.7
		c-0.1,0.1-0.1,0.1-0.1,0.1c0,1.5,0.5,1.8,0.8,2c0.3,0.1,2.5,0.3,4.5,0.4c0.1-1.4,0.1-2.7,0-3.2C97.1,71.9,96.8,71.9,96.3,71.9z"/>
	<path class="st4" d="M151.8,76.7c-0.4,0-0.7-0.3-0.8-0.7c-0.6-5.1,0.4-5.4,0.8-5.5c0.8-0.3,5.1-0.3,6.7,0.8c0.6,0.5,0.8,1,0.8,1.4
		c0,1.6-0.5,2.7-1.5,3.3C157.3,76.3,155.3,76.6,151.8,76.7C151.8,76.7,151.8,76.7,151.8,76.7z M152.4,72c-0.1,0.5-0.1,1.8,0,3.2
		c2-0.1,4.2-0.3,4.6-0.4c0.2-0.1,0.8-0.4,0.7-1.9c0,0,0-0.1-0.1-0.1C156.6,71.9,153.4,71.9,152.4,72z"/>
	<path class="st14" d="M124.9,102.7c-12.9,0-20.4-0.6-24.8-1.3c-6.5-1.1-6-4.9-6-7.8v-8.9c0-4.8,6.3-9.5,6.3-9.5
		c8.1,1.4,16.2,2.2,24.4,2.3c8.2-0.2,16.4-0.9,24.4-2.3c0,0,6.3,4.7,6.3,9.5v8.9c0,2.9,0.6,6.8-6,7.8
		C145.3,102.1,137.8,102.7,124.9,102.7z"/>
	<path class="st11" d="M126.9,104.7c-12.9,0-20.4-0.6-24.8-1.3c-6.5-1.1-6-4.9-6-7.8v-8.9c0-4.8,6.3-9.5,6.3-9.5
		c8.1,1.4,16.2,2.2,24.4,2.3c8.2-0.2,16.4-0.9,24.4-2.3c0,0,6.3,4.7,6.3,9.5v8.9c0,2.9,0.6,6.8-6,7.8
		C147.3,104.1,139.8,104.7,126.9,104.7z"/>
	<path class="st24" d="M155.5,87.5c-8.3-4.1-19.7-1.5-28.8-0.5c-7.1,0.7-14.5,0.7-21.6-1.4c-2.5-1-5.3-0.5-7.8,0.7
		c-0.1,0.4-0.2,0.8-0.2,1.2v7.7c0,2.6-0.5,5.8,5.7,6.8c4.1,0.6,11.3,1.1,23.5,1.1s19.4-0.5,23.5-1.1c6.2-1,5.7-4.2,5.7-6.8
		L155.5,87.5z"/>
	<path class="st20" d="M152.4,86.2h-7c0,0,0,0,0,0c-0.7,0-1.4,0.6-1.4,1.4v2.6c3.4-1.2,6.8-1.6,9.4-3.4
		C153.2,86.4,152.8,86.2,152.4,86.2z"/>
	<path class="st22" d="M144.1,90.7c0,0.8,0.6,1.4,1.4,1.4c0,0,8.4,0.8,8.4-3.7c0-0.6-0.1-1.1-0.4-1.5c-2.6,1.7-6,2.2-9.4,3.4V90.7z"
		/>
	<path class="st22" d="M98.8,89.3C100,92.7,107,92,107,92c0.8,0,1.4-0.6,1.4-1.4v-1.2C106,91,102,88.6,98.8,89.3z"/>
	<path class="st20" d="M107,86.2C107,86.2,107,86.2,107,86.2h-7c-0.8,0-1.4,0.8-1.4,2.1c0,0.4,0.1,0.7,0.2,1
		c3.2-0.7,7.2,1.6,9.6,0.2v-1.9C108.4,86.8,107.8,86.2,107,86.2z"/>
	<path class="st4" d="M139,87.1h-28.3c-0.4,0-0.8-0.3-0.8-0.8s0.3-0.8,0.8-0.8H139c0.4,0,0.8,0.3,0.8,0.8S139.5,87.1,139,87.1z"/>
	<path class="st4" d="M139,90.7h-28.3c-0.4,0-0.8-0.3-0.8-0.8s0.3-0.8,0.8-0.8H139c0.4,0,0.8,0.3,0.8,0.8S139.5,90.7,139,90.7z"/>
	<rect x="116" y="93.4" class="st14" width="16.8" height="5"/>
	<path class="st4" d="M132.8,99.2H116c-0.5,0-0.8-0.4-0.8-0.8v-5c0-0.5,0.4-0.8,0.8-0.8h16.8c0.5,0,0.8,0.4,0.8,0.8v5
		C133.6,98.8,133.3,99.2,132.8,99.2z M116.8,97.5H132v-3.3h-15.1V97.5z"/>
	<path class="st20" d="M84.4,71c-0.2,0-0.3-0.1-0.5-0.2l-6.2-5c-0.2-0.2-0.3-0.5-0.2-0.8s0.3-0.5,0.6-0.5l6.6-0.8l0.9-6.4
		c0-0.3,0.2-0.5,0.5-0.6s0.6,0,0.8,0.2l5,4.8l5.7-4.9c0.2-0.2,0.6-0.2,0.8-0.1c0.3,0.1,0.4,0.4,0.4,0.7L98,66.7
		c0,0.4-0.4,0.7-0.8,0.7c-0.4,0-0.7-0.4-0.7-0.8l0.7-7.5l-4.8,4.1c-0.3,0.3-0.7,0.2-1,0l-4.5-4.2l-0.8,5.5c0,0.3-0.3,0.6-0.7,0.6
		l-5.4,0.7l4.8,3.9c0.3,0.3,0.4,0.7,0.1,1.1C84.8,70.9,84.6,71,84.4,71z"/>
	<path class="st4" d="M124.9,103.5c-11.2,0-19.6-0.5-24.9-1.3c-6.7-1.1-6.6-5.1-6.6-7.9l0-0.7v-8.9c0-5.2,6.3-9.9,6.6-10.1
		c0.2-0.1,0.4-0.2,0.6-0.1c8,1.4,16.2,2.2,24.3,2.3c8.1-0.2,16.3-1,24.3-2.3c0.2,0,0.4,0,0.6,0.1c0.3,0.2,6.6,5,6.6,10.1l0,9.6
		c0,2.9,0.1,6.8-6.6,7.9C144.5,103,136.1,103.5,124.9,103.5z M100.7,75.9c-1.1,0.9-5.8,4.8-5.8,8.7l0,9.6c0,2.8-0.1,5.5,5.3,6.4
		c5.2,0.9,13.5,1.3,24.7,1.3s19.4-0.4,24.7-1.3c5.4-0.9,5.4-3.6,5.3-6.4l0-0.7v-8.9c0-3.9-4.6-7.8-5.8-8.7c-8,1.4-16.1,2.1-24.2,2.3
		C116.8,78,108.6,77.2,100.7,75.9z"/>
	<path class="st4" d="M145.8,91.8c-0.8,0-1.3,0-1.5-0.1c-1.2,0-2.1-1-2.1-2.1v-3.1c0-1.2,0.9-2.1,2.1-2.1h7c1,0,2.1,0.9,2.1,2.9
		c0,1.1-0.4,2-1.2,2.7C150.7,91.6,147.7,91.8,145.8,91.8z M144.4,86c-0.3,0-0.6,0.3-0.6,0.6v3.1c0,0.3,0.3,0.6,0.6,0.6
		c0,0,0,0,0.1,0c1.4,0.1,5.3,0.1,6.8-1.3c0.5-0.4,0.7-1,0.7-1.6c0-0.9-0.3-1.4-0.6-1.4H144.4z"/>
	<path class="st4" d="M104.6,91.8c-1.8,0-4.8-0.2-6.5-1.7c-0.8-0.7-1.2-1.6-1.2-2.7c0-2,1.1-2.9,2.1-2.9h7c1.2,0,2.1,0.9,2.1,2.1
		v3.1c0,1.2-0.9,2.1-2.1,2.1C105.9,91.8,105.3,91.8,104.6,91.8z M99,86c-0.3,0-0.6,0.5-0.6,1.4c0,0.6,0.2,1.2,0.7,1.6
		c1.6,1.4,5.5,1.4,6.8,1.3c0,0,0,0,0.1,0c0.3,0,0.6-0.3,0.6-0.6v-3.1c0-0.3-0.3-0.6-0.6-0.6H99z"/>
	<path class="st4" d="M101.2,82.6c-0.1,0-0.2,0-0.3-0.1c-0.4-0.2-0.6-0.6-0.4-1c0-0.1,0.7-1.6,1.8-3c0.3-0.3,0.7-0.4,1.1-0.1
		c0.3,0.3,0.4,0.7,0.1,1.1c-1,1.2-1.6,2.6-1.6,2.6C101.7,82.4,101.5,82.6,101.2,82.6z"/>
</g>
</svg>
