<?xml version="1.0" encoding="UTF-8"?>
<svg width="20px" height="20px" viewBox="0 0 20 20" version="1.1" xmlns="http://www.w3.org/2000/svg" xmlns:xlink="http://www.w3.org/1999/xlink">
    <!-- Generator: Sketch 51.1 (57501) - http://www.bohemiancoding.com/sketch -->
    <title>check bullet</title>
    <desc>Created with Sketch.</desc>
    <defs>
        <polygon id="path-1" points="0.00024 0 20 0 20 20 0.00024 20"></polygon>
    </defs>
    <g id="Desktop-1440x1024" stroke="none" stroke-width="1" fill="none" fill-rule="evenodd">
        <g id="Desktop-1440x1024-Home-Screen-Slide-02" transform="translate(-752.000000, -1566.000000)">
            <g id="Al-instante" transform="translate(0.000000, 1024.000000)">
                <g id="Group" transform="translate(752.000000, 418.000000)">
                    <g id="check-bullet" transform="translate(0.000000, 124.000000)">
                        <g id="Group-6">
                            <g>
                                <g id="Group-3">
                                    <mask id="mask-2" fill="white">
                                        <use xlink:href="#path-1"></use>
                                    </mask>
                                    <g id="Clip-2"></g>
                                    <path d="M20.00024,10 C20.00024,4.4768 15.52264,0 10.00024,0 C4.47704,0 0.00024,4.4768 0.00024,10 C0.00024,15.5224 4.47704,20 10.00024,20 C15.52264,20 20.00024,15.5224 20.00024,10" id="Fill-1" fill="#FFFFFF" mask="url(#mask-2)"></path>
                                </g>
                                <path d="M9.21432,14.52424 C9.03272,14.52424 8.85672,14.46264 8.71352,14.34824 L5.66392,11.89784 C5.31912,11.62104 5.26392,11.11784 5.54072,10.77304 C5.81752,10.42904 6.32072,10.37464 6.66472,10.65064 L9.04152,12.55944 L13.10392,6.62264 C13.35352,6.25784 13.85032,6.16424 14.21592,6.41384 C14.58072,6.66344 14.67352,7.16104 14.42472,7.52584 L9.87432,14.17544 C9.74872,14.35944 9.55192,14.48264 9.33112,14.51544 C9.29272,14.52184 9.25352,14.52424 9.21432,14.52424" id="Fill-4" fill="#5B49FF"></path>
                            </g>
                        </g>
                    </g>
                </g>
            </g>
        </g>
    </g>
</svg>