<?xml version="1.0" encoding="UTF-8"?>
<svg width="22px" height="22px" viewBox="0 0 22 22" version="1.1" xmlns="http://www.w3.org/2000/svg" xmlns:xlink="http://www.w3.org/1999/xlink">
    <!-- Generator: Sketch 55.2 (78181) - https://sketchapp.com -->
    <title>Calendar Icon</title>
    <desc>Created with Sketch.</desc>
    <defs>
        <polygon id="path-1" points="-1.62181379e-12 0.0006 21.8597 0.0006 21.8597 21.8606 -1.62181379e-12 21.8606"></polygon>
    </defs>
    <g id="Web" stroke="none" stroke-width="1" fill="none" fill-rule="evenodd">
        <g id="Pago-3" transform="translate(-524.000000, -509.000000)">
            <g id="Calendar-Icon" transform="translate(524.000000, 509.000000)">
                <mask id="mask-2" fill="white">
                    <use xlink:href="#path-1"></use>
                </mask>
                <g id="Clip-2"></g>
                <path d="M16.107,4.601 C16.742,4.601 17.259,4.088 17.259,3.453 L17.259,1.153 C17.259,0.514 16.742,-5.15143483e-14 16.107,-5.15143483e-14 C15.473,-5.15143483e-14 14.959,0.514 14.959,1.153 L14.959,3.453 C14.959,4.088 15.473,4.601 16.107,4.601 L16.107,4.601 Z M5.753,4.601 C6.388,4.601 6.905,4.088 6.905,3.453 L6.905,1.153 C6.905,0.514 6.388,-5.15143483e-14 5.753,-5.15143483e-14 C5.118,-5.15143483e-14 4.601,0.514 4.601,1.153 L4.601,3.453 C4.601,4.088 5.118,4.601 5.753,4.601 L5.753,4.601 Z M9.205,17.259 C9.84,17.259 10.354,16.743 10.354,16.108 C10.354,15.473 9.84,14.959 9.205,14.959 C8.57,14.959 8.053,15.473 8.053,16.108 C8.053,16.743 8.57,17.259 9.205,17.259 L9.205,17.259 Z M5.753,10.355 C6.388,10.355 6.905,9.841 6.905,9.205 C6.905,8.568 6.388,8.054 5.753,8.054 C5.118,8.054 4.601,8.568 4.601,9.205 C4.601,9.841 5.118,10.355 5.753,10.355 L5.753,10.355 Z M5.753,13.807 C6.388,13.807 6.905,13.292 6.905,12.659 C6.905,12.021 6.388,11.506 5.753,11.506 C5.118,11.506 4.601,12.021 4.601,12.659 C4.601,13.292 5.118,13.807 5.753,13.807 L5.753,13.807 Z M19.559,2.301 L18.411,2.301 L18.411,4.601 L19.559,4.601 L19.559,19.56 L2.3,19.56 L2.3,4.601 L3.452,4.601 L3.452,2.301 L2.3,2.301 C1.031,2.301 -1.08713039e-12,3.332 -1.08713039e-12,4.601 L-1.08713039e-12,19.56 C-1.08713039e-12,20.832 1.031,21.861 2.3,21.861 L19.559,21.861 C20.832,21.861 21.86,20.832 21.86,19.56 L21.86,4.601 C21.86,3.332 20.832,2.301 19.559,2.301 L19.559,2.301 Z M5.753,17.259 C6.388,17.259 6.905,16.743 6.905,16.108 C6.905,15.473 6.388,14.959 5.753,14.959 C5.118,14.959 4.601,15.473 4.601,16.108 C4.601,16.743 5.118,17.259 5.753,17.259 L5.753,17.259 Z M9.205,13.807 C9.84,13.807 10.354,13.292 10.354,12.659 C10.354,12.021 9.84,11.506 9.205,11.506 C8.567,11.506 8.053,12.021 8.053,12.659 C8.053,13.292 8.57,13.807 9.205,13.807 L9.205,13.807 Z M16.107,13.807 C16.742,13.807 17.259,13.292 17.259,12.659 C17.259,12.021 16.745,11.506 16.107,11.506 C15.473,11.506 14.959,12.021 14.959,12.659 C14.959,13.292 15.473,13.807 16.107,13.807 L16.107,13.807 Z M16.107,10.355 C16.742,10.355 17.259,9.841 17.259,9.205 C17.259,8.568 16.745,8.054 16.107,8.054 C15.473,8.054 14.959,8.568 14.959,9.205 C14.959,9.841 15.473,10.355 16.107,10.355 L16.107,10.355 Z M8.053,4.601 L13.806,4.601 L13.806,2.301 L8.053,2.301 L8.053,4.601 Z M12.658,8.054 L12.658,8.054 C12.02,8.054 11.506,8.568 11.506,9.205 C11.506,9.841 12.02,10.355 12.658,10.355 C13.292,10.355 13.806,9.841 13.806,9.205 C13.806,8.568 13.292,8.054 12.658,8.054 L12.658,8.054 Z M9.205,10.355 C9.84,10.355 10.354,9.841 10.354,9.205 C10.354,8.568 9.84,8.054 9.205,8.054 C8.57,8.054 8.053,8.568 8.053,9.205 C8.053,9.841 8.57,10.355 9.205,10.355 L9.205,10.355 Z M12.658,11.506 L12.658,11.506 C12.02,11.506 11.506,12.021 11.506,12.659 C11.506,13.292 12.023,13.807 12.658,13.807 C13.292,13.807 13.806,13.292 13.806,12.659 C13.806,12.021 13.292,11.506 12.658,11.506 L12.658,11.506 Z" id="Fill-1" fill="#777777" mask="url(#mask-2)"></path>
            </g>
        </g>
    </g>
</svg>