<?xml version="1.0" encoding="utf-8"?>
<!-- Generator: Adobe Illustrator 23.0.1, SVG Export Plug-In . SVG Version: 6.00 Build 0)  -->
<svg version="1.1" xmlns="http://www.w3.org/2000/svg" xmlns:xlink="http://www.w3.org/1999/xlink" x="0px" y="0px"
	 viewBox="0 0 78.8 77.7" style="enable-background:new 0 0 78.8 77.7;" xml:space="preserve">
<style type="text/css">
	.st0{fill:#ECF9FF;}
	.st1{fill:#FFFFFF;}
	.st2{fill:#535D66;}
	.st3{fill-rule:evenodd;clip-rule:evenodd;fill:#ECF9FF;}
	.st4{fill-rule:evenodd;clip-rule:evenodd;fill:#FFFFFF;}
	.st5{fill-rule:evenodd;clip-rule:evenodd;fill:#00ADEE;}
	.st6{fill-rule:evenodd;clip-rule:evenodd;}
	.st7{fill:#00ADEE;}
	.st8{fill:#808099;}
	.st9{fill:#FFC037;}
	.st10{fill:#FF7108;}
	.st11{fill:#AEFFCF;}
	.st12{fill:#0BD360;}
	.st13{fill:#343434;}
	.st14{fill-rule:evenodd;clip-rule:evenodd;fill:#104EFF;}
	.st15{fill:#002E75;}
	.st16{fill:#0855C4;}
	.st17{fill:#99E2FF;}
	.st18{fill:#AED3FF;}
	.st19{fill:#231F20;}
	.st20{fill:#EFF1F4;}
	.st21{clip-path:url(#SVGID_2_);}
	.st22{fill:#8EEA00;}
	.st23{fill-rule:evenodd;clip-rule:evenodd;fill:#8EEA00;}
	.st24{fill:#0021CE;}
	.st25{fill:#104EFF;}
	.st26{fill:#303030;}
	.st27{fill:#00E1CF;}
	.st28{fill-rule:evenodd;clip-rule:evenodd;fill:#0BD360;}
	.st29{fill-rule:evenodd;clip-rule:evenodd;fill:#00E1CF;}
	.st30{fill:none;stroke:#5C006A;stroke-width:1.29;stroke-linecap:round;stroke-linejoin:round;}
	.st31{fill:#B6FFD3;}
	.st32{clip-path:url(#SVGID_4_);}
	.st33{fill:#DFE6E8;}
	.st34{fill:#B3B3B3;}
	.st35{fill:#96E0FD;}
	.st36{fill:#0ED160;}
	.st37{fill:#08A8FD;}
	.st38{fill:#6EEE89;}
	.st39{fill:#DFF8F5;}
	.st40{clip-path:url(#SVGID_6_);fill:#96E0FD;}
	.st41{fill:#F5F5F6;}
	.st42{fill:none;stroke:#002E75;stroke-width:1.5207;stroke-linecap:round;stroke-linejoin:round;}
	.st43{fill:#E9EAEB;}
	.st44{clip-path:url(#SVGID_8_);fill:#FFFFFF;}
	.st45{clip-path:url(#SVGID_8_);fill:#FFCF9B;}
	.st46{clip-path:url(#SVGID_8_);fill:#002E75;}
	.st47{clip-path:url(#SVGID_8_);fill:#F9BC90;}
	.st48{clip-path:url(#SVGID_8_);fill:#0ED160;}
	.st49{fill-rule:evenodd;clip-rule:evenodd;fill:#002E75;}
	.st50{fill-rule:evenodd;clip-rule:evenodd;fill:#0ED160;}
	.st51{fill-rule:evenodd;clip-rule:evenodd;fill:#DFE6E8;}
	.st52{fill-rule:evenodd;clip-rule:evenodd;fill:#DCE6E8;}
	.st53{fill-rule:evenodd;clip-rule:evenodd;fill:#6EEE89;}
	.st54{fill-rule:evenodd;clip-rule:evenodd;fill:#FFC037;}
	.st55{fill:#F4F4F5;}
	.st56{fill:#606060;}
	.st57{fill-rule:evenodd;clip-rule:evenodd;fill:#005EA1;}
	.st58{fill-rule:evenodd;clip-rule:evenodd;fill:#00A5D8;}
	.st59{fill:#444444;}
	.st60{clip-path:url(#SVGID_10_);}
	.st61{clip-path:url(#SVGID_12_);}
	.st62{clip-path:url(#SVGID_14_);}
	.st63{clip-path:url(#SVGID_16_);}
	.st64{clip-path:url(#SVGID_18_);}
	.st65{clip-path:url(#SVGID_20_);}
</style>
<g id="Layer_3">
</g>
<g id="Layer_1">
</g>
<g id="Layer_2">
</g>
<g id="Layer_4">
</g>
<g id="Layer_5">
</g>
<g id="Isolation_Mode">
</g>
<g id="Art">
</g>
<g id="Capa_8">
	<g>
		<g>
			<g>
				<path class="st42" d="M44.6,33.1c-11.6,2.6-20,0.6-26.6-2.5v31.2c7.6,4.3,16.4,5.4,28.1,2.7c16.1-3.7,17.4-5.2,26.6,2.3V33.8
					C63.7,26.6,56.9,30.3,44.6,33.1z"/>
			</g>
		</g>
	</g>
	<g>
		<g>
			<g>
				<path class="st42" d="M66.8,24c-8.9-5.6-14.4-3.3-22.2,0c-11.4,4.8-25.3,1-32.6-3.3v31.2"/>
			</g>
		</g>
	</g>
	<g>
		<g>
			<g>
				<path class="st42" d="M60.9,14.2c-8.1-3.5-13.1-1.3-20.7,1.6c-11.5,4.4-26.8-0.5-34-4.8v31.1"/>
			</g>
		</g>
	</g>
	<g>
		<g>
			<g>
				<path class="st15" d="M38.6,60.8c-0.1,0-0.2,0-0.3-0.1c-3-1.5-4.8-4.9-4.8-9.3c0-4.4,1.8-9.1,4.9-12.5c0.3-0.3,0.8-0.3,1.1-0.1
					c0.3,0.3,0.3,0.8,0.1,1.1c-2.8,3.1-4.5,7.4-4.5,11.4c0,3.7,1.5,6.7,4,7.9c0.4,0.2,0.5,0.6,0.4,1C39.2,60.7,38.9,60.8,38.6,60.8z
					"/>
			</g>
		</g>
	</g>
	<g>
		<g>
			<g>
				<path class="st15" d="M41.9,55.7c-0.4,0-0.8-0.1-1.1-0.4c-0.6-0.4-0.8-1.2-0.7-2.1c0.1-0.4,0.5-0.7,0.9-0.6
					c0.4,0.1,0.7,0.5,0.6,0.9c-0.1,0.4,0,0.6,0.1,0.7c0.1,0.1,0.3,0.1,0.6-0.1l2.1-0.9c0.8-0.4,1.8-1.7,1.9-2.7l0.3-1.8
					c0.1-0.4,0-0.6-0.1-0.6c0,0-0.1,0-0.2,0l-3.2,0.3c-0.6,0.1-1.1-0.1-1.4-0.5c-0.4-0.4-0.6-1.1-0.4-1.9l0-0.7
					c0.2-1.5,1.4-3.3,2.8-3.9l2.1-0.9c0.8-0.3,1.5-0.3,2.1,0.1c0.6,0.5,0.9,1.3,0.7,2.2c-0.1,0.4-0.5,0.7-0.9,0.6
					c-0.4-0.1-0.7-0.5-0.6-0.9c0.1-0.4,0-0.6-0.1-0.7c-0.1-0.1-0.3-0.1-0.6,0l-2.1,0.9c-0.8,0.4-1.8,1.7-1.9,2.7l0,0.7
					c-0.1,0.4,0,0.6,0,0.7c0,0,0.2,0,0.2,0l3.2-0.3c0.6-0.1,1.1,0.1,1.4,0.5c0.4,0.4,0.6,1.1,0.5,1.9l-0.3,1.8
					c-0.2,1.4-1.3,3.2-2.8,3.9l-2.1,0.9C42.6,55.6,42.2,55.7,41.9,55.7z"/>
			</g>
		</g>
	</g>
	<g>
		<g>
			<g>
				<path class="st15" d="M45.6,42.2c0,0-0.1,0-0.1,0c-0.4-0.1-0.7-0.5-0.6-0.9l0.5-3c0.1-0.4,0.4-0.7,0.9-0.6
					c0.4,0.1,0.7,0.5,0.6,0.9l-0.5,3C46.3,41.9,46,42.2,45.6,42.2z"/>
			</g>
		</g>
	</g>
	<g>
		<g>
			<g>
				<path class="st15" d="M42.8,59.3c0,0-0.1,0-0.1,0c-0.4-0.1-0.7-0.5-0.6-0.9l0.6-3.4c0.1-0.4,0.5-0.7,0.9-0.6
					c0.4,0.1,0.7,0.5,0.6,0.9l-0.6,3.4C43.5,59,43.1,59.3,42.8,59.3z"/>
			</g>
		</g>
	</g>
	<g>
		<g>
			<g>
				<path class="st15" d="M28.3,52.7h-3c-0.4,0-0.8-0.3-0.8-0.8s0.3-0.8,0.8-0.8h3c0.4,0,0.8,0.3,0.8,0.8S28.7,52.7,28.3,52.7z"/>
			</g>
		</g>
	</g>
	<g>
		<g>
			<g>
				<path class="st15" d="M63.8,46.1h-3c-0.4,0-0.8-0.3-0.8-0.8s0.3-0.8,0.8-0.8h3c0.4,0,0.8,0.3,0.8,0.8S64.3,46.1,63.8,46.1z"/>
			</g>
		</g>
	</g>
	<g>
		<g>
			<g>
				<path class="st15" d="M49,58.9c-0.2,0-0.4-0.1-0.6-0.3c-0.3-0.3-0.2-0.8,0.1-1.1c3.6-3,6-8.1,6-12.9c0-3.1-1-5.7-2.8-7.2
					c-0.3-0.3-0.4-0.7-0.1-1.1c0.3-0.3,0.7-0.4,1.1-0.1c2.2,1.8,3.4,4.7,3.4,8.3c0,5.3-2.6,10.8-6.6,14.1
					C49.4,58.9,49.2,58.9,49,58.9z"/>
			</g>
		</g>
	</g>
</g>
</svg>
