<svg xmlns="http://www.w3.org/2000/svg" viewBox="0 0 27.89 28"><defs><style>.ff095242-3aff-447d-ac40-1313fc51b6e3{fill:#00adee;}</style></defs><title>Capa 8 (3)</title><g id="fc7cc71c-03f0-4455-b7f9-eb1a1fffb4e8" data-name="Capa 2"><g id="b9b55533-0dbf-46b0-96fa-5d70c8f2f142" data-name="Capa 1"><g id="b5dc6b19-1089-4e9f-8f4c-2546b9552415" data-name="Capa 8"><path class="ff095242-3aff-447d-ac40-1313fc51b6e3" d="M20.72,18.81a3.42,3.42,0,0,0-2.47-.35,3.22,3.22,0,0,0-1.5,1.15,5.24,5.24,0,0,1-.71.7,2.11,2.11,0,0,1-2.38-.17,13.89,13.89,0,0,1-3.36-2.65,13.89,13.89,0,0,1-2.65-3.36,2.33,2.33,0,0,1-.18-2.38A2.82,2.82,0,0,1,8.18,11a2.78,2.78,0,0,0,1.15-1.5A3.07,3.07,0,0,0,9,7.07,5.74,5.74,0,0,0,5,3.8C2.71,3.62,1,6,.41,7.51a8.56,8.56,0,0,0-.09,4.94,15.49,15.49,0,0,0,2.92,5.3,41.83,41.83,0,0,0,3.18,3.8,31.3,31.3,0,0,0,3.7,3.18,19.11,19.11,0,0,0,5.3,2.91,7.34,7.34,0,0,0,2.39.36,7.77,7.77,0,0,0,2.47-.44c1.59-.53,4-2.3,3.71-4.6C23.81,21,22.22,19.61,20.72,18.81Zm-.79,7.42a6.41,6.41,0,0,1-4.06,0A16.14,16.14,0,0,1,11,23.58a28.34,28.34,0,0,1-3.54-3A32.58,32.58,0,0,1,4.38,17,17.55,17.55,0,0,1,1.73,12.1,6.41,6.41,0,0,1,1.73,8c.36-1.24,1.59-2.92,3-2.92h.17a4.8,4.8,0,0,1,3,2.56A2.09,2.09,0,0,1,8.18,9.1a1.87,1.87,0,0,1-.62.79L6.77,9.1a.69.69,0,0,0-1,1h0l.79.79L6.42,11a3.65,3.65,0,0,0,.08,3.89A18.75,18.75,0,0,0,13,21.37a3.62,3.62,0,0,0,3.89.09l.17-.17.8.79a.69.69,0,1,0,1-1l-.79-.8a1.86,1.86,0,0,1,.79-.61,1.88,1.88,0,0,1,1.41.26c1.24.62,2.48,1.77,2.56,3C22.84,24.47,21.16,25.79,19.93,26.23Z"/><path class="ff095242-3aff-447d-ac40-1313fc51b6e3" d="M15.6,0a12.17,12.17,0,0,0-5,1.06.72.72,0,0,0-.36.88c.09.36.53.44.89.36A11,11,0,0,1,25.58,7.77a10.47,10.47,0,0,1,0,8.92.65.65,0,0,0,.35.89h0c.09,0,.18.08.27.08a.75.75,0,0,0,.62-.35,12.21,12.21,0,0,0-6.1-16.16A14.76,14.76,0,0,0,15.6,0Z"/><path class="ff095242-3aff-447d-ac40-1313fc51b6e3" d="M22.49,14h.09a.59.59,0,0,0,.62-.53,7.31,7.31,0,0,0,.08-1.32A7.69,7.69,0,0,0,15.6,4.5a6.52,6.52,0,0,0-1.32.09.68.68,0,0,0-.53.8h0c.08.35.35.62.7.53h0a4.26,4.26,0,0,1,1.06-.09,6.33,6.33,0,0,1,6.36,6.36,4.26,4.26,0,0,1-.09,1.06C21.87,13.69,22.14,14,22.49,14Z"/></g></g></g></svg>