<svg id="Layer_1" data-name="Layer 1" xmlns="http://www.w3.org/2000/svg" viewBox="0 0 34 34"><title>contact-icon-call</title><path d="M24.7,22.54a3.6,3.6,0,0,0-2.8-.36,4.12,4.12,0,0,0-1.73,1.34,5.21,5.21,0,0,1-.8.77,2.54,2.54,0,0,1-2.73-.16,20.07,20.07,0,0,1-3.81-3,20.07,20.07,0,0,1-3-3.81,2.52,2.52,0,0,1-.16-2.73,4.77,4.77,0,0,1,.77-.8,4.12,4.12,0,0,0,1.34-1.73,3.6,3.6,0,0,0-.36-2.8C10.63,7.62,9,5.76,6.91,5.54,4.33,5.26,2.37,8,1.73,9.71a9.1,9.1,0,0,0-.09,5.57,19.91,19.91,0,0,0,3.26,6,36.28,36.28,0,0,0,3.63,4.26,35.8,35.8,0,0,0,4.21,3.58,19.91,19.91,0,0,0,6,3.26,10,10,0,0,0,2.73.39,8.26,8.26,0,0,0,2.84-.48c1.76-.64,4.45-2.61,4.17-5.18C28.24,25,26.37,23.37,24.7,22.54Zm-.92,8.32a7.58,7.58,0,0,1-4.65.05,18.33,18.33,0,0,1-5.51-3,32.77,32.77,0,0,1-4-3.42,35,35,0,0,1-3.47-4.08,18.33,18.33,0,0,1-3-5.51,7.58,7.58,0,0,1,.05-4.65C3.63,8.89,5,7,6.55,7h.2c1.39.15,2.69,1.58,3.37,2.94a2.24,2.24,0,0,1,.29,1.64,2.34,2.34,0,0,1-.71.9l-.88-.88a.75.75,0,1,0-1.06,1.06l.88.89c-.05.06-.11.12-.16.19a4,4,0,0,0,.11,4.37,20.86,20.86,0,0,0,7.27,7.27,4,4,0,0,0,4.37.11l.19-.16.89.88a.75.75,0,0,0,1.06,0,.75.75,0,0,0,0-1.06l-.88-.88a2.21,2.21,0,0,1,.9-.7,2.18,2.18,0,0,1,1.64.28c1.36.68,2.79,2,2.94,3.37C27.14,28.86,25.17,30.35,23.78,30.86Z"/><path d="M18.94,1.25a13.76,13.76,0,0,0-5.69,1.22.75.75,0,0,0,.62,1.37A12.31,12.31,0,0,1,30.16,20.13a.75.75,0,0,0,.37,1,.7.7,0,0,0,.31.07.75.75,0,0,0,.69-.44A13.82,13.82,0,0,0,18.94,1.25Z"/><path d="M26.67,17.14h.13a.75.75,0,0,0,.74-.63,8.5,8.5,0,0,0,.13-1.46,8.74,8.74,0,0,0-8.73-8.73,8.41,8.41,0,0,0-1.46.13.75.75,0,0,0-.61.87.74.74,0,0,0,.86.61,7.65,7.65,0,0,1,1.21-.11,7.25,7.25,0,0,1,7.23,7.23,7.65,7.65,0,0,1-.11,1.21A.76.76,0,0,0,26.67,17.14Z"/></svg>