<svg xmlns="http://www.w3.org/2000/svg" viewBox="0 0 26.74 26.74"><defs><style>.b080efc1-5732-4d0c-be35-1e8adec4630c{fill:#00adee;}</style></defs><title>Capa 8 (2)</title><g id="a4bad0a1-0ace-4525-9250-348ee6fde931" data-name="Capa 2"><g id="f17b901b-4b83-40d0-9519-21ef00f4b387" data-name="Capa 1"><g id="e3355b82-f5e6-4228-8910-2335355df823" data-name="Capa 8"><path class="b080efc1-5732-4d0c-be35-1e8adec4630c" d="M.61,26.71a.58.58,0,0,1-.41-.17A.62.62,0,0,1,0,25.89l2-5.5a13.36,13.36,0,1,1,18.39,4.35,13.52,13.52,0,0,1-14,0l-5.58,2A.11.11,0,0,1,.61,26.71Zm5.83-3.29a.44.44,0,0,1,.32.09A12.1,12.1,0,1,0,3.23,20a.64.64,0,0,1,.09.57l-1.65,4.6,4.6-1.64C6.27,23.42,6.35,23.42,6.44,23.42Z"/><path class="b080efc1-5732-4d0c-be35-1e8adec4630c" d="M16.53,21.45A5.76,5.76,0,0,1,15,21.21a10.8,10.8,0,0,1-3.28-1.81,16.91,16.91,0,0,1-2.3-2,14.17,14.17,0,0,1-2-2.38,11.15,11.15,0,0,1-1.81-3.28A4.85,4.85,0,0,1,5.7,8.56c.24-.9,1.39-2.46,3-2.29A3.8,3.8,0,0,1,11.28,8.4,2.2,2.2,0,0,1,11.44,10a2.41,2.41,0,0,1-.82,1c-.16.08-.24.24-.41.41a1.14,1.14,0,0,0,.08,1.23,13.21,13.21,0,0,0,1.56,2.05,9.63,9.63,0,0,0,2.06,1.56,1.1,1.1,0,0,0,1.23.08c.16-.08.24-.24.41-.41a3.28,3.28,0,0,1,1-.82,2.28,2.28,0,0,1,1.65.17,3.83,3.83,0,0,1,2.13,2.62c.16,1.48-1.4,2.63-2.38,3A2.56,2.56,0,0,1,16.53,21.45ZM8.41,7.5c-.66,0-1.4.9-1.65,1.56a4,4,0,0,0,0,2.38,10.47,10.47,0,0,0,1.65,3,23.11,23.11,0,0,0,1.88,2.22,15.09,15.09,0,0,0,2.14,1.81,10.69,10.69,0,0,0,3,1.64,4.06,4.06,0,0,0,2.39,0c.73-.25,1.64-1,1.64-1.73a2.67,2.67,0,0,0-1.48-1.64,1.25,1.25,0,0,0-.74-.16,1.15,1.15,0,0,0-.49.41,3.86,3.86,0,0,1-.58.57,2.34,2.34,0,0,1-2.71-.16,11.89,11.89,0,0,1-4-4,2.37,2.37,0,0,1-.08-2.63,2,2,0,0,1,.57-.58,1.81,1.81,0,0,0,.41-.49.83.83,0,0,0-.16-.74A2.67,2.67,0,0,0,8.49,7.41Z"/><path class="b080efc1-5732-4d0c-be35-1e8adec4630c" d="M9.88,11.19A.66.66,0,0,1,9.47,11L9,10.53a.54.54,0,0,1,0-.82H9a.65.65,0,0,1,.9,0l.5.5a.65.65,0,0,1,0,.9C10.21,11.11,10.05,11.19,9.88,11.19Z"/><path class="b080efc1-5732-4d0c-be35-1e8adec4630c" d="M16.7,18a.62.62,0,0,1-.41-.17l-.49-.49a.64.64,0,1,1,.9-.9l.49.49a.63.63,0,0,1,0,.9A1.2,1.2,0,0,1,16.7,18Z"/></g></g></g></svg>