<?xml version="1.0" encoding="utf-8"?>
<!-- Generator: Adobe Illustrator 23.0.1, SVG Export Plug-In . SVG Version: 6.00 Build 0)  -->
<svg version="1.1" xmlns="http://www.w3.org/2000/svg" xmlns:xlink="http://www.w3.org/1999/xlink" x="0px" y="0px"
	 viewBox="0 0 34 34" style="enable-background:new 0 0 34 34;" xml:space="preserve">
<style type="text/css">
	.st0{fill:#ECF9FF;}
	.st1{fill:#FFFFFF;}
	.st2{fill:#535D66;}
	.st3{fill-rule:evenodd;clip-rule:evenodd;fill:#ECF9FF;}
	.st4{fill-rule:evenodd;clip-rule:evenodd;fill:#FFFFFF;}
	.st5{fill-rule:evenodd;clip-rule:evenodd;fill:#00ADEE;}
	.st6{fill-rule:evenodd;clip-rule:evenodd;}
	.st7{fill:#00ADEE;}
	.st8{fill:#808099;}
	.st9{fill:#FFC037;}
	.st10{fill:#FF7108;}
	.st11{fill:#AEFFCF;}
	.st12{fill:#0BD360;}
	.st13{fill:#343434;}
	.st14{fill-rule:evenodd;clip-rule:evenodd;fill:#104EFF;}
	.st15{fill:#002E75;}
	.st16{fill:#0855C4;}
	.st17{fill:#99E2FF;}
	.st18{fill:#AED3FF;}
	.st19{fill:#231F20;}
	.st20{fill:#EFF1F4;}
	.st21{clip-path:url(#SVGID_2_);}
	.st22{fill:#8EEA00;}
	.st23{fill-rule:evenodd;clip-rule:evenodd;fill:#8EEA00;}
	.st24{fill:#0021CE;}
	.st25{fill:#104EFF;}
	.st26{fill:#303030;}
	.st27{fill:#00E1CF;}
	.st28{fill-rule:evenodd;clip-rule:evenodd;fill:#0BD360;}
	.st29{fill-rule:evenodd;clip-rule:evenodd;fill:#00E1CF;}
	.st30{fill:none;stroke:#5C006A;stroke-width:1.29;stroke-linecap:round;stroke-linejoin:round;}
	.st31{fill:#B6FFD3;}
	.st32{clip-path:url(#SVGID_4_);}
	.st33{fill:#DFE6E8;}
	.st34{fill:#B3B3B3;}
	.st35{fill:#96E0FD;}
	.st36{fill:#0ED160;}
	.st37{fill:#08A8FD;}
	.st38{fill:#6EEE89;}
	.st39{fill:#DFF8F5;}
	.st40{clip-path:url(#SVGID_6_);fill:#96E0FD;}
	.st41{fill:#F5F5F6;}
	.st42{fill:none;stroke:#002E75;stroke-width:1.5207;stroke-linecap:round;stroke-linejoin:round;}
	.st43{fill:#E9EAEB;}
	.st44{clip-path:url(#SVGID_8_);fill:#FFFFFF;}
	.st45{clip-path:url(#SVGID_8_);fill:#FFCF9B;}
	.st46{clip-path:url(#SVGID_8_);fill:#002E75;}
	.st47{clip-path:url(#SVGID_8_);fill:#F9BC90;}
	.st48{clip-path:url(#SVGID_8_);fill:#0ED160;}
	.st49{fill-rule:evenodd;clip-rule:evenodd;fill:#002E75;}
	.st50{fill-rule:evenodd;clip-rule:evenodd;fill:#0ED160;}
	.st51{fill-rule:evenodd;clip-rule:evenodd;fill:#DFE6E8;}
	.st52{fill-rule:evenodd;clip-rule:evenodd;fill:#DCE6E8;}
	.st53{fill-rule:evenodd;clip-rule:evenodd;fill:#6EEE89;}
	.st54{fill-rule:evenodd;clip-rule:evenodd;fill:#FFC037;}
	.st55{fill:#F4F4F5;}
	.st56{fill:#606060;}
	.st57{fill-rule:evenodd;clip-rule:evenodd;fill:#005EA1;}
	.st58{fill-rule:evenodd;clip-rule:evenodd;fill:#00A5D8;}
	.st59{fill:#444444;}
	.st60{clip-path:url(#SVGID_10_);}
	.st61{clip-path:url(#SVGID_12_);}
	.st62{clip-path:url(#SVGID_14_);}
	.st63{clip-path:url(#SVGID_16_);}
	.st64{clip-path:url(#SVGID_18_);}
	.st65{clip-path:url(#SVGID_20_);}
</style>
<g id="Layer_3">
</g>
<g id="Layer_1">
</g>
<g id="Layer_2">
</g>
<g id="Layer_4">
</g>
<g id="Layer_5">
</g>
<g id="Isolation_Mode">
</g>
<g id="Art">
</g>
<g id="Capa_8">
	<path class="st1" d="M21.4,32.8c-0.9,0-1.8-0.1-2.7-0.4c-2.2-0.8-4.2-1.9-6-3.3c-1.5-1.1-2.9-2.3-4.2-3.6l0,0
		c-1.3-1.3-2.5-2.8-3.6-4.3c-1.4-1.8-2.5-3.8-3.3-5.9c-0.6-1.9-0.5-3.8,0.1-5.6C2.4,8,4.3,5.3,6.9,5.6c2,0.2,3.7,2.1,4.6,3.8
		c0.5,0.8,0.6,1.8,0.4,2.8c-0.3,0.8-0.8,1.4-1.3,1.8c-0.3,0.3-0.6,0.5-0.8,0.8c-0.5,0.8-0.5,1.9,0.1,2.7c1.7,2.8,4,5.1,6.8,6.8
		c0.9,0.6,1.9,0.6,2.8,0.1c0.2-0.2,0.5-0.4,0.8-0.7c0.5-0.5,1-1.1,1.8-1.3c1-0.2,2-0.1,2.8,0.4c1.6,0.8,3.5,2.5,3.7,4.6
		c0.3,2.6-2.4,4.5-4.2,5.2C23.4,32.7,22.4,32.8,21.4,32.8z M9.6,24.5c1.3,1.3,2.6,2.4,4.1,3.5c1.7,1.3,3.5,2.4,5.5,3
		c1.5,0.5,3.1,0.4,4.6-0.1c1.4-0.5,3.3-2.1,3.2-3.6c-0.2-1.5-1.7-2.8-2.9-3.4c-0.5-0.3-1.1-0.4-1.7-0.3c-0.3,0.1-0.7,0.5-1,0.9
		c-0.3,0.3-0.6,0.7-1.1,1c-1.4,0.9-3.1,0.8-4.4-0.1c-2.9-1.7-5.4-4.3-7.2-7.2c-0.9-1.2-1-3-0.1-4.3c0.3-0.5,0.7-0.8,1-1.1
		c0.4-0.4,0.8-0.7,0.9-1.1c0.1-0.5,0-1.1-0.3-1.6c-0.7-1.3-2-2.8-3.4-3c-1.6-0.2-3.1,1.8-3.6,3.2c-0.5,1.5-0.5,3.1-0.1,4.6
		c0.7,2,1.7,3.8,3,5.5C7.2,21.8,8.3,23.2,9.6,24.5L9.6,24.5z"/>
	<path class="st1" d="M9.3,13.9c-0.2,0-0.4-0.1-0.5-0.2l-1-1c-0.3-0.3-0.3-0.8,0-1.1c0.3-0.3,0.8-0.3,1.1,0l1,1
		c0.3,0.3,0.3,0.8,0,1.1C9.6,13.8,9.5,13.9,9.3,13.9z"/>
	<path class="st1" d="M21.8,26.5c-0.2,0-0.4-0.1-0.5-0.2l-1-1c-0.3-0.3-0.3-0.8,0-1.1c0.3-0.3,0.8-0.3,1.1,0l1,1
		c0.3,0.3,0.3,0.8,0,1.1C22.2,26.4,22,26.5,21.8,26.5z"/>
	<path class="st1" d="M30.8,21.2c-0.1,0-0.2,0-0.3-0.1c-0.4-0.2-0.6-0.6-0.4-1c1.5-3.2,1.5-6.9,0-10.1c-1.4-3-3.8-5.3-6.9-6.4
		c-3.1-1.2-6.4-1.1-9.4,0.3c-0.4,0.2-0.8,0-1-0.4s0-0.8,0.4-1c3.4-1.5,7.1-1.6,10.6-0.3C27.3,3.4,30,6,31.5,9.4
		c1.6,3.6,1.6,7.8,0,11.4C31.4,21,31.1,21.2,30.8,21.2z"/>
	<path class="st1" d="M26.8,17.2c0,0-0.1,0-0.1,0c-0.4-0.1-0.7-0.5-0.6-0.9c0.1-0.4,0.1-0.8,0.1-1.2c0-4-3.2-7.2-7.2-7.2
		c-0.4,0-0.8,0-1.2,0.1c-0.4,0.1-0.8-0.2-0.9-0.6s0.2-0.8,0.6-0.9c0.5-0.1,1-0.1,1.5-0.1c4.8,0,8.8,3.9,8.8,8.8c0,0.5,0,1-0.1,1.5
		C27.5,16.9,27.2,17.2,26.8,17.2z"/>
</g>
</svg>
