<?xml version="1.0" encoding="utf-8"?>
<!-- Generator: Adobe Illustrator 23.0.1, SVG Export Plug-In . SVG Version: 6.00 Build 0)  -->
<svg version="1.1" xmlns="http://www.w3.org/2000/svg" xmlns:xlink="http://www.w3.org/1999/xlink" x="0px" y="0px"
	 viewBox="0 0 34 34" style="enable-background:new 0 0 34 34;" xml:space="preserve">
<style type="text/css">
	.st0{fill:#ECF9FF;}
	.st1{fill:#FFFFFF;}
	.st2{fill:#535D66;}
	.st3{fill-rule:evenodd;clip-rule:evenodd;fill:#ECF9FF;}
	.st4{fill-rule:evenodd;clip-rule:evenodd;fill:#FFFFFF;}
	.st5{fill-rule:evenodd;clip-rule:evenodd;fill:#00ADEE;}
	.st6{fill-rule:evenodd;clip-rule:evenodd;}
	.st7{fill:#00ADEE;}
	.st8{fill:#808099;}
	.st9{fill:#FFC037;}
	.st10{fill:#FF7108;}
	.st11{fill:#AEFFCF;}
	.st12{fill:#0BD360;}
	.st13{fill:#343434;}
	.st14{fill-rule:evenodd;clip-rule:evenodd;fill:#104EFF;}
	.st15{fill:#002E75;}
	.st16{fill:#0855C4;}
	.st17{fill:#99E2FF;}
	.st18{fill:#AED3FF;}
	.st19{fill:#231F20;}
	.st20{fill:#EFF1F4;}
	.st21{clip-path:url(#SVGID_2_);}
	.st22{fill:#8EEA00;}
	.st23{fill-rule:evenodd;clip-rule:evenodd;fill:#8EEA00;}
	.st24{fill:#0021CE;}
	.st25{fill:#104EFF;}
	.st26{fill:#303030;}
	.st27{fill:#00E1CF;}
	.st28{fill-rule:evenodd;clip-rule:evenodd;fill:#0BD360;}
	.st29{fill-rule:evenodd;clip-rule:evenodd;fill:#00E1CF;}
	.st30{fill:none;stroke:#5C006A;stroke-width:1.29;stroke-linecap:round;stroke-linejoin:round;}
	.st31{fill:#B6FFD3;}
	.st32{clip-path:url(#SVGID_4_);}
	.st33{fill:#DFE6E8;}
	.st34{fill:#B3B3B3;}
	.st35{fill:#96E0FD;}
	.st36{fill:#0ED160;}
	.st37{fill:#08A8FD;}
	.st38{fill:#6EEE89;}
	.st39{fill:#DFF8F5;}
	.st40{clip-path:url(#SVGID_6_);fill:#96E0FD;}
	.st41{fill:#F5F5F6;}
	.st42{fill:none;stroke:#002E75;stroke-width:1.5207;stroke-linecap:round;stroke-linejoin:round;}
	.st43{fill:#E9EAEB;}
	.st44{clip-path:url(#SVGID_8_);fill:#FFFFFF;}
	.st45{clip-path:url(#SVGID_8_);fill:#FFCF9B;}
	.st46{clip-path:url(#SVGID_8_);fill:#002E75;}
	.st47{clip-path:url(#SVGID_8_);fill:#F9BC90;}
	.st48{clip-path:url(#SVGID_8_);fill:#0ED160;}
	.st49{fill-rule:evenodd;clip-rule:evenodd;fill:#002E75;}
	.st50{fill-rule:evenodd;clip-rule:evenodd;fill:#0ED160;}
	.st51{fill-rule:evenodd;clip-rule:evenodd;fill:#DFE6E8;}
	.st52{fill-rule:evenodd;clip-rule:evenodd;fill:#DCE6E8;}
	.st53{fill-rule:evenodd;clip-rule:evenodd;fill:#6EEE89;}
	.st54{fill-rule:evenodd;clip-rule:evenodd;fill:#FFC037;}
	.st55{fill:#F4F4F5;}
	.st56{fill:#606060;}
	.st57{fill-rule:evenodd;clip-rule:evenodd;fill:#005EA1;}
	.st58{fill-rule:evenodd;clip-rule:evenodd;fill:#00A5D8;}
	.st59{fill:#444444;}
	.st60{clip-path:url(#SVGID_10_);}
	.st61{clip-path:url(#SVGID_12_);}
	.st62{clip-path:url(#SVGID_14_);}
	.st63{clip-path:url(#SVGID_16_);}
	.st64{clip-path:url(#SVGID_18_);}
	.st65{clip-path:url(#SVGID_20_);}
</style>
<g id="Layer_3">
</g>
<g id="Layer_1">
</g>
<g id="Layer_2">
</g>
<g id="Layer_4">
</g>
<g id="Layer_5">
</g>
<g id="Isolation_Mode">
</g>
<g id="Art">
</g>
<g id="Capa_8">
	<path class="st1" d="M1.5,33.2c-0.2,0-0.4-0.1-0.5-0.2c-0.2-0.2-0.3-0.5-0.2-0.8l2.4-6.7C-1.5,17.9,0.9,7.8,8.5,3.1
		s17.7-2.4,22.4,5.3s2.4,17.7-5.3,22.4c-5.2,3.2-11.9,3.2-17.1,0l-6.8,2.4C1.7,33.2,1.6,33.3,1.5,33.2z M8.6,29.2
		c0.1,0,0.3,0,0.4,0.1c6.8,4.5,16,2.5,20.4-4.3s2.5-16-4.3-20.4S9.1,2.1,4.7,8.9c-3.2,4.9-3.2,11.2,0,16.1c0.1,0.2,0.2,0.4,0.1,0.7
		l-2,5.6l5.6-2C8.4,29.2,8.5,29.2,8.6,29.2z"/>
	<path class="st1" d="M20.9,26.8c-0.6,0-1.2-0.1-1.9-0.3c-1.4-0.5-2.8-1.2-4-2.2c-1-0.7-1.9-1.5-2.8-2.4c-0.9-0.9-1.7-1.8-2.4-2.9
		c-1-1.2-1.7-2.6-2.2-4c-0.4-1.3-0.4-2.6,0.1-3.9C8,10,9.4,8.1,11.3,8.3c1.4,0.3,2.6,1.3,3.2,2.6c0.3,0.6,0.4,1.3,0.2,2
		c-0.2,0.5-0.6,0.9-1,1.2c-0.2,0.1-0.3,0.3-0.5,0.5c-0.3,0.5-0.2,1.1,0.1,1.5c0.5,0.9,1.2,1.7,1.9,2.5c0.7,0.7,1.6,1.4,2.5,1.9
		c0.4,0.3,1,0.4,1.5,0.1c0.2-0.1,0.3-0.3,0.5-0.5c0.3-0.4,0.8-0.8,1.2-1c0.7-0.2,1.4-0.1,2,0.2c1.3,0.6,2.3,1.8,2.6,3.2
		c0.2,1.8-1.7,3.2-2.9,3.7C22.2,26.6,21.5,26.7,20.9,26.8z M11,9.8c-0.8,0-1.7,1.1-2,1.9c-0.3,0.9-0.3,2,0,2.9
		c0.5,1.3,1.1,2.5,2,3.6c0.7,0.9,1.4,1.8,2.3,2.7c0.8,0.8,1.7,1.6,2.6,2.2c1.1,0.9,2.3,1.5,3.6,2c0.9,0.3,2,0.3,2.9,0
		c0.9-0.3,2-1.2,2-2.1c-0.3-0.9-0.9-1.6-1.8-2c-0.3-0.2-0.6-0.2-0.9-0.2c-0.2,0.1-0.5,0.3-0.6,0.5c-0.2,0.3-0.5,0.5-0.7,0.7
		c-1,0.6-2.3,0.6-3.3-0.2c-2-1.2-3.7-2.9-4.9-4.9c-0.7-0.9-0.7-2.2-0.1-3.2c0.2-0.3,0.4-0.5,0.7-0.7c0.2-0.2,0.4-0.4,0.5-0.6
		c0.1-0.3,0-0.6-0.2-0.9c-0.4-0.9-1.1-1.5-2-1.8L11,9.8z"/>
	<path class="st1" d="M12.8,14.3c-0.2,0-0.4-0.1-0.5-0.2l-0.6-0.6c-0.3-0.3-0.3-0.8,0-1c0,0,0,0,0,0c0.3-0.3,0.8-0.3,1.1,0l0.6,0.6
		c0.3,0.3,0.3,0.8,0,1.1C13.2,14.2,13,14.3,12.8,14.3z"/>
	<path class="st1" d="M21.1,22.6c-0.2,0-0.4-0.1-0.5-0.2l-0.6-0.6c-0.3-0.3-0.3-0.8,0-1.1s0.8-0.3,1.1,0l0.6,0.6
		c0.3,0.3,0.3,0.8,0,1.1C21.5,22.5,21.3,22.6,21.1,22.6z"/>
</g>
</svg>
