<svg xmlns="http://www.w3.org/2000/svg" width="73.096" height="26.328" viewBox="0 0 73.096 26.328"><defs><style>.a{fill:#ea0c90;}.b{fill:#fff;}</style></defs><g transform="translate(-2250.725 -929.316)"><path class="a" d="M4.75,0H73.1a0,0,0,0,1,0,0V12.864a4.75,4.75,0,0,1-4.75,4.75H0a0,0,0,0,1,0,0V4.75A4.75,4.75,0,0,1,4.75,0Z" transform="translate(2250.725 929.316)"/><g transform="translate(2254.947 930.935)"><path class="b" d="M2266.659,942.55a6.786,6.786,0,0,1,7.059-7.124c3.636,0,5.264,1.987,5.264,3.086,0,1.353-1.755,1.691-1.8,1.585a3.806,3.806,0,0,0-3.34-1.86,3.964,3.964,0,0,0-3.973,4.291,4.01,4.01,0,0,0,3.994,4.312,3.511,3.511,0,0,0,3.4-2.071c.042-.106,1.859.233,1.859,1.586,0,1.162-1.691,3.3-5.453,3.3A6.747,6.747,0,0,1,2266.659,942.55Z" transform="translate(-2266.659 -935.426)"/><path class="b" d="M2322.368,948.572v-4.164l-4.778-7.06c-.105-.169.445-1.2,1.988-1.2a1.737,1.737,0,0,1,1.479,1.078l2.874,4.714,2.917-4.693a1.8,1.8,0,0,1,1.5-1.1c1.395,0,2.007,1.057,1.9,1.2l-4.756,7.06v4.164a1.243,1.243,0,0,1-1.374,1.417h-.424C2322.832,949.989,2322.368,949.5,2322.368,948.572Z" transform="translate(-2304.085 -935.953)"/><path class="b" d="M2370.189,948.406V938.2a1.543,1.543,0,0,1,1.628-1.734h4.693c3.086,0,4.756,1.247,4.756,3.488a2.878,2.878,0,0,1-2.453,2.917,3.34,3.34,0,0,1,2.96,3.382c0,2.642-1.67,3.889-5.518,3.889h-4.439A1.542,1.542,0,0,1,2370.189,948.406Zm5.581-6.194c1.437,0,2.283-.655,2.283-1.754,0-1.12-.761-1.67-2.283-1.67h-2.494v3.424Zm.169,5.6c1.859,0,2.642-.549,2.642-1.86,0-1.2-.846-1.754-2.621-1.754h-2.684v3.615Z" transform="translate(-2342.755 -936.188)"/><path class="b" d="M2421,948.427V938.2a1.542,1.542,0,0,1,1.627-1.734h7.631c.973,0,1.437.486,1.437,1.311v.105c0,.867-.465,1.311-1.437,1.311h-6.13V941.9h4.482c1.015,0,1.437.444,1.437,1.2v.085c0,.824-.444,1.268-1.437,1.268h-4.482v2.981h6.236c.972,0,1.438.423,1.438,1.226v.127a1.252,1.252,0,0,1-1.437,1.353h-7.737A1.525,1.525,0,0,1,2421,948.427Z" transform="translate(-2380.105 -936.188)"/><path class="b" d="M2476.07,948.956l-2.916-3.678h-1.185v3.53a1.253,1.253,0,0,1-1.352,1.417h-.444c-.846,0-1.31-.613-1.31-1.712V938.2a1.541,1.541,0,0,1,1.627-1.734h4.037c3.552,0,5.391,1.48,5.391,4.27a3.855,3.855,0,0,1-3.551,4.058l3.551,4.291c.127.148-.465,1.142-1.8,1.142A2.36,2.36,0,0,1,2476.07,948.956Zm-4.142-5.961h2.387c1.67,0,2.473-.782,2.473-2.05,0-1.332-.845-2.05-2.536-2.05h-2.325Z" transform="translate(-2415.283 -936.188)"/></g><g transform="translate(2254.776 949.005)"><path class="b" d="M2266.013,1009.756v-5.14c0-.444.218-.661.622-.661h.2a.576.576,0,0,1,.641.661v5.14a.579.579,0,0,1-.641.661h-.2C2266.23,1010.417,2266.013,1010.19,2266.013,1009.756Z" transform="translate(-2266.013 -1003.866)"/><path class="b" d="M2276.147,1009.756v-5.081c0-.464.237-.72.632-.72h.177a.8.8,0,0,1,.74.414l2.763,3.8v-3.552c0-.434.207-.661.622-.661h.138c.4,0,.611.227.611.661v5.081c0,.474-.237.72-.622.72h-.118a.722.722,0,0,1-.7-.355l-2.871-3.946v3.641c0,.434-.207.661-.631.661h-.138C2276.354,1010.417,2276.147,1010.19,2276.147,1009.756Z" transform="translate(-2273.462 -1003.866)"/><path class="b" d="M2300.323,1004.745v-.04c0-.394.236-.6.67-.6h4.331c.444,0,.671.207.671.6v.04c0,.414-.227.632-.671.632h-1.43v4.489a.584.584,0,0,1-.642.661h-.207c-.405,0-.6-.227-.6-.661v-4.489h-1.45A.584.584,0,0,1,2300.323,1004.745Z" transform="translate(-2291.232 -1003.976)"/><path class="b" d="M2324.46,1009.688v-4.775a.719.719,0,0,1,.76-.809h3.561c.454,0,.671.227.671.612v.049c0,.4-.217.612-.671.612h-2.861v1.263h2.091c.473,0,.671.207.671.562v.039c0,.385-.208.592-.671.592h-2.091v1.391h2.909c.455,0,.672.2.672.572v.059a.584.584,0,0,1-.672.631h-3.61A.712.712,0,0,1,2324.46,1009.688Z" transform="translate(-2308.973 -1003.976)"/><path class="b" d="M2350.172,1009.935l-1.361-1.717h-.553v1.648a.585.585,0,0,1-.631.661h-.207c-.4,0-.612-.286-.612-.8v-4.814a.719.719,0,0,1,.76-.809h1.885c1.657,0,2.516.69,2.516,1.993a1.8,1.8,0,0,1-1.658,1.894l1.658,2c.059.069-.218.533-.839.533A1.1,1.1,0,0,1,2350.172,1009.935Zm-1.933-2.782h1.115c.779,0,1.154-.365,1.154-.957,0-.621-.4-.957-1.184-.957h-1.085Z" transform="translate(-2325.399 -1003.976)"/><path class="b" d="M2368.6,1008.977a.911.911,0,0,1,.552-.73,2.584,2.584,0,0,0,1.9.878c.759,0,1.164-.286,1.164-.78,0-.572-.641-.661-1.391-.829-1.026-.227-2.071-.622-2.071-1.924,0-1.184.956-1.973,2.495-1.973s2.289.621,2.289,1.164a.951.951,0,0,1-.583.759,2.294,2.294,0,0,0-1.7-.789c-.7,0-1.105.3-1.105.76,0,.552.573.6,1.362.779,1.154.256,2.161.74,2.161,1.943,0,1.273-.927,2.022-2.615,2.022S2368.6,1009.559,2368.6,1008.977Z" transform="translate(-2341.417 -1003.62)"/><path class="b" d="M2390.988,1009.688v-4.775a.719.719,0,0,1,.759-.809h3.561c.455,0,.671.227.671.612v.049c0,.4-.216.612-.671.612h-2.861v1.263h2.091c.474,0,.671.207.671.562v.039c0,.385-.207.592-.671.592h-2.091v1.391h2.91c.454,0,.671.2.671.572v.059a.584.584,0,0,1-.671.631h-3.611A.712.712,0,0,1,2390.988,1009.688Z" transform="translate(-2357.872 -1003.976)"/><path class="b" d="M2417.157,1009.352a2.276,2.276,0,0,1-1.983.888,3.012,3.012,0,0,1-3.028-3.3,3.2,3.2,0,0,1,3.374-3.324c1.569,0,2.467.73,2.467,1.391a.762.762,0,0,1-.75.691,1.992,1.992,0,0,0-3.611,1.292,1.9,1.9,0,0,0,1.874,2.131,1.48,1.48,0,0,0,1.628-1.214v-.167h-1.135c-.463,0-.7-.128-.7-.523v-.059c0-.414.238-.523.7-.523h1.806c.454,0,.612.237.6.69v2.7a.681.681,0,0,1-.483.138C2417.562,1010.17,2417.216,1010.013,2417.157,1009.352Z" transform="translate(-2373.423 -1003.62)"/><path class="b" d="M2439.522,1007.694v-3.078a.581.581,0,0,1,.631-.661h.188c.415,0,.631.217.631.661v3.059c0,1.026.434,1.549,1.3,1.549s1.293-.5,1.293-1.559v-3.049a.577.577,0,0,1,.632-.661h.2c.414,0,.621.217.621.661v3.059a2.748,2.748,0,1,1-5.5.02Z" transform="translate(-2393.545 -1003.866)"/><path class="b" d="M2467.771,1009.935l-1.361-1.717h-.552v1.648a.585.585,0,0,1-.632.661h-.207c-.395,0-.611-.286-.611-.8v-4.814a.719.719,0,0,1,.759-.809h1.884c1.658,0,2.516.69,2.516,1.993a1.8,1.8,0,0,1-1.658,1.894l1.658,2c.059.069-.217.533-.839.533A1.1,1.1,0,0,1,2467.771,1009.935Zm-1.933-2.782h1.115c.779,0,1.153-.365,1.153-.957,0-.621-.395-.957-1.184-.957h-1.084Z" transform="translate(-2411.837 -1003.976)"/><path class="b" d="M2486.462,1006.945a3.29,3.29,0,1,1,3.285,3.315A3.188,3.188,0,0,1,2486.462,1006.945Zm5.14,0a1.868,1.868,0,0,0-1.855-2.042,2.041,2.041,0,1,0,1.855,2.042Z" transform="translate(-2428.047 -1003.62)"/></g></g></svg>