<?xml version="1.0" encoding="utf-8"?>
<!-- Generator: Adobe Illustrator 23.0.1, SVG Export Plug-In . SVG Version: 6.00 Build 0)  -->
<svg version="1.1" id="Capa_1" xmlns="http://www.w3.org/2000/svg" xmlns:xlink="http://www.w3.org/1999/xlink" x="0px" y="0px"
	 viewBox="0 0 160 90" style="enable-background:new 0 0 160 90;" xml:space="preserve">
<style type="text/css">
	.st0{fill:#FFFFFF;}
	.st1{fill:#BFF1EB;}
	.st2{fill:#ECEDF0;}
	.st3{fill:#A5AAB3;}
	.st4{fill:#1C3272;}
	.st5{fill:#73C7F5;}
	.st6{fill:#508CEB;}
</style>
<title>bp-id</title>
<g>
	<path class="st0" d="M34.1,15.9h88.5c0.7,0,1.2,0.5,1.2,1.2v54.7c0,0.7-0.5,1.2-1.2,1.2H34.1c-0.7,0-1.2-0.5-1.2-1.2V17.1
		C32.9,16.5,33.5,15.9,34.1,15.9z"/>
	<path class="st1" d="M47.1,18.2h71.6c5.3,0,9.7,4.3,9.7,9.6v37.8c0,5.3-4.3,9.7-9.7,9.7H47.1c-5.3,0-9.6-4.3-9.6-9.7V27.8
		C37.4,22.5,41.7,18.2,47.1,18.2z"/>
	<path class="st2" d="M47.1,18.2h71.6c5.3,0,9.7,4.3,9.7,9.6v37.8c0,5.3-4.3,9.7-9.7,9.7H47.1c-5.3,0-9.6-4.3-9.6-9.7V27.8
		C37.4,22.5,41.7,18.2,47.1,18.2z"/>
	<g>
		<path class="st3" d="M116.6,18.2c0.3,0.9,0.5,1.9,0.5,2.9v37.8c0,5.3-4.3,9.7-9.6,9.7c0,0,0,0,0,0H37.9c0.5,1.7,1.5,3.1,2.8,4.3
			c0.6,0.1,1.2,0.2,1.9,0.2h71.6c5.3,0,9.7-4.3,9.7-9.7V25.6c0-2.8-1.2-5.4-3.3-7.2c-0.6-0.1-1.2-0.2-1.8-0.2H116.6z"/>
	</g>
	<path class="st4" d="M32.9,30.9c-0.7,0-1.2-0.6-1.2-1.2v-2.5c0-0.7,0.6-1.2,1.2-1.2c0.7,0,1.2,0.6,1.2,1.2v2.5
		C34.1,30.4,33.6,30.9,32.9,30.9z"/>
	<path class="st4" d="M101.7,17.1H53.8c-0.7,0-1.2-0.6-1.2-1.2c0-0.7,0.6-1.2,1.2-1.2l0,0h47.9c0.7,0,1.2,0.6,1.2,1.2
		C103,16.6,102.4,17.1,101.7,17.1z"/>
	<path class="st4" d="M109.9,74.3h-20c-0.7,0.1-1.3-0.4-1.3-1.1c-0.1-0.7,0.4-1.3,1.1-1.3c0.1,0,0.1,0,0.2,0h20
		c0.7-0.1,1.3,0.4,1.3,1.1c0.1,0.7-0.4,1.3-1.1,1.3C110,74.3,110,74.3,109.9,74.3z"/>
	<path class="st4" d="M85.4,74.3H42.6c-6,0-10.9-4.9-10.9-10.9V34.2c0-0.7,0.6-1.2,1.2-1.2s1.2,0.6,1.2,1.2v29.2
		c0,4.6,3.8,8.4,8.4,8.4h42.8c0.7-0.1,1.3,0.4,1.3,1.1c0.1,0.7-0.4,1.3-1.1,1.3C85.5,74.3,85.5,74.3,85.4,74.3z"/>
	<path class="st4" d="M114.4,74.3c-0.7-0.1-1.2-0.7-1.1-1.3c0.1-0.6,0.5-1.1,1.1-1.1c4.6-0.1,8.3-3.8,8.2-8.4V25.6
		c0-4.7-3.8-8.4-8.4-8.4h-7.9c-0.7,0-1.2-0.6-1.2-1.2c0-0.7,0.6-1.2,1.2-1.2l0,0h7.9c6,0,10.9,4.9,10.9,10.9v37.8
		C125,69.3,120.3,74.1,114.4,74.3L114.4,74.3z"/>
	<path class="st4" d="M33.3,23.9c-0.1,0-0.3,0-0.4-0.1c-0.6-0.2-1-0.9-0.8-1.5c0,0,0,0,0,0c1.4-4.5,5.6-7.6,10.4-7.6h6.7
		c0.7,0,1.2,0.6,1.2,1.2c0,0.7-0.6,1.2-1.2,1.2h-6.7c-3.7,0-6.9,2.4-8,5.9C34.4,23.6,33.9,23.9,33.3,23.9z"/>
	<circle class="st0" cx="99.6" cy="42" r="16.3"/>
	<path class="st4" d="M57.3,49.4H44.8c-0.6,0-1.1-0.5-1.1-1.1c0-0.6,0.5-1.1,1.1-1.1h12.4c0.6,0,1.1,0.5,1.1,1.1
		C58.4,48.9,57.9,49.4,57.3,49.4z"/>
	<path class="st4" d="M64.1,49.4h-2.4c-0.6,0-1.1-0.5-1.1-1.1c0-0.6,0.5-1.1,1.1-1.1h2.4c0.6,0,1.1,0.5,1.1,1.1
		C65.2,48.9,64.7,49.4,64.1,49.4z"/>
	<path class="st4" d="M74.4,49.4h-5.8c-0.6,0-1.1-0.5-1.1-1.1s0.5-1.1,1.1-1.1c0,0,0,0,0,0h5.8c0.6,0,1.1,0.5,1.1,1.1
		S75.1,49.4,74.4,49.4C74.5,49.4,74.5,49.4,74.4,49.4z"/>
	<path class="st4" d="M74.4,41H62c-0.6,0.1-1.2-0.4-1.2-1c-0.1-0.6,0.4-1.2,1-1.2c0.1,0,0.1,0,0.2,0h12.4c0.6-0.1,1.2,0.4,1.2,1
		c0.1,0.6-0.4,1.2-1,1.2C74.6,41,74.5,41,74.4,41z"/>
	<path class="st4" d="M57.5,41h-2.4c-0.6-0.1-1.1-0.6-1-1.2c0.1-0.5,0.5-1,1-1h2.3c0.6,0.1,1.1,0.6,1,1.2
		C58.5,40.5,58.1,40.9,57.5,41z"/>
	<path class="st4" d="M50.7,41h-5.9c-0.6-0.1-1.1-0.6-1-1.2c0.1-0.5,0.5-1,1-1h5.9c0.6-0.1,1.2,0.4,1.2,1c0.1,0.6-0.4,1.2-1,1.2
		C50.8,41,50.8,41,50.7,41z"/>
	<circle class="st0" cx="97.8" cy="39.6" r="6.2"/>
	<circle class="st5" cx="99.9" cy="40.7" r="6.6"/>
	<path class="st0" d="M90.6,48.8H106c0.1,0,0.2,0.1,0.2,0.2v17.7c0,0.1-0.1,0.2-0.2,0.2H90.6c-0.1,0-0.2-0.1-0.2-0.2V49.1
		C90.3,48.9,90.4,48.8,90.6,48.8z"/>
	<path class="st5" d="M94.5,49.9h12c1.1,0,1.9,0.9,1.9,1.9v14.3c0,1.1-0.9,1.9-1.9,1.9h-12c-1.1,0-1.9-0.9-1.9-1.9V51.9
		C92.6,50.8,93.5,49.9,94.5,49.9z"/>
	<g>
		<path class="st6" d="M104,63.9c0,1.1-0.9,1.9-1.9,1.9c0,0,0,0,0,0h-9.5v0.3c0,0.3,0.1,0.6,0.2,0.8h11.5c1.1,0,1.9-0.9,1.9-1.9
			c0,0,0,0,0,0V50.8c0-0.3-0.1-0.6-0.2-0.8H104V63.9z"/>
	</g>
	<g>
		<path class="st4" d="M98.3,46.4c-1.7,0-3.4-0.7-4.7-1.8c-0.2-0.2-0.2-0.6,0-0.8c0,0,0,0,0,0c0.2-0.2,0.6-0.2,0.8,0
			c1.5,1.4,3.6,1.9,5.6,1.3c0.3-0.1,0.6,0.1,0.7,0.4c0.1,0.3-0.1,0.6-0.4,0.7C99.7,46.3,99,46.4,98.3,46.4z"/>
		<path class="st4" d="M104.4,41.5h-0.1c-0.3-0.1-0.5-0.4-0.4-0.7c0.1-0.4,0.1-0.8,0.1-1.2c0-2.9-2.1-5.3-5-5.6
			c-0.3,0-0.5-0.3-0.5-0.6c0,0,0,0,0,0c0-0.3,0.3-0.5,0.6-0.5c0,0,0,0,0,0c3.4,0.4,6,3.3,6,6.7c0,0.5,0,1-0.2,1.5
			C104.8,41.3,104.6,41.5,104.4,41.5z"/>
		<path class="st4" d="M101.5,45.5c-0.2,0-0.4-0.1-0.5-0.3c-0.2-0.3-0.1-0.6,0.2-0.8c0,0,0,0,0,0c0.9-0.5,1.7-1.4,2.2-2.4
			c0.1-0.3,0.5-0.4,0.8-0.3c0.3,0.1,0.4,0.5,0.3,0.7c0,0,0,0,0,0c-0.6,1.2-1.5,2.2-2.6,2.9C101.7,45.5,101.6,45.5,101.5,45.5z"/>
		<path class="st4" d="M93.1,43.5c-0.2,0-0.4-0.1-0.5-0.2c-2.1-3.1-1.2-7.3,1.9-9.4c0.9-0.6,1.9-1,3-1.1c0.3,0,0.6,0.2,0.6,0.5
			c0,0,0,0,0,0c0,0.3-0.2,0.6-0.5,0.6c-3.1,0.4-5.3,3.2-5,6.3c0.1,0.9,0.4,1.7,0.9,2.4c0.2,0.3,0.1,0.6-0.2,0.8c0,0,0,0,0,0
			C93.3,43.5,93.2,43.5,93.1,43.5z"/>
		<path class="st4" d="M104.3,67.6H96c-0.3,0-0.6-0.3-0.6-0.6c0-0.3,0.3-0.6,0.6-0.6l0,0h8.3c0.8,0,1.4-0.6,1.4-1.4c0,0,0,0,0,0v-3
			c0-0.3,0.3-0.6,0.6-0.6c0.3,0,0.6,0.3,0.6,0.6V65C106.8,66.4,105.7,67.5,104.3,67.6C104.4,67.6,104.3,67.6,104.3,67.6z"/>
		<path class="st4" d="M93.7,67.6h-1.5c-1.4,0-2.5-1.1-2.5-2.5c0,0,0,0,0,0V50.7c0-1.4,1.1-2.5,2.5-2.5h12c1.4,0,2.5,1.1,2.5,2.5
			v9.1c0,0.3-0.3,0.6-0.6,0.6c-0.3,0-0.6-0.3-0.6-0.6v-9.1c0-0.8-0.6-1.4-1.4-1.4c0,0,0,0,0,0h-12c-0.8,0-1.4,0.6-1.4,1.4l0,0v14.3
			c0,0.8,0.6,1.4,1.3,1.4c0,0,0,0,0,0h1.4c0.3,0,0.6,0.3,0.6,0.6C94.3,67.3,94,67.6,93.7,67.6z"/>
		<path class="st4" d="M100.3,51.5l0.7-2c0.1-0.2,0-0.4-0.1-0.5c-0.1-0.2-0.3-0.3-0.5-0.3H96c-0.2,0-0.4,0.1-0.5,0.3
			c-0.1,0.2-0.1,0.4,0,0.6l0.9,2L95,59.2c0,0.2,0,0.4,0.1,0.5l2.7,3c0.1,0.1,0.3,0.2,0.4,0.2c0.2,0,0.3-0.1,0.4-0.2l2.8-3.2
			c0.1-0.1,0.2-0.3,0.2-0.5L100.3,51.5z M99.6,49.8l-0.4,1.2l-0.8,0.8l-0.9-0.8l-0.5-1.2L99.6,49.8z M98.2,61.4l-2.1-2.3l1.2-6.5
			l0.6,0.6c0.1,0.1,0.3,0.2,0.4,0.2c0.2,0,0.3-0.1,0.4-0.2l0.5-0.5l1.1,6.4L98.2,61.4z"/>
	</g>
</g>
</svg>
