<?xml version="1.0" encoding="utf-8"?>
<!-- Generator: Adobe Illustrator 23.0.1, SVG Export Plug-In . SVG Version: 6.00 Build 0)  -->
<svg version="1.1" xmlns="http://www.w3.org/2000/svg" xmlns:xlink="http://www.w3.org/1999/xlink" x="0px" y="0px"
	 viewBox="0 0 100 100" style="enable-background:new 0 0 100 100;" xml:space="preserve">
<style type="text/css">
	.st0{fill:#ECF9FF;}
	.st1{fill:#FFFFFF;}
	.st2{fill:#535D66;}
	.st3{fill-rule:evenodd;clip-rule:evenodd;fill:#ECF9FF;}
	.st4{fill-rule:evenodd;clip-rule:evenodd;fill:#FFFFFF;}
	.st5{fill-rule:evenodd;clip-rule:evenodd;fill:#00ADEE;}
	.st6{fill-rule:evenodd;clip-rule:evenodd;}
	.st7{fill:#00ADEE;}
	.st8{fill:#808099;}
	.st9{fill:#FFC037;}
	.st10{fill:#FF7108;}
	.st11{fill:#AEFFCF;}
	.st12{fill:#0BD360;}
	.st13{fill:#343434;}
	.st14{fill-rule:evenodd;clip-rule:evenodd;fill:#104EFF;}
	.st15{fill:#002E75;}
	.st16{fill:#0855C4;}
	.st17{fill:#99E2FF;}
	.st18{fill:#AED3FF;}
	.st19{fill:#231F20;}
	.st20{fill:#EFF1F4;}
	.st21{clip-path:url(#SVGID_2_);}
	.st22{fill:#8EEA00;}
	.st23{fill-rule:evenodd;clip-rule:evenodd;fill:#8EEA00;}
	.st24{fill:#0021CE;}
	.st25{fill:#104EFF;}
	.st26{fill:#303030;}
	.st27{fill:#00E1CF;}
	.st28{fill-rule:evenodd;clip-rule:evenodd;fill:#0BD360;}
	.st29{fill-rule:evenodd;clip-rule:evenodd;fill:#00E1CF;}
	.st30{fill:none;stroke:#5C006A;stroke-width:1.29;stroke-linecap:round;stroke-linejoin:round;}
	.st31{fill:#B6FFD3;}
	.st32{clip-path:url(#SVGID_4_);}
	.st33{fill:#DFE6E8;}
	.st34{fill:#B3B3B3;}
	.st35{fill:#96E0FD;}
	.st36{fill:#0ED160;}
	.st37{fill:#08A8FD;}
	.st38{fill:#6EEE89;}
	.st39{fill:#DFF8F5;}
	.st40{clip-path:url(#SVGID_6_);fill:#96E0FD;}
	.st41{fill:#F5F5F6;}
	.st42{fill:none;stroke:#002E75;stroke-width:1.5207;stroke-linecap:round;stroke-linejoin:round;}
	.st43{fill:#E9EAEB;}
	.st44{clip-path:url(#SVGID_8_);fill:#FFFFFF;}
	.st45{clip-path:url(#SVGID_8_);fill:#FFCF9B;}
	.st46{clip-path:url(#SVGID_8_);fill:#002E75;}
	.st47{clip-path:url(#SVGID_8_);fill:#F9BC90;}
	.st48{clip-path:url(#SVGID_8_);fill:#0ED160;}
	.st49{fill-rule:evenodd;clip-rule:evenodd;fill:#002E75;}
	.st50{fill-rule:evenodd;clip-rule:evenodd;fill:#0ED160;}
	.st51{fill-rule:evenodd;clip-rule:evenodd;fill:#DFE6E8;}
	.st52{fill-rule:evenodd;clip-rule:evenodd;fill:#DCE6E8;}
	.st53{fill-rule:evenodd;clip-rule:evenodd;fill:#6EEE89;}
	.st54{fill-rule:evenodd;clip-rule:evenodd;fill:#FFC037;}
	.st55{fill:#F4F4F5;}
	.st56{fill:#606060;}
	.st57{fill-rule:evenodd;clip-rule:evenodd;fill:#005EA1;}
	.st58{fill-rule:evenodd;clip-rule:evenodd;fill:#00A5D8;}
	.st59{fill:#444444;}
	.st60{clip-path:url(#SVGID_10_);}
	.st61{clip-path:url(#SVGID_12_);}
	.st62{clip-path:url(#SVGID_14_);}
	.st63{clip-path:url(#SVGID_16_);}
	.st64{clip-path:url(#SVGID_18_);}
	.st65{clip-path:url(#SVGID_20_);}
</style>
<g id="Layer_3">
</g>
<g id="Layer_1">
</g>
<g id="Layer_2">
</g>
<g id="Layer_4">
</g>
<g id="Layer_5">
</g>
<g id="Isolation_Mode">
</g>
<g id="Art">
</g>
<g id="Capa_8">
	<path class="st15" d="M20.8,75.4c0.3,0.2,0.6,0.5,0.9,0.7C21.4,75.9,21.1,75.7,20.8,75.4z"/>
	<path class="st15" d="M32.4,70.1c0,0.2,0,0.4,0,0.7c-0.3,3.6-3.3,6.3-6.9,6.4c-1.3,0-2.6-0.4-3.6-1c2.5,1.5,5.7,1.3,8.1-0.6
		c1.4-1.2,2.3-2.9,2.5-4.7l0,0c0.1-1.1-0.1-2.2-0.5-3.2C32.2,68.3,32.4,69.2,32.4,70.1z"/>
	<path class="st15" d="M73,65.5c0.4,0,0.9,0,1.3,0.1C73.9,65.5,73.5,65.5,73,65.5c-1.8,0-3.4,0.7-4.6,1.9
		C69.6,66.2,71.2,65.5,73,65.5z"/>
	<path class="st15" d="M74.9,65.8c1,0.3,1.9,0.9,2.6,1.6C76.8,66.7,75.9,66.1,74.9,65.8z"/>
	<path class="st15" d="M38.1,45.7c0.2,0.7,0.8,1.1,1.5,1.1c0.1,0,0.3,0,0.4-0.1c0.8-0.2,1.3-1,1.1-1.8l-1-3.7l4.1,2.8
		c0.3,0.2,0.7,0.3,1.2,0.2c0.4-0.1,0.8-0.3,1-0.7l4.8-7.6l3.2,7.7c0.2,0.4,0.5,0.7,0.9,0.8s0.9,0.1,1.2-0.1l5-3l-1,2.6
		c-0.2,0.8,0.3,1.6,1.1,1.8c0.7,0.2,1.4-0.2,1.7-0.8l2.5-6.6c0.2-0.6,0-1.3-0.4-1.7c-0.5-0.4-1.2-0.5-1.7-0.1L56.4,41l-3.6-8.8
		c-0.2-0.5-0.7-0.9-1.2-0.9c-0.6,0-1.1,0.2-1.4,0.7l-5.6,8.7l-6.2-4.3c-0.7-0.5-1.6-0.3-2.1,0.4C36,37.2,36,37.6,36.1,38L38.1,45.7z
		"/>
	<path class="st15" d="M59.4,36.4c0.2,0.1,0.5,0.2,0.7,0.2c0.5,0,1-0.3,1.3-0.8l0.5-1c0.4-0.7,0.2-1.6-0.5-2.1s-1.6-0.2-2.1,0.5
		c0,0.1-0.1,0.1-0.1,0.2l-0.5,1C58.5,35.1,58.7,36,59.4,36.4z"/>
	<path class="st15" d="M39.4,33.8c0.3,0.8,1.2,1.1,2,0.8l0,0c0.8-0.3,1.1-1.2,0.8-2l0,0l-0.5-1.2c-0.3-0.8-1.2-1.1-2-0.8
		c-0.8,0.3-1.1,1.2-0.8,2v0.1L39.4,33.8z"/>
	<path class="st15" d="M16.5,54c0.4,0,0.7-0.1,1-0.3c0.3-0.3,0.5-0.7,0.5-1.1c0.1-1.4-0.5-2.7-1.6-3.7c-0.7-0.5-1.6-0.4-2.1,0.3
		c-0.3,0.4-0.4,1-0.2,1.5L0,48.9v3l16.4,2L16.5,54z"/>
	<path class="st15" d="M31.4,59.5c0.8,0.3,1.6-0.1,1.9-0.9c0.3-0.8-0.1-1.6-0.9-1.9l-3.8-1.3c-0.8-0.3-1.6,0.1-1.9,0.9
		s0.1,1.6,0.9,1.9L31.4,59.5z"/>
	<path class="st15" d="M87.1,49.7c0.4-0.7,0.2-1.6-0.5-2.1c-0.7-0.4-1.6-0.2-2,0.5c-1.1,1.6-2,3.4-2.6,5.2c-0.1,0.5,0,0.9,0.2,1.3
		c0.3,0.4,0.7,0.6,1.2,0.6H100v-3H85.6C86,51.6,86.5,50.7,87.1,49.7z"/>
	<path class="st15" d="M68,56.2c2.6-0.2,5.1-0.7,7.6-1.4c1.4-0.5,2.3-1.6,3.4-3C81.3,49,84.4,45,93.8,44c1.2-0.1,3.5-0.2,6.2-0.2v-3
		c-2.8,0-5.2,0.1-6.6,0.2c-10.6,1.2-14.5,6.1-16.8,9c-0.8,1-1.5,1.8-2,2c-2.3,0.7-4.6,1.1-7,1.2c-2.6,0.3-4.6,0.5-5.9,1.2
		c-0.4,0.2-0.8,0.4-1.1,0.5c-0.8,0.3-2,0.7-2.2,2c-0.2,1.2,0.7,2.3,2.8,4c-0.1,0.2-0.3,0.4-0.4,0.6c-0.8,1-2.4,2.9-1.1,5.2
		c0.2,0.5,0.2,1,0.1,1.5H43.6c-0.3-0.5-0.5-1-0.7-1.3c-0.3-0.4-0.5-0.8-0.6-1.3c1-1.3,1.5-2.9,1.3-4.5c-0.3-1.7-1.2-3.3-2.5-4.4
		c0-0.6-0.3-1.2-0.7-1.6s-1-0.8-1.7-1.1v-0.5c0-1.2,0-3.2-1.6-3.7c-0.7-0.2-1.3,0-3.3,0.6c-0.6,0.2-1.7,0.5-2.1,0.6
		c-0.8-0.2-1.6-0.3-2.5-0.3c-1.1,0-2.1-0.2-3.2-0.4c-1.1-0.6-2.2-1.3-3.1-2.1C17.2,43.6,10.7,40,3.8,37.5c-1.2-0.4-2.4-0.8-3.8-1.1
		v3.1c1,0.2,1.9,0.5,2.8,0.8c6.6,2.3,12.8,5.8,18.2,10.2c1.8,1.4,3.1,2.4,4.2,2.7c1.2,0.3,2.5,0.4,3.8,0.5c0.7,0,1.3,0.1,2,0.2
		c0.7,0.2,1.4,0,3.6-0.7l1.1-0.3v0.5c0,1.1,0,2.5,1.2,3l-2,2.7c-0.5,0.7-0.4,1.6,0.3,2.1c0.6,0.5,1.6,0.4,2.1-0.3l1.7-2.2
		c0.8,0.7,1.4,1.7,1.7,2.8c0.1,1-0.3,2-1,2.7c-0.2,0.2-0.3,0.5-0.4,0.8c0,1.2,0.3,2.4,1,3.4c0.4,0.7,0.8,1.5,1.1,2.2
		c0.3,0.6-0.7,1.3-1.3,1.6l-4.9-0.4c0-0.2,0.1-0.5,0.1-0.7c0.6-5.5-3.3-10.5-8.8-11.1S16,63.3,15.4,68.8c0,0.2,0,0.4,0,0.5V70
		L0,68.5v3l15.4,1.4h0.1c0.1,0,0.1,0,0.2,0c1.1,3.9,4.6,6.8,8.7,7.2h0.9c3.8,0,7.2-2.1,8.9-5.5l6,0.5h0.1c0.2,0,0.4,0,0.6-0.1
		c1.7-0.7,3-2.1,3.4-3.9h14.5c-0.2,0.7-0.2,1.5,0.3,2.2c0.5,0.6,1.2,1,2,0.9h2.7c1.3,5,6.4,8.1,11.5,6.8c3.3-0.9,5.9-3.5,6.8-6.8
		l17.9,0.1v-3l-17.6-0.1c-0.4-5.2-4.9-9.1-10.1-8.7c-4.7,0.3-8.4,4.1-8.7,8.7H62c0-0.1,0.1-0.3,0.1-0.4c0.5-1.5,1.3-3.7,0.2-5.6
		c-0.2-0.4-0.1-0.7,0.8-1.9c0.8-0.7,1.2-1.8,1.3-2.9c-0.1-0.7-0.5-1.4-1-1.8c-0.6-0.5-1-0.8-1.3-1.1c0.4-0.2,0.8-0.3,1.2-0.5
		C64.8,56.6,66.4,56.3,68,56.2z M20.8,75.4c-0.1-0.1-0.2-0.2-0.3-0.3c-0.1-0.1-0.2-0.2-0.3-0.3c-0.1-0.1-0.2-0.2-0.3-0.3
		c-0.3-0.3-0.5-0.7-0.7-1c-0.1-0.1-0.1-0.2-0.2-0.3c0-0.1,0-0.2-0.1-0.3c-0.1-0.2-0.2-0.4-0.2-0.6l0,0c-0.9-2.6-0.1-5.6,2.2-7.5
		c1.3-1,2.8-1.6,4.5-1.6H26c1.6,0.1,3,0.8,4.1,1.8c0.2,0.2,0.3,0.3,0.5,0.5c0.1,0.2,0.3,0.3,0.4,0.5c0.4,0.5,0.7,1,0.9,1.6
		c0.4,1,0.5,2.1,0.5,3.2l0,0c-0.2,1.9-1.1,3.6-2.5,4.7c-2.3,2-5.6,2.1-8.1,0.6C21.4,75.9,21.1,75.7,20.8,75.4z M66.6,71.9
		c0-0.2,0-0.3,0-0.5c0-0.1,0-0.2,0-0.3c0-0.1,0-0.2,0-0.4c0-0.2,0.1-0.5,0.2-0.7c0-0.2,0.1-0.3,0.2-0.4c0-0.1,0-0.1,0.1-0.2
		c0.3-0.8,0.8-1.5,1.4-2c1.2-1.2,2.8-1.9,4.5-1.9c0.5,0,0.9,0,1.3,0.1c0.2,0,0.4,0.1,0.6,0.2c1,0.3,1.9,0.9,2.6,1.6
		c0.1,0.1,0.2,0.1,0.2,0.2c0.1,0.1,0.1,0.2,0.2,0.2c0.2,0.3,0.4,0.6,0.6,0.9c0.1,0.1,0.1,0.2,0.2,0.3c0.1,0.1,0.1,0.2,0.2,0.3
		c0,0,0,0.1,0.1,0.1c0,0.1,0.1,0.2,0.1,0.3c0,0.1,0.1,0.3,0.1,0.4l0,0c0,0.1,0.1,0.3,0.1,0.5c0,0.1,0,0.1,0,0.2s0,0.3,0,0.4
		c0,0.2,0,0.4,0,0.6s0,0.4,0,0.6c0,0.1,0,0.3,0,0.4s0,0.3-0.1,0.4c0,0.1-0.1,0.3-0.1,0.4s0,0.1-0.1,0.2c0,0.1-0.1,0.3-0.1,0.4
		s0,0.1-0.1,0.1c-0.1,0.2-0.2,0.3-0.2,0.5c-0.1,0.2-0.2,0.4-0.3,0.5c-0.1,0.2-0.2,0.3-0.4,0.5l0,0c-0.1,0.2-0.3,0.3-0.4,0.4
		c-0.1,0.2-0.3,0.3-0.5,0.4c-0.3,0.3-0.7,0.5-1,0.7c-0.2,0.1-0.4,0.2-0.6,0.3c-0.8,0.3-1.6,0.5-2.5,0.5c-0.2,0-0.5,0-0.7,0
		s-0.4,0-0.6-0.1c-0.2,0-0.4-0.1-0.6-0.2c-2-0.6-3.6-2.2-4.2-4.2l0,0c-0.1-0.2-0.1-0.4-0.2-0.6c0-0.2-0.1-0.3-0.1-0.5
		c0-0.1,0-0.1,0-0.2C66.6,72.3,66.6,72.1,66.6,71.9L66.6,71.9z"/>
</g>
</svg>
