<?xml version="1.0" encoding="utf-8"?>
<!-- Generator: Adobe Illustrator 23.0.1, SVG Export Plug-In . SVG Version: 6.00 Build 0)  -->
<svg version="1.1" xmlns="http://www.w3.org/2000/svg" xmlns:xlink="http://www.w3.org/1999/xlink" x="0px" y="0px"
	 viewBox="0 0 100 100" style="enable-background:new 0 0 100 100;" xml:space="preserve">
<style type="text/css">
	.st0{fill:#ECF9FF;}
	.st1{fill:#FFFFFF;}
	.st2{fill:#535D66;}
	.st3{fill-rule:evenodd;clip-rule:evenodd;fill:#ECF9FF;}
	.st4{fill-rule:evenodd;clip-rule:evenodd;fill:#FFFFFF;}
	.st5{fill-rule:evenodd;clip-rule:evenodd;fill:#00ADEE;}
	.st6{fill-rule:evenodd;clip-rule:evenodd;}
	.st7{fill:#00ADEE;}
	.st8{fill:#808099;}
	.st9{fill:#FFC037;}
	.st10{fill:#FF7108;}
	.st11{fill:#AEFFCF;}
	.st12{fill:#0BD360;}
	.st13{fill:#343434;}
	.st14{fill-rule:evenodd;clip-rule:evenodd;fill:#104EFF;}
	.st15{fill:#002E75;}
	.st16{fill:#0855C4;}
	.st17{fill:#99E2FF;}
	.st18{fill:#AED3FF;}
	.st19{fill:#231F20;}
	.st20{fill:#EFF1F4;}
	.st21{clip-path:url(#SVGID_2_);}
	.st22{fill:#8EEA00;}
	.st23{fill-rule:evenodd;clip-rule:evenodd;fill:#8EEA00;}
	.st24{fill:#0021CE;}
	.st25{fill:#104EFF;}
	.st26{fill:#303030;}
	.st27{fill:#00E1CF;}
	.st28{fill-rule:evenodd;clip-rule:evenodd;fill:#0BD360;}
	.st29{fill-rule:evenodd;clip-rule:evenodd;fill:#00E1CF;}
	.st30{fill:none;stroke:#5C006A;stroke-width:1.29;stroke-linecap:round;stroke-linejoin:round;}
	.st31{fill:#B6FFD3;}
	.st32{clip-path:url(#SVGID_4_);}
	.st33{fill:#DFE6E8;}
	.st34{fill:#B3B3B3;}
	.st35{fill:#96E0FD;}
	.st36{fill:#0ED160;}
	.st37{fill:#08A8FD;}
	.st38{fill:#6EEE89;}
	.st39{fill:#DFF8F5;}
	.st40{clip-path:url(#SVGID_6_);fill:#96E0FD;}
	.st41{fill:#F5F5F6;}
	.st42{fill:none;stroke:#002E75;stroke-width:1.5207;stroke-linecap:round;stroke-linejoin:round;}
	.st43{fill:#E9EAEB;}
	.st44{clip-path:url(#SVGID_8_);fill:#FFFFFF;}
	.st45{clip-path:url(#SVGID_8_);fill:#FFCF9B;}
	.st46{clip-path:url(#SVGID_8_);fill:#002E75;}
	.st47{clip-path:url(#SVGID_8_);fill:#F9BC90;}
	.st48{clip-path:url(#SVGID_8_);fill:#0ED160;}
	.st49{fill-rule:evenodd;clip-rule:evenodd;fill:#002E75;}
	.st50{fill-rule:evenodd;clip-rule:evenodd;fill:#0ED160;}
	.st51{fill-rule:evenodd;clip-rule:evenodd;fill:#DFE6E8;}
	.st52{fill-rule:evenodd;clip-rule:evenodd;fill:#DCE6E8;}
	.st53{fill-rule:evenodd;clip-rule:evenodd;fill:#6EEE89;}
	.st54{fill-rule:evenodd;clip-rule:evenodd;fill:#FFC037;}
	.st55{fill:#F4F4F5;}
	.st56{fill:#606060;}
	.st57{fill-rule:evenodd;clip-rule:evenodd;fill:#005EA1;}
	.st58{fill-rule:evenodd;clip-rule:evenodd;fill:#00A5D8;}
	.st59{fill:#444444;}
	.st60{clip-path:url(#SVGID_10_);}
	.st61{clip-path:url(#SVGID_12_);}
	.st62{clip-path:url(#SVGID_14_);}
	.st63{clip-path:url(#SVGID_16_);}
	.st64{clip-path:url(#SVGID_18_);}
	.st65{clip-path:url(#SVGID_20_);}
</style>
<g id="Layer_3">
</g>
<g id="Layer_1">
</g>
<g id="Layer_2">
</g>
<g id="Layer_4">
</g>
<g id="Layer_5">
</g>
<g id="Isolation_Mode">
</g>
<g id="Art">
</g>
<g id="Capa_8">
	<path class="st15" d="M69.3,48.3c-0.2,0.1-0.3,0.2-0.5,0.2C69,48.5,69.2,48.4,69.3,48.3z M67.3,48.6c-0.9-0.1-1.5-0.9-1.5-1.7
		c0-0.7,0.5-1.3,1.2-1.4c-0.8,0.1-1.3,0.8-1.3,1.6C65.8,47.9,66.5,48.6,67.3,48.6h1.2c0.1,0,0.2,0,0.3-0.1c-0.1,0-0.2,0-0.3,0.1
		H67.3z M62.2,51.3c-0.3,0-0.6,0.3-1.1,0.7c-0.3,0.2-1.4,1.2-1.6,1c0.1-0.3,0.1-0.5,0.2-0.8c0.6-1.8,1.9-5.5-2.2-8
		c-4.4-2.6-2.4-4.5-3.2-5.4c-0.2-0.2-0.5-0.3-0.7-0.3c-0.8,0-2.4,1.4-3.3,2.9c-1,1.4-1.1,3.2-0.4,4.7c0.3,0.7,1.1,2,0.7,2.8
		c-0.2,0.4-0.6,0.7-1,0.8C49.3,50,49,50,48.7,50c-0.9,0-1.2-0.6-1.5-1.4c-0.2-0.4-0.4-0.8-0.8-0.8c-0.2,0-0.4,0.1-0.5,0.2
		c-1.7,1.6-2.6,3.8-2.5,6.1c0,3.2,1.7,6.1,4.5,7.8c0.3,0.2,0.6,0.2,0.8,0.1c0.3-0.1,0.6-0.4,0.7-0.7c0.1-0.4,0-0.7-0.2-1
		c-0.4-0.5-0.8-1-0.9-1.6c-0.1-0.6-0.1-1.2,0.1-1.8c0.2-0.5,0.4-1,0.7-1.4c0.1,0.7,0.3,1.3,0.8,1.8c0.1,0.1,0.2,0.2,0.3,0.3
		c0.9,0.7,2.2,0.5,2.9-0.4c0.3-0.6,0.3-1.4-0.2-2c-0.6-1.3-0.6-2.7-0.1-4c0.3-0.8,0.7-1.6,1.2-2.2c0.3,1.6,0.9,3.2,1.7,4.5
		c1.4,2,1.9,2.9,1.9,4.2c0,0.8-0.1,1.6-0.5,2.3c-0.2,0.4-0.1,0.9,0.2,1.3c0.4,0.5,1.1,0.5,1.6,0.2c2.5-1.7,4-4.4,4-7.4
		c0-0.8-0.1-1.6-0.3-2.4C62.7,51.5,62.4,51.3,62.2,51.3z M31.1,75.4c0.6,0.3,1,0.8,1,1.5c0,0.5-0.3,1-0.7,1.3
		c0.4-0.3,0.7-0.8,0.7-1.3C32.1,76.2,31.7,75.6,31.1,75.4z M31.3,78.2c-0.2,0.1-0.3,0.2-0.6,0.2C31,78.4,31.2,78.3,31.3,78.2z"/>
	<path class="st15" d="M79.3,75.5v-19c2.3-0.8,3.9-2.9,4-5.4c0-2.5-1.6-4.7-4-5.5V26.8c3-1,4.7-4.3,3.7-7.3c-0.8-2.4-3-4-5.5-4H26.6
		c-3.2,0-5.8,2.6-5.8,5.8c0,2.5,1.6,4.8,4.1,5.6v18.8c-3,1-4.7,4.3-3.7,7.3c0.6,1.8,1.9,3.1,3.7,3.7v18.9c-3,1-4.8,4.2-3.8,7.3
		c0.8,2.4,3,4,5.5,4h50.9c3.2,0,5.8-2.6,5.8-5.8C83.2,78.5,81.6,76.3,79.3,75.5z M77.5,83.6C77.4,83.6,77.4,83.6,77.5,83.6H26.6
		c-1.4,0-2.6-1.2-2.6-2.6s1.2-2.6,2.6-2.6h3.9c0.1,0,0.2,0,0.3,0c0.2,0,0.4-0.1,0.6-0.2l0,0c0.4-0.3,0.7-0.8,0.7-1.3
		c0-0.7-0.4-1.2-1-1.5c-0.2-0.1-0.4-0.1-0.6-0.1H28V56.9h4.5c0.1,0,0.2,0,0.3,0c0.7-0.2,1.3-0.8,1.3-1.6s-0.5-1.4-1.3-1.6
		c-0.1,0-0.2,0-0.3,0h-6c-0.2,0-0.3,0-0.4-0.1c-0.1,0-0.2,0-0.2-0.1c-1.1-0.4-1.8-1.4-1.8-2.6c0.1-1.2,1-2.2,2.2-2.4
		c0.1,0,0.1,0,0.2,0h3.6c0.1,0,0.2,0,0.3,0c0.7-0.2,1.3-0.8,1.3-1.6c0-0.7-0.4-1.2-1-1.5c-0.1,0-0.2-0.1-0.3-0.1c-0.1,0-0.2,0-0.3,0
		H28V27.1h10.8c0.1,0,0.2,0,0.3,0c0.7-0.2,1.3-0.8,1.3-1.6c0-0.7-0.4-1.2-1-1.5c-0.1,0-0.2-0.1-0.3-0.1s-0.2,0-0.3,0H26.6
		c-0.2,0-0.3,0-0.5-0.1c-0.2,0-0.3-0.1-0.4-0.2c-0.2-0.1-0.4-0.2-0.5-0.3c0,0-0.1-0.1-0.2-0.1c-0.4-0.3-0.7-0.8-0.8-1.4
		c0-0.1-0.1-0.3-0.1-0.4s0-0.2,0-0.3c0-0.1,0-0.3,0.1-0.4c0-0.2,0.1-0.3,0.2-0.5c0-0.1,0.1-0.1,0.1-0.2s0.1-0.1,0.1-0.2
		c0.1-0.2,0.3-0.3,0.4-0.5c0,0,0.1-0.1,0.2-0.1c0.2-0.2,0.4-0.3,0.7-0.4c0.1,0,0.2-0.1,0.2-0.1c0.1,0,0.1,0,0.2,0s0.2,0,0.3,0h50.9
		c0.1,0,0.2,0,0.3,0c0.1,0,0.1,0,0.2,0s0.2,0,0.2,0.1c0.2,0.1,0.5,0.2,0.7,0.4c0,0,0.1,0.1,0.2,0.1c0.1,0.1,0.3,0.3,0.4,0.5
		c0,0.1,0.1,0.1,0.1,0.2s0.1,0.1,0.1,0.2c0.1,0.2,0.1,0.3,0.2,0.5c0,0.1,0.1,0.3,0.1,0.4s0,0.2,0,0.3c0,0.1,0,0.3-0.1,0.4
		c-0.1,0.5-0.4,1-0.8,1.4c0,0-0.1,0.1-0.2,0.1c-0.1,0.1-0.3,0.2-0.5,0.3c-0.1,0.1-0.3,0.1-0.4,0.2c-0.2,0-0.3,0.1-0.5,0.1h-7.9
		c-0.9,0-1.6,0.7-1.6,1.6s0.7,1.6,1.6,1.6h6.5v18.2h-3.4c-0.9,0-1.6,0.7-1.6,1.6s0.7,1.6,1.6,1.6h4.8c0.1,0,0.2,0,0.3,0
		c0.1,0,0.1,0,0.2,0s0.2,0,0.2,0.1c0.2,0.1,0.5,0.2,0.7,0.4c0,0,0.1,0.1,0.2,0.1c0.2,0.2,0.4,0.4,0.5,0.6c0,0.1,0.1,0.1,0.1,0.2
		c0.1,0.2,0.1,0.3,0.2,0.5c0,0.1,0.1,0.3,0.1,0.4c0,0.1,0,0.2,0,0.3s0,0.3-0.1,0.4c-0.1,0.2-0.2,0.5-0.3,0.7c0,0.1-0.1,0.1-0.1,0.2
		c-0.1,0.2-0.3,0.3-0.4,0.5c0,0.1-0.1,0.1-0.2,0.1c-0.1,0.1-0.3,0.2-0.5,0.3c-0.1,0.1-0.3,0.1-0.4,0.2c-0.2,0-0.3,0.1-0.5,0.1h-4.8
		c-0.9,0-1.6,0.7-1.6,1.6s0.7,1.6,1.6,1.6h3.4v18.3h-2.5c-0.1,0-0.2,0-0.3,0c-0.1,0-0.2,0.1-0.3,0.1c-0.4,0.2-0.7,0.5-0.8,0.8
		c0,0.1-0.1,0.2-0.1,0.3c0,0.1,0,0.2,0,0.3c0,0.1,0,0.2,0,0.3c0,0.1,0.1,0.2,0.1,0.3c0.2,0.4,0.5,0.7,0.8,0.8c0.1,0,0.2,0.1,0.3,0.1
		c0.1,0,0.2,0,0.3,0h3.9c1.4,0,2.6,1.2,2.6,2.6C80,82.5,78.9,83.6,77.5,83.6z"/>
	<path class="st15" d="M1.8,48.4c0,0.9-0.7,1.6-1.6,1.6H-1c-0.9,0-1.6-0.7-1.6-1.6s0.7-1.6,1.6-1.6h1.2C1,46.8,1.8,47.5,1.8,48.4z"
		/>
	<path class="st15" d="M29.4,18.6c0,0.9-0.7,1.6-1.6,1.6h-3.6c-0.9,0-1.6-0.7-1.6-1.6s0.7-1.6,1.6-1.6h3.6
		C28.7,17,29.4,17.7,29.4,18.6z"/>
	<path class="st15" d="M10,18.6c0,0.9-0.7,1.6-1.6,1.6H6.6c-0.9,0-1.6-0.7-1.6-1.6S5.7,17,6.6,17h1.8C9.3,17,10,17.7,10,18.6z"/>
	<path class="st15" d="M12.1,69.9c0,0.1,0,0.2,0,0.3c0,0.1-0.1,0.2-0.1,0.3c-0.2,0.4-0.5,0.7-0.8,0.8c-0.1,0-0.2,0.1-0.3,0.1
		s-0.2,0-0.3,0H-2.3c-0.1,0-0.2,0-0.3,0s-0.2-0.1-0.3-0.1c-0.4-0.2-0.7-0.5-0.8-0.8c0-0.1-0.1-0.2-0.1-0.3s0-0.2,0-0.3s0-0.2,0-0.3
		s0.1-0.2,0.1-0.3c0.2-0.4,0.5-0.7,0.8-0.8c0.1,0,0.2-0.1,0.3-0.1s0.2,0,0.3,0h12.8c0.1,0,0.2,0,0.3,0s0.2,0.1,0.3,0.1
		c0.4,0.2,0.7,0.5,0.8,0.8c0,0.1,0.1,0.2,0.1,0.3C12.1,69.7,12.1,69.8,12.1,69.9z"/>
	<path class="st15" d="M70.1,76.8c0,0.9-0.7,1.6-1.6,1.6h-2.4c-0.9,0-1.6-0.7-1.6-1.6s0.7-1.6,1.6-1.6h2.4
		C69.4,75.2,70.1,75.9,70.1,76.8z"/>
	<path class="st15" d="M64.4,76.8c0,0.1,0,0.2,0,0.3c0,0.1-0.1,0.2-0.1,0.3c-0.2,0.4-0.5,0.7-0.8,0.8c-0.1,0-0.2,0.1-0.3,0.1
		s-0.2,0-0.3,0h-0.3c-0.9,0-1.6-0.7-1.6-1.6s0.7-1.6,1.6-1.6h0.3c0.1,0,0.2,0,0.3,0s0.2,0.1,0.3,0.1c0.4,0.2,0.7,0.5,0.8,0.8
		c0,0.1,0.1,0.2,0.1,0.3C64.4,76.6,64.4,76.7,64.4,76.8z"/>
	<path class="st15" d="M70,46.9L70,46.9c0,0.1,0,0.2,0,0.3s0,0.2,0,0.3s-0.1,0.2-0.1,0.3S69.8,48,69.8,48c0,0.1-0.1,0.2-0.2,0.2
		c-0.1,0.1-0.1,0.1-0.2,0.2c-0.2,0.1-0.3,0.2-0.5,0.2c-0.1,0-0.2,0.1-0.3,0.1h-1.2c-0.9,0-1.6-0.7-1.6-1.6c0-0.8,0.6-1.4,1.3-1.6
		c0,0,0,0,0.1,0s0.1,0,0.2,0h1.2c0.1,0,0.2,0,0.3,0c0.2,0,0.4,0.1,0.5,0.2c0.1,0,0.1,0.1,0.2,0.2c0.1,0.1,0.1,0.1,0.2,0.2
		c0.1,0.1,0.1,0.2,0.1,0.2c0,0.1,0.1,0.2,0.1,0.3C70,46.7,70,46.8,70,46.9z"/>
	<path class="st15" d="M63,54.1c0,3-1.5,5.8-4,7.4c-0.5,0.3-1.2,0.2-1.6-0.2C57.1,61,57,60.5,57.2,60c0.3-0.7,0.5-1.5,0.5-2.3
		c0-1.3-0.5-2.3-1.9-4.2c-0.9-1.4-1.4-2.9-1.7-4.5c-0.5,0.7-1,1.4-1.2,2.2c-0.5,1.3-0.5,2.7,0.1,4c0.4,0.6,0.5,1.4,0.2,2
		c-0.7,0.9-2,1.1-2.9,0.4c-0.1-0.1-0.2-0.2-0.3-0.3c-0.5-0.5-0.7-1.2-0.8-1.8c-0.3,0.4-0.6,0.9-0.7,1.4c-0.2,0.6-0.2,1.2-0.1,1.8
		c0.1,0.6,0.5,1.2,0.9,1.6c0.2,0.3,0.3,0.6,0.2,1c-0.1,0.3-0.4,0.6-0.7,0.7c-0.3,0.1-0.6,0-0.8-0.1c-2.7-1.6-4.4-4.6-4.5-7.8
		c-0.1-2.3,0.8-4.5,2.5-6.1c0.1-0.2,0.3-0.2,0.5-0.2c0.5,0,0.7,0.4,0.8,0.8c0.3,0.8,0.6,1.4,1.5,1.4c0.3,0,0.6-0.1,0.8-0.1
		c0.4-0.1,0.8-0.4,1-0.8c0.3-0.8-0.4-2.2-0.7-2.8c-0.7-1.5-0.6-3.4,0.4-4.7c0.9-1.5,2.5-2.9,3.3-2.9c0.3,0,0.5,0.1,0.7,0.3
		c0.8,0.9-1.2,2.8,3.2,5.4c4.2,2.5,2.9,6.2,2.2,8c-0.1,0.2-0.2,0.5-0.2,0.8c0.2,0.2,1.3-0.8,1.6-1c0.5-0.5,0.8-0.7,1.1-0.7
		s0.5,0.2,0.5,0.4C62.9,52.5,63,53.3,63,54.1z"/>
</g>
</svg>
