<?xml version="1.0" encoding="utf-8"?>
<!-- Generator: Adobe Illustrator 23.0.1, SVG Export Plug-In . SVG Version: 6.00 Build 0)  -->
<svg version="1.1" xmlns="http://www.w3.org/2000/svg" xmlns:xlink="http://www.w3.org/1999/xlink" x="0px" y="0px"
	 viewBox="0 0 100 100" style="enable-background:new 0 0 100 100;" xml:space="preserve">
<style type="text/css">
	.st0{fill:#ECF9FF;}
	.st1{fill:#FFFFFF;}
	.st2{fill:#535D66;}
	.st3{fill-rule:evenodd;clip-rule:evenodd;fill:#ECF9FF;}
	.st4{fill-rule:evenodd;clip-rule:evenodd;fill:#FFFFFF;}
	.st5{fill-rule:evenodd;clip-rule:evenodd;fill:#00ADEE;}
	.st6{fill-rule:evenodd;clip-rule:evenodd;}
	.st7{fill:#00ADEE;}
	.st8{fill:#808099;}
	.st9{fill:#FFC037;}
	.st10{fill:#FF7108;}
	.st11{fill:#AEFFCF;}
	.st12{fill:#0BD360;}
	.st13{fill:#343434;}
	.st14{fill-rule:evenodd;clip-rule:evenodd;fill:#104EFF;}
	.st15{fill:#002E75;}
	.st16{fill:#0855C4;}
	.st17{fill:#99E2FF;}
	.st18{fill:#AED3FF;}
	.st19{fill:#231F20;}
	.st20{fill:#EFF1F4;}
	.st21{clip-path:url(#SVGID_2_);}
	.st22{fill:#8EEA00;}
	.st23{fill-rule:evenodd;clip-rule:evenodd;fill:#8EEA00;}
	.st24{fill:#0021CE;}
	.st25{fill:#104EFF;}
	.st26{fill:#303030;}
	.st27{fill:#00E1CF;}
	.st28{fill-rule:evenodd;clip-rule:evenodd;fill:#0BD360;}
	.st29{fill-rule:evenodd;clip-rule:evenodd;fill:#00E1CF;}
	.st30{fill:none;stroke:#5C006A;stroke-width:1.29;stroke-linecap:round;stroke-linejoin:round;}
	.st31{fill:#B6FFD3;}
	.st32{clip-path:url(#SVGID_4_);}
	.st33{fill:#DFE6E8;}
	.st34{fill:#B3B3B3;}
	.st35{fill:#96E0FD;}
	.st36{fill:#0ED160;}
	.st37{fill:#08A8FD;}
	.st38{fill:#6EEE89;}
	.st39{fill:#DFF8F5;}
	.st40{clip-path:url(#SVGID_6_);fill:#96E0FD;}
	.st41{fill:#F5F5F6;}
	.st42{fill:none;stroke:#002E75;stroke-width:1.5207;stroke-linecap:round;stroke-linejoin:round;}
	.st43{fill:#E9EAEB;}
	.st44{clip-path:url(#SVGID_8_);fill:#FFFFFF;}
	.st45{clip-path:url(#SVGID_8_);fill:#FFCF9B;}
	.st46{clip-path:url(#SVGID_8_);fill:#002E75;}
	.st47{clip-path:url(#SVGID_8_);fill:#F9BC90;}
	.st48{clip-path:url(#SVGID_8_);fill:#0ED160;}
	.st49{fill-rule:evenodd;clip-rule:evenodd;fill:#002E75;}
	.st50{fill-rule:evenodd;clip-rule:evenodd;fill:#0ED160;}
	.st51{fill-rule:evenodd;clip-rule:evenodd;fill:#DFE6E8;}
	.st52{fill-rule:evenodd;clip-rule:evenodd;fill:#DCE6E8;}
	.st53{fill-rule:evenodd;clip-rule:evenodd;fill:#6EEE89;}
	.st54{fill-rule:evenodd;clip-rule:evenodd;fill:#FFC037;}
	.st55{fill:#F4F4F5;}
	.st56{fill:#606060;}
	.st57{fill-rule:evenodd;clip-rule:evenodd;fill:#005EA1;}
	.st58{fill-rule:evenodd;clip-rule:evenodd;fill:#00A5D8;}
	.st59{fill:#444444;}
	.st60{clip-path:url(#SVGID_10_);}
	.st61{clip-path:url(#SVGID_12_);}
	.st62{clip-path:url(#SVGID_14_);}
	.st63{clip-path:url(#SVGID_16_);}
	.st64{clip-path:url(#SVGID_18_);}
	.st65{clip-path:url(#SVGID_20_);}
</style>
<g id="Layer_3">
</g>
<g id="Layer_1">
</g>
<g id="Layer_2">
</g>
<g id="Layer_4">
</g>
<g id="Layer_5">
</g>
<g id="Isolation_Mode">
</g>
<g id="Art">
</g>
<g id="Capa_8">
	<g>
		<path class="st15" d="M36.7,63.8c0.1-0.2,0.1-0.4,0.1-0.6v-1.4c0-0.8-0.6-1.4-1.4-1.5v0c0-0.2,0-0.4-0.1-0.6L29,44.8
			c0.1,0,0.3-0.1,0.4-0.1l0.9-0.3c1.8-0.5,5.3-1.5,7.6-1.5c0.9,0,1.7,0.5,2.6,1.1c1.1,0.7,2.4,1.6,4.2,1.6c1.8,0,3.1-0.9,4.2-1.6
			c0.9-0.6,1.7-1.1,2.6-1.1c2.4,0,5.8,1,7.6,1.5l1,0.3c0.2,0.1,0.3,0.1,0.5,0.1l-5,15c-0.1,0.2-0.1,0.3-0.1,0.5v0
			c-0.8,0.1-1.4,0.7-1.4,1.5v1.4c0,0.2,0,0.4,0.1,0.6c1.6,4,5.4,6.4,10.3,6.4s8.7-2.4,10.3-6.3c0.1-0.2,0.1-0.4,0.1-0.6v-1.4
			c0-0.8-0.7-1.5-1.5-1.5c0-0.2,0-0.4-0.1-0.6l-6.1-14.5c2.1-0.7,3.5-2.4,3.5-3.9c0-3.5-2.1-5.6-5.6-5.6c-0.4,0-0.9,0-1.4,0.1
			c-1.8,0.2-4.2,0.5-7.3-1.3c-3.4-1.9-7.8-3.6-11.6-0.7c-3.8-2.9-8.2-1.2-11.6,0.7c-3.2,1.8-5.6,1.5-7.4,1.3
			c-0.5-0.1-0.9-0.1-1.4-0.1c-3.5,0-5.6,2.2-5.6,5.6c0,1.5,1.5,3.2,3.6,3.9l-4.9,14.5c-0.1,0.2-0.1,0.3-0.1,0.5v0
			C16.6,60.4,16,61,16,61.8v1.4c0,0.2,0,0.4,0.1,0.6c1.6,4,5.4,6.4,10.3,6.4S35.1,67.7,36.7,63.8z M45.9,36.9c1.8-1.9,4-2.5,9.1,0.3
			c3.9,2.2,7.1,1.9,9.1,1.7c0.4,0,0.8-0.1,1.1-0.1c1.8,0,2.6,0.8,2.6,2.5c-0.1,0.3-1.1,1.3-2.6,1.3c-1.3,0-2-0.2-4.2-0.9l-1-0.3
			c-2-0.6-5.6-1.6-8.4-1.6c-1.8,0-3.1,0.9-4.2,1.6c-0.9,0.6-1.7,1.1-2.6,1.1c-0.9,0-1.7-0.5-2.6-1.1c-1.1-0.7-2.4-1.6-4.2-1.6
			c-2.8,0-6.4,1-8.4,1.6l-1,0.3c-2.2,0.6-3,0.8-4.2,0.8c-1.5,0-2.5-1-2.6-1.2c0-1.8,0.8-2.6,2.6-2.6c0.3,0,0.6,0,1,0.1
			c1.9,0.2,5.2,0.6,9.2-1.7c5.1-2.8,7.3-2.2,9.1-0.3C44.3,37.5,45.3,37.5,45.9,36.9z M26,45.5l6.2,14.8H20.5l5-14.7
			C25.7,45.5,25.9,45.5,26,45.5z M33.6,63.3c-1.3,2.4-3.9,3.8-7.2,3.8s-5.9-1.4-7.2-3.8H33.6z M71.8,63.3c-1.3,2.4-3.9,3.8-7.2,3.8
			c-3.3,0-5.9-1.4-7.2-3.8H71.8z M58.7,60.3l4.9-14.8c0.2,0,0.4,0,0.6,0.1l6.2,14.7H58.7z"/>
		<path class="st15" d="M43.6,30.5c0-0.7,0.5-1.2,1.2-1.2s1.2,0.5,1.2,1.2c0,0.8,0.7,1.5,1.5,1.5s1.5-0.7,1.5-1.5
			c0-2.3-1.9-4.2-4.2-4.2c-2.3,0-4.2,1.9-4.2,4.2c0,0.8,0.7,1.5,1.5,1.5S43.6,31.3,43.6,30.5z"/>
		<path class="st15" d="M51.6,71.9h-5.3v-23c0-0.8-0.7-1.5-1.5-1.5s-1.5,0.7-1.5,1.5v23H38c-3.1,0-5.6,2.5-5.6,5.6v2.7
			c0,0.8,0.7,1.5,1.5,1.5h21.8c0.8,0,1.5-0.7,1.5-1.5v-2.7C57.2,74.4,54.7,71.9,51.6,71.9z M38,74.9h13.6c1.4,0,2.6,1.2,2.6,2.6v1.2
			H35.4v-1.2C35.4,76.1,36.6,74.9,38,74.9z"/>
		<path class="st15" d="M80.2,53.4c-0.8,0-1.5,0.7-1.5,1.5v20.5c0,0.7-0.5,1.2-1.2,1.2H61.9c-0.8,0-1.5,0.7-1.5,1.5s0.7,1.5,1.5,1.5
			h15.6c2.3,0,4.2-1.9,4.2-4.2V54.9C81.7,54.1,81,53.4,80.2,53.4z"/>
		<path class="st15" d="M81.3,23.9l-9.5-9.5c-0.3-0.3-0.7-0.4-1.1-0.4H38c-2.3,0-4.2,1.9-4.2,4.2v10.2c0,0.8,0.7,1.5,1.5,1.5
			s1.5-0.7,1.5-1.5V18.2c0-0.7,0.5-1.2,1.2-1.2h32.1l8.6,8.6v24.1c0,0.8,0.7,1.5,1.5,1.5s1.5-0.7,1.5-1.5V25
			C81.7,24.6,81.6,24.2,81.3,23.9z"/>
		<path class="st15" d="M67.2,20.2c-0.8,0-1.5,0.7-1.5,1.5v6.8c0,0.8,0.7,1.5,1.5,1.5H74c0.8,0,1.5-0.7,1.5-1.5S74.8,27,74,27h-5.3
			v-5.3C68.7,20.9,68,20.2,67.2,20.2z"/>
	</g>
</g>
</svg>
