<?xml version="1.0" encoding="utf-8"?>
<!-- Generator: Adobe Illustrator 23.0.1, SVG Export Plug-In . SVG Version: 6.00 Build 0)  -->
<svg version="1.1" xmlns="http://www.w3.org/2000/svg" xmlns:xlink="http://www.w3.org/1999/xlink" x="0px" y="0px"
	 viewBox="0 0 100 100" style="enable-background:new 0 0 100 100;" xml:space="preserve">
<style type="text/css">
	.st0{fill:#ECF9FF;}
	.st1{fill:#FFFFFF;}
	.st2{fill:#535D66;}
	.st3{fill-rule:evenodd;clip-rule:evenodd;fill:#ECF9FF;}
	.st4{fill-rule:evenodd;clip-rule:evenodd;fill:#FFFFFF;}
	.st5{fill-rule:evenodd;clip-rule:evenodd;fill:#00ADEE;}
	.st6{fill-rule:evenodd;clip-rule:evenodd;}
	.st7{fill:#00ADEE;}
	.st8{fill:#808099;}
	.st9{fill:#FFC037;}
	.st10{fill:#FF7108;}
	.st11{fill:#AEFFCF;}
	.st12{fill:#0BD360;}
	.st13{fill:#343434;}
	.st14{fill-rule:evenodd;clip-rule:evenodd;fill:#104EFF;}
	.st15{fill:#002E75;}
	.st16{fill:#0855C4;}
	.st17{fill:#99E2FF;}
	.st18{fill:#AED3FF;}
	.st19{fill:#231F20;}
	.st20{fill:#EFF1F4;}
	.st21{clip-path:url(#SVGID_2_);}
	.st22{fill:#8EEA00;}
	.st23{fill-rule:evenodd;clip-rule:evenodd;fill:#8EEA00;}
	.st24{fill:#0021CE;}
	.st25{fill:#104EFF;}
	.st26{fill:#303030;}
	.st27{fill:#00E1CF;}
	.st28{fill-rule:evenodd;clip-rule:evenodd;fill:#0BD360;}
	.st29{fill-rule:evenodd;clip-rule:evenodd;fill:#00E1CF;}
	.st30{fill:none;stroke:#5C006A;stroke-width:1.29;stroke-linecap:round;stroke-linejoin:round;}
	.st31{fill:#B6FFD3;}
	.st32{clip-path:url(#SVGID_4_);}
	.st33{fill:#DFE6E8;}
	.st34{fill:#B3B3B3;}
	.st35{fill:#96E0FD;}
	.st36{fill:#0ED160;}
	.st37{fill:#08A8FD;}
	.st38{fill:#6EEE89;}
	.st39{fill:#DFF8F5;}
	.st40{clip-path:url(#SVGID_6_);fill:#96E0FD;}
	.st41{fill:#F5F5F6;}
	.st42{fill:none;stroke:#002E75;stroke-width:1.5207;stroke-linecap:round;stroke-linejoin:round;}
	.st43{fill:#E9EAEB;}
	.st44{clip-path:url(#SVGID_8_);fill:#FFFFFF;}
	.st45{clip-path:url(#SVGID_8_);fill:#FFCF9B;}
	.st46{clip-path:url(#SVGID_8_);fill:#002E75;}
	.st47{clip-path:url(#SVGID_8_);fill:#F9BC90;}
	.st48{clip-path:url(#SVGID_8_);fill:#0ED160;}
	.st49{fill-rule:evenodd;clip-rule:evenodd;fill:#002E75;}
	.st50{fill-rule:evenodd;clip-rule:evenodd;fill:#0ED160;}
	.st51{fill-rule:evenodd;clip-rule:evenodd;fill:#DFE6E8;}
	.st52{fill-rule:evenodd;clip-rule:evenodd;fill:#DCE6E8;}
	.st53{fill-rule:evenodd;clip-rule:evenodd;fill:#6EEE89;}
	.st54{fill-rule:evenodd;clip-rule:evenodd;fill:#FFC037;}
	.st55{fill:#F4F4F5;}
	.st56{fill:#606060;}
	.st57{fill-rule:evenodd;clip-rule:evenodd;fill:#005EA1;}
	.st58{fill-rule:evenodd;clip-rule:evenodd;fill:#00A5D8;}
	.st59{fill:#444444;}
	.st60{clip-path:url(#SVGID_10_);}
	.st61{clip-path:url(#SVGID_12_);}
	.st62{clip-path:url(#SVGID_14_);}
	.st63{clip-path:url(#SVGID_16_);}
	.st64{clip-path:url(#SVGID_18_);}
	.st65{clip-path:url(#SVGID_20_);}
</style>
<g id="Layer_3">
</g>
<g id="Layer_1">
</g>
<g id="Layer_2">
</g>
<g id="Layer_4">
</g>
<g id="Layer_5">
</g>
<g id="Isolation_Mode">
</g>
<g id="Art">
</g>
<g id="Capa_8">
	<path class="st15" d="M41.1,56.5L41.1,56.5c-0.7,0-1.3,0.6-1.3,1.3v11.4c0,0.7,0.6,1.3,1.3,1.3l0,0l0,0c0.7,0,1.3-0.6,1.3-1.3V57.8
		C42.4,57.1,41.8,56.5,41.1,56.5L41.1,56.5z"/>
	<path class="st15" d="M34.2,56.5L34.2,56.5c-0.7,0-1.3,0.6-1.3,1.3v11.4c0,0.7,0.6,1.3,1.3,1.3l0,0l0,0c0.7,0,1.3-0.6,1.3-1.3l0,0
		V57.8C35.5,57.1,34.9,56.5,34.2,56.5z"/>
	<path class="st15" d="M51.1,56.5L51.1,56.5c-0.7,0-1.3,0.6-1.3,1.3l0,0v11.4c0,0.7,0.6,1.3,1.3,1.3l0,0c0.7,0,1.3-0.6,1.3-1.3l0,0
		V57.8C52.4,57.1,51.8,56.5,51.1,56.5z"/>
	<path class="st15" d="M58.6,56.5L58.6,56.5c-0.7,0-1.3,0.6-1.3,1.3l0,0v11.4c0,0.7,0.6,1.3,1.3,1.3l0,0c0.7,0,1.3-0.6,1.3-1.3l0,0
		V57.8C59.9,57.1,59.3,56.5,58.6,56.5z"/>
	<path class="st15" d="M68.9,40.3c-0.2,0-0.3-0.2-0.3-0.4c0-0.1,0.1-0.2,0.1-0.2c2.1-1.7,3.3-4.4,3.2-7.1c0.1-5.3-4.1-9.8-9.5-9.9
		c-0.1,0-0.3,0-0.4,0c-0.7,0-1.5,0.1-2.2,0.2c-2.8-3.3-7.8-5.3-13.6-5.3s-10.8,1.9-13.6,5.2c-0.6-0.1-1.2-0.2-1.9-0.2
		c-5.4-0.1-9.8,4.1-9.9,9.5c0,0.1,0,0.3,0,0.4c-0.1,3.2,1.5,6.1,4.2,7.8c0.7,0.4,1.2,1.2,1.2,2.1v28c0,1.1,0.2,2.1,0.5,3.1
		c0.2,0.7,0.1,1.4-0.3,1.9c-0.5,0.7-0.8,1.6-0.8,2.5c-0.1,2.3,1.8,4.3,4.1,4.4h32.9c2.3-0.1,4.2-2,4.1-4.4c0-1-0.3-2-0.9-2.8
		c-0.4-0.6-0.6-1.3-0.4-2V73c0.2-0.7,0.8-1.1,1.5-1.1h0.4c6.4,0,11.7-5.2,11.7-11.6v-0.1v-8.5C79.1,46,74.8,41,68.9,40.3z
		 M62.1,45.6H45.7c-0.7,0-1.2-0.5-1.2-1.2l0,0v-3.3c0-1.7,1.3-3,3-3h6.4c2,2.5,5,3.8,8.2,3.7l0,0c0.7,0,1.3,0.5,1.3,1.1
		c0,0,0,0,0,0.1v1.5C63.3,45.1,62.8,45.6,62.1,45.6z M67.1,48h0.3c2.1,0,3.9,1.7,3.9,3.9v8.5c0,2.1-1.7,3.9-3.9,3.9h-0.3
		c-0.6,0-1.2-0.5-1.2-1.2V49.2C66,48.5,66.5,48,67.1,48L67.1,48z M23.5,32.5c-0.1-3.9,2.9-7.2,6.8-7.3c0.2,0,0.3,0,0.5,0
		c0.7,0,1.3,0.1,2,0.3l0,0c0.5,0.1,1.1-0.1,1.4-0.5l0,0c2.1-3,6.8-4.8,12-4.8s10,1.9,12.1,4.9l0,0c0.3,0.5,0.9,0.7,1.4,0.5l0,0
		c0.8-0.2,1.5-0.4,2.3-0.4c3.9-0.1,7.2,2.9,7.3,6.8c0,0.2,0,0.3,0,0.5c0,4.9-3.9,6.6-7.3,6.6c-2.9,0-5.2-1.1-6.4-3.1l0,0
		c-0.4-0.3-0.9-0.5-1.5-0.5h-6.6c-3.1,0-5.6,2.5-5.6,5.6l0,0v8.6c0,1.4-1,2.6-2.4,2.7c-0.7,0-1.3-0.2-1.8-0.7s-0.8-1.1-0.8-1.8v-8.7
		c0-3.1-2.5-5.6-5.6-5.6h-2.5c-1.4,0-2.5,1.1-2.5,2.5l0,0C24.4,36.8,23.3,34.7,23.5,32.5z M33,45.6h-2.9c-0.7,0-1.2-0.5-1.2-1.2l0,0
		V39c0-0.5,0.4-0.9,0.9-0.9l0,0h1.5c1.7,0,3,1.3,3,3v3.3C34.2,45.1,33.7,45.6,33,45.6z M28.9,70.4V49.5c0-0.7,0.5-1.2,1.2-1.2l0,0
		H33c0.7,0,1.2,0.5,1.2,1.2l0,0v0.2c0,1.3,0.4,2.6,1.3,3.6c1,1.1,2.5,1.8,4,1.7c2.8-0.1,5-2.5,5-5.3v-0.3c0-0.7,0.5-1.2,1.2-1.2l0,0
		h16.4c0.7,0,1.2,0.5,1.2,1.2l0,0v20.9c0,1.1-0.3,2.3-0.8,3.3H29.7C29.1,72.6,28.9,71.5,28.9,70.4z M62.7,79.8H29.9
		c-1-0.2-1.7-1.1-1.5-2.1c0.1-0.8,0.7-1.4,1.5-1.5h32.9c1,0.2,1.7,1.1,1.5,2.1C64.1,79.1,63.5,79.7,62.7,79.8z M76.5,60.3
		c0,5-4.1,9.1-9.1,9.1h-0.3c-0.7,0-1.2-0.6-1.2-1.2V68c0-0.7,0.5-1.2,1.2-1.2l0,0h0.3c3.6,0,6.5-2.9,6.5-6.4c0,0,0,0,0-0.1v-8.5
		c0-3.6-2.9-6.5-6.5-6.5l0,0h-0.3c-0.7,0-1.2-0.5-1.2-1.2l0,0V44c0-0.7,0.5-1.2,1.2-1.2l0,0h0.3c5,0,9.1,4.1,9.1,9.1l0,0V60.3z"/>
</g>
</svg>
