<?xml version="1.0" encoding="utf-8"?>
<!-- Generator: Adobe Illustrator 23.0.1, SVG Export Plug-In . SVG Version: 6.00 Build 0)  -->
<svg version="1.1" xmlns="http://www.w3.org/2000/svg" xmlns:xlink="http://www.w3.org/1999/xlink" x="0px" y="0px"
	 viewBox="0 0 100 100" style="enable-background:new 0 0 100 100;" xml:space="preserve">
<style type="text/css">
	.st0{fill:#ECF9FF;}
	.st1{fill:#FFFFFF;}
	.st2{fill:#535D66;}
	.st3{fill-rule:evenodd;clip-rule:evenodd;fill:#ECF9FF;}
	.st4{fill-rule:evenodd;clip-rule:evenodd;fill:#FFFFFF;}
	.st5{fill-rule:evenodd;clip-rule:evenodd;fill:#00ADEE;}
	.st6{fill-rule:evenodd;clip-rule:evenodd;}
	.st7{fill:#00ADEE;}
	.st8{fill:#808099;}
	.st9{fill:#FFC037;}
	.st10{fill:#FF7108;}
	.st11{fill:#AEFFCF;}
	.st12{fill:#0BD360;}
	.st13{fill:#343434;}
	.st14{fill-rule:evenodd;clip-rule:evenodd;fill:#104EFF;}
	.st15{fill:#002E75;}
	.st16{fill:#0855C4;}
	.st17{fill:#99E2FF;}
	.st18{fill:#AED3FF;}
	.st19{fill:#231F20;}
	.st20{fill:#EFF1F4;}
	.st21{clip-path:url(#SVGID_2_);}
	.st22{fill:#8EEA00;}
	.st23{fill-rule:evenodd;clip-rule:evenodd;fill:#8EEA00;}
	.st24{fill:#0021CE;}
	.st25{fill:#104EFF;}
	.st26{fill:#303030;}
	.st27{fill:#00E1CF;}
	.st28{fill-rule:evenodd;clip-rule:evenodd;fill:#0BD360;}
	.st29{fill-rule:evenodd;clip-rule:evenodd;fill:#00E1CF;}
	.st30{fill:none;stroke:#5C006A;stroke-width:1.29;stroke-linecap:round;stroke-linejoin:round;}
	.st31{fill:#B6FFD3;}
	.st32{clip-path:url(#SVGID_4_);}
	.st33{fill:#DFE6E8;}
	.st34{fill:#B3B3B3;}
	.st35{fill:#96E0FD;}
	.st36{fill:#0ED160;}
	.st37{fill:#08A8FD;}
	.st38{fill:#6EEE89;}
	.st39{fill:#DFF8F5;}
	.st40{clip-path:url(#SVGID_6_);fill:#96E0FD;}
	.st41{fill:#F5F5F6;}
	.st42{fill:none;stroke:#002E75;stroke-width:1.5207;stroke-linecap:round;stroke-linejoin:round;}
	.st43{fill:#E9EAEB;}
	.st44{clip-path:url(#SVGID_8_);fill:#FFFFFF;}
	.st45{clip-path:url(#SVGID_8_);fill:#FFCF9B;}
	.st46{clip-path:url(#SVGID_8_);fill:#002E75;}
	.st47{clip-path:url(#SVGID_8_);fill:#F9BC90;}
	.st48{clip-path:url(#SVGID_8_);fill:#0ED160;}
	.st49{fill-rule:evenodd;clip-rule:evenodd;fill:#002E75;}
	.st50{fill-rule:evenodd;clip-rule:evenodd;fill:#0ED160;}
	.st51{fill-rule:evenodd;clip-rule:evenodd;fill:#DFE6E8;}
	.st52{fill-rule:evenodd;clip-rule:evenodd;fill:#DCE6E8;}
	.st53{fill-rule:evenodd;clip-rule:evenodd;fill:#6EEE89;}
	.st54{fill-rule:evenodd;clip-rule:evenodd;fill:#FFC037;}
	.st55{fill:#F4F4F5;}
	.st56{fill:#606060;}
	.st57{fill-rule:evenodd;clip-rule:evenodd;fill:#005EA1;}
	.st58{fill-rule:evenodd;clip-rule:evenodd;fill:#00A5D8;}
	.st59{fill:#444444;}
	.st60{clip-path:url(#SVGID_10_);}
	.st61{clip-path:url(#SVGID_12_);}
	.st62{clip-path:url(#SVGID_14_);}
	.st63{clip-path:url(#SVGID_16_);}
	.st64{clip-path:url(#SVGID_18_);}
	.st65{clip-path:url(#SVGID_20_);}
</style>
<g id="Layer_3">
</g>
<g id="Layer_1">
</g>
<g id="Layer_2">
</g>
<g id="Layer_4">
</g>
<g id="Layer_5">
</g>
<g id="Isolation_Mode">
</g>
<g id="Art">
</g>
<g id="Capa_8">
	<path class="st15" d="M66.5,86.6H18.3c-0.8,0-1.4-0.6-1.4-1.4l0,0V53c-0.1-0.8,0.5-1.5,1.3-1.6s1.5,0.5,1.6,1.3c0,0.1,0,0.2,0,0.2
		v30.7h45.4V53c0-0.8,0.6-1.5,1.5-1.5c0.8,0,1.4,0.6,1.4,1.5v32.2C68,86,67.3,86.6,66.5,86.6L66.5,86.6z"/>
	<path class="st15" d="M47.7,86.6H37.1c-0.8,0-1.4-0.6-1.4-1.4l0,0V67.8c0-0.8,0.6-1.4,1.4-1.4h10.5c0.8,0,1.4,0.7,1.4,1.4v17.3
		C49.1,86,48.5,86.6,47.7,86.6z M38.6,83.7h7.6V69.3h-7.6V83.7z"/>
	<path class="st15" d="M47.7,61.8H37.1c-0.8,0-1.4-0.7-1.4-1.5v-8.7c0-0.8,0.6-1.4,1.4-1.5h10.5c0.8,0,1.4,0.7,1.4,1.5v8.7
		C49.1,61.1,48.5,61.8,47.7,61.8z M38.6,58.9h7.6v-5.8h-7.6V58.9z"/>
	<path class="st15" d="M5.8,81.6c-0.4,0-0.7-0.2-1-0.4c-1-1-1.6-2.4-1.6-3.9c0-2.4,1.6-4.5,3.9-5.3c0.5-2.2,2.5-3.7,4.8-3.7
		c1.1,0,2.1,0.4,2.9,1c0.6,0.5,0.7,1.4,0.2,2s-1.3,0.7-1.9,0.3c-0.9-0.7-2.1-0.5-2.8,0.4c-0.3,0.3-0.4,0.8-0.4,1.2l0,0
		c0,0.8-0.6,1.4-1.3,1.4c-1.4,0.1-2.4,1.3-2.4,2.6c0,0.7,0.3,1.4,0.8,1.8c0.6,0.6,0.6,1.5,0,2.1C6.6,81.5,6.2,81.6,5.8,81.6
		L5.8,81.6z"/>
	<path class="st15" d="M80.7,86.6c-0.8,0-1.4-0.7-1.4-1.5c0-0.4,0.2-0.7,0.4-1c0.7-0.7,1-1.6,1-2.5c0-1.9-1.4-3.4-3.3-3.6
		c-0.7-0.1-1.3-0.7-1.3-1.4l0,0c0-1.6-1.3-2.8-2.8-2.8c-0.6,0-1.2,0.2-1.6,0.6c-0.6,0.5-1.5,0.3-2-0.3c-0.5-0.6-0.3-1.5,0.3-2l0,0
		c1-0.7,2.2-1.1,3.4-1.1c2.7,0,5,1.9,5.6,4.5c2.8,0.8,4.7,3.3,4.7,6.2c0,1.7-0.7,3.4-1.9,4.6C81.4,86.5,81.1,86.6,80.7,86.6z"/>
	<path class="st15" d="M77.7,79.9C77.7,80,77.6,80,77.7,79.9c-0.6,0.6-1.5,0.6-2.1,0s-0.6-1.5,0-2.1c0.5-0.5,0.6-1.3,0.4-2l0,0
		l2.8-0.9C79.3,76.7,78.9,78.6,77.7,79.9z"/>
	<path class="st15" d="M83.6,50.1c-0.8,0-1.5-0.6-1.5-1.4c0-0.8,0.6-1.5,1.4-1.5l0,0c4.4-0.3,7.7-4.1,7.4-8.5
		c-0.3-3.8-3.1-6.8-6.9-7.3c-0.7-0.1-1.2-0.7-1.2-1.4v-0.1l0,0c-0.3-5.1-4.7-9-9.8-8.6c-4.5,0.3-8.2,3.8-8.6,8.3
		c-0.1,0.8-0.8,1.4-1.6,1.3c-0.2,0-0.4-0.1-0.5-0.2c-1.3-0.6-2.7-0.9-4.1-0.9c-4.4,0.3-7.7,4.1-7.4,8.4c0,0.8-0.6,1.5-1.4,1.5
		c-0.7,0-1.4-0.5-1.5-1.3c-0.4-6,4.1-11.1,10.1-11.5c1.3-0.1,2.7,0.1,3.9,0.5c1.7-6.5,8.3-10.4,14.8-8.7c4.7,1.2,8.2,5.2,8.9,10
		c5.8,1.4,9.4,7.3,8,13.1c-1.1,4.6-5.1,7.9-9.8,8.2L83.6,50.1z"/>
	<path class="st15" d="M60.9,37.6c-0.6,0-1.1-0.3-1.3-0.9c-1.5-3.4,0.1-7.3,3.5-8.8c3.4-1.5,7.3,0.1,8.8,3.5c0.3,0.7,0,1.6-0.8,1.9
		s-1.6,0-1.9-0.8l0,0c-0.8-1.9-3-2.8-5-2s-2.8,3-2,5c0.3,0.7-0.1,1.6-0.8,1.9C61.3,37.5,61.1,37.6,60.9,37.6L60.9,37.6z"/>
	<path class="st15" d="M87.6,57.8c-1.1,0-2.2-0.3-3.2-0.8c-0.7-0.3-1.1-1.2-0.7-1.9c0.3-0.7,1.2-1.1,1.9-0.7c0.1,0,0.1,0.1,0.2,0.1
		c1.8,1,4.1,0.3,5.1-1.5s0.3-4.1-1.5-5.1c-0.7-0.3-1.1-1.2-0.7-1.9c0.3-0.7,1.2-1.1,1.9-0.7c0.1,0,0.1,0.1,0.2,0.1
		c3.2,1.7,4.4,5.8,2.7,9c-0.8,1.6-2.3,2.7-4,3.2C88.9,57.7,88.3,57.8,87.6,57.8z"/>
	<path class="st15" d="M75.2,73.9c-0.8,0-1.4-0.6-1.4-1.4V53.6c0-2.5,0.7-4.9,2.1-7l0.1-0.1l4.6-5.7c0.5-0.7,1.4-0.8,2-0.4
		c0.7,0.5,0.8,1.4,0.4,2c0,0.1-0.1,0.1-0.1,0.2l-4.6,5.6c-1,1.6-1.5,3.4-1.6,5.3v18.9C76.7,73.2,76,73.9,75.2,73.9L75.2,73.9z"/>
	<path class="st15" d="M80.2,65.1c-2.1,0-4.1-0.8-5.5-2.3c-0.4-0.7-0.2-1.6,0.5-2c0.5-0.3,1.1-0.3,1.5,0c1.9,1.9,5.1,1.9,7,0
		c0.9-0.9,1.4-2.2,1.4-3.5c-0.1-0.8,0.5-1.5,1.3-1.6s1.5,0.5,1.6,1.3c0,0.1,0,0.2,0,0.2C88,61.6,84.5,65,80.2,65.1z"/>
	<path class="st15" d="M70.8,50.6c-0.5,0-0.9-0.2-1.2-0.6l-3.3-5.2c-0.4-0.7-0.1-1.6,0.6-2c0.6-0.3,1.4-0.2,1.8,0.4l3.3,5.2
		c0.4,0.7,0.2,1.6-0.4,2C71.3,50.6,71.1,50.6,70.8,50.6L70.8,50.6z"/>
	<g>
		<path class="st15" d="M75.5,57.5c-0.1-0.5-0.3-0.9-0.7-1.2L43.1,32.8c-0.6-0.5-1.5-0.5-2.1,0l-11.7,8.8c-0.4,0.3-0.6,0.7-0.7,1.2
			c-0.1,0.5,0.1,0.9,0.3,1.3s0.7,0.6,1.2,0.7c0.5,0.1,0.9-0.1,1.3-0.3l10.6-8l30.7,22.8c0.3,0.2,0.7,0.3,1.1,0.3
			c0.6,0,1.1-0.3,1.4-0.7C75.5,58.5,75.6,58,75.5,57.5z"/>
		<path class="st15" d="M25,45.5c-0.5-0.1-0.9,0-1.3,0.3L9.4,56.4c-0.8,0.6-0.9,1.7-0.4,2.5c0.3,0.4,0.9,0.7,1.4,0.7
			c0.4,0,0.7-0.1,1.1-0.3l14.2-10.6c0.8-0.6,0.9-1.7,0.4-2.5C25.8,45.8,25.4,45.5,25,45.5z"/>
	</g>
	<path class="st15" d="M85,83.7H6.6c-1,0-1.8,0.8-1.8,1.8s0.8,1.8,1.8,1.8H85c1,0,1.8-0.8,1.8-1.8S86,83.7,85,83.7z"/>
</g>
</svg>
