<?xml version="1.0" encoding="utf-8"?>
<!-- Generator: Adobe Illustrator 23.0.1, SVG Export Plug-In . SVG Version: 6.00 Build 0)  -->
<svg version="1.1" xmlns="http://www.w3.org/2000/svg" xmlns:xlink="http://www.w3.org/1999/xlink" x="0px" y="0px"
	 viewBox="0 0 100 100" style="enable-background:new 0 0 100 100;" xml:space="preserve">
<style type="text/css">
	.st0{fill:#ECF9FF;}
	.st1{fill:#FFFFFF;}
	.st2{fill:#535D66;}
	.st3{fill-rule:evenodd;clip-rule:evenodd;fill:#ECF9FF;}
	.st4{fill-rule:evenodd;clip-rule:evenodd;fill:#FFFFFF;}
	.st5{fill-rule:evenodd;clip-rule:evenodd;fill:#00ADEE;}
	.st6{fill-rule:evenodd;clip-rule:evenodd;}
	.st7{fill:#00ADEE;}
	.st8{fill:#808099;}
	.st9{fill:#FFC037;}
	.st10{fill:#FF7108;}
	.st11{fill:#AEFFCF;}
	.st12{fill:#0BD360;}
	.st13{fill:#343434;}
	.st14{fill-rule:evenodd;clip-rule:evenodd;fill:#104EFF;}
	.st15{fill:#002E75;}
	.st16{fill:#0855C4;}
	.st17{fill:#99E2FF;}
	.st18{fill:#AED3FF;}
	.st19{fill:#231F20;}
	.st20{fill:#EFF1F4;}
	.st21{clip-path:url(#SVGID_2_);}
	.st22{fill:#8EEA00;}
	.st23{fill-rule:evenodd;clip-rule:evenodd;fill:#8EEA00;}
	.st24{fill:#0021CE;}
	.st25{fill:#104EFF;}
	.st26{fill:#303030;}
	.st27{fill:#00E1CF;}
	.st28{fill-rule:evenodd;clip-rule:evenodd;fill:#0BD360;}
	.st29{fill-rule:evenodd;clip-rule:evenodd;fill:#00E1CF;}
	.st30{fill:none;stroke:#5C006A;stroke-width:1.29;stroke-linecap:round;stroke-linejoin:round;}
	.st31{fill:#B6FFD3;}
	.st32{clip-path:url(#SVGID_4_);}
	.st33{fill:#DFE6E8;}
	.st34{fill:#B3B3B3;}
	.st35{fill:#96E0FD;}
	.st36{fill:#0ED160;}
	.st37{fill:#08A8FD;}
	.st38{fill:#6EEE89;}
	.st39{fill:#DFF8F5;}
	.st40{clip-path:url(#SVGID_6_);fill:#96E0FD;}
	.st41{fill:#F5F5F6;}
	.st42{fill:none;stroke:#002E75;stroke-width:1.5207;stroke-linecap:round;stroke-linejoin:round;}
	.st43{fill:#E9EAEB;}
	.st44{clip-path:url(#SVGID_8_);fill:#FFFFFF;}
	.st45{clip-path:url(#SVGID_8_);fill:#FFCF9B;}
	.st46{clip-path:url(#SVGID_8_);fill:#002E75;}
	.st47{clip-path:url(#SVGID_8_);fill:#F9BC90;}
	.st48{clip-path:url(#SVGID_8_);fill:#0ED160;}
	.st49{fill-rule:evenodd;clip-rule:evenodd;fill:#002E75;}
	.st50{fill-rule:evenodd;clip-rule:evenodd;fill:#0ED160;}
	.st51{fill-rule:evenodd;clip-rule:evenodd;fill:#DFE6E8;}
	.st52{fill-rule:evenodd;clip-rule:evenodd;fill:#DCE6E8;}
	.st53{fill-rule:evenodd;clip-rule:evenodd;fill:#6EEE89;}
	.st54{fill-rule:evenodd;clip-rule:evenodd;fill:#FFC037;}
	.st55{fill:#F4F4F5;}
	.st56{fill:#606060;}
	.st57{fill-rule:evenodd;clip-rule:evenodd;fill:#005EA1;}
	.st58{fill-rule:evenodd;clip-rule:evenodd;fill:#00A5D8;}
	.st59{fill:#444444;}
	.st60{clip-path:url(#SVGID_10_);}
	.st61{clip-path:url(#SVGID_12_);}
	.st62{clip-path:url(#SVGID_14_);}
	.st63{clip-path:url(#SVGID_16_);}
	.st64{clip-path:url(#SVGID_18_);}
	.st65{clip-path:url(#SVGID_20_);}
</style>
<g id="Layer_3">
</g>
<g id="Layer_1">
</g>
<g id="Layer_2">
</g>
<g id="Layer_4">
</g>
<g id="Layer_5">
</g>
<g id="Isolation_Mode">
</g>
<g id="Art">
</g>
<g id="Capa_8">
	<path class="st15" d="M31.5,70.5v1.9c0,0.2-0.1,0.3-0.3,0.3l0,0c0.2,0,0.3-0.1,0.3-0.3V70.5z"/>
	<path class="st15" d="M26.8,61.4C26.8,61.5,26.8,61.5,26.8,61.4C26.7,61.5,26.7,61.5,26.8,61.4v-2l0,0V61.4z"/>
	<path class="st15" d="M34.4,61.8L34.4,61.8c0,0.1-0.1,0.2-0.2,0.2C34.3,61.9,34.3,61.8,34.4,61.8z"/>
	<path class="st15" d="M34.4,61.8c0-0.1,0.1-0.1,0.1-0.2C34.5,61.6,34.5,61.7,34.4,61.8L34.4,61.8z"/>
	<path class="st15" d="M34.5,61.6c0-0.1,0-0.3,0-0.4c0,0,0-0.1-0.1-0.1c0,0,0,0.1,0.1,0.1C34.6,61.3,34.6,61.5,34.5,61.6z"/>
	<polygon class="st15" points="57.1,60.2 56.7,62.3 43.4,62.3 43.4,62.3 56.7,62.2 57.1,60.1 	"/>
	<path class="st15" d="M38,30.5l-1.3,3.7L38,30.5c0.2-0.4,0.4-0.7,0.7-1C38.3,29.8,38.1,30.2,38,30.5z M49.5,28.4L49.5,28.4l1.6,4.5
		l0,0l0,0L49.5,28.4z M54.2,28.4l-0.9,1.5l0,0L54.2,28.4L54.2,28.4z"/>
	<path class="st15" d="M71.1,46.6L71.1,46.6l-1.5-4.8c-0.5-1.9-2-3.4-3.9-4l-0.2-0.1c-0.5-0.1-0.3,0-0.8-0.2l-1.5-0.2
		c-8.8-1-17.7-1-26.5,0c0,0-1.3,0.1-2.6,0.5c-1.9,0.6-3.3,2.1-3.8,4l-1.5,4.8l0,0l1.5-5c0.5-1.9,1.9-3.4,3.8-4
		c0.4,0.1,0.8,0,1.2-0.3l1.4-0.2c8.8-1,17.7-1,26.5,0l1.5,0.2c0.3,0.2,0.6,0.3,0.9,0.3h0.1c1.9,0.6,3.4,2.1,3.9,4L71.1,46.6z"/>
	<path class="st15" d="M24.7,47.1L24.7,47.1c-0.3-0.5-0.9-0.9-1.5-1C23.8,46.2,24.4,46.6,24.7,47.1L24.7,47.1z"/>
	<path class="st15" d="M23.8,61.4L23.8,61.4v-2.3c0-0.8,0.4-1.5,0.9-2c0.1-0.1,0.3-0.2,0.4-0.3c-0.2,0.1-0.3,0.2-0.4,0.3
		c-0.6,0.5-0.9,1.2-0.9,2V61.4c0,1.6,0.9,2.9,2.3,3.5C24.7,64.3,23.8,63,23.8,61.4z M37.4,60.1c-0.5-1.5-1.8-2.5-3.4-2.7
		C35.5,57.7,36.8,58.7,37.4,60.1c0.3,1,0.2,2-0.2,2.9C37.6,62.1,37.7,61.1,37.4,60.1z M27,49.9L26.9,50h-0.1l0,0h0.1L27,49.9
		l19.9-1.2L27,49.9z M48.5,48.7c0.5,0,0.9,0,1.4,0C49.4,48.6,49,48.6,48.5,48.7z M59.6,62.9c-0.2,0.7-0.5,1.2-1,1.7
		C59,64.2,59.4,63.6,59.6,62.9l0.4-2.2L59.6,62.9z M73,49.9l-20.8-1.2L73,49.9c0.1,0.1,0.2,0.2,0.4,0.3C73.2,50.1,73.1,50,73,49.9z
		 M73.2,56.4L73.2,56.4L66,57.5L73.2,56.4L73.2,56.4c0.2,0,0.4,0,0.5,0C73.6,56.4,73.4,56.4,73.2,56.4z M76.3,54.5l-0.4-0.6
		c0,0,0-0.1-0.1-0.1c0,0.1,0.1,0.1,0.1,0.2L76.3,54.5c0.1,0.2,0.2,0.4,0.3,0.6C76.5,54.9,76.4,54.7,76.3,54.5z M77.1,59.2v6.7
		c0,0.5-0.2,0.9-0.5,1.2c-0.2,0.2-0.4,0.3-0.6,0.3c0.2,0,0.5-0.2,0.6-0.3c0.3-0.3,0.5-0.8,0.5-1.2V59.2z"/>
	<polygon class="st15" points="78.5,45.8 78.5,46.8 75.2,47.2 75.2,47.2 75.3,47.2 78.5,46.8 	"/>
	<path class="st15" d="M72.4,62.2c0.1,0,0.1,0,0.2,0C72.5,62.2,72.5,62.2,72.4,62.2L66.1,62c-0.1,0-0.1,0-0.2,0
		c-0.2-0.1-0.4-0.3-0.4-0.5c0.1,0.3,0.3,0.5,0.6,0.5L72.4,62.2z"/>
	<path class="st15" d="M75.3,57.1c-0.1-0.1-0.3-0.2-0.4-0.3c-0.3-0.2-0.6-0.3-0.9-0.4c-0.1,0-0.2,0-0.3,0c-0.2,0-0.4,0-0.5,0h-0.1
		L66,57.5c-1.5,0.2-2.8,1.3-3.3,2.7c-0.4,1.1-0.2,2.3,0.4,3.3c0.2,0.3,0.5,0.6,0.9,0.9c0,0,0,0,0.1,0c0.1,0.1,0.2,0.1,0.3,0.2
		c0.2,0.1,0.5,0.2,0.8,0.3C65.4,65,65.7,65,66,65l6.3,0.2h0.1c1,0,2-0.4,2.7-1.1c0.7-0.7,1.2-1.7,1.2-2.8V59
		C76.2,58.3,75.9,57.6,75.3,57.1z M73.3,61.4c0,0.2,0,0.3-0.2,0.5L73,62c-0.1,0.1-0.2,0.1-0.2,0.2l0,0h-0.1c-0.1,0-0.1,0-0.2,0
		L66.1,62c-0.3,0-0.6-0.2-0.6-0.5v-0.1l0,0c0,0,0,0,0-0.1v-0.1c0.1-0.4,0.5-0.7,0.9-0.8l6.9-1V61.4z"/>
	<path class="st15" d="M37.4,60.1c-0.5-1.5-1.8-2.5-3.4-2.7l-7.2-1.1l0,0c-0.3,0-0.7,0-1,0.1c-0.1,0-0.2,0.1-0.2,0.1
		c-0.2,0.1-0.3,0.1-0.5,0.2c-0.2,0.1-0.3,0.2-0.4,0.3c-0.6,0.5-0.9,1.2-0.9,2v2.3c0,1.6,1,2.9,2.3,3.5c0.1,0.1,0.2,0.1,0.4,0.1
		c0.1,0,0.2,0.1,0.4,0.1c0.1,0,0.2,0,0.4,0.1c0.1,0,0.2,0,0.4,0l0,0h0.1L34,65c0.2,0,0.3,0,0.4,0c0.3,0,0.6-0.1,0.8-0.2
		s0.3-0.1,0.5-0.2c0.5-0.3,0.8-0.6,1.2-1.1l0,0c0.1-0.1,0.2-0.3,0.2-0.4C37.6,62.1,37.7,61.1,37.4,60.1z M34.5,61.7
		C34.5,61.7,34.5,61.8,34.5,61.7L34.5,61.7c-0.2,0.2-0.2,0.3-0.3,0.3h-0.1c-0.1,0-0.1,0-0.2,0l-6.3,0.2h-0.1l0,0h-0.1
		c0,0-0.1,0-0.1-0.1L27.2,62l-0.1-0.1c0,0,0-0.1-0.1-0.1v-0.1v-0.1c0,0,0,0,0-0.1v-2.1l6.8,1c0.1,0,0.1,0,0.1,0
		c0.1,0,0.2,0.1,0.3,0.1l0.1,0.1l0.1,0.1c0.1,0.1,0.1,0.2,0.2,0.3c0,0,0,0.1,0.1,0.1C34.6,61.3,34.6,61.5,34.5,61.7
		C34.5,61.6,34.5,61.6,34.5,61.7z"/>
	<path class="st15" d="M78.6,42.7c-0.2,0-0.4,0-0.6,0.1l-1.8,0.4c-1,0.2-1.9,0.7-2.6,1.3l-1.1-3.6c-0.8-2.8-3-5-5.8-5.9l-1.9-5.4
		c-1-2.8-4.3-4.8-8.1-4.8H43.3c-3.8,0-7.2,2-8.1,4.8l-1.8,5.3c-2.8,0.9-5,3.1-5.8,6l-1.1,3.6c-0.7-0.7-1.6-1.2-2.6-1.3L22,42.8
		c-1.6-0.3-3.1,0.7-3.4,2.3c0,0.2-0.1,0.4-0.1,0.5V47c0,1.4,1,2.6,2.4,2.8l2,0.2c-0.5,0.8-1,1.6-1.5,2.4L21.1,53
		c-0.8,1.4-1.2,3-1.3,4.6l-0.1,8.3c0,0.2,0,0.5,0.1,0.7v5.8c0,1.8,1.5,3.3,3.3,3.3h8.2c1.8,0,3.3-1.5,3.3-3.3v-1.9h30.9v1.9
		c0,1.8,1.5,3.3,3.3,3.3H77c1.8,0,3.3-1.5,3.3-3.3v-7.3c0,0,0,0,0-0.1l-0.1-7.4c0-1.6-0.5-3.2-1.3-4.6l-0.3-0.6
		c-0.4-0.8-0.9-1.6-1.5-2.4l2-0.2c1.4-0.1,2.5-1.4,2.5-2.8v-1.4C81.5,44,80.2,42.7,78.6,42.7z M76.8,46.1l1.7-0.3v1l-3.2,0.4l0,0
		l0,0l0,0C75.5,46.6,76.1,46.2,76.8,46.1z M38,30.5c0.1-0.4,0.3-0.7,0.6-1c0.1-0.1,0.1-0.1,0.2-0.2c0.1-0.1,0.3-0.2,0.4-0.3
		c1-0.7,2.5-1.2,4.1-1.2h13.5c0.5,0,0.9,0,1.4,0.1c1.9,0.3,3.5,1.3,3.9,2.7l1.3,3.7c-8.9-1-17.8-1-26.6,0L38,30.5z M28.9,46.6
		l1.5-4.8c0.5-1.9,1.9-3.4,3.8-4c1.3-0.4,2.6-0.5,2.6-0.5c8.8-1,17.7-1,26.5,0l1.5,0.2c0.5,0.1,1,0.3,1,0.3c1.9,0.6,3.4,2.1,3.9,4
		l1.5,4.8v0.2l-18.7-1h-3.9L29,46.7L28.9,46.6z M21.5,46.8v-1l1.7,0.3c0.6,0.1,1.2,0.5,1.5,1l0,0l0,0L21.5,46.8z M31.5,72.4
		c0,0.2-0.1,0.3-0.3,0.3h-8.1c-0.2,0-0.3-0.1-0.3-0.3v-2.1c0.4,0.1,0.8,0.2,1.2,0.2h7.5L31.5,72.4z M77.2,72.4
		c0,0.2-0.1,0.3-0.3,0.3h-8.2c-0.2,0-0.3-0.1-0.3-0.3v-1.9h7.5c0.4,0,0.9-0.1,1.3-0.2V72.4z M77.1,57.2c0,0.2,0,0.3,0,0.5v1.6V66
		c0,0.5-0.2,0.9-0.5,1.2c-0.2,0.2-0.4,0.3-0.6,0.3c-0.1,0-0.1,0-0.2,0H24c-0.3,0-0.6-0.1-0.8-0.4c-0.2-0.2-0.3-0.5-0.4-0.8V65
		c0-0.1,0-0.3-0.1-0.4l0.1-7.1c0-1.1,0.3-2.1,0.8-3.1l0.4-0.6c0.7-1.4,1.7-2.7,2.7-3.8h0.1l0.2,0l19.9-1.2l1.6-0.1h0.1
		c0.5,0,0.9,0,1.4,0h1.4h0.9l0,0L73,49.9c0.1,0.1,0.2,0.2,0.4,0.3l0,0c0.6,0.6,1.3,1.6,1.8,2.5c0.2,0.3,0.4,0.6,0.5,0.8
		c0,0.1,0.1,0.1,0.1,0.2s0.1,0.1,0.1,0.2l0.4,0.6c0.1,0.2,0.2,0.3,0.3,0.5c0.1,0.2,0.2,0.4,0.2,0.6C77,56.2,77.1,56.7,77.1,57.2z"/>
	<path class="st15" d="M60,59.6L60,59.6c0-0.2,0-0.3-0.1-0.3c-0.1-0.2-0.1-0.4-0.2-0.5c0-0.1-0.1-0.2-0.2-0.2c0-0.1-0.1-0.2-0.2-0.2
		S59.2,58,59.2,58L59,57.8c-0.2-0.2-0.4-0.3-0.6-0.4c-0.1,0-0.2-0.1-0.2-0.1c-0.2-0.1-0.3-0.1-0.5-0.2c-0.2,0-0.4-0.1-0.6-0.1H43
		c-0.2,0-0.4,0-0.6,0.1c-0.2,0-0.4,0.1-0.5,0.2c-0.1,0-0.2,0.1-0.2,0.1c-0.2,0.1-0.4,0.2-0.6,0.4C41,57.9,41,57.9,40.9,58
		s-0.1,0.1-0.2,0.2s-0.1,0.2-0.2,0.2c0,0.1-0.1,0.2-0.2,0.2c-0.1,0.2-0.2,0.4-0.2,0.5s0,0.2-0.1,0.2v0.1c0,0.2,0,0.3,0,0.5l0,0
		c0,0.2,0,0.4,0.1,0.6l0.4,2.2c0,0.2,0.1,0.3,0.2,0.5c0,0.1,0.1,0.1,0.1,0.2c0.1,0.1,0.2,0.3,0.3,0.4c0.1,0.1,0.1,0.1,0.2,0.2
		c0.1,0.1,0.2,0.2,0.3,0.3l0,0c0.1,0.1,0.3,0.2,0.4,0.3c0.1,0.1,0.3,0.2,0.5,0.2c0.3,0.1,0.7,0.1,1,0.1h13.3c0.3,0,0.7-0.1,1-0.2
		c0.2-0.1,0.5-0.2,0.7-0.3c0.1,0,0.2-0.1,0.2-0.2c0.5-0.4,0.9-1,1.1-1.7l0.4-2.2c0-0.2,0.1-0.4,0.1-0.6C60.1,59.9,60,59.8,60,59.6z
		 M42.9,60.1L42.9,60.1L57,60l0,0l0.1,0.1l-0.4,2.1l-13.3,0.1l0,0L42.9,60.1z"/>
	<polygon class="st15" points="46.7,28.4 46.7,29.2 45.4,29.2 45.4,32.9 44.5,32.9 44.5,29.2 43.2,29.2 43.2,28.4 	"/>
	<path class="st15" d="M49.5,28.4h-1.1l-1.5,4.5h0.9l0.4-1.1h1.6l0.4,1.1h1l0,0L49.5,28.4z M48.4,31l0.6-1.8l0.6,1.8H48.4z"/>
	<polygon class="st15" points="55.4,32.9 54.3,32.9 53.2,31.1 52.2,32.9 51.1,32.9 51.1,32.9 51.9,31.6 52.7,30.5 51.2,28.4 
		52.3,28.4 53.2,30 53.3,29.9 54.2,28.4 55.3,28.4 53.8,30.5 	"/>
	<rect x="55.9" y="28.4" class="st15" width="0.9" height="4.5"/>
</g>
</svg>
