<svg id="Layer_1" data-name="Layer 1" xmlns="http://www.w3.org/2000/svg" viewBox="0 0 20 20"><defs><style>.cls-1{fill:#373737;}.cls-2{fill:#f5f5f6;}</style></defs><title>icon-plus</title><path class="cls-1" d="M10,2.5A7.5,7.5,0,1,0,17.5,10,7.5,7.5,0,0,0,10,2.5Zm4,8.25H10.75V14H9.25V10.75H6V10H6V9.25H9.25V6h1.5V9.25H14V10h0Z"/><polygon class="cls-2" points="10.75 9.25 10.75 6.03 9.25 6.03 9.25 9.25 6.03 9.25 6.03 10 6.03 10.75 9.25 10.75 9.25 13.97 10.75 13.97 10.75 10.75 13.97 10.75 13.97 10 13.97 9.25 10.75 9.25"/></svg>