<?xml version="1.0" encoding="utf-8"?>
<!-- Generator: Adobe Illustrator 23.0.1, SVG Export Plug-In . SVG Version: 6.00 Build 0)  -->
<svg version="1.1" xmlns="http://www.w3.org/2000/svg" xmlns:xlink="http://www.w3.org/1999/xlink" x="0px" y="0px"
	 viewBox="0 0 24 30" style="enable-background:new 0 0 24 30;" xml:space="preserve">
<style type="text/css">
	.st0{fill:#ECF9FF;}
	.st1{fill:#FFFFFF;}
	.st2{fill:#535D66;}
	.st3{fill-rule:evenodd;clip-rule:evenodd;fill:#ECF9FF;}
	.st4{fill-rule:evenodd;clip-rule:evenodd;fill:#FFFFFF;}
	.st5{fill-rule:evenodd;clip-rule:evenodd;fill:#00ADEE;}
	.st6{fill-rule:evenodd;clip-rule:evenodd;}
	.st7{fill:#00ADEE;}
	.st8{fill:#808099;}
	.st9{fill:#FFC037;}
	.st10{fill:#FF7108;}
	.st11{fill:#AEFFCF;}
	.st12{fill:#0BD360;}
	.st13{fill:#343434;}
	.st14{fill-rule:evenodd;clip-rule:evenodd;fill:#104EFF;}
	.st15{fill:#002E75;}
	.st16{fill:#0855C4;}
	.st17{fill:#99E2FF;}
	.st18{fill:#AED3FF;}
	.st19{fill:#231F20;}
	.st20{fill:#EFF1F4;}
	.st21{clip-path:url(#SVGID_2_);}
	.st22{fill:#8EEA00;}
	.st23{fill-rule:evenodd;clip-rule:evenodd;fill:#8EEA00;}
	.st24{fill:#0021CE;}
	.st25{fill:#104EFF;}
	.st26{fill:#303030;}
	.st27{fill:#00E1CF;}
	.st28{fill-rule:evenodd;clip-rule:evenodd;fill:#0BD360;}
	.st29{fill-rule:evenodd;clip-rule:evenodd;fill:#00E1CF;}
	.st30{fill:none;stroke:#5C006A;stroke-width:1.29;stroke-linecap:round;stroke-linejoin:round;}
	.st31{fill:#B6FFD3;}
	.st32{clip-path:url(#SVGID_4_);}
	.st33{fill:#DFE6E8;}
	.st34{fill:#B3B3B3;}
	.st35{fill:#96E0FD;}
	.st36{fill:#0ED160;}
	.st37{fill:#08A8FD;}
	.st38{fill:#6EEE89;}
	.st39{fill:#DFF8F5;}
	.st40{clip-path:url(#SVGID_6_);fill:#96E0FD;}
	.st41{fill:#F5F5F6;}
	.st42{fill:none;stroke:#002E75;stroke-width:1.5207;stroke-linecap:round;stroke-linejoin:round;}
	.st43{fill:#E9EAEB;}
	.st44{clip-path:url(#SVGID_8_);fill:#FFFFFF;}
	.st45{clip-path:url(#SVGID_8_);fill:#FFCF9B;}
	.st46{clip-path:url(#SVGID_8_);fill:#002E75;}
	.st47{clip-path:url(#SVGID_8_);fill:#F9BC90;}
	.st48{clip-path:url(#SVGID_8_);fill:#0ED160;}
	.st49{fill-rule:evenodd;clip-rule:evenodd;fill:#002E75;}
	.st50{fill-rule:evenodd;clip-rule:evenodd;fill:#0ED160;}
	.st51{fill-rule:evenodd;clip-rule:evenodd;fill:#DFE6E8;}
	.st52{fill-rule:evenodd;clip-rule:evenodd;fill:#DCE6E8;}
	.st53{fill-rule:evenodd;clip-rule:evenodd;fill:#6EEE89;}
	.st54{fill-rule:evenodd;clip-rule:evenodd;fill:#FFC037;}
	.st55{fill:#F4F4F5;}
	.st56{fill:#606060;}
	.st57{fill-rule:evenodd;clip-rule:evenodd;fill:#005EA1;}
	.st58{fill-rule:evenodd;clip-rule:evenodd;fill:#00A5D8;}
	.st59{fill:#444444;}
	.st60{clip-path:url(#SVGID_10_);}
	.st61{clip-path:url(#SVGID_12_);}
	.st62{clip-path:url(#SVGID_14_);}
	.st63{clip-path:url(#SVGID_16_);}
	.st64{clip-path:url(#SVGID_18_);}
	.st65{clip-path:url(#SVGID_20_);}
</style>
<g id="Layer_3">
</g>
<g id="Layer_1">
</g>
<g id="Layer_2">
</g>
<g id="Layer_4">
</g>
<g id="Layer_5">
</g>
<g id="Isolation_Mode">
</g>
<g id="Art">
</g>
<g id="Capa_8">
	<path class="st23" d="M11.8,16.3c2.4,0,4.3-1.9,4.3-4.4c0-2.4-1.9-4.4-4.3-4.4c-2.4,0-4.3,1.9-4.3,4.4C7.5,14.3,9.4,16.3,11.8,16.3
		z M11.8,1c6,0,10.8,4.9,10.8,10.9c0,1.9-0.9,4.2-2.6,6.9c-0.7,1.2-1.6,2.4-2.5,3.7c-1.1,1.5-2.2,2.9-3.4,4.3
		c-0.4,0.5-0.8,0.9-1.1,1.3c-0.2,0.2-0.4,0.4-0.4,0.5l-0.7,0.8l-0.7-0.8c-0.1-0.1-0.2-0.2-0.4-0.5c-0.3-0.4-0.7-0.8-1.1-1.3
		c-1.2-1.4-2.3-2.8-3.4-4.3c-0.9-1.3-1.8-2.5-2.5-3.7c-1.7-2.7-2.6-5-2.6-6.9C1,5.9,5.9,1,11.8,1z"/>
	<path class="st15" d="M11.8,30.3c-0.3,0-0.5-0.1-0.7-0.3l-1.2-1.3c-0.3-0.4-0.7-0.8-1.1-1.3c-1.2-1.5-2.4-2.9-3.5-4.3
		c-1-1.3-1.9-2.6-2.6-3.8c-1.8-3-2.7-5.4-2.7-7.4C0,5.4,5.3,0,11.8,0c6.5,0,11.8,5.3,11.8,11.9c0,2-0.9,4.4-2.7,7.4
		c-0.7,1.2-1.6,2.5-2.6,3.8c-1,1.4-2.2,2.9-3.5,4.3c-0.4,0.5-0.8,0.9-1.1,1.3L12.5,30C12.4,30.2,12.1,30.3,11.8,30.3z M11.8,2
		C6.4,2,2,6.5,2,11.9c0,1.6,0.8,3.7,2.4,6.4c0.7,1.1,1.5,2.4,2.5,3.6c1,1.4,2.2,2.8,3.4,4.2c0.4,0.5,0.8,0.9,1.1,1.3l0.4,0.5
		l0.4-0.5c0.3-0.4,0.7-0.8,1.1-1.3c1.2-1.4,2.3-2.8,3.4-4.2c1-1.3,1.8-2.5,2.5-3.6c1.6-2.7,2.4-4.8,2.4-6.4C21.6,6.5,17.2,2,11.8,2z
		 M11.8,17.3c-2.9,0-5.3-2.4-5.3-5.4c0-3,2.4-5.4,5.3-5.4c2.9,0,5.3,2.4,5.3,5.4C17.1,14.9,14.7,17.3,11.8,17.3z M11.8,8.5
		c-1.8,0-3.3,1.5-3.3,3.4c0,1.9,1.5,3.4,3.3,3.4c1.8,0,3.3-1.5,3.3-3.4C15.1,10,13.6,8.5,11.8,8.5z"/>
</g>
</svg>
