<?xml version="1.0" encoding="utf-8"?>
<!-- Generator: Adobe Illustrator 23.0.1, SVG Export Plug-In . SVG Version: 6.00 Build 0)  -->
<svg version="1.1" xmlns="http://www.w3.org/2000/svg" xmlns:xlink="http://www.w3.org/1999/xlink" x="0px" y="0px"
	 viewBox="0 0 20 20" style="enable-background:new 0 0 20 20;" xml:space="preserve">
<style type="text/css">
	.st0{fill:#ECF9FF;}
	.st1{fill:#FFFFFF;}
	.st2{fill:#535D66;}
	.st3{fill-rule:evenodd;clip-rule:evenodd;fill:#ECF9FF;}
	.st4{fill-rule:evenodd;clip-rule:evenodd;fill:#FFFFFF;}
	.st5{fill-rule:evenodd;clip-rule:evenodd;fill:#00ADEE;}
	.st6{fill-rule:evenodd;clip-rule:evenodd;}
	.st7{fill:#00ADEE;}
	.st8{fill:#808099;}
	.st9{fill:#FFC037;}
	.st10{fill:#FF7108;}
	.st11{fill:#AEFFCF;}
	.st12{fill:#0BD360;}
	.st13{fill:#343434;}
	.st14{fill-rule:evenodd;clip-rule:evenodd;fill:#104EFF;}
	.st15{fill:#002E75;}
	.st16{fill:#0855C4;}
	.st17{fill:#99E2FF;}
	.st18{fill:#AED3FF;}
	.st19{fill:#231F20;}
	.st20{fill:#EFF1F4;}
	.st21{clip-path:url(#SVGID_2_);}
	.st22{fill:#8EEA00;}
	.st23{fill-rule:evenodd;clip-rule:evenodd;fill:#8EEA00;}
	.st24{fill:#0021CE;}
	.st25{fill:#104EFF;}
	.st26{fill:#303030;}
	.st27{fill:#00E1CF;}
	.st28{fill-rule:evenodd;clip-rule:evenodd;fill:#0BD360;}
	.st29{fill-rule:evenodd;clip-rule:evenodd;fill:#00E1CF;}
	.st30{fill:none;stroke:#5C006A;stroke-width:1.29;stroke-linecap:round;stroke-linejoin:round;}
	.st31{fill:#B6FFD3;}
	.st32{clip-path:url(#SVGID_4_);}
	.st33{fill:#DFE6E8;}
	.st34{fill:#B3B3B3;}
	.st35{fill:#96E0FD;}
	.st36{fill:#0ED160;}
	.st37{fill:#08A8FD;}
	.st38{fill:#6EEE89;}
	.st39{fill:#DFF8F5;}
	.st40{clip-path:url(#SVGID_6_);fill:#96E0FD;}
	.st41{fill:#F5F5F6;}
	.st42{fill:none;stroke:#002E75;stroke-width:1.5207;stroke-linecap:round;stroke-linejoin:round;}
	.st43{fill:#E9EAEB;}
	.st44{clip-path:url(#SVGID_8_);fill:#FFFFFF;}
	.st45{clip-path:url(#SVGID_8_);fill:#FFCF9B;}
	.st46{clip-path:url(#SVGID_8_);fill:#002E75;}
	.st47{clip-path:url(#SVGID_8_);fill:#F9BC90;}
	.st48{clip-path:url(#SVGID_8_);fill:#0ED160;}
	.st49{fill-rule:evenodd;clip-rule:evenodd;fill:#002E75;}
	.st50{fill-rule:evenodd;clip-rule:evenodd;fill:#0ED160;}
	.st51{fill-rule:evenodd;clip-rule:evenodd;fill:#DFE6E8;}
	.st52{fill-rule:evenodd;clip-rule:evenodd;fill:#DCE6E8;}
	.st53{fill-rule:evenodd;clip-rule:evenodd;fill:#6EEE89;}
	.st54{fill-rule:evenodd;clip-rule:evenodd;fill:#FFC037;}
	.st55{fill:#F4F4F5;}
	.st56{fill:#606060;}
	.st57{fill-rule:evenodd;clip-rule:evenodd;fill:#005EA1;}
	.st58{fill-rule:evenodd;clip-rule:evenodd;fill:#00A5D8;}
	.st59{fill:#444444;}
	.st60{clip-path:url(#SVGID_10_);}
	.st61{clip-path:url(#SVGID_12_);}
	.st62{clip-path:url(#SVGID_14_);}
	.st63{clip-path:url(#SVGID_16_);}
	.st64{clip-path:url(#SVGID_18_);}
	.st65{clip-path:url(#SVGID_20_);}
</style>
<g id="Layer_3">
</g>
<g id="Layer_1">
</g>
<g id="Layer_2">
</g>
<g id="Layer_4">
</g>
<g id="Layer_5">
</g>
<g id="Isolation_Mode">
</g>
<g id="Art">
</g>
<g id="Capa_8">
	<path class="st15" d="M15.3,4.7c-2.9-2.9-7.7-2.9-10.6,0s-2.9,7.7,0,10.6s7.7,2.9,10.6,0c0,0,0,0,0,0C18.2,12.4,18.2,7.6,15.3,4.7
		C15.3,4.7,15.3,4.7,15.3,4.7z M12.3,13.3L10,11.1l-2.3,2.3l-1.1-1.1L8.9,10L6.7,7.7l0.5-0.5l0,0l0.5-0.5L10,8.9l2.3-2.3l1.1,1.1
		L11.1,10l2.3,2.3l-0.5,0.5l0,0L12.3,13.3z"/>
	<polygon class="st55" points="11.1,10 13.3,7.7 12.3,6.7 10,8.9 7.7,6.7 7.2,7.2 6.7,7.7 8.9,10 6.7,12.3 7.7,13.3 10,11.1 
		12.3,13.3 12.8,12.8 13.3,12.3 	"/>
</g>
</svg>
