<?xml version="1.0" encoding="UTF-8"?>
<svg width="38px" height="27px" viewBox="0 0 38 27" version="1.1" xmlns="http://www.w3.org/2000/svg" xmlns:xlink="http://www.w3.org/1999/xlink">
    <!-- Generator: Sketch 51.1 (57501) - http://www.bohemiancoding.com/sketch -->
    <title>Group 11</title>
    <desc>Created with Sketch.</desc>
    <defs>
        <polygon id="path-1" points="0 26.5 38 26.5 38 0 0 0"></polygon>
    </defs>
    <g id="Desktop-1440x1024" stroke="none" stroke-width="1" fill="none" fill-rule="evenodd">
        <g id="Desktop-1440x1024-BP-001" transform="translate(-487.000000, -543.000000)">
            <g id="Group-4" transform="translate(473.000000, 529.000000)">
                <g id="Group-2">
                    <g id="Group-11" transform="translate(14.000000, 14.000000)">
                        <path d="M33,22 L33,20 C34.654,20 36,18.654 36,17 L36,13 C36,11.346 34.654,10 33,10 L30,10 C29.535,10 29.131,9.68 29.026,9.227 L27.481,2.594 C27.371,2.274 26.99,2 26.559,2 L11.441,2 C11.01,2 10.629,2.274 10.493,2.684 L8.974,9.227 C8.869,9.68 8.465,10 8,10 L5,10 C3.346,10 2,11.346 2,13 L2,17 C2,18.654 3.346,20 5,20 L5,22 C2.243,22 0,19.757 0,17 L0,13 C0,10.243 2.243,8 5,8 L7.206,8 L8.57,2.141 C9.005,0.824 10.148,0 11.441,0 L26.559,0 C27.852,0 28.996,0.824 29.404,2.051 L30.793,8 L33,8 C35.757,8 38,10.243 38,13 L38,17 C38,19.757 35.757,22 33,22" id="Fill-1" fill="#8E8E8E"></path>
                        <path d="M11,17.5 C9.07,17.5 7.5,19.07 7.5,21 C7.5,22.93 9.07,24.5 11,24.5 C12.93,24.5 14.5,22.93 14.5,21 C14.5,19.07 12.93,17.5 11,17.5 M11,26.5 C7.967,26.5 5.5,24.032 5.5,21 C5.5,17.968 7.967,15.5 11,15.5 C14.033,15.5 16.5,17.968 16.5,21 C16.5,24.032 14.033,26.5 11,26.5" id="Fill-3" fill="#8E8E8E"></path>
                        <path d="M27,17.5 C25.07,17.5 23.5,19.07 23.5,21 C23.5,22.93 25.07,24.5 27,24.5 C28.93,24.5 30.5,22.93 30.5,21 C30.5,19.07 28.93,17.5 27,17.5 M27,26.5 C23.967,26.5 21.5,24.032 21.5,21 C21.5,17.968 23.967,15.5 27,15.5 C30.033,15.5 32.5,17.968 32.5,21 C32.5,24.032 30.033,26.5 27,26.5" id="Fill-5" fill="#8E8E8E"></path>
                        <mask id="mask-2" fill="white">
                            <use xlink:href="#path-1"></use>
                        </mask>
                        <g id="Clip-8"></g>
                        <polygon id="Fill-7" fill="#8E8E8E" mask="url(#mask-2)" points="17.344 22 20.657 22 20.657 20 17.344 20"></polygon>
                        <path d="M20.5137,8.3877 L24.8167,8.3877 L24.2877,5.2567 L20.5137,5.2567 L20.5137,8.3877 Z M25.9997,10.3877 L19.5137,10.3877 C18.9617,10.3877 18.5137,9.9407 18.5137,9.3877 L18.5137,4.2567 C18.5137,3.7037 18.9617,3.2567 19.5137,3.2567 L25.1337,3.2567 C25.6207,3.2567 26.0377,3.6097 26.1187,4.0897 L26.9857,9.2207 C27.0347,9.5117 26.9537,9.8087 26.7637,10.0337 C26.5737,10.2577 26.2947,10.3877 25.9997,10.3877 Z" id="Fill-9" fill="#8E8E8E" mask="url(#mask-2)"></path>
                        <polygon id="Fill-10" fill="#8E8E8E" mask="url(#mask-2)" points="34 16.741 36.902 16.741 36.902 14.741 34 14.741"></polygon>
                    </g>
                </g>
            </g>
        </g>
    </g>
</svg>