<?xml version="1.0" encoding="utf-8"?>
<!-- Generator: Adobe Illustrator 23.0.1, SVG Export Plug-In . SVG Version: 6.00 Build 0)  -->
<svg version="1.1" xmlns="http://www.w3.org/2000/svg" xmlns:xlink="http://www.w3.org/1999/xlink" x="0px" y="0px"
	 viewBox="0 0 26 26" style="enable-background:new 0 0 26 26;" xml:space="preserve">
<style type="text/css">
	.st0{fill:#ECF9FF;}
	.st1{fill:#FFFFFF;}
	.st2{fill:#535D66;}
	.st3{fill-rule:evenodd;clip-rule:evenodd;fill:#ECF9FF;}
	.st4{fill-rule:evenodd;clip-rule:evenodd;fill:#FFFFFF;}
	.st5{fill-rule:evenodd;clip-rule:evenodd;fill:#00ADEE;}
	.st6{fill-rule:evenodd;clip-rule:evenodd;}
	.st7{fill:#00ADEE;}
	.st8{fill:#808099;}
	.st9{fill:#FFC037;}
	.st10{fill:#FF7108;}
	.st11{fill:#AEFFCF;}
	.st12{fill:#0BD360;}
	.st13{fill:#343434;}
	.st14{fill-rule:evenodd;clip-rule:evenodd;fill:#104EFF;}
	.st15{fill:#002E75;}
	.st16{fill:#0855C4;}
	.st17{fill:#99E2FF;}
	.st18{fill:#AED3FF;}
	.st19{fill:#231F20;}
	.st20{fill:#EFF1F4;}
	.st21{clip-path:url(#SVGID_2_);}
	.st22{fill:#8EEA00;}
	.st23{fill-rule:evenodd;clip-rule:evenodd;fill:#8EEA00;}
	.st24{fill:#0021CE;}
	.st25{fill:#104EFF;}
	.st26{fill:#303030;}
	.st27{fill:#00E1CF;}
	.st28{fill-rule:evenodd;clip-rule:evenodd;fill:#0BD360;}
	.st29{fill-rule:evenodd;clip-rule:evenodd;fill:#00E1CF;}
	.st30{fill:none;stroke:#5C006A;stroke-width:1.29;stroke-linecap:round;stroke-linejoin:round;}
	.st31{fill:#B6FFD3;}
	.st32{clip-path:url(#SVGID_4_);}
	.st33{fill:#DFE6E8;}
	.st34{fill:#B3B3B3;}
	.st35{fill:#96E0FD;}
	.st36{fill:#0ED160;}
	.st37{fill:#08A8FD;}
	.st38{fill:#6EEE89;}
	.st39{fill:#DFF8F5;}
	.st40{clip-path:url(#SVGID_6_);fill:#96E0FD;}
	.st41{fill:#F5F5F6;}
	.st42{fill:none;stroke:#002E75;stroke-width:1.5207;stroke-linecap:round;stroke-linejoin:round;}
	.st43{fill:#E9EAEB;}
	.st44{clip-path:url(#SVGID_8_);fill:#FFFFFF;}
	.st45{clip-path:url(#SVGID_8_);fill:#FFCF9B;}
	.st46{clip-path:url(#SVGID_8_);fill:#002E75;}
	.st47{clip-path:url(#SVGID_8_);fill:#F9BC90;}
	.st48{clip-path:url(#SVGID_8_);fill:#0ED160;}
	.st49{fill-rule:evenodd;clip-rule:evenodd;fill:#002E75;}
	.st50{fill-rule:evenodd;clip-rule:evenodd;fill:#0ED160;}
	.st51{fill-rule:evenodd;clip-rule:evenodd;fill:#DFE6E8;}
	.st52{fill-rule:evenodd;clip-rule:evenodd;fill:#DCE6E8;}
	.st53{fill-rule:evenodd;clip-rule:evenodd;fill:#6EEE89;}
	.st54{fill-rule:evenodd;clip-rule:evenodd;fill:#FFC037;}
	.st55{fill:#F4F4F5;}
	.st56{fill:#606060;}
	.st57{fill-rule:evenodd;clip-rule:evenodd;fill:#005EA1;}
	.st58{fill-rule:evenodd;clip-rule:evenodd;fill:#00A5D8;}
	.st59{fill:#444444;}
	.st60{clip-path:url(#SVGID_10_);}
	.st61{clip-path:url(#SVGID_12_);}
	.st62{clip-path:url(#SVGID_14_);}
	.st63{clip-path:url(#SVGID_16_);}
	.st64{clip-path:url(#SVGID_18_);}
	.st65{clip-path:url(#SVGID_20_);}
</style>
<g id="Layer_3">
</g>
<g id="Layer_1">
</g>
<g id="Layer_2">
</g>
<g id="Layer_4">
</g>
<g id="Layer_5">
</g>
<g id="Isolation_Mode">
</g>
<g id="Art">
</g>
<g id="Capa_8">
	<rect class="st1" width="26" height="26"/>
	<path class="st29" d="M3.6,3.6c-1.2,0-2.2,1-2.2,2.2v16.6c0,1.2,1,2.2,2.2,2.2h18.8c1.2,0,2.2-1,2.2-2.2V5.8c0-1.2-1-2.2-2.2-2.2
		H3.6z M22.4,26H3.6c-2,0-3.6-1.6-3.6-3.6V5.8c0-2,1.6-3.6,3.6-3.6h18.8c2,0,3.6,1.6,3.6,3.6v16.6C26,24.4,24.4,26,22.4,26z"/>
	<polygon class="st29" points="5.8,5.1 7.2,5.1 7.2,0 5.8,0 	"/>
	<polygon id="path-1_6_" class="st4" points="0,26 26,26 26,0 0,0 	"/>
	<polygon id="path-1_5_" class="st4" points="0,26 26,26 26,0 0,0 	"/>
	<polygon class="st29" points="18.8,5.1 20.2,5.1 20.2,0 18.8,0 	"/>
	<polygon id="path-1_4_" class="st4" points="0,26 26,26 26,0 0,0 	"/>
	<path class="st29" d="M8.7,20.3l-1.4-0.2c0.3-1.9,1.6-3.5,3.3-4.3l0.6,1.3C9.8,17.7,8.9,18.9,8.7,20.3"/>
	<polygon id="path-1_3_" class="st4" points="0,26 26,26 26,0 0,0 	"/>
	<path class="st29" d="M17.3,20.3c-0.2-0.9-0.6-1.7-1.2-2.4c-0.4-0.4-0.8-0.7-1.3-0.9l0.6-1.3c0.6,0.3,1.2,0.7,1.7,1.2
		c0.9,0.9,1.4,1.9,1.6,3.1L17.3,20.3z"/>
	<polygon id="path-1_9_" class="st4" points="0,26 26,26 26,0 0,0 	"/>
	<path class="st29" d="M13,6.9c-4,0-7.2,3.2-7.2,7.2S9,21.3,13,21.3s7.2-3.2,7.2-7.2S17,6.9,13,6.9 M13,22.8c-4.8,0-8.7-3.9-8.7-8.7
		S8.2,5.4,13,5.4s8.7,3.9,8.7,8.7S17.8,22.8,13,22.8"/>
	<polygon id="path-1_8_" class="st4" points="0,26 26,26 26,0 0,0 	"/>
	<path class="st29" d="M13,10.6c-1.4,0-2.5,1.4-2.5,3c0,1.7,1.1,3,2.5,3s2.5-1.4,2.5-3C15.5,12,14.4,10.6,13,10.6 M13,18.1
		c-2.2,0-4-2-4-4.5s1.8-4.5,4-4.5s4,2,4,4.5S15.2,18.1,13,18.1"/>
	<polygon id="path-1_19_" class="st4" points="0,26 26,26 26,0 0,0 	"/>
</g>
</svg>
