<?xml version="1.0" encoding="UTF-8"?>
<svg width="26px" height="26px" viewBox="0 0 26 26" version="1.1" xmlns="http://www.w3.org/2000/svg" xmlns:xlink="http://www.w3.org/1999/xlink">
    <!-- Generator: Sketch 51.1 (57501) - http://www.bohemiancoding.com/sketch -->
    <title>Group 13</title>
    <desc>Created with Sketch.</desc>
    <defs>
        <polygon id="path-1" points="0 26.0002889 26 26.0002889 26 0.000288888889 0 0.000288888889"></polygon>
    </defs>
    <g id="Desktop-1440x1024" stroke="none" stroke-width="1" fill="none" fill-rule="evenodd">
        <g id="Desktop-1440x1024-BP-005" transform="translate(-577.000000, -514.000000)">
            <g id="Group-2" transform="translate(558.000000, 366.000000)">
                <g id="Group" transform="translate(3.000000, 134.000000)">
                    <g id="Group-13" transform="translate(16.000000, 14.000000)">
                        <path d="M3.61111111,3.6114 C2.41655556,3.6114 1.44444444,4.58351111 1.44444444,5.77806667 L1.44444444,22.3891778 C1.44444444,23.5837333 2.41655556,24.5558444 3.61111111,24.5558444 L22.3888889,24.5558444 C23.5834444,24.5558444 24.5555556,23.5837333 24.5555556,22.3891778 L24.5555556,5.77806667 C24.5555556,4.58351111 23.5834444,3.6114 22.3888889,3.6114 L3.61111111,3.6114 Z M22.3888889,26.0002889 L3.61111111,26.0002889 C1.61994444,26.0002889 0,24.3803444 0,22.3891778 L0,5.77806667 C0,3.7869 1.61994444,2.16695556 3.61111111,2.16695556 L22.3888889,2.16695556 C24.3800556,2.16695556 26,3.7869 26,5.77806667 L26,22.3891778 C26,24.3803444 24.3800556,26.0002889 22.3888889,26.0002889 Z" id="Fill-1" fill="#8E8E8E"></path>
                        <path d="M6.5,0.000288888889 L6.5,5.05584444" id="Fill-3" fill="#8E8E8E"></path>
                        <mask id="mask-2" fill="white">
                            <use xlink:href="#path-1"></use>
                        </mask>
                        <g id="Clip-6"></g>
                        <polygon id="Fill-5" fill="#8E8E8E" mask="url(#mask-2)" points="5.77777778 5.05584444 7.22222222 5.05584444 7.22222222 0.000288888889 5.77777778 0.000288888889"></polygon>
                        <path d="M19.5,0.000288888889 L19.5,5.05584444" id="Fill-7" fill="#8E8E8E" mask="url(#mask-2)"></path>
                        <polygon id="Fill-8" fill="#8E8E8E" mask="url(#mask-2)" points="18.7777778 5.05584444 20.2222222 5.05584444 20.2222222 0.000288888889 18.7777778 0.000288888889"></polygon>
                        <path d="M8.65041667,20.3275944 L7.22691667,20.0820389 C7.55336111,18.1898167 8.79052778,16.5778167 10.5375833,15.7689278 L11.14425,17.0797611 C9.82836111,17.6893167 8.89597222,18.90265 8.65041667,20.3275944" id="Fill-9" fill="#8E8E8E" mask="url(#mask-2)"></path>
                        <path d="M17.3492222,20.3268722 C17.1961111,19.4320389 16.7728889,18.6159278 16.1250556,17.9673722 C15.7574444,17.6004833 15.3298889,17.3014833 14.8532222,17.0790389 L15.4642222,15.76965 C16.094,16.0643167 16.6595,16.4600944 17.1462778,16.94615 C18.0071667,17.8077611 18.5690556,18.8925389 18.7734444,20.0827611 L17.3492222,20.3268722 Z" id="Fill-10" fill="#8E8E8E" mask="url(#mask-2)"></path>
                        <path d="M13,6.8614 C9.01766667,6.8614 5.77777778,10.1012889 5.77777778,14.0836222 C5.77777778,18.0659556 9.01766667,21.3058444 13,21.3058444 C16.9823333,21.3058444 20.2222222,18.0659556 20.2222222,14.0836222 C20.2222222,10.1012889 16.9823333,6.8614 13,6.8614 M13,22.7502889 C8.22105556,22.7502889 4.33333333,18.8625667 4.33333333,14.0836222 C4.33333333,9.30467778 8.22105556,5.41695556 13,5.41695556 C17.7789444,5.41695556 21.6666667,9.30467778 21.6666667,14.0836222 C21.6666667,18.8625667 17.7789444,22.7502889 13,22.7502889" id="Fill-11" fill="#8E8E8E" mask="url(#mask-2)"></path>
                        <path d="M13,10.5994778 C11.5945556,10.5994778 10.4512778,11.9529222 10.4512778,13.6162 C10.4512778,15.2787556 11.5945556,16.6329222 13,16.6329222 C14.4054444,16.6329222 15.5487222,15.2787556 15.5487222,13.6162 C15.5487222,11.9529222 14.4054444,10.5994778 13,10.5994778 M13,18.0773667 C10.7979444,18.0773667 9.00683333,16.0760889 9.00683333,13.6162 C9.00683333,11.1563111 10.7979444,9.15503333 13,9.15503333 C15.2020556,9.15503333 16.9931667,11.1563111 16.9931667,13.6162 C16.9931667,16.0760889 15.2020556,18.0773667 13,18.0773667" id="Fill-12" fill="#8E8E8E" mask="url(#mask-2)"></path>
                    </g>
                </g>
            </g>
        </g>
    </g>
</svg>