<svg xmlns="http://www.w3.org/2000/svg" viewBox="0 0 194.85 32.51"><defs><style>.bed731f3-bfb8-4275-b214-5571e62c1405{fill:#002e75;}.b735a498-6c85-49ac-a5c5-7f55f158949a,.bed731f3-bfb8-4275-b214-5571e62c1405{fill-rule:evenodd;}.b735a498-6c85-49ac-a5c5-7f55f158949a{fill:#009fdc;}</style></defs><title>Capa 8</title><g id="f7e169a5-77a2-4e5d-9fcf-cfceaa03f908" data-name="Capa 2"><g id="bfa49e5c-d45a-4858-81e7-daca886f4bad" data-name="Capa 1"><g id="b3ad5a78-5622-4171-a008-1b48f185faca" data-name="Capa 8"><path class="bed731f3-bfb8-4275-b214-5571e62c1405" d="M23.88,23,7.31,26V8.91L23.88,5.85ZM4.18,0A4.21,4.21,0,0,0,0,4.25V31.81H27a4.2,4.2,0,0,0,4.18-4.24V0Z"/><path class="b735a498-6c85-49ac-a5c5-7f55f158949a" d="M80.19,17.26v-.83a4.05,4.05,0,0,1,6.34-3.27,2.53,2.53,0,0,1,1,2.15,1.36,1.36,0,0,1-1.11,1.47,14.07,14.07,0,0,1-4.18.41h-2Zm9.26,1.88a3.14,3.14,0,0,0,1.81-3.2,6.62,6.62,0,0,0-6.82-6.68c-4.87,0-8.35,3.62-8.35,9.47a8.4,8.4,0,0,0,8.42,8.63c2.51,0,4.11-.42,5-1.19V23.25a10,10,0,0,1-4.24.84c-2.65,0-4.74-1.47-5.09-3.83v-.21h3.07C86.18,20.05,88.2,19.84,89.45,19.14Z"/><path class="b735a498-6c85-49ac-a5c5-7f55f158949a" d="M93.42,16V27.08h4V16.78a4.44,4.44,0,0,1,.83-3,3.13,3.13,0,0,1,2.37-1,5.51,5.51,0,0,1,1.11.07V9.61a4.09,4.09,0,0,0-2-.42c-4.6.07-6.34,3.27-6.34,6.82"/><polygon class="b735a498-6c85-49ac-a5c5-7f55f158949a" points="40.52 27.08 44.55 27.08 44.55 4.8 40.52 4.8 40.52 27.08"/><path class="b735a498-6c85-49ac-a5c5-7f55f158949a" d="M55.34,9.26c-5.36,0-7.72,3.76-7.72,7.45V27.08h4V17a4.86,4.86,0,0,1,.91-3.07,3.22,3.22,0,0,1,2.43-1.11,3.31,3.31,0,0,1,2.72,1.11,5.23,5.23,0,0,1,1,3.41v9.75h4V16.92c.14-5-3.13-7.66-7.24-7.66"/><path class="b735a498-6c85-49ac-a5c5-7f55f158949a" d="M69.75,4.8h-4V20.88c0,4.11,2,6.48,6.41,6.48,1.81,0,2.92-.63,3.41-1.6V23.25a6.55,6.55,0,0,1-2.85.49A2.72,2.72,0,0,1,70.59,23a3.75,3.75,0,0,1-.77-2.57V12.81H73.3a2.19,2.19,0,0,0,2.44-2V9.26H69.82V4.8Z"/><path class="b735a498-6c85-49ac-a5c5-7f55f158949a" d="M121.82,17.33V16.5a4.05,4.05,0,0,1,6.34-3.27,2.55,2.55,0,0,1,1,2.15A1.48,1.48,0,0,1,128,16.92a13.85,13.85,0,0,1-4.11.41Zm9.26,1.81a3.16,3.16,0,0,0,1.81-3.2,6.62,6.62,0,0,0-6.82-6.68c-4.87,0-8.35,3.62-8.42,9.47a8.44,8.44,0,0,0,8.42,8.63c2.5,0,4.11-.42,5-1.19v-3a10,10,0,0,1-4.25.84c-2.64,0-4.73-1.47-5.08-3.83V20h3.07C127.74,20.05,129.76,19.77,131.08,19.14Z"/><path class="b735a498-6c85-49ac-a5c5-7f55f158949a" d="M169.86,16V27.08h4V16.78a4.39,4.39,0,0,1,.84-3,3.09,3.09,0,0,1,2.36-1,5.66,5.66,0,0,1,1.12.07V9.61a4.13,4.13,0,0,0-2-.42c-4.59.07-6.33,3.27-6.33,6.82"/><path class="b735a498-6c85-49ac-a5c5-7f55f158949a" d="M109.08,27.29c-2.92,0-5.15-1.67-5.15-3.41V21.93h.14a7.78,7.78,0,0,0,4.8,1.67c1.95,0,2.93-.63,2.93-1.88,0-1-.56-1.46-3.34-1.88-3.34-.49-5-1.95-5-4.59,0-3.28,2.72-6,6.76-6,3.62,0,5.08,2,5.08,3.69v1.67h-.07a6.55,6.55,0,0,0-4.53-1.6c-2.43,0-3.2.76-3.2,2,0,.83.49,1.25,3.2,1.67,3.28.55,5.09,2.16,5.09,4.94-.07,3.55-2.44,5.71-6.69,5.71"/><path class="b735a498-6c85-49ac-a5c5-7f55f158949a" d="M138.74,17.47c0,2.3,1.25,4,3.2,4s3.41-1.6,3.41-4.38-1.25-4-3-4c-2,0-3.62,1.88-3.62,4.45m10.65,4.6c0,.69.07,1.67.07,2.22,0,4.32-2.65,8.22-7.8,8.22-3.27,0-5.5-1.74-5.5-3.76V26.8h.21a6.74,6.74,0,0,0,5.08,1.88c2.86,0,4.18-1.46,4.18-4V22.55a4.06,4.06,0,0,1-4.11,2.58c-3.9,0-6.61-2.92-6.61-7,0-4.87,2.92-8.84,8.07-8.84,4,0,6.48,3.13,6.48,7.59v2.92a8.17,8.17,0,0,0-.07,2.3"/><path class="b735a498-6c85-49ac-a5c5-7f55f158949a" d="M186.77,12.81c-2.44,0-3.69,2.16-3.69,5.15,0,3.55,1.25,5.71,4,5.71,2.44,0,3.69-2.16,3.69-5.08,0-3.62-1.25-5.78-4-5.78m.35-3.62c4.87,0,7.73,4.18,7.73,8.77,0,5.22-2.79,9.33-8.08,9.33-4.87,0-7.73-4.18-7.73-8.77,0-5.15,2.86-9.33,8.08-9.33"/><path class="b735a498-6c85-49ac-a5c5-7f55f158949a" d="M159.41,27.43c5.36,0,7.66-3.76,7.66-7.45V9.54h-4V19.63a4.89,4.89,0,0,1-.9,3.06,3.22,3.22,0,0,1-2.44,1.12,3.26,3.26,0,0,1-2.71-1.12,5.21,5.21,0,0,1-1-3.41V9.47h-4V19.63c0,5.08,3.28,7.73,7.31,7.8"/></g></g></g></svg>1.12,3.26,3.26,0,0,1-2.71-1.12,5.21,5.21,0,0,1-1-3.41V9.47h-4V19.63c0,5.08,3.28,7.73,7.31,7.8"/></g></g></g></svg>