<?xml version="1.0" encoding="utf-8"?>
<!-- Generator: Adobe Illustrator 24.0.0, SVG Export Plug-In . SVG Version: 6.00 Build 0)  -->
<svg version="1.1" id="Capa_1" xmlns="http://www.w3.org/2000/svg" xmlns:xlink="http://www.w3.org/1999/xlink" x="0px" y="0px"
	 viewBox="0 0 383.8 31" style="enable-background:new 0 0 383.8 31;" xml:space="preserve">
<style type="text/css">
	.st0{fill:#0855C4;}
	.st1{fill-rule:evenodd;clip-rule:evenodd;fill:#0855C4;}
	.st2{fill-rule:evenodd;clip-rule:evenodd;fill:#00ADEE;}
	.st3{filter:url(#Adobe_OpacityMaskFilter);}
	.st4{fill-rule:evenodd;clip-rule:evenodd;fill:#FFFFFF;}
	.st5{mask:url(#mask-2_1_);fill-rule:evenodd;clip-rule:evenodd;fill:#0855C4;}
</style>
<g>
	<path class="st0" d="M215.5,9.2l3.3,9.7l3.3-9.7c0.3-1.1,1.1-1.6,1.9-1.6c1.1,0,2.1,0.8,2,1.1l-5.2,12.8c-0.4,0.9-0.9,1.3-2,1.3
		c-1.1,0-1.6-0.3-2-1.3l-5.3-12.8c-0.1-0.3,1-1.1,2.1-1.1C214.5,7.7,215.2,8.2,215.5,9.2z"/>
	<path class="st0" d="M225.7,17.2c0-3.5,2.5-6,5.9-6c3.3,0,5.6,2.3,5.6,5.7v0.2c0,0.6-0.2,0.9-0.8,0.9h-7.8c0.2,1.7,1.5,2.7,3.3,2.7
		c1.7,0,2.7-0.8,3.2-1.7c0,0,1.6,0.2,1.6,1.5c0,1.2-1.7,2.6-4.9,2.6C228.2,23.1,225.7,20.8,225.7,17.2z M228.7,16.1h5.6
		c-0.1-1.6-1.1-2.6-2.6-2.6C230.1,13.5,228.9,14.6,228.7,16.1z"/>
	<path class="st0" d="M242.4,13.3c0.7-1.2,1.9-2.1,3.7-2.1c3,0,4.2,2.1,4.2,4.8v5.3c0,1.2-0.6,1.6-1.4,1.6h-0.3
		c-0.9,0-1.5-0.3-1.5-1.6v-4.9c0-1.6-0.8-2.5-2.1-2.5c-1.6,0-2.5,1-2.5,2.6v4.7c0,1.2-0.6,1.6-1.4,1.6h-0.3c-0.9,0-1.5-0.3-1.5-1.6
		V7c0-0.1,0.6-0.4,1.2-0.4c1,0,2,0.5,2,2.6V13.3z"/>
	<path class="st0" d="M252.5,7.9c0-1,0.7-1.6,1.8-1.6s1.8,0.6,1.8,1.6c0,1-0.7,1.7-1.8,1.7S252.5,8.9,252.5,7.9z M252.7,21.3v-8.4
		c0-1.2,0.6-1.6,1.5-1.6h0.3c0.9,0,1.5,0.4,1.5,1.6v8.4c0,1.2-0.6,1.6-1.4,1.6h-0.3C253.3,22.9,252.7,22.5,252.7,21.3z"/>
	<path class="st0" d="M257.9,17.1c0-3.4,2.5-5.9,6-5.9c3.5,0,4.8,2,4.8,3.1c0,1.3-1.7,1.6-1.8,1.4c-0.4-1.1-1.3-1.9-2.9-1.9
		c-1.8,0-3.1,1.4-3.1,3.3c0,2,1.3,3.3,3.1,3.3c1.6,0,2.4-0.8,2.9-1.9c0-0.1,1.8,0.1,1.8,1.5c0,1.1-1.4,3-4.8,3
		C260.4,23.1,257.9,20.6,257.9,17.1z"/>
	<path class="st0" d="M278.3,21.1c-0.8,1.2-2,2-3.7,2c-3,0-4.2-2.1-4.2-4.7v-5.5c0-1.2,0.6-1.6,1.4-1.6h0.3c0.9,0,1.5,0.4,1.5,1.6v5
		c0,1.5,0.8,2.4,2.1,2.4c1.1,0,2-0.6,2.4-1.5v-5.9c0-1.2,0.6-1.6,1.5-1.6h0.3c0.9,0,1.5,0.4,1.5,1.6v9.6c0,0.1-0.6,0.4-1.2,0.4
		C279.5,22.9,278.6,22.5,278.3,21.1z"/>
	<path class="st0" d="M284.1,21.3V7c0-0.1,0.6-0.4,1.2-0.4c1,0,2,0.5,2,2.6v12.1c0,1.2-0.6,1.6-1.4,1.6h-0.3
		C284.7,22.9,284.1,22.5,284.1,21.3z"/>
	<path class="st0" d="M289.3,19.8c0-2.6,2.3-3.8,7.3-3.9h0.4c0-1.5-0.8-2.3-2.3-2.3c-1.6,0-2.4,0.9-2.8,1.7c0,0-2.1,0.1-2.1-1.4
		c0-1.4,1.7-2.8,5.1-2.8c3.6,0,5.3,1.6,5.3,4.7v6.7c0,0.2-0.6,0.4-1.2,0.4c-1,0-1.7-0.6-1.9-1.8c-0.8,1.2-2.3,1.9-3.9,1.9
		C290.8,23.1,289.3,21.7,289.3,19.8z M297,18.4v-0.7l-0.6,0c-2.6,0.1-3.9,0.6-3.9,1.8c0,0.8,0.7,1.4,1.8,1.4
		C295.8,20.9,297,19.8,297,18.4z"/>
	<path class="st0" d="M305.8,13.3c0.5-1.3,1.4-2.1,2.8-2.1c1.3,0,2.1,0.7,2.1,1.9c0,1.3-1,1.8-1,1.7c-0.3-0.3-0.9-0.6-1.5-0.6
		c-1.6,0-2.3,1.4-2.3,3.7v3.4c0,1.2-0.6,1.6-1.4,1.6h-0.3c-0.9,0-1.5-0.3-1.5-1.6v-9.6c0-0.1,0.6-0.4,1.2-0.4
		C304.7,11.3,305.6,11.7,305.8,13.3z"/>
	<path class="st0" d="M316.3,20.9V9.7c0-1.2,0.8-1.9,1.8-1.9h3.8c5,0,8.1,2.8,8.1,7.5c0,4.7-3.1,7.6-8.2,7.6h-3.6
		C317.1,22.8,316.3,22,316.3,20.9z M321.8,19.9c3,0,4.8-1.7,4.8-4.6c0-2.9-1.8-4.6-4.8-4.6h-2.1v9.2H321.8z"/>
	<path class="st0" d="M331.9,7.9c0-1,0.7-1.6,1.8-1.6s1.8,0.6,1.8,1.6c0,1-0.7,1.7-1.8,1.7S331.9,8.9,331.9,7.9z M332.1,21.3v-8.4
		c0-1.2,0.6-1.6,1.5-1.6h0.3c0.9,0,1.5,0.4,1.5,1.6v8.4c0,1.2-0.6,1.6-1.4,1.6h-0.3C332.8,22.9,332.1,22.5,332.1,21.3z"/>
	<path class="st0" d="M336.6,24.5c0-1.6,1.5-2.6,3.5-2.9c-0.3-0.2-0.4-0.6-0.4-1c0-0.5,0.3-1,0.8-1.3c-1.9-0.6-3.1-2-3.1-3.7
		c0-2.4,2.2-4.3,5.2-4.3c0.9,0,1.7,0.2,2.4,0.5l0.5-0.9c0.4-0.8,0.9-1.1,1.6-1.1c1.2,0,1.7,1.3,1.6,1.4l-2,1.9c0.7,0.7,1,1.6,1,2.5
		c0,2.4-2,4.1-5.2,4.1h-0.2c0,0.1,0,0.2,0,0.2c0,0.6,1.1,0.7,2.9,1.2c1.6,0.4,3.3,1.3,3.3,3.2c0,2.2-2.3,3.6-6.1,3.6
		C338.4,27.7,336.6,26.7,336.6,24.5z M342.5,22.8c-1.6,0.1-2.8,0.7-2.8,1.6c0,0.8,0.9,1.3,2.8,1.3c1.9,0,2.9-0.5,2.9-1.4
		C345.5,23.3,344,23.1,342.5,22.8z M344.7,15.5c0-1.3-0.9-2.1-2.2-2.1c-1.3,0-2.1,0.8-2.1,2.1c0,1.3,0.9,2.1,2.2,2.1
		C343.9,17.6,344.7,16.7,344.7,15.5z"/>
	<path class="st0" d="M349.8,7.9c0-1,0.7-1.6,1.8-1.6s1.8,0.6,1.8,1.6c0,1-0.7,1.7-1.8,1.7S349.8,8.9,349.8,7.9z M349.9,21.3v-8.4
		c0-1.2,0.6-1.6,1.5-1.6h0.3c0.9,0,1.5,0.4,1.5,1.6v8.4c0,1.2-0.6,1.6-1.4,1.6h-0.3C350.6,22.9,349.9,22.5,349.9,21.3z"/>
	<path class="st0" d="M354.9,12.9v-0.2c0-0.8,0.4-1.2,1.4-1.2h0.6V10c0-1.1,0.6-1.6,1.5-1.6h0.3c0.9,0,1.5,0.4,1.5,1.6v1.4h2
		c0.9,0,1.3,0.4,1.3,1.2v0.2c0,0.8-0.4,1.2-1.3,1.2h-2v4.8c0,1.1,0.4,1.7,1.3,1.7c0.7,0,1.1-0.3,1.5-0.8c0-0.1,0.8,0.4,0.8,1.3
		c0,1.1-1.1,2.1-3,2.1c-2.5,0-3.7-1.3-3.7-3.9V14h-0.6C355.3,14,354.9,13.6,354.9,12.9z"/>
	<path class="st0" d="M364.3,19.8c0-2.6,2.3-3.8,7.3-3.9h0.4c0-1.5-0.8-2.3-2.3-2.3c-1.6,0-2.4,0.9-2.8,1.7c0,0-2.1,0.1-2.1-1.4
		c0-1.4,1.7-2.8,5.1-2.8c3.6,0,5.3,1.6,5.3,4.7v6.7c0,0.2-0.6,0.4-1.2,0.4c-1,0-1.7-0.6-1.9-1.8c-0.8,1.2-2.3,1.9-3.9,1.9
		C365.7,23.1,364.3,21.7,364.3,19.8z M372,18.4v-0.7l-0.6,0c-2.6,0.1-3.9,0.6-3.9,1.8c0,0.8,0.7,1.4,1.8,1.4
		C370.8,20.9,372,19.8,372,18.4z"/>
	<path class="st0" d="M377.7,21.3V7c0-0.1,0.6-0.4,1.2-0.4c1,0,2,0.5,2,2.6v12.1c0,1.2-0.6,1.6-1.4,1.6h-0.3
		C378.3,22.9,377.7,22.5,377.7,21.3z"/>
</g>
<title>Group 6</title>
<desc>Created with Sketch.</desc>
<path id="Rectangle-Copy-2" class="st1" d="M194,1L194,1c0.6,0,1,0.4,1,1v27c0,0.6-0.4,1-1,1l0,0c-0.6,0-1-0.4-1-1V2
	C193,1.4,193.4,1,194,1z"/>
<g id="Group-18-Copy-4">
	<g id="Group-18-Copy-2">
		<path id="Fill-1" class="st2" d="M61.7,4.9H58l0,14.9c0,3.8,1.9,6,5.9,6c1.7,0,2.7-0.6,3.2-1.5V22c-0.7,0.3-1.6,0.4-2.7,0.4
			c-0.8,0-1.5-0.2-2-0.7c-0.5-0.5-0.7-1.3-0.7-2.4v-7h3.2c1.6,0,2.2-1,2.2-1.8V9h-5.5V4.9z M48.3,9c-5,0-7.1,3.5-7.2,6.9v9.7h3.7
			v-9.4c0-1.2,0.3-2.2,0.9-2.8c0.6-0.7,1.3-1,2.3-1c1.1,0,1.9,0.3,2.5,1c0.6,0.7,0.9,1.7,0.9,3.2l0,9.1h3.7v-9.4
			C55.1,11.6,52.1,9,48.3,9z M34.5,25.6h3.7V4.9h-3.7V25.6z M83.6,15.3l0,10.3h3.7v-9.5c0-1.3,0.2-2.2,0.8-2.8
			c0.5-0.6,1.3-0.9,2.2-0.9c0.4,0,0.7,0,1,0.1v-3C90.9,9.2,90.3,9,89.5,9C85.3,9,83.6,12.1,83.6,15.3z M77.2,16.2
			c-0.7,0.3-1.9,0.4-3.8,0.4h-2l0-0.2l0-0.6c0.1-2,1.5-3.7,3.6-3.7c1,0,1.8,0.2,2.3,0.7c0.6,0.4,0.9,1.1,0.9,2
			C78.2,15.4,77.9,15.9,77.2,16.2z M75.3,9c-4.6,0-7.8,3.4-7.8,8.8c0,4.9,3.9,8,7.8,8c2.4,0,3.8-0.4,4.7-1.1V22
			c-1.2,0.6-2.6,0.8-3.9,0.8c-2.4,0-4.4-1.4-4.7-3.5l0-0.2h2.8c2.7,0,4.6-0.2,5.8-0.8c1.2-0.6,1.7-1.5,1.7-3
			C81.7,11.4,78.6,9,75.3,9z"/>
		<path id="Fill-3" class="st2" d="M110,16.5l0-0.2l0-0.6c0.1-2,1.5-3.7,3.6-3.7c1,0,1.8,0.2,2.3,0.7c0.6,0.4,0.9,1.1,0.9,2
			c0,0.6-0.3,1.1-1,1.4c-0.7,0.3-1.9,0.4-3.8,0.4H110z M118.6,18.3c1.2-0.6,1.7-1.5,1.7-3c0-3.8-3-6.2-6.3-6.2
			c-4.6,0-7.8,3.4-7.8,8.8c0,4.9,3.9,8,7.8,8c2.4,0,3.8-0.4,4.7-1.1V22c-1.2,0.6-2.6,0.8-3.9,0.8c-2.4,0-4.4-1.4-4.7-3.5l0-0.2h2.8
			C115.5,19.1,117.4,18.9,118.6,18.3z"/>
		<path id="Fill-5" class="st2" d="M154.6,15.3v10.3h3.7v-9.5c0-1.3,0.2-2.2,0.8-2.8c0.5-0.6,1.3-0.9,2.2-0.9c0.4,0,0.7,0,1,0.1v-3
			c-0.5-0.2-1.1-0.4-1.9-0.4C156.3,9,154.6,12.1,154.6,15.3"/>
		<path id="Fill-7" class="st2" d="M98.2,25.8c-2.7,0-4.8-1.5-4.8-3.2v-1.8h0.1c0.8,0.8,2.7,1.5,4.4,1.5c1.8,0,2.7-0.6,2.7-1.8
			c0-0.9-0.5-1.4-3.1-1.8C94.5,18.3,93,17,93,14.6c0-3,2.5-5.6,6.3-5.6c3.4,0,4.7,1.9,4.7,3.4v1.5h-0.1c-0.8-0.8-2.5-1.5-4.2-1.5
			c-2.3,0-3,0.7-3,1.8c0,0.8,0.4,1.1,3,1.6c3.1,0.5,4.7,2,4.7,4.6C104.3,23.8,102.1,25.8,98.2,25.8"/>
		<path id="Fill-9" class="st2" d="M125.7,16.7c0,2.1,1.2,3.7,3,3.7c1.9,0,3.2-1.5,3.2-4.1c0-2.5-1.2-3.8-2.8-3.8
			C127.2,12.5,125.7,14.3,125.7,16.7 M135.6,21c0,0.7,0.1,1.5,0.1,2.1c0,4-2.5,7.6-7.3,7.6c-3.1,0-5.1-1.6-5.1-3.5v-1.8h0.2
			c0.9,1,2.6,1.7,4.7,1.7c2.7,0,3.9-1.4,3.9-3.7c0-0.2,0-0.6,0-0.8c0-0.2,0-0.7,0-0.8v-0.4c-0.3,1.2-1.7,2.4-3.8,2.4
			c-3.6,0-6.2-2.7-6.2-6.5c0-4.5,2.7-8.2,7.5-8.2c3.7,0,6,2.9,6,7.1v2.7C135.6,19.4,135.6,20.3,135.6,21"/>
		<path id="Fill-11" class="st2" d="M170.4,12.3c-2.3,0-3.4,2-3.4,4.8c0,3.3,1.1,5.3,3.7,5.3c2.3,0,3.4-2,3.4-4.7
			C174.1,14.3,172.9,12.3,170.4,12.3 M170.7,9c4.5,0,7.2,3.9,7.2,8.2c0,4.8-2.6,8.7-7.5,8.7c-4.5,0-7.2-3.9-7.2-8.1
			C163.2,12.9,165.8,9,170.7,9"/>
		<path id="Fill-13" class="st2" d="M144.9,25.9c5,0,7.1-3.5,7.1-6.9V9.3h-3.7v9.4c0,1.2-0.3,2.2-0.9,2.9c-0.5,0.7-1.3,1-2.3,1
			c-1.1,0-1.9-0.3-2.5-1c-0.6-0.7-0.9-1.8-0.9-3.2l0-9.1h-3.7v9.5C138.2,23.4,141.2,25.9,144.9,25.9"/>
		<g id="Group-17" transform="translate(0.000000, 0.154909)">
			<g id="Clip-16">
			</g>
			<defs>
				<filter id="Adobe_OpacityMaskFilter" filterUnits="userSpaceOnUse" x="0" y="0.3" width="28.9" height="29.6">
					<feColorMatrix  type="matrix" values="1 0 0 0 0  0 1 0 0 0  0 0 1 0 0  0 0 0 1 0"/>
				</filter>
			</defs>
			<mask maskUnits="userSpaceOnUse" x="0" y="0.3" width="28.9" height="29.6" id="mask-2_1_">
				<g class="st3">
					<polygon id="path-1_1_" class="st4" points="0,0.3 28.9,0.3 28.9,29.9 0,29.9 					"/>
				</g>
			</mask>
			<path id="Fill-15" class="st5" d="M22.2,21.6L6.8,24.5V8.6l15.4-2.8V21.6z M3.9,0.3C1.7,0.3,0,2.1,0,4.3v25.6h25.1
				c2.1,0,3.9-1.8,3.9-4l0-25.6H3.9z"/>
		</g>
	</g>
</g>
</svg>
