<svg xmlns="http://www.w3.org/2000/svg" viewBox="0 0 250 149.59"><defs><style>.cls-1{fill:#bf0024;}.cls-2{fill:#e6b63a;}.cls-3{fill:#fff;}</style></defs><title>Recurso 2</title><g id="Capa_2" data-name="Capa 2"><g id="Layer_1" data-name="Layer 1"><path class="cls-1" d="M149.59,74.79A74.8,74.8,0,1,1,74.79,0,74.8,74.8,0,0,1,149.59,74.79Z"/><path class="cls-2" d="M175.21,0A74.5,74.5,0,0,0,125,19.36a75.35,75.35,0,0,0-7.55,7.92h15.11a77.19,77.19,0,0,1,5.7,7.92H111.74a75.53,75.53,0,0,0-4.31,7.92h35.14A74.65,74.65,0,0,1,145.73,51H104.27A74.58,74.58,0,0,0,102.09,59H147.9a75,75,0,0,1-2.17,39.59H104.27a73.81,73.81,0,0,0,3.16,7.92h35.14a74.93,74.93,0,0,1-4.32,7.93H111.74a75.25,75.25,0,0,0,5.71,7.91h15.1a74.34,74.34,0,0,1-7.55,7.92A74.79,74.79,0,1,0,175.21,0Z"/><path class="cls-2" d="M240,116.48a2.42,2.42,0,1,1,2.42,2.42A2.41,2.41,0,0,1,240,116.48Zm2.42,1.84a1.84,1.84,0,1,0-1.84-1.84A1.83,1.83,0,0,0,242.45,118.32Zm-.33-.77h-.5v-2.12h.9a1,1,0,0,1,.55.1.64.64,0,0,1,.26.53.58.58,0,0,1-.37.55l.4.94h-.55l-.33-.84h-.36Zm0-1.21h.27a.65.65,0,0,0,.31,0,.29.29,0,0,0,.12-.24.27.27,0,0,0-.12-.22.69.69,0,0,0-.32,0h-.26Z"/><polygon class="cls-3" points="39.67 96.21 31.55 96.21 36.2 67.05 25.82 96.21 20.28 96.21 19.6 67.22 14.71 96.21 7.11 96.21 13.46 58.28 25.14 58.28 25.46 81.76 33.34 58.28 45.95 58.28 39.67 96.21"/><path class="cls-3" d="M59.67,82.47a13.36,13.36,0,0,0-1.82-.12c-4.6,0-6.93,1.57-6.93,4.69a2.83,2.83,0,0,0,2.91,3.14C57.14,90.18,59.53,87,59.67,82.47Zm5.9,13.74H58.84L59,93c-2,2.52-4.79,3.73-8.51,3.73-4.4,0-7.42-3.44-7.42-8.43,0-7.51,5.25-11.89,14.26-11.89a26.39,26.39,0,0,1,3.31.24,7.62,7.62,0,0,0,.31-2c0-2-1.41-2.8-5.2-2.8a27,27,0,0,0-8.6,1.38c.09-.51,1.13-6.93,1.13-6.93A32.23,32.23,0,0,1,58,64.67c7,0,10.67,3.14,10.66,9A39.4,39.4,0,0,1,68,79.83C67.29,84.3,65.78,93.88,65.57,96.21Z"/><path class="cls-3" d="M174.48,59.3l-1.33,8.23a15.58,15.58,0,0,0-7.25-2c-6.07,0-10.32,5.86-10.32,14.21,0,5.76,2.86,9.24,7.58,9.24a15.72,15.72,0,0,0,6.9-2l-1.43,8.65a25.53,25.53,0,0,1-7.18,1.11c-8.74,0-14.18-6.29-14.18-16.38,0-13.56,7.52-23,18.28-23A28.07,28.07,0,0,1,174.48,59.3Z"/><path class="cls-3" d="M187.58,82.47a13.23,13.23,0,0,0-1.81-.12c-4.6,0-6.93,1.57-6.93,4.69a2.83,2.83,0,0,0,2.91,3.14C185.05,90.18,187.44,87,187.58,82.47Zm5.91,13.74h-6.73l.15-3.19c-2,2.52-4.79,3.73-8.51,3.73-4.4,0-7.41-3.44-7.41-8.43,0-7.51,5.24-11.89,14.25-11.89a26.39,26.39,0,0,1,3.31.24,7.62,7.62,0,0,0,.31-2c0-2-1.41-2.8-5.2-2.8a27,27,0,0,0-8.6,1.38c.09-.51,1.13-6.93,1.13-6.93a32.29,32.29,0,0,1,9.72-1.64c7,0,10.67,3.14,10.66,9a39.62,39.62,0,0,1-.66,6.11C195.21,84.3,193.69,93.88,193.49,96.21Z"/><path class="cls-3" d="M101.66,95.75a18.85,18.85,0,0,1-5.84,1c-4.15,0-6.41-2.39-6.41-6.78a71.58,71.58,0,0,1,1.11-8.22C91,78.86,94,60.69,94,60.69h8.07l-.94,4.67h4.14l-1.1,7.42h-4.16c-.94,5.87-2.27,13.17-2.29,14.14,0,1.6.85,2.29,2.78,2.29a6.47,6.47,0,0,0,2.19-.29Z"/><path class="cls-3" d="M126.41,95.5a27.79,27.79,0,0,1-8.29,1.25c-9,0-13.74-4.73-13.74-13.76,0-10.55,6-18.32,14.12-18.32,6.66,0,10.91,4.35,10.91,11.17a33.41,33.41,0,0,1-1,7.59H112.34c-.55,4.47,2.32,6.34,7,6.34a19.24,19.24,0,0,0,8.4-1.94Zm-4.54-18.3c0-.64.85-5.5-3.76-5.5-2.57,0-4.41,2-5.16,5.5Z"/><path class="cls-3" d="M70.44,75.12c0,3.9,1.89,6.59,6.19,8.61,3.28,1.55,3.79,2,3.79,3.41,0,1.92-1.45,2.79-4.66,2.79a22.87,22.87,0,0,1-7.28-1.22l-1.11,7.12a37,37,0,0,0,8.45.92c8.56,0,12.52-3.26,12.52-10.31,0-4.24-1.65-6.73-5.72-8.6-3.41-1.56-3.8-1.91-3.8-3.35,0-1.67,1.35-2.53,4-2.53a45.25,45.25,0,0,1,5.83.47l1.16-7.15a54.07,54.07,0,0,0-7.15-.61C73.56,64.67,70.41,69.42,70.44,75.12Z"/><path class="cls-3" d="M236.46,96.21h-7.68l.38-2.87a9.57,9.57,0,0,1-7.49,3.41c-5.9,0-9.8-5.09-9.8-12.8,0-10.26,6-18.91,13.21-18.91,3.15,0,5.54,1.28,7.76,4.2l1.8-11h8Zm-12-7.12c3.79,0,6.44-4.29,6.44-10.4,0-3.92-1.51-6-4.3-6-3.68,0-6.3,4.3-6.3,10.37C220.32,87.05,221.72,89.09,224.48,89.09Z"/><path class="cls-3" d="M200.8,65.36c-1,9.55-2.82,19.22-4.23,28.78l-.37,2.07h8.12c2.9-18.86,3.6-22.55,8.16-22.08a29.92,29.92,0,0,1,3.08-8.95c-3.4-.71-5.3,1.21-7.79,4.86a27.64,27.64,0,0,0,.49-4.68Z"/><path class="cls-3" d="M134,65.36c-1,9.55-2.83,19.22-4.24,28.78l-.37,2.07h8.13c2.9-18.86,3.6-22.55,8.15-22.08a30.17,30.17,0,0,1,3.09-8.95c-3.4-.71-5.3,1.21-7.79,4.86a27.64,27.64,0,0,0,.49-4.68Z"/><path class="cls-3" d="M240,93.8a2.42,2.42,0,1,1,2.41,2.41A2.41,2.41,0,0,1,240,93.8Zm2.41,1.83a1.84,1.84,0,1,0-1.83-1.83A1.83,1.83,0,0,0,242.44,95.63Zm-.32-.78h-.5V92.73h.9a1,1,0,0,1,.54.11.62.62,0,0,1,.27.53.58.58,0,0,1-.37.55l.39.93h-.55l-.32-.83h-.36Zm0-1.2h.27a.61.61,0,0,0,.3,0,.29.29,0,0,0,.12-.24.28.28,0,0,0-.11-.22.71.71,0,0,0-.32,0h-.26Z"/></g></g></svg>