<?xml version="1.0" encoding="UTF-8"?>
<svg width="24px" height="28px" viewBox="0 0 24 28" version="1.1" xmlns="http://www.w3.org/2000/svg" xmlns:xlink="http://www.w3.org/1999/xlink">
    <!-- Generator: Sketch 51.1 (57501) - http://www.bohemiancoding.com/sketch -->
    <title>pago máximo copy 2</title>
    <desc>Created with Sketch.</desc>
    <defs></defs>
    <g id="Desktop-1440x1024" stroke="none" stroke-width="1" fill="none" fill-rule="evenodd">
        <g id="Desktop-1440x1024-Coverage-Copy-5" transform="translate(-250.000000, -1041.000000)">
            <g id="pago-máximo" transform="translate(250.000000, 1041.000000)">
                <g>
                    <path d="M9.00983607,25.2 C7.01508197,25.2 5.29180328,24.5972222 4.2452459,23.6638889 L4.2452459,24.1538889 C4.2452459,25.5733333 6.42885246,26.7711111 9.00983607,26.7711111 C11.5908197,26.7711111 13.7704918,25.5733333 13.7704918,24.1538889 L13.7704918,23.6638889 C12.7318033,24.5972222 11.0163934,25.2 9.00983607,25.2 Z" id="Shape"></path>
                    <path d="M9.00983607,24.1538889 C11.5947541,24.1538889 13.7704918,22.9444444 13.7704918,21.5366667 L13.7704918,21.0466667 C12.7239344,21.98 10.9967213,22.6022222 9.00196721,22.6022222 C7.00721311,22.6022222 5.28393443,21.9994444 4.23737705,21.0466667 L4.23737705,21.5366667 C4.2452459,22.9444444 6.42885246,24.1538889 9.00983607,24.1538889 Z" id="Shape"></path>
                    <ellipse id="Oval" cx="9.00983607" cy="16.3022222" rx="4.76459016" ry="2.61722222"></ellipse>
                    <path d="M9.00983607,19.9655556 C7.01508197,19.9655556 5.29180328,19.3627778 4.2452459,18.41 L4.2452459,18.9 C4.2452459,20.3194444 6.42885246,21.5172222 9.00983607,21.5172222 C11.5908197,21.5172222 13.7704918,20.3388889 13.7704918,18.9194444 L13.7704918,18.4294444 C12.7318033,19.3627778 11.0163934,19.9655556 9.00983607,19.9655556 Z" id="Shape"></path>
                    <path d="M18.0118033,10.5427778 C16.0209836,10.5427778 14.2937705,9.94 13.2472131,9.00666667 L13.2472131,9.49666667 C13.2472131,10.9161111 15.4308197,12.1138889 18.0118033,12.1138889 C20.5927869,12.1138889 22.7803279,10.9161111 22.7803279,9.49666667 L22.7803279,9.00666667 C21.7337705,9.94 20.0065574,10.5427778 18.0118033,10.5427778 Z" id="Shape"></path>
                    <path d="M18.0118033,9.49666667 C20.5967213,9.49666667 22.7803279,8.29888889 22.7803279,6.87944444 C22.7803279,5.46 20.5967213,4.27777778 18.0118033,4.27777778 C15.4268852,4.27777778 13.2472131,5.44444444 13.2472131,6.87944444 C13.2472131,8.31444444 15.4308197,9.49666667 18.0118033,9.49666667 Z" id="Shape"></path>
                    <path d="M4.58360656,11.0677778 C4.60730806,11.3392203 4.83714501,11.5476348 5.11278689,11.5476348 C5.38842876,11.5476348 5.61826571,11.3392203 5.64196721,11.0677778 L5.64196721,1.62166667 L9.23409836,5.17222222 C9.36503392,5.3192403 9.56788062,5.38198916 9.76024985,5.3349826 C9.95261908,5.28797605 10.1025187,5.13903154 10.1490652,4.94864467 C10.1956118,4.7582578 10.1310642,4.55809102 9.98163934,4.42944444 L5.86229508,0.357777778 C5.44917082,-0.0496574147 4.78033737,-0.0496574147 4.36721311,0.357777778 L0.247868852,4.42944444 C0.0630519508,4.63696199 0.0727245994,4.95059123 0.269986553,5.14659626 C0.467248506,5.3426013 0.784495074,5.3538082 0.995409836,5.17222222 L4.58360656,1.62166667 L4.58360656,11.0677778 Z" id="Shape" fill="#7C4DFF" fill-rule="nonzero"></path>
                    <path d="M9.00983607,12.635 C5.7442623,12.635 3.18688525,14.245 3.18688525,16.3022222 L3.18688525,24.1538889 C3.18688525,26.2072222 5.7442623,27.8172222 9.00983607,27.8172222 C12.2754098,27.8172222 14.8367213,26.2072222 14.8367213,24.1538889 L14.8367213,16.3022222 C14.8367213,14.245 12.2754098,12.635 9.00983607,12.635 Z M9.00983607,13.685 C11.5947541,13.685 13.7783607,14.8827778 13.7783607,16.3022222 C13.7783607,17.7216667 11.5947541,18.9194444 9.00983607,18.9194444 C6.42491803,18.9194444 4.2452459,17.7216667 4.2452459,16.3022222 C4.2452459,14.8827778 6.42885246,13.685 9.00983607,13.685 Z M4.2452459,21.0466667 C5.29180328,21.98 6.99934426,22.6022222 9.00983607,22.6022222 C11.0203279,22.6022222 12.7318033,21.9994444 13.7783607,21.0466667 L13.7783607,21.5366667 C13.7783607,22.9561111 11.5947541,24.1538889 9.00983607,24.1538889 C6.42491803,24.1538889 4.2452459,22.9444444 4.2452459,21.5366667 L4.2452459,21.0466667 Z M9.00983607,21.5366667 C6.42885246,21.5366667 4.2452459,20.3388889 4.2452459,18.9194444 L4.2452459,18.4294444 C5.29180328,19.3627778 6.99934426,19.985 9.00983607,19.985 C11.0203279,19.985 12.7318033,19.3822222 13.7783607,18.4294444 L13.7783607,18.9194444 C13.7704918,20.3388889 11.5947541,21.5366667 9.00983607,21.5366667 Z M9.00983607,26.7711111 C6.42885246,26.7711111 4.2452459,25.5733333 4.2452459,24.1538889 L4.2452459,23.6638889 C5.29180328,24.5972222 6.99934426,25.2 9.00983607,25.2 C11.0203279,25.2 12.7318033,24.5972222 13.7704918,23.6638889 L13.7704918,24.1538889 C13.7704918,25.5733333 11.5947541,26.7711111 9.00983607,26.7711111 Z" id="Shape" fill="#7C4DFF" fill-rule="nonzero"></path>
                    <path d="M18.0118033,3.21611111 C14.7462295,3.21611111 12.1888525,4.82611111 12.1888525,6.87944444 L12.1888525,12.1138889 C12.1715954,12.3115262 12.2685137,12.5019013 12.4393696,12.6059759 C12.6102256,12.7100505 12.82584,12.7100505 12.9966959,12.6059759 C13.1675519,12.5019013 13.2644702,12.3115262 13.2472131,12.1138889 L13.2472131,11.6238889 C14.2937705,12.5572222 16.0013115,13.1794444 18.0118033,13.1794444 C20.0222951,13.1794444 21.7337705,12.5766667 22.7803279,11.6238889 L22.7803279,12.1138889 C22.7803279,13.5333333 20.5967213,14.7311111 18.0118033,14.7311111 C17.3481767,14.7327262 16.6870692,14.6503908 16.0445902,14.4861111 C15.7669295,14.4279753 15.4920879,14.5958771 15.4205308,14.8673515 C15.3489736,15.1388258 15.5059877,15.4179395 15.7770492,15.5011111 C16.5123832,15.6868379 17.268583,15.7796154 18.027541,15.7772222 C20.0222951,15.7772222 21.7495082,15.1744444 22.7960656,14.2216667 L22.7960656,14.7116667 C22.7960656,16.1311111 20.612459,17.3288889 18.027541,17.3288889 C17.3639144,17.330504 16.7028069,17.2481685 16.0603279,17.0838889 C15.8775953,17.0366504 15.6832469,17.0893587 15.5504919,17.2221589 C15.4177369,17.3549591 15.3667439,17.5476758 15.4167214,17.7277144 C15.466699,17.9077531 15.6100543,18.0477615 15.7927869,18.095 C16.5275837,18.2839318 17.2840337,18.3780472 18.0432787,18.375 C20.0380328,18.375 21.7652459,17.7722222 22.8118033,16.8388889 L22.8118033,17.3288889 C22.8118033,18.7483333 20.6281967,19.9461111 18.0432787,19.9461111 C17.3796521,19.9477262 16.7185446,19.8653908 16.0760656,19.7011111 C15.7935855,19.6280868 15.5046991,19.7952338 15.4308197,20.0744445 C15.3569403,20.3536551 15.5260445,20.6391979 15.8085246,20.7122222 C16.5433215,20.901154 17.2997714,20.9952695 18.0590164,20.9922222 C20.0537705,20.9922222 21.7809836,20.3894444 22.827541,19.4366667 L22.827541,19.9266667 C22.827541,21.3461111 20.6439344,22.5438889 18.0590164,22.5438889 C17.3953898,22.545504 16.7342823,22.4631685 16.0918033,22.2988889 C15.8141427,22.2407531 15.539301,22.4086549 15.4677439,22.6801292 C15.3961867,22.9516036 15.5532008,23.2307173 15.8242623,23.3138889 C16.5595963,23.4996156 17.3157961,23.5923932 18.0747541,23.59 C21.3442623,23.59 23.9016393,21.98 23.9016393,19.9266667 L23.9016393,6.87944444 C23.8386885,4.82611111 21.2813115,3.21611111 18.0118033,3.21611111 Z M18.0118033,4.26222222 C20.5967213,4.27777778 22.7803279,5.44444444 22.7803279,6.87944444 C22.7803279,8.31444444 20.5967213,9.49666667 18.0118033,9.49666667 C15.4268852,9.49666667 13.2472131,8.29888889 13.2472131,6.87944444 C13.2472131,5.46 15.4308197,4.27777778 18.0118033,4.27777778 L18.0118033,4.26222222 Z M18.0118033,12.1138889 C15.4308197,12.1138889 13.2472131,10.9161111 13.2472131,9.49666667 L13.2472131,9.00666667 C14.2937705,9.94 16.0013115,10.5427778 18.0118033,10.5427778 C20.0222951,10.5427778 21.7337705,9.94 22.7803279,9.00666667 L22.7803279,9.49666667 C22.7803279,10.9161111 20.5967213,12.1138889 18.0118033,12.1138889 Z" id="Shape" fill="#7C4DFF" fill-rule="nonzero"></path>
                </g>
            </g>
        </g>
    </g>
</svg>