<?xml version="1.0" encoding="utf-8"?>
<!-- Generator: Adobe Illustrator 23.0.1, SVG Export Plug-In . SVG Version: 6.00 Build 0)  -->
<svg version="1.1" xmlns="http://www.w3.org/2000/svg" xmlns:xlink="http://www.w3.org/1999/xlink" x="0px" y="0px"
	 viewBox="0 0 24 28" style="enable-background:new 0 0 24 28;" xml:space="preserve">
<style type="text/css">
	.st0{fill:#ECF9FF;}
	.st1{fill:#FFFFFF;}
	.st2{fill:#535D66;}
	.st3{fill-rule:evenodd;clip-rule:evenodd;fill:#ECF9FF;}
	.st4{fill-rule:evenodd;clip-rule:evenodd;fill:#FFFFFF;}
	.st5{fill-rule:evenodd;clip-rule:evenodd;fill:#00ADEE;}
	.st6{fill-rule:evenodd;clip-rule:evenodd;}
	.st7{fill:#00ADEE;}
	.st8{fill:#808099;}
	.st9{fill:#FFC037;}
	.st10{fill:#FF7108;}
	.st11{fill:#AEFFCF;}
	.st12{fill:#0BD360;}
	.st13{fill:#343434;}
	.st14{fill-rule:evenodd;clip-rule:evenodd;fill:#104EFF;}
	.st15{fill:#002E75;}
	.st16{fill:#0855C4;}
	.st17{fill:#99E2FF;}
	.st18{fill:#AED3FF;}
	.st19{fill:#231F20;}
	.st20{fill:#EFF1F4;}
	.st21{clip-path:url(#SVGID_2_);}
	.st22{fill:#8EEA00;}
	.st23{fill-rule:evenodd;clip-rule:evenodd;fill:#8EEA00;}
	.st24{fill:#0021CE;}
	.st25{fill:#104EFF;}
	.st26{fill:#303030;}
	.st27{fill:#00E1CF;}
	.st28{fill-rule:evenodd;clip-rule:evenodd;fill:#0BD360;}
	.st29{fill-rule:evenodd;clip-rule:evenodd;fill:#00E1CF;}
	.st30{fill:none;stroke:#5C006A;stroke-width:1.29;stroke-linecap:round;stroke-linejoin:round;}
	.st31{fill:#B6FFD3;}
	.st32{clip-path:url(#SVGID_4_);}
	.st33{fill:#DFE6E8;}
	.st34{fill:#B3B3B3;}
	.st35{fill:#96E0FD;}
	.st36{fill:#0ED160;}
	.st37{fill:#08A8FD;}
	.st38{fill:#6EEE89;}
	.st39{fill:#DFF8F5;}
	.st40{clip-path:url(#SVGID_6_);fill:#96E0FD;}
	.st41{fill:#F5F5F6;}
	.st42{fill:none;stroke:#002E75;stroke-width:1.5207;stroke-linecap:round;stroke-linejoin:round;}
	.st43{fill:#E9EAEB;}
	.st44{clip-path:url(#SVGID_8_);fill:#FFFFFF;}
	.st45{clip-path:url(#SVGID_8_);fill:#FFCF9B;}
	.st46{clip-path:url(#SVGID_8_);fill:#002E75;}
	.st47{clip-path:url(#SVGID_8_);fill:#F9BC90;}
	.st48{clip-path:url(#SVGID_8_);fill:#0ED160;}
	.st49{fill-rule:evenodd;clip-rule:evenodd;fill:#002E75;}
	.st50{fill-rule:evenodd;clip-rule:evenodd;fill:#0ED160;}
	.st51{fill-rule:evenodd;clip-rule:evenodd;fill:#DFE6E8;}
	.st52{fill-rule:evenodd;clip-rule:evenodd;fill:#DCE6E8;}
	.st53{fill-rule:evenodd;clip-rule:evenodd;fill:#6EEE89;}
	.st54{fill-rule:evenodd;clip-rule:evenodd;fill:#FFC037;}
	.st55{fill:#F4F4F5;}
	.st56{fill:#606060;}
	.st57{fill-rule:evenodd;clip-rule:evenodd;fill:#005EA1;}
	.st58{fill-rule:evenodd;clip-rule:evenodd;fill:#00A5D8;}
	.st59{fill:#444444;}
	.st60{clip-path:url(#SVGID_10_);}
	.st61{clip-path:url(#SVGID_12_);}
	.st62{clip-path:url(#SVGID_14_);}
	.st63{clip-path:url(#SVGID_16_);}
	.st64{clip-path:url(#SVGID_18_);}
	.st65{clip-path:url(#SVGID_20_);}
</style>
<g id="Layer_3">
</g>
<g id="Layer_1">
</g>
<g id="Layer_2">
</g>
<g id="Layer_4">
</g>
<g id="Layer_5">
</g>
<g id="Isolation_Mode">
</g>
<g id="Art">
</g>
<g id="Capa_8">
	<path class="st15" d="M5.1,11.6c0.3,0,0.6-0.1,0.7-0.3L10,7.2c0.1-0.1,0.2-0.3,0.2-0.5c0-0.2-0.2-0.3-0.4-0.4s-0.4,0-0.5,0.2
		L5.6,10V0.6c0-0.2-0.1-0.4-0.3-0.5S5,0,4.8,0.1S4.6,0.4,4.6,0.6V10L1,6.5C0.9,6.3,0.7,6.3,0.5,6.3S0.1,6.5,0.1,6.7s0,0.4,0.2,0.5
		l4.1,4.1C4.6,11.5,4.8,11.6,5.1,11.6z"/>
	<path class="st15" d="M9,12.6c-3.3,0-5.8,1.6-5.8,3.7v7.9c0,2.1,2.6,3.7,5.8,3.7s5.8-1.6,5.8-3.7v-7.9C14.8,14.2,12.3,12.6,9,12.6z
		 M9,13.7c2.6,0,4.8,1.2,4.8,2.6c0,1.4-2.2,2.6-4.8,2.6s-4.8-1.2-4.8-2.6C4.2,14.9,6.4,13.7,9,13.7z M4.2,21C5.3,22,7,22.6,9,22.6
		s3.7-0.6,4.8-1.6v0.5c0,1.4-2.2,2.6-4.8,2.6s-4.8-1.2-4.8-2.6V21z M9,21.5c-2.6,0-4.8-1.2-4.8-2.6v-0.5C5.3,19.4,7,20,9,20
		s3.7-0.6,4.8-1.6v0.5C13.8,20.3,11.6,21.5,9,21.5z M9,26.8c-2.6,0-4.8-1.2-4.8-2.6v-0.5c1,0.9,2.8,1.5,4.8,1.5s3.7-0.6,4.8-1.5v0.5
		C13.8,25.6,11.6,26.8,9,26.8z"/>
	<path class="st15" d="M18,3.2c-3.3,0-5.8,1.6-5.8,3.7v5.2c0,0.2,0.1,0.4,0.3,0.5c0.2,0.1,0.4,0.1,0.6,0c0.2-0.1,0.3-0.3,0.3-0.5
		v-0.5c1,0.9,2.8,1.6,4.8,1.6s3.7-0.6,4.8-1.6v0.5c0,1.4-2.2,2.6-4.8,2.6c-0.7,0-1.3-0.1-2-0.2c-0.3-0.1-0.6,0.1-0.6,0.4
		c-0.1,0.3,0.1,0.6,0.4,0.6c0.7,0.2,1.5,0.3,2.3,0.3c2,0,3.7-0.6,4.8-1.6v0.5c0,1.4-2.2,2.6-4.8,2.6c-0.7,0-1.3-0.1-2-0.2
		c-0.2,0-0.4,0-0.5,0.1c-0.1,0.1-0.2,0.3-0.1,0.5s0.2,0.3,0.4,0.4c0.7,0.2,1.5,0.3,2.3,0.3c2,0,3.7-0.6,4.8-1.5v0.5
		c0,1.4-2.2,2.6-4.8,2.6c-0.7,0-1.3-0.1-2-0.2c-0.3-0.1-0.6,0.1-0.6,0.4c-0.1,0.3,0.1,0.6,0.4,0.6c0.7,0.2,1.5,0.3,2.3,0.3
		c2,0,3.7-0.6,4.8-1.6v0.5c0,1.4-2.2,2.6-4.8,2.6c-0.7,0-1.3-0.1-2-0.2c-0.3-0.1-0.6,0.1-0.6,0.4c-0.1,0.3,0.1,0.6,0.4,0.6
		c0.7,0.2,1.5,0.3,2.3,0.3c3.3,0,5.8-1.6,5.8-3.7v-13C23.8,4.8,21.3,3.2,18,3.2z M18,4.3c2.6,0,4.8,1.2,4.8,2.6S20.6,9.5,18,9.5
		s-4.8-1.2-4.8-2.6S15.4,4.3,18,4.3L18,4.3z M18,12.1c-2.6,0-4.8-1.2-4.8-2.6V9c1,0.9,2.8,1.5,4.8,1.5s3.7-0.6,4.8-1.5v0.5
		C22.8,10.9,20.6,12.1,18,12.1z"/>
</g>
</svg>
