<?xml version="1.0" encoding="utf-8"?>
<!-- Generator: Adobe Illustrator 23.0.1, SVG Export Plug-In . SVG Version: 6.00 Build 0)  -->
<svg version="1.1" id="Capa_1" xmlns="http://www.w3.org/2000/svg" xmlns:xlink="http://www.w3.org/1999/xlink" x="0px" y="0px"
	 viewBox="0 0 26 26" style="enable-background:new 0 0 26 26;" xml:space="preserve">
<style type="text/css">
	.st0{fill-rule:evenodd;clip-rule:evenodd;fill:#73C7F5;}
	.st1{filter:url(#Adobe_OpacityMaskFilter);}
	.st2{fill-rule:evenodd;clip-rule:evenodd;fill:#FFFFFF;}
	.st3{mask:url(#mask-2_14_);fill-rule:evenodd;clip-rule:evenodd;fill:#73C7F5;}
	.st4{filter:url(#Adobe_OpacityMaskFilter_1_);}
	.st5{mask:url(#mask-2_13_);fill-rule:evenodd;clip-rule:evenodd;fill:#73C7F5;}
	.st6{filter:url(#Adobe_OpacityMaskFilter_2_);}
	.st7{mask:url(#mask-2_12_);fill-rule:evenodd;clip-rule:evenodd;fill:#73C7F5;}
	.st8{filter:url(#Adobe_OpacityMaskFilter_3_);}
	.st9{mask:url(#mask-2_11_);fill-rule:evenodd;clip-rule:evenodd;fill:#73C7F5;}
	.st10{filter:url(#Adobe_OpacityMaskFilter_4_);}
	.st11{mask:url(#mask-2_10_);fill-rule:evenodd;clip-rule:evenodd;fill:#73C7F5;}
	.st12{filter:url(#Adobe_OpacityMaskFilter_5_);}
	.st13{mask:url(#mask-2_9_);fill-rule:evenodd;clip-rule:evenodd;fill:#73C7F5;}
	.st14{filter:url(#Adobe_OpacityMaskFilter_6_);}
	.st15{mask:url(#mask-2_8_);fill-rule:evenodd;clip-rule:evenodd;fill:#73C7F5;}
	.st16{fill:#73C7F5;}
	.st17{clip-path:url(#SVGID_2_);}
	.st18{clip-path:url(#SVGID_4_);fill:#EAEBEE;}
	.st19{clip-path:url(#SVGID_6_);}
	.st20{clip-path:url(#SVGID_8_);fill:#FFFFFF;}
	.st21{clip-path:url(#SVGID_10_);}
	.st22{clip-path:url(#SVGID_12_);fill:#599CD8;}
	.st23{fill:none;stroke:#1C3272;stroke-width:2;stroke-miterlimit:10;}
	.st24{clip-path:url(#SVGID_14_);}
	.st25{clip-path:url(#SVGID_16_);fill:#FFFFFF;}
	.st26{clip-path:url(#SVGID_18_);}
	.st27{clip-path:url(#SVGID_20_);fill:#1C3272;}
	.st28{clip-path:url(#SVGID_22_);}
	.st29{clip-path:url(#SVGID_24_);fill:#FFFFFF;}
	.st30{clip-path:url(#SVGID_26_);}
	.st31{clip-path:url(#SVGID_28_);fill:#1C3272;}
	.st32{clip-path:url(#SVGID_30_);}
	.st33{clip-path:url(#SVGID_32_);fill:#FFFFFF;}
	.st34{clip-path:url(#SVGID_34_);}
	.st35{clip-path:url(#SVGID_36_);fill:#1C3272;}
	.st36{clip-path:url(#SVGID_38_);}
	.st37{clip-path:url(#SVGID_40_);fill:#FFFFFF;}
	.st38{clip-path:url(#SVGID_42_);}
	.st39{clip-path:url(#SVGID_44_);fill:#1C3272;}
	.st40{clip-path:url(#SVGID_46_);}
	.st41{clip-path:url(#SVGID_48_);fill:#FFFFFF;}
	.st42{clip-path:url(#SVGID_50_);}
	.st43{clip-path:url(#SVGID_52_);fill:#1C3272;}
	.st44{clip-path:url(#SVGID_54_);}
	.st45{clip-path:url(#SVGID_56_);fill:#60A7F9;}
	.st46{clip-path:url(#SVGID_58_);}
	.st47{clip-path:url(#SVGID_60_);fill:#60A7F9;}
	.st48{clip-path:url(#SVGID_62_);}
	.st49{clip-path:url(#SVGID_64_);fill:#1C3272;}
	.st50{clip-path:url(#SVGID_66_);}
	.st51{clip-path:url(#SVGID_68_);fill:#1C3272;}
	.st52{clip-path:url(#SVGID_70_);}
	.st53{clip-path:url(#SVGID_72_);fill:#1C3272;}
	.st54{clip-path:url(#SVGID_74_);}
	.st55{clip-path:url(#SVGID_76_);fill:#1C3272;}
	.st56{clip-path:url(#SVGID_78_);}
	.st57{clip-path:url(#SVGID_80_);fill:#EAEBEE;}
	.st58{clip-path:url(#SVGID_82_);}
	.st59{clip-path:url(#SVGID_84_);fill:#1C3272;}
	.st60{fill:#FFFFFF;}
	.st61{clip-path:url(#SVGID_86_);}
	.st62{clip-path:url(#SVGID_88_);fill:#FFFFFF;}
	.st63{clip-path:url(#SVGID_90_);}
	.st64{clip-path:url(#SVGID_92_);fill:#FFFFFF;}
	.st65{clip-path:url(#SVGID_94_);}
	.st66{clip-path:url(#SVGID_96_);fill:#1C3272;}
	.st67{clip-path:url(#SVGID_98_);}
	.st68{clip-path:url(#SVGID_100_);fill:#1C3272;}
	.st69{clip-path:url(#SVGID_102_);}
	.st70{clip-path:url(#SVGID_104_);fill:#EAEBEE;}
	.st71{clip-path:url(#SVGID_106_);}
	.st72{clip-path:url(#SVGID_108_);fill:#EAEBEE;}
	.st73{clip-path:url(#SVGID_110_);}
	.st74{clip-path:url(#SVGID_112_);fill:#EAEBEE;}
	.st75{clip-path:url(#SVGID_114_);}
	.st76{clip-path:url(#SVGID_116_);fill:#1C3272;}
	.st77{clip-path:url(#SVGID_118_);}
	.st78{clip-path:url(#SVGID_120_);fill:#3157C2;}
	.st79{clip-path:url(#SVGID_122_);}
	.st80{clip-path:url(#SVGID_124_);fill:#FFFFFF;}
	.st81{clip-path:url(#SVGID_126_);}
	.st82{clip-path:url(#SVGID_128_);fill:#FFFFFF;}
	.st83{clip-path:url(#SVGID_130_);}
	.st84{clip-path:url(#SVGID_132_);fill:#1C3272;}
	.st85{clip-path:url(#SVGID_134_);}
	.st86{clip-path:url(#SVGID_136_);fill:#1C3272;}
	.st87{clip-path:url(#SVGID_138_);}
	.st88{clip-path:url(#SVGID_140_);fill:#EAEBEE;}
	.st89{clip-path:url(#SVGID_142_);}
	.st90{clip-path:url(#SVGID_144_);fill:#EAEBEE;}
	.st91{clip-path:url(#SVGID_146_);}
	.st92{clip-path:url(#SVGID_148_);fill:#EAEBEE;}
	.st93{clip-path:url(#SVGID_150_);}
	.st94{clip-path:url(#SVGID_152_);fill:#1C3272;}
	.st95{clip-path:url(#SVGID_154_);}
	.st96{clip-path:url(#SVGID_156_);fill:#3157C2;}
	.st97{fill:#508CEB;}
	.st98{fill:#1C3272;}
	.st99{fill:#A5AAB3;}
	.st100{fill:#F5F5F6;}
	.st101{fill:#F5F6FF;}
	.st102{clip-path:url(#SVGID_158_);}
	.st103{clip-path:url(#SVGID_160_);fill:#ECEDF0;}
	.st104{clip-path:url(#SVGID_162_);}
	.st105{clip-path:url(#SVGID_164_);fill:#FFFFFF;}
	.st106{clip-path:url(#SVGID_166_);}
	.st107{clip-path:url(#SVGID_168_);fill:#FFFFFF;}
	.st108{clip-path:url(#SVGID_170_);}
	.st109{clip-path:url(#SVGID_172_);fill:#1C3272;}
	.st110{clip-path:url(#SVGID_174_);}
	.st111{clip-path:url(#SVGID_176_);fill:#1C3272;}
	.st112{clip-path:url(#SVGID_178_);}
	.st113{clip-path:url(#SVGID_180_);fill:#ECEDF0;}
	.st114{clip-path:url(#SVGID_182_);}
	.st115{clip-path:url(#SVGID_184_);fill:#ECEDF0;}
	.st116{clip-path:url(#SVGID_186_);}
	.st117{clip-path:url(#SVGID_188_);fill:#ECEDF0;}
	.st118{clip-path:url(#SVGID_190_);}
	.st119{clip-path:url(#SVGID_192_);fill:#1C3272;}
	.st120{clip-path:url(#SVGID_194_);}
	.st121{clip-path:url(#SVGID_196_);fill:#3157C4;}
	.st122{fill:none;stroke:#555E66;stroke-miterlimit:10;}
	.st123{fill:#E0E5E7;}
	.st124{clip-path:url(#SVGID_198_);}
	.st125{clip-path:url(#SVGID_200_);fill:#FFFFFF;}
	.st126{clip-path:url(#SVGID_202_);}
	.st127{clip-path:url(#SVGID_204_);fill:#FFFFFF;}
	.st128{clip-path:url(#SVGID_206_);}
	.st129{clip-path:url(#SVGID_208_);fill:#1C3272;}
	.st130{clip-path:url(#SVGID_210_);}
	.st131{clip-path:url(#SVGID_212_);fill:#1C3272;}
	.st132{clip-path:url(#SVGID_214_);}
	.st133{clip-path:url(#SVGID_216_);fill:#ECEDF0;}
	.st134{clip-path:url(#SVGID_218_);}
	.st135{clip-path:url(#SVGID_220_);fill:#ECEDF0;}
	.st136{clip-path:url(#SVGID_222_);}
	.st137{clip-path:url(#SVGID_224_);fill:#ECEDF0;}
	.st138{clip-path:url(#SVGID_226_);}
	.st139{clip-path:url(#SVGID_228_);fill:#1C3272;}
	.st140{clip-path:url(#SVGID_230_);}
	.st141{clip-path:url(#SVGID_232_);fill:#3157C4;}
</style>
<g>
	<g>
		<g>
			<path class="st16" d="M22.6,19v-1.4c1.1,0,2.1-0.9,2.1-2.1v-2.7c0-1.1-0.9-2.1-2.1-2.1h-2.1c-0.3,0-0.6-0.2-0.7-0.5l-1.1-4.5
				c-0.1-0.2-0.3-0.4-0.6-0.4H7.8c-0.3,0-0.6,0.2-0.6,0.5l-1,4.5c-0.1,0.3-0.3,0.5-0.7,0.5H3.4c-1.1,0-2.1,0.9-2.1,2.1v2.7
				c0,1.1,0.9,2.1,2.1,2.1V19C1.5,19,0,17.5,0,15.6v-2.7c0-1.9,1.5-3.4,3.4-3.4h1.5l0.9-4c0.3-0.9,1.1-1.5,2-1.5h10.3
				c0.9,0,1.7,0.6,1.9,1.4l1,4.1h1.5c1.9,0,3.4,1.5,3.4,3.4v2.7C26,17.5,24.5,19,22.6,19z"/>
		</g>
		<g>
			<path class="st16" d="M7.5,22.1c-2.1,0-3.8-1.7-3.8-3.8s1.7-3.8,3.8-3.8s3.8,1.7,3.8,3.8S9.6,22.1,7.5,22.1z M7.5,15.9
				c-1.3,0-2.4,1.1-2.4,2.4s1.1,2.4,2.4,2.4s2.4-1.1,2.4-2.4S8.8,15.9,7.5,15.9z"/>
		</g>
		<g>
			<path class="st16" d="M18.5,22.1c-2.1,0-3.8-1.7-3.8-3.8s1.7-3.8,3.8-3.8s3.8,1.7,3.8,3.8S20.5,22.1,18.5,22.1z M18.5,15.9
				c-1.3,0-2.4,1.1-2.4,2.4s1.1,2.4,2.4,2.4s2.4-1.1,2.4-2.4S19.8,15.9,18.5,15.9z"/>
		</g>
		<g>
			<rect x="11.9" y="17.6" class="st16" width="2.3" height="1.4"/>
		</g>
	</g>
	<g>
		<path class="st16" d="M17.8,11h-4.4c-0.4,0-0.7-0.3-0.7-0.7V6.8c0-0.4,0.3-0.7,0.7-0.7h3.8c0.3,0,0.6,0.2,0.7,0.6l0.6,3.5
			c0,0.2,0,0.4-0.2,0.6C18.2,11,18,11,17.8,11z M14,9.7H17l-0.4-2.1H14V9.7z"/>
	</g>
	<g>
		<rect x="23.3" y="14" class="st16" width="2" height="1.4"/>
	</g>
</g>
<g>
	<g>
		<defs>
			<path id="SVGID_157_" d="M102,148.7c3,0,5.5-1.7,5.5-3.8v-1c0-2.1-2.5-3.8-5.5-3.8H-28.6c-3,0-5.5,1.7-5.5,3.8v1
				c0,2.1,2.5,3.8,5.5,3.8h19.4c3,0,5.5,1.4,5.5,3c0,1.7-2.5,3-5.5,3h-12.7c-3,0-5.5,1.1-5.5,2.5c0,1.3,2.5,2.5,5.5,2.5H99
				c3,0,5.5-1.1,5.5-2.5c0-1.3-2.5-2.5-5.5-2.5h-5.6c-3,0-5.5-1.4-5.5-3c0-1.7,2.5-3,5.5-3H102z"/>
		</defs>
		<clipPath id="SVGID_2_">
			<use xlink:href="#SVGID_157_"  style="overflow:visible;"/>
		</clipPath>
		<g class="st17">
			<defs>
				<rect id="SVGID_159_" x="-240.7" y="-118" width="550.9" height="1389.5"/>
			</defs>
			<clipPath id="SVGID_4_">
				<use xlink:href="#SVGID_159_"  style="overflow:visible;"/>
			</clipPath>
		</g>
	</g>
	<g>
		<g>
			<defs>
				<rect id="SVGID_161_" x="11.4" y="88.2" width="6.1" height="13.4"/>
			</defs>
			<use xlink:href="#SVGID_161_"  style="overflow:visible;fill:#FFFFFF;"/>
			<clipPath id="SVGID_6_">
				<use xlink:href="#SVGID_161_"  style="overflow:visible;"/>
			</clipPath>
			<g class="st19">
				<defs>
					<rect id="SVGID_163_" x="-159.4" y="-798" width="400.7" height="1131"/>
				</defs>
				<use xlink:href="#SVGID_163_"  style="overflow:visible;fill:#FFFFFF;"/>
				<clipPath id="SVGID_8_">
					<use xlink:href="#SVGID_163_"  style="overflow:visible;"/>
				</clipPath>
			</g>
		</g>
		<g>
			<defs>
				<path id="SVGID_165_" d="M53.6,93.3h0.1l17,10.5l-0.5,0.5c-2.4,2.4-5.6,3-8.3,1.4l-9.7-4.7h-6.4c1.6,1.1,2.6,3,2.6,5v0.6H29.7
					c-1.8,0-3.5-0.8-4.8-2l-7.7-7.7l0-8.9h8.2L53.6,93.3z"/>
			</defs>
			<clipPath id="SVGID_10_">
				<use xlink:href="#SVGID_165_"  style="overflow:visible;"/>
			</clipPath>
			<g class="st21">
				<defs>
					<rect id="SVGID_167_" x="-232.3" y="-1001" width="550.9" height="1389.5"/>
				</defs>
				<clipPath id="SVGID_12_">
					<use xlink:href="#SVGID_167_"  style="overflow:visible;"/>
				</clipPath>
			</g>
		</g>
		<g>
			<defs>
				<path id="SVGID_169_" d="M18.4,96.2l7.4,7.4c1,1.1,2.4,1.7,3.9,1.7h17.4c-0.3-2.6-2.5-4.4-5.1-4.4h-6.7v-1.2h17.1l10,4.8
					c2.1,1.2,4.4,0.9,6.4-0.7l-15.5-9.6l-28-5.4h-7L18.4,96.2z M53.6,93.3h0.1l17,10.5l-0.5,0.5c-2.4,2.4-5.6,3-8.3,1.4l-9.7-4.7
					h-6.4c1.6,1.1,2.6,3,2.6,5v0.6H29.7c-1.8,0-3.5-0.8-4.8-2l-7.7-7.7l0-8.9h8.2L53.6,93.3z"/>
			</defs>
			<use xlink:href="#SVGID_169_"  style="overflow:visible;fill-rule:evenodd;clip-rule:evenodd;fill:#1C3272;"/>
			<clipPath id="SVGID_14_">
				<use xlink:href="#SVGID_169_"  style="overflow:visible;"/>
			</clipPath>
			<g class="st24">
				<defs>
					<rect id="SVGID_171_" x="-232.3" y="-1001" width="550.9" height="1389.5"/>
				</defs>
				<use xlink:href="#SVGID_171_"  style="overflow:visible;fill:#1C3272;"/>
				<clipPath id="SVGID_16_">
					<use xlink:href="#SVGID_171_"  style="overflow:visible;"/>
				</clipPath>
			</g>
		</g>
		<g>
			<defs>
				<path id="SVGID_173_" d="M47.2,102.7l-0.5,1l11.5,5.8c0.8,0.4,1.6,0.6,2.5,0.8c1.5,0.3,3-0.1,4.3-0.9c0.5-0.4,1-0.8,1.3-1.3
					l0.3-0.5l-4.1-2.8l-0.7,1l3.1,2.1c-0.2,0.2-0.4,0.4-0.7,0.6c-1,0.7-2.2,0.9-3.4,0.7c-0.7-0.1-1.5-0.3-2.2-0.6L47.2,102.7z"/>
			</defs>
			<use xlink:href="#SVGID_173_"  style="overflow:visible;fill-rule:evenodd;clip-rule:evenodd;fill:#1C3272;"/>
			<clipPath id="SVGID_18_">
				<use xlink:href="#SVGID_173_"  style="overflow:visible;"/>
			</clipPath>
			<g class="st26">
				<defs>
					<rect id="SVGID_175_" x="-232.3" y="-1001" width="550.9" height="1389.5"/>
				</defs>
				<use xlink:href="#SVGID_175_"  style="overflow:visible;fill:#1C3272;"/>
				<clipPath id="SVGID_20_">
					<use xlink:href="#SVGID_175_"  style="overflow:visible;"/>
				</clipPath>
			</g>
		</g>
		<g>
			<defs>
				<path id="SVGID_177_" d="M61.1,106.8l1.6,1.1c-0.6,0.2-1.2,0.3-1.8,0.2c-0.6-0.1-1.2-0.3-1.8-0.5l-10.1-5.1h2.8L61.1,106.8z"/>
			</defs>
			<clipPath id="SVGID_22_">
				<use xlink:href="#SVGID_177_"  style="overflow:visible;"/>
			</clipPath>
			<g class="st28">
				<defs>
					<rect id="SVGID_179_" x="-232.3" y="-1001" width="550.9" height="1389.5"/>
				</defs>
				<clipPath id="SVGID_24_">
					<use xlink:href="#SVGID_179_"  style="overflow:visible;"/>
				</clipPath>
			</g>
		</g>
		<g>
			<defs>
				<path id="SVGID_181_" d="M35.5,102h6.6c1.4,0,2.7,0.7,3.4,1.9h-9.9L35.5,102z"/>
			</defs>
			<clipPath id="SVGID_26_">
				<use xlink:href="#SVGID_181_"  style="overflow:visible;"/>
			</clipPath>
			<g class="st30">
				<defs>
					<rect id="SVGID_183_" x="-232.3" y="-1001" width="550.9" height="1389.5"/>
				</defs>
				<clipPath id="SVGID_28_">
					<use xlink:href="#SVGID_183_"  style="overflow:visible;"/>
				</clipPath>
			</g>
		</g>
		<g>
			<defs>
				<path id="SVGID_185_" d="M63,103.7l-0.1-0.1l-0.1,0l-10-6.2L25.1,92h-5.7v-1.9h5.7l27.7,5.4l13.7,8.5
					C65.4,104.4,64,104.3,63,103.7z"/>
			</defs>
			<clipPath id="SVGID_30_">
				<use xlink:href="#SVGID_185_"  style="overflow:visible;"/>
			</clipPath>
			<g class="st32">
				<defs>
					<rect id="SVGID_187_" x="-232.3" y="-1001" width="550.9" height="1389.5"/>
				</defs>
				<clipPath id="SVGID_32_">
					<use xlink:href="#SVGID_187_"  style="overflow:visible;"/>
				</clipPath>
			</g>
		</g>
		<g>
			<defs>
				<polygon id="SVGID_189_" points="18.3,87.8 9.5,87.8 9.5,89 17.1,89 17.1,100.8 9.5,100.8 9.5,102 18.3,102 				"/>
			</defs>
			<use xlink:href="#SVGID_189_"  style="overflow:visible;fill-rule:evenodd;clip-rule:evenodd;fill:#1C3272;"/>
			<clipPath id="SVGID_34_">
				<use xlink:href="#SVGID_189_"  style="overflow:visible;"/>
			</clipPath>
			<g class="st34">
				<defs>
					<rect id="SVGID_191_" x="-232.3" y="-1001" width="550.9" height="1389.5"/>
				</defs>
				<use xlink:href="#SVGID_191_"  style="overflow:visible;fill:#1C3272;"/>
				<clipPath id="SVGID_36_">
					<use xlink:href="#SVGID_191_"  style="overflow:visible;"/>
				</clipPath>
			</g>
		</g>
		<g>
			<defs>
				<rect id="SVGID_193_" x="2.6" y="87.8" width="8.4" height="16.5"/>
			</defs>
			<clipPath id="SVGID_38_">
				<use xlink:href="#SVGID_193_"  style="overflow:visible;"/>
			</clipPath>
			<g class="st36">
				<defs>
					<rect id="SVGID_195_" x="-232.3" y="-1001" width="550.9" height="1389.5"/>
				</defs>
				<clipPath id="SVGID_40_">
					<use xlink:href="#SVGID_195_"  style="overflow:visible;"/>
				</clipPath>
			</g>
		</g>
	</g>
	<g>
		<g>
			<defs>
				<rect id="SVGID_197_" x="60.4" y="160.7" width="6.1" height="13.4"/>
			</defs>
			<use xlink:href="#SVGID_197_"  style="overflow:visible;fill:#FFFFFF;"/>
			<clipPath id="SVGID_42_">
				<use xlink:href="#SVGID_197_"  style="overflow:visible;"/>
			</clipPath>
			<g class="st38">
				<defs>
					<rect id="SVGID_199_" x="-163.3" y="-70.7" width="400.7" height="1131"/>
				</defs>
				<use xlink:href="#SVGID_199_"  style="overflow:visible;fill:#FFFFFF;"/>
				<clipPath id="SVGID_44_">
					<use xlink:href="#SVGID_199_"  style="overflow:visible;"/>
				</clipPath>
			</g>
		</g>
		<g>
			<defs>
				<path id="SVGID_201_" d="M24.3,169h-0.1l-17-10.5l0.5-0.5c2.4-2.4,5.6-3,8.3-1.4l9.7,4.7h6.4c-1.6-1.1-2.6-3-2.6-5v-0.6h18.6
					c1.8,0,3.5,0.8,4.8,2l7.7,7.7l0,8.9h-8.2L24.3,169z"/>
			</defs>
			<clipPath id="SVGID_46_">
				<use xlink:href="#SVGID_201_"  style="overflow:visible;"/>
			</clipPath>
			<g class="st40">
				<defs>
					<rect id="SVGID_203_" x="-240.7" y="-126.3" width="550.9" height="1389.5"/>
				</defs>
				<clipPath id="SVGID_48_">
					<use xlink:href="#SVGID_203_"  style="overflow:visible;"/>
				</clipPath>
			</g>
		</g>
		<g>
			<defs>
				<path id="SVGID_205_" d="M59.6,166l-7.4-7.4c-1-1.1-2.4-1.7-3.9-1.7H30.8c0.3,2.6,2.5,4.4,5.1,4.4h6.7v1.2H25.5l-10-4.8
					c-2.1-1.2-4.4-0.9-6.4,0.7l15.5,9.6l28,5.4h7L59.6,166z M24.3,169h-0.1l-17-10.5l0.5-0.5c2.4-2.4,5.6-3,8.3-1.4l9.7,4.7h6.4
					c-1.6-1.1-2.6-3-2.6-5v-0.6h18.6c1.8,0,3.5,0.8,4.8,2l7.7,7.7l0,8.9h-8.2L24.3,169z"/>
			</defs>
			<use xlink:href="#SVGID_205_"  style="overflow:visible;fill-rule:evenodd;clip-rule:evenodd;fill:#1C3272;"/>
			<clipPath id="SVGID_50_">
				<use xlink:href="#SVGID_205_"  style="overflow:visible;"/>
			</clipPath>
			<g class="st42">
				<defs>
					<rect id="SVGID_207_" x="-240.7" y="-126.3" width="550.9" height="1389.5"/>
				</defs>
				<use xlink:href="#SVGID_207_"  style="overflow:visible;fill:#1C3272;"/>
				<clipPath id="SVGID_52_">
					<use xlink:href="#SVGID_207_"  style="overflow:visible;"/>
				</clipPath>
			</g>
		</g>
		<g>
			<defs>
				<path id="SVGID_209_" d="M30.8,159.5l0.5-1l-11.5-5.8c-0.8-0.4-1.6-0.6-2.5-0.8c-1.5-0.3-3,0.1-4.3,0.9c-0.5,0.4-1,0.8-1.3,1.3
					l-0.3,0.5l4.1,2.8l0.7-1l-3.1-2.1c0.2-0.2,0.4-0.4,0.7-0.6c1-0.7,2.2-0.9,3.4-0.7c0.7,0.1,1.5,0.3,2.2,0.6L30.8,159.5z"/>
			</defs>
			<use xlink:href="#SVGID_209_"  style="overflow:visible;fill-rule:evenodd;clip-rule:evenodd;fill:#1C3272;"/>
			<clipPath id="SVGID_54_">
				<use xlink:href="#SVGID_209_"  style="overflow:visible;"/>
			</clipPath>
			<g class="st44">
				<defs>
					<rect id="SVGID_211_" x="-240.7" y="-126.3" width="550.9" height="1389.5"/>
				</defs>
				<use xlink:href="#SVGID_211_"  style="overflow:visible;fill:#1C3272;"/>
				<clipPath id="SVGID_56_">
					<use xlink:href="#SVGID_211_"  style="overflow:visible;"/>
				</clipPath>
			</g>
		</g>
		<g>
			<defs>
				<path id="SVGID_213_" d="M16.9,155.5l-1.6-1.1c0.6-0.2,1.2-0.3,1.8-0.2c0.6,0.1,1.2,0.3,1.8,0.5l10.1,5.1h-2.8L16.9,155.5z"/>
			</defs>
			<clipPath id="SVGID_58_">
				<use xlink:href="#SVGID_213_"  style="overflow:visible;"/>
			</clipPath>
			<g class="st46">
				<defs>
					<rect id="SVGID_215_" x="-240.7" y="-126.3" width="550.9" height="1389.5"/>
				</defs>
				<clipPath id="SVGID_60_">
					<use xlink:href="#SVGID_215_"  style="overflow:visible;"/>
				</clipPath>
			</g>
		</g>
		<g>
			<defs>
				<path id="SVGID_217_" d="M42.4,160.3h-6.6c-1.4,0-2.7-0.7-3.4-1.9h9.9L42.4,160.3z"/>
			</defs>
			<clipPath id="SVGID_62_">
				<use xlink:href="#SVGID_217_"  style="overflow:visible;"/>
			</clipPath>
			<g class="st48">
				<defs>
					<rect id="SVGID_219_" x="-240.7" y="-126.3" width="550.9" height="1389.5"/>
				</defs>
				<clipPath id="SVGID_64_">
					<use xlink:href="#SVGID_219_"  style="overflow:visible;"/>
				</clipPath>
			</g>
		</g>
		<g>
			<defs>
				<path id="SVGID_221_" d="M15,158.6l0.1,0.1l0.1,0l10,6.2l27.7,5.4h5.7v1.9h-5.7l-27.7-5.4l-13.7-8.5
					C12.6,157.8,13.9,157.9,15,158.6z"/>
			</defs>
			<clipPath id="SVGID_66_">
				<use xlink:href="#SVGID_221_"  style="overflow:visible;"/>
			</clipPath>
			<g class="st50">
				<defs>
					<rect id="SVGID_223_" x="-240.7" y="-126.3" width="550.9" height="1389.5"/>
				</defs>
				<clipPath id="SVGID_68_">
					<use xlink:href="#SVGID_223_"  style="overflow:visible;"/>
				</clipPath>
			</g>
		</g>
		<g>
			<defs>
				<polygon id="SVGID_225_" points="59.6,174.4 68.4,174.4 68.4,173.3 60.8,173.3 60.8,161.5 68.4,161.5 68.4,160.3 59.6,160.3 
									"/>
			</defs>
			<use xlink:href="#SVGID_225_"  style="overflow:visible;fill-rule:evenodd;clip-rule:evenodd;fill:#1C3272;"/>
			<clipPath id="SVGID_70_">
				<use xlink:href="#SVGID_225_"  style="overflow:visible;"/>
			</clipPath>
			<g class="st52">
				<defs>
					<rect id="SVGID_227_" x="-240.7" y="-126.3" width="550.9" height="1389.5"/>
				</defs>
				<use xlink:href="#SVGID_227_"  style="overflow:visible;fill:#1C3272;"/>
				<clipPath id="SVGID_72_">
					<use xlink:href="#SVGID_227_"  style="overflow:visible;"/>
				</clipPath>
			</g>
		</g>
		<g>
			<defs>
				<rect id="SVGID_229_" x="66.9" y="158" width="8.4" height="16.5"/>
			</defs>
			<clipPath id="SVGID_74_">
				<use xlink:href="#SVGID_229_"  style="overflow:visible;"/>
			</clipPath>
			<g class="st54">
				<defs>
					<rect id="SVGID_231_" x="-240.7" y="-126.3" width="550.9" height="1389.5"/>
				</defs>
				<clipPath id="SVGID_76_">
					<use xlink:href="#SVGID_231_"  style="overflow:visible;"/>
				</clipPath>
			</g>
		</g>
	</g>
</g>
</svg>
