<?xml version="1.0" encoding="utf-8"?>
<!-- Generator: Adobe Illustrator 23.0.1, SVG Export Plug-In . SVG Version: 6.00 Build 0)  -->
<svg version="1.1" xmlns="http://www.w3.org/2000/svg" xmlns:xlink="http://www.w3.org/1999/xlink" x="0px" y="0px"
	 viewBox="0 0 60 60" style="enable-background:new 0 0 60 60;" xml:space="preserve">
<style type="text/css">
	.st0{fill:#ECF9FF;}
	.st1{fill:#FFFFFF;}
	.st2{fill:#535D66;}
	.st3{fill-rule:evenodd;clip-rule:evenodd;fill:#ECF9FF;}
	.st4{fill-rule:evenodd;clip-rule:evenodd;fill:#FFFFFF;}
	.st5{fill-rule:evenodd;clip-rule:evenodd;fill:#00ADEE;}
	.st6{fill-rule:evenodd;clip-rule:evenodd;}
	.st7{fill:#00ADEE;}
	.st8{fill:#808099;}
	.st9{fill:#FFC037;}
	.st10{fill:#FF7108;}
	.st11{fill:#AEFFCF;}
	.st12{fill:#0BD360;}
	.st13{fill:#343434;}
	.st14{fill-rule:evenodd;clip-rule:evenodd;fill:#104EFF;}
	.st15{fill:#002E75;}
	.st16{fill:#0855C4;}
	.st17{fill:#99E2FF;}
	.st18{fill:#AED3FF;}
	.st19{fill:#231F20;}
	.st20{fill:#EFF1F4;}
	.st21{clip-path:url(#SVGID_2_);}
	.st22{fill:#8EEA00;}
	.st23{fill-rule:evenodd;clip-rule:evenodd;fill:#8EEA00;}
	.st24{fill:#0021CE;}
	.st25{fill:#104EFF;}
	.st26{fill:#303030;}
	.st27{fill:#00E1CF;}
	.st28{fill-rule:evenodd;clip-rule:evenodd;fill:#0BD360;}
	.st29{fill-rule:evenodd;clip-rule:evenodd;fill:#00E1CF;}
	.st30{fill:none;stroke:#5C006A;stroke-width:1.29;stroke-linecap:round;stroke-linejoin:round;}
	.st31{fill:#B6FFD3;}
	.st32{clip-path:url(#SVGID_4_);}
	.st33{fill:#DFE6E8;}
	.st34{fill:#B3B3B3;}
	.st35{fill:#96E0FD;}
	.st36{fill:#0ED160;}
	.st37{fill:#08A8FD;}
	.st38{fill:#6EEE89;}
	.st39{fill:#DFF8F5;}
	.st40{clip-path:url(#SVGID_6_);fill:#96E0FD;}
	.st41{fill:#F5F5F6;}
	.st42{fill:none;stroke:#002E75;stroke-width:1.5207;stroke-linecap:round;stroke-linejoin:round;}
	.st43{fill:#E9EAEB;}
	.st44{clip-path:url(#SVGID_8_);fill:#FFFFFF;}
	.st45{clip-path:url(#SVGID_8_);fill:#FFCF9B;}
	.st46{clip-path:url(#SVGID_8_);fill:#002E75;}
	.st47{clip-path:url(#SVGID_8_);fill:#F9BC90;}
	.st48{clip-path:url(#SVGID_8_);fill:#0ED160;}
	.st49{fill-rule:evenodd;clip-rule:evenodd;fill:#002E75;}
	.st50{fill-rule:evenodd;clip-rule:evenodd;fill:#0ED160;}
	.st51{fill-rule:evenodd;clip-rule:evenodd;fill:#DFE6E8;}
	.st52{fill-rule:evenodd;clip-rule:evenodd;fill:#DCE6E8;}
	.st53{fill-rule:evenodd;clip-rule:evenodd;fill:#6EEE89;}
	.st54{fill-rule:evenodd;clip-rule:evenodd;fill:#FFC037;}
	.st55{fill:#F4F4F5;}
	.st56{fill:#606060;}
	.st57{fill-rule:evenodd;clip-rule:evenodd;fill:#005EA1;}
	.st58{fill-rule:evenodd;clip-rule:evenodd;fill:#00A5D8;}
	.st59{fill:#444444;}
	.st60{clip-path:url(#SVGID_10_);}
	.st61{clip-path:url(#SVGID_12_);}
	.st62{clip-path:url(#SVGID_14_);}
	.st63{clip-path:url(#SVGID_16_);}
	.st64{clip-path:url(#SVGID_18_);}
	.st65{clip-path:url(#SVGID_20_);}
</style>
<g id="Layer_3">
</g>
<g id="Layer_1">
</g>
<g id="Layer_2">
</g>
<g id="Layer_4">
</g>
<g id="Layer_5">
</g>
<g id="Isolation_Mode">
</g>
<g id="Art">
</g>
<g id="Capa_8">
	<path class="st15" d="M50.8,41.4h-0.2c-0.3,0-0.6-0.2-0.7-0.6c-0.8-3-3.5-5-6.5-5c-1.3,0-2.6,0.4-3.7,1.1C39.5,37,39.4,37,39.2,37
		h-1.8c-0.6,0-1.1-0.5-1.1-1.1V19.4c0-0.4,0.3-0.8,0.8-0.8h8.3c1.5,0,2.8,0.9,3.3,2.3l2.7,7.1c0.1,0.3,0.1,0.5,0.1,0.8l0,7
		c0,0,0,0,0,0.1c0,0.3-0.1,0.5-0.3,0.7C51,36.9,50.8,37,50.5,37c-0.1,0-0.1,0.1-0.1,0.2c0,0.1,0.1,0.2,0.2,0.2h0.3
		c0.4,0,0.8,0.3,0.8,0.8v2.5C51.6,41,51.2,41.4,50.8,41.4z M43.3,34.2c2.1,0,4.1,0.8,5.6,2.2c0.2-0.5,0.6-0.8,1.1-0.9v-6.6
		c0-0.1,0-0.2-0.1-0.3l-2.7-7.1c-0.3-0.8-1.1-1.3-1.9-1.3h-7.5v15.3H39c0.7-0.4,1.5-0.8,2.3-1h-1.4c-0.9,0.1-1.7-0.6-1.8-1.5
		c-0.1-0.9,0.6-1.8,1.5-1.9c0.1,0,0.2,0,0.4,0l2.4,0c1,0.1,1.7,0.9,1.6,1.9c-0.1,0.5-0.4,1-0.8,1.3C43.3,34.2,43.3,34.2,43.3,34.2z
		 M50.5,35.5C50.5,35.5,50.5,35.5,50.5,35.5C50.5,35.5,50.5,35.5,50.5,35.5C50.5,35.5,50.5,35.5,50.5,35.5z M39.8,32.6L39.8,32.6
		c-0.1,0-0.2,0.1-0.2,0.2c0,0.1,0.1,0.2,0.2,0.2l2.5,0c0.1,0,0.1-0.1,0.1-0.2c0-0.1-0.1-0.2-0.2-0.2l-2.4,0l0,0
		C39.9,32.6,39.8,32.6,39.8,32.6z M47.4,30.1h-3.9c-0.7,0-1.3-0.2-1.8-0.6l-2.3-1.8c-0.7-0.6-1.1-1.4-1.1-2.3v-3.1
		c0.1-1,0.9-1.7,1.9-1.6c0.8,0.1,1.4,0.7,1.5,1.5l0,3l2,1.6l3.8,0c0.5,0.1,0.9,0.3,1.2,0.6c0.3,0.4,0.4,0.8,0.4,1.2
		C48.9,29.4,48.3,30.1,47.4,30.1L47.4,30.1z M39.9,22.1c-0.1,0-0.2,0.1-0.2,0.2l0,3.1c0,0.4,0.2,0.8,0.5,1.1l2.3,1.8
		c0.3,0.2,0.6,0.3,0.9,0.3h4c0,0,0.1-0.1,0.1-0.2c0-0.1,0-0.1,0-0.1c0,0-0.1-0.1-0.1-0.1l-3.9,0c-0.2,0-0.5-0.1-0.7-0.3l-2.3-1.8
		c-0.3-0.2-0.4-0.5-0.4-0.9l0-3.1C40.1,22.2,40,22.1,39.9,22.1C39.9,22.1,39.9,22.1,39.9,22.1z M43.7,26.8L43.7,26.8
		C43.8,26.8,43.8,26.8,43.7,26.8z M43.5,26.8C43.5,26.8,43.5,26.8,43.5,26.8L43.5,26.8C43.5,26.8,43.5,26.8,43.5,26.8z M41.6,25.3
		L41.6,25.3C41.6,25.3,41.6,25.3,41.6,25.3z M41.4,25L41.4,25C41.5,25,41.5,25,41.4,25z"/>
	<path class="st15" d="M52.7,28.9c0-0.4-0.1-0.8-0.2-1.2l-2.7-7.1c-0.7-1.8-2.4-3-4.4-3h-9.2c-0.5,0-0.9,0.4-0.9,0.9v7.7L29,31.9
		H18.1c-0.2,0-0.4,0.1-0.6,0.2l-5,4.4c-0.2,0.2-0.3,0.4-0.3,0.7v4.4c0,0.5,0.4,0.9,0.9,0.9c0,0,0,0,0,0h0.6c0.5,0,0.9-0.4,0.9-0.9
		l0,0c0-0.4-0.3-0.7-0.6-0.9v-3l4.4-3.9h16.8V36c0,0.1,0,0.2,0,0.3H25c-0.5-0.1-1,0.3-1,0.8c-0.1,0.5,0.3,1,0.8,1c0.1,0,0.1,0,0.2,0
		h12.3c-0.5,0.7-0.9,1.6-1.2,2.4h-9.3c-0.5-0.1-1,0.3-1,0.8c-0.1,0.5,0.3,1,0.8,1c0.1,0,0.1,0,0.2,0h10h0.1c0.5,0,0.8-0.3,0.9-0.8
		c0.4-3.1,3.3-5.2,6.3-4.8c2.5,0.3,4.4,2.3,4.8,4.8c0.1,0.5,0.5,0.8,0.9,0.8h1.3c0.9,0,1.6-0.7,1.6-1.5c0,0,0,0,0,0v-3.1
		c0-0.3-0.1-0.6-0.3-0.9c0.2-0.3,0.3-0.7,0.3-1L52.7,28.9z M31.7,31.9l3.5-3.2v3.2H31.7z M50.8,40.6h-0.2c-0.9-3.3-3.8-5.6-7.2-5.6
		c-1.5,0-2.9,0.4-4.1,1.2h-1.8c-0.2,0-0.3-0.1-0.3-0.3c0,0,0,0,0,0V19.4h8.3c1.2,0,2.2,0.7,2.6,1.8l2.7,7.1c0.1,0.2,0.1,0.4,0.1,0.5
		v7c0,0.2-0.1,0.3-0.3,0.3c0,0,0,0,0,0c-0.5,0.1-0.9,0.5-0.8,1c0,0.4,0.4,0.8,0.8,0.8h0.3L50.8,40.6z"/>
	<path class="st15" d="M28.6,30.3c0.4,0.4,1,0.4,1.4,0s0.4-1,0-1.4l0,0L17.5,16c-0.3-0.5-0.1-1.1,0.4-1.4c0.3-0.2,0.7-0.2,1,0
		l13.6,12c0.4,0.3,1,0.3,1.3-0.1c0.3-0.4,0.3-1-0.1-1.3c0,0,0,0,0,0L20,13.3c-1.2-1-3-0.8-4,0.4c-0.9,1.1-0.9,2.6,0,3.6L28.6,30.3z"
		/>
	<path class="st15" d="M15,30.6c1.6,0,2.8-1.3,2.8-2.8v-7.5c-0.1-0.5-0.5-0.9-1-0.8c-0.4,0-0.8,0.4-0.8,0.8v7.5c0.1,0.5-0.3,1-0.8,1
		c-0.5,0.1-1-0.3-1-0.8c0-0.1,0-0.1,0-0.2v-0.6c0.1-0.5-0.3-1-0.8-1c-0.5-0.1-1,0.3-1,0.8c0,0.1,0,0.1,0,0.2v0.6
		C12.2,29.4,13.5,30.6,15,30.6z"/>
	<path class="st15" d="M43.3,37.5c-2.8,0-5,2.2-5,5s2.2,5,5,5s5-2.2,5-5S46.1,37.5,43.3,37.5z M43.3,45.6c-1.7,0-3.1-1.4-3.1-3.1
		c0-1.7,1.4-3.1,3.1-3.1c1.7,0,3.1,1.4,3.1,3.1l0,0C46.5,44.2,45.1,45.6,43.3,45.6z"/>
	<path class="st15" d="M20.3,37.5c-2.8,0-5,2.2-5,5s2.2,5,5,5s5-2.2,5-5S23,37.5,20.3,37.5z M20.3,45.6c-1.7,0-3.1-1.4-3.1-3.1
		s1.4-3.1,3.1-3.1c1.7,0,3.1,1.4,3.1,3.1l0,0C23.4,44.2,22,45.6,20.3,45.6z"/>
</g>
</svg>
