<?xml version="1.0" encoding="utf-8"?>
<!-- Generator: Adobe Illustrator 23.0.1, SVG Export Plug-In . SVG Version: 6.00 Build 0)  -->
<svg version="1.1" xmlns="http://www.w3.org/2000/svg" xmlns:xlink="http://www.w3.org/1999/xlink" x="0px" y="0px"
	 viewBox="0 0 60 60" style="enable-background:new 0 0 60 60;" xml:space="preserve">
<style type="text/css">
	.st0{fill:#ECF9FF;}
	.st1{fill:#FFFFFF;}
	.st2{fill:#535D66;}
	.st3{fill-rule:evenodd;clip-rule:evenodd;fill:#ECF9FF;}
	.st4{fill-rule:evenodd;clip-rule:evenodd;fill:#FFFFFF;}
	.st5{fill-rule:evenodd;clip-rule:evenodd;fill:#00ADEE;}
	.st6{fill-rule:evenodd;clip-rule:evenodd;}
	.st7{fill:#00ADEE;}
	.st8{fill:#808099;}
	.st9{fill:#FFC037;}
	.st10{fill:#FF7108;}
	.st11{fill:#AEFFCF;}
	.st12{fill:#0BD360;}
	.st13{fill:#343434;}
	.st14{fill-rule:evenodd;clip-rule:evenodd;fill:#104EFF;}
	.st15{fill:#002E75;}
	.st16{fill:#0855C4;}
	.st17{fill:#99E2FF;}
	.st18{fill:#AED3FF;}
	.st19{fill:#231F20;}
	.st20{fill:#EFF1F4;}
	.st21{clip-path:url(#SVGID_2_);}
	.st22{fill:#8EEA00;}
	.st23{fill-rule:evenodd;clip-rule:evenodd;fill:#8EEA00;}
	.st24{fill:#0021CE;}
	.st25{fill:#104EFF;}
	.st26{fill:#303030;}
	.st27{fill:#00E1CF;}
	.st28{fill-rule:evenodd;clip-rule:evenodd;fill:#0BD360;}
	.st29{fill-rule:evenodd;clip-rule:evenodd;fill:#00E1CF;}
	.st30{fill:none;stroke:#5C006A;stroke-width:1.29;stroke-linecap:round;stroke-linejoin:round;}
	.st31{fill:#B6FFD3;}
	.st32{clip-path:url(#SVGID_4_);}
	.st33{fill:#DFE6E8;}
	.st34{fill:#B3B3B3;}
	.st35{fill:#96E0FD;}
	.st36{fill:#0ED160;}
	.st37{fill:#08A8FD;}
	.st38{fill:#6EEE89;}
	.st39{fill:#DFF8F5;}
	.st40{clip-path:url(#SVGID_6_);fill:#96E0FD;}
	.st41{fill:#F5F5F6;}
	.st42{fill:none;stroke:#002E75;stroke-width:1.5207;stroke-linecap:round;stroke-linejoin:round;}
	.st43{fill:#E9EAEB;}
	.st44{clip-path:url(#SVGID_8_);fill:#FFFFFF;}
	.st45{clip-path:url(#SVGID_8_);fill:#FFCF9B;}
	.st46{clip-path:url(#SVGID_8_);fill:#002E75;}
	.st47{clip-path:url(#SVGID_8_);fill:#F9BC90;}
	.st48{clip-path:url(#SVGID_8_);fill:#0ED160;}
	.st49{fill-rule:evenodd;clip-rule:evenodd;fill:#002E75;}
	.st50{fill-rule:evenodd;clip-rule:evenodd;fill:#0ED160;}
	.st51{fill-rule:evenodd;clip-rule:evenodd;fill:#DFE6E8;}
	.st52{fill-rule:evenodd;clip-rule:evenodd;fill:#DCE6E8;}
	.st53{fill-rule:evenodd;clip-rule:evenodd;fill:#6EEE89;}
	.st54{fill-rule:evenodd;clip-rule:evenodd;fill:#FFC037;}
	.st55{fill:#F4F4F5;}
	.st56{fill:#606060;}
	.st57{fill-rule:evenodd;clip-rule:evenodd;fill:#005EA1;}
	.st58{fill-rule:evenodd;clip-rule:evenodd;fill:#00A5D8;}
	.st59{fill:#444444;}
	.st60{clip-path:url(#SVGID_10_);}
	.st61{clip-path:url(#SVGID_12_);}
	.st62{clip-path:url(#SVGID_14_);}
	.st63{clip-path:url(#SVGID_16_);}
	.st64{clip-path:url(#SVGID_18_);}
	.st65{clip-path:url(#SVGID_20_);}
</style>
<g id="Layer_3">
</g>
<g id="Layer_1">
</g>
<g id="Layer_2">
</g>
<g id="Layer_4">
</g>
<g id="Layer_5">
</g>
<g id="Isolation_Mode">
</g>
<g id="Art">
</g>
<g id="Capa_8">
	<path class="st15" d="M30.2,36.4c-0.2,0-0.3,0-0.5,0c-1.7,0.1-3.4-0.5-4.6-1.8c-0.2-0.2-0.3-0.5-0.2-0.8c0.2-0.7,0.3-1.4,0.2-2.2
		c0-0.3,0.1-0.5,0.3-0.7c0.2-0.2,0.5-0.2,0.8-0.1c2.1,1.1,4.7,1,6.8-0.1c0.2-0.1,0.5-0.1,0.8,0c0.2,0.2,0.4,0.4,0.3,0.7
		c-0.1,0.8,0,1.5,0.2,2.3c0.1,0.2,0,0.5-0.2,0.7C33.2,35.7,31.7,36.4,30.2,36.4z M29.7,34.9C29.7,34.9,29.7,34.9,29.7,34.9
		c1.2,0.1,2.3-0.3,3.2-1c-0.1-0.4-0.1-0.8-0.1-1.1c-1.9,0.7-4,0.7-6,0c0,0.4-0.1,0.8-0.2,1.1C27.4,34.6,28.5,35,29.7,34.9
		C29.6,34.9,29.7,34.9,29.7,34.9z"/>
	<path class="st15" d="M21.6,16.8c0.5,0,0.9-0.4,0.9-0.9l0,0c0-3.1,2.5-5.3,6-5.3H31c3.5,0,6,2.2,6,5.3c0,0.5,0.4,0.9,0.9,0.9
		c0.5,0,0.9-0.4,0.9-0.9c0-4.2-3.3-7.2-7.8-7.2h-2.5c-4.5,0-7.8,3-7.8,7.2C20.7,16.4,21.1,16.8,21.6,16.8z"/>
	<path class="st15" d="M20.8,20.2c0.5,1,1.8,1.5,2.8,1c1.9-0.8,4-1.2,6.1-1.2c2.1,0.1,4.2,0.5,6.1,1.4c1.1,0.4,2.3,0,2.8-1l0.7-1.5
		c0.2-0.5,0-1-0.4-1.3c-0.5-0.2-1-0.1-1.3,0.4c0,0,0,0,0,0l-0.7,1.4c-0.1,0.1-0.2,0.2-0.4,0.1c-2.2-0.9-4.5-1.4-6.8-1.5
		c-2.4,0-4.7,0.5-6.8,1.4c-0.1,0.1-0.3,0-0.4-0.1L21.8,18c-0.2-0.5-0.8-0.7-1.2-0.4c0,0,0,0,0,0c-0.5,0.2-0.7,0.8-0.4,1.3L20.8,20.2
		z"/>
	<path class="st15" d="M34.9,15.6c-0.4-0.1-4.2-0.6-5.2-0.6s-4.7,0.6-5.2,0.6c-0.5,0.1-0.9,0.6-0.8,1.1s0.6,0.9,1.1,0.8l0,0
		c1.5-0.2,4.2-0.6,4.9-0.6s3.3,0.4,4.9,0.6h0.2c0.5,0,0.9-0.4,0.9-0.9C35.7,16,35.3,15.6,34.9,15.6L34.9,15.6z"/>
	<path class="st15" d="M18.4,36.2c0.1,0,0.2,0,0.4-0.1l4.7-1.9c1.4,2.3,3.3,3.2,6.2,3.2s4.8-1,6.2-3.2l4.7,1.9
		c0.1,0,0.2,0.1,0.3,0.1c0.4,0,0.7-0.2,0.9-0.6c0.2-0.5,0-1-0.5-1.2c0,0,0,0,0,0L35.4,32c0-0.7,0.1-1.4,0.2-2c1-1.1,1.7-2.4,2.1-3.8
		c0.2-1.1,0.4-2.2,0.5-3.4c0-0.5-0.3-1-0.9-1c0,0,0,0,0,0c-0.5,0-0.9,0.4-1,0.9c-0.1,1-0.2,2.1-0.4,3.1c-0.8,3.4-4.3,5.5-7.7,4.6
		c-2.3-0.6-4.1-2.3-4.6-4.6c-0.2-1-0.3-2-0.4-3.1c-0.1-0.5-0.5-0.9-1-0.9c-0.5,0-0.9,0.5-0.9,1c0,0,0,0,0,0c0.1,1.1,0.2,2.3,0.5,3.4
		c0.3,1.4,1.1,2.8,2.1,3.8c0.2,0.6,0.3,1.3,0.3,2l-6.1,2.4c-0.5,0.2-0.7,0.7-0.5,1.2c0,0,0,0,0,0C17.7,36,18,36.2,18.4,36.2z
		 M33.5,31.5c-0.1,0.8,0,1.7,0.2,2.5c-1,1.1-2.5,1.7-4,1.5c-1.5,0.1-3-0.4-4-1.5c0.3-0.8,0.3-1.7,0.3-2.5
		C28.4,32.8,31.2,32.8,33.5,31.5L33.5,31.5z"/>
	<path class="st15" d="M49.1,44.4h-3.4l-0.7-0.7V42l0.7-0.7h3.4c0.5,0,1-0.4,1-0.9c0-0.2,0-0.4-0.1-0.5c-1.1-2.2-3.4-3.6-5.8-3.6
		c-2.3,0-4.4,1.2-5.6,3.1H20.9c-1.2-1.9-3.3-3.1-5.6-3.1c-2.5,0-4.7,1.4-5.9,3.6c-0.2,0.5-0.1,1,0.4,1.3c0.1,0.1,0.3,0.1,0.4,0.1h4
		L15,42v1.7l-0.7,0.7h-4c-0.5,0-0.9,0.4-0.9,0.9c0,0.1,0,0.2,0,0.3c1,2.4,3.3,3.9,5.9,3.8c2.3,0,4.4-1.2,5.6-3.1h17.6
		c1.2,1.9,3.3,3.1,5.6,3.1c2.6,0.1,4.9-1.5,5.9-3.8c0.1-0.3,0-0.6-0.1-0.8C49.7,44.6,49.4,44.4,49.1,44.4z M44.1,47.5
		c-2,0-3.8-1.3-4.4-3.1c-0.2-0.5-0.7-0.7-1.2-0.6c0,0,0,0,0,0c-0.3,0.1-0.5,0.3-0.5,0.6H21.5c-0.1-0.3-0.3-0.5-0.6-0.6
		c-0.5-0.1-1,0.1-1.2,0.6c-0.7,1.9-2.4,3.1-4.4,3.1c-1.2,0-2.4-0.4-3.3-1.3h2.7c0.3,0,0.5-0.1,0.7-0.3l1.2-1.2
		c0.2-0.2,0.3-0.4,0.3-0.7v-2.5c0-0.2-0.1-0.5-0.3-0.7l-1.2-1.2c-0.2-0.2-0.4-0.3-0.7-0.3h-2.5c1.9-1.8,4.8-1.7,6.6,0.2
		c0.4,0.5,0.8,1,1,1.7c0.2,0.5,0.7,0.7,1.2,0.6c0.3-0.1,0.5-0.3,0.6-0.6h16.4c0.1,0.3,0.3,0.5,0.5,0.6c0.5,0.2,1-0.1,1.2-0.6
		c0,0,0,0,0,0c0.7-1.9,2.4-3.1,4.4-3.1c1.2,0,2.3,0.5,3.1,1.2h-1.9c-0.2,0-0.5,0.1-0.7,0.3l-1.3,1.2c-0.2,0.2-0.3,0.4-0.3,0.7v2.5
		c0,0.2,0.1,0.5,0.3,0.7l1.3,1.3c0.2,0.2,0.4,0.3,0.7,0.3h2C46.5,47.1,45.3,47.5,44.1,47.5L44.1,47.5z"/>
</g>
</svg>
