<?xml version="1.0" encoding="utf-8"?>
<!-- Generator: Adobe Illustrator 23.0.1, SVG Export Plug-In . SVG Version: 6.00 Build 0)  -->
<svg version="1.1" xmlns="http://www.w3.org/2000/svg" xmlns:xlink="http://www.w3.org/1999/xlink" x="0px" y="0px"
	 viewBox="0 0 60 60" style="enable-background:new 0 0 60 60;" xml:space="preserve">
<style type="text/css">
	.st0{fill:#ECF9FF;}
	.st1{fill:#FFFFFF;}
	.st2{fill:#535D66;}
	.st3{fill-rule:evenodd;clip-rule:evenodd;fill:#ECF9FF;}
	.st4{fill-rule:evenodd;clip-rule:evenodd;fill:#FFFFFF;}
	.st5{fill-rule:evenodd;clip-rule:evenodd;fill:#00ADEE;}
	.st6{fill-rule:evenodd;clip-rule:evenodd;}
	.st7{fill:#00ADEE;}
	.st8{fill:#808099;}
	.st9{fill:#FFC037;}
	.st10{fill:#FF7108;}
	.st11{fill:#AEFFCF;}
	.st12{fill:#0BD360;}
	.st13{fill:#343434;}
	.st14{fill-rule:evenodd;clip-rule:evenodd;fill:#104EFF;}
	.st15{fill:#002E75;}
	.st16{fill:#0855C4;}
	.st17{fill:#99E2FF;}
	.st18{fill:#AED3FF;}
	.st19{fill:#231F20;}
	.st20{fill:#EFF1F4;}
	.st21{clip-path:url(#SVGID_2_);}
	.st22{fill:#8EEA00;}
	.st23{fill-rule:evenodd;clip-rule:evenodd;fill:#8EEA00;}
	.st24{fill:#0021CE;}
	.st25{fill:#104EFF;}
	.st26{fill:#303030;}
	.st27{fill:#00E1CF;}
	.st28{fill-rule:evenodd;clip-rule:evenodd;fill:#0BD360;}
	.st29{fill-rule:evenodd;clip-rule:evenodd;fill:#00E1CF;}
	.st30{fill:none;stroke:#5C006A;stroke-width:1.29;stroke-linecap:round;stroke-linejoin:round;}
	.st31{fill:#B6FFD3;}
	.st32{clip-path:url(#SVGID_4_);}
	.st33{fill:#DFE6E8;}
	.st34{fill:#B3B3B3;}
	.st35{fill:#96E0FD;}
	.st36{fill:#0ED160;}
	.st37{fill:#08A8FD;}
	.st38{fill:#6EEE89;}
	.st39{fill:#DFF8F5;}
	.st40{clip-path:url(#SVGID_6_);fill:#96E0FD;}
	.st41{fill:#F5F5F6;}
	.st42{fill:none;stroke:#002E75;stroke-width:1.5207;stroke-linecap:round;stroke-linejoin:round;}
	.st43{fill:#E9EAEB;}
	.st44{clip-path:url(#SVGID_8_);fill:#FFFFFF;}
	.st45{clip-path:url(#SVGID_8_);fill:#FFCF9B;}
	.st46{clip-path:url(#SVGID_8_);fill:#002E75;}
	.st47{clip-path:url(#SVGID_8_);fill:#F9BC90;}
	.st48{clip-path:url(#SVGID_8_);fill:#0ED160;}
	.st49{fill-rule:evenodd;clip-rule:evenodd;fill:#002E75;}
	.st50{fill-rule:evenodd;clip-rule:evenodd;fill:#0ED160;}
	.st51{fill-rule:evenodd;clip-rule:evenodd;fill:#DFE6E8;}
	.st52{fill-rule:evenodd;clip-rule:evenodd;fill:#DCE6E8;}
	.st53{fill-rule:evenodd;clip-rule:evenodd;fill:#6EEE89;}
	.st54{fill-rule:evenodd;clip-rule:evenodd;fill:#FFC037;}
	.st55{fill:#F4F4F5;}
	.st56{fill:#606060;}
	.st57{fill-rule:evenodd;clip-rule:evenodd;fill:#005EA1;}
	.st58{fill-rule:evenodd;clip-rule:evenodd;fill:#00A5D8;}
	.st59{fill:#444444;}
	.st60{clip-path:url(#SVGID_10_);}
	.st61{clip-path:url(#SVGID_12_);}
	.st62{clip-path:url(#SVGID_14_);}
	.st63{clip-path:url(#SVGID_16_);}
	.st64{clip-path:url(#SVGID_18_);}
	.st65{clip-path:url(#SVGID_20_);}
</style>
<g id="Layer_3">
</g>
<g id="Layer_1">
</g>
<g id="Layer_2">
</g>
<g id="Layer_4">
</g>
<g id="Layer_5">
</g>
<g id="Isolation_Mode">
</g>
<g id="Art">
</g>
<g id="Capa_8">
	<path class="st15" d="M52.7,23.7l-0.5-2.2c-0.2-1-1.2-1.8-2.2-1.8h-2.8l-2.4-4.8c-0.8-1.7-2.6-2.8-4.5-2.8H20.6
		c-1.9,0-3.7,1.1-4.5,2.8l-2.4,4.8h-2.6c-1.1,0-2,0.7-2.2,1.8l-0.5,2.2c-0.2,0.8,0.3,1.7,1.1,1.9c0.1,0,0.3,0.1,0.4,0.1h1.7
		l-0.2,0.6c-0.3,0.9-0.5,1.8-0.5,2.8v6.8c0,0.5,0,1,0.1,1.5l0.6,2.5v4.2c0,0.9,0.7,1.6,1.6,1.6h6.9c0.9,0,1.6-0.7,1.6-1.6v-2.6h9.6
		c0.5,0,0.9-0.4,0.9-0.9c0-0.5-0.4-0.9-0.9-0.9H18c-0.5,0-0.9,0.4-0.9,0.9c0,0.5,0.4,0.9,0.9,0.9c0,0,0,0,0,0h1.9V44h-6.5v-4.1
		c0-0.1,0-0.1,0-0.2l-0.6-2.7c-0.1-0.4-0.1-0.8-0.1-1.2V29c0-0.7,0.1-1.5,0.4-2.1l0.7-1.8c0.2-0.5-0.1-1-0.5-1.2
		c-0.1,0-0.2-0.1-0.3-0.1h-2.8l0.5-2c0-0.2,0.2-0.4,0.5-0.4h3.1c0.3,0,0.7-0.2,0.8-0.5l2.7-5.3c0.6-1.1,1.7-1.8,2.9-1.8h19.7
		c1.2,0,2.4,0.7,2.9,1.8l2.7,5.3c0.1,0.3,0.5,0.5,0.8,0.5h3.3c0.2,0,0.4,0.2,0.5,0.4l0.5,2h-2.8c-0.5,0-0.9,0.4-0.9,0.9
		c0,0.1,0,0.2,0.1,0.3l0.7,1.8c0.3,0.7,0.4,1.4,0.4,2.1v2c0,0.5,0.4,0.9,0.9,0.9c0.5,0,0.9-0.4,0.9-0.9v-2c0-1-0.2-1.9-0.5-2.8
		l-0.2-0.6h1.7c0.9,0,1.6-0.7,1.6-1.6C52.7,24,52.7,23.8,52.7,23.7L52.7,23.7z"/>
	<path class="st15" d="M15,31.7c0,0.5,0.4,0.9,0.9,0.9h0h5.7c0.3,0,0.6-0.2,0.8-0.4c0.1-0.3,0.1-0.6,0-0.9l-1-2
		c-0.2-0.4-0.8-0.6-1.2-0.4c-0.4,0.2-0.6,0.8-0.4,1.2l0.3,0.6h-4.1C15.4,30.8,15,31.2,15,31.7C15,31.7,15,31.7,15,31.7z"/>
	<path class="st15" d="M23.6,35c-0.5,0-0.9,0.4-0.9,0.9c0,0.5,0.4,0.9,0.9,0.9h4.2c0.5,0,0.9-0.4,0.9-0.9c0-0.5-0.4-0.9-0.9-0.9
		H23.6z"/>
	<path class="st15" d="M42.5,23.4c0-0.5-0.4-0.9-0.9-0.9l0,0H20.1c-0.5,0-0.9,0.4-0.9,0.9c0,0.5,0.4,0.9,0.9,0.9h21.5
		C42.1,24.3,42.5,23.9,42.5,23.4C42.5,23.4,42.5,23.4,42.5,23.4z"/>
	<path class="st15" d="M40.9,28.8c-5.2,0-9.7,3.9-10.5,9c-0.1,0.5,0.2,0.9,0.7,1s0.9-0.2,1-0.7c0,0,0-0.1,0-0.1
		c0.7-4.8,5.2-8.2,10-7.5s8.2,5.2,7.5,10c-0.7,4.8-5.2,8.2-10,7.5c-2.9-0.4-5.5-2.3-6.8-5c-0.2-0.4-0.7-0.6-1.1-0.4
		c-0.4,0.2-0.6,0.7-0.4,1.1l0,0c2.5,5.3,8.8,7.5,14.1,5s7.5-8.8,5-14.1C48.7,31.2,45,28.8,40.9,28.8z"/>
	<path class="st15" d="M36.7,37.6c0-0.5-0.4-0.9-0.9-0.9c-0.5,0-0.8,0.4-0.8,0.9c0,3.2,2.1,5.9,5.1,6.8L40,44.6
		c-0.4,0.3-0.4,0.8-0.1,1.2c0,0,0,0,0,0c0.2,0.2,0.4,0.3,0.6,0.3c0.2,0,0.4-0.1,0.6-0.2l1.6-1.4l0,0c0.1-0.1,0.1-0.1,0.2-0.2l0,0
		c0.1-0.1,0.1-0.2,0.1-0.4c0,0,0,0,0-0.1c0-0.1,0-0.2-0.1-0.3c0,0,0,0,0-0.1L42,41.8c-0.2-0.4-0.8-0.5-1.2-0.3
		c-0.4,0.2-0.5,0.7-0.3,1.1l0.1,0.2C38.3,42.1,36.7,40,36.7,37.6z"/>
	<path class="st15" d="M38.6,35c0,0.1,0,0.2,0.1,0.3c0,0,0,0,0,0l0.9,1.6c0.2,0.4,0.7,0.6,1.1,0.5s0.6-0.7,0.5-1.1
		c0,0,0-0.1-0.1-0.1L41,36c2.3,0.7,3.9,2.8,3.9,5.2c-0.1,0.5,0.3,0.9,0.8,0.9c0.5,0.1,0.9-0.3,0.9-0.8c0-0.1,0-0.1,0-0.2
		c0-3.2-2.1-5.9-5.1-6.8l0.2-0.2c0.4-0.3,0.4-0.8,0.1-1.2c0,0,0,0,0,0c-0.3-0.4-0.8-0.4-1.2-0.1c0,0,0,0,0,0L39,34.3l0,0
		c-0.1,0.1-0.1,0.1-0.2,0.2l0,0c-0.1,0.1-0.1,0.2-0.1,0.4L38.6,35z"/>
</g>
</svg>
