<?xml version="1.0" encoding="utf-8"?>
<!-- Generator: Adobe Illustrator 23.0.1, SVG Export Plug-In . SVG Version: 6.00 Build 0)  -->
<svg version="1.1" xmlns="http://www.w3.org/2000/svg" xmlns:xlink="http://www.w3.org/1999/xlink" x="0px" y="0px"
	 viewBox="0 0 60 60" style="enable-background:new 0 0 60 60;" xml:space="preserve">
<style type="text/css">
	.st0{fill:#ECF9FF;}
	.st1{fill:#FFFFFF;}
	.st2{fill:#535D66;}
	.st3{fill-rule:evenodd;clip-rule:evenodd;fill:#ECF9FF;}
	.st4{fill-rule:evenodd;clip-rule:evenodd;fill:#FFFFFF;}
	.st5{fill-rule:evenodd;clip-rule:evenodd;fill:#00ADEE;}
	.st6{fill-rule:evenodd;clip-rule:evenodd;}
	.st7{fill:#00ADEE;}
	.st8{fill:#808099;}
	.st9{fill:#FFC037;}
	.st10{fill:#FF7108;}
	.st11{fill:#AEFFCF;}
	.st12{fill:#0BD360;}
	.st13{fill:#343434;}
	.st14{fill-rule:evenodd;clip-rule:evenodd;fill:#104EFF;}
	.st15{fill:#002E75;}
	.st16{fill:#0855C4;}
	.st17{fill:#99E2FF;}
	.st18{fill:#AED3FF;}
	.st19{fill:#231F20;}
	.st20{fill:#EFF1F4;}
	.st21{clip-path:url(#SVGID_2_);}
	.st22{fill:#8EEA00;}
	.st23{fill-rule:evenodd;clip-rule:evenodd;fill:#8EEA00;}
	.st24{fill:#0021CE;}
	.st25{fill:#104EFF;}
	.st26{fill:#303030;}
	.st27{fill:#00E1CF;}
	.st28{fill-rule:evenodd;clip-rule:evenodd;fill:#0BD360;}
	.st29{fill-rule:evenodd;clip-rule:evenodd;fill:#00E1CF;}
	.st30{fill:none;stroke:#5C006A;stroke-width:1.29;stroke-linecap:round;stroke-linejoin:round;}
	.st31{fill:#B6FFD3;}
	.st32{clip-path:url(#SVGID_4_);}
	.st33{fill:#DFE6E8;}
	.st34{fill:#B3B3B3;}
	.st35{fill:#96E0FD;}
	.st36{fill:#0ED160;}
	.st37{fill:#08A8FD;}
	.st38{fill:#6EEE89;}
	.st39{fill:#DFF8F5;}
	.st40{clip-path:url(#SVGID_6_);fill:#96E0FD;}
	.st41{fill:#F5F5F6;}
	.st42{fill:none;stroke:#002E75;stroke-width:1.5207;stroke-linecap:round;stroke-linejoin:round;}
	.st43{fill:#E9EAEB;}
	.st44{clip-path:url(#SVGID_8_);fill:#FFFFFF;}
	.st45{clip-path:url(#SVGID_8_);fill:#FFCF9B;}
	.st46{clip-path:url(#SVGID_8_);fill:#002E75;}
	.st47{clip-path:url(#SVGID_8_);fill:#F9BC90;}
	.st48{clip-path:url(#SVGID_8_);fill:#0ED160;}
	.st49{fill-rule:evenodd;clip-rule:evenodd;fill:#002E75;}
	.st50{fill-rule:evenodd;clip-rule:evenodd;fill:#0ED160;}
	.st51{fill-rule:evenodd;clip-rule:evenodd;fill:#DFE6E8;}
	.st52{fill-rule:evenodd;clip-rule:evenodd;fill:#DCE6E8;}
	.st53{fill-rule:evenodd;clip-rule:evenodd;fill:#6EEE89;}
	.st54{fill-rule:evenodd;clip-rule:evenodd;fill:#FFC037;}
	.st55{fill:#F4F4F5;}
	.st56{fill:#606060;}
	.st57{fill-rule:evenodd;clip-rule:evenodd;fill:#005EA1;}
	.st58{fill-rule:evenodd;clip-rule:evenodd;fill:#00A5D8;}
	.st59{fill:#444444;}
	.st60{clip-path:url(#SVGID_10_);}
	.st61{clip-path:url(#SVGID_12_);}
	.st62{clip-path:url(#SVGID_14_);}
	.st63{clip-path:url(#SVGID_16_);}
	.st64{clip-path:url(#SVGID_18_);}
	.st65{clip-path:url(#SVGID_20_);}
</style>
<g id="Layer_3">
</g>
<g id="Layer_1">
</g>
<g id="Layer_2">
</g>
<g id="Layer_4">
</g>
<g id="Layer_5">
</g>
<g id="Isolation_Mode">
</g>
<g id="Art">
</g>
<g id="Capa_8">
	<path class="st15" d="M50.7,49.7v-2.4c0-0.8-0.6-1.5-1.4-1.6v-1.1c0-0.9-0.7-1.6-1.6-1.6H36.8c-0.9,0-1.6,0.7-1.6,1.6v1.1
		c-0.8,0.1-1.4,0.8-1.4,1.6v2.4H7.9v1.9h44.2v-1.9H50.7z M37.1,44.8h10.4v0.8H37.1V44.8z M48.8,49.7H35.7v-2.2h13.1
		C48.8,47.5,48.8,49.7,48.8,49.7z"/>
	<polygon class="st15" points="38.9,19.6 34.6,15.4 33.3,16.7 37.5,21 	"/>
	<path class="st15" d="M49.3,22.3l-1.9-1.9c-0.6-0.6-1.7-0.6-2.3,0l-0.8,0.8L36,12.9l0.8-0.8c0.6-0.6,0.6-1.7,0-2.3l-1.9-1.9
		c-0.6-0.6-1.7-0.6-2.3,0l-9.7,9.7c-0.6,0.6-0.6,1.7,0,2.3l1.9,1.9c0.6,0.6,1.7,0.6,2.3,0l0.8-0.8l2.5,2.5l-19,18.9
		C10.8,42,9.9,42,9.3,42.6l-1,1c-0.6,0.6-0.6,1.7,0,2.3l2.9,2.9c0.3,0.3,0.7,0.5,1.2,0.5c0.4,0,0.8-0.2,1.2-0.5l1-1
		c0.6-0.6,0.6-1.5,0.2-2.1l18.9-18.9l2.5,2.5L35.4,30c-0.6,0.6-0.6,1.7,0,2.3l1.9,1.9c0.6,0.6,1.7,0.6,2.3,0l9.6-9.7
		C49.9,24,49.9,23,49.3,22.3z M25.9,20.2l-1.5-1.5l9.3-9.3l1.5,1.5L25.9,20.2z M12.4,47.2l-2.5-2.5l0.6-0.6l2.5,2.5L12.4,47.2z
		 M13.4,44.3l-0.6-0.6l14.1-14.1l0.6,0.6L13.4,44.3z M28.8,28.9l-0.6-0.6l0.6-0.6l0.6,0.6L28.8,28.9z M30.8,26.9l-0.6-0.6l1.5-1.5
		l0.6,0.6L30.8,26.9z M29.2,19.6l5.4-5.4l8.3,8.3l-5.4,5.4L29.2,19.6z M38.5,32.7L37,31.2l9.3-9.3l1.5,1.5L38.5,32.7z"/>
	<polygon class="st15" points="32.5,38 35.7,38 35.7,36.1 32.5,36.1 	"/>
	<polygon class="st15" points="36.9,40.5 36,38.8 33.1,40.5 34.1,42.1 	"/>
	<polygon class="st15" points="50.5,42.1 51.5,40.5 48.6,38.8 47.7,40.5 	"/>
	<polygon class="st15" points="48.8,38 52.1,38 52.1,36.1 48.8,36.1 	"/>
	<polygon class="st15" points="48.6,35.3 51.5,33.7 50.5,32 47.7,33.7 	"/>
</g>
</svg>
