<?xml version="1.0" encoding="utf-8"?>
<!-- Generator: Adobe Illustrator 23.0.1, SVG Export Plug-In . SVG Version: 6.00 Build 0)  -->
<svg version="1.1" xmlns="http://www.w3.org/2000/svg" xmlns:xlink="http://www.w3.org/1999/xlink" x="0px" y="0px"
	 viewBox="0 0 160 155" style="enable-background:new 0 0 160 155;" xml:space="preserve">
<style type="text/css">
	.st0{fill:#ECF9FF;}
	.st1{fill:#FFFFFF;}
	.st2{fill:#535D66;}
	.st3{fill-rule:evenodd;clip-rule:evenodd;fill:#ECF9FF;}
	.st4{fill-rule:evenodd;clip-rule:evenodd;fill:#FFFFFF;}
	.st5{fill-rule:evenodd;clip-rule:evenodd;fill:#00ADEE;}
	.st6{fill-rule:evenodd;clip-rule:evenodd;}
	.st7{fill:#00ADEE;}
	.st8{fill:#808099;}
	.st9{fill:#FFC037;}
	.st10{fill:#FF7108;}
	.st11{fill:#AEFFCF;}
	.st12{fill:#0BD360;}
	.st13{fill:#343434;}
	.st14{fill-rule:evenodd;clip-rule:evenodd;fill:#104EFF;}
	.st15{fill:#002E75;}
	.st16{fill:#0855C4;}
	.st17{fill:#99E2FF;}
	.st18{fill:#AED3FF;}
	.st19{fill:#231F20;}
	.st20{fill:#EFF1F4;}
	.st21{clip-path:url(#SVGID_2_);}
	.st22{fill:#8EEA00;}
	.st23{fill-rule:evenodd;clip-rule:evenodd;fill:#8EEA00;}
	.st24{fill:#0021CE;}
	.st25{fill:#104EFF;}
	.st26{fill:#303030;}
	.st27{fill:#00E1CF;}
	.st28{fill-rule:evenodd;clip-rule:evenodd;fill:#0BD360;}
	.st29{fill-rule:evenodd;clip-rule:evenodd;fill:#00E1CF;}
	.st30{fill:none;stroke:#5C006A;stroke-width:1.29;stroke-linecap:round;stroke-linejoin:round;}
	.st31{fill:#B6FFD3;}
	.st32{clip-path:url(#SVGID_4_);}
	.st33{fill:#DFE6E8;}
	.st34{fill:#B3B3B3;}
	.st35{fill:#96E0FD;}
	.st36{fill:#0ED160;}
	.st37{fill:#08A8FD;}
	.st38{fill:#6EEE89;}
	.st39{fill:#DFF8F5;}
	.st40{clip-path:url(#SVGID_6_);fill:#96E0FD;}
	.st41{fill:#F5F5F6;}
	.st42{fill:none;stroke:#002E75;stroke-width:1.5207;stroke-linecap:round;stroke-linejoin:round;}
	.st43{fill:#E9EAEB;}
	.st44{clip-path:url(#SVGID_8_);fill:#FFFFFF;}
	.st45{clip-path:url(#SVGID_8_);fill:#FFCF9B;}
	.st46{clip-path:url(#SVGID_8_);fill:#002E75;}
	.st47{clip-path:url(#SVGID_8_);fill:#F9BC90;}
	.st48{clip-path:url(#SVGID_8_);fill:#0ED160;}
	.st49{fill-rule:evenodd;clip-rule:evenodd;fill:#002E75;}
	.st50{fill-rule:evenodd;clip-rule:evenodd;fill:#0ED160;}
	.st51{fill-rule:evenodd;clip-rule:evenodd;fill:#DFE6E8;}
	.st52{fill-rule:evenodd;clip-rule:evenodd;fill:#DCE6E8;}
	.st53{fill-rule:evenodd;clip-rule:evenodd;fill:#6EEE89;}
	.st54{fill-rule:evenodd;clip-rule:evenodd;fill:#FFC037;}
	.st55{fill:#F4F4F5;}
	.st56{fill:#606060;}
	.st57{fill-rule:evenodd;clip-rule:evenodd;fill:#005EA1;}
	.st58{fill-rule:evenodd;clip-rule:evenodd;fill:#00A5D8;}
	.st59{fill:#444444;}
	.st60{clip-path:url(#SVGID_10_);}
	.st61{clip-path:url(#SVGID_12_);}
	.st62{clip-path:url(#SVGID_14_);}
	.st63{clip-path:url(#SVGID_16_);}
	.st64{clip-path:url(#SVGID_18_);}
	.st65{clip-path:url(#SVGID_20_);}
</style>
<g id="Layer_3">
</g>
<g id="Layer_1">
</g>
<g id="Layer_2">
</g>
<g id="Layer_4">
</g>
<g id="Layer_5">
</g>
<g id="Isolation_Mode">
</g>
<g id="Art">
</g>
<g id="Capa_8">
	<circle class="st43" cx="86.5" cy="76.8" r="50"/>
	<path class="st15" d="M87.3,122.1c-0.6,0-1-0.5-1-1v-14.2c0-0.6,0.5-1,1-1c0.6,0,1,0.5,1,1V121C88.3,121.6,87.8,122.1,87.3,122.1z"
		/>
	<path class="st35" d="M61.4,76.1l5.6,4.4l6.8,5.4l6.7-5.9l5.5-2.8l5.3,1.6l8.1,7.1l24.3-19.1c-0.2-0.4-0.5-0.8-0.9-1.1L89.3,36
		c-1.6-1.4-4.1-1.4-5.7,0.1L51.6,65.7c-0.5,0.4-0.8,1-1,1.6l5,4.2L61.4,76.1z"/>
	<path class="st1" d="M86.5,31L86.5,31c-13.9,0-25.1,11.2-25.1,25.1v42.9h50.2V56.1C111.6,42.3,100.4,31,86.5,31z"/>
	<path class="st37" d="M50.2,105.1c0,2.3,1.9,4.2,4.2,4.2h65.6c2.3,0,4.2-1.9,4.2-4.2V68.9c0-0.7-0.2-1.4-0.6-2.1L99.4,85.9
		l-8.1-7.1l-5.3-1.6L80.6,80l-6.7,5.9L67,80.5l-5.6-4.4l-5.8-4.6l-5-4.2c-0.2,0.5-0.3,1-0.3,1.5V105.1z"/>
	<path class="st35" d="M95,108.9V94.8c0-3-2.5-5.5-5.5-5.5c-3,0-5.5,2.5-5.5,5.5v14.1H95z"/>
	<path class="st15" d="M120.1,110.3H54.4c-2.9,0-5.2-2.4-5.2-5.2V68.8c0-1.5,0.6-2.9,1.7-3.8l6.4-6c0.4-0.4,1.1-0.4,1.5,0.1
		c0.4,0.4,0.4,1.1-0.1,1.5l-6.4,6c-0.6,0.6-1,1.4-1,2.3v36.2c0,1.8,1.4,3.2,3.2,3.2h65.6c1.8,0,3.2-1.4,3.2-3.2V68.9
		c0-0.9-0.4-1.8-1.1-2.4l-7.7-6.8c-0.4-0.4-0.5-1-0.1-1.5c0.4-0.4,1-0.5,1.5-0.1l7.7,6.8c1.1,1,1.8,2.4,1.8,3.9v36.2
		C125.3,108,123,110.3,120.1,110.3z"/>
	<path class="st1" d="M61.4,75.2V36.9c0-3.3,2.3-5.9,5.1-5.9h40.1c2.8,0,5.1,2.6,5.1,5.9v39.6"/>
	<path class="st15" d="M111.6,77.6c-0.6,0-1-0.5-1-1V36.9c0-2.7-1.8-4.9-4-4.9H66.5c-2.2,0-4,2.2-4,4.9v38.2c0,0.6-0.5,1-1,1
		c-0.6,0-1-0.5-1-1V36.9c0-3.8,2.7-6.9,6.1-6.9h40.1c3.4,0,6.1,3.1,6.1,6.9v39.6C112.7,77.1,112.2,77.6,111.6,77.6z"/>
	<path class="st15" d="M73.9,86.9c-0.2,0-0.4-0.1-0.6-0.2L53,70.8c-0.4-0.4-0.5-1-0.2-1.5c0.4-0.4,1-0.5,1.5-0.2l20.2,15.9
		c0.4,0.4,0.5,1,0.2,1.5C74.5,86.8,74.2,86.9,73.9,86.9z"/>
	<path class="st15" d="M99.4,87.3c-0.3,0-0.6-0.1-0.8-0.4c-0.4-0.4-0.3-1.1,0.2-1.5l20.4-16.3c0.4-0.4,1.1-0.3,1.5,0.2
		c0.4,0.4,0.3,1.1-0.2,1.5l-20.4,16.3C99.9,87.2,99.6,87.3,99.4,87.3z"/>
	<path class="st15" d="M117.1,105c-0.3,0-0.5-0.1-0.7-0.3L92.2,80.5c-2.9-2.9-7.7-2.9-10.7,0l-24.1,24.2c-0.4,0.4-1.1,0.4-1.5,0
		c-0.4-0.4-0.4-1.1,0-1.5L80.1,79c3.8-3.7,9.9-3.7,13.6,0l24.2,24.2c0.4,0.4,0.4,1.1,0,1.5C117.6,104.9,117.4,105,117.1,105z"/>
	<path class="st15" d="M100.3,39H72.8c-0.6,0-1-0.5-1-1c0-0.6,0.5-1,1-1h27.5c0.6,0,1,0.5,1,1C101.3,38.5,100.8,39,100.3,39z"/>
	<path class="st15" d="M99.9,43.4H72.4c-0.6,0-1-0.5-1-1c0-0.6,0.5-1,1-1h27.5c0.6,0,1,0.5,1,1C101,43,100.5,43.4,99.9,43.4z"/>
	<path class="st1" d="M54.2,92.5c-0.6,0-1-0.5-1-1V77.3c0-0.6,0.5-1,1-1c0.6,0,1,0.5,1,1v14.2C55.2,92,54.8,92.5,54.2,92.5z"/>
	<path class="st1" d="M54.2,97.9c-0.6,0-1-0.5-1-1v-2c0-0.6,0.5-1,1-1c0.6,0,1,0.5,1,1v2C55.2,97.4,54.8,97.9,54.2,97.9z"/>
	<path class="st35" d="M120.4,100.4c-0.6,0-1-0.5-1-1V85.1c0-0.6,0.5-1,1-1c0.6,0,1,0.5,1,1v14.2
		C121.4,99.9,120.9,100.4,120.4,100.4z"/>
	<path class="st35" d="M120.4,105.8c-0.6,0-1-0.5-1-1v-2c0-0.6,0.5-1,1-1c0.6,0,1,0.5,1,1v2C121.4,105.3,120.9,105.8,120.4,105.8z"
		/>
	<path class="st15" d="M124.3,119c-0.6,0-1-0.5-1-1v-14.2c0-0.6,0.5-1,1-1c0.6,0,1,0.5,1,1V118C125.3,118.5,124.9,119,124.3,119z"/>
	<path class="st15" d="M124.3,124.4c-0.6,0-1-0.5-1-1v-2c0-0.6,0.5-1,1-1c0.6,0,1,0.5,1,1v2C125.3,123.9,124.9,124.4,124.3,124.4z"
		/>
	<path class="st15" d="M76.5,122.1c-0.6,0-1-0.5-1-1v-5.8c0-0.6,0.5-1,1-1c0.6,0,1,0.5,1,1v5.8C77.6,121.6,77.1,122.1,76.5,122.1z"
		/>
	<path class="st15" d="M98.3,133.2c-0.6,0-1-0.5-1-1v-5.8c0-0.6,0.5-1,1-1c0.6,0,1,0.5,1,1v5.8C99.4,132.7,98.9,133.2,98.3,133.2z"
		/>
	<path class="st15" d="M87.3,126.7c-0.6,0-1-0.5-1-1v-2c0-0.6,0.5-1,1-1c0.6,0,1,0.5,1,1v2C88.3,126.2,87.8,126.7,87.3,126.7z"/>
	<path class="st15" d="M98.3,123.4c-0.6,0-1-0.5-1-1v-2c0-0.6,0.5-1,1-1c0.6,0,1,0.5,1,1v2C99.4,122.9,98.9,123.4,98.3,123.4z"/>
	<path class="st15" d="M50.2,115.7c-0.6,0-1-0.5-1-1v-14.2c0-0.6,0.5-1,1-1s1,0.5,1,1v14.2C51.3,115.2,50.8,115.7,50.2,115.7z"/>
	<path class="st15" d="M50.2,121.1c-0.6,0-1-0.5-1-1v-2c0-0.6,0.5-1,1-1s1,0.5,1,1v2C51.3,120.6,50.8,121.1,50.2,121.1z"/>
	<path class="st15" d="M101.3,26.5c-0.7,0-1.3-0.6-1.3-1.3v-7.8c0-0.7,0.6-1.3,1.3-1.3c0.7,0,1.3,0.6,1.3,1.3v7.8
		C102.6,26,102.1,26.5,101.3,26.5z"/>
	<path class="st15" d="M126.6,38.2h-9.5c-0.7,0-1.3-0.6-1.3-1.3s0.6-1.3,1.3-1.3h9.5c0.7,0,1.3,0.6,1.3,1.3S127.3,38.2,126.6,38.2z"
		/>
	<path class="st15" d="M111.6,28.8c-0.3,0-0.6-0.1-0.8-0.3c-0.5-0.5-0.6-1.3-0.1-1.8l6.5-7.5c0.5-0.5,1.3-0.6,1.8-0.1
		c0.5,0.5,0.6,1.3,0.1,1.8l-6.5,7.5C112.4,28.7,112,28.8,111.6,28.8z"/>
	<path class="st35" d="M81.4,56.6l2.2,2.2l7.3-7.3c1-1,2.5-1,3.5,0l0,0c1,1,1,2.5,0,3.5l-7.3,7.3L85,64.4c-0.8,0.8-2,0.8-2.8,0
		l-2.1-2.1l-2.2-2.2c-1-1-1-2.5,0-3.5l0,0C78.9,55.6,80.4,55.6,81.4,56.6z"/>
	<path class="st15" d="M81.5,65.1l-4.3-4.3c-0.7-0.7-1-1.5-1-2.5c0-0.9,0.4-1.8,1-2.5c1.4-1.4,3.6-1.4,5,0l1.5,1.5l6.6-6.6
		c1.4-1.4,3.6-1.4,5,0c0.7,0.7,1,1.5,1,2.5c0,0.9-0.4,1.8-1,2.5l-9.4,9.4c-0.6,0.6-1.4,0.9-2.1,0.9C82.9,66,82.1,65.7,81.5,65.1z
		 M91.7,52.2l-7.3,7.3c-0.4,0.4-1.1,0.4-1.5,0l-2.2-2.2c-0.3-0.3-0.6-0.4-1-0.4c-0.4,0-0.7,0.1-1,0.4c-0.3,0.3-0.4,0.6-0.4,1
		c0,0.4,0.1,0.7,0.4,1l4.3,4.3c0.4,0.4,0.9,0.4,1.3,0l9.4-9.4c0.3-0.3,0.4-0.6,0.4-1c0-0.4-0.1-0.7-0.4-1c-0.3-0.3-0.6-0.4-1-0.4
		C92.3,51.8,92,51.9,91.7,52.2z"/>
</g>
</svg>
