<?xml version="1.0" encoding="utf-8"?>
<!-- Generator: Adobe Illustrator 23.0.1, SVG Export Plug-In . SVG Version: 6.00 Build 0)  -->
<svg version="1.1" xmlns="http://www.w3.org/2000/svg" xmlns:xlink="http://www.w3.org/1999/xlink" x="0px" y="0px"
	 viewBox="0 0 160 155" style="enable-background:new 0 0 160 155;" xml:space="preserve">
<style type="text/css">
	.st0{fill:#ECF9FF;}
	.st1{fill:#FFFFFF;}
	.st2{fill:#535D66;}
	.st3{fill-rule:evenodd;clip-rule:evenodd;fill:#ECF9FF;}
	.st4{fill-rule:evenodd;clip-rule:evenodd;fill:#FFFFFF;}
	.st5{fill-rule:evenodd;clip-rule:evenodd;fill:#00ADEE;}
	.st6{fill-rule:evenodd;clip-rule:evenodd;}
	.st7{fill:#00ADEE;}
	.st8{fill:#808099;}
	.st9{fill:#FFC037;}
	.st10{fill:#FF7108;}
	.st11{fill:#AEFFCF;}
	.st12{fill:#0BD360;}
	.st13{fill:#343434;}
	.st14{fill-rule:evenodd;clip-rule:evenodd;fill:#104EFF;}
	.st15{fill:#002E75;}
	.st16{fill:#0855C4;}
	.st17{fill:#99E2FF;}
	.st18{fill:#AED3FF;}
	.st19{fill:#231F20;}
	.st20{fill:#EFF1F4;}
	.st21{clip-path:url(#SVGID_2_);}
	.st22{fill:#8EEA00;}
	.st23{fill-rule:evenodd;clip-rule:evenodd;fill:#8EEA00;}
	.st24{fill:#0021CE;}
	.st25{fill:#104EFF;}
	.st26{fill:#303030;}
	.st27{fill:#00E1CF;}
	.st28{fill-rule:evenodd;clip-rule:evenodd;fill:#0BD360;}
	.st29{fill-rule:evenodd;clip-rule:evenodd;fill:#00E1CF;}
	.st30{fill:none;stroke:#5C006A;stroke-width:1.29;stroke-linecap:round;stroke-linejoin:round;}
	.st31{fill:#B6FFD3;}
	.st32{clip-path:url(#SVGID_4_);}
	.st33{fill:#DFE6E8;}
	.st34{fill:#B3B3B3;}
	.st35{fill:#96E0FD;}
	.st36{fill:#0ED160;}
	.st37{fill:#08A8FD;}
	.st38{fill:#6EEE89;}
	.st39{fill:#DFF8F5;}
	.st40{clip-path:url(#SVGID_6_);fill:#96E0FD;}
	.st41{fill:#F5F5F6;}
	.st42{fill:none;stroke:#002E75;stroke-width:1.5207;stroke-linecap:round;stroke-linejoin:round;}
	.st43{fill:#E9EAEB;}
	.st44{clip-path:url(#SVGID_8_);fill:#FFFFFF;}
	.st45{clip-path:url(#SVGID_8_);fill:#FFCF9B;}
	.st46{clip-path:url(#SVGID_8_);fill:#002E75;}
	.st47{clip-path:url(#SVGID_8_);fill:#F9BC90;}
	.st48{clip-path:url(#SVGID_8_);fill:#0ED160;}
	.st49{fill-rule:evenodd;clip-rule:evenodd;fill:#002E75;}
	.st50{fill-rule:evenodd;clip-rule:evenodd;fill:#0ED160;}
	.st51{fill-rule:evenodd;clip-rule:evenodd;fill:#DFE6E8;}
	.st52{fill-rule:evenodd;clip-rule:evenodd;fill:#DCE6E8;}
	.st53{fill-rule:evenodd;clip-rule:evenodd;fill:#6EEE89;}
	.st54{fill-rule:evenodd;clip-rule:evenodd;fill:#FFC037;}
	.st55{fill:#F4F4F5;}
	.st56{fill:#606060;}
	.st57{fill-rule:evenodd;clip-rule:evenodd;fill:#005EA1;}
	.st58{fill-rule:evenodd;clip-rule:evenodd;fill:#00A5D8;}
	.st59{fill:#444444;}
	.st60{clip-path:url(#SVGID_10_);}
	.st61{clip-path:url(#SVGID_12_);}
	.st62{clip-path:url(#SVGID_14_);}
	.st63{clip-path:url(#SVGID_16_);}
	.st64{clip-path:url(#SVGID_18_);}
	.st65{clip-path:url(#SVGID_20_);}
</style>
<g id="Layer_3">
</g>
<g id="Layer_1">
</g>
<g id="Layer_2">
</g>
<g id="Layer_4">
</g>
<g id="Layer_5">
</g>
<g id="Isolation_Mode">
</g>
<g id="Art">
</g>
<g id="Capa_8">
	<path class="st43" d="M128.9,72c5.2,26-11.6,51.4-37.7,56.7c-26,5.2-51.4-11.6-56.7-37.7s11.6-51.4,37.7-56.7S123.6,45.9,128.9,72"
		/>
	<path class="st1" d="M129.8,53.1v39.7c0,4.1-3.3,7.5-7.5,7.5H83.8c-4.1,0-7.5-3.3-7.5-7.5V36.5c0-4.1,3.3-7.5,7.5-7.5H110"/>
	<path class="st1" d="M76.4,76.1V36.5c0-4.1,3.3-7.5,7.5-7.5h38.5c4.1,0,7.5,3.3,7.5,7.5v56.3c0,4.1-3.3,7.5-7.5,7.5H96.2"/>
	<path class="st15" d="M122.3,101.1H96.2c-0.5,0-0.9-0.4-0.9-0.9c0-0.5,0.4-0.9,0.9-0.9h26.1c3.6,0,6.6-3,6.6-6.6V36.5
		c0-3.6-3-6.6-6.6-6.6H83.8c-3.6,0-6.6,3-6.6,6.6v39.7c0,0.5-0.4,0.9-0.9,0.9c-0.5,0-0.9-0.4-0.9-0.9V36.5c0-4.6,3.7-8.3,8.3-8.3
		h38.5c4.6,0,8.3,3.7,8.3,8.3v56.3C130.7,97.4,126.9,101.1,122.3,101.1z"/>
	<path class="st15" d="M109.6,105.5c-0.1,0-0.1,0-0.2,0l-4.4,0c-0.6,0-1-0.5-1-1c0-0.6,0.5-1,1-1l4.4,0c0.6,0,1,0.5,1,1
		C110.4,104.9,110,105.4,109.6,105.5"/>
	<path class="st15" d="M113.8,105.5c-0.1,0-0.1,0-0.2,0l-1.3,0c-0.6,0-1-0.5-1-1c0-0.6,0.5-1,1-1l1.3,0c0.6,0,1,0.5,1,1
		C114.7,105,114.3,105.4,113.8,105.5"/>
	<path class="st15" d="M124.4,105.4c-0.1,0-0.1,0-0.2,0l-1.3,0c-0.6,0-1-0.5-1-1c0-0.6,0.5-1,1-1l1.3,0c0.6,0,1,0.5,1,1
		C125.2,104.9,124.8,105.3,124.4,105.4"/>
	<path class="st15" d="M123.8,23.9c-0.5,0-1-0.4-1-0.9l-0.2-5.7c0-0.5,0.4-1,0.9-1c0.5,0,1,0.4,1,0.9l0.2,5.7
		C124.7,23.5,124.3,23.9,123.8,23.9"/>
	<path class="st15" d="M142.2,34l-6.9-0.4c-0.5,0-0.9-0.5-0.9-1c0-0.5,0.5-0.9,1-0.9l6.9,0.4c0.5,0,0.9,0.5,0.9,1
		C143.2,33.6,142.7,34,142.2,34"/>
	<path class="st15" d="M131.7,26.6c-0.2,0-0.4-0.1-0.6-0.3c-0.4-0.4-0.4-1,0-1.3l5-5.2c0.4-0.4,1-0.4,1.3,0c0.4,0.4,0.4,1,0,1.3
		l-5,5.2C132.2,26.5,132,26.6,131.7,26.6"/>
	<path class="st35" d="M83.1,120.7H39.6c-4.5,0-8.1-3.6-8.1-8.1V88.5c0-4.5,3.6-8.1,8.1-8.1h43.5c4.5,0,8.1,3.6,8.1,8.1v24.1
		C91.2,117,87.6,120.7,83.1,120.7z"/>
	<path class="st37" d="M40.3,121.1h42.2c4.8,0,8.7-3.9,8.7-8.7v0H31.5v0C31.5,117.2,35.4,121.1,40.3,121.1z"/>
	<path class="st15" d="M84.1,122c-0.4,0-0.8-0.3-0.8-0.8s0.3-0.8,0.8-0.8c3.8,0,6.9-3.1,6.9-6.9V87.5c0-2.5-1.4-4.8-3.6-6
		c-1-0.5-2.1-0.8-3.3-0.8H38.7c-3.8,0-6.9,3.1-6.9,6.9v26.1c0,2.5,1.4,4.8,3.6,6c1,0.5,2.1,0.8,3.3,0.8h28.7c0.4,0,0.8,0.3,0.8,0.8
		s-0.3,0.8-0.8,0.8H38.7c-1.4,0-2.8-0.4-4-1c-2.7-1.5-4.4-4.3-4.4-7.4V87.5c0-4.6,3.8-8.4,8.4-8.4h45.4c1.4,0,2.8,0.4,4,1
		c2.7,1.5,4.4,4.3,4.4,7.4v26.1C92.4,118.2,88.7,122,84.1,122z"/>
	<g>
		<defs>
			<path id="SVGID_7_" d="M43.9,101.9c-5,0-9-4-9-9s4-9,9-9s9,4,9,9S48.8,101.9,43.9,101.9z M43.9,85.4c-4.1,0-7.5,3.4-7.5,7.5
				c0,4.1,3.4,7.5,7.5,7.5c4.1,0,7.5-3.4,7.5-7.5C51.3,88.8,48,85.4,43.9,85.4z"/>
		</defs>
		<use xlink:href="#SVGID_7_"  style="overflow:visible;fill:#002E75;"/>
		<clipPath id="SVGID_2_">
			<use xlink:href="#SVGID_7_"  style="overflow:visible;"/>
		</clipPath>
		<circle style="clip-path:url(#SVGID_2_);fill:#FFFFFF;" cx="43.9" cy="92.9" r="7.5"/>
		<circle style="clip-path:url(#SVGID_2_);fill:#FFCF9B;" cx="39.8" cy="94.3" r="1.2"/>
		<path style="clip-path:url(#SVGID_2_);fill:#002E75;" d="M39.8,95.6c-0.3,0-0.6-0.1-0.8-0.3c-0.3-0.2-0.4-0.5-0.5-0.9
			c-0.1-0.7,0.4-1.4,1.1-1.4c0.7-0.1,1.4,0.4,1.4,1.1l0,0c0.1,0.7-0.4,1.4-1.1,1.4C39.9,95.6,39.9,95.6,39.8,95.6z M39.8,93.3
			c0,0-0.1,0-0.1,0c-0.6,0.1-1,0.6-0.9,1.1c0,0.3,0.2,0.5,0.4,0.7c0.2,0.2,0.5,0.2,0.7,0.2c0.6-0.1,1-0.6,0.9-1.1l0,0
			C40.8,93.7,40.3,93.3,39.8,93.3z"/>
		<path style="clip-path:url(#SVGID_2_);fill:#F9BC90;" d="M39.9,94c0,0-0.1,0-0.1,0c-0.2,0-0.4,0.2-0.3,0.4c0,0.2,0.2,0.4,0.4,0.3
			c0.1,0,0.2-0.1,0.2-0.1C40,94.4,39.9,94.2,39.9,94z"/>
		
			<ellipse transform="matrix(0.8979 -0.4402 0.4402 0.8979 -36.6144 30.7026)" style="clip-path:url(#SVGID_2_);fill:#FFCF9B;" cx="47.9" cy="94.3" rx="1.2" ry="1.2"/>
		<path style="clip-path:url(#SVGID_2_);fill:#002E75;" d="M47.9,95.6c-0.1,0-0.1,0-0.2,0c-0.3,0-0.7-0.2-0.9-0.5
			c-0.2-0.3-0.3-0.6-0.3-1c0.1-0.7,0.7-1.2,1.4-1.1c0.7,0.1,1.2,0.7,1.1,1.4c0,0.3-0.2,0.7-0.5,0.9C48.5,95.5,48.2,95.6,47.9,95.6z
			 M47.9,93.3c-0.5,0-0.9,0.4-1,0.9l0,0c0,0.3,0,0.5,0.2,0.7c0.2,0.2,0.4,0.3,0.7,0.4c0.3,0,0.5,0,0.7-0.2c0.2-0.2,0.3-0.4,0.4-0.7
			c0.1-0.6-0.3-1.1-0.9-1.1C48,93.3,47.9,93.3,47.9,93.3z"/>
		<path style="clip-path:url(#SVGID_2_);fill:#F9BC90;" d="M47.8,94c0,0,0.1,0,0.1,0c0.2,0,0.4,0.2,0.3,0.4c0,0.2-0.2,0.4-0.4,0.3
			c-0.1,0-0.2-0.1-0.2-0.1C47.7,94.4,47.8,94.2,47.8,94z"/>
		<path style="clip-path:url(#SVGID_2_);fill:#0ED160;" d="M43.9,97.6L43.9,97.6c2.3,0,4.1,1.8,4.1,4.1v1.4c0,2-1.6,3.6-3.6,3.6h-1
			c-2,0-3.6-1.6-3.6-3.6v-1.4C39.8,99.4,41.6,97.6,43.9,97.6z"/>
		<path style="clip-path:url(#SVGID_2_);fill:#002E75;" d="M48.1,106.7h-8.4v-5.1c0-2.3,1.9-4.2,4.2-4.2c2.3,0,4.2,1.9,4.2,4.2
			V106.7z M39.9,106.4h7.9v-4.8c0-2.2-1.8-3.9-3.9-3.9c-2.2,0-3.9,1.8-3.9,3.9V106.4z"/>
		<path style="clip-path:url(#SVGID_2_);fill:#F9BC90;" d="M43.9,99.3L43.9,99.3c-0.5,0-0.9-0.4-0.9-0.9v-1.9c0-0.5,0.4-0.9,0.9-0.9
			h0c0.5,0,0.9,0.4,0.9,0.9v1.9C44.8,98.9,44.4,99.3,43.9,99.3z"/>
		<path style="clip-path:url(#SVGID_2_);fill:#FFCF9B;" d="M46,90.9c-0.6,0.4-1.4,0.6-2.1,0.6c-0.8,0-1.5-0.2-2.1-0.6
			c-1.1,0.7-1.9,2-2,3.4c0.6,1.6,2.2,2.8,4.1,2.8c1.9,0,3.5-1.2,4.1-2.8C47.9,92.9,47.1,91.7,46,90.9z"/>
		<path style="clip-path:url(#SVGID_2_);fill:#002E75;" d="M47.2,90c-0.3,0.4-0.7,0.7-1.1,0.9c1.1,0.7,1.9,2,2,3.4
			c0.2-0.5,0.3-1,0.3-1.5C48.2,91.8,47.8,90.8,47.2,90z"/>
		<path style="clip-path:url(#SVGID_2_);fill:#002E75;" d="M40.6,90c-0.7,0.8-1.1,1.8-1.1,2.9c0,0.5,0.1,1,0.3,1.5
			c0.1-1.4,0.8-2.7,2-3.4C41.3,90.7,40.9,90.4,40.6,90z"/>
		<path style="clip-path:url(#SVGID_2_);fill:#002E75;" d="M47.9,94.3C47.8,93,47.1,91.8,46,91l0.2-0.2c1.2,0.8,1.9,2,2,3.5
			L47.9,94.3z"/>
		<path style="clip-path:url(#SVGID_2_);fill:#002E75;" d="M39.9,94.3l-0.3,0c0.1-1.4,0.8-2.7,2-3.5l0.2,0.2
			C40.6,91.8,39.9,93,39.9,94.3z"/>
		<path style="clip-path:url(#SVGID_2_);fill:#002E75;" d="M45.1,88.7c-0.4-0.1-0.8-0.2-1.2-0.2c-0.4,0-0.8,0.1-1.2,0.2
			c-0.8,0.2-1.6,0.7-2.1,1.3c0.3,0.4,0.7,0.7,1.1,0.9c0.6,0.4,1.4,0.6,2.1,0.6c0.8,0,1.5-0.2,2.1-0.6c0.4-0.2,0.8-0.6,1.1-0.9
			C46.6,89.4,45.9,88.9,45.1,88.7z"/>
		<path style="clip-path:url(#SVGID_2_);fill:#002E75;" d="M43.9,91.6c-0.8,0-1.5-0.2-2.2-0.6c-0.4-0.3-0.8-0.6-1.2-1L40.4,90
			l0.1-0.1c0.6-0.7,1.3-1.1,2.2-1.4c0.8-0.2,1.7-0.2,2.5,0l0,0c0.8,0.2,1.6,0.7,2.2,1.4l0.1,0.1l-0.1,0.1c-0.3,0.4-0.7,0.7-1.2,1
			C45.4,91.4,44.6,91.6,43.9,91.6z M40.8,90c0.3,0.3,0.6,0.6,1,0.8c0.6,0.4,1.3,0.5,2.1,0.5c0.7,0,1.4-0.2,2.1-0.5
			c0.4-0.2,0.7-0.5,1-0.8c-0.5-0.6-1.2-1-1.9-1.2l0,0c-0.8-0.2-1.6-0.2-2.3,0C42,89,41.3,89.4,40.8,90z"/>
		<path style="clip-path:url(#SVGID_2_);fill:#002E75;" d="M43.9,99.5c-0.6,0-1.1-0.5-1.1-1.1v-1.1c-2-0.5-3.4-2.3-3.4-4.4
			c0-2.5,2-4.5,4.5-4.5c2.5,0,4.5,2,4.5,4.5c0,2.1-1.4,3.9-3.4,4.4v1.1C44.9,99,44.5,99.5,43.9,99.5z M43.9,88.6
			c-2.3,0-4.2,1.9-4.2,4.2c0,2,1.4,3.7,3.3,4.1l0.1,0v1.4c0,0.4,0.4,0.8,0.8,0.8c0.4,0,0.8-0.4,0.8-0.8V97l0.1,0
			c1.9-0.4,3.3-2.2,3.3-4.1C48.1,90.5,46.2,88.6,43.9,88.6z"/>
		<path style="clip-path:url(#SVGID_2_);fill:#002E75;" d="M43.5,90.8c-0.1,0-0.1,0-0.1-0.1c0-0.1,0-0.2,0.1-0.2
			c0.3-0.1,0.5-0.2,0.8-0.3c0.1,0,0.2,0,0.2,0c0,0.1,0,0.2,0,0.2C44.1,90.6,43.8,90.7,43.5,90.8C43.5,90.8,43.5,90.8,43.5,90.8z"/>
		<path style="clip-path:url(#SVGID_2_);fill:#0ED160;" d="M41.5,90.1C41.4,90.1,41.4,90.1,41.5,90.1c-0.2-0.1-0.2-0.2-0.1-0.2
			c0,0,0.6-0.7,1.7-0.9c0.1,0,0.2,0,0.2,0.1c0,0.1,0,0.2-0.1,0.2c-1,0.2-1.5,0.8-1.5,0.8C41.5,90.1,41.5,90.1,41.5,90.1z"/>
	</g>
	<path class="st15" d="M43.9,101.5c-4.8,0-8.6-3.9-8.6-8.6c0-4.8,3.9-8.6,8.6-8.6c4.8,0,8.6,3.9,8.6,8.6
		C52.5,97.7,48.6,101.5,43.9,101.5z M43.9,84.9c-4.4,0-8,3.6-8,8c0,4.4,3.6,8,8,8s8-3.6,8-8C51.9,88.5,48.3,84.9,43.9,84.9z"/>
	<path class="st15" d="M43.9,102c-5,0-9.1-4.1-9.1-9.1c0-5,4.1-9.1,9.1-9.1c5,0,9.1,4.1,9.1,9.1C53,97.9,48.9,102,43.9,102z
		 M43.9,85.3c-4.2,0-7.5,3.4-7.5,7.5s3.4,7.5,7.5,7.5s7.5-3.4,7.5-7.5S48,85.3,43.9,85.3z"/>
	<path class="st15" d="M122.1,42.1h-16.8c-0.6,0-1.1-0.5-1.1-1.1c0-0.6,0.5-1.1,1.1-1.1h16.8c0.6,0,1.1,0.5,1.1,1.1
		C123.2,41.7,122.7,42.1,122.1,42.1z"/>
	<path class="st15" d="M122.1,47.6h-16.8c-0.6,0-1.1-0.5-1.1-1.1c0-0.6,0.5-1.1,1.1-1.1h16.8c0.6,0,1.1,0.5,1.1,1.1
		C123.2,47.1,122.7,47.6,122.1,47.6z"/>
	<path class="st15" d="M122.1,53h-16.8c-0.6,0-1.1-0.5-1.1-1.1c0-0.6,0.5-1.1,1.1-1.1h16.8c0.6,0,1.1,0.5,1.1,1.1
		C123.2,52.5,122.7,53,122.1,53z"/>
	<path class="st15" d="M75.8,88.2H59c-0.6,0-1.1-0.5-1.1-1.1s0.5-1.1,1.1-1.1h16.8c0.6,0,1.1,0.5,1.1,1.1S76.4,88.2,75.8,88.2z"/>
	<path class="st15" d="M75.8,93.6H59c-0.6,0-1.1-0.5-1.1-1.1c0-0.6,0.5-1.1,1.1-1.1h16.8c0.6,0,1.1,0.5,1.1,1.1
		C76.8,93.2,76.4,93.6,75.8,93.6z"/>
	<path class="st15" d="M75.8,99.1H59c-0.6,0-1.1-0.5-1.1-1.1s0.5-1.1,1.1-1.1h16.8c0.6,0,1.1,0.5,1.1,1.1S76.4,99.1,75.8,99.1z"/>
	<path class="st15" d="M122.1,62H85C84.5,62,84,61.6,84,61c0-0.6,0.5-1.1,1.1-1.1h37.1c0.6,0,1.1,0.5,1.1,1.1
		C123.2,61.6,122.7,62,122.1,62z"/>
	<path class="st15" d="M122.1,67.3H85c-0.6,0-1.1-0.5-1.1-1.1c0-0.6,0.5-1.1,1.1-1.1h37.1c0.6,0,1.1,0.5,1.1,1.1
		C123.2,66.9,122.7,67.3,122.1,67.3z"/>
	<path class="st15" d="M122.1,72.6H85c-0.6,0-1.1-0.5-1.1-1.1c0-0.6,0.5-1.1,1.1-1.1h37.1c0.6,0,1.1,0.5,1.1,1.1
		C123.2,72.1,122.7,72.6,122.1,72.6z"/>
	<path class="st15" d="M122.1,77.9H96.9c-0.6,0-1.1-0.5-1.1-1.1c0-0.6,0.5-1.1,1.1-1.1h25.2c0.6,0,1.1,0.5,1.1,1.1
		C123.2,77.4,122.7,77.9,122.1,77.9z"/>
	<path class="st15" d="M122.1,82.4H96.9c-0.6,0-1.1-0.5-1.1-1.1s0.5-1.1,1.1-1.1h25.2c0.6,0,1.1,0.5,1.1,1.1S122.7,82.4,122.1,82.4z
		"/>
	<path class="st15" d="M122.1,86.9H96.9c-0.6,0-1.1-0.5-1.1-1.1c0-0.6,0.5-1.1,1.1-1.1h25.2c0.6,0,1.1,0.5,1.1,1.1
		C123.2,86.4,122.7,86.9,122.1,86.9z"/>
	<path class="st15" d="M122.1,91.3H96.9c-0.6,0-1.1-0.5-1.1-1.1c0-0.6,0.5-1.1,1.1-1.1h25.2c0.6,0,1.1,0.5,1.1,1.1
		C123.2,90.9,122.7,91.3,122.1,91.3z"/>
	<path class="st35" d="M90.4,50.9c-0.8,0-1.7-0.7-1.7-1.8c0-0.2,0-0.5,0.1-0.7h-0.5l-0.6,1.9c-0.1,0.4-0.5,0.6-1,0.6
		c-0.8,0-1.7-0.7-1.7-1.8c0-0.2,0-0.5,0.1-0.8c-1.1-0.1-1.5-0.8-1.5-1.5v-0.3c0-0.7,0.4-1.5,1.7-1.5H86l0.2-0.8
		c-1.1-0.1-1.5-0.8-1.5-1.5v-0.3c0-0.7,0.4-1.5,1.7-1.5h0.8l0.6-1.9c0.1-0.4,0.5-0.6,1-0.6c0.8,0,1.7,0.7,1.7,1.8
		c0,0.2,0,0.5-0.1,0.8H91l0.6-1.9c0.1-0.4,0.5-0.6,1-0.6c0.8,0,1.7,0.7,1.7,1.8c0,0.2,0,0.5-0.1,0.8c1.1,0.1,1.5,0.8,1.5,1.5v0.2
		c0,0.7-0.4,1.5-1.7,1.5h-0.8l-0.2,0.8c1.1,0.1,1.5,0.8,1.5,1.5v0.3c0,0.3-0.1,1.5-1.7,1.5h-0.8l-0.6,1.9
		C91.2,50.7,90.8,50.9,90.4,50.9z M89.7,45.2l0.3-0.8h-0.5l-0.2,0.8H89.7z"/>
	<path class="st15" d="M92.5,39.4c0.4,0,1,0.3,1,1c0,0.2,0,0.4-0.1,0.6l-0.3,0.9H94c0.6,0,0.9,0.2,0.9,0.7v0.2
		c0,0.5-0.3,0.7-0.9,0.7h-1.4l-0.7,2.3h0.9c0.6,0,0.9,0.2,0.9,0.7v0.3c0,0.5-0.3,0.7-0.9,0.7h-1.4L90.6,50c0,0-0.1,0.1-0.3,0.1
		c-0.4,0-1-0.3-1-1c0-0.1,0-0.4,0.1-0.6l0.3-0.9h-2.1L86.9,50c0,0-0.1,0.1-0.3,0.1c-0.4,0-1-0.3-1-1c0-0.1,0-0.4,0.1-0.6l0.3-0.9
		h-0.9c-0.6,0-0.9-0.2-0.9-0.7v-0.3c0-0.5,0.3-0.7,0.9-0.7h1.4l0.7-2.3h-0.9c-0.6,0-0.9-0.2-0.9-0.7v-0.3c0-0.5,0.3-0.7,0.9-0.7h1.4
		l0.8-2.5c0,0,0.1-0.1,0.3-0.1c0.4,0,1,0.3,1,1c0,0.2,0,0.4-0.1,0.6l-0.3,0.9h2.1l0.8-2.5C92.3,39.4,92.4,39.4,92.5,39.4 M91,43.6
		h-2.1l-0.7,2.3h2.1L91,43.6 M92.5,37.9c-0.8,0-1.4,0.4-1.7,1.1c-0.5-0.7-1.3-1.1-2-1.1c-0.8,0-1.5,0.4-1.7,1.1l-0.4,1.4h-0.3
		c-1.7,0-2.4,1.1-2.4,2.2v0.3c0,0.6,0.2,1.1,0.6,1.5c-1.3,0.2-1.8,1.2-1.8,2.2v0.3c0,0.8,0.4,1.7,1.4,2c0,0.1,0,0.1,0,0.2
		c0,1.6,1.3,2.5,2.5,2.5c0.8,0,1.4-0.4,1.7-1.1c0.5,0.7,1.3,1.1,2,1.1c0.8,0,1.5-0.4,1.7-1.1l0.4-1.4h0.3c1.7,0,2.4-1.1,2.4-2.2
		v-0.3c0-0.6-0.2-1.1-0.6-1.5c1.3-0.2,1.8-1.2,1.8-2.2v-0.2c0-0.8-0.4-1.7-1.4-2c0-0.1,0-0.1,0-0.2C95,38.8,93.7,37.9,92.5,37.9
		L92.5,37.9z"/>
	<path class="st15" d="M26.2,116.8c-0.5,0.1-1.1-0.2-1.2-0.8c-0.3-1.1-0.4-2.3-0.4-3.4c0-0.6,0.5-1,1-1c0.6,0,1,0.5,1,1
		c0,1,0.1,2,0.3,2.9C27.2,116.1,26.8,116.6,26.2,116.8C26.3,116.7,26.3,116.7,26.2,116.8"/>
	<path class="st15" d="M39.5,127.3c-0.1,0-0.1,0-0.2,0c-5.5,0-10.5-3.1-13-8c-0.3-0.5-0.1-1.1,0.4-1.4c0.5-0.3,1.1-0.1,1.4,0.4
		c2.2,4.2,6.5,6.8,11.2,6.8c0.6,0,1,0.5,1,1C40.3,126.7,40,127.2,39.5,127.3"/>
	<path class="st15" d="M62.3,111c-0.2,0-0.4-0.1-0.5-0.2l-1.9-1.9c-0.3-0.3-0.3-0.8,0-1.1l1.9-1.9c0.3-0.3,0.8-0.3,1.1,0
		s0.3,0.8,0,1.1l-1.3,1.3l1.3,1.3c0.3,0.3,0.3,0.8,0,1.1C62.7,110.9,62.5,111,62.3,111z"/>
	<path class="st15" d="M66.8,111c-0.2,0-0.4-0.1-0.5-0.2l-1.9-1.9c-0.3-0.3-0.3-0.8,0-1.1l1.9-1.9c0.3-0.3,0.8-0.3,1.1,0
		s0.3,0.8,0,1.1l-1.3,1.3l1.3,1.3c0.3,0.3,0.3,0.8,0,1.1C67.2,110.9,67,111,66.8,111z"/>
	<path class="st15" d="M75.8,111c-0.2,0-0.4-0.1-0.5-0.2l-1.9-1.9c-0.3-0.3-0.3-0.8,0-1.1l1.9-1.9c0.3-0.3,0.8-0.3,1.1,0
		s0.3,0.8,0,1.1l-1.3,1.3l1.3,1.3c0.3,0.3,0.3,0.8,0,1.1C76.2,110.9,76,111,75.8,111z"/>
	<path class="st1" d="M86.8,102.4c-0.6,0-1-0.5-1-1V87.1c0-0.6,0.5-1,1-1c0.6,0,1,0.5,1,1v14.2C87.8,101.9,87.4,102.4,86.8,102.4z"
		/>
	<path class="st1" d="M86.8,107.8c-0.6,0-1-0.5-1-1v-2c0-0.6,0.5-1,1-1c0.6,0,1,0.5,1,1v2C87.8,107.3,87.4,107.8,86.8,107.8z"/>
</g>
</svg>
