<?xml version="1.0" encoding="UTF-8"?>
<svg width="170px" height="29px" viewBox="0 0 170 29" version="1.1" xmlns="http://www.w3.org/2000/svg" xmlns:xlink="http://www.w3.org/1999/xlink">
    <!-- Generator: sketchtool 55.2 (78181) - https://sketchapp.com -->
    <title>CC524A20-1DC5-45CF-88E9-B15F5D7172EE</title>
    <desc>Created with sketchtool.</desc>
    <g id="Mailings" stroke="none" stroke-width="1" fill="none" fill-rule="evenodd">
        <g id="15-días" transform="translate(-43.000000, -20.000000)" fill="#FFFFFF">
            <g id="Group-38" transform="translate(43.000000, 20.000000)">
                <path d="M3.62813218,0.000391269841 C1.63307471,0.000391269841 0.000488505747,1.63492103 0.000488505747,3.6930004 L0.000488505747,27.6670817 L23.4614655,27.6670817 C25.4575,27.6670817 27.0900862,26.032552 27.0900862,23.9744726 L27.0900862,0.000391269841 L3.62813218,0.000391269841 Z M20.7404885,19.9786294 L6.3491092,22.6412206 L6.3491092,7.74949048 L20.7404885,5.08494286 L20.7404885,19.9786294 Z" id="Fill-22"></path>
                <path d="M77.7021149,16.6484339 C78.7905057,16.1035907 79.2741264,15.2564915 79.2741264,13.8635708 C79.2741264,10.2922554 76.432,8.05223552 73.3475747,8.05223552 C69.1151609,8.05223552 66.0922874,11.2000014 66.0922874,16.2855312 C66.0922874,20.9475113 69.719931,23.7930212 73.4081494,23.7930212 C75.584931,23.7930212 76.9761954,23.4291403 77.7626897,22.7630034 L77.7626897,20.2197494 C76.6137241,20.7655708 75.2830345,20.9475113 74.0734943,20.9475113 C71.7765402,20.9475113 69.9622299,19.6758843 69.6593563,17.6168268 L69.6593563,17.4358645 L72.3207356,17.4358645 C74.8599885,17.4358645 76.6137241,17.253924 77.7021149,16.6484339 L77.7021149,16.6484339 Z M69.6593563,15.0139042 L69.6593563,14.8329419 L69.6593563,14.2871204 C69.719931,12.4706502 71.0506207,10.8370986 72.9851034,10.8370986 C73.8927471,10.8370986 74.6176897,11.0180609 75.1618851,11.4425887 C75.7070575,11.8651601 76.008954,12.4706502 76.008954,13.3187276 C76.008954,13.9242177 75.7666552,14.4084141 75.0407356,14.5903546 C74.3157931,14.8329419 73.2274023,14.9542355 71.413092,14.9542355 L69.6593563,14.9542355 L69.6593563,15.0139042 Z" id="Fill-24"></path>
                <path d="M81.1483276,13.9241198 L81.1483276,23.5503361 L84.6557989,23.5503361 L84.6557989,14.5902567 C84.6557989,13.3792766 84.8971207,12.5321774 85.3817184,11.9873341 C85.8653391,11.4424909 86.5902816,11.1392567 87.4373506,11.1392567 C87.7998218,11.1392567 88.1026954,11.1392567 88.404592,11.1999036 L88.404592,8.35537183 C87.981546,8.11278452 87.3767759,7.99149087 86.6508563,7.99149087 C82.6597644,8.0521377 81.1483276,10.8370008 81.1483276,13.9241198" id="Fill-26"></path>
                <polygon id="Fill-28" points="35.192931 23.5504339 38.7004023 23.5504339 38.7004023 4.17768591 35.192931 4.17768591"></polygon>
                <path d="M48.0725805,8.05223552 C43.4161437,8.05223552 41.3605115,11.321295 41.3605115,14.5297077 L41.3605115,23.5504339 L44.807408,23.5504339 L44.807408,14.7713169 C44.807408,13.6209835 45.1093046,12.7142157 45.5929253,12.1077474 C46.1371207,11.5022573 46.8630402,11.1393546 47.7091322,11.1393546 C48.7379253,11.1393546 49.5234425,11.4425887 50.0676379,12.1077474 C50.6118333,12.7738843 50.9147069,13.7422772 50.9147069,15.074551 L50.9147069,23.5504339 L54.3616034,23.5504339 L54.3616034,14.7116482 C54.4817759,10.4125708 51.6396494,8.05223552 48.0725805,8.05223552" id="Fill-30"></path>
                <path d="M60.5891724,4.17768591 L57.1422759,4.17768591 L57.1422759,18.1626482 C57.1422759,21.7339637 58.8960115,23.7930212 62.7063563,23.7930212 C64.2773908,23.7930212 65.2456092,23.2471998 65.6686552,22.4001006 L65.6686552,20.2197494 C65.0638851,20.5229835 64.2177931,20.6442772 63.189977,20.6442772 C62.4034828,20.6442772 61.7381379,20.4623367 61.315092,19.9781403 C60.892046,19.4939438 60.6497471,18.7671601 60.6497471,17.7381204 L60.6497471,11.1393546 L63.6735977,11.1393546 C65.1244598,11.1393546 65.7898046,10.1709617 65.7898046,9.44417798 L65.7898046,8.05223552 L60.6497471,8.05223552 L60.6497471,4.17768591 L60.5891724,4.17768591 Z" id="Fill-31"></path>
                <path d="M113.861994,16.6484339 C114.950385,16.1035907 115.434006,15.2564915 115.434006,13.8635708 C115.434006,10.2922554 112.591879,8.05223552 109.508431,8.05223552 C105.27504,8.05223552 102.252167,11.2000014 102.191592,16.2855312 C102.191592,20.8868645 105.820213,23.7930212 109.508431,23.7930212 C111.685213,23.7930212 113.0755,23.4291403 113.861994,22.7630034 L113.861994,20.1600808 C112.713029,20.7039458 111.382339,20.8868645 110.173776,20.8868645 C107.875845,20.8868645 106.061534,19.6152375 105.759638,17.5571581 L105.759638,17.3752177 L108.42004,17.3752177 C110.959293,17.4358645 112.713029,17.1942554 113.861994,16.6484339 L113.861994,16.6484339 Z M105.820213,15.074551 L105.820213,14.8926105 L105.820213,14.3477673 C105.880787,12.5322752 107.2105,10.8967673 109.144983,10.8967673 C110.052626,10.8967673 110.777569,11.0796859 111.321764,11.5022573 C111.866937,11.9267851 112.168833,12.5322752 112.168833,13.3793744 C112.168833,13.9848645 111.927511,14.4690609 111.201592,14.7116482 C110.536247,14.9542355 109.387282,15.074551 107.633546,15.074551 L105.820213,15.074551 Z" id="Fill-32"></path>
                <path d="M147.542707,13.9241198 L147.542707,23.5503361 L151.050178,23.5503361 L151.050178,14.5902567 C151.050178,13.3792766 151.2915,12.5321774 151.776098,11.9873341 C152.259718,11.4424909 152.984661,11.1392567 153.83173,11.1392567 C154.194201,11.1392567 154.497075,11.1392567 154.798971,11.1999036 L154.798971,8.35537183 C154.375925,8.11278452 153.771155,7.99149087 153.045236,7.99149087 C149.054144,8.0521377 147.542707,10.8370008 147.542707,13.9241198" id="Fill-33"></path>
                <path d="M94.7539943,23.7316897 C92.2137644,23.7316897 90.2792816,22.2791004 90.2792816,20.7658643 L90.2792816,19.0697095 L90.400431,19.0697095 C91.1263506,19.7974714 92.9396839,20.523277 94.5722701,20.523277 C96.265431,20.523277 97.1125,19.9784337 97.1125,18.8887472 C97.1125,18.041648 96.6279023,17.6171202 94.2097989,17.2542175 C91.3070977,16.8296897 89.8562356,15.5590409 89.8562356,13.2583742 C89.8562356,10.4128643 92.2137644,8.05252897 95.7212356,8.05252897 C98.8652586,8.05252897 100.135374,9.80835238 100.135374,11.2609417 L100.135374,12.713531 L100.074799,12.713531 C99.3498563,11.9270786 97.7778448,11.3206103 96.1442816,11.3206103 C94.0280747,11.3206103 93.3637069,11.9867472 93.3637069,13.0167651 C93.3637069,13.7425706 93.7867529,14.1054734 96.1442816,14.4693544 C98.9873851,14.9535508 100.55842,16.3454933 100.55842,18.7674536 C100.497845,21.8555508 98.4422126,23.7316897 94.7539943,23.7316897" id="Fill-34"></path>
                <path d="M129.765201,19.1913944 C129.765201,19.7968845 129.825776,20.6439837 129.825776,21.1281802 C129.825776,24.8814361 127.527845,28.2717893 123.053132,28.2717893 C120.211006,28.2717893 118.276523,26.7585532 118.276523,25.0027298 L118.276523,23.3085313 L118.45727,23.3085313 C119.304339,24.2769242 120.876351,24.9430611 122.871408,24.9430611 C125.351063,24.9430611 126.500029,23.6714341 126.500029,21.4920611 L126.500029,20.7046306 L126.500029,19.978825 L126.500029,19.6159222 C126.198132,20.7046306 124.928017,21.8559421 122.931983,21.8559421 C119.546638,21.8559421 117.187155,19.3126881 117.187155,15.7413726 C117.187155,11.5029421 119.727385,8.05194206 124.202098,8.05194206 C127.648994,8.05194206 129.825776,10.7761583 129.825776,14.6507079 L129.825776,17.1939619 C129.704626,17.6781583 129.704626,18.5252575 129.765201,19.1913944 M120.513879,15.1955512 C120.513879,17.1939619 121.60227,18.6465512 123.294454,18.6465512 C125.04819,18.6465512 126.25773,17.2546087 126.25773,14.8326484 C126.25773,12.4713349 125.169339,11.3210016 123.657902,11.3210016 C121.904167,11.3210016 120.513879,12.9555313 120.513879,15.1955512" id="Fill-35"></path>
                <path d="M162.538954,7.9910996 C166.772345,7.9910996 169.251023,11.6240401 169.251023,15.6198833 C169.251023,20.1595917 166.83292,23.7318853 162.23608,23.7318853 C158.003667,23.7318853 155.524989,20.099923 155.524989,16.1040798 C155.524989,11.6240401 158.003667,7.9910996 162.538954,7.9910996 M162.23608,11.1398437 C160.119874,11.1398437 159.031483,13.0169607 159.031483,15.6198833 C159.031483,18.7070024 160.119874,20.5841194 162.538954,20.5841194 C164.656138,20.5841194 165.743552,18.7070024 165.743552,16.1637484 C165.743552,13.0169607 164.656138,11.1398437 162.23608,11.1398437" id="Fill-36"></path>
                <path d="M138.472425,23.8529833 C143.128862,23.8529833 145.12392,20.5839238 145.12392,17.3755111 L145.12392,8.2941381 L141.677023,8.2941381 L141.677023,17.072277 C141.677023,18.2226103 141.375126,19.1313345 140.891506,19.7358464 C140.34731,20.3413365 139.621391,20.7042393 138.775299,20.7042393 C137.746506,20.7042393 136.960989,20.4029615 136.416793,19.7358464 C135.872598,19.0697095 135.569724,18.1013167 135.569724,16.770021 L135.569724,8.23349127 L132.122828,8.23349127 L132.122828,17.072277 C132.122828,21.4916698 134.965931,23.7923365 138.472425,23.8529833" id="Fill-37"></path>
            </g>
        </g>
    </g>
</svg>