<svg xmlns="http://www.w3.org/2000/svg" width="50" height="49" viewBox="0 0 50 49"><defs><style>.a{fill:#f4f5f8;}.b{fill:#383c5a;}</style></defs><g transform="translate(-0.024 -0.302)"><ellipse class="a" cx="25" cy="24.5" rx="25" ry="24.5" transform="translate(0.024 0.302)"/><g transform="translate(12.979 10.747)"><path class="b" d="M1233.967,651.518a6.244,6.244,0,0,1-.959-.075,20.1,20.1,0,0,1-16.753-22.683c0-.038.01-.076.016-.115l0-.031v-.008h0a6.2,6.2,0,0,1,7.051-5.125l.028,0,.045.007a6.269,6.269,0,0,1,1.243.327,6.158,6.158,0,0,1,.823.383,1.581,1.581,0,0,1,.812,1.285l.494,7.7a1.58,1.58,0,0,1-.638,1.376,6.225,6.225,0,0,1-1.441.8,12.1,12.1,0,0,0,4.474,6.065,6.177,6.177,0,0,1,1.225-1.14,1.584,1.584,0,0,1,1.482-.184l7.129,2.737a1.585,1.585,0,0,1,.975,1.117,5.6,5.6,0,0,1,.14.929,6.188,6.188,0,0,1-6.154,6.633Zm-.634-2.17a4.058,4.058,0,0,0,4.672-4.313c-.007-.11-.019-.217-.036-.322l-6.577-2.525a3.979,3.979,0,0,0-1,1.2l-.525.964-.946-.558a14.208,14.208,0,0,1-6.565-8.911l-.257-1.084,1.1-.2a4,4,0,0,0,1.442-.571l-.455-7.1c-.1-.045-.191-.085-.285-.121a4.119,4.119,0,0,0-.822-.217l-.067-.01a4.072,4.072,0,0,0-4.64,3.366v.011l-.013.094a17.969,17.969,0,0,0,14.978,20.3Z" transform="translate(-1216.046 -623.408)"/></g></g></svg>