<svg xmlns="http://www.w3.org/2000/svg" width="124.558" height="124.855" viewBox="0 0 124.558 124.855"><defs><style>.a{fill:#b7c5f4;}.b{fill:#5fa7fb;}.c{fill:#df6718;}.d{fill:#ebae98;}.e{fill:#ffaf97;}.f{fill:#0855c4;}.g{fill:#fff;}.h{fill:#162458;}.i{fill:#df8879;}.j{fill:#c8158c;}</style></defs><g transform="translate(-2958.395 -2484.345)"><g transform="translate(2958.395 2484.345)"><circle class="a" cx="62.279" cy="62.279" r="62.279"/></g><g transform="translate(2991.676 2578.624)"><path class="b" d="M3107.649,2791.275h-.639v-4.995c0-3.539-3.248-6.418-7.241-6.418h-29.4c-3.993,0-7.241,2.879-7.241,6.418v4.995h-.64v-4.995c0-3.892,3.535-7.058,7.881-7.058h29.4c4.345,0,7.88,3.166,7.88,7.058Z" transform="translate(-3062.489 -2779.223)"/></g><g transform="translate(3041.621 2538.693)"><path class="c" d="M3218.828,2655.291l1.214,1.332.92-2.213-1.7-.078a.506.506,0,0,0-.49.352l-.039.118A.485.485,0,0,0,3218.828,2655.291Z" transform="translate(-3218.703 -2654.331)"/></g><g transform="translate(3008.012 2504.445)"><g transform="translate(0 0)"><rect class="b" width="3.522" height="0.639" transform="matrix(0.584, -0.812, 0.812, 0.584, 0, 2.859)"/></g><g transform="translate(2.272 1.978)"><rect class="b" width="3.354" height="0.639" transform="matrix(0.584, -0.812, 0.812, 0.584, 0, 2.722)"/></g><g transform="translate(0.51 0.019)"><rect class="b" width="5.642" height="0.639" transform="translate(0 4.584) rotate(-54.339)"/></g></g><g transform="translate(3049.79 2580.054)"><path class="b" d="M3253.372,2794.317h-.639v-6.542a3.445,3.445,0,0,0-3.441-3.441h-.96a3.445,3.445,0,0,0-3.441,3.441v6.542h-.64v-6.542a4.085,4.085,0,0,1,4.081-4.08h.96a4.084,4.084,0,0,1,4.08,4.08Z" transform="translate(-3244.252 -2783.695)"/></g><g transform="translate(2975.241 2534.338)"><path class="d" d="M3024.95,2645.288s-9.317-5.835-12.47-4.329c0,0-4,1.882,1.553,9.129,0,0,6.023,6.577,13.693,9.129Z" transform="translate(-3011.086 -2640.711)"/></g><g transform="translate(2973.115 2531.973)"><path class="e" d="M3020.07,2638.475s-10.508-6.581-14.063-4.882c0,0-4.511,2.123,1.751,10.3,0,0,6.793,7.418,15.444,10.3Z" transform="translate(-3004.434 -2633.312)"/></g><g transform="translate(2987.599 2501.851)"><path class="f" d="M3107.153,2539.1h-50.644a6.763,6.763,0,0,0-6.771,6.755v90.815a62.45,62.45,0,0,0,64.186,1.183v-92A6.762,6.762,0,0,0,3107.153,2539.1Z" transform="translate(-3049.738 -2539.1)"/></g><g transform="translate(2990.505 2510.494)"><path class="g" d="M3058.827,2568.125V2657.5a64.976,64.976,0,0,0,58.345.821v-90.2a1.994,1.994,0,0,0-1.993-1.993h-54.358A1.993,1.993,0,0,0,3058.827,2568.125Z" transform="translate(-3058.827 -2566.131)"/></g><g transform="translate(3007.599 2504.81)"><rect class="g" width="16.254" height="2.263" rx="1.131" transform="translate(0 0)"/></g><g transform="translate(3026.568 2504.81)"><circle class="g" cx="1.131" cy="1.131" r="1.131" transform="translate(0 0)"/></g><g transform="translate(3030.76 2504.81)"><circle class="g" cx="1.131" cy="1.131" r="1.131" transform="translate(0 0)"/></g><g transform="translate(3028.024 2550.554)"><path class="d" d="M3209.608,2734.568s7.646-12.3,3.5-23.682c0,0-4.894-12.081-11.67-18.129,0,0-1.882-2.987-8.658,0,0,0-20.893,8.774-15.811,12.939,0,0,4.356,3.305,18.271-2.477,0,0-.2,9.368,4.692,13.464v24.778l5.439-3.553Z" transform="translate(-3176.176 -2691.429)"/></g><g transform="translate(3028.024 2550.554)"><path class="e" d="M3209.608,2734.568s7.646-12.3,3.5-23.682c0,0-4.894-12.081-11.67-18.129,0,0-1.882-2.987-8.658,0,0,0-20.893,8.774-15.811,12.939,0,0,4.356,3.305,18.271-2.477,0,0-.2,9.368,4.692,13.464v24.778l4.665-3.018q.606-.392,1.172-.84Z" transform="translate(-3176.176 -2691.429)"/></g><g transform="translate(3046.955 2562.365)"><path class="h" d="M3247.241,2746.922c-12.17-3.567-11.86-18.4-11.856-18.552l.639.019c0,.145-.3,14.492,11.4,17.918Z" transform="translate(-3235.384 -2728.37)"/></g><g transform="translate(2974.965 2574.904)"><path class="e" d="M3024.459,2770.477s5.448,3.738,4.592,6.6c0,0-.234,2.908-5.76,2.908,0,0-6.227.363-10.663-3.918,0,0-6.616-7.472,2.1-8.484C3014.729,2767.587,3023.136,2768.152,3024.459,2770.477Z" transform="translate(-3010.223 -2767.587)"/></g><g transform="translate(2978.17 2553.366)"><path class="e" d="M3026.139,2700.243s8.64,1.177,15.8,11.114c0,0,1.868,3.222-2.8,4.323a21.534,21.534,0,0,1-10.482-.814s-9.21-2.563-8.354-8.5C3020.3,2706.367,3021.7,2699.818,3026.139,2700.243Z" transform="translate(-3020.245 -2700.223)"/></g><g transform="translate(2994.448 2562.945)"><path class="i" d="M3071.569,2734.795c-1.457-2.9,1.44-4.594,1.47-4.611l.158.278a3.149,3.149,0,0,0-1.342,4.189Z" transform="translate(-3071.159 -2730.184)"/></g><g transform="translate(2988.149 2581.106)"><path class="i" d="M3051.863,2791.569c-1.448-2.884,1.432-4.566,1.461-4.582l.158.278a3.128,3.128,0,0,0-1.333,4.161Z" transform="translate(-3051.457 -2786.987)"/></g><g transform="translate(2975.548 2563.191)"><path class="e" d="M3017.94,2730.974s8.64,1.177,15.8,11.114c0,0,1.868,3.222-2.8,4.322a21.531,21.531,0,0,1-10.482-.814s-9.21-2.564-8.355-8.5C3012.1,2737.1,3013.5,2730.55,3017.94,2730.974Z" transform="translate(-3012.046 -2730.954)"/></g><g transform="translate(2991.895 2572.526)"><path class="i" d="M3063.59,2764.839c-1.481-2.95,1.464-4.671,1.494-4.688l.158.278a3.207,3.207,0,0,0-1.366,4.266Z" transform="translate(-3063.174 -2760.151)"/></g><path class="a" d="M3125.524,2628.1a11.294,11.294,0,0,0-2.384-5.891c-2.417-3.032-7.75-3.921-9.97-4.165-3.024-4.393-8.175-6.711-14.932-6.711a19.252,19.252,0,0,0-2.554.162l-.073.01a11.07,11.07,0,0,0-9.038,6.5,4.868,4.868,0,0,0-4.572,4.781v5.422a2.85,2.85,0,0,0,2.786,2.9h2.546a4.683,4.683,0,0,0,8.771,0h14.7a4.683,4.683,0,0,0,8.771,0h2.677c2.049,0,3.273-1.085,3.273-2.9C3125.527,2628.172,3125.526,2628.137,3125.524,2628.1Zm-29.7-14.568.071-.01a17.066,17.066,0,0,1,2.344-.153c5.423,0,9.655,1.619,12.369,4.7h-21.76A8.982,8.982,0,0,1,3095.822,2613.529Zm-4.1,18.585a2.654,2.654,0,1,1,2.654-2.653A2.656,2.656,0,0,1,3091.717,2632.114Zm23.474,0a2.654,2.654,0,1,1,2.654-2.653A2.656,2.656,0,0,1,3115.191,2632.114Zm7.063-3.041h-2.391a4.687,4.687,0,0,0-9.343,0h-14.132a4.687,4.687,0,0,0-9.343,0h-2.26a.815.815,0,0,1-.749-.867v-5.422a2.906,2.906,0,0,1,3.084-2.769l.117,0v.09h25.35v-.073c3.113.286,7.291,1.354,8.958,3.445a9.307,9.307,0,0,1,1.943,4.731C3123.49,2628.572,3123.49,2629.073,3122.254,2629.073Z" transform="translate(-84.086 -86.385)"/><rect class="j" width="39.171" height="11.786" rx="5.893" transform="translate(3000.233 2569.131)"/></g></svg>