<svg xmlns="http://www.w3.org/2000/svg" width="122" height="122" viewBox="0 0 122 122"><defs><style>.a{fill:#b7c5f4;}.b,.c{fill:#fff;}.c{opacity:0.998;}.d{fill:#faf5f5;}.e{fill:#0854c4;}.f{fill:#00b3ff;}</style></defs><g transform="translate(0)"><circle class="a" cx="61" cy="61" r="61" transform="translate(0 0)"/><g transform="translate(26.763 23.459)"><g transform="translate(0)"><path class="b" d="M354.417,81.811a17.378,17.378,0,0,0-22.539-22.539l11.27,11.271L332.816,79.9,322.033,69.115a17.376,17.376,0,0,0,22.539,22.541l35.914,35.914a5.565,5.565,0,0,0,7.872,0l1.973-1.974a5.568,5.568,0,0,0,0-7.871Z" transform="translate(-320.823 -58.062)"/><g transform="translate(3.139 5.006)"><path class="c" d="M482.588,214.079a2.672,2.672,0,0,1,0,3.779l-1.621,1.621a2.672,2.672,0,0,1-3.779,0l-32.724-32.725a2.672,2.672,0,0,1,0-3.779l1.62-1.62a2.672,2.672,0,0,1,3.779,0Z" transform="translate(-419.171 -158.008)"/><path class="d" d="M350.365,210.276l-.014-.016-10.286,5.3-5.3,10.283,4.991,4.993,10.285-5.3,5.282-10.26,23.616-23.327-5.107-4.858Z" transform="translate(-334.77 -163.061)"/><path class="e" d="M502.01,82.346l-23.725,23.725,9.847,9.845,23.724-23.725a6.961,6.961,0,0,0-9.845-9.845Z" transform="translate(-445.987 -80.306)"/></g></g><path class="f" d="M455.986,225.38a2.179,2.179,0,0,1-3.082,0l-6.764-6.764a2.179,2.179,0,0,1,0-3.081l2.708-2.708,9.845,9.845Z" transform="translate(-417.444 -177.998)"/><path class="e" d="M470.214,208.737l-9.845-9.845c3.464.6,5.285.3,4.046-4.046l9.845,9.845C470.259,204.1,469.511,205.494,470.214,208.737Z" transform="translate(-428.965 -164.063)"/></g></g></svg>