<svg xmlns="http://www.w3.org/2000/svg" xmlns:xlink="http://www.w3.org/1999/xlink" width="121.069" height="122" viewBox="0 0 121.069 122"><defs><style>.a{fill:#e6edf0;}.b{fill:#b7c5f4;}.c{clip-path:url(#a);}.d{fill:#ffaf97;}.e{fill:#0855c4;}.f{fill:#f0f3fc;}.g{fill:#b0ccf4;}.h{fill:#dce8fd;}.i{fill:#fff;}.j{fill:#162458;}.k,.l,.m,.v{fill:none;}.k,.l{stroke:#162458;}.k,.l,.m{stroke-miterlimit:10;}.k{stroke-width:0.5px;}.l{stroke-width:0.3px;}.m{stroke:#d54f1f;stroke-width:0.2px;}.n{fill:#edb38c;}.o{fill:#3a5cbc;}.p{fill:#4c6890;}.q{fill:#d3e4f8;}.r{fill:#f2e47c;}.s{fill:#ba5353;}.t{fill:#292a3a;}.u{fill:#ea0f90;}</style><clipPath id="a"><ellipse class="a" cx="60.534" cy="61" rx="60.534" ry="61"/></clipPath></defs><g transform="translate(-0.454 0.331)"><ellipse class="b" cx="60.534" cy="61" rx="60.534" ry="61" transform="translate(0.454 -0.331)"/><g class="c" transform="translate(0.454 -0.331)"><g transform="translate(13.028 10.883)"><path class="d" d="M1800.042,2938.131l.3,10.4a1.7,1.7,0,0,0,1.325,1.611l.161.036s-4.678,6.733-15.527-.585l.888-.194a2.133,2.133,0,0,0,1.678-2.023l.255-14.4Z" transform="translate(-1749.337 -2915.427)"/><path class="d" d="M1896.745,3008.831s22.7,16.372,22.7,20.224-3.028,15.134-21.6,24.214L1895.5,3049l13.347-17.748-15.134-10.319Z" transform="translate(-1826.854 -2970.167)"/><path class="d" d="M1674.029,3006.854s-20.5,21.6-20.5,25.452,6.191,10.731,24.765,19.811l2.339-4.265-14.308-15.409,12.657-14.308Z" transform="translate(-1653.53 -2968.74)"/><path class="e" d="M1722.426,2979.776s14.172.4,15.549,1.951.826,19.123-1.012,27.238l-.775,20.578-35.91,2.263-3.852-29.3-7.154,7.979s-5.916-.55-10.043-9.08c0,0,8.743-12.669,13.048-16.286s17.909-6.027,17.909-6.027Z" transform="translate(-1672.075 -2948.704)"/><path class="f" d="M1767.479,2999.612l-.861-17.22,2.96-.635,1.066,18.081Z" transform="translate(-1735.137 -2950.629)"/><path class="f" d="M1860.128,2999.9l-2.44-17.3-2.889-.206,2.273,17.743Z" transform="translate(-1798.77 -2951.086)"/><path class="e" d="M1886.808,2988.074c3.852,1.375,17.025,15.133,17.025,15.133s-.413,7.979-7.154,11.419l-10.869-4.815Z" transform="translate(-1821.149 -2955.188)"/><path class="f" d="M1760.473,3110.541c.771.1,1.683,6.866,2.6,16.566h17.464v-34.131l-1.722-22.731-3.788-24.969-29.016.172-4,23.114-.39,3.406s-3.049,34.4-4.753,55.139h19.172C1757.932,3117.153,1759.542,3110.425,1760.473,3110.541Z" transform="translate(-1713.665 -2996.467)"/><path class="g" d="M2065.247,3245.567h-5.994a1.568,1.568,0,0,1-1.564-1.563h0a1.568,1.568,0,0,1,1.564-1.564h5.994a1.568,1.568,0,0,1,1.564,1.564h0A1.568,1.568,0,0,1,2065.247,3245.567Z" transform="translate(-1945.179 -3138.744)"/><rect class="h" width="3.375" height="8.903" transform="translate(115.386 109.427)"/><path class="h" d="M2062.827,3302.979H2069l-.675-7.392H2063.5Z" transform="translate(-1948.887 -3177.095)"/><path class="h" d="M2062.827,3322.143H2069l-.336,2.371a2.777,2.777,0,0,1-2.75,2.386h0a2.777,2.777,0,0,1-2.749-2.386Z" transform="translate(-1948.887 -3196.259)"/><path class="g" d="M2064.319,3263.086h3.964a.957.957,0,0,0,.954-.954h0a.956.956,0,0,0-.954-.953h-3.964a.956.956,0,0,0-.954.953h0A.957.957,0,0,0,2064.319,3263.086Z" transform="translate(-1949.276 -3152.266)"/><path class="g" d="M2064.319,3290.643h3.964a.957.957,0,0,0,.954-.954h0a.956.956,0,0,0-.954-.954h-3.964a.956.956,0,0,0-.954.954h0A.957.957,0,0,0,2064.319,3290.643Z" transform="translate(-1949.276 -3172.151)"/><rect class="g" width="7.5" height="1.907" rx="0.954" transform="translate(113.276 124.931)"/><ellipse class="i" cx="1.865" cy="1.503" rx="1.865" ry="1.503" transform="translate(40.609 16.769) rotate(-87.865)"/><path class="d" d="M1801.557,2904.766s3.525,3.792,7.253,4.519a4.975,4.975,0,0,0,5.118-2.181c1.762-2.829,5.111-9.954-.151-17.131l-7.823-4.543-6.37,9.461-.063,3.4.636,9.52.225,4.777c1.726,1.415,0,0,2.2-.667a3.865,3.865,0,0,0,2.1-1.389l1.276-4Z" transform="translate(-1758.881 -2881.118)"/><path class="j" d="M1787.532,2892.926s-.18-3.075.048-1.082l.958,1.167s-.673-9.07,4.261-9.923c0,0,8.377.456,10.508,4.937,0,0-.123-8.386-6.043-9.391,0,0-13.435-1.089-15,8.3,0,0,1.225,9.067,3.985,12.453l-.006-4.851Z" transform="translate(-1746.427 -2876.185)"/><ellipse class="j" cx="0.96" cy="0.783" rx="0.96" ry="0.783" transform="translate(49.859 16.905) rotate(-87.865)"/><ellipse class="j" cx="0.96" cy="0.783" rx="0.96" ry="0.783" transform="translate(55.279 16.748) rotate(-87.865)"/><path class="k" d="M1836.146,2946.8s.639,2.21,3.732,1.5" transform="translate(-1785.309 -2925.407)"/><path class="l" d="M1831.9,2918.037a2.247,2.247,0,0,0-2.633,1.142" transform="translate(-1780.345 -2904.593)"/><path class="l" d="M1854.579,2917.991a1.708,1.708,0,0,0-2.062-.711" transform="translate(-1797.123 -2903.999)"/><path class="m" d="M1850.327,2930.074s2.45,2.264.372,2.9" transform="translate(-1795.543 -2913.334)"/><ellipse class="n" cx="1.776" cy="1.414" rx="1.776" ry="1.414" transform="translate(38.605 18.657) rotate(-87.865)"/><path class="o" d="M1769.884,3146.7c-8.853,0-16.569-.526-16.709-.535a.111.111,0,0,1,.007-.221h.007c.256.02,25.946,1.77,37.421-1.159a.109.109,0,0,1,.135.079.111.111,0,0,1-.079.135C1785.434,3146.335,1777.264,3146.7,1769.884,3146.7Z" transform="translate(-1725.361 -3068.271)"/><path class="o" d="M1771.942,3162.135c-10.2,0-19.991-.744-20.154-.755a.111.111,0,0,1,.009-.222h.009c.262.022,26.8,2.034,38.021-.6a.1.1,0,0,1,.133.081.11.11,0,0,1-.081.133C1785.435,3161.819,1778.6,3162.135,1771.942,3162.135Z" transform="translate(-1724.362 -3079.655)"/><path class="p" d="M1747.924,3177.706a2.307,2.307,0,0,1-.319-.017.111.111,0,0,1-.092-.125.107.107,0,0,1,.126-.092c.061-.005,6.922.851,10.466-12.191a.12.12,0,0,1,.137-.077.111.111,0,0,1,.077.136C1755.158,3176.966,1749.346,3177.706,1747.924,3177.706Z" transform="translate(-1721.349 -3083.008)"/><path class="o" d="M1869.942,3177.094h-.016c-.076-.011-7.589-1.3-8.744-12.237a.107.107,0,0,1,.1-.12.027.027,0,0,1,.011,0,.11.11,0,0,1,.109.1c1.139,10.767,8.486,12.03,8.559,12.041a.111.111,0,0,1,.093.125A.109.109,0,0,1,1869.942,3177.094Z" transform="translate(-1803.375 -3082.669)"/><path class="o" d="M1821.382,3197.635h0a.112.112,0,0,1-.109-.113l.517-31.6a.111.111,0,0,1,.111-.11h0a.113.113,0,0,1,.109.113l-.517,31.6A.111.111,0,0,1,1821.382,3197.635Z" transform="translate(-1774.575 -3083.448)"/><path class="o" d="M1822.311,3190.833a.113.113,0,0,1-.085-.041.108.108,0,0,1,.015-.155l3.577-2.981.6-21.734a.112.112,0,0,1,.111-.107.106.106,0,0,1,.111.115l-.6,21.783a.117.117,0,0,1-.041.082l-3.616,3.013A.114.114,0,0,1,1822.311,3190.833Z" transform="translate(-1775.246 -3083.448)"/><path class="o" d="M1796.051,3076.827a.105.105,0,0,1-.033-.005l-12.528-3.875a.109.109,0,0,1-.078-.1l-.646-17.952a.121.121,0,0,1,.031-.081.116.116,0,0,1,.079-.033h23.118a.111.111,0,0,1,.111.106l.517,16.531a.111.111,0,0,1-.061.1l-10.461,5.3A.1.1,0,0,1,1796.051,3076.827Zm-12.422-4.068,12.412,3.84,10.357-5.244-.511-16.353h-22.9Z" transform="translate(-1746.789 -3003.324)"/><path class="d" d="M1762.015,3130.141l4.68-2.9,5.494.414s.37,1.762-4.776,1.042l-2.35,1.745,3.3-.452,3.7,2.471s-.549.722-2.016.405l1.081,1.276a3.451,3.451,0,0,1-2.628-.288l-2.3.186,2.623,1.194,1.4,1.686a2.853,2.853,0,0,1-2.412-.124,18.633,18.633,0,0,1-2.288-1.111l-3.98-1.656Z" transform="translate(-1731.472 -3055.615)"/><path class="d" d="M1861.4,3129.152l-4.681-2.9-5.493.414s-.37,1.761,4.776,1.041l2.351,1.745-3.3-.451-3.7,2.47s.549.722,2.016.4l-1.08,1.276a3.448,3.448,0,0,0,2.628-.288l2.3.186-2.623,1.194-1.4,1.686a2.854,2.854,0,0,0,2.411-.123,18.56,18.56,0,0,0,2.288-1.111l3.98-1.656Z" transform="translate(-1796.184 -3054.901)"/><path class="j" d="M1788.974,3164.681s-13.758,5.5-39.073,2.063v-3.577s30.68,1.651,39.21-2.614Z" transform="translate(-1723.074 -3079.653)"/><g transform="translate(38.942 75.66)"><path class="q" d="M1805.8,3144.281l-.162-2.445-.731-.108-.862,2.293.386.924.731.108Z" transform="translate(-1801.085 -3141.728)"/><rect class="q" width="0.71" height="10.653" transform="translate(3.415 2.839) rotate(8.405)"/><path class="r" d="M1798.308,3188.524l-2.544-.375a.4.4,0,0,1-.337-.453h0a.4.4,0,0,1,.453-.337l2.545.376a.4.4,0,0,1,.336.453h0A.4.4,0,0,1,1798.308,3188.524Z" transform="translate(-1794.865 -3174.653)"/><path class="r" d="M1796.569,3189.247l-1.843-.272-.31.487a2.913,2.913,0,0,0-.424,1.137l-.575,3.891,2.808.415.575-3.89a2.91,2.91,0,0,0-.076-1.211Z" transform="translate(-1793.418 -3175.823)"/></g><g transform="translate(31.665 82.571)"><path class="q" d="M1782.025,3172.7l-.483-.1.452-2.138s.4.156.523-.429a.484.484,0,0,0-.484-.607l.54-2.552.276.058.778,2.795-.5,2.38Z" transform="translate(-1777.571 -3166.78)"/><path class="q" d="M1777.453,3172.352l.493.019.078-2.185s-.425.055-.4-.544a.484.484,0,0,1,.617-.471l.093-2.607-.282-.01-1.431,2.525-.087,2.43Z" transform="translate(-1773.955 -3166.553)"/><path class="s" d="M1778.973,3186.811l-2.593-.381a.336.336,0,0,0-.38.283h0a.335.335,0,0,0,.283.38l2.593.381a.335.335,0,0,0,.38-.282h0A.336.336,0,0,0,1778.973,3186.811Z" transform="translate(-1773.569 -3180.894)"/><path class="s" d="M1779.91,3189.054a14.945,14.945,0,0,1,1.545,3.386,23.326,23.326,0,0,1-.8,5.963c-.469.929-1.519,1.606-1.993,1.276s-.238-2.1.331-3.064a18.816,18.816,0,0,0,1.085-4.473c.007-.212-.9-3.267-.9-3.267Z" transform="translate(-1775.307 -3182.661)"/><path class="s" d="M1770.7,3188.9a14.993,14.993,0,0,0-2.454,2.8,23.377,23.377,0,0,0-.944,5.943c.182,1.024.993,1.975,1.542,1.794s.832-1.945.563-3.03a18.815,18.815,0,0,1,.248-4.6c.054-.206,1.8-2.871,1.8-2.871Z" transform="translate(-1767.277 -3182.677)"/></g><g transform="translate(27.697 84.179)"><rect class="q" width="2.186" height="7.87" transform="translate(1.03 3.35) rotate(2.974)"/><path class="q" d="M1755.527,3172.329l.5,1.086a.356.356,0,0,1-.173.472l-1.378.638a.356.356,0,0,1-.472-.173l-.545-1.176a2.186,2.186,0,1,0,2.065-.847Z" transform="translate(-1753.022 -3172.329)"/></g><path class="j" d="M0,0H17.06a0,0,0,0,1,0,0V9.08a8.53,8.53,0,0,1-8.53,8.53h0A8.53,8.53,0,0,1,0,9.08V0A0,0,0,0,1,0,0Z" transform="matrix(0.995, 0.097, -0.097, 0.995, 26.442, 90.201)"/><path class="t" d="M1748.516,3184.357l.432-3.705.688.229-.321,4.219Z" transform="translate(-1722.074 -3094.156)"/><path class="j" d="M1806.794,3187.446l.742-4.771-1.009-.046-.779,5.137Z" transform="translate(-1763.373 -3095.582)"/><path class="d" d="M1732.289,3141.574s4.409,2.233,5.806,2.042,7.611-4.924,7.611-4.924l-2.775-6.092-7.236,4.355-3.782,3.106Z" transform="translate(-1710.093 -3059.481)"/><path class="d" d="M1882.986,3140.585s-4.408,2.233-5.806,2.042-7.611-4.924-7.611-4.924l2.775-6.093,7.236,4.355,3.782,3.106Z" transform="translate(-1809.428 -3058.766)"/><path class="u" d="M1802.443,2877.383s-2.131-9.665-12.69-6.968c-10.726,2.74-6.779,15.724-6.779,15.724s4.738-4.912,6.309-5.6S1802.443,2877.383,1802.443,2877.383Z" transform="translate(-1746.427 -2869.94)"/><path class="u" d="M1818.334,2893.026s5.56,4.121,4.571,3.8c-9.758-3.118-11.619,4.052-13.513,3.115a32.9,32.9,0,0,1-4.617-3.149l7.689-2.663Z" transform="translate(-1762.671 -2886.599)"/><path class="d" d="M1790.093,2978.853a3.685,3.685,0,0,0-.143.614c-.405,2.9,2.709,5.729,6.955,6.323s8.017-1.275,8.422-4.174a3.839,3.839,0,0,0-.228-1.9Z" transform="translate(-1751.948 -2948.534)"/><path class="v" d="M1810.172,3279.717c-.931-.116-2.54,6.611-4.436,16.566h7.034C1811.855,3286.583,1810.943,3279.814,1810.172,3279.717Z" transform="translate(-1763.365 -3165.643)"/></g></g></g></svg>