<svg xmlns="http://www.w3.org/2000/svg" xmlns:xlink="http://www.w3.org/1999/xlink" width="122" height="122" viewBox="0 0 122 122"><defs><style>.a{fill:#0033a1;}.b{fill:#b7c5f4;}.c{clip-path:url(#a);}.d{opacity:0.8;}.e{fill:#0855c4;}.f{fill:#fff;}.g{fill:#ea0f90;}</style><clipPath id="a"><ellipse class="a" cx="60.994" cy="60.877" rx="60.994" ry="60.877"/></clipPath></defs><g transform="translate(0 0)"><path class="b" d="M61,0A60.883,60.883,0,1,1,0,60.882,60.941,60.941,0,0,1,61,0Z" transform="translate(0 0.235)"/></g><g transform="translate(15.495 18.291)"><g class="d" transform="translate(14.686 0)"><g transform="translate(0)"><path class="e" d="M2193.983,1953.713c-.712-3.918-3.917-3.562-3.917-3.562h-21.1v79.822h30.448l-6.677-68.07S2194.7,1957.631,2193.983,1953.713Z" transform="translate(-2124.242 -1950.143)"/><path class="f" d="M1884,2093.151h52.362s-2.79-45.632,8.535-68.07h-50.6S1884,2037.818,1884,2093.151Z" transform="translate(-1883.997 -2013.32)"/><path class="f" d="M1983.719,1961.949H1930.03s-5.342-7.211,1.336-11.752h54.222S1977.841,1955,1983.719,1961.949Z" transform="translate(-1921.1 -1950.189)"/><path class="e" d="M1996.9,2026.238h-51.989l.738-1.157H1996.9Z" transform="translate(-1935.352 -2013.32)"/></g><path class="e" d="M1980.075,2154.988a7.406,7.406,0,0,1-7.406,7.4h-20.352a7.4,7.4,0,0,1-7.405-7.4h0a7.4,7.4,0,0,1,7.405-7.4h20.352a7.406,7.406,0,0,1,7.406,7.4Z" transform="translate(-1935.352 -2116.597)"/></g><g transform="translate(0 33.571)"><path class="g" d="M1781.425,2260.445a17.248,17.248,0,1,1,27.217-.283l-13.382,22.012Z" transform="translate(-1777.676 -2232.46)"/><path class="f" d="M1813.665,2274.215a10.83,10.83,0,1,0,10.717-10.942A10.83,10.83,0,0,0,1813.665,2274.215Z" transform="translate(-1807.257 -2257.787)"/></g></g></svg>