<svg xmlns="http://www.w3.org/2000/svg" width="155" height="155" viewBox="0 0 155 155"><defs><style>.a{fill:#b7c5f4;}.b{fill:#fff;}.c{fill:#0855c4;}</style></defs><g transform="translate(0 -0.29)"><path class="a" d="M77.5,0A77.5,77.5,0,1,1,0,77.5,77.5,77.5,0,0,1,77.5,0Z" transform="translate(0 0.289)"/><g transform="translate(32.567 32.862)"><g transform="translate(0 0)"><path class="b" d="M545.676-119.386a3.478,3.478,0,0,0,.75-2.164,3.5,3.5,0,0,0-3.5-3.5,3.5,3.5,0,0,0-3.5,3.5,3.491,3.491,0,0,0,.281,1.373.19.19,0,0,0,.01.023,3.475,3.475,0,0,0,.445.748,13.326,13.326,0,0,1,1.241,11.151h3.038A13.32,13.32,0,0,1,545.676-119.386Z" transform="translate(-497.994 125.05)"/><path class="b" d="M529.112-114.133A2.678,2.678,0,0,0,529-115.9a2.7,2.7,0,0,0-3.528-1.451,2.7,2.7,0,0,0-1.451,3.526,2.677,2.677,0,0,0,.606.895l.015.013a2.678,2.678,0,0,0,.539.4,10.277,10.277,0,0,1,4.19,7.566l2.162-.9A10.271,10.271,0,0,1,529.112-114.133Z" transform="translate(-497.172 124.655)"/><path class="b" d="M507.459-93.682a2.677,2.677,0,0,0-1.323-1.17,2.7,2.7,0,0,0-3.522,1.467,2.7,2.7,0,0,0,1.468,3.522,2.693,2.693,0,0,0,1.061.2h.019a2.688,2.688,0,0,0,.664-.1,10.271,10.271,0,0,1,8.314,2.386l.891-2.166A10.267,10.267,0,0,1,507.459-93.682Z" transform="translate(-496.046 123.469)"/><path class="b" d="M506.607-64.043a2.677,2.677,0,0,0-1.763.107,2.7,2.7,0,0,0-1.453,3.528,2.7,2.7,0,0,0,3.528,1.453,2.712,2.712,0,0,0,.895-.608l.013-.013a2.724,2.724,0,0,0,.4-.539,10.27,10.27,0,0,1,7.566-4.189l-.9-2.163A10.266,10.266,0,0,1,506.607-64.043Z" transform="translate(-496.085 121.96)"/><path class="b" d="M527.055-42.662a2.691,2.691,0,0,0-1.17,1.323,2.7,2.7,0,0,0,1.467,3.522,2.7,2.7,0,0,0,2.067,0,2.7,2.7,0,0,0,1.461-1.462,2.69,2.69,0,0,0,.2-1.061.077.077,0,0,0,0-.019,2.69,2.69,0,0,0-.1-.663,10.27,10.27,0,0,1,2.386-8.312l-2.166-.893a10.269,10.269,0,0,1-4.151,7.564Z" transform="translate(-497.273 121.115)"/><path class="b" d="M556.7-41.806a2.677,2.677,0,0,0,.107,1.763,2.7,2.7,0,0,0,3.528,1.453,2.7,2.7,0,0,0,1.453-3.528,2.69,2.69,0,0,0-.608-.895l-.014-.013a2.729,2.729,0,0,0-.539-.4,10.269,10.269,0,0,1-4.19-7.566l-2.162.9A10.269,10.269,0,0,1,556.7-41.806Z" transform="translate(-498.777 121.148)"/><path class="b" d="M578.084-61.981a2.677,2.677,0,0,0,1.324,1.17,2.7,2.7,0,0,0,3.514-1.469,2.7,2.7,0,0,0-1.467-3.522,2.686,2.686,0,0,0-1.061-.2h-.019a2.694,2.694,0,0,0-.663.1A10.272,10.272,0,0,1,571.4-68.3l-.891,2.166A10.267,10.267,0,0,1,578.084-61.981Z" transform="translate(-499.633 122.059)"/><path class="b" d="M578.934-91.628a2.689,2.689,0,0,0,1.763-.107,2.7,2.7,0,0,0,1.451-3.528,2.7,2.7,0,0,0-3.528-1.453,2.681,2.681,0,0,0-.895.606l-.013.015a2.671,2.671,0,0,0-.4.539,10.274,10.274,0,0,1-7.566,4.189l.9,2.163A10.269,10.269,0,0,1,578.934-91.628Z" transform="translate(-499.593 123.569)"/><path class="b" d="M558.758-113.282a2.677,2.677,0,0,0,1.17-1.323,2.7,2.7,0,0,0-1.467-3.522,2.7,2.7,0,0,0-3.52,1.467,2.685,2.685,0,0,0-.2,1.061v.019a2.681,2.681,0,0,0,.1.663,10.27,10.27,0,0,1-2.388,8.314l2.167.891a10.269,10.269,0,0,1,4.145-7.57Z" transform="translate(-498.68 124.695)"/><path class="b" d="M515.473-109.154a3.484,3.484,0,0,0-1-2.061,3.5,3.5,0,0,0-4.949,0,3.5,3.5,0,0,0,0,4.948,3.5,3.5,0,0,0,1.17.765h.025a3.516,3.516,0,0,0,.844.214,13.327,13.327,0,0,1,8.763,7.006l2.149-2.149A13.32,13.32,0,0,1,515.473-109.154Z" transform="translate(-496.366 124.376)"/><path class="b" d="M501.353-80.563a3.483,3.483,0,0,0-2.164-.75,3.5,3.5,0,0,0-3.5,3.5,3.5,3.5,0,0,0,3.5,3.5,3.49,3.49,0,0,0,1.373-.281l.022-.009a3.544,3.544,0,0,0,.75-.446,13.323,13.323,0,0,1,11.151-1.243v-3.038a13.32,13.32,0,0,1-11.132-1.231Z" transform="translate(-495.69 122.746)"/><path class="b" d="M511.586-50.748a3.484,3.484,0,0,0-2.061,1,3.5,3.5,0,0,0,0,4.948,3.5,3.5,0,0,0,4.948,0,3.489,3.489,0,0,0,.765-1.17.152.152,0,0,0,0-.023,3.5,3.5,0,0,0,.214-.845A13.325,13.325,0,0,1,522.46-55.6L520.31-57.75a13.322,13.322,0,0,1-8.724,7Z" transform="translate(-496.366 121.505)"/><path class="b" d="M540.176-36.791a3.486,3.486,0,0,0-.749,2.164,3.5,3.5,0,0,0,3.5,3.5,3.5,3.5,0,0,0,3.5-3.5A3.474,3.474,0,0,0,546.144-36a.138.138,0,0,0-.01-.023,3.479,3.479,0,0,0-.445-.748,13.324,13.324,0,0,1-1.243-11.151h-3.038A13.323,13.323,0,0,1,540.176-36.791Z" transform="translate(-497.994 120.984)"/><path class="b" d="M569.992-46.869a3.482,3.482,0,0,0,1,2.061,3.5,3.5,0,0,0,4.948,0,3.5,3.5,0,0,0,0-4.949,3.476,3.476,0,0,0-1.17-.765h-.023a3.517,3.517,0,0,0-.845-.214,13.329,13.329,0,0,1-8.763-7.008l-2.149,2.149a13.319,13.319,0,0,1,7,8.725Z" transform="translate(-499.236 121.513)"/><path class="b" d="M583.953-75.064a3.482,3.482,0,0,0,2.164.75,3.5,3.5,0,0,0,3.5-3.5,3.5,3.5,0,0,0-3.5-3.5,3.492,3.492,0,0,0-1.372.281l-.023.01a3.5,3.5,0,0,0-.748.446,13.327,13.327,0,0,1-11.151,1.241V-76.3A13.322,13.322,0,0,1,583.953-75.064Z" transform="translate(-499.753 122.746)"/><path class="b" d="M573.871-105.267a3.482,3.482,0,0,0,2.061-1,3.5,3.5,0,0,0,0-4.948,3.5,3.5,0,0,0-4.949,0,3.482,3.482,0,0,0-.765,1.17.155.155,0,0,0,0,.025,3.5,3.5,0,0,0-.214.843A13.326,13.326,0,0,1,563-100.414l2.149,2.149A13.32,13.32,0,0,1,573.871-105.267Z" transform="translate(-499.227 124.376)"/></g><path class="b" d="M28.626,0A28.626,28.626,0,1,1,0,28.626,28.626,28.626,0,0,1,28.626,0Z" transform="translate(16.306 16.306)"/><path class="c" d="M24.775,0A24.775,24.775,0,1,1,0,24.775,24.775,24.775,0,0,1,24.775,0Z" transform="translate(20.157 20.157)"/><g transform="translate(23.096 22.257)"><circle class="b" cx="3.08" cy="3.08" r="3.08" transform="translate(12.878 0)"/><circle class="b" cx="3.08" cy="3.08" r="3.08" transform="translate(0 12.178)"/><circle class="b" cx="3.08" cy="3.08" r="3.08" transform="translate(0.421 28.415)"/><circle class="b" cx="3.08" cy="3.08" r="3.08" transform="translate(16.798 37.934)"/><circle class="b" cx="3.08" cy="3.08" r="3.08" transform="translate(31.494 34.853)"/><circle class="b" cx="3.08" cy="3.08" r="3.08" transform="translate(36.253 10.778)"/><circle class="b" cx="1.679" cy="1.679" r="1.679" transform="translate(31.354 3.499)"/><circle class="b" cx="1.679" cy="1.679" r="1.679" transform="translate(22.956 4.48)"/><circle class="b" cx="1.679" cy="1.679" r="1.679" transform="translate(9.098 9.098)"/><circle class="b" cx="1.679" cy="1.679" r="1.679" transform="translate(5.738 18.758)"/><circle class="b" cx="1.679" cy="1.679" r="1.679" transform="translate(9.658 33.175)"/><circle class="b" cx="1.679" cy="1.679" r="1.679" transform="translate(23.656 32.894)"/><circle class="b" cx="1.679" cy="1.679" r="1.679" transform="translate(40.173 24.496)"/><circle class="b" cx="1.679" cy="1.679" r="1.679" transform="translate(31.494 20.997)"/><circle class="b" cx="1.679" cy="1.679" r="1.679" transform="translate(15.117 20.997)"/><circle class="b" cx="1.679" cy="1.679" r="1.679" transform="translate(20.157 15.257)"/><circle class="b" cx="1.679" cy="1.679" r="1.679" transform="translate(21.836 24.075)"/></g></g></g></svg>