<svg xmlns="http://www.w3.org/2000/svg" xmlns:xlink="http://www.w3.org/1999/xlink" width="122" height="122" viewBox="0 0 122 122"><defs><style>.a{fill:#63b2e9;}.b{fill:#b7c5f4;}.c{clip-path:url(#a);}.d{clip-path:url(#b);}.e{fill:#0855c4;}.f{fill:#6880ce;}.g{fill:#f4f7fc;}.h{fill:#eba188;}.i{fill:#e08d70;}.j{fill:#0854c4;}.k{fill:#002e6f;}.l{fill:#d17352;}.m{fill:#120b42;}.n{fill:#ea0f90;}.o{fill:#f0baa5;}.p{fill:#ffe4ad;}.q,.s{fill:#3d62af;}.q{opacity:0.207;}.r{opacity:0.21;}</style><clipPath id="a"><circle class="a" cx="61" cy="61" r="61"/></clipPath><clipPath id="b"><ellipse class="a" cx="75.467" cy="74.948" rx="75.467" ry="74.948"/></clipPath></defs><g transform="translate(0 0)"><circle class="b" cx="61" cy="61" r="61" transform="translate(0 0)"/><g class="c" transform="translate(0 0)"><g transform="translate(-15.259 -24.202)"><g transform="translate(0 0)"><g class="d" transform="translate(0 0)"><path class="e" d="M64.233,149.055H196.287c3.81,0,6.9-13.072,6.9-29.2,0-4.163-.8-7.536-1.78-7.536H59.114c-.983,0-1.78,3.374-1.78,7.535C57.334,135.983,60.423,149.055,64.233,149.055Z" transform="translate(-52.252 -0.559)"/><g transform="translate(-71.753 30.718)"><g transform="translate(0 0)"><path class="f" d="M228.41,84.46H204a9.655,9.655,0,0,1-9.663-10.408l.346-4.235a9.668,9.668,0,0,1,9.663-8.85h23.713a9.668,9.668,0,0,1,9.663,8.85l.346,4.235A9.656,9.656,0,0,1,228.41,84.46Z" transform="translate(-67.165 -54.793)"/><path class="f" d="M255.58,127.843H184.691l2.052-30.862a16.956,16.956,0,0,1,16.69-16.3h33.406a16.957,16.957,0,0,1,16.689,16.3Z" transform="translate(-71.093 -46.931)"/><path class="g" d="M246.983,87.546c-10.37-4.1-20.5-.329-24.03,1.281-3.531-1.61-13.661-5.378-24.032-1.281-12.852,5.077-18.485,30.429-19.894,38.3h87.849C265.468,117.975,259.835,92.624,246.983,87.546Z" transform="translate(-73.405 -44.932)"/><path class="h" d="M218.623,72.35s2.58-3.439,5.28-1.137c2.09,1.783,1.17,12.034-5.28,10.264Z" transform="translate(-57.235 -51.024)"/><rect class="i" width="11.443" height="8.264" transform="translate(144.867 39.229)"/><path class="j" d="M205.348,84.641l-1.831,2.946a1.129,1.129,0,0,0-.1.982l3.751,10.243a1.145,1.145,0,0,0,1.908.383l5.508-5.9Z" transform="translate(-63.473 -45.354)"/><path class="j" d="M219.26,84.641l1.845,2.944a1.128,1.128,0,0,1,.1.986l-3.749,10.24a1.145,1.145,0,0,1-1.908.383l-5.507-5.9Z" transform="translate(-60.738 -45.354)"/><path class="h" d="M200.186,73.7s1.321,24.768,14.671,24.827c13.732.06,12.559-27.041,12.559-27.041s-.939-9.791-15.259-8.392C199.485,64.327,200.186,73.7,200.186,73.7Z" transform="translate(-64.767 -54.001)"/><path class="h" d="M202.91,72.466s-2.922-3.157-5.37-.592c-1.894,1.988.08,12.092,6.315,9.671Z" transform="translate(-66.127 -50.844)"/><path class="k" d="M202.729,78.19a.805.805,0,0,1-1.4.552,14.357,14.357,0,0,1-3.755-8.149c-.469-5.09,2.718-5.772,4.7-5.652,2.875.175.077-6.991,5.867-5.944,4.842.874,5.81-3.235,8.505-2.306,3.562,1.228,1.529,4.112,3.76,4.171s5.634-1.457,7.8,1.049-.762,5.129,1.644,5.42c2.087.253,3.938,2.241,2.146,5.175a16.084,16.084,0,0,0-1.646,3.8c-.566,1.9-1.579,4.14-3.11,3.441-.88-.4.152-3.809-1.784-3.583s-4.335,1.5-5.876-.86-2.289-3.235-5.105-1.137-5.017,1.4-5.634-1.66-3.96-2.536-5.06-.743C202.941,73.124,202.688,75.864,202.729,78.19Z" transform="translate(-65.851 -56.553)"/><g transform="translate(146.862 23.51)"><path class="l" d="M209.923,84.025a1.111,1.111,0,0,1-.286-.036,1.088,1.088,0,0,1-.775-.8c-.365-1.343-.535-8.319-.553-9.11a.7.7,0,0,1,.689-.716.658.658,0,0,1,.72.683c.065,2.811.234,7.168.451,8.514a10.629,10.629,0,0,0,2.308-1.806.708.708,0,0,1,1,0,.694.694,0,0,1,0,.989C212.395,82.813,210.947,84.025,209.923,84.025Z" transform="translate(-208.309 -73.361)"/></g><g transform="translate(147.273 35.395)"><path class="l" d="M211.8,83.282l-2.5-.025a.7.7,0,0,1-.7-.706.724.724,0,0,1,.711-.692l2.49.025a.7.7,0,1,1-.007,1.4Z" transform="translate(-208.601 -81.858)"/></g><ellipse class="m" cx="1.232" cy="1.896" rx="1.232" ry="1.896" transform="translate(153.376 22.943)"/><path class="m" d="M207.233,75.726c0,1.048-.552,1.9-1.232,1.9s-1.232-.849-1.232-1.9.551-1.9,1.232-1.9S207.233,74.678,207.233,75.726Z" transform="translate(-62.893 -49.664)"/><g transform="translate(121.721 58.395)"><path class="j" d="M192.666,105.842l1.783,9.181-1.723,2.325-2.269-10.763,1.438-1.043A.49.49,0,0,1,192.666,105.842Z" transform="translate(-190.458 -95.453)"/><path class="j" d="M228.325,105.838l-1.814,9.2,1.755,2.309,2.268-10.763-1.437-1.043A.493.493,0,0,0,228.325,105.838Z" transform="translate(-175.734 -95.455)"/><path class="n" d="M217.415,100.245a26.739,26.739,0,0,0-25.9,19.876h5.577a21.47,21.47,0,0,1,40.646,0h5.577A26.739,26.739,0,0,0,217.415,100.245Z" transform="translate(-190.026 -97.527)"/><path class="h" d="M192.063,109.075s11.707-13.986,15.228-8.251c0,0,3.61-3.707,4.314-2.133s-3.434,5-3.434,5,1.321,3.919-1.408,6.454-4.883,2.946-6.514,2.361a15.821,15.821,0,0,1-3.3-2.316,31.36,31.36,0,0,0-3.613,5.36Z" transform="translate(-189.802 -98.302)"/><path class="h" d="M233.436,109.075s-11.707-13.986-15.228-8.251c0,0-3.61-3.707-4.314-2.133s3.434,5,3.434,5-1.321,3.919,1.408,6.454,4.883,2.946,6.514,2.361a15.821,15.821,0,0,0,3.3-2.316,31.363,31.363,0,0,1,3.613,5.36Z" transform="translate(-180.92 -98.302)"/></g><g transform="translate(0 76.675)"><path class="o" d="M104.737,115.34a.7.7,0,0,1-.327-1.32l4.969-2.571a.71.71,0,0,1,.951.3.7.7,0,0,1-.3.944l-4.969,2.571A.716.716,0,0,1,104.737,115.34Z" transform="translate(-104.033 -111.371)"/></g></g></g><path class="p" d="M141.679,47.514H130.435a1.515,1.515,0,1,1,0-3.03h11.245a1.515,1.515,0,1,1,0,3.03Z" transform="translate(-165.627 -27.605)"/><g transform="translate(37.023 100.77)"><path class="q" d="M181.971,112.791a.706.706,0,0,1-.594-.324.7.7,0,0,1,.217-.965l10.836-6.862a1.148,1.148,0,0,1,1.718.649l.251.873a.7.7,0,0,1-1.356.383l-.154-.537-10.539,6.673A.705.705,0,0,1,181.971,112.791Z" transform="translate(-181.267 -104.462)"/></g><g class="r" transform="translate(104.554 100.769)"><path class="s" d="M241.668,112.791a.7.7,0,0,1-.378-.11l-10.539-6.673-.152.537a.7.7,0,0,1-1.356-.383l.249-.873a1.148,1.148,0,0,1,1.72-.648l10.835,6.861a.7.7,0,0,1,.216.965A.706.706,0,0,1,241.668,112.791Z" transform="translate(-229.216 -104.461)"/></g></g></g></g></g></g></svg>