<svg xmlns="http://www.w3.org/2000/svg" width="49.555" height="49.555" viewBox="0 0 49.555 49.555"><defs><style>.a{fill:#f4f5f8;}.b{fill:#383c5a;}</style></defs><g transform="translate(-116 -766.354)"><g transform="translate(116 766.354)"><circle class="a" cx="24.778" cy="24.778" r="24.778" transform="translate(0 0)"/></g><g transform="translate(130.281 777.508)"><g transform="translate(0 0)"><path class="b" d="M1355.9,717.382h-18.124a2.159,2.159,0,0,1-2.157-2.157V691.857a2.159,2.159,0,0,1,2.157-2.157H1355.9a2.159,2.159,0,0,1,2.156,2.157v23.368A2.159,2.159,0,0,1,1355.9,717.382Zm-18.124-26.167a.643.643,0,0,0-.642.643v23.368a.643.643,0,0,0,.642.642H1355.9a.643.643,0,0,0,.642-.642V691.857a.643.643,0,0,0-.642-.643Z" transform="translate(-1335.62 -689.7)"/></g><g transform="translate(4.899 3.847)"><path class="b" d="M1376.063,721.465h-10.02a1.311,1.311,0,0,1-1.309-1.309v-6.286a1.311,1.311,0,0,1,1.309-1.309h10.02a1.311,1.311,0,0,1,1.309,1.309v6.286A1.311,1.311,0,0,1,1376.063,721.465Zm-9.815-1.514h9.61v-5.876h-9.61Z" transform="translate(-1364.733 -712.56)"/></g><g transform="translate(5.32 16.173)"><rect class="b" width="4.42" height="1.514" transform="translate(0 0)"/></g><g transform="translate(12.593 16.173)"><rect class="b" width="4.42" height="1.514" transform="translate(0 0)"/></g><g transform="translate(5.32 20.591)"><rect class="b" width="4.42" height="1.514" transform="translate(0 0)"/></g><g transform="translate(12.593 20.591)"><rect class="b" width="4.42" height="1.514" transform="translate(0 0)"/></g></g></g></svg>