<svg xmlns="http://www.w3.org/2000/svg" xmlns:xlink="http://www.w3.org/1999/xlink" width="87" height="87" viewBox="0 0 87 87"><defs><style>.a,.q{fill:#fff;}.a{stroke:#707070;}.b{fill:none;}.c{fill:#b7c5f4;}.d{clip-path:url(#a);}.e{fill:#6b85de;}.f{fill:#002756;}.g{fill:#023160;}.h{fill:#001c38;}.i{fill:#00b4ff;}.j{fill:#0094f0;}.k{fill:#e3f8ff;}.l{fill:#00aef0;}.m{fill:#003075;}.n{fill:#462f43;}.o{fill:#c9e5f2;}.p{fill:#003889;}.r{fill:#5b565c;}.s{fill:#758c85;}.t{fill:#0093dd;}.u{clip-path:url(#b);}.v{fill:#a5e5fc;}.w{fill:#6d8490;}</style><clipPath id="a"><circle class="a" cx="43.5" cy="43.5" r="43.5"/></clipPath><clipPath id="b"><path class="b" d="M869.756,219.724h37.863a110.135,110.135,0,0,0-11.475-12.951c-7.55-.714-22.918-.936-28.1-.34Z" transform="translate(-868.042 -206.09)"/></clipPath></defs><g transform="translate(-625 -4845.686)"><g transform="translate(625 4845.686)"><circle class="c" cx="43.5" cy="43.5" r="43.5"/></g><g class="d" transform="translate(625 4845.686)"><g transform="translate(-39.291 19.236)"><rect class="e" width="127" height="47" transform="translate(0.29 40.765)"/><g transform="translate(48.258 24.241)"><path class="f" d="M771.154,513.128h-3.866c-2.679,0-4.851,4.662-4.851,10.412s2.172,10.412,4.851,10.412h3.866c2.679,0,4.851-4.662,4.851-10.412S773.833,513.128,771.154,513.128Z" transform="translate(-762.436 -513.128)"/></g><g transform="translate(98.598 25.385)"><path class="g" d="M1480.365,529.458l-3.269.856c-3.8.995-5.216,5.867-3.168,10.882s6.785,8.274,10.583,7.279l3.269-.857c3.8-.995,5.216-5.867,3.168-10.882S1484.162,528.463,1480.365,529.458Z" transform="translate(-1472.99 -529.28)"/><path class="h" d="M1473.927,552.429c2.047,5.015,6.785,8.274,10.583,7.279s5.216-5.867,3.168-10.882-6.785-8.274-10.582-7.279S1471.88,547.414,1473.927,552.429Z" transform="translate(-1472.99 -540.512)"/></g><path class="h" d="M918.007,513.128h-3.951c-3.925,0-7.107,4.662-7.107,10.412s3.182,10.412,7.107,10.412h3.951c3.925,0,7.108-4.662,7.108-10.412S921.932,513.128,918.007,513.128Z" transform="translate(-848.453 -488.887)"/><path class="i" d="M627.878,209.339h-35.43c-15.515-5.327-45.824-16.086-43.638-36.41,7.756-3.02,44.094-2.256,51.133.282a109.438,109.438,0,0,1,12.02,13.874,69.777,69.777,0,0,1,11.464,4.119c2.707,1.269.113,3.949.113,3.949s6.676,2.587,6.719,3.864C630.406,203.323,629.443,207.335,627.878,209.339Z" transform="translate(-515.584 -170.968)"/><path class="j" d="M1022.49,643.491a43.85,43.85,0,0,0,10.183,4.895h35.43a12,12,0,0,0,1.959-4.895Z" transform="translate(-955.808 -610.014)"/><path class="k" d="M869.756,219.724h37.863a110.135,110.135,0,0,0-11.475-12.951c-7.55-.714-22.918-.936-28.1-.34Z" transform="translate(-812.303 -203.602)"/><path class="l" d="M931.373,393.661s2.591-2.674-.117-3.943a69.524,69.524,0,0,0-11.016-4l-.445-.119c-11.262-1.259-25.182-1.216-39.793-.385l18.141,8.453Z" transform="translate(-823.415 -369.476)"/><path class="m" d="M979.986,415.574c-10.873,0-26.523-.008-28.691-.009l-13.746-6.405c5.242-.239,10.214-.36,14.831-.36a185.161,185.161,0,0,1,20.1.965l.361.1c7.685,2.094,12.988,2.325,10.78,5.71C982.034,415.573,983.193,415.574,979.986,415.574Z" transform="translate(-876.885 -391.95)"/><path class="n" d="M359.243,513.128h-4.06c-2.814,0-5.1,4.662-5.1,10.412s2.281,10.412,5.1,10.412h4.06c2.814,0,5.095-4.662,5.095-10.412S362.057,513.128,359.243,513.128Z" transform="translate(-331.044 -488.887)"/><path class="i" d="M311.6,224.531l57.537,1.46c-2.447-2.889-3.215-8.307-2.239-14.186-3.471-2.854-12.065-6.774-18.141-8.453l-1.714-13.772c-4.792-1.018-15.471-.821-21.646,0a48.064,48.064,0,0,0-10.391,10.782L309.164,202C307.82,209.049,307.46,215.424,311.6,224.531Z" transform="translate(-292.169 -187.62)"/><path class="k" d="M479.065,215.547l-1.143-12.394a32.657,32.657,0,0,0-6.205-.52,61.433,61.433,0,0,0-8.448.634c-3.834,4.7-11.044,6.083-13.112,10.326Z" transform="translate(-424.024 -200.39)"/><path class="o" d="M472.171,202.642c-.154,0-.3-.009-.454-.009-2.6,0-9.515.219-12.447.634a42.92,42.92,0,0,0-9.113,10.326l5.441.368C459.91,209.221,462.587,206.924,472.171,202.642Z" transform="translate(-424.024 -200.39)"/><path class="i" d="M322.183,603.479a41.562,41.562,0,0,0,2.362,6.269l57.537,1.46a11.2,11.2,0,0,1-2.2-4.895Z" transform="translate(-305.116 -572.837)"/><path class="p" d="M904.427,495.453l.084.007a5.861,5.861,0,0,1,4.706,3.424,33.942,33.942,0,0,1,2.889,11.8l-12.636-.446a45.509,45.509,0,0,1-.077-10.562A4.75,4.75,0,0,1,904.427,495.453Z" transform="translate(-841.18 -472.45)"/><path class="p" d="M354.775,482.56l.074.007a5.245,5.245,0,0,1,4.126,3.424,37.876,37.876,0,0,1,2.533,11.8l-11.079-.446a51.866,51.866,0,0,1-.068-10.562C350.632,484.261,352.556,482.355,354.775,482.56Z" transform="translate(-331.077 -460.471)"/><path class="m" d="M1184.031,529.2c-1.1-1.355-3.27-2.436-4.709-3.906H1147.27a22.393,22.393,0,0,0-.231,3.906C1180.647,529.2,1178.063,533.671,1184.031,529.2Z" transform="translate(-1071.521 -500.194)"/><path class="q" d="M1153.226,525.3h-5.956a22.393,22.393,0,0,0-.231,3.906h7.9Z" transform="translate(-1071.521 -500.194)"/><path class="q" d="M1165.486,645.74h6.666a7.588,7.588,0,0,0,.229-2.249h-7.813Z" transform="translate(-1087.82 -610.014)"/><path class="q" d="M1589.268,645.74h-6.161s.1-1.629.143-2.249h6.572Z" transform="translate(-1476.707 -610.014)"/><ellipse class="g" cx="7.107" cy="10.412" rx="7.107" ry="10.412" transform="translate(58.496 24.241)"/><ellipse class="o" cx="3.527" cy="5.167" rx="3.527" ry="5.167" transform="translate(62.643 29.486)"/><ellipse class="f" cx="2.216" cy="3.246" rx="2.216" ry="3.246" transform="translate(63.954 31.406)"/><g transform="translate(19.044 24.241)"><path class="r" d="M350.087,523.54c0,5.75,2.281,10.412,5.1,10.412s5.095-4.662,5.095-10.412-2.281-10.412-5.095-10.412S350.087,517.79,350.087,523.54Z" transform="translate(-350.087 -513.128)"/><path class="n" d="M374.7,570.272c0,3.782,1.5,6.849,3.351,6.849s3.351-3.066,3.351-6.849-1.5-6.848-3.351-6.848S374.7,566.49,374.7,570.272Z" transform="translate(-372.956 -559.861)"/><path class="s" d="M392.048,592.331c0,2.853,1.132,5.167,2.528,5.167s2.528-2.313,2.528-5.167-1.132-5.167-2.528-5.167S392.048,589.477,392.048,592.331Z" transform="translate(-389.075 -581.919)"/><path class="n" d="M405.311,617.512c0,1.793.711,3.246,1.589,3.246s1.589-1.454,1.589-3.246-.711-3.246-1.589-3.246S405.311,615.719,405.311,617.512Z" transform="translate(-401.398 -607.101)"/></g><g transform="translate(38.461 1.507)"><rect class="t" width="14.339" height="0.974" transform="translate(0 13.485) rotate(-70.13)"/></g><g transform="translate(55.739 2.488)"><g class="u" transform="translate(0 0)"><g transform="translate(-0.266 -6.028)"><g transform="translate(7.802 0.259)"><rect class="v" width="0.571" height="22.331" transform="matrix(0.704, -0.71, 0.71, 0.704, 0, 0.406)"/></g><g transform="translate(0 11.729)"><rect class="v" width="0.571" height="24.176" transform="translate(0 0.563) rotate(-80.065)"/></g><g transform="translate(23.574 5.596)"><rect class="v" width="10.614" height="0.571" transform="translate(0 10.555) rotate(-83.944)"/></g><g transform="translate(15.661 0)"><rect class="v" width="0.571" height="12.643" transform="translate(0 0.174) rotate(-17.697)"/></g><g transform="translate(1.509 14.161)"><rect class="v" width="12.822" height="0.571" transform="translate(0 3.577) rotate(-16.199)"/></g><g transform="translate(24.18 3.006)"><rect class="v" width="11.168" height="0.571" transform="matrix(0.553, -0.833, 0.833, 0.553, 0, 9.308)"/></g><g transform="translate(23.845 14.96)"><rect class="v" width="14.91" height="0.571" transform="matrix(0.998, -0.063, 0.063, 0.998, 0, 0.934)"/></g><g transform="translate(30.534 13.223)"><rect class="v" width="2.475" height="0.571" transform="matrix(0.063, -0.998, 0.998, 0.063, 0, 2.47)"/></g><g transform="translate(30.843 9.371)"><rect class="v" width="7.879" height="0.571" transform="matrix(0.888, -0.459, 0.459, 0.888, 0, 3.619)"/></g><g transform="translate(26.944 8.148)"><rect class="v" width="0.571" height="6.218" transform="translate(0 0.349) rotate(-37.717)"/></g><g transform="translate(18.178 4.137)"><rect class="v" width="4.533" height="0.572" transform="matrix(0.636, -0.772, 0.772, 0.636, 0, 3.498)"/></g><g transform="translate(21.185 4.049)"><rect class="v" width="0.571" height="3.917" transform="translate(0 0.538) rotate(-70.498)"/></g><g transform="translate(24.706 1.066)"><rect class="v" width="4.745" height="0.571" transform="matrix(0.34, -0.941, 0.941, 0.34, 0, 4.463)"/></g><g transform="translate(19.579 0.97)"><rect class="v" width="0.571" height="3.538" transform="translate(0 0.233) rotate(-24.027)"/></g><g transform="translate(11.207 15.942)"><rect class="v" width="14.633" height="0.571" transform="translate(0 7.59) rotate(-31.245)"/></g><g transform="translate(24.192 12.297)"><rect class="v" width="0.572" height="4.427" transform="matrix(0.791, -0.611, 0.611, 0.791, 0, 0.349)"/></g><g transform="translate(23.675 15.967)"><rect class="v" width="0.572" height="12.222" transform="translate(0 0.43) rotate(-48.742)"/></g></g></g></g><path class="i" d="M937.657,387.948c-5.788-5.594-12.571-2.35-17.417-2.236l-.445-.119c-11.262-1.259-25.182-1.216-39.793-.385l18.141,5.6S937.661,387.969,937.657,387.948Z" transform="translate(-823.415 -369.476)"/><path class="j" d="M1195.448,391.214a39.144,39.144,0,0,1-4.859.633l-.444-.119c-5.781-.646-19.18,5.034-19.18,5.034C1175.777,396.416,1195.448,391.214,1195.448,391.214Z" transform="translate(-1093.764 -375.61)"/><path class="o" d="M1378.8,649.145l-6.991,3.991a.88.88,0,0,1-1.135-.257l-3.007-4.294a.7.7,0,0,1,.23-1.036l6.991-3.991a.88.88,0,0,1,1.135.257l3.007,4.294A.7.7,0,0,1,1378.8,649.145Z" transform="translate(-1276.408 -609.975)"/><g transform="translate(106.027 42.84)"><path class="w" d="M1584.382,777.968h-5.372a1.159,1.159,0,0,1,0-2.319h5.372a1.159,1.159,0,1,1,0,2.319Zm-5.372-1.748a.588.588,0,0,0,0,1.177h5.372a.588.588,0,1,0,0-1.177Z" transform="translate(-1577.851 -775.649)"/></g></g></g></g></svg>