<svg xmlns="http://www.w3.org/2000/svg" xmlns:xlink="http://www.w3.org/1999/xlink" width="20.738" height="27.445" viewBox="0 0 20.738 27.445"><defs><style>.a,.b,.e{fill:#0855c4;}.a{clip-rule:evenodd;}.b{fill-rule:evenodd;}.c{clip-path:url(#a);}.d{fill:#fff;}</style><clipPath id="a"><path class="a" d="M-2606.984,920.22a15.123,15.123,0,0,1-10.369,3.986v13.4c0,4.431,3.459,7.207,10.369,10.063,6.909-2.855,10.369-5.631,10.369-10.063v-13.4a15.123,15.123,0,0,1-10.369-3.986" transform="translate(2617.353 -920.22)"/></clipPath></defs><g transform="translate(2772.98 -701.843)"><g transform="translate(-2772.98 701.843)"><path class="b" d="M-2606.984,920.22a15.123,15.123,0,0,1-10.369,3.986v13.4c0,4.431,3.459,7.207,10.369,10.063,6.909-2.855,10.369-5.631,10.369-10.063v-13.4a15.123,15.123,0,0,1-10.369-3.986" transform="translate(2617.353 -920.22)"/><g class="c" transform="translate(0)"><path class="b" d="M-3531.746,253.213l19.995,18.626-18.527,19.888-19.995-18.626" transform="translate(3541.381 -259.57)"/><path class="b" d="M-2122.316,1645.39a.112.112,0,0,0,.016-.155.112.112,0,0,0-.153.027.112.112,0,0,0-.016.155.112.112,0,0,0,.153-.027" transform="translate(2127.21 -1638.305)"/><path class="b" d="M-2129.815,1637.746a.187.187,0,0,0,.027-.258.187.187,0,0,0-.255.045.187.187,0,0,0-.027.258.187.187,0,0,0,.255-.045m-.069-.064a.075.075,0,0,1-.1.018.075.075,0,0,1,.011-.1.075.075,0,0,1,.1-.018A.075.075,0,0,1-2129.883,1637.682Z" transform="translate(2134.754 -1630.619)"/><path class="b" d="M-2137.3,1630.1a.261.261,0,0,0,.037-.361.261.261,0,0,0-.357.063.261.261,0,0,0-.037.361.261.261,0,0,0,.357-.063m-.069-.064a.149.149,0,0,1-.2.036.15.15,0,0,1,.021-.206.15.15,0,0,1,.2-.036A.15.15,0,0,1-2137.374,1630.032Z" transform="translate(2142.29 -1622.926)"/><path class="b" d="M-2144.8,1622.452a.336.336,0,0,0,.048-.464.336.336,0,0,0-.459.08.336.336,0,0,0-.048.464.336.336,0,0,0,.459-.081m-.069-.064a.224.224,0,0,1-.306.054.224.224,0,0,1,.032-.309.224.224,0,0,1,.306-.054A.224.224,0,0,1-2144.873,1622.388Z" transform="translate(2149.835 -1615.239)"/><path class="b" d="M-2152.3,1614.806a.411.411,0,0,0,.059-.567.411.411,0,0,0-.561.1.411.411,0,0,0-.059.567.411.411,0,0,0,.561-.1m-.069-.064a.3.3,0,0,1-.408.072.3.3,0,0,1,.042-.412.3.3,0,0,1,.408-.072A.3.3,0,0,1-2152.364,1614.742Z" transform="translate(2157.372 -1607.551)"/><path class="b" d="M-2159.792,1607.162a.486.486,0,0,0,.069-.67.486.486,0,0,0-.663.116.486.486,0,0,0-.069.67.486.486,0,0,0,.664-.116m-.069-.064a.374.374,0,0,1-.51.09.374.374,0,0,1,.053-.516.374.374,0,0,1,.51-.09A.374.374,0,0,1-2159.861,1607.1Z" transform="translate(2164.915 -1599.864)"/><path class="b" d="M-2167.288,1599.517a.56.56,0,0,0,.08-.773.56.56,0,0,0-.765.134.56.56,0,0,0-.08.773.56.56,0,0,0,.766-.134m-.069-.064a.449.449,0,0,1-.612.107.448.448,0,0,1,.064-.618.448.448,0,0,1,.612-.108A.448.448,0,0,1-2167.356,1599.453Z" transform="translate(2172.456 -1592.176)"/><path class="b" d="M-2174.782,1591.87a.635.635,0,0,0,.09-.876.635.635,0,0,0-.867.152.635.635,0,0,0-.091.876.636.636,0,0,0,.868-.152m-.069-.064a.524.524,0,0,1-.715.125.524.524,0,0,1,.075-.722.523.523,0,0,1,.714-.125A.523.523,0,0,1-2174.85,1591.806Z" transform="translate(2179.996 -1584.487)"/><path class="b" d="M-2182.277,1584.226a.71.71,0,0,0,.1-.979.71.71,0,0,0-.969.17.71.71,0,0,0-.1.979.71.71,0,0,0,.969-.17m-.068-.064a.6.6,0,0,1-.816.143.6.6,0,0,1,.085-.825.6.6,0,0,1,.817-.143A.6.6,0,0,1-2182.345,1584.162Z" transform="translate(2187.536 -1576.8)"/><path class="b" d="M-2189.768,1576.577a.785.785,0,0,0,.112-1.082.784.784,0,0,0-1.072.188.785.785,0,0,0-.112,1.082.785.785,0,0,0,1.072-.188m-.069-.064a.672.672,0,0,1-.918.161.673.673,0,0,1,.1-.928.673.673,0,0,1,.918-.161A.672.672,0,0,1-2189.836,1576.513Z" transform="translate(2195.073 -1569.109)"/><path class="b" d="M-2197.265,1568.936a.859.859,0,0,0,.122-1.185.859.859,0,0,0-1.174.206.86.86,0,0,0-.123,1.185.859.859,0,0,0,1.174-.206m-.069-.064a.747.747,0,0,1-1.021.179.747.747,0,0,1,.107-1.031.747.747,0,0,1,1.021-.179A.747.747,0,0,1-2197.334,1568.872Z" transform="translate(2202.616 -1561.425)"/><path class="b" d="M-2204.765,1561.286a.934.934,0,0,0,.133-1.288.934.934,0,0,0-1.276.224.934.934,0,0,0-.133,1.288.934.934,0,0,0,1.276-.224m-.068-.064a.822.822,0,0,1-1.123.2.822.822,0,0,1,.117-1.134.822.822,0,0,1,1.123-.2A.822.822,0,0,1-2204.833,1561.222Z" transform="translate(2210.161 -1553.733)"/><path class="b" d="M-2212.256,1553.642a1.009,1.009,0,0,0,.144-1.391,1.008,1.008,0,0,0-1.377.242,1.009,1.009,0,0,0-.144,1.391,1.009,1.009,0,0,0,1.378-.242m-.069-.064a.9.9,0,0,1-1.224.215.9.9,0,0,1,.127-1.237.9.9,0,0,1,1.225-.215A.9.9,0,0,1-2212.325,1553.578Z" transform="translate(2217.698 -1546.046)"/><path class="b" d="M-2219.75,1546a1.084,1.084,0,0,0,.154-1.495,1.084,1.084,0,0,0-1.48.26,1.083,1.083,0,0,0-.154,1.495,1.084,1.084,0,0,0,1.48-.26m-.069-.064a.972.972,0,0,1-1.327.233.972.972,0,0,1,.138-1.34.972.972,0,0,1,1.327-.233A.972.972,0,0,1-2219.818,1545.932Z" transform="translate(2225.238 -1538.357)"/><path class="b" d="M-2227.24,1538.353a1.158,1.158,0,0,0,.165-1.6,1.158,1.158,0,0,0-1.582.278,1.158,1.158,0,0,0-.165,1.6,1.158,1.158,0,0,0,1.582-.278m-.069-.064a1.046,1.046,0,0,1-1.429.251,1.046,1.046,0,0,1,.149-1.443,1.046,1.046,0,0,1,1.429-.251A1.046,1.046,0,0,1-2227.309,1538.289Z" transform="translate(2232.774 -1530.672)"/><path class="b" d="M-2234.742,1530.707a1.233,1.233,0,0,0,.176-1.7,1.233,1.233,0,0,0-1.684.3,1.233,1.233,0,0,0-.176,1.7,1.233,1.233,0,0,0,1.684-.3m-.069-.064a1.121,1.121,0,0,1-1.531.269,1.121,1.121,0,0,1,.16-1.546,1.121,1.121,0,0,1,1.531-.269A1.121,1.121,0,0,1-2234.81,1530.643Z" transform="translate(2240.321 -1522.983)"/><path class="b" d="M-2242.237,1523.059a1.308,1.308,0,0,0,.186-1.8,1.307,1.307,0,0,0-1.786.313,1.308,1.308,0,0,0-.186,1.8,1.308,1.308,0,0,0,1.786-.313m-.069-.064a1.2,1.2,0,0,1-1.633.287,1.2,1.2,0,0,1,.17-1.649,1.2,1.2,0,0,1,1.633-.287A1.2,1.2,0,0,1-2242.306,1523Z" transform="translate(2247.863 -1515.293)"/><path class="b" d="M-2249.729,1515.418a1.382,1.382,0,0,0,.2-1.907,1.382,1.382,0,0,0-1.888.331,1.382,1.382,0,0,0-.2,1.907,1.383,1.383,0,0,0,1.888-.331m-.069-.064a1.27,1.27,0,0,1-1.735.3,1.271,1.271,0,0,1,.181-1.752,1.27,1.27,0,0,1,1.735-.3A1.271,1.271,0,0,1-2249.8,1515.354Z" transform="translate(2255.4 -1507.609)"/><path class="b" d="M-2257.225,1507.768a1.457,1.457,0,0,0,.208-2.01,1.457,1.457,0,0,0-1.99.349,1.457,1.457,0,0,0-.208,2.01,1.457,1.457,0,0,0,1.99-.349m-.069-.064a1.345,1.345,0,0,1-1.837.323,1.345,1.345,0,0,1,.191-1.855,1.345,1.345,0,0,1,1.837-.322A1.345,1.345,0,0,1-2257.293,1507.7Z" transform="translate(2262.941 -1499.917)"/><path class="b" d="M-2264.724,1500.127a1.532,1.532,0,0,0,.218-2.113,1.532,1.532,0,0,0-2.092.367,1.532,1.532,0,0,0-.218,2.113,1.532,1.532,0,0,0,2.092-.367m-.069-.064a1.42,1.42,0,0,1-1.939.34,1.42,1.42,0,0,1,.2-1.958,1.42,1.42,0,0,1,1.939-.34A1.42,1.42,0,0,1-2264.792,1500.064Z" transform="translate(2270.486 -1492.234)"/><path class="b" d="M-2272.215,1492.477a1.607,1.607,0,0,0,.229-2.216,1.607,1.607,0,0,0-2.194.385,1.607,1.607,0,0,0-.229,2.216,1.607,1.607,0,0,0,2.194-.385m-.068-.064a1.5,1.5,0,0,1-2.041.358,1.5,1.5,0,0,1,.213-2.062,1.5,1.5,0,0,1,2.041-.358A1.5,1.5,0,0,1-2272.284,1492.413Z" transform="translate(2278.023 -1484.54)"/><path class="b" d="M-2279.71,1484.829a1.681,1.681,0,0,0,.239-2.319,1.681,1.681,0,0,0-2.3.4,1.681,1.681,0,0,0-.24,2.319,1.681,1.681,0,0,0,2.3-.4m-.069-.064a1.57,1.57,0,0,1-2.143.376,1.569,1.569,0,0,1,.223-2.164,1.569,1.569,0,0,1,2.143-.376A1.569,1.569,0,0,1-2279.779,1484.766Z" transform="translate(2285.564 -1476.851)"/><path class="b" d="M-2287.2,1477.186a1.757,1.757,0,0,0,.25-2.422,1.756,1.756,0,0,0-2.4.421,1.756,1.756,0,0,0-.25,2.422,1.756,1.756,0,0,0,2.4-.421m-.069-.064a1.644,1.644,0,0,1-2.245.394,1.644,1.644,0,0,1,.234-2.268,1.644,1.644,0,0,1,2.245-.394A1.644,1.644,0,0,1-2287.27,1477.122Z" transform="translate(2293.101 -1469.164)"/><path class="b" d="M-2294.7,1469.54a1.831,1.831,0,0,0,.261-2.525,1.831,1.831,0,0,0-2.5.439,1.831,1.831,0,0,0-.261,2.525,1.831,1.831,0,0,0,2.5-.439m-.069-.064a1.719,1.719,0,0,1-2.347.412,1.719,1.719,0,0,1,.245-2.371,1.719,1.719,0,0,1,2.347-.412A1.719,1.719,0,0,1-2294.77,1469.476Z" transform="translate(2300.646 -1461.476)"/><path class="b" d="M-2302.2,1461.9a1.905,1.905,0,0,0,.271-2.628,1.905,1.905,0,0,0-2.6.457,1.905,1.905,0,0,0-.271,2.628,1.906,1.906,0,0,0,2.6-.457m-.069-.064a1.794,1.794,0,0,1-2.449.43,1.794,1.794,0,0,1,.256-2.474,1.794,1.794,0,0,1,2.449-.43A1.794,1.794,0,0,1-2302.265,1461.834Z" transform="translate(2308.187 -1453.791)"/><path class="b" d="M-2309.689,1454.249a1.98,1.98,0,0,0,.282-2.731,1.98,1.98,0,0,0-2.7.475,1.98,1.98,0,0,0-.282,2.731,1.98,1.98,0,0,0,2.7-.475m-.068-.064a1.868,1.868,0,0,1-2.552.448,1.868,1.868,0,0,1,.266-2.577,1.868,1.868,0,0,1,2.551-.448A1.868,1.868,0,0,1-2309.758,1454.185Z" transform="translate(2315.726 -1446.1)"/><path class="b" d="M-2317.186,1446.608a2.055,2.055,0,0,0,.293-2.834,2.056,2.056,0,0,0-2.807.492,2.055,2.055,0,0,0-.292,2.835,2.055,2.055,0,0,0,2.807-.493m-.069-.064a1.943,1.943,0,0,1-2.654.466,1.943,1.943,0,0,1,.277-2.68,1.943,1.943,0,0,1,2.653-.466A1.943,1.943,0,0,1-2317.254,1446.544Z" transform="translate(2323.268 -1438.417)"/><path class="b" d="M-2324.677,1438.959a2.13,2.13,0,0,0,.3-2.937,2.13,2.13,0,0,0-2.909.51,2.13,2.13,0,0,0-.3,2.938,2.13,2.13,0,0,0,2.909-.51m-.069-.064a2.018,2.018,0,0,1-2.756.484,2.018,2.018,0,0,1,.287-2.783,2.018,2.018,0,0,1,2.756-.483A2.018,2.018,0,0,1-2324.745,1438.9Z" transform="translate(2330.805 -1430.725)"/><path class="b" d="M-2332.174,1431.311a2.2,2.2,0,0,0,.314-3.041,2.2,2.2,0,0,0-3.01.528,2.2,2.2,0,0,0-.314,3.041,2.2,2.2,0,0,0,3.01-.528m-.068-.064a2.092,2.092,0,0,1-2.857.5,2.092,2.092,0,0,1,.3-2.886,2.092,2.092,0,0,1,2.858-.5A2.092,2.092,0,0,1-2332.242,1431.247Z" transform="translate(2338.347 -1423.034)"/><path class="b" d="M-2339.669,1423.67c.949-1.019,1.094-2.427.325-3.144s-2.164-.473-3.113.546-1.094,2.427-.324,3.144,2.164.473,3.113-.546m-.069-.064a2.167,2.167,0,0,1-2.959.519,2.167,2.167,0,0,1,.309-2.989,2.167,2.167,0,0,1,2.959-.519A2.167,2.167,0,0,1-2339.738,1423.606Z" transform="translate(2345.889 -1415.351)"/><path class="b" d="M-2347.162,1416.019c.98-1.052,1.13-2.506.335-3.247s-2.235-.488-3.215.564-1.13,2.506-.335,3.247,2.235.488,3.215-.564m-.068-.064a2.242,2.242,0,0,1-3.062.537,2.242,2.242,0,0,1,.319-3.092,2.242,2.242,0,0,1,3.062-.537A2.242,2.242,0,0,1-2347.23,1415.955Z" transform="translate(2353.427 -1407.657)"/><path class="b" d="M-2354.662,1408.381c1.012-1.086,1.167-2.586.346-3.35s-2.305-.5-3.317.582-1.166,2.586-.346,3.35,2.306.5,3.317-.582m-.068-.064c-.965,1.036-2.381,1.284-3.164.555s-.635-2.16.33-3.2,2.381-1.284,3.164-.555S-2353.766,1407.282-2354.73,1408.317Z" transform="translate(2360.973 -1399.976)"/><path class="b" d="M-2362.157,1400.73c1.042-1.119,1.2-2.665.356-3.453s-2.376-.519-3.419.6-1.2,2.665-.357,3.453,2.376.519,3.419-.6m-.069-.064c-1,1.069-2.458,1.326-3.266.573s-.656-2.229.34-3.3,2.458-1.326,3.266-.573S-2361.23,1399.6-2362.226,1400.666Z" transform="translate(2368.514 -1392.283)"/><path class="b" d="M-2369.648,1393.091c1.074-1.153,1.238-2.745.367-3.556s-2.447-.535-3.521.618-1.238,2.745-.367,3.556,2.448.535,3.521-.618m-.069-.064c-1.027,1.1-2.535,1.367-3.368.591s-.676-2.3.351-3.4,2.535-1.367,3.368-.591S-2368.69,1391.925-2369.717,1393.027Z" transform="translate(2376.051 -1384.601)"/><path class="b" d="M-2377.144,1385.44c1.1-1.186,1.274-2.824.378-3.659s-2.518-.55-3.623.636-1.274,2.824-.378,3.659,2.519.55,3.623-.636m-.069-.064c-1.058,1.136-2.612,1.408-3.47.609s-.7-2.368.362-3.5,2.612-1.408,3.47-.609S-2376.154,1384.24-2377.212,1385.376Z" transform="translate(2383.592 -1376.908)"/><path class="b" d="M-2384.638,1377.794c1.136-1.219,1.31-2.9.388-3.762s-2.589-.566-3.725.654-1.31,2.9-.388,3.762,2.589.566,3.725-.654m-.068-.064c-1.089,1.169-2.688,1.45-3.572.627s-.717-2.438.373-3.607,2.688-1.45,3.572-.627S-2383.617,1376.561-2384.706,1377.73Z" transform="translate(2391.131 -1369.219)"/><path class="b" d="M-2392.135,1370.15c1.167-1.253,1.346-2.983.4-3.865s-2.66-.581-3.827.672-1.346,2.983-.4,3.865,2.66.581,3.827-.672m-.069-.064c-1.12,1.2-2.765,1.491-3.674.645s-.737-2.508.383-3.71,2.766-1.491,3.674-.645S-2391.083,1368.883-2392.2,1370.086Z" transform="translate(2398.674 -1361.532)"/><path class="b" d="M-2399.629,1362.5c1.2-1.286,1.382-3.063.41-3.968s-2.731-.6-3.929.69-1.382,3.063-.41,3.968,2.731.6,3.929-.69m-.069-.064c-1.151,1.236-2.842,1.533-3.776.663s-.758-2.578.394-3.814,2.842-1.533,3.776-.663S-2398.546,1361.2-2399.7,1362.435Z" transform="translate(2406.215 -1353.839)"/><path class="b" d="M-2407.122,1354.861c1.229-1.32,1.417-3.142.42-4.071s-2.8-.612-4.031.708-1.417,3.142-.42,4.071,2.8.612,4.031-.708m-.068-.064c-1.183,1.269-2.919,1.574-3.878.68s-.778-2.647.4-3.917,2.919-1.574,3.878-.681S-2406.007,1353.528-2407.19,1354.8Z" transform="translate(2413.752 -1346.158)"/><path class="b" d="M-2414.622,1347.21c1.26-1.353,1.453-3.222.431-4.174s-2.873-.628-4.134.725-1.453,3.222-.431,4.174,2.873.628,4.134-.725m-.069-.064c-1.214,1.3-3,1.616-3.98.7s-.8-2.717.415-4.02,3-1.616,3.981-.7S-2413.477,1345.843-2414.691,1347.146Z" transform="translate(2421.299 -1338.465)"/><path class="b" d="M-2422.112,1339.568c1.292-1.386,1.489-3.3.441-4.277s-2.944-.643-4.235.743-1.489,3.3-.442,4.277,2.944.643,4.236-.743m-.069-.064c-1.245,1.336-3.073,1.657-4.082.716s-.819-2.786.426-4.123,3.073-1.657,4.083-.716S-2420.936,1338.168-2422.181,1339.5Z" transform="translate(2428.834 -1330.78)"/><path class="b" d="M-2429.609,1331.92c1.323-1.42,1.525-3.381.452-4.381s-3.015-.659-4.337.761-1.525,3.381-.453,4.38,3.015.659,4.338-.761m-.069-.064c-1.276,1.37-3.149,1.7-4.185.734s-.84-2.856.437-4.226,3.149-1.7,4.184-.734S-2428.4,1330.486-2429.678,1331.856Z" transform="translate(2436.377 -1323.089)"/><path class="b" d="M-2437.1,1324.278c1.354-1.453,1.561-3.461.463-4.484s-3.085-.674-4.439.779-1.561,3.461-.463,4.484,3.086.674,4.439-.779m-.068-.064c-1.307,1.4-3.226,1.74-4.287.752s-.86-2.926.447-4.329,3.226-1.74,4.286-.752S-2435.864,1322.811-2437.171,1324.214Z" transform="translate(2443.917 -1315.404)"/><path class="b" d="M-2444.6,1316.631c1.385-1.487,1.6-3.54.474-4.587s-3.157-.69-4.542.8-1.6,3.54-.474,4.587,3.157.69,4.542-.8m-.069-.064c-1.338,1.437-3.3,1.781-4.389.77s-.88-3,.458-4.432,3.3-1.781,4.388-.77S-2443.327,1315.13-2444.666,1316.567Z" transform="translate(2451.456 -1307.715)"/><path class="b" d="M-2452.095,1308.982c1.416-1.52,1.633-3.62.484-4.69s-3.228-.705-4.644.815-1.633,3.62-.484,4.69,3.228.705,4.644-.815m-.068-.064c-1.37,1.47-3.38,1.823-4.491.788s-.9-3.065.468-4.535,3.38-1.823,4.491-.788S-2450.794,1307.448-2452.163,1308.918Z" transform="translate(2459 -1300.024)"/><path class="b" d="M-2459.585,1301.342c1.447-1.553,1.669-3.7.495-4.793s-3.3-.72-4.746.833-1.669,3.7-.5,4.793,3.3.721,4.746-.833m-.069-.064c-1.4,1.5-3.457,1.864-4.593.806s-.922-3.135.479-4.638,3.457-1.864,4.593-.806S-2458.253,1299.774-2459.654,1301.278Z" transform="translate(2466.536 -1292.341)"/><path class="b" d="M-2467.082,1293.693c1.479-1.587,1.7-3.779.506-4.9s-3.369-.736-4.848.851-1.7,3.779-.505,4.9,3.369.736,4.848-.851m-.068-.064c-1.432,1.537-3.534,1.906-4.695.824s-.942-3.2.49-4.741,3.533-1.906,4.695-.824S-2465.719,1292.092-2467.15,1293.629Z" transform="translate(2474.079 -1284.649)"/><path class="b" d="M-2474.582,1286.048c1.51-1.62,1.741-3.858.516-5s-3.441-.752-4.95.869-1.74,3.858-.516,5,3.44.752,4.95-.869m-.068-.064c-1.463,1.57-3.61,1.947-4.8.842s-.962-3.274.5-4.844,3.61-1.947,4.8-.842S-2473.187,1284.414-2474.65,1285.984Z" transform="translate(2481.624 -1276.962)"/><path class="b" d="M-2482.072,1278.4c1.541-1.654,1.777-3.938.527-5.1s-3.511-.767-5.052.886-1.776,3.938-.527,5.1,3.512.767,5.052-.886m-.069-.064c-1.494,1.6-3.687,1.989-4.9.86s-.983-3.344.511-4.947,3.687-1.989,4.9-.86S-2480.647,1276.735-2482.141,1278.339Z" transform="translate(2489.16 -1269.274)"/><path class="b" d="M-2489.568,1270.757c1.572-1.687,1.812-4.018.537-5.205s-3.582-.783-5.154.9-1.812,4.018-.538,5.205,3.583.783,5.154-.9m-.069-.064c-1.525,1.637-3.764,2.03-5,.878s-1-3.414.522-5.051,3.764-2.03,5-.878S-2488.111,1269.056-2489.636,1270.693Z" transform="translate(2496.701 -1261.585)"/><path class="b" d="M-2497.063,1263.11c1.6-1.721,1.848-4.1.548-5.308s-3.653-.8-5.256.922-1.848,4.1-.548,5.308,3.653.8,5.256-.922m-.069-.064c-1.556,1.67-3.841,2.071-5.1.9s-1.024-3.483.532-5.154,3.841-2.071,5.1-.9S-2495.575,1261.376-2497.132,1263.046Z" transform="translate(2504.242 -1253.896)"/><path class="b" d="M-2504.558,1255.467c1.634-1.754,1.884-4.177.559-5.411s-3.724-.814-5.358.94-1.884,4.177-.559,5.411,3.724.814,5.358-.94m-.069-.064c-1.587,1.7-3.918,2.113-5.205.913s-1.044-3.553.543-5.257,3.917-2.113,5.205-.913S-2503.039,1253.7-2504.626,1255.4Z" transform="translate(2511.783 -1246.211)"/><path class="b" d="M-2512.054,1247.817c1.665-1.787,1.92-4.256.569-5.514s-3.8-.829-5.46.958-1.92,4.256-.569,5.514,3.8.829,5.46-.958m-.069-.064c-1.618,1.737-3.994,2.154-5.307.931s-1.065-3.623.554-5.36,3.994-2.154,5.307-.931S-2510.5,1246.016-2512.123,1247.753Z" transform="translate(2519.325 -1238.518)"/><path class="b" d="M-2519.544,1240.172c1.7-1.821,1.956-4.336.58-5.617s-3.866-.845-5.562.976-1.956,4.336-.58,5.617,3.866.845,5.563-.976m-.069-.064c-1.649,1.771-4.071,2.2-5.409.949s-1.085-3.692.564-5.463,4.071-2.2,5.409-.949S-2517.963,1238.338-2519.613,1240.108Z" transform="translate(2526.861 -1230.831)"/><path class="b" d="M-2527.043,1232.529c1.727-1.854,1.992-4.415.591-5.721s-3.937-.86-5.665.994-1.992,4.415-.591,5.721,3.937.86,5.665-.994m-.069-.064c-1.68,1.8-4.148,2.237-5.511.967s-1.106-3.762.575-5.566,4.148-2.237,5.511-.967S-2525.431,1230.661-2527.112,1232.465Z" transform="translate(2534.405 -1223.145)"/><path class="b" d="M-2534.542,1224.883c1.758-1.888,2.027-4.495.6-5.823s-4.008-.875-5.766,1.012-2.028,4.495-.6,5.823,4.008.876,5.767-1.012m-.069-.064c-1.712,1.837-4.225,2.278-5.613.985s-1.126-3.831.585-5.669,4.225-2.278,5.613-.985S-2532.9,1222.982-2534.611,1224.819Z" transform="translate(2541.95 -1215.457)"/><path class="b" d="M-2542.03,1217.238c1.79-1.921,2.063-4.574.612-5.927s-4.079-.891-5.868,1.03-2.063,4.574-.612,5.927,4.079.891,5.868-1.03m-.069-.064c-1.743,1.871-4.3,2.32-5.716,1s-1.146-3.9.6-5.772,4.3-2.32,5.715-1S-2540.356,1215.3-2542.1,1217.174Z" transform="translate(2549.483 -1207.769)"/><path class="b" d="M-2549.527,1209.6c1.821-1.954,2.1-4.654.623-6.03s-4.15-.907-5.97,1.048-2.1,4.654-.622,6.03,4.15.907,5.97-1.048m-.069-.064c-1.774,1.9-4.378,2.361-5.817,1.021s-1.167-3.971.607-5.875,4.378-2.361,5.817-1.021S-2547.821,1207.627-2549.6,1209.531Z" transform="translate(2557.026 -1200.083)"/><path class="b" d="M-2557.019,1201.948c1.852-1.988,2.135-4.733.633-6.133s-4.221-.922-6.072,1.066-2.135,4.734-.634,6.133,4.221.922,6.073-1.066m-.068-.064c-1.805,1.938-4.456,2.4-5.919,1.039s-1.188-4.041.617-5.978,4.455-2.4,5.919-1.039S-2555.282,1199.947-2557.087,1201.884Z" transform="translate(2564.564 -1192.394)"/><path class="b" d="M-2564.518,1194.3c1.883-2.021,2.171-4.813.644-6.236s-4.292-.938-6.175,1.084-2.171,4.813-.644,6.236,4.292.938,6.175-1.083m-.068-.064c-1.836,1.971-4.532,2.444-6.022,1.057s-1.208-4.11.628-6.081,4.532-2.444,6.021-1.057S-2562.75,1192.268-2564.586,1194.239Z" transform="translate(2572.108 -1184.706)"/><path class="b" d="M-2572.014,1186.659c1.914-2.055,2.207-4.893.655-6.339s-4.363-.953-6.277,1.1-2.207,4.893-.655,6.339,4.363.953,6.277-1.1m-.069-.064c-1.867,2-4.609,2.486-6.124,1.075s-1.229-4.18.638-6.184,4.609-2.486,6.124-1.074S-2570.216,1184.591-2572.083,1186.595Z" transform="translate(2579.651 -1177.019)"/><path class="b" d="M-2579.5,1179.012c1.945-2.088,2.243-4.972.665-6.442s-4.434-.969-6.378,1.119-2.243,4.972-.666,6.442,4.434.969,6.379-1.119m-.069-.064c-1.9,2.038-4.686,2.527-6.226,1.093s-1.249-4.25.649-6.287,4.686-2.527,6.226-1.093S-2577.675,1176.91-2579.573,1178.948Z" transform="translate(2587.187 -1169.33)"/><path class="b" d="M-2587,1171.364c1.976-2.121,2.279-5.052.676-6.545s-4.5-.984-6.481,1.137-2.279,5.052-.676,6.545,4.5.984,6.481-1.137m-.069-.064c-1.929,2.071-4.762,2.568-6.327,1.11s-1.27-4.319.66-6.391,4.763-2.568,6.328-1.11S-2585.141,1169.229-2587.071,1171.3Z" transform="translate(2594.73 -1161.64)"/><path class="b" d="M-2594.5,1163.718c2.007-2.155,2.314-5.131.686-6.648s-4.575-1-6.583,1.155-2.314,5.131-.687,6.648,4.576,1,6.583-1.155m-.069-.064c-1.961,2.1-4.839,2.61-6.43,1.128s-1.29-4.389.671-6.493,4.839-2.61,6.43-1.129S-2592.6,1161.549-2594.564,1163.654Z" transform="translate(2602.269 -1153.95)"/><path class="b" d="M-2601.991,1156.074c2.039-2.188,2.351-5.211.7-6.751s-4.646-1.015-6.685,1.173-2.351,5.211-.7,6.751,4.646,1.015,6.685-1.173m-.068-.064c-1.992,2.138-4.916,2.651-6.532,1.146s-1.311-4.458.681-6.6,4.916-2.651,6.532-1.146S-2600.067,1153.872-2602.059,1156.01Z" transform="translate(2609.81 -1146.264)"/><path class="b" d="M-2609.487,1148.428c2.07-2.222,2.387-5.291.708-6.854s-4.717-1.03-6.787,1.191-2.387,5.29-.708,6.854,4.718,1.031,6.787-1.191m-.068-.064c-2.023,2.172-4.993,2.693-6.634,1.164s-1.331-4.528.692-6.7,4.993-2.693,6.634-1.164S-2607.533,1146.193-2609.556,1148.364Z" transform="translate(2617.352 -1138.576)"/><path class="b" d="M-2616.977,1140.782c2.1-2.255,2.422-5.37.719-6.957s-4.788-1.046-6.889,1.209-2.422,5.37-.718,6.957,4.789,1.046,6.889-1.209m-.069-.064c-2.054,2.2-5.07,2.734-6.736,1.182s-1.352-4.6.7-6.8,5.07-2.734,6.736-1.182S-2614.992,1138.513-2617.046,1140.718Z" transform="translate(2624.888 -1130.887)"/><path class="b" d="M-2624.477,1133.138c2.132-2.289,2.458-5.45.729-7.061s-4.859-1.062-6.991,1.227-2.458,5.45-.729,7.06,4.859,1.062,6.991-1.227m-.069-.064c-2.085,2.238-5.146,2.776-6.838,1.2s-1.372-4.667.713-6.906,5.147-2.776,6.838-1.2S-2622.461,1130.836-2624.546,1133.074Z" transform="translate(2632.434 -1123.2)"/><path class="b" d="M-2631.974,1125.492c2.163-2.322,2.494-5.529.74-7.163s-4.93-1.077-7.093,1.245-2.494,5.529-.74,7.163,4.93,1.077,7.093-1.245m-.068-.064c-2.116,2.272-5.224,2.817-6.94,1.218s-1.393-4.737.724-7.009,5.223-2.817,6.94-1.218S-2629.926,1123.157-2632.042,1125.428Z" transform="translate(2639.976 -1115.512)"/><path class="b" d="M-2639.465,1117.844c2.194-2.355,2.53-5.609.75-7.266s-5-1.093-7.2,1.263-2.53,5.609-.75,7.266,5,1.093,7.2-1.263m-.069-.064c-2.147,2.305-5.3,2.859-7.042,1.236s-1.413-4.807.734-7.112,5.3-2.859,7.042-1.236S-2637.386,1115.475-2639.534,1117.78Z" transform="translate(2647.513 -1107.821)"/><path class="b" d="M-2646.96,1110.2c2.225-2.389,2.566-5.688.761-7.37s-5.072-1.108-7.3,1.281-2.566,5.688-.761,7.37,5.072,1.108,7.3-1.281m-.069-.064c-2.178,2.339-5.377,2.9-7.144,1.254s-1.434-4.876.745-7.215,5.377-2.9,7.144-1.254S-2644.85,1107.8-2647.028,1110.138Z" transform="translate(2655.053 -1100.136)"/><path class="b" d="M-2654.455,1102.552c2.256-2.422,2.6-5.768.772-7.473s-5.143-1.124-7.4,1.3-2.6,5.768-.772,7.473,5.143,1.124,7.4-1.3m-.068-.064c-2.209,2.372-5.454,2.941-7.246,1.272s-1.454-4.946.756-7.318,5.454-2.942,7.246-1.272S-2652.313,1100.116-2654.523,1102.488Z" transform="translate(2662.594 -1092.444)"/><path class="b" d="M-2661.95,1094.912c2.288-2.455,2.638-5.847.782-7.576s-5.214-1.139-7.5,1.316-2.638,5.847-.782,7.576,5.214,1.139,7.5-1.316m-.069-.064c-2.24,2.405-5.531,2.983-7.348,1.29s-1.475-5.016.766-7.421,5.531-2.983,7.348-1.29S-2659.777,1092.442-2662.019,1094.848Z" transform="translate(2670.135 -1084.761)"/><path class="b" d="M-2669.447,1087.262c2.319-2.489,2.674-5.927.793-7.679s-5.285-1.155-7.6,1.334-2.674,5.927-.793,7.679,5.285,1.155,7.6-1.334m-.068-.064c-2.272,2.439-5.608,3.024-7.45,1.308s-1.5-5.085.777-7.524,5.607-3.024,7.45-1.307S-2667.243,1084.759-2669.515,1087.2Z" transform="translate(2677.677 -1077.069)"/><path class="b" d="M-2676.938,1079.622c2.35-2.522,2.709-6.006.8-7.782s-5.356-1.17-7.706,1.352-2.709,6.006-.8,7.782,5.356,1.17,7.706-1.352m-.069-.064c-2.3,2.472-5.684,3.066-7.552,1.325s-1.515-5.155.788-7.627,5.685-3.066,7.552-1.325S-2674.7,1077.086-2677.007,1079.558Z" transform="translate(2685.214 -1069.386)"/><path class="b" d="M-2684.435,1071.972c2.381-2.556,2.745-6.086.814-7.885s-5.427-1.186-7.808,1.37-2.745,6.086-.814,7.885,5.427,1.186,7.808-1.37m-.069-.064c-2.334,2.506-5.761,3.107-7.654,1.343s-1.536-5.225.8-7.73,5.761-3.107,7.654-1.343S-2682.169,1069.4-2684.5,1071.908Z" transform="translate(2692.757 -1061.693)"/><path class="b" d="M-2691.929,1064.333c2.412-2.589,2.781-6.165.825-7.988s-5.5-1.2-7.91,1.388-2.781,6.166-.825,7.988,5.5,1.2,7.91-1.388m-.069-.064c-2.365,2.539-5.838,3.149-7.756,1.361s-1.557-5.294.809-7.833,5.838-3.149,7.756-1.361S-2689.633,1061.73-2692,1064.269Z" transform="translate(2700.297 -1054.012)"/><path class="b" d="M-2699.423,1056.681c2.443-2.623,2.817-6.245.835-8.091s-5.568-1.217-8.012,1.406-2.817,6.245-.835,8.091,5.569,1.217,8.012-1.406m-.068-.064c-2.4,2.572-5.915,3.19-7.859,1.379s-1.577-5.364.82-7.937,5.915-3.19,7.858-1.379S-2697.1,1054.044-2699.491,1056.617Z" transform="translate(2707.836 -1046.317)"/><path class="b" d="M-2706.921,1049.031c2.474-2.656,2.853-6.325.846-8.194s-5.64-1.232-8.114,1.424-2.853,6.325-.846,8.194,5.64,1.232,8.114-1.424m-.068-.064c-2.427,2.606-5.992,3.231-7.961,1.4s-1.6-5.434.83-8.04,5.992-3.231,7.961-1.4S-2704.562,1046.362-2706.989,1048.968Z" transform="translate(2715.38 -1038.625)"/><path class="b" d="M-2714.411,1041.392c2.505-2.689,2.889-6.4.857-8.3s-5.711-1.247-8.216,1.442-2.889,6.4-.857,8.3,5.71,1.248,8.216-1.442m-.069-.064c-2.459,2.639-6.068,3.273-8.063,1.415s-1.618-5.5.841-8.143,6.068-3.273,8.063-1.415S-2712.021,1038.688-2714.479,1041.328Z" transform="translate(2722.916 -1030.943)"/><path class="b" d="M-2721.911,1033.742c2.537-2.723,2.925-6.484.867-8.4s-5.781-1.263-8.318,1.46-2.925,6.484-.867,8.4,5.782,1.263,8.318-1.46m-.068-.064c-2.49,2.673-6.146,3.314-8.165,1.433s-1.638-5.573.852-8.246,6.145-3.314,8.165-1.433S-2719.489,1031.005-2721.979,1033.678Z" transform="translate(2730.461 -1023.251)"/><path class="b" d="M-2729.4,1026.1c2.568-2.756,2.961-6.563.878-8.5s-5.853-1.279-8.42,1.478-2.96,6.563-.878,8.5,5.853,1.278,8.42-1.478m-.069-.064c-2.521,2.706-6.222,3.356-8.267,1.451s-1.659-5.643.862-8.349,6.222-3.355,8.267-1.451S-2726.949,1023.331-2729.47,1026.037Z" transform="translate(2737.998 -1015.568)"/><path class="b" d="M-2736.9,1018.451c2.6-2.79,3-6.643.889-8.607s-5.923-1.294-8.522,1.5-3,6.643-.889,8.607,5.923,1.294,8.522-1.5m-.068-.064c-2.552,2.74-6.3,3.4-8.369,1.469s-1.679-5.712.873-8.452,6.3-3.4,8.369-1.469S-2734.415,1015.647-2736.966,1018.387Z" transform="translate(2745.54 -1007.874)"/><path class="b" d="M-2744.4,1010.813c2.63-2.823,3.033-6.722.9-8.709s-5.994-1.309-8.624,1.513-3.032,6.722-.9,8.71,5.994,1.309,8.624-1.514m-.068-.064c-2.583,2.773-6.376,3.438-8.471,1.487s-1.7-5.782.883-8.555,6.376-3.438,8.471-1.486S-2741.881,1007.976-2744.464,1010.749Z" transform="translate(2753.083 -1000.194)"/><path class="b" d="M-2751.887,1003.162c2.661-2.856,3.068-6.8.91-8.813s-6.065-1.325-8.726,1.531-3.069,6.8-.91,8.813,6.065,1.325,8.726-1.531m-.069-.064c-2.614,2.806-6.452,3.48-8.573,1.5s-1.72-5.852.894-8.658,6.452-3.48,8.573-1.5S-2749.342,1000.291-2751.956,1003.1Z" transform="translate(2760.621 -992.5)"/><path class="b" d="M-2759.383,995.52c2.692-2.89,3.1-6.881.92-8.916s-6.136-1.341-8.828,1.549-3.1,6.881-.921,8.916,6.136,1.341,8.828-1.549m-.068-.064c-2.646,2.84-6.529,3.521-8.675,1.522s-1.741-5.921.9-8.761,6.529-3.521,8.675-1.522S-2756.807,992.616-2759.452,995.456Z" transform="translate(2768.162 -984.816)"/><path class="b" d="M-2766.88,987.872c2.723-2.923,3.14-6.961.931-9.019s-6.207-1.356-8.93,1.567-3.14,6.961-.931,9.019,6.207,1.356,8.93-1.567m-.068-.064c-2.677,2.873-6.606,3.563-8.777,1.54s-1.761-5.991.915-8.864,6.606-3.563,8.777-1.54S-2764.272,984.935-2766.948,987.808Z" transform="translate(2775.705 -977.125)"/><path class="b" d="M-2774.37,980.225c2.754-2.957,3.176-7.041.942-9.122s-6.278-1.372-9.032,1.585-3.176,7.041-.942,9.122,6.278,1.372,9.032-1.585m-.069-.064c-2.708,2.906-6.683,3.6-8.879,1.558s-1.782-6.061.926-8.967,6.683-3.6,8.879-1.558S-2771.731,977.255-2774.439,980.161Z" transform="translate(2783.241 -969.436)"/><path class="b" d="M-2781.871,972.583c2.785-2.99,3.212-7.12.953-9.225s-6.349-1.387-9.135,1.6-3.212,7.12-.952,9.225,6.349,1.387,9.134-1.6m-.069-.064c-2.739,2.94-6.76,3.646-8.981,1.576s-1.8-6.13.937-9.07,6.76-3.646,8.981-1.576S-2779.2,969.579-2781.94,972.519Z" transform="translate(2790.787 -961.751)"/><path class="b" d="M-2789.362,964.934c2.816-3.023,3.248-7.2.963-9.328s-6.42-1.4-9.237,1.621-3.248,7.2-.963,9.328,6.42,1.4,9.236-1.621m-.069-.064c-2.77,2.973-6.837,3.687-9.083,1.594s-1.823-6.2.947-9.173,6.836-3.687,9.083-1.594S-2786.661,961.9-2789.431,964.87Z" transform="translate(2798.324 -954.06)"/><path class="b" d="M-2796.857,957.29c2.848-3.057,3.284-7.279.974-9.431s-6.491-1.418-9.338,1.639-3.284,7.279-.974,9.431,6.491,1.418,9.339-1.639m-.069-.064c-2.8,3.007-6.914,3.728-9.185,1.612s-1.843-6.27.958-9.276,6.914-3.728,9.186-1.612S-2794.125,954.219-2796.926,957.226Z" transform="translate(2805.865 -946.373)"/><path class="b" d="M-2804.352,949.642c2.879-3.09,3.319-7.359.984-9.534s-6.562-1.433-9.44,1.657-3.32,7.359-.984,9.534,6.562,1.433,9.44-1.657m-.069-.064c-2.832,3.04-6.99,3.77-9.287,1.63s-1.864-6.339.968-9.379,6.99-3.77,9.288-1.63S-2801.588,946.538-2804.421,949.578Z" transform="translate(2813.406 -938.683)"/><path class="b" d="M-2811.847,942c2.91-3.124,3.355-7.438.995-9.637s-6.633-1.449-9.542,1.675-3.355,7.438-1,9.637,6.633,1.449,9.543-1.675m-.069-.064c-2.863,3.073-7.067,3.811-9.39,1.648s-1.884-6.409.979-9.483,7.067-3.811,9.389-1.648S-2809.052,938.863-2811.916,941.936Z" transform="translate(2820.946 -930.998)"/><path class="b" d="M-2819.344,934.353c2.941-3.157,3.392-7.518,1.006-9.74s-6.7-1.464-9.645,1.693-3.391,7.518-1.006,9.74,6.7,1.464,9.645-1.693m-.068-.064c-2.894,3.107-7.144,3.853-9.492,1.666s-1.9-6.479.99-9.586,7.144-3.853,9.492-1.666S-2816.518,931.183-2819.412,934.29Z" transform="translate(2828.488 -923.309)"/><path class="b" d="M-2826.836,926.706c2.972-3.191,3.427-7.6,1.016-9.843s-6.774-1.48-9.747,1.71-3.427,7.6-1.017,9.843,6.775,1.48,9.747-1.71m-.069-.064c-2.925,3.14-7.221,3.894-9.594,1.683s-1.925-6.548,1-9.689,7.221-3.894,9.594-1.684S-2823.979,923.5-2826.9,926.642Z" transform="translate(2836.026 -915.618)"/><path class="b" d="M-2834.331,919.063c3-3.224,3.463-7.677,1.027-9.946s-6.845-1.5-9.849,1.728-3.463,7.677-1.027,9.946,6.846,1.5,9.849-1.728m-.069-.064c-2.957,3.174-7.3,3.936-9.7,1.7s-1.946-6.618,1.011-9.792,7.3-3.936,9.7-1.7S-2831.443,915.825-2834.4,919Z" transform="translate(2843.567 -907.933)"/><path class="b" d="M-2841.83,911.414c3.034-3.257,3.5-7.757,1.038-10.049s-6.917-1.511-9.951,1.746-3.5,7.757-1.038,10.049,6.917,1.511,9.951-1.746m-.069-.064c-2.988,3.207-7.374,3.977-9.8,1.719s-1.966-6.688,1.022-9.895,7.374-3.977,9.8-1.719S-2838.911,908.143-2841.9,911.35Z" transform="translate(2851.112 -900.242)"/><path class="b" d="M-2849.323,903.771c3.065-3.291,3.535-7.836,1.048-10.152s-6.987-1.526-10.053,1.764-3.535,7.836-1.048,10.152,6.987,1.526,10.053-1.764m-.068-.064c-3.019,3.241-7.451,4.018-9.9,1.737s-1.987-6.757,1.032-10,7.451-4.018,9.9-1.737S-2846.373,900.466-2849.391,903.707Z" transform="translate(2858.65 -892.556)"/><path class="b" d="M-2856.819,896.125c3.1-3.324,3.571-7.916,1.059-10.255s-7.059-1.542-10.155,1.782-3.571,7.916-1.059,10.256,7.059,1.542,10.155-1.782m-.068-.064c-3.05,3.274-7.528,4.06-10,1.755s-2.007-6.827,1.043-10.1,7.528-4.06,10-1.755S-2853.838,892.787-2856.887,896.061Z" transform="translate(2866.192 -884.867)"/><path class="b" d="M-2864.314,888.481c3.128-3.357,3.607-8,1.07-10.359s-7.129-1.557-10.257,1.8-3.606,8-1.069,10.359,7.129,1.557,10.257-1.8m-.069-.064c-3.081,3.307-7.6,4.1-10.1,1.773s-2.028-6.9,1.054-10.2,7.6-4.1,10.1-1.773S-2861.3,885.11-2864.383,888.417Z" transform="translate(2873.733 -877.181)"/><path class="b" d="M-2871.807,880.835c3.159-3.391,3.643-8.075,1.08-10.462s-7.2-1.573-10.359,1.818-3.643,8.075-1.08,10.462,7.2,1.573,10.359-1.818m-.068-.064c-3.112,3.341-7.682,4.143-10.206,1.791s-2.048-6.966,1.064-10.307,7.681-4.143,10.206-1.791S-2868.764,877.43-2871.875,880.771Z" transform="translate(2881.272 -869.492)"/><path class="b" d="M-2879.3,873.189c3.19-3.424,3.678-8.154,1.091-10.565s-7.271-1.589-10.461,1.836-3.678,8.154-1.091,10.565,7.271,1.589,10.461-1.836m-.069-.064c-3.143,3.374-7.758,4.184-10.308,1.809s-2.068-7.036,1.075-10.41,7.759-4.184,10.308-1.809S-2876.228,869.751-2879.371,873.125Z" transform="translate(2888.812 -861.804)"/><path class="b" d="M-2886.8,865.546c3.221-3.458,3.714-8.234,1.1-10.668s-7.342-1.6-10.563,1.854-3.714,8.234-1.1,10.668,7.343,1.6,10.563-1.854m-.068-.064c-3.175,3.408-7.835,4.225-10.41,1.827s-2.089-7.106,1.086-10.513,7.835-4.226,10.41-1.827S-2883.69,862.074-2886.865,865.482Z" transform="translate(2896.353 -854.118)"/><path class="b" d="M-2894.291,857.894c3.252-3.491,3.75-8.313,1.112-10.771s-7.413-1.62-10.665,1.872-3.75,8.313-1.112,10.771,7.413,1.62,10.666-1.872m-.069-.064c-3.206,3.441-7.912,4.267-10.512,1.845s-2.109-7.175,1.1-10.616,7.912-4.267,10.512-1.845S-2891.154,854.389-2894.36,857.83Z" transform="translate(2903.893 -846.423)"/><path class="b" d="M-2901.791,850.254c3.283-3.525,3.786-8.393,1.123-10.874s-7.484-1.635-10.768,1.89-3.786,8.393-1.123,10.874,7.484,1.635,10.767-1.89m-.069-.064c-3.237,3.474-7.989,4.308-10.614,1.863s-2.13-7.245,1.107-10.719,7.989-4.308,10.614-1.863S-2898.623,846.715-2901.859,850.19Z" transform="translate(2911.438 -838.74)"/><path class="b" d="M-2909.282,842.6c3.314-3.558,3.822-8.473,1.134-10.977s-7.555-1.651-10.869,1.907-3.822,8.473-1.134,10.977,7.555,1.65,10.87-1.907m-.069-.064c-3.268,3.508-8.066,4.35-10.716,1.881s-2.15-7.315,1.117-10.822,8.066-4.35,10.716-1.881S-2906.083,839.033-2909.351,842.541Z" transform="translate(2918.975 -831.049)"/><path class="b" d="M-2916.775,834.961c3.346-3.591,3.858-8.552,1.144-11.08s-7.626-1.666-10.971,1.925-3.858,8.552-1.144,11.08,7.626,1.666,10.971-1.925m-.068-.064c-3.3,3.541-8.143,4.391-10.818,1.9s-2.171-7.384,1.128-10.926,8.143-4.391,10.818-1.9S-2913.545,831.355-2916.844,834.9Z" transform="translate(2926.514 -823.362)"/><path class="b" d="M-2924.269,827.316c3.377-3.625,3.894-8.632,1.155-11.183s-7.7-1.681-11.073,1.943-3.894,8.632-1.155,11.183,7.7,1.682,11.073-1.943m-.069-.064c-3.33,3.575-8.219,4.433-10.92,1.917s-2.191-7.454,1.139-11.029,8.219-4.433,10.92-1.917S-2921.008,823.677-2924.338,827.252Z" transform="translate(2934.054 -815.675)"/><path class="b" d="M-2931.768,819.67c3.408-3.658,3.93-8.711,1.166-11.286s-7.768-1.7-11.176,1.961-3.929,8.711-1.165,11.286,7.768,1.7,11.175-1.961m-.069-.064c-3.361,3.608-8.3,4.474-11.022,1.934s-2.212-7.523,1.149-11.132,8.3-4.474,11.022-1.934S-2928.475,816-2931.837,819.606Z" transform="translate(2941.598 -807.986)"/><path class="b" d="M-2939.264,812.022c3.439-3.692,3.965-8.791,1.176-11.389s-7.839-1.713-11.277,1.979-3.966,8.791-1.176,11.389,7.839,1.713,11.278-1.979m-.069-.064c-3.392,3.642-8.373,4.516-11.125,1.952s-2.232-7.593,1.16-11.235,8.373-4.516,11.125-1.952S-2935.94,808.317-2939.333,811.958Z" transform="translate(2949.14 -800.296)"/><path class="b" d="M-2946.755,804.375c3.47-3.725,4-8.87,1.187-11.492s-7.91-1.728-11.38,2-4,8.87-1.187,11.492,7.91,1.728,11.38-2m-.069-.064c-3.423,3.675-8.45,4.557-11.227,1.97s-2.253-7.663,1.171-11.338,8.45-4.557,11.227-1.97S-2943.4,800.637-2946.824,804.312Z" transform="translate(2956.677 -792.607)"/><path class="b" d="M-2954.25,796.733c3.5-3.758,4.038-8.95,1.2-11.6s-7.981-1.744-11.482,2.015-4.037,8.95-1.2,11.6,7.98,1.744,11.481-2.015m-.068-.064c-3.455,3.708-8.526,4.6-11.329,1.988s-2.273-7.732,1.181-11.441,8.527-4.6,11.329-1.988S-2950.864,792.961-2954.319,796.669Z" transform="translate(2964.218 -784.922)"/><path class="b" d="M-2961.746,789.085c3.533-3.792,4.073-9.029,1.208-11.7s-8.052-1.759-11.584,2.033-4.073,9.029-1.208,11.7,8.052,1.759,11.583-2.033m-.068-.064c-3.486,3.742-8.6,4.64-11.431,2.006s-2.294-7.8,1.192-11.544,8.6-4.64,11.431-2.006S-2958.328,785.279-2961.814,789.021Z" transform="translate(2971.759 -777.231)"/><path class="b" d="M-2969.241,781.444c3.563-3.825,4.109-9.109,1.219-11.8s-8.122-1.774-11.686,2.051-4.109,9.109-1.219,11.8,8.123,1.774,11.686-2.051m-.068-.064c-3.517,3.775-8.68,4.681-11.533,2.024s-2.314-7.872,1.2-11.647,8.68-4.681,11.533-2.024S-2965.792,777.6-2969.309,781.38Z" transform="translate(2979.3 -769.547)"/><path class="b" d="M-2976.736,773.8c3.594-3.859,4.145-9.188,1.229-11.9s-8.193-1.79-11.788,2.069-4.145,9.189-1.229,11.9,8.193,1.79,11.788-2.069m-.069-.064c-3.548,3.809-8.757,4.723-11.635,2.042s-2.335-7.942,1.213-11.75,8.757-4.723,11.635-2.042S-2973.257,769.923-2976.8,773.732Z" transform="translate(2986.841 -761.857)"/><path class="b" d="M-2984.228,766.153c3.625-3.892,4.181-9.268,1.24-12.008s-8.264-1.805-11.89,2.087-4.181,9.268-1.24,12.008,8.264,1.805,11.89-2.087m-.069-.064c-3.579,3.842-8.833,4.764-11.737,2.06s-2.355-8.011,1.224-11.853,8.833-4.764,11.737-2.06S-2980.717,762.247-2984.3,766.089Z" transform="translate(2994.378 -754.171)"/><path class="b" d="M-2991.727,758.5c3.657-3.925,4.217-9.348,1.25-12.111s-8.335-1.821-11.992,2.1-4.217,9.348-1.25,12.111,8.335,1.821,11.992-2.1m-.068-.064c-3.61,3.875-8.911,4.806-11.839,2.078s-2.375-8.081,1.235-11.956,8.911-4.806,11.839-2.078S-2988.185,754.565-2991.795,758.44Z" transform="translate(3001.923 -746.48)"/><path class="b" d="M-2999.224,750.863c3.688-3.959,4.253-9.427,1.261-12.214s-8.406-1.836-12.094,2.122-4.253,9.427-1.261,12.214,8.406,1.836,12.094-2.122m-.069-.064c-3.641,3.909-8.987,4.847-11.941,2.1s-2.4-8.151,1.245-12.059,8.987-4.847,11.941-2.1S-2995.651,746.89-2999.292,750.8Z" transform="translate(3009.465 -738.796)"/><path class="b" d="M-3006.716,743.214c3.719-3.992,4.289-9.507,1.272-12.317s-8.477-1.852-12.2,2.14-4.288,9.507-1.272,12.317,8.478,1.852,12.2-2.14m-.068-.064c-3.672,3.942-9.064,4.888-12.043,2.113s-2.417-8.22,1.256-12.162,9.064-4.888,12.043-2.113S-3003.112,739.208-3006.785,743.151Z" transform="translate(3017.004 -731.105)"/><path class="b" d="M-3014.211,735.569c3.75-4.026,4.325-9.586,1.283-12.42s-8.548-1.867-12.3,2.158-4.324,9.586-1.282,12.42,8.548,1.867,12.3-2.158m-.068-.064c-3.7,3.976-9.141,4.93-12.145,2.131s-2.437-8.29,1.267-12.265,9.141-4.93,12.145-2.131S-3010.576,731.53-3014.28,735.506Z" transform="translate(3024.544 -723.418)"/><path class="b" d="M-3021.7,727.924c3.781-4.059,4.36-9.666,1.293-12.523s-8.619-1.883-12.4,2.176-4.36,9.666-1.293,12.523,8.619,1.883,12.4-2.176m-.068-.064c-3.735,4.009-9.218,4.971-12.247,2.149s-2.458-8.359,1.277-12.368,9.218-4.971,12.247-2.149S-3018.037,723.851-3021.771,727.86Z" transform="translate(3032.082 -715.73)"/><path class="b" d="M-3029.2,720.277c3.813-4.092,4.4-9.745,1.3-12.626s-8.69-1.9-12.5,2.194-4.4,9.745-1.3,12.626,8.69,1.9,12.5-2.194m-.068-.064c-3.766,4.042-9.295,5.013-12.349,2.167s-2.478-8.429,1.288-12.472,9.295-5.013,12.349-2.167S-3025.5,716.171-3029.268,720.213Z" transform="translate(3039.624 -708.04)"/><path class="b" d="M-3036.7,712.633c3.844-4.126,4.432-9.825,1.314-12.729s-8.761-1.914-12.6,2.212-4.432,9.825-1.314,12.729,8.761,1.914,12.6-2.212m-.068-.064c-3.8,4.076-9.372,5.054-12.451,2.185s-2.5-8.5,1.3-12.575,9.372-5.054,12.451-2.185S-3032.968,708.494-3036.765,712.569Z" transform="translate(3047.167 -700.354)"/><path class="b" d="M-3044.189,704.984c3.875-4.159,4.468-9.9,1.325-12.832s-8.832-1.929-12.706,2.23-4.468,9.9-1.325,12.832,8.832,1.929,12.707-2.23m-.069-.064c-3.828,4.109-9.448,5.1-12.553,2.2s-2.519-8.568,1.309-12.678,9.448-5.1,12.553-2.2S-3040.429,700.811-3044.258,704.92Z" transform="translate(3054.705 -692.662)"/><path class="b" d="M-3051.687,697.344c3.906-4.193,4.5-9.984,1.336-12.935s-8.9-1.945-12.809,2.248-4.5,9.984-1.336,12.935,8.9,1.945,12.808-2.248m-.068-.064c-3.859,4.143-9.525,5.137-12.656,2.221s-2.539-8.638,1.32-12.781,9.525-5.137,12.656-2.221S-3047.9,693.137-3051.756,697.28Z" transform="translate(3062.249 -684.979)"/><path class="b" d="M-3059.177,689.694c3.937-4.226,4.54-10.064,1.346-13.038s-8.974-1.961-12.91,2.266-4.54,10.064-1.346,13.039,8.974,1.96,12.911-2.266m-.069-.064c-3.89,4.176-9.6,5.178-12.757,2.239s-2.56-8.708,1.33-12.884,9.6-5.178,12.758-2.239S-3055.356,685.454-3059.246,689.63Z" transform="translate(3069.785 -677.287)"/><path class="b" d="M-3066.674,682.053c3.968-4.26,4.576-10.143,1.357-13.141s-9.044-1.976-13.013,2.284-4.575,10.143-1.357,13.142,9.045,1.976,13.013-2.284m-.068-.064c-3.921,4.209-9.679,5.22-12.86,2.257s-2.58-8.778,1.341-12.987,9.678-5.22,12.859-2.257S-3062.822,677.78-3066.743,681.989Z" transform="translate(3077.327 -669.603)"/><path class="b" d="M-3074.171,674.405c4-4.293,4.611-10.223,1.367-13.245s-9.116-1.991-13.115,2.3-4.611,10.223-1.367,13.245,9.115,1.991,13.115-2.3m-.069-.064c-3.953,4.243-9.756,5.261-12.961,2.275s-2.6-8.847,1.351-13.09,9.756-5.261,12.962-2.275S-3070.287,670.1-3074.239,674.341Z" transform="translate(3084.87 -661.913)"/><path class="b" d="M-3081.665,666.756c4.03-4.326,4.647-10.3,1.378-13.348s-9.187-2.007-13.217,2.319-4.647,10.3-1.378,13.348,9.187,2.007,13.217-2.319m-.069-.064c-3.984,4.276-9.833,5.3-13.064,2.293s-2.622-8.917,1.362-13.193,9.832-5.3,13.063-2.293S-3077.75,662.416-3081.733,666.692Z" transform="translate(3092.409 -654.221)"/><path class="b" d="M-3089.162,659.113c4.062-4.36,4.684-10.382,1.389-13.451s-9.257-2.022-13.319,2.337-4.683,10.382-1.389,13.451,9.257,2.022,13.319-2.337m-.068-.064c-4.015,4.31-9.909,5.344-13.166,2.311s-2.642-8.986,1.373-13.3,9.909-5.344,13.166-2.311S-3085.215,654.739-3089.23,659.049Z" transform="translate(3099.952 -646.535)"/><path class="b" d="M-3096.652,651.467c4.093-4.393,4.719-10.461,1.4-13.554s-9.328-2.038-13.421,2.355-4.719,10.461-1.4,13.554,9.328,2.038,13.421-2.355m-.069-.064c-4.046,4.343-9.986,5.385-13.268,2.328s-2.662-9.056,1.384-13.4,9.986-5.385,13.268-2.328S-3092.674,647.06-3096.72,651.4Z" transform="translate(3107.488 -638.847)"/><path class="b" d="M-3104.148,643.824c4.124-4.427,4.755-10.541,1.41-13.657s-9.4-2.053-13.523,2.373-4.755,10.541-1.41,13.657,9.4,2.053,13.523-2.373m-.069-.064c-4.077,4.376-10.063,5.427-13.37,2.346s-2.683-9.126,1.394-13.5,10.063-5.427,13.37-2.346S-3100.14,639.384-3104.217,643.76Z" transform="translate(3115.03 -631.161)"/><path class="b" d="M-3111.648,636.178c4.155-4.46,4.791-10.62,1.42-13.76s-9.47-2.069-13.625,2.391-4.791,10.621-1.421,13.76,9.47,2.069,13.625-2.391m-.069-.064c-4.108,4.41-10.14,5.468-13.472,2.364s-2.7-9.2,1.4-13.605,10.14-5.468,13.472-2.364S-3107.609,631.7-3111.717,636.114Z" transform="translate(3122.576 -623.472)"/><path class="b" d="M-3119.14,628.535c4.186-4.493,4.827-10.7,1.431-13.863s-9.541-2.084-13.727,2.409-4.827,10.7-1.431,13.863,9.541,2.084,13.727-2.409m-.069-.064c-4.139,4.443-10.217,5.51-13.574,2.382s-2.724-9.265,1.415-13.708,10.217-5.51,13.574-2.382S-3115.07,624.027-3119.209,628.471Z" transform="translate(3130.114 -615.787)"/><path class="b" d="M-3126.635,620.883c4.217-4.527,4.863-10.78,1.442-13.966s-9.612-2.1-13.829,2.427-4.862,10.78-1.442,13.966,9.612,2.1,13.829-2.427m-.069-.064c-4.17,4.477-10.293,5.551-13.676,2.4s-2.744-9.335,1.426-13.812,10.293-5.551,13.676-2.4S-3122.533,616.342-3126.7,620.819Z" transform="translate(3137.654 -608.092)"/><path class="b" d="M-3134.129,613.237c4.248-4.56,4.9-10.859,1.453-14.069s-9.683-2.115-13.931,2.445-4.9,10.859-1.453,14.069,9.683,2.115,13.931-2.445m-.069-.064c-4.2,4.51-10.37,5.593-13.778,2.418s-2.765-9.4,1.437-13.914,10.37-5.593,13.778-2.418S-3130,608.663-3134.2,613.173Z" transform="translate(3145.194 -600.404)"/><path class="b" d="M-3141.625,605.593c4.279-4.594,4.934-10.939,1.463-14.172s-9.754-2.131-14.033,2.463-4.934,10.939-1.463,14.172,9.754,2.131,14.033-2.463m-.069-.064c-4.233,4.544-10.447,5.634-13.88,2.436s-2.785-9.474,1.448-14.018,10.447-5.634,13.88-2.436S-3137.461,600.986-3141.693,605.53Z" transform="translate(3152.735 -592.718)"/><path class="b" d="M-3149.121,597.946c4.31-4.627,4.97-11.018,1.474-14.275s-9.825-2.146-14.135,2.481-4.97,11.018-1.474,14.275,9.825,2.146,14.135-2.481m-.069-.064c-4.264,4.577-10.524,5.676-13.982,2.454s-2.806-9.544,1.458-14.121,10.524-5.676,13.982-2.454S-3144.926,593.3-3149.19,597.882Z" transform="translate(3160.277 -585.027)"/><path class="b" d="M-3156.613,590.3c4.342-4.66,5.006-11.1,1.485-14.378s-9.9-2.162-14.238,2.5-5.006,11.1-1.484,14.378,9.9,2.162,14.237-2.5m-.068-.064c-4.295,4.61-10.6,5.717-14.084,2.472s-2.826-9.613,1.469-14.224,10.6-5.717,14.084-2.472S-3152.386,585.63-3156.681,590.24Z" transform="translate(3167.814 -577.343)"/><path class="b" d="M-3164.109,582.657c4.373-4.694,5.042-11.178,1.5-14.481s-9.967-2.177-14.339,2.516-5.042,11.177-1.5,14.481,9.967,2.177,14.34-2.516m-.068-.064c-4.326,4.644-10.677,5.758-14.187,2.49s-2.847-9.683,1.479-14.327,10.677-5.758,14.186-2.49S-3159.852,577.949-3164.178,582.593Z" transform="translate(3175.357 -569.653)"/><path class="b" d="M-3171.608,575.012c4.4-4.727,5.078-11.257,1.506-14.585s-10.038-2.193-14.441,2.534-5.078,11.257-1.506,14.585,10.038,2.193,14.441-2.534m-.068-.064c-4.357,4.677-10.754,5.8-14.289,2.507s-2.867-9.753,1.49-14.43,10.754-5.8,14.289-2.508S-3167.319,570.271-3171.676,574.948Z" transform="translate(3182.901 -561.966)"/><path class="b" d="M-3179.1,567.366c4.435-4.761,5.114-11.337,1.516-14.688s-10.108-2.208-14.543,2.552-5.114,11.337-1.516,14.688,10.109,2.208,14.543-2.552m-.069-.064c-4.388,4.711-10.831,5.841-14.39,2.525s-2.888-9.822,1.5-14.533,10.831-5.841,14.391-2.525S-3174.778,562.592-3179.166,567.3Z" transform="translate(3190.436 -554.278)"/><path class="b" d="M-3186.594,559.721c4.466-4.794,5.15-11.416,1.527-14.791s-10.179-2.224-14.646,2.57-5.149,11.416-1.527,14.791,10.179,2.224,14.646-2.57m-.069-.064c-4.419,4.744-10.908,5.883-14.492,2.543s-2.908-9.892,1.511-14.636,10.908-5.883,14.493-2.543S-3182.244,554.913-3186.663,559.657Z" transform="translate(3197.979 -546.59)"/><path class="b" d="M-3194.085,552.076c4.5-4.828,5.186-11.5,1.538-14.894s-10.251-2.239-14.748,2.588-5.186,11.5-1.538,14.894,10.25,2.239,14.748-2.588m-.069-.064c-4.45,4.777-10.985,5.924-14.595,2.561s-2.928-9.962,1.522-14.739,10.985-5.924,14.595-2.561S-3189.7,547.235-3194.154,552.012Z" transform="translate(3205.516 -538.902)"/><path class="b" d="M-3201.584,544.427c4.528-4.861,5.221-11.575,1.548-15s-10.322-2.255-14.85,2.606-5.221,11.575-1.548,15,10.322,2.255,14.85-2.606m-.069-.064c-4.482,4.811-11.062,5.966-14.7,2.579s-2.949-10.031,1.532-14.842,11.061-5.966,14.7-2.579S-3197.171,539.553-3201.653,544.364Z" transform="translate(3213.06 -531.211)"/><path class="b" d="M-3209.081,536.787c4.56-4.894,5.257-11.655,1.559-15.1s-10.393-2.27-14.952,2.624-5.257,11.655-1.559,15.1,10.393,2.27,14.952-2.624m-.068-.064c-4.513,4.844-11.138,6.007-14.8,2.6s-2.969-10.1,1.543-14.945,11.138-6.007,14.8-2.6S-3204.637,531.879-3209.149,536.723Z" transform="translate(3220.603 -523.528)"/><path class="b" d="M-3216.573,529.139c4.591-4.928,5.293-11.734,1.57-15.2s-10.463-2.286-15.054,2.642-5.293,11.734-1.57,15.2,10.463,2.286,15.054-2.642m-.069-.064c-4.544,4.878-11.215,6.048-14.9,2.615s-2.99-10.171,1.553-15.048,11.215-6.048,14.9-2.615S-3212.1,524.2-3216.642,529.075Z" transform="translate(3228.14 -515.837)"/><path class="b" d="M-3224.069,521.494c4.621-4.961,5.329-11.814,1.58-15.306s-10.534-2.3-15.156,2.66-5.329,11.814-1.581,15.306,10.534,2.3,15.156-2.66m-.069-.064c-4.575,4.911-11.292,6.09-15,2.633s-3.01-10.241,1.564-15.151,11.292-6.09,15-2.633S-3219.562,516.519-3224.137,521.43Z" transform="translate(3235.682 -508.15)"/><path class="b" d="M-3231.562,513.847c4.653-4.994,5.365-11.893,1.591-15.409s-10.6-2.317-15.258,2.678-5.365,11.893-1.591,15.409,10.605,2.317,15.258-2.678m-.068-.064c-4.606,4.944-11.369,6.131-15.1,2.651s-3.031-10.31,1.575-15.254,11.369-6.131,15.1-2.651S-3227.024,508.838-3231.63,513.783Z" transform="translate(3243.22 -500.46)"/><path class="b" d="M-3239.057,506.2c4.684-5.028,5.4-11.973,1.6-15.512s-10.676-2.332-15.36,2.7-5.4,11.973-1.6,15.512,10.676,2.332,15.36-2.7m-.069-.064c-4.637,4.978-11.445,6.173-15.207,2.669s-3.051-10.38,1.586-15.358,11.446-6.173,15.207-2.669S-3234.488,501.162-3239.125,506.139Z" transform="translate(3250.761 -492.774)"/><path class="b" d="M-3246.553,498.558c4.715-5.061,5.437-12.052,1.612-15.615s-10.747-2.348-15.462,2.714-5.437,12.052-1.612,15.615,10.747,2.348,15.462-2.714m-.069-.064c-4.668,5.011-11.522,6.214-15.309,2.687s-3.072-10.449,1.6-15.461,11.522-6.214,15.309-2.687S-3241.954,493.483-3246.622,498.494Z" transform="translate(3258.304 -485.086)"/><path class="b" d="M-3254.045,490.913c4.746-5.095,5.473-12.132,1.623-15.718s-10.818-2.363-15.564,2.731-5.473,12.132-1.623,15.718,10.818,2.363,15.564-2.731m-.069-.064c-4.7,5.045-11.6,6.255-15.411,2.7s-3.093-10.519,1.607-15.564,11.6-6.255,15.411-2.7S-3249.415,485.8-3254.114,490.849Z" transform="translate(3265.841 -477.399)"/><path class="b" d="M-3261.544,483.268c4.777-5.128,5.509-12.212,1.633-15.821s-10.889-2.379-15.666,2.749-5.509,12.212-1.634,15.821,10.889,2.379,15.666-2.749m-.069-.064c-4.731,5.078-11.676,6.3-15.513,2.722s-3.113-10.589,1.617-15.667,11.676-6.3,15.513-2.722S-3256.882,478.126-3261.613,483.2Z" transform="translate(3273.386 -469.711)"/><path class="b" d="M-3269.042,475.618c4.808-5.162,5.544-12.291,1.644-15.924s-10.96-2.394-15.768,2.767-5.544,12.291-1.644,15.924,10.96,2.394,15.768-2.767m-.068-.064c-4.762,5.111-11.753,6.338-15.615,2.74s-3.134-10.658,1.628-15.77,11.753-6.338,15.615-2.74S-3264.349,470.443-3269.11,475.554Z" transform="translate(3280.929 -462.019)"/><path class="b" d="M-3276.532,467.974c4.839-5.2,5.58-12.371,1.655-16.028s-11.031-2.41-15.871,2.785-5.58,12.371-1.655,16.027,11.031,2.41,15.871-2.785m-.069-.064c-4.792,5.145-11.83,6.38-15.717,2.758s-3.154-10.728,1.639-15.873,11.83-6.38,15.717-2.758S-3271.808,462.766-3276.6,467.91Z" transform="translate(3288.465 -454.332)"/><path class="b" d="M-3284.026,460.327c4.871-5.228,5.616-12.45,1.666-16.131s-11.1-2.425-15.973,2.8-5.616,12.45-1.665,16.131,11.1,2.425,15.972-2.8m-.068-.064c-4.824,5.178-11.907,6.421-15.819,2.776s-3.175-10.8,1.649-15.976,11.906-6.421,15.819-2.776S-3279.271,455.085-3284.095,460.264Z" transform="translate(3296.005 -446.643)"/><path class="b" d="M-3291.522,452.685c4.9-5.262,5.652-12.53,1.676-16.234s-11.173-2.441-16.075,2.821-5.652,12.53-1.676,16.234,11.173,2.441,16.074-2.821m-.068-.064c-4.855,5.212-11.983,6.463-15.921,2.794s-3.195-10.867,1.66-16.079,11.983-6.463,15.922-2.794S-3286.736,447.41-3291.591,452.621Z" transform="translate(3303.547 -438.958)"/><path class="b" d="M-3299.017,445.037c4.933-5.3,5.688-12.609,1.687-16.337s-11.244-2.456-16.176,2.839-5.688,12.609-1.687,16.337,11.244,2.456,16.177-2.839m-.069-.064c-4.886,5.245-12.06,6.5-16.023,2.812s-3.215-10.937,1.671-16.182,12.06-6.5,16.024-2.812S-3294.2,439.728-3299.086,444.973Z" transform="translate(3311.087 -431.267)"/><path class="b" d="M-3306.515,437.4c4.964-5.329,5.724-12.689,1.7-16.44s-11.315-2.472-16.279,2.857-5.724,12.689-1.7,16.44,11.314,2.472,16.279-2.857m-.069-.064c-4.917,5.279-12.137,6.546-16.125,2.83s-3.236-11.007,1.681-16.285,12.137-6.546,16.125-2.83S-3301.667,432.054-3306.583,437.332Z" transform="translate(3318.631 -423.584)"/><path class="b" d="M-3314,429.745c5-5.362,5.76-12.768,1.708-16.543s-11.386-2.487-16.381,2.875-5.76,12.769-1.708,16.543,11.386,2.487,16.381-2.875m-.069-.064c-4.948,5.312-12.214,6.587-16.228,2.848s-3.256-11.076,1.692-16.388,12.214-6.587,16.228-2.848S-3309.125,424.369-3314.073,429.681Z" transform="translate(3326.166 -415.89)"/><path class="b" d="M-3321.5,422.1c5.026-5.4,5.8-12.848,1.719-16.646s-11.457-2.5-16.483,2.892-5.8,12.848-1.719,16.646,11.457,2.5,16.483-2.892m-.068-.064c-4.979,5.345-12.291,6.628-16.33,2.866s-3.277-11.146,1.7-16.491,12.291-6.628,16.33-2.866S-3316.592,416.692-3321.572,422.037Z" transform="translate(3333.711 -408.204)"/><path class="b" d="M-3329,414.455c5.057-5.429,5.831-12.928,1.729-16.749s-11.527-2.518-16.585,2.911-5.831,12.928-1.729,16.749,11.527,2.518,16.585-2.911m-.069-.064c-5.011,5.379-12.367,6.67-16.432,2.884s-3.3-11.216,1.713-16.594,12.367-6.67,16.432-2.884S-3324.055,409.013-3329.066,414.392Z" transform="translate(3341.25 -400.515)"/><path class="b" d="M-3336.492,406.81c5.088-5.462,5.867-13.007,1.74-16.852s-11.6-2.534-16.687,2.928-5.867,13.007-1.74,16.852,11.6,2.534,16.687-2.928m-.068-.064c-5.042,5.412-12.444,6.711-16.534,2.9s-3.318-11.285,1.724-16.7,12.444-6.711,16.534-2.9S-3331.519,401.334-3336.561,406.746Z" transform="translate(3348.791 -392.827)"/><path class="b" d="M-3343.987,399.166c5.119-5.5,5.9-13.087,1.75-16.955s-11.669-2.549-16.789,2.946-5.9,13.087-1.75,16.955,11.669,2.549,16.789-2.946m-.069-.064c-5.073,5.445-12.521,6.753-16.636,2.919s-3.338-11.355,1.735-16.8,12.521-6.753,16.636-2.919S-3338.983,393.657-3344.056,399.1Z" transform="translate(3356.331 -385.141)"/><path class="b" d="M-3351.481,391.517c5.151-5.529,5.939-13.166,1.761-17.058s-11.74-2.565-16.891,2.964-5.939,13.166-1.761,17.058,11.74,2.565,16.891-2.964m-.069-.064c-5.1,5.479-12.6,6.794-16.738,2.937s-3.359-11.425,1.745-16.9,12.6-6.794,16.738-2.937S-3346.446,385.975-3351.55,391.453Z" transform="translate(3363.871 -377.449)"/><path class="b" d="M-3358.977,383.876c5.182-5.562,5.975-13.246,1.772-17.161s-11.811-2.58-16.993,2.982-5.975,13.246-1.772,17.161,11.811,2.58,16.993-2.982m-.068-.064c-5.135,5.512-12.675,6.835-16.84,2.955s-3.379-11.494,1.756-17.007,12.675-6.835,16.84-2.955S-3353.91,378.3-3359.045,383.812Z" transform="translate(3371.413 -369.765)"/><path class="b" d="M-3366.475,376.225c5.213-5.6,6.011-13.325,1.783-17.264s-11.882-2.6-17.1,3-6.011,13.325-1.782,17.264,11.882,2.6,17.095-3m-.068-.064c-5.166,5.546-12.751,6.877-16.942,2.973s-3.4-11.564,1.767-17.11,12.752-6.877,16.942-2.973S-3361.377,370.615-3366.543,376.161Z" transform="translate(3378.957 -362.072)"/><path class="b" d="M-3373.965,368.585c5.244-5.629,6.047-13.4,1.793-17.367s-11.953-2.611-17.2,3.018-6.047,13.4-1.793,17.367,11.953,2.611,17.2-3.018m-.069-.064c-5.2,5.579-12.828,6.918-17.044,2.991s-3.42-11.634,1.777-17.213,12.828-6.918,17.044-2.991S-3368.836,362.942-3374.034,368.521Z" transform="translate(3386.492 -354.389)"/><path class="b" d="M-3381.464,360.935c5.275-5.663,6.083-13.484,1.8-17.471s-12.024-2.627-17.3,3.036-6.083,13.484-1.8,17.471,12.024,2.627,17.3-3.036m-.069-.064c-5.229,5.612-12.905,6.96-17.146,3.009s-3.441-11.7,1.788-17.316,12.905-6.96,17.146-3.009S-3376.3,355.258-3381.533,360.871Z" transform="translate(3394.037 -346.697)"/><path class="b" d="M-3388.956,353.291c5.306-5.7,6.119-13.564,1.815-17.574s-12.1-2.642-17.4,3.054-6.119,13.564-1.815,17.573,12.095,2.642,17.4-3.054m-.069-.064c-5.26,5.646-12.982,7-17.248,3.027s-3.461-11.773,1.8-17.419,12.982-7,17.248-3.027S-3383.765,347.581-3389.024,353.227Z" transform="translate(3401.574 -339.01)"/><path class="b" d="M-3396.451,345.646c5.337-5.729,6.155-13.644,1.825-17.677s-12.166-2.658-17.5,3.072-6.155,13.644-1.825,17.677,12.166,2.658,17.5-3.072m-.068-.064c-5.291,5.679-13.059,7.043-17.35,3.045s-3.482-11.843,1.809-17.522,13.059-7.043,17.35-3.045S-3391.229,339.9-3396.52,345.582Z" transform="translate(3409.116 -331.322)"/><path class="b" d="M-3403.948,338c5.368-5.763,6.19-13.723,1.835-17.78s-12.237-2.673-17.605,3.09-6.19,13.723-1.836,17.78,12.237,2.673,17.605-3.09m-.069-.064c-5.322,5.713-13.135,7.084-17.452,3.063s-3.5-11.912,1.82-17.625,13.135-7.084,17.452-3.063S-3398.695,332.224-3404.017,337.937Z" transform="translate(3416.658 -323.635)"/><path class="b" d="M-3411.442,330.356c5.4-5.8,6.226-13.8,1.846-17.883s-12.308-2.689-17.708,3.108-6.226,13.8-1.846,17.883,12.308,2.689,17.708-3.108m-.068-.064c-5.353,5.746-13.213,7.125-17.554,3.081s-3.523-11.982,1.83-17.728,13.212-7.125,17.554-3.081S-3406.157,324.546-3411.51,330.293Z" transform="translate(3424.197 -315.948)"/><path class="b" d="M-3418.937,322.707c5.431-5.83,6.262-13.882,1.857-17.986s-12.379-2.7-17.81,3.125-6.262,13.882-1.857,17.986,12.379,2.7,17.81-3.125m-.069-.064c-5.384,5.78-13.289,7.167-17.656,3.1s-3.543-12.052,1.841-17.831,13.289-7.167,17.656-3.1S-3413.621,316.864-3419.005,322.643Z" transform="translate(3431.738 -308.256)"/><path class="b" d="M-3426.429,315.065c5.462-5.863,6.3-13.962,1.868-18.089s-12.45-2.72-17.912,3.143-6.3,13.962-1.868,18.089,12.449,2.72,17.911-3.143m-.069-.064c-5.415,5.813-13.366,7.208-17.759,3.116s-3.563-12.121,1.852-17.934,13.366-7.208,17.759-3.116S-3421.082,309.188-3426.5,315Z" transform="translate(3439.276 -300.571)"/><path class="b" d="M-3433.926,307.418c5.493-5.9,6.334-14.041,1.878-18.192s-12.521-2.735-18.014,3.161-6.334,14.041-1.878,18.192,12.521,2.735,18.014-3.161m-.069-.064c-5.446,5.846-13.443,7.25-17.861,3.134s-3.584-12.191,1.862-18.037,13.443-7.25,17.861-3.134S-3428.548,301.508-3433.995,307.354Z" transform="translate(3446.819 -292.882)"/><path class="b" d="M-3441.425,299.771c5.524-5.93,6.37-14.121,1.889-18.3s-12.592-2.751-18.116,3.179-6.37,14.121-1.889,18.3,12.592,2.751,18.116-3.179m-.068-.064c-5.478,5.88-13.52,7.291-17.963,3.152s-3.6-12.261,1.873-18.14,13.52-7.291,17.962-3.152S-3436.016,293.827-3441.494,299.707Z" transform="translate(3454.364 -285.192)"/><path class="b" d="M-3448.915,292.127c5.555-5.963,6.406-14.2,1.9-18.4s-12.662-2.766-18.218,3.2-6.406,14.2-1.9,18.4,12.663,2.766,18.218-3.2m-.068-.064c-5.509,5.913-13.6,7.333-18.065,3.17s-3.625-12.33,1.884-18.244,13.6-7.333,18.064-3.17S-3443.475,286.15-3448.983,292.063Z" transform="translate(3461.899 -277.505)"/><path class="b" d="M-3456.41,284.478c5.586-6,6.442-14.28,1.91-18.5s-12.733-2.782-18.32,3.215-6.442,14.28-1.91,18.5,12.733,2.782,18.32-3.215m-.069-.064c-5.54,5.947-13.673,7.374-18.167,3.188s-3.645-12.4,1.894-18.347,13.673-7.374,18.167-3.188S-3450.939,278.468-3456.479,284.414Z" transform="translate(3469.441 -269.814)"/><path class="b" d="M-3463.9,276.835c5.617-6.03,6.477-14.36,1.921-18.6s-12.8-2.8-18.422,3.233-6.478,14.36-1.921,18.6,12.8,2.8,18.422-3.233m-.069-.064c-5.571,5.98-13.75,7.415-18.269,3.206s-3.666-12.47,1.905-18.45,13.75-7.415,18.269-3.206S-3458.4,270.791-3463.97,276.771Z" transform="translate(3476.978 -262.128)"/><path class="b" d="M-3471.4,269.189c5.648-6.064,6.513-14.439,1.931-18.707s-12.875-2.813-18.524,3.251-6.513,14.439-1.931,18.707,12.875,2.813,18.524-3.251m-.069-.064c-5.6,6.013-13.827,7.457-18.371,3.224s-3.687-12.539,1.916-18.553,13.827-7.457,18.371-3.224S-3465.87,263.112-3471.471,269.125Z" transform="translate(3484.525 -254.44)"/><path class="b" d="M-3478.9,261.546c5.68-6.1,6.549-14.519,1.942-18.811s-12.946-2.828-18.626,3.269-6.549,14.519-1.942,18.81,12.946,2.828,18.626-3.269m-.069-.064c-5.633,6.047-13.9,7.5-18.473,3.242s-3.707-12.609,1.926-18.656,13.9-7.5,18.473-3.242S-3473.333,255.435-3478.967,261.482Z" transform="translate(3492.065 -246.754)"/><path class="b" d="M-3486.389,253.9c5.711-6.13,6.585-14.6,1.953-18.913s-13.017-2.844-18.728,3.287-6.585,14.6-1.953,18.913,13.017,2.844,18.728-3.287m-.069-.064c-5.664,6.08-13.981,7.54-18.575,3.26s-3.728-12.679,1.937-18.759,13.98-7.54,18.575-3.26S-3480.794,247.755-3486.458,253.835Z" transform="translate(3499.602 -239.065)"/><path class="b" d="M-3493.884,246.257c5.742-6.164,6.621-14.678,1.963-19.017s-13.088-2.859-18.83,3.3-6.621,14.678-1.963,19.017,13.088,2.859,18.83-3.3m-.069-.064c-5.7,6.114-14.057,7.581-18.677,3.278s-3.748-12.748,1.948-18.862,14.057-7.581,18.677-3.278S-3488.258,240.079-3493.953,246.193Z" transform="translate(3507.143 -231.38)"/><path class="b" d="M-3501.382,238.61c5.773-6.2,6.657-14.757,1.974-19.12s-13.159-2.875-18.932,3.322-6.657,14.757-1.974,19.12,13.159,2.875,18.932-3.322m-.069-.064c-5.726,6.147-14.134,7.623-18.779,3.3s-3.768-12.818,1.958-18.965,14.134-7.623,18.779-3.3S-3495.724,232.4-3501.45,238.546Z" transform="translate(3514.686 -223.69)"/><path class="b" d="M-3508.875,230.959c5.8-6.231,6.693-14.837,1.985-19.223s-13.23-2.89-19.034,3.34-6.693,14.837-1.985,19.223,13.23,2.89,19.034-3.34m-.068-.064c-5.758,6.18-14.211,7.664-18.881,3.313s-3.789-12.888,1.969-19.068,14.211-7.664,18.881-3.313S-3503.187,224.715-3508.944,230.9Z" transform="translate(3522.225 -215.997)"/><path class="b" d="M-3516.371,223.319c5.835-6.264,6.729-14.916,2-19.326s-13.3-2.906-19.136,3.358-6.729,14.917-2,19.326,13.3,2.906,19.136-3.358m-.068-.064c-5.789,6.214-14.288,7.705-18.983,3.331s-3.809-12.957,1.979-19.171,14.288-7.705,18.983-3.331S-3510.65,217.041-3516.439,223.255Z" transform="translate(3529.766 -208.314)"/><path class="b" d="M-3523.862,215.668c5.866-6.3,6.764-15,2.006-19.429s-13.372-2.921-19.238,3.376-6.765,15-2.006,19.429,13.372,2.921,19.239-3.376m-.069-.064c-5.82,6.247-14.364,7.747-19.085,3.349s-3.83-13.027,1.99-19.274,14.365-7.747,19.085-3.349S-3518.111,209.357-3523.931,215.6Z" transform="translate(3537.303 -200.621)"/><path class="b" d="M-3531.361,208.028c5.9-6.331,6.8-15.076,2.017-19.532s-13.443-2.937-19.341,3.394-6.8,15.076-2.017,19.532,13.443,2.937,19.341-3.394m-.069-.064c-5.851,6.281-14.441,7.788-19.187,3.367s-3.85-13.1,2-19.377,14.441-7.788,19.187-3.367S-3525.579,201.684-3531.43,207.965Z" transform="translate(3544.848 -192.939)"/><path class="b" d="M-3538.857,200.379c5.929-6.364,6.836-15.155,2.028-19.635s-13.514-2.952-19.443,3.412-6.836,15.155-2.027,19.635,13.514,2.952,19.442-3.412m-.068-.064c-5.882,6.314-14.518,7.83-19.289,3.385s-3.871-13.166,2.011-19.48,14.518-7.83,19.289-3.385S-3533.044,194-3538.926,200.315Z" transform="translate(3552.39 -185.247)"/><path class="b" d="M-3546.35,192.739c5.959-6.4,6.872-15.235,2.038-19.738s-13.585-2.968-19.545,3.43-6.872,15.235-2.038,19.738,13.585,2.968,19.545-3.43m-.069-.064c-5.913,6.348-14.595,7.871-19.391,3.4s-3.891-13.236,2.022-19.583,14.595-7.871,19.391-3.4S-3540.506,186.328-3546.419,192.675Z" transform="translate(3559.929 -177.564)"/><path class="b" d="M-3553.843,185.09c5.991-6.431,6.908-15.314,2.048-19.841s-13.656-2.983-19.646,3.448-6.908,15.314-2.049,19.841,13.656,2.983,19.647-3.448m-.069-.064c-5.945,6.381-14.672,7.913-19.494,3.421s-3.911-13.306,2.033-19.687,14.672-7.913,19.493-3.421S-3547.968,178.645-3553.912,185.026Z" transform="translate(3567.468 -169.872)"/><path class="b" d="M-3561.337,177.443c6.022-6.465,6.944-15.394,2.059-19.944s-13.727-3-19.749,3.466-6.944,15.394-2.059,19.944,13.727,3,19.749-3.466m-.069-.064c-5.975,6.414-14.749,7.954-19.6,3.439s-3.932-13.375,2.043-19.79,14.749-7.954,19.6-3.439S-3555.43,170.965-3561.406,177.379Z" transform="translate(3575.007 -162.183)"/><path class="b" d="M-3568.833,169.8c6.053-6.5,6.98-15.473,2.07-20.047s-13.8-3.014-19.851,3.484-6.98,15.473-2.07,20.047,13.8,3.014,19.851-3.484m-.069-.064c-6.007,6.448-14.826,8-19.7,3.457s-3.953-13.445,2.054-19.893,14.825-8,19.7-3.457S-3562.9,163.287-3568.9,169.734Z" transform="translate(3582.549 -154.496)"/><path class="b" d="M-3576.33,162.149c6.084-6.531,7.016-15.553,2.081-20.15s-13.869-3.03-19.953,3.5-7.016,15.553-2.081,20.15,13.868,3.03,19.953-3.5m-.069-.064c-6.038,6.481-14.9,8.037-19.8,3.475s-3.973-13.515,2.064-20,14.9-8.037,19.8-3.475S-3570.361,155.6-3576.4,162.085Z" transform="translate(3590.091 -146.804)"/><path class="b" d="M-3583.823,154.509c6.115-6.565,7.052-15.632,2.091-20.253s-13.939-3.045-20.055,3.519-7.052,15.632-2.091,20.253,13.939,3.045,20.055-3.519m-.068-.064c-6.069,6.515-14.979,8.078-19.9,3.493s-3.993-13.584,2.075-20.1,14.979-8.078,19.9-3.493S-3577.822,147.931-3583.891,154.445Z" transform="translate(3597.63 -139.121)"/><path class="b" d="M-3591.322,146.859c6.146-6.6,7.087-15.712,2.1-20.357s-14.01-3.061-20.157,3.537-7.088,15.712-2.1,20.357,14.011,3.061,20.157-3.537m-.069-.064c-6.1,6.548-15.056,8.12-20,3.511s-4.014-13.654,2.086-20.2,15.056-8.12,20-3.511S-3585.291,140.247-3591.39,146.8Z" transform="translate(3605.175 -131.429)"/><path class="b" d="M-3598.812,139.217c6.177-6.631,7.123-15.792,2.113-20.46s-14.082-3.076-20.259,3.555-7.124,15.792-2.113,20.46,14.082,3.076,20.259-3.555m-.069-.064c-6.131,6.581-15.133,8.161-20.106,3.528s-4.034-13.724,2.1-20.3,15.133-8.161,20.106-3.528S-3592.75,132.571-3598.881,139.153Z" transform="translate(3612.711 -123.744)"/><path class="b" d="M-3606.306,131.57c6.209-6.665,7.159-15.871,2.123-20.563s-14.152-3.092-20.361,3.573-7.159,15.871-2.123,20.563,14.152,3.092,20.361-3.573m-.069-.064c-6.162,6.615-15.209,8.2-20.208,3.546s-4.055-13.793,2.107-20.408,15.209-8.2,20.208-3.546S-3600.213,124.891-3606.375,131.506Z" transform="translate(3620.25 -116.054)"/><path class="b" d="M-3613.8,123.926c6.24-6.7,7.2-15.951,2.134-20.666s-14.223-3.107-20.463,3.591-7.2,15.951-2.133,20.666,14.223,3.107,20.463-3.591m-.069-.064c-6.193,6.648-15.286,8.244-20.31,3.564s-4.075-13.863,2.118-20.511,15.286-8.244,20.31-3.564S-3607.678,117.214-3613.871,123.863Z" transform="translate(3627.792 -108.368)"/><path class="b" d="M-3621.3,116.278c6.271-6.732,7.231-16.03,2.145-20.769s-14.294-3.123-20.565,3.609-7.231,16.03-2.145,20.769,14.294,3.123,20.565-3.609m-.068-.064c-6.225,6.682-15.363,8.285-20.412,3.582s-4.1-13.933,2.128-20.614,15.363-8.285,20.412-3.582S-3615.142,109.533-3621.367,116.214Z" transform="translate(3635.334 -100.678)"/><path class="b" d="M-3628.795,108.632c6.3-6.765,7.267-16.11,2.155-20.872s-14.365-3.138-20.667,3.627-7.267,16.11-2.155,20.872,14.365,3.138,20.667-3.627m-.069-.064c-6.256,6.715-15.44,8.327-20.514,3.6s-4.116-14,2.139-20.717,15.44-8.327,20.514-3.6S-3622.608,101.853-3628.864,108.568Z" transform="translate(3642.876 -92.988)"/><path class="b" d="M-3636.29,100.988c6.333-6.8,7.3-16.189,2.166-20.975s-14.436-3.154-20.769,3.645-7.3,16.189-2.166,20.975,14.436,3.154,20.769-3.645m-.069-.064c-6.286,6.748-15.517,8.368-20.616,3.618s-4.137-14.072,2.15-20.82,15.517-8.368,20.616-3.618S-3630.072,94.176-3636.359,100.924Z" transform="translate(3650.417 -85.302)"/><path class="b" d="M-3643.782,93.342c6.365-6.832,7.339-16.269,2.176-21.078s-14.507-3.169-20.871,3.663S-3669.816,92.2-3664.654,97s14.507,3.169,20.871-3.663m-.068-.064c-6.318,6.782-15.594,8.41-20.718,3.636s-4.157-14.142,2.16-20.923,15.594-8.41,20.718-3.636S-3637.533,86.5-3643.851,93.278Z" transform="translate(3657.955 -77.614)"/><path class="b" d="M-3651.282,85.7c6.4-6.865,7.375-16.348,2.187-21.181s-14.578-3.185-20.973,3.681-7.375,16.349-2.187,21.181,14.578,3.185,20.973-3.681m-.068-.064c-6.349,6.815-15.671,8.451-20.82,3.654s-4.178-14.211,2.171-21.026,15.67-8.451,20.82-3.654S-3645,78.816-3651.35,85.632Z" transform="translate(3665.5 -69.925)"/><path class="b" d="M-3658.771,78.052c6.427-6.9,7.411-16.428,2.2-21.284s-14.649-3.2-21.075,3.7-7.41,16.428-2.2,21.284,14.649,3.2,21.075-3.7m-.068-.064c-6.38,6.849-15.747,8.493-20.922,3.672s-4.2-14.281,2.182-21.13,15.747-8.493,20.922-3.672S-3652.459,71.139-3658.839,77.988Z" transform="translate(3673.035 -62.238)"/><path class="b" d="M-3666.267,70.408c6.458-6.932,7.447-16.508,2.208-21.387s-14.719-3.216-21.177,3.716-7.446,16.508-2.208,21.387,14.72,3.216,21.177-3.716m-.069-.064c-6.411,6.882-15.824,8.534-21.024,3.69s-4.219-14.35,2.192-21.233,15.824-8.534,21.024-3.69S-3659.925,63.462-3666.336,70.344Z" transform="translate(3680.577 -54.551)"/><path class="b" d="M-3673.763,62.76c6.489-6.966,7.482-16.587,2.219-21.49s-14.791-3.231-21.279,3.734-7.482,16.587-2.219,21.49,14.791,3.231,21.28-3.734m-.069-.064c-6.442,6.915-15.9,8.575-21.126,3.708s-4.239-14.42,2.2-21.336,15.9-8.575,21.126-3.708S-3667.389,55.78-3673.831,62.7Z" transform="translate(3688.119 -46.861)"/><path class="b" d="M-3681.257,55.118c6.52-7,7.518-16.667,2.229-21.593s-14.861-3.247-21.382,3.752-7.518,16.667-2.23,21.593,14.862,3.247,21.382-3.752m-.069-.064c-6.473,6.949-15.978,8.617-21.229,3.725s-4.26-14.49,2.214-21.439,15.978-8.617,21.229-3.725S-3674.852,48.106-3681.325,55.055Z" transform="translate(3695.658 -39.177)"/><path class="b" d="M-3688.756,47.47c6.551-7.032,7.554-16.746,2.24-21.7s-14.933-3.262-21.484,3.77-7.554,16.746-2.24,21.7,14.932,3.262,21.483-3.77m-.068-.064c-6.5,6.982-16.055,8.658-21.331,3.743s-4.28-14.559,2.224-21.542,16.054-8.658,21.331-3.743S-3682.32,40.423-3688.824,47.406Z" transform="translate(3703.203 -31.486)"/><path class="b" d="M-3696.246,39.823c6.583-7.066,7.59-16.826,2.251-21.8s-15-3.278-21.586,3.788-7.59,16.826-2.251,21.8,15,3.278,21.585-3.788m-.068-.064c-6.536,7.016-16.131,8.7-21.433,3.761s-4.3-14.629,2.235-21.645,16.131-8.7,21.433-3.761S-3689.779,32.743-3696.314,39.759Z" transform="translate(3710.739 -23.796)"/><path class="b" d="M-3703.743,32.177c6.613-7.1,7.626-16.905,2.262-21.9s-15.075-3.293-21.688,3.806-7.626,16.905-2.261,21.9,15.074,3.293,21.688-3.806m-.068-.064c-6.567,7.049-16.208,8.741-21.535,3.779s-4.321-14.7,2.246-21.748,16.208-8.741,21.535-3.779S-3697.244,25.064-3703.811,32.113Z" transform="translate(3718.281 -16.108)"/><path class="b" d="M-3711.239,24.533c6.644-7.133,7.662-16.985,2.272-22.006s-15.145-3.309-21.79,3.824-7.662,16.985-2.272,22.006,15.145,3.309,21.79-3.824m-.069-.064c-6.6,7.083-16.285,8.783-21.637,3.8s-4.342-14.768,2.256-21.851,16.285-8.783,21.636-3.8S-3704.71,17.387-3711.308,24.469Z" transform="translate(3725.823 -8.422)"/><path class="b" d="M-3718.73,16.887c6.676-7.166,7.7-17.064,2.283-22.109s-15.216-3.324-21.892,3.842-7.7,17.064-2.282,22.109,15.216,3.324,21.892-3.842m-.068-.064c-6.629,7.116-16.362,8.824-21.739,3.815S-3744.9,5.8-3738.271-1.316s16.362-8.824,21.739-3.815S-3712.17,9.707-3718.8,16.823Z" transform="translate(3733.36 -0.733)"/><path class="b" d="M-3726.229,9.243c6.707-7.2,7.734-17.144,2.293-22.212s-15.287-3.34-21.994,3.86-7.733,17.144-2.293,22.212,15.287,3.34,21.994-3.86m-.069-.064c-6.66,7.149-16.438,8.865-21.841,3.833s-4.383-14.908,2.278-22.057,16.438-8.865,21.841-3.833S-3719.637,2.03-3726.3,9.179Z" transform="translate(3740.904 6.954)"/><path class="b" d="M-3733.719,1.6c6.738-7.233,7.769-17.224,2.3-22.315s-15.358-3.355-22.1,3.878-7.77,17.224-2.3,22.315,15.358,3.355,22.1-3.878m-.069-.064c-6.691,7.183-16.515,8.907-21.943,3.851s-4.4-14.977,2.288-22.16,16.516-8.907,21.943-3.851S-3727.1-5.649-3733.788,1.534Z" transform="translate(3748.44 14.642)"/><path class="b" d="M-3741.217-6.05c6.769-7.266,7.805-17.3,2.315-22.418s-15.429-3.371-22.2,3.9-7.805,17.3-2.315,22.418,15.429,3.371,22.2-3.9m-.068-.064c-6.722,7.216-16.592,8.948-22.045,3.869s-4.424-15.047,2.3-22.263,16.592-8.948,22.045-3.869S-3734.563-13.33-3741.286-6.114Z" transform="translate(3755.984 22.332)"/><path class="b" d="M-3748.714-13.692c6.8-7.3,7.841-17.383,2.326-22.521s-15.5-3.386-22.3,3.913-7.841,17.383-2.325,22.521,15.5,3.386,22.3-3.913m-.068-.064c-6.753,7.25-16.669,8.99-22.147,3.887s-4.444-15.117,2.309-22.366,16.669-8.99,22.147-3.887S-3742.029-21.005-3748.783-13.756Z" transform="translate(3763.527 30.016)"/><path class="b" d="M-3756.2-21.34c6.832-7.333,7.877-17.462,2.336-22.624s-15.571-3.4-22.4,3.931-7.877,17.462-2.336,22.624,15.571,3.4,22.4-3.931m-.068-.064c-6.785,7.283-16.746,9.031-22.249,3.9s-4.465-15.187,2.32-22.47,16.746-9.031,22.249-3.9S-3749.489-28.687-3756.273-21.4Z" transform="translate(3771.063 37.707)"/><path class="b" d="M-3763.7-28.987c6.863-7.367,7.913-17.542,2.346-22.727s-15.642-3.417-22.5,3.949-7.913,17.542-2.346,22.727,15.642,3.417,22.5-3.949m-.068-.064c-6.816,7.316-16.823,9.073-22.351,3.922s-4.485-15.256,2.331-22.572,16.823-9.073,22.351-3.922S-3756.954-36.367-3763.77-29.051Z" transform="translate(3778.605 45.397)"/><path class="b" d="M-3771.2-36.632c6.894-7.4,7.949-17.621,2.357-22.83s-15.712-3.433-22.606,3.967-7.949,17.621-2.357,22.83,15.713,3.433,22.606-3.967m-.068-.064c-6.847,7.35-16.9,9.114-22.454,3.94s-4.505-15.326,2.341-22.676,16.9-9.114,22.453-3.94S-3764.422-44.046-3771.269-36.7Z" transform="translate(3786.15 53.084)"/><path class="b" d="M-3778.69-44.278c6.925-7.433,7.985-17.7,2.368-22.933s-15.784-3.448-22.708,3.985-7.985,17.7-2.368,22.933,15.784,3.448,22.708-3.985m-.068-.064c-6.878,7.383-16.977,9.155-22.555,3.958s-4.526-15.4,2.352-22.779,16.976-9.155,22.555-3.958S-3771.881-51.725-3778.759-44.342Z" transform="translate(3793.686 60.773)"/><path class="b" d="M-3786.187-51.921c6.956-7.467,8.021-17.78,2.378-23.036s-15.854-3.464-22.811,4-8.021,17.78-2.378,23.036,15.855,3.464,22.811-4m-.069-.064c-6.909,7.417-17.053,9.2-22.657,3.976s-4.546-15.465,2.363-22.882,17.053-9.2,22.657-3.976S-3779.347-59.4-3786.256-51.985Z" transform="translate(3801.228 68.458)"/><path class="b" d="M-3793.678-59.57c6.987-7.5,8.057-17.86,2.389-23.139s-15.926-3.479-22.913,4.021-8.056,17.86-2.389,23.139,15.926,3.479,22.912-4.021m-.068-.064c-6.94,7.45-17.13,9.238-22.76,3.994s-4.567-15.535,2.374-22.985,17.13-9.238,22.759-3.994S-3786.806-67.084-3793.746-59.634Z" transform="translate(3808.765 76.15)"/><path class="b" d="M-3801.176-67.211c7.018-7.533,8.092-17.939,2.4-23.242s-16-3.495-23.015,4.039-8.092,17.94-2.4,23.242,16,3.495,23.014-4.039m-.068-.064c-6.971,7.483-17.207,9.28-22.862,4.012s-4.588-15.6,2.384-23.088,17.207-9.28,22.861-4.012S-3794.273-74.759-3801.244-67.275Z" transform="translate(3816.308 83.834)"/><path class="b" d="M-3808.675-74.86c7.049-7.567,8.128-18.019,2.41-23.346s-16.068-3.51-23.116,4.057-8.128,18.019-2.411,23.346,16.068,3.51,23.117-4.057m-.069-.064c-7,7.517-17.283,9.321-22.964,4.03s-4.608-15.674,2.395-23.191,17.283-9.321,22.964-4.03S-3801.741-82.44-3808.744-74.923Z" transform="translate(3823.854 91.525)"/><path class="b" d="M-3816.166-82.506c7.08-7.6,8.164-18.1,2.421-23.449s-16.138-3.526-23.219,4.075-8.164,18.1-2.421,23.449,16.139,3.526,23.219-4.075m-.069-.064c-7.033,7.55-17.36,9.363-23.066,4.048s-4.628-15.744,2.405-23.294,17.36-9.363,23.065-4.048S-3809.2-90.12-3816.234-82.569Z" transform="translate(3831.39 99.213)"/><path class="b" d="M-3823.66-90.15c7.111-7.634,8.2-18.178,2.432-23.552s-16.209-3.541-23.32,4.093-8.2,18.178-2.432,23.552,16.209,3.541,23.321-4.093m-.068-.064c-7.065,7.584-17.437,9.4-23.168,4.066s-4.649-15.813,2.416-23.4,17.437-9.4,23.167-4.066S-3816.664-97.8-3823.729-90.214Z" transform="translate(3838.93 106.9)"/><path class="b" d="M-3831.151-97.8c7.142-7.667,8.236-18.258,2.442-23.655s-16.28-3.557-23.423,4.11-8.236,18.258-2.442,23.655,16.28,3.557,23.423-4.11m-.069-.064c-7.1,7.617-17.514,9.445-23.27,4.084s-4.669-15.883,2.426-23.5,17.514-9.445,23.27-4.084S-3824.124-105.478-3831.22-97.861Z" transform="translate(3846.467 114.59)"/><path class="b" d="M-3838.652-105.439c7.174-7.7,8.272-18.337,2.453-23.758s-16.351-3.572-23.525,4.128-8.272,18.337-2.453,23.758,16.351,3.572,23.525-4.128m-.069-.064c-7.127,7.65-17.591,9.487-23.372,4.1s-4.69-15.953,2.437-23.6,17.591-9.487,23.372-4.1S-3831.593-113.154-3838.72-105.5Z" transform="translate(3854.012 122.275)"/><path class="b" d="M-3846.148-113.091c7.2-7.734,8.308-18.417,2.464-23.861s-16.422-3.588-23.627,4.146-8.308,18.417-2.464,23.861,16.422,3.588,23.627-4.146m-.069-.064c-7.158,7.684-17.668,9.528-23.474,4.119s-4.71-16.022,2.448-23.706,17.668-9.528,23.474-4.119S-3839.058-120.839-3846.216-113.155Z" transform="translate(3861.554 129.969)"/><path class="b" d="M-3853.638-120.73c7.236-7.767,8.344-18.5,2.474-23.964s-16.493-3.6-23.729,4.164-8.344,18.5-2.474,23.964,16.493,3.6,23.729-4.164m-.069-.064c-7.189,7.717-17.745,9.57-23.576,4.137s-4.731-16.092,2.458-23.809,17.745-9.57,23.576-4.137S-3846.517-128.511-3853.707-120.794Z" transform="translate(3869.091 137.651)"/><path class="b" d="M-3861.135-128.38c7.267-7.8,8.379-18.576,2.485-24.067s-16.564-3.619-23.831,4.182-8.379,18.576-2.485,24.067,16.564,3.619,23.831-4.182m-.069-.064c-7.22,7.751-17.821,9.611-23.678,4.155s-4.752-16.162,2.469-23.912,17.821-9.611,23.678-4.155S-3853.983-136.195-3861.2-128.444Z" transform="translate(3876.633 145.343)"/><path class="b" d="M-3868.634-136.02c7.3-7.834,8.416-18.656,2.5-24.17s-16.635-3.634-23.933,4.2-8.416,18.656-2.5,24.17,16.635,3.634,23.933-4.2m-.068-.064c-7.251,7.784-17.9,9.653-23.78,4.173s-4.772-16.231,2.479-24.016,17.9-9.653,23.78-4.173S-3861.451-143.868-3868.7-136.084Z" transform="translate(3884.178 153.026)"/><path class="b" d="M-3876.124-143.669c7.329-7.868,8.451-18.735,2.506-24.273s-16.706-3.65-24.035,4.218-8.451,18.735-2.506,24.273,16.706,3.65,24.035-4.218m-.069-.064c-7.282,7.818-17.975,9.694-23.882,4.191s-4.792-16.3,2.49-24.118,17.975-9.694,23.882-4.191S-3868.91-151.551-3876.193-143.733Z" transform="translate(3891.714 160.718)"/><path class="b" d="M-3883.621-151.319c7.36-7.9,8.487-18.815,2.517-24.376s-16.777-3.665-24.137,4.236-8.487,18.815-2.517,24.376,16.777,3.665,24.137-4.236m-.069-.064c-7.314,7.851-18.052,9.735-23.984,4.209s-4.812-16.371,2.5-24.222,18.052-9.735,23.984-4.209S-3876.376-159.234-3883.69-151.383Z" transform="translate(3899.256 168.411)"/><path class="b" d="M-3891.111-158.957c7.391-7.934,8.523-18.894,2.527-24.479s-16.848-3.681-24.239,4.254-8.523,18.894-2.528,24.479,16.848,3.681,24.239-4.254m-.069-.064c-7.345,7.884-18.128,9.777-24.086,4.227s-4.833-16.44,2.512-24.325,18.128-9.777,24.086-4.227S-3883.835-166.906-3891.179-159.021Z" transform="translate(3906.792 176.091)"/><path class="b" d="M-3898.61-166.609c7.422-7.968,8.559-18.974,2.538-24.582s-16.919-3.7-24.341,4.272-8.559,18.974-2.538,24.582,16.919,3.7,24.342-4.272m-.069-.064c-7.376,7.918-18.205,9.818-24.188,4.245s-4.854-16.51,2.522-24.428,18.205-9.818,24.188-4.245S-3891.3-174.59-3898.679-166.673Z" transform="translate(3914.337 183.785)"/><path class="b" d="M-3906.107-174.25c7.454-8,8.595-19.053,2.549-24.685s-16.99-3.712-24.444,4.29-8.595,19.053-2.549,24.686,16.99,3.712,24.444-4.29m-.069-.064c-7.407,7.951-18.282,9.86-24.291,4.263s-4.874-16.58,2.533-24.531,18.282-9.86,24.29-4.263S-3898.768-182.265-3906.175-174.313Z" transform="translate(3921.879 191.468)"/><path class="b" d="M-3913.6-181.9c7.485-8.035,8.631-19.133,2.56-24.789s-17.061-3.727-24.545,4.308-8.631,19.133-2.56,24.789,17.061,3.727,24.545-4.308m-.069-.064c-7.438,7.985-18.359,9.9-24.392,4.281s-4.895-16.649,2.543-24.634,18.359-9.9,24.393-4.281S-3906.229-189.947-3913.668-181.962Z" transform="translate(3929.417 199.16)"/><path class="b" d="M-3921.1-189.539c7.516-8.068,8.667-19.212,2.57-24.892s-17.132-3.743-24.647,4.325-8.667,19.212-2.57,24.892,17.132,3.743,24.647-4.325m-.068-.064c-7.469,8.018-18.436,9.942-24.495,4.3s-4.915-16.719,2.554-24.737,18.436-9.942,24.494-4.3S-3913.695-197.621-3921.164-189.6Z" transform="translate(3936.96 206.843)"/><path class="b" d="M-3928.587-197.188c7.547-8.1,8.7-19.292,2.581-24.995s-17.2-3.758-24.75,4.343-8.7,19.292-2.581,24.995,17.2,3.758,24.75-4.343m-.069-.064c-7.5,8.051-18.513,9.984-24.6,4.316s-4.936-16.789,2.565-24.84,18.513-9.984,24.6-4.316S-3921.156-205.3-3928.656-197.252Z" transform="translate(3944.497 214.535)"/><path class="b" d="M-3936.083-204.837c7.578-8.135,8.739-19.372,2.591-25.1s-17.273-3.774-24.852,4.361-8.738,19.372-2.591,25.1,17.273,3.774,24.852-4.361m-.068-.064c-7.531,8.085-18.589,10.025-24.7,4.334s-4.956-16.858,2.576-24.943,18.589-10.025,24.7-4.334S-3928.62-212.986-3936.151-204.9Z" transform="translate(3952.038 222.226)"/><path class="b" d="M-3943.579-212.478c7.609-8.168,8.774-19.451,2.6-25.2s-17.345-3.789-24.954,4.379-8.774,19.451-2.6,25.2,17.344,3.789,24.954-4.379m-.069-.064c-7.562,8.118-18.666,10.067-24.8,4.352s-4.977-16.928,2.586-25.046,18.666-10.067,24.8-4.352S-3936.085-220.66-3943.648-212.542Z" transform="translate(3959.58 229.909)"/><path class="b" d="M-3951.071-220.127c7.64-8.2,8.81-19.531,2.613-25.3s-17.415-3.8-25.056,4.4-8.81,19.531-2.613,25.3,17.415,3.8,25.056-4.4m-.069-.064c-7.594,8.151-18.743,10.108-24.9,4.37s-5-17,2.6-25.149,18.743-10.108,24.9-4.37S-3943.546-228.342-3951.14-220.191Z" transform="translate(3967.118 237.601)"/><path class="b" d="M-3958.571-227.768c7.671-8.235,8.846-19.61,2.624-25.407s-17.486-3.82-25.158,4.415-8.846,19.61-2.623,25.407,17.486,3.82,25.158-4.415m-.068-.064c-7.625,8.185-18.82,10.15-25,4.388s-5.018-17.067,2.607-25.252,18.82-10.15,25-4.388S-3951.014-236.017-3958.639-227.832Z" transform="translate(3974.663 245.285)"/><path class="b" d="M-3966.062-235.416c7.7-8.268,8.882-19.69,2.634-25.51s-17.557-3.836-25.26,4.433-8.882,19.69-2.634,25.51,17.557,3.836,25.26-4.433m-.069-.064c-7.656,8.218-18.9,10.191-25.107,4.406s-5.038-17.137,2.618-25.356,18.9-10.191,25.107-4.406S-3958.475-243.7-3966.131-235.48Z" transform="translate(3982.201 252.975)"/><path class="b" d="M-3973.558-243.062c7.734-8.3,8.917-19.769,2.645-25.613s-17.628-3.851-25.362,4.451-8.918,19.769-2.645,25.613,17.628,3.851,25.362-4.451m-.069-.064c-7.687,8.252-18.974,10.232-25.209,4.424s-5.058-17.207,2.629-25.458,18.974-10.232,25.209-4.424S-3965.939-251.377-3973.626-243.126Z" transform="translate(3989.742 260.664)"/><path class="b" d="M-3981.054-250.708c7.765-8.335,8.954-19.849,2.655-25.716s-17.7-3.867-25.464,4.469-8.954,19.849-2.655,25.716,17.7,3.867,25.464-4.469m-.069-.064c-7.718,8.285-19.05,10.274-25.311,4.442s-5.079-17.276,2.639-25.562,19.05-10.274,25.311-4.442S-3973.4-259.057-3981.122-250.772Z" transform="translate(3997.283 268.353)"/><path class="b" d="M-3988.547-258.352c7.8-8.369,8.989-19.928,2.666-25.819s-17.77-3.882-25.566,4.487-8.989,19.928-2.666,25.819,17.77,3.882,25.566-4.487m-.069-.064c-7.749,8.319-19.127,10.315-25.413,4.46s-5.1-17.346,2.65-25.665,19.127-10.315,25.413-4.46S-3980.867-266.734-3988.616-258.416Z" transform="translate(4004.823 276.039)"/><path class="b" d="M-3996.044-266c7.827-8.4,9.025-20.008,2.676-25.922s-17.841-3.9-25.668,4.5-9.025,20.008-2.677,25.922,17.841,3.9,25.668-4.5m-.069-.064c-7.781,8.352-19.2,10.357-25.515,4.478s-5.12-17.416,2.66-25.768,19.2-10.357,25.515-4.478S-3988.332-274.413-3996.113-266.061Z" transform="translate(4012.365 283.727)"/><path class="b" d="M-4003.541-273.647c7.858-8.436,9.062-20.088,2.687-26.025s-17.912-3.913-25.77,4.522-9.062,20.088-2.687,26.025,17.912,3.913,25.77-4.522m-.069-.064c-7.812,8.385-19.281,10.4-25.617,4.5s-5.14-17.485,2.671-25.871,19.281-10.4,25.617-4.5S-3995.8-282.1-4003.609-273.711Z" transform="translate(4019.907 291.419)"/><path class="b" d="M-4011.031-281.289c7.889-8.469,9.1-20.167,2.7-26.128s-17.983-3.929-25.873,4.54-9.1,20.167-2.7,26.129,17.983,3.928,25.872-4.54m-.069-.064c-7.843,8.419-19.357,10.44-25.719,4.514s-5.161-17.555,2.682-25.974,19.358-10.44,25.719-4.513S-4003.256-289.772-4011.1-281.353Z" transform="translate(4027.443 299.104)"/><path class="b" d="M-4018.531-288.936c7.921-8.5,9.133-20.247,2.708-26.232s-18.054-3.944-25.974,4.558-9.134,20.247-2.708,26.232,18.054,3.944,25.974-4.558m-.069-.064c-7.874,8.452-19.434,10.481-25.821,4.531s-5.182-17.625,2.692-26.077,19.434-10.481,25.821-4.531S-4010.726-297.452-4018.6-289Z" transform="translate(4034.99 306.793)"/><path class="b" d="M-4026.022-296.582c7.952-8.536,9.169-20.326,2.719-26.335s-18.125-3.96-26.076,4.576-9.169,20.326-2.719,26.335,18.125,3.96,26.076-4.576m-.069-.064c-7.905,8.486-19.511,10.522-25.923,4.549s-5.2-17.694,2.7-26.18,19.511-10.522,25.924-4.549S-4018.186-305.131-4026.091-296.646Z" transform="translate(4042.527 314.482)"/><path class="b" d="M-4029.773-300.4c7.967-8.552,9.187-20.366,2.724-26.386s-18.16-3.967-26.127,4.585-9.187,20.366-2.724,26.386,18.16,3.967,26.127-4.585m-.046-.043c-7.936,8.519-19.588,10.564-26.025,4.567s-5.222-17.764,2.714-26.283,19.588-10.564,26.025-4.567S-4021.883-308.965-4029.819-300.446Z" transform="translate(4046.3 318.325)"/></g></g><circle class="d" cx="6.787" cy="6.787" r="6.787" transform="translate(-2769.398 707.671)"/><g transform="translate(-2766.572 712.258)"><path class="e" d="M-1942.558,2018.06l-2.369-2.561.7-.647,1.78,1.924,4.925-3.773.579.757Z" transform="translate(1944.928 -2013.003)"/></g></g></svg>