<svg xmlns="http://www.w3.org/2000/svg" xmlns:xlink="http://www.w3.org/1999/xlink" width="158" height="48" viewBox="0 0 158 48"><defs><style>.a{fill:none;}.b{fill:#2ed35a;}.c{clip-path:url(#a);}.d{clip-path:url(#b);}.e{fill:#fff;}.f{clip-path:url(#c);}</style><clipPath id="a"><path class="a" d="M488.4,498.556a9.744,9.744,0,0,0-13.732,0,9.565,9.565,0,0,0-2.868,6.83h0a9.594,9.594,0,0,0,1.187,4.563l-1.16,5.271,5.332-1.213a9.756,9.756,0,0,0,4.377,1.04h0a9.719,9.719,0,0,0,6.872-2.829,9.557,9.557,0,0,0-.008-13.66Zm-6.86,14.969h0a8.216,8.216,0,0,1-3.911-.991l-.252-.137-3.545.806.77-3.5-.148-.256a8.212,8.212,0,1,1,7.086,4.078Z" transform="translate(-471.805 -495.725)"/></clipPath><clipPath id="b"><rect class="a" width="979.285" height="612.053"/></clipPath><clipPath id="c"><path class="a" d="M478.895,501.128h-.427a.825.825,0,0,0-.594.278,2.483,2.483,0,0,0-.779,1.852,4.312,4.312,0,0,0,.909,2.3,9.117,9.117,0,0,0,3.806,3.352c1.883.74,2.266.592,2.674.555a2.253,2.253,0,0,0,1.5-1.056,1.847,1.847,0,0,0,.13-1.056c-.056-.093-.2-.148-.427-.259s-1.315-.657-1.52-.732-.352-.111-.5.112-.586.735-.716.883-.26.167-.482.056a6.136,6.136,0,0,1-1.784-1.106,6.792,6.792,0,0,1-1.252-1.562c-.13-.222-.014-.342.1-.453s.236-.235.346-.365a1.546,1.546,0,0,0,.218-.37.413.413,0,0,0-.019-.389c-.056-.111-.484-1.209-.681-1.648h0c-.167-.37-.343-.382-.5-.389Z" transform="translate(-477.095 -501.128)"/></clipPath></defs><g transform="translate(-1111 -12)"><g transform="translate(-2733.397 -14532.747)"><rect class="b" width="158" height="48" rx="24" transform="translate(3844.397 14544.747)"/><g transform="translate(3861.524 14558.473)"><g class="c"><g transform="translate(-825.592 -9.521)"><g class="d"><g transform="translate(822.191 6.121)"><path class="e" d="M468.4,518.625h26.281v-26.3H468.4Z" transform="translate(-468.404 -492.325)"/></g></g></g></g><g transform="translate(5.29 5.403)"><g class="f"><g transform="translate(-830.882 -14.923)"><g class="d"><g transform="translate(827.48 11.523)"><path class="e" d="M473.693,512.9h15.86V497.728h-15.86Z" transform="translate(-473.693 -497.728)"/></g></g></g></g></g></g></g><g transform="translate(656.069 -471.933)"><path class="e" d="M497.556,509.954a2.121,2.121,0,0,1,1.207-1.935c.623-.376,1.233-.675,1.3-1.427.052-.247.326-.35.741-.35.454,0,.779.208.764.636a2.026,2.026,0,0,1-1.142,1.869c-.558.326-1.1.519-1.1,1.064,0,.584.441.96,1.207.96a1.628,1.628,0,0,0,1.689-1.492c0-.037,1.233-.078,1.233.9a1.874,1.874,0,0,1-.74,1.4,3.413,3.413,0,0,1-2.208.688C498.659,512.264,497.556,511.343,497.556,509.954Zm2.245-5.311v-.182a.767.767,0,0,1,.87-.857h.234a.772.772,0,0,1,.87.857v.182a.776.776,0,0,1-.87.871h-.234A.766.766,0,0,1,499.8,504.643Z" transform="translate(0 0.024)"/><path class="e" d="M504.527,505.353h-1.895c-.571,0-.882-.285-.882-.819v-.063c0-.521.311-.793.882-.793h5.673c.584,0,.883.272.883.793v.063c0,.534-.3.819-.883.819H506.45v5.906a.778.778,0,0,1-.857.87h-.272c-.521,0-.793-.3-.793-.87Z" transform="translate(1.854 0.056)"/><path class="e" d="M507.789,511.024v-6.283a.947.947,0,0,1,1-1.064h4.674c.6,0,.883.259.883.766v.065c0,.519-.286.766-.883.766H509.7v1.779h2.753c.623,0,.883.234.883.714v.039c0,.508-.273.741-.883.741H509.7v1.96h3.83c.6,0,.869.219.869.714v.065c0,.532-.273.792-.869.792h-4.738A.937.937,0,0,1,507.789,511.024Z" transform="translate(4.523 0.056)"/><path class="e" d="M514.459,511.607l2.855-7.412c.118-.352.389-.573,1.26-.573s1.116.221,1.233.573l2.92,7.4c.065.157-.467.6-1.038.6a1.175,1.175,0,0,1-1.1-.908l-.506-1.312h-3.051l-.519,1.338c-.234.662-.636.883-1.038.883C514.926,512.191,514.407,511.776,514.459,511.607Zm5.219-3.077-1.142-3.051-1.143,3.051Z" transform="translate(7.47 0.032)"/><path class="e" d="M522.794,511.275v-2.558l-2.935-4.323c-.065-.117.273-.751,1.221-.751a1.059,1.059,0,0,1,.908.673l1.752,2.87,1.779-2.87a1.1,1.1,0,0,1,.921-.673c.87,0,1.233.649,1.168.751l-2.908,4.323v2.558a.759.759,0,0,1-.831.869H523.6C523.066,512.144,522.794,511.846,522.794,511.275Z" transform="translate(9.855 0.04)"/><path class="e" d="M525.951,504.51a.763.763,0,0,1,.831-.868h.247c.545,0,.831.284.831.868v4.038c0,1.338.571,2.024,1.7,2.024,1.155,0,1.7-.662,1.7-2.037V504.51a.758.758,0,0,1,.831-.868h.259c.545,0,.818.284.818.868v4.038c0,2.415-1.246,3.687-3.622,3.687s-3.595-1.247-3.595-3.673Z" transform="translate(12.551 0.04)"/><path class="e" d="M532.178,504.741a.973.973,0,0,1,1-1.064h2.128c2.8,0,4.5,1.572,4.5,4.167s-1.739,4.232-4.57,4.232h-2a1.059,1.059,0,0,1-1.066-1.053Zm5.725,3.116a2.376,2.376,0,0,0-2.647-2.544h-1.181v5.126h1.155A2.407,2.407,0,0,0,537.9,507.857Z" transform="translate(15.303 0.056)"/><path class="e" d="M537.93,511.607l2.857-7.412c.117-.352.389-.573,1.259-.573s1.118.221,1.234.573l2.92,7.4c.065.157-.467.6-1.038.6a1.175,1.175,0,0,1-1.1-.908l-.506-1.312H540.5l-.519,1.338c-.234.662-.636.883-1.04.883C538.4,512.191,537.88,511.776,537.93,511.607Zm5.218-3.077-1.142-3.051-1.142,3.051Z" transform="translate(17.844 0.032)"/><path class="e" d="M544.49,504.6a.864.864,0,0,1,.947-.961h.521a.9.9,0,0,1,1,.686l1.7,3.96,1.714-3.96c.221-.532.428-.686.973-.686h.506a.878.878,0,0,1,.973.961v6.672c0,.571-.221.869-.766.869h-.286c-.532,0-.753-.3-.753-.869v-5.011l-1.4,3.413c-.143.326-.219.6-.973.6s-.8-.271-.96-.6l-1.389-3.348v4.946c0,.571-.208.869-.753.869h-.313c-.518,0-.74-.3-.74-.869Z" transform="translate(20.745 0.04)"/><path class="e" d="M551.33,507.939a4.207,4.207,0,0,1,4.336-4.388,4.382,4.382,0,1,1-4.336,4.388Zm6.752,0a2.457,2.457,0,0,0-2.428-2.688,2.415,2.415,0,0,0-2.414,2.675,2.434,2.434,0,1,0,4.842.013Z" transform="translate(23.768 0)"/><path class="e" d="M558.08,510.612c0-.532.663-1.012.727-.947a3.422,3.422,0,0,0,2.493,1.129c1,0,1.531-.363,1.531-1.012,0-.751-.844-.909-1.83-1.129-1.337-.3-2.714-.792-2.714-2.518,0-1.557,1.246-2.584,3.272-2.584a4.12,4.12,0,0,1,2.414.623,1.153,1.153,0,0,1,.586.921,1.241,1.241,0,0,1-.754,1,3.006,3.006,0,0,0-2.232-1.025c-.909,0-1.454.376-1.454.988,0,.727.753.831,1.791,1.064,1.52.338,2.844.96,2.844,2.544,0,1.676-1.233,2.649-3.441,2.649a4.229,4.229,0,0,1-2.714-.766A1.206,1.206,0,0,1,558.08,510.612Z" transform="translate(26.752 0)"/><path class="e" d="M565.273,508.947a2.021,2.021,0,0,1,1.142-1.856c.558-.324,1.1-.521,1.1-1.077,0-.572-.441-.949-1.207-.949a1.619,1.619,0,0,0-1.676,1.494c-.012.026-1.246.076-1.246-.908a1.851,1.851,0,0,1,.74-1.39,3.387,3.387,0,0,1,2.221-.7c1.83,0,2.935.933,2.935,2.323a2.1,2.1,0,0,1-1.208,1.921c-.623.389-1.233.676-1.3,1.428-.052.247-.324.363-.74.363C565.585,509.6,565.26,509.377,565.273,508.947Zm-.209,2.415v-.182a.777.777,0,0,1,.871-.871h.234a.771.771,0,0,1,.87.871v.182a.77.77,0,0,1-.87.87h-.234A.777.777,0,0,1,565.064,511.362Z" transform="translate(29.099 0.004)"/></g></g></svg>