<svg xmlns="http://www.w3.org/2000/svg" xmlns:xlink="http://www.w3.org/1999/xlink" width="199.581" height="27.351" viewBox="0 0 199.581 27.351"><defs><style>.a{fill:none;}.b{isolation:isolate;}.c{fill:#0854c4;}.d{clip-path:url(#a);}.e{clip-path:url(#b);}.f{clip-path:url(#c);}.g{clip-path:url(#d);}.h{clip-path:url(#e);}.i{clip-path:url(#f);}</style><clipPath id="a"><rect class="a" width="26.771" height="27.351"/></clipPath><clipPath id="b"><rect class="a" width="1332.212" height="832.632"/></clipPath><clipPath id="c"><rect class="a" width="27.188" height="28.619"/></clipPath><clipPath id="d"><path class="a" d="M2352.344-249.265l-14.265,2.634v-14.714l14.265-2.634ZM2335.4-269a3.621,3.621,0,0,0-3.577,3.665v23.686h23.191a3.624,3.624,0,0,0,3.577-3.672h0V-269Z" transform="translate(-2331.827 269.005)"/></clipPath><clipPath id="e"><rect class="a" width="26.83" height="28.68"/></clipPath><clipPath id="f"><path class="a" d="M2362.532-268.822a.926.926,0,0,1,.925.926v24.974a.924.924,0,0,1-.924.924h0a.924.924,0,0,1-.925-.924V-267.9A.924.924,0,0,1,2362.532-268.822Z" transform="translate(-2361.608 268.822)"/></clipPath></defs><g transform="translate(-2331.827 269.004)"><g transform="translate(2385.705 -264.389)"><g class="b"><g class="b"><path class="c" d="M2372.275-253.288a1.311,1.311,0,0,1,.943-1.1,4.7,4.7,0,0,0,3.908,1.983c1.8,0,2.826-.74,2.826-2.023,0-1.464-1.524-1.8-3.246-2.205-2-.461-4.088-1.162-4.088-3.788,0-2.2,1.9-3.769,4.669-3.769a5.878,5.878,0,0,1,3.669,1.062,1.717,1.717,0,0,1,.781,1.243,1.363,1.363,0,0,1-.961,1.142,4.255,4.255,0,0,0-3.469-1.744c-1.624,0-2.686.783-2.686,1.985,0,1.424,1.263,1.646,3.068,2.065,2.2.5,4.328,1.364,4.328,3.869,0,2.385-1.844,3.868-4.871,3.868a6.191,6.191,0,0,1-4.209-1.344A1.826,1.826,0,0,1,2372.275-253.288Z" transform="translate(-2372.275 264.853)"/><path class="c" d="M2384.962-261.852a4.489,4.489,0,0,1,4.63,4.849v.16c0,.422-.142.581-.6.581h-7.116a2.256,2.256,0,0,0,.041.362,3.133,3.133,0,0,0,3.247,2.626,3.17,3.17,0,0,0,3.026-1.6c.04-.042,1.043.14,1.043.982a1.935,1.935,0,0,1-1.063,1.4,5.706,5.706,0,0,1-3.046.781,4.792,4.792,0,0,1-5.092-5.031A4.884,4.884,0,0,1,2384.962-261.852Zm-.02,1.5a3.073,3.073,0,0,0-3.047,2.746h5.772A2.648,2.648,0,0,0,2384.942-260.35Z" transform="translate(-2368.932 265.861)"/><path class="c" d="M2387.115-250.075c0-1.4,1.322-2.345,3.066-2.647a1.114,1.114,0,0,1-.381-.9,1.414,1.414,0,0,1,.541-1.042,3.355,3.355,0,0,1-2.526-3.207,3.839,3.839,0,0,1,4.128-3.647,4.855,4.855,0,0,1,2.307.58l.521-.92a1.269,1.269,0,0,1,1.142-.763,1.086,1.086,0,0,1,1.023.841l-1.644,1.7a3.272,3.272,0,0,1,.841,2.145c0,2.025-1.722,3.507-4.168,3.507h-.361a.552.552,0,0,0-.1.341c0,.622.921.683,2.605,1.1,1.362.361,2.806,1.042,2.806,2.626,0,1.823-1.865,2.946-5.051,2.946C2388.618-247.409,2387.115-248.271,2387.115-250.075Zm7.877-.22c0-.763-.9-1.043-1.965-1.3l-1-.24c-1.644.1-3.008.681-3.008,1.7,0,.861.983,1.342,2.887,1.342C2393.849-248.793,2394.993-249.334,2394.993-250.3Zm-.783-7.618a2.131,2.131,0,0,0-2.284-2.184,2.1,2.1,0,0,0-2.225,2.184,2.127,2.127,0,0,0,2.265,2.186A2.11,2.11,0,0,0,2394.209-257.914Z" transform="translate(-2365.88 265.529)"/><path class="c" d="M2403.666-260.793v8.64a.957.957,0,0,1-.7.22,1.12,1.12,0,0,1-1.182-.9,2.653,2.653,0,0,1-.082-.622,3.738,3.738,0,0,1-3.207,1.684c-2.544,0-3.708-1.723-3.708-4.13v-4.891c0-.721.36-.962.863-.962h.219c.521,0,.883.222.883.962v4.651c0,1.664.842,2.647,2.306,2.647a2.893,2.893,0,0,0,2.644-1.7v-5.593c0-.721.362-.962.863-.962h.221C2403.305-261.755,2403.666-261.533,2403.666-260.793Z" transform="translate(-2362.573 265.903)"/><path class="c" d="M2408.691-260.57a.987.987,0,0,1-.6,1.022,1.868,1.868,0,0,0-1.223-.421c-1.563,0-2.184,1.524-2.184,3.748v3.388c0,.721-.382.942-.881.942h-.222c-.521,0-.881-.22-.881-.942v-8.659a.981.981,0,0,1,.721-.222,1.134,1.134,0,0,1,1.163.962,3.593,3.593,0,0,1,.079.723,2.442,2.442,0,0,1,2.445-1.823C2408.109-261.852,2408.691-261.371,2408.691-260.57Z" transform="translate(-2359.165 265.861)"/><path class="c" d="M2412.15-261.852a4.867,4.867,0,0,1,5.031,5.09,4.853,4.853,0,0,1-5.052,5.051,4.85,4.85,0,0,1-5.049-5.091A4.856,4.856,0,0,1,2412.15-261.852Zm-.022,1.623a3.237,3.237,0,0,0-3.225,3.427,3.273,3.273,0,0,0,3.225,3.469,3.236,3.236,0,0,0,3.208-3.429A3.235,3.235,0,0,0,2412.129-260.229Z" transform="translate(-2357.277 265.861)"/><path class="c" d="M2421.4-251.678l-4.651-11.725c-.08-.182.563-.663,1.222-.663a1.228,1.228,0,0,1,1.2.942l3.529,9.882,3.527-9.882a1.2,1.2,0,0,1,1.144-.942c.641,0,1.262.481,1.2.663l-4.631,11.725a1.144,1.144,0,0,1-1.282.781A1.128,1.128,0,0,1,2421.4-251.678Z" transform="translate(-2353.11 264.907)"/><path class="c" d="M2430.181-261.852a4.489,4.489,0,0,1,4.63,4.849v.16c0,.422-.14.581-.6.581h-7.115a2.253,2.253,0,0,0,.04.362,3.133,3.133,0,0,0,3.247,2.626,3.168,3.168,0,0,0,3.026-1.6c.041-.042,1.043.14,1.043.982a1.931,1.931,0,0,1-1.062,1.4,5.715,5.715,0,0,1-3.046.781,4.792,4.792,0,0,1-5.093-5.031A4.884,4.884,0,0,1,2430.181-261.852Zm-.02,1.5a3.073,3.073,0,0,0-3.046,2.746h5.772A2.646,2.646,0,0,0,2430.161-260.35Z" transform="translate(-2349.446 265.861)"/><path class="c" d="M2442.116-256.512v4.851c0,.721-.381.942-.883.942h-.22c-.52,0-.881-.22-.881-.942v-4.63c0-1.664-.842-2.646-2.225-2.646a2.58,2.58,0,0,0-2.7,2.826v4.45c0,.721-.382.942-.883.942h-.22c-.521,0-.881-.22-.881-.942V-264.35a.98.98,0,0,1,.721-.22c.6,0,1.263.32,1.263,1.7v3.949a3.621,3.621,0,0,1,3.186-1.763C2440.933-260.681,2442.116-258.918,2442.116-256.512Z" transform="translate(-2346.013 264.69)"/><path class="c" d="M2442.216-264.654a1.065,1.065,0,0,1,1.163,1.163,1.055,1.055,0,0,1-1.182,1.141,1.072,1.072,0,0,1-1.182-1.141A1.085,1.085,0,0,1,2442.216-264.654Zm-1.041,5.11c0-.721.381-.962.9-.962h.2c.521,0,.883.222.883.962v7.919c0,.721-.362.942-.883.942h-.2c-.521,0-.9-.22-.9-.942Z" transform="translate(-2342.653 264.654)"/><path class="c" d="M2448.9-261.852a4.814,4.814,0,0,1,3.146,1,2.391,2.391,0,0,1,.982,1.663c0,.821-1.122.983-1.182.881a2.858,2.858,0,0,0-2.906-1.883,3.191,3.191,0,0,0-3.167,3.387,3.2,3.2,0,0,0,3.167,3.429,2.876,2.876,0,0,0,2.906-1.885c.061-.1,1.182.04,1.182.9a2.361,2.361,0,0,1-1,1.644,4.761,4.761,0,0,1-3.126,1,4.874,4.874,0,0,1-5.011-5.091A4.875,4.875,0,0,1,2448.9-261.852Z" transform="translate(-2341.417 265.861)"/><path class="c" d="M2460.339-260.793v8.64a.964.964,0,0,1-.7.22,1.121,1.121,0,0,1-1.183-.9,2.753,2.753,0,0,1-.08-.622,3.745,3.745,0,0,1-3.207,1.684c-2.546,0-3.709-1.723-3.709-4.13v-4.891c0-.721.362-.962.863-.962h.22c.521,0,.882.222.882.962v4.651c0,1.664.841,2.647,2.3,2.647a2.9,2.9,0,0,0,2.646-1.7v-5.593c0-.721.361-.962.863-.962h.22C2459.977-261.755,2460.339-261.533,2460.339-260.793Z" transform="translate(-2338.153 265.903)"/><path class="c" d="M2459.424-251.662V-264.35a1.03,1.03,0,0,1,.721-.22c.621,0,1.263.32,1.263,1.7v11.206c0,.721-.36.942-.882.942h-.2C2459.8-250.72,2459.424-250.94,2459.424-251.662Z" transform="translate(-2334.72 264.69)"/><path class="c" d="M2468.671-257.764h.26v-.2a2.1,2.1,0,0,0-2.385-2.265,2.909,2.909,0,0,0-2.765,1.644c0,.02-1.224,0-1.224-.963a1.762,1.762,0,0,1,.661-1.2,5.122,5.122,0,0,1,3.469-1.1c2.725,0,4.208,1.4,4.208,3.848v5.913c0,.1-.361.22-.721.22a1.075,1.075,0,0,1-1.142-.881,2.908,2.908,0,0,1-.081-.663,4.164,4.164,0,0,1-3.467,1.664c-2.063,0-3.286-1.1-3.286-2.746C2462.2-256.721,2464.321-257.684,2468.671-257.764Zm.26,1.242-.541.02c-2.806.1-4.249.623-4.249,1.925,0,.861.681,1.4,1.823,1.4a2.7,2.7,0,0,0,2.966-2.6Z" transform="translate(-2333.526 265.861)"/><path class="c" d="M2475.9-260.57a.987.987,0,0,1-.6,1.022,1.868,1.868,0,0,0-1.223-.421c-1.564,0-2.184,1.524-2.184,3.748v3.388c0,.721-.382.942-.882.942h-.222c-.52,0-.881-.22-.881-.942v-8.659a.984.984,0,0,1,.721-.222,1.135,1.135,0,0,1,1.163.962,3.65,3.65,0,0,1,.079.723,2.441,2.441,0,0,1,2.445-1.823C2475.322-261.852,2475.9-261.371,2475.9-260.57Z" transform="translate(-2330.201 265.861)"/></g></g></g><g transform="translate(2331.827 -269.004)"><g class="d"><g transform="translate(-118.419 -12.449)"><g class="e"><g transform="translate(118.419 11.797)"><g class="f"><g transform="translate(0 0.651)"><g class="g"><g transform="translate(0 -0.422)"><g class="h"><g transform="translate(-4.626 -4.204)"><path class="c" d="M2328.594-235.636h36.024v-36.6h-36.024Z" transform="translate(-2328.594 272.238)"/></g></g></g></g></g></g></g></g></g></g></g><g transform="translate(2372.441 -269.004)"><g class="i"><g transform="translate(-296.972 -12.953)"><g class="e"><g transform="translate(292.346 8.327)"><path class="c" d="M2358.375-235.974h11.1v-36.081h-11.1Z" transform="translate(-2358.375 272.055)"/></g></g></g></g></g></g></svg>