<svg xmlns="http://www.w3.org/2000/svg" xmlns:xlink="http://www.w3.org/1999/xlink" width="87" height="90.551" viewBox="0 0 87 90.551"><defs><style>.a,.o,.p{fill:none;}.a{stroke:#707070;}.b{fill:#b7c5f4;}.c{clip-path:url(#a);}.d{fill:#fff;}.e{fill:#030643;}.f{fill:#ffcebf;}.g{fill:#0854c4;}.h{fill:#ffb09e;}.i{fill:#7a6d79;}.j{fill:#020761;}.k{fill:#efedef;}.l{fill:#e5e1e5;}.m{fill:#c9bfc8;}.n{fill:#2ed35a;}.o,.p{stroke:#020761;stroke-linecap:round;}.o{stroke-width:0.5px;}.q{fill:#685e68;}</style><clipPath id="a"><path class="a" d="M43.5,0C67.524,0,87,20.271,87,45.276S67.524,90.551,43.5,90.551,0,70.281,0,45.276,19.476,0,43.5,0Z"/></clipPath></defs><g transform="translate(-902.054 -4486.789)"><g transform="translate(902.054 4486.789)"><path class="b" d="M43.5,0C67.524,0,87,20.271,87,45.276S67.524,90.551,43.5,90.551,0,70.281,0,45.276,19.476,0,43.5,0Z" transform="translate(0 0)"/><g class="c" transform="translate(0 0)"><g transform="translate(4.533 21.555)"><g transform="translate(0 0)"><path class="d" d="M3.806,10.986a10.986,10.986,0,1,1,18.206,8.279.477.477,0,0,0,.07.77l2.07,1.225a.382.382,0,0,1-.195.711l-9.374,0A10.986,10.986,0,0,1,3.806,10.986Z" transform="translate(-3.806 0)"/></g><path class="e" d="M192.05,39.876H167.129a7.35,7.35,0,0,1-5.655-12.044l.221-.266a11.756,11.756,0,0,0,2.71-7.508V15.252a15.252,15.252,0,0,1,30.5,0V20.22a11.756,11.756,0,0,0,2.764,7.572A7.35,7.35,0,0,1,192.05,39.876Z" transform="translate(-138.522 0)"/><path class="d" d="M168.772,259.683v16.476H117.65V259.807a9.2,9.2,0,0,1,5.63-8.479l8.253-3.588,2.779-1.208a5.774,5.774,0,0,0,3.472-5.3V240.17h10.855v1.012a5.775,5.775,0,0,0,3.5,5.307l11.162,4.785A9.2,9.2,0,0,1,168.772,259.683Z" transform="translate(-102.143 -207.456)"/><path class="f" d="M216.147,251.671a39.533,39.533,0,0,0,23.358-.219l1.346-3.2-4.1-1.756a5.774,5.774,0,0,1-3.5-5.307v-1.011H222.4v1.066a5.774,5.774,0,0,1-3.472,5.3l-3.319,1.443Z" transform="translate(-186.759 -207.458)"/><path class="g" d="M399.463,298.83l-8.408-3.6h0v28.49h13.882V307.24A9.2,9.2,0,0,0,399.463,298.83Z" transform="translate(-338.306 -255.013)"/><path class="g" d="M131.533,295.75v28.419H117.65V307.817a9.2,9.2,0,0,1,5.63-8.479Z" transform="translate(-102.143 -255.466)"/><path class="h" d="M271.448,246.131a9.128,9.128,0,0,0,3.523-.7,5.774,5.774,0,0,1-1.859-4.243v-1.011H262.258v1.066a5.766,5.766,0,0,1-.506,2.361,9.126,9.126,0,0,0,6.317,2.531h3.378Z" transform="translate(-226.617 -207.459)"/><path class="f" d="M247.36,82.5v8.98a9.16,9.16,0,0,1-9.16,9.16h-3.378a9.16,9.16,0,0,1-9.16-9.16V82.5a5.959,5.959,0,0,1,5.959-5.959h9.78A5.959,5.959,0,0,1,247.36,82.5Z" transform="translate(-195.443 -66.119)"/><path class="i" d="M338.016,154.593c0,.012-.009.024-.013.037a9.665,9.665,0,0,1-3.3,4.923,9.228,9.228,0,0,1-3.315,1.62,1.037,1.037,0,1,0,.526,2.006,11.3,11.3,0,0,0,4.055-1.983,11.105,11.105,0,0,0,2.041-2.053c0-.08.006-.16.006-.241v-4.308Z" transform="translate(-286.1 -133.536)"/><path class="j" d="M321.1,21.748c.233-2.934,3.042-4.881,5.73-5.89a15.243,15.243,0,0,1,7.424,13.092V30c-.246.052-.49.1-.732.133a12.349,12.349,0,0,1-3.6,0C324.368,29.392,320.821,25.291,321.1,21.748Z" transform="translate(-277.87 -13.698)"/><path class="j" d="M209.08,0a15.184,15.184,0,0,1,9.175,3.068,27.2,27.2,0,0,1-9.683,9.842A26.99,26.99,0,0,1,198.3,16.433h-4.47V15.252A15.252,15.252,0,0,1,209.08,0Z" transform="translate(-167.945 0)"/><path class="k" d="M208.822,380.345H175.634L173.8,363.077a2.074,2.074,0,0,1,2.062-2.292h32.725a2.074,2.074,0,0,1,2.062,2.292Z" transform="translate(-150.638 -311.642)"/><path class="l" d="M402.973,360.785h-4.147a2.074,2.074,0,0,1,2.062,2.292l-1.831,17.268H403.2l1.831-17.268A2.074,2.074,0,0,0,402.973,360.785Z" transform="translate(-345.02 -311.642)"/><ellipse class="m" cx="2.903" cy="2.903" rx="2.903" ry="2.903" transform="translate(38.687 56.02)"/><g transform="translate(5.802 9.949)"><ellipse class="n" cx="1.037" cy="1.037" rx="1.037" ry="1.037"/><ellipse class="n" cx="1.037" cy="1.037" rx="1.037" ry="1.037" transform="translate(4.147)"/><ellipse class="n" cx="1.037" cy="1.037" rx="1.037" ry="1.037" transform="translate(8.294)"/></g><ellipse class="j" cx="0.976" cy="0.976" rx="0.976" ry="0.976" transform="translate(36.557 21.062) rotate(-137)"/><path class="j" d="M.011.829A.976.976,0,1,0,1.123.011.976.976,0,0,0,.011.829Z" transform="translate(43.913 18.588) rotate(-11)"/><path class="o" d="M.942,0c-2.346,2.62.432,2.882.432,2.882" transform="translate(38.541 21.157) rotate(-11)"/><path class="p" d="M2052.436,2455.058a7.244,7.244,0,0,0,3.445.976" transform="translate(-2013.987 -2427.635)"/><path class="q" d="M299.843,198.542h-2.43a2,2,0,1,1,0-4h2.43a2,2,0,1,1,0,4Z" transform="translate(-255.692 -168.039)"/></g></g></g></g></svg>