<svg xmlns="http://www.w3.org/2000/svg" width="49.555" height="49.555" viewBox="0 0 49.555 49.555"><defs><style>.a{fill:#f4f5f8;}.b{fill:#454a6c;}</style></defs><g transform="translate(0 0)"><path class="a" d="M24.778,0A24.778,24.778,0,1,1,0,24.778,24.778,24.778,0,0,1,24.778,0Z" transform="translate(0 0)"/><g transform="translate(11.597 10.657)"><g transform="translate(0 0)"><path class="b" d="M558.128,126.9a1.558,1.558,0,0,1-.485-.078,18.822,18.822,0,0,1-12.695-18.137v-5.559a3.011,3.011,0,0,1,2.219-2.953l10.96-4.051,10.96,4.051a3.011,3.011,0,0,1,2.22,2.953v5.559a18.822,18.822,0,0,1-12.695,18.137h0A1.561,1.561,0,0,1,558.128,126.9Zm-.13-1.965h0Zm.13-26.7-10.38,3.837-.059.014a1.046,1.046,0,0,0-.756,1.037v5.559a16.852,16.852,0,0,0,11.195,16.206,16.852,16.852,0,0,0,11.2-16.206v-5.559a1.046,1.046,0,0,0-.756-1.037l-.116-.035Z" transform="translate(-544.948 -96.123)"/></g><g transform="translate(6.931 9.524)"><path class="b" d="M580.5,148.721l-4.122-3.872,1.359-1.447,2.81,2.64,7.695-6.733,1.307,1.494Z" transform="translate(-576.377 -139.31)"/></g></g></g></svg>