<svg xmlns="http://www.w3.org/2000/svg" width="16.798" height="16.034" viewBox="0 0 16.798 16.034"><defs><style>.a{fill:#fff;}</style></defs><path class="a" d="M353.112,238.837l2.135,4.326a.592.592,0,0,0,.447.325l4.774.694a.594.594,0,0,1,.329,1.013l-3.455,3.367a.594.594,0,0,0-.171.526l.815,4.754a.594.594,0,0,1-.862.627l-4.27-2.245a.594.594,0,0,0-.553,0l-4.27,2.245a.594.594,0,0,1-.862-.627l.815-4.754a.6.6,0,0,0-.171-.526l-3.454-3.367a.594.594,0,0,1,.329-1.013l4.775-.694a.594.594,0,0,0,.447-.325l2.135-4.326A.594.594,0,0,1,353.112,238.837Z" transform="translate(-344.181 -238.505)"/></svg>