<svg xmlns="http://www.w3.org/2000/svg" width="87" height="87" viewBox="0 0 87 87"><defs><style>.a{fill:#b7c5f4;}.b{fill:#ff5550;}.c{fill:#ef2012;}.d{fill:#fff;}.e{fill:#ff8e8e;}.f{fill:#f8615d;}.g{fill:#454a6c;}.h{fill:#303557;}</style></defs><g transform="translate(-118 -4919)"><circle class="a" cx="43.5" cy="43.5" r="43.5" transform="translate(118 4919)"/><g transform="translate(131.297 4930.419)"><g transform="translate(17.699 19.472)"><path class="b" d="M152.9,116.327H135.465A3.861,3.861,0,0,1,131.632,112l2.843-23.216a5.581,5.581,0,0,1,5.539-4.9h8.333a5.581,5.581,0,0,1,5.539,4.9L156.729,112A3.861,3.861,0,0,1,152.9,116.327Z" transform="translate(-131.603 -83.879)"/></g><g transform="translate(30.041 19.471)"><path class="c" d="M172.315,88.78a5.581,5.581,0,0,0-5.539-4.9h-4.4v32.449h8.951A3.861,3.861,0,0,0,175.158,112Z" transform="translate(-162.374 -83.878)"/></g><g transform="translate(20.727 38.253)"><path class="d" d="M139.554,135.057a.342.342,0,0,1-.049,0,.4.4,0,0,1-.349-.446l.435-3.553a.4.4,0,0,1,.8.1l-.435,3.553A.4.4,0,0,1,139.554,135.057Z" transform="translate(-139.153 -130.703)"/></g><g transform="translate(22.206 26.245)"><circle class="e" cx="8.07" cy="8.07" r="8.07"/></g><g transform="translate(21.609 23.973)"><path class="d" d="M141.755,107.233a.407.407,0,0,1-.049,0,.4.4,0,0,1-.349-.447l1.387-11.331a.4.4,0,1,1,.8.1l-1.387,11.331A.4.4,0,0,1,141.755,107.233Z" transform="translate(-141.354 -95.1)"/></g><g transform="translate(30.041 26.245)"><path class="f" d="M162.374,100.779v16.115c.079,0,.156.012.235.012a8.07,8.07,0,0,0,0-16.139C162.53,100.767,162.453,100.777,162.374,100.779Z" transform="translate(-162.374 -100.767)"/></g><g transform="translate(13.734 47.019)"><path class="g" d="M153.831,161.177h-31.14a.972.972,0,0,1-.959-1.13l.7-4.249a3.866,3.866,0,0,1,3.815-3.24h24.035a3.866,3.866,0,0,1,3.815,3.24l.7,4.249A.972.972,0,0,1,153.831,161.177Z" transform="translate(-121.718 -152.558)"/></g><g transform="translate(30.041 47.019)"><path class="h" d="M178.442,155.8a3.866,3.866,0,0,0-3.815-3.24H162.374v8.619h15.805a.972.972,0,0,0,.959-1.13Z" transform="translate(-162.374 -152.558)"/></g><g transform="translate(0 0)"><g transform="translate(29.216)"><path class="b" d="M161.379,35.333a1.06,1.06,0,0,0-1.06,1.06v11.78a1.06,1.06,0,1,0,2.12,0V36.393A1.06,1.06,0,0,0,161.379,35.333Z" transform="translate(-160.319 -35.333)"/></g><g transform="translate(46.651 29.216)"><path class="b" d="M216.627,108.173H204.846a1.06,1.06,0,1,0,0,2.12h11.781a1.06,1.06,0,1,0,0-2.12Z" transform="translate(-203.786 -108.173)"/></g><g transform="translate(0 29.216)"><path class="b" d="M100.319,108.173H88.538a1.06,1.06,0,0,0,0,2.12h11.781a1.06,1.06,0,1,0,0-2.12Z" transform="translate(-87.478 -108.173)"/></g><g transform="translate(41.544 8.178)"><path class="b" d="M201.573,56.034a1.06,1.06,0,0,0-1.5,0l-8.709,8.709a1.06,1.06,0,0,0,1.5,1.5l8.709-8.709A1.059,1.059,0,0,0,201.573,56.034Z" transform="translate(-191.054 -55.723)"/></g><g transform="translate(8.179 8.178)"><path class="b" d="M109.679,56.034a1.06,1.06,0,0,0-1.5,1.5l8.708,8.709a1.06,1.06,0,1,0,1.5-1.5Z" transform="translate(-107.869 -55.723)"/></g></g></g></g></svg>