<svg xmlns="http://www.w3.org/2000/svg" xmlns:xlink="http://www.w3.org/1999/xlink" width="614" height="279" viewBox="0 0 614 279"><defs><style>.a,.i{fill:#fff;}.a{stroke:#707070;}.b{clip-path:url(#a);}.c{fill:#0083d5;}.d{fill:#c2e3fc;}.e{fill:#0855c4;}.f{fill:#05284e;}.g{fill:#ffaf97;}.h{fill:#d54f1f;}.j{fill:#19467c;}.k{fill:#00b4ff;}.l{fill:none;}.m{fill:#00a9ff;}.n{fill:#f29c61;}.o{fill:#031f59;}.p{fill:#fdfffc;}.q{fill:#0c3556;}.r{fill:#d3892f;}.s{fill:#ffc764;}.t{fill:#1361b9;}.u{fill:#919191;}.v{fill:#c6f0ff;}.w{fill:#d8923d;}.x{fill:#e88872;}.y{fill:#ff733b;}.z{fill:#fcc068;}.aa{opacity:0.46;}.ab{fill:#264d91;}.ac{opacity:0.29;}.ad{fill:#16377b;}.ae{fill:#ffc43a;}.af{fill:#ea0f90;}.ag{fill:#dd4b24;}.ah{fill:#9d0f63;}.ai{fill:#cc8333;}.aj{fill:#d5edff;}</style><clipPath id="a"><rect class="a" width="614" height="279" transform="translate(659.495 218)"/></clipPath></defs><g class="b" transform="translate(-659.495 -218)"><g transform="translate(542.022 89.263)"><rect class="c" width="531.925" height="82.57" transform="translate(191.726 314.132)"/><g transform="translate(342.996 205.598)"><g transform="translate(0)"><path class="d" d="M75.058,229.116s112.9-96.443,204.4-74.237l41.829-3.321,73.92,11.266,40.417,55.7-51.092,55.433S66.61,252.734,75.058,229.116Z" transform="translate(-74.892 -151.558)"/></g></g><g transform="translate(404.337 247.639)"><path class="e" d="M123.744,180.825a4.81,4.81,0,0,0-4.322-1.328c-4.306,1.318-5.048,11.933-1.656,23.7s9.628,20.241,13.935,18.922a4.705,4.705,0,0,0,2.745-3.063,54.629,54.629,0,0,1-8.307-17.841C123.836,193.245,123.062,185.791,123.744,180.825Z" transform="translate(-115.637 -179.409)"/></g><g transform="translate(412.201 249.056)"><path class="f" d="M130.714,197.942c-2.358-8.2-6.1-14.795-9.611-17.595a32.454,32.454,0,0,0-.176,6.021,50.422,50.422,0,0,1,5.331,12.44,49.825,49.825,0,0,1,2.117,14.366,35.3,35.3,0,0,0,3.425,5.406C133.457,214.352,133.168,206.454,130.714,197.942Z" transform="translate(-120.861 -180.347)"/></g><g transform="translate(401.682 241.981)"><path class="g" d="M161.21,199.39l-25.387-14.653-10.471-9.077-10.9,6.266v1.962l-.574,3.65a26.9,26.9,0,0,1,1.29,5.2s3.241,1.256,2.008-5.2l1.147-2.492,3.011-1.152,3.162,1.152.431,1.627s-3.162,5.474,1.867,5.474c0,0,2.294,3.979,7.172,1.621l19.794,24.281S162.931,215.078,161.21,199.39Z" transform="translate(-113.874 -175.66)"/></g><g transform="translate(414.549 254.714)"><g transform="translate(0)"><path class="h" d="M122.537,188l-.117-.3c.753-.317,1.183-.743,1.277-1.266.185-1.008-.9-2.1-.917-2.1l.215-.236a3.218,3.218,0,0,1,1.01,2.4A2.152,2.152,0,0,1,122.537,188Z" transform="translate(-122.42 -184.095)"/></g></g><g transform="translate(402 243.43)"><path class="h" d="M114.386,184.11l-.3-.071.545-2.533.071-.033,10.263-4.853,2.047,1.811-.2.246-1.9-1.674-10.01,4.734Z" transform="translate(-114.085 -176.62)"/></g><g transform="translate(421.782 259.676)"><path class="h" d="M136.675,193.216l-5.131-4.038a7.857,7.857,0,0,0-1.986-1.265,2.48,2.48,0,0,0-2.172.1l-.161-.276a2.749,2.749,0,0,1,2.442-.119,8.115,8.115,0,0,1,2.063,1.309l5.129,4.038Z" transform="translate(-127.225 -187.383)"/></g><g transform="translate(397.628 239.425)"><path class="i" d="M133,174.562,112.766,186.4a23.631,23.631,0,0,1-1.585-2.415,7.561,7.561,0,0,1,3.341-3.5c1.879-.755,7.564-4.041,8.661-4.418s6.993-1.938,7.2-2.1A11.694,11.694,0,0,1,133,174.562Z" transform="translate(-111.181 -173.967)"/></g><g transform="translate(441.557 247.593)"><path class="e" d="M186.618,179.378a38.926,38.926,0,0,0-19.734,10.062,23.154,23.154,0,0,1-2.291,2.023l-8.6,6.624-2.678-.195a1.294,1.294,0,0,0-1.795-.371,1.274,1.274,0,0,0-.256.22,2.177,2.177,0,0,0-3.019-.619,2.318,2.318,0,0,0-.426.37s2.489,12.656-7.458,18.65h25.484s14.4-5.633,14.754-6.295c.253-.474,4.217-5.6,6.447-8.484a7.256,7.256,0,0,0,1.506-4.45V189.8Z" transform="translate(-140.36 -179.378)"/></g><g transform="translate(449.657 265.931)"><g transform="translate(0)"><path class="j" d="M145.991,205.193,145.74,205c4.023-5.6,2.665-13.338,2.653-13.415l.3-.06C148.716,191.6,150.091,199.48,145.991,205.193Z" transform="translate(-145.74 -191.526)"/></g></g><g transform="translate(404.335 275.839)"><path class="i" d="M119.064,199.538l55.66-1.448-9.236,11.1-22.071,3.2-18.379,1.78-9.4-3Z" transform="translate(-115.636 -198.09)"/></g><g transform="translate(147.341 203.395)"><path class="i" d="M658.973,284.509c-5.942-5.469-15.614-19.45-14.987-26.963s5.926-36.819-12.194-42.3-47.145-12.561-85.231-29.313A406.155,406.155,0,0,0,379.8,150.178c-74.308-.317-115.527-.962-166.428,26.1s-68.378,39.3-89.306,43.486c0,0-69.938,6.449-98.351,15.142S-38.3,255.523-44.23,267.765s-10.3,23.2-10.63,33.511c-.3,10.307-.251,25.319,0,26.735.419,2.281.331,11.6,8.13,18.682,7.829,7.095,22.792,8.378,22.792,8.378s25.6,3.226,30.921,3.547c0,0-4.678-9.661-1.558-29.641s8.732-32.538,22.15-43.491c13.443-10.947,28.416-17.714,52.795-12.873,24.354,4.83,34.012,17.4,40.278,27.378,8.265,13.21,14.048,45.42,12.5,57.021l323.173-1.62s0-30.6,9.072-45.739c9.045-15.142,23.1-33.5,49.957-35.11s46.839,9.013,57.441,24.8,13.429,35.756,11.246,52.181c0,0,33.41-2.257,50.585-9.338s25.3-17.4,26.857-24.164,3.437-28.027-2.493-33.511ZM324.867,216.863s-84.326,6.763-89.308,6.763c-5.01,0-76.2,1.937-76.2,1.937,36.236-30.926,86.5-54.448,105.227-61.21,18.757-6.764,75.59-7.084,75.59-7.084Zm29.333-.328,8.431-59.265c39.994-.023,64.345,3.864,64.345,3.864,8.767.666,27.889,6.761,27.889,6.761l22.68,47.034Z" transform="translate(55.068 -150.098)"/></g><g transform="translate(147.12 203.154)"><path class="k" d="M7.457,358.957l-.4-.024c-5.269-.317-30.679-3.514-30.936-3.547-.142-.014-15.13-1.374-22.92-8.435-6.809-6.189-7.678-14.153-8.042-17.554-.057-.543-.105-.968-.16-1.268-.259-1.463-.3-16.662,0-26.785.352-10.908,5.328-22.6,10.654-33.6,5.78-11.934,38.672-23.372,70.084-32.983,28.111-8.6,97.7-15.1,98.4-15.153,15.341-3.07,28.663-10.4,55.2-25,9.644-5.3,20.573-11.321,34.015-18.461,50.1-26.636,90.139-26.456,162.842-26.142l3.7.015a405.59,405.59,0,0,1,166.85,35.776,549.254,549.254,0,0,0,74.522,26.184c3.842,1.1,7.466,2.145,10.689,3.119,16.551,5.006,13.815,29.389,12.646,39.8-.122,1.087-.227,2.027-.288,2.752-.626,7.513,9.3,21.586,14.9,26.761,5.932,5.484,4.217,26.631,2.559,33.744-1.546,6.723-9.546,17.13-27,24.327-17.012,7.016-50.317,9.332-50.651,9.359l-.286.018.039-.293c2.456-18.483-1.733-37.925-11.205-52.009-11.544-17.192-32.4-26.2-57.236-24.7-26.534,1.59-40.537,19.538-49.77,35-8.934,14.907-9.033,45.308-9.033,45.615v.242H456.4l-323.437,1.621.038-.278c1.5-11.17-4.095-43.485-12.461-56.855-7.189-11.454-17.027-22.691-40.121-27.273-26.045-5.17-40.671,3.114-52.605,12.831C15.024,296.2,9.046,307.944,5.744,329.1c-3.07,19.65,1.489,29.4,1.536,29.5ZM354.511,150.422c-59.387,0-96.155,2.338-140.948,26.152-13.44,7.145-24.369,13.155-34.011,18.46-26.581,14.621-39.923,21.959-55.359,25.048-.721.069-70.263,6.551-98.329,15.137-31.313,9.582-64.1,20.966-69.8,32.734-5.3,10.959-10.255,22.59-10.609,33.406-.318,10.763-.238,25.36,0,26.682.059.316.1.755.166,1.3.363,3.345,1.2,11.171,7.884,17.243,7.677,6.954,22.507,8.3,22.659,8.317.259.033,24.54,3.087,30.53,3.52-.8-1.975-4.179-11.737-1.418-29.41C8.556,308,14.789,295.766,27.516,285.37c12.02-9.788,26.757-18.129,52.984-12.924,23.267,4.616,33.181,15.937,40.427,27.485,8.349,13.338,13.95,45.422,12.565,56.909l322.663-1.612c.029-2.918.528-31.314,9.105-45.627,9.295-15.557,23.394-33.62,50.144-35.226,24.991-1.51,46.008,7.573,57.649,24.907,9.485,14.107,13.712,33.548,11.324,52.056,3.312-.245,34.121-2.661,50.219-9.3,17.283-7.131,25.193-17.384,26.715-24,1.638-7.034,3.371-27.926-2.416-33.27-5.463-5.025-15.731-19.171-15.065-27.171.062-.732.167-1.674.291-2.765,1.155-10.29,3.859-34.388-12.312-39.279-3.217-.972-6.842-2.014-10.689-3.117a548.856,548.856,0,0,1-74.575-26.205c-72.124-31.7-129.662-35.578-166.669-35.738l-3.7-.017c-7.559-.032-14.77-.063-21.679-.063Z" transform="translate(55.215 -149.939)"/></g><g transform="translate(361.098 210.324)"><path class="k" d="M86.916,223.486l.524-.453c38.52-32.873,90.223-55.807,105.3-61.252,18.581-6.7,75.1-7.093,75.666-7.093h.3l-.078.3L253.27,214.747l-.166.015c-.843.065-84.392,6.763-89.327,6.763S88.3,223.442,87.584,223.46ZM268.1,155.179c-4.539.041-57.411.651-75.207,7.068-14.986,5.41-66.219,28.13-104.632,60.718,7.321-.2,70.829-1.919,75.525-1.919,4.818,0,84.91-6.409,89.125-6.749Z" transform="translate(-86.916 -154.688)"/></g><g transform="translate(556.341 210.325)"><path class="k" d="M216.6,214.445l.039-.281,8.461-59.475h.557c39.352,0,63.782,3.828,64.026,3.867,8.675.658,27.731,6.708,27.921,6.769l.1.032.047.094L340.6,212.83h-.373Zm8.907-59.268-8.362,58.776,122.7-1.6-22.47-46.6c-1.48-.468-19.421-6.089-27.74-6.72-.262-.042-24.666-3.863-63.973-3.863Z" transform="translate(-216.603 -154.689)"/></g><g transform="translate(219.954 331.506)"><g transform="translate(0)"><ellipse class="i" cx="49.934" cy="51.523" rx="49.934" ry="51.523" transform="translate(0.752 0.754)"/><path class="l" d="M43.851,339.521c-27.95,0-50.687-23.452-50.687-52.276S15.9,234.967,43.851,234.967s50.687,23.45,50.687,52.278S71.8,339.521,43.851,339.521Zm0-103.045c-27.12,0-49.182,22.774-49.182,50.768s22.062,50.767,49.182,50.767,49.182-22.773,49.182-50.767S70.97,236.477,43.851,236.477Z" transform="translate(6.836 -234.967)"/></g></g><path class="i" d="M49.934,0C77.512,0,99.869,23.068,99.869,51.523s-22.356,51.523-49.934,51.523A49.167,49.167,0,0,1,14.35,87.668,52.06,52.06,0,0,1,0,51.523C0,23.068,22.356,0,49.934,0Z" transform="translate(671.239 332.261)"/><g transform="translate(333.971 210.577)"><g transform="translate(196.651)"><path class="k" d="M201.6,339.874c-4.125-47.582-1.355-78.8,1.7-96.6,3.1-18.019,6.943-26.2,7.74-27.762,3.633-36.271,8.828-57.842,9.065-58.811l-.026-1.845h.47l.026,1.91-.008.032c-.053.208-5.363,21.888-9.065,58.819l-.027.089c-.741,1.44-4.6,9.546-7.714,27.661-3.046,17.778-5.817,48.949-1.7,96.477Z" transform="translate(-199.52 -154.856)"/></g><g transform="translate(0 57.519)"><path class="k" d="M68.9,325.581v-1.452h.232c.366,0,6.484-.119,15.8-.3-.437-4.519-5.078-53.962-2.394-84.731,2.629-30.385,7.574-32.7,13.3-35.377.5-.229.967-.454,1.466-.709l.211.433c-.5.26-.983.488-1.483.72-5.591,2.616-10.421,4.876-13.027,34.979-2.751,31.534,2.207,82.738,2.421,84.9l.026.261h-.254c-8.627.161-14.564.275-15.824.3v.482c8.536-.151,228.964-4.228,258.687-5.474,30.712-1.291,43.617-12.378,49.135-17.115,5.247-4.5,37.549-53.288,43.97-63.021l.108-.163c.086-.122.393-.507.875-1.116,10.6-13.347,16.07-21.637,16.259-24.643.256-4.378-8.762-15.488-11.725-19.144-.6-.738-.867-1.069-.942-1.188l.393-.264c.062.1.437.56.9,1.141,2.993,3.689,12.1,14.916,11.833,19.485-.2,3.108-5.7,11.492-16.366,24.918-.471.595-.777.978-.855,1.088l-.1.151c-6.427,9.742-38.762,58.57-44.046,63.11-5.563,4.775-18.561,15.939-49.427,17.237-30.17,1.274-256.785,5.443-258.937,5.481Z" transform="translate(-68.898 -192.96)"/></g></g><g transform="translate(526.975 210.327)"><path class="k" d="M197.1,214.77l15.431-60.079h22.909l-.039.278-8.459,59.475h-.2Zm15.793-59.594-15.181,59.1,28.824-.322,8.363-58.784Z" transform="translate(-197.097 -154.691)"/></g><g transform="translate(498.408 297.632)"><path class="k" d="M190.262,229.433h-3.734a8.453,8.453,0,0,1,0-16.907h3.734a8.453,8.453,0,0,1,0,16.907ZM186.529,213a7.976,7.976,0,0,0,0,15.945h3.734a7.976,7.976,0,0,0,0-15.945Z" transform="translate(-178.122 -212.526)"/></g><g transform="translate(644.743 297.632)"><path class="m" d="M287.463,229.433H283.73a8.453,8.453,0,0,1,0-16.907h3.734a8.453,8.453,0,0,1,0,16.907ZM283.73,213a7.976,7.976,0,0,0,0,15.945h3.734a7.976,7.976,0,0,0,0-15.945Z" transform="translate(-275.323 -212.526)"/></g><g transform="translate(670.246 227.711)"><path class="l" d="M292.263,166.207l19.844,35.824,37.07,1.078S340.3,188.838,292.263,166.207Z" transform="translate(-292.263 -166.207)"/></g><g transform="translate(492.44 303.348)"><path class="k" d="M174.655,216.313s-2.505,5.474,3.732,5.794c6.261.322,26.854,0,26.854,0s5.623-4.509,5.929-5.794Z" transform="translate(-174.158 -216.313)"/></g><g transform="translate(638.748 303.348)"><path class="k" d="M271.827,216.313s-2.478,5.474,3.756,5.8,26.858,0,26.858,0,5.622-4.513,5.927-5.8Z" transform="translate(-271.341 -216.313)"/></g><g transform="translate(665.982 223.559)"><path class="k" d="M314.325,208.367l-.068-.121L289.43,163.456l.664.312c29.693,13.989,46.636,25.256,55.622,32.243,9.759,7.59,12.441,11.8,12.551,11.98l.232.374Zm-23.761-43.846L314.6,207.883h43.014c-.878-1.2-4.134-5.235-12.229-11.521-8.905-6.918-25.622-18.033-54.824-31.84Z" transform="translate(-289.43 -163.456)"/></g><g transform="translate(656.824 220.798)"><path class="k" d="M317.937,209.3h-11.6l-22.987-47.672,9.878,3.09.047.083Zm-11.309-.485h10.5L292.91,165.126l-8.655-2.708Z" transform="translate(-283.347 -161.627)"/></g><g transform="translate(202.111 280.652)"><g transform="translate(0)"><path class="k" d="M-18.647,234.279l-.041-.483c146.59-15.054,347.92-32.518,492.87-32.518,7.029,0,13.9.041,20.654.125,87.326,1.09,109.081,9.057,109.29,9.14l.151.059v4.076l-.285-.065c-51.27-11.641-217.83-5.676-348.523,1.381C113.842,223.635-17.338,234.174-18.647,234.279Zm492.829-32.517c-138.266,0-327.842,15.894-472.256,30.424,42.485-3.258,144.933-10.819,253.514-16.682,130.489-7.045,296.723-13,348.372-1.437v-3.126c-2.07-.709-25.6-8.023-109.133-9.057-6.69-.086-13.533-.122-20.488-.122Z" transform="translate(18.688 -201.278)"/></g></g><g transform="translate(325.902 215.468)"><g transform="translate(0)"><path class="k" d="M79.722,220.6a9.8,9.8,0,0,1-1.588-.125,43.207,43.207,0,0,1-14.054-4.586l-.542-.325.614-.124c15.356-3.073,28.677-10.4,55.2-24.987,9.65-5.309,20.588-11.321,34.045-18.477a211.2,211.2,0,0,1,29.809-13.158l2.063-.722-1.867,1.158c-5.01,3.114-11.743,7.095-19.538,11.7-16.362,9.661-36.734,21.7-54.65,33.706-1.617,1.082-3.392,2.35-5.269,3.692-7.69,5.5-17.131,12.244-24.222,12.244Zm-14.834-4.814A44.946,44.946,0,0,0,78.2,220c7.032,1.129,17.255-6.171,25.472-12.041,1.882-1.345,3.66-2.613,5.283-3.7,17.935-12.016,38.3-24.05,54.672-33.72,6.824-4.032,12.836-7.582,17.584-10.493a212.4,212.4,0,0,0-27.6,12.366c-13.459,7.151-24.389,13.166-34.038,18.474C93.387,205.291,80.055,212.62,64.894,215.79Z" transform="translate(-63.538 -158.096)"/></g></g><g transform="translate(479.828 239.437)"><path class="g" d="M173.519,189.467l.711,11.789-8.449,10.274L169.966,213s22.676-7.97,24.017-29.457l-.524-9.57Z" transform="translate(-165.781 -173.975)"/></g><g transform="translate(492.134 244.495)"><g transform="translate(0)"><path class="e" d="M189.648,177.486a5.569,5.569,0,0,1,6.733,4.1,5.651,5.651,0,0,1,.155,1.558l12.646,7.581s27.822,5.618,12.405,25.419l-25.508-3.751-17.163-1.627-4.962-4.627S190.583,195.208,189.648,177.486Z" transform="translate(-173.955 -177.325)"/></g></g><g transform="translate(480 214.607)"><g transform="translate(0)"><path class="g" d="M192.485,183.789v-.074a3.79,3.79,0,0,0,.626.1,5.269,5.269,0,0,0,.437-10.389,3.693,3.693,0,0,0-.632.047l-.556-14.541-24.442-1.407-.5,8.438v.284l-1.506,25.138c-.257,4.276,2.647,9.893,6.775,10.416a15.29,15.29,0,0,0,1.9.329" transform="translate(-165.895 -157.526)"/></g></g><g transform="translate(491.017 231.125)"><path class="j" d="M173.629,169.921l-.416-.151a1.739,1.739,0,0,1,3.366,0l-.416.142a1.334,1.334,0,0,0-1.322-.986A1.367,1.367,0,0,0,173.629,169.921Z" transform="translate(-173.213 -168.468)"/></g><g transform="translate(481.884 230.791)"><path class="j" d="M167.562,169.662l-.416-.151a1.762,1.762,0,0,1,1.572-1.263,1.721,1.721,0,0,1,1.712,1.263l-.416.142a1.267,1.267,0,0,0-2.449,0Z" transform="translate(-167.146 -168.246)"/></g><g transform="translate(491.525 237.988)"><path class="n" d="M173.554,174.971c.095-1.233,1.835-2.1,3.893-1.937s3.649,1.3,3.556,2.533-1.835,2.1-3.893,1.937S173.458,176.206,173.554,174.971Z" transform="translate(-173.55 -173.015)"/></g><g transform="translate(480.447 235.949)"><g transform="translate(0)"><path class="n" d="M168.884,174.072a3.034,3.034,0,0,1-2.692,2.465l.309-4.873A2.621,2.621,0,0,1,168.884,174.072Z" transform="translate(-166.192 -171.664)"/></g></g><g transform="translate(491.633 227.865)"><g transform="translate(0)"><path class="j" d="M173.622,166.941l.12-.632,3.473.685-.119.634Z" transform="translate(-173.622 -166.309)"/></g></g><g transform="translate(481.735 227.662)"><g transform="translate(0)"><path class="j" d="M167.047,166.717l2.889-.543.116.636-2.889.543Z" transform="translate(-167.047 -166.174)"/></g></g><g transform="translate(481.206 242.783)"><g transform="translate(0)"><path class="o" d="M166.7,179.875c.181-2.335,3.616-3.967,7.681-3.642s7.229,2.485,7.053,4.82-3.616,3.967-7.686,3.642S166.523,182.211,166.7,179.875Z" transform="translate(-166.696 -176.192)"/></g></g><g transform="translate(485.56 244.656)"><g transform="translate(0)"><path class="p" d="M169.588,177.643s2.4-.1,5.951-.211C175.539,177.432,172.549,182.6,169.588,177.643Z" transform="translate(-169.588 -177.432)"/></g></g><g transform="translate(483.784 232.489)"><g transform="translate(0)"><path class="h" d="M172.73,179.383c-2.54-.543-3.974-1.481-4.267-2.787-.465-2.091,2.156-4.346,2.571-4.68l.349-2.545.309.045-.364,2.673-.051.041c-.03.023-2.958,2.38-2.508,4.4.262,1.171,1.615,2.027,4.027,2.542Z" transform="translate(-168.408 -169.372)"/></g></g><g transform="translate(502.788 220.661)"><path class="o" d="M181.8,163.071a5.583,5.583,0,0,1-.185,3.964,9.535,9.535,0,0,0-.516,1.179,7.914,7.914,0,0,0,.321,3.472,7.8,7.8,0,0,1-.069,2.96,7.182,7.182,0,0,0-.3,1.769,1.485,1.485,0,0,0,.893,1.411,1.941,1.941,0,0,1,1.593-1.636,14.5,14.5,0,0,1,3.725,1.045c1.638-1.488.587-5.105,1.929-7.466.462-.811,1.42-1.467,1.781-2.332.652-1.562-.491-3.261-1.554-4.562-.553-.67-1.241-1.4-2.093-1.334a3.087,3.087,0,0,0-1.287.566,10.4,10.4,0,0,1-4.273,1.448" transform="translate(-181.032 -161.536)"/></g><g transform="translate(477.423 213.564)"><g transform="translate(0)"><path class="q" d="M168.757,158.349l-.7,12.236a27.2,27.2,0,0,0-3.521-5.07c-1.17-.889.982-5.941.982-5.941l2.994-2.19.753-.548Z" transform="translate(-164.183 -156.835)"/></g></g><g transform="translate(506.494 230.506)"><g transform="translate(0)"><path class="g" d="M187.206,169.171a3.841,3.841,0,0,0-3.241-1.075l-.471,6.249,1.67,1.55.884-.672,1.147-2.089Z" transform="translate(-183.493 -168.058)"/></g></g><g transform="translate(507.97 231.687)"><g transform="translate(0)"><path class="h" d="M186.315,174.653l-.275-.151a3.521,3.521,0,0,0-.751-4.913,3.474,3.474,0,0,0-.814-.445l.116-.3a4.224,4.224,0,0,1,2.224,2.3A4.337,4.337,0,0,1,186.315,174.653Z" transform="translate(-184.474 -168.841)"/></g></g><g transform="translate(501.342 225.232)"><path class="j" d="M182.867,165.133s-1.554-.317-2.8,2.877a4.551,4.551,0,0,1,2.517-3.446Z" transform="translate(-180.071 -164.564)"/></g><g transform="translate(505.659 295.347)"><path class="r" d="M182.965,211.087c-.011.053-.015.11-.026.165a2.039,2.039,0,0,0,.36-.238Z" transform="translate(-182.939 -211.013)"/></g><g transform="translate(482.445 263.373)"><g transform="translate(0)"><ellipse class="j" cx="0.696" cy="0.717" rx="0.696" ry="0.717"/></g></g><g transform="translate(516.012 251.09)"><path class="e" d="M189.815,181.7l20.3,8.126-2.35,2-7.8-1.372-6.94-1.372Z" transform="translate(-189.815 -181.695)"/></g><g transform="translate(499.364 244.481)"><path class="k" d="M178.757,199.657s6.022-4.257,10.237.346c0,0,7.315-13.631,4.5-20.113,0,0-1.557-3.363-6.269-2.4C187.222,177.493,188.517,188.228,178.757,199.657Z" transform="translate(-178.757 -177.316)"/></g><g transform="translate(508.033 263.337)"><ellipse class="i" cx="0.73" cy="0.753" rx="0.73" ry="0.753"/></g><g transform="translate(477.574 256.156)"><path class="k" d="M173.017,198.015s-.363-6.068-8.733-3.143l10.067-9.822.637,10.567Z" transform="translate(-164.284 -185.05)"/></g><g transform="translate(487.585 257.718)"><g transform="translate(0.157 0.011)"><path class="s" d="M171.037,186.092s.7,10.543.795,12.742" transform="translate(-171.037 -186.092)"/></g><path class="r" d="M171.728,198.845c-.093-2.168-.786-12.632-.795-12.737l.313-.023c.008.1.7,10.567.8,12.745Z" transform="translate(-170.933 -186.085)"/></g><g transform="translate(480.003 229.708)"><g transform="translate(0)"><path class="o" d="M189.359,167.53l-.546,7.188a13.678,13.678,0,0,1-10.2,9.718c-4.86,1.039-10.847,1.217-12.386-3.335l-.3,4.938c-.429,5.434,3.764,11.675,8.94,11.509h2.678a14.3,14.3,0,0,0,12.365-7.006,11.457,11.457,0,0,0,1.656-5.227l1.277-16.952Z" transform="translate(-165.897 -167.53)"/></g></g><g transform="translate(481.396 262.897)"><g transform="translate(0)"><ellipse class="i" cx="0.73" cy="0.753" rx="0.73" ry="0.753"/></g></g><g transform="translate(488.066 229.507)"><g transform="translate(0)"><path class="i" d="M176.4,174.563h-.164a5.48,5.48,0,0,1-4.968-5.887,6.184,6.184,0,0,1,.12-1.013l.053-.267,10.058.35.035.27a6.226,6.226,0,0,1,.053,1.019A5.476,5.476,0,0,1,176.4,174.563Zm-4.45-6.506a4.988,4.988,0,0,0-.06.637,4.748,4.748,0,0,0,2.014,4.444,4.434,4.434,0,0,0,4.751.166,4.729,4.729,0,0,0,2.3-4.293,5.391,5.391,0,0,0-.017-.643Z" transform="translate(-171.253 -167.396)"/></g></g><g transform="translate(476.553 229.106)"><g transform="translate(0)"><path class="i" d="M168.754,174.3h-.164a5.48,5.48,0,0,1-4.968-5.887,6.232,6.232,0,0,1,.119-1.014l.051-.267,10.06.352.035.272a6.515,6.515,0,0,1,.053,1.014A5.475,5.475,0,0,1,168.754,174.3Zm-4.452-6.5a5.28,5.28,0,0,0-.06.637,4.843,4.843,0,0,0,4.366,5.22h.151a4.84,4.84,0,0,0,4.556-4.906,5.676,5.676,0,0,0-.018-.64Z" transform="translate(-163.605 -167.131)"/></g></g><g transform="translate(498.03 229.843)"><g transform="translate(0)"><path class="i" d="M177.871,168.267l0-.648,9.274.074,0,.648Z" transform="translate(-177.871 -167.619)"/></g></g><g transform="translate(486.422 229.427)"><path class="i" d="M170.161,167.992l.024-.649,2.067.08-.024.649Z" transform="translate(-170.161 -167.343)"/></g><g transform="translate(556.016 210.336)"><g transform="translate(85.702 35.216)"><path class="m" d="M301.9,187.827l-13.948-3.033s-4.706-4.8-14.639-6.769c0,0,1.325,12.324.792,13.38s1.222,3.5,1.222,3.5l13.578,1.116Z" transform="translate(-273.313 -178.026)"/></g><g transform="translate(98.869 41.893)"><path class="t" d="M282.3,188.661l-.244-.2c2.836-3.649,1.364-5.794,1.355-5.815l.25-.195C283.726,182.544,285.3,184.8,282.3,188.661Z" transform="translate(-282.059 -182.449)"/></g><g transform="translate(85.199 37.486)"><path class="t" d="M287.322,187.364c-2.21-5.083-14.225-7.495-14.343-7.517l.059-.317a45.457,45.457,0,0,1,6.4,1.855c4.462,1.674,7.211,3.642,8.172,5.848Z" transform="translate(-272.979 -179.53)"/></g><g transform="translate(85.068 39.144)"><path class="t" d="M287.235,188.462c-2.21-5.083-14.227-7.495-14.343-7.519l.057-.316a45.623,45.623,0,0,1,6.4,1.855c4.462,1.676,7.211,3.642,8.172,5.849Z" transform="translate(-272.892 -180.628)"/></g><g transform="translate(8.105 30.513)"><path class="m" d="M270.358,174.91l-13.2,4.492a16.394,16.394,0,0,0-7.565,5.36l-27.823,4.844,14.73,8.037,19.4,1.839,6.543-1.159,13.665-4.4v-2.376Z" transform="translate(-221.771 -174.91)"/></g><g transform="translate(35.21 39.944)"><path class="t" d="M247.452,187.664c-.667-2.9-1.82-4.808-3.428-5.676a4.336,4.336,0,0,0-2.824-.432c1.191.365,3.5,1.642,3.5,6.068h-.313c0-5.615-3.732-5.88-3.892-5.887l-.715-.039.665-.273a4.638,4.638,0,0,1,3.723.273c1.694.906,2.9,2.891,3.592,5.887Z" transform="translate(-239.775 -181.158)"/></g><g transform="translate(39.334 34.397)"><path class="t" d="M242.814,183.748l-.3-.1c1.326-4.453,13.641-6.1,14.165-6.169l.038.32c-.129.017-12.646,1.689-13.908,5.945Z" transform="translate(-242.514 -177.483)"/></g><g transform="translate(40.648 35.544)"><path class="t" d="M243.688,184.508l-.3-.094c1.328-4.453,13.641-6.1,14.165-6.171l.039.322c-.125.015-12.636,1.689-13.9,5.943Z" transform="translate(-243.387 -178.243)"/></g><g transform="translate(47.712 60.561)"><path class="u" d="M249.083,198.037s.718.628,1-1.926l-1.435-1.3h-.574Z" transform="translate(-248.079 -194.816)"/></g><g transform="translate(47.711 53.211)"><path class="g" d="M248.078,199a21.42,21.42,0,0,0,14.618,2.817s6.136-.956,9.4-1.17l6.668.085s1.975-1.706-.437-2.278l4.986.5s.863.1.67-1.188h2.014s1.343-2.077-7.576-3.759l-7.287-4.056H258.668l1.343,1.359A34.981,34.981,0,0,1,251,189.947Z" transform="translate(-248.078 -189.947)"/></g><g transform="translate(41.452 51.554)"><path class="v" d="M247.658,188.849l6.474,1.484s-3.523,3.446-2.948,10.745l-7.263-.338,1.009-8.883Z" transform="translate(-243.921 -188.849)"/></g><g transform="translate(0 44.658)"><g transform="translate(0.277 0.132)"><path class="m" d="M263.428,189.935s-5.322,7.548-2.732,13.981H226.03s-10.433.222-9.385-11.216c0,0,.181-9.77,15.141-8.151Z" transform="translate(-216.571 -184.368)"/></g><path class="t" d="M226.1,204.092a9.332,9.332,0,0,1-9.485-11.358,8.409,8.409,0,0,1,2.74-5.528c2.666-2.435,6.882-3.354,12.538-2.743l31.85,5.424-.119.169c-.053.074-5.25,7.567-2.717,13.857l.071.18H226.1Zm2.582-19.554a13.2,13.2,0,0,0-9.156,2.858,8.139,8.139,0,0,0-2.66,5.354,9.058,9.058,0,0,0,9.26,11.08H260.6c-2.213-5.849,1.947-12.609,2.7-13.759l-31.445-5.354a29.477,29.477,0,0,0-3.183-.18Z" transform="translate(-216.387 -184.281)"/></g><g transform="translate(70.677 55.824)"><path class="w" d="M263.6,192.936l-.263-.175c.884-1.419,4.611-1.042,4.768-1.026l-.032.322c-.033,0-3.688-.371-4.474.882Z" transform="translate(-263.333 -191.678)"/></g><g transform="translate(0.208 51.783)"><path class="t" d="M260.705,193.7c-.105-.018-10.653-1.887-21.3-3.17-17.714-2.144-22.065-1.1-22.594.151l-.288-.13c1.965-4.622,42.508,2.534,44.233,2.838Z" transform="translate(-216.525 -189.001)"/></g><g transform="translate(0.411 50.076)"><path class="t" d="M261.038,192.832c-.105-.021-10.7-1.962-21.4-3.321-17.793-2.264-22.164-1.248-22.692,0l-.288-.13c1.965-4.625,42.7,2.814,44.433,3.134Z" transform="translate(-216.66 -187.87)"/></g><g transform="translate(11.394 44.909)"><path class="t" d="M225.37,203.817c-4.163-11.836,2.177-19.3,2.242-19.37l.232.216c-.063.072-6.275,7.4-2.178,19.044Z" transform="translate(-223.955 -184.447)"/></g><g transform="translate(7.457 44.679)"><path class="t" d="M222.781,204.011c-4.236-12.046,2.215-19.639,2.281-19.716l.233.216c-.065.072-6.386,7.533-2.219,19.39Z" transform="translate(-221.34 -184.295)"/></g><g transform="translate(44.049 61.814)"><path class="v" d="M250.257,196.675s-.056,1.116.3,1l-4.685-.195-.227-1a6.672,6.672,0,0,1,.742-.628c.072,0,1.888-.2,1.888-.2l.824.074Z" transform="translate(-245.646 -195.646)"/></g><g transform="translate(46.856 26.93)"><path class="o" d="M251.42,172.818c-.753,1.057-.382,2.566-.768,3.819-.238.776-.762,1.43-1.036,2.193-.661,1.837.212,3.953-.328,5.828-.26.906-.831,1.691-1.054,2.605a26.245,26.245,0,0,0,.047,4.227c-.131,1.673-1.1,3.321-.653,4.935a48.151,48.151,0,0,0,7.308-.534,2.024,2.024,0,0,0,.668-.184,2.141,2.141,0,0,0,.629-.629l.948-1.263a2.873,2.873,0,0,0,.617-1.171c.16-.918-.562-1.715-1.119-2.451a17.556,17.556,0,0,1-2.582-6.571,8.529,8.529,0,0,1-.361-2.986c.062-.53.223-1.042.3-1.57a9.333,9.333,0,0,0-.406-3.434c-.318-1.282-.836-2.778-2.079-3.093" transform="translate(-247.51 -172.537)"/></g><g transform="translate(62.433 32.268)"><path class="x" d="M272.319,178.4l-11.409,6.745a62.258,62.258,0,0,0-3.038,7.315,4.2,4.2,0,0,0,.848,2.9c.766.82,15.693.8,15.693.8l5.161-2.305s.256-4.388.269-5.264-.519-6.914-.519-6.914l-1.305-2.852-4.517-2.755Z" transform="translate(-257.857 -176.073)"/></g><g transform="translate(45.936 46.411)"><path class="g" d="M246.93,186.926s-1.277-2.2,12.53-1.241l1.1,2.941-11.592-1.7Z" transform="translate(-246.899 -185.442)"/></g><g transform="translate(79.702 37.202)"><ellipse class="y" cx="1.006" cy="1.037" rx="1.006" ry="1.037"/></g><g transform="translate(50.254 19.54)"><path class="g" d="M253.541,167.641s-5.737,9.909-3.064,20.235a10.182,10.182,0,0,0,10.638,8.1,17.186,17.186,0,0,0,13.974-8.246l2.484-12.9Z" transform="translate(-249.767 -167.641)"/></g><g transform="translate(76.702 29.034)"><path class="z" d="M267.719,177.439c.884-2.506,3.009-4.008,4.744-3.357s2.431,3.212,1.548,5.718-3.008,4.008-4.745,3.356S266.835,179.945,267.719,177.439Z" transform="translate(-267.335 -173.931)"/></g><g transform="translate(80.451 30.217)"><g transform="translate(0.011 0.057)"><path class="s" d="M269.832,174.752s3.613.771,1.46,4.912" transform="translate(-269.832 -174.752)"/></g><path class="r" d="M271.346,179.709l-.1-.056a3.877,3.877,0,0,0,.465-3.359,2.939,2.939,0,0,0-1.888-1.469l.024-.112a3.055,3.055,0,0,1,1.965,1.531A3.989,3.989,0,0,1,271.346,179.709Z" transform="translate(-269.825 -174.714)"/></g><g class="aa" transform="translate(79.739 30.263)"><path class="r" d="M272.3,177.491a2.573,2.573,0,0,0-.589-1.878,2.422,2.422,0,0,0-1.718-.868l-.643,5.406s.616-3.887,2.121-3.345a.917.917,0,0,1,.581,1l.151-.234.021-.169c.023.032.045.059.069.089Z" transform="translate(-269.352 -174.745)"/></g><g transform="translate(63.836 29.673)"><path class="ab" d="M258.827,175.737a1.386,1.386,0,0,1,1.35-1.383,1.408,1.408,0,0,1,.986,1.679,1.384,1.384,0,0,1-1.35,1.383A1.41,1.41,0,0,1,258.827,175.737Z" transform="translate(-258.789 -174.354)"/></g><g transform="translate(53.192 27.564)"><path class="ab" d="M251.757,174.34a1.386,1.386,0,0,1,1.35-1.383,1.409,1.409,0,0,1,.986,1.679,1.384,1.384,0,0,1-1.35,1.383A1.41,1.41,0,0,1,251.757,174.34Z" transform="translate(-251.719 -172.957)"/></g><g class="ac" transform="translate(63.777 35.688)"><path class="h" d="M258.771,179.882c.2-1.129,1.769-1.784,3.511-1.461s2.994,1.5,2.8,2.633-1.769,1.786-3.511,1.463S258.569,181.013,258.771,179.882Z" transform="translate(-258.75 -178.338)"/></g><g class="ac" transform="translate(50.254 30.897)"><path class="h" d="M251.852,177.961c.2-1.155-.4-2.177-1.91-2.8a25.766,25.766,0,0,0-.125,4.584,2.5,2.5,0,0,0,2.035-1.79Z" transform="translate(-249.767 -175.165)"/></g><g transform="translate(54.869 37.323)"><path class="ad" d="M255.124,181.015a2.424,2.424,0,0,1-.652-.089,2.76,2.76,0,0,1-1.64-1.437l.143-.066a2.639,2.639,0,0,0,1.542,1.348,3.416,3.416,0,0,0,2.868-.791l.089.131A4.187,4.187,0,0,1,255.124,181.015Z" transform="translate(-252.833 -179.422)"/></g><g transform="translate(56.983 15.695)"><path class="ab" d="M255.145,165.918a8.076,8.076,0,0,0,2.841,3.12,19.952,19.952,0,0,0,5.5,2.756c1.572.5,3.207.8,4.733,1.44a12,12,0,0,1,4.684,3.513c.589.723,1.093,1.51,1.656,2.264a12.118,12.118,0,0,0,7.466,4.948,15.533,15.533,0,0,0,0-3.606,8.276,8.276,0,0,0-2.328-5.836,26.3,26.3,0,0,0-2.86-3.277,17.077,17.077,0,0,0-6.609-3.59,50.157,50.157,0,0,0-7.377-1.484L256,165.145c-.638-.1-1.438-.116-1.76.462" transform="translate(-254.237 -165.094)"/></g><g transform="translate(72.146 24.007)"><path class="o" d="M267.194,171.087a2.92,2.92,0,0,1,.267,3.572,5.713,5.713,0,0,0-1.01,3.635,19.214,19.214,0,0,0,1.045,2.128c1.1,2.806-2.184,5.6-1.757,8.545a18.552,18.552,0,0,0,.513,1.863,8.083,8.083,0,0,1-.915,5.627c-.637,1.242-1.48,2.688-.736,3.9.786,1.28,2.735,1.351,4.233,1.905.631.235,1.2.577,1.855.783a4.912,4.912,0,0,0,5.871-2.768c.89-2.444-.477-5.36.878-7.617a18.156,18.156,0,0,0,1.287-1.879c.738-1.667-.432-3.671.277-5.348a22.916,22.916,0,0,0,1.229-2.144c.393-1.319-.565-2.673-.6-4.044-.035-1.106.532-2.211.235-3.289a4.622,4.622,0,0,0-2.069-2.3,18.445,18.445,0,0,0-5.081-2.58,9.671,9.671,0,0,0-5.712-.082" transform="translate(-264.309 -170.601)"/></g><g transform="translate(52.046)"><path class="ae" d="M250.958,171.673a66.165,66.165,0,0,0,8.106-13.37A6.065,6.065,0,0,1,265,154.709c6.067.453,16.977,2.6,23.139,11.961a6.153,6.153,0,0,1,.815,4.729c-.923,4.086-3.178,12.227-1.364,17.434,0,0-32.349-17.483-36.627-17.16Z" transform="translate(-250.958 -154.697)"/></g><g transform="translate(38.038 14.09)"><path class="af" d="M291.386,186.879a80.965,80.965,0,0,0-34.012-16.905l-2.7,6.1s-16.5-7.923-12.356-11.344a3.073,3.073,0,0,1,1.685-.649c2.626-.238,12.145-.107,32.955,9.812,0,0,22.825,10.846,29.027,17.058C305.987,190.957,306.919,192.729,291.386,186.879Z" transform="translate(-241.653 -164.03)"/></g><g transform="translate(57.253 23.999)"><g transform="translate(0.31 0.32)"><path class="e" d="M254.735,175.659c.565-3.132,3.094-5.274,5.647-4.782s4.169,3.425,3.6,6.559-3.092,5.271-5.647,4.782S254.172,178.791,254.735,175.659Z" transform="translate(-254.622 -170.806)"/></g><path class="e" d="M259.181,182.718a4.392,4.392,0,0,1-.8-.077,4.657,4.657,0,0,1-3.186-2.447,7.036,7.036,0,0,1,1.519-8.429,4.537,4.537,0,0,1,3.825-1.1c2.719.522,4.449,3.632,3.853,6.935a6.7,6.7,0,0,1-2.186,3.941A4.679,4.679,0,0,1,259.181,182.718Zm.569-11.483a4.07,4.07,0,0,0-2.636,1.03,6.378,6.378,0,0,0-1.376,7.613,3.9,3.9,0,0,0,2.755,2.13,3.808,3.808,0,0,0,3.312-.966,6.061,6.061,0,0,0,1.957-3.561c.531-2.954-.973-5.726-3.353-6.189a3.588,3.588,0,0,0-.659-.056Z" transform="translate(-254.416 -170.595)"/></g><g transform="translate(64.613 24.624)"><path class="e" d="M259.3,171.009l4.544,1.617-.236,1.941a2.489,2.489,0,0,0-1.9,2.079S262.51,172.6,259.3,171.009Z" transform="translate(-259.305 -171.009)"/></g><g transform="translate(68.92 26.225)"><path class="e" d="M262.387,172.07l-.221,1.962,5.6,1.52c.208-.539.3-.574.491-1.057Z" transform="translate(-262.166 -172.07)"/></g><g transform="translate(56.17 25.507)"><path class="e" d="M253.7,171.678a2.471,2.471,0,0,1,2.788,1.168l-.653,1.15a1.825,1.825,0,0,0-2.047-1.1Z" transform="translate(-253.697 -171.594)"/></g><g transform="translate(40.77 47.006)"><path class="g" d="M278.128,195.32l-3.613.906a11.177,11.177,0,0,1-5.531-.036l-23.356-6.135a1.044,1.044,0,0,1-.765-1.014v-.6l-1.394-.267.117-.235a2.186,2.186,0,0,1,1.846-1.263l15.206-.835,8.395,1.509,8.083-.3Z" transform="translate(-243.468 -185.836)"/></g><g transform="translate(73.064 46.657)"><path class="v" d="M270.843,185.6h-5.251s-2.085,8.088,1.081,10.834h4.17Z" transform="translate(-264.918 -185.605)"/></g><g transform="translate(42.092 48.841)"><path class="h" d="M254.517,188.195l-7.208-.9c-.023,0-2.043-.285-2.653.22a.4.4,0,0,0-.16.291l-.151-.014a.569.569,0,0,1,.22-.408c.662-.549,2.687-.267,2.773-.252l7.205.9Z" transform="translate(-244.346 -187.052)"/></g><g transform="translate(76.233 43.573)"><g transform="translate(0.129 0.131)"><path class="m" d="M269.233,183.649s-3.883,11.039-1.15,14.306l37.019,6.278a8.214,8.214,0,0,0,6.727-1.84,8.766,8.766,0,0,0,3.068-6.443q.014-.686-.024-1.442c-.038-.756.589-5.1-5.418-8.188a13.992,13.992,0,0,0-5.923-1.481Z" transform="translate(-267.109 -183.649)"/></g><path class="t" d="M306.527,204.52a8.489,8.489,0,0,1-1.4-.119l-37.065-6.284-.03-.035c-1.161-1.387-1.322-4.242-.477-8.487a48.876,48.876,0,0,1,1.6-5.946l.03-.088,34.392,1.193a14.024,14.024,0,0,1,5.974,1.5,9.8,9.8,0,0,1,5.024,5.323,7.14,7.14,0,0,1,.464,3c.024.474.033.963.024,1.429a8.733,8.733,0,0,1-3.023,6.462A8.464,8.464,0,0,1,306.527,204.52Zm-38.333-6.642,36.975,6.269a8.178,8.178,0,0,0,6.718-1.888,8.468,8.468,0,0,0,2.933-6.268c.008-.462,0-.943-.024-1.433a7.04,7.04,0,0,0-.452-2.909,9.554,9.554,0,0,0-4.9-5.17,13.76,13.76,0,0,0-5.871-1.467l-34.209-1.188c-.36,1.046-3.643,10.992-1.171,14.055Z" transform="translate(-267.023 -183.562)"/></g><g transform="translate(76.887 49.729)"><path class="t" d="M314.583,195.277c-1.888-4.492-7.829-4.82-7.889-4.83l-39.236-2.483.018-.323,39.235,2.483a12.263,12.263,0,0,1,3.324.731,7.97,7.97,0,0,1,4.834,4.287Z" transform="translate(-267.458 -187.64)"/></g><g transform="translate(77.163 48.29)"><path class="t" d="M314.6,194.313c-1.88-4.492-7.8-4.82-7.857-4.821l-39.1-2.482.018-.323,39.095,2.482a12.155,12.155,0,0,1,3.311.731,7.941,7.941,0,0,1,4.818,4.287Z" transform="translate(-267.641 -186.687)"/></g><g transform="translate(106.246 44.56)"><path class="t" d="M287.248,202.493l-.289-.125c4.215-10.407,2.57-15.732,1.219-17.981l.266-.171C291.667,189.576,289.077,197.965,287.248,202.493Z" transform="translate(-286.959 -184.216)"/></g><g transform="translate(42.079 49.03)"><path class="h" d="M245.48,188.3h-.1a1.45,1.45,0,0,1-.807-.195.54.54,0,0,1-.215-.266.353.353,0,0,1,.066-.364l.11.113a.2.2,0,0,0-.03.2.407.407,0,0,0,.151.187,1.838,1.838,0,0,0,1.23.107.484.484,0,0,0,.312-.328.354.354,0,0,0-.062-.263.322.322,0,0,0-.22-.151l.023-.16a.518.518,0,0,1,.408.6.635.635,0,0,1-.406.453A1.334,1.334,0,0,1,245.48,188.3Z" transform="translate(-244.337 -187.177)"/></g><g transform="translate(37.803 13.875)"><path class="ag" d="M305.422,191.544c-1.834,0-6.553-1.428-14.081-4.257l.163-.453c11.356,4.278,13.753,4.332,14.245,4.227-6.323-6.13-28.588-16.756-28.811-16.86-20.889-9.963-30.411-10.013-32.836-9.794a2.815,2.815,0,0,0-1.558.6,1.374,1.374,0,0,0-.569,1.282c.423,3.632,12.749,9.593,12.875,9.661l-.2.439c-.516-.249-12.688-6.138-13.142-10.035a1.854,1.854,0,0,1,.742-1.716,3.281,3.281,0,0,1,1.807-.7c2.454-.22,12.083-.175,33.074,9.832.227.109,22.932,10.938,29.091,17.1l.047.066a.392.392,0,0,1-.065.414,1.069,1.069,0,0,1-.79.21Z" transform="translate(-241.497 -163.888)"/></g><g transform="translate(50.494 21.674)"><path class="e" d="M252.054,169.093a.857.857,0,0,0-.721.1.909.909,0,0,0-.4.625l-1,4.085s1.024-4.544,3.831-4.172Z" transform="translate(-249.927 -169.055)"/></g><g transform="translate(49.978 21.971)"><g transform="translate(0.316 0.315)"><path class="e" d="M249.949,173.925c.521-2.761,2.2-4.743,3.752-4.432s2.383,2.8,1.858,5.561-2.2,4.744-3.746,4.432S249.428,176.684,249.949,173.925Z" transform="translate(-249.794 -169.461)"/></g><path class="e" d="M252.244,179.949a2,2,0,0,1-.536-.077c-1.709-.489-2.549-3.187-1.91-6.138a6.391,6.391,0,0,1,2.446-4.107,2.164,2.164,0,0,1,1.773-.3c1.709.491,2.549,3.188,1.914,6.139a6.407,6.407,0,0,1-2.446,4.107A2.37,2.37,0,0,1,252.244,179.949Zm1.233-10.058a1.741,1.741,0,0,0-.915.29,5.855,5.855,0,0,0-2.16,3.694c-.547,2.535.126,4.99,1.468,5.372a1.568,1.568,0,0,0,1.286-.237,5.851,5.851,0,0,0,2.162-3.694c.545-2.534-.128-4.992-1.468-5.372a1.319,1.319,0,0,0-.369-.053Z" transform="translate(-249.584 -169.252)"/></g><g transform="translate(52.737 27.998)"><g transform="translate(0.129 0.059)"><path class="g" d="M252.842,180.323l-1.2-2.041a1.037,1.037,0,0,1-.06-.9.986.986,0,0,1,.655-.593,7.955,7.955,0,0,0,3.393-3.51" transform="translate(-251.503 -173.283)"/></g><path class="h" d="M252.78,180.411l-1.2-2.041a1.1,1.1,0,0,1-.1-.925,1.244,1.244,0,0,1,.762-.755,7.9,7.9,0,0,0,3.326-3.446l.223.118a7.974,7.974,0,0,1-3.464,3.573,1,1,0,0,0-.61.6.841.841,0,0,0,.08.709l1.2,2.041Z" transform="translate(-251.417 -173.244)"/></g><g transform="translate(52.351 19.778)"><path class="ag" d="M252.131,168.8s-1.644-1.182-.652-.977l1.09.228-.358.811Z" transform="translate(-251.161 -167.799)"/></g><g transform="translate(104.448 44.563)"><path class="t" d="M286.054,202.494l-.289-.125c4.2-10.4,2.526-15.729,1.147-17.978l.266-.172C290.461,189.583,287.879,197.965,286.054,202.494Z" transform="translate(-285.765 -184.218)"/></g><g transform="translate(69.08 60.818)"><path class="h" d="M271.558,198.162V198c.3,0,.552-.442.635-.626a1.322,1.322,0,0,0-.224-1.093,1.108,1.108,0,0,0-.814-.316l-8.882-.82.014-.16,8.869.818a1.217,1.217,0,0,1,.924.364,1.481,1.481,0,0,1,.265,1.238v.023c-.011.032-.325.731-.781.731Z" transform="translate(-262.272 -194.986)"/></g><g transform="translate(72.81 58.508)"><path class="h" d="M275.076,197.245,275,197.1a1.308,1.308,0,0,0,.584-.792,1.125,1.125,0,0,0-.352-.906l-.017-.027c-.015-.014-.682-.71-10.465-1.763l.015-.16c9.324,1.007,10.445,1.689,10.579,1.843a1.277,1.277,0,0,1,.393,1.046,1.434,1.434,0,0,1-.664.906Z" transform="translate(-264.75 -193.456)"/></g><g transform="translate(56.825 10.317)"><path class="af" d="M284.039,174.733a3.113,3.113,0,0,1-1.344-.3,7.658,7.658,0,0,1-2.409-2.242l-.06-.074A6.334,6.334,0,0,0,277.791,170a6.58,6.58,0,0,0-2.315-.3,5.526,5.526,0,0,1-2.817-.525,5.914,5.914,0,0,1-1.566-1.568,4.953,4.953,0,0,0-1.635-1.567,5.007,5.007,0,0,0-2.751-.174,3.521,3.521,0,0,1-4.268-1.555,3.608,3.608,0,0,0-4.389-1.519l-.233.023a3.789,3.789,0,0,1-3.685-1.091l.251-.193c.583.811,1.7,1.122,3.405.963l.233-.023a3.887,3.887,0,0,1,4.667,1.641,3.234,3.234,0,0,0,3.988,1.433,3.946,3.946,0,0,1,4.667,1.86,5.672,5.672,0,0,0,1.474,1.488,5.251,5.251,0,0,0,2.666.482,6.786,6.786,0,0,1,2.421.319,6.575,6.575,0,0,1,2.559,2.208l.06.074a7.426,7.426,0,0,0,2.3,2.157,2.288,2.288,0,0,0,2.808-.462l.251.192a2.215,2.215,0,0,1-1.852.87Z" transform="translate(-254.132 -161.531)"/></g><g transform="translate(59.449 27.773)"><path class="i" d="M255.875,176.71l4.562-3.615.292.38-4.562,3.617Z" transform="translate(-255.875 -173.095)"/></g><g transform="translate(61.639 30.216)"><path class="i" d="M257.241,176.263l2.221-1.808.3.377-2.221,1.807Z" transform="translate(-257.241 -174.455)"/></g><g transform="translate(51.794 25.831)"><path class="i" d="M250.79,173.622l2.227-1.813.3.377L251.087,174Z" transform="translate(-250.79 -171.809)"/></g><g transform="translate(52.001 27.801)"><path class="i" d="M251.217,174.728l-.289-.38,1.519-1.233.291.382Z" transform="translate(-250.928 -173.114)"/></g></g><g transform="translate(476.407 204.955)"><g transform="translate(0)"><path class="o" d="M192.061,171.251a19.2,19.2,0,0,1-9.716.833c-4.313-.965-7.8-4.115-11.133-7.1a6.473,6.473,0,0,0-1.784-1.265,2.148,2.148,0,0,0-2.081.151,2.733,2.733,0,0,0-.875,1.437,7.256,7.256,0,0,0,1.986,7.14c-.056.983-.1,1.6-.151,2.534a12.142,12.142,0,0,1-2.038-1.739,10.418,10.418,0,0,1-2.559-4.95,13.78,13.78,0,0,1,1.272-8.547,32.516,32.516,0,0,1,4.938-7.152,4.835,4.835,0,0,1,1.284-1.173,3.355,3.355,0,0,1,3.414.417,14.515,14.515,0,0,1,2.559,2.61,6.475,6.475,0,0,0,2.886,2.154,6.887,6.887,0,0,0,1.834.2q1.843.027,3.684-.054a10.71,10.71,0,0,1,2.358.057,6.8,6.8,0,0,1,3.818,2.415,21.176,21.176,0,0,1,2.461,3.953l1.683,3.206a.87.87,0,0,1,.206.693.854.854,0,0,1-.39.605l-4.163,3.923" transform="translate(-163.508 -151.132)"/></g></g><g transform="translate(478.002 214.372)"><g transform="translate(0)"><path class="o" d="M174.7,165.248s-8.733-6.468-9-2.014c0,0-1.225-1.023-1.131-1.27a19.678,19.678,0,0,1,1.959-3.538,8.44,8.44,0,0,0,1.2-1.057s3.9.112,4.224.229,2.139.709,2.139.709l1.012.394a8.733,8.733,0,0,1,2.047,1.156c.151.323,1.554,3.576,1.554,3.576Z" transform="translate(-164.567 -157.37)"/></g></g><g transform="translate(482.063 204.469)"><path class="o" d="M194.7,167.139a11.11,11.11,0,0,0-3.8-8.906c-3.351-2.636-8.05-2.4-11.893-4.212-1.505-.709-2.871-1.739-4.382-2.451a6.038,6.038,0,0,0-4.828-.454,4.381,4.381,0,0,0-2.472,4.716,6.513,6.513,0,0,0,1.719,3.073,24.369,24.369,0,0,0,8.786,5.481c5.083,2.18,10.566,4.157,15.988,3.185" transform="translate(-167.265 -150.81)"/></g><g transform="translate(519.145 257.88)"><path class="e" d="M218.844,201.3c0,8.34-7.92,17.963-16.925,17.269-11.571-.888-9.945-11.415-9.945-19.754s1.49-12.618,10.52-12.618S218.844,192.957,218.844,201.3Z" transform="translate(-191.896 -186.193)"/></g><g transform="translate(523.88 262.225)"><path class="j" d="M215.029,202.193a11.915,11.915,0,0,0-3.9-9.187c-5.739-4.951-15.934-3.378-16.038-3.363l-.048-.322c.1-.015,10.436-1.611,16.285,3.436a12.221,12.221,0,0,1,4.014,9.427Z" transform="translate(-195.042 -189.071)"/></g><g transform="translate(449.228 262.758)"><path class="g" d="M215.26,191.865l-45.729,13.051-8.184-7.768a19.858,19.858,0,0,1-9.715-7.344.848.848,0,0,0-1.04-.312c-1.521.669-4.667,2.883,1.168,8.431l3.613,3.264-8.673,4.689a2.236,2.236,0,0,0-1.144,1.568,2.937,2.937,0,0,0,1.236,3.223s-2.409,4.817,2.258,5.132c0,0-1.959,4.507,1.957,4.974,0,0-1.957,4.195,3.011,4.35,0,0,9.635-1.088,10.087-1.4s10.952-5.434,10.952-5.434l54.707-5.132s9.334-1.088,8.431-10.718c0,0,0-9.478-8.732-9.013C229.467,193.418,217.92,196.215,215.26,191.865Z" transform="translate(-145.456 -189.424)"/></g><g transform="translate(383.061 274.876)"><path class="e" d="M107.256,197.452l-5.623,9.342s-2.144,7.095,11.106,8.05l6.707-17.393Z" transform="translate(-101.505 -197.452)"/></g><g transform="translate(380.185 258.415)"><path class="af" d="M122.831,186.568s-18.784,1.811-22.042,7.288.393,15.7,7.979,17.645,17.479-1.811,18.367-9.549c.92-7.732-.584-15.87-4.315-15.384Z" transform="translate(-99.595 -186.547)"/></g><g transform="translate(380.223 266.978)"><path class="ah" d="M127.163,198.98c-2.227,6.354-11.023,9.309-17.9,7.54-6.236-1.6-9.8-8.757-9.072-14.3-2.063,5.655,1.56,14.532,8.571,16.329,7.573,1.946,17.506-1.81,18.4-9.551Z" transform="translate(-99.62 -192.22)"/></g><g transform="translate(632.538 271.957)"><path class="ai" d="M267.517,195.523a.487.487,0,0,0-.3.474.614.614,0,0,0,.289.53c.521.331,1.114-.032,1.644-.131.08-.015.063-.142-.015-.128-.462.088-.955.388-1.43.213a.51.51,0,0,1-.358-.421.377.377,0,0,1,.211-.417c.075-.029.029-.151-.047-.119Z" transform="translate(-267.216 -195.518)"/></g><g transform="translate(637.525 270.214)"><path class="ai" d="M270.814,194.384a.948.948,0,0,0-.286.645.549.549,0,0,0,.342.438,1.882,1.882,0,0,0,.694.136,3.165,3.165,0,0,0,.808-.069c.078-.017.063-.151-.017-.128a2.638,2.638,0,0,1-1.323-.015.513.513,0,0,1-.37-.3c-.066-.231.114-.453.248-.619a.065.065,0,0,0-.009-.091.063.063,0,0,0-.089.009h0Z" transform="translate(-270.528 -194.363)"/></g><g transform="translate(639.038 269.525)"><path class="ai" d="M271.68,193.923a.425.425,0,0,0-.126.453.6.6,0,0,0,.393.406,2.509,2.509,0,0,0,.72.091l.863.047c.08,0,.1-.124.017-.128l-.7-.038c-.212-.011-.428-.014-.64-.044a.644.644,0,0,1-.474-.243.341.341,0,0,1,.027-.445c.063-.051-.011-.151-.075-.1Z" transform="translate(-271.533 -193.906)"/></g><g transform="translate(450.509 283.161)"><g transform="translate(0.054 0.154)"><path class="s" d="M146.342,203.729l1.9-.687" transform="translate(-146.342 -203.042)"/></g><path class="r" d="M146.306,203.628l1.9-.688.107.3-1.9.688Z" transform="translate(-146.306 -202.94)"/></g><g transform="translate(452.648 288.391)"><g transform="translate(0.054 0.154)"><path class="s" d="M147.763,207.194l1.9-.687" transform="translate(-147.763 -206.507)"/></g><g transform="translate(0)"><path class="r" d="M147.727,207.093l1.9-.688.107.3-1.9.688Z" transform="translate(-147.727 -206.405)"/></g></g><g transform="translate(454.59 293.088)"><g transform="translate(0.054 0.154)"><path class="s" d="M149.053,210.3l1.9-.687" transform="translate(-149.053 -209.618)"/></g><g transform="translate(0)"><path class="r" d="M149.017,210.2l1.9-.688.107.3-1.9.688Z" transform="translate(-149.017 -209.516)"/></g></g><g transform="translate(473.213 278.117)"><g transform="translate(0.092 0.133)"><path class="s" d="M161.448,199.687a4.52,4.52,0,0,1,1.391,3.431" transform="translate(-161.448 -199.687)"/></g><path class="r" d="M162.713,203.167a4.425,4.425,0,0,0-1.326-3.307l.182-.261a4.645,4.645,0,0,1,1.457,3.555Z" transform="translate(-161.387 -199.599)"/></g><g transform="translate(129.277 0)"><path class="l" d="M-67.067,15.357H568.565V368.48H-67.067Z" transform="translate(67.067 -15.357)"/></g><rect class="l" width="827.508" height="408.249" transform="translate(0 187.925)"/><circle class="aj" cx="29.986" cy="29.986" r="29.986" transform="translate(240.399 353.244)"/><circle class="aj" cx="29.986" cy="29.986" r="29.986" transform="translate(690.623 353.244)"/></g></g></svg>