<svg xmlns="http://www.w3.org/2000/svg" width="31" height="31" viewBox="0 0 31 31"><defs><style>.a,.d{fill:#fff;}.b{fill:#00aded;}.c{fill:#001f5e;}.d{stroke:#00aded;stroke-width:0.2px;}</style></defs><g transform="translate(-1000 -735)"><circle class="a" cx="15.5" cy="15.5" r="15.5" transform="translate(1000 735)"/><g transform="translate(1009.724 741.823)"><g transform="translate(0 0)"><path class="b" d="M272.592,167.009,267.754,155.3a1.043,1.043,0,0,0-.629-.589l-6.073-2.059a1.043,1.043,0,0,0-1.269.525l-2.847,5.746a1.043,1.043,0,0,0-.029.861l4.839,11.707a1.043,1.043,0,0,0,1.362.565l4.46-1.844,4.46-1.843A1.043,1.043,0,0,0,272.592,167.009Zm-10.3-9.564a1.223,1.223,0,1,1,.663-1.6A1.223,1.223,0,0,1,262.289,157.445Z" transform="translate(-256.826 -152.597)"/></g></g><g transform="translate(1008.412 740.426)"><path class="c" d="M242.25,138.054l.342-.69c-1.456-.748-2.53-1.671-2.675-2.3a.425.425,0,0,1,.476-.536c1.168.058,3.506,2.258,4.53,3.951a.385.385,0,0,0,.659-.4c-1.033-1.709-3.554-4.243-5.15-4.322a1.193,1.193,0,0,0-1.265,1.479c.3,1.3,2.432,2.481,3.079,2.813Z" transform="translate(-239.132 -133.759)"/></g><g transform="translate(1015.547 748.845)"><path class="d" d="M337.983,255.53a.587.587,0,0,1-.544-.807l2.848-7.02a.587.587,0,1,1,1.088.441l-2.848,7.02A.587.587,0,0,1,337.983,255.53Z" transform="translate(-337.396 -247.336)"/></g><g transform="translate(1013.349 750.267)"><path class="d" d="M307.37,271.093a1.631,1.631,0,1,1,1.5-2.266h0a1.633,1.633,0,0,1-1.5,2.266Zm0-2.088a.457.457,0,1,0,.422.279A.454.454,0,0,0,307.369,269Z" transform="translate(-305.739 -267.831)"/></g><g transform="translate(1018.504 752.355)"><path class="d" d="M381.625,301.166a1.63,1.63,0,1,1,.633-.129A1.633,1.633,0,0,1,381.625,301.166Zm0-2.088a.457.457,0,1,0,.421.279h0a.458.458,0,0,0-.421-.279Z" transform="translate(-379.992 -297.904)"/></g><g transform="translate(1015.42 738.629)"><path class="b" d="M333.921,112.347a.237.237,0,0,1-.237-.237v-2.369a.237.237,0,1,1,.474,0v2.369A.237.237,0,0,1,333.921,112.347Z" transform="translate(-333.684 -109.504)"/></g><g transform="translate(1021.765 741.063)"><path class="a" d="M419.516,144.115a.237.237,0,0,1-.168-.4l1.29-1.29a.237.237,0,0,1,.335.335l-1.29,1.29A.237.237,0,0,1,419.516,144.115Z" transform="translate(-419.279 -142.35)"/></g><g transform="translate(1023.578 748.698)"><path class="a" d="M446.352,245.826h-2.369a.237.237,0,1,1,0-.474h2.369a.237.237,0,1,1,0,.474Z" transform="translate(-443.746 -245.352)"/></g><g transform="translate(1024.409 751.613)"><path class="a" d="M456.544,285.619a.168.168,0,0,1-.065-.013l-1.42-.588a.169.169,0,0,1,.13-.313l1.42.588a.17.17,0,0,1-.065.326Z" transform="translate(-454.955 -284.692)"/></g><g transform="translate(1018.38 740.364)"><path class="b" d="M373.781,134.68a.17.17,0,0,1-.156-.234l.588-1.42a.169.169,0,1,1,.313.13l-.588,1.42A.169.169,0,0,1,373.781,134.68Z" transform="translate(-373.611 -132.921)"/></g><g transform="translate(1012.233 739.402)"><path class="b" d="M291.4,121.613a.17.17,0,0,1-.157-.1l-.55-1.328a.169.169,0,1,1,.313-.13l.55,1.328a.169.169,0,0,1-.092.221A.168.168,0,0,1,291.4,121.613Z" transform="translate(-290.678 -119.945)"/></g><g transform="translate(1022.469 745.285)"><path class="a" d="M428.956,200.243a.17.17,0,0,1-.065-.326l1.42-.588a.169.169,0,0,1,.13.313l-1.42.588A.167.167,0,0,1,428.956,200.243Z" transform="translate(-428.787 -199.315)"/></g><g transform="translate(1007.264 744.315)"><path class="b" d="M225.168,187.986a.236.236,0,0,1-.168-.07l-1.29-1.29a.237.237,0,0,1,.335-.335l1.29,1.29a.237.237,0,0,1-.168.4Z" transform="translate(-223.641 -186.221)"/></g><g transform="translate(1006.011 757.542)"><path class="a" d="M206.971,366.439a.237.237,0,0,1-.168-.4l1.29-1.29a.237.237,0,0,1,.335.335l-1.29,1.29A.237.237,0,0,1,206.971,366.439Z" transform="translate(-206.734 -364.674)"/></g><g transform="translate(1003.369 751.197)"><path class="a" d="M173.7,279.553H171.33a.237.237,0,1,1,0-.474H173.7a.237.237,0,0,1,0,.474Z" transform="translate(-171.093 -279.079)"/></g><g transform="translate(1005.563 747.785)"><path class="b" d="M202.276,233.971a.168.168,0,0,1-.065-.013l-1.42-.588a.169.169,0,0,1,.13-.313l1.42.588a.169.169,0,0,1-.065.326Z" transform="translate(-200.687 -233.044)"/></g><g transform="translate(1004.876 754.614)"><path class="a" d="M191.593,326.108a.169.169,0,0,1-.065-.326l1.42-.588a.169.169,0,1,1,.13.313l-1.42.588A.168.168,0,0,1,191.593,326.108Z" transform="translate(-191.423 -325.18)"/></g></g></svg>