<?xml version="1.0" encoding="utf-8"?>
<!-- Generator: Adobe Illustrator 23.0.1, SVG Export Plug-In . SVG Version: 6.00 Build 0)  -->
<svg version="1.1" id="Capa_1" xmlns="http://www.w3.org/2000/svg" xmlns:xlink="http://www.w3.org/1999/xlink" x="0px" y="0px"
	 viewBox="0 0 900 900" style="enable-background:new 0 0 900 900;" xml:space="preserve">
<style type="text/css">
	.st0{fill:#FFFFFF;}
	.st1{fill:#3256BF;}
	.st2{fill:#BDE3F8;}
	.st3{fill:#A3DAFD;}
</style>
<g>
	<g>
		<g>
			<path class="st0" d="M655.5,485.8c-77.3-4.3-154.6,31-231.9,58.6c-77.3,29.5-154.6,51.2-231.9,64.4
				c-20.8-66.5-41.6-153-62.3-242.2c77.3,4.3,154.6-31,231.9-58.6c77.3-29.5,154.6-51.2,231.9-64.4
				C613.9,310.1,634.7,396.6,655.5,485.8z"/>
			<path class="st1" d="M187,616.5l-1.8-5.7c-21.5-68.9-43.5-161.4-62.5-242.6l-2.1-8.9l9.1,0.5C193,363.2,258,339,320.8,315.6
				c12.5-4.6,25.4-9.4,38.1-14c78.5-29.9,156.9-51.7,233.1-64.7l5.9-1l1.8,5.7c21.5,68.9,43.5,161.4,62.5,242.6l2.1,8.9l-9.1-0.5
				c-63.2-3.5-128.2,20.8-191.1,44.2c-12.5,4.6-25.3,9.4-38,14c-78.5,29.9-156.9,51.7-233.1,64.7L187,616.5z M138.1,373.7
				c17.9,76.6,38.4,161.9,58.4,227.2c73.4-13,149-34.1,224.7-63l0.1-0.1c12.6-4.5,25.5-9.3,37.9-13.9
				c61.2-22.8,124.5-46.4,187.5-45.3c-17.9-76.6-38.4-161.9-58.4-227.2c-73.4,13-149,34.1-224.7,63l-0.1,0.1
				c-12.6,4.5-25.5,9.3-37.9,13.9C264.4,351.2,201.1,374.8,138.1,373.7z"/>
		</g>
		<g>
			<g>
				<path class="st2" d="M598.7,422.1c-10-41.9-20-81.1-30-116.8c-11.6,2.1-23.1-3.8-26-13.3c-57.1,12.3-114.1,34-171.2,57.3
					c-57.1,22.9-114.1,47.4-171.2,56.8c2.7,11.7-4.4,22.7-16,24.1c10,42,20,81.2,30,117c11.6-2,23.3,3.9,26,13.6c0,0.1,0,0.1,0,0.2
					c57.1-12.2,114.1-33.7,171.2-56.9c57.1-22.9,114.1-47.5,171.2-57.2c0-0.1,0-0.1,0-0.2C580,434.7,587.1,423.5,598.7,422.1z"/>
			</g>
		</g>
	</g>
	<g>
		<g>
			<circle class="st0" cx="391.5" cy="426.2" r="67.6"/>
		</g>
		<g>
			<g>
				<path class="st3" d="M414,397.6c1.1,4.5-3.1,8.9-3.5,8.6c-4.9-3.4-12.2-5-18.7-3.3c-6.6,1.7-10,5.7-8.8,10.2
					c1.3,5.2,7.1,5.2,15.2,4.9c9.6-0.4,22.6,0.2,25.9,13.2c2.6,10-2.6,18.7-13.8,23.5l1,3.9c1.2,4.6-0.1,7.2-4,8.2l-0.5,0.1
					c-4.2,1.1-6.2-0.6-7.4-5.3l-0.9-3.7c-12.3,1.8-20.6-1.9-22-7.5c-1.1-4.3,2.9-8.6,3.4-8.3c4.9,3.6,13.2,5.5,21,3.5
					c7-1.8,10.4-5.8,9.2-10.3c-1.4-5.5-7.9-5.4-15.6-5.2c-9.2,0.4-21.6-0.2-25-13.3c-2.4-9.5,2.6-18.1,12.8-22.8l-0.9-3.7
					c-1.2-4.6,0-7.2,3.9-8.2l0.6-0.2c4.1-1,6.2,0.6,7.4,5.3l0.9,3.4C405.3,389.2,412.7,392.6,414,397.6z"/>
			</g>
		</g>
	</g>
</g>
<g>
	<g>
		<g>
			<path class="st0" d="M741.3,561.2c-77.3-4.3-154.6,31-231.9,58.6c-77.3,29.5-154.6,51.2-231.9,64.4
				c-20.8-66.5-41.6-153-62.3-242.2c77.3,4.3,154.6-31,231.9-58.6c77.3-29.5,154.6-51.2,231.9-64.4
				C699.7,385.5,720.5,472,741.3,561.2z"/>
			<path class="st1" d="M272.8,691.8l-1.8-5.7c-21.5-68.9-43.5-161.4-62.5-242.6l-2.1-8.9l9.1,0.5c63.2,3.5,128.2-20.8,191.1-44.2
				c12.5-4.6,25.3-9.4,38-14c78.5-29.9,156.9-51.7,233.1-64.7l5.9-1l1.8,5.7c21.5,68.9,43.5,161.4,62.5,242.6l2.1,8.9l-9.1-0.5
				c-63.2-3.5-128.2,20.8-191.1,44.2c-12.5,4.6-25.3,9.4-38,14c-78.5,29.9-156.9,51.7-233.1,64.7L272.8,691.8z M223.9,449.1
				c17.9,76.6,38.4,161.9,58.4,227.2c73.4-13,149-34.1,224.7-63l0.1-0.1c12.6-4.5,25.5-9.3,37.9-13.9
				c61.2-22.8,124.5-46.4,187.5-45.4c-17.9-76.6-38.4-161.9-58.4-227.2c-73.4,13-149,34.1-224.7,63l-0.1,0.1
				c-12.6,4.5-25.5,9.3-37.9,13.9C350.2,426.6,287,450.1,223.9,449.1z"/>
		</g>
		<g>
			<g>
				<path class="st2" d="M684.5,497.5c-10-41.9-20-81.1-30-116.8c-11.6,2.1-23.1-3.8-26-13.3c-57.1,12.3-114.1,34-171.2,57.3
					c-57.1,22.9-114.1,47.4-171.2,56.8c2.7,11.7-4.4,22.7-16,24.1c10,42,20,81.2,30,117c11.6-2,23.3,3.9,26,13.6c0,0.1,0,0.1,0,0.2
					c57.1-12.2,114.1-33.7,171.2-56.9c57.1-22.9,114.1-47.5,171.2-57.2c0-0.1,0-0.1,0-0.2C665.8,510.1,672.9,498.9,684.5,497.5z"/>
			</g>
		</g>
	</g>
	<g>
		<g>
			<circle class="st0" cx="477.3" cy="501.5" r="67.6"/>
		</g>
		<g>
			<g>
				<path class="st3" d="M499.8,473c1.1,4.5-3.1,8.9-3.5,8.6c-4.9-3.4-12.2-5-18.7-3.3c-6.6,1.7-10,5.7-8.8,10.2
					c1.3,5.2,7.1,5.2,15.2,4.9c9.6-0.4,22.6,0.2,25.9,13.2c2.6,10-2.6,18.7-13.8,23.5l1,3.9c1.2,4.6-0.1,7.2-4,8.2l-0.5,0.1
					c-4.2,1.1-6.2-0.6-7.4-5.3l-0.9-3.7c-12.3,1.8-20.6-1.9-22-7.5c-1.1-4.3,2.9-8.6,3.4-8.3c4.9,3.6,13.2,5.5,21,3.5
					c7-1.8,10.4-5.8,9.2-10.3c-1.4-5.5-7.9-5.4-15.6-5.2c-9.2,0.4-21.6-0.2-25-13.3c-2.4-9.5,2.6-18.1,12.8-22.8l-0.9-3.7
					c-1.2-4.6,0-7.2,3.9-8.2l0.6-0.2c4.1-1,6.2,0.6,7.4,5.3l0.9,3.4C491.2,464.5,498.5,468,499.8,473z"/>
			</g>
		</g>
	</g>
</g>
<polygon class="st2" points="284.2,271.7 274,253.9 255.9,244.4 273.6,234.3 283.1,216.1 293.3,233.9 311.4,243.4 293.6,253.5 "/>
<polygon class="st3" points="599.2,691.7 589,673.9 570.9,664.4 588.6,654.3 598.1,636.1 608.3,653.9 626.4,663.4 608.6,673.5 "/>
<polygon class="st3" points="656.2,263.7 646,245.9 627.9,236.4 645.6,226.3 655.1,208.1 665.3,225.9 683.4,235.4 665.6,245.5 "/>
</svg>
