<svg xmlns="http://www.w3.org/2000/svg" viewBox="0 0 21.7 26.11"><defs><style>.cls-1{fill:#719cd5;}</style></defs><title>Recurso 4</title><g id="Capa_2" data-name="Capa 2"><g id="Capa_1-2" data-name="Capa 1"><path class="cls-1" d="M19.84,0H5.42A1.86,1.86,0,0,0,3.56,1.86V3.05H1.86A1.87,1.87,0,0,0,0,4.91V24.24a1.87,1.87,0,0,0,1.86,1.87H16.28a1.87,1.87,0,0,0,1.86-1.87V23.05h1.7a1.86,1.86,0,0,0,1.86-1.86V1.86A1.87,1.87,0,0,0,19.84,0ZM16.65,24.24a.37.37,0,0,1-.37.38H1.86a.38.38,0,0,1-.37-.38V4.91a.38.38,0,0,1,.37-.37h1.7V21.19a1.86,1.86,0,0,0,1.86,1.86H16.65Zm3.56-3a.38.38,0,0,1-.37.38H5.42a.37.37,0,0,1-.37-.38V1.86a.37.37,0,0,1,.37-.37H19.84a.38.38,0,0,1,.37.37Z"/><path class="cls-1" d="M18.09,4.63H7.17a.74.74,0,1,0,0,1.48H18.09a.74.74,0,1,0,0-1.48Z"/><path class="cls-1" d="M18.09,8.17H7.17a.75.75,0,1,0,0,1.49H18.09a.75.75,0,0,0,0-1.49Z"/><path class="cls-1" d="M18.09,11.71H7.17a.76.76,0,0,0-.75.75.75.75,0,0,0,.75.74H18.09a.74.74,0,0,0,.74-.74.75.75,0,0,0-.74-.75Z"/><path class="cls-1" d="M18.09,15.26H7.17a.75.75,0,1,0,0,1.49H18.09a.75.75,0,0,0,0-1.49Z"/></g></g></svg>