<svg xmlns="http://www.w3.org/2000/svg" viewBox="0 0 18.59 18.59"><defs><style>.cls-1{fill:#719cd5;}</style></defs><title>Recurso 5</title><g id="Capa_2" data-name="Capa 2"><g id="Capa_1-2" data-name="Capa 1"><path class="cls-1" d="M9.29,0a9.3,9.3,0,1,0,9.3,9.3A9.31,9.31,0,0,0,9.29,0Zm0,17.37A8.08,8.08,0,1,1,17.37,9.3a8.08,8.08,0,0,1-8.08,8.07Z"/><path class="cls-1" d="M13.05,4.72,5,9a.61.61,0,0,0,.24,1.14l3,.25.25,3a.6.6,0,0,0,.48.54H9a.59.59,0,0,0,.53-.32l4.31-8.08a.59.59,0,0,0-.1-.71.61.61,0,0,0-.72-.11Z"/></g></g></svg>