<?xml version="1.0" encoding="UTF-8"?>
<svg width="149px" height="126px" viewBox="0 0 149 126" version="1.1" xmlns="http://www.w3.org/2000/svg" xmlns:xlink="http://www.w3.org/1999/xlink">
    <!-- Generator: sketchtool 53.2 (72643) - https://sketchapp.com -->
    <title>E891BA69-9A85-4B07-B7A6-F074EF950978</title>
    <desc>Created with sketchtool.</desc>
    <g id="Web" stroke="none" stroke-width="1" fill="none" fill-rule="evenodd">
        <g id="Tu-carro-Endoso-Manual" transform="translate(-927.000000, -218.000000)">
            <g id="Group-2" transform="translate(265.000000, 95.000000)">
                <g id="Paso-3" transform="translate(593.000000, 123.000000)">
                    <g id="Recurso-54" transform="translate(69.000000, 0.000000)">
                        <ellipse id="Oval" fill="#0855C4" fill-rule="nonzero" opacity="0.2" cx="62.4927132" cy="62.6778082" rx="62.4927132" ry="62.6778082"></ellipse>
                        <path d="M47.8074419,121.857534 L47.8074419,69.7084932 C47.8042806,68.6812214 46.9730802,67.8501321 45.9488372,67.850137 L42.2373643,67.850137 C41.2131214,67.8501321 40.3819209,68.6812214 40.3787597,69.7084932 L40.3787597,121.857534 C40.3787597,123.916573 42.043011,125.585753 44.095969,125.585753 L44.095969,125.585753 C46.1466864,125.582579 47.8074443,123.914328 47.8074419,121.857534 Z" id="Path" fill="#739ED7" fill-rule="nonzero"></path>
                        <path d="M44.095969,118.687397 L44.095969,82.6191781 C44.0944329,81.9890366 44.3437298,81.3843439 44.7885308,80.9393057 C45.2333317,80.4942675 45.8368413,80.2456988 46.4651163,80.2487671 L47.8131783,80.2487671 L47.8131783,67.850137 L40.355814,67.850137 L40.355814,118.687397 C40.355814,119.18179 40.5516307,119.655933 40.9001867,120.005522 C41.2487426,120.35511 41.721486,120.551507 42.2144186,120.551507 L42.2144186,120.551507 C42.7113148,120.55766 43.1899744,120.363983 43.5435089,120.013726 C43.8970435,119.663468 44.0960069,119.185803 44.095969,118.687397 Z" id="Path" fill="#0855C4" fill-rule="nonzero"></path>
                        <path d="M78.4629457,65.5372603 L78.4629457,18.2556164 L24.9362791,18.2556164 C12.6755576,18.2556164 2.73627907,28.2243338 2.73627907,40.5213699 L2.73627907,62.8331507 C2.73729517,63.7934955 3.0162879,64.732888 3.53937984,65.5372603 L78.4629457,65.5372603 Z" id="Path" fill="#A8C9F6" fill-rule="nonzero"></path>
                        <path d="M3.29271318,35.6194521 C2.92064003,37.226997 2.72823954,38.8711044 2.71906977,40.5213699 L2.71906977,62.8331507 C2.72223097,65.6026414 4.95992828,67.8469664 7.72124031,67.850137 L78.4629457,67.850137 L78.4629457,35.6309589 L3.29271318,35.6194521 Z" id="Path" fill="#84B8F9" fill-rule="nonzero"></path>
                        <path d="M78.4629457,65.3934247 L78.4629457,55.3767123 L2.73627907,55.3767123 L2.73627907,62.8561644 C2.74055594,63.7500482 2.98424662,64.6263563 3.44186047,65.3934247 L78.4629457,65.3934247 Z" id="Path" fill="#5EA8FC" fill-rule="nonzero"></path>
                        <path d="M76.9026357,18.2556164 L80.0347287,18.2556164 C91.440051,18.2556164 100.685891,27.5288419 100.685891,38.9679452 L100.685891,65.3876712 L56.2686822,65.3876712 L56.2686822,38.9506849 C56.2781715,27.5250588 65.5107507,18.2651338 76.9026357,18.2556164 Z" id="Path" fill="#0855C4" fill-rule="nonzero"></path>
                        <path d="M123.00062,63.8630137 L2.86821705,63.8630137 C3.33570811,66.2047851 5.38593465,67.8902761 7.76713178,67.890411 L123.00062,67.890411 C124.109471,67.890411 125.008372,66.9888474 125.008372,65.8767123 C125.008372,64.7645773 124.109471,63.8630137 123.00062,63.8630137 L123.00062,63.8630137 Z" id="Path" fill="#719CD5" fill-rule="nonzero"></path>
                        <rect id="Rectangle" fill="#A1C3E2" fill-rule="nonzero" x="81.6524031" y="35.6884932" width="37.4990698" height="22.1909589"></rect>
                        <polygon id="Path" fill="#739ED7" fill-rule="nonzero" points="119.157209 57.8794521 100.404806 43.490137 81.6524031 57.8794521"></polygon>
                        <path d="M81.6524031,35.6712329 L98.6035659,48.679726 C99.6661567,49.4969957 101.143456,49.4969957 102.206047,48.679726 L119.157209,35.6712329 L81.6524031,35.6712329 Z" id="Path" fill="#5B92CE" fill-rule="nonzero"></path>
                        <rect id="Rectangle" fill="#739ED7" fill-rule="nonzero" x="18.0927132" y="25.5739726" width="35.4511628" height="4.79835616" rx="2.23487984"></rect>
                        <path d="M41.9964341,41.4879452 C39.1451035,41.4879452 36.8336434,43.8062516 36.8336434,46.6660274 C36.8336434,49.5258032 39.1451035,51.8441096 41.9964341,51.8441096 C44.8477647,51.8441096 47.1592248,49.5258032 47.1592248,46.6660274 C47.1592248,43.8062516 44.8477647,41.4879452 41.9964341,41.4879452 Z" id="Path" fill="#739ED7" fill-rule="nonzero"></path>
                        <path d="M41.9964341,46.6775342 L41.9964341,46.6775342 C41.3628051,46.6775342 40.8491473,46.1623551 40.8491473,45.5268493 L40.8491473,1.66849315 C40.8491473,1.03298741 41.3628051,0.517808219 41.9964341,0.517808219 L41.9964341,0.517808219 C42.6300631,0.517808219 43.1437209,1.03298741 43.1437209,1.66849315 L43.1437209,45.5383562 C43.1374292,46.1693636 42.6256096,46.6775658 41.9964341,46.6775342 Z" id="Path" fill="#0855C4" fill-rule="nonzero"></path>
                        <path d="M29.255814,3.45205479 L40.8663566,3.45205479 L40.8663566,11.7254795 L29.255814,11.7254795 C28.4384325,11.7254795 27.775814,11.0608983 27.775814,10.2410959 L27.775814,4.93643836 C27.775814,4.11663595 28.4384325,3.45205479 29.255814,3.45205479 Z" id="Path" fill="#739ED7" fill-rule="nonzero"></path>
                        <path d="M125.908992,40.049589 L133.802326,40.049589" id="Path" stroke="#5FA8FC" stroke-width="1.57823989" stroke-linecap="round" stroke-linejoin="round"></path>
                        <path d="M142.24062,40.049589 L139.429767,40.049589" id="Path" stroke="#5FA8FC" stroke-width="1.57823989" stroke-linecap="round" stroke-linejoin="round"></path>
                        <path d="M125.908992,46.7868493 L137.313023,46.7868493" id="Path" stroke="#5FA8FC" stroke-width="1.57823989" stroke-linecap="round" stroke-linejoin="round"></path>
                        <path d="M147.495194,46.7868493 L144.099225,46.7868493" id="Path" stroke="#5FA8FC" stroke-width="1.57823989" stroke-linecap="round" stroke-linejoin="round"></path>
                        <path d="M125.908992,53.5241096 L133.802326,53.5241096" id="Path" stroke="#5FA8FC" stroke-width="1.57823989" stroke-linecap="round" stroke-linejoin="round"></path>
                        <path d="M142.24062,53.5241096 L139.429767,53.5241096" id="Path" stroke="#5FA8FC" stroke-width="1.57823989" stroke-linecap="round" stroke-linejoin="round"></path>
                    </g>
                </g>
            </g>
        </g>
    </g>
</svg>