<?xml version="1.0" encoding="UTF-8"?>
<svg width="126px" height="129px" viewBox="0 0 126 129" version="1.1" xmlns="http://www.w3.org/2000/svg" xmlns:xlink="http://www.w3.org/1999/xlink">
    <!-- Generator: sketchtool 53.2 (72643) - https://sketchapp.com -->
    <title>4EBDCDE4-4722-4060-9C76-9EA925CE6443</title>
    <desc>Created with sketchtool.</desc>
    <defs>
        <linearGradient x1="-26.0522511%" y1="-17.1261668%" x2="47.8127036%" y2="49.3707219%" id="linearGradient-1">
            <stop stop-color="#000000" offset="36%"></stop>
            <stop stop-color="#000000" offset="100%"></stop>
        </linearGradient>
        <linearGradient x1="-32.2522327%" y1="0.662181491%" x2="50.652173%" y2="50.0980029%" id="linearGradient-2">
            <stop stop-color="#000000" offset="36%"></stop>
            <stop stop-color="#000000" offset="100%"></stop>
        </linearGradient>
        <linearGradient x1="-32.9382%" y1="1.18656637%" x2="49.9619046%" y2="50.6250662%" id="linearGradient-3">
            <stop stop-color="#000000" offset="36%"></stop>
            <stop stop-color="#000000" offset="100%"></stop>
        </linearGradient>
        <linearGradient x1="-26.5204718%" y1="-22.443749%" x2="47.808115%" y2="49.231977%" id="linearGradient-4">
            <stop stop-color="#000000" offset="36%"></stop>
            <stop stop-color="#000000" offset="100%"></stop>
        </linearGradient>
    </defs>
    <g id="Web" stroke="none" stroke-width="1" fill="none" fill-rule="evenodd">
        <g id="Tu-carro-Endoso-Manual" transform="translate(-658.000000, -215.000000)">
            <g id="Group-2" transform="translate(265.000000, 95.000000)">
                <g id="Paso-2" transform="translate(369.000000, 120.000000)">
                    <g id="Group-11" transform="translate(24.000000, 0.000000)">
                        <ellipse id="Oval" fill="#0855C4" fill-rule="nonzero" opacity="0.2" cx="62.9653211" cy="62.7377679" rx="62.9653211" ry="62.7377679"></ellipse>
                        <polygon id="Path" fill="#5E5E5E" fill-rule="nonzero" opacity="0.2" style="mix-blend-mode: multiply;" points="92.3441284 128.62567 9.75633028 114.447187 27.0957798 6.31754464 120.075688 25.0340625 99.1874312 96.75"></polygon>
                        <polygon id="Path" fill="#FFFFFF" fill-rule="nonzero" points="89.5640367 126.011116 65.4390826 122.653661 16.5938532 113.617902 34.9505505 15.1056696 108.891743 28.783125 95.3149541 101.645089"></polygon>
                        <polygon id="Path" fill="url(#linearGradient-1)" fill-rule="nonzero" opacity="0.03" points="88.3965138 124.392857 65.2656881 122.630625 17.0909174 113.721562 35.3551376 15.6758036 108.735688 29.2495982 94.4537615 105.923973"></polygon>
                        <polygon id="Path" fill="#231F20" fill-rule="nonzero" opacity="0.13" style="mix-blend-mode: multiply;" points="89.5640367 126.011116 63.8380734 120.66683 16.1256881 112.932589 34.3725688 15.0135268 108.307982 28.6909821 93.6156881 99.3472768"></polygon>
                        <polygon id="Path" fill="#FFFFFF" fill-rule="nonzero" points="86.2753211 121.231205 62.150367 117.879509 13.3051376 108.84375 31.656055 10.3315179 105.597248 24.0089732 92.0204587 96.8709375"></polygon>
                        <polygon id="Path" fill="url(#linearGradient-2)" fill-rule="nonzero" opacity="0.03" points="85.1020183 119.612946 61.9711927 117.856473 13.796422 108.947411 32.066422 10.9016518 105.446972 24.4754464 91.1592661 101.149821"></polygon>
                        <polygon id="Path" fill="#231F20" fill-rule="nonzero" opacity="0.13" style="mix-blend-mode: multiply;" points="86.1655046 120.217634 61.1562385 115.547143 13.4438532 107.812902 31.5982569 10.3775893 105.53367 24.0492857 90.9107339 94.3542857"></polygon>
                        <polygon id="Path" fill="#FFFFFF" fill-rule="nonzero" points="83.5934862 116.111518 59.4685321 112.754062 10.6233028 103.718304 28.9742202 5.20607143 102.915413 18.8835268 89.3386239 91.7454911"></polygon>
                        <polygon id="Path" fill="url(#linearGradient-3)" fill-rule="nonzero" opacity="0.03" points="82.4201835 114.493259 59.2893578 112.731027 11.1145872 103.821964 29.3845872 5.77620536 102.765138 19.35 88.4774312 96.024375"></polygon>
                        <path d="M32.5190044,38.8552383 L89.3069661,38.8183933 C89.9813719,38.8179558 90.5284405,39.3643149 90.528878,40.0387207 C90.5288784,40.0392498 90.5288784,40.0397789 90.528878,40.0403079 L90.5286119,40.4490809 C90.5281733,41.1228669 89.9820705,41.6689684 89.3082846,41.6694056 L32.5203229,41.7062506 C31.8459171,41.7066881 31.2988485,41.1603289 31.2984109,40.4859232 C31.2984106,40.4853941 31.2984106,40.484865 31.2984109,40.4843359 L31.298677,40.075563 C31.2991157,39.401777 31.8452184,38.8556755 32.5190044,38.8552383 Z" id="Rectangle" fill="#739ED7" fill-rule="nonzero" transform="translate(60.913644, 40.262322) rotate(10.520000) translate(-60.913644, -40.262322) "></path>
                        <path d="M77.9292661,33.7358036 L47.3944954,28.0862946 C46.6149285,27.9433661 46.0981101,27.1992625 46.2385321,26.4219643 L46.2385321,26.4219643 C46.3060078,26.0481439 46.5201463,25.7165004 46.8336014,25.5003604 C47.1470566,25.2842203 47.5340075,25.2013883 47.9088991,25.2701786 L78.4552294,30.9196875 C78.8304056,30.9869193 79.163252,31.2002839 79.380176,31.5126063 C79.5971,31.8249287 79.6802324,32.2104811 79.6111927,32.5840179 L79.6111927,32.5840179 C79.5438656,32.9602366 79.3280267,33.2938784 79.011943,33.510333 C78.6958592,33.7267876 78.3058987,33.807998 77.9292661,33.7358036 Z" id="Path" fill="#739ED7" fill-rule="nonzero"></path>
                        <path d="M31.0880719,46.539266 L87.8760336,46.502421 C88.5504394,46.5019834 89.097508,47.0483426 89.0979455,47.7227484 C89.0979459,47.7232774 89.0979459,47.7238065 89.0979455,47.7243356 L89.0976794,48.1331085 C89.0972408,48.8068945 88.551138,49.3529961 87.877352,49.3534332 L31.0893903,49.3902782 C30.4149846,49.3907158 29.867916,48.8443566 29.8674784,48.1699508 C29.8674781,48.1694218 29.8674781,48.1688927 29.8674784,48.1683636 L29.8677445,47.7595907 C29.8681832,47.0858047 30.4142859,46.5397031 31.0880719,46.539266 Z" id="Rectangle" fill="#739ED7" fill-rule="nonzero" transform="translate(59.482712, 47.946350) rotate(10.520000) translate(-59.482712, -47.946350) "></path>
                        <path d="M28.2204271,61.9188392 L85.0083888,61.8819942 C85.6827945,61.8815566 86.2298631,62.4279158 86.2303007,63.1023215 C86.230301,63.1028506 86.230301,63.1033797 86.2303007,63.1039088 L86.2300346,63.5126817 C86.2295959,64.1864677 85.6834932,64.7325693 85.0097072,64.7330064 L28.2217455,64.7698514 C27.5473397,64.770289 27.0002711,64.2239298 26.9998336,63.549524 C26.9998332,63.548995 26.9998332,63.5484659 26.9998336,63.5479368 L27.0000997,63.1391639 C27.0005383,62.4653779 27.5466411,61.9192763 28.2204271,61.9188392 Z" id="Rectangle" fill="#739ED7" fill-rule="nonzero" transform="translate(56.615067, 63.325923) rotate(10.520000) translate(-56.615067, -63.325923) "></path>
                        <path d="M26.7837147,69.6028668 L83.5716764,69.5660218 C84.2460822,69.5655843 84.7931508,70.1119434 84.7935884,70.7863492 C84.7935887,70.7868783 84.7935887,70.7874074 84.7935884,70.7879365 L84.7933222,71.1967094 C84.7928836,71.8704954 84.2467809,72.4165969 83.5729949,72.4170341 L26.7850332,72.4538791 C26.1106274,72.4543166 25.5635588,71.9079575 25.5631212,71.2335517 C25.5631209,71.2330226 25.5631209,71.2324935 25.5631212,71.2319645 L25.5633874,70.8231915 C25.563826,70.1494055 26.1099287,69.603304 26.7837147,69.6028668 Z" id="Rectangle" fill="#739ED7" fill-rule="nonzero" transform="translate(55.178355, 71.009950) rotate(10.520000) translate(-55.178355, -71.009950) "></path>
                        <path d="M25.5473595,75.1986956 L59.3806557,75.1767439 C60.0550615,75.1763064 60.6021301,75.7226656 60.6025676,76.3970713 C60.602568,76.3976004 60.602568,76.3981295 60.6025676,76.3986586 L60.6023015,76.8074315 C60.6018629,77.4812175 60.0557601,78.027319 59.3819741,78.0277562 L25.5486779,78.0497078 C24.8742722,78.0501454 24.3272036,77.5037862 24.326766,76.8293804 C24.3267656,76.8288513 24.3267656,76.8283223 24.326766,76.8277932 L24.3270321,76.4190202 C24.3274708,75.7452343 24.8735735,75.1991327 25.5473595,75.1986956 Z" id="Rectangle" fill="#739ED7" fill-rule="nonzero" transform="translate(42.464667, 76.613226) rotate(10.520000) translate(-42.464667, -76.613226) "></path>
                        <polygon id="Rectangle" fill="#739ED7" fill-rule="nonzero" transform="translate(38.246750, 93.693943) rotate(10.520000) translate(-38.246750, -93.693943) " points="21.1234738 93.3105189 55.3705402 93.2882989 55.3700265 94.0773675 21.1229601 94.0995875"></polygon>
                        <path d="M81.9288991,98.5928571 C80.7599221,103.947285 75.4562207,107.343945 70.0822301,106.179844 C64.7082395,105.015743 61.2986141,99.7316219 62.4662842,94.3769111 C63.6339542,89.0222003 68.9368263,85.6242546 74.3111009,86.7870536 C76.8935413,87.3442349 79.1476315,88.9017256 80.5765804,91.1162618 C82.0055293,93.330798 82.4920441,96.0206034 81.9288991,98.5928571 Z" id="Path" fill="#DDEBFA" fill-rule="nonzero"></path>
                        <ellipse id="Oval" fill="#FFFFFF" fill-rule="nonzero" transform="translate(72.196000, 96.493144) rotate(-79.280000) translate(-72.196000, -96.493144) " cx="72.1959995" cy="96.4931443" rx="7.22260433" ry="7.24698524"></ellipse>
                        <path d="M69.9820183,108.417589 L69.6121101,108.342723 C63.1003555,106.919408 58.9595142,100.529505 60.3373208,94.0304136 C61.7151273,87.5313222 68.0958183,83.3558897 74.6289974,84.6781458 C81.1621765,86.0004019 85.402236,92.3253778 84.1260187,98.84503 C82.8498015,105.364682 76.5350423,109.638466 69.9820183,108.417589 L69.9820183,108.417589 Z M74.2359633,85.4970536 C68.1511885,84.36112 62.2858563,88.3278507 61.098867,94.3816864 C59.9118778,100.435522 63.8476017,106.310103 69.9140513,107.539498 C75.9805009,108.768893 81.9065944,104.892857 83.1872399,98.8580009 C84.4678855,92.8231452 80.623651,86.8887243 74.5769725,85.5661607 L74.2359633,85.4970536 Z" id="Shape" fill="#DDEBFA" fill-rule="nonzero"></path>
                        <polygon id="Path" fill="#76D160" fill-rule="nonzero" points="70.1611927 100.40692 67.0689908 95.9322321 69.0630275 94.7458929 70.8374312 97.3086161 76.23 94.0951339 77.553578 96.0013393"></polygon>
                        <polygon id="Path" fill="#231F20" fill-rule="nonzero" opacity="0.13" style="mix-blend-mode: multiply;" points="69.9704587 78.8685268 51.6773394 73.8870536 17.6746789 66.0606696 33.4362385 3.79513393 86.0730275 17.0233929 73.6059633 61.8566518"></polygon>
                        <polygon id="Path" fill="#FFFFFF" fill-rule="nonzero" points="67.9186239 75.62625 51.6311009 72.2572768 18.7323853 63.9874554 34.586422 1.35334821 84.3911009 13.8675 72.6638532 60.1980804"></polygon>
                        <polygon id="Path" fill="url(#linearGradient-4)" fill-rule="nonzero" opacity="0.03" points="67.1788073 74.5262946 51.5155046 72.2342411 19.0618349 64.0795982 34.8407339 1.73919643 84.2697248 14.1612054 71.9298165 62.9162946"></polygon>
                        <path d="M39.7869098,12.5323454 L70.1360872,12.5063408 C71.1381522,12.5054821 71.9511824,13.3171203 71.952041,14.3191853 C71.9520419,14.3202234 71.9520419,14.3212615 71.952041,14.3222996 L71.9378404,30.8425945 C71.9369801,31.8434435 71.1258449,32.6545765 70.1249959,32.6554341 L39.7758185,32.6814388 C38.7737535,32.6822974 37.9607232,31.8706592 37.9598646,30.8685942 C37.9598637,30.8675561 37.9598637,30.866518 37.9598646,30.8654799 L37.9740652,14.345185 C37.9749255,13.344336 38.7860607,12.533203 39.7869098,12.5323454 Z" id="Rectangle" fill="#739ED7" fill-rule="nonzero" transform="translate(54.955953, 22.593890) rotate(14.150000) translate(-54.955953, -22.593890) "></path>
                        <g id="Group" transform="translate(37.568807, 10.941964)">
                            <path d="M4.24141365,1.61138436 L15.8846603,1.60140785 C16.8262833,1.60060102 17.5902737,2.36328321 17.5910805,3.30490621 C17.5910813,3.30588169 17.5910813,3.30685717 17.5910805,3.30783266 L17.5797022,16.5448203 C17.5788937,17.4853006 16.8166842,18.2475081 15.8762038,18.248314 L4.23295712,18.2582905 C3.29133412,18.2590973 2.5273438,17.4964151 2.52653697,16.5547921 C2.52653614,16.5538166 2.52653614,16.5528411 2.52653698,16.5518657 L2.5379153,3.31487805 C2.53872372,2.37439771 3.30093331,1.61219021 4.24141365,1.61138436 Z" id="Rectangle" fill="#EDEDED" fill-rule="nonzero" transform="translate(10.058809, 9.929849) rotate(14.150000) translate(-10.058809, -9.929849) "></path>
                            <path d="M8.09174312,9.68651786 L8.42119266,8.74205357 C8.32148123,8.60530199 8.23625573,8.45862631 8.16688073,8.304375 C8.02816514,7.93580357 7.90678899,7.82638393 7.75073394,7.88397321 C7.68715596,7.88397321 7.63513761,8.0221875 7.6293578,8.17767857 C7.6293578,8.45410714 7.6987156,8.89178571 7.69293578,9.13366071 C7.68715596,9.37553571 7.77963303,10.0262946 8.09174312,9.68651786 Z" id="Path" fill="#FDB595"></path>
                            <path d="M11.8081651,10.6540179 L11.97,9.6346875 C12.1294466,9.56058027 12.2805652,9.46985074 12.4208257,9.36401786 C12.7329358,9.09334821 12.8947706,9.05303571 12.9988073,9.17973214 C13.102844,9.30642857 13.0334862,9.36401786 12.9583486,9.50799107 C12.8369725,9.76714286 12.5479817,10.1241964 12.4323853,10.3487946 C12.316789,10.5733929 11.9122018,11.1089732 11.8081651,10.6540179 Z" id="Path" fill="#FDB595"></path>
                            <path d="M12.8080734,16.2689732 L11.1145872,15.7679464 L5.33477064,13.9020536 L3.46788991,13.5795536 C5.29431193,14.1957589 7.18431193,12.8884821 7.51376147,12.4565625 C7.77624996,12.0334125 7.92180912,11.5486443 7.93568807,11.0513839 L9.62917431,11.5063393 L11.3631193,11.9037054 C10.6522018,13.6601786 11.2070642,15.1171875 12.8080734,16.2689732 Z" id="Path" fill="#FFD2B3"></path>
                            <path d="M9.42688073,12.4335268 L9.42688073,12.4335268 C9.17782557,12.3945803 8.9396457,12.3043598 8.72752294,12.1686161 C8.55990826,12.0534375 8.51366972,11.8576339 8.31715596,11.5927232 C8.1206422,11.3278125 7.80853211,11.0513839 7.73917431,10.8152679 C7.75177054,10.4454979 7.79624621,10.0774913 7.87211009,9.7153125 C7.87469568,9.35149007 7.89785164,8.98810173 7.94146789,8.626875 C8.0166055,8.23526786 8.0859633,7.84941964 8.18422018,7.40598214 C8.24643097,7.03754643 8.34716292,6.67660799 8.48477064,6.3290625 C8.61284047,6.03741311 8.84288962,5.80205559 9.13211009,5.66678571 L9.13211009,5.66678571 C9.31620864,5.5813389 9.51040817,5.51941963 9.71009174,5.4825 L9.71009174,5.4825 L9.75055046,5.4825 L10.0279817,5.4825 C10.5702097,5.44617662 11.1136467,5.53281231 11.6174312,5.73589286 C12.1018424,5.92165035 12.527102,6.23397181 12.8485321,6.64004464 C13.0395625,6.89440209 13.1282136,7.21074917 13.0970642,7.52691964 C13.057539,7.89715982 12.9780896,8.26207861 12.8600917,8.61535714 C12.7329358,9.04727679 12.6809174,9.40433036 12.5653211,9.76714286 C12.4116025,10.1128065 12.2379171,10.4493076 12.0451376,10.7749554 C11.944981,11.1301044 11.8074278,11.4737098 11.6347706,11.8000446 C11.4844954,11.9900893 11.056789,12.09375 10.7793578,12.2377232 C10.5019266,12.3816964 10.3343119,12.5487054 10.1320183,12.5775 C9.88945286,12.5791818 9.64923195,12.5301341 9.42688073,12.4335268 Z" id="Path" fill="#FFD2B3"></path>
                            <path d="M12.6173394,8.68446429 C12.5646992,8.81988915 12.5203066,8.95835497 12.4844037,9.09910714 L12.4844037,9.12790179 C12.5306422,8.93785714 12.5768807,8.86875 12.6173394,8.68446429 Z" id="Path" fill="#503C3D" fill-rule="nonzero"></path>
                            <path d="M8.66972477,5.56888393 C8.79110092,5.45370536 9.35174312,4.7971875 11.5307339,5.35580357 C13.4900917,6.01232143 13.2646789,7.22169643 13.2646789,7.44629464 C13.2544376,7.65387634 13.2254209,7.86011411 13.1779817,8.0625 C13.2483694,7.81380602 13.29672,7.55943764 13.3224771,7.30232143 C13.3224771,7.07772321 13.5536697,5.86834821 11.5885321,5.21183036 C9.40376147,4.6359375 8.84311927,5.30973214 8.69862385,5.42491071 C8.39415423,5.75313118 8.17054698,6.14746594 8.04550459,6.57669643 C8.0172956,6.65578544 7.99413018,6.73657138 7.97614679,6.81857143 C7.98492181,6.78502359 7.99652261,6.75227345 8.01082569,6.72066964 C8.13986286,6.29188291 8.36519096,5.89799909 8.66972477,5.56888393 L8.66972477,5.56888393 Z" id="Path" fill="#503C3D" fill-rule="nonzero"></path>
                            <path d="M12.2416514,10.2163393 C12.2140754,10.3177737 12.1812797,10.4177273 12.1433945,10.5158036 L12.1433945,10.48125 C12.1812014,10.3948902 12.2140075,10.3064414 12.2416514,10.2163393 L12.2416514,10.2163393 Z" id="Path" fill="#503C3D" fill-rule="nonzero"></path>
                            <path d="M7.91256881,9.21428571 L7.91256881,9.21428571 C7.92267665,9.15216882 7.93618301,9.09064857 7.95302752,9.03 C7.94146789,9.110625 7.92990826,9.16821429 7.91256881,9.21428571 Z" id="Path" fill="#503C3D" fill-rule="nonzero"></path>
                            <path d="M7.87788991,9.38129464 L7.91256881,9.22580357 C7.79563851,8.42039957 7.82894908,7.60040672 8.01082569,6.80705357 C7.7995036,7.64844189 7.75435424,8.52273878 7.87788991,9.38129464 L7.87788991,9.38129464 Z" id="Path" fill="#503C3D" fill-rule="nonzero"></path>
                            <path d="M13.0970642,8.33316964 C12.8727301,9.08316318 12.5603885,9.80417174 12.1665138,10.48125 C12.1524398,10.5423053 12.1331019,10.602036 12.1087156,10.6597768 C12.5111325,9.97390078 12.8312197,9.2432602 13.0623853,8.48290179 C13.0970642,8.37348214 13.1433028,8.22375 13.1779817,8.0625 C13.1584679,8.15477232 13.131405,8.24529792 13.0970642,8.33316964 Z" id="Path" fill="#503C3D" fill-rule="nonzero"></path>
                            <path d="M12.4786239,9.12790179 C12.4786239,9.16245536 12.4786239,9.20276786 12.4786239,9.24308036 C12.4266055,9.46767857 12.3514679,9.87080357 12.2705505,10.2163393 C12.3341284,9.85928571 12.4208257,9.38705357 12.4786239,9.12790179 Z" id="Path" fill="#503C3D" fill-rule="nonzero"></path>
                            <path d="M12.7155963,8.28133929 C12.8138532,7.40598214 12.5537615,7.12955357 12.2994495,7.10075893 C12.0451376,7.07196429 11.7561468,7.10075893 11.6174312,7.04316964 C11.2506682,6.88237867 10.8603854,6.78127188 10.4614679,6.74370536 C10.2091657,6.73821641 9.96015356,6.68546815 9.72743119,6.58821429 C9.53291392,6.48096759 9.31395759,6.42543468 9.09165138,6.42696429 C8.84311927,6.47303571 8.58880734,7.0546875 8.45009174,7.50388393 C8.38073394,7.72848214 8.31137615,7.94732143 8.23045872,8.16616071 C8.12271171,8.45628256 8.0320078,8.75240855 7.95880734,9.05303571 C8.02515865,8.80157398 8.10425081,8.55362237 8.19577982,8.31013393 C8.27669725,8.09129464 8.34605505,7.87245536 8.41541284,7.64785714 C8.55412844,7.19866071 8.80844037,6.61700893 9.05697248,6.5709375 C9.27921563,6.56992144 9.49804398,6.6254219 9.69275229,6.7321875 C9.91656936,6.83509096 10.1576394,6.89562887 10.4036697,6.91071429 C10.8025873,6.94828081 11.19287,7.0493876 11.559633,7.21017857 C11.6983486,7.25625 11.9988991,7.21017857 12.2416514,7.26776786 C12.4844037,7.32535714 12.756055,7.57299107 12.6577982,8.44834821 L12.6173394,8.7075 C12.6648313,8.56922474 12.6977607,8.42640284 12.7155963,8.28133929 L12.7155963,8.28133929 Z" id="Path" fill="#E8D1D1" fill-rule="nonzero" style="mix-blend-mode: multiply;"></path>
                            <path d="M13.1779817,8.0625 C13.2351726,7.86101234 13.2738639,7.65476199 13.293578,7.44629464 C13.293578,7.22169643 13.5247706,6.01232143 11.559633,5.35580357 C9.3806422,4.77991071 8.82,5.45370536 8.69862385,5.56888393 C8.3982536,5.89913166 8.17692759,6.29292837 8.0512844,6.72066964 C8.03698133,6.75227345 8.02538053,6.78502359 8.0166055,6.81857143 C7.8347289,7.61192458 7.80141833,8.43191743 7.91834862,9.23732143 C7.91834862,9.17973214 7.91834862,9.12214286 7.96458716,9.06455357 C8.03778761,8.76392641 8.12849153,8.46780041 8.23623853,8.17767857 C8.31715596,7.95883929 8.38651376,7.74 8.45587156,7.51540179 C8.59458716,7.06620536 8.84889908,6.48455357 9.09743119,6.43848214 C9.31973741,6.43695254 9.53869373,6.49248545 9.73321101,6.59973214 C9.96593338,6.696986 10.2149455,6.74973427 10.4672477,6.75522321 C10.8661653,6.79278974 11.256448,6.89389653 11.623211,7.0546875 C11.7619266,7.10075893 12.0682569,7.0546875 12.3052294,7.11227679 C12.5422018,7.16986607 12.819633,7.4175 12.7213761,8.29285714 C12.7095382,8.42934584 12.6843733,8.56435947 12.6462385,8.69598214 C12.6057798,8.88026786 12.5595413,8.949375 12.5075229,9.13941964 C12.4555046,9.32946429 12.3630275,9.87080357 12.2705505,10.2278571 C12.250477,10.3174864 12.2253921,10.4059279 12.1954128,10.4927679 C12.5892876,9.81568959 12.9016292,9.09468104 13.1259633,8.3446875 C13.1511249,8.25222471 13.1685243,8.15783683 13.1779817,8.0625 Z" id="Path" fill="#503C3D" fill-rule="nonzero"></path>
                            <path d="M14.900367,21.0488839 C15.0159633,19.8970982 15.1777982,18.3133929 15.2124771,17.5071429 C15.247156,16.7008929 13.0970642,15.2669196 13.0970642,15.2669196 L11.3631193,13.948125 L11.1781651,13.2973661 C11.1781651,13.2973661 11.1781651,13.2685714 11.1319266,13.2973661 L8.97027523,14.1266518 L7.51376147,12.2953125 C7.50059733,12.2835807 7.48068708,12.2835807 7.46752294,12.2953125 L6.88954128,12.8712054 L3.9533945,13.2743304 C3.9533945,13.2743304 2.32926606,14.1957589 1.80330275,15.4857589 C1.50542129,16.1950197 1.14973679,16.8787788 0.739816514,17.5301786 L14.900367,21.0488839 Z" id="Path" fill="#DCDCDC"></path>
                            <polygon id="Path" fill="#0855C4" points="6.71614679 18.9929464 8.63504587 19.4709375 9.04541284 15.5030357 9.6233945 14.9271429 9.11477064 14.1669643 8.81422018 14.0920982 7.96458716 14.5643304 8.20155963 15.3129911"></polygon>
                            <path d="M7.93568807,11.1089732 C7.94368664,11.2009437 7.94368664,11.2934313 7.93568807,11.3854018 C8.09044949,11.6076502 8.22580729,11.842707 8.34027523,12.0879911 C8.38073394,12.255 8.61770642,12.5832589 9.35174312,12.6638839 C9.97018349,12.7617857 9.92972477,12.9460714 10.5077064,12.6638839 C10.7667408,12.5431052 11.0160158,12.4025524 11.2533028,12.2434821 L11.3804587,11.8864286 L9.4846789,12.1686161 L7.93568807,11.1089732 Z" id="Path" fill="#E8D1D1" style="mix-blend-mode: multiply;"></path>
                            <path d="M12.4555046,9.96870536 L12.4150459,9.91111607 C12.0630675,10.4098839 11.7444863,10.9312385 11.4613761,11.4717857 C11.3972477,11.5951836 11.2905021,11.6913165 11.1608257,11.7424554 C10.4036697,12.09375 8.66972477,11.6042411 8.16688073,10.9419643 C8.11695442,10.8541965 8.09104386,10.7549007 8.09174312,10.6540179 C8.09174312,10.2624107 7.98770642,9.05879464 7.96458716,8.59232143 L7.86633028,8.64415179 C7.9359735,9.07521632 7.9359735,9.51460511 7.86633028,9.94566964 C7.81351875,10.1918946 7.78448723,10.4425919 7.77963303,10.6943304 C7.80779081,10.9145767 7.91201013,11.1181897 8.07440367,11.2702232 C8.18329407,11.39535 8.28554374,11.5260641 8.38073394,11.6618304 C8.60036697,12.0016071 8.6466055,12.1858929 8.9587156,12.3125893 C9.27874594,12.4208859 9.60745882,12.5018038 9.9412844,12.5544643 C10.299633,12.5544643 10.3805505,12.4565625 10.773578,12.2377232 C10.8602752,12.1858929 10.993211,12.1340625 11.1145872,12.0764732 C11.2359633,12.0188839 11.5711927,11.9382589 11.6925688,11.7136607 C11.8890632,11.1704867 12.1267206,10.6429844 12.4034862,10.1357143 C12.4141138,10.0781854 12.4315761,10.0221213 12.4555046,9.96870536 Z" id="Path" fill="#503C3D"></path>
                            <path d="M7.56,12.3471429 C7.53851657,12.4406263 7.48019338,12.5215686 7.39816514,12.5717411 C7.33760355,12.6516398 7.24426361,12.7002548 7.14385321,12.7041964 C7.07605938,12.7984213 6.96535831,12.8524904 6.84908257,12.8481696 L6.81440367,12.8481696 L6.81440367,12.8481696 L7.66981651,15.2323661 L8.9587156,14.1842411 L7.56,12.3471429 Z" id="Path" fill="#EFEFEF" style="mix-blend-mode: multiply;"></path>
                            <path d="M11.4151376,13.9884375 C11.3327127,13.9484718 11.2716147,13.8749992 11.2475229,13.786875 C11.1991324,13.7564111 11.1609113,13.7123151 11.1377064,13.6601786 C11.0127179,13.542264 10.9841391,13.3547999 11.0683486,13.2052232 L8.94715596,14.1957589 L9.59449541,15.8312946 L11.4787156,14.0345089 L11.4787156,14.0345089 L11.4151376,13.9884375 Z" id="Path" fill="#EFEFEF" style="mix-blend-mode: multiply;"></path>
                            <polygon id="Path" fill="#F0F0F0" points="6.93577982 12.8424107 7.68715596 14.9847321 8.97027523 14.1036161 7.50798165 12.255"></polygon>
                            <polygon id="Path" fill="#F0F0F0" points="11.3631193 13.9538839 9.71009174 15.5260714 8.97027523 14.0978571 11.1492661 13.1591518"></polygon>
                            <path d="M7.23055046,19.1196429 L6.80284404,12.8481696 C6.80284404,12.8481696 2.5893578,12.7733036 1.76284404,13.6141071 C1.39594273,14.0998829 1.13061256,14.6540835 0.982568807,15.2438839 L0.323669725,17.3862054 L7.23055046,19.1196429 Z" id="Path" fill="#3C3C3C" fill-rule="nonzero"></path>
                            <path d="M8.17266055,19.3557589 L11.4729358,14.0345089 C11.4729358,14.0345089 15.2818349,15.9579911 15.6055046,17.0925 C15.6976928,17.6930887 15.6682139,18.3059921 15.5188073,18.8950446 L15.0737615,21.0891964 L8.17266055,19.3557589 Z" id="Path" fill="#3C3C3C" fill-rule="nonzero"></path>
                            <polygon id="Path" fill="#5A5A5A" fill-rule="nonzero" points="9.38642202 19.6609821 11.4787156 14.0345089 8.17266055 19.3557589"></polygon>
                            <polygon id="Path" fill="#5A5A5A" fill-rule="nonzero" points="7.23055046 19.1196429 6.80862385 12.8481696 6.01678899 18.8144196"></polygon>
                        </g>
                        <path d="M66.8666972,19.4191071 L58.8443119,17.4034821 C58.6847235,17.3640463 58.5474655,17.2629127 58.4628706,17.1224306 C58.3782756,16.9819485 58.3533083,16.8136839 58.3934862,16.6548214 L58.3934862,16.6548214 C58.4786076,16.3228469 58.8171628,16.1219929 59.1506422,16.205625 L67.1730275,18.22125 C67.3395727,18.2614763 67.4821958,18.3681556 67.5674538,18.5162733 C67.6527117,18.664391 67.6731056,18.8409191 67.6238532,19.0044643 L67.6238532,19.0044643 C67.528882,19.326649 67.1905821,19.5119128 66.8666972,19.4191071 Z" id="Path" fill="#EDEDED" fill-rule="nonzero"></path>
                        <path d="M58.0657651,20.6141078 L70.0602665,20.6038303 C70.4006505,20.6035386 70.6768227,20.879238 70.6771143,21.2196219 C70.6771146,21.2199746 70.6771146,21.2203272 70.6771143,21.2206798 L70.6771094,21.2264766 C70.6768171,21.5664475 70.4012887,21.8419752 70.0613177,21.8422665 L58.0668163,21.852544 C57.7264323,21.8528357 57.4502602,21.5771364 57.4499685,21.2367524 C57.4499682,21.2363997 57.4499682,21.2360471 57.4499685,21.2356945 L57.4499735,21.2298977 C57.4502657,20.8899268 57.7257942,20.6143991 58.0657651,20.6141078 Z" id="Rectangle" fill="#EDEDED" fill-rule="nonzero" transform="translate(64.063541, 21.228187) rotate(14.150000) translate(-64.063541, -21.228187) "></path>
                        <path d="M68.9705505,26.2491964 L57.3473394,23.3294196 C57.1864727,23.2900633 57.0481753,23.1880518 56.9634314,23.0462399 C56.8786875,22.9044281 56.8545814,22.7346706 56.8965138,22.575 L56.8965138,22.575 C56.9816948,22.2458412 57.316317,22.0457934 57.6478899,22.1258036 L69.2711009,25.0455804 C69.4319676,25.0849367 69.5702651,25.1869482 69.6550089,25.3287601 C69.7397528,25.4705719 69.763859,25.6403294 69.7219266,25.8 L69.7219266,25.8 C69.6367456,26.1291588 69.3021233,26.3292066 68.9705505,26.2491964 L68.9705505,26.2491964 Z" id="Path" fill="#EDEDED" fill-rule="nonzero"></path>
                        <path d="M68.2018349,29.2092857 L56.5959633,26.2895089 C56.2648126,26.2020051 56.0645422,25.866869 56.1451376,25.5350893 L56.1451376,25.5350893 C56.2329589,25.2051353 56.5693105,25.0055887 56.9022936,25.0858929 L68.5255046,28.0114286 C68.8558573,28.0963018 69.0566306,28.4297147 68.9763303,28.7600893 L68.9763303,28.7600893 C68.9357023,28.9233939 68.8304079,29.0633319 68.6844734,29.1479719 C68.538539,29.2326118 68.3644155,29.2547323 68.2018349,29.2092857 L68.2018349,29.2092857 Z" id="Path" fill="#EDEDED" fill-rule="nonzero"></path>
                        <path d="M32.8390427,39.9923418 L63.1882201,39.9663371 C64.1902851,39.9654785 65.0033154,40.7771166 65.004174,41.7791816 C65.0041749,41.7802197 65.0041749,41.7812578 65.004174,41.7822959 L64.9899734,58.3025908 C64.9891131,59.3034399 64.1779779,60.1145728 63.1771289,60.1154304 L32.8279515,60.1414351 C31.8258865,60.1422937 31.0128562,59.3306556 31.0119976,58.3285906 C31.0119967,58.3275525 31.0119967,58.3265144 31.0119976,58.3254763 L31.0261982,41.8051813 C31.0270585,40.8043323 31.8381937,39.9931993 32.8390427,39.9923418 Z" id="Rectangle" fill="#739ED7" fill-rule="nonzero" transform="translate(48.008086, 50.053886) rotate(14.150000) translate(-48.008086, -50.053886) "></path>
                        <path d="M59.0061468,46.6473214 L39.9327523,41.8558929 C39.6016016,41.768389 39.4013311,41.4332529 39.4819266,41.1014732 L39.4819266,41.1014732 C39.569621,40.7718312 39.9073675,40.5740259 40.2390826,40.6580357 L59.3124771,45.4494643 C59.6428297,45.5343375 59.8436031,45.8677504 59.7633028,46.198125 L59.7633028,46.198125 C59.7238037,46.3584104 59.6214222,46.496208 59.4790959,46.5806456 C59.3367697,46.6650832 59.1663965,46.6891022 59.0061468,46.6473214 Z" id="Path" fill="#EDEDED" fill-rule="nonzero"></path>
                        <path d="M41.4297248,55.0208036 L32.9449541,52.8842411 C32.6146014,52.7993679 32.4138281,52.4659549 32.4941284,52.1355804 L32.4941284,52.1355804 C32.5336275,51.975295 32.636009,51.8374974 32.7783352,51.7530598 C32.9206615,51.6686221 33.0910347,51.6446031 33.2512844,51.6863839 L41.7533945,53.8229464 C41.9127573,53.8622607 42.0496167,53.9636591 42.1332836,54.1044045 C42.2169505,54.2451498 42.240424,54.4134648 42.1984404,54.5716071 L42.1984404,54.5716071 C42.1606458,54.7353692 42.0567731,54.8763663 41.9112994,54.9613735 C41.7658257,55.0463806 41.591617,55.0678793 41.4297248,55.0208036 Z" id="Path" fill="#EDEDED" fill-rule="nonzero"></path>
                        <path d="M59.9309174,59.6682589 L51.440367,57.5316964 C51.2799376,57.4936636 51.1416702,57.3927964 51.0568258,57.2519002 C50.9719814,57.111004 50.9477252,56.9419772 50.9895413,56.7830357 L50.9895413,56.7830357 C51.0291201,56.6240241 51.1306206,56.4872621 51.2716122,56.4029728 C51.4126039,56.3186836 51.5814788,56.2938066 51.7409174,56.3338393 L60.2430275,58.4704018 C60.4034569,58.5084346 60.5417243,58.6093018 60.6265687,58.750198 C60.7114131,58.8910942 60.7356693,59.060121 60.6938532,59.2190625 L60.6938532,59.2190625 C60.6559155,59.3815063 60.5529234,59.52141 60.4088139,59.6062578 C60.2647045,59.6911057 60.092028,59.7135083 59.9309174,59.6682589 L59.9309174,59.6682589 Z" id="Path" fill="#EDEDED" fill-rule="nonzero"></path>
                        <path d="M34.9546868,46.0065881 L62.8055794,45.9827241 C63.1459634,45.9824324 63.4221356,46.2581317 63.4224272,46.5985157 C63.4224276,46.5988683 63.4224276,46.599221 63.4224272,46.5995736 L63.4224223,46.6053703 C63.42213,46.9453413 63.1466016,47.220869 62.8066306,47.2211603 L34.955738,47.2450243 C34.6153541,47.245316 34.3391819,46.9696167 34.3388902,46.6292327 C34.3388899,46.6288801 34.3388899,46.6285274 34.3388902,46.6281748 L34.3388952,46.6223781 C34.3391874,46.2824071 34.6147159,46.0068794 34.9546868,46.0065881 Z" id="Rectangle" fill="#EDEDED" fill-rule="nonzero" transform="translate(48.880659, 46.613874) rotate(14.150000) translate(-48.880659, -46.613874) "></path>
                        <path d="M61.4741284,53.5580357 L34.4708257,46.7855357 C34.140473,46.7006625 33.9396997,46.3672496 34.02,46.036875 L34.02,46.036875 C34.0594991,45.8765896 34.1618806,45.738792 34.3042068,45.6543544 C34.446533,45.5699168 34.6169063,45.5458978 34.777156,45.5876786 L61.7746789,52.3716964 C61.9351082,52.4097292 62.0733757,52.5105964 62.1582201,52.6514927 C62.2430644,52.7923889 62.2673207,52.9614156 62.2255046,53.1203571 L62.2255046,53.1203571 C62.1847765,53.2780811 62.0824832,53.4130501 61.941376,53.4952454 C61.8002688,53.5774407 61.6320482,53.6000468 61.4741284,53.5580357 Z" id="Path" fill="#EDEDED" fill-rule="nonzero"></path>
                        <path d="M60.7227523,56.5296429 L33.7252294,49.745625 C33.5648,49.7075922 33.4265325,49.606725 33.3416882,49.4658288 C33.2568438,49.3249325 33.2325876,49.1559058 33.2744037,48.9969643 L33.2744037,48.9969643 C33.3125744,48.8371147 33.4138075,48.6993469 33.5552147,48.6148092 C33.696622,48.5302715 33.8662618,48.5061029 34.0257798,48.5477679 L61.0290826,55.3317857 C61.3591317,55.4165138 61.5581689,55.7513362 61.4741284,56.0804464 L61.4741284,56.0804464 C61.4359577,56.240296 61.3347246,56.3780638 61.1933174,56.4626015 C61.0519101,56.5471392 60.8822703,56.5713078 60.7227523,56.5296429 Z" id="Path" fill="#EDEDED" fill-rule="nonzero"></path>
                        <path d="M30.5694495,83.6369196 C32.5350027,82.4470284 34.5934833,81.4166931 36.7249541,80.5558929 L35.3493578,79.1795089 C34.4188073,83.2107589 31.6329358,86.5336607 29.8700917,90.2366518 C28.6216514,92.8627232 27.7431193,95.6615625 26.6969725,98.3625 C26.2808257,99.4336607 27.8529358,100.211116 28.569633,99.4509375 C30.5000728,97.4329313 32.6106904,95.5940198 34.8754128,93.9569196 C35.5227523,93.4962054 38.2219266,92.3444196 38.5166972,91.6533482 L38.8634862,91.4575446 C37.7075229,90.8586161 37.3511009,90.9085268 37.7942202,91.6072768 C37.7942202,92.0564732 38.3722018,92.9663839 38.6265138,93.3349554 C39.2378774,94.360474 40.2413972,95.0942833 41.4066055,95.3678571 C42.776422,95.6615625 44.2502752,95.3102679 45.5622936,94.9186607 C46.273211,94.7113393 46.9494495,94.4061161 47.6545872,94.1930357 C48.0822936,94.089375 48.0765138,94.0490625 47.6545872,94.0605804 C47.8441395,94.1093457 48.0430165,94.1093457 48.2325688,94.0605804 C50.4520183,93.0930804 51.1224771,90.1560268 53.1743119,89.2000446 L51.5270642,87.9388393 C51.0473394,89.7529018 50.0936697,91.7397321 50.3711009,93.6459375 C50.5618349,95.0626339 52.7234862,94.4579464 52.5327523,93.0700446 C52.3420183,91.6821429 53.3592661,89.8680804 53.6887156,88.5492857 C53.8074218,88.1044361 53.6489081,87.6318817 53.2856055,87.3475507 C52.9223028,87.0632197 52.4239835,87.0217178 52.0183486,87.2420089 C50.2323853,88.0655357 48.7874312,91.3423661 47.8511009,91.8145982 C46.7100866,92.3054317 45.5206814,92.6760188 44.3022936,92.9203125 C41.6088991,93.5768304 40.9268807,92.5747768 39.7188991,90.4785268 C38.8056881,88.8833036 37.9329358,89.3267411 36.5688991,90.1733036 C33.0479942,92.3192172 29.8259916,94.91771 26.9859633,97.9017857 L28.8586239,98.9844643 C29.9510092,96.1568304 30.8526606,93.2255357 32.2455963,90.5188393 C34.0604587,86.9770982 36.603578,83.7348214 37.5052294,79.8014732 C37.6786239,79.0585714 36.9734862,78.0737946 36.129633,78.4308482 C33.8138167,79.3533319 31.5756846,80.4587248 29.4366055,81.7364732 C28.2055046,82.479375 29.326789,84.4086161 30.5925688,83.6657143 L30.5694495,83.6369196 Z" id="Path" fill="#5C5C5C" fill-rule="nonzero"></path>
                    </g>
                </g>
            </g>
        </g>
    </g>
</svg>