<svg xmlns="http://www.w3.org/2000/svg" viewBox="0 0 17.32 10.83"><defs><style>.cls-1{fill:#fff;}</style></defs><title>Recurso 2</title><g id="Capa_2" data-name="Capa 2"><g id="Capa_1-2" data-name="Capa 1"><path class="cls-1" d="M8.66,0A9.7,9.7,0,0,0,0,5.41a9.63,9.63,0,0,0,17.32,0A9.7,9.7,0,0,0,8.66,0Zm4.27,2.87a8.29,8.29,0,0,1,2.53,2.54A8.07,8.07,0,0,1,12.93,8,7.88,7.88,0,0,1,8.66,9.2,7.91,7.91,0,0,1,4.39,8,8.07,8.07,0,0,1,1.86,5.41,8.29,8.29,0,0,1,4.39,2.87l.2-.12a4.27,4.27,0,0,0-.26,1.48,4.33,4.33,0,0,0,8.66,0,4.27,4.27,0,0,0-.26-1.48l.2.12Zm-4.27.82A1.63,1.63,0,1,1,7,2.06,1.63,1.63,0,0,1,8.66,3.69Z"/></g></g></svg>