<?xml version="1.0" encoding="UTF-8"?>
<svg width="48px" height="48px" viewBox="0 0 48 48" version="1.1" xmlns="http://www.w3.org/2000/svg" xmlns:xlink="http://www.w3.org/1999/xlink">
    <!-- Generator: sketchtool 53.2 (72643) - https://sketchapp.com -->
    <title>6FD90CB4-1197-457B-8B0D-D69C865EFEC5</title>
    <desc>Created with sketchtool.</desc>
    <g id="Web" stroke="none" stroke-width="1" fill="none" fill-rule="evenodd">
        <g id="Pagar-Descuento" transform="translate(-636.000000, -166.000000)">
            <g id="Group-28" transform="translate(636.000000, 166.000000)">
                <polygon id="Fill-1" fill="#C17E25" points="25.817176 -9.81539974e-05 19.3709122 4.9127548 11.3892745 3.50301801 8.84193293 11.1897029 1.50075008 14.6128236 3.93815922 22.3257647 0.149414922 29.472848 6.79370439 34.086822 8.16417958 42.0588897 16.2579582 41.7342454 22.0468356 47.3969949 28.4930994 42.4841419 36.4744916 43.8941241 39.0220786 36.2071938 46.3635069 32.7840731 43.9258524 25.0713774 47.7145967 17.9240487 41.0703072 13.3100747 39.6995866 5.33825238 31.6060534 5.66289672"></polygon>
                <polygon id="Fill-2" fill="#F3A530" points="23.9320303 4.79492092 16.6728061 1.61374987 12.4784404 8.33042791 4.71274149 9.88911339 5.24915309 17.7809402 -0.000122692497 23.6983993 5.24915309 29.6161038 4.71249611 37.5076852 12.4784404 39.066616 16.6725607 45.7832941 23.9320303 42.602123 31.1912546 45.7832941 35.3853749 39.066616 43.1513192 37.5076852 42.6146622 29.6161038 47.863938 23.6983993 42.6146622 17.7809402 43.1513192 9.88935877 35.3853749 8.33042791 31.1912546 1.61374987"></polygon>
                <g id="Group-27" transform="translate(8.343090, 15.742429)" fill="#FFFFFF">
                    <path d="M0.0340348986,19.3968985 L0.0340348986,15.5541695 C0.0340348986,15.222409 0.196234379,15.0599641 0.498794076,15.0599641 L0.646270457,15.0599641 C0.963307869,15.0599641 1.12550735,15.222409 1.12550735,15.5541695 L1.12550735,19.3968985 C1.12550735,19.7215428 0.963307869,19.8911039 0.646270457,19.8911039 L0.498794076,19.8911039 C0.196234379,19.8911039 0.0340348986,19.7215428 0.0340348986,19.3968985" id="Fill-3"></path>
                    <path d="M3.02108188,16.8154238 C3.27186535,16.4466102 3.64804054,16.1811036 4.20849987,16.1811036 C5.14513439,16.1811036 5.54363962,16.84487 5.54363962,17.6710813 L5.54363962,19.396874 C5.54363962,19.7730492 5.35174855,19.8910793 5.08624199,19.8910793 L4.97557336,19.8910793 C4.69534369,19.8910793 4.50369801,19.7804107 4.50369801,19.396874 L4.50369801,17.8259192 C4.50369801,17.346437 4.2602761,17.0514842 3.83968622,17.0514842 C3.47087258,17.0514842 3.19064292,17.2431299 3.04316653,17.5233595 L3.04316653,19.396874 C3.04316653,19.7730492 2.85152085,19.8910793 2.58601429,19.8910793 L2.47534566,19.8910793 C2.195116,19.8910793 2.00322493,19.7804107 2.00322493,19.396874 L2.00322493,16.3433031 C2.00322493,16.3138569 2.18775445,16.2252729 2.39412323,16.2252729 C2.65962979,16.2252729 2.94746639,16.3506646 3.02108188,16.8154238" id="Fill-5"></path>
                    <path d="M5.92700459,16.7121904 L5.92700459,16.645691 C5.92700459,16.3951529 6.06711942,16.2623997 6.36207219,16.2623997 L6.53924015,16.2623997 L6.53924015,15.805002 C6.53924015,15.4656346 6.71616273,15.3034351 7.01111549,15.3034351 L7.09969948,15.3034351 C7.37992914,15.3034351 7.56421327,15.4214653 7.56421327,15.805002 L7.56421327,16.2623997 L8.19141731,16.2623997 C8.48637007,16.2623997 8.6117618,16.387546 8.6117618,16.6309679 L8.6117618,16.6901057 C8.6117618,16.9408892 8.47900852,17.0736425 8.18381038,17.0736425 L7.542374,17.0736425 L7.542374,18.6077894 C7.542374,18.9616346 7.6601588,19.1388026 7.94063385,19.1388026 C8.15436418,19.1388026 8.29447901,19.0354955 8.40514764,18.8953806 C8.41987074,18.873296 8.6559311,19.0134108 8.6559311,19.301002 C8.6559311,19.6624541 8.29447901,19.9574069 7.70457348,19.9574069 C6.9080538,19.9574069 6.53924015,19.5370624 6.53924015,18.7258196 L6.53924015,17.0736425 L6.36207219,17.0736425 C6.06711942,17.0736425 5.92700459,16.9482507 5.92700459,16.7121904" id="Fill-7"></path>
                    <path d="M9.85075971,17.7373843 L11.6209671,17.7373843 C11.5988824,17.2358174 11.281845,16.9040569 10.7800327,16.9040569 C10.2934342,16.9040569 9.92437521,17.2505405 9.85075971,17.7373843 M8.91412519,18.0914749 C8.91412519,16.9923955 9.70328333,16.1811527 10.7950012,16.1811527 C11.856782,16.1811527 12.5870478,16.9261415 12.5870478,17.9808062 L12.5870478,18.0544217 C12.5796862,18.2389513 12.5281554,18.3422583 12.3362643,18.3422583 L9.85075971,18.3422583 C9.92437521,18.880633 10.3376035,19.1976704 10.8983082,19.1976704 C11.4437991,19.1976704 11.7463588,18.9542485 11.9159198,18.6666573 C11.9232814,18.6519342 12.4174867,18.7184335 12.4174867,19.1314165 C12.4174867,19.5223148 11.864389,19.9573824 10.8612551,19.9573824 C9.68856023,19.9573824 8.91412519,19.227362 8.91412519,18.0914749" id="Fill-9"></path>
                    <path d="M14.1875223,16.8375576 C14.3349987,16.4245746 14.6301968,16.1811527 15.0652644,16.1811527 C15.4856089,16.1811527 15.7363924,16.4172131 15.7363924,16.7860267 C15.7363924,17.1990096 15.419355,17.346486 15.4043865,17.3317629 C15.2939633,17.2284558 15.1315184,17.154595 14.9325112,17.154595 C14.4235827,17.154595 14.2022454,17.5972695 14.2022454,18.3201737 L14.2022454,19.396923 C14.2022454,19.7730982 14.0105997,19.8911284 13.7448478,19.8911284 L13.6344245,19.8911284 C13.3541949,19.8911284 13.1623038,19.7804598 13.1623038,19.396923 L13.1623038,16.3433522 C13.1623038,16.313906 13.3465879,16.225322 13.5532021,16.225322 C13.8260702,16.225322 14.121023,16.3507137 14.1875223,16.8375576" id="Fill-11"></path>
                    <path d="M15.9797407,18.061906 C15.9797407,16.9704335 16.7762604,16.1883916 17.8753398,16.1883916 C18.9741738,16.1883916 19.4094867,16.8153502 19.4094867,17.1620792 C19.4094867,17.5824237 18.8561436,17.6562846 18.8340589,17.6194768 C18.6939441,17.2727478 18.4284375,17.0219644 17.9195091,17.0219644 C17.3516882,17.0219644 16.9384599,17.457032 16.9384599,18.061906 C16.9384599,18.6815031 17.3516882,19.1239322 17.9195091,19.1239322 C18.4137144,19.1239322 18.6939441,18.8731488 18.8340589,18.5266652 C18.848782,18.4822505 19.4094867,18.5487498 19.4094867,18.9911789 C19.4094867,19.3305464 18.9520891,19.9575051 17.8753398,19.9575051 C16.7615373,19.9575051 15.9797407,19.1757085 15.9797407,18.061906" id="Fill-13"></path>
                    <path d="M22.698848,18.0766536 C22.698848,17.449695 22.2785035,16.9925427 21.6957142,16.9925427 C21.1131702,16.9925427 20.6852188,17.4423334 20.6852188,18.0619305 C20.6852188,18.6888892 21.1131702,19.1386799 21.6957142,19.1386799 C22.271142,19.1386799 22.698848,18.6888892 22.698848,18.0766536 M19.7706689,18.0619305 C19.7706689,16.9554896 20.5598271,16.1810545 21.7030757,16.1810545 C22.8389629,16.1810545 23.6207595,16.9554896 23.6207595,18.0766536 C23.6207595,19.1978177 22.8389629,19.9575296 21.6883526,19.9575296 C20.545104,19.9575296 19.7706689,19.1978177 19.7706689,18.0619305" id="Fill-15"></path>
                    <path d="M25.2358344,16.8375576 C25.3835562,16.4245746 25.6785089,16.1811527 26.1135765,16.1811527 C26.533921,16.1811527 26.7847045,16.4172131 26.7847045,16.7860267 C26.7847045,17.1990096 26.4676671,17.346486 26.4526986,17.3317629 C26.3422753,17.2284558 26.1800759,17.154595 25.9808233,17.154595 C25.4718948,17.154595 25.2508029,17.5972695 25.2508029,18.3201737 L25.2508029,19.396923 C25.2508029,19.7730982 25.0589118,19.8911284 24.7934053,19.8911284 L24.6827366,19.8911284 C24.402507,19.8911284 24.2106159,19.7804598 24.2106159,19.396923 L24.2106159,16.3433522 C24.2106159,16.313906 24.3951454,16.225322 24.6015142,16.225322 C24.8743823,16.225322 25.1693351,16.3507137 25.2358344,16.8375576" id="Fill-17"></path>
                    <path d="M30.1406633,18.0692921 C30.1406633,17.4423334 29.7644881,17.0146274 29.2187519,17.0146274 C28.7836843,17.0146274 28.4664015,17.2433262 28.3115635,17.6045329 L28.3115635,18.3053524 C28.3260413,18.7921963 28.7171849,19.1313183 29.2113903,19.1313183 C29.7718496,19.1313183 30.1406633,18.7036123 30.1406633,18.0692921 M27.2716219,20.7982186 L27.2716219,16.3434994 C27.2716219,16.3138078 27.4559061,16.2254692 27.6622748,16.2254692 C27.9353883,16.2254692 28.2303411,16.3582225 28.2965951,16.8524279 C28.5252939,16.4391996 28.9311606,16.1810545 29.4768969,16.1810545 C30.4503391,16.1810545 31.1437971,16.9113203 31.1437971,18.0619305 C31.1437971,19.1830946 30.4577007,19.9575296 29.4619284,19.9575296 C28.9088306,19.9575296 28.4958477,19.6623314 28.3115635,19.3011247 L28.3115635,20.7982186 C28.3115635,21.1743938 28.1196725,21.2997855 27.8541659,21.2997855 L27.7434973,21.2997855 C27.4632676,21.2997855 27.2716219,21.1817553 27.2716219,20.7982186" id="Fill-19"></path>
                    <path d="M1.3263795,8.67688698 L1.32932412,8.23740246 C1.33374105,7.60921688 1.75580324,7.10985841 2.55109601,7.11525688 L7.57486298,7.14961078 C8.37040112,7.15500925 8.78559253,7.66025695 8.7811756,8.28844254 L8.77823098,8.72792706 C8.77405944,9.35586726 8.35175187,9.8554711 7.5564591,9.85007264 L2.53269213,9.81547335 C1.73715398,9.81007488 1.32196257,9.30482718 1.3263795,8.67688698" id="Fill-21"></path>
                    <path d="M13.0703581,5.61727965 C13.8047953,5.3500554 14.6226635,5.16748896 15.5435934,5.17362359 C18.5579027,5.19423592 20.5354603,6.84076923 20.5173018,9.49927025 C20.4984072,12.2414475 18.3930039,13.9642956 14.981171,13.940984 C11.7995092,13.9191447 9.94611632,12.5040095 9.95445941,11.2689868 C9.96083942,10.3478116 11.1377058,9.70711134 11.2204006,9.8123815 C12.070905,10.9693717 13.3640839,11.6481066 14.9549148,11.659149 C16.6924859,11.6709274 17.7657999,10.8199323 17.7748792,9.4803756 C17.7844492,8.09885809 16.8269569,7.29669455 15.0896312,7.28491607 C13.7498291,7.27559144 12.8890185,7.64661355 12.2787461,8.10302964 C11.086175,8.0529711 10.4616702,7.52539336 10.4700133,6.29037069 L10.5006864,1.81062225 C10.5082933,0.72209442 10.9939102,0.0975896119 11.9985164,0.104460392 L18.5713988,0.149365845 C19.5342896,0.15599124 20.0130357,0.556950319 20.0076372,1.37334619 L20.0069011,1.47812558 C20.0012572,2.29452146 19.5382157,2.66799742 18.5544673,2.66137202 L13.090725,2.62382812 L13.0703581,5.61727965 Z" id="Fill-23"></path>
                    <path d="M28.6640345,12.0258768 L28.6652615,11.8423289 C28.6691876,11.2799065 28.3168148,10.9228713 27.8520556,10.9196813 C27.3752726,10.9162459 27.0427759,11.2565949 27.0386043,11.8312865 L27.0376228,12.0148345 C27.0334513,12.5649877 27.3738002,12.9097536 27.8508287,12.913189 C28.3033186,12.9161336 28.6601084,12.5885446 28.6640345,12.0258768 M25.8391625,11.9699291 L25.8398987,11.8720204 C25.8475056,10.7591995 26.6845138,9.98206522 27.8707049,9.99016293 C29.044872,9.99826063 29.8590595,10.7744134 29.8514525,11.8872343 L29.8507164,11.9851429 C29.8431094,13.0979639 29.0061012,13.8750981 27.831934,13.8670004 C26.6454976,13.8589027 25.8318009,13.08275 25.8391625,11.9699291 M24.1192591,7.72624098 L24.120486,7.54293839 C24.1244122,6.9802706 23.7720393,6.63550468 23.3075255,6.63231468 C22.8304971,6.62887929 22.4980004,6.95695902 22.4940743,7.53165068 L22.4928473,7.71519865 C22.4889212,8.26559719 22.8290248,8.62263236 23.3060532,8.62582236 C23.7708124,8.62901237 24.1155783,8.28890877 24.1192591,7.72624098 M21.9044141,13.2515749 C21.9058864,13.0437338 21.9925073,12.8852151 22.2388739,12.6300147 L28.4382803,5.70107863 C28.5121412,5.62819929 29.2078077,5.85321732 29.2048631,6.293438 C29.2036361,6.46471673 29.1167699,6.67206705 28.8824272,6.92726744 L22.6707515,13.8559581 C22.6091598,13.9290828 21.9014695,13.6795263 21.9044141,13.2515749 M21.2946324,7.6702932 L21.2953686,7.57238459 C21.3027301,6.45956364 22.1397383,5.68242937 23.3261748,5.69052707 C24.5126112,5.69887016 25.314284,6.47477751 25.3066771,7.58759846 L25.3059409,7.68550707 C25.2985794,8.79832801 24.4613258,9.57546229 23.2871586,9.56736458 C22.1009675,9.55926688 21.2870255,8.78311415 21.2946324,7.6702932" id="Fill-25"></path>
                </g>
                <text id="Hasta" font-family="Omnes-Semibold, Omnes" font-size="8.09996232" font-weight="500" fill="#FFFFFF">
                    <tspan x="13.1875294" y="13.4106512">Has</tspan>
                    <tspan x="27.0789648" y="13.4106512" letter-spacing="-0.0809996288">t</tspan>
                    <tspan x="30.1731504" y="13.4106512">a</tspan>
                </text>
            </g>
        </g>
    </g>
</svg>