<svg xmlns="http://www.w3.org/2000/svg" width="96.665" height="54.593" viewBox="0 0 96.665 54.593"><defs><style>.a{fill:#0133a1;}.b{fill:#1e3b74;}.c{fill:#c3d0f2;}.d,.m{fill:#fff;}.e{fill:#e1e4ed;}.f{fill:#fdfcff;}.g{fill:#f2cf7e;}.h{opacity:0.36;}.i{fill:#007dd8;}.j{fill:#00b3ff;}.k{opacity:0.388;}.l{fill:#001f5e;}.m{opacity:0.269;}</style></defs><g transform="translate(-9205 -2081.017)"><g transform="translate(9217.371 2103.06)"><g transform="translate(24.172 16.865)"><g transform="translate(4.731)"><path d="M503.935,2108.211c0,3.206-2.118,5.8-4.73,5.8h-3.039v-11.607H499.2C501.818,2102.409,503.935,2105.008,503.935,2108.211Z" transform="translate(-496.166 -2102.409)"/></g><g transform="translate(0 0)"><ellipse cx="4.73" cy="5.804" rx="4.73" ry="5.804"/></g></g><g transform="translate(58.903 16.865)"><g transform="translate(4.732)"><path d="M608.435,2108.211c0,3.206-2.118,5.8-4.729,5.8h-3.039v-11.607h3.039C606.318,2102.409,608.435,2105.008,608.435,2108.211Z" transform="translate(-600.666 -2102.409)"/></g><g transform="translate(0 0)"><ellipse cx="4.73" cy="5.804" rx="4.73" ry="5.804"/></g></g><g transform="translate(5.308 15.128)"><rect class="a" width="48.281" height="10.443"/></g><g transform="translate(41.865 16.865)"><g transform="translate(4.732)"><path d="M557.173,2108.211c0,3.206-2.118,5.8-4.73,5.8H549.4v-11.607h3.039C555.057,2102.409,557.173,2105.008,557.173,2108.211Z" transform="translate(-549.404 -2102.409)"/></g><g transform="translate(0 0)"><ellipse class="b" cx="4.73" cy="5.804" rx="4.73" ry="5.804"/></g><g transform="translate(2.155 2.644)"><path d="M544.225,2116.686a3.227,3.227,0,1,1,2.575-3.16A2.915,2.915,0,0,1,544.225,2116.686Z" transform="translate(-541.65 -2110.365)"/></g><g transform="translate(4.833 2.494)"><rect class="c" width="0.645" height="3.31"/></g><g transform="translate(2.377 4.627)"><rect class="c" width="0.645" height="2.817" transform="matrix(0.309, -0.951, 0.951, 0.309, 0, 0.614)"/></g><g transform="translate(3.072 5.615)"><rect class="c" width="3.102" height="0.645" transform="translate(0 2.509) rotate(-53.989)"/></g><g transform="translate(4.895 5.615)"><rect class="c" width="0.645" height="2.609" transform="translate(0 0.379) rotate(-36.011)"/></g><g transform="translate(5.056 4.8)"><rect class="c" width="2.259" height="0.645" transform="translate(0 0.698) rotate(-18.003)"/></g><g transform="translate(4.009 5.121)"><path class="c" d="M548.053,2119.176a.686.686,0,1,1,.548-.673A.621.621,0,0,1,548.053,2119.176Z" transform="translate(-547.228 -2117.817)"/></g><g transform="translate(2.154 2.644)"><path class="c" d="M542.218,2113.525a3,3,0,0,1,2.29-3.14,2.138,2.138,0,0,0-.285-.021,3.227,3.227,0,0,0,0,6.32,2.022,2.022,0,0,0,.285-.021A3,3,0,0,1,542.218,2113.525Z" transform="translate(-541.648 -2110.364)"/></g><g transform="translate(4.511 2.494)"><rect class="c" width="0.645" height="3.31"/></g><g transform="translate(2.055 4.627)"><rect class="c" width="0.645" height="2.817" transform="matrix(0.309, -0.951, 0.951, 0.309, 0, 0.614)"/></g><g transform="translate(2.749 5.615)"><rect class="c" width="3.102" height="0.645" transform="translate(0 2.51) rotate(-54.007)"/></g><g transform="translate(4.573 5.615)"><rect class="c" width="0.645" height="2.925" transform="translate(0 0.379) rotate(-36.011)"/></g><g transform="translate(4.734 4.695)"><rect class="c" width="2.599" height="0.645" transform="translate(0 0.803) rotate(-18.003)"/></g><g transform="translate(1.892 2.322)"><path class="c" d="M543.7,2109.4c-1.569,0-2.838,1.559-2.838,3.48s1.271,3.48,2.838,3.48,2.838-1.56,2.838-3.48S545.263,2109.4,543.7,2109.4Zm0,6.643a3.226,3.226,0,1,1,2.575-3.16A2.915,2.915,0,0,1,543.7,2116.039Z" transform="translate(-540.858 -2109.396)"/></g><g transform="translate(4.296 5.361)"><path class="b" d="M548.63,2119.423a.447.447,0,1,1,.347-.528.429.429,0,0,1,.009.09A.4.4,0,0,1,548.63,2119.423Z" transform="translate(-548.093 -2118.539)"/></g></g><g transform="translate(7.136 16.865)"><g transform="translate(4.732)"><path d="M452.676,2108.211c0,3.206-2.117,5.8-4.729,5.8h-3.039v-11.607h3.039C450.559,2102.409,452.676,2105.008,452.676,2108.211Z" transform="translate(-444.908 -2102.409)"/></g><g transform="translate(0 0)"><ellipse class="b" cx="4.73" cy="5.804" rx="4.73" ry="5.804"/></g><g transform="translate(2.155 2.644)"><path d="M439.727,2116.686a3.227,3.227,0,1,1,2.575-3.16A2.915,2.915,0,0,1,439.727,2116.686Z" transform="translate(-437.152 -2110.365)"/></g><g transform="translate(4.833 2.494)"><rect class="c" width="0.645" height="3.31"/></g><g transform="translate(2.377 4.627)"><rect class="c" width="0.645" height="2.816" transform="matrix(0.309, -0.951, 0.951, 0.309, 0, 0.613)"/></g><g transform="translate(3.072 5.615)"><rect class="c" width="3.102" height="0.645" transform="translate(0 2.509) rotate(-53.989)"/></g><g transform="translate(4.895 5.615)"><rect class="c" width="0.645" height="2.608" transform="translate(0 0.379) rotate(-35.999)"/></g><g transform="translate(5.056 4.799)"><rect class="c" width="2.259" height="0.645" transform="matrix(0.951, -0.309, 0.309, 0.951, 0, 0.698)"/></g><g transform="translate(4.008 5.121)"><path class="c" d="M443.554,2119.176a.686.686,0,1,1,.533-.811.666.666,0,0,1,.014.138A.621.621,0,0,1,443.554,2119.176Z" transform="translate(-442.729 -2117.817)"/></g><g transform="translate(2.154 2.644)"><path class="c" d="M437.721,2113.525a3,3,0,0,1,2.29-3.14,2.142,2.142,0,0,0-.285-.021,3.227,3.227,0,0,0,0,6.32,2.026,2.026,0,0,0,.285-.021A3,3,0,0,1,437.721,2113.525Z" transform="translate(-437.151 -2110.364)"/></g><g transform="translate(4.511 2.494)"><rect class="c" width="0.645" height="3.31"/></g><g transform="translate(2.055 4.627)"><rect class="c" width="0.645" height="2.817" transform="translate(0 0.614) rotate(-72.003)"/></g><g transform="translate(2.749 5.615)"><rect class="c" width="3.102" height="0.645" transform="translate(0 2.509) rotate(-53.989)"/></g><g transform="translate(4.573 5.615)"><rect class="c" width="0.645" height="2.925" transform="translate(0 0.379) rotate(-35.999)"/></g><g transform="translate(4.734 4.695)"><rect class="c" width="2.599" height="0.645" transform="translate(0 0.803) rotate(-18.003)"/></g><g transform="translate(1.892 2.322)"><path class="c" d="M439.2,2109.4c-1.569,0-2.838,1.559-2.838,3.48s1.271,3.48,2.838,3.48,2.838-1.56,2.838-3.48S440.767,2109.4,439.2,2109.4Zm0,6.643a3.226,3.226,0,1,1,2.575-3.16A2.915,2.915,0,0,1,439.2,2116.039Z" transform="translate(-436.362 -2109.396)"/></g><g transform="translate(4.296 5.361)"><path class="b" d="M444.133,2119.423a.446.446,0,1,1,.357-.438A.4.4,0,0,1,444.133,2119.423Z" transform="translate(-443.596 -2118.539)"/></g></g><g transform="translate(23.339 0.001)"><path class="a" d="M531.971,2071.194a1.593,1.593,0,0,0-.766-1.285l-.415-.252s-.231-4.49-5.388-7.242a28.159,28.159,0,0,0-9.5-2.537s-4.259-5.98-10.184-7.514a23.838,23.838,0,0,0-4.93-.7H480.438l-1.017,9.835,30.074,5.321-.054,10.414h19.617a3.024,3.024,0,0,0,2.58-1.653C532.068,2074.7,532.03,2072.435,531.971,2071.194Z" transform="translate(-479.421 -2051.666)"/></g><path class="a" d="M465.187,2069.908l-.415-.252s-.231-4.49-5.388-7.242a28.158,28.158,0,0,0-9.5-2.537s-4.259-5.98-10.184-7.514-14.915-.362-18.26,1.733a26.966,26.966,0,0,0-5.724,4.958s-4.092,1.015-4.716,1.639c-1.552,1.552-1.008,6.745-1.008,6.745l-.494,1.293a4.538,4.538,0,0,0-.28,2.046,11.532,11.532,0,0,0,1.1,4.28,5.212,5.212,0,0,0,3.494,2.176h.7a.322.322,0,0,0,.322-.322h0v-2.424a6.551,6.551,0,0,1,6.214-6.6,6.45,6.45,0,0,1,6.68,6.211c0,.078,0,.156,0,.235v2.255a.645.645,0,0,0,.645.645h20.316a.645.645,0,0,0,.645-.645v-2.1a6.551,6.551,0,0,1,6.214-6.6,6.45,6.45,0,0,1,6.68,6.211c0,.078,0,.157,0,.235v2.578a.323.323,0,0,0,.323.322h.484a3.024,3.024,0,0,0,2.58-1.653C466.05,2074.7,465.64,2070.182,465.187,2069.908Z" transform="translate(-409.198 -2051.664)"/><g transform="translate(10.876 0.646)"><path class="a" d="M461.006,2054.251c-5.46-1.412-13.743-.334-16.826,1.6a5.79,5.79,0,0,0-2.08,2.12,1.764,1.764,0,0,0-.147,1.1,2.524,2.524,0,0,0,2.464,2.094l23.431.564a4.582,4.582,0,0,0,1.693-.281h0a.64.64,0,0,0,.275-1.008C468.538,2058.892,465.233,2055.343,461.006,2054.251Z" transform="translate(-441.922 -2053.607)"/></g><g transform="translate(11.841 0.647)"><path class="d" d="M471.754,2060.442c-1.277-1.547-4.582-5.095-8.809-6.188a18.218,18.218,0,0,0-4.937-.642c-4.363.018-8.834.931-10.921,2.24a5.789,5.789,0,0,0-2.08,2.119,1.765,1.765,0,0,0-.15,1.1,2.525,2.525,0,0,0,2.464,2.094l22.63.56a4.578,4.578,0,0,0,1.528-.277.639.639,0,0,0,.382-.82A.632.632,0,0,0,471.754,2060.442Z" transform="translate(-444.827 -2053.612)"/></g><g transform="translate(33.583 0.646)"><path class="d" d="M518.791,2061.175h16.2a.322.322,0,0,0,.248-.528c-1.421-1.689-4.842-5.26-9.1-6.361a23.257,23.257,0,0,0-4.769-.678h-10.8a.321.321,0,0,0-.143.608,19.914,19.914,0,0,1,7.3,6.382A1.285,1.285,0,0,0,518.791,2061.175Z" transform="translate(-510.244 -2053.607)"/></g><g transform="translate(58.653 14.822)"><rect class="e" width="13.019" height="3.171"/></g><g transform="translate(58.653 15.128)"><rect class="a" width="13.019" height="2.558"/></g><g transform="translate(58.653 15.589)"><rect class="e" width="13.019" height="0.299"/><g transform="translate(0 0.668)"><rect class="e" width="13.019" height="0.299"/></g><g transform="translate(0 1.337)"><rect class="e" width="13.019" height="0.299"/></g></g><g transform="translate(53.159 14.049)"><path class="f" d="M571.562,2097.879h4.958s0-3.211-1.773-3.587a28.507,28.507,0,0,0-4.74-.355,9.257,9.257,0,0,0-.86,3.2C569.146,2097.82,570.581,2097.879,571.562,2097.879Z" transform="translate(-569.147 -2093.936)"/></g><g transform="translate(70.314 14.223)"><path class="f" d="M623.722,2094.459c-.42.049-.826.106-1.183.182-1.773.376-1.773,3.588-1.773,3.588h4.394A8.217,8.217,0,0,0,623.722,2094.459Z" transform="translate(-620.765 -2094.459)"/></g><g transform="translate(53.158 14.052)"><path class="g" d="M570.005,2093.943a9.245,9.245,0,0,0-.86,3.2c0,.68,1.435.739,2.416.739A8.3,8.3,0,0,0,570.005,2093.943Z" transform="translate(-569.145 -2093.943)"/></g><g transform="translate(0.705 12.508)"><path class="d" d="M411.357,2089.3a21.678,21.678,0,0,0,.053,3.268h1.451C412.859,2090.891,412.348,2089.807,411.357,2089.3Z" transform="translate(-411.319 -2089.297)"/></g><g transform="translate(12.71 16.257)"><path class="a" d="M452.522,2109.894h23.059a.645.645,0,0,0,.645-.645v-2.1c0-2.168-.314-4.136,1.314-5.349l-30.1-1.218c3.266.318,4.438,3.063,4.438,6.412v2.255a.645.645,0,0,0,.644.646Z" transform="translate(-447.44 -2100.58)"/></g><g transform="translate(53.357 24.138)"><path class="d" d="M569.75,2124.291l-.007,1.433H589.36a3.052,3.052,0,0,0,2.457-1.433Z" transform="translate(-569.743 -2124.291)"/></g><g transform="translate(0.003 15.777)"><path class="a" d="M410.32,2106.751a5.215,5.215,0,0,0,3.494,2.177h1.834a.323.323,0,0,0,.323-.323h0v-2.421c0-3.5,1.584-6.475,5.079-6.6h.078L410,2099.133l-.494,1.293a4.538,4.538,0,0,0-.28,2.046A11.478,11.478,0,0,0,410.32,2106.751Z" transform="translate(-409.207 -2099.133)"/></g><g transform="translate(50.801 17.8)"><path class="a" d="M563.128,2110.094v2.578a.323.323,0,0,0,.322.323h1.642a3.025,3.025,0,0,0,2.58-1.653c.431-.882.392-3.146.334-4.39a1.594,1.594,0,0,0-.766-1.284l-.415-.252-4.773-.193C563.416,2106.4,563.128,2108.144,563.128,2110.094Z" transform="translate(-562.051 -2105.222)"/></g><g transform="translate(64.78 15.29)"><path class="e" d="M606.035,2098.787a.966.966,0,1,1-.954-1.117A1.045,1.045,0,0,1,606.035,2098.787Z" transform="translate(-604.114 -2097.67)"/></g><g transform="translate(57.698 21.082)"><path class="a" d="M598.562,2117.568H584.3a1.5,1.5,0,0,1-1.5-1.5h0a.972.972,0,0,1,.973-.972h15.313a.972.972,0,0,1,.972.972h0A1.5,1.5,0,0,1,598.562,2117.568Z" transform="translate(-582.803 -2115.097)"/></g><g transform="translate(58.461 21.526)"><path class="f" d="M586.465,2117.224a.686.686,0,1,1-.677-.792A.741.741,0,0,1,586.465,2117.224Z" transform="translate(-585.101 -2116.432)"/></g><g transform="translate(73.344 21.526)"><path class="f" d="M631.244,2117.224a.686.686,0,1,1-.677-.792A.741.741,0,0,1,631.244,2117.224Z" transform="translate(-629.88 -2116.432)"/></g><g class="h" transform="translate(22.74 8.175)"><path class="i" d="M479.244,2092.333a70.21,70.21,0,0,1-1.625-14.208,10.88,10.88,0,0,1,.869-1.863l.142.077a11.288,11.288,0,0,0-.85,1.786,70.111,70.111,0,0,0,1.62,14.171Z" transform="translate(-477.619 -2076.262)"/></g><g class="h" transform="translate(11.876 8.049)"><path class="i" d="M445.335,2083.524a54.926,54.926,0,0,1-.4-5.935c0-.47,1.43-1.582,1.594-1.707l.1.128c-.592.454-1.531,1.284-1.531,1.579a54.757,54.757,0,0,0,.4,5.916Z" transform="translate(-444.931 -2075.883)"/></g><g transform="translate(13.135 0.647)"><g transform="translate(9.862)"><path class="a" d="M478.468,2053.629l-.075,7.769,1.29.031.076-7.817Q479.114,2053.607,478.468,2053.629Z" transform="translate(-478.393 -2053.611)"/></g><g transform="translate(0 1.143)"><path class="a" d="M450.514,2057.311a54.766,54.766,0,0,0-1.8,6.135,2.308,2.308,0,0,0,.233.016l.422.01a50.937,50.937,0,0,1,1.93-6.421C451.03,2057.134,450.765,2057.22,450.514,2057.311Z" transform="translate(-448.719 -2057.051)"/></g></g><g transform="translate(13.747 10.684)"><path class="j" d="M453.41,2084.132h-2.686a.161.161,0,1,1,0-.323h2.686a.161.161,0,1,1,0,.323Z" transform="translate(-450.562 -2083.809)"/></g><g transform="translate(24.652 10.946)"><path class="j" d="M486.22,2084.92h-2.686a.161.161,0,1,1,0-.322h2.686a.161.161,0,1,1,0,.322Z" transform="translate(-483.372 -2084.598)"/></g><g class="k" transform="translate(36.288 8.251)"><path class="i" d="M518.839,2092.47c-.322-6.162-.482-11.066-.45-13.81v-.122a10.416,10.416,0,0,1,.938-2.049l.141.079a9.9,9.9,0,0,0-.917,1.97v.124c-.033,2.74.127,7.641.449,13.8Z" transform="translate(-518.385 -2076.49)"/></g><g transform="translate(34.73 5.156)"><path class="l" d="M517.735,2069.5a23.654,23.654,0,0,0-2.206-2.321l-1.832,3.552,2.234.054a4.574,4.574,0,0,0,1.528-.277.639.639,0,0,0,.383-.819A.624.624,0,0,0,517.735,2069.5Z" transform="translate(-513.697 -2067.178)"/></g><g transform="translate(31.395 5.863)"><g transform="translate(3.743 1.869)"><path class="a" d="M516.649,2075.207a.262.262,0,0,1-.239.28h-1.488l.049-.56h1.439A.262.262,0,0,1,516.649,2075.207Z" transform="translate(-514.923 -2074.927)"/></g><g transform="translate(3.743 0.62)"><path class="a" d="M516.649,2071.45a.262.262,0,0,1-.239.28h-1.488l.049-.559h1.439A.262.262,0,0,1,516.649,2071.45Z" transform="translate(-514.923 -2071.17)"/></g><path class="a" d="M507.972,2070.889c0,.652.113,1.181-1.078,1.181-2.653,0-3.232-.179-3.232-.833s.882-1.933,2.892-1.933C507.743,2069.306,507.972,2070.237,507.972,2070.889Z" transform="translate(-503.661 -2069.304)"/></g><g transform="translate(1.02 15.291)"><path class="a" d="M464.091,2106.647v-1.557c0-4.09-1.945-7.417-6.034-7.417s-6.281,3.327-6.281,7.417v1.528l-22.414-.988v-.54c0-4.09-1.945-7.417-6.034-7.417s-6.28,3.326-6.28,7.417v.5h-4.781c.033.063.062.132.1.192a5.211,5.211,0,0,0,3.494,2.177h1.834a.323.323,0,0,0,.323-.323h0v-2.424c0-3.5,1.584-6.476,5.079-6.6,3.669-.13,5.3,2.805,5.3,6.446v2.255a.645.645,0,0,0,.645.644h23.415a.289.289,0,0,0,.289-.289h0v-.033h0v-2.424c0-3.5,1.584-6.476,5.079-6.6,3.669-.13,5.3,2.805,5.3,6.446v2.578a.322.322,0,0,0,.322.323h1.638a3.052,3.052,0,0,0,2.457-1.433S465.658,2106.613,464.091,2106.647Z" transform="translate(-412.267 -2097.673)"/></g><g transform="translate(43.738 0.646)"><path class="a" d="M555.638,2060.646c-1.422-1.689-4.842-5.26-9.1-6.361a23.259,23.259,0,0,0-4.769-.678H540.8a23.258,23.258,0,0,1,4.769.678c4.261,1.1,7.679,4.672,9.1,6.361a.322.322,0,0,1-.248.528h.967a.322.322,0,0,0,.248-.528Z" transform="translate(-540.799 -2053.607)"/></g></g><g transform="translate(9205 2081.017)"><path class="m" d="M472.881,2021.4a48.333,48.333,0,1,0-96.262,6.26h95.859A48.762,48.762,0,0,0,472.881,2021.4Z" transform="translate(-376.216 -1973.07)"/><g transform="translate(77.165 16.747)"><path class="d" d="M615.426,2035.666a39.092,39.092,0,0,0-6.573-9.4,1.651,1.651,0,0,1,.012-2.291l.016-.017a1.65,1.65,0,0,1,2.375.013,42.39,42.39,0,0,1,7.152,10.228,1.65,1.65,0,0,1-.8,2.235l-.022.01A1.652,1.652,0,0,1,615.426,2035.666Z" transform="translate(-608.397 -2023.459)"/></g><g transform="translate(71.817 11.984)"><path class="d" d="M594.25,2013.121q-.625-.506-1.27-.986a1.657,1.657,0,0,1-.39-2.264l.013-.02a1.645,1.645,0,0,1,2.335-.4q.726.54,1.43,1.111a1.645,1.645,0,0,1,.187,2.362l-.016.017A1.655,1.655,0,0,1,594.25,2013.121Z" transform="translate(-592.305 -2009.129)"/></g><g transform="translate(20.053 6.28)"><path class="d" d="M437.044,2002.949l-.016-.017a1.649,1.649,0,0,1,.068-2.375,42.764,42.764,0,0,1,14.219-8.5,1.649,1.649,0,0,1,2.123,1.069l.007.022a1.651,1.651,0,0,1-1.03,2.044,39.439,39.439,0,0,0-13.083,7.817A1.651,1.651,0,0,1,437.044,2002.949Z" transform="translate(-436.556 -1991.967)"/></g></g></g></svg>