<svg xmlns="http://www.w3.org/2000/svg" width="134.072" height="37.971" viewBox="0 0 134.072 37.971"><defs><style>.a{fill:#ea0f8f;}.b{fill:#fff;}</style></defs><g transform="translate(-585 -298.714)"><g transform="translate(-13.053 -58.701)"><path class="a" d="M720.937,395.386H607.607c-5.886,0-10.371-6.4-9.429-13.448l1.975-14.786c.75-5.613,4.744-9.737,9.429-9.737H722.57c5.78,0,10.236,6.181,9.468,13.133l-1.633,14.782C729.769,391.092,725.722,395.386,720.937,395.386Z"/><path class="b" d="M627.448,383.137a6.746,6.746,0,0,1-5.25,2.175c-4.96,0-8.15-3.045-8.15-8.093,0-6.062,4.5-11.4,10.906-11.4a9.019,9.019,0,0,1,6.382,2.176,3.3,3.3,0,0,1,1.073,2.233c0,2.146-2.582,2.146-2.7,2a5.09,5.09,0,0,0-4.67-2.755c-3.771,0-6.614,3.307-6.614,7.4-.029,3.219,1.915,5.163,4.874,5.163a4.7,4.7,0,0,0,4.931-4.09h-3.392c-1.015,0-1.566-.436-1.566-1.1a3.1,3.1,0,0,1,.609-1.74,1.8,1.8,0,0,1,1.421-.406h5.569c1.306,0,1.8.667,1.48,2.089l-1.683,7.943c-.029.116-.522.349-1.247.349a1.778,1.778,0,0,1-1.97-1.562A1.876,1.876,0,0,1,627.448,383.137Z"/><path class="b" d="M645.283,377.8l1.624,2.756c.958,1.6,1.509,2.089,2.785,2.2.145.029.2,2.378-2.669,2.378-1.682,0-2.61-.667-4-3.277l-1.975-3.564h-1.741l-1.015,4.845c-.29,1.3-.9,1.944-2.146,1.944h-.58c-1.161,0-1.828-.726-1.538-2.06l3.1-14.619a2.474,2.474,0,0,1,2.669-2.2h4.669c4.671,0,7.049,1.827,7.049,5.221C651.519,374.986,649.228,377.422,645.283,377.8ZM643.4,375.16c2.524,0,3.771-1.3,3.771-3.307,0-1.508-1.1-2.32-3.161-2.32h-2.9l-1.189,5.627Z"/><path class="b" d="M651.311,383.252a4.214,4.214,0,0,1,.929-2.349l8.208-13.663c.494-.812,1.074-1.218,2.756-1.218,1.944,0,2.466.551,2.611,1.334l3.161,16.418c.058.348-1.16,1.363-2.436,1.363-1.1,0-1.77-.638-1.973-2l-.551-2.959h-6.845l-2.814,4.989C654.3,385.252,651.311,385.341,651.311,383.252Zm12.473-6.265-1.218-6.788-3.916,6.788Z"/><path class="b" d="M674.774,383.021l2.784-13.082h-4.089c-1.19,0-1.828-.493-1.828-1.276a3.56,3.56,0,0,1,.7-2c.319-.319.725-.464,1.682-.464h12.648c1.16,0,1.827.493,1.827,1.276a3.393,3.393,0,0,1-.725,2c-.319.318-.7.464-1.654.464h-4.264l-2.813,13.2c-.29,1.3-.9,1.944-2.147,1.944h-.58C675.122,385.081,674.484,384.352,674.774,383.021Z"/><path class="b" d="M687.561,383.021l3.191-15c.32-1.334.9-1.943,2.118-1.943h.638c1.16,0,1.827.725,1.537,2.059l-3.191,15c-.29,1.363-.9,1.944-2.117,1.944h-.609C687.939,385.081,687.271,384.352,687.561,383.021Z"/><path class="b" d="M695.855,383.252a3.254,3.254,0,0,1-1.073-2.262,2.323,2.323,0,0,1,1.741-2.118,6.882,6.882,0,0,0,5.83,3.132c2.088,0,3.074-.87,3.074-2.32,0-1.306-1.45-1.8-3.335-2.523-2.263-.9-4.757-2.118-4.757-5.367,0-3.162,2.407-5.975,7.339-5.975,2.929,0,4.96.812,6.062,1.943a2.845,2.845,0,0,1,.957,2.06,2.379,2.379,0,0,1-1.885,2.233,6.046,6.046,0,0,0-5.221-2.9c-1.857,0-3.017.957-3.017,2.2,0,1.392,1.508,1.886,3.567,2.726,2.437.929,4.932,2.119,4.932,5.163,0,3.511-2.495,6.092-7.745,6.092C699.278,385.341,697.073,384.471,695.855,383.252Z"/></g></g></svg>