<svg id="Capa_1" data-name="Capa 1" xmlns="http://www.w3.org/2000/svg" viewBox="0 0 9.17 10.48"><title>campana-naranja</title><path id="Icon_awesome-bell" data-name="Icon awesome-bell" d="M4.59,10.48a1.31,1.31,0,0,0,1.3-1.31H3.28A1.31,1.31,0,0,0,4.59,10.48ZM9,7.41A3.81,3.81,0,0,1,7.86,4.26,3.24,3.24,0,0,0,5.24,1.08V.65A.66.66,0,0,0,3.93.6v.48A3.24,3.24,0,0,0,1.31,4.26,3.81,3.81,0,0,1,.18,7.41.63.63,0,0,0,0,7.86a.64.64,0,0,0,.66.65H8.51a.65.65,0,0,0,.66-.65h0A.63.63,0,0,0,9,7.41Z" fill="#ff8000"/></svg>