<svg xmlns="http://www.w3.org/2000/svg" width="87.692" height="84.462" viewBox="0 0 87.692 84.462"><defs><style>.a{fill:#8bafe2;}.b,.j{fill:#fff;}.b,.d,.e,.f,.g,.h{fill-rule:evenodd;}.c{fill:#7d85c1;}.d{fill:#5a83d1;opacity:0.312;}.e{fill:#0855c4;}.f{fill:#ebcbab;}.g{fill:#ffe73c;}.h{fill:#dacd71;}.i{fill:#ea0000;}</style></defs><g transform="translate(-608.713 -229.677)"><g transform="translate(608.713 229.677)"><g transform="translate(0 0)"><ellipse class="a" cx="42.924" cy="42.231" rx="42.924" ry="42.231"/></g><g transform="translate(12.663 24.295)"><path class="b" d="M505.94,85.2h38.908a2.962,2.962,0,0,1,2.956,2.956v23.32a2.965,2.965,0,0,1-2.956,2.972H505.94a2.978,2.978,0,0,1-2.972-2.972V88.155A2.975,2.975,0,0,1,505.94,85.2Z" transform="translate(-487.284 -85.199)"/><rect class="c" width="44.837" height="5.091" transform="translate(15.684 8.158)"/><path class="d" d="M511.428,107.846h23.62v3.542h-23.62Zm32.6,0h-7.4v3.542h7.4Z" transform="translate(-489.626 -91.468)"/><path class="e" d="M484.237,94.358h38.908a2.976,2.976,0,0,1,2.972,2.956v23.32a2.979,2.979,0,0,1-2.972,2.972H484.237a2.966,2.966,0,0,1-2.956-2.972V97.314a2.963,2.963,0,0,1,2.956-2.956Z" transform="translate(-481.281 -87.734)"/><path class="f" d="M486.449,117.947h36.837a.951.951,0,0,1,.949.948v2.023a.951.951,0,0,1-.949.949H486.449a.951.951,0,0,1-.948-.949V118.9a.951.951,0,0,1,.948-.948Z" transform="translate(-482.449 -94.264)"/><path class="g" d="M490.29,102.928h5.248a1.876,1.876,0,0,1,1.882,1.881v1.85a1.876,1.876,0,0,1-1.882,1.882H490.29a1.886,1.886,0,0,1-1.882-1.882v-1.85a1.886,1.886,0,0,1,1.882-1.881Z" transform="translate(-483.254 -90.106)"/><path class="h" d="M490.29,102.928h1.644v2.561h-3.526v-.68a1.886,1.886,0,0,1,1.882-1.881Zm2.624,0h2.624a1.876,1.876,0,0,1,1.882,1.881v.68h-4.506Zm4.506,3.6v.127a1.876,1.876,0,0,1-1.882,1.882H490.29a1.886,1.886,0,0,1-1.882-1.882v-.127Z" transform="translate(-483.254 -90.106)"/></g></g><g transform="translate(667.634 281.928)"><circle class="i" cx="14.385" cy="14.385" r="14.385" transform="translate(0)"/><g transform="translate(7.159 6.747)"><path class="j" d="M2201.814,886.431l2.264,3.412c.59.886,1.083,1.706,1.607,2.591h.1c.524-.951,1.049-1.771,1.574-2.625l2.231-3.379h3.117l-5.413,7.677,5.577,8.2h-3.28l-2.33-3.576c-.623-.919-1.148-1.8-1.706-2.756h-.066c-.525.951-1.083,1.8-1.673,2.756l-2.3,3.576h-3.182l5.643-8.1-5.38-7.775Z" transform="translate(-2198.337 -886.431)"/></g></g></g></svg>