<svg xmlns="http://www.w3.org/2000/svg" xmlns:xlink="http://www.w3.org/1999/xlink" width="294" height="104" viewBox="0 0 294 104"><defs><style>.a{fill:#fff;}.b{fill:#2ed35a;}.c{clip-path:url(#c);}.d{clip-path:url(#d);}.e{clip-path:url(#e);}.f{filter:url(#a);}</style><filter id="a" x="0" y="0" width="294" height="104" filterUnits="userSpaceOnUse"><feOffset dy="3" input="SourceAlpha"/><feGaussianBlur stdDeviation="3" result="b"/><feFlood flood-color="#000b8e" flood-opacity="0.161"/><feComposite operator="in" in2="b"/><feComposite in="SourceGraphic"/></filter><clipPath id="c"><path class="a" d="M1706.666-913.211A26.588,26.588,0,0,0,1687.791-921a26.715,26.715,0,0,0-18.9,7.782A26.314,26.314,0,0,0,1661-894.431v.013a26.426,26.426,0,0,0,3.265,12.552l-3.191,14.5,14.668-3.336a26.838,26.838,0,0,0,12.039,2.861h.011a26.724,26.724,0,0,0,18.9-7.783,26.278,26.278,0,0,0,7.888-18.787A26.408,26.408,0,0,0,1706.666-913.211Zm-18.875,41.185h-.008a22.633,22.633,0,0,1-10.756-2.726l-.695-.376-9.751,2.218,2.118-9.628-.408-.7a22.367,22.367,0,0,1-3.1-11.179,22.537,22.537,0,0,1,22.6-22.392,22.421,22.421,0,0,1,15.921,6.568,22.249,22.249,0,0,1,6.686,15.834A22.527,22.527,0,0,1,1687.791-872.027Z" transform="translate(-1661 921)"/></clipPath><clipPath id="d"><path class="a" d="M447,748.573H3140.713V-935H447Z" transform="translate(-447 935)"/></clipPath><clipPath id="e"><path class="a" d="M1673.73-913.056h-1.175a2.256,2.256,0,0,0-1.635.764,6.841,6.841,0,0,0-2.143,5.094c0,3.005,2.2,5.909,2.5,6.317s4.238,6.771,10.468,9.22c5.178,2.035,6.231,1.63,7.354,1.528s3.627-1.477,4.138-2.9a5.083,5.083,0,0,0,.358-2.9c-.153-.255-.563-.407-1.175-.713s-3.616-1.808-4.179-2.012-.969-.305-1.379.307-1.613,2.023-1.97,2.43-.714.459-1.328.153a16.947,16.947,0,0,1-4.907-3.043,18.767,18.767,0,0,1-3.443-4.3c-.358-.611-.039-.941.268-1.246.277-.273.649-.648.954-1a4.062,4.062,0,0,0,.6-1.019,1.124,1.124,0,0,0-.051-1.07c-.153-.306-1.33-3.326-1.874-4.534h0c-.461-1.017-.943-1.052-1.379-1.07Z" transform="translate(-1668.777 913.056)"/></clipPath></defs><g transform="translate(-111.999 -616)"><g transform="translate(121 622.289)"><g class="f" transform="matrix(1, 0, 0, 1, -9, -6.29)"><rect class="b" width="276" height="86" rx="43" transform="translate(9 6)"/></g><g transform="translate(21.935 15.979)"><g class="c" transform="translate(0 0)"><g class="d" transform="translate(-2270.949 -26.189)"><path class="a" d="M1656-853.659h72.289V-926H1656Z" transform="translate(605.596 942.836)"/></g></g><g class="e" transform="translate(14.548 14.861)"><g class="d" transform="translate(-2285.497 -41.05)"><path class="a" d="M1663.777-876.325h43.615v-41.73h-43.615Z" transform="translate(612.368 949.752)"/></g></g></g><path class="a" d="M4.845-10.127h.266a.937.937,0,0,0,1.026-1.045V-11.4a.923.923,0,0,0-1.026-1.026H4.845A.928.928,0,0,0,3.8-11.4v.228A.942.942,0,0,0,4.845-10.127ZM4.465.228A4.428,4.428,0,0,0,7.543-.836a2.816,2.816,0,0,0,.988-1.938C8.531-3.8,7.22-3.838,7.2-3.781A2.576,2.576,0,0,1,4.5-1.368c-1.368,0-2.147-.7-2.147-1.786,0-.988.836-1.349,1.691-1.919A3.428,3.428,0,0,0,5.814-8.132c.019-.437-.323-.646-.8-.646-.437,0-.741.133-.779.418-.038,1.349-.969,1.9-1.9,2.508A3.215,3.215,0,0,0,.494-3C.494-1.121,1.995.228,4.465.228Zm5.947-1.311A1.082,1.082,0,0,0,11.495,0h2.869c4.218,0,6.764-2.337,6.764-6.175s-2.489-6.118-6.669-6.118h-3a1.034,1.034,0,0,0-1.045,1.1Zm3.99-.608H12.35V-10.6h2.071c2.964,0,4.731,1.653,4.731,4.446C19.152-3.325,17.4-1.691,14.4-1.691ZM30.628-9.234h-.209c-.475,0-.817.228-.817.912v5.3a2.745,2.745,0,0,1-2.508,1.615c-1.387,0-2.185-.931-2.185-2.508V-8.322c0-.7-.342-.912-.836-.912h-.209c-.475,0-.817.228-.817.912v4.636c0,2.28,1.1,3.914,3.515,3.914a3.55,3.55,0,0,0,3.04-1.6,2.611,2.611,0,0,0,.076.589A1.064,1.064,0,0,0,30.8.076a.911.911,0,0,0,.665-.209V-8.322C31.464-9.025,31.122-9.234,30.628-9.234ZM37.506.247A3.654,3.654,0,0,0,40.717-1.52v.7c0,.684.342.893.836.893h.19c.494,0,.836-.209.836-.893V-11.438c0-1.311-.608-1.615-1.2-1.615a.977.977,0,0,0-.684.209v4.978a3.689,3.689,0,0,0-3.135-1.5c-2.527,0-4.332,1.919-4.332,4.807S35.055.247,37.506.247ZM40.717-3.99a2.751,2.751,0,0,1-2.85,2.679c-1.634,0-2.812-1.349-2.812-3.249,0-1.957,1.14-3.249,2.85-3.249a2.852,2.852,0,0,1,2.812,1.881Zm3.648,1.6c0,1.558,1.159,2.6,3.116,2.6a3.951,3.951,0,0,0,3.287-1.577,2.826,2.826,0,0,0,.076.627,1.019,1.019,0,0,0,1.083.836c.342,0,.684-.114.684-.209v-5.6c0-2.318-1.406-3.648-3.99-3.648a4.851,4.851,0,0,0-3.287,1.045,1.66,1.66,0,0,0-.627,1.14c0,.912,1.159.931,1.159.912a2.761,2.761,0,0,1,2.622-1.558,1.986,1.986,0,0,1,2.261,2.147v.19H50.5C46.379-5.415,44.365-4.5,44.365-2.394ZM50.749-3.61a2.56,2.56,0,0,1-2.812,2.47c-1.083,0-1.729-.513-1.729-1.33,0-1.235,1.368-1.729,4.028-1.824l.513-.019ZM54.891-.57a5.458,5.458,0,0,0,3.135.8c2.356,0,3.8-1.121,3.8-2.869,0-1.976-1.957-2.394-3.363-2.7-1.482-.323-2.28-.513-2.28-1.349,0-.76.684-1.254,1.976-1.254A3.3,3.3,0,0,1,60.838-6.65a1,1,0,0,0,.76-.874,1.115,1.115,0,0,0-.228-.646c-.437-.646-1.539-1.2-3.287-1.2-2.223,0-3.648,1.159-3.648,2.869,0,1.938,1.862,2.356,3.211,2.641,1.5.323,2.356.494,2.356,1.425,0,.76-.722,1.235-2.014,1.235A3.762,3.762,0,0,1,54.91-2.565a.961.961,0,0,0-.741.855A1.5,1.5,0,0,0,54.891-.57ZM66.329-4.579A4.6,4.6,0,0,0,71.117.247,4.6,4.6,0,0,0,75.9-4.541a4.615,4.615,0,0,0-4.769-4.826A4.6,4.6,0,0,0,66.329-4.579Zm7.828.038a3.066,3.066,0,0,1-3.04,3.249,3.1,3.1,0,0,1-3.059-3.287,3.07,3.07,0,0,1,3.059-3.249A3.066,3.066,0,0,1,74.157-4.541Zm6.194-.038A4.621,4.621,0,0,0,85.1.247,4.511,4.511,0,0,0,88.065-.7a2.245,2.245,0,0,0,.95-1.558c0-.817-1.064-.95-1.121-.855A2.727,2.727,0,0,1,85.139-1.33a3.037,3.037,0,0,1-3-3.249,3.026,3.026,0,0,1,3-3.211A2.71,2.71,0,0,1,87.894-6c.057.1,1.121-.057,1.121-.836a2.273,2.273,0,0,0-.931-1.577,4.569,4.569,0,0,0-2.983-.95A4.622,4.622,0,0,0,80.351-4.579Zm9.8,0A4.6,4.6,0,0,0,94.943.247a4.6,4.6,0,0,0,4.788-4.788,4.615,4.615,0,0,0-4.769-4.826A4.6,4.6,0,0,0,90.155-4.579Zm7.828.038a3.066,3.066,0,0,1-3.04,3.249,3.1,3.1,0,0,1-3.059-3.287,3.07,3.07,0,0,1,3.059-3.249A3.066,3.066,0,0,1,97.983-4.541ZM106.4-9.367a3.545,3.545,0,0,0-3.04,1.615c-.038-1.216-.665-1.482-1.178-1.482a.934.934,0,0,0-.684.209V-.817c0,.684.342.893.836.893h.209c.475,0,.836-.209.836-.893v-5.3a2.762,2.762,0,0,1,2.565-1.6c1.33,0,2.109.95,2.109,2.489V-.817c0,.684.342.893.836.893h.209c.475,0,.836-.209.836-.893V-5.453C109.934-7.714,108.813-9.367,106.4-9.367Zm5.814,8.8a5.458,5.458,0,0,0,3.135.8c2.356,0,3.8-1.121,3.8-2.869,0-1.976-1.957-2.394-3.363-2.7-1.482-.323-2.28-.513-2.28-1.349,0-.76.684-1.254,1.976-1.254a3.3,3.3,0,0,1,2.679,1.292,1,1,0,0,0,.76-.874,1.115,1.115,0,0,0-.228-.646c-.437-.646-1.539-1.2-3.287-1.2-2.223,0-3.648,1.159-3.648,2.869,0,1.938,1.862,2.356,3.211,2.641,1.5.323,2.356.494,2.356,1.425,0,.76-.722,1.235-2.014,1.235a3.762,3.762,0,0,1-3.078-1.368.961.961,0,0,0-.741.855A1.5,1.5,0,0,0,112.214-.57Zm16.264-8.664h-.209c-.475,0-.817.228-.817.912v5.3a2.745,2.745,0,0,1-2.508,1.615c-1.387,0-2.185-.931-2.185-2.508V-8.322c0-.7-.342-.912-.836-.912h-.209c-.475,0-.817.228-.817.912v4.636c0,2.28,1.1,3.914,3.515,3.914a3.55,3.55,0,0,0,3.04-1.6,2.611,2.611,0,0,0,.076.589,1.064,1.064,0,0,0,1.121.855.911.911,0,0,0,.665-.209V-8.322C129.314-9.025,128.972-9.234,128.478-9.234Zm4.085,9.31h.19c.494,0,.836-.209.836-.893V-11.438c0-1.311-.608-1.615-1.2-1.615a.977.977,0,0,0-.684.209V-.817C131.708-.133,132.069.076,132.563.076Zm6.859.171A2.57,2.57,0,0,0,141.151-.3a1.128,1.128,0,0,0,.4-.836c0-.589-.475-.855-.532-.8a1.547,1.547,0,0,1-1.292.646c-.893,0-1.216-.551-1.216-1.691V-7.6h2.071c.589,0,.817-.247.817-.722v-.133c0-.456-.209-.684-.8-.684h-2.071v-1.406c0-.7-.323-.893-.817-.893h-.19c-.513,0-.836.247-.836.893v1.406h-.665c-.589,0-.817.247-.817.7V-8.3c0,.456.228.7.817.7h.665v4.826C136.686-.8,137.541.247,139.422.247Zm3.1-2.641c0,1.558,1.159,2.6,3.116,2.6a3.951,3.951,0,0,0,3.287-1.577A2.825,2.825,0,0,0,149-.741a1.019,1.019,0,0,0,1.083.836c.342,0,.684-.114.684-.209v-5.6c0-2.318-1.406-3.648-3.99-3.648a4.851,4.851,0,0,0-3.287,1.045,1.66,1.66,0,0,0-.627,1.14c0,.912,1.159.931,1.159.912a2.761,2.761,0,0,1,2.622-1.558A1.987,1.987,0,0,1,148.9-5.681v.19h-.247C144.533-5.415,142.519-4.5,142.519-2.394ZM148.9-3.61a2.56,2.56,0,0,1-2.812,2.47c-1.083,0-1.729-.513-1.729-1.33,0-1.235,1.368-1.729,4.028-1.824l.513-.019Zm4.142,3.04a5.458,5.458,0,0,0,3.135.8c2.356,0,3.8-1.121,3.8-2.869,0-1.976-1.957-2.394-3.363-2.7-1.482-.323-2.28-.513-2.28-1.349,0-.76.684-1.254,1.976-1.254a3.3,3.3,0,0,1,2.679,1.292,1,1,0,0,0,.76-.874,1.115,1.115,0,0,0-.228-.646c-.437-.646-1.539-1.2-3.287-1.2-2.223,0-3.648,1.159-3.648,2.869,0,1.938,1.862,2.356,3.211,2.641,1.5.323,2.356.494,2.356,1.425,0,.76-.722,1.235-2.014,1.235a3.762,3.762,0,0,1-3.078-1.368.961.961,0,0,0-.741.855A1.5,1.5,0,0,0,153.045-.57ZM164.73-3.515c.437,0,.741-.133.779-.418.038-1.349.969-1.9,1.9-2.508a3.215,3.215,0,0,0,1.843-2.85c0-1.881-1.5-3.23-3.971-3.23a4.428,4.428,0,0,0-3.078,1.064,2.816,2.816,0,0,0-.988,1.938c0,1.026,1.311,1.064,1.33,1.007a2.576,2.576,0,0,1,2.7-2.413c1.368,0,2.147.7,2.147,1.786,0,.988-.836,1.349-1.691,1.919a3.428,3.428,0,0,0-1.767,3.059C163.913-3.724,164.255-3.515,164.73-3.515Zm-.1,3.648h.266a.928.928,0,0,0,1.045-1.026v-.228A.942.942,0,0,0,164.9-2.166h-.266a.937.937,0,0,0-1.026,1.045v.228A.923.923,0,0,0,164.635.133ZM2.565,24H9.5c.874,0,1.273-.38,1.273-1.159v-.095c0-.722-.4-1.045-1.273-1.045H3.895V18.832H7.923c.893,0,1.292-.342,1.292-1.083v-.057c0-.7-.38-1.045-1.292-1.045H3.895v-2.6H9.4c.874,0,1.292-.361,1.292-1.121v-.1c0-.741-.418-1.121-1.292-1.121H2.565A1.386,1.386,0,0,0,1.1,13.265v9.2A1.371,1.371,0,0,0,2.565,24Zm9.975-.494a6.1,6.1,0,0,0,3.192.7c2.6,0,4.085-1.121,4.085-2.983,0-2.09-2.09-2.508-3.4-2.793-1.254-.285-1.976-.418-1.976-1.083,0-.589.551-.969,1.577-.969a3.682,3.682,0,0,1,2.717,1.254,1.33,1.33,0,0,0,.855-1.121,1.37,1.37,0,0,0-.228-.76c-.475-.722-1.634-1.235-3.515-1.235-2.394,0-3.857,1.2-3.857,3,0,2.09,1.976,2.508,3.249,2.774,1.235.266,1.976.4,1.976,1.121,0,.589-.57.95-1.615.95a4.053,4.053,0,0,1-3.059-1.254,1.179,1.179,0,0,0-.817,1.064A1.617,1.617,0,0,0,12.54,23.506Zm8.36-4.142a4.664,4.664,0,0,0,4.845,4.9,4.607,4.607,0,0,0,3.021-.95,2.142,2.142,0,0,0,.931-1.558c0-1.159-1.444-1.311-1.5-1.2A2.317,2.317,0,0,1,25.859,22.1a2.531,2.531,0,0,1-2.508-2.736,2.514,2.514,0,0,1,2.508-2.679A2.285,2.285,0,0,1,28.2,18.224c.057.114,1.5-.095,1.5-1.178a2.236,2.236,0,0,0-.912-1.6,4.7,4.7,0,0,0-3.04-.931A4.681,4.681,0,0,0,20.9,19.364Zm15.143-4.845a2.316,2.316,0,0,0-2.3,1.767,4.252,4.252,0,0,0-.133-.646,1.481,1.481,0,0,0-1.463-1.007c-.551,0-1.007.209-1.007.3V22.8c0,.988.494,1.273,1.216,1.273h.285c.684,0,1.178-.3,1.178-1.273V20.029c0-1.862.57-3,1.862-3a1.855,1.855,0,0,1,1.216.456,1.386,1.386,0,0,0,.855-1.406A1.521,1.521,0,0,0,36.043,14.519Zm3.021-.95c.8,0,3.572-.95,3.572-2.394a1.047,1.047,0,0,0-1.083-1.121c-1.577,0-2.869,2.66-2.869,3.249C38.684,13.512,38.817,13.569,39.064,13.569Zm1.2,10.507h.285c.684,0,1.178-.3,1.178-1.273V15.925c0-.988-.475-1.292-1.2-1.292h-.266c-.7,0-1.216.323-1.216,1.292V22.8C39.045,23.791,39.558,24.076,40.261,24.076Zm6.213-1.463a3.276,3.276,0,0,0,2.983,1.653c2.546,0,4.294-2.014,4.294-4.9,0-2.964-1.767-4.845-4.275-4.845a3.489,3.489,0,0,0-2.983,1.52v-3.1c0-1.729-.874-2.147-1.653-2.147a1.509,1.509,0,0,0-1.026.3V22.784c0,1.007.513,1.292,1.216,1.292h.285a.977.977,0,0,0,1.1-.912Zm4.712-3.23a2.435,2.435,0,0,1-2.375,2.736,2.206,2.206,0,0,1-2.318-2.128V18.186a2.445,2.445,0,0,1,4.693,1.2Zm3.629.057c0,2.945,1.976,4.826,5,4.826a5.676,5.676,0,0,0,2.964-.7A1.811,1.811,0,0,0,63.8,22.119c0-1.064-1.292-1.178-1.311-1.14a2.764,2.764,0,0,1-2.6,1.349,2.574,2.574,0,0,1-2.66-1.995l-.057-.3h6.422c.494,0,.627-.247.646-.7v-.171a4.413,4.413,0,0,0-4.617-4.636A4.713,4.713,0,0,0,54.815,19.44Zm6.954-.874h-4.56a2.4,2.4,0,0,1,2.394-2.2A2.105,2.105,0,0,1,61.769,18.566ZM71.4,14.519a3.516,3.516,0,0,0-3.059,1.672,1.538,1.538,0,0,0-1.6-1.558c-.532,0-1.007.209-1.007.3V22.8c0,.988.494,1.273,1.216,1.273h.285c.684,0,1.178-.3,1.178-1.273V17.977a2.24,2.24,0,0,1,2.033-1.216c1.083,0,1.71.76,1.71,2V22.8c0,.988.494,1.273,1.2,1.273h.285c.684,0,1.2-.3,1.2-1.273V18.338C74.841,16.229,73.815,14.519,71.4,14.519Zm4.883,4.845a4.94,4.94,0,0,0,9.88.038,4.941,4.941,0,0,0-9.88-.038Zm7.505.038a2.582,2.582,0,1,1-5.149-.038,2.582,2.582,0,1,1,5.149.038Zm4.1,4.1a6.1,6.1,0,0,0,3.192.7c2.6,0,4.085-1.121,4.085-2.983,0-2.09-2.09-2.508-3.4-2.793-1.254-.285-1.976-.418-1.976-1.083,0-.589.551-.969,1.577-.969a3.682,3.682,0,0,1,2.717,1.254,1.33,1.33,0,0,0,.855-1.121,1.37,1.37,0,0,0-.228-.76c-.475-.722-1.634-1.235-3.515-1.235-2.394,0-3.857,1.2-3.857,3,0,2.09,1.976,2.508,3.249,2.774,1.235.266,1.976.4,1.976,1.121,0,.589-.57.95-1.615.95a4.053,4.053,0,0,1-3.059-1.254,1.179,1.179,0,0,0-.817,1.064A1.617,1.617,0,0,0,87.894,23.506Zm11.59-4.066c0,2.945,1.976,4.826,5,4.826a5.676,5.676,0,0,0,2.964-.7,1.811,1.811,0,0,0,1.026-1.444c0-1.064-1.292-1.178-1.311-1.14a2.764,2.764,0,0,1-2.6,1.349,2.574,2.574,0,0,1-2.66-1.995l-.057-.3h6.422c.494,0,.627-.247.646-.7v-.171a4.413,4.413,0,0,0-4.617-4.636A4.713,4.713,0,0,0,99.484,19.44Zm6.954-.874h-4.56a2.4,2.4,0,0,1,2.394-2.2A2.105,2.105,0,0,1,106.438,18.566Zm9.633-4.047a3.516,3.516,0,0,0-3.059,1.672,1.538,1.538,0,0,0-1.6-1.558c-.532,0-1.007.209-1.007.3V22.8c0,.988.494,1.273,1.216,1.273h.285c.684,0,1.178-.3,1.178-1.273V17.977a2.24,2.24,0,0,1,2.033-1.216c1.083,0,1.71.76,1.71,2V22.8c0,.988.494,1.273,1.2,1.273h.285c.684,0,1.2-.3,1.2-1.273V18.338C119.51,16.229,118.484,14.519,116.071,14.519Zm9.861,9.557h.285c.684,0,1.178-.3,1.178-1.273V12.942c0-1.729-.874-2.147-1.672-2.147a1.485,1.485,0,0,0-1.007.3V22.8C124.716,23.791,125.229,24.076,125.932,24.076Zm3.629-10.507c.8,0,3.572-.95,3.572-2.394a1.047,1.047,0,0,0-1.083-1.121c-1.577,0-2.869,2.66-2.869,3.249C129.181,13.512,129.314,13.569,129.561,13.569Zm1.2,10.507h.285c.684,0,1.178-.3,1.178-1.273V15.925c0-.988-.475-1.292-1.2-1.292h-.266c-.7,0-1.216.323-1.216,1.292V22.8C129.542,23.791,130.055,24.076,130.758,24.076Zm9.215-9.557a3.516,3.516,0,0,0-3.059,1.672,1.538,1.538,0,0,0-1.6-1.558c-.532,0-1.007.209-1.007.3V22.8c0,.988.494,1.273,1.216,1.273h.285c.684,0,1.178-.3,1.178-1.273V17.977a2.24,2.24,0,0,1,2.033-1.216c1.083,0,1.71.76,1.71,2V22.8c0,.988.494,1.273,1.2,1.273h.285c.684,0,1.2-.3,1.2-1.273V18.338C143.412,16.229,142.386,14.519,139.973,14.519Zm4.883,4.921c0,2.945,1.976,4.826,5,4.826a5.676,5.676,0,0,0,2.964-.7,1.811,1.811,0,0,0,1.026-1.444c0-1.064-1.292-1.178-1.311-1.14a2.764,2.764,0,0,1-2.6,1.349,2.574,2.574,0,0,1-2.66-1.995l-.057-.3h6.422c.494,0,.627-.247.646-.7v-.171a4.413,4.413,0,0,0-4.617-4.636A4.713,4.713,0,0,0,144.856,19.44Zm6.954-.874h-4.56a2.4,2.4,0,0,1,2.394-2.2A2.105,2.105,0,0,1,151.81,18.566Zm3.5,2.983c0,1.6,1.178,2.66,3.116,2.66a3.7,3.7,0,0,0,3.211-1.6,3.8,3.8,0,0,0,.152.627,1.384,1.384,0,0,0,1.406.893c.513,0,1.007-.171,1.007-.3V18.357c0-2.489-1.425-3.838-4.37-3.838a5,5,0,0,0-3.61,1.083,1.7,1.7,0,0,0-.57,1.216c0,1.235,1.71,1.1,1.729,1.064a2.323,2.323,0,0,1,2.28-1.349,1.64,1.64,0,0,1,1.881,1.672,1.168,1.168,0,0,1,.019.266h-.3C157.32,18.528,155.306,19.478,155.306,21.549Zm6.251-1.064a2.09,2.09,0,0,1-2.3,1.995c-.893,0-1.444-.437-1.444-1.14,0-1.045,1.121-1.444,3.23-1.52h.513Z" transform="translate(85.999 38.711)"/></g></g></svg>