<svg xmlns="http://www.w3.org/2000/svg" width="319.494" height="128.76" viewBox="0 0 319.494 128.76">
  <g id="Grupo_21326" data-name="Grupo 21326" transform="translate(-1368.288 -1489.043)">
    <g id="Grupo_21297" data-name="Grupo 21297">
      <g id="Grupo_21292" data-name="Grupo 21292">
        <g id="Grupo_21015" data-name="Grupo 21015">
          <g id="Grupo_21277" data-name="Grupo 21277">
            <g id="Grupo_20751" data-name="Grupo 20751">
              <g id="Rectángulo_5795" data-name="Rectángulo 5795">
                <g id="Rectángulo_5799" data-name="Rectángulo 5799">
                  <g id="Rectángulo_5937" data-name="Rectángulo 5937">
                    <g id="Rectángulo_6070" data-name="Rectángulo 6070">
                      <rect id="Rectángulo_6076" data-name="Rectángulo 6076" width="319.494" height="114.596" rx="6" transform="translate(1368.288 1503.208)" fill="#abcaf5"/>
                    </g>
                  </g>
                </g>
              </g>
              <g id="Rectángulo_5929" data-name="Rectángulo 5929">
                <g id="Rectángulo_5938" data-name="Rectángulo 5938">
                  <g id="Rectángulo_6071" data-name="Rectángulo 6071">
                    <rect id="Rectángulo_6077" data-name="Rectángulo 6077" width="163.99" height="45.827" rx="10" transform="translate(1475.257 1489.044)" fill="#ea0d90"/>
                  </g>
                </g>
              </g>
            </g>
          </g>
        </g>
      </g>
      <g id="_15" data-name=" 15">
        <g id="Grupo_21294" data-name="Grupo 21294">
          <g id="Trazado_19990" data-name="Trazado 19990">
            <path id="Trazado_20454" data-name="Trazado 20454" d="M1491.266,1522.058v-15.5a3.4,3.4,0,0,1-2.2.8,3.719,3.719,0,0,1-2.431-.874,3.056,3.056,0,0,1-.95-2.279,2.688,2.688,0,0,1,1.481-2.66,3.539,3.539,0,0,0,2.318.836,3.3,3.3,0,0,0,3.23-2.85h1.634c1.595,0,2.431.874,2.431,2.584v19.947c0,1.672-.836,2.583-2.431,2.583h-.723C1492.063,1524.641,1491.266,1523.73,1491.266,1522.058Z" fill="#f6f8fb"/>
          </g>
          <g id="Trazado_19991" data-name="Trazado 19991">
            <path id="Trazado_20455" data-name="Trazado 20455" d="M1503.008,1523.311c-1.558-.95-2.432-2.128-2.432-3.267,0-1.634,2.128-2.812,2.318-2.622a8.184,8.184,0,0,0,6.763,3.3c3.153,0,5.091-1.557,5.091-4.027s-1.747-3.913-4.9-3.913a7.9,7.9,0,0,0-5.054,1.519c-2.2-.076-3.306-1.026-3.306-3.267v-8.123c0-1.976.836-3.115,2.7-3.115h11.893c1.748,0,2.622.721,2.622,2.2v.19c0,1.482-.836,2.165-2.622,2.165h-9.916v5.51a11.924,11.924,0,0,1,4.483-.912c5.471,0,9.081,2.964,9.081,7.789,0,4.977-3.837,8.169-9.993,8.169A13.207,13.207,0,0,1,1503.008,1523.311Z" fill="#f6f8fb"/>
          </g>
        </g>
      </g>
      <g id="_" data-name=" ">
        <g id="Grupo_21295" data-name="Grupo 21295">
          <g id="Trazado_19992" data-name="Trazado 19992">
            <path id="Trazado_20456" data-name="Trazado 20456" d="M1525.437,1503v-.168a3.2,3.2,0,0,1,3.148-3.261q.126,0,.252.006a3.163,3.163,0,0,1,3.353,2.964q.009.135.006.27v.168a3.383,3.383,0,0,1-6.761.021Zm1.072,9.637a1.5,1.5,0,0,1,.566-1.071l10.562-12.03c.1-.127,1.259.188,1.259.944a1.848,1.848,0,0,1-.567,1.112l-10.561,12.01c-.1.127-1.259-.23-1.259-.965Zm3.716-9.553v-.336a1.426,1.426,0,0,0-1.239-1.59,1.58,1.58,0,0,0-.168-.01,1.4,1.4,0,0,0-1.421,1.378,1.383,1.383,0,0,0,.014.222v.336a1.414,1.414,0,0,0,1.268,1.546c.053.005.106.007.16.007a1.385,1.385,0,0,0,1.393-1.375,1.339,1.339,0,0,0-.01-.178Zm3.044,7.243v-.168a3.216,3.216,0,0,1,3.174-3.259c.076,0,.151,0,.226.005a3.154,3.154,0,0,1,3.353,2.941c.007.1.008.2.006.292v.168a3.383,3.383,0,0,1-6.761.021Zm4.808.063v-.336a1.434,1.434,0,0,0-1.264-1.586,1.1,1.1,0,0,0-.142-.009,1.4,1.4,0,0,0-1.42,1.379,1.309,1.309,0,0,0,.013.216v.336a1.416,1.416,0,1,0,2.813.327A1.381,1.381,0,0,0,1538.077,1510.394Z" fill="#f6f8fb"/>
          </g>
        </g>
      </g>
      <g id="DSCTO">
        <g id="Grupo_21296" data-name="Grupo 21296">
          <g id="Trazado_19993" data-name="Trazado 19993">
            <path id="Trazado_20457" data-name="Trazado 20457" d="M1525.4,1518.419a.525.525,0,0,1,.472-.573.512.512,0,0,1,.067,0h1.149a2.162,2.162,0,0,1,2.415,1.874,2.128,2.128,0,0,1,.015.374,2.2,2.2,0,0,1-2.1,2.3,2.146,2.146,0,0,1-.367-.014h-1.079a.57.57,0,0,1-.574-.568Zm3.089,1.68a1.284,1.284,0,0,0-1.182-1.378,1.211,1.211,0,0,0-.248.005h-.636v2.767h.623a1.3,1.3,0,0,0,1.443-1.394Z" fill="#f6f8fb"/>
          </g>
          <g id="Trazado_19994" data-name="Trazado 19994">
            <path id="Trazado_20458" data-name="Trazado 20458" d="M1529.938,1521.556c0-.287.358-.547.393-.511a1.846,1.846,0,0,0,1.345.609c.539,0,.826-.2.826-.546,0-.406-.455-.49-.987-.609-.722-.161-1.464-.428-1.464-1.359,0-.841.672-1.394,1.763-1.394a2.218,2.218,0,0,1,1.3.337.616.616,0,0,1,.315.5.671.671,0,0,1-.407.539,1.615,1.615,0,0,0-1.2-.554c-.49,0-.784.2-.784.533,0,.392.406.449.967.575.82.181,1.534.517,1.534,1.372,0,.9-.666,1.428-1.856,1.428a2.28,2.28,0,0,1-1.464-.413A.648.648,0,0,1,1529.938,1521.556Z" fill="#f6f8fb"/>
          </g>
          <g id="Trazado_19995" data-name="Trazado 19995">
            <path id="Trazado_20459" data-name="Trazado 20459" d="M1536.322,1517.746a2.194,2.194,0,0,1,1.323.379.9.9,0,0,1,.413.651c0,.455-.581.56-.594.525a1.242,1.242,0,0,0-1.107-.617,1.3,1.3,0,0,0-1.306,1.294c0,.043,0,.085.006.128a1.323,1.323,0,0,0,1.213,1.425c.034,0,.068,0,.1,0a1.159,1.159,0,0,0,1.12-.679c.015-.042.617.063.617.518a.974.974,0,0,1-.434.693,2.216,2.216,0,0,1-1.366.406,2.364,2.364,0,0,1,.013-4.727Z" fill="#f6f8fb"/>
          </g>
          <g id="Trazado_19996" data-name="Trazado 19996">
            <path id="Trazado_20460" data-name="Trazado 20460" d="M1539.873,1518.748h-1.022c-.309,0-.477-.155-.477-.442v-.035c0-.28.168-.427.477-.427h3.06c.315,0,.476.147.476.427v.035c0,.287-.161.442-.476.442h-1v3.186a.419.419,0,0,1-.362.469.48.48,0,0,1-.1,0h-.147c-.281,0-.427-.161-.427-.47Z" fill="#f6f8fb"/>
          </g>
          <g id="Trazado_19997" data-name="Trazado 19997">
            <path id="Trazado_20461" data-name="Trazado 20461" d="M1542.522,1520.111a2.27,2.27,0,0,1,2.17-2.366c.056,0,.112,0,.169,0a2.364,2.364,0,1,1-2.339,2.389Zm3.642,0a1.325,1.325,0,0,0-1.195-1.443,1.081,1.081,0,0,0-.114-.006,1.3,1.3,0,0,0-1.308,1.292c0,.05,0,.1.008.15a1.313,1.313,0,0,0,2.611.279,1.3,1.3,0,0,0,0-.272Z" fill="#f6f8fb"/>
          </g>
        </g>
      </g>
      <g id="Grupo_21294-2" data-name="Grupo 21294-2">
        <g id="Grupo_21285" data-name="Grupo 21285">
          <g id="Trazado_19972" data-name="Trazado 19972">
            <g id="Trazado_19998" data-name="Trazado 19998">
              <path id="Trazado_20462" data-name="Trazado 20462" d="M1426.5,1524.375a36.5,36.5,0,1,1-36.5,36.5,36.5,36.5,0,0,1,36.5-36.5Z" fill="#065fe0"/>
            </g>
          </g>
        </g>
        <g id="Trazado_19960" data-name="Trazado 19960">
          <g id="Trazado_19999" data-name="Trazado 19999">
            <path id="Trazado_20463" data-name="Trazado 20463" d="M1426.612,1597.368a36.465,36.465,0,0,0,30.668-16.7h-61.336A36.47,36.47,0,0,0,1426.612,1597.368Z" fill="#fff"/>
          </g>
        </g>
        <g id="Grupo_21286" data-name="Grupo 21286">
          <g id="Rectángulo_6067" data-name="Rectángulo 6067">
            <g id="Rectángulo_6072" data-name="Rectángulo 6072">
              <rect id="Rectángulo_6078" data-name="Rectángulo 6078" width="4.962" height="1.196" transform="translate(1430.892 1535.341) rotate(-86.788)" fill="#fff"/>
            </g>
          </g>
          <g id="Rectángulo_6068" data-name="Rectángulo 6068">
            <g id="Rectángulo_6073" data-name="Rectángulo 6073">
              <rect id="Rectángulo_6079" data-name="Rectángulo 6079" width="4.964" height="1.197" transform="matrix(0.422, -0.907, 0.907, 0.422, 1435.364, 1536.695)" fill="#fff"/>
            </g>
          </g>
          <g id="Rectángulo_6069" data-name="Rectángulo 6069">
            <g id="Rectángulo_6074" data-name="Rectángulo 6074">
              <rect id="Rectángulo_6080" data-name="Rectángulo 6080" width="4.964" height="1.197" transform="matrix(0.732, -0.681, 0.681, 0.732, 1439.408, 1539.4)" fill="#fff"/>
            </g>
          </g>
        </g>
        <g id="Trazado_19961" data-name="Trazado 19961">
          <g id="Trazado_20000" data-name="Trazado 20000">
            <path id="Trazado_20464" data-name="Trazado 20464" d="M1413.544,1578.759V1585s3.306,3.119,8.265,0v-6.238Z" fill="#dea391"/>
          </g>
        </g>
        <g id="Trazado_19962" data-name="Trazado 19962">
          <g id="Trazado_20001" data-name="Trazado 20001">
            <path id="Trazado_20465" data-name="Trazado 20465" d="M1429.6,1578.759V1585s3.306,3.119,8.265,0v-6.238Z" fill="#dea391"/>
          </g>
        </g>
        <g id="Trazado_19963" data-name="Trazado 19963">
          <g id="Trazado_20002" data-name="Trazado 20002">
            <path id="Trazado_20466" data-name="Trazado 20466" d="M1426.8,1549.286c-9.974,0-18.374,5.283-20.9,12.475h-2.8a16.82,16.82,0,0,0-.7,5.365,12.763,12.763,0,0,0,.7,4.3h3.04c2.781,6.872,10.98,11.852,20.664,11.852,11.971,0,21.676-7.61,21.676-17S1438.77,1549.286,1426.8,1549.286Z" fill="#ecb7a7"/>
          </g>
        </g>
        <g id="Grupo_21287" data-name="Grupo 21287">
          <g id="Trazado_19964" data-name="Trazado 19964">
            <g id="Trazado_20003" data-name="Trazado 20003">
              <path id="Trazado_20467" data-name="Trazado 20467" d="M1412.139,1554.276s-.312-4.99,2.183-8.109c0,0,2.638,2.083,3.329,7.689a1.265,1.265,0,0,1-.965,1.383C1415.467,1555.53,1413.468,1555.711,1412.139,1554.276Z" fill="#dea391"/>
            </g>
          </g>
          <g id="Trazado_19965" data-name="Trazado 19965">
            <g id="Trazado_20004" data-name="Trazado 20004">
              <path id="Trazado_20468" data-name="Trazado 20468" d="M1412.135,1554.276s-.307-4.99,2.188-8.109c0,0,1.884,2.807,2.183,9.2C1416.5,1555.368,1413.387,1555.992,1412.135,1554.276Z" fill="#ecb7a7"/>
            </g>
          </g>
        </g>
        <g id="Grupo_21288" data-name="Grupo 21288">
          <g id="Trazado_19966" data-name="Trazado 19966">
            <g id="Trazado_20005" data-name="Trazado 20005">
              <path id="Trazado_20469" data-name="Trazado 20469" d="M1426.8,1580.942c-9.684,0-17.883-4.98-20.664-11.852h-3.6a11.135,11.135,0,0,0,.562,2.339h3.04c2.781,6.872,10.98,11.852,20.664,11.852,11.971,0,21.676-7.61,21.676-17,0-.393-.019-.783-.052-1.17C1447.656,1573.956,1438.269,1580.942,1426.8,1580.942Z" fill="#dea391"/>
            </g>
          </g>
        </g>
        <g id="Trazado_19967" data-name="Trazado 19967">
          <g id="Trazado_20006" data-name="Trazado 20006">
            <path id="Trazado_20470" data-name="Trazado 20470" d="M1449.257,1565.8c.041.269.062.5.081.75s.027.491.029.739a6.954,6.954,0,0,1-.139,1.516,3.262,3.262,0,0,1-.273.785,1.725,1.725,0,0,1-.631.7,1.423,1.423,0,0,1-.464.175,1.692,1.692,0,0,1-.234.025h-.113a.989.989,0,0,1-.144-.013.923.923,0,0,1-.508-.265,1.166,1.166,0,0,1-.258-.414,1.686,1.686,0,0,1-.083-.839,1.489,1.489,0,0,1,.331-.763,1.119,1.119,0,0,1,.738-.387,1.675,1.675,0,0,1,.754.116,3.208,3.208,0,0,1,1.153.836,8.64,8.64,0,0,1,.871,1.083,8.685,8.685,0,0,0-.965-.983,2.937,2.937,0,0,0-1.139-.668,1.341,1.341,0,0,0-.611-.009.691.691,0,0,0-.42.3,1.089,1.089,0,0,0-.006,1.034.439.439,0,0,0,.13.151.147.147,0,0,0,.106.027l.088-.016a.8.8,0,0,0,.107-.032.548.548,0,0,0,.165-.1,1.374,1.374,0,0,0,.3-.914,5.886,5.886,0,0,0-.091-1.243c-.036-.212-.08-.424-.129-.634s-.108-.43-.167-.61a.784.784,0,0,1,1.47-.543c.006.019.013.038.018.058a1.029,1.029,0,0,1,.029.122Z" fill="#ecb7a7"/>
          </g>
        </g>
        <g id="Grupo_21289" data-name="Grupo 21289">
          <g id="Trazado_19968" data-name="Trazado 19968">
            <g id="Trazado_20007" data-name="Trazado 20007">
              <path id="Trazado_20471" data-name="Trazado 20471" d="M1422.014,1555.287a1.23,1.23,0,0,1-.114-2.448,45.247,45.247,0,0,1,15.382.543,1.23,1.23,0,1,1-.509,2.407,42.782,42.782,0,0,0-14.534-.513A1.127,1.127,0,0,1,1422.014,1555.287Z" fill="#665853"/>
            </g>
          </g>
        </g>
        <g id="Grupo_14422" data-name="Grupo 14422">
          <g id="Elipse_998" data-name="Elipse 998">
            <g id="Elipse_1937" data-name="Elipse 1937">
              <circle id="Elipse_1947" data-name="Elipse 1947" cx="10.227" cy="10.227" r="10.227" transform="translate(1419.322 1538.178)" fill="#ffc817"/>
            </g>
          </g>
          <g id="Trazado_12900" data-name="Trazado 12900">
            <g id="Trazado_20008" data-name="Trazado 20008">
              <path id="Trazado_20472" data-name="Trazado 20472" d="M1429.329,1553.479c-1.767-.029-2.966-.983-2.966-1.682,0-.343.3-.816.655-.816.471,0,.855,1,2.31,1.113v-3.35c-1.283-.456-2.708-.969-2.708-2.794,0-1.8,1.354-2.509,2.708-2.651v-.413a.377.377,0,0,1,.413-.328c.214,0,.428.156.428.328v.385c.969.029,2.338.328,2.338,1.026,0,.271-.2.816-.627.816-.342,0-.713-.456-1.71-.527v2.892c1.24.456,2.6,1.084,2.6,3.022a2.762,2.762,0,0,1-2.577,2.935h-.019v.484c0,.171-.213.328-.428.328a.376.376,0,0,1-.413-.328v-.441Zm.085-6.272v-2.6c-.8.1-1.368.456-1.368,1.2,0,.811.613,1.11,1.368,1.4Zm.667,1.854v3.007a1.355,1.355,0,0,0,1.254-1.409,1.668,1.668,0,0,0-1.252-1.6Z" fill="#a0762c"/>
            </g>
          </g>
        </g>
        <g id="Trazado_19969" data-name="Trazado 19969">
          <g id="Trazado_20009" data-name="Trazado 20009">
            <path id="Trazado_20473" data-name="Trazado 20473" d="M1422.014,1555.284a44.424,44.424,0,0,1,14.76.5l1.485,3.478-15.033.281Z" fill="#ecb7a7"/>
          </g>
        </g>
        <g id="Grupo_21290" data-name="Grupo 21290">
          <g id="Trazado_19970" data-name="Trazado 19970">
            <g id="Trazado_20010" data-name="Trazado 20010">
              <path id="Trazado_20474" data-name="Trazado 20474" d="M1413.867,1560.733a.47.47,0,0,1-.573-.174,1.914,1.914,0,0,0-2.979-.225.471.471,0,0,1-.594.087h0a.464.464,0,0,1-.16-.637h0a.478.478,0,0,1,.049-.067,2.853,2.853,0,0,1,4.031-.174h0a2.91,2.91,0,0,1,.438.508.467.467,0,0,1-.14.644.332.332,0,0,1-.075.039Z" fill="#966a61"/>
            </g>
          </g>
        </g>
        <g id="Trazado_19971" data-name="Trazado 19971">
          <g id="Trazado_20011" data-name="Trazado 20011">
            <path id="Trazado_20475" data-name="Trazado 20475" d="M1415.693,1531.626l.8,1.63a.374.374,0,0,0,.28.2l1.8.261a.372.372,0,0,1,.314.422.376.376,0,0,1-.108.212l-1.3,1.269a.375.375,0,0,0-.107.329l.307,1.791a.373.373,0,0,1-.3.429.381.381,0,0,1-.235-.037l-1.609-.846a.371.371,0,0,0-.346,0l-1.609.846a.374.374,0,0,1-.5-.157.383.383,0,0,1-.037-.235l.307-1.791a.369.369,0,0,0-.107-.329l-1.3-1.269a.372.372,0,0,1,.206-.634l1.8-.261a.374.374,0,0,0,.28-.2l.8-1.63a.372.372,0,0,1,.67,0Z" fill="#ea0c90"/>
          </g>
        </g>
      </g>
    </g>
    <g id="_2" data-name=" 2" style="isolation: isolate">
      <g id="Grupo_21322" data-name="Grupo 21322" style="isolation: isolate">
        <path id="Trazado_20476" data-name="Trazado 20476" d="M1557.271,1517.294v-4.05h-3.75c-1.229,0-1.739-.6-1.739-1.5v-.21c0-.87.51-1.47,1.739-1.47h3.75v-3.87c0-1.2.6-1.74,1.5-1.74h.361c.84,0,1.5.54,1.5,1.74v3.87h3.749c1.23,0,1.74.6,1.74,1.47v.21c0,.9-.51,1.5-1.74,1.5h-3.749v4.05c0,1.229-.66,1.74-1.5,1.74h-.361C1557.872,1519.034,1557.271,1518.523,1557.271,1517.294Z" fill="#f6f9fc"/>
      </g>
    </g>
    <g id="Sorteo_de_laptop" data-name="Sorteo de laptop" style="isolation: isolate">
      <g id="Grupo_21323" data-name="Grupo 21323" style="isolation: isolate">
        <path id="Trazado_20477" data-name="Trazado 20477" d="M1574.33,1506.9c0-.532.663-1.013.728-.948a3.427,3.427,0,0,0,2.5,1.131c1,0,1.534-.364,1.534-1.015,0-.754-.845-.909-1.833-1.131-1.339-.3-2.717-.793-2.717-2.521,0-1.561,1.248-2.588,3.276-2.588a4.136,4.136,0,0,1,2.418.624,1.156,1.156,0,0,1,.585.924,1.246,1.246,0,0,1-.754,1,3.009,3.009,0,0,0-2.236-1.027c-.91,0-1.456.377-1.456.988,0,.727.754.832,1.794,1.065,1.522.339,2.848.962,2.848,2.549,0,1.677-1.236,2.651-3.446,2.651a4.229,4.229,0,0,1-2.717-.766A1.205,1.205,0,0,1,1574.33,1506.9Z" fill="#f6f9fc"/>
        <path id="Trazado_20478" data-name="Trazado 20478" d="M1585.133,1501.937a3.334,3.334,0,1,1-3.393,3.315A3.193,3.193,0,0,1,1585.133,1501.937Zm-.013,1.429a1.9,1.9,0,1,0,1.755,1.911A1.769,1.769,0,0,0,1585.12,1503.366Z" fill="#f6f9fc"/>
        <path id="Trazado_20479" data-name="Trazado 20479" d="M1594.064,1503a.951.951,0,0,1-.585.962,1.27,1.27,0,0,0-.832-.313c-.884,0-1.274.781-1.274,2.055v1.9c0,.664-.338.872-.806.872h-.2c-.494,0-.832-.195-.832-.872v-5.381c0-.066.312-.208.689-.208a1.013,1.013,0,0,1,1,.688,2.792,2.792,0,0,1,.092.443,1.584,1.584,0,0,1,1.573-1.209A1.041,1.041,0,0,1,1594.064,1503Z" fill="#f6f9fc"/>
        <path id="Trazado_20480" data-name="Trazado 20480" d="M1595.494,1506.422v-2.912h-.325c-.521,0-.754-.235-.754-.651v-.1c0-.43.233-.676.741-.676h.338v-.807c0-.6.3-.883.819-.883h.169c.481,0,.806.208.806.883v.807h1.1c.52,0,.741.221.741.637v.117c0,.441-.234.676-.754.676h-1.118v2.7c0,.624.2.935.7.935a.93.93,0,0,0,.793-.428.719.719,0,0,1,.455.715.93.93,0,0,1-.312.7,1.9,1.9,0,0,1-1.365.467C1596.144,1508.6,1595.494,1507.865,1595.494,1506.422Z" fill="#f6f9fc"/>
        <path id="Trazado_20481" data-name="Trazado 20481" d="M1603.008,1501.937a3.019,3.019,0,0,1,3.159,3.171v.118c-.013.312-.1.481-.442.481h-4.394l.039.208a1.759,1.759,0,0,0,1.819,1.364,1.891,1.891,0,0,0,1.782-.923c.013-.025.9.053.9.781a1.239,1.239,0,0,1-.7.988,3.887,3.887,0,0,1-2.028.48,3.151,3.151,0,0,1-3.419-3.3A3.224,3.224,0,0,1,1603.008,1501.937Zm-.013,1.26a1.642,1.642,0,0,0-1.639,1.509h3.121A1.441,1.441,0,0,0,1602.995,1503.2Z" fill="#f6f9fc"/>
        <path id="Trazado_20482" data-name="Trazado 20482" d="M1610.262,1501.937a3.334,3.334,0,1,1-3.393,3.315A3.193,3.193,0,0,1,1610.262,1501.937Zm-.013,1.429a1.9,1.9,0,1,0,1.755,1.911A1.77,1.77,0,0,0,1610.249,1503.366Z" fill="#f6f9fc"/>
        <path id="Trazado_20483" data-name="Trazado 20483" d="M1616.554,1505.265c0-2.015,1.2-3.328,2.95-3.328a2.383,2.383,0,0,1,2,.961v-3.3a1.013,1.013,0,0,1,.688-.208c.546,0,1.145.286,1.145,1.468v6.747c0,.664-.325.872-.807.872h-.181c-.416,0-.729-.143-.793-.637-.013-.144-.027-.286-.027-.443a2.3,2.3,0,0,1-2.066,1.209C1617.749,1508.6,1616.554,1507.254,1616.554,1505.265Zm4.966-.845a1.611,1.611,0,0,0-1.574-1.015,1.654,1.654,0,0,0-1.651,1.86,1.688,1.688,0,0,0,1.625,1.872,1.527,1.527,0,0,0,1.6-1.522Z" fill="#f6f9fc"/>
        <path id="Trazado_20484" data-name="Trazado 20484" d="M1627.694,1501.937a3.02,3.02,0,0,1,3.16,3.171v.118c-.013.312-.1.481-.443.481h-4.393l.039.208a1.758,1.758,0,0,0,1.819,1.364,1.891,1.891,0,0,0,1.781-.923c.014-.025.9.053.9.781a1.239,1.239,0,0,1-.7.988,3.888,3.888,0,0,1-2.029.48,3.151,3.151,0,0,1-3.419-3.3A3.224,3.224,0,0,1,1627.694,1501.937Zm-.012,1.26a1.642,1.642,0,0,0-1.639,1.509h3.12A1.44,1.44,0,0,0,1627.682,1503.2Z" fill="#f6f9fc"/>
      </g>
      <g id="Grupo_21324" data-name="Grupo 21324" style="isolation: isolate">
        <path id="Trazado_20485" data-name="Trazado 20485" d="M1574.72,1521.6V1513.6a1.017,1.017,0,0,1,.689-.208c.546,0,1.144.286,1.144,1.468v6.747c0,.664-.338.872-.806.872h-.195C1575.071,1522.476,1574.72,1522.281,1574.72,1521.6Z" fill="#f6f9fc"/>
        <path id="Trazado_20486" data-name="Trazado 20486" d="M1581.727,1518.641h.208a.8.8,0,0,0-.013-.182,1.123,1.123,0,0,0-1.287-1.145,1.591,1.591,0,0,0-1.56.923c-.013.027-1.183.117-1.183-.727a1.157,1.157,0,0,1,.39-.832,3.415,3.415,0,0,1,2.47-.741c2.015,0,2.99.922,2.99,2.626v3.744c0,.09-.338.208-.689.208a.947.947,0,0,1-.962-.611,2.594,2.594,0,0,1-.1-.429,2.534,2.534,0,0,1-2.2,1.091c-1.326,0-2.132-.727-2.132-1.819C1577.658,1519.33,1579.036,1518.68,1581.727,1518.641Zm.208.922h-.351c-1.443.052-2.21.326-2.21,1.041,0,.481.377.78.988.78a1.431,1.431,0,0,0,1.573-1.365Z" fill="#f6f9fc"/>
        <path id="Trazado_20487" data-name="Trazado 20487" d="M1591.854,1519.252c0,1.976-1.2,3.353-2.938,3.353a2.244,2.244,0,0,1-2.028-1.156v2.626c0,.663-.338.884-.806.884h-.2c-.494,0-.832-.208-.832-.884v-7.852c0-.066.325-.208.7-.208a1.027,1.027,0,0,1,1.054.883c.012.052.025.183.038.287a2.225,2.225,0,0,1,2.08-1.248C1590.646,1515.937,1591.854,1517.224,1591.854,1519.252Zm-1.754.013a1.673,1.673,0,0,0-3.212-.82v1.2a1.507,1.507,0,0,0,1.573,1.495A1.669,1.669,0,0,0,1590.1,1519.265Z" fill="#f6f9fc"/>
        <path id="Trazado_20488" data-name="Trazado 20488" d="M1593.336,1520.422v-2.912h-.325c-.521,0-.754-.235-.754-.651v-.1c0-.43.233-.676.741-.676h.338v-.807c0-.6.3-.883.818-.883h.17c.481,0,.806.208.806.883v.807h1.1c.521,0,.742.221.742.637v.117c0,.441-.234.676-.754.676H1595.1v2.7c0,.624.195.935.7.935a.93.93,0,0,0,.793-.428.719.719,0,0,1,.455.715.93.93,0,0,1-.312.7,1.9,1.9,0,0,1-1.365.467C1593.985,1522.6,1593.336,1521.865,1593.336,1520.422Z" fill="#f6f9fc"/>
        <path id="Trazado_20489" data-name="Trazado 20489" d="M1600.954,1515.937a3.334,3.334,0,1,1-3.393,3.315A3.193,3.193,0,0,1,1600.954,1515.937Zm-.014,1.429a1.9,1.9,0,1,0,1.755,1.911A1.769,1.769,0,0,0,1600.94,1517.366Z" fill="#f6f9fc"/>
        <path id="Trazado_20490" data-name="Trazado 20490" d="M1612.16,1519.252c0,1.976-1.2,3.353-2.938,3.353a2.246,2.246,0,0,1-2.029-1.156v2.626c0,.663-.338.884-.805.884h-.2c-.494,0-.832-.208-.832-.884v-7.852c0-.066.326-.208.7-.208a1.025,1.025,0,0,1,1.053.883c.013.052.026.183.038.287a2.224,2.224,0,0,1,2.08-1.248C1610.951,1515.937,1612.16,1517.224,1612.16,1519.252Zm-1.755.013a1.673,1.673,0,0,0-3.212-.82v1.2a1.507,1.507,0,0,0,1.574,1.495A1.668,1.668,0,0,0,1610.405,1519.265Z" fill="#f6f9fc"/>
      </g>
    </g>
  </g>
</svg>
