<svg xmlns="http://www.w3.org/2000/svg" width="319.494" height="126.029" viewBox="0 0 319.494 126.029"><defs><style>.a{fill:#abcaf5;}.b{fill:#ea0c90;}.c{fill:#065fe0;}.d{fill:#fff;}.e{fill:#dea391;}.f{fill:#ecb7a7;}.g{fill:#665853;}.h{fill:#ffc817;}.i{fill:#a0762c;}.j{fill:#966a61;}.k{isolation:isolate;}.l{fill:#f6f9fc;}</style></defs><g transform="translate(-27.295 -565.648)"><g transform="translate(-944 -65.323)"><g transform="translate(-2875.871 -1002.193)"><rect class="a" width="319.494" height="114.596" rx="6" transform="translate(3847.166 1644.597)"/><g transform="translate(0 2.731)"><g transform="translate(3954.135 1630.433)"><rect class="b" width="163.99" height="38.343" rx="10"/></g></g><path class="c" d="M3905.375,1665.764a36.5,36.5,0,1,1-36.5,36.5A36.5,36.5,0,0,1,3905.375,1665.764Z"/><path class="d" d="M3905.49,1738.757a36.465,36.465,0,0,0,30.668-16.7h-61.336A36.468,36.468,0,0,0,3905.49,1738.757Z"/><rect class="d" width="4.964" height="1.197" transform="matrix(0.056, -0.998, 0.998, 0.056, 3909.77, 1676.73)"/><rect class="d" width="4.964" height="1.197" transform="translate(3914.242 1678.084) rotate(-65.069)"/><rect class="d" width="4.964" height="1.197" transform="translate(3918.286 1680.789) rotate(-42.959)"/><path class="e" d="M3892.422,1720.148v6.238s3.306,3.119,8.265,0v-6.238Z"/><path class="e" d="M3908.483,1720.148v6.238s3.306,3.119,8.265,0v-6.238Z"/><path class="f" d="M3905.676,1690.675c-9.974,0-18.374,5.283-20.9,12.475h-2.8a16.827,16.827,0,0,0-.7,5.365,12.758,12.758,0,0,0,.7,4.3h3.04c2.781,6.872,10.98,11.852,20.664,11.852,11.971,0,21.676-7.61,21.676-17S3917.648,1690.675,3905.676,1690.675Z"/><path class="e" d="M3891.017,1695.665s-.312-4.99,2.183-8.109c0,0,2.638,2.083,3.329,7.689a1.265,1.265,0,0,1-.965,1.383C3894.345,1696.919,3892.346,1697.1,3891.017,1695.665Z"/><path class="f" d="M3891.013,1695.665s-.307-4.99,2.188-8.109c0,0,1.884,2.807,2.183,9.2C3895.38,1696.757,3892.265,1697.381,3891.013,1695.665Z"/><path class="e" d="M3905.677,1722.331c-9.684,0-17.883-4.98-20.664-11.852h-3.6a11.188,11.188,0,0,0,.562,2.339h3.04c2.781,6.872,10.98,11.852,20.664,11.852,11.971,0,21.676-7.61,21.676-17,0-.393-.019-.783-.052-1.17C3926.534,1715.345,3917.147,1722.331,3905.677,1722.331Z"/><path class="f" d="M3928.135,1707.188c.041.269.062.5.081.75s.027.491.029.739a6.957,6.957,0,0,1-.139,1.516,3.244,3.244,0,0,1-.273.785,1.727,1.727,0,0,1-.631.7,1.413,1.413,0,0,1-.464.175,1.681,1.681,0,0,1-.234.025h-.113a1,1,0,0,1-.144-.013.922.922,0,0,1-.508-.265,1.168,1.168,0,0,1-.258-.414,1.688,1.688,0,0,1-.083-.839,1.494,1.494,0,0,1,.331-.763,1.118,1.118,0,0,1,.738-.387,1.674,1.674,0,0,1,.754.116,3.2,3.2,0,0,1,1.153.836,8.643,8.643,0,0,1,.871,1.083,8.635,8.635,0,0,0-.965-.983,2.924,2.924,0,0,0-1.139-.668,1.34,1.34,0,0,0-.611-.009.691.691,0,0,0-.42.3,1.092,1.092,0,0,0-.006,1.034.45.45,0,0,0,.13.151.15.15,0,0,0,.106.027l.088-.016a.9.9,0,0,0,.107-.032.523.523,0,0,0,.165-.1,1.373,1.373,0,0,0,.3-.914,5.824,5.824,0,0,0-.091-1.243c-.036-.212-.079-.424-.129-.634s-.108-.43-.167-.61a.784.784,0,0,1,1.47-.543c.006.019.013.038.018.058a.958.958,0,0,1,.029.122Z"/><path class="g" d="M3900.892,1696.676a1.23,1.23,0,0,1-.114-2.448,45.247,45.247,0,0,1,15.382.543,1.23,1.23,0,1,1-.509,2.407,42.779,42.779,0,0,0-14.534-.513A1.129,1.129,0,0,1,3900.892,1696.676Z"/><circle class="h" cx="10.227" cy="10.227" r="10.227" transform="translate(3898.2 1679.567)"/><path class="i" d="M3908.207,1694.868c-1.767-.029-2.966-.983-2.966-1.682,0-.343.3-.816.655-.816.471,0,.855,1,2.31,1.113v-3.35c-1.283-.456-2.708-.969-2.708-2.794,0-1.8,1.354-2.509,2.708-2.651v-.413a.377.377,0,0,1,.413-.328c.214,0,.428.156.428.328v.385c.969.029,2.338.328,2.338,1.026,0,.271-.2.816-.627.816-.342,0-.713-.456-1.71-.527v2.892c1.24.456,2.6,1.084,2.6,3.022a2.762,2.762,0,0,1-2.577,2.935h-.019v.484c0,.171-.213.328-.428.328a.376.376,0,0,1-.413-.328v-.441Zm.085-6.272V1686c-.8.1-1.368.456-1.368,1.2C3906.924,1688.011,3907.537,1688.31,3908.292,1688.6Zm.667,1.854v3.007a1.355,1.355,0,0,0,1.254-1.409,1.667,1.667,0,0,0-1.252-1.6Z"/><path class="f" d="M3900.892,1696.673a44.428,44.428,0,0,1,14.76.5l1.485,3.478-15.033.281Z"/><path class="j" d="M3892.745,1702.122a.469.469,0,0,1-.573-.174,1.917,1.917,0,0,0-2.979-.225.471.471,0,0,1-.594.087h0a.464.464,0,0,1-.159-.638.452.452,0,0,1,.049-.067,2.853,2.853,0,0,1,4.032-.173,2.907,2.907,0,0,1,.438.508.467.467,0,0,1-.14.644.387.387,0,0,1-.075.039Z"/><path class="b" d="M3894.571,1673.015l.8,1.63a.371.371,0,0,0,.28.2l1.8.261a.372.372,0,0,1,.206.634l-1.3,1.269a.374.374,0,0,0-.107.329l.307,1.791a.372.372,0,0,1-.539.392l-1.609-.846a.371.371,0,0,0-.346,0l-1.609.846a.373.373,0,0,1-.5-.157.383.383,0,0,1-.037-.235l.307-1.791a.371.371,0,0,0-.107-.329l-1.3-1.269a.372.372,0,0,1-.006-.526.376.376,0,0,1,.212-.108l1.8-.261a.37.37,0,0,0,.28-.2l.8-1.63a.372.372,0,0,1,.67,0Z"/></g><g class="k" transform="translate(-2072.461 -51.856)"><g class="k"><path class="l" d="M3166.519,704.961v-5.715a1.253,1.253,0,0,1-.811.294,1.37,1.37,0,0,1-.9-.322,1.13,1.13,0,0,1-.351-.841.992.992,0,0,1,.547-.981,1.3,1.3,0,0,0,.854.309,1.215,1.215,0,0,0,1.191-1.051h.6c.589,0,.9.323.9.953v7.354a.829.829,0,0,1-.9.952h-.267C3166.813,705.913,3166.519,705.577,3166.519,704.961Z"/><path class="l" d="M3170.844,705.423a1.562,1.562,0,0,1-.9-1.2,1.142,1.142,0,0,1,.855-.967,3.017,3.017,0,0,0,2.493,1.219c1.163,0,1.877-.575,1.877-1.485s-.644-1.443-1.807-1.443a2.908,2.908,0,0,0-1.863.561c-.813-.029-1.219-.378-1.219-1.206v-3c0-.728.309-1.148,1-1.148h4.384c.644,0,.967.266.967.812v.07c0,.547-.308.8-.967.8h-3.655v2.031a4.4,4.4,0,0,1,1.653-.337c2.017,0,3.348,1.093,3.348,2.872,0,1.835-1.415,3.012-3.685,3.012A4.873,4.873,0,0,1,3170.844,705.423Z"/><path class="l" d="M3177.648,698.9v-.113a2.139,2.139,0,0,1,2.27-2.171,2.113,2.113,0,0,1,2.241,2.158v.112a2.257,2.257,0,0,1-4.511.014Zm.714,6.429a1,1,0,0,1,.379-.715l7.046-8.026c.069-.084.841.127.841.631a1.233,1.233,0,0,1-.379.742l-7.045,8.013C3179.134,706.054,3178.362,705.815,3178.362,705.325Zm2.481-6.373v-.224a.952.952,0,0,0-.94-1.065.935.935,0,0,0-.937,1.065v.224a.943.943,0,0,0,.952,1.036A.924.924,0,0,0,3180.843,698.952Zm2.031,4.832v-.112a2.145,2.145,0,0,1,2.268-2.171,2.1,2.1,0,0,1,2.242,2.157v.113a2.257,2.257,0,0,1-4.51.013Zm3.207.042V703.6a.958.958,0,0,0-.939-1.065.936.936,0,0,0-.938,1.065v.223a.945.945,0,1,0,1.877,0Z"/><path class="l" d="M3193.022,704.821V702.93h-1.752c-.574,0-.812-.281-.812-.7v-.1c0-.406.238-.687.812-.687h1.752v-1.807c0-.56.28-.813.7-.813h.168c.393,0,.7.253.7.813v1.807h1.751c.574,0,.812.281.812.687v.1c0,.42-.238.7-.812.7h-1.751v1.891c0,.575-.309.813-.7.813h-.168C3193.3,705.634,3193.022,705.4,3193.022,704.821Z"/><path class="l" d="M3200.413,704.765v-.434c0-1.737,1.484-2.578,2.773-3.208,1.135-.532,2.073-.9,2.073-1.681s-.546-1.205-1.527-1.205a1.916,1.916,0,0,0-1.946,1.583c0,.029-1.346.084-1.346-.952a2.019,2.019,0,0,1,.883-1.569,4.192,4.192,0,0,1,2.535-.742c2.172,0,3.4,1.064,3.4,2.8,0,1.681-1.247,2.284-2.563,2.858-1.051.433-1.962.826-2.3,1.582a1.266,1.266,0,0,0-.125.322h4.132c.7,0,.98.28.98.771v.1c0,.532-.28.826-.98.826h-4.749C3200.721,705.815,3200.413,705.6,3200.413,704.765Z"/><path class="l" d="M3208.07,702.411c0-2.171,1.288-3.586,3.18-3.586a2.563,2.563,0,0,1,2.157,1.037V696.3a1.088,1.088,0,0,1,.742-.225c.588,0,1.233.309,1.233,1.583v7.27c0,.714-.35.938-.868.938h-.2c-.447,0-.784-.153-.853-.685-.015-.155-.029-.309-.029-.477a2.48,2.48,0,0,1-2.227,1.3C3209.358,706.012,3208.07,704.555,3208.07,702.411Zm5.351-.91a1.734,1.734,0,0,0-1.695-1.093,1.781,1.781,0,0,0-1.779,2,1.819,1.819,0,0,0,1.751,2.018,1.643,1.643,0,0,0,1.723-1.639Z"/><path class="l" d="M3220.911,701.739h.224a.87.87,0,0,0-.014-.2,1.209,1.209,0,0,0-1.387-1.232,1.714,1.714,0,0,0-1.681.994c-.013.028-1.275.126-1.275-.784a1.255,1.255,0,0,1,.42-.9,3.684,3.684,0,0,1,2.662-.8c2.171,0,3.222.995,3.222,2.83v4.034c0,.1-.364.224-.742.224a1.019,1.019,0,0,1-1.037-.658,2.9,2.9,0,0,1-.113-.462,2.73,2.73,0,0,1-2.367,1.177c-1.428,0-2.3-.784-2.3-1.961C3216.526,702.481,3218.011,701.781,3220.911,701.739Zm.224.994h-.378c-1.555.057-2.381.351-2.381,1.121,0,.519.406.84,1.064.84a1.54,1.54,0,0,0,1.7-1.47Z"/><path class="l" d="M3230.094,698.825a3.463,3.463,0,0,1,2.241.687,1.649,1.649,0,0,1,.673,1.176c0,.8-1.066.954-1.107.87a1.683,1.683,0,0,0-1.723-1.135,2,2,0,0,0,0,3.992,1.709,1.709,0,0,0,1.723-1.135c.041-.084,1.107.028,1.107.882a1.582,1.582,0,0,1-.687,1.15,3.649,3.649,0,0,1-5.8-2.915A3.451,3.451,0,0,1,3230.094,698.825Z"/><path class="l" d="M3240.708,699.862v5.785c0,.071-.351.224-.742.224a1.1,1.1,0,0,1-1.108-.742,2.528,2.528,0,0,1-.07-.378,2.58,2.58,0,0,1-2.255,1.246c-1.778,0-2.521-1.246-2.521-2.829v-3.306c0-.715.364-.952.854-.952h.225c.517,0,.882.224.882.952v3.012c0,.924.476,1.471,1.288,1.471a1.665,1.665,0,0,0,1.486-.9v-3.586c0-.715.349-.952.853-.952h.211C3240.343,698.91,3240.708,699.134,3240.708,699.862Z"/><path class="l" d="M3245.354,698.825a3.594,3.594,0,1,1-3.656,3.572A3.441,3.441,0,0,1,3245.354,698.825Zm-.014,1.541a2.052,2.052,0,1,0,1.891,2.06A1.906,1.906,0,0,0,3245.34,700.366Z"/><path class="l" d="M3250.7,703.658v-3.137h-.35c-.56,0-.812-.252-.812-.7v-.112c0-.462.252-.729.8-.729h.364v-.868c0-.644.322-.952.883-.952h.181c.519,0,.87.224.87.952v.868h1.189c.561,0,.8.239.8.687v.126c0,.477-.252.729-.813.729H3252.6v2.914c0,.671.211,1.007.758,1.007a1,1,0,0,0,.854-.462.776.776,0,0,1,.49.771,1,1,0,0,1-.336.756,2.047,2.047,0,0,1-1.471.505C3251.4,706.012,3250.7,705.213,3250.7,703.658Z"/><path class="l" d="M3259.718,701.739h.224a.87.87,0,0,0-.014-.2,1.209,1.209,0,0,0-1.386-1.232,1.712,1.712,0,0,0-1.682.994c-.014.028-1.274.126-1.274-.784a1.248,1.248,0,0,1,.42-.9,3.678,3.678,0,0,1,2.661-.8c2.172,0,3.222.995,3.222,2.83v4.034c0,.1-.365.224-.742.224a1.019,1.019,0,0,1-1.037-.658,2.782,2.782,0,0,1-.112-.462,2.732,2.732,0,0,1-2.367,1.177c-1.429,0-2.3-.784-2.3-1.961C3255.333,702.481,3256.818,701.781,3259.718,701.739Zm.224.994h-.379c-1.554.057-2.381.351-2.381,1.121,0,.519.407.84,1.065.84a1.54,1.54,0,0,0,1.695-1.47Z"/><path class="l" d="M3264.9,706.894c0-.966.9-1.624,2.129-1.807a.865.865,0,0,1-.252-.63.96.96,0,0,1,.477-.785,2.335,2.335,0,0,1-1.877-2.255c0-1.471,1.3-2.592,3.109-2.592a3.547,3.547,0,0,1,1.457.322l.309-.574a1.056,1.056,0,0,1,.98-.686,1.073,1.073,0,0,1,.966.827l-1.177,1.162a2.239,2.239,0,0,1,.6,1.513c0,1.415-1.163,2.4-2.941,2.437-.1,0-.183.015-.281.015a.257.257,0,0,0,.1.223c.1.336.686.378,1.639.63s1.975.771,1.975,1.92c0,1.317-1.345,2.157-3.684,2.157C3265.988,708.771,3264.9,708.154,3264.9,706.894Zm5.366-.084c0-.449-.491-.63-1.135-.8-.2-.042-.407-.1-.631-.141-1.008.07-1.779.421-1.779,1.009,0,.518.588.812,1.752.812S3270.261,707.37,3270.261,706.81Zm-.45-5.421a1.323,1.323,0,0,0-2.646,0,1.323,1.323,0,0,0,2.646,0Z"/><path class="l" d="M3277.736,699.975a1.021,1.021,0,0,1-.63,1.036,1.371,1.371,0,0,0-.9-.336c-.953,0-1.373.84-1.373,2.213v2.045c0,.714-.366.938-.869.938h-.21c-.533,0-.9-.21-.9-.938v-5.8c0-.071.337-.224.743-.224a1.09,1.09,0,0,1,1.078.742,3,3,0,0,1,.1.476,1.708,1.708,0,0,1,1.7-1.3A1.122,1.122,0,0,1,3277.736,699.975Z"/><path class="l" d="M3282.538,701.739h.223a.934.934,0,0,0-.013-.2,1.21,1.21,0,0,0-1.387-1.232,1.714,1.714,0,0,0-1.681.994c-.013.028-1.275.126-1.275-.784a1.255,1.255,0,0,1,.42-.9,3.685,3.685,0,0,1,2.662-.8c2.171,0,3.222.995,3.222,2.83v4.034c0,.1-.365.224-.742.224a1.019,1.019,0,0,1-1.037-.658,2.8,2.8,0,0,1-.113-.462,2.73,2.73,0,0,1-2.367,1.177c-1.428,0-2.3-.784-2.3-1.961C3278.153,702.481,3279.637,701.781,3282.538,701.739Zm.223.994h-.377c-1.555.057-2.381.351-2.381,1.121,0,.519.406.84,1.064.84a1.538,1.538,0,0,0,1.694-1.47Z"/><path class="l" d="M3286.595,703.658v-3.137h-.35c-.561,0-.813-.252-.813-.7v-.112c0-.462.252-.729.8-.729h.364v-.868c0-.644.323-.952.882-.952h.183c.518,0,.868.224.868.952v.868h1.191c.561,0,.8.239.8.687v.126c0,.477-.253.729-.812.729H3288.5v2.914c0,.671.21,1.007.756,1.007a1,1,0,0,0,.855-.462.778.778,0,0,1,.49.771,1,1,0,0,1-.337.756,2.04,2.04,0,0,1-1.47.505C3287.3,706.012,3286.595,705.213,3286.595,703.658Z"/><path class="l" d="M3292.616,695.856a1.026,1.026,0,1,1-1.107,1.023A.988.988,0,0,1,3292.616,695.856Zm-.994,4.006c0-.715.377-.952.882-.952h.21c.518,0,.882.224.882.952v5.071c0,.714-.364.938-.882.938h-.2c-.533,0-.9-.21-.9-.938Z"/><path class="l" d="M3294.673,704.471a.868.868,0,0,1,.6-.784,2.993,2.993,0,0,0,2.255.923c.772,0,1.191-.265,1.191-.7,0-.532-.546-.63-1.457-.826-.938-.2-2.4-.5-2.4-2.045,0-1.331,1.079-2.214,2.844-2.214a3,3,0,0,1,2.59.911,1,1,0,0,1,.168.561.981.981,0,0,1-.629.826,2.716,2.716,0,0,0-2-.925c-.756,0-1.162.281-1.162.715,0,.49.531.588,1.456.8.966.21,2.506.518,2.506,2.06,0,1.373-1.091,2.2-3.011,2.2a4.489,4.489,0,0,1-2.353-.519A1.193,1.193,0,0,1,3294.673,704.471Z"/></g></g></g></g></svg>