<svg xmlns="http://www.w3.org/2000/svg" width="350.79" height="128.76" viewBox="0 0 350.79 128.76"><defs><style>.a{fill:#abcaf5;}.b{fill:#ea0c90;}.c{isolation:isolate;}.d{fill:#f6f8fb;}.e{fill:#065fe0;}.f{fill:#fff;}.g{fill:#dea391;}.h{fill:#ecb7a7;}.i{fill:#665853;}.j{fill:#ffc817;}.k{fill:#a0762c;}.l{fill:#966a61;}</style></defs><g transform="translate(-3815.87 -1630.433)"><path class="a" d="M3815.87,1702.085l32.288-14.007-.546,29Z"/><rect class="a" width="319.494" height="114.596" rx="6" transform="translate(3847.166 1644.597)"/><rect class="b" width="163.99" height="45.827" rx="10" transform="translate(3954.135 1630.433)"/><g class="c"><g class="c"><path class="d" d="M4004.115,1642.171a4.094,4.094,0,0,1,2.457.7,1.675,1.675,0,0,1,.767,1.209c0,.846-1.079,1.04-1.105.976a2.3,2.3,0,0,0-2.054-1.145,2.42,2.42,0,0,0-2.418,2.64,2.456,2.456,0,0,0,2.444,2.651,2.147,2.147,0,0,0,2.08-1.261c.027-.078,1.145.118,1.145.962a1.8,1.8,0,0,1-.807,1.287,4.38,4.38,0,0,1-6.838-3.627A4.181,4.181,0,0,1,4004.115,1642.171Z"/><path class="d" d="M4009.562,1652.754l1.04-2.393a.65.65,0,0,1-.585-.416l-2.184-5.056c-.039-.1.441-.534,1-.546.441,0,.806.22,1.04.923l1.352,3.639,1.222-3.627c.221-.715.611-.935,1.027-.935.507,0,1.027.428.988.519l-2.886,7.5c-.273.69-.638.9-1.04.9C4010,1653.261,4009.522,1652.845,4009.562,1652.754Z"/><path class="d" d="M4017.024,1650.192a.668.668,0,0,1-.754.624h-.2c-.481,0-.832-.194-.832-.883v-7.995a1.031,1.031,0,0,1,.7-.209c.533,0,1.131.287,1.131,1.469v2.119a2.387,2.387,0,0,1,2.041-1.04c1.716,0,2.925,1.287,2.925,3.316,0,1.975-1.2,3.353-2.938,3.353a2.241,2.241,0,0,1-2.041-1.131Zm1.651-4.446a1.649,1.649,0,0,0-1.6,1.04v1.235a1.51,1.51,0,0,0,1.586,1.457,1.885,1.885,0,0,0,.013-3.732Z"/><path class="d" d="M4026.059,1644.277a3.021,3.021,0,0,1,3.159,3.172v.117c-.013.313-.1.482-.443.482h-4.393l.039.208a1.759,1.759,0,0,0,1.819,1.364,1.891,1.891,0,0,0,1.781-.923c.014-.025.9.053.9.781a1.24,1.24,0,0,1-.7.988,3.888,3.888,0,0,1-2.029.48,3.15,3.15,0,0,1-3.418-3.3A3.224,3.224,0,0,1,4026.059,1644.277Zm-.013,1.261a1.642,1.642,0,0,0-1.639,1.509h3.12A1.44,1.44,0,0,0,4026.046,1645.538Z"/><path class="d" d="M4034.769,1645.344a.951.951,0,0,1-.585.962,1.274,1.274,0,0,0-.832-.313c-.884,0-1.275.78-1.275,2.055v1.9c0,.663-.338.871-.806.871h-.2c-.494,0-.832-.194-.832-.871v-5.382c0-.065.313-.208.69-.208a1.014,1.014,0,0,1,1,.689,2.9,2.9,0,0,1,.09.442,1.586,1.586,0,0,1,1.574-1.209A1.042,1.042,0,0,1,4034.769,1645.344Z"/></g><g class="c"><path class="d" d="M3969.015,1656.173c0-.586.286-.871.819-.871h.26a.759.759,0,0,1,.845.871v6.772a.764.764,0,0,1-.845.871h-.26c-.533,0-.819-.3-.819-.871Z"/><path class="d" d="M3978.713,1659.891v3.054c0,.663-.351.871-.818.871h-.2c-.48,0-.819-.194-.819-.871v-2.768c0-.846-.429-1.365-1.17-1.365a1.532,1.532,0,0,0-1.392.832v3.3c0,.663-.338.871-.8.871h-.2c-.494,0-.832-.194-.832-.871v-5.382c0-.065.325-.208.689-.208a1.054,1.054,0,0,1,1.093,1.067,2.4,2.4,0,0,1,2.091-1.145C3978.012,1657.277,3978.713,1658.447,3978.713,1659.891Z"/><path class="d" d="M3980.584,1661.763v-2.912h-.324c-.521,0-.754-.235-.754-.651v-.1c0-.43.233-.676.74-.676h.338v-.807c0-.6.3-.884.819-.884h.169c.482,0,.807.208.807.884v.807h1.1c.521,0,.742.221.742.637v.117c0,.441-.235.676-.754.676h-1.118v2.7c0,.624.194.935.7.935a.931.931,0,0,0,.793-.428.719.719,0,0,1,.455.714.928.928,0,0,1-.313.7,1.893,1.893,0,0,1-1.365.467C3981.234,1663.946,3980.584,1663.206,3980.584,1661.763Z"/><path class="d" d="M3988.1,1657.277a3.021,3.021,0,0,1,3.159,3.172v.117c-.014.313-.1.482-.443.482h-4.393l.039.208a1.758,1.758,0,0,0,1.819,1.364,1.894,1.894,0,0,0,1.782-.923c.012-.025.9.053.9.781a1.242,1.242,0,0,1-.7.988,3.881,3.881,0,0,1-2.027.48,3.151,3.151,0,0,1-3.42-3.3A3.225,3.225,0,0,1,3988.1,1657.277Zm-.013,1.261a1.642,1.642,0,0,0-1.639,1.509h3.12A1.439,1.439,0,0,0,3988.086,1658.538Z"/><path class="d" d="M3996.809,1658.344a.95.95,0,0,1-.586.962,1.269,1.269,0,0,0-.832-.313c-.883,0-1.274.78-1.274,2.055v1.9c0,.663-.338.871-.806.871h-.2c-.494,0-.832-.194-.832-.871v-5.382c0-.065.312-.208.689-.208a1.016,1.016,0,0,1,1,.689,2.932,2.932,0,0,1,.09.442,1.586,1.586,0,0,1,1.574-1.209A1.042,1.042,0,0,1,3996.809,1658.344Z"/><path class="d" d="M3997.159,1662.517a.809.809,0,0,1,.56-.729,2.766,2.766,0,0,0,2.093.858c.714,0,1.1-.247,1.1-.649,0-.494-.507-.586-1.352-.768-.871-.181-2.222-.467-2.222-1.9,0-1.234,1-2.054,2.638-2.054a2.786,2.786,0,0,1,2.405.845.938.938,0,0,1,.156.521.911.911,0,0,1-.584.766,2.522,2.522,0,0,0-1.859-.857c-.7,0-1.08.26-1.08.663,0,.455.494.546,1.353.74.9.2,2.326.482,2.326,1.911,0,1.275-1.013,2.041-2.795,2.041a4.172,4.172,0,0,1-2.183-.48A1.107,1.107,0,0,1,3997.159,1662.517Z"/><path class="d" d="M4006.728,1657.277a3.021,3.021,0,0,1,3.159,3.172v.117c-.014.313-.1.482-.443.482h-4.393l.039.208a1.758,1.758,0,0,0,1.819,1.364,1.891,1.891,0,0,0,1.781-.923c.013-.025.9.053.9.781a1.241,1.241,0,0,1-.7.988,3.882,3.882,0,0,1-2.028.48,3.151,3.151,0,0,1-3.419-3.3A3.225,3.225,0,0,1,4006.728,1657.277Zm-.013,1.261a1.642,1.642,0,0,0-1.639,1.509h3.12A1.44,1.44,0,0,0,4006.715,1658.538Z"/><path class="d" d="M4010.186,1664.766c0-.9.832-1.508,1.975-1.677a.8.8,0,0,1-.233-.585.888.888,0,0,1,.441-.729,2.166,2.166,0,0,1-1.742-2.092,2.6,2.6,0,0,1,2.887-2.406,3.28,3.28,0,0,1,1.351.3l.286-.533a.986.986,0,0,1,.911-.637,1,1,0,0,1,.9.768l-1.093,1.079a2.078,2.078,0,0,1,.56,1.4c0,1.314-1.08,2.224-2.731,2.263-.091,0-.169.013-.259.013a.235.235,0,0,0,.09.208c.091.311.637.35,1.521.585s1.834.714,1.834,1.781c0,1.222-1.248,2-3.42,2C4011.2,1666.508,4010.186,1665.936,4010.186,1664.766Zm4.978-.078c0-.417-.455-.585-1.053-.742-.181-.039-.377-.091-.585-.13-.936.066-1.651.391-1.651.937,0,.48.547.754,1.625.754S4015.164,1665.208,4015.164,1664.688Zm-.416-5.032a1.229,1.229,0,0,0-2.457,0,1.229,1.229,0,0,0,2.457,0Z"/><path class="d" d="M4023.73,1658.239v5.369c0,.066-.324.208-.688.208a1.014,1.014,0,0,1-1.026-.688,2.019,2.019,0,0,1-.066-.352,2.4,2.4,0,0,1-2.093,1.158c-1.651,0-2.339-1.158-2.339-2.626v-3.069c0-.663.337-.884.793-.884h.207c.481,0,.819.208.819.884v2.8c0,.859.442,1.365,1.2,1.365a1.539,1.539,0,0,0,1.378-.832v-3.328c0-.663.325-.884.793-.884h.194C4023.393,1657.355,4023.73,1657.563,4023.73,1658.239Z"/><path class="d" d="M4029.633,1658.344a.952.952,0,0,1-.584.962,1.274,1.274,0,0,0-.832-.313c-.885,0-1.276.78-1.276,2.055v1.9c0,.663-.337.871-.8.871h-.2c-.494,0-.832-.194-.832-.871v-5.382c0-.065.312-.208.689-.208a1.014,1.014,0,0,1,1,.689,3.2,3.2,0,0,1,.092.442,1.582,1.582,0,0,1,1.572-1.209A1.041,1.041,0,0,1,4029.633,1658.344Z"/><path class="d" d="M4033.156,1657.277a3.335,3.335,0,1,1-3.392,3.316A3.194,3.194,0,0,1,4033.156,1657.277Zm-.013,1.43a1.9,1.9,0,1,0,1.755,1.911A1.769,1.769,0,0,0,4033.143,1658.707Z"/></g></g><g class="c"><g class="c"><path class="d" d="M4049.144,1663.447v-15.5a3.4,3.4,0,0,1-2.2.8,3.717,3.717,0,0,1-2.431-.874,3.056,3.056,0,0,1-.95-2.279,2.688,2.688,0,0,1,1.481-2.66,3.538,3.538,0,0,0,2.318.836,3.3,3.3,0,0,0,3.23-2.85h1.634c1.595,0,2.431.874,2.431,2.584v19.947c0,1.672-.836,2.583-2.431,2.583h-.723C4049.941,1666.03,4049.144,1665.119,4049.144,1663.447Z"/><path class="d" d="M4060.886,1664.7c-1.558-.95-2.432-2.128-2.432-3.267,0-1.634,2.128-2.812,2.318-2.622a8.183,8.183,0,0,0,6.763,3.3c3.153,0,5.091-1.557,5.091-4.027s-1.747-3.913-4.9-3.913a7.9,7.9,0,0,0-5.054,1.519c-2.2-.076-3.306-1.026-3.306-3.267V1644.3c0-1.976.836-3.115,2.7-3.115h11.893c1.748,0,2.622.721,2.622,2.2v.19c0,1.482-.836,2.165-2.622,2.165h-9.916v5.51a11.928,11.928,0,0,1,4.483-.912c5.471,0,9.081,2.964,9.081,7.789,0,4.977-3.837,8.169-9.993,8.169A13.207,13.207,0,0,1,4060.886,1664.7Z"/></g></g><g class="c"><g class="c"><path class="d" d="M4083.315,1644.393v-.168a3.205,3.205,0,0,1,3.4-3.255,3.165,3.165,0,0,1,3.359,3.234v.168a3.383,3.383,0,0,1-6.761.021Zm1.072,9.637a1.5,1.5,0,0,1,.566-1.071l10.562-12.03c.1-.127,1.259.188,1.259.944a1.841,1.841,0,0,1-.567,1.112l-10.561,12.01C4085.541,1655.122,4084.387,1654.765,4084.387,1654.03Zm3.716-9.553v-.336a1.425,1.425,0,0,0-1.407-1.6,1.4,1.4,0,0,0-1.407,1.6v.336a1.414,1.414,0,0,0,1.428,1.553A1.384,1.384,0,0,0,4088.1,1644.477Zm3.044,7.243v-.168a3.217,3.217,0,0,1,3.4-3.254,3.154,3.154,0,0,1,3.359,3.233v.168a3.383,3.383,0,0,1-6.761.021Zm4.808.063v-.336a1.434,1.434,0,0,0-1.406-1.595,1.4,1.4,0,0,0-1.407,1.595v.336a1.416,1.416,0,1,0,2.813,0Z"/></g></g><g class="c"><g class="c"><path class="d" d="M4084.281,1659.808a.525.525,0,0,1,.539-.575h1.149a2.162,2.162,0,0,1,2.43,2.248,2.2,2.2,0,0,1-2.465,2.284h-1.079a.571.571,0,0,1-.574-.568Zm3.089,1.68a1.284,1.284,0,0,0-1.43-1.373h-.636v2.767h.623A1.3,1.3,0,0,0,4087.37,1661.488Z"/><path class="d" d="M4088.816,1662.945c0-.287.358-.547.393-.511a1.846,1.846,0,0,0,1.345.609c.539,0,.826-.2.826-.546,0-.406-.455-.49-.987-.609-.722-.161-1.464-.428-1.464-1.359,0-.841.672-1.394,1.764-1.394a2.216,2.216,0,0,1,1.3.337.619.619,0,0,1,.316.5.671.671,0,0,1-.407.539,1.619,1.619,0,0,0-1.205-.554c-.49,0-.784.2-.784.533,0,.392.406.449.967.575.819.181,1.534.517,1.534,1.372,0,.9-.666,1.428-1.856,1.428a2.273,2.273,0,0,1-1.464-.413A.647.647,0,0,1,4088.816,1662.945Z"/><path class="d" d="M4095.2,1659.135a2.2,2.2,0,0,1,1.323.379.9.9,0,0,1,.413.651c0,.455-.581.56-.594.525a1.242,1.242,0,0,0-1.107-.617,1.3,1.3,0,0,0-1.3,1.422,1.323,1.323,0,0,0,1.316,1.429,1.16,1.16,0,0,0,1.121-.679c.014-.042.616.063.616.518a.971.971,0,0,1-.434.693,2.209,2.209,0,0,1-1.366.406,2.364,2.364,0,0,1,.014-4.727Z"/><path class="d" d="M4098.751,1660.137h-1.022c-.309,0-.477-.155-.477-.442v-.035c0-.28.168-.427.477-.427h3.06c.315,0,.476.147.476.427v.035c0,.287-.161.442-.476.442h-1v3.186a.419.419,0,0,1-.462.47h-.147c-.281,0-.427-.161-.427-.47Z"/><path class="d" d="M4101.4,1661.5a2.27,2.27,0,0,1,2.339-2.367,2.364,2.364,0,1,1-2.339,2.367Zm3.642,0a1.325,1.325,0,0,0-1.309-1.449,1.3,1.3,0,0,0-1.3,1.442,1.313,1.313,0,1,0,2.612.007Z"/></g></g><path class="e" d="M3905.375,1665.764a36.5,36.5,0,1,1-36.5,36.5A36.5,36.5,0,0,1,3905.375,1665.764Z"/><path class="f" d="M3905.49,1738.757a36.465,36.465,0,0,0,30.668-16.7h-61.336A36.468,36.468,0,0,0,3905.49,1738.757Z"/><rect class="f" width="4.964" height="1.197" transform="matrix(0.056, -0.998, 0.998, 0.056, 3909.77, 1676.73)"/><rect class="f" width="4.964" height="1.197" transform="translate(3914.242 1678.084) rotate(-65.069)"/><rect class="f" width="4.964" height="1.197" transform="translate(3918.286 1680.789) rotate(-42.959)"/><path class="g" d="M3892.422,1720.148v6.238s3.306,3.119,8.265,0v-6.238Z"/><path class="g" d="M3908.483,1720.148v6.238s3.306,3.119,8.265,0v-6.238Z"/><path class="h" d="M3905.676,1690.675c-9.974,0-18.374,5.283-20.9,12.475h-2.8a16.827,16.827,0,0,0-.7,5.365,12.758,12.758,0,0,0,.7,4.3h3.04c2.781,6.872,10.98,11.852,20.664,11.852,11.971,0,21.676-7.61,21.676-17S3917.648,1690.675,3905.676,1690.675Z"/><path class="g" d="M3891.017,1695.665s-.312-4.99,2.183-8.109c0,0,2.638,2.083,3.329,7.689a1.265,1.265,0,0,1-.965,1.383C3894.345,1696.919,3892.346,1697.1,3891.017,1695.665Z"/><path class="h" d="M3891.013,1695.665s-.307-4.99,2.188-8.109c0,0,1.884,2.807,2.183,9.2C3895.38,1696.757,3892.265,1697.381,3891.013,1695.665Z"/><path class="g" d="M3905.677,1722.331c-9.684,0-17.883-4.98-20.664-11.852h-3.6a11.188,11.188,0,0,0,.562,2.339h3.04c2.781,6.872,10.98,11.852,20.664,11.852,11.971,0,21.676-7.61,21.676-17,0-.393-.019-.783-.052-1.17C3926.534,1715.345,3917.147,1722.331,3905.677,1722.331Z"/><path class="h" d="M3928.135,1707.188c.041.269.062.5.081.75s.027.491.029.739a6.957,6.957,0,0,1-.139,1.516,3.244,3.244,0,0,1-.273.785,1.727,1.727,0,0,1-.631.7,1.413,1.413,0,0,1-.464.175,1.681,1.681,0,0,1-.234.025h-.113a1,1,0,0,1-.144-.013.922.922,0,0,1-.508-.265,1.168,1.168,0,0,1-.258-.414,1.688,1.688,0,0,1-.083-.839,1.494,1.494,0,0,1,.331-.763,1.118,1.118,0,0,1,.738-.387,1.674,1.674,0,0,1,.754.116,3.2,3.2,0,0,1,1.153.836,8.643,8.643,0,0,1,.871,1.083,8.635,8.635,0,0,0-.965-.983,2.924,2.924,0,0,0-1.139-.668,1.34,1.34,0,0,0-.611-.009.691.691,0,0,0-.42.3,1.092,1.092,0,0,0-.006,1.034.45.45,0,0,0,.13.151.15.15,0,0,0,.106.027l.088-.016a.9.9,0,0,0,.107-.032.523.523,0,0,0,.165-.1,1.373,1.373,0,0,0,.3-.914,5.824,5.824,0,0,0-.091-1.243c-.036-.212-.079-.424-.129-.634s-.108-.43-.167-.61a.784.784,0,0,1,1.47-.543c.006.019.013.038.018.058a.958.958,0,0,1,.029.122Z"/><path class="i" d="M3900.892,1696.676a1.23,1.23,0,0,1-.114-2.448,45.247,45.247,0,0,1,15.382.543,1.23,1.23,0,1,1-.509,2.407,42.779,42.779,0,0,0-14.534-.513A1.129,1.129,0,0,1,3900.892,1696.676Z"/><circle class="j" cx="10.227" cy="10.227" r="10.227" transform="translate(3898.2 1679.567)"/><path class="k" d="M3908.207,1694.868c-1.767-.029-2.966-.983-2.966-1.682,0-.343.3-.816.655-.816.471,0,.855,1,2.31,1.113v-3.35c-1.283-.456-2.708-.969-2.708-2.794,0-1.8,1.354-2.509,2.708-2.651v-.413a.377.377,0,0,1,.413-.328c.214,0,.428.156.428.328v.385c.969.029,2.338.328,2.338,1.026,0,.271-.2.816-.627.816-.342,0-.713-.456-1.71-.527v2.892c1.24.456,2.6,1.084,2.6,3.022a2.762,2.762,0,0,1-2.577,2.935h-.019v.484c0,.171-.213.328-.428.328a.376.376,0,0,1-.413-.328v-.441Zm.085-6.272V1686c-.8.1-1.368.456-1.368,1.2C3906.924,1688.011,3907.537,1688.31,3908.292,1688.6Zm.667,1.854v3.007a1.355,1.355,0,0,0,1.254-1.409,1.667,1.667,0,0,0-1.252-1.6Z"/><path class="h" d="M3900.892,1696.673a44.428,44.428,0,0,1,14.76.5l1.485,3.478-15.033.281Z"/><path class="l" d="M3892.745,1702.122a.469.469,0,0,1-.573-.174,1.917,1.917,0,0,0-2.979-.225.471.471,0,0,1-.594.087h0a.464.464,0,0,1-.159-.638.452.452,0,0,1,.049-.067,2.853,2.853,0,0,1,4.032-.173,2.907,2.907,0,0,1,.438.508.467.467,0,0,1-.14.644.387.387,0,0,1-.075.039Z"/><path class="b" d="M3894.571,1673.015l.8,1.63a.371.371,0,0,0,.28.2l1.8.261a.372.372,0,0,1,.206.634l-1.3,1.269a.374.374,0,0,0-.107.329l.307,1.791a.372.372,0,0,1-.539.392l-1.609-.846a.371.371,0,0,0-.346,0l-1.609.846a.373.373,0,0,1-.5-.157.383.383,0,0,1-.037-.235l.307-1.791a.371.371,0,0,0-.107-.329l-1.3-1.269a.372.372,0,0,1-.006-.526.376.376,0,0,1,.212-.108l1.8-.261a.37.37,0,0,0,.28-.2l.8-1.63a.372.372,0,0,1,.67,0Z"/></g></svg>