<?xml version="1.0" encoding="UTF-8"?>
<svg width="28px" height="27px" viewBox="0 0 28 27" version="1.1" xmlns="http://www.w3.org/2000/svg" xmlns:xlink="http://www.w3.org/1999/xlink">
    <!-- Generator: sketchtool 55.2 (78181) - https://sketchapp.com -->
    <title>96D92E14-E0E3-4980-B531-1268E4A054A0</title>
    <desc>Created with sketchtool.</desc>
    <g id="Web" stroke="none" stroke-width="1" fill="none" fill-rule="evenodd">
        <g id="Confirmación-con-referidos" transform="translate(-828.000000, -355.000000)">
            <g id="Group-5" transform="translate(584.000000, 355.000000)">
                <g id="Copiar-URL" transform="translate(244.000000, 0.000000)">
                    <path d="M27.0335506,13.1192231 C27.0335506,20.3646436 20.981754,26.2384462 13.5167753,26.2384462 C6.05179665,26.2384462 7.10542736e-14,20.3646436 7.10542736e-14,13.1192231 C7.10542736e-14,5.87380263 6.05179665,1.42108547e-14 13.5167753,1.42108547e-14 C20.981754,1.42108547e-14 27.0335506,5.87380263 27.0335506,13.1192231" id="Fill-19" fill="#0855C4"></path>
                    <path d="M8.77260843,14.2830296 L5.89712204,12.6718416 C4.49611913,11.8877223 4.01585648,10.1441403 4.824143,8.78513142 L5.30359371,7.97973445 C6.11188023,6.62072558 7.90829804,6.15380023 9.30727109,6.93870765 L12.1823515,8.54910755 C13.3815873,9.22250452 13.901229,10.5972746 13.5167753,11.8329521 L12.0033187,10.9846059 C11.9923575,10.5622059 11.7662321,10.153991 11.3622919,9.92781792 L8.48680546,8.31702398 C7.87013684,7.97145982 7.07930704,8.17793145 6.72327124,8.77606873 L6.24463246,9.5814657 C5.88859666,10.180391 6.1001071,10.9475671 6.71636975,11.2931313 L9.59145017,12.9039252 C9.99539045,13.1300983 10.4719994,13.1167013 10.8548292,12.914564 L12.3674739,13.7629102 C11.4593187,14.7034594 9.97184418,14.9556385 8.77260843,14.2830296" id="Fill-21" fill="#FFFFFF"></path>
                    <path d="M17.192916,14.2607275 C17.5842712,14.4805962 17.7198652,14.966829 17.4933339,15.3474618 C17.2659906,15.7284886 16.7646175,15.8585185 16.3728563,15.6390438 L9.84039106,11.9781127 C9.44903585,11.75785 9.31344183,11.2716172 9.53997316,10.8905904 C9.76691046,10.5095636 10.2682836,10.3799277 10.6604507,10.5990083 L17.192916,14.2607275 Z" id="Fill-23" fill="#FFFFFF"></path>
                    <path d="M22.2088799,17.4532754 L21.7298351,18.2586723 C20.9211426,19.6176812 19.1243189,20.0850006 17.7265637,19.2996991 L14.8506714,17.6889052 C13.6522475,17.0159023 13.1326058,15.6403441 13.5166535,14.4054547 L15.0305161,15.2534069 C15.0414773,15.6762009 15.2676027,16.0840217 15.6715429,16.3109829 L18.5470293,17.9209888 C19.1641039,18.267341 19.9541218,18.0604753 20.3101576,17.4627321 L20.7892023,16.6569411 C21.1452381,16.0576217 20.9333217,15.2904457 20.3174651,14.9448815 L17.4423846,13.3340876 C17.0384444,13.1079144 16.5618354,13.1220995 16.1790056,13.3238428 L14.6659549,12.4754966 C15.575734,11.5349474 17.0628026,11.2835563 18.2624443,11.9553772 L21.1379307,13.5669592 C22.5373097,14.3510785 23.0179783,16.0942665 22.2088799,17.4532754" id="Fill-25" fill="#FFFFFF"></path>
                </g>
            </g>
        </g>
    </g>
</svg>