<svg xmlns="http://www.w3.org/2000/svg" width="142.865" height="40.467" viewBox="0 0 142.865 40.467"><defs><style>.a{fill:#ffd527;}.b{fill:#ea0c90;}.c{fill:#fff;}</style></defs><g transform="translate(-2633.538 -141.398)"><g transform="translate(2731.814 143.1)"><g transform="translate(0 0)"><rect class="a" width="17.503" height="13.405" rx="6.702"/></g></g><g transform="translate(2731.23 158.863)"><g transform="translate(0 0.025)"><path class="b" d="M3188.51,248.778a4,4,0,0,0,4.1-3.016h-2.314a1.9,1.9,0,0,1-1.81,1.108,2.508,2.508,0,0,1,0-4.973,1.9,1.9,0,0,1,1.81,1.108h2.314a4.012,4.012,0,0,0-4.1-3.028,4.4,4.4,0,0,0,0,8.8Z" transform="translate(-3184.164 -239.977)"/></g><g transform="translate(9.699 0.123)"><path class="b" d="M3243.965,245.7a1.419,1.419,0,0,1-1.526,1.612c-1,0-1.5-.591-1.5-1.612v-5.17h-2.1v5.158a3.315,3.315,0,0,0,3.571,3.571,3.4,3.4,0,0,0,3.668-3.571v-5.158h-2.107Z" transform="translate(-3238.832 -240.532)"/></g><g transform="translate(18.056)"><path class="b" d="M3290.381,248.689a4.425,4.425,0,1,0-4.444-4.431,4.327,4.327,0,0,0,4.22,4.431C3290.232,248.691,3290.306,248.691,3290.381,248.689Zm0-6.942a2.522,2.522,0,1,1-2.29,2.511A2.247,2.247,0,0,1,3290.381,241.747Z" transform="translate(-3285.936 -239.839)"/></g><g transform="translate(27.622 0.123)"><path class="b" d="M3342.143,249.173h2.1v-6.955h2.289v-1.687h-6.684v1.687h2.29Z" transform="translate(-3339.853 -240.532)"/></g><g transform="translate(34.799 0.123)"><path class="b" d="M3386.247,247.647l.517,1.526h2.228l-3.127-8.641h-2.437l-3.126,8.641h2.2l.517-1.526Zm-1.613-4.788,1.071,3.164h-2.129Z" transform="translate(-3380.301 -240.532)"/></g><g transform="translate(0.001 11.595)"><path class="b" d="M3188.158,310.609h2.671a2.07,2.07,0,0,1-2.093,1.526,2.276,2.276,0,0,1-2.424-2.536,2.219,2.219,0,0,1,2.252-2.462,1.81,1.81,0,0,1,1.7.886h2.326a3.836,3.836,0,0,0-4.025-2.831,4.4,4.4,0,1,0,4.173,5.823v-1.957h-4.58Z" transform="translate(-3184.171 -305.193)"/></g><g transform="translate(9.737 11.693)"><path class="b" d="M3245.754,308.466c0-1.5-1.059-2.721-3.176-2.721h-3.533v8.641h2.1v-3.262h.5l1.8,3.262h2.376l-2-3.422A2.516,2.516,0,0,0,3245.754,308.466Zm-3.3,1.169h-1.3v-2.142h1.3c.788,0,1.157.418,1.157,1.059,0,.677-.369,1.083-1.157,1.083Z" transform="translate(-3239.046 -305.745)"/></g><g transform="translate(17.195 11.693)"><path class="b" d="M3284.21,305.745l-3.128,8.641h2.2l.517-1.527h3.225l.517,1.527h2.228l-3.127-8.641Zm.148,5.49,1.059-3.164,1.071,3.164Z" transform="translate(-3281.082 -305.745)"/></g><g transform="translate(26.367 11.693)"><path class="b" d="M3332.779,307.432h2.289v6.955h2.1v-6.955h2.29v-1.687h-6.684Z" transform="translate(-3332.779 -305.745)"/></g><g transform="translate(34.11 11.693)"><rect class="b" width="2.105" height="8.641"/></g><g transform="translate(37.495 11.571)"><path class="b" d="M3397.754,307.533a.766.766,0,0,1,.886-.788.935.935,0,0,1,1,.871c0,.009,0,.018,0,.028h2.277c-.086-1.649-1.354-2.585-3.237-2.585-1.81,0-3.152.911-3.152,2.548-.024,3.065,4.3,2.2,4.3,3.8,0,.5-.394.812-1.01.812a.991.991,0,0,1-1.068-.907c0-.026,0-.052,0-.078h-2.24c.062,1.748,1.514,2.671,3.373,2.671,2.019,0,3.151-1.206,3.151-2.659C3402.024,308.357,3397.754,309.034,3397.754,307.533Z" transform="translate(-3395.501 -305.059)"/></g></g><g transform="translate(2700.836 143.739)"><g transform="translate(0 0)"><path class="b" d="M3012.952,184.006c7.486-6.182,15.455-12.315,15.455-18.256,0-2.56-1.159-4.2-3.67-4.2-2.463,0-3.912,1.932-3.912,5.265h-7.969c.242-8.55,5.8-12.219,12.219-12.219,8.017,0,11.592,4.685,11.592,10.625,0,7.727-6.908,13.909-12.509,18.208h13.04v6.713h-24.245Z" transform="translate(-3012.855 -154.595)"/></g></g><g transform="translate(2703.246 143.739)"><g transform="translate(0 0)"><path class="a" d="M3026.532,184.006c7.486-6.182,15.455-12.315,15.455-18.256,0-2.56-1.159-4.2-3.671-4.2-2.463,0-3.912,1.932-3.912,5.265h-7.969c.242-8.55,5.8-12.219,12.219-12.219,8.017,0,11.591,4.685,11.591,10.625,0,7.727-6.907,13.909-12.509,18.208h13.04v6.713h-24.245Z" transform="translate(-3026.436 -154.595)"/></g></g><g transform="translate(2732.384 158.863)"><g transform="translate(0 0.025)"><path class="a" d="M3195.012,248.778a4,4,0,0,0,4.1-3.016H3196.8a1.9,1.9,0,0,1-1.809,1.108,2.508,2.508,0,0,1,0-4.973,1.9,1.9,0,0,1,1.809,1.108h2.314a4.012,4.012,0,0,0-4.1-3.028,4.4,4.4,0,0,0,0,8.8Z" transform="translate(-3190.667 -239.977)"/></g><g transform="translate(9.7 0.123)"><path class="a" d="M3250.472,245.7a1.419,1.419,0,0,1-1.526,1.612c-1,0-1.5-.591-1.5-1.612v-5.17h-2.1v5.158a3.315,3.315,0,0,0,3.569,3.571,3.4,3.4,0,0,0,3.668-3.571v-5.158h-2.1Z" transform="translate(-3245.339 -240.532)"/></g><g transform="translate(18.057)"><path class="a" d="M3296.887,248.689a4.425,4.425,0,1,0-4.444-4.431,4.327,4.327,0,0,0,4.22,4.431C3296.737,248.691,3296.812,248.691,3296.887,248.689Zm0-6.942a2.522,2.522,0,1,1-2.29,2.511A2.247,2.247,0,0,1,3296.887,241.747Z" transform="translate(-3292.442 -239.839)"/></g><g transform="translate(27.622 0.123)"><path class="a" d="M3348.644,249.173h2.1v-6.955h2.289v-1.687h-6.684v1.687h2.29Z" transform="translate(-3346.354 -240.532)"/></g><g transform="translate(34.799 0.123)"><path class="a" d="M3392.748,247.647l.517,1.526h2.228l-3.126-8.641h-2.437l-3.126,8.641h2.2l.517-1.526Zm-1.612-4.788,1.071,3.164h-2.129Z" transform="translate(-3386.803 -240.532)"/></g><g transform="translate(0.001 11.595)"><path class="a" d="M3194.659,310.609h2.671a2.07,2.07,0,0,1-2.093,1.526,2.276,2.276,0,0,1-2.424-2.536,2.219,2.219,0,0,1,2.253-2.462,1.81,1.81,0,0,1,1.7.886h2.327a3.836,3.836,0,0,0-4.025-2.831,4.4,4.4,0,1,0,4.173,5.823v-1.957h-4.58Z" transform="translate(-3190.673 -305.193)"/></g><g transform="translate(9.737 11.693)"><path class="a" d="M3252.256,308.466c0-1.5-1.058-2.721-3.176-2.721h-3.533v8.641h2.1v-3.262h.5l1.8,3.262h2.376l-1.995-3.422A2.515,2.515,0,0,0,3252.256,308.466Zm-3.3,1.169h-1.3v-2.142h1.3c.788,0,1.157.418,1.157,1.059,0,.677-.369,1.083-1.157,1.083Z" transform="translate(-3245.547 -305.745)"/></g><g transform="translate(17.196 11.693)"><path class="a" d="M3290.719,305.745l-3.127,8.641h2.2l.517-1.527h3.225l.517,1.527h2.228l-3.126-8.641Zm.147,5.49,1.059-3.164,1.071,3.164Z" transform="translate(-3287.592 -305.745)"/></g><g transform="translate(26.367 11.693)"><path class="a" d="M3339.281,307.432h2.29v6.955h2.1v-6.955h2.29v-1.687h-6.684Z" transform="translate(-3339.281 -305.745)"/></g><g transform="translate(34.11 11.693)"><rect class="a" width="2.105" height="8.641"/></g><g transform="translate(37.495 11.571)"><path class="a" d="M3404.255,307.533a.766.766,0,0,1,.886-.788.935.935,0,0,1,1,.87v.028h2.277c-.086-1.649-1.354-2.585-3.237-2.585-1.81,0-3.151.911-3.151,2.548-.024,3.065,4.3,2.2,4.3,3.8,0,.5-.394.812-1.009.812a.991.991,0,0,1-1.068-.907c0-.026,0-.052,0-.078H3402c.062,1.748,1.514,2.671,3.373,2.671,2.018,0,3.151-1.206,3.151-2.659C3408.527,308.357,3404.255,309.034,3404.255,307.533Z" transform="translate(-3402.003 -305.059)"/></g></g><g transform="translate(2735.618 145.103)"><g transform="translate(0)"><path class="b" d="M3210.917,163.712a1.683,1.683,0,0,1,1.413.7v-2.128h1.405v6.081h-1.405V167.7a1.586,1.586,0,0,1-1.413.723,2.386,2.386,0,0,1,0-4.716Zm.411,1.224a1.021,1.021,0,0,0-1,1.126,1.036,1.036,0,0,0,1,1.142,1.143,1.143,0,0,0,0-2.268Z" transform="translate(-3208.895 -162.282)"/></g><g transform="translate(5.58 1.428)"><path class="b" d="M3242.369,170.331a1.6,1.6,0,0,1,1.413.715V170.4h1.405v4.585h-1.405v-.649a1.622,1.622,0,0,1-1.421.715,2.387,2.387,0,0,1,.008-4.717Zm.411,1.224a1.021,1.021,0,0,0-1,1.126,1.036,1.036,0,0,0,1,1.142,1.143,1.143,0,0,0,0-2.268Z" transform="translate(-3240.348 -170.329)"/></g></g><g transform="translate(2682.571 154.954)"><g transform="translate(0 0)"><path class="c" d="M2919.663,217.808v5.2h5.054v4.444h-5.054v5.17h-4.705v-5.17H2909.9v-4.444h5.054v-5.2Z" transform="translate(-2909.904 -217.808)"/></g></g><g transform="translate(2735.618 152.648)"><g transform="translate(0)"><rect class="b" width="10.42" height="1.38"/></g></g><g transform="translate(2633.538 141.398)"><g transform="translate(0 0)"><ellipse class="b" cx="20.221" cy="20.229" rx="20.221" ry="20.229"/></g></g><g transform="translate(2635.559 141.406)"><g transform="translate(0 0)"><ellipse class="a" cx="20.221" cy="20.229" rx="20.221" ry="20.229"/></g></g><g transform="translate(2639.941 153.132)"><g transform="translate(0 0.026)"><path class="b" d="M2672.172,211.763h-2.541v-4.082h7.109v18.743h-4.568Z" transform="translate(-2669.631 -207.681)"/></g><g transform="translate(9.828)"><path class="b" d="M2737.217,207.533v3.851h-8.007v3.543a4.7,4.7,0,0,1,3.439-1.284c4.081,0,5.646,3.107,5.646,6.136,0,3.954-2.31,6.522-6.467,6.522-4.209,0-6.647-2.336-6.8-5.572h4.286a2.218,2.218,0,0,0,2.361,1.849c1.668,0,2.387-1.207,2.387-2.824,0-1.695-.847-2.593-2.412-2.593a2.073,2.073,0,0,0-2.181,1.54h-4.235V207.533Z" transform="translate(-2725.026 -207.533)"/></g></g><g transform="translate(2664.372 153.078)"><g transform="translate(0 0)"><path class="b" d="M2808.771,207.231a1.46,1.46,0,1,1-1.442,1.46A1.344,1.344,0,0,1,2808.771,207.231Zm-.423,1.46c0,.406.156.587.415.587s.423-.181.423-.587-.165-.6-.423-.6-.416.181-.416.6Zm3.42-1.365h1.425l-3.325,6.082h-1.425Zm1.105,3.257a1.46,1.46,0,1,1-1.433,1.46,1.34,1.34,0,0,1,1.433-1.46Zm-.423,1.46c0,.406.156.587.414.587s.423-.182.423-.587-.165-.6-.423-.6-.414.19-.414.6Z" transform="translate(-2807.329 -207.231)"/></g></g><g transform="translate(2664.104 161.627)"><g transform="translate(0 0.029)"><path class="b" d="M2807.637,256.589a.978.978,0,0,1-1.059,1.011h-.757v-2.022h.757A.976.976,0,0,1,2807.637,256.589Zm-1.091.585a.588.588,0,0,0,0-1.175h-.233v1.175Z" transform="translate(-2805.82 -255.578)"/></g><g transform="translate(2.035 0)"><path class="b" d="M2818.079,257.486c-.435,0-.774-.216-.789-.625h.524a.232.232,0,0,0,.232.231h.018c.144,0,.236-.072.236-.19,0-.375-1.01-.173-1-.89,0-.383.314-.6.737-.6.44,0,.737.22.757.6h-.533a.22.22,0,0,0-.229-.21h0a.179.179,0,0,0-.205.149.193.193,0,0,0,0,.036c0,.351,1,.193,1,.87A.651.651,0,0,1,2818.079,257.486Z" transform="translate(-2817.29 -255.415)"/></g><g transform="translate(3.78 0.005)"><path class="b" d="M2828.142,255.442a.938.938,0,0,1,.959.709h-.541a.446.446,0,0,0-.423-.259.587.587,0,0,0,0,1.164.445.445,0,0,0,.423-.259h.541a.936.936,0,0,1-.958.706,1.03,1.03,0,0,1,0-2.059Z" transform="translate(-2827.126 -255.441)"/></g><g transform="translate(5.947 0.029)"><path class="b" d="M2839.339,255.578h1.563v.395h-.535V257.6h-.492v-1.627h-.535Z" transform="translate(-2839.339 -255.578)"/></g><g transform="translate(7.676 0)"><path class="b" d="M2850.124,257.487a1.035,1.035,0,1,1,1.034-1.037h0a1.017,1.017,0,0,1-1,1.037Zm0-.449a.529.529,0,0,0,.536-.521.47.47,0,0,0,0-.067.536.536,0,1,0-.533.588Z" transform="translate(-2849.087 -255.416)"/></g></g></g></svg>