<svg xmlns="http://www.w3.org/2000/svg" width="167.663" height="39.995" viewBox="0 0 167.663 39.995"><defs><style>.a{fill:#fff;}.b{fill:#ffd527;}</style></defs><g transform="translate(-51 -16.503)"><g transform="translate(-2903.312 -362.34)"><path class="a" d="M3082.848,408.7h0a1.4,1.4,0,0,0,.007.233v2.632h.978v-2.445a1.085,1.085,0,0,1,.2-.721.721.721,0,0,1,.58-.225,1.591,1.591,0,0,1,.266.022v-.774a1.073,1.073,0,0,0-.495-.1A1.459,1.459,0,0,0,3082.848,408.7Z"/><path class="a" d="M3080.644,411.648h.047a1.942,1.942,0,0,0,1.222-.277v-.705a2.363,2.363,0,0,1-1.025.205,1.146,1.146,0,0,1-1.235-.907l-.008-.049h.746a3.644,3.644,0,0,0,1.507-.218.765.765,0,0,0,.447-.768,1.6,1.6,0,0,0-1.6-1.6h-.064l0,0a2.162,2.162,0,0,0-.039,4.315Zm-1-2.443.008-.142a.95.95,0,0,1,.936-.941,1.027,1.027,0,0,1,.614.166.607.607,0,0,1,.235.51.347.347,0,0,1-.269.358h0a3.347,3.347,0,0,1-1.007.094h-.52Z"/><path class="a" d="M3073.8,407.334h0c-.067,0-.134,0-.2,0v0a1.726,1.726,0,0,0-1.869,1.57,1.665,1.665,0,0,0-.006.2v2.475h.971v-2.4a1.116,1.116,0,0,1,.225-.729.745.745,0,0,1,.593-.264.846.846,0,0,1,.668.261,1.2,1.2,0,0,1,.238.809v2.326h.97v-2.42A1.711,1.711,0,0,0,3073.8,407.334Z"/><path class="a" d="M3077.1,406.27h-.966V410.1a1.39,1.39,0,0,0,1.211,1.55,1.372,1.372,0,0,0,.339,0c.449,0,.72-.147.831-.379v-.6a1.781,1.781,0,0,1-.7.112.7.7,0,0,1-.528-.19.868.868,0,0,1-.187-.616v-1.793h.847c.414,0,.587-.264.589-.459v-.388h-1.439Z"/><rect class="a" width="0.977" height="5.309" transform="translate(3069.987 406.264)"/><path class="a" d="M3090.763,411.645h.045a1.941,1.941,0,0,0,1.224-.278v-.705a2.363,2.363,0,0,1-1.025.206,1.146,1.146,0,0,1-1.235-.907l-.007-.05h.745a3.615,3.615,0,0,0,1.507-.218l0,0a.765.765,0,0,0,.448-.768,1.6,1.6,0,0,0-1.6-1.6h-.065a2.163,2.163,0,0,0-.039,4.317Zm-1-2.439.007-.143a.95.95,0,0,1,.935-.94,1.007,1.007,0,0,1,.615.165.6.6,0,0,1,.236.509.349.349,0,0,1-.269.359,3.441,3.441,0,0,1-1.006.094h-.518Z"/><path class="a" d="M3101.452,408.708a1.378,1.378,0,0,0,.006.231h0v2.635h.979v-2.45a1.084,1.084,0,0,1,.2-.719.724.724,0,0,1,.58-.226,1.488,1.488,0,0,1,.266.023v-.776a1.093,1.093,0,0,0-.5-.1A1.458,1.458,0,0,0,3101.452,408.708Z"/><path class="a" d="M3087.05,409.06c-.661-.114-.775-.2-.775-.4,0-.27.183-.459.775-.459a1.632,1.632,0,0,1,1.107.38h.035v-.388c0-.4-.359-.88-1.239-.88h-.066a1.512,1.512,0,0,0-1.581,1.437c0,.629.4.974,1.215,1.1.67.1.807.213.807.451,0,.307-.231.453-.706.453a1.868,1.868,0,0,1-1.166-.391h-.035v.468c0,.423.532.811,1.246.811l0-.009c1.042,0,1.617-.52,1.617-1.394C3088.287,409.573,3087.849,409.2,3087.05,409.06Z"/><path class="a" d="M3096.478,410.4c-.008-.185-.015-.422-.015-.56v-.7a1.355,1.355,0,0,0,.011-.169,1.617,1.617,0,0,0-1.594-1.64,1.945,1.945,0,0,0-1.971,2.1v.126h0a1.579,1.579,0,0,0,1.615,1.542.988.988,0,0,0,1-.611v.1c0,.04,0,.135.008.206s.005.153.005.214c0,.6-.313.95-1.012.95a1.662,1.662,0,0,1-1.233-.443h-.042v.464c0,.487.546.9,1.345.9a1.652,1.652,0,0,0,.186,0,1.84,1.84,0,0,0,1.714-1.957c0-.141-.008-.363-.016-.529Zm-1.809-.159h-.05a.837.837,0,0,1-.725-.936l-.006-.007a.273.273,0,0,1,0-.04h0a.963.963,0,0,1,.884-1.036c.427,0,.733.318.733.968S3095.157,410.245,3094.669,410.245Z"/><path class="a" d="M3107.557,409.287h0a1.928,1.928,0,0,0-1.883-1.973h0a2.283,2.283,0,0,0-.234.015,1.993,1.993,0,0,0-1.733,2.222.811.811,0,0,0-.006.122,1.922,1.922,0,0,0,1.883,1.959,2.063,2.063,0,0,0,.236-.014,1.987,1.987,0,0,0,1.731-2.212A.8.8,0,0,0,3107.557,409.287Zm-1.881,1.479c-.682,0-.981-.513-.981-1.365,0-.712.3-1.222.889-1.222.675,0,.981.51.981,1.373C3106.565,410.253,3106.276,410.766,3105.676,410.766Z"/><path class="a" d="M3097.137,407.4v2.427a1.711,1.711,0,0,0,1.583,1.828,1.668,1.668,0,0,0,.2,0l0,.005a1.727,1.727,0,0,0,1.864-1.578,1.691,1.691,0,0,0,0-.2V407.4h-.967v2.414a1.11,1.11,0,0,1-.225.73.744.744,0,0,1-.59.265.834.834,0,0,1-.664-.261,1.2,1.2,0,0,1-.237-.813V407.4Z"/><path class="a" d="M3060.951,406.144v6.565h6.567a1.013,1.013,0,0,0,1.013-1.012V405.13h-6.568A1.014,1.014,0,0,0,3060.951,406.144Zm1.77,1.111,4.042-.731V410.6l-4.042.73Z"/><path class="a" d="M3064.845,402.542c2.688,0,4.088-1.6,4.088-4.387v-2.319l-2.591,0v2.491c0,1.247-.549,1.7-1.42,1.7s-1.42-.45-1.42-1.7v-9.422c0-1.245.548-1.72,1.42-1.72s1.42.475,1.42,1.72v1.87h2.591v-1.7c0-2.787-1.4-4.387-4.088-4.387s-4.087,1.6-4.087,4.387v9.072C3060.758,400.941,3062.157,402.542,3064.845,402.542Z"/><path class="a" d="M3072.9,402.342h2.742V396.56L3079.1,384.9h-2.616l-2.094,7.951L3072.3,384.9h-2.866l3.464,11.664Z"/><path class="a" d="M3088.672,398.208v-1.425c0-1.844-.575-3.165-2.044-3.738,1.221-.573,1.771-1.72,1.771-3.514v-.623c0-2.691-1.221-4.012-4.066-4.012H3080.2v17.449h4.312C3087.251,402.345,3088.672,400.9,3088.672,398.208Zm-5.731-10.82,1.317,0c.976,0,1.4.547,1.4,1.794v.971c0,1.4-.623,1.845-1.645,1.845h-1.071Zm0,7.1h1.218c1.248,0,1.771.5,1.771,2.118v1.518c0,1.3-.5,1.72-1.419,1.72h-1.57Z"/><path class="a" d="M3097.795,399.849h-4.735V394.74h3.765v-2.491h-3.765v-4.862h4.735V384.9h-7.475v17.444h7.475Z"/><path class="a" d="M3102.231,395.238h.947c1.246,0,1.795.6,1.795,2.217V400.2a5.379,5.379,0,0,0,.249,2.144h2.794a5.148,5.148,0,0,1-.3-2.12v-2.691c0-1.82-.451-3.14-1.822-3.713,1.221-.573,1.794-1.745,1.794-3.539v-1.372c0-2.691-1.221-4.011-4.063-4.011h-4.136v17.441h2.741Zm0-7.851h1.319c.975,0,1.4.549,1.4,1.794v1.72c0,1.4-.624,1.844-1.646,1.844h-1.072Z"/><path class="b" d="M2969.211,403.04h2.524l2.158-2.845,1.242,2.847h2.344l-2.037-4.667,3.185-4.027-.192,1.062h2.32l-1.341,7.63h2.122l1.341-7.63h2.313l.341-1.864h-8.793l-2.171,2.837-1.241-2.837h-2.278l0-.013h-5.576l-1.689,9.507Zm1.821-9.4,2,4.576-3.612,4.567.292-1.616h-3.462l.357-1.985h3.086l.318-1.854h-3.081l.336-1.913h3.446Z"/><path class="b" d="M2989.781,403.04l.34-1.878h-3.462l.356-1.985h3.088l.316-1.854h-3.081l.338-1.913h3.446l.339-1.877h-5.575l-1.688,9.507Z"/><path class="b" d="M2992.575,403.039l1.008-5.653,2.72,5.653h1.841l1.688-9.507h-2.122l-1,5.646-2.73-5.646h-1.84l-1.688,9.507Z"/><path class="b" d="M3002.223,403.039c.121.008.242.012.362.012a5.51,5.51,0,0,0,5.418-4.658,4.117,4.117,0,0,0-.714-3.469,4.408,4.408,0,0,0-3.522-1.384H3000.7l-1.69,9.5Zm.221-1.85h-.969l1.016-5.741h1.117a2.41,2.41,0,0,1,1.932.684,2.655,2.655,0,0,1,.34,2.129A3.287,3.287,0,0,1,3002.444,401.189Z"/><path class="b" d="M3009.756,403.046l1.689-9.5h-2.123l-1.689,9.5Z"/><path class="b" d="M3012.752,403.04l.793-4.48,1.221,4.48h1.439l2.694-4.33-.763,4.33h2.123l1.662-9.434h-2.055l-3.879,6.232-1.688-6.232h-2l-1.673,9.434Z"/><path class="b" d="M3021.535,399.494a3.872,3.872,0,0,0,3.857,3.638c.073,0,.145,0,.217-.006h.239a5.466,5.466,0,0,0,5.263-5.622,3.739,3.739,0,0,0,0-.45,3.853,3.853,0,0,0-4.067-3.6h-.229a5.468,5.468,0,0,0-5.28,5.614A3.966,3.966,0,0,0,3021.535,399.494Zm7.436-1.994,0,.152a3.358,3.358,0,0,1-2.795,3.43l-.461.038a1.794,1.794,0,0,1-.311,0,1.9,1.9,0,0,1-1.723-2.062l0-.165a3.341,3.341,0,0,1,3.246-3.453c.05,0,.1-.005.151-.005s.111,0,.165.006A1.9,1.9,0,0,1,3028.971,397.5Z"/><path class="b" d="M3034.093,399.146c1.042.422,1.494.664,1.459,1.211-.038.717-.729.868-1.3.868a1.205,1.205,0,0,1-.9-.3.807.807,0,0,1-.2-.612l.036-.535H3031.1l-.048.447a2.416,2.416,0,0,0,.586,1.928,3.358,3.358,0,0,0,2.556.977c2,0,3.442-1.156,3.5-2.807.089-1.852-1.449-2.509-2.573-2.988-.992-.424-1.457-.675-1.427-1.15.046-.77.973-.829,1.256-.829a1.148,1.148,0,0,1,.856.293.572.572,0,0,1,.157.435l-.043.539h2.176l.023-.475a2.378,2.378,0,0,0-.649-1.8,3.292,3.292,0,0,0-2.459-.9c-2.008,0-3.42,1.191-3.433,2.883C3031.52,398.1,3033.007,398.706,3034.093,399.146Z"/><path class="b" d="M3047.346,401.162h-3.461l.356-1.985h3.088l.317-1.854h-3.08l.336-1.913h3.447l.339-1.877h-5.576l-1.688,9.507h5.585Z"/><path class="b" d="M3052.767,403.039l.346-1.854h-2.979l1.353-7.636-2.125-.014-1.688,9.5Z"/><path class="b" d="M3119.968,381.377a7.268,7.268,0,0,0-5.519-2.535H2965.383a7.636,7.636,0,0,0-7.428,6.7l-3.55,24.174a8.151,8.151,0,0,0,1.866,6.533,7.364,7.364,0,0,0,5.564,2.588h149.518a7.685,7.685,0,0,0,7.45-6.851l3.1-24.174A8.17,8.17,0,0,0,3119.968,381.377Zm-5.515-1.207a5.956,5.956,0,0,1,4.517,2.081,6.837,6.837,0,0,1,1.617,5.389l-3.1,24.183a6.372,6.372,0,0,1-6.133,5.687H2961.837a5.94,5.94,0,0,1-4.556-2.128,6.818,6.818,0,0,1-1.559-5.471l3.552-24.184a6.311,6.311,0,0,1,6.117-5.559v0Z"/></g></g></svg>