<svg xmlns="http://www.w3.org/2000/svg" width="635.503" height="282" viewBox="0 0 635.503 282"><defs><style>.a{fill:#ffd527;}.b{fill:#ea0c90;}.c,.d{fill:#fff;}.d{fill-rule:evenodd;}</style></defs><g transform="translate(-2917.887 -560.63)"><rect class="a" width="67.147" height="51.426" rx="14.736" transform="translate(3381.817 560.63)"/><path class="b" d="M3396.25,654.964c7.886,0,13.836-4.392,15.726-11.571H3403.1a7.3,7.3,0,0,1-6.941,4.251c-4.958,0-8.357-3.684-8.357-9.54s3.4-9.539,8.357-9.539a7.3,7.3,0,0,1,6.941,4.251h8.878c-1.89-7.178-7.839-11.617-15.726-11.617-9.775,0-16.67,6.989-16.67,16.906S3386.469,654.964,3396.25,654.964Z"/><path class="b" d="M3436.476,641.412c0,3.919-2.03,6.185-5.855,6.185s-5.761-2.267-5.761-6.185V621.577h-8.075v19.787c0,9.162,6,13.7,13.7,13.7,7.649,0,14.073-4.534,14.073-13.7V621.577h-8.082Z"/><path class="b" d="M3465.9,655.059a16.977,16.977,0,1,0-17.047-17,16.6,16.6,0,0,0,16.189,17Q3465.47,655.071,3465.9,655.059Zm0-26.634c5.291,0,8.738,3.731,8.738,9.634,0,5.808-3.448,9.634-8.738,9.634-5.383,0-8.783-3.825-8.783-9.634C3457.114,632.156,3460.514,628.425,3465.9,628.425Z"/><path class="b" d="M3494.33,654.732h8.075V628.047h8.784v-6.47H3485.55v6.47h8.784Z"/><path class="b" d="M3535.886,648.872l1.984,5.856h8.547l-11.995-33.151h-9.35l-12,33.155h8.453l1.983-5.856ZM3529.7,630.5l4.108,12.137h-8.17Z"/><path class="b" d="M3394.876,686.366h10.248a7.941,7.941,0,0,1-8.028,5.856c-5.809,0-9.3-3.589-9.3-9.728,0-5.76,3.447-9.444,8.642-9.444,3.022,0,5.289,1.18,6.517,3.4h8.925c-1.747-6.8-7.508-10.861-15.44-10.861-9.917,0-16.859,6.989-16.859,16.906s6.989,16.86,16.906,16.86a16.237,16.237,0,0,0,15.964-11.423v-7.509h-17.569Z"/><path class="b" d="M3442.667,676.4c0-5.761-4.061-10.437-12.183-10.437h-13.553v33.151h8.075V686.6h1.936l6.9,12.514h9.114l-7.655-13.13A9.648,9.648,0,0,0,3442.667,676.4Zm-12.656,4.486H3425v-8.217h5.006c3.022,0,4.439,1.6,4.439,4.062,0,2.6-1.416,4.153-4.438,4.153Z"/><path class="b" d="M3457.544,665.965l-12,33.151H3454l1.983-5.856h12.371l1.984,5.856h8.547l-12-33.151Zm.566,21.062,4.062-12.137,4.108,12.137Z"/><path class="b" d="M3480.732,672.432h8.783v26.681h8.075V672.432h8.784v-6.47h-25.642Z"/><rect class="b" width="8.075" height="33.151" transform="translate(3510.434 665.966)"/><path class="b" d="M3532.065,674.99c0-2.078,1.465-3.07,3.4-3.022a3.588,3.588,0,0,1,3.82,3.34h0v.107h8.737c-.331-6.328-5.2-9.917-12.418-9.917-6.944,0-12.091,3.494-12.091,9.775-.093,11.758,16.481,8.453,16.481,14.592,0,1.936-1.512,3.117-3.873,3.117a3.8,3.8,0,0,1-4.1-3.474V689.5c-.008-.1-.013-.2-.013-.3h-8.594c.236,6.705,5.808,10.247,12.939,10.247,7.744,0,12.089-4.628,12.089-10.2C3548.451,678.149,3532.065,680.746,3532.065,674.99Z"/><path class="b" d="M3263.343,675.916c28.719-23.716,59.291-47.247,59.291-70.037,0-9.82-4.447-16.119-14.082-16.119-9.449,0-15.008,7.411-15.008,20.2h-30.572c.927-32.8,22.234-46.877,46.877-46.877,30.757,0,44.469,17.973,44.469,40.762,0,29.645-26.5,53.361-47.989,69.852h50.021v25.754h-93.013Z"/><path class="a" d="M3272.586,675.916c28.72-23.716,59.292-47.247,59.292-70.037,0-9.82-4.447-16.119-14.082-16.119-9.449,0-15.008,7.411-15.008,20.2h-30.572c.927-32.8,22.234-46.877,46.877-46.877,30.757,0,44.469,17.973,44.469,40.762,0,29.645-26.5,53.361-47.989,69.852H3365.6v25.754h-93.013Z"/><path class="a" d="M3400.671,654.964c7.885,0,13.836-4.392,15.727-11.571h-8.878a7.3,7.3,0,0,1-6.942,4.251c-4.958,0-8.358-3.684-8.358-9.54s3.4-9.539,8.358-9.539a7.3,7.3,0,0,1,6.942,4.251h8.878c-1.889-7.178-7.842-11.617-15.727-11.617-9.774,0-16.668,6.989-16.668,16.906S3390.9,654.964,3400.671,654.964Z"/><path class="a" d="M3440.906,641.412c0,3.919-2.03,6.185-5.855,6.185s-5.761-2.267-5.761-6.185V621.577h-8.076v19.787c0,9.162,6,13.7,13.7,13.7,7.65,0,14.073-4.534,14.073-13.7V621.577h-8.075Z"/><path class="a" d="M3470.327,655.059a16.977,16.977,0,1,0-17.047-17,16.6,16.6,0,0,0,16.189,17C3469.755,655.067,3470.042,655.067,3470.327,655.059Zm0-26.634c5.29,0,8.738,3.731,8.738,9.634,0,5.808-3.448,9.634-8.738,9.634-5.383,0-8.783-3.825-8.783-9.634C3461.544,632.156,3464.943,628.425,3470.327,628.425Z"/><path class="a" d="M3498.755,654.732h8.075V628.047h8.783v-6.47h-25.642v6.47h8.783Z"/><path class="a" d="M3540.311,648.872l1.983,5.856h8.548l-11.992-33.151h-9.35l-12,33.155h8.453l1.983-5.856Zm-6.185-18.37,4.108,12.137h-8.17Z"/><path class="a" d="M3399.3,686.366h10.249a7.94,7.94,0,0,1-8.028,5.856c-5.808,0-9.3-3.589-9.3-9.728,0-5.76,3.447-9.444,8.642-9.444,3.022,0,5.289,1.18,6.517,3.4h8.927c-1.748-6.8-7.51-10.861-15.441-10.861-9.917,0-16.859,6.989-16.859,16.906s6.99,16.86,16.906,16.86a16.238,16.238,0,0,0,15.961-11.428v-7.509H3399.3Z"/><path class="a" d="M3447.093,676.4c0-5.761-4.061-10.437-12.184-10.437h-13.553v33.151h8.075V686.6h1.936l6.9,12.514h9.114l-7.65-13.13A9.65,9.65,0,0,0,3447.093,676.4Zm-12.656,4.486h-5.006v-8.217h5.006c3.022,0,4.439,1.6,4.439,4.062,0,2.6-1.417,4.153-4.439,4.153Z"/><path class="a" d="M3461.969,665.965l-11.995,33.151h8.453l1.983-5.856h12.373l1.983,5.856h8.547l-11.994-33.151Zm.566,21.062,4.062-12.137,4.108,12.137Z"/><path class="a" d="M3485.157,672.432h8.784v26.681h8.075V672.432h8.784v-6.47h-25.643Z"/><rect class="a" width="8.075" height="33.151" transform="translate(3514.861 665.966)"/><path class="a" d="M3536.49,674.99c0-2.078,1.464-3.07,3.4-3.022a3.586,3.586,0,0,1,3.819,3.337h0c0,.036.005.073.006.109h8.737c-.331-6.328-5.194-9.917-12.419-9.917-6.942,0-12.09,3.494-12.09,9.775-.1,11.758,16.481,8.453,16.481,14.592,0,1.936-1.512,3.117-3.873,3.117a3.8,3.8,0,0,1-4.1-3.474V689.5q-.012-.147-.012-.3h-8.589c.236,6.7,5.809,10.247,12.939,10.247,7.744,0,12.089-4.628,12.089-10.2C3552.876,678.149,3536.49,680.746,3536.49,674.99Z"/><path class="b" d="M3404.166,573.8a6.459,6.459,0,0,1,5.421,2.679v-8.164h5.391v23.328h-5.391v-2.526a6.08,6.08,0,0,1-5.421,2.775c-4.32,0-7.757-3.53-7.757-9.079S3399.85,573.8,3404.166,573.8Zm1.576,4.7c-2.018,0-3.845,1.514-3.845,4.319s1.828,4.382,3.845,4.382c2.049,0,3.846-1.545,3.846-4.351s-1.8-4.351-3.847-4.351Z"/><path class="b" d="M3425.572,573.8a6.124,6.124,0,0,1,5.422,2.743v-2.488h5.39v17.589h-5.39v-2.491a6.219,6.219,0,0,1-5.454,2.743c-4.287,0-7.723-3.53-7.723-9.078S3421.25,573.8,3425.572,573.8Zm1.576,4.7c-2.018,0-3.846,1.514-3.846,4.319s1.829,4.382,3.846,4.382c2.049,0,3.846-1.545,3.846-4.351s-1.8-4.35-3.847-4.35Z"/><path class="c" d="M3223.82,645.355V667.1h21.136v18.584H3223.82V707.3h-19.677V685.683h-21.135V667.1h21.135V645.355Z"/><rect class="b" width="39.974" height="5.296" transform="translate(3396.41 597.262)"/><ellipse class="b" cx="113.972" cy="114.018" rx="113.972" ry="114.018" transform="translate(2917.887 560.63)"/><ellipse class="a" cx="113.972" cy="114.018" rx="113.972" ry="114.018" transform="translate(2929.281 560.676)"/><path class="b" d="M2968.3,649.919h-14.319V626.913h40.068V732.555H2968.3Z"/><path class="b" d="M3078.085,626.765v21.708H3032.95v19.97c3.762-4.2,10.994-7.237,19.383-7.237,23,0,31.825,17.511,31.825,34.586,0,22.284-13.02,36.758-36.453,36.758-23.723,0-37.466-13.169-38.332-31.4h24.157c1.012,5.5,5.207,10.42,13.309,10.42,9.4,0,13.453-6.8,13.453-15.917,0-9.553-4.774-14.616-13.6-14.616-6.943,0-10.993,3.761-12.3,8.682h-23.869V626.765Z"/><path class="b" d="M3099.807,626.463c4.623,0,8.079,2.825,8.079,8.229s-3.455,8.228-8.079,8.228-8.128-2.823-8.128-8.228S3095.183,626.463,3099.807,626.463Zm-2.385,8.229c0,2.289.877,3.31,2.337,3.31s2.385-1.022,2.385-3.31c0-2.337-.928-3.359-2.385-3.359s-2.342,1.022-2.342,3.359ZM3116.7,627h8.03l-18.739,34.279h-8.031Zm6.23,18.356c4.624,0,8.08,2.775,8.08,8.23,0,5.4-3.455,8.228-8.08,8.228s-8.079-2.825-8.079-8.228c0-5.454,3.454-8.23,8.078-8.23Zm-2.385,8.23c0,2.287.876,3.31,2.336,3.31s2.385-1.023,2.385-3.31-.927-3.36-2.385-3.36S3120.542,651.295,3120.542,653.585Z"/><path class="b" d="M3100.41,680.509c0,3.377-2.337,5.7-5.973,5.7h-4.267v-11.4h4.267C3098.073,674.81,3100.41,677.116,3100.41,680.509Zm-6.151,3.3a3.311,3.311,0,1,0,0-6.623h-1.313V683.8Z"/><path class="b" d="M3106.086,686.32c-2.45,0-4.365-1.217-4.447-3.523h2.955a1.306,1.306,0,0,0,1.309,1.3h.1c.811,0,1.33-.4,1.33-1.072,0-2.111-5.7-.974-5.663-5.017,0-2.159,1.77-3.36,4.155-3.36,2.483,0,4.154,1.238,4.269,3.4h-3a1.238,1.238,0,0,0-1.288-1.186h-.026a1.013,1.013,0,0,0-1.157.838,1.127,1.127,0,0,0-.011.2c0,1.981,5.63,1.087,5.63,4.9C3110.24,684.732,3108.75,686.32,3106.086,686.32Z"/><path class="b" d="M3117.2,674.68a5.289,5.289,0,0,1,5.4,3.994h-3.051a2.51,2.51,0,0,0-2.385-1.461c-1.7,0-2.872,1.266-2.872,3.278s1.169,3.28,2.872,3.28a2.507,2.507,0,0,0,2.386-1.461h3.051a5.275,5.275,0,0,1-5.4,3.977,5.8,5.8,0,0,1,0-11.607Z"/><path class="b" d="M3123.689,674.81h8.812v2.222h-3.019v9.175h-2.775v-9.175h-3.019Z"/><path class="b" d="M3139.282,686.32a5.836,5.836,0,1,1,5.826-5.846h0a5.731,5.731,0,0,1-5.616,5.844Zm0-2.532a2.982,2.982,0,0,0,3.019-2.945,3.036,3.036,0,0,0-.019-.368c0-2.029-1.184-3.312-3-3.312-1.85,0-3.019,1.283-3.019,3.312C3136.264,682.473,3137.432,683.788,3139.282,683.788Z"/><path class="c" d="M3478.806,768.943c-2.155,0-3.681,1.554-3.688,4.074a3.672,3.672,0,0,0,3.618,3.722h.084a3.508,3.508,0,0,0,2.208-.5v-1.275a4.26,4.26,0,0,1-1.852.372,2.071,2.071,0,0,1-2.231-1.639l-.014-.09h1.347a6.553,6.553,0,0,0,2.722-.393,1.381,1.381,0,0,0,.807-1.386,2.886,2.886,0,0,0-2.885-2.886h-.115m.877,3.3a6.116,6.116,0,0,1-1.818.169h-.939l0-.081.014-.257a1.716,1.716,0,0,1,1.69-1.7,1.829,1.829,0,0,1,1.106.3,1.1,1.1,0,0,1,.427.921.627.627,0,0,1-.486.647m3.052-.4v4.76h1.767v-4.418a1.946,1.946,0,0,1,.359-1.3,1.3,1.3,0,0,1,1.045-.407,2.763,2.763,0,0,1,.481.039v-1.4a1.959,1.959,0,0,0-.894-.184,2.635,2.635,0,0,0-2.771,2.489h0a2.719,2.719,0,0,0,.011.421m-23.241,4.76h1.764v-9.589h-1.764Zm6.521-7.666a3.117,3.117,0,0,0-3.375,2.835h0a2.9,2.9,0,0,0-.011.359V776.6h1.754V772.26a2.012,2.012,0,0,1,.406-1.317,1.354,1.354,0,0,1,1.07-.475,1.528,1.528,0,0,1,1.207.47,2.171,2.171,0,0,1,.429,1.463v4.2h1.751v-4.369a3.089,3.089,0,0,0-2.867-3.3h-.006a3.032,3.032,0,0,0-.357,0m6.331-1.921H3470.6l.006,6.918a2.513,2.513,0,0,0,2.8,2.8c.811,0,1.3-.265,1.5-.686v-1.089a3.2,3.2,0,0,1-1.27.2,1.251,1.251,0,0,1-.954-.341,1.573,1.573,0,0,1-.337-1.112v-3.238h1.53c.748,0,1.06-.477,1.063-.829v-.7h-2.6Z"/><path class="c" d="M3499.282,773.212a1.378,1.378,0,0,0,.808-1.386,2.885,2.885,0,0,0-2.882-2.886h-.118c-2.155,0-3.681,1.555-3.688,4.074a3.671,3.671,0,0,0,3.618,3.721h.082a3.507,3.507,0,0,0,2.21-.5v-1.274a4.265,4.265,0,0,1-1.852.372,2.071,2.071,0,0,1-2.231-1.639l-.013-.09h1.346a6.548,6.548,0,0,0,2.721-.393m-4.073-.8v-.081l.012-.257a1.717,1.717,0,0,1,1.689-1.7,1.83,1.83,0,0,1,1.109.3,1.1,1.1,0,0,1,.427.92.627.627,0,0,1-.486.647,6.118,6.118,0,0,1-1.819.17Z"/><path class="c" d="M3516.332,771.848v4.759h1.769V772.19a1.963,1.963,0,0,1,.36-1.3,1.3,1.3,0,0,1,1.046-.407,2.756,2.756,0,0,1,.48.039v-1.4a1.966,1.966,0,0,0-.9-.185,2.637,2.637,0,0,0-2.77,2.495,2.783,2.783,0,0,0,.011.416"/><path class="c" d="M3489.612,776.71c-1.289,0-2.251-.7-2.251-1.464V774.4h.064a3.365,3.365,0,0,0,2.106.706c.857,0,1.274-.263,1.274-.817,0-.429-.247-.635-1.458-.816-1.481-.221-2.194-.843-2.194-1.977a2.73,2.73,0,0,1,2.852-2.6h0a.809.809,0,0,1,.12.009c1.59,0,2.238.87,2.238,1.59v.7h-.065a2.951,2.951,0,0,0-2-.689c-1.067,0-1.4.343-1.4.829,0,.374.208.526,1.4.732,1.453.25,2.235.927,2.235,2.115,0,1.577-1.041,2.516-2.923,2.516"/><path class="c" d="M3507.329,774.478c.012.3.029.7.029.954a3.323,3.323,0,0,1-3.1,3.535,3.078,3.078,0,0,1-.333.005c-1.445,0-2.431-.746-2.431-1.631v-.84h.076a3,3,0,0,0,2.227.8c1.258,0,1.829-.635,1.829-1.715,0-.11,0-.262-.011-.389,0-.109-.012-.3-.012-.371v-.18a1.786,1.786,0,0,1-1.807,1.1,2.85,2.85,0,0,1-2.917-2.785v-.231a3.5,3.5,0,0,1,3.186-3.787,3.586,3.586,0,0,1,.374-.013c1.744,0,2.859,1.356,2.859,3.265v1.272c0,.25.013.677.027,1.01m-4.667-1.977a1.511,1.511,0,0,0,1.309,1.691h0c.03,0,.06.007.09.009.88,0,1.51-.7,1.51-1.9,0-1.172-.554-1.747-1.325-1.747a1.741,1.741,0,0,0-1.6,1.87v0a.242.242,0,0,0,.007.071"/><path class="c" d="M3523.937,768.91a3.484,3.484,0,0,1,3.4,3.563c0,.071-.006.141-.012.212,0,2.24-1.239,4.023-3.551,4.023a3.47,3.47,0,0,1-3.4-3.539c0-.074,0-.148.011-.222,0-2.241,1.238-4.038,3.551-4.038m-.161,1.565c-1.064,0-1.606.922-1.606,2.2,0,1.541.542,2.465,1.771,2.465,1.081,0,1.608-.924,1.608-2.192,0-1.556-.555-2.478-1.773-2.478"/><path class="c" d="M3511.75,776.761a3.119,3.119,0,0,0,3.367-2.848,3.071,3.071,0,0,0,.009-.358v-4.487h-1.747v4.358a2.012,2.012,0,0,1-.407,1.32,1.346,1.346,0,0,1-1.065.478,1.517,1.517,0,0,1-1.2-.472,2.183,2.183,0,0,1-.427-1.469v-4.216h-1.746v4.386a3.09,3.09,0,0,0,3.219,3.3"/><path class="d" d="M3444.993,764.967a1.829,1.829,0,0,0-1.826,1.83v11.86h11.861a1.83,1.83,0,0,0,1.83-1.829v-11.86Zm8.666,9.881-7.3,1.318V768.8l7.3-1.319Z"/><path class="c" d="M3457.583,748.18v4.187c0,5.041-2.521,7.923-7.383,7.923s-7.383-2.881-7.383-7.923V735.981c0-5.041,2.521-7.923,7.383-7.923s7.383,2.881,7.383,7.923v3.061H3452.9v-3.376c0-2.251-.99-3.106-2.565-3.106s-2.565.856-2.565,3.106v17.016c0,2.251.99,3.061,2.565,3.061s2.565-.81,2.565-3.061v-4.5Z"/><path class="c" d="M3464.742,749.486l-6.258-21.067h5.177l3.782,14.36,3.781-14.36h4.727l-6.258,21.067v10.446h-4.951Z"/><path class="c" d="M3492.74,735.666v1.126c0,3.241-.991,5.312-3.2,6.347,2.656,1.035,3.692,3.421,3.692,6.752v2.566c0,4.862-2.567,7.472-7.519,7.472h-7.788v-31.51h7.473C3490.534,728.419,3492.74,730.8,3492.74,735.666Zm-9.859-2.746v8.331h1.936c1.846,0,2.972-.81,2.972-3.332v-1.755c0-2.251-.766-3.241-2.521-3.241Zm0,12.83v9.682h2.835c1.667,0,2.566-.765,2.566-3.106v-2.744c0-2.926-.945-3.827-3.2-3.827Z"/><path class="c" d="M3501.159,741.7h6.8v4.5h-6.8v9.233h8.552v4.5h-13.5V728.419h13.5v4.5h-8.552Z"/><path class="c" d="M3523.126,759.932a9.718,9.718,0,0,1-.449-3.872v-4.952c0-2.926-.992-4.006-3.242-4.006h-1.711v12.83h-4.951v-31.51h7.471c5.133,0,7.338,2.385,7.338,7.247v2.476c0,3.242-1.035,5.357-3.241,6.392,2.476,1.036,3.288,3.421,3.288,6.707v4.862a9.283,9.283,0,0,0,.541,3.827Zm-5.4-27.01V742.6h1.936c1.846,0,2.972-.81,2.972-3.331v-3.106c0-2.251-.766-3.241-2.522-3.241Z"/><path class="c" d="M2961.142,840.227l2.326-10.96c.246-1.028.693-1.5,1.632-1.5h.47c.917,0,1.433.537,1.207,1.564l-2.168,10.107h5.3c.9,0,1.411.38,1.411.984a2.634,2.634,0,0,1-.559,1.542c-.224.246-.536.358-1.275.358H2962.8C2961.433,842.332,2960.827,841.632,2961.142,840.227Z"/><path class="c" d="M2980.75,840.318a4.574,4.574,0,0,1-3.935,2.277c-2.348,0-4.136-1.654-4.136-4.469,0-3.488,2.481-6.977,5.992-6.977a3.837,3.837,0,0,1,3.511,1.967,2.215,2.215,0,0,1,2.3-1.789c.626,0,1.118.269,1.118.38l-1.7,7.915c-.267,1.207-.045,1.654.8,1.811.021.022-.136,1.118-1.745,1.118a1.96,1.96,0,0,1-2.215-2.235Zm.559-3.243.313-1.517a2.488,2.488,0,0,0-2.53-1.945c-2.079,0-3.354,2.079-3.354,4.069a2.208,2.208,0,0,0,1.99,2.4c.074.007.149.01.223.01a3.6,3.6,0,0,0,3.36-3.022Z"/><path class="c" d="M2990.16,837.589a6.185,6.185,0,0,1,5.923-6.435h0c.083,0,.166-.005.249-.005a4.861,4.861,0,0,1,5.22,4.474h0a4.773,4.773,0,0,1,.011.535,6.181,6.181,0,0,1-5.919,6.434h0c-.084,0-.167.006-.251.006a4.861,4.861,0,0,1-5.22-4.473A4.786,4.786,0,0,1,2990.16,837.589Zm8.653-1.3a2.59,2.59,0,0,0-2.424-2.746h-.147c-1.945,0-3.333,1.879-3.333,3.936a2.584,2.584,0,0,0,2.436,2.723h.136c1.947,0,3.333-1.874,3.333-3.91Z"/><path class="c" d="M3003.485,840.92l1.5-7.043h-.849c-.715,0-1.14-.313-1.14-.827a2.3,2.3,0,0,1,.447-1.319,1.422,1.422,0,0,1,1.1-.313h.961l.179-.739c.626-2.972,2.236-4.024,4.271-4.024a3.217,3.217,0,0,1,2.3.738,1.369,1.369,0,0,1,.4.962,1.607,1.607,0,0,1-.849,1.387,1.95,1.95,0,0,0-1.517-.675c-.806,0-1.342.447-1.611,1.677l-.157.675H3010c.782,0,1.207.337,1.207.827a2.275,2.275,0,0,1-.469,1.319,1.418,1.418,0,0,1-1.1.313h-1.5l-1.5,7.044c-.224,1.118-.648,1.5-1.453,1.5h-.338C3004,842.419,3003.235,842.086,3003.485,840.92Z"/><path class="c" d="M3010.974,837.949a6.685,6.685,0,0,1,6.567-6.8h.3c2.771,0,4.314,1.3,4.314,3.2,0,2.235-1.433,3.577-6.282,3.577-.676,0-1.41-.045-2.235-.089v.068a2.34,2.34,0,0,0,2.2,2.478h0a2.389,2.389,0,0,0,.463-.018,3.889,3.889,0,0,0,3.219-1.588c.046-.067,1.34.157,1.34,1.185a1.71,1.71,0,0,1-.6,1.342,5.528,5.528,0,0,1-4,1.3C3012.674,842.6,3010.974,840.632,3010.974,837.949Zm3.063-2.035c.582.045,1.1.068,1.565.068,3.041,0,3.891-.693,3.891-1.543,0-.581-.6-1.163-1.789-1.163A4.11,4.11,0,0,0,3014.037,835.914Z"/><path class="c" d="M3027.205,833.251a3.336,3.336,0,0,1,2.952-2.1c1.1,0,1.944.626,1.944,1.544a2,2,0,0,1-1.409,1.99,1.944,1.944,0,0,0-1.517-.648c-1.408,0-2.3,1.565-2.8,3.868l-.626,3.019c-.246,1.118-.649,1.5-1.453,1.5h-.337c-.85,0-1.611-.337-1.364-1.5l1.99-9.392a1.4,1.4,0,0,1,.871-.2,1.661,1.661,0,0,1,1.763,1.553v0a1.6,1.6,0,0,1-.018.367Z"/><path class="c" d="M3033.487,838.483l.961-4.607h-.536c-.716,0-1.141-.313-1.141-.827a2.3,2.3,0,0,1,.447-1.319,1.419,1.419,0,0,1,1.1-.313h.648l.134-.626c.314-1.61.962-2.276,2.348-2.276.674,0,1.185.268,1.162.38l-.536,2.53h1.834c.758,0,1.185.337,1.185.827a2.109,2.109,0,0,1-.47,1.318,1.345,1.345,0,0,1-1.073.313h-2.034l-.961,4.469c-.29,1.319.157,1.877,1.028,1.877a2.063,2.063,0,0,0,1.343-.558c.088-.069.513.29.513.961a1.677,1.677,0,0,1-.536,1.23,3.2,3.2,0,0,1-2.325.759C3034.068,842.62,3032.933,841.121,3033.487,838.483Z"/><path class="c" d="M3049.2,840.318a4.573,4.573,0,0,1-3.936,2.277c-2.347,0-4.136-1.654-4.136-4.469,0-3.488,2.482-6.977,5.992-6.977a3.837,3.837,0,0,1,3.511,1.967,2.214,2.214,0,0,1,2.3-1.789c.625,0,1.119.269,1.119.38l-1.7,7.915c-.268,1.207-.045,1.654.8,1.811.023.022-.134,1.118-1.743,1.118a1.96,1.96,0,0,1-2.215-2.235Zm.559-3.243.313-1.517a2.49,2.49,0,0,0-2.53-1.945c-2.079,0-3.353,2.079-3.353,4.069a2.207,2.207,0,0,0,1.99,2.4c.074.007.149.01.223.01a3.6,3.6,0,0,0,3.357-3.022Z"/><path class="c" d="M3059.757,838.483l.962-4.607h-.537c-.715,0-1.14-.313-1.14-.827a2.275,2.275,0,0,1,.447-1.319,1.413,1.413,0,0,1,1.1-.313h.65l.134-.626c.313-1.61.963-2.276,2.349-2.276.675,0,1.186.268,1.162.38l-.536,2.53h1.834c.758,0,1.181.337,1.181.827a2.125,2.125,0,0,1-.469,1.318,1.355,1.355,0,0,1-1.073.313h-2.046l-.961,4.469c-.291,1.319.157,1.877,1.028,1.877a2.067,2.067,0,0,0,1.342-.558c.089-.069.513.29.513.961a1.677,1.677,0,0,1-.536,1.23,3.19,3.19,0,0,1-2.326.759C3060.336,842.62,3059.2,841.121,3059.757,838.483Z"/><path class="c" d="M3067.334,837.949a6.685,6.685,0,0,1,6.566-6.8h.3c2.771,0,4.314,1.3,4.314,3.2,0,2.235-1.433,3.577-6.283,3.577-.675,0-1.409-.045-2.235-.089v.068a2.342,2.342,0,0,0,2.2,2.478h0a2.383,2.383,0,0,0,.463-.018,3.883,3.883,0,0,0,3.219-1.588c.046-.067,1.343.157,1.343,1.185a1.717,1.717,0,0,1-.6,1.342,5.527,5.527,0,0,1-4,1.3C3069.033,842.6,3067.334,840.632,3067.334,837.949Zm3.063-2.035c.581.045,1.1.068,1.565.068,3.041,0,3.891-.693,3.891-1.543,0-.581-.6-1.163-1.789-1.163A4.11,4.11,0,0,0,3070.4,835.914Z"/><path class="c" d="M3083.564,833.251a3.335,3.335,0,0,1,2.951-2.1c1.1,0,1.945.626,1.945,1.544a2,2,0,0,1-1.409,1.99,1.945,1.945,0,0,0-1.517-.648c-1.409,0-2.3,1.565-2.8,3.868l-.626,3.019c-.246,1.118-.649,1.5-1.453,1.5h-.338c-.85,0-1.61-.337-1.363-1.5l1.99-9.392a1.394,1.394,0,0,1,.873-.2,1.661,1.661,0,0,1,1.761,1.554,1.614,1.614,0,0,1-.018.368Z"/><path class="c" d="M3102.725,840.607a10.5,10.5,0,0,1,.537-2.682,12.012,12.012,0,0,0,.469-2.348,1.589,1.589,0,0,0-1.378-1.776h0a1.457,1.457,0,0,0-.229-.012,2.678,2.678,0,0,0-2.348,1.454l-1.208,5.68c-.247,1.14-.715,1.5-1.518,1.5h-.338c-.827,0-1.543-.338-1.3-1.5l.984-4.652c.313-1.475-.313-2.482-1.476-2.482a2.7,2.7,0,0,0-2.348,1.434l-1.207,5.7c-.246,1.162-.715,1.5-1.517,1.5h-.338c-.85,0-1.543-.337-1.3-1.5l1.99-9.392a1.394,1.394,0,0,1,.873-.2,1.656,1.656,0,0,1,1.753,1.553v0h0a1.5,1.5,0,0,1-.009.3,4.34,4.34,0,0,1,3.645-2.036,3.109,3.109,0,0,1,3.175,2.37,4.665,4.665,0,0,1,4.025-2.37,3.3,3.3,0,0,1,3.379,3.22v.011c0,.1,0,.2-.006.3a14.343,14.343,0,0,1-.625,3.2,11.691,11.691,0,0,0-.537,2.414c0,.627.313.873.9.963.066,0-.179,1.3-1.9,1.3C3103.4,842.553,3102.725,841.793,3102.725,840.607Z"/><path class="c" d="M3108.557,839.532l1.433-6.685c.246-1.141.649-1.517,1.453-1.517h.337c.849,0,1.61.337,1.364,1.517l-1.452,6.775c-.246,1.208-.045,1.677.871,1.811.023.022-.156,1.118-1.834,1.118C3108.691,842.553,3108.176,841.3,3108.557,839.532Zm2.258-11.291a1.749,1.749,0,0,1,1.658-1.834h0a1.728,1.728,0,0,1,.176,0c1.119,0,1.744.559,1.744,1.364a1.762,1.762,0,0,1-1.686,1.832h-.149c-1.117,0-1.743-.558-1.743-1.362Z"/><path class="c" d="M3118.619,833.275a4.393,4.393,0,0,1,3.756-2.125,3.3,3.3,0,0,1,3.533,3.05,3.254,3.254,0,0,1,0,.483,13.289,13.289,0,0,1-.649,3.2,13.182,13.182,0,0,0-.513,2.415c0,.626.29.873.894.962.045,0-.179,1.3-1.9,1.3-1.475,0-2.168-.759-2.168-1.946a11.59,11.59,0,0,1,.536-2.683,10.887,10.887,0,0,0,.492-2.348,1.617,1.617,0,0,0-1.429-1.786h0a1.707,1.707,0,0,0-.336,0,2.817,2.817,0,0,0-2.5,1.589l-1.162,5.545c-.246,1.118-.649,1.5-1.454,1.5h-.337c-.849,0-1.609-.337-1.363-1.5l1.99-9.391a1.387,1.387,0,0,1,.873-.2,1.67,1.67,0,0,1,1.767,1.567A1.556,1.556,0,0,1,3118.619,833.275Z"/><path class="c" d="M3135.342,840.318a4.573,4.573,0,0,1-3.936,2.277c-2.347,0-4.136-1.654-4.136-4.469,0-3.488,2.483-6.977,5.992-6.977a3.837,3.837,0,0,1,3.511,1.967,2.214,2.214,0,0,1,2.3-1.789c.625,0,1.119.269,1.119.38l-1.7,7.915c-.268,1.207-.045,1.654.8,1.811.023.022-.134,1.118-1.744,1.118a1.952,1.952,0,0,1-2.215-1.647h0a1.988,1.988,0,0,1,0-.587Zm.559-3.243.313-1.517a2.489,2.489,0,0,0-2.529-1.945c-2.079,0-3.353,2.079-3.353,4.069a2.207,2.207,0,0,0,1.99,2.4c.074.007.149.01.223.01a3.6,3.6,0,0,0,3.356-3.022Z"/><path class="c" d="M3144.683,837.949a6.685,6.685,0,0,1,6.567-6.8h.3c2.773,0,4.318,1.3,4.318,3.2,0,2.235-1.434,3.577-6.283,3.577-.674,0-1.41-.045-2.236-.089v.068a2.342,2.342,0,0,0,2.2,2.478h0a2.38,2.38,0,0,0,.462-.018,3.887,3.887,0,0,0,3.22-1.588c.045-.067,1.34.157,1.34,1.185a1.716,1.716,0,0,1-.6,1.342,5.535,5.535,0,0,1-4,1.3C3146.384,842.6,3144.683,840.632,3144.683,837.949Zm3.063-2.035c.582.045,1.1.068,1.565.068,3.041,0,3.891-.693,3.891-1.543,0-.581-.6-1.163-1.789-1.163a4.113,4.113,0,0,0-3.666,2.638Z"/><path class="c" d="M3160.916,833.274a4.391,4.391,0,0,1,3.757-2.125,3.3,3.3,0,0,1,3.533,3.05,3.255,3.255,0,0,1,0,.483,13.383,13.383,0,0,1-.649,3.2,13.124,13.124,0,0,0-.514,2.415c0,.626.291.873.9.962.045,0-.179,1.3-1.9,1.3-1.476,0-2.168-.759-2.168-1.946a11.59,11.59,0,0,1,.536-2.683,10.886,10.886,0,0,0,.492-2.348,1.613,1.613,0,0,0-1.771-1.787,2.817,2.817,0,0,0-2.5,1.589l-1.162,5.545c-.246,1.118-.649,1.5-1.454,1.5h-.338c-.849,0-1.61-.337-1.364-1.5l1.99-9.391a1.394,1.394,0,0,1,.873-.2,1.67,1.67,0,0,1,1.77,1.563h0A1.566,1.566,0,0,1,3160.916,833.274Z"/><path class="c" d="M3169.255,841.345a2.524,2.524,0,0,1,.581-1.722,1.709,1.709,0,0,1,1.411-.421c1.027,0,1.516.38,1.516,1.162a2.51,2.51,0,0,1-.582,1.722c-.291.29-.6.4-1.409.4C3169.75,842.486,3169.255,842.132,3169.255,841.345Zm1.433-6.82a2.523,2.523,0,0,1,.582-1.722,1.7,1.7,0,0,1,1.41-.422c1.027,0,1.542.38,1.542,1.162a2.505,2.505,0,0,1-.581,1.722c-.291.29-.6.4-1.409.4-1.032,0-1.547-.361-1.547-1.143Z"/><path class="c" d="M3277.995,753.811l.436-2.54h-5.567l.749-4.262h6.228l.472-2.585h-9.251l-2.906,16.365h9.264l.467-2.585h-6.253l.789-4.394Z"/><path class="c" d="M3294.785,744.445h-3.525l-4.215,5.511-2.41-5.511H3281.3l3.53,8.085-6.531,8.259h3.526l4.193-5.527,2.405,5.527h3.362l-3.531-8.086Z"/><path class="c" d="M3306.459,744.445h-11.387l-.464,2.563h4.187l-2.422,13.78h3.016l2.422-13.78h4.18Z"/><path class="c" d="M3310.479,747.009h6.229l.464-2.585h-9.249l-2.907,16.365h9.267l.47-2.585H3308.5l.789-4.394h5.574l.436-2.54h-5.568Z"/><path class="c" d="M3329.276,744.424l-1.961,11.09-5.363-11.09h-2.732l-2.906,16.365h3.016l1.98-11.106,5.344,11.106h2.733l2.906-16.365Z"/><path class="c" d="M3339.883,744.445h-5.2l-2.907,16.344h5.373c5.281,0,9.106-3.085,9.981-8.051a7.055,7.055,0,0,0-1.2-5.951C3344.649,745.255,3342.558,744.445,3339.883,744.445Zm4.22,8.118c-.647,3.667-3.013,5.687-6.663,5.687l-2.178,0,1.979-11.174h2.354a4.722,4.722,0,0,1,3.8,1.379A4.943,4.943,0,0,1,3344.1,752.563Z"/><path class="c" d="M3350.248,744.445l-2.909,16.344h3.016l2.909-16.344Z"/><path class="c" d="M3361.811,756.409l-3.212-11.853h-2.96l-2.877,16.233h3.016l1.685-9.53,2.6,9.53h2.069l5.846-9.4-1.655,9.4h3.016l2.861-16.233h-3.008Z"/><path class="c" d="M3381.928,744.27c-.13,0-.268,0-.4,0a9.478,9.478,0,0,0-9.149,9.757,6.44,6.44,0,0,0,0,.733,6.576,6.576,0,0,0,6.556,6.19c.127,0,.254,0,.381-.011.152,0,.292,0,.443-.005a9.475,9.475,0,0,0,9.115-9.78,6.449,6.449,0,0,0-.005-.774A6.545,6.545,0,0,0,3381.928,744.27Zm3.875,7c0,3.855-2.729,6.875-6.214,6.875h-.036a4.3,4.3,0,0,1-.622,0,3.861,3.861,0,0,1-3.487-4.208c0-3.907,2.662-6.853,6.232-6.855.107-.009.215-.013.323-.013s.212,0,.317.013A3.85,3.85,0,0,1,3385.8,751.269Z"/><path class="c" d="M3396.31,744.247c-3.392,0-5.777,1.987-5.8,4.821-.094,2.94,2.337,3.925,4.292,4.717,1.843.748,2.969,1.273,2.884,2.58-.1,1.76-1.963,1.95-2.759,1.95a2.551,2.551,0,0,1-1.915-.676,1.855,1.855,0,0,1-.47-1.41l.036-.534h-2.964l-.049.446a3.964,3.964,0,0,0,.951,3.169,5.682,5.682,0,0,0,4.324,1.633c3.385,0,5.815-1.927,5.908-4.68.149-3.069-2.373-4.144-4.4-5.009-1.8-.767-2.9-1.3-2.821-2.472.082-1.388,1.434-1.884,2.671-1.884a2.386,2.386,0,0,1,1.845.661,1.427,1.427,0,0,1,.386,1.09l-.043.539h3.111l.022-.475a3.9,3.9,0,0,0-1.062-2.957A5.556,5.556,0,0,0,3396.31,744.247Z"/><path class="c" d="M3413.841,747.009h6.228l.468-2.585h-9.25l-2.908,16.365h9.269l.467-2.585h-6.253l.789-4.394h5.574l.435-2.54h-5.565Z"/><path class="c" d="M3423.147,758.245l2.444-13.8-3.021,0-2.906,16.344h8.387l.474-2.542Z"/><path class="a" d="M3534.2,789.224H3264.145a12.808,12.808,0,0,1-9.67-4.5,14.243,14.243,0,0,1-3.258-11.4l6.415-43.666a13.245,13.245,0,0,1,12.927-11.681h269.233a12.639,12.639,0,0,1,9.587,4.407,14.238,14.238,0,0,1,3.378,11.229l-5.592,43.667C3546.292,784.087,3540.719,789.224,3534.2,789.224ZM3270.56,719.377a11.856,11.856,0,0,0-11.54,10.482l-6.414,43.666a12.835,12.835,0,0,0,2.931,10.279,11.263,11.263,0,0,0,8.609,4.017H3534.2a11.974,11.974,0,0,0,11.573-10.722l5.592-43.666a12.842,12.842,0,0,0-3.038-10.125,11.27,11.27,0,0,0-8.535-3.931Z"/><path class="a" d="M3534.2,789.724H3264.15a13.3,13.3,0,0,1-10.051-4.676,14.725,14.725,0,0,1-3.372-11.8l6.414-43.663a13.792,13.792,0,0,1,13.414-12.109H3539.8a13.134,13.134,0,0,1,9.967,4.58,14.75,14.75,0,0,1,3.5,11.621l-5.593,43.665C3546.756,784.4,3540.969,789.724,3534.2,789.724ZM3270.56,718.477a12.792,12.792,0,0,0-12.432,11.239l-6.416,43.68a13.73,13.73,0,0,0,3.145,11,12.292,12.292,0,0,0,9.292,4.325H3534.2c6.268,0,11.626-4.947,12.469-11.508l5.592-43.667A13.755,13.755,0,0,0,3549,722.708a12.133,12.133,0,0,0-9.21-4.234Zm-6.414,69.844a11.734,11.734,0,0,1-8.992-4.2,13.324,13.324,0,0,1-3.042-10.675l6.414-43.663a12.4,12.4,0,0,1,12.025-10.91h269.242a11.753,11.753,0,0,1,8.915,4.106,13.347,13.347,0,0,1,3.154,10.517l-5.592,43.663a12.511,12.511,0,0,1-12.055,11.158Zm6.421-68.444a11.4,11.4,0,0,0-11.049,10.04L3253.1,773.6a12.321,12.321,0,0,0,2.815,9.881,10.737,10.737,0,0,0,8.23,3.843H3534.2a11.508,11.508,0,0,0,11.076-10.274l5.593-43.677a12.35,12.35,0,0,0-2.919-9.734,10.764,10.764,0,0,0-8.159-3.759Z"/></g></svg>