<svg xmlns="http://www.w3.org/2000/svg" width="344.407" height="144" viewBox="0 0 344.407 144"><defs><style>.a{fill:#ffd527;}.b{fill:#ea0c90;}.c,.d{fill:#fff;}.d{fill-rule:evenodd;}</style></defs><g transform="translate(-2914.104 -592.415)"><rect class="a" width="36.391" height="27.871" rx="13.935" transform="translate(3165.533 592.415)"/><path class="b" d="M3173.352,643.539c4.274,0,7.5-2.38,8.523-6.271h-4.812a3.957,3.957,0,0,1-3.762,2.3c-2.687,0-4.529-2-4.529-5.17s1.842-5.17,4.529-5.17a3.956,3.956,0,0,1,3.762,2.3h4.812a8.342,8.342,0,0,0-8.523-6.3c-5.3,0-9.034,3.788-9.034,9.162a8.707,8.707,0,0,0,8.247,9.144C3172.827,643.547,3173.09,643.549,3173.352,643.539Z"/><path class="b" d="M3195.156,636.2c0,2.124-1.1,3.352-3.173,3.352s-3.122-1.229-3.122-3.352v-10.75h-4.376v10.724c0,4.965,3.252,7.425,7.425,7.425,4.145,0,7.627-2.457,7.627-7.425V625.445h-4.38Z"/><path class="b" d="M3211.1,643.59a9.2,9.2,0,1,0-9.239-9.213,9,9,0,0,0,8.774,9.214C3210.791,643.595,3210.946,643.595,3211.1,643.59Zm0-14.434c2.867,0,4.735,2.022,4.735,5.221,0,3.148-1.869,5.221-4.735,5.221-2.917,0-4.76-2.073-4.76-5.221C3206.34,631.178,3208.183,629.156,3211.1,629.156Z"/><path class="b" d="M3226.51,643.411h4.376v-14.46h4.761v-3.506h-13.9v3.506h4.76Z"/><path class="b" d="M3249.031,640.238l1.075,3.174h4.632l-6.5-17.966h-5.067l-6.5,17.966h4.581l1.075-3.174Zm-3.353-9.956,2.226,6.578h-4.428Z"/><path class="b" d="M3172.611,660.557h5.554a4.3,4.3,0,0,1-4.351,3.174c-3.148,0-5.04-1.945-5.04-5.272,0-3.122,1.868-5.118,4.683-5.118a3.764,3.764,0,0,1,3.532,1.843h4.837c-.947-3.685-4.069-5.886-8.368-5.886a9.15,9.15,0,1,0,8.675,12.106v-4.07h-9.521Z"/><path class="b" d="M3198.511,655.157c0-3.122-2.2-5.656-6.6-5.656h-7.345v17.967h4.376v-6.782h1.049l3.74,6.782h4.939l-4.149-7.116A5.229,5.229,0,0,0,3198.511,655.157Zm-6.859,2.431h-2.713v-4.453h2.713c1.638,0,2.406.87,2.406,2.2,0,1.407-.767,2.251-2.405,2.251Z"/><path class="b" d="M3206.577,649.5l-6.5,17.966h4.581l1.074-3.174h6.706l1.075,3.174h4.632l-6.5-17.966Zm.307,11.415,2.2-6.578,2.226,6.578Z"/><path class="b" d="M3219.14,653.007h4.76v14.461h4.376v-14.46h4.76V649.5h-13.9Z"/><rect class="b" width="4.376" height="17.966" transform="translate(3235.238 649.502)"/><path class="b" d="M3246.961,654.392a1.592,1.592,0,0,1,1.524-1.657,1.618,1.618,0,0,1,.319.019,1.945,1.945,0,0,1,2.07,1.81v.058h4.735c-.179-3.43-2.815-5.375-6.73-5.375-3.763,0-6.552,1.894-6.552,5.3-.051,6.372,8.932,4.581,8.932,7.908,0,1.049-.82,1.689-2.1,1.689a2.059,2.059,0,0,1-2.219-1.885c0-.054-.007-.108-.007-.161h-4.657c.128,3.634,3.147,5.553,7.012,5.553,4.2,0,6.552-2.508,6.552-5.528C3255.84,656.1,3246.961,657.512,3246.961,654.392Z"/><path class="b" d="M3101.325,654.893c15.564-12.853,32.133-25.606,32.133-37.957,0-5.322-2.41-8.736-7.632-8.736-5.121,0-8.134,4.016-8.134,10.947h-16.569c.5-17.776,12.05-25.4,25.405-25.4,16.669,0,24.1,9.741,24.1,22.091,0,16.066-14.362,28.919-26.008,37.857h27.112v13.957h-50.408Z"/><path class="a" d="M3106.334,654.893c15.565-12.853,32.133-25.606,32.133-37.957,0-5.322-2.41-8.736-7.632-8.736-5.121,0-8.134,4.016-8.134,10.947h-16.568c.5-17.776,12.05-25.4,25.405-25.4,16.669,0,24.1,9.741,24.1,22.091,0,16.066-14.362,28.919-26.008,37.857h27.112v13.957h-50.409Z"/><path class="a" d="M3175.751,643.539c4.273,0,7.5-2.38,8.523-6.271h-4.809a3.958,3.958,0,0,1-3.762,2.3c-2.687,0-4.53-2-4.53-5.17s1.843-5.17,4.53-5.17a3.956,3.956,0,0,1,3.762,2.3h4.811a8.342,8.342,0,0,0-8.523-6.3c-5.3,0-9.034,3.788-9.034,9.162a8.707,8.707,0,0,0,8.247,9.144Q3175.358,643.553,3175.751,643.539Z"/><path class="a" d="M3197.556,636.2c0,2.124-1.1,3.352-3.173,3.352s-3.122-1.229-3.122-3.352v-10.75h-4.377v10.724c0,4.965,3.252,7.425,7.422,7.425,4.146,0,7.627-2.457,7.627-7.425V625.445h-4.376Z"/><path class="a" d="M3213.5,643.59a9.2,9.2,0,1,0-9.239-9.213,9,9,0,0,0,8.774,9.214C3213.191,643.595,3213.346,643.595,3213.5,643.59Zm0-14.434c2.866,0,4.735,2.022,4.735,5.221,0,3.148-1.869,5.221-4.735,5.221-2.917,0-4.76-2.073-4.76-5.221C3208.741,631.178,3210.583,629.156,3213.5,629.156Z"/><path class="a" d="M3228.908,643.411h4.376v-14.46h4.76v-3.506h-13.9v3.506h4.76Z"/><path class="a" d="M3251.429,640.238l1.075,3.174h4.632l-6.5-17.966h-5.067l-6.5,17.966h4.581l1.074-3.174Zm-3.352-9.956,2.226,6.578h-4.428Z"/><path class="a" d="M3175.009,660.557h5.555a4.3,4.3,0,0,1-4.351,3.174c-3.147,0-5.04-1.945-5.04-5.272,0-3.122,1.868-5.118,4.684-5.118a3.764,3.764,0,0,1,3.532,1.843h4.838c-.948-3.685-4.07-5.886-8.369-5.886a9.15,9.15,0,1,0,8.676,12.106v-4.07h-9.523Z"/><path class="a" d="M3200.909,655.157c0-3.122-2.2-5.656-6.6-5.656h-7.345v17.967h4.376v-6.782h1.05l3.739,6.782h4.94l-4.146-7.116A5.231,5.231,0,0,0,3200.909,655.157Zm-6.859,2.431h-2.713v-4.453h2.713c1.638,0,2.406.87,2.406,2.2,0,1.407-.768,2.251-2.406,2.251Z"/><path class="a" d="M3208.972,649.5l-6.5,17.966h4.581l1.075-3.174h6.706l1.075,3.174h4.632l-6.5-17.966Zm.307,11.415,2.2-6.578,2.226,6.578Z"/><path class="a" d="M3221.538,653.007h4.76v14.461h4.376v-14.46h4.76V649.5h-13.9Z"/><rect class="a" width="4.376" height="17.966" transform="translate(3237.637 649.502)"/><path class="a" d="M3249.358,654.392a1.592,1.592,0,0,1,1.524-1.657,1.618,1.618,0,0,1,.319.019,1.943,1.943,0,0,1,2.07,1.807v.061h4.735c-.18-3.43-2.815-5.375-6.731-5.375-3.762,0-6.552,1.894-6.552,5.3-.052,6.372,8.932,4.581,8.932,7.908,0,1.049-.819,1.689-2.1,1.689a2.06,2.06,0,0,1-2.22-1.886c0-.054-.006-.107-.006-.161h-4.653c.127,3.634,3.148,5.553,7.012,5.553,4.2,0,6.552-2.508,6.552-5.528C3258.239,656.1,3249.358,657.512,3249.358,654.392Z"/><path class="b" d="M3177.645,599.553a3.5,3.5,0,0,1,2.938,1.452V596.58h2.922v12.643h-2.923v-1.369a3.3,3.3,0,0,1-2.938,1.5c-2.341,0-4.2-1.913-4.2-4.92S3175.3,599.553,3177.645,599.553Zm.854,2.546a2.122,2.122,0,0,0-2.095,2.148c0,.065,0,.129.011.193a2.153,2.153,0,0,0,1.92,2.364c.055.006.109.009.164.011a2.376,2.376,0,0,0,0-4.716Z"/><path class="b" d="M3189.246,599.552a3.32,3.32,0,0,1,2.938,1.487v-1.351h2.921v9.532h-2.921v-1.35a3.374,3.374,0,0,1-2.956,1.487c-2.323,0-4.185-1.913-4.185-4.92S3186.905,599.552,3189.246,599.552Zm.854,2.546a2.123,2.123,0,0,0-2.1,2.15c0,.063,0,.127.011.191a2.153,2.153,0,0,0,1.921,2.364c.054.006.109.009.164.011a2.376,2.376,0,0,0,0-4.716Z"/><path class="c" d="M3079.905,638.332v11.784h11.455v10.072h-11.455v11.721h-10.664V660.188h-11.454V650.116h11.454V638.332Z"/><rect class="b" width="21.664" height="2.87" transform="translate(3173.441 612.268)"/><ellipse class="b" cx="61.768" cy="61.793" rx="61.768" ry="61.793" transform="translate(2914.104 592.415)"/><ellipse class="a" cx="61.768" cy="61.793" rx="61.768" ry="61.793" transform="translate(2920.279 592.44)"/><path class="b" d="M2941.426,640.8h-7.761V628.337h21.715V685.59h-13.954Z"/><path class="b" d="M3000.924,628.257v11.767h-24.463v10.823c2.039-2.275,5.958-3.922,10.5-3.922,12.465,0,17.248,9.49,17.248,18.744,0,12.077-7.056,19.921-19.756,19.921-12.857,0-20.3-7.137-20.774-17.019h13.092c.549,2.981,2.822,5.647,7.213,5.647,5.1,0,7.291-3.686,7.291-8.626,0-5.177-2.587-7.921-7.37-7.921-3.763,0-5.958,2.038-6.663,4.7h-12.936V628.257Z"/><path class="b" d="M3012.7,628.093a4.46,4.46,0,1,1-4.405,4.515v-.055a4.107,4.107,0,0,1,3.726-4.456A4.161,4.161,0,0,1,3012.7,628.093Zm-1.293,4.46c0,1.241.475,1.794,1.267,1.794s1.292-.554,1.292-1.794c0-1.267-.5-1.82-1.292-1.82s-1.269.554-1.269,1.82Zm10.446-4.169h4.352l-10.155,18.578h-4.352Zm3.376,9.948a4.461,4.461,0,1,1-4.377,4.543c0-.028,0-.055,0-.083a4.092,4.092,0,0,1,4.378-4.46Zm-1.292,4.46c0,1.239.475,1.794,1.266,1.794s1.292-.554,1.292-1.794-.5-1.821-1.292-1.821S3023.933,641.551,3023.933,642.792Z"/><path class="b" d="M3013.023,657.384a2.987,2.987,0,0,1-2.874,3.1,2.944,2.944,0,0,1-.363-.008h-2.312V654.3h2.313a2.982,2.982,0,0,1,3.227,2.717A2.848,2.848,0,0,1,3013.023,657.384Zm-3.333,1.786a1.795,1.795,0,1,0,.085-3.589h-.8v3.589Z"/><path class="b" d="M3016.1,660.533c-1.328,0-2.366-.66-2.41-1.909h1.6a.708.708,0,0,0,.709.706h.056c.439,0,.721-.219.721-.581,0-1.144-3.087-.528-3.069-2.719,0-1.17.96-1.821,2.252-1.821,1.346,0,2.251.671,2.314,1.845h-1.628a.672.672,0,0,0-.7-.643h-.016a.548.548,0,0,0-.627.454.559.559,0,0,0-.006.109c0,1.074,3.051.589,3.051,2.657a1.99,1.99,0,0,1-2.06,1.918C3016.226,660.546,3016.163,660.541,3016.1,660.533Z"/><path class="b" d="M3022.122,654.225a2.867,2.867,0,0,1,2.929,2.165h-1.657a1.359,1.359,0,0,0-1.292-.792,1.793,1.793,0,0,0,0,3.554,1.36,1.36,0,0,0,1.293-.792h1.653a2.859,2.859,0,0,1-2.929,2.155,3.146,3.146,0,0,1,0-6.29Z"/><path class="b" d="M3025.639,654.295h4.776V655.5h-1.636v4.972h-1.5V655.5h-1.636Z"/><path class="b" d="M3034.089,660.534a3.163,3.163,0,1,1,3.157-3.169h0a3.106,3.106,0,0,1-3.044,3.167h-.113Zm0-1.372a1.615,1.615,0,0,0,1.637-1.591h0a1.946,1.946,0,0,0-.01-.2,1.639,1.639,0,1,0-1.627,1.8Z"/><path class="c" d="M3218.1,705.311a2.117,2.117,0,0,0-.038,4.225h.045a1.9,1.9,0,0,0,1.2-.271v-.691a2.311,2.311,0,0,1-1,.2,1.123,1.123,0,0,1-1.209-.888l-.008-.049h.73a3.567,3.567,0,0,0,1.476-.213.751.751,0,0,0,.437-.751,1.563,1.563,0,0,0-1.563-1.564h-.062m.475,1.788a3.3,3.3,0,0,1-.985.092h-.509v-.044l.007-.139a.928.928,0,0,1,.916-.921.99.99,0,0,1,.6.163.6.6,0,0,1,.231.5.342.342,0,0,1-.263.351m1.654-.217v2.58h.958v-2.394a1.059,1.059,0,0,1,.194-.7.7.7,0,0,1,.567-.221,1.43,1.43,0,0,1,.261.021v-.759a1.055,1.055,0,0,0-.485-.1,1.429,1.429,0,0,0-1.506,1.348,1.482,1.482,0,0,0,.006.23m-12.6,2.58h.956v-5.2h-.956Zm3.534-4.155a1.69,1.69,0,0,0-1.83,1.537q-.008.1-.006.2v2.423h.951v-2.353a1.1,1.1,0,0,1,.22-.714.73.73,0,0,1,.58-.257.827.827,0,0,1,.654.255,1.17,1.17,0,0,1,.233.793v2.276h.949V707.1a1.674,1.674,0,0,0-1.556-1.786h0a1.568,1.568,0,0,0-.193,0m3.43-1.041h-.945v3.749a1.362,1.362,0,0,0,1.187,1.517,1.4,1.4,0,0,0,.33,0c.439,0,.7-.144.813-.372v-.59a1.756,1.756,0,0,1-.688.108.685.685,0,0,1-.517-.185.857.857,0,0,1-.183-.6v-1.755h.829c.405,0,.574-.259.576-.449v-.379h-1.405Z"/><path class="c" d="M3229.193,707.624a.75.75,0,0,0,.438-.751,1.563,1.563,0,0,0-1.562-1.564H3228a2.117,2.117,0,0,0-.038,4.225h.045a1.9,1.9,0,0,0,1.2-.271v-.69a2.327,2.327,0,0,1-1,.2,1.123,1.123,0,0,1-1.209-.888l-.007-.049h.729a3.561,3.561,0,0,0,1.475-.213m-2.208-.434v-.044l.006-.139a.929.929,0,0,1,.916-.921.982.982,0,0,1,.6.163.594.594,0,0,1,.231.5.341.341,0,0,1-.263.351,3.374,3.374,0,0,1-.986.092Z"/><path class="c" d="M3238.434,706.886v2.579h.959v-2.394a1.06,1.06,0,0,1,.2-.7.7.7,0,0,1,.567-.221,1.412,1.412,0,0,1,.26.021v-.766a1.055,1.055,0,0,0-.488-.1,1.428,1.428,0,0,0-1.5,1.351,1.328,1.328,0,0,0,.006.227"/><path class="c" d="M3223.952,709.52c-.7,0-1.22-.379-1.22-.793v-.458h.035a1.824,1.824,0,0,0,1.141.383c.464,0,.69-.143.69-.443,0-.232-.134-.344-.79-.442-.8-.12-1.189-.457-1.189-1.071a1.479,1.479,0,0,1,1.547-1.406h.065c.862,0,1.213.471,1.213.862v.379h-.035a1.6,1.6,0,0,0-1.084-.373c-.578,0-.759.186-.759.449,0,.2.113.285.759.4.788.135,1.211.5,1.211,1.146,0,.855-.564,1.364-1.584,1.364"/><path class="c" d="M3233.555,708.311c.006.163.015.379.015.517a1.8,1.8,0,0,1-1.676,1.916c-.061,0-.123.005-.184,0-.782,0-1.317-.4-1.317-.884V709.4h.041a1.625,1.625,0,0,0,1.207.434c.682,0,.991-.344.991-.929,0-.06,0-.142-.006-.211s-.007-.163-.007-.2v-.1a.968.968,0,0,1-.979.6,1.546,1.546,0,0,1-1.581-1.51h0v-.124a1.9,1.9,0,0,1,1.734-2.053c.065-.005.13-.007.2-.006a1.583,1.583,0,0,1,1.559,1.606,1.522,1.522,0,0,1-.01.163v.689c0,.135.007.367.015.547m-2.531-1.071a.821.821,0,0,0,.71.916h.05c.477,0,.818-.379.818-1.03,0-.635-.3-.947-.718-.947a.942.942,0,0,0-.865,1.015v.039"/><path class="c" d="M3242.556,705.293a1.887,1.887,0,0,1,1.844,1.931.655.655,0,0,1-.007.115,1.945,1.945,0,0,1-1.694,2.166,1.981,1.981,0,0,1-.231.014,1.881,1.881,0,0,1-1.843-1.918.79.79,0,0,1,.006-.12,1.951,1.951,0,0,1,1.7-2.174,1.9,1.9,0,0,1,.227-.014m-.088.848c-.577,0-.871.5-.871,1.2,0,.835.294,1.336.96,1.336.585,0,.872-.5.872-1.188,0-.843-.3-1.343-.961-1.343"/><path class="c" d="M3235.95,709.543a1.69,1.69,0,0,0,1.825-1.543,1.512,1.512,0,0,0,0-.194v-2.432h-.947v2.369a1.093,1.093,0,0,1-.22.715.73.73,0,0,1-.577.259.823.823,0,0,1-.65-.256,1.183,1.183,0,0,1-.232-.8v-2.285h-.946v2.377a1.676,1.676,0,0,0,1.55,1.79q.1,0,.2,0"/><path class="d" d="M3199.771,703.156a.991.991,0,0,0-.99.992v6.428h6.428a.993.993,0,0,0,.992-.991v-6.428Zm4.7,5.355-3.956.714v-3.991l3.95-.713Z"/><path class="c" d="M3206.594,694.058v2.269c0,2.732-1.366,4.294-4,4.294s-4-1.561-4-4.294v-8.88c0-2.732,1.366-4.294,4-4.294s4,1.561,4,4.294v1.659h-2.537v-1.83c0-1.22-.537-1.683-1.39-1.683s-1.391.464-1.391,1.683V696.5c0,1.22.536,1.659,1.391,1.659s1.39-.439,1.39-1.659v-2.439Z"/><path class="c" d="M3210.474,694.762l-3.391-11.417h2.806l2.05,7.782,2.049-7.782h2.561l-3.391,11.417v5.66h-2.684Z"/><path class="c" d="M3225.644,687.277v.61c0,1.756-.537,2.879-1.734,3.44,1.44.561,2,1.854,2,3.659v1.391c0,2.635-1.392,4.049-4.075,4.049h-4.221V683.349h4.05C3224.452,683.349,3225.644,684.642,3225.644,687.277Zm-5.343-1.488V690.3h1.049c1,0,1.611-.439,1.611-1.806v-.951c0-1.22-.415-1.756-1.366-1.756Zm0,6.953v5.245h1.537c.9,0,1.391-.415,1.391-1.683v-1.487c0-1.586-.512-2.074-1.734-2.074Z"/><path class="c" d="M3230.211,690.546h3.685v2.439h-3.685v5h4.635v2.439h-7.316V683.349h7.316v2.439h-4.635Z"/><path class="c" d="M3242.115,700.427a5.265,5.265,0,0,1-.243-2.1v-2.684c0-1.586-.538-2.171-1.757-2.171h-.927v6.953H3236.5V683.349h4.05c2.781,0,3.977,1.293,3.977,3.928v1.342c0,1.757-.561,2.9-1.756,3.464,1.342.561,1.782,1.854,1.782,3.635v2.635a5.031,5.031,0,0,0,.293,2.074Zm-2.927-14.638v5.245h1.05c1,0,1.61-.439,1.61-1.8v-1.683c0-1.22-.415-1.757-1.367-1.757Z"/><path class="c" d="M2918.153,735.114l1.26-5.94c.133-.557.376-.813.885-.813h.255c.5,0,.776.291.654.848l-1.175,5.478h2.872c.488,0,.764.206.764.533a1.428,1.428,0,0,1-.3.836c-.121.133-.29.194-.691.194h-3.623C2918.31,736.253,2917.982,735.877,2918.153,735.114Z"/><path class="c" d="M2928.776,735.163a2.481,2.481,0,0,1-2.133,1.234,2.208,2.208,0,0,1-2.251-2.164,2.171,2.171,0,0,1,.01-.258c0-1.89,1.345-3.781,3.247-3.781a2.079,2.079,0,0,1,1.9,1.066,1.2,1.2,0,0,1,1.247-.97c.339,0,.606.146.606.206l-.922,4.29c-.145.654-.024.9.433.981.012.012-.073.606-.946.606a1.057,1.057,0,0,1-1.2-.892h0a1.059,1.059,0,0,1,0-.319Zm.3-1.758.17-.822a1.349,1.349,0,0,0-1.371-1.054,2.041,2.041,0,0,0-1.818,2.205,1.2,1.2,0,0,0,1.079,1.3c.04,0,.081.005.121.005a1.952,1.952,0,0,0,1.821-1.638Z"/><path class="c" d="M2933.878,733.684a3.352,3.352,0,0,1,3.21-3.487h.135a2.635,2.635,0,0,1,2.829,2.425,2.8,2.8,0,0,1,.006.29,3.351,3.351,0,0,1-3.207,3.487h-.137a2.635,2.635,0,0,1-2.829-2.424A2.573,2.573,0,0,1,2933.878,733.684Zm4.69-.7a1.4,1.4,0,0,0-1.307-1.488h-.087a1.991,1.991,0,0,0-1.806,2.133,1.4,1.4,0,0,0,1.319,1.476h.075a1.983,1.983,0,0,0,1.809-2.121Z"/><path class="c" d="M2941.1,735.489l.813-3.817h-.46c-.387,0-.618-.17-.618-.448a1.238,1.238,0,0,1,.242-.715.767.767,0,0,1,.6-.17h.521l.1-.4c.339-1.611,1.212-2.181,2.315-2.181a1.742,1.742,0,0,1,1.246.4.741.741,0,0,1,.217.521.875.875,0,0,1-.461.752,1.054,1.054,0,0,0-.822-.366c-.437,0-.728.242-.873.909l-.085.366h.8c.424,0,.654.183.654.448a1.229,1.229,0,0,1-.254.715.767.767,0,0,1-.6.17h-.813l-.813,3.818c-.121.606-.351.813-.787.813h-.183C2941.378,736.3,2940.965,736.121,2941.1,735.489Z"/><path class="c" d="M2945.159,733.877a3.623,3.623,0,0,1,3.559-3.685h.164c1.5,0,2.338.7,2.338,1.734,0,1.211-.777,1.939-3.405,1.939-.366,0-.764-.024-1.211-.048v.037a1.269,1.269,0,0,0,1.19,1.343h0a1.309,1.309,0,0,0,.25-.01,2.109,2.109,0,0,0,1.745-.861c.025-.036.726.085.726.642a.929.929,0,0,1-.325.727,3,3,0,0,1-2.168.7C2946.08,736.4,2945.159,735.335,2945.159,733.877Zm1.66-1.1c.316.024.6.037.848.037,1.648,0,2.109-.376,2.109-.836,0-.315-.325-.63-.97-.63a2.224,2.224,0,0,0-1.988,1.429Z"/><path class="c" d="M2953.955,731.333a1.807,1.807,0,0,1,1.6-1.138c.6,0,1.054.339,1.054.837a1.085,1.085,0,0,1-.764,1.078,1.054,1.054,0,0,0-.822-.351c-.763,0-1.247.848-1.517,2.1l-.339,1.636c-.133.606-.352.813-.787.813h-.183c-.461,0-.873-.183-.739-.813l1.078-5.09a.753.753,0,0,1,.472-.108.9.9,0,0,1,.955.841v0a.871.871,0,0,1-.01.2Z"/><path class="c" d="M2957.36,734.168l.521-2.5h-.291c-.388,0-.618-.17-.618-.448a1.236,1.236,0,0,1,.242-.715.767.767,0,0,1,.6-.17h.351l.073-.339c.17-.873.521-1.233,1.272-1.233.365,0,.642.145.63.206l-.29,1.371h.994c.411,0,.642.183.642.448a1.153,1.153,0,0,1-.255.714.732.732,0,0,1-.581.17h-1.1l-.521,2.422c-.157.715.085,1.017.557,1.017a1.13,1.13,0,0,0,.728-.3c.048-.037.278.157.278.521a.912.912,0,0,1-.291.667,1.734,1.734,0,0,1-1.26.411C2957.675,736.41,2957.06,735.6,2957.36,734.168Z"/><path class="c" d="M2965.877,735.163a2.478,2.478,0,0,1-2.133,1.234,2.208,2.208,0,0,1-2.251-2.164,2.279,2.279,0,0,1,.01-.258c0-1.89,1.345-3.781,3.247-3.781a2.081,2.081,0,0,1,1.9,1.066,1.2,1.2,0,0,1,1.246-.97c.339,0,.606.146.606.206l-.921,4.29c-.145.654-.024.9.433.981.013.012-.073.606-.945.606a1.059,1.059,0,0,1-1.2-.892,1.075,1.075,0,0,1,0-.319Zm.3-1.758.17-.822a1.348,1.348,0,0,0-1.371-1.054,2.04,2.04,0,0,0-1.817,2.205,1.2,1.2,0,0,0,1.079,1.3c.04,0,.081.005.121.005a1.952,1.952,0,0,0,1.819-1.638Z"/><path class="c" d="M2971.6,734.168l.521-2.5h-.291c-.388,0-.618-.17-.618-.448a1.222,1.222,0,0,1,.242-.715.767.767,0,0,1,.6-.17h.352l.073-.339c.17-.873.521-1.233,1.272-1.233.366,0,.643.145.63.206l-.29,1.371h.994c.411,0,.64.183.64.448a1.155,1.155,0,0,1-.255.714.734.734,0,0,1-.582.17h-1.108l-.521,2.422c-.158.715.085,1.017.557,1.017a1.125,1.125,0,0,0,.727-.3c.048-.037.278.157.278.521a.913.913,0,0,1-.291.667,1.733,1.733,0,0,1-1.26.411C2971.911,736.41,2971.293,735.6,2971.6,734.168Z"/><path class="c" d="M2975.7,733.877a3.622,3.622,0,0,1,3.558-3.685h.164c1.5,0,2.339.7,2.339,1.734,0,1.211-.777,1.939-3.4,1.939-.366,0-.764-.024-1.212-.048v.037a1.269,1.269,0,0,0,1.191,1.343,1.316,1.316,0,0,0,.251-.01,2.106,2.106,0,0,0,1.744-.861c.025-.036.727.085.727.642a.93.93,0,0,1-.325.727,3,3,0,0,1-2.168.7C2976.62,736.4,2975.7,735.335,2975.7,733.877Zm1.66-1.1c.315.024.6.037.848.037,1.648,0,2.109-.376,2.109-.836,0-.315-.325-.63-.969-.63A2.226,2.226,0,0,0,2977.364,732.777Z"/><path class="c" d="M2984.5,731.333a1.806,1.806,0,0,1,1.6-1.138c.6,0,1.054.339,1.054.837a1.083,1.083,0,0,1-.764,1.078,1.054,1.054,0,0,0-.822-.351c-.764,0-1.246.848-1.517,2.1l-.339,1.636c-.133.606-.352.813-.787.813h-.183c-.461,0-.872-.183-.739-.813l1.078-5.09a.755.755,0,0,1,.473-.108.9.9,0,0,1,.944,1.042Z"/><path class="c" d="M2994.881,735.32a5.678,5.678,0,0,1,.291-1.454,6.5,6.5,0,0,0,.254-1.272.862.862,0,0,0-.748-.963h0a.735.735,0,0,0-.124-.007,1.449,1.449,0,0,0-1.272.788l-.655,3.078c-.134.618-.387.813-.823.813h-.183c-.448,0-.836-.183-.7-.813l.533-2.521c.17-.8-.17-1.345-.8-1.345a1.461,1.461,0,0,0-1.273.777l-.654,3.089c-.133.63-.388.813-.822.813h-.183c-.461,0-.836-.183-.7-.813l1.078-5.09a.755.755,0,0,1,.473-.108.9.9,0,0,1,.95.843h0a.865.865,0,0,1,0,.163,2.35,2.35,0,0,1,1.976-1.1,1.684,1.684,0,0,1,1.721,1.284,2.526,2.526,0,0,1,2.181-1.284,1.791,1.791,0,0,1,1.831,1.75h0v.163a7.755,7.755,0,0,1-.339,1.734,6.358,6.358,0,0,0-.291,1.308c0,.34.17.473.485.522.036,0-.1.7-1.03.7C2995.247,736.378,2994.881,735.963,2994.881,735.32Z"/><path class="c" d="M2998.044,734.737l.776-3.623c.133-.618.352-.822.787-.822h.183c.46,0,.873.183.739.822l-.787,3.672c-.133.655-.025.909.472.982.013.012-.084.606-.994.606C2998.116,736.374,2997.837,735.7,2998.044,734.737Zm1.224-6.119a.948.948,0,0,1,.9-.994h.1c.606,0,.945.3.945.739a.956.956,0,0,1-.913.993h-.081c-.6,0-.945-.3-.945-.738Z"/><path class="c" d="M3003.5,731.345a2.377,2.377,0,0,1,2.036-1.152,1.788,1.788,0,0,1,1.915,1.651,1.905,1.905,0,0,1,0,.264,7.223,7.223,0,0,1-.352,1.734,7.06,7.06,0,0,0-.278,1.309c0,.339.157.473.485.521.024,0-.1.7-1.03.7-.8,0-1.175-.411-1.175-1.055a6.26,6.26,0,0,1,.29-1.454,5.948,5.948,0,0,0,.267-1.272.877.877,0,0,0-.774-.969h0a.924.924,0,0,0-.182,0,1.526,1.526,0,0,0-1.355.861l-.63,3.005c-.133.606-.352.813-.788.813h-.182c-.46,0-.872-.183-.739-.813l1.078-5.09a.742.742,0,0,1,.473-.108.885.885,0,0,1,.942,1.049Z"/><path class="c" d="M3012.561,735.163a2.478,2.478,0,0,1-2.133,1.234,2.208,2.208,0,0,1-2.241-2.422c0-1.89,1.346-3.781,3.247-3.781a2.079,2.079,0,0,1,1.9,1.066,1.2,1.2,0,0,1,1.247-.97c.339,0,.606.146.606.206l-.921,4.29c-.145.654-.024.9.433.981.012.012-.073.606-.945.606a1.063,1.063,0,0,1-1.2-1.211Zm.3-1.758.169-.822a1.349,1.349,0,0,0-1.371-1.054,2.04,2.04,0,0,0-1.817,2.205,1.2,1.2,0,0,0,1.078,1.3c.04,0,.081.005.121.005a1.952,1.952,0,0,0,1.819-1.638Z"/><path class="c" d="M3017.623,733.877a3.623,3.623,0,0,1,3.559-3.685h.164c1.5,0,2.34.7,2.34,1.734,0,1.211-.777,1.939-3.405,1.939-.365,0-.764-.024-1.212-.048v.037a1.27,1.27,0,0,0,1.192,1.343,1.309,1.309,0,0,0,.25-.01,2.109,2.109,0,0,0,1.745-.861c.025-.036.727.085.727.642a.93.93,0,0,1-.325.727,3,3,0,0,1-2.168.7C3018.544,736.4,3017.623,735.335,3017.623,733.877Zm1.66-1.1c.316.024.6.037.848.037,1.648,0,2.109-.376,2.109-.836,0-.315-.325-.63-.97-.63a2.227,2.227,0,0,0-1.987,1.43Z"/><path class="c" d="M3026.42,731.345a2.38,2.38,0,0,1,2.036-1.152,1.788,1.788,0,0,1,1.915,1.651,1.7,1.7,0,0,1,0,.264,7.244,7.244,0,0,1-.352,1.734,7.046,7.046,0,0,0-.279,1.309c0,.339.158.473.485.521.024,0-.1.7-1.03.7-.8,0-1.175-.411-1.175-1.055a6.261,6.261,0,0,1,.29-1.454,5.944,5.944,0,0,0,.267-1.273.877.877,0,0,0-.776-.968h0a.807.807,0,0,0-.184,0,1.525,1.525,0,0,0-1.355.861l-.63,3.005c-.133.606-.352.813-.788.813h-.183c-.46,0-.872-.183-.739-.813L3025,730.4a.756.756,0,0,1,.473-.108.9.9,0,0,1,.958.837v.01h0A.9.9,0,0,1,3026.42,731.345Z"/><path class="c" d="M3030.936,735.722a1.366,1.366,0,0,1,.315-.933.924.924,0,0,1,.764-.228c.557,0,.822.206.822.63a1.361,1.361,0,0,1-.315.933c-.158.157-.325.217-.764.217C3031.206,736.338,3030.936,736.144,3030.936,735.722Zm.776-3.7a1.367,1.367,0,0,1,.315-.933.924.924,0,0,1,.764-.229c.557,0,.836.206.836.63a1.361,1.361,0,0,1-.315.933c-.158.157-.325.217-.764.217-.559,0-.838-.2-.838-.619Z"/><path class="c" d="M3124.967,691.8h-8.625l-2.117,2.767-1.21-2.767H3110.8l0-.013h-5.481l-1.657,9.328h7.794l2.1-2.774,1.207,2.774h2.32l-2-4.577,3.09-3.9-.183,1.012h2.27l-1.313,7.469h2.1l1.313-7.469h2.264Zm-18.88,7.457.345-1.923h3.022l.317-1.835h-3.017l.324-1.852h3.378l.314-1.7,1.935,4.434-3.511,4.439.28-1.559Z"/><path class="c" d="M3129.442,697.339l.313-1.835h-3.016l.324-1.852h3.376l.327-1.859h-5.477l-1.656,9.328h5.486l.338-1.859h-3.389l.349-1.923Z"/><path class="c" d="M3136.868,691.793l-.974,5.5-2.663-5.5h-1.816l-1.656,9.328h2.1l.982-5.511,2.651,5.511h1.817l1.656-9.328Z"/><path class="c" d="M3146.26,693.156a4.32,4.32,0,0,0-3.453-1.351H3139.8l-1.658,9.316h3.153q.177.012.351.012a5.41,5.41,0,0,0,5.318-4.57A4.041,4.041,0,0,0,3146.26,693.156Zm-4.749,6.132h-.931l.99-5.6h1.081a2.342,2.342,0,0,1,1.883.666,2.581,2.581,0,0,1,.33,2.075A3.2,3.2,0,0,1,3141.511,699.288Z"/><path class="c" d="M3148.231,691.8l-1.658,9.316h2.1l1.658-9.316Z"/><path class="c" d="M3158.563,691.865l-3.788,6.085-1.649-6.085h-1.972l-1.64,9.256h2.1l.769-4.348,1.185,4.348h1.423l2.61-4.2-.738,4.2h2.1l1.632-9.256Z"/><path class="c" d="M3169.58,695.248a3.782,3.782,0,0,0-3.991-3.535h-.225a5.363,5.363,0,0,0-5.181,5.505c-.007.14-.006.284,0,.428a3.793,3.793,0,0,0,3.781,3.565c.072,0,.144,0,.216-.006h.239a5.358,5.358,0,0,0,5.16-5.513A3.624,3.624,0,0,0,3169.58,695.248Zm-6.852,3.318a1.843,1.843,0,0,1-.425-1.352l0-.166a3.258,3.258,0,0,1,3.171-3.364c.052,0,.1-.006.157-.006s.1,0,.152.006a1.85,1.85,0,0,1,1.682,2l0,.152a3.282,3.282,0,0,1-2.763,3.352l-.421.034a2.1,2.1,0,0,1-.3,0A1.843,1.843,0,0,1,3162.728,698.566Z"/><path class="c" d="M3173.388,691.7c-1.973,0-3.36,1.17-3.373,2.834-.055,1.752,1.4,2.344,2.469,2.776,1.014.411,1.455.646,1.421,1.172-.039.7-.711.842-1.267.842a1.159,1.159,0,0,1-.87-.3.776.776,0,0,1-.194-.59l.036-.534h-2.057l-.048.446a2.371,2.371,0,0,0,.572,1.892,3.3,3.3,0,0,0,2.515.962c1.963,0,3.375-1.135,3.43-2.752.089-1.822-1.421-2.467-2.523-2.937-.967-.412-1.419-.657-1.39-1.115.044-.748.944-.805,1.219-.805a1.112,1.112,0,0,1,.831.284.55.55,0,0,1,.15.418l-.043.539h2.152l.022-.476a2.339,2.339,0,0,0-.637-1.774A3.235,3.235,0,0,0,3173.388,691.7Z"/><path class="c" d="M3182.435,697.339h3.021l.316-1.835h-3.017l.324-1.852h3.373l.338-1.859h-5.479l-1.657,9.328h5.488l.334-1.859h-3.388Z"/><path class="c" d="M3188.2,699.284l1.324-7.479-2.105,0-1.657,9.316h5.012l.344-1.836Z"/><path class="a" d="M3248.117,716.3H3101.76a6.947,6.947,0,0,1-5.241-2.439,7.722,7.722,0,0,1-1.766-6.178l3.477-23.665a7.178,7.178,0,0,1,7.006-6.331h145.912a6.847,6.847,0,0,1,5.2,2.388,7.713,7.713,0,0,1,1.831,6.086l-3.031,23.665A7.252,7.252,0,0,1,3248.117,716.3Zm-142.881-37.858a6.424,6.424,0,0,0-6.254,5.681l-3.476,23.665a6.953,6.953,0,0,0,1.588,5.571,6.1,6.1,0,0,0,4.666,2.177h146.357a6.491,6.491,0,0,0,6.272-5.811l3.031-23.665a6.963,6.963,0,0,0-1.646-5.487,6.106,6.106,0,0,0-4.626-2.13Z"/><path class="a" d="M3248.117,716.574H3101.76a7.209,7.209,0,0,1-5.447-2.534,7.977,7.977,0,0,1-1.828-6.395l3.476-23.663a7.476,7.476,0,0,1,7.27-6.562h145.916a7.114,7.114,0,0,1,5.4,2.482,7.988,7.988,0,0,1,1.894,6.3l-3.031,23.664A7.523,7.523,0,0,1,3248.117,716.574Zm-142.881-38.613a6.931,6.931,0,0,0-6.738,6.091l-3.477,23.673a7.439,7.439,0,0,0,1.7,5.963,6.663,6.663,0,0,0,5.036,2.344h146.355a6.981,6.981,0,0,0,6.758-6.237l3.031-23.665a7.454,7.454,0,0,0-1.767-5.874,6.574,6.574,0,0,0-4.992-2.295Zm-3.476,37.852a6.359,6.359,0,0,1-4.873-2.274,7.22,7.22,0,0,1-1.648-5.785l3.476-23.663a6.717,6.717,0,0,1,6.517-5.913h145.917a6.368,6.368,0,0,1,4.832,2.225,7.234,7.234,0,0,1,1.709,5.7l-3.031,23.663a6.781,6.781,0,0,1-6.533,6.047Zm3.48-37.094a6.174,6.174,0,0,0-5.988,5.441l-3.477,23.673a6.675,6.675,0,0,0,1.524,5.355,5.823,5.823,0,0,0,4.46,2.083h146.357a6.237,6.237,0,0,0,6-5.568l3.031-23.671a6.688,6.688,0,0,0-1.582-5.275,5.828,5.828,0,0,0-4.422-2.037h-145.9Z"/></g></svg>