<svg xmlns="http://www.w3.org/2000/svg" xmlns:xlink="http://www.w3.org/1999/xlink" width="344.029" height="202.633" viewBox="0 0 344.029 202.633"><defs><style>.a{fill:none;}.b,.c{fill:#fff;}.c{fill-rule:evenodd;}.d{fill:#ffd508;}.e{fill:#ea0c90;}.f{clip-path:url(#a);}.g{clip-path:url(#b);}.h{fill:#036dc4;}.i{fill:#fdfdfd;}.j{fill:#ffde6e;}.k{fill:#102236;}.l{fill:#ff3c6e;}.m{opacity:0.5;isolation:isolate;}.n{clip-path:url(#c);}.o{fill:#ffdd6e;}.p{fill:#ffdc6d;}.q{fill:#ffdb6d;}.r{fill:#ffda6d;}.s{fill:#ffd96c;}.t{fill:#ffd86c;}.u{fill:#ffd76c;}.v{fill:#ffd66c;}.w{fill:#ffd56b;}.x{fill:#ffd46b;}.y{fill:#ffd36b;}.z{fill:#ffd26a;}.aa{fill:#ffd16a;}.ab{fill:#ffd06a;}.ac{fill:#ffcf69;}.ad{fill:#ffce69;}.ae{fill:#ffcd69;}.af{fill:#ffcc68;}.ag{fill:#ffcb68;}.ah{fill:#ffca68;}.ai{fill:#ffc967;}.aj{fill:#ffc867;}.ak{fill:#ffc767;}.al{fill:#ffc667;}.am{fill:#ffc566;}.an{fill:#ffc466;}.ao{fill:#ffc366;}.ap{fill:#ffc265;}.aq{fill:#ffc165;}.ar{fill:#ffc065;}.as{fill:#ffbf64;}.at{fill:#ffbe64;}.au{fill:#ffbd64;}.av{fill:#ffbc63;}.aw{fill:#ffbb63;}.ax{fill:#ffba63;}.ay{fill:#ffb963;}.az{fill:#ffb862;}.ba{fill:#ffb762;}.bb{fill:#ffb662;}.bc{fill:#ffb561;}.bd{fill:#ffb461;}.be{fill:#ffb361;}.bf{fill:#ffb260;}.bg{fill:#ffb160;}.bh{fill:#ffb060;}.bi{fill:#ffaf5f;}.bj{fill:#ffae5f;}.bk{fill:#ffad5f;}.bl{fill:#ffac5e;}.bm{fill:#ffab5e;}.bn{fill:#ffaa5e;}.bo{fill:#ffa95e;}.bp{fill:#ffa85d;}.bq{fill:#ffa75d;}.br{fill:#ffa65d;}.bs{fill:#ffa55c;}.bt{fill:#ffa45c;}.bu{fill:#ffa35c;}.bv{fill:#ffa25b;}.bw{fill:#ffa15b;}.bx{fill:#ffa05b;}.by{fill:#ff9f5a;}.bz{fill:#ff9e5a;}.ca{fill:#ff9d5a;}.cb{fill:#ff9c5a;}.cc{fill:#ff9b59;}.cd{fill:#ff9a59;}.ce{fill:#ff9959;}.cf{fill:#ff9858;}.cg{fill:#ff9758;}.ch{fill:#ff9658;}.ci{fill:#ff9457;}.cj{fill:#ff9357;}.ck{fill:#ff9257;}.cl{fill:#ff9156;}.cm{fill:#ff9056;}.cn{fill:#ff8f56;}.co{fill:#ff8e55;}.cp{fill:#ff8d55;}.cq{fill:#ff8c55;}.cr{fill:#ff8b55;}.cs{fill:#ff8a54;}.ct{fill:#ff8954;}.cu{fill:#ff8854;}.cv{fill:#ff8753;}.cw{fill:#ff8653;}.cx{fill:#ff8553;}.cy{fill:#ff8452;}.cz{fill:#ff8352;}.da{fill:#ff8252;}.db{fill:#ff8151;}.dc{fill:#ff8051;}.dd{fill:#ff7f51;}.de{fill:#ff7e51;}.df{fill:#ff7d50;}.dg{fill:#ff7c50;}.dh{fill:#ff7b50;}.di{fill:#ff7a4f;}.dj{fill:#ff794f;}.dk{fill:#ff784f;}.dl{fill:#ff774e;}.dm{fill:#ff764e;}.dn{fill:#ff754e;}.do{fill:#ff744d;}.dp{fill:#ff734d;}.dq{fill:#ff724d;}.dr{fill:#ff714c;}.ds{fill:#ff704c;}.dt{fill:#ff6f4c;}.du{fill:#ff6e4c;}.dv{fill:#ff6d4b;}.dw{fill:#ff6c4b;}.dx{fill:#ff6b4b;}.dy{fill:#ff6a4a;}.dz{fill:#ff694a;}.ea{fill:#ff684a;}.eb{fill:#ff6749;}.ec{fill:#ff6649;}.ed{fill:#ff6549;}.ee{fill:#ff6448;}.ef{fill:#ff6348;}.eg{fill:#ff6248;}.eh{fill:#ff6148;}.ei{fill:#ff6047;}.ej{fill:#ff5f47;}.ek{fill:#ff5e47;}.el{fill:#ff5d46;}.em{fill:#ff5c46;}.en{fill:#ff5b46;}.eo{fill:#ff5a45;}.ep{fill:#ff5945;}.eq{fill:#ff5845;}.er{fill:#ff5744;}.es{fill:#ff5644;}.et{fill:#f54;}.eu{fill:#ff5443;}.ev{fill:#ff5343;}.ew{fill:#ff5243;}.ex{fill:#ff5143;}.ey{fill:#ff5042;}.ez{fill:#ff4f42;}.fa{fill:#ff4e42;}.fb{fill:#ff4d41;}.fc{fill:#ff4c41;}.fd{clip-path:url(#d);}</style><clipPath id="a"><path class="a" d="M1378.1,1662.524l-18.918,21.805,31.955,4.843Z"/></clipPath><clipPath id="b"><circle class="a" cx="16.279" cy="16.279" r="16.279" transform="translate(1182.634 1813.527)"/></clipPath><clipPath id="c"><circle class="a" cx="2.924" cy="2.924" r="2.924" transform="translate(1141.575 1822.959)"/></clipPath><clipPath id="d"><circle class="a" cx="2.924" cy="2.924" r="2.924" transform="translate(1133.083 1825.135)"/></clipPath></defs><g transform="translate(-1089.509 -1630.451)"><g transform="translate(20 -4.947)"><g transform="translate(-29.583 1.674)"><g transform="translate(1127.643 1760.438)"><g transform="translate(34.066 4.259)"><path class="b" d="M1194.09,1750.214c-4.5,0-7.682,3.244-7.7,8.5a7.659,7.659,0,0,0,7.546,7.771c.06,0,.121,0,.18,0a7.329,7.329,0,0,0,4.605-1.05v-2.66a8.913,8.913,0,0,1-3.863.777,4.32,4.32,0,0,1-4.662-3.42l-.027-.188h2.809a13.638,13.638,0,0,0,5.679-.82,2.885,2.885,0,0,0,1.684-2.892,6.02,6.02,0,0,0-6.017-6.022c-.083,0-.164,0-.246.005m1.83,6.89a12.778,12.778,0,0,1-3.795.352h-1.959l.01-.17.03-.535a3.583,3.583,0,0,1,3.528-3.552,3.824,3.824,0,0,1,2.309.633,2.3,2.3,0,0,1,.89,1.922,1.308,1.308,0,0,1-1.013,1.35m6.368-.825v9.931h3.687v-9.217a4.075,4.075,0,0,1,.751-2.72,2.724,2.724,0,0,1,2.181-.85,5.9,5.9,0,0,1,1,.082v-2.924a4.089,4.089,0,0,0-1.866-.388c-4.13,0-5.744,2.932-5.758,6.074m-48.5,9.931h3.682v-20.007h-3.682Zm13.61-16c-4.914,0-7.056,3.367-7.069,6.667v9.325h3.661v-9.066a4.192,4.192,0,0,1,.848-2.75,2.824,2.824,0,0,1,2.233-.992,3.183,3.183,0,0,1,2.515.98,4.518,4.518,0,0,1,.9,3.054v8.769h3.656v-9.119a6.451,6.451,0,0,0-6-6.87,6.278,6.278,0,0,0-.733-.008m13.21-4.015h-3.643l.011,14.435c.021,3.664,1.865,5.828,5.849,5.844,1.691,0,2.708-.553,3.126-1.432v-2.275a6.691,6.691,0,0,1-2.649.419,2.616,2.616,0,0,1-1.989-.711,3.286,3.286,0,0,1-.7-2.321v-6.757h3.191c1.554,0,2.212-.995,2.22-1.731v-1.461h-5.41Z" transform="translate(-1153.78 -1746.178)"/><g transform="translate(70.765 4.031)"><path class="b" d="M1220.694,1758.2a2.883,2.883,0,0,0,1.684-2.892,6.018,6.018,0,0,0-6.016-6.02c-.082,0-.163,0-.245,0-4.5,0-7.685,3.244-7.7,8.5a7.659,7.659,0,0,0,7.547,7.771c.058,0,.118,0,.176,0a7.332,7.332,0,0,0,4.609-1.05v-2.66a8.923,8.923,0,0,1-3.865.777,4.32,4.32,0,0,1-4.662-3.42l-.026-.188h2.809a13.609,13.609,0,0,0,5.676-.82m-8.5-1.664.013-.17.026-.535a3.582,3.582,0,0,1,3.524-3.552,3.811,3.811,0,0,1,2.312.633,2.282,2.282,0,0,1,.891,1.922,1.312,1.312,0,0,1-1.013,1.35,12.778,12.778,0,0,1-3.795.352Z" transform="translate(-1208.42 -1749.291)"/></g><g transform="translate(118.618 4.015)"><path class="b" d="M1245.37,1755.364v9.931h3.691v-9.217a4.071,4.071,0,0,1,.751-2.72,2.723,2.723,0,0,1,2.181-.85,6.067,6.067,0,0,1,1,.08v-2.92a4.116,4.116,0,0,0-1.867-.388c-4.129,0-5.741,2.933-5.758,6.074" transform="translate(-1245.37 -1749.278)"/></g><g transform="translate(57.724 3.968)"><path class="b" d="M1203.487,1765.518c-2.691,0-4.7-1.47-4.7-3.056V1760.7h.129a7.023,7.023,0,0,0,4.394,1.472c1.792,0,2.659-.549,2.659-1.706,0-.894-.518-1.323-3.042-1.7-3.089-.461-4.578-1.76-4.578-4.126,0-2.917,2.461-5.4,6.209-5.4,3.317,0,4.662,1.813,4.662,3.318v1.47h-.13a6.166,6.166,0,0,0-4.177-1.439c-2.228,0-2.931.718-2.931,1.729,0,.777.435,1.1,2.931,1.53,3.033.518,4.662,1.934,4.662,4.416,0,3.291-2.171,5.25-6.1,5.25" transform="translate(-1198.351 -1749.242)"/></g><g transform="translate(86.369 4.008)"><path class="b" d="M1233.931,1760.852c.027.633.058,1.471.058,1.991,0,3.9-2.443,7.382-7.163,7.382-3.014,0-5.074-1.554-5.074-3.4v-1.761h.162a6.242,6.242,0,0,0,4.643,1.673c2.628,0,3.819-1.326,3.819-3.578,0-.228,0-.547-.025-.81,0-.228-.026-.633-.026-.777v-.373a3.727,3.727,0,0,1-3.769,2.305,5.956,5.956,0,0,1-6.086-5.825c0-.156,0-.312.008-.468,0-4.385,2.708-7.935,7.43-7.935,3.639,0,5.968,2.829,5.968,6.812v2.655c0,.518.026,1.414.054,2.107m-9.739-4.126c0,2.04,1.175,3.556,2.932,3.556,1.834,0,3.151-1.457,3.151-3.964,0-2.449-1.154-3.644-2.765-3.644-1.889,0-3.318,1.691-3.318,4.051" transform="translate(-1220.47 -1749.273)"/></g><g transform="translate(127.079 3.967)"><path class="b" d="M1259.311,1749.242c4.49,0,7.074,3.756,7.074,7.88,0,4.674-2.584,8.395-7.408,8.395-4.491,0-7.074-3.722-7.074-7.848,0-4.677,2.581-8.427,7.408-8.427m-.337,3.266c-2.224,0-3.356,1.925-3.356,4.6,0,3.216,1.132,5.143,3.7,5.143,2.255,0,3.354-1.927,3.354-4.573,0-3.247-1.158-5.171-3.7-5.171" transform="translate(-1251.903 -1749.241)"/></g><g transform="translate(102.322 4.298)"><path class="b" d="M1239.52,1765.549c4.9-.007,7.034-3.376,7.044-6.691V1749.5h-3.646v9.1a4.22,4.22,0,0,1-.848,2.755,2.806,2.806,0,0,1-2.223,1,3.161,3.161,0,0,1-2.509-.986,4.554,4.554,0,0,1-.89-3.065v-8.8H1232.8v9.152a6.441,6.441,0,0,0,6.719,6.9" transform="translate(-1232.787 -1749.497)"/></g></g><path class="c" d="M1131.291,1742.889a3.815,3.815,0,0,0-3.815,3.815h0v24.752h24.753a3.818,3.818,0,0,0,3.818-3.817V1742.89Zm18.082,20.618-15.224,2.751V1750.89l15.224-2.751Z" transform="translate(-1127.476 -1742.889)"/></g><g transform="translate(1126.911 1683.422)"><path class="b" d="M1157.728,1725.408v8.738c0,10.521-5.261,16.533-15.405,16.533s-15.412-6.012-15.412-16.533v-34.191c0-10.521,5.26-16.533,15.412-16.533s15.405,6.012,15.405,16.533v6.387h-9.769V1699.3c0-4.7-2.072-6.476-5.355-6.476s-5.354,1.785-5.354,6.476v35.508c0,4.7,2.072,6.386,5.354,6.386s5.355-1.684,5.355-6.386v-9.395Z" transform="translate(-1126.911 -1683.422)"/><g transform="translate(32.697 0.747)"><path class="b" d="M1165.215,1727.961,1152.158,1684h10.8l7.891,29.966,7.89-29.966h9.864l-13.057,43.962v21.794h-10.332Z" transform="translate(-1152.158 -1683.999)"/></g><g transform="translate(73.28 0.75)"><path class="b" d="M1214.4,1699.124v2.348c0,6.762-2.072,11.085-6.67,13.245,5.542,2.16,7.7,7.14,7.7,14.089v5.354c0,10.146-5.355,15.6-15.687,15.6h-16.251V1684h15.593C1209.792,1684,1214.4,1688.978,1214.4,1699.124Zm-20.573-5.732v17.379h4.039c3.852,0,6.2-1.689,6.2-6.951v-3.669c0-4.695-1.6-6.761-5.261-6.761Zm0,26.774v20.2h5.917c3.476,0,5.354-1.6,5.354-6.475v-5.73c0-6.106-1.973-7.986-6.67-7.986Z" transform="translate(-1183.494 -1684.001)"/></g><g transform="translate(111.42 0.747)"><path class="b" d="M1223.27,1711.711h14.184v9.392H1223.27v19.257h17.853v9.393h-28.18V1684h28.18v9.393h-17.848Z" transform="translate(-1212.943 -1683.999)"/></g><g transform="translate(145.978 0.749)"><path class="b" d="M1261.237,1749.755c-.563-1.69-.939-2.721-.939-8.08v-10.332c0-6.106-2.072-8.36-6.764-8.36h-3.574v26.772h-10.332V1684h15.593c10.709,0,15.312,4.979,15.312,15.124v5.166c0,6.762-2.16,11.178-6.764,13.34,5.166,2.16,6.864,7.14,6.864,13.995v10.145a19.375,19.375,0,0,0,1.127,7.986Zm-11.267-56.363v20.2h4.039c3.852,0,6.2-1.689,6.2-6.949v-6.476c0-4.7-1.6-6.763-5.261-6.763Z" transform="translate(-1239.627 -1684)"/></g></g></g><circle class="d" cx="51.121" cy="51.121" r="51.121" transform="translate(1293.302 1678.68)"/><path class="e" d="M1316.839,1707.855h-3.449l-.054.344a5.711,5.711,0,0,1-5.728,5.065,6.32,6.32,0,0,1-4.15-1.5l-.068-.042c-.211-.105-.48-.05-.846.177a6.181,6.181,0,0,0-2.553,5.234c0,3.7,2.9,6.391,6.9,6.391a7.383,7.383,0,0,0,3.7-.965v28.466c0,3.424,1.758,5.31,4.949,5.31h1.3a5.038,5.038,0,0,0,3.8-1.36,5.529,5.529,0,0,0,1.293-3.949v-37.858C1321.932,1709.695,1320.171,1707.855,1316.839,1707.855Z"/><path class="e" d="M1347.919,1725.742a24.283,24.283,0,0,0-8.1,1.415v-9.328h18.416c3.621,0,5.381-1.477,5.381-4.516v-.361c0-3.045-1.81-4.588-5.381-4.588h-22.643c-3.563,0-5.526,2.244-5.526,6.319v15.432c0,4.288,2.18,6.45,6.665,6.607h.145l.115-.087a15.017,15.017,0,0,1,9.418-2.8c5.737,0,8.9,2.519,8.9,7.094,0,4.42-3.547,7.166-9.257,7.166a15.075,15.075,0,0,1-12.591-6.122c-.254-.318-.725-.153-.879-.1-1.069.375-4.17,2.433-4.17,5.4,0,2.347,1.742,4.712,4.78,6.489,2.342,1.37,6.5,3,13,3,11.949,0,19.371-6.068,19.371-15.837C1365.56,1731.7,1358.636,1725.742,1347.919,1725.742Z"/><path class="e" d="M1367.834,1713.13v-.195a3.724,3.724,0,0,1,3.658-3.788c.1,0,.2,0,.3.006a3.678,3.678,0,0,1,3.894,3.448q.009.155.006.309v.195a3.72,3.72,0,0,1-3.648,3.788c-.093,0-.187,0-.28-.006a3.7,3.7,0,0,1-3.919-3.467C1367.834,1713.323,1367.832,1713.227,1367.834,1713.13Zm1.244,11.2a1.742,1.742,0,0,1,.659-1.245l12.274-13.981c.122-.146,1.464.219,1.464,1.1a2.145,2.145,0,0,1-.659,1.293l-12.273,13.957c-.123.145-1.465-.274-1.465-1.124Zm4.319-11.1v-.391a1.656,1.656,0,0,0-1.446-1.842,1.514,1.514,0,0,0-.189-.012,1.631,1.631,0,0,0-1.651,1.609,1.675,1.675,0,0,0,.016.245v.391a1.643,1.643,0,0,0,1.474,1.8,1.645,1.645,0,0,0,1.808-1.586,1.525,1.525,0,0,0-.012-.214Zm3.538,8.418v-.2a3.738,3.738,0,0,1,3.687-3.788c.089,0,.177,0,.266.006a3.666,3.666,0,0,1,3.894,3.421c.007.112.009.225.006.337v.2a3.711,3.711,0,0,1-3.635,3.786c-.088,0-.177,0-.265,0a3.705,3.705,0,0,1-3.945-3.45c-.007-.1-.01-.2-.008-.305Zm5.587.073v-.39a1.668,1.668,0,0,0-1.472-1.844c-.054-.006-.109-.009-.163-.01a1.631,1.631,0,0,0-1.651,1.61,1.673,1.673,0,0,0,.016.244v.39a1.634,1.634,0,0,0,1.425,1.819,1.487,1.487,0,0,0,.21.012,1.651,1.651,0,0,0,1.636-1.833Z"/><path class="e" d="M1368.323,1729.885a.479.479,0,0,1,.43-.523.617.617,0,0,1,.062,0h1.049a1.977,1.977,0,0,1,2.22,2.054,2.014,2.014,0,0,1-1.927,2.1,2.077,2.077,0,0,1-.325-.013h-.985a.521.521,0,0,1-.524-.519Zm2.821,1.535a1.171,1.171,0,0,0-1.078-1.257,1.271,1.271,0,0,0-.222,0h-.582v2.527h.57a1.186,1.186,0,0,0,1.312-1.274Z"/><path class="e" d="M1372.468,1732.751c0-.262.326-.5.358-.467a1.683,1.683,0,0,0,1.228.556c.492,0,.755-.179.755-.5,0-.371-.416-.448-.9-.557-.659-.147-1.337-.39-1.337-1.241,0-.768.614-1.273,1.612-1.273a2.03,2.03,0,0,1,1.19.307.57.57,0,0,1,.288.454.616.616,0,0,1-.371.493,1.484,1.484,0,0,0-1.1-.506c-.448,0-.716.186-.716.486,0,.358.371.409.883.525.748.167,1.4.473,1.4,1.254,0,.825-.607,1.305-1.7,1.305a2.082,2.082,0,0,1-1.337-.378A.591.591,0,0,1,1372.468,1732.751Z"/><path class="e" d="M1378.3,1729.271a2.016,2.016,0,0,1,1.209.345.824.824,0,0,1,.377.6c0,.416-.531.512-.544.48a1.13,1.13,0,0,0-1.011-.563,1.19,1.19,0,0,0-1.2,1.185,1.119,1.119,0,0,0,.005.115,1.208,1.208,0,0,0,1.109,1.3.909.909,0,0,0,.091,0,1.058,1.058,0,0,0,1.023-.621c.013-.039.563.057.563.473a.89.89,0,0,1-.4.633,2.164,2.164,0,0,1-3.366-1.591c0-.065,0-.129,0-.194a2.057,2.057,0,0,1,1.948-2.161C1378.176,1729.269,1378.239,1729.269,1378.3,1729.271Z"/><path class="e" d="M1381.545,1730.185h-.934c-.282,0-.435-.141-.435-.4v-.032c0-.256.153-.391.435-.391h2.8c.288,0,.435.135.435.391v.032c0,.262-.147.4-.435.4h-.915v2.911a.384.384,0,0,1-.333.428.452.452,0,0,1-.089,0h-.134c-.256,0-.39-.147-.39-.428Z"/><path class="e" d="M1383.963,1731.434a2.073,2.073,0,0,1,1.981-2.161c.052,0,.1,0,.156,0a2.05,2.05,0,0,1,2.125,1.972c0,.061,0,.123,0,.184a2.062,2.062,0,0,1-1.956,2.161c-.058,0-.116,0-.174,0a2.051,2.051,0,0,1-2.132-1.969C1383.959,1731.559,1383.96,1731.5,1383.963,1731.434Zm3.326,0a1.21,1.21,0,0,0-1.091-1.318,1.019,1.019,0,0,0-.109-.006,1.189,1.189,0,0,0-1.2,1.181,1.041,1.041,0,0,0,.007.137,1.2,1.2,0,0,0,1.069,1.318,1.12,1.12,0,0,0,.131.006,1.2,1.2,0,0,0,1.2-1.2,1.139,1.139,0,0,0-.006-.117Z"/><path class="e" d="M1388.722,1733.032a.379.379,0,0,1,.322-.428.384.384,0,0,1,.107,0h.109a.382.382,0,0,1,.434.322.376.376,0,0,1,0,.106v.09a.383.383,0,0,1-.435.428h-.109a.382.382,0,0,1-.429-.328.416.416,0,0,1,0-.1Z"/><g transform="translate(-9 5)"><path class="b" d="M1287.171,1796.439l1.27-5.986c.134-.562.379-.818.892-.818h.256c.5,0,.782.293.659.854l-1.185,5.522h2.9c.489,0,.77.208.77.538a1.433,1.433,0,0,1-.305.843c-.122.134-.293.2-.7.2h-3.652C1287.33,1797.588,1287,1797.209,1287.171,1796.439Z"/><path class="b" d="M1297.884,1796.488a2.5,2.5,0,0,1-2.15,1.247,2.227,2.227,0,0,1-2.27-2.184,2.065,2.065,0,0,1,.01-.26c0-1.906,1.356-3.811,3.274-3.811a2.1,2.1,0,0,1,1.918,1.075,1.209,1.209,0,0,1,1.258-.977c.342,0,.611.147.611.208l-.928,4.325c-.147.66-.024.9.44.99.012.012-.074.611-.953.611a1.066,1.066,0,0,1-1.21-1.224Zm.3-1.771.171-.831a1.362,1.362,0,0,0-1.38-1.062,2.058,2.058,0,0,0-1.832,2.223,1.205,1.205,0,0,0,1.087,1.314,1,1,0,0,0,.122.005,1.966,1.966,0,0,0,1.832-1.65Z"/><path class="b" d="M1303.025,1795a3.378,3.378,0,0,1,3.235-3.515c.045,0,.091,0,.137,0a2.656,2.656,0,0,1,2.851,2.445,2.575,2.575,0,0,1,.007.291,3.378,3.378,0,0,1-3.235,3.515c-.046,0-.091,0-.136,0a2.656,2.656,0,0,1-2.853-2.443A2.864,2.864,0,0,1,1303.025,1795Zm4.728-.708a1.414,1.414,0,0,0-1.328-1.5c-.024,0-.048,0-.072,0a2.007,2.007,0,0,0-1.82,2.15,1.411,1.411,0,0,0,1.33,1.488l.075,0A2,2,0,0,0,1307.753,1794.289Z"/><path class="b" d="M1310.305,1796.818l.818-3.848h-.464c-.391,0-.623-.171-.623-.452a1.241,1.241,0,0,1,.244-.72.772.772,0,0,1,.6-.171h.525l.1-.4c.342-1.624,1.222-2.2,2.333-2.2a1.758,1.758,0,0,1,1.258.4.754.754,0,0,1,.22.525.883.883,0,0,1-.464.757,1.064,1.064,0,0,0-.83-.367c-.44,0-.733.244-.88.916l-.085.367h.806c.428,0,.66.183.66.452a1.244,1.244,0,0,1-.257.72.775.775,0,0,1-.6.17h-.818l-.818,3.848c-.122.611-.354.818-.794.818h-.183C1310.586,1797.636,1310.17,1797.453,1310.305,1796.818Z"/><path class="b" d="M1314.4,1795.193a3.652,3.652,0,0,1,3.588-3.715c.054,0,.108,0,.162,0,1.514,0,2.357.708,2.357,1.747,0,1.221-.782,1.954-3.433,1.954-.366,0-.769-.024-1.221-.049v.037a1.279,1.279,0,0,0,1.2,1.353,1.2,1.2,0,0,0,.254-.01,2.121,2.121,0,0,0,1.759-.867c.024-.037.733.085.733.647a.933.933,0,0,1-.33.733,3.019,3.019,0,0,1-2.187.708C1315.324,1797.734,1314.4,1796.659,1314.4,1795.193Zm1.673-1.112c.318.025.6.037.855.037,1.661,0,2.126-.378,2.126-.843,0-.317-.33-.635-.977-.635A2.245,2.245,0,0,0,1316.069,1794.081Z"/><path class="b" d="M1323.263,1792.627a1.821,1.821,0,0,1,1.613-1.148c.6,0,1.063.342,1.063.843a1.092,1.092,0,0,1-.77,1.087,1.066,1.066,0,0,0-.831-.354c-.769,0-1.258.855-1.527,2.114l-.342,1.649c-.135.611-.354.818-.794.818h-.183c-.464,0-.88-.183-.745-.818l1.087-5.131a.761.761,0,0,1,.477-.11.908.908,0,0,1,.962.851A.943.943,0,0,1,1323.263,1792.627Z"/><path class="b" d="M1326.695,1795.486l.525-2.517h-.293c-.391,0-.623-.171-.623-.452a1.241,1.241,0,0,1,.244-.72.78.78,0,0,1,.6-.171h.354l.073-.342c.171-.879.525-1.246,1.283-1.246.366,0,.647.146.635.208l-.293,1.38h1c.415,0,.647.183.647.452a1.159,1.159,0,0,1-.257.72.742.742,0,0,1-.586.171h-1.112l-.525,2.443c-.159.721.085,1.026.562,1.026a1.134,1.134,0,0,0,.733-.3c.049-.037.281.159.281.525a.917.917,0,0,1-.293.672,1.741,1.741,0,0,1-1.27.415C1327.013,1797.746,1326.389,1796.926,1326.695,1795.486Z"/><path class="b" d="M1335.282,1796.488a2.5,2.5,0,0,1-2.15,1.247,2.227,2.227,0,0,1-2.27-2.184,2.065,2.065,0,0,1,.01-.26c0-1.906,1.356-3.811,3.274-3.811a2.1,2.1,0,0,1,1.918,1.075,1.209,1.209,0,0,1,1.258-.977c.342,0,.611.147.611.208l-.928,4.325c-.147.66-.025.9.44.99.012.012-.073.611-.953.611a1.066,1.066,0,0,1-1.21-1.224Zm.305-1.771.171-.831a1.362,1.362,0,0,0-1.38-1.062,2.057,2.057,0,0,0-1.832,2.223,1.205,1.205,0,0,0,1.087,1.314.993.993,0,0,0,.122.005,1.966,1.966,0,0,0,1.832-1.65Z"/><path class="b" d="M1341.046,1795.486l.525-2.517h-.293c-.391,0-.623-.171-.623-.452a1.241,1.241,0,0,1,.244-.72.78.78,0,0,1,.6-.171h.354l.073-.342c.171-.879.525-1.246,1.283-1.246.366,0,.647.146.635.208l-.293,1.38h1c.415,0,.647.183.647.452a1.163,1.163,0,0,1-.256.72.742.742,0,0,1-.586.171h-1.112l-.525,2.443c-.159.721.085,1.026.562,1.026a1.134,1.134,0,0,0,.733-.3c.049-.037.281.159.281.525a.917.917,0,0,1-.293.672,1.743,1.743,0,0,1-1.271.415C1341.363,1797.746,1340.74,1796.926,1341.046,1795.486Z"/><path class="b" d="M1345.187,1795.193a3.652,3.652,0,0,1,3.588-3.715c.054,0,.108,0,.162,0,1.514,0,2.357.708,2.357,1.747,0,1.221-.782,1.954-3.433,1.954-.367,0-.77-.024-1.221-.049v.037a1.279,1.279,0,0,0,1.2,1.353,1.2,1.2,0,0,0,.254-.01,2.121,2.121,0,0,0,1.759-.867c.025-.037.733.085.733.647a.937.937,0,0,1-.33.733,3.019,3.019,0,0,1-2.187.708C1346.115,1797.734,1345.187,1796.659,1345.187,1795.193Zm1.673-1.112c.318.025.6.037.855.037,1.661,0,2.126-.378,2.126-.843,0-.317-.33-.635-.977-.635a2.246,2.246,0,0,0-2.007,1.441Z"/><path class="b" d="M1354.054,1792.627a1.821,1.821,0,0,1,1.613-1.148c.6,0,1.063.342,1.063.843a1.092,1.092,0,0,1-.77,1.087,1.066,1.066,0,0,0-.831-.354c-.77,0-1.258.855-1.527,2.114l-.342,1.649c-.134.611-.354.818-.794.818h-.183c-.464,0-.88-.183-.745-.818l1.087-5.131a.761.761,0,0,1,.477-.11.908.908,0,0,1,.962.851A.943.943,0,0,1,1354.054,1792.627Z"/><path class="b" d="M1364.522,1796.643a5.7,5.7,0,0,1,.293-1.466,6.6,6.6,0,0,0,.256-1.283.869.869,0,0,0-.756-.97.86.86,0,0,0-.124-.007,1.463,1.463,0,0,0-1.283.794l-.659,3.1c-.134.623-.391.818-.831.818h-.183c-.452,0-.843-.183-.708-.818l.537-2.541c.171-.806-.171-1.356-.806-1.356a1.475,1.475,0,0,0-1.283.782l-.659,3.115c-.134.635-.391.818-.831.818h-.183c-.464,0-.843-.183-.708-.818l1.087-5.131a.76.76,0,0,1,.477-.11.906.906,0,0,1,.957.852.971.971,0,0,1-.005.162,2.369,2.369,0,0,1,1.991-1.112,1.7,1.7,0,0,1,1.735,1.295,2.545,2.545,0,0,1,2.2-1.295,1.806,1.806,0,0,1,1.848,1.763c0,.056,0,.111,0,.167a7.828,7.828,0,0,1-.342,1.747,6.407,6.407,0,0,0-.293,1.319c0,.342.171.477.489.526.037,0-.1.708-1.038.708C1364.889,1797.709,1364.522,1797.294,1364.522,1796.643Z"/><path class="b" d="M1367.709,1796.061l.782-3.652c.134-.623.354-.831.794-.831h.184c.464,0,.879.183.745.831l-.794,3.7c-.135.66-.025.917.476.99.012.012-.085.611-1,.611C1367.782,1797.71,1367.5,1797.026,1367.709,1796.061Zm1.234-6.168a.956.956,0,0,1,.91-1h.09c.611,0,.953.305.953.747a.963.963,0,0,1-.923,1h-.077c-.607,0-.953-.308-.953-.747Z"/><path class="b" d="M1373.2,1792.643a2.4,2.4,0,0,1,2.052-1.16,1.8,1.8,0,0,1,1.93,1.66,1.749,1.749,0,0,1,0,.27,7.279,7.279,0,0,1-.354,1.747,7.169,7.169,0,0,0-.281,1.319c0,.342.159.477.489.526.024,0-.1.708-1.039.708-.806,0-1.185-.416-1.185-1.063a6.278,6.278,0,0,1,.293-1.466,5.966,5.966,0,0,0,.269-1.283.884.884,0,0,0-.782-.976.926.926,0,0,0-.183,0,1.538,1.538,0,0,0-1.368.868l-.635,3.03c-.134.611-.354.818-.794.818h-.183c-.464,0-.879-.183-.745-.818l1.087-5.131a.759.759,0,0,1,.477-.11.913.913,0,0,1,.952,1.062Z"/><path class="b" d="M1382.341,1796.488a2.5,2.5,0,0,1-2.15,1.247,2.227,2.227,0,0,1-2.27-2.184,2.042,2.042,0,0,1,.01-.26c0-1.906,1.356-3.811,3.274-3.811a2.1,2.1,0,0,1,1.918,1.075,1.209,1.209,0,0,1,1.258-.977c.342,0,.611.147.611.208l-.928,4.325c-.147.66-.025.9.44.99.012.012-.073.611-.953.611a1.066,1.066,0,0,1-1.21-1.224Zm.305-1.771.171-.831a1.362,1.362,0,0,0-1.38-1.062,2.058,2.058,0,0,0-1.832,2.223,1.205,1.205,0,0,0,1.087,1.314.994.994,0,0,0,.122.005,1.966,1.966,0,0,0,1.832-1.65Z"/><path class="b" d="M1387.444,1795.193a3.652,3.652,0,0,1,3.588-3.715c.054,0,.108,0,.162,0,1.515,0,2.358.708,2.358,1.747,0,1.221-.782,1.954-3.433,1.954-.366,0-.77-.024-1.222-.049v.037a1.279,1.279,0,0,0,1.2,1.353,1.2,1.2,0,0,0,.254-.01,2.122,2.122,0,0,0,1.759-.867c.025-.037.733.085.733.647a.937.937,0,0,1-.33.733,3.018,3.018,0,0,1-2.187.708C1388.374,1797.734,1387.444,1796.659,1387.444,1795.193Zm1.674-1.112c.318.025.6.037.855.037,1.661,0,2.126-.378,2.126-.843,0-.317-.33-.635-.977-.635a2.246,2.246,0,0,0-2,1.441Z"/><path class="b" d="M1396.313,1792.643a2.4,2.4,0,0,1,2.052-1.16,1.8,1.8,0,0,1,1.93,1.66,1.749,1.749,0,0,1,0,.27,7.279,7.279,0,0,1-.354,1.747,7.09,7.09,0,0,0-.281,1.319c0,.342.159.477.489.526.025,0-.1.708-1.038.708-.806,0-1.185-.416-1.185-1.063a6.278,6.278,0,0,1,.293-1.466,5.966,5.966,0,0,0,.269-1.283.885.885,0,0,0-.784-.976.906.906,0,0,0-.181,0,1.538,1.538,0,0,0-1.368.868l-.635,3.03c-.134.611-.354.818-.794.818h-.183c-.464,0-.88-.183-.745-.818l1.087-5.131a.76.76,0,0,1,.477-.11.913.913,0,0,1,.962.861A.9.9,0,0,1,1396.313,1792.643Z"/><path class="b" d="M1400.868,1797.05a1.372,1.372,0,0,1,.318-.941.931.931,0,0,1,.77-.232c.562,0,.831.208.831.635a1.376,1.376,0,0,1-.318.941c-.159.159-.33.22-.77.22C1401.137,1797.673,1400.868,1797.477,1400.868,1797.05Zm.782-3.726a1.373,1.373,0,0,1,.318-.941.934.934,0,0,1,.77-.232c.562,0,.843.208.843.635a1.376,1.376,0,0,1-.318.941c-.159.158-.33.22-.77.22-.562,0-.843-.2-.843-.627Z"/></g></g><g transform="translate(5)"><g class="f"><rect class="b" width="77.54" height="1.327" transform="matrix(0.967, -0.253, 0.253, 0.967, 1332.762, 1667.249)"/><rect class="b" width="77.54" height="1.327" transform="matrix(0.967, -0.253, 0.253, 0.967, 1333.167, 1668.802)"/><rect class="b" width="77.539" height="1.327" transform="matrix(0.967, -0.253, 0.253, 0.967, 1333.573, 1670.355)"/><rect class="b" width="77.54" height="1.327" transform="matrix(0.967, -0.253, 0.253, 0.967, 1333.978, 1671.908)"/><rect class="b" width="77.54" height="1.327" transform="matrix(0.967, -0.253, 0.253, 0.967, 1334.383, 1673.461)"/><rect class="b" width="77.54" height="1.327" transform="matrix(0.967, -0.253, 0.253, 0.967, 1334.789, 1675.014)"/><rect class="b" width="77.539" height="1.327" transform="matrix(0.967, -0.253, 0.253, 0.967, 1335.195, 1676.567)"/><rect class="b" width="77.54" height="1.327" transform="matrix(0.967, -0.253, 0.253, 0.967, 1335.599, 1678.12)"/><rect class="b" width="77.54" height="1.327" transform="matrix(0.967, -0.253, 0.253, 0.967, 1336.005, 1679.673)"/><rect class="b" width="77.539" height="1.327" transform="matrix(0.967, -0.253, 0.253, 0.967, 1336.41, 1681.226)"/><rect class="b" width="77.539" height="1.327" transform="matrix(0.967, -0.253, 0.253, 0.967, 1336.816, 1682.779)"/><rect class="b" width="77.54" height="1.327" transform="matrix(0.967, -0.253, 0.253, 0.967, 1337.221, 1684.332)"/><rect class="b" width="77.54" height="1.327" transform="matrix(0.967, -0.253, 0.253, 0.967, 1337.626, 1685.885)"/><rect class="b" width="77.539" height="1.327" transform="matrix(0.967, -0.253, 0.253, 0.967, 1338.031, 1687.438)"/><rect class="b" width="77.54" height="1.327" transform="matrix(0.967, -0.253, 0.253, 0.967, 1338.437, 1688.991)"/><rect class="b" width="77.54" height="1.327" transform="matrix(0.967, -0.253, 0.253, 0.967, 1338.842, 1690.544)"/><rect class="b" width="77.54" height="1.327" transform="matrix(0.967, -0.253, 0.253, 0.967, 1339.247, 1692.097)"/><rect class="b" width="77.539" height="1.327" transform="matrix(0.967, -0.253, 0.253, 0.967, 1339.654, 1693.65)"/><rect class="b" width="77.54" height="1.327" transform="matrix(0.967, -0.253, 0.253, 0.967, 1340.058, 1695.203)"/><rect class="b" width="77.54" height="1.327" transform="matrix(0.967, -0.253, 0.253, 0.967, 1340.463, 1696.756)"/><rect class="b" width="77.539" height="1.327" transform="matrix(0.967, -0.253, 0.253, 0.967, 1340.869, 1698.309)"/><rect class="b" width="77.539" height="1.327" transform="matrix(0.967, -0.253, 0.253, 0.967, 1341.275, 1699.862)"/><rect class="b" width="77.54" height="1.327" transform="matrix(0.967, -0.253, 0.253, 0.967, 1341.679, 1701.415)"/><rect class="b" width="77.54" height="1.327" transform="matrix(0.967, -0.253, 0.253, 0.967, 1342.085, 1702.968)"/></g></g><g transform="translate(-3 -11)"><g transform="translate(20 -2)"><g class="g"><rect class="b" width="1.119" height="82.114" transform="matrix(0.821, -0.57, 0.57, 0.821, 1187.396, 1782.799)"/><rect class="b" width="1.119" height="82.115" transform="matrix(0.821, -0.57, 0.57, 0.821, 1185.998, 1783.767)"/><rect class="b" width="1.119" height="82.114" transform="matrix(0.821, -0.57, 0.57, 0.821, 1184.603, 1784.738)"/><rect class="b" width="1.119" height="82.115" transform="matrix(0.821, -0.57, 0.57, 0.821, 1183.206, 1785.706)"/><rect class="b" width="1.119" height="82.114" transform="matrix(0.821, -0.57, 0.57, 0.821, 1181.811, 1786.676)"/><rect class="b" width="1.119" height="82.115" transform="matrix(0.821, -0.57, 0.57, 0.821, 1180.413, 1787.644)"/><rect class="b" width="1.119" height="82.114" transform="matrix(0.821, -0.57, 0.57, 0.821, 1179.018, 1788.615)"/><rect class="b" width="1.119" height="82.115" transform="matrix(0.821, -0.57, 0.57, 0.821, 1177.621, 1789.583)"/><rect class="b" width="1.119" height="82.115" transform="matrix(0.821, -0.57, 0.57, 0.821, 1176.224, 1790.553)"/><rect class="b" width="1.119" height="82.115" transform="matrix(0.821, -0.57, 0.57, 0.821, 1174.828, 1791.522)"/><rect class="b" width="1.119" height="82.115" transform="matrix(0.821, -0.57, 0.57, 0.821, 1173.432, 1792.492)"/><rect class="b" width="1.119" height="82.115" transform="matrix(0.821, -0.57, 0.57, 0.821, 1172.036, 1793.46)"/><rect class="b" width="1.119" height="82.115" transform="matrix(0.821, -0.57, 0.57, 0.821, 1170.639, 1794.43)"/><rect class="b" width="1.119" height="82.115" transform="matrix(0.821, -0.57, 0.57, 0.821, 1169.243, 1795.4)"/><rect class="b" width="1.119" height="82.115" transform="matrix(0.821, -0.57, 0.57, 0.821, 1167.847, 1796.369)"/><rect class="b" width="1.119" height="82.115" transform="matrix(0.821, -0.57, 0.57, 0.821, 1166.45, 1797.338)"/><rect class="b" width="1.119" height="82.115" transform="matrix(0.821, -0.57, 0.57, 0.821, 1165.054, 1798.307)"/><rect class="b" width="1.119" height="82.115" transform="matrix(0.821, -0.57, 0.57, 0.821, 1163.658, 1799.277)"/><rect class="b" width="1.119" height="82.115" transform="matrix(0.821, -0.57, 0.57, 0.821, 1162.261, 1800.245)"/><rect class="b" width="1.119" height="82.115" transform="matrix(0.821, -0.57, 0.57, 0.821, 1160.865, 1801.215)"/><rect class="b" width="1.119" height="82.115" transform="matrix(0.821, -0.57, 0.57, 0.821, 1159.469, 1802.184)"/><rect class="b" width="1.119" height="82.115" transform="matrix(0.821, -0.57, 0.57, 0.821, 1158.073, 1803.154)"/><rect class="b" width="1.119" height="82.115" transform="matrix(0.821, -0.57, 0.57, 0.821, 1156.676, 1804.122)"/><rect class="b" width="1.119" height="82.115" transform="matrix(0.821, -0.57, 0.57, 0.821, 1155.28, 1805.093)"/></g></g></g><g transform="translate(-3 -14)"><circle class="b" cx="1.897" cy="1.897" r="1.897" transform="translate(1092.509 1766.374)"/></g><path class="b" d="M1398.588,1639.031a4.29,4.29,0,1,1,4.29-4.29A4.295,4.295,0,0,1,1398.588,1639.031Zm0-5.508a1.218,1.218,0,1,0,1.217,1.218A1.22,1.22,0,0,0,1398.588,1633.523Z"/><circle class="b" cx="1.428" cy="1.428" r="1.428" transform="translate(1283.957 1770.722)"/><g transform="translate(-17.363 7)"><path class="b" d="M1119.243,1671.266a4.29,4.29,0,1,1,4.29-4.29A4.3,4.3,0,0,1,1119.243,1671.266Zm0-5.509a1.218,1.218,0,1,0,1.218,1.219A1.22,1.22,0,0,0,1119.243,1665.757Z"/></g><g transform="translate(-6 15.838)"><path class="b" d="M1125.595,1798.868a5.427,5.427,0,1,1,5.427-5.427A5.431,5.431,0,0,1,1125.595,1798.868Zm0-7.781a2.354,2.354,0,1,0,2.355,2.354A2.357,2.357,0,0,0,1125.595,1791.087Z"/></g><g transform="translate(120 10)"><circle class="h" cx="10.11" cy="10.11" r="10.11" transform="translate(1181.922 1653.456)"/><path class="i" d="M1196.706,1663.026h-.1a.926.926,0,0,0,.062-1.851h-3.031a4.849,4.849,0,0,0,.863-2.248c0-1.19-.652-1.851-1.077-1.927a.729.729,0,0,0-.86.51c-.123.359.095,1.039.01,1.282a21.809,21.809,0,0,1-1.673,2.014,3.428,3.428,0,0,0-.68,2.219v4.052a.577.577,0,0,0,.576.576h5.51a.671.671,0,1,0,.053-1.341h.042a.822.822,0,0,0,0-1.643h.3a.821.821,0,0,0,0-1.642Z"/></g><g transform="translate(9 3)"><circle class="j" cx="10.703" cy="10.703" r="10.703" transform="translate(1403.132 1748.082)"/><path class="k" d="M1420.417,1756.121l-1.689-.851,1.689-.851a.511.511,0,0,0-.46-.912l-2.535,1.277a.51.51,0,0,0-.28.48v.013a.508.508,0,0,0,.28.48l2.535,1.278a.511.511,0,0,0,.46-.913Z"/><path class="k" d="M1407.409,1756.121l1.689-.851-1.689-.851a.511.511,0,1,1,.46-.912h0l2.535,1.277a.51.51,0,0,1,.28.48v.013a.508.508,0,0,1-.28.48l-2.535,1.278a.511.511,0,1,1-.46-.913Z"/><path class="k" d="M1406.648,1759.182a7.1,7.1,0,0,0,14.189,0Z"/><path class="l" d="M1420.1,1762.176a17.212,17.212,0,0,0-12.731,0,7.244,7.244,0,0,0,12.731,0Z"/></g><g transform="translate(16 -6)"><circle class="j" cx="7.834" cy="7.834" r="7.834" transform="translate(1132.88 1820.269)"/><g class="m"><g class="n"><rect class="j" width="5.848" height="5.848" transform="translate(1141.575 1822.959)"/><circle class="j" cx="2.459" cy="2.459" r="2.459" transform="translate(1142.04 1823.424)"/><circle class="o" cx="2.442" cy="2.442" r="2.442" transform="translate(1142.057 1823.441)"/><circle class="p" cx="2.425" cy="2.425" r="2.425" transform="translate(1142.073 1823.458)"/><circle class="q" cx="2.409" cy="2.409" r="2.409" transform="translate(1142.09 1823.475)"/><circle class="r" cx="2.392" cy="2.392" r="2.392" transform="translate(1142.107 1823.492)"/><circle class="s" cx="2.375" cy="2.375" r="2.375" transform="translate(1142.124 1823.508)"/><circle class="t" cx="2.358" cy="2.358" r="2.358" transform="translate(1142.141 1823.525)"/><circle class="u" cx="2.341" cy="2.341" r="2.341" transform="translate(1142.158 1823.542)"/><circle class="v" cx="2.324" cy="2.324" r="2.324" transform="translate(1142.174 1823.559)"/><circle class="w" cx="2.307" cy="2.307" r="2.307" transform="translate(1142.191 1823.576)"/><circle class="x" cx="2.291" cy="2.291" r="2.291" transform="translate(1142.208 1823.593)"/><circle class="y" cx="2.274" cy="2.274" r="2.274" transform="translate(1142.225 1823.609)"/><circle class="z" cx="2.257" cy="2.257" r="2.257" transform="translate(1142.242 1823.626)"/><circle class="aa" cx="2.24" cy="2.24" r="2.24" transform="translate(1142.259 1823.643)"/><circle class="ab" cx="2.223" cy="2.223" r="2.223" transform="translate(1142.276 1823.66)"/><circle class="ac" cx="2.206" cy="2.206" r="2.206" transform="translate(1142.292 1823.677)"/><circle class="ad" cx="2.19" cy="2.19" r="2.19" transform="translate(1142.309 1823.694)"/><circle class="ae" cx="2.173" cy="2.173" r="2.173" transform="translate(1142.326 1823.711)"/><circle class="af" cx="2.156" cy="2.156" r="2.156" transform="translate(1142.343 1823.727)"/><circle class="ag" cx="2.139" cy="2.139" r="2.139" transform="translate(1142.36 1823.744)"/><circle class="ah" cx="2.122" cy="2.122" r="2.122" transform="translate(1142.377 1823.761)"/><circle class="ai" cx="2.105" cy="2.105" r="2.105" transform="translate(1142.393 1823.778)"/><circle class="aj" cx="2.089" cy="2.089" r="2.089" transform="translate(1142.41 1823.795)"/><circle class="ak" cx="2.072" cy="2.072" r="2.072" transform="translate(1142.427 1823.812)"/><circle class="al" cx="2.055" cy="2.055" r="2.055" transform="translate(1142.444 1823.828)"/><circle class="am" cx="2.038" cy="2.038" r="2.038" transform="translate(1142.461 1823.845)"/><circle class="an" cx="2.021" cy="2.021" r="2.021" transform="translate(1142.478 1823.862)"/><circle class="ao" cx="2.004" cy="2.004" r="2.004" transform="translate(1142.495 1823.879)"/><circle class="ap" cx="1.987" cy="1.987" r="1.987" transform="translate(1142.511 1823.896)"/><circle class="aq" cx="1.971" cy="1.971" r="1.971" transform="translate(1142.528 1823.913)"/><circle class="ar" cx="1.954" cy="1.954" r="1.954" transform="translate(1142.545 1823.93)"/><circle class="as" cx="1.937" cy="1.937" r="1.937" transform="translate(1142.562 1823.946)"/><circle class="at" cx="1.92" cy="1.92" r="1.92" transform="translate(1142.579 1823.963)"/><circle class="au" cx="1.903" cy="1.903" r="1.903" transform="translate(1142.596 1823.98)"/><circle class="av" cx="1.886" cy="1.886" r="1.886" transform="translate(1142.612 1823.997)"/><circle class="aw" cx="1.87" cy="1.87" r="1.87" transform="translate(1142.629 1824.014)"/><circle class="ax" cx="1.853" cy="1.853" r="1.853" transform="translate(1142.646 1824.031)"/><circle class="ay" cx="1.836" cy="1.836" r="1.836" transform="translate(1142.663 1824.047)"/><circle class="az" cx="1.819" cy="1.819" r="1.819" transform="translate(1142.68 1824.064)"/><circle class="ba" cx="1.802" cy="1.802" r="1.802" transform="translate(1142.697 1824.081)"/><circle class="bb" cx="1.785" cy="1.785" r="1.785" transform="translate(1142.714 1824.098)"/><circle class="bc" cx="1.769" cy="1.769" r="1.769" transform="translate(1142.73 1824.115)"/><circle class="bd" cx="1.752" cy="1.752" r="1.752" transform="translate(1142.747 1824.132)"/><circle class="be" cx="1.735" cy="1.735" r="1.735" transform="translate(1142.764 1824.148)"/><circle class="bf" cx="1.718" cy="1.718" r="1.718" transform="translate(1142.781 1824.165)"/><circle class="bg" cx="1.701" cy="1.701" r="1.701" transform="translate(1142.798 1824.182)"/><circle class="bh" cx="1.684" cy="1.684" r="1.684" transform="translate(1142.815 1824.199)"/><circle class="bi" cx="1.667" cy="1.667" r="1.667" transform="translate(1142.831 1824.216)"/><circle class="bj" cx="1.651" cy="1.651" r="1.651" transform="translate(1142.848 1824.233)"/><circle class="bk" cx="1.634" cy="1.634" r="1.634" transform="translate(1142.865 1824.25)"/><circle class="bl" cx="1.617" cy="1.617" r="1.617" transform="translate(1142.882 1824.266)"/><circle class="bm" cx="1.6" cy="1.6" r="1.6" transform="translate(1142.899 1824.283)"/><circle class="bn" cx="1.583" cy="1.583" r="1.583" transform="translate(1142.916 1824.3)"/><circle class="bo" cx="1.566" cy="1.566" r="1.566" transform="translate(1142.932 1824.317)"/><circle class="bp" cx="1.55" cy="1.55" r="1.55" transform="translate(1142.949 1824.334)"/><circle class="bq" cx="1.533" cy="1.533" r="1.533" transform="translate(1142.966 1824.351)"/><circle class="br" cx="1.516" cy="1.516" r="1.516" transform="translate(1142.983 1824.367)"/><circle class="bs" cx="1.499" cy="1.499" r="1.499" transform="translate(1143 1824.384)"/><circle class="bt" cx="1.482" cy="1.482" r="1.482" transform="translate(1143.017 1824.401)"/><circle class="bu" cx="1.465" cy="1.465" r="1.465" transform="translate(1143.033 1824.418)"/><circle class="bv" cx="1.449" cy="1.449" r="1.449" transform="translate(1143.05 1824.435)"/><circle class="bw" cx="1.432" cy="1.432" r="1.432" transform="translate(1143.067 1824.452)"/><circle class="bx" cx="1.415" cy="1.415" r="1.415" transform="translate(1143.084 1824.469)"/><circle class="by" cx="1.398" cy="1.398" r="1.398" transform="translate(1143.101 1824.485)"/><circle class="bz" cx="1.381" cy="1.381" r="1.381" transform="translate(1143.118 1824.502)"/><circle class="ca" cx="1.364" cy="1.364" r="1.364" transform="translate(1143.135 1824.519)"/><circle class="cb" cx="1.347" cy="1.347" r="1.347" transform="translate(1143.151 1824.536)"/><circle class="cc" cx="1.331" cy="1.331" r="1.331" transform="translate(1143.168 1824.553)"/><circle class="cd" cx="1.314" cy="1.314" r="1.314" transform="translate(1143.185 1824.57)"/><circle class="ce" cx="1.297" cy="1.297" r="1.297" transform="translate(1143.202 1824.586)"/><circle class="cf" cx="1.28" cy="1.28" r="1.28" transform="translate(1143.219 1824.603)"/><circle class="cg" cx="1.263" cy="1.263" r="1.263" transform="translate(1143.236 1824.62)"/><circle class="ch" cx="1.246" cy="1.246" r="1.246" transform="translate(1143.252 1824.637)"/><circle class="ci" cx="1.23" cy="1.23" r="1.23" transform="translate(1143.269 1824.654)"/><circle class="cj" cx="1.213" cy="1.213" r="1.213" transform="translate(1143.286 1824.671)"/><circle class="ck" cx="1.196" cy="1.196" r="1.196" transform="translate(1143.303 1824.688)"/><circle class="cl" cx="1.179" cy="1.179" r="1.179" transform="translate(1143.32 1824.704)"/><circle class="cm" cx="1.162" cy="1.162" r="1.162" transform="translate(1143.337 1824.721)"/><circle class="cn" cx="1.145" cy="1.145" r="1.145" transform="translate(1143.354 1824.738)"/><circle class="co" cx="1.128" cy="1.128" r="1.128" transform="translate(1143.37 1824.755)"/><circle class="cp" cx="1.112" cy="1.112" r="1.112" transform="translate(1143.387 1824.772)"/><circle class="cq" cx="1.095" cy="1.095" r="1.095" transform="translate(1143.404 1824.789)"/><circle class="cr" cx="1.078" cy="1.078" r="1.078" transform="translate(1143.421 1824.805)"/><circle class="cs" cx="1.061" cy="1.061" r="1.061" transform="translate(1143.438 1824.822)"/><circle class="ct" cx="1.044" cy="1.044" r="1.044" transform="translate(1143.455 1824.839)"/><circle class="cu" cx="1.027" cy="1.027" r="1.027" transform="translate(1143.471 1824.856)"/><circle class="cv" cx="1.011" cy="1.011" r="1.011" transform="translate(1143.488 1824.873)"/><circle class="cw" cx="0.994" cy="0.994" r="0.994" transform="translate(1143.505 1824.89)"/><circle class="cx" cx="0.977" cy="0.977" r="0.977" transform="translate(1143.522 1824.906)"/><circle class="cy" cx="0.96" cy="0.96" r="0.96" transform="translate(1143.539 1824.923)"/><circle class="cz" cx="0.943" cy="0.943" r="0.943" transform="translate(1143.556 1824.94)"/><circle class="da" cx="0.926" cy="0.926" r="0.926" transform="translate(1143.573 1824.957)"/><circle class="db" cx="0.91" cy="0.91" r="0.91" transform="translate(1143.589 1824.974)"/><circle class="dc" cx="0.893" cy="0.893" r="0.893" transform="translate(1143.606 1824.991)"/><circle class="dd" cx="0.876" cy="0.876" r="0.876" transform="translate(1143.623 1825.007)"/><circle class="de" cx="0.859" cy="0.859" r="0.859" transform="translate(1143.64 1825.024)"/><circle class="df" cx="0.842" cy="0.842" r="0.842" transform="translate(1143.657 1825.041)"/><circle class="dg" cx="0.825" cy="0.825" r="0.825" transform="translate(1143.673 1825.058)"/><circle class="dh" cx="0.808" cy="0.808" r="0.808" transform="translate(1143.69 1825.075)"/><circle class="di" cx="0.792" cy="0.792" r="0.792" transform="translate(1143.707 1825.092)"/><circle class="dj" cx="0.775" cy="0.775" r="0.775" transform="translate(1143.724 1825.109)"/><circle class="dk" cx="0.758" cy="0.758" r="0.758" transform="translate(1143.741 1825.125)"/><circle class="dl" cx="0.741" cy="0.741" r="0.741" transform="translate(1143.758 1825.142)"/><circle class="dm" cx="0.724" cy="0.724" r="0.724" transform="translate(1143.775 1825.159)"/><circle class="dn" cx="0.707" cy="0.707" r="0.707" transform="translate(1143.791 1825.176)"/><circle class="do" cx="0.691" cy="0.691" r="0.691" transform="translate(1143.808 1825.193)"/><circle class="dp" cx="0.674" cy="0.674" r="0.674" transform="translate(1143.825 1825.21)"/><circle class="dq" cx="0.657" cy="0.657" r="0.657" transform="translate(1143.842 1825.226)"/><circle class="dr" cx="0.64" cy="0.64" r="0.64" transform="translate(1143.859 1825.243)"/><circle class="ds" cx="0.623" cy="0.623" r="0.623" transform="translate(1143.876 1825.26)"/><circle class="dt" cx="0.606" cy="0.606" r="0.606" transform="translate(1143.892 1825.277)"/><circle class="du" cx="0.59" cy="0.59" r="0.59" transform="translate(1143.909 1825.294)"/><circle class="dv" cx="0.573" cy="0.573" r="0.573" transform="translate(1143.926 1825.311)"/><circle class="dw" cx="0.556" cy="0.556" r="0.556" transform="translate(1143.943 1825.328)"/><circle class="dx" cx="0.539" cy="0.539" r="0.539" transform="translate(1143.96 1825.344)"/><circle class="dy" cx="0.522" cy="0.522" r="0.522" transform="translate(1143.977 1825.361)"/><circle class="dz" cx="0.505" cy="0.505" r="0.505" transform="translate(1143.994 1825.378)"/><circle class="ea" cx="0.488" cy="0.488" r="0.488" transform="translate(1144.01 1825.395)"/><circle class="eb" cx="0.472" cy="0.472" r="0.472" transform="translate(1144.027 1825.412)"/><circle class="ec" cx="0.455" cy="0.455" r="0.455" transform="translate(1144.044 1825.429)"/><circle class="ed" cx="0.438" cy="0.438" r="0.438" transform="translate(1144.061 1825.445)"/><circle class="ee" cx="0.421" cy="0.421" r="0.421" transform="translate(1144.078 1825.462)"/><circle class="ef" cx="0.404" cy="0.404" r="0.404" transform="translate(1144.095 1825.479)"/><circle class="eg" cx="0.387" cy="0.387" r="0.387" transform="translate(1144.111 1825.496)"/><circle class="eh" cx="0.371" cy="0.371" r="0.371" transform="translate(1144.128 1825.513)"/><circle class="ei" cx="0.354" cy="0.354" r="0.354" transform="translate(1144.145 1825.53)"/><circle class="ej" cx="0.337" cy="0.337" r="0.337" transform="translate(1144.162 1825.547)"/><circle class="ek" cx="0.32" cy="0.32" r="0.32" transform="translate(1144.179 1825.563)"/><circle class="el" cx="0.303" cy="0.303" r="0.303" transform="translate(1144.196 1825.58)"/><circle class="em" cx="0.286" cy="0.286" r="0.286" transform="translate(1144.213 1825.597)"/><circle class="en" cx="0.269" cy="0.269" r="0.269" transform="translate(1144.229 1825.614)"/><circle class="eo" cx="0.253" cy="0.253" r="0.253" transform="translate(1144.246 1825.631)"/><circle class="ep" cx="0.236" cy="0.236" r="0.236" transform="translate(1144.263 1825.648)"/><circle class="eq" cx="0.219" cy="0.219" r="0.219" transform="translate(1144.28 1825.664)"/><circle class="er" cx="0.202" cy="0.202" r="0.202" transform="translate(1144.297 1825.681)"/><circle class="es" cx="0.185" cy="0.185" r="0.185" transform="translate(1144.314 1825.698)"/><circle class="et" cx="0.168" cy="0.168" r="0.168" transform="translate(1144.33 1825.715)"/><circle class="eu" cx="0.152" cy="0.152" r="0.152" transform="translate(1144.347 1825.732)"/><circle class="ev" cx="0.135" cy="0.135" r="0.135" transform="translate(1144.364 1825.749)"/><circle class="ew" cx="0.118" cy="0.118" r="0.118" transform="translate(1144.381 1825.765)"/><circle class="ex" cx="0.101" cy="0.101" r="0.101" transform="translate(1144.398 1825.782)"/><circle class="ey" cx="0.084" cy="0.084" r="0.084" transform="translate(1144.415 1825.799)"/><circle class="ez" cx="0.067" cy="0.067" r="0.067" transform="translate(1144.431 1825.816)"/><circle class="fa" cx="0.051" cy="0.051" r="0.051" transform="translate(1144.448 1825.833)"/><circle class="fb" cx="0.034" cy="0.034" r="0.034" transform="translate(1144.465 1825.85)"/><path class="fc" d="M1144.516,1825.883a.017.017,0,1,0-.034,0,.017.017,0,0,0,.034,0Z"/></g></g><g class="m"><g class="fd"><rect class="j" width="6.636" height="6.636" transform="translate(1132.689 1824.74)"/><circle class="j" cx="2.46" cy="2.46" r="2.46" transform="translate(1133.548 1825.599)"/><circle class="o" cx="2.443" cy="2.443" r="2.443" transform="translate(1133.565 1825.616)"/><circle class="p" cx="2.426" cy="2.426" r="2.426" transform="translate(1133.581 1825.632)"/><circle class="q" cx="2.409" cy="2.409" r="2.409" transform="translate(1133.598 1825.649)"/><circle class="r" cx="2.392" cy="2.392" r="2.392" transform="translate(1133.615 1825.666)"/><circle class="s" cx="2.375" cy="2.375" r="2.375" transform="translate(1133.632 1825.683)"/><circle class="t" cx="2.359" cy="2.359" r="2.359" transform="translate(1133.649 1825.7)"/><circle class="u" cx="2.342" cy="2.342" r="2.342" transform="translate(1133.666 1825.717)"/><circle class="v" cx="2.325" cy="2.325" r="2.325" transform="translate(1133.682 1825.734)"/><circle class="w" cx="2.308" cy="2.308" r="2.308" transform="translate(1133.699 1825.75)"/><circle class="x" cx="2.291" cy="2.291" r="2.291" transform="translate(1133.716 1825.767)"/><circle class="y" cx="2.274" cy="2.274" r="2.274" transform="translate(1133.733 1825.784)"/><circle class="z" cx="2.258" cy="2.258" r="2.258" transform="translate(1133.75 1825.801)"/><circle class="aa" cx="2.241" cy="2.241" r="2.241" transform="translate(1133.767 1825.818)"/><circle class="ab" cx="2.224" cy="2.224" r="2.224" transform="translate(1133.784 1825.835)"/><circle class="ac" cx="2.207" cy="2.207" r="2.207" transform="translate(1133.801 1825.851)"/><circle class="ad" cx="2.19" cy="2.19" r="2.19" transform="translate(1133.817 1825.868)"/><circle class="ae" cx="2.173" cy="2.173" r="2.173" transform="translate(1133.834 1825.885)"/><circle class="af" cx="2.156" cy="2.156" r="2.156" transform="translate(1133.851 1825.902)"/><circle class="ag" cx="2.14" cy="2.14" r="2.14" transform="translate(1133.868 1825.919)"/><circle class="ah" cx="2.123" cy="2.123" r="2.123" transform="translate(1133.885 1825.936)"/><circle class="ai" cx="2.106" cy="2.106" r="2.106" transform="translate(1133.902 1825.953)"/><circle class="aj" cx="2.089" cy="2.089" r="2.089" transform="translate(1133.918 1825.969)"/><circle class="ak" cx="2.072" cy="2.072" r="2.072" transform="translate(1133.935 1825.986)"/><circle class="al" cx="2.055" cy="2.055" r="2.055" transform="translate(1133.952 1826.003)"/><circle class="am" cx="2.039" cy="2.039" r="2.039" transform="translate(1133.969 1826.02)"/><circle class="an" cx="2.022" cy="2.022" r="2.022" transform="translate(1133.986 1826.037)"/><circle class="ao" cx="2.005" cy="2.005" r="2.005" transform="translate(1134.003 1826.054)"/><circle class="ap" cx="1.988" cy="1.988" r="1.988" transform="translate(1134.02 1826.071)"/><circle class="aq" cx="1.971" cy="1.971" r="1.971" transform="translate(1134.036 1826.087)"/><circle class="ar" cx="1.954" cy="1.954" r="1.954" transform="translate(1134.053 1826.104)"/><circle class="as" cx="1.937" cy="1.937" r="1.937" transform="translate(1134.07 1826.121)"/><circle class="at" cx="1.921" cy="1.921" r="1.921" transform="translate(1134.087 1826.138)"/><circle class="au" cx="1.904" cy="1.904" r="1.904" transform="translate(1134.104 1826.155)"/><circle class="av" cx="1.887" cy="1.887" r="1.887" transform="translate(1134.121 1826.172)"/><circle class="aw" cx="1.87" cy="1.87" r="1.87" transform="translate(1134.137 1826.188)"/><circle class="ax" cx="1.853" cy="1.853" r="1.853" transform="translate(1134.154 1826.205)"/><circle class="ay" cx="1.836" cy="1.836" r="1.836" transform="translate(1134.171 1826.222)"/><circle class="az" cx="1.82" cy="1.82" r="1.82" transform="translate(1134.188 1826.239)"/><circle class="ba" cx="1.803" cy="1.803" r="1.803" transform="translate(1134.205 1826.256)"/><circle class="bb" cx="1.786" cy="1.786" r="1.786" transform="translate(1134.222 1826.273)"/><circle class="bc" cx="1.769" cy="1.769" r="1.769" transform="translate(1134.239 1826.29)"/><circle class="bd" cx="1.752" cy="1.752" r="1.752" transform="translate(1134.255 1826.306)"/><circle class="be" cx="1.735" cy="1.735" r="1.735" transform="translate(1134.272 1826.323)"/><circle class="bf" cx="1.718" cy="1.718" r="1.718" transform="translate(1134.289 1826.34)"/><circle class="bg" cx="1.702" cy="1.702" r="1.702" transform="translate(1134.306 1826.357)"/><circle class="bh" cx="1.685" cy="1.685" r="1.685" transform="translate(1134.323 1826.374)"/><circle class="bi" cx="1.668" cy="1.668" r="1.668" transform="translate(1134.34 1826.391)"/><circle class="bj" cx="1.651" cy="1.651" r="1.651" transform="translate(1134.356 1826.407)"/><circle class="bk" cx="1.634" cy="1.634" r="1.634" transform="translate(1134.373 1826.424)"/><circle class="bl" cx="1.617" cy="1.617" r="1.617" transform="translate(1134.39 1826.441)"/><circle class="bm" cx="1.601" cy="1.601" r="1.601" transform="translate(1134.407 1826.458)"/><circle class="bn" cx="1.584" cy="1.584" r="1.584" transform="translate(1134.424 1826.475)"/><circle class="bo" cx="1.567" cy="1.567" r="1.567" transform="translate(1134.441 1826.492)"/><circle class="bp" cx="1.55" cy="1.55" r="1.55" transform="translate(1134.458 1826.509)"/><circle class="bq" cx="1.533" cy="1.533" r="1.533" transform="translate(1134.474 1826.525)"/><circle class="br" cx="1.516" cy="1.516" r="1.516" transform="translate(1134.491 1826.542)"/><circle class="bs" cx="1.499" cy="1.499" r="1.499" transform="translate(1134.508 1826.559)"/><circle class="bt" cx="1.483" cy="1.483" r="1.483" transform="translate(1134.525 1826.576)"/><circle class="bu" cx="1.466" cy="1.466" r="1.466" transform="translate(1134.542 1826.593)"/><circle class="bv" cx="1.449" cy="1.449" r="1.449" transform="translate(1134.559 1826.61)"/><circle class="bw" cx="1.432" cy="1.432" r="1.432" transform="translate(1134.575 1826.626)"/><circle class="bx" cx="1.415" cy="1.415" r="1.415" transform="translate(1134.592 1826.643)"/><circle class="by" cx="1.398" cy="1.398" r="1.398" transform="translate(1134.609 1826.66)"/><circle class="bz" cx="1.381" cy="1.381" r="1.381" transform="translate(1134.626 1826.677)"/><circle class="ca" cx="1.365" cy="1.365" r="1.365" transform="translate(1134.643 1826.694)"/><circle class="cb" cx="1.348" cy="1.348" r="1.348" transform="translate(1134.66 1826.711)"/><circle class="cc" cx="1.331" cy="1.331" r="1.331" transform="translate(1134.677 1826.728)"/><circle class="cd" cx="1.314" cy="1.314" r="1.314" transform="translate(1134.693 1826.744)"/><circle class="ce" cx="1.297" cy="1.297" r="1.297" transform="translate(1134.71 1826.761)"/><circle class="cf" cx="1.28" cy="1.28" r="1.28" transform="translate(1134.727 1826.778)"/><circle class="cg" cx="1.264" cy="1.264" r="1.264" transform="translate(1134.744 1826.795)"/><circle class="ch" cx="1.247" cy="1.247" r="1.247" transform="translate(1134.761 1826.812)"/><circle class="ci" cx="1.23" cy="1.23" r="1.23" transform="translate(1134.778 1826.829)"/><circle class="cj" cx="1.213" cy="1.213" r="1.213" transform="translate(1134.794 1826.845)"/><circle class="ck" cx="1.196" cy="1.196" r="1.196" transform="translate(1134.811 1826.862)"/><circle class="cl" cx="1.179" cy="1.179" r="1.179" transform="translate(1134.828 1826.879)"/><circle class="cm" cx="1.162" cy="1.162" r="1.162" transform="translate(1134.845 1826.896)"/><circle class="cn" cx="1.146" cy="1.146" r="1.146" transform="translate(1134.862 1826.913)"/><circle class="co" cx="1.129" cy="1.129" r="1.129" transform="translate(1134.879 1826.93)"/><circle class="cp" cx="1.112" cy="1.112" r="1.112" transform="translate(1134.896 1826.947)"/><circle class="cq" cx="1.095" cy="1.095" r="1.095" transform="translate(1134.912 1826.963)"/><circle class="cr" cx="1.078" cy="1.078" r="1.078" transform="translate(1134.929 1826.98)"/><circle class="cs" cx="1.061" cy="1.061" r="1.061" transform="translate(1134.946 1826.997)"/><circle class="ct" cx="1.045" cy="1.045" r="1.045" transform="translate(1134.963 1827.014)"/><circle class="cu" cx="1.028" cy="1.028" r="1.028" transform="translate(1134.98 1827.031)"/><circle class="cv" cx="1.011" cy="1.011" r="1.011" transform="translate(1134.997 1827.048)"/><circle class="cw" cx="0.994" cy="0.994" r="0.994" transform="translate(1135.014 1827.064)"/><circle class="cx" cx="0.977" cy="0.977" r="0.977" transform="translate(1135.03 1827.081)"/><circle class="cy" cx="0.96" cy="0.96" r="0.96" transform="translate(1135.047 1827.098)"/><circle class="cz" cx="0.943" cy="0.943" r="0.943" transform="translate(1135.064 1827.115)"/><circle class="da" cx="0.927" cy="0.927" r="0.927" transform="translate(1135.081 1827.132)"/><circle class="db" cx="0.91" cy="0.91" r="0.91" transform="translate(1135.098 1827.149)"/><circle class="dc" cx="0.893" cy="0.893" r="0.893" transform="translate(1135.115 1827.166)"/><circle class="dd" cx="0.876" cy="0.876" r="0.876" transform="translate(1135.131 1827.182)"/><circle class="de" cx="0.859" cy="0.859" r="0.859" transform="translate(1135.148 1827.199)"/><circle class="df" cx="0.842" cy="0.842" r="0.842" transform="translate(1135.165 1827.216)"/><circle class="dg" cx="0.826" cy="0.826" r="0.826" transform="translate(1135.182 1827.233)"/><circle class="dh" cx="0.809" cy="0.809" r="0.809" transform="translate(1135.199 1827.25)"/><circle class="di" cx="0.792" cy="0.792" r="0.792" transform="translate(1135.216 1827.267)"/><circle class="dj" cx="0.775" cy="0.775" r="0.775" transform="translate(1135.233 1827.284)"/><circle class="dk" cx="0.758" cy="0.758" r="0.758" transform="translate(1135.249 1827.3)"/><circle class="dl" cx="0.741" cy="0.741" r="0.741" transform="translate(1135.266 1827.317)"/><circle class="dm" cx="0.724" cy="0.724" r="0.724" transform="translate(1135.283 1827.334)"/><circle class="dn" cx="0.708" cy="0.708" r="0.708" transform="translate(1135.3 1827.351)"/><circle class="do" cx="0.691" cy="0.691" r="0.691" transform="translate(1135.317 1827.368)"/><circle class="dp" cx="0.674" cy="0.674" r="0.674" transform="translate(1135.334 1827.385)"/><circle class="dq" cx="0.657" cy="0.657" r="0.657" transform="translate(1135.35 1827.401)"/><circle class="dr" cx="0.64" cy="0.64" r="0.64" transform="translate(1135.367 1827.418)"/><circle class="ds" cx="0.623" cy="0.623" r="0.623" transform="translate(1135.384 1827.435)"/><circle class="dt" cx="0.607" cy="0.607" r="0.607" transform="translate(1135.401 1827.452)"/><circle class="du" cx="0.59" cy="0.59" r="0.59" transform="translate(1135.418 1827.469)"/><circle class="dv" cx="0.573" cy="0.573" r="0.573" transform="translate(1135.435 1827.486)"/><circle class="dw" cx="0.556" cy="0.556" r="0.556" transform="translate(1135.452 1827.503)"/><circle class="dx" cx="0.539" cy="0.539" r="0.539" transform="translate(1135.468 1827.519)"/><circle class="dy" cx="0.522" cy="0.522" r="0.522" transform="translate(1135.485 1827.536)"/><circle class="dz" cx="0.505" cy="0.505" r="0.505" transform="translate(1135.502 1827.553)"/><circle class="ea" cx="0.489" cy="0.489" r="0.489" transform="translate(1135.519 1827.57)"/><circle class="eb" cx="0.472" cy="0.472" r="0.472" transform="translate(1135.536 1827.587)"/><circle class="ec" cx="0.455" cy="0.455" r="0.455" transform="translate(1135.553 1827.604)"/><circle class="ed" cx="0.438" cy="0.438" r="0.438" transform="translate(1135.569 1827.62)"/><circle class="ee" cx="0.421" cy="0.421" r="0.421" transform="translate(1135.586 1827.637)"/><circle class="ef" cx="0.404" cy="0.404" r="0.404" transform="translate(1135.603 1827.654)"/><circle class="eg" cx="0.387" cy="0.387" r="0.387" transform="translate(1135.62 1827.671)"/><circle class="eh" cx="0.371" cy="0.371" r="0.371" transform="translate(1135.637 1827.688)"/><circle class="ei" cx="0.354" cy="0.354" r="0.354" transform="translate(1135.654 1827.705)"/><circle class="ej" cx="0.337" cy="0.337" r="0.337" transform="translate(1135.671 1827.722)"/><circle class="ek" cx="0.32" cy="0.32" r="0.32" transform="translate(1135.687 1827.738)"/><circle class="el" cx="0.303" cy="0.303" r="0.303" transform="translate(1135.704 1827.755)"/><circle class="em" cx="0.286" cy="0.286" r="0.286" transform="translate(1135.721 1827.772)"/><circle class="en" cx="0.27" cy="0.27" r="0.27" transform="translate(1135.738 1827.789)"/><circle class="eo" cx="0.253" cy="0.253" r="0.253" transform="translate(1135.755 1827.806)"/><circle class="ep" cx="0.236" cy="0.236" r="0.236" transform="translate(1135.772 1827.823)"/><circle class="eq" cx="0.219" cy="0.219" r="0.219" transform="translate(1135.788 1827.839)"/><circle class="er" cx="0.202" cy="0.202" r="0.202" transform="translate(1135.805 1827.856)"/><circle class="es" cx="0.185" cy="0.185" r="0.185" transform="translate(1135.822 1827.873)"/><circle class="et" cx="0.168" cy="0.168" r="0.168" transform="translate(1135.839 1827.89)"/><circle class="eu" cx="0.152" cy="0.152" r="0.152" transform="translate(1135.856 1827.907)"/><circle class="ev" cx="0.135" cy="0.135" r="0.135" transform="translate(1135.873 1827.924)"/><circle class="ew" cx="0.118" cy="0.118" r="0.118" transform="translate(1135.89 1827.941)"/><circle class="ex" cx="0.101" cy="0.101" r="0.101" transform="translate(1135.906 1827.957)"/><circle class="ey" cx="0.084" cy="0.084" r="0.084" transform="translate(1135.923 1827.974)"/><circle class="ez" cx="0.067" cy="0.067" r="0.067" transform="translate(1135.94 1827.991)"/><circle class="fa" cx="0.051" cy="0.051" r="0.051" transform="translate(1135.957 1828.008)"/><path class="fb" d="M1136.041,1828.059a.034.034,0,1,0-.067,0,.034.034,0,0,0,.067,0Z"/><path class="fc" d="M1136.024,1828.059a.016.016,0,0,0-.017-.017.016.016,0,0,0-.016.017.016.016,0,0,0,.016.016A.016.016,0,0,0,1136.024,1828.059Z"/></g></g><path class="k" d="M1140.925,1824.948a.374.374,0,0,1-.36-.271,2.01,2.01,0,0,1,3.863-1.116.375.375,0,1,1-.721.208,1.26,1.26,0,0,0-2.421.7.375.375,0,0,1-.256.465h0A.342.342,0,0,1,1140.925,1824.948Z"/><path class="k" d="M1135.139,1826.532a.374.374,0,0,1-.361-.271,2.01,2.01,0,0,1,3.863-1.116.375.375,0,1,1-.721.208,1.26,1.26,0,1,0-2.438.638c.005.021.011.042.018.062a.376.376,0,0,1-.256.465A.342.342,0,0,1,1135.139,1826.532Z"/><path class="k" d="M1139.753,1829.6a3.971,3.971,0,0,1-2.538-.91.375.375,0,1,1,.48-.577h0a3.213,3.213,0,0,0,2.058.736,3.11,3.11,0,0,0,3.037-2.251.375.375,0,0,1,.725.194A3.863,3.863,0,0,1,1139.753,1829.6Z"/></g></g></svg>