<svg xmlns="http://www.w3.org/2000/svg" xmlns:xlink="http://www.w3.org/1999/xlink" width="670.375" height="413.381" viewBox="0 0 670.375 413.381"><defs><style>.a,.h,.j,.k{fill:none;}.b,.c{fill:#fff;}.c{fill-rule:evenodd;}.d{fill:#ffd508;}.e{fill:#ea0c90;}.f{fill:#f6f8fb;}.g{clip-path:url(#a);}.h,.j,.k{stroke:#fff;stroke-miterlimit:10;}.h{stroke-width:1.327px;}.i{clip-path:url(#b);}.j{stroke-width:1.119px;}.k{stroke-width:3.072px;}.l{fill:#036dc4;}.m{fill:#fdfdfd;}.n{fill:#ffde6e;}.o{fill:#102236;}.p{fill:#ff3c6e;}.q,.r{opacity:0.5;}.q{fill:url(#c);}.r{fill:url(#d);}</style><clipPath id="a"><path class="a" d="M1401.082,1584.021l-51.589,59.464,87.144,13.208Z" transform="translate(-1349.493 -1584.021)"/></clipPath><clipPath id="b"><circle class="a" cx="35.35" cy="35.35" r="35.35" transform="matrix(0.987, -0.159, 0.159, 0.987, 0, 11.229)"/></clipPath><radialGradient id="c" cx="0.5" cy="0.5" r="0.5" gradientTransform="translate(0)" gradientUnits="objectBoundingBox"><stop offset="0" stop-color="#ff4c41"/><stop offset="0.841" stop-color="#ffde6e"/></radialGradient><radialGradient id="d" cx="0.5" cy="0.5" r="0.5" gradientTransform="translate(0.227 -0.152) rotate(22.294)" xlink:href="#c"/></defs><g transform="translate(-692.136 -101.44)"><g transform="translate(1879.04 -3413.268)"><g transform="translate(-1175.04 3565.44)"><g transform="translate(0 106.158)"><g transform="translate(36.279 35.949)"><g transform="translate(57.128 7.183)"><path class="b" d="M-960.494,3829.54c-7.536.009-12.877,5.439-12.9,14.253a12.84,12.84,0,0,0,12.951,13.02c3.894,0,6.313-.607,7.721-1.76v-4.459a14.927,14.927,0,0,1-6.476,1.3c-4.033.012-7.277-2.194-7.805-5.733l-.045-.314h4.709c4.43,0,7.55-.4,9.519-1.374a4.837,4.837,0,0,0,2.825-4.848c0-6.227-5.035-10.076-10.5-10.084m3.069,11.55a21.443,21.443,0,0,1-6.36.592h-3.285l.018-.284.049-.9a6,6,0,0,1,5.914-5.955,6.408,6.408,0,0,1,3.87,1.061,3.856,3.856,0,0,1,1.492,3.221,2.2,2.2,0,0,1-1.7,2.262m10.675-1.382,0,16.648h6.18V3840.9a6.829,6.829,0,0,1,1.258-4.551,4.554,4.554,0,0,1,3.656-1.425,10.049,10.049,0,0,1,1.681.135v-4.9a6.873,6.873,0,0,0-3.128-.643c-6.924.01-9.627,4.916-9.651,10.182m-81.3,16.648h6.172v-33.536h-6.172Zm22.815-26.815c-8.237.009-11.829,5.641-11.85,11.176v15.64h6.137v-15.189a7.025,7.025,0,0,1,1.423-4.608,4.738,4.738,0,0,1,3.742-1.663,5.337,5.337,0,0,1,4.216,1.643,7.575,7.575,0,0,1,1.5,5.119l0,14.7h6.128v-15.286c-.014-7.447-5.086-11.514-11.3-11.529m22.144-6.721H-989.2l.02,24.2c.034,6.141,3.126,9.761,9.8,9.795,2.835-.007,4.539-.927,5.241-2.4V3850.6a11.269,11.269,0,0,1-4.441.7,4.388,4.388,0,0,1-3.336-1.192,5.5,5.5,0,0,1-1.181-3.891v-11.325h5.349c2.615,0,3.708-1.668,3.72-2.9v-2.452h-9.069Z" transform="translate(1028.05 -3822.819)"/><g transform="translate(118.612 6.721)"><path class="b" d="M-820.827,3848.328a4.835,4.835,0,0,0,2.826-4.848c0-6.227-5.034-10.075-10.5-10.084-7.538.009-12.882,5.439-12.9,14.252a12.839,12.839,0,0,0,12.945,13.02c3.9,0,6.32-.607,7.727-1.76v-4.459a14.947,14.947,0,0,1-6.477,1.3c-4.035.012-7.279-2.194-7.807-5.733l-.044-.315h4.709c4.425,0,7.555-.4,9.516-1.374m-14.248-2.791.022-.284.044-.9a6,6,0,0,1,5.907-5.955,6.39,6.39,0,0,1,3.876,1.061,3.829,3.829,0,0,1,1.494,3.221,2.2,2.2,0,0,1-1.7,2.262,21.433,21.433,0,0,1-6.361.592Z" transform="translate(841.396 -3833.396)"/></g><g transform="translate(198.823 6.706)"><path class="b" d="M-715.171,3843.554V3860.2h6.187V3844.75a6.827,6.827,0,0,1,1.26-4.551,4.559,4.559,0,0,1,3.656-1.424,9.961,9.961,0,0,1,1.681.135v-4.9a6.881,6.881,0,0,0-3.132-.643c-6.92.01-9.624,4.916-9.653,10.182" transform="translate(715.171 -3833.372)"/></g><g transform="translate(96.758 6.608)"><path class="b" d="M-867.187,3860.5c-4.51,0-7.875-2.464-7.875-5.124v-2.954h.227c1.326,1.306,4.461,2.47,7.366,2.47,3,0,4.458-.92,4.458-2.859,0-1.5-.864-2.219-5.1-2.852-5.178-.773-7.675-2.951-7.675-6.916,0-4.889,4.131-9.047,10.408-9.047,5.559,0,7.826,3.045,7.826,5.562v2.465h-.227c-1.277-1.352-4.091-2.412-7-2.412-3.733,0-4.912,1.2-4.912,2.9,0,1.308.729,1.84,4.912,2.563,5.084.873,7.818,3.241,7.818,7.4,0,5.515-3.639,8.8-10.223,8.8" transform="translate(875.786 -3833.217)"/></g><g transform="translate(144.782 6.684)"><path class="b" d="M-777.663,3852.739c.044,1.063.1,2.467.1,3.336,0,6.53-4.094,12.384-12.008,12.384-5.051,0-8.506-2.609-8.506-5.707V3859.8h.271c1.462,1.643,4.273,2.805,7.783,2.805,4.4,0,6.4-2.223,6.4-6,0-.383,0-.917-.042-1.357,0-.382-.043-1.062-.043-1.3v-.626c-.5,1.883-2.821,3.865-6.318,3.865-5.963,0-10.189-4.4-10.189-10.549,0-7.352,4.54-13.3,12.454-13.3,6.1,0,10,4.742,10,11.42v4.45c0,.871.044,2.368.091,3.532m-16.326-6.916c0,3.42,1.969,5.961,4.915,5.961,3.075,0,5.281-2.443,5.281-6.645,0-4.1-1.936-6.111-4.635-6.111-3.167,0-5.561,2.837-5.561,6.794" transform="translate(800.213 -3833.337)"/></g><g transform="translate(213.006 6.608)"><path class="b" d="M-680.435,3833.217c7.528,0,11.858,6.287,11.858,13.208,0,7.835-4.331,14.073-12.419,14.073-7.53,0-11.857-6.238-11.857-13.156,0-7.839,4.328-14.125,12.418-14.125m-.564,5.475c-3.728,0-5.625,3.226-5.625,7.714,0,5.39,1.9,8.621,6.2,8.621,3.779,0,5.623-3.231,5.623-7.667,0-5.442-1.941-8.668-6.2-8.668" transform="translate(692.852 -3833.217)"/></g><g transform="translate(171.531 7.161)"><path class="b" d="M-746.856,3861c8.208-.012,11.791-5.66,11.808-11.216V3834.09h-6.111v15.246a7.082,7.082,0,0,1-1.422,4.618,4.707,4.707,0,0,1-3.727,1.673,5.3,5.3,0,0,1-4.206-1.653,7.631,7.631,0,0,1-1.492-5.138l-.005-14.748h-6.109v15.342c.013,7.476,5.062,11.551,11.263,11.567" transform="translate(758.119 -3834.088)"/></g></g><path class="c" d="M-1111.555,3811.515a6.4,6.4,0,0,0-6.395,6.4V3859.4h41.494a6.4,6.4,0,0,0,6.4-6.4l.005-41.487Zm30.312,34.562-25.521,4.611v-25.761l25.521-4.612Z" transform="translate(1117.95 -3811.515)"/></g></g><g transform="translate(18.05)"><g transform="translate(17.024 13)"><path class="b" d="M-1068.2,3678.731v14.644c0,17.636-8.818,27.714-25.823,27.714s-25.824-10.078-25.824-27.714v-57.317c0-17.636,8.818-27.714,25.824-27.714s25.823,10.078,25.823,27.714v10.707h-16.376v-11.809c0-7.874-3.464-10.865-8.976-10.865s-8.975,2.991-8.975,10.865v59.521c0,7.873,3.465,10.707,8.975,10.707s8.976-2.833,8.976-10.707v-15.747Z" transform="translate(1119.847 -3608.345)"/><g transform="translate(54.799 1.26)"><path class="b" d="M-1011.726,3684.021l-21.887-73.693h18.108l13.227,50.231,13.227-50.231h16.534l-21.888,73.693v36.532h-17.321Z" transform="translate(1033.613 -3610.328)"/></g><g transform="translate(122.823 1.26)"><path class="b" d="M-874.76,3635.68v3.937c0,11.338-3.465,18.581-11.18,22.2,9.29,3.621,12.913,11.968,12.913,23.62v8.975c0,17.007-8.976,26.14-26.3,26.14h-27.241V3610.328h26.139C-882.476,3610.328-874.76,3618.674-874.76,3635.68Zm-34.485-9.606v29.131h6.772c6.456,0,10.393-2.834,10.393-11.652v-6.141c0-7.873-2.677-11.337-8.818-11.337Zm0,44.878v33.854h9.92c5.827,0,8.975-2.677,8.975-10.865v-9.6c0-10.235-3.306-13.384-11.18-13.384Z" transform="translate(926.566 -3610.328)"/></g><g transform="translate(186.752 1.26)"><path class="b" d="M-808.642,3656.78h23.777v15.746h-23.777v32.28h29.918v15.747h-47.238V3610.328h47.238v15.746h-29.918Z" transform="translate(825.963 -3610.328)"/></g><g transform="translate(244.7 1.26)"><path class="b" d="M-698.557,3720.553c-.945-2.834-1.574-4.567-1.574-13.542V3689.69c0-10.236-3.465-14.014-11.339-14.014h-5.984v44.877h-17.321V3610.328h26.139c17.951,0,25.667,8.345,25.667,25.352v8.66c0,11.338-3.621,18.739-11.338,22.36,8.661,3.622,11.5,11.968,11.5,23.462v17.006c0,5.354.158,9.29,1.889,13.385Zm-18.9-94.479v33.855h6.771c6.456,0,10.393-2.834,10.393-11.652v-10.865c0-7.873-2.677-11.337-8.818-11.337Z" transform="translate(734.774 -3610.328)"/></g></g></g></g><g transform="translate(-1070.654 3526.309)"><g transform="translate(214.55 0)"><circle class="d" cx="120.058" cy="120.058" r="120.058" transform="translate(0 169.788) rotate(-45)"/></g><g transform="translate(0 245.987)"><path class="e" d="M-799.836,3961.334H-988.8c-12.135,0-21.971-10.729-21.971-23.963h0c0-13.233,9.836-23.962,21.971-23.962h188.965c12.134,0,21.971,10.729,21.971,23.963h0C-777.865,3950.605-787.7,3961.334-799.836,3961.334Z" transform="translate(1010.772 -3913.408)"/></g><g transform="translate(279.991 118.256)"><path class="e" d="M-530.6,3712.4h-8.1l-.126.806c-1.106,7.115-6.513,11.9-13.453,11.9a14.858,14.858,0,0,1-9.745-3.525l-.159-.1c-.495-.247-1.127-.116-1.988.416-2.227,1.376-6,5.513-6,12.291,0,8.7,6.811,15.01,16.195,15.01a17.351,17.351,0,0,0,8.7-2.267v66.854c0,8.04,4.127,12.469,11.623,12.469h3.05c3.894,0,6.9-1.075,8.922-3.194s3.038-5.229,3.038-9.274v-88.912C-518.636,3716.716-522.772,3712.4-530.6,3712.4Z" transform="translate(570.163 -3712.405)"/><path class="e" d="M-419.33,3755.084a57,57,0,0,0-19.031,3.323V3736.5h43.249c8.5,0,12.638-3.469,12.638-10.606v-.847c0-7.151-4.252-10.776-12.638-10.776H-448.29c-8.368,0-12.977,5.271-12.977,14.84v36.243c0,10.071,5.12,15.147,15.653,15.517l.339.011.27-.2c5.837-4.428,13.071-6.581,22.117-6.581,13.474,0,20.894,5.917,20.894,16.66,0,10.381-8.33,16.829-21.74,16.829-12.334,0-22.552-4.963-29.571-14.377-.6-.747-1.7-.359-2.065-.231-2.51.881-9.794,5.713-9.794,12.682,0,5.512,4.092,11.066,11.226,15.239,5.5,3.218,15.266,7.052,30.542,7.052,28.061,0,45.493-14.252,45.493-37.194C-377.9,3769.086-394.162,3755.084-419.33,3755.084Z" transform="translate(531.886 -3713.084)"/></g><g transform="translate(439.318 121.109)"><path class="e" d="M-319.436,3726.422v-.459c0-5.215,3.9-8.882,9.283-8.882,5.33,0,9.168,3.61,9.168,8.825v.459c0,5.215-3.9,8.882-9.226,8.882S-319.436,3731.637-319.436,3726.422Zm2.922,26.3c0-.974.4-1.719,1.547-2.922l28.825-32.835c.287-.344,3.438.515,3.438,2.579a5.035,5.035,0,0,1-1.547,3.037l-28.824,32.778C-313.362,3755.7-316.514,3754.73-316.514,3752.724Zm10.143-26.073v-.917c0-2.751-1.662-4.355-3.839-4.355-2.235,0-3.839,1.547-3.839,4.355v.917c0,2.636,1.662,4.24,3.9,4.24C-307.975,3730.892-306.371,3729.344-306.371,3726.651Zm8.309,19.77v-.459c0-5.215,3.954-8.882,9.283-8.882s9.168,3.553,9.168,8.825v.458c0,5.215-3.9,8.882-9.168,8.882C-294.165,3755.246-298.062,3751.636-298.062,3746.421Zm13.122.171v-.917c0-2.694-1.662-4.355-3.839-4.355-2.292,0-3.839,1.6-3.839,4.355v.917c0,2.694,1.6,4.3,3.839,4.3C-286.6,3750.891-284.939,3749.286-284.939,3746.593Z" transform="translate(319.436 -3716.893)"/></g><g transform="translate(440.467 168.543)"><path class="e" d="M-317.629,3793.1a1.125,1.125,0,0,1,1.157-1.232h2.464c3.245,0,5.213,1.817,5.213,4.822,0,3.02-2.013,4.9-5.288,4.9H-316.4a1.224,1.224,0,0,1-1.232-1.217Zm6.625,3.6a2.751,2.751,0,0,0-3.065-2.944h-1.368v5.934h1.338A2.787,2.787,0,0,0-311,3796.705Z" transform="translate(317.629 -3791.658)"/><path class="e" d="M-302.311,3799.709c0-.616.766-1.172.841-1.1a3.961,3.961,0,0,0,2.884,1.307c1.157,0,1.773-.42,1.773-1.172,0-.872-.977-1.051-2.118-1.307-1.547-.346-3.14-.916-3.14-2.915,0-1.8,1.442-2.989,3.785-2.989a4.764,4.764,0,0,1,2.794.721,1.334,1.334,0,0,1,.676,1.066,1.443,1.443,0,0,1-.871,1.157,3.479,3.479,0,0,0-2.584-1.187c-1.052,0-1.683.436-1.683,1.142,0,.841.872.961,2.073,1.232,1.758.391,3.289,1.112,3.289,2.944,0,1.938-1.427,3.065-3.981,3.065a4.887,4.887,0,0,1-3.14-.887A1.393,1.393,0,0,1-302.311,3799.709Z" transform="translate(312.045 -3791.537)"/><path class="e" d="M-283.621,3791.537a4.731,4.731,0,0,1,2.839.812,1.932,1.932,0,0,1,.886,1.4c0,.977-1.247,1.2-1.277,1.126a2.655,2.655,0,0,0-2.373-1.322,2.8,2.8,0,0,0-2.794,3.049,2.84,2.84,0,0,0,2.825,3.065,2.484,2.484,0,0,0,2.4-1.458c.031-.09,1.322.135,1.322,1.111a2.084,2.084,0,0,1-.932,1.487,4.747,4.747,0,0,1-2.929.872,4.8,4.8,0,0,1-4.973-5.063A4.831,4.831,0,0,1-283.621,3791.537Z" transform="translate(307.055 -3791.537)"/><path class="e" d="M-270.609,3793.806H-272.8c-.662,0-1.022-.33-1.022-.946v-.075c0-.6.36-.917,1.022-.917h6.565c.676,0,1.022.316,1.022.917v.075c0,.617-.346.946-1.022.946h-2.148v6.836a.9.9,0,0,1-.992,1.006h-.315c-.6,0-.916-.346-.916-1.006Z" transform="translate(301.66 -3791.658)"/><path class="e" d="M-259.829,3796.615a4.868,4.868,0,0,1,5.018-5.078,4.816,4.816,0,0,1,4.988,5.063,4.841,4.841,0,0,1-5,5.079A4.819,4.819,0,0,1-259.829,3796.615Zm7.812,0a2.842,2.842,0,0,0-2.809-3.11,2.793,2.793,0,0,0-2.794,3.094,2.825,2.825,0,0,0,2.809,3.11A2.809,2.809,0,0,0-252.017,3796.615Z" transform="translate(296.559 -3791.537)"/><path class="e" d="M-242.241,3804.861a.891.891,0,0,1,1.007-1.006h.255a.9.9,0,0,1,1.022,1.006v.21a.9.9,0,0,1-1.022,1.006h-.255a.9.9,0,0,1-1.007-1.006Z" transform="translate(290.147 -3796.027)"/></g><g transform="translate(232.907 320.349)"><path class="b" d="M-643.226,4086.707l2.758-13c.292-1.219.822-1.776,1.936-1.776h.557c1.087,0,1.7.637,1.432,1.855l-2.572,11.987h6.285c1.061,0,1.671.451,1.671,1.167a3.1,3.1,0,0,1-.663,1.829c-.265.292-.636.425-1.512.425h-7.929C-642.882,4089.2-643.6,4088.377-643.226,4086.707Z" transform="translate(643.322 -4070.318)"/><path class="b" d="M-612.066,4089.11a5.426,5.426,0,0,1-4.667,2.7c-2.785,0-4.906-1.962-4.906-5.3,0-4.137,2.943-8.274,7.107-8.274a4.551,4.551,0,0,1,4.164,2.333,2.624,2.624,0,0,1,2.731-2.121c.743,0,1.326.318,1.326.451l-2.016,9.388c-.318,1.432-.053,1.962.955,2.148.026.026-.16,1.326-2.069,1.326A2.316,2.316,0,0,1-612.066,4089.11Zm.663-3.846.371-1.8a2.953,2.953,0,0,0-3-2.307c-2.466,0-3.978,2.466-3.978,4.827a2.618,2.618,0,0,0,2.625,2.864A4.269,4.269,0,0,0-611.4,4085.264Z" transform="translate(635.418 -4072.614)"/><path class="b" d="M-589.01,4085.874c0-3.951,2.785-7.638,7.32-7.638,3.872,0,6.205,2.572,6.205,5.94,0,3.952-2.785,7.638-7.319,7.638C-586.676,4091.814-589.01,4089.243-589.01,4085.874Zm10.263-1.538a3.072,3.072,0,0,0-3.05-3.263c-2.307,0-3.952,2.228-3.952,4.668a3.064,3.064,0,0,0,3.05,3.235C-580.391,4088.977-578.747,4086.75-578.747,4084.336Z" transform="translate(623.523 -4072.614)"/><path class="b" d="M-564.475,4086.768l1.777-8.354h-1.008c-.848,0-1.352-.371-1.352-.981a2.707,2.707,0,0,1,.53-1.564,1.683,1.683,0,0,1,1.3-.371h1.14l.212-.876c.743-3.525,2.652-4.772,5.066-4.772a3.815,3.815,0,0,1,2.731.875,1.634,1.634,0,0,1,.477,1.141,1.913,1.913,0,0,1-1.008,1.644,2.313,2.313,0,0,0-1.8-.8c-.955,0-1.592.53-1.91,1.989l-.186.8h1.75c.928,0,1.432.4,1.432.981a2.689,2.689,0,0,1-.557,1.564,1.681,1.681,0,0,1-1.3.371h-1.777l-1.777,8.354c-.266,1.326-.769,1.776-1.723,1.776h-.4C-563.865,4088.545-564.766,4088.147-564.475,4086.768Z" transform="translate(614.792 -4069.557)"/><path class="b" d="M-550.162,4086.3a7.928,7.928,0,0,1,8.142-8.062c3.288,0,5.118,1.538,5.118,3.792,0,2.652-1.7,4.243-7.452,4.243-.8,0-1.671-.053-2.652-.106v.081c0,1.8,1.114,2.917,3.156,2.917a4.611,4.611,0,0,0,3.819-1.883c.053-.08,1.591.186,1.591,1.405a2.032,2.032,0,0,1-.716,1.592,6.558,6.558,0,0,1-4.747,1.538C-548.146,4091.814-550.162,4089.481-550.162,4086.3Zm3.633-2.414c.689.054,1.3.08,1.856.08,3.607,0,4.615-.821,4.615-1.83,0-.689-.716-1.379-2.122-1.379A4.874,4.874,0,0,0-546.529,4083.885Z" transform="translate(609.362 -4072.614)"/><path class="b" d="M-523.034,4080.729a3.951,3.951,0,0,1,3.5-2.493c1.3,0,2.307.742,2.307,1.83a2.37,2.37,0,0,1-1.671,2.361,2.306,2.306,0,0,0-1.8-.769c-1.67,0-2.731,1.856-3.315,4.588l-.742,3.58c-.292,1.326-.77,1.776-1.724,1.776h-.4c-1.008,0-1.91-.4-1.618-1.776l2.36-11.139a1.65,1.65,0,0,1,1.034-.238A1.972,1.972,0,0,1-523.034,4080.729Z" transform="translate(601.484 -4072.614)"/><path class="b" d="M-508.631,4085.14l1.14-5.464h-.636c-.849,0-1.353-.371-1.353-.981a2.7,2.7,0,0,1,.531-1.564,1.679,1.679,0,0,1,1.3-.372h.769l.159-.743c.372-1.909,1.141-2.7,2.785-2.7.8,0,1.406.318,1.379.451l-.636,3h2.175c.9,0,1.406.4,1.406.981a2.515,2.515,0,0,1-.557,1.564,1.608,1.608,0,0,1-1.273.371h-2.413l-1.14,5.3c-.344,1.565.186,2.227,1.219,2.227a2.451,2.451,0,0,0,1.592-.662c.105-.081.609.344.609,1.14a1.991,1.991,0,0,1-.636,1.459,3.787,3.787,0,0,1-2.758.9C-507.942,4090.046-509.294,4088.269-508.631,4085.14Z" transform="translate(594.532 -4070.819)"/><path class="b" d="M-484.3,4089.11a5.426,5.426,0,0,1-4.668,2.7c-2.784,0-4.906-1.962-4.906-5.3,0-4.137,2.944-8.274,7.107-8.274a4.552,4.552,0,0,1,4.164,2.333,2.624,2.624,0,0,1,2.731-2.121c.742,0,1.326.318,1.326.451l-2.016,9.388c-.318,1.432-.053,1.962.954,2.148.027.026-.159,1.326-2.068,1.326A2.315,2.315,0,0,1-484.3,4089.11Zm.663-3.846.371-1.8a2.954,2.954,0,0,0-3-2.307c-2.466,0-3.977,2.466-3.977,4.827a2.618,2.618,0,0,0,2.625,2.864A4.269,4.269,0,0,0-483.637,4085.264Z" transform="translate(588.843 -4072.614)"/><path class="b" d="M-459.6,4085.14l1.14-5.464h-.636c-.849,0-1.353-.371-1.353-.981a2.7,2.7,0,0,1,.531-1.564,1.678,1.678,0,0,1,1.3-.372h.77l.159-.743c.371-1.909,1.141-2.7,2.785-2.7.8,0,1.406.318,1.379.451l-.636,3h2.175c.9,0,1.4.4,1.4.981a2.514,2.514,0,0,1-.557,1.564,1.608,1.608,0,0,1-1.273.371h-2.414l-1.14,5.3c-.345,1.565.186,2.227,1.219,2.227a2.451,2.451,0,0,0,1.592-.662c.105-.081.609.344.609,1.14a1.991,1.991,0,0,1-.636,1.459,3.787,3.787,0,0,1-2.759.9C-458.913,4090.046-460.265,4088.269-459.6,4085.14Z" transform="translate(576.659 -4070.819)"/><path class="b" d="M-444.97,4086.3a7.928,7.928,0,0,1,8.142-8.062c3.288,0,5.118,1.538,5.118,3.792,0,2.652-1.7,4.243-7.452,4.243-.8,0-1.671-.053-2.652-.106v.081c0,1.8,1.114,2.917,3.156,2.917a4.608,4.608,0,0,0,3.818-1.883c.053-.08,1.592.186,1.592,1.405a2.032,2.032,0,0,1-.716,1.592,6.558,6.558,0,0,1-4.747,1.538C-442.955,4091.814-444.97,4089.481-444.97,4086.3Zm3.633-2.414c.689.054,1.3.08,1.856.08,3.607,0,4.615-.821,4.615-1.83,0-.689-.716-1.379-2.122-1.379A4.874,4.874,0,0,0-441.337,4083.885Z" transform="translate(571.015 -4072.614)"/><path class="b" d="M-417.842,4080.729a3.951,3.951,0,0,1,3.5-2.493c1.3,0,2.307.742,2.307,1.83a2.37,2.37,0,0,1-1.671,2.361,2.306,2.306,0,0,0-1.8-.769c-1.671,0-2.732,1.856-3.315,4.588l-.743,3.58c-.292,1.326-.769,1.776-1.724,1.776h-.4c-1.008,0-1.91-.4-1.617-1.776l2.36-11.139a1.649,1.649,0,0,1,1.035-.238A1.971,1.971,0,0,1-417.842,4080.729Z" transform="translate(563.138 -4072.614)"/><path class="b" d="M-388.821,4089.454a12.372,12.372,0,0,1,.637-3.182,14.265,14.265,0,0,0,.557-2.785,1.888,1.888,0,0,0-1.91-2.122,3.175,3.175,0,0,0-2.785,1.724l-1.432,6.737c-.292,1.352-.848,1.776-1.8,1.776h-.4c-.981,0-1.83-.4-1.538-1.776l1.167-5.517c.371-1.75-.371-2.944-1.751-2.944a3.2,3.2,0,0,0-2.785,1.7l-1.432,6.764c-.292,1.379-.848,1.776-1.8,1.776h-.4c-1.008,0-1.83-.4-1.538-1.776l2.36-11.139a1.649,1.649,0,0,1,1.035-.238,1.966,1.966,0,0,1,2.068,2.2,5.145,5.145,0,0,1,4.323-2.414,3.688,3.688,0,0,1,3.766,2.811,5.532,5.532,0,0,1,4.774-2.811,3.921,3.921,0,0,1,4,4.19,16.92,16.92,0,0,1-.742,3.792,14.062,14.062,0,0,0-.637,2.864c0,.743.371,1.035,1.061,1.141.079,0-.212,1.538-2.254,1.538C-388.026,4091.762-388.821,4090.86-388.821,4089.454Z" transform="translate(556.843 -4072.614)"/><path class="b" d="M-368.106,4084.956l1.7-7.929c.292-1.353.769-1.8,1.723-1.8h.4c1.007,0,1.909.4,1.617,1.8l-1.723,8.035c-.292,1.433-.053,1.989,1.034,2.148.027.026-.186,1.326-2.175,1.326C-367.947,4088.536-368.557,4087.051-368.106,4084.956Zm2.678-13.392a2.074,2.074,0,0,1,2.175-2.175c1.326,0,2.068.663,2.068,1.618a2.088,2.088,0,0,1-2.175,2.173C-364.685,4073.181-365.427,4072.518-365.427,4071.564Z" transform="translate(543.046 -4069.389)"/><path class="b" d="M-352.415,4080.756a5.206,5.206,0,0,1,4.455-2.52,3.913,3.913,0,0,1,4.19,4.19,15.817,15.817,0,0,1-.77,3.792,15.478,15.478,0,0,0-.609,2.864c0,.743.344,1.035,1.061,1.141.053,0-.212,1.538-2.255,1.538-1.75,0-2.572-.9-2.572-2.308a13.658,13.658,0,0,1,.636-3.182,12.965,12.965,0,0,0,.583-2.785,1.92,1.92,0,0,0-2.095-2.122,3.339,3.339,0,0,0-2.971,1.884l-1.379,6.577c-.292,1.326-.769,1.776-1.724,1.776h-.4c-1.007,0-1.909-.4-1.617-1.776l2.36-11.139a1.648,1.648,0,0,1,1.035-.238A1.981,1.981,0,0,1-352.415,4080.756Z" transform="translate(539.287 -4072.614)"/><path class="b" d="M-323.529,4089.11a5.426,5.426,0,0,1-4.668,2.7c-2.784,0-4.906-1.962-4.906-5.3,0-4.137,2.944-8.274,7.107-8.274a4.552,4.552,0,0,1,4.164,2.333,2.624,2.624,0,0,1,2.731-2.121c.742,0,1.326.318,1.326.451l-2.016,9.388c-.318,1.432-.053,1.962.954,2.148.027.026-.159,1.326-2.068,1.326A2.315,2.315,0,0,1-323.529,4089.11Zm.663-3.846.371-1.8a2.954,2.954,0,0,0-3-2.307c-2.466,0-3.977,2.466-3.977,4.827a2.618,2.618,0,0,0,2.625,2.864A4.269,4.269,0,0,0-322.866,4085.264Z" transform="translate(530.236 -4072.614)"/><path class="b" d="M-300.6,4086.3a7.929,7.929,0,0,1,8.142-8.062c3.289,0,5.119,1.538,5.119,3.792,0,2.652-1.7,4.243-7.452,4.243-.8,0-1.671-.053-2.652-.106v.081c0,1.8,1.114,2.917,3.156,2.917a4.609,4.609,0,0,0,3.819-1.883c.053-.08,1.591.186,1.591,1.405a2.032,2.032,0,0,1-.716,1.592,6.557,6.557,0,0,1-4.747,1.538C-298.582,4091.814-300.6,4089.481-300.6,4086.3Zm3.634-2.414c.689.054,1.3.08,1.856.08,3.607,0,4.615-.821,4.615-1.83,0-.689-.716-1.379-2.122-1.379A4.874,4.874,0,0,0-296.964,4083.885Z" transform="translate(518.386 -4072.614)"/><path class="b" d="M-273.469,4080.756a5.206,5.206,0,0,1,4.455-2.52,3.912,3.912,0,0,1,4.19,4.19,15.84,15.84,0,0,1-.769,3.792,15.442,15.442,0,0,0-.61,2.864c0,.743.345,1.035,1.061,1.141.053,0-.212,1.538-2.254,1.538-1.75,0-2.572-.9-2.572-2.308a13.656,13.656,0,0,1,.636-3.182,12.939,12.939,0,0,0,.584-2.785,1.92,1.92,0,0,0-2.1-2.122,3.338,3.338,0,0,0-2.97,1.884l-1.379,6.577c-.292,1.326-.77,1.776-1.724,1.776h-.4c-1.008,0-1.91-.4-1.618-1.776l2.36-11.139a1.65,1.65,0,0,1,1.035-.238A1.981,1.981,0,0,1-273.469,4080.756Z" transform="translate(510.509 -4072.614)"/><path class="b" d="M-254.741,4091.166a2.986,2.986,0,0,1,.689-2.042,2.023,2.023,0,0,1,1.671-.5c1.22,0,1.8.451,1.8,1.378a2.985,2.985,0,0,1-.689,2.042c-.345.345-.716.478-1.671.478C-254.158,4092.519-254.741,4092.094-254.741,4091.166Zm1.7-8.089a2.987,2.987,0,0,1,.69-2.042,2.023,2.023,0,0,1,1.671-.5c1.22,0,1.83.451,1.83,1.378a2.986,2.986,0,0,1-.689,2.042c-.345.344-.716.478-1.671.478C-252.434,4084.43-253.044,4084.005-253.044,4083.077Z" transform="translate(501.67 -4073.451)"/></g><g transform="translate(-3877.734 -1326.817)"><path class="f" d="M3901.19,1600.057l-3.779-9.272c-.1-.235.689-.823,1.5-.823a1.438,1.438,0,0,1,1.394,1.141l2.385,6.905,2.368-6.905a1.394,1.394,0,0,1,1.327-1.141c.79,0,1.546.6,1.462.823l-3.729,9.272a1.359,1.359,0,0,1-1.477.941A1.326,1.326,0,0,1,3901.19,1600.057Z" transform="translate(0 0.399)"/><path class="f" d="M3910.071,1596.407h.269a1.053,1.053,0,0,0-.017-.235,1.449,1.449,0,0,0-1.663-1.478,2.052,2.052,0,0,0-2.016,1.192c-.018.035-1.529.153-1.529-.94a1.5,1.5,0,0,1,.5-1.074,4.417,4.417,0,0,1,3.192-.958c2.6,0,3.863,1.193,3.863,3.392v4.838c0,.118-.437.27-.89.27a1.224,1.224,0,0,1-1.244-.79,1.587,1.587,0,1,0-2.974.856c-1.713,0-2.755-.941-2.755-2.35C3904.813,1597.3,3906.594,1596.457,3910.071,1596.407Zm.269,1.193h-.452c-1.866.067-2.857.42-2.857,1.344,0,.621.487,1.009,1.277,1.009a1.85,1.85,0,0,0,2.032-1.765Zm-2.957-5.761c0-.521,1.143-2.873,2.536-2.873a.926.926,0,0,1,.958.99c0,1.278-2.453,2.118-3.157,2.118C3907.5,1592.075,3907.383,1592.023,3907.383,1591.84Z" transform="translate(2.969)"/><path class="f" d="M3911.677,1600.05V1589.7a1.318,1.318,0,0,1,.891-.267c.7,0,1.477.368,1.477,1.9v8.719c0,.857-.436,1.125-1.041,1.125h-.252C3912.129,1601.175,3911.677,1600.924,3911.677,1600.05Z" transform="translate(5.719 0.187)"/><path class="f" d="M3915.955,1589.242a1.23,1.23,0,1,1-1.327,1.227A1.184,1.184,0,0,1,3915.955,1589.242Zm-1.192,4.8c0-.856.453-1.143,1.056-1.143h.253c.622,0,1.058.27,1.058,1.143v6.081c0,.857-.436,1.125-1.058,1.125h-.235c-.639,0-1.074-.251-1.074-1.125Z" transform="translate(6.901 0.11)"/><path class="f" d="M3917.425,1597.026c0-2.6,1.545-4.3,3.813-4.3a3.075,3.075,0,0,1,2.586,1.242V1589.7a1.318,1.318,0,0,1,.891-.267c.706,0,1.479.368,1.479,1.9v8.719c0,.857-.42,1.125-1.043,1.125h-.235c-.537,0-.938-.183-1.024-.823-.017-.184-.032-.369-.032-.57a2.977,2.977,0,0,1-2.672,1.563C3918.97,1601.344,3917.425,1599.6,3917.425,1597.026Zm6.416-1.093a2.081,2.081,0,0,0-2.032-1.309,2.136,2.136,0,0,0-2.133,2.4,2.18,2.18,0,0,0,2.1,2.419,1.969,1.969,0,0,0,2.066-1.965Z" transform="translate(8.021 0.187)"/><path class="f" d="M3929.056,1591.785a4.309,4.309,0,1,1-4.383,4.283A4.126,4.126,0,0,1,3929.056,1591.785Zm-.017,1.847a2.46,2.46,0,1,0,2.268,2.469A2.285,2.285,0,0,0,3929.04,1593.632Z" transform="translate(10.925 1.129)"/><path class="f" d="M3937.861,1591.785a3.9,3.9,0,0,1,4.083,4.1v.151c-.017.4-.135.622-.572.622H3935.7l.05.269a2.272,2.272,0,0,0,2.35,1.763,2.444,2.444,0,0,0,2.3-1.193c.018-.032,1.16.067,1.16,1.008a1.6,1.6,0,0,1-.906,1.277,5.018,5.018,0,0,1-2.621.622,4.072,4.072,0,0,1-4.419-4.268A4.167,4.167,0,0,1,3937.861,1591.785Zm-.016,1.629a2.12,2.12,0,0,0-2.118,1.95h4.032A1.862,1.862,0,0,0,3937.846,1593.414Z" transform="translate(14.506 1.129)"/><path class="f" d="M3948.56,1595.16v3.948c0,.857-.454,1.125-1.059,1.125h-.252c-.622,0-1.059-.251-1.059-1.125v-3.579c0-1.091-.553-1.763-1.511-1.763a1.977,1.977,0,0,0-1.8,1.076v4.266c0,.857-.437,1.125-1.042,1.125h-.252c-.639,0-1.074-.251-1.074-1.125v-6.954c0-.085.42-.27.89-.27a1.359,1.359,0,0,1,1.41,1.378,3.114,3.114,0,0,1,2.706-1.478C3947.65,1591.785,3948.56,1593.3,3948.56,1595.16Z" transform="translate(17.27 1.129)"/><path class="f" d="M3950.2,1598.153v-3.763h-.42c-.671,0-.974-.3-.974-.839v-.136c0-.553.3-.873.957-.873h.437V1591.5c0-.773.385-1.143,1.059-1.143h.217c.622,0,1.042.27,1.042,1.143v1.042h1.429c.671,0,.956.286.956.824v.15c0,.573-.3.874-.975.874h-1.444v3.493c0,.808.251,1.21.906,1.21a1.207,1.207,0,0,0,1.027-.555.933.933,0,0,1,.585.924,1.2,1.2,0,0,1-.4.908,2.449,2.449,0,0,1-1.763.6C3951.037,1600.975,3950.2,1600.017,3950.2,1598.153Z" transform="translate(20.592 0.557)"/><path class="f" d="M3958.084,1591.785a4.309,4.309,0,1,1-4.384,4.283A4.127,4.127,0,0,1,3958.084,1591.785Zm-.017,1.847a2.46,2.46,0,1,0,2.269,2.469A2.284,2.284,0,0,0,3958.067,1593.632Z" transform="translate(22.553 1.129)"/><path class="f" d="M3960.6,1597.026c0-2.6,1.545-4.3,3.813-4.3a3.077,3.077,0,0,1,2.587,1.242V1589.7a1.318,1.318,0,0,1,.891-.267c.706,0,1.478.368,1.478,1.9v8.719c0,.857-.419,1.125-1.042,1.125h-.235c-.538,0-.94-.183-1.024-.823-.017-.184-.034-.369-.034-.57a2.975,2.975,0,0,1-2.671,1.563C3962.146,1601.344,3960.6,1599.6,3960.6,1597.026Zm6.416-1.093a2.081,2.081,0,0,0-2.033-1.309,2.135,2.135,0,0,0-2.132,2.4,2.18,2.18,0,0,0,2.1,2.419,1.969,1.969,0,0,0,2.065-1.965Z" transform="translate(25.318 0.187)"/><path class="f" d="M3972.232,1591.785a4.309,4.309,0,1,1-4.384,4.283A4.126,4.126,0,0,1,3972.232,1591.785Zm-.017,1.847a2.46,2.46,0,1,0,2.267,2.469A2.285,2.285,0,0,0,3972.215,1593.632Z" transform="translate(28.221 1.129)"/><path class="f" d="M3974.664,1598.554a1.045,1.045,0,0,1,.723-.941,3.574,3.574,0,0,0,2.7,1.109c.926,0,1.429-.319,1.429-.839,0-.639-.655-.756-1.747-.992-1.126-.235-2.873-.6-2.873-2.452,0-1.6,1.294-2.654,3.411-2.654,1.663,0,2.688.452,3.106,1.091a1.214,1.214,0,0,1,.2.672,1.178,1.178,0,0,1-.755.991,3.257,3.257,0,0,0-2.4-1.109c-.906,0-1.394.336-1.394.857,0,.587.639.7,1.747.958,1.16.252,3.007.62,3.007,2.469,0,1.644-1.31,2.636-3.612,2.636a5.391,5.391,0,0,1-2.821-.621A1.432,1.432,0,0,1,3974.664,1598.554Z" transform="translate(30.951 1.129)"/><path class="f" d="M3982.836,1600.05V1589.7a1.316,1.316,0,0,1,.891-.267c.7,0,1.476.368,1.476,1.9v8.719c0,.857-.435,1.125-1.041,1.125h-.25C3983.288,1601.175,3982.836,1600.924,3982.836,1600.05Z" transform="translate(34.225 0.187)"/><path class="f" d="M3989.932,1591.785a4.309,4.309,0,1,1-4.384,4.283A4.126,4.126,0,0,1,3989.932,1591.785Zm-.017,1.847a2.46,2.46,0,1,0,2.268,2.469A2.285,2.285,0,0,0,3989.915,1593.632Z" transform="translate(35.311 1.129)"/><path class="f" d="M3992.364,1598.554a1.045,1.045,0,0,1,.723-.941,3.575,3.575,0,0,0,2.7,1.109c.924,0,1.427-.319,1.427-.839,0-.639-.655-.756-1.747-.992-1.126-.235-2.873-.6-2.873-2.452,0-1.6,1.293-2.654,3.411-2.654,1.663,0,2.688.452,3.108,1.091a1.224,1.224,0,0,1,.2.672,1.178,1.178,0,0,1-.755.991,3.257,3.257,0,0,0-2.4-1.109c-.906,0-1.394.336-1.394.857,0,.587.638.7,1.746.958,1.16.252,3.009.62,3.009,2.469,0,1.644-1.311,2.636-3.612,2.636a5.4,5.4,0,0,1-2.822-.621A1.432,1.432,0,0,1,3992.364,1598.554Z" transform="translate(38.042 1.129)"/><path class="f" d="M4009.285,1596.068c0,2.553-1.545,4.335-3.8,4.335a2.9,2.9,0,0,1-2.621-1.5v3.394c0,.856-.437,1.142-1.042,1.142h-.25c-.639,0-1.076-.269-1.076-1.142v-10.146c0-.085.42-.27.906-.27a1.326,1.326,0,0,1,1.361,1.143c.018.069.034.235.051.371a2.874,2.874,0,0,1,2.688-1.614C4007.723,1591.785,4009.285,1593.449,4009.285,1596.068Zm-2.268.017a2.161,2.161,0,0,0-4.149-1.057v1.545a1.945,1.945,0,0,0,2.034,1.931A2.155,2.155,0,0,0,4007.017,1596.085Z" transform="translate(41.301 1.129)"/><path class="f" d="M4007.784,1600.05V1589.7a1.318,1.318,0,0,1,.891-.267c.7,0,1.478.368,1.478,1.9v8.719c0,.857-.437,1.125-1.042,1.125h-.251C4008.236,1601.175,4007.784,1600.924,4007.784,1600.05Z" transform="translate(44.219 0.187)"/><path class="f" d="M4015.754,1595.278h.267a1.153,1.153,0,0,0-.015-.235,1.45,1.45,0,0,0-1.664-1.478,2.051,2.051,0,0,0-2.014,1.192c-.018.035-1.529.153-1.529-.94a1.5,1.5,0,0,1,.5-1.074,4.423,4.423,0,0,1,3.193-.958c2.6,0,3.863,1.193,3.863,3.392v4.838c0,.118-.437.27-.889.27a1.222,1.222,0,0,1-1.244-.79,3.384,3.384,0,0,1-.134-.555,3.276,3.276,0,0,1-2.839,1.41c-1.714,0-2.755-.941-2.755-2.35C4010.5,1596.169,4012.277,1595.328,4015.754,1595.278Zm.267,1.193h-.452c-1.864.067-2.855.42-2.855,1.344,0,.621.487,1.009,1.275,1.009a1.848,1.848,0,0,0,2.032-1.765Z" transform="translate(45.305 1.129)"/><path class="f" d="M4025.37,1595.16v3.948c0,.857-.454,1.125-1.058,1.125h-.252c-.624,0-1.059-.251-1.059-1.125v-3.579c0-1.091-.555-1.763-1.511-1.763a1.977,1.977,0,0,0-1.8,1.076v4.266c0,.857-.438,1.125-1.042,1.125h-.252c-.639,0-1.076-.251-1.076-1.125v-6.954c0-.085.42-.27.891-.27a1.361,1.361,0,0,1,1.41,1.378,3.112,3.112,0,0,1,2.7-1.478C4024.462,1591.785,4025.37,1593.3,4025.37,1595.16Z" transform="translate(48.041 1.129)"/><path class="f" d="M4028.234,1591.785a3.9,3.9,0,0,1,4.081,4.1v.151c-.017.4-.134.622-.571.622h-5.677l.051.269a2.274,2.274,0,0,0,2.352,1.763,2.441,2.441,0,0,0,2.3-1.193c.019-.032,1.16.067,1.16,1.008a1.6,1.6,0,0,1-.906,1.277,5.019,5.019,0,0,1-2.621.622,4.072,4.072,0,0,1-4.419-4.268A4.167,4.167,0,0,1,4028.234,1591.785Zm-.017,1.629a2.121,2.121,0,0,0-2.118,1.95h4.033A1.861,1.861,0,0,0,4028.217,1593.414Z" transform="translate(50.708 1.129)"/><path class="f" d="M4030.5,1598.554a1.045,1.045,0,0,1,.723-.941,3.574,3.574,0,0,0,2.7,1.109c.924,0,1.429-.319,1.429-.839,0-.639-.655-.756-1.747-.992-1.126-.235-2.873-.6-2.873-2.452,0-1.6,1.293-2.654,3.411-2.654,1.662,0,2.688.452,3.106,1.091a1.214,1.214,0,0,1,.2.672,1.178,1.178,0,0,1-.755.991,3.26,3.26,0,0,0-2.4-1.109c-.906,0-1.393.336-1.393.857,0,.587.638.7,1.746.958,1.16.252,3.007.62,3.007,2.469,0,1.644-1.309,2.636-3.612,2.636a5.39,5.39,0,0,1-2.821-.621A1.432,1.432,0,0,1,4030.5,1598.554Z" transform="translate(53.319 1.129)"/></g></g></g><g transform="translate(145.316 -1412.053)"><g transform="translate(587.434 1359.053)"><g transform="translate(-81.604 14)"><g transform="translate(570.863 171.837)"><g class="g"><g transform="translate(-71.612 -38.823)"><line class="h" y1="53.401" x2="204.6"/><line class="h" y1="53.401" x2="204.6" transform="translate(1.105 4.235)"/><line class="h" y1="53.401" x2="204.6" transform="translate(2.211 8.47)"/><line class="h" y1="53.401" x2="204.6" transform="translate(3.316 12.705)"/><line class="h" y1="53.401" x2="204.6" transform="translate(4.421 16.941)"/><line class="h" y1="53.401" x2="204.6" transform="translate(5.527 21.176)"/><line class="h" y1="53.401" x2="204.6" transform="translate(6.632 25.411)"/><line class="h" y1="53.401" x2="204.6" transform="translate(7.738 29.646)"/><line class="h" y1="53.401" x2="204.6" transform="translate(8.843 33.881)"/><line class="h" y1="53.401" x2="204.6" transform="translate(9.948 38.116)"/><line class="h" y1="53.401" x2="204.6" transform="translate(11.054 42.352)"/><line class="h" y1="53.401" x2="204.6" transform="translate(12.159 46.587)"/><line class="h" y1="53.401" x2="204.6" transform="translate(13.265 50.822)"/><line class="h" y1="53.401" x2="204.6" transform="translate(14.37 55.057)"/><line class="h" y1="53.401" x2="204.6" transform="translate(15.475 59.292)"/><line class="h" y1="53.401" x2="204.6" transform="translate(16.581 63.527)"/><line class="h" y1="53.401" x2="204.6" transform="translate(17.686 67.762)"/><line class="h" y1="53.401" x2="204.6" transform="translate(18.791 71.998)"/><line class="h" y1="53.401" x2="204.6" transform="translate(19.897 76.233)"/><line class="h" y1="53.401" x2="204.6" transform="translate(21.002 80.468)"/><line class="h" y1="53.401" x2="204.6" transform="translate(22.108 84.703)"/><line class="h" y1="53.401" x2="204.6" transform="translate(23.213 88.938)"/><line class="h" y1="53.401" x2="204.6" transform="translate(24.318 93.173)"/><line class="h" y1="53.401" x2="204.6" transform="translate(25.424 97.409)"/></g></g></g><g transform="translate(145.964 474.789)"><g class="i" transform="translate(79 -2)"><g transform="translate(-53.214 -62.244)"><line class="j" x2="101.658" y2="146.443" transform="translate(69.72)"/><line class="j" x2="101.658" y2="146.443" transform="translate(66.689 2.104)"/><line class="j" x2="101.658" y2="146.443" transform="translate(63.657 4.209)"/><line class="j" x2="101.658" y2="146.443" transform="translate(60.626 6.313)"/><line class="j" x2="101.658" y2="146.443" transform="translate(57.595 8.417)"/><line class="j" x2="101.658" y2="146.443" transform="translate(54.564 10.522)"/><line class="j" x2="101.658" y2="146.443" transform="translate(51.532 12.626)"/><line class="j" x2="101.658" y2="146.443" transform="translate(48.501 14.73)"/><line class="j" x2="101.658" y2="146.443" transform="translate(45.47 16.834)"/><line class="j" x2="101.658" y2="146.443" transform="translate(42.438 18.939)"/><line class="j" x2="101.658" y2="146.443" transform="translate(39.407 21.043)"/><line class="j" x2="101.658" y2="146.443" transform="translate(36.376 23.147)"/><line class="j" x2="101.658" y2="146.443" transform="translate(33.344 25.252)"/><line class="j" x2="101.658" y2="146.443" transform="translate(30.313 27.356)"/><line class="j" x2="101.658" y2="146.443" transform="translate(27.282 29.46)"/><line class="j" x2="101.658" y2="146.443" transform="translate(24.25 31.564)"/><line class="j" x2="101.658" y2="146.443" transform="translate(21.219 33.669)"/><line class="j" x2="101.658" y2="146.443" transform="translate(18.188 35.773)"/><line class="j" x2="101.658" y2="146.443" transform="translate(15.157 37.877)"/><line class="j" x2="101.658" y2="146.443" transform="translate(12.125 39.982)"/><line class="j" x2="101.658" y2="146.443" transform="translate(9.094 42.086)"/><line class="j" x2="101.658" y2="146.443" transform="translate(6.063 44.19)"/><line class="j" x2="101.658" y2="146.443" transform="translate(3.031 46.294)"/><line class="j" x2="101.658" y2="146.443" transform="translate(0 48.399)"/></g></g></g><g transform="translate(40.991 384.267)"><circle class="b" cx="4.119" cy="4.119" r="4.119"/></g><g transform="translate(45.11 244.509)"><circle class="b" cx="4.119" cy="4.119" r="4.119"/></g><g transform="translate(418.2 199.528)"><g transform="translate(0)"><circle class="k" cx="9.884" cy="9.884" r="9.884"/></g></g><g transform="translate(583.441 416.399)"><circle class="k" cx="12.04" cy="12.04" r="12.04"/></g><g transform="translate(421.883 428.441)"><g transform="translate(0)"><circle class="b" cx="3.1" cy="3.1" r="3.1"/></g></g><g transform="translate(141.883 165.636)"><g transform="translate(0)"><circle class="b" cx="3.1" cy="3.1" r="3.1"/></g></g></g><g transform="translate(-32 157.836)"><g transform="translate(13.052 23)"><circle class="k" cx="5.979" cy="5.979" r="5.979"/></g><g transform="translate(50.431 282.061)"><circle class="k" cx="8.445" cy="8.445" r="8.445"/></g><g transform="translate(282.952 331.716)"><circle class="b" cx="3.1" cy="3.1" r="3.1"/></g></g></g><g transform="translate(565.312 1498.896)"><g transform="translate(142.183 14.597)"><circle class="l" cx="21.941" cy="21.941" r="21.941" transform="matrix(0.15, -0.989, 0.989, 0.15, 0, 43.386)"/><g transform="translate(21.035 10.681)"><path class="m" d="M706.5,1584.068h-.226a2.009,2.009,0,1,0,0-4.018H699.83a10.534,10.534,0,0,0,1.873-4.88c0-2.583-1.415-4.018-2.337-4.182a1.584,1.584,0,0,0-1.866,1.107c-.267.779.206,2.256.023,2.783-.281.813-1.7,1.9-3.631,4.372a7.439,7.439,0,0,0-1.476,4.818v8.8a1.255,1.255,0,0,0,1.251,1.251H705.64a1.456,1.456,0,1,0,0-2.912h.206a1.784,1.784,0,0,0,0-3.567h.656a1.784,1.784,0,0,0,0-3.568Z" transform="translate(-692.403 -1570.956)"/></g></g><g transform="translate(578.935 267.703)"><circle class="n" cx="23.236" cy="23.236" r="23.236" transform="translate(0 32.86) rotate(-45)"/><path class="o" d="M1440.236,1765.235l-3.667-1.848,3.667-1.849a1.11,1.11,0,0,0-1-1.982l-5.5,2.775a1.108,1.108,0,0,0-.607,1.041v.029a1.108,1.108,0,0,0,.607,1.041l5.5,2.775a1.11,1.11,0,0,0,1-1.982Z" transform="translate(-1393.088 -1738.157)"/><path class="o" d="M1405.275,1765.235l3.666-1.848-3.666-1.849a1.11,1.11,0,0,1,1-1.982l5.5,2.775a1.107,1.107,0,0,1,.607,1.041v.029a1.107,1.107,0,0,1-.607,1.041l-5.5,2.775a1.11,1.11,0,0,1-1-1.982Z" transform="translate(-1386.366 -1738.157)"/><path class="o" d="M1403.3,1775.726c0,8.13,6.9,14.719,15.4,14.719s15.4-6.589,15.4-14.719Z" transform="translate(-1386.044 -1742.004)"/><path class="p" d="M1433.01,1783.416a37.372,37.372,0,0,0-27.639,0,15.727,15.727,0,0,0,27.639,0Z" transform="translate(-1386.533 -1743.195)"/></g><g transform="translate(69.831 349.376)"><circle class="n" cx="17.008" cy="17.008" r="17.008" transform="translate(1.492)"/><circle class="q" cx="6.348" cy="6.348" r="6.348" transform="translate(20.367 5.839)"/><circle class="r" cx="6.348" cy="6.348" r="6.348" transform="translate(0 13.445) rotate(-22.294)"/><path class="o" d="M566.125,1770.033a.815.815,0,0,1-.782-.589,4.364,4.364,0,1,1,8.385-2.423.815.815,0,1,1-1.565.452,2.735,2.735,0,0,0-5.255,1.519.814.814,0,0,1-.556,1.009A.8.8,0,0,1,566.125,1770.033Z" transform="translate(-547.168 -1759.876)"/><path class="o" d="M549.679,1774.521a.815.815,0,0,1-.783-.589,4.365,4.365,0,0,1,8.386-2.423.815.815,0,1,1-1.566.452,2.735,2.735,0,1,0-5.254,1.518.815.815,0,0,1-.557,1.009A.8.8,0,0,1,549.679,1774.521Z" transform="translate(-543.284 -1760.936)"/><path class="o" d="M561.295,1782.974a8.622,8.622,0,0,1-5.51-1.975.815.815,0,0,1,1.043-1.253,6.986,6.986,0,0,0,4.468,1.6,6.754,6.754,0,0,0,6.593-4.887.815.815,0,1,1,1.574.422A8.387,8.387,0,0,1,561.295,1782.974Z" transform="translate(-544.882 -1762.707)"/></g></g></g></g></svg>