<svg xmlns="http://www.w3.org/2000/svg" width="428.763" height="154.565" viewBox="0 0 428.763 154.565"><defs><style>.a{fill:#ffd527;}.b{fill:#ea0c90;}.c,.d{fill:#fff;}.d{fill-rule:evenodd;}</style></defs><g transform="translate(-2917.887 -560.63)"><g transform="translate(3230.893 560.63)"><g transform="translate(0)"><rect class="a" width="45.303" height="34.696" rx="14.736"/></g></g><g transform="translate(3229.384 601.432)"><g transform="translate(0 0.063)"><path class="b" d="M3390.827,643.98c5.321,0,9.335-2.963,10.61-7.807h-5.99a4.923,4.923,0,0,1-4.683,2.868c-3.345,0-5.638-2.486-5.638-6.436s2.294-6.436,5.638-6.436a4.925,4.925,0,0,1,4.683,2.868h5.99c-1.275-4.843-5.289-7.838-10.61-7.838-6.595,0-11.247,4.715-11.247,11.406S3384.228,643.98,3390.827,643.98Z" transform="translate(-3379.58 -621.199)"/></g><g transform="translate(25.101 0.318)"><path class="b" d="M3430.07,634.959c0,2.644-1.37,4.173-3.95,4.173s-3.887-1.529-3.887-4.173V621.577h-5.448v13.35c0,6.181,4.048,9.243,9.244,9.243,5.161,0,9.495-3.059,9.495-9.243v-13.35h-5.453Z" transform="translate(-3416.785 -621.577)"/></g><g transform="translate(46.733 0)"><path class="b" d="M3460.352,644.013a11.454,11.454,0,1,0-11.5-11.47,11.2,11.2,0,0,0,10.922,11.47Q3460.062,644.022,3460.352,644.013Zm0-17.97c3.57,0,5.9,2.517,5.9,6.5,0,3.919-2.326,6.5-5.9,6.5-3.632,0-5.926-2.581-5.926-6.5C3454.425,628.561,3456.719,626.044,3460.352,626.044Z" transform="translate(-3448.847 -621.106)"/></g><g transform="translate(71.496 0.318)"><path class="b" d="M3491.474,643.946h5.448v-18h5.926v-4.365h-17.3v4.365h5.926Z" transform="translate(-3485.55 -621.577)"/></g><g transform="translate(90.068 0.318)"><path class="b" d="M3528.466,639.992l1.339,3.951h5.766l-8.093-22.366h-6.308l-8.093,22.369h5.7l1.337-3.951Zm-4.174-12.394,2.772,8.189h-5.512Z" transform="translate(-3513.077 -621.577)"/></g><g transform="translate(0.001 30.012)"><path class="b" d="M3389.9,679.607h6.914a5.358,5.358,0,0,1-5.417,3.951c-3.919,0-6.274-2.421-6.274-6.563,0-3.886,2.326-6.372,5.831-6.372a4.685,4.685,0,0,1,4.4,2.294h6.021c-1.179-4.588-5.065-7.328-10.417-7.328-6.691,0-11.375,4.715-11.375,11.406s4.715,11.375,11.406,11.375a10.955,10.955,0,0,0,10.771-7.707V675.6H3389.9Z" transform="translate(-3379.581 -665.589)"/></g><g transform="translate(25.2 30.266)"><path class="b" d="M3434.295,673.007c0-3.887-2.74-7.042-8.22-7.042h-9.144v22.366h5.448v-8.443h1.306l4.656,8.443h6.149l-5.165-8.859A6.51,6.51,0,0,0,3434.295,673.007Zm-8.539,3.027h-3.378v-5.544h3.378c2.039,0,2.995,1.083,2.995,2.741,0,1.754-.955,2.8-2.994,2.8Z" transform="translate(-3416.931 -665.965)"/></g><g transform="translate(44.505 30.266)"><path class="b" d="M3453.64,665.965l-8.1,22.366h5.7l1.338-3.951h8.347l1.338,3.951h5.767l-8.093-22.366Zm.382,14.21,2.74-8.189,2.771,8.189Z" transform="translate(-3445.544 -665.965)"/></g><g transform="translate(68.245 30.264)"><path class="b" d="M3480.732,670.327h5.926v18h5.448v-18h5.926v-4.365h-17.3Z" transform="translate(-3480.732 -665.962)"/></g><g transform="translate(88.285 30.267)"><rect class="b" width="5.448" height="22.366"/></g><g transform="translate(97.042 29.951)"><path class="b" d="M3529.25,671.9a1.983,1.983,0,0,1,2.294-2.039,2.421,2.421,0,0,1,2.577,2.253h0v.072h5.9c-.224-4.269-3.5-6.691-8.378-6.691-4.685,0-8.158,2.357-8.158,6.6-.062,7.933,11.12,5.7,11.12,9.845,0,1.306-1.02,2.1-2.613,2.1a2.563,2.563,0,0,1-2.766-2.344v0c-.005-.067-.008-.135-.008-.2h-5.8c.159,4.524,3.918,6.913,8.729,6.913,5.225,0,8.156-3.122,8.156-6.882C3540.306,674.033,3529.25,675.786,3529.25,671.9Z" transform="translate(-3523.414 -665.498)"/></g></g><g transform="translate(3150.71 562.285)"><g transform="translate(0)"><path class="b" d="M3263.222,639.209c19.376-16,40-31.877,40-47.253,0-6.625-3-10.875-9.5-10.875-6.375,0-10.126,5-10.126,13.629h-20.626c.625-22.13,15-31.627,31.627-31.627,20.751,0,30,12.126,30,27.5,0,20-17.879,36-32.377,47.128h33.749v17.376h-62.754Z" transform="translate(-3262.972 -563.083)"/></g></g><g transform="translate(3156.947 562.285)"><path class="a" d="M3272.465,639.209c19.377-16,40-31.877,40-47.253,0-6.625-3-10.875-9.5-10.875-6.375,0-10.125,5-10.125,13.629h-20.626c.625-22.13,15-31.627,31.627-31.627,20.751,0,30,12.126,30,27.5,0,20-17.879,36-32.377,47.128h33.752v17.376h-62.754Z" transform="translate(-3272.216 -563.083)"/></g><g transform="translate(3232.368 601.432)"><g transform="translate(0 0.063)"><path class="a" d="M3395.249,643.98c5.32,0,9.335-2.963,10.611-7.807h-5.99a4.925,4.925,0,0,1-4.684,2.868c-3.345,0-5.639-2.486-5.639-6.436s2.294-6.436,5.639-6.436a4.927,4.927,0,0,1,4.684,2.868h5.99c-1.274-4.843-5.291-7.838-10.611-7.838-6.594,0-11.246,4.715-11.246,11.406S3388.653,643.98,3395.249,643.98Z" transform="translate(-3384.003 -621.199)"/></g><g transform="translate(25.106 0.318)"><path class="a" d="M3434.5,634.959c0,2.644-1.37,4.173-3.95,4.173s-3.887-1.529-3.887-4.173V621.577h-5.448v13.35c0,6.181,4.048,9.243,9.243,9.243,5.162,0,9.5-3.059,9.5-9.243v-13.35H3434.5Z" transform="translate(-3421.214 -621.577)"/></g><g transform="translate(46.737 0)"><path class="a" d="M3464.78,644.013a11.454,11.454,0,1,0-11.5-11.47,11.2,11.2,0,0,0,10.922,11.47C3464.394,644.019,3464.587,644.019,3464.78,644.013Zm0-17.97c3.569,0,5.9,2.517,5.9,6.5,0,3.919-2.326,6.5-5.9,6.5-3.632,0-5.926-2.581-5.926-6.5C3458.854,628.561,3461.147,626.044,3464.78,626.044Z" transform="translate(-3453.275 -621.106)"/></g><g transform="translate(71.495 0.318)"><path class="a" d="M3495.9,643.946h5.448v-18h5.926v-4.365h-17.3v4.365h5.926Z" transform="translate(-3489.971 -621.577)"/></g><g transform="translate(90.07 0.318)"><path class="a" d="M3532.891,639.992l1.338,3.951H3540l-8.091-22.366H3525.6l-8.094,22.369h5.7l1.338-3.951Zm-4.173-12.394,2.771,8.189h-5.512Z" transform="translate(-3517.503 -621.577)"/></g><g transform="translate(0.003 30.012)"><path class="a" d="M3394.326,679.607h6.915a5.356,5.356,0,0,1-5.417,3.951c-3.918,0-6.274-2.421-6.274-6.563,0-3.886,2.326-6.372,5.831-6.372a4.685,4.685,0,0,1,4.4,2.294h6.023c-1.179-4.588-5.067-7.328-10.418-7.328-6.69,0-11.374,4.715-11.374,11.406s4.716,11.375,11.406,11.375a10.955,10.955,0,0,0,10.769-7.71v-5.066h-11.854Z" transform="translate(-3384.008 -665.589)"/></g><g transform="translate(25.201 30.266)"><path class="a" d="M3438.72,673.007c0-3.887-2.74-7.042-8.22-7.042h-9.144v22.366h5.448v-8.443h1.306l4.655,8.443h6.149l-5.161-8.859A6.511,6.511,0,0,0,3438.72,673.007Zm-8.539,3.027H3426.8v-5.544h3.377c2.039,0,2.995,1.083,2.995,2.741,0,1.754-.956,2.8-2.995,2.8Z" transform="translate(-3421.356 -665.965)"/></g><g transform="translate(44.51 30.266)"><path class="a" d="M3458.067,665.965l-8.093,22.366h5.7l1.338-3.951h8.348l1.338,3.951h5.766l-8.092-22.366Zm.382,14.21,2.74-8.189,2.772,8.189Z" transform="translate(-3449.974 -665.965)"/></g><g transform="translate(68.247 30.264)"><path class="a" d="M3485.157,670.327h5.926v18h5.448v-18h5.926v-4.365h-17.3Z" transform="translate(-3485.157 -665.962)"/></g><g transform="translate(88.288 30.267)"><rect class="a" width="5.448" height="22.366"/></g><g transform="translate(97.051 29.951)"><path class="a" d="M3533.679,671.9a1.982,1.982,0,0,1,2.294-2.039,2.42,2.42,0,0,1,2.577,2.251h0c0,.024,0,.049,0,.074h5.895c-.223-4.269-3.5-6.691-8.378-6.691-4.684,0-8.157,2.357-8.157,6.6-.064,7.933,11.12,5.7,11.12,9.845,0,1.306-1.02,2.1-2.613,2.1a2.563,2.563,0,0,1-2.766-2.344v0c-.005-.066-.008-.134-.008-.2h-5.795c.159,4.524,3.919,6.913,8.729,6.913,5.225,0,8.156-3.122,8.156-6.882C3544.734,674.033,3533.679,675.786,3533.679,671.9Z" transform="translate(-3527.85 -665.498)"/></g></g><g transform="translate(3240.738 565.815)"><g transform="translate(0)"><path class="b" d="M3401.643,572.016a4.357,4.357,0,0,1,3.657,1.807v-5.508h3.637v15.739H3405.3v-1.7a4.1,4.1,0,0,1-3.657,1.872c-2.915,0-5.234-2.382-5.234-6.125S3398.73,572.016,3401.643,572.016Zm1.063,3.171a2.642,2.642,0,0,0-2.594,2.914,2.681,2.681,0,0,0,2.594,2.956,2.958,2.958,0,0,0,0-5.871Z" transform="translate(-3396.409 -568.315)"/></g><g transform="translate(14.444 3.695)"><path class="b" d="M3423.049,573.8a4.132,4.132,0,0,1,3.658,1.851v-1.679h3.637v11.867h-3.637v-1.681a4.2,4.2,0,0,1-3.68,1.851c-2.892,0-5.21-2.382-5.21-6.125S3420.133,573.8,3423.049,573.8Zm1.063,3.171a2.643,2.643,0,0,0-2.595,2.914,2.681,2.681,0,0,0,2.595,2.956,2.957,2.957,0,0,0,0-5.87Z" transform="translate(-3417.817 -573.792)"/></g></g><g transform="translate(3096.76 617.793)"><path class="c" d="M3210.543,645.355v14.67h14.26v12.538h-14.26v14.587h-13.276V672.564h-14.259V660.025h14.259v-14.67Z" transform="translate(-3183.008 -645.355)"/></g><g transform="translate(3240.739 585.345)"><g transform="translate(0 0)"><rect class="b" width="26.97" height="3.573"/></g></g><g transform="translate(2917.887 560.63)"><ellipse class="b" cx="76.895" cy="76.926" rx="76.895" ry="76.926"/></g><g transform="translate(2925.575 560.661)"><ellipse class="a" cx="76.895" cy="76.926" rx="76.895" ry="76.926"/></g><g transform="translate(2942.24 605.25)"><g transform="translate(0 0.1)"><path class="b" d="M2963.643,642.435h-9.661V626.913h27.033v71.275h-17.371Z" transform="translate(-2953.982 -626.913)"/></g><g transform="translate(37.371 0)"><path class="b" d="M3055.732,626.765v14.646H3025.28v13.473c2.538-2.834,7.417-4.883,13.078-4.883,15.518,0,21.472,11.814,21.472,23.335,0,15.035-8.784,24.8-24.594,24.8-16.005,0-25.278-8.885-25.862-21.185h16.3c.683,3.711,3.513,7.03,8.979,7.03,6.342,0,9.076-4.588,9.076-10.739,0-6.445-3.221-9.861-9.176-9.861-4.684,0-7.417,2.537-8.3,5.858h-16.1V626.765Z" transform="translate(-3009.373 -626.765)"/></g></g><g transform="translate(3035.142 605.047)"><g transform="translate(0)"><path class="b" d="M3097.163,626.463c3.119,0,5.451,1.906,5.451,5.552s-2.331,5.551-5.451,5.551a5.552,5.552,0,0,1,0-11.1Zm-1.609,5.552c0,1.544.592,2.233,1.577,2.233s1.609-.69,1.609-2.233c0-1.577-.626-2.266-1.609-2.266s-1.58.69-1.58,2.266Zm13-5.19h5.418l-12.643,23.127h-5.418Zm4.2,12.384c3.12,0,5.451,1.872,5.451,5.553,0,3.643-2.331,5.551-5.451,5.551s-5.451-1.906-5.451-5.551c0-3.68,2.331-5.553,5.45-5.553Zm-1.609,5.553c0,1.543.591,2.233,1.576,2.233s1.609-.69,1.609-2.233-.625-2.267-1.609-2.267S3111.152,643.217,3111.152,644.762Z" transform="translate(-3091.679 -626.463)"/></g></g><g transform="translate(3034.124 637.556)"><g transform="translate(0 0.109)"><path class="b" d="M3097.079,678.655a3.72,3.72,0,0,1-4.03,3.846h-2.879v-7.691h2.879A3.715,3.715,0,0,1,3097.079,678.655Zm-4.15,2.223a2.234,2.234,0,1,0,0-4.468h-.886v4.468Z" transform="translate(-3090.17 -674.809)"/></g><g transform="translate(7.738)"><path class="b" d="M3104.639,682.523c-1.653,0-2.945-.821-3-2.377h1.994a.881.881,0,0,0,.883.877h.067c.547,0,.9-.27.9-.723,0-1.424-3.846-.657-3.821-3.385,0-1.457,1.194-2.267,2.8-2.267,1.675,0,2.8.835,2.88,2.294h-2.024a.835.835,0,0,0-.869-.8h-.018a.683.683,0,0,0-.781.565.761.761,0,0,0-.008.135c0,1.337,3.8.733,3.8,3.306C3107.442,681.451,3106.437,682.523,3104.639,682.523Z" transform="translate(-3101.639 -674.648)"/></g><g transform="translate(14.323 0.017)"><path class="b" d="M3115.313,674.678a3.568,3.568,0,0,1,3.643,2.695H3116.9a1.694,1.694,0,0,0-1.609-.986,2.232,2.232,0,0,0,0,4.425,1.691,1.691,0,0,0,1.61-.986h2.059a3.559,3.559,0,0,1-3.643,2.683,3.916,3.916,0,0,1,0-7.831Z" transform="translate(-3111.399 -674.673)"/></g><g transform="translate(22.614 0.109)"><path class="b" d="M3123.689,674.81h5.945v1.5H3127.6v6.19h-1.872v-6.19h-2.037Z" transform="translate(-3123.688 -674.81)"/></g><g transform="translate(29.191)"><path class="b" d="M3137.38,682.523a3.937,3.937,0,1,1,3.931-3.944h0a3.867,3.867,0,0,1-3.789,3.943Zm0-1.708a2.244,2.244,0,1,0-2.037-2.235A2.012,2.012,0,0,0,3137.38,680.815Z" transform="translate(-3133.436 -674.648)"/></g></g><g transform="translate(3272.048 673.591)"><g transform="translate(0.236 24.902)"><g transform="translate(11.014 1.379)"><path class="c" d="M3472.523,768.314a2.635,2.635,0,0,0-.047,5.26h.057a2.367,2.367,0,0,0,1.49-.337v-.86a2.873,2.873,0,0,1-1.25.251,1.4,1.4,0,0,1-1.505-1.106l-.009-.061h.909A4.42,4.42,0,0,0,3474,771.2a.932.932,0,0,0,.544-.935,1.947,1.947,0,0,0-1.946-1.947h-.078m.592,2.226a4.129,4.129,0,0,1-1.227.114h-.634l0-.055.01-.173a1.157,1.157,0,0,1,1.14-1.147,1.234,1.234,0,0,1,.746.2.743.743,0,0,1,.288.621.423.423,0,0,1-.328.437m2.059-.27v3.212h1.192V770.5a1.314,1.314,0,0,1,.242-.877.878.878,0,0,1,.705-.275,1.86,1.86,0,0,1,.325.026v-.945a1.323,1.323,0,0,0-.6-.124,1.778,1.778,0,0,0-1.87,1.679h0a1.836,1.836,0,0,0,.008.284m-15.681,3.211h1.19v-6.469h-1.19Zm4.4-5.172a2.1,2.1,0,0,0-2.277,1.913h0a2.012,2.012,0,0,0-.007.242v3.016h1.184v-2.929a1.359,1.359,0,0,1,.274-.889.914.914,0,0,1,.722-.32,1.031,1.031,0,0,1,.814.317,1.465,1.465,0,0,1,.29.987v2.834h1.181v-2.948a2.084,2.084,0,0,0-1.934-2.226h0a2.092,2.092,0,0,0-.241,0m4.271-1.3h-1.177l0,4.667a1.7,1.7,0,0,0,1.889,1.889c.547,0,.877-.179,1.012-.463v-.735a2.158,2.158,0,0,1-.857.135.844.844,0,0,1-.644-.23,1.064,1.064,0,0,1-.228-.75V769.34h1.033c.5,0,.715-.322.717-.559v-.472h-1.754Z" transform="translate(-3459.492 -767.011)"/><g transform="translate(22.878 1.301)"><path class="c" d="M3497.369,771.822a.929.929,0,0,0,.545-.935,1.946,1.946,0,0,0-1.944-1.947h-.08a2.635,2.635,0,0,0-.047,5.259h.056a2.366,2.366,0,0,0,1.491-.337V773a2.877,2.877,0,0,1-1.25.251,1.4,1.4,0,0,1-1.5-1.106l-.009-.061h.908a4.416,4.416,0,0,0,1.835-.265m-2.748-.54v-.055l.008-.173a1.158,1.158,0,0,1,1.14-1.147,1.234,1.234,0,0,1,.748.2.743.743,0,0,1,.288.621.423.423,0,0,1-.328.437,4.127,4.127,0,0,1-1.227.115Z" transform="translate(-3493.402 -768.94)"/></g><g transform="translate(38.337 1.297)"><path class="c" d="M3516.326,770.9v3.211h1.193v-2.98a1.325,1.325,0,0,1,.243-.877.879.879,0,0,1,.706-.275,1.853,1.853,0,0,1,.324.026v-.944a1.326,1.326,0,0,0-.607-.125,1.779,1.779,0,0,0-1.869,1.683,1.856,1.856,0,0,0,.007.281" transform="translate(-3516.313 -768.933)"/></g><g transform="translate(18.662 1.27)"><path class="c" d="M3488.812,774.167c-.87,0-1.519-.472-1.519-.988v-.57h.043a2.27,2.27,0,0,0,1.421.476c.578,0,.86-.177.86-.551,0-.289-.167-.428-.984-.55-1-.149-1.48-.569-1.48-1.334a1.842,1.842,0,0,1,1.924-1.754h0a.548.548,0,0,1,.081.006c1.073,0,1.51.587,1.51,1.073v.472h-.044a1.991,1.991,0,0,0-1.349-.465c-.72,0-.945.231-.945.559,0,.252.14.355.945.494.98.169,1.508.625,1.508,1.427,0,1.064-.7,1.7-1.972,1.7" transform="translate(-3487.153 -768.894)"/></g><g transform="translate(27.916 1.298)"><path class="c" d="M3505.227,772.675c.008.2.02.472.02.644a2.242,2.242,0,0,1-2.09,2.385,2.074,2.074,0,0,1-.225,0c-.975,0-1.64-.5-1.64-1.1v-.567h.051a2.021,2.021,0,0,0,1.5.54c.849,0,1.234-.428,1.234-1.157,0-.074,0-.177-.007-.262s-.008-.2-.008-.25v-.121a1.2,1.2,0,0,1-1.219.745,1.923,1.923,0,0,1-1.968-1.879V771.5a2.361,2.361,0,0,1,2.149-2.555,2.433,2.433,0,0,1,.252-.009,1.971,1.971,0,0,1,1.929,2.2V772c0,.169.009.457.018.681m-3.149-1.334a1.02,1.02,0,0,0,.883,1.141h0c.02,0,.041,0,.061.006.594,0,1.019-.472,1.019-1.282,0-.791-.374-1.179-.894-1.179a1.175,1.175,0,0,0-1.08,1.262h0a.168.168,0,0,0,0,.048" transform="translate(-3500.868 -768.935)"/></g><g transform="translate(41.076 1.281)"><path class="c" d="M3522.778,768.91a2.351,2.351,0,0,1,2.294,2.4c0,.048,0,.1-.008.143a2.42,2.42,0,0,1-2.4,2.714,2.341,2.341,0,0,1-2.294-2.388c0-.05,0-.1.007-.15a2.428,2.428,0,0,1,2.4-2.724m-.109,1.056c-.718,0-1.083.622-1.083,1.484,0,1.04.366,1.663,1.195,1.663.729,0,1.085-.623,1.085-1.479,0-1.05-.375-1.672-1.2-1.672" transform="translate(-3520.373 -768.909)"/></g><g transform="translate(33.083 1.387)"><path class="c" d="M3510.7,774.258a2.1,2.1,0,0,0,2.278-2.163v-3.027H3511.8v2.94a1.358,1.358,0,0,1-.275.891.907.907,0,0,1-.718.323,1.023,1.023,0,0,1-.81-.318,1.474,1.474,0,0,1-.288-.991v-2.844h-1.178v2.959a2.085,2.085,0,0,0,2.172,2.23" transform="translate(-3508.526 -769.067)"/></g></g><path class="d" d="M3444.4,764.967a1.234,1.234,0,0,0-1.232,1.235v8h8a1.234,1.234,0,0,0,1.234-1.234v-8Zm5.847,6.667-4.925.889v-4.968l4.925-.89Z" transform="translate(-3443.167 -764.967)"/></g><g transform="translate(0 0)"><path class="c" d="M3452.779,741.634v2.825c0,3.4-1.7,5.345-4.981,5.345s-4.981-1.944-4.981-5.345V733.4c0-3.4,1.7-5.346,4.981-5.346s4.981,1.944,4.981,5.346v2.065h-3.159v-2.278c0-1.519-.668-2.1-1.73-2.1s-1.73.578-1.73,2.1v11.48c0,1.519.668,2.065,1.73,2.065s1.73-.547,1.73-2.065v-3.036Z" transform="translate(-3442.817 -728.058)"/><g transform="translate(10.57 0.244)"><path class="c" d="M3462.706,742.633l-4.222-14.214h3.493l2.552,9.688,2.551-9.688h3.189l-4.222,14.214v7.048h-3.34Z" transform="translate(-3458.484 -728.419)"/></g><g transform="translate(23.687 0.244)"><path class="c" d="M3487.92,733.308v.76c0,2.187-.668,3.584-2.159,4.282,1.792.7,2.491,2.308,2.491,4.555v1.731c0,3.28-1.732,5.041-5.073,5.041h-5.254V728.419h5.042C3486.432,728.419,3487.92,730.029,3487.92,733.308Zm-6.652-1.853v5.621h1.306c1.246,0,2.005-.546,2.005-2.248v-1.184c0-1.519-.517-2.187-1.7-2.187Zm0,8.656v6.532h1.913c1.125,0,1.731-.516,1.731-2.1V742.7c0-1.974-.638-2.582-2.159-2.582Z" transform="translate(-3477.925 -728.419)"/></g><g transform="translate(36.024 0.244)"><path class="c" d="M3499.549,737.379h4.588v3.036h-4.588v6.229h5.77v3.036h-9.108V728.419h9.108v3.036h-5.77Z" transform="translate(-3496.211 -728.419)"/></g><g transform="translate(47.198 0.246)"><path class="c" d="M3519.758,749.681a6.562,6.562,0,0,1-.3-2.612v-3.341c0-1.974-.669-2.7-2.187-2.7h-1.154v8.656h-3.34V728.422h5.041c3.463,0,4.951,1.609,4.951,4.889v1.671c0,2.187-.7,3.614-2.187,4.313,1.67.7,2.218,2.308,2.218,4.525v3.28a6.261,6.261,0,0,0,.365,2.582Zm-3.643-18.223v6.53h1.306c1.246,0,2.005-.546,2.005-2.247v-2.1c0-1.519-.517-2.187-1.7-2.187Z" transform="translate(-3512.773 -728.422)"/></g></g></g><g transform="translate(3154.206 684.513)"><path class="c" d="M3274.793,750.757l.294-1.714h-3.756l.505-2.875h4.2l.318-1.744h-6.241l-1.961,11.041h6.25l.315-1.744H3270.5l.532-2.964Z" transform="translate(-3268.154 -744.305)"/><path class="c" d="M3289.421,744.445h-2.378l-2.844,3.718-1.626-3.718h-2.251l2.382,5.455-4.406,5.572h2.379l2.829-3.729,1.623,3.729h2.269l-2.383-5.455Z" transform="translate(-3271.454 -744.312)"/><path class="c" d="M3302.6,744.445h-7.682l-.313,1.729h2.824l-1.634,9.3h2.035l1.634-9.3h2.82Z" transform="translate(-3276.76 -744.312)"/><path class="c" d="M3308.7,746.168h4.2l.313-1.744h-6.24l-1.961,11.041h6.252l.317-1.744h-4.219l.532-2.964h3.761l.294-1.714H3308.2Z" transform="translate(-3280.146 -744.305)"/><path class="c" d="M3325.059,744.424l-1.323,7.482-3.619-7.482h-1.844l-1.961,11.041h2.035l1.336-7.493,3.605,7.493h1.844l1.961-11.041Z" transform="translate(-3283.821 -744.305)"/><path class="c" d="M3337.247,744.445h-3.506l-1.961,11.027h3.625a6.414,6.414,0,0,0,6.734-5.432,4.76,4.76,0,0,0-.812-4.015A5.1,5.1,0,0,0,3337.247,744.445Zm2.847,5.477a4.241,4.241,0,0,1-4.5,3.837h-1.469l1.335-7.539h1.588a3.186,3.186,0,0,1,2.563.93A3.336,3.336,0,0,1,3340.094,749.922Z" transform="translate(-3288.852 -744.311)"/><path class="c" d="M3349.3,744.445l-1.962,11.027h2.034l1.963-11.027Z" transform="translate(-3293.914 -744.312)"/><path class="c" d="M3358.868,752.553l-2.167-8h-2l-1.941,10.952h2.035l1.137-6.43,1.752,6.43h1.4l3.944-6.342-1.117,6.342h2.035l1.931-10.952h-2.029Z" transform="translate(-3295.678 -744.348)"/><path class="c" d="M3378.817,744.265c-.088,0-.181,0-.271,0a6.394,6.394,0,0,0-6.173,6.583,4.434,4.434,0,0,0,4.423,4.671c.086,0,.171,0,.257-.007.1,0,.2,0,.3,0a6.392,6.392,0,0,0,6.15-6.6,4.335,4.335,0,0,0,0-.522A4.416,4.416,0,0,0,3378.817,744.265Zm2.615,4.722a4.385,4.385,0,0,1-4.192,4.638h-.024a2.9,2.9,0,0,1-.42,0,2.6,2.6,0,0,1-2.353-2.839,4.326,4.326,0,0,1,4.2-4.625c.072-.006.145-.009.218-.009s.143,0,.214.009A2.6,2.6,0,0,1,3381.432,748.987Z" transform="translate(-3302.056 -744.249)"/><path class="c" d="M3394.106,744.247c-2.289,0-3.9,1.341-3.913,3.253-.063,1.984,1.577,2.648,2.9,3.182,1.244.5,2,.859,1.946,1.741-.067,1.187-1.324,1.316-1.861,1.316a1.721,1.721,0,0,1-1.292-.456,1.251,1.251,0,0,1-.317-.951l.024-.36h-2l-.033.3a2.676,2.676,0,0,0,.642,2.138,3.834,3.834,0,0,0,2.917,1.1c2.284,0,3.923-1.3,3.986-3.157.1-2.071-1.6-2.8-2.968-3.38-1.212-.517-1.953-.874-1.9-1.668.055-.936.967-1.271,1.8-1.271a1.611,1.611,0,0,1,1.245.446.963.963,0,0,1,.26.735l-.029.364h2.1l.015-.32a2.632,2.632,0,0,0-.717-2A3.748,3.748,0,0,0,3394.106,744.247Z" transform="translate(-3307.642 -744.247)"/><path class="c" d="M3412.063,746.168h4.2l.315-1.744h-6.241l-1.962,11.041h6.253l.315-1.744h-4.219l.532-2.964h3.761l.293-1.714h-3.755Z" transform="translate(-3313.771 -744.305)"/><path class="c" d="M3422.014,753.755l1.649-9.31-2.039,0-1.961,11.027h5.659l.319-1.715Z" transform="translate(-3317.443 -744.311)"/></g><g transform="translate(3142.335 666.451)"><g transform="translate(0.335 0.338)"><path class="a" d="M3442.089,766.046h-182.2a8.642,8.642,0,0,1-6.524-3.036,9.612,9.612,0,0,1-2.2-7.691l4.328-29.461a8.937,8.937,0,0,1,8.722-7.881h181.647a8.527,8.527,0,0,1,6.468,2.973,9.607,9.607,0,0,1,2.279,7.576l-3.773,29.461A9.028,9.028,0,0,1,3442.089,766.046Zm-177.874-47.125a8,8,0,0,0-7.786,7.072l-4.327,29.461a8.658,8.658,0,0,0,1.978,6.935,7.6,7.6,0,0,0,5.808,2.71h182.2a8.078,8.078,0,0,0,7.808-7.234l3.772-29.461a8.664,8.664,0,0,0-2.049-6.831,7.6,7.6,0,0,0-5.759-2.652Z" transform="translate(-3251.055 -717.977)"/></g><path class="a" d="M3441.927,766.22h-182.2a8.97,8.97,0,0,1-6.781-3.155,9.935,9.935,0,0,1-2.275-7.961L3255,725.646a9.306,9.306,0,0,1,9.05-8.17H3445.7a8.861,8.861,0,0,1,6.725,3.09,9.951,9.951,0,0,1,2.362,7.841l-3.774,29.46A9.375,9.375,0,0,1,3441.927,766.22Zm-177.874-48.069a8.63,8.63,0,0,0-8.388,7.583l-4.329,29.47a9.264,9.264,0,0,0,2.122,7.422,8.293,8.293,0,0,0,6.269,2.918h182.2a8.69,8.69,0,0,0,8.413-7.764l3.772-29.461a9.279,9.279,0,0,0-2.2-7.312,8.186,8.186,0,0,0-6.214-2.857Zm-4.328,47.122a7.917,7.917,0,0,1-6.067-2.834,8.99,8.99,0,0,1-2.052-7.2l4.327-29.459a8.367,8.367,0,0,1,8.113-7.361H3445.7a7.93,7.93,0,0,1,6.015,2.77,9,9,0,0,1,2.128,7.1l-3.773,29.459a8.441,8.441,0,0,1-8.133,7.528Zm4.332-46.178a7.692,7.692,0,0,0-7.455,6.774l-4.329,29.47a8.312,8.312,0,0,0,1.9,6.667,7.243,7.243,0,0,0,5.552,2.593h182.2a7.764,7.764,0,0,0,7.473-6.932l3.773-29.468a8.333,8.333,0,0,0-1.969-6.567,7.263,7.263,0,0,0-5.5-2.536Z" transform="translate(-3250.558 -717.476)"/></g></g></svg>