<svg xmlns="http://www.w3.org/2000/svg" xmlns:xlink="http://www.w3.org/1999/xlink" width="416.008" height="241.885" viewBox="0 0 416.008 241.885"><defs><style>.a{fill:none;}.b,.c{fill:#fff;}.c{fill-rule:evenodd;}.d{fill:#ffd508;}.e{fill:#ea0c90;}.f{clip-path:url(#a);}.g{clip-path:url(#b);}.h{fill:#036dc4;}.i{fill:#fdfdfd;}.j{fill:#ffde6e;}.k{fill:#102236;}.l{fill:#ff3c6e;}.m{opacity:0.5;isolation:isolate;}.n{clip-path:url(#c);}.o{fill:#ffdd6e;}.p{fill:#ffdc6d;}.q{fill:#ffdb6d;}.r{fill:#ffda6d;}.s{fill:#ffd96c;}.t{fill:#ffd86c;}.u{fill:#ffd76c;}.v{fill:#ffd66c;}.w{fill:#ffd56b;}.x{fill:#ffd46b;}.y{fill:#ffd36b;}.z{fill:#ffd26a;}.aa{fill:#ffd16a;}.ab{fill:#ffd06a;}.ac{fill:#ffcf69;}.ad{fill:#ffce69;}.ae{fill:#ffcd69;}.af{fill:#ffcc68;}.ag{fill:#ffcb68;}.ah{fill:#ffca68;}.ai{fill:#ffc967;}.aj{fill:#ffc867;}.ak{fill:#ffc767;}.al{fill:#ffc667;}.am{fill:#ffc566;}.an{fill:#ffc466;}.ao{fill:#ffc366;}.ap{fill:#ffc265;}.aq{fill:#ffc165;}.ar{fill:#ffc065;}.as{fill:#ffbf64;}.at{fill:#ffbe64;}.au{fill:#ffbd64;}.av{fill:#ffbc63;}.aw{fill:#ffbb63;}.ax{fill:#ffba63;}.ay{fill:#ffb963;}.az{fill:#ffb862;}.ba{fill:#ffb762;}.bb{fill:#ffb662;}.bc{fill:#ffb561;}.bd{fill:#ffb461;}.be{fill:#ffb361;}.bf{fill:#ffb260;}.bg{fill:#ffb160;}.bh{fill:#ffb060;}.bi{fill:#ffaf5f;}.bj{fill:#ffae5f;}.bk{fill:#ffad5f;}.bl{fill:#ffac5e;}.bm{fill:#ffab5e;}.bn{fill:#ffaa5e;}.bo{fill:#ffa95e;}.bp{fill:#ffa85d;}.bq{fill:#ffa75d;}.br{fill:#ffa65d;}.bs{fill:#ffa55c;}.bt{fill:#ffa45c;}.bu{fill:#ffa35c;}.bv{fill:#ffa25b;}.bw{fill:#ffa15b;}.bx{fill:#ffa05b;}.by{fill:#ff9f5a;}.bz{fill:#ff9e5a;}.ca{fill:#ff9d5a;}.cb{fill:#ff9c5a;}.cc{fill:#ff9b59;}.cd{fill:#ff9a59;}.ce{fill:#ff9959;}.cf{fill:#ff9858;}.cg{fill:#ff9758;}.ch{fill:#ff9658;}.ci{fill:#ff9457;}.cj{fill:#ff9357;}.ck{fill:#ff9257;}.cl{fill:#ff9156;}.cm{fill:#ff9056;}.cn{fill:#ff8f56;}.co{fill:#ff8e55;}.cp{fill:#ff8d55;}.cq{fill:#ff8c55;}.cr{fill:#ff8b55;}.cs{fill:#ff8a54;}.ct{fill:#ff8954;}.cu{fill:#ff8854;}.cv{fill:#ff8753;}.cw{fill:#ff8653;}.cx{fill:#ff8553;}.cy{fill:#ff8452;}.cz{fill:#ff8352;}.da{fill:#ff8252;}.db{fill:#ff8151;}.dc{fill:#ff8051;}.dd{fill:#ff7f51;}.de{fill:#ff7e51;}.df{fill:#ff7d50;}.dg{fill:#ff7c50;}.dh{fill:#ff7b50;}.di{fill:#ff7a4f;}.dj{fill:#ff794f;}.dk{fill:#ff784f;}.dl{fill:#ff774e;}.dm{fill:#ff764e;}.dn{fill:#ff754e;}.do{fill:#ff744d;}.dp{fill:#ff734d;}.dq{fill:#ff724d;}.dr{fill:#ff714c;}.ds{fill:#ff704c;}.dt{fill:#ff6f4c;}.du{fill:#ff6e4c;}.dv{fill:#ff6d4b;}.dw{fill:#ff6c4b;}.dx{fill:#ff6b4b;}.dy{fill:#ff6a4a;}.dz{fill:#ff694a;}.ea{fill:#ff684a;}.eb{fill:#ff6749;}.ec{fill:#ff6649;}.ed{fill:#ff6549;}.ee{fill:#ff6448;}.ef{fill:#ff6348;}.eg{fill:#ff6248;}.eh{fill:#ff6148;}.ei{fill:#ff6047;}.ej{fill:#ff5f47;}.ek{fill:#ff5e47;}.el{fill:#ff5d46;}.em{fill:#ff5c46;}.en{fill:#ff5b46;}.eo{fill:#ff5a45;}.ep{fill:#ff5945;}.eq{fill:#ff5845;}.er{fill:#ff5744;}.es{fill:#ff5644;}.et{fill:#f54;}.eu{fill:#ff5443;}.ev{fill:#ff5343;}.ew{fill:#ff5243;}.ex{fill:#ff5143;}.ey{fill:#ff5042;}.ez{fill:#ff4f42;}.fa{fill:#ff4e42;}.fb{fill:#ff4d41;}.fc{fill:#ff4c41;}</style><clipPath id="a"><path class="a" d="M1383.27,1662.524l-24.086,27.761,40.684,6.166Z" transform="translate(-1359.184 -1662.524)"/></clipPath><clipPath id="b"><circle class="a" cx="20.725" cy="20.725" r="20.725"/></clipPath><clipPath id="c"><circle class="a" cx="3.723" cy="3.723" r="3.723"/></clipPath></defs><g transform="translate(-1089.509 -1630.451)"><g transform="translate(1124.927 1685.556)"><g transform="translate(0 8.169)"><g transform="translate(0.932 98.054)"><g transform="translate(43.372 5.423)"><path class="b" d="M1205.1,1751.316c-5.724,0-9.781,4.13-9.8,10.825a9.751,9.751,0,0,0,9.608,9.893c.076,0,.154,0,.229,0A9.329,9.329,0,0,0,1211,1770.7v-3.387a11.347,11.347,0,0,1-4.919.989,5.5,5.5,0,0,1-5.936-4.355l-.035-.239h3.577a17.364,17.364,0,0,0,7.23-1.044,3.672,3.672,0,0,0,2.143-3.682,7.664,7.664,0,0,0-7.661-7.667c-.105,0-.209,0-.313.007m2.33,8.772a16.269,16.269,0,0,1-4.831.449H1200.1l.013-.216.038-.681a4.561,4.561,0,0,1,4.492-4.523,4.868,4.868,0,0,1,2.94.806,2.927,2.927,0,0,1,1.133,2.447,1.666,1.666,0,0,1-1.289,1.718m8.107-1.05v12.644h4.695v-11.735a5.188,5.188,0,0,1,.956-3.463,3.468,3.468,0,0,1,2.777-1.082,7.54,7.54,0,0,1,1.278.1v-3.723a5.2,5.2,0,0,0-2.376-.495c-5.258,0-7.313,3.733-7.331,7.733m-61.747,12.644h4.688V1746.2h-4.688Zm17.328-20.367c-6.256,0-8.983,4.287-9,8.488v11.872h4.661v-11.542a5.337,5.337,0,0,1,1.08-3.5,3.6,3.6,0,0,1,2.843-1.263,4.052,4.052,0,0,1,3.2,1.248,5.751,5.751,0,0,1,1.14,3.888v11.164h4.655v-11.609a8.213,8.213,0,0,0-7.641-8.747,8.019,8.019,0,0,0-.933-.01m16.819-5.111H1183.3l.015,18.378c.026,4.665,2.375,7.42,7.446,7.44,2.153,0,3.448-.7,3.98-1.824v-2.9a8.523,8.523,0,0,1-3.372.534,3.331,3.331,0,0,1-2.533-.905,4.184,4.184,0,0,1-.9-2.955v-8.6H1192c1.978,0,2.816-1.266,2.826-2.2v-1.86h-6.887Z" transform="translate(-1153.78 -1746.178)"/><g transform="translate(90.095 5.133)"><path class="b" d="M1224.046,1760.637a3.671,3.671,0,0,0,2.143-3.682,7.662,7.662,0,0,0-7.659-7.664c-.1,0-.208,0-.312,0-5.725,0-9.785,4.13-9.8,10.825a9.752,9.752,0,0,0,9.608,9.893c.074,0,.15,0,.224,0a9.335,9.335,0,0,0,5.869-1.337v-3.387a11.36,11.36,0,0,1-4.921.989,5.5,5.5,0,0,1-5.936-4.355l-.033-.239h3.577a17.327,17.327,0,0,0,7.227-1.044m-10.822-2.119.016-.216.033-.681a4.56,4.56,0,0,1,4.487-4.522,4.851,4.851,0,0,1,2.943.806,2.905,2.905,0,0,1,1.135,2.447,1.67,1.67,0,0,1-1.289,1.718,16.277,16.277,0,0,1-4.831.448Z" transform="translate(-1208.42 -1749.291)"/></g><g transform="translate(151.021 5.111)"><path class="b" d="M1245.37,1757.026v12.643h4.7v-11.735a5.183,5.183,0,0,1,.956-3.463,3.467,3.467,0,0,1,2.777-1.082,7.744,7.744,0,0,1,1.278.1v-3.718a5.24,5.24,0,0,0-2.378-.495c-5.257,0-7.309,3.735-7.331,7.733" transform="translate(-1245.37 -1749.278)"/></g><g transform="translate(73.492 5.052)"><path class="b" d="M1204.891,1769.964c-3.426,0-5.982-1.871-5.982-3.891v-2.244h.165a8.942,8.942,0,0,0,5.595,1.875c2.282,0,3.385-.7,3.385-2.171,0-1.138-.66-1.685-3.873-2.165-3.932-.587-5.829-2.241-5.829-5.253,0-3.713,3.133-6.871,7.9-6.871,4.223,0,5.936,2.309,5.936,4.225v1.872h-.165a7.85,7.85,0,0,0-5.318-1.832c-2.836,0-3.732.913-3.732,2.2,0,.99.554,1.4,3.732,1.948,3.861.66,5.936,2.462,5.936,5.622,0,4.19-2.763,6.685-7.765,6.685" transform="translate(-1198.351 -1749.242)"/></g><g transform="translate(109.963 5.103)"><path class="b" d="M1237.609,1764.016c.035.806.074,1.873.074,2.534,0,4.96-3.11,9.4-9.12,9.4-3.837,0-6.461-1.979-6.461-4.333v-2.243h.206a7.947,7.947,0,0,0,5.911,2.13c3.345,0,4.863-1.688,4.863-4.556,0-.29,0-.7-.031-1.031,0-.29-.033-.806-.033-.989v-.475a4.745,4.745,0,0,1-4.8,2.935,7.583,7.583,0,0,1-7.748-7.417c0-.2,0-.4.01-.6,0-5.583,3.448-10.1,9.46-10.1,4.634,0,7.6,3.6,7.6,8.673v3.38c0,.66.033,1.8.069,2.683m-12.4-5.253c0,2.6,1.5,4.528,3.733,4.528,2.335,0,4.012-1.855,4.012-5.047,0-3.118-1.469-4.64-3.521-4.64-2.406,0-4.224,2.154-4.224,5.158" transform="translate(-1220.47 -1749.273)"/></g><g transform="translate(161.793 5.05)"><path class="b" d="M1261.335,1749.243c5.717,0,9.006,4.782,9.006,10.032,0,5.951-3.29,10.688-9.432,10.688-5.718,0-9.006-4.739-9.006-9.992,0-5.954,3.286-10.729,9.432-10.729m-.429,4.158c-2.831,0-4.272,2.45-4.272,5.859,0,4.094,1.441,6.548,4.706,6.548,2.87,0,4.271-2.453,4.271-5.822,0-4.134-1.474-6.584-4.706-6.584" transform="translate(-1251.903 -1749.241)"/></g><g transform="translate(130.273 5.473)"><path class="b" d="M1241.359,1769.933c6.235-.008,8.955-4.3,8.969-8.518V1749.5h-4.642v11.58a5.372,5.372,0,0,1-1.08,3.507,3.573,3.573,0,0,1-2.831,1.271,4.026,4.026,0,0,1-3.194-1.255,5.8,5.8,0,0,1-1.133-3.9v-11.2h-4.64v11.653a8.211,8.211,0,0,0,7.6,8.774,8.329,8.329,0,0,0,.95.011" transform="translate(-1232.787 -1749.497)"/></g></g><path class="c" d="M1132.334,1742.889a4.858,4.858,0,0,0-4.858,4.857h0v31.514h31.515a4.861,4.861,0,0,0,4.861-4.859v-31.51Zm23.022,26.25-19.383,3.5v-19.566l19.383-3.5Z" transform="translate(-1127.476 -1742.889)"/></g><path class="b" d="M1166.146,1736.877V1748c0,13.4-6.7,21.05-19.614,21.05s-19.622-7.654-19.622-21.05v-43.531c0-13.4,6.7-21.05,19.622-21.05s19.614,7.654,19.614,21.05v8.132h-12.438v-8.97c0-5.98-2.638-8.244-6.818-8.244s-6.817,2.272-6.817,8.244v45.207c0,5.981,2.638,8.131,6.817,8.131s6.818-2.143,6.818-8.131V1736.88Z" transform="translate(-1126.911 -1683.422)"/><g transform="translate(41.629 0.951)"><path class="b" d="M1168.782,1739.97,1152.158,1684h13.753l10.047,38.151L1186,1684h12.558l-16.624,55.971v27.747h-13.155Z" transform="translate(-1152.158 -1683.999)"/></g><g transform="translate(93.299 0.955)"><path class="b" d="M1222.841,1703.255v2.989c0,8.609-2.638,14.113-8.492,16.863,7.055,2.75,9.807,9.09,9.807,17.938v6.816c0,12.917-6.818,19.855-19.973,19.855h-20.69V1684h19.853C1216.976,1684,1222.841,1690.338,1222.841,1703.255Zm-26.193-7.3v22.126h5.143c4.9,0,7.894-2.15,7.894-8.85v-4.671c0-5.977-2.033-8.608-6.7-8.608Zm0,34.087v25.713h7.534c4.425,0,6.816-2.033,6.816-8.244v-7.3c0-7.774-2.511-10.167-8.492-10.167Z" transform="translate(-1183.494 -1684.001)"/></g><g transform="translate(141.856 0.951)"><path class="b" d="M1226.091,1719.282h18.059v11.958h-18.059v24.517h22.73v11.959h-35.878V1684h35.878v11.959H1226.1Z" transform="translate(-1212.943 -1683.999)"/></g><g transform="translate(185.855 0.953)"><path class="b" d="M1267.14,1767.717c-.717-2.152-1.2-3.464-1.2-10.287v-13.155c0-7.774-2.638-10.643-8.612-10.643h-4.551v34.085h-13.155V1684h19.853c13.635,0,19.495,6.338,19.495,19.256v6.577c0,8.609-2.75,14.231-8.612,16.983,6.577,2.75,8.739,9.09,8.739,17.818v12.916a24.664,24.664,0,0,0,1.434,10.167Zm-14.345-71.759v25.713h5.143c4.9,0,7.893-2.15,7.893-8.848v-8.245c0-5.979-2.033-8.61-6.7-8.61Z" transform="translate(-1239.627 -1684)"/></g></g><g transform="translate(249.509)"><g transform="translate(0)"><circle class="d" cx="65.086" cy="65.086" r="65.086"/></g><g transform="translate(8.511 37.144)"><path class="e" d="M1321.443,1707.855h-4.391l-.069.438a7.272,7.272,0,0,1-7.293,6.449,8.046,8.046,0,0,1-5.284-1.91l-.087-.053c-.269-.134-.611-.064-1.077.225a7.869,7.869,0,0,0-3.25,6.664c0,4.711,3.692,8.137,8.785,8.137a9.4,9.4,0,0,0,4.711-1.229v36.242c0,4.359,2.238,6.76,6.3,6.76h1.655a6.414,6.414,0,0,0,4.838-1.731,7.039,7.039,0,0,0,1.646-5.028v-48.2C1327.927,1710.2,1325.685,1707.855,1321.443,1707.855Z" transform="translate(-1299.987 -1707.855)"/><g transform="translate(36.19 0.648)"><path class="e" d="M1353.248,1730.489a30.912,30.912,0,0,0-10.313,1.8v-11.876h23.447c4.61,0,6.851-1.88,6.851-5.75v-.46c0-3.877-2.3-5.841-6.851-5.841h-28.828c-4.536,0-7.036,2.857-7.036,8.045v19.648c0,5.459,2.776,8.212,8.486,8.412h.185l.146-.111a19.118,19.118,0,0,1,11.991-3.565c7.3,0,11.331,3.207,11.331,9.032,0,5.627-4.516,9.123-11.786,9.123a19.193,19.193,0,0,1-16.03-7.794c-.323-.405-.923-.2-1.119-.127-1.361.477-5.309,3.1-5.309,6.875,0,2.988,2.218,6,6.086,8.262,2.982,1.744,8.276,3.819,16.551,3.819,15.213,0,24.663-7.725,24.663-20.163C1375.708,1738.08,1366.892,1730.489,1353.248,1730.489Z" transform="translate(-1328.412 -1708.364)"/></g></g><g transform="translate(94.891 38.695)"><path class="e" d="M1367.834,1714.238v-.248a4.741,4.741,0,0,1,4.657-4.823c.125,0,.251,0,.376.008a4.683,4.683,0,0,1,4.958,4.39c.008.131.01.262.008.393v.248a4.736,4.736,0,0,1-4.645,4.823c-.118,0-.238,0-.356-.008a4.711,4.711,0,0,1-4.99-4.414C1367.834,1714.484,1367.832,1714.362,1367.834,1714.238Zm1.584,14.259a2.218,2.218,0,0,1,.839-1.585l15.627-17.8c.155-.186,1.864.279,1.864,1.4a2.73,2.73,0,0,1-.839,1.646l-15.626,17.77c-.156.185-1.865-.349-1.865-1.431Zm5.5-14.132v-.5a2.108,2.108,0,0,0-1.841-2.345,1.923,1.923,0,0,0-.241-.015,2.077,2.077,0,0,0-2.1,2.049,2.149,2.149,0,0,0,.02.312v.5a2.091,2.091,0,0,0,1.877,2.289,2.07,2.07,0,0,0,.236.01,2.049,2.049,0,0,0,2.066-2.03,1.966,1.966,0,0,0-.015-.272Zm4.5,10.717v-.255a4.759,4.759,0,0,1,4.694-4.823c.113,0,.225,0,.339.008a4.667,4.667,0,0,1,4.958,4.355c.009.142.012.286.008.429v.248a4.724,4.724,0,0,1-4.628,4.82c-.112,0-.225,0-.337-.005a4.717,4.717,0,0,1-5.023-4.392c-.009-.13-.013-.258-.01-.388Zm7.113.093v-.5a2.124,2.124,0,0,0-1.874-2.348c-.069-.008-.139-.012-.208-.013a2.077,2.077,0,0,0-2.1,2.05,2.143,2.143,0,0,0,.02.311v.5a2.08,2.08,0,0,0,1.814,2.316,1.877,1.877,0,0,0,.267.015,2.1,2.1,0,0,0,2.1-2.1,2.053,2.053,0,0,0-.013-.237Z" transform="translate(-1367.833 -1709.073)"/></g><g transform="translate(95.512 64.404)"><g transform="translate(0 0.099)"><path class="e" d="M1368.324,1730.033a.61.61,0,0,1,.547-.666.738.738,0,0,1,.079,0h1.336a2.517,2.517,0,0,1,2.826,2.615,2.564,2.564,0,0,1-2.453,2.671,2.645,2.645,0,0,1-.414-.016h-1.254a.663.663,0,0,1-.667-.661Zm3.592,1.954a1.491,1.491,0,0,0-1.373-1.6,1.64,1.64,0,0,0-.282.005h-.741v3.217h.726a1.509,1.509,0,0,0,1.671-1.622Z" transform="translate(-1368.321 -1729.344)"/></g><g transform="translate(5.28)"><path class="e" d="M1372.468,1733.7c0-.333.415-.636.456-.594a2.142,2.142,0,0,0,1.563.708c.626,0,.961-.228.961-.636,0-.472-.53-.571-1.146-.709-.839-.187-1.7-.5-1.7-1.58,0-.978.782-1.621,2.052-1.621a2.585,2.585,0,0,1,1.515.391.725.725,0,0,1,.367.578.785.785,0,0,1-.472.628,1.888,1.888,0,0,0-1.4-.644c-.57,0-.912.237-.912.619,0,.456.472.521,1.124.668.952.213,1.783.6,1.783,1.6,0,1.051-.773,1.662-2.158,1.662a2.651,2.651,0,0,1-1.7-.481A.754.754,0,0,1,1372.468,1733.7Z" transform="translate(-1372.468 -1729.266)"/></g><g transform="translate(9.983 0.004)"><path class="e" d="M1378.887,1729.271a2.564,2.564,0,0,1,1.539.439,1.048,1.048,0,0,1,.48.758c0,.529-.676.652-.693.611a1.438,1.438,0,0,0-1.287-.717,1.515,1.515,0,0,0-1.521,1.508,1.42,1.42,0,0,0,.006.147,1.538,1.538,0,0,0,1.412,1.656c.038,0,.078.005.116.005a1.347,1.347,0,0,0,1.3-.791c.017-.05.717.073.717.6a1.133,1.133,0,0,1-.509.806,2.755,2.755,0,0,1-4.286-2.026c0-.083,0-.164,0-.247a2.619,2.619,0,0,1,2.48-2.751C1378.726,1729.269,1378.807,1729.269,1378.887,1729.271Z" transform="translate(-1376.161 -1729.269)"/></g><g transform="translate(15.094 0.122)"><path class="e" d="M1381.919,1730.41h-1.189c-.359,0-.554-.18-.554-.509v-.041c0-.326.195-.5.554-.5h3.565c.367,0,.554.172.554.5v.041c0,.333-.187.509-.554.509h-1.165v3.706a.49.49,0,0,1-.424.545.605.605,0,0,1-.113,0h-.171c-.326,0-.5-.187-.5-.545Z" transform="translate(-1380.176 -1729.362)"/></g><g transform="translate(19.912 0.006)"><path class="e" d="M1383.964,1732.025a2.639,2.639,0,0,1,2.522-2.751c.066,0,.132,0,.2,0a2.61,2.61,0,0,1,2.705,2.511c0,.078,0,.156,0,.234a2.625,2.625,0,0,1-2.49,2.751c-.074,0-.148,0-.222,0a2.612,2.612,0,0,1-2.714-2.507C1383.959,1732.184,1383.96,1732.105,1383.964,1732.025Zm4.234,0a1.54,1.54,0,0,0-1.389-1.678,1.322,1.322,0,0,0-.139-.008,1.513,1.513,0,0,0-1.524,1.5,1.314,1.314,0,0,0,.009.174,1.527,1.527,0,0,0,1.361,1.678,1.413,1.413,0,0,0,.167.008,1.527,1.527,0,0,0,1.527-1.529,1.449,1.449,0,0,0-.008-.149Z" transform="translate(-1383.96 -1729.271)"/></g><g transform="translate(25.97 4.245)"><path class="e" d="M1388.723,1733.15a.483.483,0,0,1,.41-.545.491.491,0,0,1,.136,0h.139a.486.486,0,0,1,.552.41.48.48,0,0,1,0,.135v.115a.489.489,0,0,1-.424.546.5.5,0,0,1-.13,0h-.139a.486.486,0,0,1-.546-.418.542.542,0,0,1,0-.127Z" transform="translate(-1388.718 -1732.6)"/></g></g></g></g><g transform="translate(1089.509 1630.451)"><g transform="translate(343.343 40.835)"><g class="f"><g transform="translate(-33.639 -18.969)"><g transform="translate(0 0)"><rect class="b" width="98.721" height="1.69" transform="matrix(0.967, -0.253, 0.253, 0.967, 0, 24.984)"/><g transform="translate(0.516 1.977)"><rect class="b" width="98.721" height="1.69" transform="matrix(0.967, -0.253, 0.253, 0.967, 0, 24.984)"/></g><g transform="translate(1.033 3.955)"><rect class="b" width="98.72" height="1.69" transform="matrix(0.967, -0.253, 0.253, 0.967, 0, 24.984)"/></g><g transform="translate(1.548 5.932)"><rect class="b" width="98.721" height="1.69" transform="matrix(0.967, -0.253, 0.253, 0.967, 0, 24.984)"/></g><g transform="translate(2.064 7.909)"><rect class="b" width="98.721" height="1.69" transform="matrix(0.967, -0.253, 0.253, 0.967, 0, 24.984)"/></g><g transform="translate(2.581 9.886)"><rect class="b" width="98.721" height="1.69" transform="matrix(0.967, -0.253, 0.253, 0.967, 0, 24.984)"/></g><g transform="translate(3.097 11.864)"><rect class="b" width="98.72" height="1.69" transform="matrix(0.967, -0.253, 0.253, 0.967, 0, 24.984)"/></g><g transform="translate(3.612 13.84)"><rect class="b" width="98.721" height="1.69" transform="matrix(0.967, -0.253, 0.253, 0.967, 0, 24.984)"/></g><g transform="translate(4.129 15.818)"><rect class="b" width="98.721" height="1.69" transform="matrix(0.967, -0.253, 0.253, 0.967, 0, 24.984)"/></g><g transform="translate(4.645 17.795)"><rect class="b" width="98.72" height="1.69" transform="matrix(0.967, -0.253, 0.253, 0.967, 0, 24.984)"/></g><g transform="translate(5.161 19.772)"><rect class="b" width="98.72" height="1.69" transform="matrix(0.967, -0.253, 0.253, 0.967, 0, 24.984)"/></g><g transform="translate(5.677 21.75)"><rect class="b" width="98.721" height="1.69" transform="matrix(0.967, -0.253, 0.253, 0.967, 0, 24.984)"/></g><g transform="translate(6.193 23.727)"><rect class="b" width="98.721" height="1.69" transform="matrix(0.967, -0.253, 0.253, 0.967, 0, 24.984)"/></g><g transform="translate(6.709 25.704)"><rect class="b" width="98.72" height="1.69" transform="matrix(0.967, -0.253, 0.253, 0.967, 0, 24.984)"/></g><g transform="translate(7.225 27.681)"><rect class="b" width="98.721" height="1.69" transform="matrix(0.967, -0.253, 0.253, 0.967, 0, 24.984)"/></g><g transform="translate(7.741 29.659)"><rect class="b" width="98.721" height="1.69" transform="matrix(0.967, -0.253, 0.253, 0.967, 0, 24.984)"/></g><g transform="translate(8.257 31.636)"><rect class="b" width="98.721" height="1.69" transform="matrix(0.967, -0.253, 0.253, 0.967, 0, 24.984)"/></g><g transform="translate(8.774 33.613)"><rect class="b" width="98.72" height="1.69" transform="matrix(0.967, -0.253, 0.253, 0.967, 0, 24.984)"/></g><g transform="translate(9.289 35.59)"><rect class="b" width="98.721" height="1.69" transform="matrix(0.967, -0.253, 0.253, 0.967, 0, 24.984)"/></g><g transform="translate(9.805 37.568)"><rect class="b" width="98.721" height="1.69" transform="matrix(0.967, -0.253, 0.253, 0.967, 0, 24.984)"/></g><g transform="translate(10.322 39.545)"><rect class="b" width="98.72" height="1.69" transform="matrix(0.967, -0.253, 0.253, 0.967, 0, 24.984)"/></g><g transform="translate(10.838 41.522)"><rect class="b" width="98.72" height="1.69" transform="matrix(0.967, -0.253, 0.253, 0.967, 0, 24.984)"/></g><g transform="translate(11.353 43.499)"><rect class="b" width="98.721" height="1.69" transform="matrix(0.967, -0.253, 0.253, 0.967, 0, 24.984)"/></g><g transform="translate(11.87 45.476)"><rect class="b" width="98.721" height="1.69" transform="matrix(0.967, -0.253, 0.253, 0.967, 0, 24.984)"/></g></g></g></g></g><g transform="translate(278.85 195.193)"><g class="g"><g transform="translate(-34.826 -39.935)"><g transform="translate(0 0)"><g transform="translate(40.888)"><rect class="b" width="1.425" height="104.546" transform="matrix(0.821, -0.57, 0.57, 0.821, 0, 0.813)"/></g><g transform="translate(39.109 1.234)"><rect class="b" width="1.425" height="104.547" transform="matrix(0.821, -0.57, 0.57, 0.821, 0, 0.813)"/></g><g transform="translate(37.332 2.469)"><rect class="b" width="1.425" height="104.546" transform="matrix(0.821, -0.57, 0.57, 0.821, 0, 0.813)"/></g><g transform="translate(35.554 3.702)"><rect class="b" width="1.425" height="104.547" transform="matrix(0.821, -0.57, 0.57, 0.821, 0, 0.813)"/></g><g transform="translate(33.778 4.936)"><rect class="b" width="1.425" height="104.546" transform="matrix(0.821, -0.57, 0.57, 0.821, 0, 0.813)"/></g><g transform="translate(31.998 6.17)"><rect class="b" width="1.425" height="104.547" transform="matrix(0.821, -0.57, 0.57, 0.821, 0, 0.813)"/></g><g transform="translate(30.222 7.405)"><rect class="b" width="1.425" height="104.546" transform="matrix(0.821, -0.57, 0.57, 0.821, 0, 0.813)"/></g><g transform="translate(28.444 8.638)"><rect class="b" width="1.425" height="104.547" transform="matrix(0.821, -0.57, 0.57, 0.821, 0, 0.813)"/></g><g transform="translate(26.664 9.872)"><rect class="b" width="1.425" height="104.547" transform="matrix(0.821, -0.57, 0.57, 0.821, 0, 0.813)"/></g><g transform="translate(24.888 11.107)"><rect class="b" width="1.425" height="104.547" transform="matrix(0.821, -0.57, 0.57, 0.821, 0, 0.813)"/></g><g transform="translate(23.11 12.341)"><rect class="b" width="1.425" height="104.547" transform="matrix(0.821, -0.57, 0.57, 0.821, 0, 0.813)"/></g><g transform="translate(21.333 13.574)"><rect class="b" width="1.425" height="104.547" transform="matrix(0.821, -0.57, 0.57, 0.821, 0, 0.813)"/></g><g transform="translate(19.554 14.808)"><rect class="b" width="1.425" height="104.547" transform="matrix(0.821, -0.57, 0.57, 0.821, 0, 0.813)"/></g><g transform="translate(17.777 16.043)"><rect class="b" width="1.425" height="104.546" transform="matrix(0.821, -0.57, 0.57, 0.821, 0, 0.813)"/></g><g transform="translate(15.999 17.277)"><rect class="b" width="1.425" height="104.547" transform="matrix(0.821, -0.57, 0.57, 0.821, 0, 0.813)"/></g><g transform="translate(14.221 18.511)"><rect class="b" width="1.425" height="104.546" transform="matrix(0.821, -0.57, 0.57, 0.821, 0, 0.813)"/></g><g transform="translate(12.443 19.745)"><rect class="b" width="1.425" height="104.547" transform="matrix(0.821, -0.57, 0.57, 0.821, 0, 0.813)"/></g><g transform="translate(10.666 20.979)"><rect class="b" width="1.425" height="104.546" transform="matrix(0.821, -0.57, 0.57, 0.821, 0, 0.813)"/></g><g transform="translate(8.887 22.213)"><rect class="b" width="1.425" height="104.547" transform="matrix(0.821, -0.57, 0.57, 0.821, 0, 0.813)"/></g><g transform="translate(7.111 23.447)"><rect class="b" width="1.425" height="104.547" transform="matrix(0.821, -0.57, 0.57, 0.821, 0, 0.813)"/></g><g transform="translate(5.333 24.682)"><rect class="b" width="1.425" height="104.547" transform="matrix(0.821, -0.57, 0.57, 0.821, 0, 0.813)"/></g><g transform="translate(3.556 25.916)"><rect class="b" width="1.425" height="104.547" transform="matrix(0.821, -0.57, 0.57, 0.821, 0, 0.813)"/></g><g transform="translate(1.777 27.149)"><rect class="b" width="1.425" height="104.547" transform="matrix(0.821, -0.57, 0.57, 0.821, 0, 0.813)"/></g><g transform="translate(0 28.384)"><rect class="b" width="1.425" height="104.547" transform="matrix(0.821, -0.57, 0.57, 0.821, 0, 0.813)"/></g></g></g></g></g><g transform="translate(0 155.229)"><circle class="b" cx="2.415" cy="2.415" r="2.415"/></g><g transform="translate(12.601 86)"><circle class="b" cx="2.415" cy="2.415" r="2.415"/></g><g transform="translate(388.049)"><path class="b" d="M1399.76,1641.375a5.462,5.462,0,1,1,5.462-5.462A5.468,5.468,0,0,1,1399.76,1641.375Zm0-7.013a1.551,1.551,0,1,0,1.549,1.551A1.553,1.553,0,0,0,1399.76,1634.362Z" transform="translate(-1394.298 -1630.451)"/></g><g transform="translate(247.566 178.589)"><circle class="b" cx="1.818" cy="1.818" r="1.818"/></g><g transform="translate(80.812 42.291)"><circle class="b" cx="1.818" cy="1.818" r="1.818"/></g><g transform="translate(15.818 46.132)"><g transform="translate(7.202 0)"><path class="b" d="M1120.415,1673.61a5.463,5.463,0,1,1,5.462-5.462A5.469,5.469,0,0,1,1120.415,1673.61Zm0-7.014a1.551,1.551,0,1,0,1.551,1.552A1.553,1.553,0,0,0,1120.415,1666.6Z" transform="translate(-1114.953 -1662.685)"/></g><g transform="translate(0 172.821)"><g transform="translate(0)"><path class="b" d="M1127.077,1801.833a6.909,6.909,0,1,1,6.91-6.91A6.915,6.915,0,0,1,1127.077,1801.833Zm0-9.907a3,3,0,1,0,3,3A3,3,0,0,0,1127.077,1791.926Z" transform="translate(-1120.17 -1788.015)"/></g></g><g transform="translate(176.815 177.911)"><circle class="b" cx="1.818" cy="1.818" r="1.818"/></g></g><g transform="translate(84.301 42.021)"><g transform="translate(186.137)"><circle class="h" cx="12.872" cy="12.872" r="12.872"/><g transform="translate(10.56 4.489)"><path class="i" d="M1198.479,1664.677h-.127a1.179,1.179,0,0,0,.079-2.357h-3.859a6.174,6.174,0,0,0,1.1-2.862c0-1.515-.83-2.357-1.371-2.453a.929.929,0,0,0-1.095.649c-.156.457.121,1.323.013,1.632a27.761,27.761,0,0,1-2.13,2.564,4.366,4.366,0,0,0-.866,2.825v5.159a.735.735,0,0,0,.734.733h7.015a.854.854,0,0,0,.068-1.707h.053a1.047,1.047,0,0,0,0-2.092h.382a1.046,1.046,0,0,0,0-2.09Z" transform="translate(-1190.216 -1656.982)"/></g></g><g transform="translate(304.454 159.563)"><circle class="j" cx="13.627" cy="13.627" r="13.627"/><g transform="translate(17.836 6.836)"><path class="k" d="M1421.312,1756.85l-2.15-1.083,2.15-1.084a.65.65,0,1,0-.585-1.161l-3.228,1.626a.648.648,0,0,0-.357.611v.016a.646.646,0,0,0,.357.611l3.228,1.627a.651.651,0,0,0,.585-1.162Z" transform="translate(-1417.141 -1753.452)"/></g><g transform="translate(5.087 6.836)"><path class="k" d="M1407.486,1756.85l2.15-1.083-2.15-1.084a.65.65,0,1,1,.586-1.161h0l3.228,1.626a.649.649,0,0,1,.356.611v.016a.647.647,0,0,1-.356.611l-3.228,1.627a.651.651,0,1,1-.586-1.162Z" transform="translate(-1407.127 -1753.452)"/></g><g transform="translate(4.476 14.132)"><path class="k" d="M1406.648,1759.182a9.04,9.04,0,0,0,18.065,0Z" transform="translate(-1406.648 -1759.182)"/></g><g transform="translate(5.401 16.39)"><path class="l" d="M1423.583,1762.509a21.913,21.913,0,0,0-16.209,0,9.223,9.223,0,0,0,16.209,0Z" transform="translate(-1407.374 -1760.956)"/></g></g><g transform="translate(0 179.915)"><circle class="j" cx="9.974" cy="9.974" r="9.974"/><g class="m" transform="translate(11.07 3.425)"><g class="n"><rect class="j" width="7.446" height="7.446"/><circle class="j" cx="3.131" cy="3.131" r="3.131" transform="translate(0.592 0.592)"/><circle class="o" cx="3.109" cy="3.109" r="3.109" transform="translate(0.613 0.613)"/><circle class="p" cx="3.088" cy="3.088" r="3.088" transform="translate(0.635 0.635)"/><circle class="q" cx="3.067" cy="3.067" r="3.067" transform="translate(0.656 0.656)"/><circle class="r" cx="3.045" cy="3.045" r="3.045" transform="translate(0.678 0.678)"/><circle class="s" cx="3.024" cy="3.024" r="3.024" transform="translate(0.699 0.699)"/><circle class="t" cx="3.002" cy="3.002" r="3.002" transform="translate(0.721 0.721)"/><circle class="u" cx="2.981" cy="2.981" r="2.981" transform="translate(0.742 0.742)"/><circle class="v" cx="2.959" cy="2.959" r="2.959" transform="translate(0.763 0.763)"/><circle class="w" cx="2.938" cy="2.938" r="2.938" transform="translate(0.785 0.785)"/><circle class="x" cx="2.916" cy="2.916" r="2.916" transform="translate(0.806 0.806)"/><circle class="y" cx="2.895" cy="2.895" r="2.895" transform="translate(0.828 0.828)"/><circle class="z" cx="2.874" cy="2.874" r="2.874" transform="translate(0.849 0.849)"/><circle class="aa" cx="2.852" cy="2.852" r="2.852" transform="translate(0.871 0.871)"/><circle class="ab" cx="2.831" cy="2.831" r="2.831" transform="translate(0.892 0.892)"/><circle class="ac" cx="2.809" cy="2.809" r="2.809" transform="translate(0.914 0.914)"/><circle class="ad" cx="2.788" cy="2.788" r="2.788" transform="translate(0.935 0.935)"/><circle class="ae" cx="2.766" cy="2.766" r="2.766" transform="translate(0.956 0.956)"/><circle class="af" cx="2.745" cy="2.745" r="2.745" transform="translate(0.978 0.978)"/><circle class="ag" cx="2.723" cy="2.723" r="2.723" transform="translate(0.999 0.999)"/><circle class="ah" cx="2.702" cy="2.702" r="2.702" transform="translate(1.021 1.021)"/><circle class="ai" cx="2.681" cy="2.681" r="2.681" transform="translate(1.042 1.042)"/><circle class="aj" cx="2.659" cy="2.659" r="2.659" transform="translate(1.064 1.064)"/><circle class="ak" cx="2.638" cy="2.638" r="2.638" transform="translate(1.085 1.085)"/><circle class="al" cx="2.616" cy="2.616" r="2.616" transform="translate(1.107 1.107)"/><circle class="am" cx="2.595" cy="2.595" r="2.595" transform="translate(1.128 1.128)"/><circle class="an" cx="2.573" cy="2.573" r="2.573" transform="translate(1.149 1.149)"/><circle class="ao" cx="2.552" cy="2.552" r="2.552" transform="translate(1.171 1.171)"/><circle class="ap" cx="2.53" cy="2.53" r="2.53" transform="translate(1.192 1.192)"/><circle class="aq" cx="2.509" cy="2.509" r="2.509" transform="translate(1.214 1.214)"/><circle class="ar" cx="2.488" cy="2.488" r="2.488" transform="translate(1.235 1.235)"/><circle class="as" cx="2.466" cy="2.466" r="2.466" transform="translate(1.257 1.257)"/><circle class="at" cx="2.445" cy="2.445" r="2.445" transform="translate(1.278 1.278)"/><circle class="au" cx="2.423" cy="2.423" r="2.423" transform="translate(1.3 1.3)"/><circle class="av" cx="2.402" cy="2.402" r="2.402" transform="translate(1.321 1.321)"/><circle class="aw" cx="2.38" cy="2.38" r="2.38" transform="translate(1.342 1.342)"/><circle class="ax" cx="2.359" cy="2.359" r="2.359" transform="translate(1.364 1.364)"/><circle class="ay" cx="2.337" cy="2.337" r="2.337" transform="translate(1.385 1.385)"/><circle class="az" cx="2.316" cy="2.316" r="2.316" transform="translate(1.407 1.407)"/><circle class="ba" cx="2.295" cy="2.295" r="2.295" transform="translate(1.428 1.428)"/><circle class="bb" cx="2.273" cy="2.273" r="2.273" transform="translate(1.45 1.45)"/><circle class="bc" cx="2.252" cy="2.252" r="2.252" transform="translate(1.471 1.471)"/><circle class="bd" cx="2.23" cy="2.23" r="2.23" transform="translate(1.493 1.492)"/><circle class="be" cx="2.209" cy="2.209" r="2.209" transform="translate(1.514 1.514)"/><circle class="bf" cx="2.187" cy="2.187" r="2.187" transform="translate(1.536 1.535)"/><circle class="bg" cx="2.166" cy="2.166" r="2.166" transform="translate(1.557 1.557)"/><circle class="bh" cx="2.144" cy="2.144" r="2.144" transform="translate(1.578 1.578)"/><circle class="bi" cx="2.123" cy="2.123" r="2.123" transform="translate(1.6 1.6)"/><circle class="bj" cx="2.102" cy="2.102" r="2.102" transform="translate(1.621 1.621)"/><circle class="bk" cx="2.08" cy="2.08" r="2.08" transform="translate(1.643 1.643)"/><circle class="bl" cx="2.059" cy="2.059" r="2.059" transform="translate(1.664 1.664)"/><circle class="bm" cx="2.037" cy="2.037" r="2.037" transform="translate(1.685 1.685)"/><circle class="bn" cx="2.016" cy="2.016" r="2.016" transform="translate(1.707 1.707)"/><circle class="bo" cx="1.994" cy="1.994" r="1.994" transform="translate(1.728 1.728)"/><circle class="bp" cx="1.973" cy="1.973" r="1.973" transform="translate(1.75 1.75)"/><circle class="bq" cx="1.951" cy="1.951" r="1.951" transform="translate(1.771 1.771)"/><circle class="br" cx="1.93" cy="1.93" r="1.93" transform="translate(1.793 1.793)"/><circle class="bs" cx="1.909" cy="1.909" r="1.909" transform="translate(1.814 1.814)"/><circle class="bt" cx="1.887" cy="1.887" r="1.887" transform="translate(1.836 1.836)"/><circle class="bu" cx="1.866" cy="1.866" r="1.866" transform="translate(1.857 1.857)"/><circle class="bv" cx="1.844" cy="1.844" r="1.844" transform="translate(1.879 1.879)"/><circle class="bw" cx="1.823" cy="1.823" r="1.823" transform="translate(1.9 1.9)"/><circle class="bx" cx="1.801" cy="1.801" r="1.801" transform="translate(1.921 1.921)"/><circle class="by" cx="1.78" cy="1.78" r="1.78" transform="translate(1.943 1.943)"/><circle class="bz" cx="1.758" cy="1.758" r="1.758" transform="translate(1.964 1.964)"/><circle class="ca" cx="1.737" cy="1.737" r="1.737" transform="translate(1.986 1.986)"/><circle class="cb" cx="1.716" cy="1.716" r="1.716" transform="translate(2.007 2.007)"/><circle class="cc" cx="1.694" cy="1.694" r="1.694" transform="translate(2.029 2.029)"/><circle class="cd" cx="1.673" cy="1.673" r="1.673" transform="translate(2.05 2.05)"/><circle class="ce" cx="1.651" cy="1.651" r="1.651" transform="translate(2.072 2.072)"/><circle class="cf" cx="1.63" cy="1.63" r="1.63" transform="translate(2.093 2.093)"/><circle class="cg" cx="1.608" cy="1.608" r="1.608" transform="translate(2.114 2.114)"/><circle class="ch" cx="1.587" cy="1.587" r="1.587" transform="translate(2.136 2.136)"/><circle class="ci" cx="1.565" cy="1.565" r="1.565" transform="translate(2.157 2.157)"/><circle class="cj" cx="1.544" cy="1.544" r="1.544" transform="translate(2.179 2.179)"/><circle class="ck" cx="1.523" cy="1.523" r="1.523" transform="translate(2.2 2.2)"/><circle class="cl" cx="1.501" cy="1.501" r="1.501" transform="translate(2.222 2.222)"/><circle class="cm" cx="1.48" cy="1.48" r="1.48" transform="translate(2.243 2.243)"/><circle class="cn" cx="1.458" cy="1.458" r="1.458" transform="translate(2.265 2.265)"/><circle class="co" cx="1.437" cy="1.437" r="1.437" transform="translate(2.286 2.286)"/><circle class="cp" cx="1.415" cy="1.415" r="1.415" transform="translate(2.307 2.307)"/><circle class="cq" cx="1.394" cy="1.394" r="1.394" transform="translate(2.329 2.329)"/><circle class="cr" cx="1.372" cy="1.372" r="1.372" transform="translate(2.35 2.35)"/><circle class="cs" cx="1.351" cy="1.351" r="1.351" transform="translate(2.372 2.372)"/><circle class="ct" cx="1.33" cy="1.33" r="1.33" transform="translate(2.393 2.393)"/><circle class="cu" cx="1.308" cy="1.308" r="1.308" transform="translate(2.415 2.415)"/><circle class="cv" cx="1.287" cy="1.287" r="1.287" transform="translate(2.436 2.436)"/><circle class="cw" cx="1.265" cy="1.265" r="1.265" transform="translate(2.458 2.458)"/><circle class="cx" cx="1.244" cy="1.244" r="1.244" transform="translate(2.479 2.479)"/><circle class="cy" cx="1.222" cy="1.222" r="1.222" transform="translate(2.5 2.5)"/><circle class="cz" cx="1.201" cy="1.201" r="1.201" transform="translate(2.522 2.522)"/><circle class="da" cx="1.179" cy="1.179" r="1.179" transform="translate(2.543 2.543)"/><circle class="db" cx="1.158" cy="1.158" r="1.158" transform="translate(2.565 2.565)"/><circle class="dc" cx="1.137" cy="1.137" r="1.137" transform="translate(2.586 2.586)"/><circle class="dd" cx="1.115" cy="1.115" r="1.115" transform="translate(2.608 2.608)"/><circle class="de" cx="1.094" cy="1.094" r="1.094" transform="translate(2.629 2.629)"/><circle class="df" cx="1.072" cy="1.072" r="1.072" transform="translate(2.65 2.65)"/><circle class="dg" cx="1.051" cy="1.051" r="1.051" transform="translate(2.672 2.672)"/><circle class="dh" cx="1.029" cy="1.029" r="1.029" transform="translate(2.693 2.693)"/><circle class="di" cx="1.008" cy="1.008" r="1.008" transform="translate(2.715 2.715)"/><circle class="dj" cx="0.986" cy="0.986" r="0.986" transform="translate(2.736 2.736)"/><circle class="dk" cx="0.965" cy="0.965" r="0.965" transform="translate(2.758 2.758)"/><circle class="dl" cx="0.944" cy="0.944" r="0.944" transform="translate(2.779 2.779)"/><circle class="dm" cx="0.922" cy="0.922" r="0.922" transform="translate(2.801 2.801)"/><circle class="dn" cx="0.901" cy="0.901" r="0.901" transform="translate(2.822 2.822)"/><circle class="do" cx="0.879" cy="0.879" r="0.879" transform="translate(2.843 2.843)"/><circle class="dp" cx="0.858" cy="0.858" r="0.858" transform="translate(2.865 2.865)"/><circle class="dq" cx="0.836" cy="0.836" r="0.836" transform="translate(2.886 2.886)"/><circle class="dr" cx="0.815" cy="0.815" r="0.815" transform="translate(2.908 2.908)"/><circle class="ds" cx="0.793" cy="0.793" r="0.793" transform="translate(2.929 2.929)"/><circle class="dt" cx="0.772" cy="0.772" r="0.772" transform="translate(2.951 2.951)"/><circle class="du" cx="0.751" cy="0.751" r="0.751" transform="translate(2.972 2.972)"/><circle class="dv" cx="0.729" cy="0.729" r="0.729" transform="translate(2.994 2.994)"/><circle class="dw" cx="0.708" cy="0.708" r="0.708" transform="translate(3.015 3.015)"/><circle class="dx" cx="0.686" cy="0.686" r="0.686" transform="translate(3.037 3.037)"/><circle class="dy" cx="0.665" cy="0.665" r="0.665" transform="translate(3.058 3.058)"/><circle class="dz" cx="0.643" cy="0.643" r="0.643" transform="translate(3.079 3.079)"/><circle class="ea" cx="0.622" cy="0.622" r="0.622" transform="translate(3.101 3.101)"/><circle class="eb" cx="0.6" cy="0.6" r="0.6" transform="translate(3.122 3.122)"/><circle class="ec" cx="0.579" cy="0.579" r="0.579" transform="translate(3.144 3.144)"/><circle class="ed" cx="0.558" cy="0.558" r="0.558" transform="translate(3.165 3.165)"/><circle class="ee" cx="0.536" cy="0.536" r="0.536" transform="translate(3.187 3.187)"/><circle class="ef" cx="0.515" cy="0.515" r="0.515" transform="translate(3.208 3.208)"/><circle class="eg" cx="0.493" cy="0.493" r="0.493" transform="translate(3.23 3.23)"/><circle class="eh" cx="0.472" cy="0.472" r="0.472" transform="translate(3.251 3.251)"/><circle class="ei" cx="0.45" cy="0.45" r="0.45" transform="translate(3.272 3.272)"/><circle class="ej" cx="0.429" cy="0.429" r="0.429" transform="translate(3.294 3.294)"/><circle class="ek" cx="0.407" cy="0.407" r="0.407" transform="translate(3.315 3.315)"/><circle class="el" cx="0.386" cy="0.386" r="0.386" transform="translate(3.337 3.337)"/><circle class="em" cx="0.365" cy="0.365" r="0.365" transform="translate(3.358 3.358)"/><circle class="en" cx="0.343" cy="0.343" r="0.343" transform="translate(3.38 3.38)"/><circle class="eo" cx="0.322" cy="0.322" r="0.322" transform="translate(3.401 3.401)"/><circle class="ep" cx="0.3" cy="0.3" r="0.3" transform="translate(3.423 3.423)"/><circle class="eq" cx="0.279" cy="0.279" r="0.279" transform="translate(3.444 3.444)"/><circle class="er" cx="0.257" cy="0.257" r="0.257" transform="translate(3.465 3.465)"/><circle class="es" cx="0.236" cy="0.236" r="0.236" transform="translate(3.487 3.487)"/><circle class="et" cx="0.214" cy="0.214" r="0.214" transform="translate(3.508 3.508)"/><circle class="eu" cx="0.193" cy="0.193" r="0.193" transform="translate(3.53 3.53)"/><circle class="ev" cx="0.172" cy="0.172" r="0.172" transform="translate(3.551 3.551)"/><circle class="ew" cx="0.15" cy="0.15" r="0.15" transform="translate(3.573 3.573)"/><circle class="ex" cx="0.129" cy="0.129" r="0.129" transform="translate(3.594 3.594)"/><circle class="ey" cx="0.107" cy="0.107" r="0.107" transform="translate(3.615 3.615)"/><circle class="ez" cx="0.086" cy="0.086" r="0.086" transform="translate(3.637 3.637)"/><circle class="fa" cx="0.064" cy="0.064" r="0.064" transform="translate(3.658 3.658)"/><circle class="fb" cx="0.043" cy="0.043" r="0.043" transform="translate(3.68 3.68)"/><path class="fc" d="M1144.525,1825.888a.022.022,0,1,0-.043,0,.022.022,0,1,0,.043,0Z" transform="translate(-1140.781 -1822.165)"/></g></g><g class="m" transform="translate(0.259 6.194)"><g class="n"><rect class="j" width="8.449" height="8.449" transform="translate(-0.502 -0.502)"/><circle class="j" cx="3.132" cy="3.132" r="3.132" transform="translate(0.591 0.591)"/><circle class="o" cx="3.11" cy="3.11" r="3.11" transform="translate(0.612 0.612)"/><circle class="p" cx="3.089" cy="3.089" r="3.089" transform="translate(0.634 0.634)"/><circle class="q" cx="3.067" cy="3.067" r="3.067" transform="translate(0.655 0.655)"/><circle class="r" cx="3.046" cy="3.046" r="3.046" transform="translate(0.677 0.677)"/><circle class="s" cx="3.024" cy="3.024" r="3.024" transform="translate(0.698 0.698)"/><circle class="t" cx="3.003" cy="3.003" r="3.003" transform="translate(0.72 0.72)"/><circle class="u" cx="2.982" cy="2.982" r="2.982" transform="translate(0.741 0.741)"/><circle class="v" cx="2.96" cy="2.96" r="2.96" transform="translate(0.763 0.763)"/><circle class="w" cx="2.939" cy="2.939" r="2.939" transform="translate(0.784 0.784)"/><circle class="x" cx="2.917" cy="2.917" r="2.917" transform="translate(0.806 0.806)"/><circle class="y" cx="2.896" cy="2.896" r="2.896" transform="translate(0.827 0.827)"/><circle class="z" cx="2.874" cy="2.874" r="2.874" transform="translate(0.848 0.848)"/><circle class="aa" cx="2.853" cy="2.853" r="2.853" transform="translate(0.87 0.87)"/><circle class="ab" cx="2.831" cy="2.831" r="2.831" transform="translate(0.891 0.891)"/><circle class="ac" cx="2.81" cy="2.81" r="2.81" transform="translate(0.913 0.913)"/><circle class="ad" cx="2.788" cy="2.788" r="2.788" transform="translate(0.934 0.934)"/><circle class="ae" cx="2.767" cy="2.767" r="2.767" transform="translate(0.956 0.956)"/><circle class="af" cx="2.746" cy="2.746" r="2.746" transform="translate(0.977 0.977)"/><circle class="ag" cx="2.724" cy="2.724" r="2.724" transform="translate(0.999 0.999)"/><circle class="ah" cx="2.703" cy="2.703" r="2.703" transform="translate(1.02 1.02)"/><circle class="ai" cx="2.681" cy="2.681" r="2.681" transform="translate(1.042 1.042)"/><circle class="aj" cx="2.66" cy="2.66" r="2.66" transform="translate(1.063 1.063)"/><circle class="ak" cx="2.638" cy="2.638" r="2.638" transform="translate(1.084 1.084)"/><circle class="al" cx="2.617" cy="2.617" r="2.617" transform="translate(1.106 1.106)"/><circle class="am" cx="2.595" cy="2.595" r="2.595" transform="translate(1.127 1.127)"/><circle class="an" cx="2.574" cy="2.574" r="2.574" transform="translate(1.149 1.149)"/><circle class="ao" cx="2.553" cy="2.553" r="2.553" transform="translate(1.17 1.17)"/><circle class="ap" cx="2.531" cy="2.531" r="2.531" transform="translate(1.192 1.192)"/><circle class="aq" cx="2.51" cy="2.51" r="2.51" transform="translate(1.213 1.213)"/><circle class="ar" cx="2.488" cy="2.488" r="2.488" transform="translate(1.235 1.235)"/><circle class="as" cx="2.467" cy="2.467" r="2.467" transform="translate(1.256 1.256)"/><circle class="at" cx="2.445" cy="2.445" r="2.445" transform="translate(1.278 1.278)"/><circle class="au" cx="2.424" cy="2.424" r="2.424" transform="translate(1.299 1.299)"/><circle class="av" cx="2.402" cy="2.402" r="2.402" transform="translate(1.32 1.32)"/><circle class="aw" cx="2.381" cy="2.381" r="2.381" transform="translate(1.342 1.342)"/><circle class="ax" cx="2.359" cy="2.359" r="2.359" transform="translate(1.363 1.363)"/><circle class="ay" cx="2.338" cy="2.338" r="2.338" transform="translate(1.385 1.385)"/><circle class="az" cx="2.317" cy="2.317" r="2.317" transform="translate(1.406 1.406)"/><circle class="ba" cx="2.295" cy="2.295" r="2.295" transform="translate(1.428 1.428)"/><circle class="bb" cx="2.274" cy="2.274" r="2.274" transform="translate(1.449 1.449)"/><circle class="bc" cx="2.252" cy="2.252" r="2.252" transform="translate(1.471 1.471)"/><circle class="bd" cx="2.231" cy="2.231" r="2.231" transform="translate(1.492 1.492)"/><circle class="be" cx="2.209" cy="2.209" r="2.209" transform="translate(1.513 1.513)"/><circle class="bf" cx="2.188" cy="2.188" r="2.188" transform="translate(1.535 1.535)"/><circle class="bg" cx="2.166" cy="2.166" r="2.166" transform="translate(1.556 1.556)"/><circle class="bh" cx="2.145" cy="2.145" r="2.145" transform="translate(1.578 1.578)"/><circle class="bi" cx="2.124" cy="2.124" r="2.124" transform="translate(1.599 1.599)"/><circle class="bj" cx="2.102" cy="2.102" r="2.102" transform="translate(1.621 1.621)"/><circle class="bk" cx="2.081" cy="2.081" r="2.081" transform="translate(1.642 1.642)"/><circle class="bl" cx="2.059" cy="2.059" r="2.059" transform="translate(1.664 1.664)"/><circle class="bm" cx="2.038" cy="2.038" r="2.038" transform="translate(1.685 1.685)"/><circle class="bn" cx="2.016" cy="2.016" r="2.016" transform="translate(1.706 1.706)"/><circle class="bo" cx="1.995" cy="1.995" r="1.995" transform="translate(1.728 1.728)"/><circle class="bp" cx="1.973" cy="1.973" r="1.973" transform="translate(1.749 1.749)"/><circle class="bq" cx="1.952" cy="1.952" r="1.952" transform="translate(1.771 1.771)"/><circle class="br" cx="1.93" cy="1.93" r="1.93" transform="translate(1.792 1.792)"/><circle class="bs" cx="1.909" cy="1.909" r="1.909" transform="translate(1.814 1.814)"/><circle class="bt" cx="1.888" cy="1.888" r="1.888" transform="translate(1.835 1.835)"/><circle class="bu" cx="1.866" cy="1.866" r="1.866" transform="translate(1.857 1.857)"/><circle class="bv" cx="1.845" cy="1.845" r="1.845" transform="translate(1.878 1.878)"/><circle class="bw" cx="1.823" cy="1.823" r="1.823" transform="translate(1.899 1.899)"/><circle class="bx" cx="1.802" cy="1.802" r="1.802" transform="translate(1.921 1.921)"/><circle class="by" cx="1.78" cy="1.78" r="1.78" transform="translate(1.942 1.942)"/><circle class="bz" cx="1.759" cy="1.759" r="1.759" transform="translate(1.964 1.964)"/><circle class="ca" cx="1.737" cy="1.737" r="1.737" transform="translate(1.985 1.985)"/><circle class="cb" cx="1.716" cy="1.716" r="1.716" transform="translate(2.007 2.007)"/><circle class="cc" cx="1.695" cy="1.695" r="1.695" transform="translate(2.028 2.028)"/><circle class="cd" cx="1.673" cy="1.673" r="1.673" transform="translate(2.05 2.05)"/><circle class="ce" cx="1.652" cy="1.652" r="1.652" transform="translate(2.071 2.071)"/><circle class="cf" cx="1.63" cy="1.63" r="1.63" transform="translate(2.093 2.093)"/><circle class="cg" cx="1.609" cy="1.609" r="1.609" transform="translate(2.114 2.114)"/><circle class="ch" cx="1.587" cy="1.587" r="1.587" transform="translate(2.135 2.135)"/><circle class="ci" cx="1.566" cy="1.566" r="1.566" transform="translate(2.157 2.157)"/><circle class="cj" cx="1.544" cy="1.544" r="1.544" transform="translate(2.178 2.178)"/><circle class="ck" cx="1.523" cy="1.523" r="1.523" transform="translate(2.2 2.2)"/><circle class="cl" cx="1.501" cy="1.501" r="1.501" transform="translate(2.221 2.221)"/><circle class="cm" cx="1.48" cy="1.48" r="1.48" transform="translate(2.243 2.243)"/><circle class="cn" cx="1.459" cy="1.459" r="1.459" transform="translate(2.264 2.264)"/><circle class="co" cx="1.437" cy="1.437" r="1.437" transform="translate(2.286 2.286)"/><circle class="cp" cx="1.416" cy="1.416" r="1.416" transform="translate(2.307 2.307)"/><circle class="cq" cx="1.394" cy="1.394" r="1.394" transform="translate(2.328 2.328)"/><circle class="cr" cx="1.373" cy="1.373" r="1.373" transform="translate(2.35 2.35)"/><circle class="cs" cx="1.351" cy="1.351" r="1.351" transform="translate(2.371 2.371)"/><circle class="ct" cx="1.33" cy="1.33" r="1.33" transform="translate(2.393 2.393)"/><circle class="cu" cx="1.308" cy="1.308" r="1.308" transform="translate(2.414 2.414)"/><circle class="cv" cx="1.287" cy="1.287" r="1.287" transform="translate(2.436 2.436)"/><circle class="cw" cx="1.266" cy="1.266" r="1.266" transform="translate(2.457 2.457)"/><circle class="cx" cx="1.244" cy="1.244" r="1.244" transform="translate(2.479 2.479)"/><circle class="cy" cx="1.223" cy="1.223" r="1.223" transform="translate(2.5 2.5)"/><circle class="cz" cx="1.201" cy="1.201" r="1.201" transform="translate(2.522 2.522)"/><circle class="da" cx="1.18" cy="1.18" r="1.18" transform="translate(2.543 2.543)"/><circle class="db" cx="1.158" cy="1.158" r="1.158" transform="translate(2.565 2.565)"/><circle class="dc" cx="1.137" cy="1.137" r="1.137" transform="translate(2.586 2.586)"/><circle class="dd" cx="1.115" cy="1.115" r="1.115" transform="translate(2.607 2.607)"/><circle class="de" cx="1.094" cy="1.094" r="1.094" transform="translate(2.629 2.629)"/><circle class="df" cx="1.072" cy="1.072" r="1.072" transform="translate(2.65 2.65)"/><circle class="dg" cx="1.051" cy="1.051" r="1.051" transform="translate(2.672 2.672)"/><circle class="dh" cx="1.03" cy="1.03" r="1.03" transform="translate(2.693 2.693)"/><circle class="di" cx="1.008" cy="1.008" r="1.008" transform="translate(2.715 2.715)"/><circle class="dj" cx="0.987" cy="0.987" r="0.987" transform="translate(2.736 2.736)"/><circle class="dk" cx="0.965" cy="0.965" r="0.965" transform="translate(2.758 2.758)"/><circle class="dl" cx="0.944" cy="0.944" r="0.944" transform="translate(2.779 2.779)"/><circle class="dm" cx="0.922" cy="0.922" r="0.922" transform="translate(2.8 2.8)"/><circle class="dn" cx="0.901" cy="0.901" r="0.901" transform="translate(2.822 2.822)"/><circle class="do" cx="0.879" cy="0.879" r="0.879" transform="translate(2.843 2.843)"/><circle class="dp" cx="0.858" cy="0.858" r="0.858" transform="translate(2.865 2.865)"/><circle class="dq" cx="0.837" cy="0.837" r="0.837" transform="translate(2.886 2.886)"/><circle class="dr" cx="0.815" cy="0.815" r="0.815" transform="translate(2.908 2.908)"/><circle class="ds" cx="0.794" cy="0.794" r="0.794" transform="translate(2.929 2.929)"/><circle class="dt" cx="0.772" cy="0.772" r="0.772" transform="translate(2.951 2.951)"/><circle class="du" cx="0.751" cy="0.751" r="0.751" transform="translate(2.972 2.972)"/><circle class="dv" cx="0.729" cy="0.729" r="0.729" transform="translate(2.993 2.993)"/><circle class="dw" cx="0.708" cy="0.708" r="0.708" transform="translate(3.015 3.015)"/><circle class="dx" cx="0.686" cy="0.686" r="0.686" transform="translate(3.036 3.036)"/><circle class="dy" cx="0.665" cy="0.665" r="0.665" transform="translate(3.058 3.058)"/><circle class="dz" cx="0.643" cy="0.643" r="0.643" transform="translate(3.079 3.079)"/><circle class="ea" cx="0.622" cy="0.622" r="0.622" transform="translate(3.101 3.101)"/><circle class="eb" cx="0.601" cy="0.601" r="0.601" transform="translate(3.122 3.122)"/><circle class="ec" cx="0.579" cy="0.579" r="0.579" transform="translate(3.144 3.144)"/><circle class="ed" cx="0.558" cy="0.558" r="0.558" transform="translate(3.165 3.165)"/><circle class="ee" cx="0.536" cy="0.536" r="0.536" transform="translate(3.187 3.187)"/><circle class="ef" cx="0.515" cy="0.515" r="0.515" transform="translate(3.208 3.208)"/><circle class="eg" cx="0.493" cy="0.493" r="0.493" transform="translate(3.229 3.229)"/><circle class="eh" cx="0.472" cy="0.472" r="0.472" transform="translate(3.251 3.251)"/><circle class="ei" cx="0.45" cy="0.45" r="0.45" transform="translate(3.272 3.272)"/><circle class="ej" cx="0.429" cy="0.429" r="0.429" transform="translate(3.294 3.294)"/><circle class="ek" cx="0.408" cy="0.408" r="0.408" transform="translate(3.315 3.315)"/><circle class="el" cx="0.386" cy="0.386" r="0.386" transform="translate(3.337 3.337)"/><circle class="em" cx="0.365" cy="0.365" r="0.365" transform="translate(3.358 3.358)"/><circle class="en" cx="0.343" cy="0.343" r="0.343" transform="translate(3.38 3.38)"/><circle class="eo" cx="0.322" cy="0.322" r="0.322" transform="translate(3.401 3.401)"/><circle class="ep" cx="0.3" cy="0.3" r="0.3" transform="translate(3.422 3.422)"/><circle class="eq" cx="0.279" cy="0.279" r="0.279" transform="translate(3.444 3.444)"/><circle class="er" cx="0.257" cy="0.257" r="0.257" transform="translate(3.465 3.465)"/><circle class="es" cx="0.236" cy="0.236" r="0.236" transform="translate(3.487 3.487)"/><circle class="et" cx="0.214" cy="0.214" r="0.214" transform="translate(3.508 3.508)"/><circle class="eu" cx="0.193" cy="0.193" r="0.193" transform="translate(3.53 3.53)"/><circle class="ev" cx="0.172" cy="0.172" r="0.172" transform="translate(3.551 3.551)"/><circle class="ew" cx="0.15" cy="0.15" r="0.15" transform="translate(3.573 3.573)"/><circle class="ex" cx="0.129" cy="0.129" r="0.129" transform="translate(3.594 3.594)"/><circle class="ey" cx="0.107" cy="0.107" r="0.107" transform="translate(3.615 3.615)"/><circle class="ez" cx="0.086" cy="0.086" r="0.086" transform="translate(3.637 3.637)"/><circle class="fa" cx="0.064" cy="0.064" r="0.064" transform="translate(3.658 3.658)"/><path class="fb" d="M1136.059,1828.068a.043.043,0,1,0-.085,0,.043.043,0,0,0,.085,0Z" transform="translate(-1132.294 -1824.345)"/><path class="fc" d="M1136.033,1828.064a.021.021,0,0,0-.022-.022.02.02,0,0,0-.02.022.02.02,0,0,0,.02.02A.021.021,0,0,0,1136.033,1828.064Z" transform="translate(-1132.289 -1824.34)"/></g></g><g transform="translate(9.683 2.342)"><path class="k" d="M1141.045,1825.724a.476.476,0,0,1-.458-.345,2.56,2.56,0,0,1,4.918-1.421.478.478,0,1,1-.918.265,1.6,1.6,0,0,0-3.082.891.478.478,0,0,1-.326.592h0A.429.429,0,0,1,1141.045,1825.724Z" transform="translate(-1140.485 -1822.109)"/></g><g transform="translate(2.315 4.358)"><path class="k" d="M1135.259,1827.308a.476.476,0,0,1-.46-.345,2.56,2.56,0,0,1,4.918-1.421.478.478,0,1,1-.918.265,1.6,1.6,0,0,0-3.1.812.812.812,0,0,0,.023.079.479.479,0,0,1-.326.592A.427.427,0,0,1,1135.259,1827.308Z" transform="translate(-1134.698 -1823.693)"/></g><g transform="translate(5.347 7.71)"><path class="k" d="M1140.483,1830.5a5.056,5.056,0,0,1-3.231-1.159.478.478,0,0,1,.611-.734h0a4.09,4.09,0,0,0,2.62.937,3.959,3.959,0,0,0,3.867-2.866.478.478,0,0,1,.923.247A4.918,4.918,0,0,1,1140.483,1830.5Z" transform="translate(-1137.079 -1826.325)"/></g></g></g></g></g></svg>