<svg xmlns="http://www.w3.org/2000/svg" width="37" height="37" viewBox="0 0 37 37"><defs><style>.a{fill:#fff;}.b{fill:#0855c4;}.c{fill:#001f5e;}.d{fill:#00aded;}</style></defs><g transform="translate(-1000 -735)"><circle class="a" cx="18.5" cy="18.5" r="18.5" transform="translate(1000 735)"/><g transform="translate(1011.606 743.143)"><g transform="translate(0 0)"><path class="b" d="M275.644,169.8l-5.775-13.973a1.245,1.245,0,0,0-.751-.7l-7.249-2.458a1.245,1.245,0,0,0-1.515.626l-3.4,6.858a1.245,1.245,0,0,0-.035,1.028l5.775,13.973a1.245,1.245,0,0,0,1.626.675l5.324-2.2,5.324-2.2A1.245,1.245,0,0,0,275.644,169.8Zm-12.3-11.415a1.459,1.459,0,1,1,.791-1.906A1.459,1.459,0,0,1,263.346,158.383Z" transform="translate(-256.826 -152.597)"/></g></g><g transform="translate(1010.041 741.477)"><path class="c" d="M242.854,138.885l.408-.824c-1.738-.893-3.02-1.994-3.193-2.742a.507.507,0,0,1,.568-.639c1.394.07,4.184,2.7,5.406,4.716a.46.46,0,0,0,.787-.476c-1.233-2.04-4.241-5.064-6.147-5.159a1.424,1.424,0,0,0-1.51,1.765c.357,1.548,2.9,2.961,3.675,3.357Z" transform="translate(-239.132 -133.759)"/></g><g transform="translate(1018.556 751.524)"><path class="a" d="M338.1,257.116a.7.7,0,0,1-.649-.964l3.4-8.379a.7.7,0,1,1,1.3.526l-3.4,8.379A.7.7,0,0,1,338.1,257.116Z" transform="translate(-337.396 -247.336)"/></g><g transform="translate(1015.933 753.222)"><path class="a" d="M307.686,271.724a1.947,1.947,0,1,1,1.793-2.7h0a1.949,1.949,0,0,1-1.793,2.7Zm0-2.492a.545.545,0,1,0,.5.333A.541.541,0,0,0,307.685,269.232Z" transform="translate(-305.739 -267.831)"/></g><g transform="translate(1022.085 755.714)"><path class="a" d="M381.941,301.8a1.946,1.946,0,1,1,.755-.154A1.949,1.949,0,0,1,381.941,301.8Zm0-2.492a.546.546,0,1,0,.5.333h0a.547.547,0,0,0-.5-.333Z" transform="translate(-379.992 -297.904)"/></g><g transform="translate(1018.405 739.331)"><path class="d" d="M333.967,112.9a.283.283,0,0,1-.283-.283v-2.828a.283.283,0,1,1,.566,0v2.828A.283.283,0,0,1,333.967,112.9Z" transform="translate(-333.684 -109.504)"/></g><g transform="translate(1025.977 742.237)"><path class="a" d="M419.562,144.457a.283.283,0,0,1-.2-.483l1.54-1.54a.283.283,0,0,1,.4.4l-1.54,1.54A.282.282,0,0,1,419.562,144.457Z" transform="translate(-419.279 -142.35)"/></g><g transform="translate(1028.142 751.349)"><path class="a" d="M446.857,245.918h-2.828a.283.283,0,1,1,0-.566h2.828a.283.283,0,1,1,0,.566Z" transform="translate(-443.746 -245.352)"/></g><g transform="translate(1029.133 754.829)"><path class="a" d="M456.852,285.8a.2.2,0,0,1-.077-.016l-1.695-.7a.2.2,0,0,1,.155-.374l1.695.7a.2.2,0,0,1-.077.389Z" transform="translate(-454.955 -284.692)"/></g><g transform="translate(1021.937 741.403)"><path class="d" d="M373.813,135.021a.2.2,0,0,1-.186-.28l.7-1.695a.2.2,0,1,1,.373.155L374,134.9A.2.2,0,0,1,373.813,135.021Z" transform="translate(-373.611 -132.921)"/></g><g transform="translate(1014.601 740.255)"><path class="d" d="M291.537,121.936a.2.2,0,0,1-.187-.125l-.656-1.585a.2.2,0,1,1,.374-.155l.657,1.585a.2.2,0,0,1-.11.264A.2.2,0,0,1,291.537,121.936Z" transform="translate(-290.678 -119.945)"/></g><g transform="translate(1026.818 747.276)"><path class="a" d="M428.989,200.422a.2.2,0,0,1-.078-.389l1.695-.7a.2.2,0,0,1,.155.374l-1.695.7A.2.2,0,0,1,428.989,200.422Z" transform="translate(-428.787 -199.315)"/></g><g transform="translate(1008.67 746.118)"><path class="d" d="M225.464,188.328a.282.282,0,0,1-.2-.083l-1.54-1.54a.283.283,0,0,1,.4-.4l1.54,1.54a.283.283,0,0,1-.2.483Z" transform="translate(-223.641 -186.221)"/></g><g transform="translate(1007.174 761.905)"><path class="a" d="M207.017,366.78a.283.283,0,0,1-.2-.483l1.54-1.54a.283.283,0,1,1,.4.4l-1.54,1.54A.283.283,0,0,1,207.017,366.78Z" transform="translate(-206.734 -364.674)"/></g><g transform="translate(1004.021 754.332)"><path class="a" d="M174.2,279.645h-2.828a.283.283,0,1,1,0-.566H174.2a.283.283,0,0,1,0,.566Z" transform="translate(-171.093 -279.079)"/></g><g transform="translate(1006.639 750.26)"><path class="d" d="M202.584,234.15a.2.2,0,0,1-.077-.016l-1.695-.7a.2.2,0,0,1,.155-.374l1.695.7a.2.2,0,0,1-.077.389Z" transform="translate(-200.687 -233.044)"/></g><g transform="translate(1005.82 758.411)"><path class="a" d="M191.625,326.287a.2.2,0,0,1-.077-.389l1.695-.7a.2.2,0,1,1,.155.374l-1.695.7A.2.2,0,0,1,191.625,326.287Z" transform="translate(-191.423 -325.18)"/></g></g></svg>