<?xml version="1.0" encoding="UTF-8"?>
<svg width="13px" height="13px" viewBox="0 0 13 13" version="1.1" xmlns="http://www.w3.org/2000/svg" xmlns:xlink="http://www.w3.org/1999/xlink">
    <!-- Generator: sketchtool 54.1 (76490) - https://sketchapp.com -->
    <title>BC9707DB-3F75-4BF1-BC07-83CB96FBEBDC</title>
    <desc>Created with sketchtool.</desc>
    <g id="Web" stroke="none" stroke-width="1" fill="none" fill-rule="evenodd" opacity="0.232607887">
        <g id="Home-Web-Nueva" transform="translate(-372.000000, -2740.000000)" fill="#959595" stroke="#000000" stroke-width="0.5">
            <g id="Group-19" transform="translate(171.000000, 2634.000000)">
                <g id="Group-12" transform="translate(147.000000, 107.000000)">
                    <g id="Group-11" transform="translate(54.293578, 0.008498)">
                        <path d="M6.13005982,0.205215523 L7.68406716,3.30280758 C7.73028734,3.39493755 7.81957908,3.45879314 7.9229589,3.4735657 L11.3978286,3.970313 C11.6580341,4.00748267 11.7619791,4.32211444 11.5736672,4.50268123 L9.05920844,6.91382563 C8.98444881,6.98554404 8.95029835,7.08883285 8.96797908,7.19009639 L9.56157541,10.5946957 C9.60597908,10.8496812 9.33394606,11.0441072 9.10123046,10.9237426 L5.99317541,9.316313 C5.90073505,9.26850072 5.79033138,9.26850072 5.69789101,9.316313 L2.58987633,10.9237426 C2.35712037,11.0441072 2.08508734,10.8496812 2.12953138,10.5946957 L2.72312771,7.19009639 C2.74076807,7.08883285 2.70661761,6.98554404 2.63185798,6.91382563 L0.117439633,4.50268123 C-0.0708722936,4.32211444 0.0330322936,4.00748267 0.293237798,3.970313 L3.76810752,3.4735657 C3.87148734,3.45879314 3.96081945,3.39493755 4.00699927,3.30280758 L5.56100661,0.205215523 C5.67738459,-0.0267772563 6.01368183,-0.0267772563 6.13005982,0.205215523" id="Fill-9"></path>
                    </g>
                </g>
            </g>
        </g>
    </g>
</svg>