<svg xmlns="http://www.w3.org/2000/svg" width="29.243" height="29.243" viewBox="0 0 29.243 29.243"><defs><style>.a{fill:#0033a1;}.b{fill:#fff;}</style></defs><g transform="translate(-73.57 -59.664)"><path class="a" d="M73.57,81.258V67.314a7.672,7.672,0,0,1,7.649-7.65H95.163a7.672,7.672,0,0,1,7.649,7.65V81.258a7.673,7.673,0,0,1-7.65,7.649H90.476l-2.455-.6-2.114.6H81.219A7.671,7.671,0,0,1,73.57,81.258Z"/><path class="b" d="M93.883,78.992l.648-4.226H90.476V72.023a2.113,2.113,0,0,1,2.382-2.283H94.7v-3.6a22.448,22.448,0,0,0-3.273-.286c-3.34,0-5.522,2.024-5.522,5.689v3.221H82.194v4.226h3.713v9.915h4.569V78.992Z"/></g></svg>