<svg xmlns="http://www.w3.org/2000/svg" width="325" height="125.205" viewBox="0 0 325 125.205"><defs><style>.a{fill:none;}.b{fill:#3256bf;}.c{isolation:isolate;}.d{fill:#cbdbf2;}.e{fill:#fff;}.f{fill:#6fc2c2;}.g{fill:#99d6d6;}.h{fill:#ea0d90;}</style></defs><g transform="translate(-5051.199 -4045.759)"><rect class="a" width="212" height="45" rx="3" transform="translate(5141.199 4073.964)"/><path class="b" d="M5350.2,4118.964h-206a3,3,0,0,1-3-3v-39a3,3,0,0,1,3-3h206a3,3,0,0,1,3,3v39A3,3,0,0,1,5350.2,4118.964Zm-206-44a2,2,0,0,0-2,2v39a2,2,0,0,0,2,2h206a2,2,0,0,0,2-2v-39a2,2,0,0,0-2-2Z"/><g class="c"><g class="c"><path class="b" d="M5160.732,4100.994v-9.043a.907.907,0,0,1,.936-.986h6.374c.544,0,.815.273.815.732v.1c0,.474-.271.73-.815.73h-5.558v3.076h4.3c.562,0,.816.239.816.7v.051c0,.476-.272.73-.816.73h-4.3v3.332h5.661c.543,0,.8.238.8.7v.086a.693.693,0,0,1-.8.764h-6.477A.893.893,0,0,1,5160.732,4100.994Z"/><path class="b" d="M5178.123,4097.084v4.148c0,.612-.322.8-.748.8h-.187c-.442,0-.748-.187-.748-.8v-3.943c0-1.377-.7-2.226-1.886-2.226a2.47,2.47,0,0,0-2.3,1.427v4.742c0,.612-.323.8-.748.8h-.187c-.442,0-.748-.187-.748-.8v-7.343a.837.837,0,0,1,.612-.186c.458,0,1.02.236,1.054,1.324a3.172,3.172,0,0,1,2.719-1.443C5177.12,4093.584,5178.123,4095.063,5178.123,4097.084Z"/><path class="b" d="M5179.3,4094.2c-.034-.1.34-.492.884-.492.475,0,.782.2,1.071,1l2.057,5.762,2.125-5.762c.289-.8.611-1,1.036-1,.527,0,.9.406.867.492l-2.975,7.344c-.153.373-.493.525-1.037.525-.577,0-.866-.117-1.02-.492Z"/><path class="b" d="M5189.547,4090.184a.978.978,0,1,1-.017,1.955.978.978,0,1,1,.017-1.955Zm-.883,4.334c0-.612.322-.815.764-.815h.17c.443,0,.748.186.748.815v6.714c0,.612-.305.8-.748.8h-.17c-.442,0-.764-.187-.764-.8Z"/><path class="b" d="M5197.52,4097.051h.221v-.17a1.777,1.777,0,0,0-2.022-1.92,2.467,2.467,0,0,0-2.346,1.393c0,.017-1.037,0-1.037-.817a1.481,1.481,0,0,1,.56-1.019,4.341,4.341,0,0,1,2.942-.934c2.31,0,3.568,1.189,3.568,3.264v5.013c0,.086-.3.188-.611.188a.912.912,0,0,1-.969-.748,2.528,2.528,0,0,1-.068-.561,3.535,3.535,0,0,1-2.941,1.41c-1.751,0-2.788-.935-2.788-2.328C5192.029,4097.936,5193.832,4097.119,5197.52,4097.051Zm.221,1.054-.459.016c-2.38.086-3.6.527-3.6,1.633,0,.73.577,1.189,1.547,1.189a2.289,2.289,0,0,0,2.515-2.209Z"/><path class="b" d="M5206.479,4094.672a.835.835,0,0,1-.51.865,1.589,1.589,0,0,0-1.037-.355c-1.327,0-1.853,1.291-1.853,3.177v2.873c0,.612-.323.8-.748.8h-.186c-.443,0-.749-.187-.749-.8v-7.343a.837.837,0,0,1,.612-.186.963.963,0,0,1,.986.815,3.077,3.077,0,0,1,.069.613,2.068,2.068,0,0,1,2.073-1.547C5205.986,4093.584,5206.479,4093.99,5206.479,4094.672Z"/><path class="b" d="M5214.027,4093.584a4.078,4.078,0,0,1,2.668.85,2.034,2.034,0,0,1,.834,1.41c0,.7-.953.834-1,.748a2.423,2.423,0,0,0-2.464-1.6,2.9,2.9,0,0,0,0,5.779,2.438,2.438,0,0,0,2.464-1.6c.051-.086,1,.033,1,.765a2.013,2.013,0,0,1-.85,1.393,4.034,4.034,0,0,1-2.652.85,4.3,4.3,0,0,1,0-8.6Z"/><path class="b" d="M5222.85,4093.584a4.3,4.3,0,1,1-4.3,4.283A4.128,4.128,0,0,1,5222.85,4093.584Zm-.017,1.377a2.746,2.746,0,0,0-2.737,2.906,2.776,2.776,0,0,0,2.737,2.94,2.931,2.931,0,0,0,0-5.846Z"/><path class="b" d="M5229.311,4099.482v-4.318h-.6c-.527,0-.731-.221-.731-.629v-.119c0-.408.2-.629.731-.629h.6v-1.258c0-.578.289-.8.748-.8h.17c.441,0,.73.17.73.8v1.258h1.853c.526,0,.713.2.713.611v.12c0,.425-.2.646-.73.646h-1.854v4.131c0,1.019.289,1.512,1.088,1.512a1.385,1.385,0,0,0,1.157-.577c.05-.052.476.186.476.713a1.008,1.008,0,0,1-.357.748,2.3,2.3,0,0,1-1.547.493C5230.074,4102.184,5229.311,4101.25,5229.311,4099.482Z"/><path class="b" d="M5235.957,4090.184a.978.978,0,1,1-.018,1.955.978.978,0,1,1,.018-1.955Zm-.885,4.334c0-.612.324-.815.766-.815h.17c.441,0,.748.186.748.815v6.714c0,.612-.307.8-.748.8h-.17c-.442,0-.766-.187-.766-.8Z"/><path class="b" d="M5238.473,4101.182c0-.358.136-.528.476-.918l4.283-5.133h-3.994c-.509,0-.731-.188-.731-.613v-.12c0-.408.222-.611.731-.611h5.456c.527,0,.7.289.7.629v.1c0,.324-.12.494-.459.884l-4.369,5.2h4.234c.51,0,.73.2.73.628v.1c0,.426-.22.629-.73.629h-5.627a.612.612,0,0,1-.7-.645Z"/><path class="b" d="M5252.123,4097.051h.221v-.17a1.777,1.777,0,0,0-2.023-1.92,2.467,2.467,0,0,0-2.345,1.393c0,.017-1.038,0-1.038-.817a1.48,1.48,0,0,1,.562-1.019,4.339,4.339,0,0,1,2.94-.934c2.312,0,3.57,1.189,3.57,3.264v5.013c0,.086-.306.188-.612.188a.91.91,0,0,1-.968-.748,2.466,2.466,0,0,1-.069-.561,3.537,3.537,0,0,1-2.941,1.41c-1.75,0-2.787-.935-2.787-2.328C5246.633,4097.936,5248.435,4097.119,5252.123,4097.051Zm.221,1.054-.459.016c-2.379.086-3.6.527-3.6,1.633,0,.73.578,1.189,1.547,1.189a2.29,2.29,0,0,0,2.516-2.209Z"/><path class="b" d="M5259.756,4093.584a4.084,4.084,0,0,1,2.67.85,2.034,2.034,0,0,1,.832,1.41c0,.7-.951.834-1,.748a2.426,2.426,0,0,0-2.465-1.6,2.9,2.9,0,0,0,0,5.779,2.441,2.441,0,0,0,2.465-1.6c.051-.086,1,.033,1,.765a2.01,2.01,0,0,1-.85,1.393,4.03,4.03,0,0,1-2.652.85,4.3,4.3,0,0,1,0-8.6Z"/><path class="b" d="M5265.723,4090.184a.978.978,0,1,1-.017,1.955.978.978,0,1,1,.017-1.955Zm-.883,4.334c0-.612.322-.815.764-.815h.169c.444,0,.748.186.748.815v6.714c0,.612-.3.8-.748.8h-.169c-.442,0-.764-.187-.764-.8Z"/><path class="b" d="M5272.489,4093.584a4.3,4.3,0,1,1-4.3,4.283A4.128,4.128,0,0,1,5272.489,4093.584Zm-.016,1.377a2.746,2.746,0,0,0-2.738,2.906,2.776,2.776,0,0,0,2.738,2.94,2.931,2.931,0,0,0,0-5.846Zm-1.446-2.518c0-.287,1.224-2.718,2.5-2.718a.7.7,0,0,1,.732.765c0,1.258-2.872,2.039-3.094,2.039C5271.1,4092.529,5271.027,4092.512,5271.027,4092.443Z"/><path class="b" d="M5285.885,4097.084v4.148c0,.612-.323.8-.748.8h-.188c-.441,0-.748-.187-.748-.8v-3.943c0-1.377-.7-2.226-1.887-2.226a2.472,2.472,0,0,0-2.294,1.427v4.742c0,.612-.323.8-.749.8h-.186c-.442,0-.747-.187-.747-.8v-7.343a.834.834,0,0,1,.611-.186c.459,0,1.02.236,1.054,1.324a3.173,3.173,0,0,1,2.72-1.443C5284.881,4093.584,5285.885,4095.063,5285.885,4097.084Z"/></g></g><path class="b" d="M5331.456,4106.943h-26.342a.6.6,0,0,1-.579-.757l5.094-18.621a.6.6,0,0,1,.579-.441h26.137a.6.6,0,0,1,.58.752l-4.889,18.62A.6.6,0,0,1,5331.456,4106.943Zm-25.556-1.2h25.093l4.573-17.421h-24.9Z"/><path class="b" d="M5319.878,4099.623a.6.6,0,0,1-.455-.208l-9.721-11.3.91-.783,9.37,10.893,16.021-11,.68.99-16.465,11.3A.607.607,0,0,1,5319.878,4099.623Z"/><rect class="b" width="16.142" height="1.2" transform="translate(5304.771 4105.862) rotate(-35.061)"/><rect class="b" width="1.199" height="12.287" transform="translate(5322.605 4097.602) rotate(-41.894)"/><path class="b" d="M5306.368,4089.615h-8.111a.5.5,0,0,1,0-1h8.111a.5.5,0,0,1,0,1Z"/><path class="b" d="M5303.307,4096.047h-5.274a.5.5,0,1,1,0-1h5.274a.5.5,0,1,1,0,1Z"/><path class="b" d="M5302.313,4103.681h-3.167a.5.5,0,0,1,0-1h3.167a.5.5,0,0,1,0,1Z"/><rect class="d" width="325" height="117" rx="6" transform="translate(5051.199 4053.964)"/><g class="c"><g class="c"><path class="b" d="M5157.333,4123.189v-9.832a.96.96,0,0,1,.99-1.043h3.007c2.881,0,4.52,1.315,4.52,3.709,0,2.45-1.584,3.745-4.592,3.745h-2.07v3.421a.758.758,0,0,1-.811.846h-.27C5157.6,4124.035,5157.333,4123.748,5157.333,4123.189Zm6.662-7.13c0-1.459-.918-2.215-2.682-2.215h-2.143v4.429h2.125C5163.077,4118.273,5164,4117.5,5164,4116.059Z"/><path class="b" d="M5172.814,4116.238a.889.889,0,0,1-.54.92,1.671,1.671,0,0,0-1.1-.379c-1.4,0-1.963,1.369-1.963,3.367v3.043c0,.649-.342.846-.792.846h-.2c-.468,0-.792-.2-.792-.846v-7.779a.89.89,0,0,1,.648-.2,1.019,1.019,0,0,1,1.044.863,3.245,3.245,0,0,1,.072.649,2.194,2.194,0,0,1,2.2-1.639C5172.293,4115.086,5172.814,4115.52,5172.814,4116.238Z"/><path class="b" d="M5182.031,4116.076v7.762a.868.868,0,0,1-.631.2,1.009,1.009,0,0,1-1.062-.81,2.562,2.562,0,0,1-.071-.559,3.366,3.366,0,0,1-2.881,1.514c-2.286,0-3.331-1.549-3.331-3.709v-4.4c0-.646.324-.863.774-.863h.2c.468,0,.792.2.792.863v4.178c0,1.494.756,2.377,2.071,2.377a2.6,2.6,0,0,0,2.377-1.531v-5.024c0-.646.324-.863.774-.863h.2C5181.707,4115.213,5182.031,4115.41,5182.031,4116.076Z"/><path class="b" d="M5187.951,4115.086a4.034,4.034,0,0,1,4.16,4.357v.145c0,.379-.127.521-.541.521h-6.391a1.961,1.961,0,0,0,.036.325,2.814,2.814,0,0,0,2.917,2.359,2.85,2.85,0,0,0,2.719-1.439c.036-.038.936.125.936.88a1.734,1.734,0,0,1-.955,1.262,5.129,5.129,0,0,1-2.736.7,4.3,4.3,0,0,1-4.574-4.519A4.389,4.389,0,0,1,5187.951,4115.086Zm-.017,1.352a2.761,2.761,0,0,0-2.737,2.466h5.186A2.378,2.378,0,0,0,5187.934,4116.438Z"/><path class="b" d="M5195.529,4123.189c0,.649-.324.846-.774.846h-.2c-.469,0-.793-.2-.793-.846v-11.4a.892.892,0,0,1,.648-.2c.541,0,1.135.287,1.135,1.531v3.527a3.527,3.527,0,0,1,3.025-1.566c2.323,0,4.051,1.783,4.051,4.539,0,2.719-1.711,4.572-4.1,4.572a3.348,3.348,0,0,1-2.989-1.531Zm2.7-6.626a2.765,2.765,0,0,0-2.7,1.8v1.928a2.591,2.591,0,0,0,2.664,2.43c1.621,0,2.7-1.242,2.7-3.078A2.788,2.788,0,0,0,5198.229,4116.563Z"/><path class="b" d="M5209.606,4118.76h.234v-.18a1.883,1.883,0,0,0-2.143-2.035,2.616,2.616,0,0,0-2.484,1.476c0,.018-1.1,0-1.1-.863a1.579,1.579,0,0,1,.594-1.082,4.6,4.6,0,0,1,3.115-.99c2.448,0,3.781,1.262,3.781,3.457v5.312c0,.09-.324.2-.648.2a.966.966,0,0,1-1.027-.791,2.75,2.75,0,0,1-.072-.6,3.741,3.741,0,0,1-3.115,1.5c-1.854,0-2.952-.99-2.952-2.467C5203.791,4119.695,5205.7,4118.832,5209.606,4118.76Zm.234,1.117-.486.018c-2.52.089-3.817.558-3.817,1.728,0,.773.612,1.26,1.639,1.26a2.425,2.425,0,0,0,2.664-2.34Z"/><path class="b" d="M5222.152,4116.238a.89.89,0,0,1-.541.92,1.665,1.665,0,0,0-1.1-.379c-1.405,0-1.963,1.369-1.963,3.367v3.043c0,.649-.342.846-.792.846h-.2c-.469,0-.793-.2-.793-.846v-7.779a.892.892,0,0,1,.648-.2,1.02,1.02,0,0,1,1.045.863,3.315,3.315,0,0,1,.072.649,2.191,2.191,0,0,1,2.2-1.639C5221.63,4115.086,5222.152,4115.52,5222.152,4116.238Z"/><path class="b" d="M5228.6,4118.76h.234v-.18a1.883,1.883,0,0,0-2.142-2.035,2.616,2.616,0,0,0-2.485,1.476c0,.018-1.1,0-1.1-.863a1.583,1.583,0,0,1,.594-1.082,4.6,4.6,0,0,1,3.115-.99c2.449,0,3.782,1.262,3.782,3.457v5.312c0,.09-.324.2-.649.2a.965.965,0,0,1-1.026-.791,2.693,2.693,0,0,1-.072-.6,3.742,3.742,0,0,1-3.116,1.5c-1.853,0-2.952-.99-2.952-2.467C5222.78,4119.695,5224.689,4118.832,5228.6,4118.76Zm.234,1.117-.486.018c-2.521.089-3.817.558-3.817,1.728,0,.773.612,1.26,1.638,1.26a2.426,2.426,0,0,0,2.665-2.34Zm-3.547-6c0-.307,1.3-2.881,2.647-2.881a.746.746,0,0,1,.774.811c0,1.332-3.043,2.16-3.277,2.16C5225.355,4113.971,5225.283,4113.953,5225.283,4113.881Z"/><path class="b" d="M5241.557,4119.625c0,2.719-1.711,4.572-4.106,4.572a3.345,3.345,0,0,1-2.971-1.621v4.07c0,.649-.341.846-.792.846h-.2c-.469,0-.793-.2-.793-.846V4115.41a.894.894,0,0,1,.649-.2,1.032,1.032,0,0,1,1.062.99,3.1,3.1,0,0,1,.055.5,3.453,3.453,0,0,1,3.043-1.621C5239.828,4115.086,5241.557,4116.869,5241.557,4119.625Zm-1.729.018a2.78,2.78,0,0,0-5.365-1.28v1.819a2.588,2.588,0,0,0,2.664,2.539C5238.748,4122.721,5239.828,4121.479,5239.828,4119.643Z"/><path class="b" d="M5244.236,4111.486a1.036,1.036,0,1,1-.017,2.071,1.036,1.036,0,1,1,.017-2.071Zm-.935,4.59c0-.646.342-.863.809-.863h.181c.468,0,.792.2.792.863v7.113c0,.649-.324.846-.792.846h-.181c-.467,0-.809-.2-.809-.846Z"/><path class="b" d="M5246.846,4119.643c0-2.739,1.711-4.557,4.1-4.557a3.493,3.493,0,0,1,2.971,1.424v-4.719a.934.934,0,0,1,.648-.2c.558,0,1.134.287,1.134,1.531v10.064c0,.649-.323.846-.792.846h-.18c-.468,0-.793-.2-.793-.846v-.666a3.462,3.462,0,0,1-3.043,1.674C5248.574,4124.2,5246.846,4122.379,5246.846,4119.643Zm7.093-1.3a2.7,2.7,0,0,0-2.664-1.783c-1.621,0-2.7,1.224-2.7,3.08a2.786,2.786,0,0,0,2.665,3.078,2.607,2.607,0,0,0,2.7-2.539Z"/><path class="b" d="M5263.209,4118.76h.234v-.18a1.882,1.882,0,0,0-2.142-2.035,2.616,2.616,0,0,0-2.485,1.476c0,.018-1.1,0-1.1-.863a1.579,1.579,0,0,1,.594-1.082,4.6,4.6,0,0,1,3.115-.99c2.448,0,3.781,1.262,3.781,3.457v5.312c0,.09-.324.2-.648.2a.966.966,0,0,1-1.027-.791,2.691,2.691,0,0,1-.072-.6,3.741,3.741,0,0,1-3.115,1.5c-1.854,0-2.952-.99-2.952-2.467C5257.394,4119.695,5259.3,4118.832,5263.209,4118.76Zm.234,1.117-.486.018c-2.52.089-3.816.558-3.816,1.728,0,.773.611,1.26,1.637,1.26a2.426,2.426,0,0,0,2.665-2.34Z"/><path class="b" d="M5275.684,4118.76h.234v-.18a1.883,1.883,0,0,0-2.143-2.035,2.617,2.617,0,0,0-2.485,1.476c0,.018-1.1,0-1.1-.863a1.581,1.581,0,0,1,.6-1.082,4.6,4.6,0,0,1,3.114-.99c2.45,0,3.782,1.262,3.782,3.457v5.312c0,.09-.325.2-.649.2a.964.964,0,0,1-1.025-.791,2.723,2.723,0,0,1-.072-.6,3.742,3.742,0,0,1-3.116,1.5c-1.854,0-2.953-.99-2.953-2.467C5269.867,4119.695,5271.776,4118.832,5275.684,4118.76Zm.234,1.117-.486.018c-2.522.089-3.818.558-3.818,1.728,0,.773.613,1.26,1.638,1.26a2.427,2.427,0,0,0,2.666-2.34Z"/><path class="b" d="M5282.323,4119.643c0-2.739,1.71-4.557,4.106-4.557a3.491,3.491,0,0,1,2.97,1.424v-4.719a.932.932,0,0,1,.648-.2c.558,0,1.135.287,1.135,1.531v10.064c0,.649-.325.846-.792.846h-.181c-.468,0-.791-.2-.791-.846v-.666a3.467,3.467,0,0,1-3.043,1.674C5284.052,4124.2,5282.323,4122.379,5282.323,4119.643Zm7.095-1.3a2.706,2.706,0,0,0-2.666-1.783c-1.62,0-2.7,1.224-2.7,3.08a2.786,2.786,0,0,0,2.665,3.078,2.608,2.608,0,0,0,2.7-2.539Z"/><path class="b" d="M5297.408,4115.086a4.555,4.555,0,1,1-4.554,4.539A4.375,4.375,0,0,1,5297.408,4115.086Zm-.017,1.459a2.909,2.909,0,0,0-2.9,3.08,2.939,2.939,0,0,0,2.9,3.113,3.1,3.1,0,0,0,0-6.193Z"/><path class="b" d="M5317.139,4118.652v4.537c0,.649-.324.846-.791.846h-.181c-.486,0-.81-.2-.81-.846v-4.322c0-1.457-.63-2.215-1.909-2.215a2.528,2.528,0,0,0-2.2,1.442v5.095c0,.649-.324.846-.793.846h-.18c-.468,0-.81-.2-.81-.846v-4.25c0-1.529-.63-2.287-1.908-2.287a2.5,2.5,0,0,0-2.179,1.442v5.095c0,.649-.343.846-.792.846h-.2c-.468,0-.792-.2-.792-.846v-7.779a.887.887,0,0,1,.648-.2c.5,0,1.044.217,1.115,1.332a3.221,3.221,0,0,1,2.684-1.459,2.809,2.809,0,0,1,2.826,1.818,3.4,3.4,0,0,1,3.008-1.818C5316.077,4115.086,5317.139,4116.42,5317.139,4118.652Z"/><path class="b" d="M5320.249,4111.486a1.036,1.036,0,1,1-.018,2.071,1.036,1.036,0,1,1,.018-2.071Zm-.936,4.59c0-.646.342-.863.81-.863h.18c.468,0,.793.2.793.863v7.113c0,.649-.325.846-.793.846h-.18c-.468,0-.81-.2-.81-.846Z"/><path class="b" d="M5327.36,4115.086a4.339,4.339,0,0,1,2.828.9,2.159,2.159,0,0,1,.881,1.494c0,.739-1.008.883-1.062.793a2.568,2.568,0,0,0-2.611-1.691,3.069,3.069,0,0,0,0,6.121,2.584,2.584,0,0,0,2.611-1.693c.054-.09,1.062.037,1.062.81a2.127,2.127,0,0,1-.9,1.477,4.277,4.277,0,0,1-2.809.9,4.556,4.556,0,0,1,0-9.111Z"/><path class="b" d="M5333.677,4111.486a1.036,1.036,0,1,1-.018,2.071,1.036,1.036,0,1,1,.018-2.071Zm-.937,4.59c0-.646.343-.863.811-.863h.179c.469,0,.793.2.793.863v7.113c0,.649-.324.846-.793.846h-.179c-.468,0-.811-.2-.811-.846Z"/><path class="b" d="M5336.971,4123.189v-11.4a.931.931,0,0,1,.648-.2c.558,0,1.134.287,1.134,1.531v10.064c0,.649-.323.846-.792.846h-.18C5337.313,4124.035,5336.971,4123.838,5336.971,4123.189Z"/><path class="b" d="M5342.047,4111.486a1.036,1.036,0,1,1-.019,2.071,1.036,1.036,0,1,1,.019-2.071Zm-.937,4.59c0-.646.342-.863.81-.863h.181c.467,0,.792.2.792.863v7.113c0,.649-.325.846-.792.846h-.181c-.468,0-.81-.2-.81-.846Z"/><path class="b" d="M5349.211,4115.086a4.555,4.555,0,1,1-4.555,4.539A4.374,4.374,0,0,1,5349.211,4115.086Zm-.018,1.459a2.909,2.909,0,0,0-2.9,3.08,2.939,2.939,0,0,0,2.9,3.113,3.1,3.1,0,0,0,0-6.193Z"/></g></g><g class="c"><g class="c"><path class="b" d="M5157.965,4150.477v-10.461a.8.8,0,0,1,.883-.774h.288c.63,0,.792.287,1.062.918l3.062,6.787,3.078-6.787c.269-.631.432-.918,1.062-.918h.252a.8.8,0,0,1,.883.774v10.461c0,.378-.162.558-.522.558h-.144c-.343,0-.505-.18-.505-.558v-9.831l-3.061,6.645a1.049,1.049,0,0,1-1.062.773,1.036,1.036,0,0,1-1.062-.773l-3.043-6.645v9.831c0,.378-.144.558-.5.558h-.181C5158.109,4151.035,5157.965,4150.855,5157.965,4150.477Z"/><path class="b" d="M5170.583,4148.768c0-2,2-2.829,5.96-2.918h.18v-.307a2.122,2.122,0,0,0-2.412-2.285,2.937,2.937,0,0,0-2.738,1.584.691.691,0,0,1-.666-.684c0-.613,1.225-1.982,3.493-1.982a3.136,3.136,0,0,1,3.475,3.332v5.4a.537.537,0,0,1-.4.125c-.4,0-.738-.2-.738-1.135v-.324a3.8,3.8,0,0,1-3.205,1.586C5171.664,4151.162,5170.583,4150.207,5170.583,4148.768Zm6.14-1.207v-.793l-.5.017c-2.935.11-4.448.631-4.448,1.983,0,.863.7,1.421,1.874,1.421A2.792,2.792,0,0,0,5176.723,4147.561Zm-1.3-8.823a1.42,1.42,0,0,1,.828-.324.508.508,0,0,1,.54.486c0,.305-.216.594-.666.9a7.229,7.229,0,0,1-2.953,1.242A8.432,8.432,0,0,1,5175.427,4138.738Z"/><path class="b" d="M5179.564,4149.434a.7.7,0,0,1,.631-.631,3.43,3.43,0,0,0,2.935,1.386c1.423,0,2.215-.576,2.215-1.441,0-1.025-.9-1.242-2.521-1.584-1.332-.287-3.008-.666-3.008-2.394,0-1.532,1.3-2.594,3.278-2.594,2.089,0,3.17.992,3.17,1.638,0,.452-.614.666-.649.614a2.905,2.905,0,0,0-2.521-1.26c-1.405,0-2.16.594-2.16,1.439,0,.918.81,1.17,2.394,1.512,1.387.307,3.151.686,3.151,2.449,0,1.584-1.3,2.612-3.385,2.612C5180.808,4151.18,5179.564,4150.082,5179.564,4149.434Z"/><path class="b" d="M5191.355,4139.477a.693.693,0,0,1,.792-.776.674.674,0,0,1,.756.776.774.774,0,0,1-1.548,0Zm.18,11v-7.6c0-.432.216-.559.522-.559h.127c.3,0,.521.127.521.559v7.6c0,.433-.216.558-.521.558h-.127C5191.751,4151.035,5191.535,4150.91,5191.535,4150.477Z"/><path class="b" d="M5196.359,4143.744a3.365,3.365,0,0,1,2.917-1.568c2.269,0,3.4,1.513,3.4,3.781v4.52c0,.433-.217.558-.523.558h-.126c-.306,0-.521-.125-.521-.558v-4.448c0-1.709-.847-2.754-2.3-2.754a3.03,3.03,0,0,0-2.827,1.819v5.383c0,.433-.216.558-.523.558h-.126c-.305,0-.522-.125-.522-.558v-8.03c0-.037.18-.127.4-.127.4,0,.755.2.755,1.135Z"/><path class="b" d="M5203.99,4142.969v-.108c0-.306.127-.468.559-.468h1.26v-.793c0-1.961.865-3.041,2.521-3.041,1.152,0,1.711.484,1.711,1.007,0,.414-.307.594-.343.559a2.072,2.072,0,0,0-1.368-.523c-.973,0-1.387.63-1.387,2.052v.739h1.729c.432,0,.558.162.558.468v.108c0,.306-.126.469-.558.469h-1.711v7.039c0,.433-.2.558-.5.558h-.126c-.306,0-.522-.125-.522-.558v-7.039h-1.26C5204.117,4143.438,5203.99,4143.275,5203.99,4142.969Z"/><path class="b" d="M5210.021,4146.66a4.421,4.421,0,1,1,4.429,4.52A4.308,4.308,0,0,1,5210.021,4146.66Zm7.652.035a3.24,3.24,0,1,0-3.223,3.457A3.276,3.276,0,0,0,5217.673,4146.695Z"/><path class="b" d="M5221.865,4143.959a2.234,2.234,0,0,1,2.27-1.783c.791,0,1.242.324,1.242.883,0,.431-.289.648-.324.613a1.488,1.488,0,0,0-1.045-.361c-1.53,0-2.124,1.6-2.124,3.8v3.368c0,.433-.216.558-.523.558h-.126c-.3,0-.522-.125-.522-.558v-8.03c0-.037.18-.127.4-.127.4,0,.756.2.756,1.135Z"/><path class="b" d="M5227.949,4143.672a3.286,3.286,0,0,1,2.7-1.5,2.841,2.841,0,0,1,2.844,1.838,3.44,3.44,0,0,1,3.043-1.838c2.161,0,3.314,1.244,3.314,3.619v4.682c0,.433-.216.558-.523.558h-.126c-.306,0-.522-.125-.522-.558v-4.61c0-1.709-.739-2.592-2.214-2.592a2.947,2.947,0,0,0-2.558,1.729v5.473c0,.433-.215.558-.521.558h-.126c-.306,0-.523-.125-.523-.558v-4.52c0-1.8-.738-2.682-2.215-2.682a2.946,2.946,0,0,0-2.556,1.729v5.473c0,.433-.216.558-.522.558h-.127c-.3,0-.521-.125-.521-.558v-8.03c0-.037.18-.127.4-.127.4,0,.756.2.756,1.135Z"/><path class="b" d="M5241.646,4148.768c0-2,2-2.829,5.96-2.918h.181v-.307a2.123,2.123,0,0,0-2.413-2.285,2.935,2.935,0,0,0-2.737,1.584.691.691,0,0,1-.666-.684c0-.613,1.224-1.982,3.493-1.982a3.136,3.136,0,0,1,3.475,3.332v5.4a.537.537,0,0,1-.4.125c-.4,0-.738-.2-.738-1.135v-.324a3.8,3.8,0,0,1-3.205,1.586C5242.727,4151.162,5241.646,4150.207,5241.646,4148.768Zm6.141-1.207v-.793l-.5.017c-2.934.11-4.447.631-4.447,1.983,0,.863.7,1.421,1.872,1.421A2.792,2.792,0,0,0,5247.787,4147.561Z"/><path class="b" d="M5250.7,4146.66a4.324,4.324,0,0,1,4.41-4.484c2.5,0,3.692,1.6,3.692,2.377,0,.523-.739.631-.774.558a2.891,2.891,0,0,0-2.918-1.89,3.465,3.465,0,0,0,0,6.914,2.891,2.891,0,0,0,2.918-1.891c.035-.072.774.037.774.559,0,.773-1.188,2.377-3.692,2.377A4.344,4.344,0,0,1,5250.7,4146.66Z"/><path class="b" d="M5260.51,4139.477a.693.693,0,0,1,.793-.776.674.674,0,0,1,.756.776.775.775,0,0,1-1.549,0Zm.18,11v-7.6c0-.432.216-.559.523-.559h.126c.306,0,.522.127.522.559v7.6c0,.433-.216.558-.522.558h-.126C5260.906,4151.035,5260.69,4150.91,5260.69,4150.477Z"/><path class="b" d="M5263.787,4146.66a4.421,4.421,0,1,1,4.429,4.52A4.308,4.308,0,0,1,5263.787,4146.66Zm7.651.035a3.24,3.24,0,1,0-3.222,3.457A3.276,3.276,0,0,0,5271.438,4146.695Zm-1.836-7.957a1.422,1.422,0,0,1,.829-.324.508.508,0,0,1,.54.486c0,.305-.217.594-.666.9a7.236,7.236,0,0,1-2.953,1.242A8.4,8.4,0,0,1,5269.6,4138.738Z"/><path class="b" d="M5275.631,4143.744a3.362,3.362,0,0,1,2.916-1.568c2.269,0,3.4,1.513,3.4,3.781v4.52c0,.433-.217.558-.523.558h-.125c-.307,0-.523-.125-.523-.558v-4.448c0-1.709-.846-2.754-2.3-2.754a3.031,3.031,0,0,0-2.828,1.819v5.383c0,.433-.215.558-.521.558H5275c-.306,0-.521-.125-.521-.558v-8.03c0-.037.179-.127.4-.127.4,0,.756.2.756,1.135Z"/></g><path class="b" d="M5292.281,4145.725h.289a1.177,1.177,0,0,0-.017-.252,1.555,1.555,0,0,0-1.783-1.586,2.2,2.2,0,0,0-2.161,1.279c-.018.035-1.638.162-1.638-1.008a1.606,1.606,0,0,1,.539-1.152,4.733,4.733,0,0,1,3.422-1.027c2.791,0,4.14,1.279,4.14,3.636v5.186c0,.127-.468.289-.953.289a1.31,1.31,0,0,1-1.333-.848,3.442,3.442,0,0,1-.143-.594,3.511,3.511,0,0,1-3.043,1.514c-1.837,0-2.954-1.01-2.954-2.521C5286.646,4146.678,5288.555,4145.777,5292.281,4145.725Zm.289,1.277h-.486c-2,.072-3.061.451-3.061,1.441,0,.666.522,1.08,1.368,1.08a1.98,1.98,0,0,0,2.179-1.89Z"/><path class="b" d="M5305.837,4142.375v10.875c0,.936-.468,1.225-1.134,1.225h-.27c-.648,0-1.134-.307-1.134-1.225v-3.637a3.2,3.2,0,0,1-2.828,1.6c-2.376,0-4.033-1.871-4.033-4.627,0-2.791,1.657-4.609,4.087-4.609a3.227,3.227,0,0,1,2.864,1.494,1.422,1.422,0,0,1,1.494-1.387A1.366,1.366,0,0,1,5305.837,4142.375Zm-2.521,3.061a2.242,2.242,0,0,0-2.178-1.422,2.288,2.288,0,0,0-2.286,2.574,2.338,2.338,0,0,0,2.25,2.594,2.123,2.123,0,0,0,2.214-2.108Z"/><path class="b" d="M5316.295,4143.311v7.437c0,.09-.451.287-.955.287a1.408,1.408,0,0,1-1.422-.953,2.964,2.964,0,0,1-.09-.486,3.319,3.319,0,0,1-2.9,1.6c-2.286,0-3.241-1.6-3.241-3.636v-4.25c0-.918.468-1.225,1.1-1.225h.288c.666,0,1.135.289,1.135,1.225v3.871c0,1.189.611,1.89,1.656,1.89a2.132,2.132,0,0,0,1.908-1.152v-4.609c0-.918.452-1.225,1.1-1.225h.271C5315.826,4142.086,5316.295,4142.375,5316.295,4143.311Z"/><path class="b" d="M5317.912,4140.826c0-.558,1.225-3.078,2.719-3.078a.991.991,0,0,1,1.025,1.063c0,1.367-2.628,2.267-3.385,2.267C5318.037,4141.078,5317.912,4141.023,5317.912,4140.826Zm.342,9v-6.517c0-.918.486-1.225,1.152-1.225h.252c.684,0,1.135.289,1.135,1.225v6.517c0,.92-.469,1.207-1.117,1.207h-.27C5318.74,4151.035,5318.254,4150.766,5318.254,4149.828Z"/><path class="b" d="M5286.143,4153.869v-2.213h35.674v2.213Z"/></g><ellipse class="e" cx="36" cy="35.5" rx="36" ry="35.5" transform="translate(5066.199 4076.964)"/><path class="f" d="M5104.175,4090.261a1.94,1.94,0,0,0-1.524-3.139h0a1.939,1.939,0,0,0-1.939,1.939h0a1.937,1.937,0,0,0,.156.761l0,.013a1.989,1.989,0,0,0,.247.414,7.383,7.383,0,0,1,.687,6.178h1.683A7.379,7.379,0,0,1,5104.175,4090.261Z"/><path class="f" d="M5095.453,4092.953a1.479,1.479,0,0,0-.059-.977,1.493,1.493,0,1,0-2.418,1.654l.008.007a1.546,1.546,0,0,0,.3.222,5.691,5.691,0,0,1,2.321,4.192l1.2-.5A5.693,5.693,0,0,1,5095.453,4092.953Z"/><path class="f" d="M5084.081,4103.622a1.476,1.476,0,0,0-.733-.648,1.494,1.494,0,1,0-.549,2.877h.011a1.511,1.511,0,0,0,.368-.054,5.688,5.688,0,0,1,4.606,1.322l.49-1.2A5.694,5.694,0,0,1,5084.081,4103.622Z"/><path class="f" d="M5083.586,4119.212a1.48,1.48,0,0,0-.977.059,1.495,1.495,0,1,0,1.65,2.423l.007-.007a1.488,1.488,0,0,0,.223-.3,5.689,5.689,0,0,1,4.192-2.321l-.5-1.2A5.694,5.694,0,0,1,5083.586,4119.212Z"/><path class="f" d="M5094.259,4130.59a1.5,1.5,0,1,0,2.232,1.286v-.011a1.488,1.488,0,0,0-.054-.368,5.692,5.692,0,0,1,1.322-4.6l-1.2-.5a5.689,5.689,0,0,1-2.3,4.191Z"/><path class="f" d="M5109.85,4131.087a1.48,1.48,0,0,0,.06.977,1.494,1.494,0,1,0,2.422-1.65l-.008-.007a1.449,1.449,0,0,0-.3-.222,5.692,5.692,0,0,1-2.321-4.192l-1.2.5A5.685,5.685,0,0,1,5109.85,4131.087Z"/><path class="f" d="M5121.223,4120.406a1.493,1.493,0,1,0,1.867-2.117,1.461,1.461,0,0,0-.588-.113h-.01a1.45,1.45,0,0,0-.368.054,5.7,5.7,0,0,1-4.606-1.324l-.494,1.2A5.687,5.687,0,0,1,5121.223,4120.406Z"/><path class="f" d="M5121.717,4104.821a1.494,1.494,0,1,0-.178-2.819,1.477,1.477,0,0,0-.5.336l-.007.008a1.473,1.473,0,0,0-.223.3,5.7,5.7,0,0,1-4.192,2.321l.5,1.2A5.686,5.686,0,0,1,5121.717,4104.821Z"/><path class="f" d="M5111.043,4093.447a1.493,1.493,0,1,0-2.228-1.283v.011a1.515,1.515,0,0,0,.054.368,5.688,5.688,0,0,1-1.323,4.606l1.2.494a5.694,5.694,0,0,1,2.3-4.194Z"/><path class="f" d="M5088.344,4095.557a1.939,1.939,0,1,0-3.3,1.6,1.979,1.979,0,0,0,.648.424h.014a2.023,2.023,0,0,0,.467.119,7.379,7.379,0,0,1,4.855,3.882l1.191-1.191A7.381,7.381,0,0,1,5088.344,4095.557Z"/><path class="f" d="M5080.9,4110.492a1.94,1.94,0,1,0-.439,3.307l.012,0a1.934,1.934,0,0,0,.415-.247,7.381,7.381,0,0,1,6.184-.687v-1.683a7.381,7.381,0,0,1-6.168-.682Z"/><path class="f" d="M5086.19,4126.327a1.942,1.942,0,1,0,2.024,2.648v-.013a1.948,1.948,0,0,0,.119-.468,7.383,7.383,0,0,1,3.883-4.855l-1.191-1.191a7.382,7.382,0,0,1-4.834,3.88Z"/><path class="f" d="M5101.128,4133.771a1.94,1.94,0,0,0,1.524,3.139h0a1.939,1.939,0,0,0,1.939-1.939h0a1.913,1.913,0,0,0-.156-.761l0-.013a1.859,1.859,0,0,0-.247-.414,7.382,7.382,0,0,1-.689-6.178h-1.683A7.383,7.383,0,0,1,5101.128,4133.771Z"/><path class="f" d="M5116.961,4128.48a1.939,1.939,0,1,0,3.3-1.6,1.909,1.909,0,0,0-.648-.424h-.018a1.919,1.919,0,0,0-.468-.119,7.387,7.387,0,0,1-4.855-3.883l-1.191,1.191a7.377,7.377,0,0,1,3.88,4.834Z"/><path class="f" d="M5124.409,4113.541a1.94,1.94,0,0,0,3.14-1.523h0a1.938,1.938,0,0,0-1.939-1.939h0a1.927,1.927,0,0,0-.76.156l-.013,0a1.9,1.9,0,0,0-.414.247,7.384,7.384,0,0,1-6.179.688v1.683A7.379,7.379,0,0,1,5124.409,4113.541Z"/><path class="f" d="M5119.114,4097.711a1.942,1.942,0,1,0-2.024-2.648v.014a1.93,1.93,0,0,0-.119.467,7.385,7.385,0,0,1-3.879,4.855l1.191,1.191A7.38,7.38,0,0,1,5119.114,4097.711Z"/><path class="f" d="M5102.652,4096.158a15.86,15.86,0,1,1-15.86,15.86h0A15.859,15.859,0,0,1,5102.652,4096.158Z"/><path class="g" d="M5102.652,4098.291a13.727,13.727,0,1,1-13.727,13.727h0A13.727,13.727,0,0,1,5102.652,4098.291Z"/><circle class="e" cx="1.707" cy="1.707" r="1.707" transform="translate(5097.689 4099.454)"/><circle class="e" cx="1.707" cy="1.707" r="1.707" transform="translate(5090.554 4106.201)"/><circle class="e" cx="1.707" cy="1.707" r="1.707" transform="translate(5090.787 4115.198)"/><circle class="e" cx="1.707" cy="1.707" r="1.707" transform="translate(5099.861 4120.472)"/><circle class="e" cx="1.707" cy="1.707" r="1.707" transform="translate(5108.004 4118.765)"/><circle class="e" cx="1.707" cy="1.707" r="1.707" transform="translate(5110.64 4105.426)"/><circle class="e" cx="0.93" cy="0.93" r="0.93" transform="translate(5107.926 4101.393)"/><circle class="e" cx="0.93" cy="0.93" r="0.93" transform="translate(5103.273 4101.936)"/><circle class="e" cx="0.93" cy="0.93" r="0.93" transform="translate(5095.595 4104.495)"/><circle class="e" cx="0.93" cy="0.93" r="0.93" transform="translate(5093.733 4109.847)"/><circle class="e" cx="0.93" cy="0.93" r="0.93" transform="translate(5095.905 4117.834)"/><circle class="e" cx="0.93" cy="0.93" r="0.93" transform="translate(5103.661 4117.679)"/><circle class="e" cx="0.93" cy="0.93" r="0.93" transform="translate(5112.812 4113.025)"/><circle class="e" cx="0.93" cy="0.93" r="0.93" transform="translate(5108.004 4111.086)"/><circle class="e" cx="0.93" cy="0.93" r="0.93" transform="translate(5098.93 4111.086)"/><circle class="e" cx="0.93" cy="0.93" r="0.93" transform="translate(5101.722 4107.907)"/><circle class="e" cx="0.93" cy="0.93" r="0.93" transform="translate(5102.652 4112.792)"/><path class="h" d="M5281.958,4096.55l-124.8,2.414c-9.57.114-16.53-9.233-15.549-20.876l.728-8.626c.983-11.642,9.536-21.173,19.106-21.29l124.8-2.412c9.569-.115,16.53,9.233,15.547,20.875l-.727,8.626C5300.082,4086.9,5291.527,4096.434,5281.958,4096.55Z"/><path class="e" d="M5153.037,4081.277l3.5-10.839c.424-.953.757-1.364,1.467-1.375,1.117-.016,1.392.386,1.445,1.7l-.819,11c.061,1.927-1.041,2.755-2.8,2.781C5153.253,4084.588,5152.119,4083.42,5153.037,4081.277Zm3.453-15.945a3.812,3.812,0,0,1,.84-2.617,2.571,2.571,0,0,1,2.12-.672c1.555-.023,2.31.54,2.328,1.724a3.787,3.787,0,0,1-.808,2.615c-.467.446-.9.623-2.155.641-1.524.021-2.31-.508-2.327-1.691Z"/><path class="e" d="M5172.8,4084.4c-5.781.086-9.554-3.411-9.639-9.294-.1-7.033,5.047-13.365,12.52-13.473,3.481-.051,6.07,1.062,7.472,2.427a3.841,3.841,0,0,1,1.291,2.585c.036,2.5-2.97,2.547-3.111,2.379a5.936,5.936,0,0,0-5.491-3.131c-4.394.064-7.65,3.967-7.582,8.735.022,3.752,2.319,5.984,5.769,5.934a5.58,5.58,0,0,0,3.869-1.374c.867-.826,1.3-1.339,1.809-3.477l-3.956.058c-1.183.016-1.833-.481-1.844-1.259a3.6,3.6,0,0,1,.681-2.039,2.084,2.084,0,0,1,1.649-.5l6.491-.1c1.52-.022,2.107.746,1.759,2.409l-1.824,9.293c-.032.135-.6.415-1.448.427a2.073,2.073,0,0,1-2.334-2.232A7.814,7.814,0,0,1,5172.8,4084.4Z"/><path class="e" d="M5201.516,4078.434c1.144,1.843,1.763,2.409,3.285,2.522.17.03.277,2.769-3.07,2.817-1.96.029-3.054-.733-4.724-3.752l-2.358-4.124-2.029.031-1.1,5.662c-.317,1.528-1.014,2.281-2.469,2.3l-.675.01c-1.354.019-2.145-.815-1.828-2.376l3.367-17.092a2.884,2.884,0,0,1,3.074-2.615l5.443-.08c5.443-.08,8.247,2.01,8.3,5.966.061,4.159-2.534,7.037-7.161,7.544Zm-4.184-6.228c2.942-.042,4.376-1.586,4.339-3.919-.024-1.759-1.324-2.685-3.725-2.65l-3.379.049-1.291,6.58Z"/><path class="e" d="M5206.329,4081.508a4.91,4.91,0,0,1,1.043-2.753l9.335-16.065c.559-.956,1.229-1.439,3.19-1.468,2.232-.032,2.882.6,3.064,1.512l3.968,19.082c.074.405-1.329,1.609-2.817,1.631-1.282.019-2.071-.713-2.333-2.3l-.692-3.439-7.98.118-3.195,5.862C5209.842,4083.791,5206.363,4083.944,5206.329,4081.508Zm14.432-7.517-1.537-7.891-4.448,7.98Z"/><path class="e" d="M5235.329,4080.813l3.021-15.3-4.766.07c-1.387.02-2.14-.543-2.152-1.456a4.148,4.148,0,0,1,.778-2.345c.364-.378.836-.553,1.952-.569L5248.9,4061c1.35-.02,2.1.545,2.117,1.457a3.92,3.92,0,0,1-.779,2.345c-.364.378-.8.553-1.918.569l-4.971.073-3.054,15.432c-.315,1.526-1.013,2.281-2.467,2.3l-.677.01C5235.77,4083.208,5235.013,4082.374,5235.329,4080.813Z"/><path class="e" d="M5250.237,4080.593l3.46-17.534c.351-1.561,1.018-2.281,2.437-2.3l.745-.012c1.351-.02,2.143.815,1.827,2.374l-3.463,17.535c-.315,1.594-1.014,2.281-2.435,2.3l-.745.012C5250.711,4082.988,5249.92,4082.154,5250.237,4080.593Z"/><path class="e" d="M5259.912,4080.723a3.777,3.777,0,0,1-1.291-2.618,2.749,2.749,0,0,1,1.992-2.5,8.024,8.024,0,0,0,6.85,3.551c2.434-.035,3.568-1.068,3.543-2.756-.022-1.522-1.72-2.072-3.932-2.886-2.652-1.009-5.578-2.386-5.635-6.173-.053-3.686,2.7-7.007,8.452-7.091,3.414-.051,5.76.863,7.1,2.162a3.317,3.317,0,0,1,1.151,2.383,2.806,2.806,0,0,1-2.159,2.636,7.044,7.044,0,0,0-6.133-3.291c-2.165.032-3.5,1.168-3.481,2.621.025,1.624,1.791,2.172,4.207,3.116,2.855,1.041,5.783,2.385,5.835,5.935.06,4.091-2.8,7.142-8.922,7.232C5263.933,4083.1,5261.35,4082.122,5259.912,4080.723Z"/><path class="e" d="M5278.5,4080.957a3.806,3.806,0,0,1,.841-2.615,2.575,2.575,0,0,1,2.122-.674c1.555-.022,2.306.54,2.325,1.724a3.653,3.653,0,0,1-.841,2.617c-.434.446-.872.622-2.122.64C5279.31,4082.671,5278.524,4082.141,5278.5,4080.957Zm2.365-7.034.785-10.968c-.027-1.929,1.076-2.756,2.833-2.781,2.572-.038,3.7,1.13,2.789,3.273l-3.526,10.806c-.392.986-.725,1.4-1.468,1.407-1.078.017-1.39-.385-1.41-1.737Z"/></g></svg>