<svg xmlns="http://www.w3.org/2000/svg" xmlns:xlink="http://www.w3.org/1999/xlink" width="567" height="309" viewBox="0 0 567 309"><defs><style>.a{fill:#fff;}.ag,.b{fill:none;}.c{clip-path:url(#a);}.d{fill:#2065c9;}.e{fill:#435ccb;}.f{fill:#faaa91;}.g{fill:#aabcf0;}.h{fill:#e8ecff;}.i{fill:#ced8f7;}.j{fill:#639d21;}.k{opacity:0.25;}.k,.r{mix-blend-mode:multiply;isolation:isolate;}.l{fill:#8797d9;}.m{fill:#bdc6e3;}.n{fill:#102363;}.o{fill:#7fbf36;}.p{fill:#33458f;}.q{fill:#b5c4f2;}.r{opacity:0.17;}.s{fill:#7185ba;}.t{fill:#e9edfc;}.u{fill:#294ab7;}.v{fill:#003e96;}.w{fill:#ff6700;}.x{fill:#0f1f59;}.y{fill:#40336f;}.z{fill:#de9780;}.aa{fill:#8474bc;}.ab{fill:#e37b66;}.ac{fill:#d54f1f;}.ad{fill:#8da0d4;}.ae{fill:#122870;}.af{fill:#307596;}.ag{stroke:#baced8;stroke-miterlimit:10;stroke-width:1.05px;}.ah{fill:#bfeaff;}.ai{fill:#d8e2ff;}.aj{fill:#c34f00;}.ak{clip-path:url(#b);}.al{fill:#ffbfa2;}.am{fill:#febea1;}.an{fill:#fdbda0;}.ao{fill:#fcbc9f;}.ap{fill:#fcbb9e;}.aq{fill:#fbba9d;}.ar{fill:#fab99c;}.as{fill:#f9b89b;}.at{fill:#f8b79a;}.au{fill:#f7b699;}.av{fill:#f6b598;}.aw{fill:#f6b497;}.ax{fill:#f5b396;}.ay{fill:#f4b295;}.az{fill:#f3b194;}.ba{fill:#f2b093;}.bb{fill:#f1af92;}.bc{fill:#f1ae91;}.bd{fill:#f0ad90;}.be{fill:#efac8f;}.bf{fill:#eeab8e;}.bg{fill:#edaa8d;}.bh{fill:#eca98c;}.bi{fill:#eba88b;}.bj{fill:#eba78a;}.bk{fill:#eaa689;}.bl{fill:#e9a588;}.bm{fill:#e8a487;}.bn{fill:#e7a386;}.bo{fill:#e6a285;}.bp{fill:#e5a184;}.bq{fill:#e5a083;}.br{fill:#e49f82;}.bs{fill:#e39e81;}.bt{fill:#e29d80;}.bu{fill:#e19c7f;}.bv{fill:#0af;}.bw{fill:#ea0f90;}</style><clipPath id="a"><rect class="a" width="567" height="309" transform="translate(753.335 205.45)"/></clipPath><clipPath id="b"><path class="b" d="M5192.24,3701.495a36.152,36.152,0,0,0-7.323.4c-3.963.9-4.242,3.871-6.762,7.055s-3.1,8.135-.467,11.223c1.158,1.356,10.526-.679,18.384-2.957a47.774,47.774,0,0,0-2.8-12.183A20.468,20.468,0,0,0,5192.24,3701.495Z" transform="translate(-5175.968 -3701.487)"/></clipPath></defs><g class="c" transform="translate(-753.335 -205.45)"><g transform="translate(784.884 229.793)"><g transform="translate(2.56 97.733)"><g transform="translate(28.673 169.827)"><path class="d" d="M3904.964,4507.034h0a7.364,7.364,0,0,1-5.715-8.7l5.171-60.024c.839-3.951,12.029-4.989,16.01-4.157h0c3.981.832,13.9,6.28,13.06,10.231l-19.762,56.976A7.42,7.42,0,0,1,3904.964,4507.034Z" transform="translate(-3899.091 -4433.89)"/></g><g transform="translate(371.569 169.827)"><path class="d" d="M5402.151,4507.034h0a7.362,7.362,0,0,0,5.714-8.7l-5.17-60.024c-.838-3.951-12.028-4.989-16.01-4.157h0c-3.981.832-13.9,6.28-13.061,10.231l19.763,56.976A7.42,7.42,0,0,0,5402.151,4507.034Z" transform="translate(-5373.575 -4433.89)"/></g><g transform="translate(335.891 133.176)"><path class="d" d="M5248.734,4348.207h0a7.363,7.363,0,0,0,5.714-8.7l-5.17-60.025c-.837-3.951-12.028-4.988-16.01-4.156h0c-3.98.832-13.9,6.28-13.06,10.231l19.763,56.976A7.42,7.42,0,0,0,5248.734,4348.207Z" transform="translate(-5220.158 -4275.062)"/></g><g transform="translate(71.64 133.32)"><path class="d" d="M4089.526,4348.479h0a7.423,7.423,0,0,0,8.919-5.426l21.253-56.431c.949-3.927-8.713-9.623-12.67-10.564h0c-3.956-.941-15.27-.237-16.219,3.689l-6.752,59.882A7.36,7.36,0,0,0,4089.526,4348.479Z" transform="translate(-4083.854 -4275.685)"/></g><g transform="translate(0 79.801)"><rect class="d" width="457.892" height="117.51" rx="58.755"/></g><g transform="translate(13.24 0)"><path class="d" d="M3915.042,3701.479s-66.141,12.684-47.025,79.13c17.742,61.671-35.286,80.976-35.286,80.976l444.653-16.142-50.306-65.339s28.942-62.232-35.285-75.348S3915.042,3701.479,3915.042,3701.479Z" transform="translate(-3832.73 -3697.936)"/></g><g transform="translate(64.415 115.126)"><ellipse class="d" cx="165.818" cy="19.427" rx="165.818" ry="19.427"/></g></g><g transform="translate(257.309 41.498)"><path class="e" d="M4905.716,3454.238s10.949,2.86,18.4,17.6c6.43,12.721,19.169,3.718,21.738,21.819,1.536,10.825,21.9,8.407,19.682,25.789s-24.438,28.66-31.827,20.173-21.789.527-26.281-13.674-23.924-2.717-25.205-14.02c-1.866-16.462-20.147-32.394-5.065-47.242C4884.812,3457.141,4905.716,3454.238,4905.716,3454.238Z" transform="translate(-4871.237 -3454.238)"/></g><g transform="translate(275.542 91.141)"><path class="f" d="M4953.633,3671.089l4.563-1.722,2.054,14.516-9.687-.744-.92-7.026Z" transform="translate(-4949.643 -3669.366)"/></g><g transform="translate(339.966 0)"><rect class="g" width="108.863" height="65.776" transform="translate(0)"/></g><g transform="translate(348.47 6.864)"><rect class="h" width="91.856" height="52.049"/></g><g transform="translate(348.47 23.537)"><path class="i" d="M5263.238,3411.778s19.627-12.849,24.383-16.281,11.458-6.864,16-5.577,10.809,6.864,10.809,6.864,23.346-20.164,28.319-20.378,12.347,9.348,12.347,9.348v26.024Z" transform="translate(-5263.238 -3376.402)"/></g><g transform="translate(359.234 12.171)"><ellipse class="i" cx="5.945" cy="5.899" rx="5.945" ry="5.899" transform="translate(0 0)"/></g><g transform="translate(411.293 54.569)"><g transform="translate(0 8.063)"><path class="j" d="M5539.215,3545.824s-6.557,9.47-5.765,16.643c0,0,8.729-5.636,18.4-3.933S5539.215,3545.824,5539.215,3545.824Z" transform="translate(-5533.384 -3545.824)"/></g><g class="k" transform="translate(38.668 236.328)"><ellipse class="l" cx="34.964" cy="3.343" rx="34.964" ry="3.343"/></g><g transform="translate(25.789 182.604)"><path class="i" d="M5679.832,4361.7h-7.957a27.49,27.49,0,0,1-27.6-27.383l.186-31.514c.116,12.006,63.078,11.41,62.962-.6v32.11A27.49,27.49,0,0,1,5679.832,4361.7Z" transform="translate(-5644.279 -4302.204)"/></g><g transform="translate(36.632 184.055)"><path class="m" d="M5743.426,4308.492l-1.125,1.485c-4.454,39.564-36.083,47.822-51.4,50.928a27.606,27.606,0,0,0,16.753,5.629h7.957a27.49,27.49,0,0,0,27.6-27.383Z" transform="translate(-5690.903 -4308.492)"/></g><g transform="translate(21.393 175.9)"><path class="m" d="M5699.1,4287.844c0,5.057-16.5,9.155-36.863,9.155s-36.863-4.1-36.863-9.155v-13.926c6.046-3,22.418,4.771,36.863,4.771,11.254,0,27.646-7.165,34.406-5.191C5702.117,4275.1,5699.1,4285.583,5699.1,4287.844Z" transform="translate(-5625.377 -4273.154)"/></g><g transform="translate(21.393 167.508)"><ellipse class="n" cx="36.863" cy="9.155" rx="36.863" ry="9.155"/></g><g transform="translate(47.367 89.537)"><path class="n" d="M5749.732,3986.058l-1.267-.071c1.912-33.518-11.267-86.256-11.4-86.785l1.231-.306C5738.431,3899.426,5751.655,3952.351,5749.732,3986.058Z" transform="translate(-5737.065 -3898.896)"/></g><g transform="translate(36.356 36.176)"><path class="n" d="M5712.474,3780.67l-1.269-.03a273.315,273.315,0,0,0-7.754-71.977,247.4,247.4,0,0,0-12.4-37.362c-1.071-2.569-1.351-3.257-1.333-3.649l1.268.057a.259.259,0,0,0,0-.047c.038.277.595,1.613,1.239,3.158a248.511,248.511,0,0,1,12.461,37.544A274.583,274.583,0,0,1,5712.474,3780.67Z" transform="translate(-5689.717 -3667.652)"/></g><g transform="translate(57.259 32.549)"><path class="n" d="M5780.269,3758.439c-1.845-41.661.15-71.855,5.93-89.745,1.949-6.034,4.312-10.548,7.021-13.416a11.1,11.1,0,0,1,4.957-3.249c.105-.034.237-.077.276-.1a.533.533,0,0,0-.255.441l1.268.057c-.023.513-.486.663-.9.795-4.476,1.448-8.232,6.781-11.162,15.852-5.734,17.747-7.708,47.793-5.871,89.3Z" transform="translate(-5779.603 -3651.934)"/></g><g transform="translate(58.895 106.544)"><path class="n" d="M5787.9,4031.14l-1.269-.054c.819-18.9,2.968-33.469,6.388-43.312,2.675-7.7,6.127-12.529,10.261-14.357a10.1,10.1,0,0,1,10.056,1.342l-.807.973h0a8.808,8.808,0,0,0-8.747-1.156C5797.539,3977.353,5789.711,3989.422,5787.9,4031.14Z" transform="translate(-5786.636 -3972.598)"/></g><g transform="translate(4.314 86.774)"><path class="j" d="M5552.838,3906.719a21.842,21.842,0,0,0,.491,13.842s11.411-19.135,28.445-21.94-2.02-11.7-2.02-11.7Z" transform="translate(-5551.935 -3886.922)"/></g><g transform="translate(62.609 35.478)"><path class="j" d="M5802.781,3683.9s15.071-8.835,23.6-8.452-10.3-15.015-17.818-9.708S5802.781,3683.9,5802.781,3683.9Z" transform="translate(-5802.609 -3664.627)"/></g><g transform="translate(5.328)"><path class="o" d="M5594.876,3555.31a3.32,3.32,0,0,1-5.746,1.393c-6.016-6.99-17.126-19.386-24.729-24.805-12.326-8.787-10.918-19.827,6.464-20.907s33,5.664,27.759,28.207Z" transform="translate(-5556.296 -3510.882)"/></g><g transform="translate(77.689 97.666)"><path class="o" d="M5868.416,3945.355s-5.564,11.928,10.086,17.019c23.276,7.573,35.4,34.225,35.4,34.225s.568-19.223-3.731-33.4c-4.272-14.082-8.68-23.969-17.9-27.172S5874.631,3932.321,5868.416,3945.355Z" transform="translate(-5867.455 -3934.124)"/></g><g transform="translate(63.741 29.016)"><path class="o" d="M5807.473,3651.227s4.134-23.516,32.436-10.861c17.381,7.772,15.878,38.133,15.878,38.133C5846.1,3654.923,5818.972,3648.661,5807.473,3651.227Z" transform="translate(-5807.473 -3636.626)"/></g><g transform="translate(5.218 80.921)"><path class="o" d="M5600.659,3886.984c-5.362-5.13-20.7-15.723-44.838.224,0,0,2.165-21.076,22.97-24.906,19.628-3.613,23.2,6.209,23.907,23.769A1.207,1.207,0,0,1,5600.659,3886.984Z" transform="translate(-5555.821 -3861.559)"/></g><g transform="translate(34.137 130.837)"><path class="o" d="M5704.729,4079.966s-13.539-9.006-17.461,10.327-7.091,27.1-7.091,27.1,24.379-8.018,27.16-16.954S5710.434,4081.423,5704.729,4079.966Z" transform="translate(-5680.176 -4077.871)"/></g><g transform="translate(86.288 104.932)"><path class="p" d="M5938.693,4004.211a.211.211,0,0,1-.206-.162c-2.88-12.116-11.953-21.813-19.057-27.815a89.364,89.364,0,0,0-14.886-10.228.209.209,0,0,1-.09-.283.212.212,0,0,1,.285-.09,89.825,89.825,0,0,1,14.965,10.281c7.153,6.042,16.288,15.811,19.195,28.038a.21.21,0,0,1-.157.253A.216.216,0,0,1,5938.693,4004.211Z" transform="translate(-5904.431 -3965.609)"/></g><g transform="translate(19.611 0.986)"><path class="p" d="M5639.333,3554.757a.212.212,0,0,1-.209-.178,97.675,97.675,0,0,0-4.534-16.755c-3-8.045-8.334-18.439-16.755-22.269a.209.209,0,0,1-.1-.279.212.212,0,0,1,.28-.1c4.722,2.147,11.5,7.8,16.979,22.512a98.083,98.083,0,0,1,4.553,16.829.209.209,0,0,1-.176.24Z" transform="translate(-5617.711 -3515.155)"/></g><g transform="translate(39.244 132.967)"><path class="p" d="M5702.348,4120.866a.215.215,0,0,1-.162-.073.21.21,0,0,1,.023-.3c.072-.061,7.14-6.143,9.162-14.954,2.045-8.917,7.772-18.248,7.83-18.341a.213.213,0,0,1,.291-.069.209.209,0,0,1,.07.289c-.057.093-5.748,9.367-7.778,18.215-2.053,8.949-9.227,15.119-9.3,15.18A.214.214,0,0,1,5702.348,4120.866Z" transform="translate(-5702.136 -4087.101)"/></g></g><g transform="translate(0 301.534)"><path class="q" d="M4202.253,4656.356H3764.787L3801,4581.117l366.242,1.526Z" transform="translate(-3764.787 -4581.117)"/></g><g class="r" transform="translate(30.627 288.532)"><path class="s" d="M4272.792,4555.825c.072,18.8-84.11,34.354-188.024,34.744s-188.212-14.531-188.284-33.33,83.538-32.065,187.452-32.456S4272.72,4537.026,4272.792,4555.825Z" transform="translate(-3896.485 -4524.775)"/></g><g transform="translate(12.9 335.632)"><path class="i" d="M4228.481,4765.14h0l-407.647-2.548a.578.578,0,0,1-.482-.264.57.57,0,0,1-.039-.546l14.913-32.562a.579.579,0,0,1,.764-.284.571.571,0,0,1,.286.758l-14.545,31.759,405.887,2.536-12.209-29.007a.57.57,0,0,1,.31-.749.578.578,0,0,1,.755.307l12.544,29.806a.565.565,0,0,1-.053.539A.578.578,0,0,1,4228.481,4765.14Z" transform="translate(-3820.256 -4728.885)"/></g><g transform="translate(183.704 127.261)"><path class="t" d="M4590.713,3826.754H4555.16a.428.428,0,1,1,0-.855h35.554a.428.428,0,1,1,0,.855Z" transform="translate(-4554.729 -3825.899)"/></g><g transform="translate(237.263 133.015)"><path class="d" d="M4785.178,3934.273c-2.356-35.843,25.368-57.845,51.936-80.38,23.619-8.885,62.394,3.994,99.828,8.179a5.656,5.656,0,0,1,4.923,7.461c-10,29.208-18.7,70.781-49.074,72.966Z" transform="translate(-4785.037 -3850.834)"/></g><g transform="translate(237.403 150.38)"><path class="u" d="M4942.329,3927.419a5.67,5.67,0,0,0,.284-1.335c-47.876,50.97-156.971,66.074-156.971,66.074l107.613,8.227C4923.628,3998.2,4932.333,3956.627,4942.329,3927.419Z" transform="translate(-4785.642 -3926.084)"/></g><g transform="translate(91.934 97.992)"><ellipse class="v" cx="37.658" cy="6.439" rx="37.658" ry="6.439" transform="translate(0 0)"/></g><g transform="translate(92.742 61.065)"><path class="w" d="M4225.52,3581.977l-51.553.717c-7.943,0-10.2-12.862-10.2-12.862-.779-9.254.617-16.774,10.343-21.473a29.613,29.613,0,0,1,15.253-2.733c4.645.372,10.988,1.086,14.773,2.38,1.048.358,2.606.334,3.22-.638l5.262-8.334c6.809,0,15.051,10.085,16.913,20.927a11.058,11.058,0,0,1-.116,4.214l-2.021,9.307C4226.334,3582.218,4225.52,3581.977,4225.52,3581.977Z" transform="translate(-4163.585 -3539.033)"/></g><g transform="translate(93.184 92.326)"><path class="w" d="M4165.49,3674.5s-.6,14.966,14.306,13.34a93.456,93.456,0,0,1,21.308-.2,3.706,3.706,0,0,0,3.769-1.835c1.054-1.907.914-4.625-6.627-6.109C4182.345,3676.574,4165.49,3674.5,4165.49,3674.5Z" transform="translate(-4165.486 -3674.504)"/></g><g transform="translate(144.147 94.332)"><path class="x" d="M4389.207,3687.909h-.01a.288.288,0,0,1-.272-.227c-.268-1.268-3.093-3.284-4.159-3.954a.285.285,0,0,1-.089-.4.29.29,0,0,1,.4-.088c.143.089,3.059,1.935,4.088,3.573a8.958,8.958,0,0,1,1.992-3.552.29.29,0,0,1,.406.038.285.285,0,0,1-.039.4c-1.166.959-2.029,3.964-2.038,3.994A.287.287,0,0,1,4389.207,3687.909Z" transform="translate(-4384.631 -3683.199)"/></g><g transform="translate(136.437 100.402)"><path class="w" d="M4352.215,3713.308s1.806,2.106,6.764,2.106,3.9-4.639,3.9-4.639-11.731-2.327-11.392-.688S4352.215,3713.308,4352.215,3713.308Z" transform="translate(-4351.478 -3709.503)"/></g><g transform="translate(144.153 100.686)"><path class="w" d="M4385.985,3715.134s2.158,1.75,7.035.866,2.994-5.259,2.994-5.259-11.962-.2-11.331,1.355S4385.985,3715.134,4385.985,3715.134Z" transform="translate(-4384.659 -3710.734)"/></g><g transform="translate(91.934 73.319)"><path class="w" d="M4171.936,3592.135s-15.305,8.516-11.09,22.568,8.38,31.132,4.267,39.981,6.363,14.009,10.86-.381-3.338-25.479-5.314-31.153c-5.223-15-5.908-18.952.082-20.724S4171.936,3592.135,4171.936,3592.135Z" transform="translate(-4160.112 -3592.135)"/></g><g transform="translate(188.819 226.559)"><path class="y" d="M4579.73,4256.211s-11.809,19.427,11.408,19.691c12.985.147,28.249,3.247,35.73,3.269,13.17.039,26.477-19.02,10.548-21.048Z" transform="translate(-4576.728 -4256.211)"/></g><g transform="translate(166.098 232.084)"><path class="z" d="M4479.216,4370.788c10.47-20.8,12.674-49.841,25.318-80.815,2.819-11.367,12.3-11.225,17.792-7.724h0c5.283,3.368,7.66,12.1,5.417,17.656-14.174,35.078-30.207,58.09-38.989,77.149C4486.992,4380.876,4477.562,4375.061,4479.216,4370.788Z" transform="translate(-4479.022 -4280.154)"/></g><g transform="translate(191.144 183.524)"><path class="aa" d="M4658.467,4069.714s-66.762,27.292-71.742,44.3c30.041-.81,61.707,1,61.929,14.756l55.612-26.167Z" transform="translate(-4586.725 -4069.714)"/></g><g transform="translate(276.523 62.839)"><path class="f" d="M4971.246,3588.911l-1.175.311c-3.611.955-12.348-.213-13.4-4.127,6.478-3.655,1.787-16.6-2.541-29.051-1.051-3.914,1.044-7.9,4.657-8.852l1.175-.31c3.612-.955,9.142,2.452,10.192,6.366,3.654,9.579,7.917,17.329,10.676,26.72C4981.883,3583.881,4974.857,3587.957,4971.246,3588.911Z" transform="translate(-4953.86 -3546.719)"/></g><g transform="translate(281.282 75.068)"><path class="ab" d="M4974.325,3610.8l.869,4.039a22.051,22.051,0,0,0,9.332-12l1.633-3.124Z" transform="translate(-4974.325 -3599.716)"/></g><g transform="translate(263.671 41.868)"><path class="f" d="M4902.47,3488.112l-3.594-15.62c-1.654-9.484,4.155-15.18,12.571-16.625l.873.329c8.415-1.445,16.344,1.413,18,10.9l-.675,16.8C4930.94,3491.334,4909.149,3515.183,4902.47,3488.112Z" transform="translate(-4898.594 -3455.843)"/></g><g transform="translate(278.763 64.066)"><path class="x" d="M4963.509,3553.706a1.256,1.256,0,0,1,.332-1.057,1.967,1.967,0,0,1,2.318-.4,1.257,1.257,0,0,1,.668.885l-.344.059a.921.921,0,0,0-.494-.642,1.616,1.616,0,0,0-1.887.323.918.918,0,0,0-.249.769Z" transform="translate(-4963.492 -3552.036)"/></g><g transform="translate(267.602 66.511)"><path class="x" d="M4915.513,3564.305a1.717,1.717,0,0,1,3.317-.568l-.344.059a1.217,1.217,0,0,0-1.491-.79c-.725.125-1.235.68-1.139,1.24Z" transform="translate(-4915.497 -3562.636)"/></g><g transform="translate(277.285 59.094)"><path class="x" d="M4963.084,3531.688a24.482,24.482,0,0,0-4.733.8c-1.408.343-1.663-1.114-.387-1.475a8.694,8.694,0,0,1,5.07-.262C4963.481,3530.843,4963.619,3531.691,4963.084,3531.688Z" transform="translate(-4957.137 -3530.49)"/></g><g transform="translate(265.661 61.143)"><path class="x" d="M4907.528,3541.347a11.374,11.374,0,0,1,3.229-.471c.993-.041.71-1.491-.2-1.5a4.125,4.125,0,0,0-3.279,1.07C4907.021,3540.647,4907.191,3541.489,4907.528,3541.347Z" transform="translate(-4907.152 -3539.373)"/></g><g transform="translate(292.39 57.483)"><ellipse class="f" cx="5.312" cy="3.388" rx="5.312" ry="3.388" transform="translate(0 10.623) rotate(-89.249)"/></g><g transform="translate(291.246 194.824)"><path class="f" d="M5020.21,4120.195a1.522,1.522,0,1,1-1.521-1.51A1.516,1.516,0,0,1,5020.21,4120.195Z" transform="translate(-5017.167 -4118.685)"/></g><g transform="translate(243.794 160.929)"><path class="aa" d="M4887.295,3981.508l-.956-9.708-48.011,3.755L4814,3997.707c-3.732,4.6,5.692,8.561,4.358,14.164-4.282,17.99,4.876,25.274,23.914,25.274s40.979-5.5,44.939-25.281C4888.351,4006.184,4888.9,3986.159,4887.295,3981.508Z" transform="translate(-4813.122 -3971.8)"/></g><g transform="translate(261.77 91.761)"><path class="a" d="M4930.741,3672.056c-17.7,22.83-25.5,11.493-22.556,1.1l-9.936,2.375s-1.959,15.35-5.065,24.811c-1.294,3.941-3.351,5.9-2.6,11.532a17.292,17.292,0,0,0,6.473,11.72l2.063,21.384c6.456,8.787,28.218,1.837,45.486-1.481,0,0,8.956-26.4,9.749-31.261C4956.808,3697.211,4930.741,3672.056,4930.741,3672.056Z" transform="translate(-4890.423 -3672.056)"/></g><g transform="translate(260.377 110.739)"><path class="a" d="M4942.093,3776.731c-3.58-6.744-4.729-16.185-8.059-20.979a3.09,3.09,0,0,0-4.952-.389l-15.591,12.858c-2.451,2.7-4.82,2.7-7.272,0l-7.131-12.858a3.09,3.09,0,0,0-4.952.389c-3.329,4.794-8.349,9.656-9.391,14.761a15.9,15.9,0,0,0,2.807,12.6l5.355,5.678,20.082-.782,25.282.309S4944.22,3780.738,4942.093,3776.731Z" transform="translate(-4884.431 -3754.298)"/></g><g transform="translate(270.247 142.511)"><path class="x" d="M4943.627,3896.7q-1.717,0-3.561-.094a86.46,86.46,0,0,1-12.968-1.685.285.285,0,0,1-.218-.342.289.289,0,0,1,.345-.216c.232.052,23.324,5.148,33.083-2.317a.29.29,0,0,1,.4.052.284.284,0,0,1-.053.4C4957.012,3895.289,4951.291,3896.7,4943.627,3896.7Z" transform="translate(-4926.874 -3891.984)"/></g><g transform="translate(306.176 115.886)"><path class="x" d="M5081.661,3794.02a.276.276,0,0,1-.049,0,.286.286,0,0,1-.235-.33l2.917-16.842a.289.289,0,0,1,.569.1l-2.917,16.843A.288.288,0,0,1,5081.661,3794.02Z" transform="translate(-5081.372 -3776.605)"/></g><g transform="translate(272.585 65.976)"><path class="ac" d="M4939.545,3568.55a2.694,2.694,0,0,1-2.021-.726,2.123,2.123,0,0,1-.565-1.825c.171-.892.284-5.412.285-5.458a.233.233,0,0,1,.233-.225h.006a.231.231,0,0,1,.227.236c0,.188-.116,4.6-.293,5.533a1.65,1.65,0,0,0,.442,1.417,2.738,2.738,0,0,0,2.452.522.231.231,0,1,1,.072.456A5.483,5.483,0,0,1,4939.545,3568.55Z" transform="translate(-4936.928 -3560.316)"/></g><g transform="translate(192.617 193.299)"><path class="ad" d="M4647.875,4141.474l-51.716-8.2c-3.465-.55-4.132-2.311-1.48-3.915l25.125-15.2a19.191,19.191,0,0,1,11.12-1.917l51.715,8.2c3.465.549,4.132,2.312,1.481,3.915l-25.126,15.2A19.181,19.181,0,0,1,4647.875,4141.474Z" transform="translate(-4593.055 -4112.077)"/></g><g transform="translate(206.03 180.651)"><g transform="translate(7.732 10.83)"><path class="ab" d="M4683.985,4113.146s3.369-8.334,5.814-8.927S4685.947,4114.313,4683.985,4113.146Z" transform="translate(-4683.985 -4104.196)"/></g><g transform="translate(8.731 8.04)"><path class="ab" d="M4688.277,4097.418s12.239-9.96,12.108-2.605C4700.385,4094.813,4689.549,4100.161,4688.277,4097.418Z" transform="translate(-4688.277 -4092.105)"/></g><g transform="translate(4.192 12.895)"><path class="ab" d="M4668.76,4121.819s3.678-8.473,6.187-8.67S4670.56,4122.7,4668.76,4121.819Z" transform="translate(-4668.76 -4113.146)"/></g><g transform="translate(0)"><path class="f" d="M4674.193,4057.653l-11.856,6.255s-6.7,6.488-9.361,10.9c-.85,1.409-2.708,3.209-2.133,3.676.846.685,8-6.185,8-6.185s8.684-5.141,8.926-4.954c.1.079,1.06-.121,1.411.468a2.4,2.4,0,0,1-.541,3.046l-2.725,2.331s-4.433,4.537-2.5,5.712c.3.181,4.145-3.469,4.145-3.469l5.747-4.032a20.665,20.665,0,0,0,3.313-2.9l2.04-2.208a5.766,5.766,0,0,0,.443-7.3l-.107-.148A3.85,3.85,0,0,0,4674.193,4057.653Z" transform="translate(-4650.734 -4057.264)"/></g></g><g transform="translate(171.271 164.332)"><path class="a" d="M4582.772,4045.3l-57.382-4.773c-3.845-.32-8.2-3.948-9.669-8.062l-13.961-39c-1.473-4.114.468-7.219,4.313-6.9l57.382,4.774c3.845.32,8.2,3.947,9.669,8.062l13.96,39C4588.558,4042.513,4586.617,4045.618,4582.772,4045.3Z" transform="translate(-4501.268 -3986.545)"/></g><g transform="translate(176.446 233.661)"><path class="f" d="M4524.024,4375.169c14.572-20.254,23.153-50.852,42.059-81.562,5.213-11.611,13.424-5.39,17.845-.623,0,0,6.068,7.383,1.922,15.572-18.419,36.373-41.608,56.381-54.19,75.09C4529.135,4387.4,4521.5,4379.423,4524.024,4375.169Z" transform="translate(-4523.52 -4286.985)"/></g><g transform="translate(147.296 318.936)"><path class="ae" d="M4419.136,4656.53l-19.386,20.437s-7.293,6.128,9.464,5.061c7.939-.5,21.271-8.621,21.271-8.621,7.271-3.346,5.79-8.728.239-15.056C4430.724,4658.351,4423.352,4662.731,4419.136,4656.53Z" transform="translate(-4398.17 -4656.53)"/></g><g transform="translate(161.509 316.521)"><path class="z" d="M4466.779,4646.067l-6.942,9.875a3,3,0,0,0,.931,4.314h0a6.245,6.245,0,0,0,7.739-1.091l7.659-8.176Z" transform="translate(-4459.289 -4646.067)"/></g><g transform="translate(152.862 322.516)"><path class="ae" d="M4445.734,4672.044l-21.725,17.97s-7.985,5.212,8.781,6.156c7.943.447,22.162-6.016,22.162-6.016,7.625-2.453,8.159-9.626,3.417-16.572C4458.369,4673.582,4449.167,4678.7,4445.734,4672.044Z" transform="translate(-4422.109 -4672.044)"/></g><g transform="translate(167.946 317.748)"><path class="f" d="M4498.755,4651.382l-11.4,12.643a1.494,1.494,0,0,0,.2,2.188l4.3,3.311a1.524,1.524,0,0,0,1.906-.039c7.517-3.948,11.862-7.877,14.389-11.8Z" transform="translate(-4486.97 -4651.382)"/></g><g transform="translate(88.094 205.507)"><g transform="translate(0 0.842)"><path class="af" d="M4145.071,4194.916l49.581-13.553-6.756-12.736-42.858,15.209C4143.32,4185.931,4142.922,4193.1,4145.071,4194.916Z" transform="translate(-4143.601 -4168.626)"/></g><g transform="translate(1.454 8.274)"><path class="af" d="M4181.239,4230.865l-31.1-10.862a.467.467,0,0,1,0-.862l42.54-15.919c.177-.067,1.5-2.449,1.683-2.388l29.989,12.221c.383.132.384,1.342,0,1.485l-42.539,16.315A.882.882,0,0,1,4181.239,4230.865Z" transform="translate(-4149.853 -4200.833)"/></g><g transform="translate(2.884 18.338)"><path class="h" d="M4186.47,4262.178l-29.348-9.745a7.724,7.724,0,0,1-.017-7.986l29.483,10.152Z" transform="translate(-4156.001 -4244.447)"/></g><g transform="translate(33.126 30.25)"><path class="ag" d="M4286.045,4296.07" transform="translate(-4286.045 -4296.07)"/></g><g transform="translate(4.118 20.363)"><path class="ag" d="M4161.307,4253.224" transform="translate(-4161.307 -4253.224)"/></g><g transform="translate(33.335 13.464)"><path class="m" d="M4286.943,4245.93l40.879-15.559-.014-7.046-40.73,15.026Z" transform="translate(-4286.943 -4223.324)"/></g><g transform="translate(2.011 0.378)"><path class="af" d="M4227.573,4177.4v-.476l-1.785.062v.023l-30.138-10.379c-.178-.062-.245.129-.421.2l-42.693,15.733c-.382.143-.381.486,0,.618l31.1,10.709c.178.062.634.639.812.571l42.213-15.6A1.558,1.558,0,0,0,4227.573,4177.4Z" transform="translate(-4152.249 -4166.616)"/></g><g transform="translate(1.452)"><path class="ah" d="M4182.039,4192.012l-32.2-10.989,44.484-16a.749.749,0,0,1,.483,0l30.916,10.646Z" transform="translate(-4149.843 -4164.979)"/></g><g transform="translate(35.464 5.946)"><path class="af" d="M4309.479,4198.467l-13-4.477c-.566-.2-.5-.55.156-.794l5.979-2.238a3.812,3.812,0,0,1,2.205-.089l13,4.477c.566.2.5.55-.156.794l-5.979,2.237A3.811,3.811,0,0,1,4309.479,4198.467Z" transform="translate(-4296.099 -4190.746)"/></g><g transform="translate(4.535 1.284)"><path class="af" d="M4163.236,4185.532a.134.134,0,0,1-.125-.071.113.113,0,0,1,.075-.153l40.911-14.756a.143.143,0,0,1,.176.062.112.112,0,0,1-.074.153l-40.911,14.756A.157.157,0,0,1,4163.236,4185.532Z" transform="translate(-4163.101 -4170.543)"/></g></g><g transform="translate(168.435 164.096)"><path class="ai" d="M4570.576,4044.276l-57.383-4.774c-3.845-.32-8.2-3.947-9.668-8.062l-13.962-39c-1.473-4.114.469-7.218,4.313-6.9l57.382,4.773c3.845.32,8.2,3.948,9.669,8.062l13.961,39C4576.361,4041.491,4574.421,4044.6,4570.576,4044.276Z" transform="translate(-4489.071 -3985.523)"/></g><g transform="translate(202.037 186.701)"><path class="t" d="M4642.149,4096.526q-.237,0-.483-.021c-3.291-.274-6.8-3.327-7.814-6.805a5.148,5.148,0,0,1,.666-4.781,4.259,4.259,0,0,1,3.775-1.417c3.292.274,6.8,3.327,7.815,6.806a5.147,5.147,0,0,1-.667,4.78A4.132,4.132,0,0,1,4642.149,4096.526Zm-4.333-11.9a3.012,3.012,0,0,0-2.406,1.017,4.044,4.044,0,0,0-.451,3.737c.9,3.062,3.947,5.748,6.8,5.985a3.137,3.137,0,0,0,2.786-1,4.046,4.046,0,0,0,.451-3.738h0c-.9-3.062-3.948-5.747-6.8-5.984C4638.067,4084.632,4637.94,4084.626,4637.816,4084.626Z" transform="translate(-4633.566 -4083.483)"/></g><g transform="translate(95.998 134.251)"><path class="a" d="M4188.777,3859.141l-9.624-2.954a14.536,14.536,0,0,1-.629,1.618C4174.587,3866.279,4184.02,3871.356,4188.777,3859.141Z" transform="translate(-4177.586 -3856.187)"/></g><g transform="translate(142.642 82.963)"><path class="a" d="M4378.415,3637.145l4.331,6.765a1.232,1.232,0,0,0,2.185-.221l2.576-6.73a2.117,2.117,0,0,0-1.965-3.03l-5.286.1A2.117,2.117,0,0,0,4378.415,3637.145Z" transform="translate(-4378.16 -3633.928)"/></g><g transform="translate(133.134 59.597)"><path class="w" d="M4363.738,3547.778c.346,6.425-6.129,8.191-14.165,8.191s-12.3-3-12.3-11.649,6.244-11.649,12.459-11.649C4355.237,3532.67,4363,3534.137,4363.738,3547.778Z" transform="translate(-4337.274 -3532.67)"/></g><g transform="translate(150.175 56.9)"><path class="w" d="M4410.552,3526.148a14.161,14.161,0,0,1,7.168-5.137c.516-.179,1.066.487,1.047,1.25.11,4.055-.44,7.89-1.489,8.5Z" transform="translate(-4410.552 -3520.981)"/></g><g transform="translate(131.926 56.767)"><path class="w" d="M4342.592,3525.917a19.455,19.455,0,0,0-9.369-5.479c-.651-.184-1.244.563-1.128,1.4.35,4.471,1.481,8.682,2.833,9.327Z" transform="translate(-4332.08 -3520.409)"/></g><g transform="translate(133.59 74.821)"><path class="x" d="M4346.907,3606.14a.325.325,0,0,1-.043,0c-7.523-1.116-7.625-7.144-7.626-7.2a.287.287,0,0,1,.288-.287h0a.287.287,0,0,1,.288.285c0,.232.117,5.6,7.135,6.64a.286.286,0,0,1-.042.569Z" transform="translate(-4339.238 -3598.645)"/></g><g transform="translate(150.586 69.937)"><path class="x" d="M4413.431,3578.522a1.967,1.967,0,0,1-.953-.3.291.291,0,0,1-.124-.391.282.282,0,0,1,.383-.12l.013.006c.473.251.813.433,1.639-.178a.289.289,0,0,1,.4.058.283.283,0,0,1-.059.4A2.2,2.2,0,0,1,4413.431,3578.522Z" transform="translate(-4412.322 -3577.481)"/></g><g transform="translate(141.099 70.051)"><path class="x" d="M4373.275,3579.158a2.419,2.419,0,0,1-1.657-.688.285.285,0,0,1-.019-.4.29.29,0,0,1,.408-.018,1.849,1.849,0,0,0,2.349.212.29.29,0,0,1,.4.087.285.285,0,0,1-.088.4A2.687,2.687,0,0,1,4373.275,3579.158Z" transform="translate(-4371.524 -3577.972)"/></g><g transform="translate(152.988 70.488)"><path class="x" d="M4422.937,3582.762a.288.288,0,0,1-.25-.143.284.284,0,0,1,.1-.39c.191-.11,4.708-2.681,7.339-2.327a.286.286,0,0,1,.248.322.289.289,0,0,1-.325.245c-2.436-.328-6.928,2.229-6.973,2.255A.294.294,0,0,1,4422.937,3582.762Z" transform="translate(-4422.648 -3579.868)"/></g><g transform="translate(153.105 72.72)"><path class="x" d="M4423.439,3591.157a.286.286,0,0,1-.09-.558c.209-.069,5.162-1.673,7.664-.8a.285.285,0,0,1,.175.365.288.288,0,0,1-.368.175c-2.316-.813-7.241.783-7.291.8A.3.3,0,0,1,4423.439,3591.157Z" transform="translate(-4423.15 -3589.542)"/></g><g transform="translate(133.76 71.05)"><path class="x" d="M4347.477,3585.006a.28.28,0,0,1-.137-.035c-.046-.025-4.611-2.453-7.037-2.055a.286.286,0,1,1-.093-.564c2.617-.428,7.209,2.012,7.4,2.116a.285.285,0,0,1,.117.388A.289.289,0,0,1,4347.477,3585.006Z" transform="translate(-4339.969 -3582.302)"/></g><g transform="translate(133.394 73.254)"><path class="x" d="M4346.18,3593.312a.281.281,0,0,1-.082-.012c-.05-.015-5.02-1.469-7.312-.591a.286.286,0,1,1-.207-.534c2.476-.95,7.472.513,7.683.576a.286.286,0,0,1-.083.561Z" transform="translate(-4338.395 -3591.855)"/></g><g transform="translate(133.007 59.541)"><path class="a" d="M4337.9,3539.147l-1.159-6.089c-.1-.547.428-.835.861-.464,1.374,1.181,3.579,3.183,4.133,4.308Z" transform="translate(-4336.728 -3532.428)"/></g><g transform="translate(154.422 60.114)"><path class="a" d="M4431.274,3541.087l.846-5.584c.076-.5-.266-.778-.552-.445a18.172,18.172,0,0,0-2.751,3.88Z" transform="translate(-4428.817 -3534.913)"/></g><g transform="translate(146.084 72.506)"><path class="x" d="M4394.255,3590.386a.8.8,0,0,1-.651-.337l-.59-.834a.285.285,0,0,1,.07-.4.29.29,0,0,1,.4.07l.589.834a.236.236,0,0,0,.183.093.217.217,0,0,0,.18-.1l.651-.975a.29.29,0,0,1,.4-.081.285.285,0,0,1,.082.4l-.651.974a.8.8,0,0,1-.654.354Z" transform="translate(-4392.961 -3588.613)"/></g><g transform="translate(147.124 73.739)"><path class="x" d="M4397.852,3596.089a.289.289,0,0,1-.287-.263l-.13-1.56a.288.288,0,0,1,.575-.047l.131,1.56a.287.287,0,0,1-.263.309Z" transform="translate(-4397.434 -3593.957)"/></g><g transform="translate(132 99.462)"><path class="w" d="M4332.4,3710.271c.207-.234,2.467-1.991,0-4.84h4.436s-.457,3.863.739,4.744Z" transform="translate(-4332.401 -3705.43)"/></g><g transform="translate(119.221 85.925)"><path class="x" d="M4290.226,3660.588a.292.292,0,0,1-.175-.058,13.087,13.087,0,0,0-7.522-2.2.269.269,0,0,1-.231-.105.285.285,0,0,1-.057-.246,13.645,13.645,0,0,0,.157-4.5,7.062,7.062,0,0,0-4.76-6.161.286.286,0,1,1,.194-.539c6.173,2.194,5.331,9.3,5.04,10.974a13.322,13.322,0,0,1,7.53,2.32.285.285,0,0,1,.054.4A.288.288,0,0,1,4290.226,3660.588Z" transform="translate(-4277.446 -3646.765)"/></g><g transform="translate(98.402 91.651)"><path class="x" d="M4192.508,3685.838a.289.289,0,0,1-.275-.2l-4.293-13.684a.286.286,0,0,1,.189-.358.289.289,0,0,1,.361.188l4.293,13.684a.286.286,0,0,1-.19.358A.283.283,0,0,1,4192.508,3685.838Z" transform="translate(-4187.926 -3671.581)"/></g><g transform="translate(102.391 67.322)"><path class="aj" d="M4210.273,3567.563s-7.284,7.535-4.6,12.253,5.652-10.432,14.091-13.411C4219.762,3566.4,4214.228,3565.338,4210.273,3567.563Z" transform="translate(-4205.078 -3566.149)"/></g><g transform="translate(112.688 68.079)"><path class="aj" d="M4258.144,3569.513a7.711,7.711,0,0,0-5.166,2.958c-1.972,2.534-4.882,7.143-3.027,10.4,2.682,4.717,5.26-9.931,13.7-12.91A15.153,15.153,0,0,0,4258.144,3569.513Z" transform="translate(-4249.357 -3569.43)"/></g><g transform="translate(141.606 59.658)"><path class="aj" d="M4373.707,3533.392a29.705,29.705,0,0,1,2.367,4.239c.873,1.983,3.625,2.064,2.136-.852s-2.025-3.844-2.025-3.844Z" transform="translate(-4373.707 -3532.935)"/></g><g transform="translate(145.336 59.602)"><path class="aj" d="M4389.745,3532.694a29.7,29.7,0,0,1,2.367,4.239c.873,1.983,3.625,2.064,2.136-.852a25.154,25.154,0,0,0-1.807-3.274Z" transform="translate(-4389.745 -3532.694)"/></g><g transform="translate(276.997 107.512)"><path class="x" d="M4962.5,3743.464a9.166,9.166,0,0,1-6.536-2.676.285.285,0,0,1,.03-.4.291.291,0,0,1,.407.029c.2.23,5.013,5.562,13.238-.048a.289.289,0,0,1,.4.074.284.284,0,0,1-.075.4A13.233,13.233,0,0,1,4962.5,3743.464Z" transform="translate(-4955.898 -3740.315)"/></g><g transform="translate(50.51 179.834)"><path class="x" d="M4019.569,4087.041a.575.575,0,0,1-.576-.562,27.547,27.547,0,0,0-5.884-17.038,34.837,34.837,0,0,0-12.475-9.523,58.08,58.08,0,0,0-18.118-5.05.573.573,0,1,1,.091-1.141,59.341,59.341,0,0,1,18.5,5.146,35.988,35.988,0,0,1,12.9,9.845,28.66,28.66,0,0,1,6.142,17.74.575.575,0,0,1-.566.583Z" transform="translate(-3981.985 -4053.724)"/></g><g transform="translate(379.208 179.834)"><path class="x" d="M5395.992,4087.041h-.011a.575.575,0,0,1-.566-.583,28.655,28.655,0,0,1,6.143-17.74,35.99,35.99,0,0,1,12.9-9.845,59.361,59.361,0,0,1,18.5-5.146.573.573,0,1,1,.091,1.142,58.091,58.091,0,0,0-18.119,5.05,34.832,34.832,0,0,0-12.474,9.523,27.544,27.544,0,0,0-5.884,17.039A.574.574,0,0,1,5395.992,4087.041Z" transform="translate(-5395.416 -4053.724)"/></g><g transform="translate(271.756 38.736)"><path class="e" d="M4944.831,3461.909c-4.015-1.205-9.543-5.779-11.138-9.222,0,0-1.35-4.911,1.4-8.219,4.5-5.405,25.653-.34,25.745,9.686s-3.388,20.737-3.388,20.737C4955.6,3471.768,4948.328,3462.959,4944.831,3461.909Z" transform="translate(-4933.362 -3442.269)"/></g><g transform="translate(261.336 41.969)"><path class="e" d="M4899.53,3461.965s-4.953,3.012-5.715,7.036.307,10.215-2.205,13.441-.122-.357-.122-.357l-2.481-5.09s-2.7-15.177,5.126-18.965,9.549-.252,9.549-.252Z" transform="translate(-4888.556 -3456.278)"/></g><g transform="translate(211.609 28.935)"><g transform="translate(0 0)"><path class="f" d="M4702.309,3461.974c-1.945-6.748-11.168-36.635-11.677-38.86-.09-.4-.162-.71-.227-.973a6.472,6.472,0,0,0,2.033-5.327,61.963,61.963,0,0,1-.058-7.425s.45-2.257-1.529-1.294.073,4.984-1.31,6.627-1.884-1.976-1.942-5.5c-.053-3.172,1.353-9.153-.289-9.28-1.593-.124-1.027,9.346-2.205,9.535-.706.113-.718-10.09-2.671-9.665-1.752.382.867,9.861.229,9.981-1.009.19-2.414-8.33-4.349-7.722-1.045.328,2.624,8.9,2.007,8.948s-3.952-6.749-5.426-5.294c-1.062,1.049,3.176,4.552,3.878,8.807.477,2.893,3.881,9.887,4.793,10.015.525,5.875,2.536,24.024,3.518,27.888.995,3.917,2.454,12.892,4.614,16.309,3.981,6.3,10.913,7.954,17.981,10.329s16.161,2.362,23.375,4.25c.695-3.4,2.184-10.067,2.877-13.463C4725.906,3465.877,4712.335,3465.956,4702.309,3461.974Z" transform="translate(-4674.726 -3399.796)"/></g><g transform="translate(31.27 64.289)"><path class="a" d="M4843.25,3678.948c-8.336,1.481-19.341,1.947-26.257-.55-3.84,1.245-6.666,5.029-7.61,8.965a52.65,52.65,0,0,0,.167,10.7,43.878,43.878,0,0,0,22.223,5.631c7.14-.174,10-7.552,7.356-13.163C4837.119,3686.268,4847.412,3678.208,4843.25,3678.948Z" transform="translate(-4809.191 -3678.398)"/></g></g><g transform="translate(344.447 26.373)"><path class="f" d="M5278.708,3394.6c-1.689-1.477-4.849,6.091-5.518,6.081s2.732-9.522,1.581-9.808c-2.132-.529-3.09,8.776-4.194,8.636-.7-.088,1.509-10.511-.41-10.808-2.14-.332-1.48,10.7-2.251,10.626-1.286-.127-1.3-10.4-3.013-10.166-1.767.245.148,6.621.3,10.054.169,3.818-.136,7.763-1.739,6.077s.351-6.168-1.853-7.08-1.567,1.5-1.567,1.5a67.077,67.077,0,0,1,.426,8.033,7.016,7.016,0,0,0,2.55,5.627c-.053.288-.109.633-.182,1.067-.4,2.439-4.261,16.75-4.893,19.143-3.676,13.928-3.369,26.787-3.623,26.85a39.163,39.163,0,0,1-8.382.447,20.5,20.5,0,0,1,1.029,3.536,47.8,47.8,0,0,1,2.8,12.184,90.716,90.716,0,0,0,9.186-3.093c6.9-2.946,9.493-5.649,11.126-14.9,1.02-5.776-.179-36.6.44-44.279.979-.2,2.745-6.49,3.647-9.872C5275.377,3399.939,5279.926,3395.666,5278.708,3394.6Z" transform="translate(-5245.94 -3388.695)"/></g><g transform="translate(320.663 95.082)"><path class="a" d="M5152.9,3708.6c-2.635-3.088-2.053-8.039.467-11.223s2.8-6.152,6.762-7.055a36.148,36.148,0,0,1,7.323-.4,9.8,9.8,0,0,0-2.195-3.478c-.246.241-.5.476-.758.7-2.63,2.211-11.477,2.374-20.832,1.958l8.072,25.916c6.194-3.053,13.428-4.411,19.647-6.807,0-.852-.035-1.708-.1-2.565C5163.424,3707.924,5154.056,3709.959,5152.9,3708.6Z" transform="translate(-5143.667 -3686.449)"/></g><g transform="translate(328.175 98.552)"><g class="ak"><path class="al" d="M5181.351,3701.411l-2.674,20.058h-6.4l-.249-.033v-20.025Z" transform="translate(-5172.945 -3701.428)"/><path class="al" d="M5203.692,3701.411l-2.675,20.058h-.4l2.674-20.058Z" transform="translate(-5194.883 -3701.428)"/><path class="am" d="M5205.431,3701.411l-2.675,20.058h-.4l2.675-20.058Z" transform="translate(-5196.216 -3701.428)"/><path class="an" d="M5207.171,3701.411l-2.675,20.058h-.4l2.675-20.058Z" transform="translate(-5197.551 -3701.428)"/><path class="ao" d="M5208.911,3701.411l-2.675,20.058h-.4l2.675-20.058Z" transform="translate(-5198.887 -3701.428)"/><path class="ap" d="M5210.65,3701.411l-2.675,20.058h-.4l2.675-20.058Z" transform="translate(-5200.221 -3701.428)"/><path class="aq" d="M5212.39,3701.411l-2.675,20.058h-.4l2.675-20.058Z" transform="translate(-5201.557 -3701.428)"/><path class="ar" d="M5214.129,3701.411l-2.676,20.058h-.4l2.676-20.058Z" transform="translate(-5202.891 -3701.428)"/><path class="as" d="M5215.868,3701.411l-2.675,20.058h-.4l2.675-20.058Z" transform="translate(-5204.226 -3701.428)"/><path class="at" d="M5217.608,3701.411l-2.675,20.058h-.4l2.675-20.058Z" transform="translate(-5205.561 -3701.428)"/><path class="au" d="M5219.347,3701.411l-2.675,20.058h-.4l2.675-20.058Z" transform="translate(-5206.896 -3701.428)"/><path class="av" d="M5221.086,3701.411l-2.675,20.058h-.4l2.674-20.058Z" transform="translate(-5208.231 -3701.428)"/><path class="aw" d="M5222.826,3701.411l-2.675,20.058h-.4l2.675-20.058Z" transform="translate(-5209.565 -3701.428)"/><path class="ax" d="M5224.565,3701.411l-2.675,20.058h-.4l2.675-20.058Z" transform="translate(-5210.9 -3701.428)"/><path class="ay" d="M5226.306,3701.411l-2.675,20.058h-.4l2.675-20.058Z" transform="translate(-5212.236 -3701.428)"/><path class="az" d="M5228.045,3701.411l-2.675,20.058h-.4l2.675-20.058Z" transform="translate(-5213.571 -3701.428)"/><path class="ba" d="M5229.784,3701.411l-2.675,20.058h-.4l2.675-20.058Z" transform="translate(-5214.906 -3701.428)"/><path class="bb" d="M5231.523,3701.411l-2.675,20.058h-.4l2.675-20.058Z" transform="translate(-5216.241 -3701.428)"/><path class="bc" d="M5233.262,3701.411l-2.675,20.058h-.4l2.675-20.058Z" transform="translate(-5217.575 -3701.428)"/><path class="bd" d="M5235,3701.411l-2.675,20.058h-.4l2.675-20.058Z" transform="translate(-5218.911 -3701.428)"/><path class="be" d="M5236.742,3701.411l-2.675,20.058h-.4l2.675-20.058Z" transform="translate(-5220.246 -3701.428)"/><path class="bf" d="M5238.481,3701.411l-2.675,20.058h-.4l2.675-20.058Z" transform="translate(-5221.58 -3701.428)"/><path class="bg" d="M5240.22,3701.411l-2.675,20.058h-.4l2.675-20.058Z" transform="translate(-5222.916 -3701.428)"/><path class="bh" d="M5241.96,3701.411l-2.676,20.058h-.4l2.675-20.058Z" transform="translate(-5224.25 -3701.428)"/><path class="bi" d="M5243.7,3701.411l-2.675,20.058h-.4l2.676-20.058Z" transform="translate(-5225.585 -3701.428)"/><path class="bj" d="M5245.439,3701.411l-2.675,20.058h-.4l2.676-20.058Z" transform="translate(-5226.92 -3701.428)"/><path class="bk" d="M5247.179,3701.411l-2.675,20.058h-.4l2.675-20.058Z" transform="translate(-5228.255 -3701.428)"/><path class="bl" d="M5248.918,3701.411l-2.675,20.058h-.4l2.675-20.058Z" transform="translate(-5229.59 -3701.428)"/><path class="bm" d="M5250.55,3701.411l.1.014-2.673,20.044h-.4l2.676-20.058Z" transform="translate(-5230.924 -3701.428)"/><path class="bn" d="M5251.99,3701.47l.374.05v.182l-2.643,19.814h-.4Z" transform="translate(-5232.26 -3701.474)"/><path class="bo" d="M5253.7,3705.5l-2.238,16.781h-.4l2.643-19.814Z" transform="translate(-5233.595 -3702.243)"/><path class="bp" d="M5255.034,3718.646l-1.833,13.748h-.4l2.237-16.781Z" transform="translate(-5234.93 -3712.354)"/><path class="bq" d="M5256.368,3731.791l-1.429,10.715h-.4l1.833-13.748Z" transform="translate(-5236.264 -3722.465)"/><path class="br" d="M5257.7,3744.935l-1.025,7.682h-.4l1.43-10.715Z" transform="translate(-5237.599 -3732.575)"/><path class="bs" d="M5259.039,3758.079l-.62,4.648h-.4l1.025-7.682Z" transform="translate(-5238.934 -3742.687)"/><path class="bt" d="M5260.374,3771.222l-.215,1.615h-.405l.62-4.648Z" transform="translate(-5240.27 -3752.797)"/><path class="bu" d="M5261.493,3782.949l.215-1.616v1.616Z" transform="translate(-5241.604 -3762.908)"/></g></g><g transform="translate(328.175 98.552)"><path class="a" d="M5192.24,3701.495a36.152,36.152,0,0,0-7.323.4c-3.963.9-4.242,3.871-6.762,7.055s-3.1,8.135-.467,11.223c1.158,1.356,10.526-.679,18.384-2.957a47.774,47.774,0,0,0-2.8-12.183A20.468,20.468,0,0,0,5192.24,3701.495Z" transform="translate(-5175.968 -3701.487)"/></g><g transform="translate(302.088 91.761)"><path class="a" d="M5084.342,3723.093l9.146-26.625-3.607-18.256s-23.725-2.593-26.086-6.156l4.376,11.851,14.2,13.172Z" transform="translate(-5063.793 -3672.056)"/></g><g transform="translate(220.87 32.251)"><g transform="translate(0)"><path class="a" d="M4718.043,3417.9a8.843,8.843,0,0,1-1.644-.151,2.989,2.989,0,0,1-1.2-.452,1.454,1.454,0,0,1-.65-1.218c.042-.79,1.118-1.362,1.924-1.723l.213.474c-1.381.619-1.605,1.065-1.617,1.275a.934.934,0,0,0,.432.768,2.506,2.506,0,0,0,1,.364,9.571,9.571,0,0,0,4.246-.23c.588-.156.916-.384.972-.677.085-.438-.463-.826-.634-.934a4.627,4.627,0,0,0-2.455-.714h-.024l0-.52a5.146,5.146,0,0,1,2.762.795,1.5,1.5,0,0,1,.866,1.473c-.1.506-.552.87-1.35,1.081A11.07,11.07,0,0,1,4718.043,3417.9Z" transform="translate(-4714.547 -3414.166)"/></g></g><g transform="translate(227.157 31.186)"><g transform="translate(1.538 0)"><path class="bv" d="M4749.7,3409.553a55.431,55.431,0,0,1,7.639.677,3.581,3.581,0,0,1,1.885.5,1.277,1.277,0,0,1,.264,1.755,1.838,1.838,0,0,1-.824.428q-1.394.441-2.806.821a8.993,8.993,0,0,1-3.879.417,5.728,5.728,0,0,1-3.432-2.417C4747.609,3410.282,4748.765,3409.568,4749.7,3409.553Z" transform="translate(-4748.199 -3409.551)"/></g><g transform="translate(1.361 0.992)"><path class="a" d="M4749.4,3414.914c3.166.441,9.273,1.522,9.751.407-.046.752-.155,3.109-2.251,3.138a28.729,28.729,0,0,1-7.228-.668,3.082,3.082,0,0,1-1.99-1.125,4.508,4.508,0,0,1-.075-2.746C4747.7,3413.572,4747.621,3414.666,4749.4,3414.914Z" transform="translate(-4747.438 -3413.852)"/></g><g transform="translate(3.316 0.632)"><g transform="translate(0 0.159)"><path class="bw" d="M4757.53,3413.441c-.059.194-.408.333-.874.294s-.829-.236-.812-.437a.778.778,0,0,1,.039-.2c.106-.15.442-.132.835-.1s.847.077.847.262A.946.946,0,0,1,4757.53,3413.441Z" transform="translate(-4755.844 -3412.981)"/></g><g transform="translate(0.035)"><path class="bw" d="M4757.681,3412.734c-.017.2-.409.333-.874.294s-.83-.236-.812-.437.409-.333.874-.293S4757.7,3412.533,4757.681,3412.734Z" transform="translate(-4755.995 -3412.29)"/></g></g><g transform="translate(6.453 0.933)"><g transform="translate(0 0.159)"><path class="a" d="M4771.02,3414.746c-.059.194-.409.333-.874.294s-.829-.236-.812-.437a.725.725,0,0,1,.038-.2c.106-.15.442-.131.836-.1s.846.078.846.261A.947.947,0,0,1,4771.02,3414.746Z" transform="translate(-4769.333 -3414.285)"/></g><g transform="translate(0.035)"><path class="a" d="M4771.17,3414.039c-.017.2-.408.333-.874.293s-.829-.235-.812-.437.409-.333.874-.294S4771.188,3413.837,4771.17,3414.039Z" transform="translate(-4769.484 -3413.594)"/></g></g><g transform="translate(9.676 1.325)"><g transform="translate(0 0.159)"><path class="a" d="M4784.877,3416.443c-.059.194-.408.333-.874.293s-.829-.235-.812-.437a.738.738,0,0,1,.038-.2c.106-.15.442-.132.835-.1s.847.078.847.262A.921.921,0,0,1,4784.877,3416.443Z" transform="translate(-4783.191 -3415.982)"/></g><g transform="translate(0.035)"><path class="a" d="M4785.028,3415.736c-.018.2-.409.333-.875.293s-.829-.236-.811-.437.408-.333.874-.293S4785.045,3415.534,4785.028,3415.736Z" transform="translate(-4783.342 -3415.292)"/></g></g><g transform="translate(0 1.671)"><path class="bv" d="M4742.68,3417.2a6.822,6.822,0,0,0-.684.274.827.827,0,0,0-.4.8c.051.314.493.292.808.244.1-.138.08-.166.065-.336-.018-.205-.106-.295.071-.4a.569.569,0,0,1,.588.007c-.05-.032.16-.8.068-.939s-.11-.008-.183.081A.925.925,0,0,1,4742.68,3417.2Z" transform="translate(-4741.584 -3416.793)"/></g></g><g transform="translate(274.968 74.689)"><path class="a" d="M4952.757,3598.077c-1.671.7-2,.829-5.348,1.026-.161.01-.322.158-.179.293a7.6,7.6,0,0,0,1.7,1.246,3.144,3.144,0,0,0,1.832.308,2.98,2.98,0,0,0,2.222-2.684.179.179,0,0,0-.163-.195A.189.189,0,0,0,4952.757,3598.077Z" transform="translate(-4947.174 -3598.072)"/></g></g></g></svg>