<svg xmlns="http://www.w3.org/2000/svg" width="37" height="37.311" viewBox="0 0 37 37.311"><defs><style>.a{fill:#fff;}.b{fill:#005dab;}.c{fill:#ea0f8f;}.d{fill:#e4aca4;}.e{fill:#ecb7a7;}.f{fill:#d8988a;}.g{fill:#6b5752;}.h{fill:#08c42c;}.i{fill:#a66a61;}</style></defs><g transform="translate(-2407.065 -1296.671)"><g transform="translate(2407.065 1296.671)"><circle class="a" cx="18.5" cy="18.5" r="18.5"/></g><path class="b" d="M2454.479,1605.615a18.641,18.641,0,0,0,15.676-8.537H2438.8A18.641,18.641,0,0,0,2454.479,1605.615Z" transform="translate(-28.698 -271.632)"/><g transform="translate(2427.282 1300.851)"><rect class="c" width="0.431" height="1.788" transform="translate(0 0.066) rotate(-8.793)"/><rect class="c" width="1.788" height="0.431" transform="translate(1.951 1.975) rotate(-77.076)"/><rect class="c" width="1.788" height="0.431" transform="translate(3.578 2.625) rotate(-54.966)"/></g><path class="d" d="M2532.722,1586.908v3.188s1.689,1.594,4.225,0v-3.188Z" transform="translate(-113.621 -262.437)"/><path class="d" d="M2618.441,1586.908v3.188a3.41,3.41,0,0,0,4.224,0v-3.188Z" transform="translate(-191.131 -262.437)"/><path class="e" d="M2485.691,1429.617c-5.1,0-9.391,2.7-10.682,6.376h-1.434a8.59,8.59,0,0,0-.359,2.742,6.521,6.521,0,0,0,.359,2.2h1.553c1.421,3.512,5.612,6.058,10.562,6.058,6.119,0,11.08-3.89,11.08-8.688S2491.81,1429.617,2485.691,1429.617Z" transform="translate(-59.816 -120.211)"/><g transform="translate(2418.375 1307.812)"><path class="f" d="M2525.171,1417.117a6.9,6.9,0,0,1,1.116-4.145,5.984,5.984,0,0,1,1.7,3.93.647.647,0,0,1-.493.707A2.363,2.363,0,0,1,2525.171,1417.117Z" transform="translate(-2525.163 -1412.972)"/><path class="e" d="M2525.15,1417.117a6.911,6.911,0,0,1,1.118-4.145,9.841,9.841,0,0,1,1.116,4.7S2525.79,1417.994,2525.15,1417.117Z" transform="translate(-2525.144 -1412.972)"/></g><g transform="translate(2413.473 1317.496)"><path class="d" d="M2486.365,1522.178c-4.949,0-9.14-2.545-10.562-6.058h-1.841a5.771,5.771,0,0,0,.287,1.2h1.554c1.421,3.512,5.612,6.058,10.562,6.058,6.119,0,11.08-3.89,11.08-8.688,0-.2-.01-.4-.027-.6C2497.027,1518.608,2492.229,1522.178,2486.365,1522.178Z" transform="translate(-2473.963 -1514.088)"/></g><path class="f" d="M2710.021,1514.492c.021.138.031.256.041.384s.014.251.015.378a3.548,3.548,0,0,1-.071.775,1.646,1.646,0,0,1-.14.4.882.882,0,0,1-.323.36.725.725,0,0,1-.237.089.837.837,0,0,1-.119.013h-.058a.507.507,0,0,1-.073-.006.473.473,0,0,1-.26-.135.6.6,0,0,1-.132-.211.867.867,0,0,1-.042-.429.768.768,0,0,1,.169-.39.574.574,0,0,1,.378-.2.855.855,0,0,1,.385.06,1.632,1.632,0,0,1,.589.427,4.414,4.414,0,0,1,.445.553,4.448,4.448,0,0,0-.493-.5,1.491,1.491,0,0,0-.582-.342.688.688,0,0,0-.312,0,.351.351,0,0,0-.215.155.558.558,0,0,0,0,.528.218.218,0,0,0,.067.077.071.071,0,0,0,.054.014l.045-.008a.419.419,0,0,0,.054-.016.275.275,0,0,0,.084-.052.7.7,0,0,0,.154-.467,2.985,2.985,0,0,0-.047-.636c-.018-.108-.04-.217-.065-.324s-.055-.219-.085-.312a.4.4,0,0,1,.761-.248.417.417,0,0,1,.015.062Z" transform="translate(-272.666 -196.646)"/><g transform="translate(2422.83 1311.009)"><path class="g" d="M2572.264,1447.823a.629.629,0,0,1-.058-1.251,23.118,23.118,0,0,1,7.862.277.629.629,0,0,1-.26,1.23,21.856,21.856,0,0,0-7.429-.262A.631.631,0,0,1,2572.264,1447.823Z" transform="translate(-2571.663 -1446.359)"/></g><g transform="translate(2422.054 1303.728)"><circle class="h" cx="5.227" cy="5.227" r="5.227" transform="translate(0 0)"/><path class="a" d="M2602.676,1399.281c-.9-.015-1.516-.5-1.516-.86,0-.175.151-.417.335-.417.241,0,.437.51,1.18.568v-1.712c-.656-.233-1.384-.5-1.384-1.428a1.353,1.353,0,0,1,1.384-1.355v-.211a.193.193,0,0,1,.211-.168c.109,0,.219.08.219.168v.2c.5.015,1.195.168,1.195.525,0,.138-.1.417-.32.417-.175,0-.365-.233-.875-.27v1.478c.634.233,1.327.554,1.327,1.545a1.412,1.412,0,0,1-1.317,1.5h-.01v.248c0,.087-.109.167-.219.167a.192.192,0,0,1-.211-.167v-.226Zm.043-3.206v-1.327c-.408.051-.7.233-.7.612,0,.417.313.569.7.715Zm.341.948v1.537a.693.693,0,0,0,.641-.72.853.853,0,0,0-.64-.818Z" transform="translate(-2597.559 -1391.461)"/></g><path class="e" d="M2577.931,1459.815a22.708,22.708,0,0,1,7.544.257l.759,1.778-7.684.144Z" transform="translate(-154.5 -147.341)"/><g transform="translate(2417.031 1314.264)"><path class="i" d="M2513.355,1481.334a.241.241,0,0,1-.293-.089.979.979,0,0,0-1.522-.115.241.241,0,0,1-.3.044h0a.238.238,0,0,1-.056-.361,1.459,1.459,0,0,1,2.285.171.238.238,0,0,1-.11.349Z" transform="translate(-2511.12 -1480.341)"/></g><path class="c" d="M2531.647,1334.478l.411.833a.19.19,0,0,0,.143.1l.919.134a.19.19,0,0,1,.106.324l-.666.649a.19.19,0,0,0-.055.168l.157.916a.19.19,0,0,1-.276.2l-.823-.432a.192.192,0,0,0-.177,0l-.822.432a.19.19,0,0,1-.275-.2l.157-.916a.19.19,0,0,0-.055-.168l-.665-.649a.19.19,0,0,1,.105-.324l.919-.134a.189.189,0,0,0,.143-.1l.411-.833A.19.19,0,0,1,2531.647,1334.478Z" transform="translate(-110.862 -34.089)"/><path class="c" d="M2723.433,1431.429l.264.534a.123.123,0,0,0,.092.067l.589.086a.122.122,0,0,1,.067.208l-.426.416a.122.122,0,0,0-.035.108l.1.587a.122.122,0,0,1-.176.128l-.527-.277a.123.123,0,0,0-.114,0l-.527.277a.122.122,0,0,1-.177-.128l.1-.587a.123.123,0,0,0-.035-.108l-.426-.416a.122.122,0,0,1,.067-.208l.589-.086a.122.122,0,0,0,.092-.067l.263-.534A.121.121,0,0,1,2723.433,1431.429Z" transform="translate(-284.921 -121.788)"/><path class="c" d="M2463.143,1432.975l.263.534a.121.121,0,0,0,.092.067l.589.086a.121.121,0,0,1,.068.208l-.426.416a.122.122,0,0,0-.035.108l.1.587a.122.122,0,0,1-.177.128l-.527-.277a.121.121,0,0,0-.113,0l-.527.277a.122.122,0,0,1-.177-.128l.1-.587a.123.123,0,0,0-.035-.108l-.426-.416a.122.122,0,0,1,.068-.208l.589-.086a.12.12,0,0,0,.092-.067l.264-.534A.122.122,0,0,1,2463.143,1432.975Z" transform="translate(-49.561 -123.186)"/></g></svg>