<svg xmlns="http://www.w3.org/2000/svg" width="96.943" height="93.765" viewBox="0 0 96.943 93.765"><defs><style>.a{fill:#0855c4;}.b{fill:#00adee;}</style></defs><g transform="translate(-2405.04 -98.646)"><g transform="translate(2415.713 98.646)"><path class="a" d="M2481.428,182.457H2432.4a8.67,8.67,0,0,1-8.66-8.66V107.306a8.67,8.67,0,0,1,8.66-8.66h49.025a8.67,8.67,0,0,1,8.66,8.66h-2.853a5.813,5.813,0,0,0-5.807-5.806H2432.4a5.813,5.813,0,0,0-5.807,5.806V173.8a5.813,5.813,0,0,0,5.807,5.806h49.025a5.813,5.813,0,0,0,5.807-5.806h2.853A8.67,8.67,0,0,1,2481.428,182.457Z" transform="translate(-2423.743 -98.646)"/></g><g transform="translate(2405.04 108.599)"><path class="a" d="M2462.726,199.9H2420.6a15.582,15.582,0,0,1-15.564-15.565V124.747a8.67,8.67,0,0,1,8.66-8.66v2.853a5.813,5.813,0,0,0-5.806,5.807v59.586a12.726,12.726,0,0,0,12.711,12.711h42.121a5.813,5.813,0,0,0,5.806-5.806h2.853A8.669,8.669,0,0,1,2462.726,199.9Z" transform="translate(-2405.04 -116.087)"/></g><g transform="translate(2430.904 109.858)"><path class="a" d="M2477.343,172.372a27.11,27.11,0,1,1,4.6-.391A27.354,27.354,0,0,1,2477.343,172.372Zm.108-51.224a24.505,24.505,0,0,0-4.115.35,24.073,24.073,0,1,0,4.115-.35Z" transform="translate(-2450.36 -118.293)"/></g><g transform="translate(2478.41 151.153)"><rect class="a" width="2.853" height="9.239" transform="translate(0 2.288) rotate(-53.322)"/></g><g transform="translate(2482.849 153.391)"><path class="a" d="M2553.909,212.651a3.278,3.278,0,0,1-2.042-.713l-9.232-7.3a3.306,3.306,0,0,1-.541-4.639l3.3-4.171a3.306,3.306,0,0,1,4.638-.542l9.233,7.3a3.3,3.3,0,0,1,.541,4.638l-3.3,4.172a3.28,3.28,0,0,1-2.207,1.231A3.316,3.316,0,0,1,2553.909,212.651Zm-5.926-15.224a.448.448,0,0,0-.352.17l-3.3,4.171a.449.449,0,0,0,.073.631l9.232,7.3a.441.441,0,0,0,.33.094.446.446,0,0,0,.3-.167l3.3-4.172a.449.449,0,0,0-.073-.629l-9.232-7.3A.447.447,0,0,0,2547.983,197.427Z" transform="translate(-2541.382 -194.575)"/></g><g transform="translate(2446.361 125.062)"><path class="b" d="M2495.2,162.017l-12.343,2.279V151.564l12.343-2.279Zm-14.66-17.082a3.135,3.135,0,0,0-3.093,3.175v20.5h20.069a3.137,3.137,0,0,0,3.1-3.178h0V144.939Z" transform="translate(-2477.446 -144.935)"/></g></g></svg>