<svg xmlns="http://www.w3.org/2000/svg" width="120" height="120" viewBox="0 0 120 120"><defs><style>.a{fill:#6aa3e6;}.b{fill:#fff;}.c{fill:#707070;opacity:0.173;}.d{fill:#0033a1;}.e{fill:#0133a1;}.f{fill:#00c450;}</style></defs><g transform="translate(-734 -735)"><circle class="a" cx="60" cy="60" r="60" transform="translate(734 735)"/><g transform="translate(439.877 700.357)"><g transform="translate(320.823 58.062)"><path class="b" d="M353.125,80.9a16.71,16.71,0,0,0-21.672-21.672l10.836,10.838-9.934,9L321.987,68.69a16.708,16.708,0,0,0,21.672,21.674L378.191,124.9a5.351,5.351,0,0,0,7.569,0l1.9-1.9a5.353,5.353,0,0,0,0-7.568Z" transform="translate(-320.823 -58.062)"/><g transform="translate(3.018 4.813)"><path class="c" d="M481.091,212.791a2.569,2.569,0,0,1,0,3.633l-1.558,1.558a2.569,2.569,0,0,1-3.634,0l-31.465-31.466a2.569,2.569,0,0,1,0-3.634l1.558-1.558a2.569,2.569,0,0,1,3.634,0Z" transform="translate(-420.114 -158.876)"/><path class="b" d="M349.765,209.384l-.013-.015-9.891,5.1-5.092,9.887,4.8,4.8,9.889-5.094,5.078-9.866,22.708-22.43-4.91-4.671Z" transform="translate(-334.77 -163.985)"/><path class="d" d="M501.1,82.267,478.285,105.08l9.468,9.466,22.811-22.812a6.694,6.694,0,1,0-9.466-9.466Z" transform="translate(-447.23 -80.306)"/></g></g><path class="e" d="M455.582,224.9a2.1,2.1,0,0,1-2.963,0l-6.5-6.5a2.1,2.1,0,0,1,0-2.963l2.6-2.6,9.466,9.466Z" transform="translate(-97.7 -121.275)"/><path class="f" d="M469.835,208.2l-9.466-9.466c3.331.581,5.082.286,3.89-3.89l9.466,9.466C469.878,203.743,469.159,205.085,469.835,208.2Z" transform="translate(-109.35 -107.185)"/></g></g></svg>