<svg xmlns="http://www.w3.org/2000/svg" xmlns:xlink="http://www.w3.org/1999/xlink" width="120" height="120" viewBox="0 0 120 120"><defs><style>.a{fill:#0133a1;}.b,.w{fill:#0855c4;}.ah,.c{fill:#fff;}.d{fill:none;}.e{fill:#6aa3e6;}.f{clip-path:url(#a);}.g{fill:#cdcdce;opacity:0.31;}.h{fill:#f0f0f0;}.i{clip-path:url(#b);}.j{clip-path:url(#c);}.k{clip-path:url(#d);}.l{clip-path:url(#e);}.m{clip-path:url(#f);}.n{fill:#14245d;}.o{clip-path:url(#g);}.p{opacity:0.805;}.q{clip-path:url(#h);}.r{clip-path:url(#i);}.s{clip-path:url(#j);}.t{fill:#c6e4ff;}.u{fill:#8fd7ff;}.v{clip-path:url(#k);}.w{opacity:0.5;}.x{clip-path:url(#l);}.y{fill:#006a94;}.z{clip-path:url(#m);}.aa{fill:#83baff;}.ab{clip-path:url(#n);}.ac{fill:url(#o);}.ad{fill:#7d97f4;}.ae{fill:#bdd0fb;}.af{clip-path:url(#p);}.ag{fill:url(#q);}</style><clipPath id="a"><circle class="a" cx="60" cy="60" r="60" transform="translate(-949 3815)"/></clipPath><clipPath id="b"><path class="b" d="M-21.029,4.592A4.593,4.593,0,0,1-16.436,0h1.881A4.593,4.593,0,0,1-9.962,4.592V16.87a4.593,4.593,0,0,1-4.593,4.593h-1.881a4.593,4.593,0,0,1-4.593-4.593V4.592" transform="translate(21.029)"/></clipPath><clipPath id="c"><path class="b" d="M-21.029,4.592A4.592,4.592,0,0,1-16.436,0h1.881A4.593,4.593,0,0,1-9.962,4.592V16.87a4.594,4.594,0,0,1-4.593,4.593h-1.881a4.593,4.593,0,0,1-4.592-4.593V4.592" transform="translate(21.029)"/></clipPath><clipPath id="d"><path class="c" d="M-18.546,3.8c.138-.031.3-.153.3-.294V2.561A2.348,2.348,0,0,1-16.986.41,3.754,3.754,0,0,1-13.677.36l1.956.914a2.649,2.649,0,0,1,1.528,2.4v.72A2.664,2.664,0,0,1-12.5,7.017l-8.052,1.1-.965-3.663,2.972-.651" transform="translate(21.518 0)"/></clipPath><clipPath id="e"><path class="c" d="M-13.022,3.8c-.137-.031-.119-.153-.119-.294V2.561A2.523,2.523,0,0,0-14.582.41a3.956,3.956,0,0,0-3.4-.05l-1.9.914a2.6,2.6,0,0,0-1.472,2.4v.72A2.576,2.576,0,0,0-19.15,7.017l8,1.1,1.032-3.663-2.9-.651" transform="translate(21.357 0)"/></clipPath><clipPath id="f"><path class="d" d="M-142.169,23.188c1.164-3.93,7.181-7.636,7.181-7.636S-129.943,0-124.509,0H-85.33C-79.9,0-74.85,15.552-74.85,15.552s6.016,3.67,7.181,7.6c.851,2.873-.994,13.9-2.049,19.607A4.491,4.491,0,0,1-74.2,46.281h-61.434a4.476,4.476,0,0,1-4.484-3.5c-1.055-5.7-2.9-16.716-2.049-19.589" transform="translate(142.387)"/></clipPath><clipPath id="g"><path class="b" d="M-139.763.64a1.886,1.886,0,0,1,1.4-.64h70.186a1.886,1.886,0,0,1,1.4.633,1.522,1.522,0,0,1,.346,1.377l-1.149,4.506a1.71,1.71,0,0,1-1.741,1.2h-67.831a1.708,1.708,0,0,1-1.737-1.174L-140.1,1.994A1.457,1.457,0,0,1-139.763.64" transform="translate(140.147 0)"/></clipPath><clipPath id="h"><path class="d" d="M-30.685,7.1s1.747-5.24,3.947-5.693S-15.224-.985-15.03.633s2.07,7.181-3.493,7.7S-31.581,9.274-30.685,7.1" transform="translate(30.759 0)"/></clipPath><clipPath id="i"><path class="d" d="M-14.644,7.1s-1.747-5.24-3.946-5.693S-30.105-.985-30.3.633s-2.07,7.181,3.494,7.7,13.058.943,12.162-1.229" transform="translate(30.758 0)"/></clipPath><clipPath id="j"><path class="d" d="M-67.711.546A1.086,1.086,0,0,1-66.89,0h33.759a1.085,1.085,0,0,1,.839.575,1.078,1.078,0,0,1,.026,1.014l-1.9,3.606a4.087,4.087,0,0,1-3.59,2.184H-62.56A4.064,4.064,0,0,1-66.272,4.97l-1.513-3.442a1.081,1.081,0,0,1,.073-.982" transform="translate(67.869)"/></clipPath><clipPath id="k"><path class="d" d="M-13.3,6.742a.191.191,0,0,0,.133-.053L-6.454.335A.194.194,0,0,0-6.446.061.194.194,0,0,0-6.721.053l-6.715,6.354a.194.194,0,0,0-.007.274.192.192,0,0,0,.141.061" transform="translate(13.496 0)"/></clipPath><clipPath id="l"><path class="d" d="M-6.587,6.742a.192.192,0,0,0,.141-.061.194.194,0,0,0-.008-.274L-13.168.053a.2.2,0,0,0-.275.008.194.194,0,0,0,.008.274L-6.72,6.688a.191.191,0,0,0,.133.053" transform="translate(13.496 0)"/></clipPath><clipPath id="m"><path class="d" d="M-91.084,3.3A4.773,4.773,0,0,1-86.567,0h35.526a4.774,4.774,0,0,1,4.517,3.3l2.291,7-3.449-4.548a4.771,4.771,0,0,0-3.782-1.891h-34.68a4.775,4.775,0,0,0-3.782,1.9l-3.449,4.53L-91.084,3.3" transform="translate(93.375)"/></clipPath><clipPath id="n"><path class="d" d="M-21.909,0h10.187a1.047,1.047,0,0,1,1.006,1.052v2.1a.549.549,0,0,1-.587.541H-21.909a.675.675,0,0,1-.713-.666V.759A.754.754,0,0,1-21.909,0" transform="translate(22.622)"/></clipPath><linearGradient id="o" x1="0.536" y1="2.341" x2="0.454" y2="-1.73" gradientUnits="objectBoundingBox"><stop offset="0" stop-color="#08005d"/><stop offset="1" stop-color="#1a0f91"/></linearGradient><clipPath id="p"><path class="d" d="M-5.98.214A4.527,4.527,0,0,0-4.477,0c0,.084,0,.169,0,.257a.167.167,0,0,1-.159.169L-9.26.4A.211.211,0,0,1-9.43.089c.606.05,2.149.162,3.45.125" transform="translate(9.451)"/></clipPath><linearGradient id="q" x1="-0.125" y1="-5.381" x2="2.391" y2="17.663" gradientUnits="objectBoundingBox"><stop offset="0" stop-color="#52d7ff"/><stop offset="1" stop-color="#3840f7"/></linearGradient></defs><g transform="translate(-176 -1668)"><g transform="translate(1125 -2147)"><circle class="e" cx="60" cy="60" r="60" transform="translate(-949 3815)"/></g><g transform="translate(191.424 1696.355)"><g transform="translate(5.978 4.848)"><path class="g" d="M73.44,4.348c.106,0,.2-.161.23-.311a.5.5,0,0,0-.1-.423C72.251,2.407,70.935,1.237,69.619.03,69.581,0,69.537.014,69.492.014H4.187c-.045,0-.089-.033-.127,0C2.744,1.222,1.428,2.4.112,3.61a.536.536,0,0,0-.1.44c.029.151.123.3.23.3Z" transform="translate(2.861 50.405)"/><g transform="translate(0 0)"><g transform="translate(0 0)"><path class="h" d="M-8.337,17.107A.168.168,0,0,0-8.182,17C-5.411,10.137-5.036,5.22-7.067,2.384A6.046,6.046,0,0,0-12.044,0,.167.167,0,0,0-12.2.181a.167.167,0,0,0,.176.158A5.818,5.818,0,0,1-7.337,2.583C-5.38,5.32-5.769,10.129-8.492,16.877A.168.168,0,0,0-8.4,17.1a.176.176,0,0,0,.063.012" transform="translate(18.256 24.765)"/><path class="h" d="M-9.646,17.107a.174.174,0,0,0,.063-.012.168.168,0,0,0,.093-.218C-12.214,10.129-12.6,5.32-10.646,2.583A5.818,5.818,0,0,1-5.958.339.168.168,0,0,0-5.781.181.167.167,0,0,0-5.939,0a6.046,6.046,0,0,0-4.977,2.38C-12.947,5.22-12.572,10.137-9.8,17a.168.168,0,0,0,.156.105" transform="translate(76.144 24.765)"/><g transform="translate(64.077 33.37)"><path class="b" d="M-21.029,4.592A4.593,4.593,0,0,1-16.436,0h1.881A4.593,4.593,0,0,1-9.962,4.592V16.87a4.593,4.593,0,0,1-4.593,4.593h-1.881a4.593,4.593,0,0,1-4.593-4.593V4.592" transform="translate(21.029)"/><g class="i" transform="translate(0 0)"><path class="b" d="M-21.029,4.592A4.593,4.593,0,0,1-16.436,0h1.881A4.593,4.593,0,0,1-9.962,4.592V16.87a4.593,4.593,0,0,1-4.593,4.593h-1.881a4.593,4.593,0,0,1-4.593-4.593V4.592" transform="translate(21.029)"/></g></g><g transform="translate(4.674 33.37)"><path class="b" d="M-21.029,4.592A4.592,4.592,0,0,1-16.436,0h1.881A4.593,4.593,0,0,1-9.962,4.592V16.87a4.594,4.594,0,0,1-4.593,4.593h-1.881a4.593,4.593,0,0,1-4.592-4.593V4.592" transform="translate(21.029)"/><g class="j" transform="translate(0 0)"><path class="b" d="M-16.436,0h1.881A4.593,4.593,0,0,1-9.962,4.592V16.87a4.594,4.594,0,0,1-4.593,4.593h-1.881a4.593,4.593,0,0,1-4.592-4.593V4.592A4.592,4.592,0,0,1-16.436,0Z" transform="translate(21.029)"/></g></g><g transform="translate(67.99 11.291)"><path class="c" d="M-18.546,3.8c.138-.031.3-.153.3-.294V2.561A2.348,2.348,0,0,1-16.986.41,3.754,3.754,0,0,1-13.677.36l1.956.914a2.649,2.649,0,0,1,1.528,2.4v.72A2.664,2.664,0,0,1-12.5,7.017l-8.052,1.1-.965-3.663,2.972-.651" transform="translate(21.518 0)"/><g class="k" transform="translate(0 0)"><path class="c" d="M-18.546,3.8c.138-.031.3-.153.3-.294V2.561A2.348,2.348,0,0,1-16.986.41,3.754,3.754,0,0,1-13.677.36l1.956.914a2.649,2.649,0,0,1,1.528,2.4v.72A2.664,2.664,0,0,1-12.5,7.017l-8.052,1.1-.965-3.663,2.972-.651" transform="translate(21.518 0)"/></g></g><g transform="translate(0 11.291)"><path class="c" d="M-13.022,3.8c-.137-.031-.119-.153-.119-.294V2.561A2.523,2.523,0,0,0-14.582.41a3.956,3.956,0,0,0-3.4-.05l-1.9.914a2.6,2.6,0,0,0-1.472,2.4v.72A2.576,2.576,0,0,0-19.15,7.017l8,1.1,1.032-3.663-2.9-.651" transform="translate(21.357 0)"/><g class="l" transform="translate(0 0)"><path class="c" d="M-13.022,3.8c-.137-.031-.119-.153-.119-.294V2.561A2.523,2.523,0,0,0-14.582.41a3.956,3.956,0,0,0-3.4-.05l-1.9.914a2.6,2.6,0,0,0-1.472,2.4v.72A2.576,2.576,0,0,0-19.15,7.017l8,1.1,1.032-3.663-2.9-.651" transform="translate(21.357 0)"/></g></g><g transform="translate(2.125)"><path class="d" d="M-142.169,23.188c1.164-3.93,7.181-7.636,7.181-7.636S-129.943,0-124.509,0H-85.33C-79.9,0-74.85,15.552-74.85,15.552s6.016,3.67,7.181,7.6c.851,2.873-.994,13.9-2.049,19.607A4.491,4.491,0,0,1-74.2,46.281h-61.434a4.476,4.476,0,0,1-4.484-3.5c-1.055-5.7-2.9-16.716-2.049-19.589" transform="translate(142.387)"/><g class="m"><path class="n" d="M-134.988,15.552S-129.943,0-124.509,0H-85.33C-79.9,0-74.85,15.552-74.85,15.552s6.016,3.67,7.181,7.6c.851,2.873-.994,13.9-2.049,19.607A4.491,4.491,0,0,1-74.2,46.281h-61.434a4.476,4.476,0,0,1-4.484-3.5c-1.055-5.7-2.9-16.716-2.049-19.589C-141.005,19.258-134.988,15.552-134.988,15.552Z" transform="translate(142.387)"/></g></g><g transform="translate(2.714 39.071)"><path class="b" d="M-139.763.64a1.886,1.886,0,0,1,1.4-.64h70.186a1.886,1.886,0,0,1,1.4.633,1.522,1.522,0,0,1,.346,1.377l-1.149,4.506a1.71,1.71,0,0,1-1.741,1.2h-67.831a1.708,1.708,0,0,1-1.737-1.174L-140.1,1.994A1.457,1.457,0,0,1-139.763.64" transform="translate(140.147 0)"/><g class="o" transform="translate(0 0)"><path class="b" d="M-139.763.64a1.886,1.886,0,0,1,1.4-.64h70.186a1.886,1.886,0,0,1,1.4.633,1.522,1.522,0,0,1,.346,1.377l-1.149,4.506a1.71,1.71,0,0,1-1.741,1.2h-67.831a1.708,1.708,0,0,1-1.737-1.174L-140.1,1.994A1.457,1.457,0,0,1-139.763.64" transform="translate(140.147 0)"/></g></g><g class="p" transform="translate(58.475 25.515)"><path class="d" d="M-30.685,7.1s1.747-5.24,3.947-5.693S-15.224-.985-15.03.633s2.07,7.181-3.493,7.7S-31.581,9.274-30.685,7.1" transform="translate(30.759 0)"/><g class="q" transform="translate(0 0)"><path class="c" d="M-30.685,7.1s1.747-5.24,3.947-5.693S-15.224-.985-15.03.633s2.07,7.181-3.493,7.7S-31.581,9.274-30.685,7.1" transform="translate(30.759 0)"/></g></g><g class="p" transform="translate(4.523 25.515)"><path class="d" d="M-14.644,7.1s-1.747-5.24-3.946-5.693S-30.105-.985-30.3.633s-2.07,7.181,3.494,7.7,13.058.943,12.162-1.229" transform="translate(30.758 0)"/><g class="r" transform="translate(0 0)"><path class="c" d="M-14.644,7.1s-1.747-5.24-3.946-5.693S-30.105-.985-30.3.633s-2.07,7.181,3.494,7.7,13.058.943,12.162-1.229" transform="translate(30.758 0)"/></g></g><g class="p" transform="translate(21.734 27.5)"><path class="d" d="M-67.711.546A1.086,1.086,0,0,1-66.89,0h33.759a1.085,1.085,0,0,1,.839.575,1.078,1.078,0,0,1,.026,1.014l-1.9,3.606a4.087,4.087,0,0,1-3.59,2.184H-62.56A4.064,4.064,0,0,1-66.272,4.97l-1.513-3.442a1.081,1.081,0,0,1,.073-.982" transform="translate(67.869 0)"/><g class="s" transform="translate(0 0)"><path class="c" d="M-66.89,0h33.759a1.085,1.085,0,0,1,.839.575,1.078,1.078,0,0,1,.026,1.014l-1.9,3.606a4.087,4.087,0,0,1-3.59,2.184H-62.56A4.064,4.064,0,0,1-66.272,4.97l-1.513-3.442a1.081,1.081,0,0,1,.073-.982A1.086,1.086,0,0,1-66.89,0Z" transform="translate(67.869)"/></g></g><path class="t" d="M-102.745,12.7a1.2,1.2,0,0,0,.993.548h51.8a1.2,1.2,0,0,0,1-.564,1.2,1.2,0,0,0,.07-1.149C-50.054,9.056-52.26,4.465-53.5,1.9a3.144,3.144,0,0,0-.188-.348A3.307,3.307,0,0,0-56.472,0H-95.645a3.31,3.31,0,0,0-2.8,1.567A3.415,3.415,0,0,0-98.669,2l-4.169,9.568a1.2,1.2,0,0,0,.093,1.133" transform="translate(115.444 4.192)"/><path class="u" d="M-85.051,1.567a122.553,122.553,0,0,0,22.97,1.9c12.264,0,19.459-1.385,21.79-1.919A3.3,3.3,0,0,0-43.077,0H-82.25a3.31,3.31,0,0,0-2.8,1.567" transform="translate(102.049 4.192)"/><path class="d" d="M-13.3,6.742a.191.191,0,0,0,.133-.053L-6.454.335A.194.194,0,0,0-6.446.061.194.194,0,0,0-6.721.053l-6.715,6.354a.194.194,0,0,0-.007.274.192.192,0,0,0,.141.061" transform="translate(72.685 18.746)"/><g class="v" transform="translate(59.189 18.746)"><path class="w" d="M-13.168,6.688-6.454.335A.194.194,0,0,0-6.446.061.194.194,0,0,0-6.721.053l-6.715,6.354a.194.194,0,0,0-.007.274.192.192,0,0,0,.141.061A.191.191,0,0,0-13.168,6.688Z" transform="translate(13.496 0)"/><g transform="translate(-45.801 0)"><path class="d" d="M-6.587,6.742a.192.192,0,0,0,.141-.061.194.194,0,0,0-.008-.274L-13.168.053a.2.2,0,0,0-.275.008.194.194,0,0,0,.008.274L-6.72,6.688a.191.191,0,0,0,.133.053" transform="translate(13.496 0)"/><g class="x" transform="translate(0 0)"><path class="y" d="M-6.587,6.742a.192.192,0,0,0,.141-.061.194.194,0,0,0-.008-.274L-13.168.053a.2.2,0,0,0-.275.008.194.194,0,0,0,.008.274L-6.72,6.688a.191.191,0,0,0,.133.053" transform="translate(13.496 0)"/></g></g><g transform="translate(-44.266 -25.286)"><path class="d" d="M-91.084,3.3A4.773,4.773,0,0,1-86.567,0h35.526a4.774,4.774,0,0,1,4.517,3.3l2.291,7-3.449-4.548a4.771,4.771,0,0,0-3.782-1.891h-34.68a4.775,4.775,0,0,0-3.782,1.9l-3.449,4.53L-91.084,3.3" transform="translate(93.375 0)"/><g class="z" transform="translate(0 0)"><path class="aa" d="M-91.084,3.3A4.773,4.773,0,0,1-86.567,0h35.526a4.774,4.774,0,0,1,4.517,3.3l2.291,7-3.449-4.548a4.771,4.771,0,0,0-3.782-1.891h-34.68a4.775,4.775,0,0,0-3.782,1.9l-3.449,4.53L-91.084,3.3" transform="translate(93.375)"/></g></g><g transform="translate(-25.653 -14.554)"><path class="d" d="M-21.909,0h10.187a1.047,1.047,0,0,1,1.006,1.052v2.1a.549.549,0,0,1-.587.541H-21.909a.675.675,0,0,1-.713-.666V.759A.754.754,0,0,1-21.909,0" transform="translate(22.622 0)"/><g class="ab" transform="translate(0 0)"><path class="ac" d="M-21.909,0h10.187a1.047,1.047,0,0,1,1.006,1.052v2.1a.549.549,0,0,1-.587.541H-21.909a.675.675,0,0,1-.713-.666V.759A.754.754,0,0,1-21.909,0" transform="translate(22.622)"/></g></g><path class="ad" d="M-5.177,1.363A1.362,1.362,0,0,0-3.815,2.725,1.362,1.362,0,0,0-2.453,1.363,1.362,1.362,0,0,0-3.815,0,1.362,1.362,0,0,0-5.177,1.363" transform="translate(-15.801 -14.152)"/><path class="ae" d="M-3.166.833a.833.833,0,0,0,.833.833A.833.833,0,0,0-1.5.833.833.833,0,0,0-2.333,0a.833.833,0,0,0-.833.833" transform="translate(-17.257 -13.649)"/><g transform="translate(34.097 35.606)"><path class="d" d="M-5.98.214A4.527,4.527,0,0,0-4.477,0c0,.084,0,.169,0,.257a.167.167,0,0,1-.159.169L-9.26.4A.211.211,0,0,1-9.43.089c.606.05,2.149.162,3.45.125" transform="translate(9.451 0)"/><g class="af" transform="translate(0 0)"><path class="ag" d="M-5.98.214A4.527,4.527,0,0,0-4.477,0c0,.084,0,.169,0,.257a.167.167,0,0,1-.159.169L-9.26.4A.211.211,0,0,1-9.43.089c.606.05,2.149.162,3.45.125" transform="translate(9.451)"/></g></g></g></g></g></g><path class="ah" d="M0,3.059a2.959,2.959,0,0,0,2.067-.947A2.948,2.948,0,0,0,2.917,0a2.948,2.948,0,0,0,.85,2.112,2.989,2.989,0,0,0,2.073.947,2.984,2.984,0,0,0-1.475.457A3.094,3.094,0,0,0,3.3,4.63a3.028,3.028,0,0,0-.386,1.5,2.962,2.962,0,0,0-.85-2.118A2.94,2.94,0,0,0,0,3.059ZM2.138,9.994A2.217,2.217,0,0,0,3.7,9.285a2.218,2.218,0,0,0,.637-1.59,2.3,2.3,0,0,0,2.189,2.3,2.3,2.3,0,0,0-2.189,2.3A2.218,2.218,0,0,0,3.7,10.7,2.256,2.256,0,0,0,2.138,9.994ZM6.523,6.941a2.2,2.2,0,0,0,1.552-.708,2.216,2.216,0,0,0,.631-1.6,2.218,2.218,0,0,0,.637,1.59,2.217,2.217,0,0,0,1.558.708,2.3,2.3,0,0,0-2.2,2.3A2.277,2.277,0,0,0,6.523,6.941Z" transform="translate(75.791 3.726) rotate(-19)"/><path class="ah" d="M0,9.695a3.107,3.107,0,0,1,2.17.994,3.1,3.1,0,0,1,.892,2.217,3.1,3.1,0,0,1,.892-2.217,3.138,3.138,0,0,1,2.177-.994,3.133,3.133,0,0,1-1.548-.48,3.249,3.249,0,0,1-1.116-1.17A3.179,3.179,0,0,1,3.063,6.47,3.11,3.11,0,0,1,2.17,8.694,3.087,3.087,0,0,1,0,9.695ZM2.245,2.414a2.328,2.328,0,0,1,1.636.744,2.328,2.328,0,0,1,.669,1.67,2.328,2.328,0,0,1,.669-1.67,2.312,2.312,0,0,1,1.629-.744A2.312,2.312,0,0,1,5.219,1.67,2.328,2.328,0,0,1,4.55,0a2.328,2.328,0,0,1-.669,1.67A2.368,2.368,0,0,1,2.245,2.414Zm4.6,3.2A2.4,2.4,0,0,1,9.14,8.038a2.415,2.415,0,0,1,2.305-2.414A2.328,2.328,0,0,1,9.81,4.881a2.328,2.328,0,0,1-.669-1.67,2.35,2.35,0,0,1-.663,1.67A2.333,2.333,0,0,1,6.849,5.618Z" transform="translate(10.822 15.929) rotate(-161)"/></g></g></svg>