<svg xmlns="http://www.w3.org/2000/svg" xmlns:xlink="http://www.w3.org/1999/xlink" width="123.61" height="123.61" viewBox="0 0 123.61 123.61"><defs><style>.a{fill:none;}.b{fill:#6aa3e6;}.c{clip-path:url(#a);}.d{fill:#14245d;}.e{fill:#e8bd6d;}.f{fill:#fff;}.g{fill:#4b62aa;}.h{fill:#6ec259;}.i{fill:#eabd6b;}.j{opacity:0.207;isolation:isolate;}.k{opacity:0.21;}.l{fill:#181343;}.m{fill:#2c3160;}.n{fill:#e49323;}.o{fill:#f0d2c3;}</style><clipPath id="a"><circle class="a" cx="61.805" cy="61.805" r="61.805"/></clipPath></defs><g transform="translate(-4383.329 -3726.11)"><g transform="translate(4383.329 3726.11)"><circle class="b" cx="61.805" cy="61.805" r="61.805" transform="translate(0 0)"/></g><g transform="translate(4383.329 3726.11)"><g class="c" transform="translate(0 0)"><g transform="translate(21.713 47.115)"><path class="d" d="M4532.795,3935.064h-76.677l2.219-33.382a18.341,18.341,0,0,1,18.053-17.627h36.133a18.342,18.342,0,0,1,18.056,17.633Z" transform="translate(-4456.118 -3884.055)"/></g><g transform="translate(48.093 33.159)"><path class="e" d="M4565.583,3853.052c-1.956-5.1,2.236-11.6,3.8-15.781h-23.143c1.428,3.281,5.945,11.058,3.8,15.781a76.072,76.072,0,0,1-5.484,8.679h26.511S4566.73,3856.043,4565.583,3853.052Z" transform="translate(-4544.555 -3837.271)"/></g><g transform="translate(-23.549 -28.589)"><ellipse class="a" cx="81.629" cy="81.067" rx="81.629" ry="81.067"/></g><g transform="translate(-18.052 92.303)"><path class="d" d="M4330.275,4075.27h142.836c4.122,0,7.461-14.145,7.461-31.579,0-4.5-.862-8.151-1.925-8.151h-153.91c-1.063,0-1.925,3.649-1.925,8.15C4322.813,4061.131,4326.154,4075.27,4330.275,4075.27Z" transform="translate(-4322.813 -4035.54)"/></g><g transform="translate(13.086 49.842)"><path class="f" d="M4486.411,3896.957c-11.217-4.431-8.15,4.437-11.968,6.179-3.819-1.742,3.631-13.369-7.585-8.938-13.9,5.492-38.137,36.091-39.661,44.6h95.022C4520.7,3930.29,4500.313,3902.449,4486.411,3896.957Z" transform="translate(-4427.197 -3893.198)"/></g><g transform="translate(30.498 71.092)"><g transform="translate(0 10.807)"><path class="g" d="M4487.958,4001.09l1.929,9.931-1.864,2.514-2.454-11.641,1.556-1.128a.531.531,0,0,1,.833.325Z" transform="translate(-4485.569 -4000.664)"/></g><g transform="translate(54.924 10.8)"><path class="g" d="M4671.653,4001.067l-1.961,9.946,1.9,2.5,2.453-11.641-1.554-1.129a.534.534,0,0,0-.836.326Z" transform="translate(-4669.692 -4000.639)"/></g><g transform="translate(1.612 2.937)"><path class="h" d="M4518.987,3974.279a28.922,28.922,0,0,0-28.015,21.5H4497a23.223,23.223,0,0,1,43.969,0H4547A28.922,28.922,0,0,0,4518.987,3974.279Z" transform="translate(-4490.972 -3974.279)"/></g><g transform="translate(2.446)"><path class="i" d="M4493.77,3976.083s12.662-15.132,16.471-8.924c0,0,3.9-4.009,4.667-2.3s-3.714,5.405-3.714,5.405,1.425,4.239-1.523,6.981-5.282,3.186-7.046,2.553a17.111,17.111,0,0,1-3.571-2.505,33.882,33.882,0,0,0-3.908,5.8Z" transform="translate(-4493.77 -3964.434)"/></g><g transform="translate(35.579)"><path class="i" d="M4626.067,3976.083s-12.662-15.132-16.471-8.924c0,0-3.9-4.009-4.667-2.3s3.714,5.405,3.714,5.405-1.425,4.239,1.523,6.981,5.282,3.186,7.046,2.553a17.111,17.111,0,0,0,3.571-2.505,33.91,33.91,0,0,1,3.908,5.8Z" transform="translate(-4604.842 -3964.434)"/></g></g><g transform="translate(16.497 80.408)"><g class="j"><path class="g" d="M4439.4,4004.677a.768.768,0,0,1-.642-.351.752.752,0,0,1,.227-1.039l.007,0,11.721-7.422a1.243,1.243,0,0,1,1.859.7l.271.944a.768.768,0,0,1-1.467.415l-.166-.581-11.4,7.218A.771.771,0,0,1,4439.4,4004.677Z" transform="translate(-4438.634 -3995.667)"/></g></g><g class="k" transform="translate(89.559 80.405)"><path class="g" d="M4697.015,4004.668a.764.764,0,0,1-.408-.12l-11.4-7.218-.164.581a.768.768,0,0,1-1.467-.415l.27-.944a1.241,1.241,0,0,1,1.863-.7l11.72,7.421a.753.753,0,0,1,.238,1.037l0,.007A.767.767,0,0,1,4697.015,4004.668Z" transform="translate(-4683.562 -3995.656)"/></g><g transform="translate(36.368 17.289)"><path class="l" d="M4542.131,3809.481h-26.4a10.443,10.443,0,0,1-10.483-10.4q0-.428.032-.855l.375-4.581a10.459,10.459,0,0,1,10.452-9.572h25.649a10.458,10.458,0,0,1,10.452,9.572l.375,4.581a10.446,10.446,0,0,1-9.6,11.226Q4542.557,3809.482,4542.131,3809.481Z" transform="translate(-4505.249 -3784.07)"/></g><g transform="translate(45.982 5.553)"><path class="m" d="M4567.909,3758.719c-.029-3.443-2.375-6.1-4.62-8.538-2.8-3.038-5.992-5.455-10.651-5.455-4.408,0-5.382,1.725-8.17,4.482-2.547,2.52-6.99,5.9-6.99,9.622v7.8c0,7.79,6.783,14.1,15.217,14.1,7.986,0,14.509-5.662,15.184-12.876Z" transform="translate(-4537.477 -3744.726)"/></g><g transform="translate(48.07 10.519)"><path class="e" d="M4570.521,3774.25a13.022,13.022,0,0,0-26.044.1v8.079a13.012,13.012,0,0,0,25.973,1.131Z" transform="translate(-4544.477 -3761.374)"/></g><g transform="translate(46.932 13.71)"><path class="m" d="M4544.651,3772.069a13.734,13.734,0,0,1-2.847,12.995l-1.141-4.539,2.563-8Z" transform="translate(-4540.663 -3772.069)"/></g><g transform="translate(71.502 14.827)"><path class="m" d="M4623.208,3775.955a23.043,23.043,0,0,0,1.634,11.737l2.461-1.469S4626.8,3774.4,4623.208,3775.955Z" transform="translate(-4623.027 -3775.814)"/></g><g transform="translate(72.162 24.985)"><path class="e" d="M4625.24,3812.418a2.512,2.512,0,0,1,2.5-2.551,2.61,2.61,0,0,1,2.62,2.551,2.685,2.685,0,0,1-2.382,2.546l-2.58-.052S4625.24,3812.621,4625.24,3812.418Z" transform="translate(-4625.24 -3809.867)"/></g><g transform="translate(73.811 26.723)"><circle class="n" cx="0.81" cy="0.81" r="0.81"/></g><g transform="translate(44.37 24.985)"><path class="e" d="M4537.2,3812.418a2.512,2.512,0,0,0-2.5-2.551,2.61,2.61,0,0,0-2.62,2.551,2.685,2.685,0,0,0,2.382,2.546l2.58-.052S4537.2,3812.621,4537.2,3812.418Z" transform="translate(-4532.073 -3809.867)"/></g><g transform="translate(46.226 26.723)"><circle class="n" cx="0.81" cy="0.81" r="0.81"/></g><g transform="translate(47.481 24.985)"><path class="m" d="M4556.117,3819.147a13.341,13.341,0,0,1-9.846-3.864,3.927,3.927,0,0,1-1.088-2.422l-2.315-2.994c0,1.47-.334,5.864-.343,6.078-.466,10.5,6.963,14.782,14.132,14.782,6.787,0,12.574-3.355,12.986-13.152l-.413-7.709-2.341,3.742c-.16,1.444-1.208,2.3-2.474,3.021C4561.657,3818.208,4559.551,3819.147,4556.117,3819.147Z" transform="translate(-4542.503 -3809.867)"/></g><g transform="translate(54.397 30.401)"><ellipse class="m" cx="6.814" cy="6.045" rx="6.814" ry="6.045"/></g><g transform="translate(47.846 21.202)"><path class="m" d="M4546.7,3805.88a9.961,9.961,0,0,1-.964-3.884,29.766,29.766,0,0,1,0-4.809l-2.015,3.782.228,4.421Z" transform="translate(-4543.724 -3797.188)"/></g><g transform="translate(71.835 21.202)"><path class="m" d="M4624.145,3804.931s.212-1.462.327-3.087a36.094,36.094,0,0,0,.031-4.655l2.015,3.782-.151,5.1Z" transform="translate(-4624.145 -3797.188)"/></g><g transform="translate(54.397 8.506)"><path class="m" d="M4566.453,3756.637l-.766,1.853s.977-1.379,3.9-.514,8.194.519,9.729,1.153a6.612,6.612,0,0,1,3.233,2.383q.153.194.316.414c1.276,1.722,0-2.1,0-2.1S4576.354,3750.684,4566.453,3756.637Z" transform="translate(-4565.687 -3754.624)"/></g><g transform="translate(54.95 19.639)"><g transform="translate(3.928)"><path class="n" d="M4583.02,3804a2.122,2.122,0,0,1-2.311-1.948.369.369,0,1,1,.737,0c0,.6.588,1.211,1.574,1.211a1.683,1.683,0,0,0,1.269-.425,1.24,1.24,0,0,0,.306-.919,3.047,3.047,0,0,0-.511-1.4,5.583,5.583,0,0,1-.41-.825c-.909-2.447-.771-5.789,1.036-7.149a3.65,3.65,0,0,1,2.045-.591,4.394,4.394,0,0,1,2.028.512.368.368,0,1,1-.337.655,3.673,3.673,0,0,0-1.69-.43,2.857,2.857,0,0,0-1.6.443c-1.512,1.138-1.586,4.157-.789,6.3a5,5,0,0,0,.36.717,3.732,3.732,0,0,1,.606,1.727,1.948,1.948,0,0,1-.507,1.467A2.377,2.377,0,0,1,4583.02,3804Z" transform="translate(-4580.709 -3791.948)"/></g><g transform="translate(3.928)"><path class="e" d="M4589.48,3793.655a4.036,4.036,0,0,0-1.859-.471,3.21,3.21,0,0,0-1.824.517c-1.637,1.232-1.787,4.372-.912,6.726.289.776.89,1.338.944,2.336.043.811-.425,1.733-1.943,1.733a1.764,1.764,0,0,1-1.942-1.58" transform="translate(-4581.576 -3792.815)"/><path class="n" d="M4583.02,3804a2.122,2.122,0,0,1-2.311-1.948.369.369,0,1,1,.737,0c0,.6.588,1.211,1.574,1.211a1.683,1.683,0,0,0,1.269-.425,1.24,1.24,0,0,0,.306-.919,3.047,3.047,0,0,0-.511-1.4,5.583,5.583,0,0,1-.41-.825c-.909-2.447-.771-5.789,1.036-7.149a3.65,3.65,0,0,1,2.045-.591,4.394,4.394,0,0,1,2.028.512.368.368,0,1,1-.337.655,3.673,3.673,0,0,0-1.69-.43,2.857,2.857,0,0,0-1.6.443c-1.512,1.138-1.586,4.157-.789,6.3a5,5,0,0,0,.36.717,3.732,3.732,0,0,1,.606,1.727,1.948,1.948,0,0,1-.507,1.467A2.377,2.377,0,0,1,4583.02,3804Z" transform="translate(-4580.709 -3791.948)"/></g><g transform="translate(7.782)"><path class="m" d="M4594,3793.2a.369.369,0,0,1-.222-.663,3.652,3.652,0,0,1,2.046-.591,4.392,4.392,0,0,1,2.027.512.368.368,0,1,1-.337.655,3.671,3.671,0,0,0-1.69-.43,2.86,2.86,0,0,0-1.6.443A.366.366,0,0,1,4594,3793.2Z" transform="translate(-4593.628 -3791.948)"/></g><path class="m" d="M4567.909,3793.2a.368.368,0,0,1-.222-.663,3.648,3.648,0,0,1,2.045-.591,4.4,4.4,0,0,1,2.028.512.368.368,0,1,1-.338.655,3.671,3.671,0,0,0-1.69-.43,2.856,2.856,0,0,0-1.6.443A.368.368,0,0,1,4567.909,3793.2Z" transform="translate(-4567.541 -3791.948)"/><g transform="translate(8.93 4.408)"><rect class="m" width="1.79" height="2.386" rx="0.895"/></g><g transform="translate(1.473 4.408)"><rect class="m" width="1.79" height="2.386" rx="0.895"/></g><g transform="translate(2.527 14.849)"><path class="f" d="M4583.48,3841.726h-7.468s.2,2.755,3.617,2.755S4583.48,3841.726,4583.48,3841.726Z" transform="translate(-4576.012 -3841.726)"/></g></g><g transform="translate(50.134 50.421)"><path class="o" d="M4553.561,3895.14l-1.98,3.187a1.221,1.221,0,0,0-.11,1.062l4.057,11.075a1.238,1.238,0,0,0,2.067.421l5.958-6.377Z" transform="translate(-4551.397 -3895.14)"/></g><g transform="translate(60.332 50.421)"><path class="o" d="M4595.556,3895.14l2,3.18a1.219,1.219,0,0,1,.109,1.067l-4.057,11.075a1.238,1.238,0,0,1-2.065.414l-5.956-6.377Z" transform="translate(-4585.583 -3895.14)"/></g><g transform="translate(52.747 47.787)"><path class="e" d="M4560.155,3889.365l8.6,8.156,7.9-7.588-7.426-3.29s-3.8-.333-3.945-.333S4560.155,3889.365,4560.155,3889.365Z" transform="translate(-4560.155 -3886.31)"/></g></g></g></g></svg>