<svg xmlns="http://www.w3.org/2000/svg" xmlns:xlink="http://www.w3.org/1999/xlink" width="294" height="25.059" viewBox="0 0 294 25.059"><defs><style>.a{fill:none;}.b{isolation:isolate;}.c{fill:#333;}.d{clip-path:url(#a);}.e{clip-path:url(#b);}.f{fill:#05be50;}.g{fill:#2f4a9f;}</style><clipPath id="a"><path class="a" d="M6718.286,4364.332a.844.844,0,0,1,.844.844v22.778a.843.843,0,0,1-.843.843h0a.844.844,0,0,1-.844-.843v-22.782A.844.844,0,0,1,6718.286,4364.332Z" transform="translate(-6717.442 -4364.332)"/></clipPath><clipPath id="b"><rect class="a" width="1215.054" height="759.408"/></clipPath></defs><g transform="translate(-6603.662 -4364.332)"><g transform="translate(6764.771 4370.184)"><g class="b"><g class="b"><path class="c" d="M6727.109,4379.222a1.194,1.194,0,0,1,.86-1,4.3,4.3,0,0,0,3.565,1.811c1.645,0,2.577-.676,2.577-1.846,0-1.336-1.39-1.647-2.962-2.011-1.827-.422-3.729-1.061-3.729-3.457,0-2.011,1.737-3.437,4.258-3.437a5.354,5.354,0,0,1,3.348.97,1.562,1.562,0,0,1,.712,1.134,1.238,1.238,0,0,1-.878,1.04,3.878,3.878,0,0,0-3.162-1.59c-1.48,0-2.45.713-2.45,1.81,0,1.3,1.151,1.5,2.8,1.883,2.01.456,3.948,1.244,3.948,3.528,0,2.177-1.683,3.527-4.442,3.527a5.654,5.654,0,0,1-3.84-1.223A1.671,1.671,0,0,1,6727.109,4379.222Z" transform="translate(-6727.109 -4368.675)"/><path class="c" d="M6739.362,4371.619a4.093,4.093,0,0,1,4.223,4.422v.146c0,.385-.127.529-.548.529h-6.49a1.911,1.911,0,0,0,.038.332,3.151,3.151,0,0,0,5.72.931c.038-.036.951.13.951.9a1.76,1.76,0,0,1-.968,1.279,5.2,5.2,0,0,1-2.779.711,4.37,4.37,0,0,1-4.644-4.587A4.454,4.454,0,0,1,6739.362,4371.619Zm-.019,1.369a2.8,2.8,0,0,0-2.778,2.506h5.266A2.417,2.417,0,0,0,6739.344,4372.988Z" transform="translate(-6724.743 -4367.96)"/><path class="c" d="M6741.949,4382.292c0-1.279,1.207-2.138,2.8-2.413a1.024,1.024,0,0,1-.348-.823,1.293,1.293,0,0,1,.5-.952,3.058,3.058,0,0,1-2.306-2.923,3.5,3.5,0,0,1,3.768-3.327,4.431,4.431,0,0,1,2.1.527l.478-.838a1.156,1.156,0,0,1,1.042-.7.982.982,0,0,1,.93.768l-1.5,1.554a2.977,2.977,0,0,1,.769,1.955c0,1.848-1.571,3.2-3.8,3.2h-.329a.506.506,0,0,0-.091.312c0,.568.841.622,2.375,1.006,1.244.329,2.56.952,2.56,2.394,0,1.664-1.7,2.69-4.607,2.69C6743.32,4384.725,6741.949,4383.937,6741.949,4382.292Zm7.186-.2c0-.7-.823-.952-1.792-1.187l-.915-.22c-1.5.089-2.742.619-2.742,1.553,0,.788.9,1.227,2.633,1.227C6748.092,4383.463,6749.135,4382.968,6749.135,4382.091Zm-.714-6.948a1.944,1.944,0,0,0-2.084-1.992,1.92,1.92,0,0,0-2.03,1.992,2.058,2.058,0,0,0,4.114,0Z" transform="translate(-6722.581 -4368.196)"/><path class="c" d="M6757.72,4372.594v7.878a.867.867,0,0,1-.64.2,1.024,1.024,0,0,1-1.079-.823,2.509,2.509,0,0,1-.073-.565,3.416,3.416,0,0,1-2.925,1.533c-2.321,0-3.382-1.57-3.382-3.764v-4.461c0-.658.33-.877.788-.877h.2c.476,0,.8.2.8.877v4.242c0,1.516.767,2.413,2.1,2.413a2.641,2.641,0,0,0,2.413-1.554v-5.1c0-.658.33-.877.787-.877h.2C6757.39,4371.717,6757.72,4371.918,6757.72,4372.594Z" transform="translate(-6720.241 -4367.931)"/><path class="c" d="M6763,4372.79a.9.9,0,0,1-.55.931,1.7,1.7,0,0,0-1.115-.382c-1.427,0-1.993,1.389-1.993,3.418v3.089c0,.658-.348.859-.8.859h-.2c-.476,0-.806-.2-.806-.859v-7.9a.9.9,0,0,1,.66-.2,1.035,1.035,0,0,1,1.061.877,3.309,3.309,0,0,1,.071.658,2.226,2.226,0,0,1,2.23-1.663C6762.468,4371.619,6763,4372.058,6763,4372.79Z" transform="translate(-6717.827 -4367.96)"/><path class="c" d="M6766.538,4371.619a4.624,4.624,0,1,1-4.624,4.605A4.439,4.439,0,0,1,6766.538,4371.619Zm-.019,1.479a2.954,2.954,0,0,0-2.942,3.127,2.984,2.984,0,0,0,2.942,3.163,3.153,3.153,0,0,0,0-6.29Z" transform="translate(-6716.49 -4367.96)"/><path class="c" d="M6775.83,4380.7l-4.241-10.7c-.073-.166.512-.6,1.114-.6a1.121,1.121,0,0,1,1.1.86l3.22,9.013,3.217-9.013a1.093,1.093,0,0,1,1.043-.86c.583,0,1.151.439,1.1.6l-4.225,10.7a1.042,1.042,0,0,1-1.17.71A1.03,1.03,0,0,1,6775.83,4380.7Z" transform="translate(-6713.541 -4368.637)"/><path class="c" d="M6784.582,4371.619a4.094,4.094,0,0,1,4.224,4.422v.146c0,.385-.13.529-.55.529h-6.49a2.011,2.011,0,0,0,.038.332,2.856,2.856,0,0,0,2.961,2.394,2.889,2.889,0,0,0,2.761-1.462c.036-.036.951.13.951.9a1.763,1.763,0,0,1-.971,1.279,5.189,5.189,0,0,1-2.777.711,4.37,4.37,0,0,1-4.644-4.587A4.454,4.454,0,0,1,6784.582,4371.619Zm-.018,1.369a2.8,2.8,0,0,0-2.779,2.506h5.265A2.416,2.416,0,0,0,6784.564,4372.988Z" transform="translate(-6710.946 -4367.96)"/><path class="c" d="M6796.167,4376.249v4.426c0,.658-.348.859-.8.859h-.2c-.474,0-.8-.2-.8-.859v-4.223c0-1.518-.769-2.415-2.028-2.415a2.356,2.356,0,0,0-2.47,2.581v4.057c0,.658-.346.859-.8.859h-.2c-.476,0-.806-.2-.806-.859V4369.1a.905.905,0,0,1,.66-.2c.548,0,1.149.294,1.149,1.556v3.6a3.306,3.306,0,0,1,2.908-1.609C6795.089,4372.449,6796.167,4374.058,6796.167,4376.249Z" transform="translate(-6708.516 -4368.791)"/><path class="c" d="M6796.945,4368.816a1.052,1.052,0,1,1-1.095,1.061A.99.99,0,0,1,6796.945,4368.816Zm-.95,4.663c0-.658.347-.878.823-.878H6797c.476,0,.8.2.8.878v7.221c0,.657-.329.858-.8.858h-.183c-.477,0-.823-.2-.823-.858Z" transform="translate(-6706.137 -4368.816)"/><path class="c" d="M6803.29,4371.619a4.4,4.4,0,0,1,2.869.912,2.181,2.181,0,0,1,.895,1.518c0,.75-1.022.9-1.078.806a2.606,2.606,0,0,0-2.65-1.719,3.116,3.116,0,0,0,0,6.215,2.621,2.621,0,0,0,2.65-1.717c.056-.093,1.078.035,1.078.822a2.153,2.153,0,0,1-.913,1.5,4.341,4.341,0,0,1-2.851.912,4.624,4.624,0,0,1,0-9.248Z" transform="translate(-6705.261 -4367.96)"/><path class="c" d="M6814.391,4372.594v7.878a.867.867,0,0,1-.64.2,1.024,1.024,0,0,1-1.078-.823,2.506,2.506,0,0,1-.074-.565,3.415,3.415,0,0,1-2.924,1.533c-2.322,0-3.382-1.57-3.382-3.764v-4.461c0-.658.328-.877.785-.877h.2c.477,0,.8.2.8.877v4.242c0,1.516.768,2.413,2.1,2.413a2.638,2.638,0,0,0,2.412-1.554v-5.1c0-.658.33-.877.787-.877h.2C6814.062,4371.717,6814.391,4371.918,6814.391,4372.594Z" transform="translate(-6702.951 -4367.931)"/><path class="c" d="M6814.259,4380.674V4369.1a.941.941,0,0,1,.658-.2c.566,0,1.151.294,1.151,1.556v10.219c0,.658-.329.859-.8.859h-.182C6814.606,4381.533,6814.259,4381.332,6814.259,4380.674Z" transform="translate(-6700.521 -4368.791)"/><path class="c" d="M6822.936,4375.349h.237v-.184A1.912,1.912,0,0,0,6821,4373.1a2.656,2.656,0,0,0-2.522,1.5c0,.019-1.114,0-1.114-.878a1.594,1.594,0,0,1,.6-1.1,4.67,4.67,0,0,1,3.162-1c2.486,0,3.839,1.28,3.839,3.511v5.391c0,.091-.329.2-.658.2a.981.981,0,0,1-1.041-.8,2.718,2.718,0,0,1-.073-.6,3.8,3.8,0,0,1-3.162,1.517c-1.884,0-3-1-3-2.5C6817.031,4376.3,6818.97,4375.419,6822.936,4375.349Zm.237,1.132-.493.017c-2.56.093-3.876.569-3.876,1.757,0,.786.621,1.28,1.664,1.28a2.462,2.462,0,0,0,2.705-2.377Z" transform="translate(-6699.675 -4367.96)"/><path class="c" d="M6830.212,4372.79a.9.9,0,0,1-.549.931,1.7,1.7,0,0,0-1.116-.382c-1.427,0-1.993,1.389-1.993,3.418v3.089c0,.658-.347.859-.8.859h-.2c-.476,0-.8-.2-.8-.859v-7.9a.9.9,0,0,1,.659-.2,1.033,1.033,0,0,1,1.06.877,3.226,3.226,0,0,1,.073.658,2.225,2.225,0,0,1,2.23-1.663C6829.681,4371.619,6830.212,4372.058,6830.212,4372.79Z" transform="translate(-6697.321 -4367.96)"/></g></g></g><g transform="translate(6752.156 4364.332)"><g class="d"><g transform="translate(-270.856 -11.813)"><g class="e"><g transform="translate(266.636 7.594)"><path class="c" d="M6714.21,4394.007h10.124V4361.1H6714.21Z" transform="translate(-6714.21 -4361.099)"/></g></g></g></g></g><g transform="translate(6603.662 4364.583)"><g transform="translate(32.126 3.723)"><path class="f" d="M6684.534,4385a6.131,6.131,0,0,1-4.484-1.708,7.1,7.1,0,0,1-1.813-5.138v-10.773h3.153l-.01,5.9.262-.376a4.2,4.2,0,0,1,3.554-2.042h0a5.62,5.62,0,0,1,4.24,1.9,7.363,7.363,0,0,1,1.715,4.914,7.889,7.889,0,0,1-1.793,5.194A6.2,6.2,0,0,1,6684.534,4385Zm.012-11.355a2.831,2.831,0,0,0-2.252,1.184,4.659,4.659,0,0,0-.891,2.837,5.686,5.686,0,0,0,.906,3.55,3.162,3.162,0,0,0,2.578,1.067h.007c1.761,0,3.038-1.7,3.038-4.018a5.823,5.823,0,0,0-.882-3.6,2.961,2.961,0,0,0-2.5-1.03ZM6698.38,4385h-.7c-3.187,0-5.412-1.754-5.412-4.255.01-2.77,2.282-4.183,6.752-4.2h1.351v-.33a2.533,2.533,0,0,0-.775-2.112,4.032,4.032,0,0,0-2.479-.571h-.105a8.059,8.059,0,0,0-3.447.783v-2.234a6.338,6.338,0,0,1,4.068-1.217h0a6.17,6.17,0,0,1,4.059,1.247,6.1,6.1,0,0,1,1.795,4.877v3.185a4.663,4.663,0,0,1-1.421,3.476,5.265,5.265,0,0,1-3.684,1.344Zm.652-6.271a5.69,5.69,0,0,0-2.741.468,1.514,1.514,0,0,0-.772,1.421,1.619,1.619,0,0,0,.686,1.377,3.127,3.127,0,0,0,1.849.485,2.438,2.438,0,0,0,1.761-.576,2.278,2.278,0,0,0,.589-1.7v-1.477Zm-35.908,6.262a6.812,6.812,0,0,1-4.6-1.817,6.655,6.655,0,0,1-2.072-4.93,7.84,7.84,0,0,1,1.874-5.4,6.3,6.3,0,0,1,4.775-1.979,5.61,5.61,0,0,1,3.767,1.4,5,5,0,0,1,1.647,3.822,2.479,2.479,0,0,1-1.458,2.511,11.7,11.7,0,0,1-4.909.714h-2.427l.021.165a3.742,3.742,0,0,0,4.025,2.969,7.777,7.777,0,0,0,3.338-.674v2.315A6.379,6.379,0,0,1,6663.125,4384.986Zm-.332-11.53a3.107,3.107,0,0,0-3.049,3.087l-.021.464-.01.149h1.688a10.91,10.91,0,0,0,3.279-.31,1.134,1.134,0,0,0,.876-1.175,2,2,0,0,0-.769-1.669,3.231,3.231,0,0,0-1.991-.548Zm-9.427,11.53a5.085,5.085,0,0,1-3.811-1.35,5.238,5.238,0,0,1-1.239-3.73l-.01-12.529h3.147v3.48h4.674v1.271c0,.729-.675,1.5-1.916,1.5h-2.765v5.873a2.821,2.821,0,0,0,.61,2.014,2.271,2.271,0,0,0,1.724.619,5.765,5.765,0,0,0,2.291-.364v1.97a2.726,2.726,0,0,1-2.7,1.243Zm55.255-.234h-3.145l-.015-8.1a5.835,5.835,0,0,1,1.459-3.97,6.08,6.08,0,0,1,4.645-1.822h0a5.585,5.585,0,0,1,5.825,5.973v7.919h-3.152l-.008-7.614a3.976,3.976,0,0,0-.772-2.651,2.746,2.746,0,0,0-2.176-.856h-.065a2.44,2.44,0,0,0-1.861.863,3.679,3.679,0,0,0-.731,2.39v7.868Zm-71.519,0h-3.162v-8.108a5.837,5.837,0,0,1,1.459-3.967,6.078,6.078,0,0,1,4.644-1.819,5.9,5.9,0,0,1,4.11,1.543,5.965,5.965,0,0,1,1.714,4.438v7.918h-3.157v-7.621a3.957,3.957,0,0,0-.77-2.652,2.749,2.749,0,0,0-2.177-.851h-.067a2.436,2.436,0,0,0-1.859.863,3.676,3.676,0,0,0-.733,2.389v7.868Zm36.266,0h-3.183v-8.622a5.757,5.757,0,0,1,1.15-3.663,4.662,4.662,0,0,1,3.822-1.611h.111a3.559,3.559,0,0,1,1.5.335v2.535a4.945,4.945,0,0,0-.841-.072h-.034a2.331,2.331,0,0,0-1.876.736,3.553,3.553,0,0,0-.652,2.36v8Zm-41.906,0h-3.184v-17.375h3.185v17.375Z" transform="translate(-6628.278 -4367.377)"/></g><g transform="translate(123.708 3.721)"><path class="f" d="M6705.014,4377.541l-.073-.09.072-.088a78.307,78.307,0,0,1,5.514-6.189h-1.749a3.413,3.413,0,0,0-2.653.858,42.02,42.02,0,0,0-4.229,5.017l-.261.334.02-10.007h-3.2v17.347l3.184.008v-7.037l.261.342a58.708,58.708,0,0,0,4.815,5.89,3.255,3.255,0,0,0,2.166.913,2.036,2.036,0,0,0,1.726-.645c-.88-1.057-4.511-5.327-5.589-6.649" transform="translate(-6698.452 -4367.375)"/></g><path class="g" d="M6625.05,4389.333h-21.389v-21.478a3.345,3.345,0,0,1,.961-2.352,3.272,3.272,0,0,1,2.332-.979h21.4V4386a3.321,3.321,0,0,1-.961,2.349A3.27,3.27,0,0,1,6625.05,4389.333Zm-2.465-20.25h0l-13.16,2.39v13.348l13.16-2.39Z" transform="translate(-6603.662 -4364.524)"/></g></g></svg>