<svg xmlns="http://www.w3.org/2000/svg" width="139.574" height="137.323" viewBox="0 0 139.574 137.323"><defs><style>.a{fill:#8bafe2;}.b{fill:#0855c4;}.c{fill:#fff;}.d{fill:#e4aca4;}.e{fill:#f7c4b4;}.f{fill:#d8988a;}.g{fill:#ecb7a7;}.h{fill:#6b5752;}.i{fill:#72e277;}.j{fill:#a66a61;}.k{fill:#ffdf41;}</style></defs><g transform="translate(-613.713 -163)"><g transform="translate(-1225.287 -1027.646)"><g transform="translate(1839 1190.645)"><ellipse class="a" cx="69.787" cy="68.661" rx="69.787" ry="68.661"/></g><path class="b" d="M1915.949,1392.607a70.02,70.02,0,0,0,58.637-31.421H1857.309A70.017,70.017,0,0,0,1915.949,1392.607Z" transform="translate(-6.941 -64.654)"/><g transform="translate(1914.624 1206.021)"><path class="c" d="M1960.8,1215.651l1.593-.242,1.022,6.5-1.593.242Z" transform="translate(-1960.799 -1215.409)"/><path class="c" d="M1972.551,1223.2l1.5-6.413,1.571.355-1.5,6.413Z" transform="translate(-1965.254 -1215.932)"/><path class="c" d="M1982.355,1227.68l3.839-5.388,1.32.911-3.839,5.388Z" transform="translate(-1968.971 -1218.019)"/></g><path class="d" d="M1911.508,1355.417v11.735s6.322,5.867,15.8,0v-11.735Z" transform="translate(-27.489 -62.467)"/><path class="d" d="M1960.97,1355.417v11.735s6.322,5.867,15.8,0v-11.735Z" transform="translate(-46.24 -62.467)"/><path class="e" d="M1923.834,1266.121c-19.071,0-35.13,9.939-39.958,23.468h-5.362a31.165,31.165,0,0,0-1.342,10.092,23.651,23.651,0,0,0,1.342,8.1h5.812c5.317,12.927,20.994,22.295,39.509,22.295,22.885,0,41.445-14.316,41.445-31.976S1946.725,1266.121,1923.834,1266.121Z" transform="translate(-14.471 -28.614)"/><g transform="translate(1881.304 1231.644)"><path class="f" d="M1907.171,1271.927s-.6-9.387,4.174-15.25c0,0,5.043,3.918,6.364,14.464a2.384,2.384,0,0,1-1.844,2.6C1913.533,1274.285,1909.712,1274.62,1907.171,1271.927Z" transform="translate(-1907.14 -1256.677)"/><path class="g" d="M1907.158,1271.927s-.588-9.387,4.183-15.25c0,0,3.6,5.281,4.174,17.308C1915.515,1273.981,1909.552,1275.154,1907.158,1271.927Z" transform="translate(-1907.135 -1256.677)"/></g><g transform="translate(1862.967 1267.278)"><path class="d" d="M1924,1343.85c-18.515,0-34.192-9.368-39.509-22.295H1877.6a20.924,20.924,0,0,0,1.075,4.4h5.812c5.317,12.926,20.994,22.295,39.509,22.295,22.885,0,41.444-14.316,41.444-31.976,0-.739-.035-1.473-.1-2.2C1963.877,1330.708,1945.927,1343.85,1924,1343.85Z" transform="translate(-1877.601 -1314.07)"/></g><path class="f" d="M2018.271,1315.378c.078.507.117.942.153,1.411s.054.925.056,1.391a12.847,12.847,0,0,1-.265,2.852,6,6,0,0,1-.523,1.476,3.246,3.246,0,0,1-1.206,1.323,2.716,2.716,0,0,1-.886.33,3.166,3.166,0,0,1-.447.048h-.216a2.014,2.014,0,0,1-.274-.024,1.775,1.775,0,0,1-.972-.5,2.2,2.2,0,0,1-.5-.777,3.147,3.147,0,0,1-.156-1.579,2.8,2.8,0,0,1,.633-1.436,2.148,2.148,0,0,1,1.413-.728,3.238,3.238,0,0,1,1.442.219,6.109,6.109,0,0,1,2.2,1.572,16.484,16.484,0,0,1,1.665,2.035,16.563,16.563,0,0,0-1.846-1.848,5.6,5.6,0,0,0-2.177-1.256,2.6,2.6,0,0,0-1.168-.017,1.3,1.3,0,0,0-.8.571,2.024,2.024,0,0,0-.014,1.945.834.834,0,0,0,.251.286.28.28,0,0,0,.2.05l.169-.03a1.465,1.465,0,0,0,.2-.06,1.017,1.017,0,0,0,.315-.193,2.555,2.555,0,0,0,.576-1.72,10.784,10.784,0,0,0-.174-2.339c-.068-.4-.152-.8-.247-1.193s-.206-.807-.319-1.148a1.468,1.468,0,0,1,.959-1.856,1.5,1.5,0,0,1,1.887.943h0a1.44,1.44,0,0,1,.057.229Z" transform="translate(-65.966 -46.807)"/><g transform="translate(1897.968 1243.411)"><path class="h" d="M1936.221,1281.016a2.311,2.311,0,0,1-.218-4.6,87.86,87.86,0,0,1,29.41,1.021,2.317,2.317,0,0,1,1.855,2.718,2.352,2.352,0,0,1-2.762,1.824l-.064-.014a83.066,83.066,0,0,0-27.789-.966A2.393,2.393,0,0,1,1936.221,1281.016Z" transform="translate(-1933.973 -1275.629)"/></g><g transform="translate(1895.07 1216.611)"><ellipse class="i" cx="19.554" cy="19.238" rx="19.554" ry="19.238" transform="translate(0 0)"/><path class="c" d="M1956.67,1266.271c-3.379-.055-5.671-1.85-5.671-3.164,0-.644.567-1.534,1.254-1.534.9,0,1.635,1.877,4.416,2.092v-6.3c-2.453-.857-5.178-1.823-5.178-5.255,0-3.379,2.59-4.719,5.178-4.988v-.777a.716.716,0,0,1,.789-.617c.411,0,.821.294.821.617v.724c1.853.055,4.467.616,4.467,1.931,0,.509-.381,1.534-1.2,1.534-.654,0-1.363-.857-3.27-.992v5.441c2.371.857,4.963,2.038,4.963,5.685a5.224,5.224,0,0,1-4.923,5.521h-.036v.911c0,.322-.409.617-.82.617a.717.717,0,0,1-.79-.617v-.828Zm.163-11.8v-4.883c-1.526.186-2.616.858-2.616,2.251,0,1.533,1.172,2.1,2.616,2.632Zm1.276,3.488v5.657a2.565,2.565,0,0,0,2.4-2.651,3.15,3.15,0,0,0-2.393-3.008Z" transform="translate(-1937.53 -1237.492)"/></g><path class="g" d="M1937.595,1283.868s11.944-2.118,28.219.944l2.839,6.544-28.744.528Z" transform="translate(-37.378 -35.071)"/><g transform="translate(1876.284 1255.387)"><path class="j" d="M1907.4,1298.571a.91.91,0,0,1-1.094-.327,3.7,3.7,0,0,0-5.1-.931,3.625,3.625,0,0,0-.6.507.913.913,0,0,1-1.134.163h0a.868.868,0,0,1-.3-1.2.854.854,0,0,1,.093-.125,5.521,5.521,0,0,1,7.711-.326,5.374,5.374,0,0,1,.834.954.868.868,0,0,1-.265,1.211.848.848,0,0,1-.143.074Z" transform="translate(-1899.049 -1294.918)"/></g><path class="k" d="M1917.143,1212.438l1.538,3.066a.711.711,0,0,0,.535.382l3.438.491a.695.695,0,0,1,.394,1.192l-2.489,2.387a.692.692,0,0,0-.2.619l.587,3.37a.7.7,0,0,1-.579.808.723.723,0,0,1-.453-.071l-3.075-1.591a.722.722,0,0,0-.661,0l-3.076,1.591a.715.715,0,0,1-.959-.292.69.69,0,0,1-.072-.445l.587-3.37a.692.692,0,0,0-.2-.619l-2.488-2.387a.691.691,0,0,1-.013-.988.715.715,0,0,1,.407-.2l3.438-.491a.711.711,0,0,0,.535-.382l1.538-3.066a.716.716,0,0,1,1.276,0Z" transform="translate(-26.821 -8.114)"/><path class="k" d="M2025.562,1267.362l.986,1.964a.455.455,0,0,0,.343.245l2.2.315a.446.446,0,0,1,.253.764l-1.594,1.525a.443.443,0,0,0-.13.4l.376,2.159a.449.449,0,0,1-.374.517.461.461,0,0,1-.288-.045l-1.971-1.019a.463.463,0,0,0-.423,0l-1.971,1.019a.459.459,0,0,1-.615-.189.442.442,0,0,1-.046-.283l.377-2.159a.446.446,0,0,0-.132-.4l-1.594-1.525a.443.443,0,0,1-.007-.634.454.454,0,0,1,.26-.13l2.2-.315a.455.455,0,0,0,.343-.245l.986-1.964a.458.458,0,0,1,.611-.2A.451.451,0,0,1,2025.562,1267.362Z" transform="translate(-68.932 -28.99)"/><path class="k" d="M1875.367,1268.24l.985,1.965a.458.458,0,0,0,.344.245l2.2.315a.446.446,0,0,1,.253.764l-1.6,1.525a.445.445,0,0,0-.13.4l.377,2.159a.45.45,0,0,1-.374.517.462.462,0,0,1-.288-.045l-1.971-1.019a.463.463,0,0,0-.424,0l-1.97,1.019a.459.459,0,0,1-.615-.189.447.447,0,0,1-.046-.283l.376-2.159a.446.446,0,0,0-.131-.4l-1.594-1.525a.443.443,0,0,1-.007-.634.454.454,0,0,1,.26-.13l2.2-.315a.455.455,0,0,0,.343-.245l.986-1.965a.46.46,0,0,1,.612-.2A.453.453,0,0,1,1875.367,1268.24Z" transform="translate(-11.991 -29.323)"/></g></g></svg>