<svg xmlns="http://www.w3.org/2000/svg" width="302.257" height="208.777" viewBox="0 0 302.257 208.777"><defs><style>.a{fill:#fff;}.b{fill:#ea0d90;}.c{fill:#08c4c4;}.d{fill:#0ac4c4;}.e{fill:#78d8d8;}.f{isolation:isolate;}.g{fill:#0855c4;}</style></defs><g transform="translate(-884.015 -822.263)"><path class="a" d="M1175.719,983.992l10.525-108.717a27.78,27.78,0,0,0-26.533-28.973h0L941.833,850.05a27.78,27.78,0,0,0-28.972,26.533h0s5.18,62.023,12.091,102.547c4.538,26.606,22.133,31.953,65.7,31.953,64.913-2.013,105.017-2.023,106.014-.651a50.241,50.241,0,0,0,39.494,20.607s-9.766-13.212,1.58-20.321c.036-.171,1.519-.106,1.558-.272l7.449.08A27.78,27.78,0,0,0,1175.719,983.992Z"/><path class="b" d="M1024.456,873.054l-124.8,2.414c-9.57.114-16.53-9.233-15.549-20.876l.728-8.626c.983-11.642,9.536-21.173,19.106-21.29l124.8-2.412c9.569-.115,16.53,9.233,15.547,20.875l-.727,8.626C1042.58,863.405,1034.025,872.938,1024.456,873.054Z"/><path class="a" d="M895.535,857.781l3.5-10.839c.425-.953.758-1.364,1.467-1.375,1.117-.016,1.392.386,1.446,1.7l-.82,11c.062,1.927-1.041,2.755-2.8,2.781C895.751,861.092,894.617,859.924,895.535,857.781Zm3.453-15.945a3.818,3.818,0,0,1,.84-2.617,2.58,2.58,0,0,1,2.121-.672c1.554-.023,2.309.54,2.327,1.724a3.786,3.786,0,0,1-.808,2.615c-.467.446-.9.623-2.155.641-1.524.021-2.31-.508-2.327-1.691Z"/><path class="a" d="M915.294,860.905c-5.781.086-9.553-3.411-9.639-9.294-.1-7.033,5.047-13.365,12.52-13.473,3.482-.051,6.07,1.062,7.473,2.427a3.845,3.845,0,0,1,1.291,2.585c.035,2.5-2.971,2.547-3.112,2.379a5.938,5.938,0,0,0-5.491-3.131c-4.394.064-7.649,3.967-7.582,8.735.022,3.752,2.32,5.984,5.769,5.934a5.57,5.57,0,0,0,3.869-1.374c.867-.826,1.3-1.339,1.809-3.477l-3.956.058c-1.183.016-1.833-.481-1.844-1.259a3.6,3.6,0,0,1,.681-2.039,2.091,2.091,0,0,1,1.649-.5l6.491-.1c1.52-.022,2.107.746,1.759,2.409l-1.824,9.293c-.032.135-.6.415-1.448.427a2.072,2.072,0,0,1-2.334-2.232A7.814,7.814,0,0,1,915.294,860.905Z"/><path class="a" d="M944.014,854.938c1.144,1.843,1.763,2.409,3.285,2.522.17.03.277,2.769-3.07,2.817-1.96.029-3.054-.733-4.724-3.752l-2.358-4.124-2.029.031-1.1,5.662c-.317,1.528-1.014,2.281-2.469,2.3l-.675.01c-1.354.019-2.145-.815-1.828-2.376l3.367-17.092a2.884,2.884,0,0,1,3.074-2.615l5.443-.08c5.443-.08,8.247,2.01,8.3,5.966.061,4.159-2.534,7.037-7.161,7.544Zm-4.184-6.228c2.942-.042,4.376-1.586,4.339-3.919-.024-1.759-1.323-2.685-3.725-2.65l-3.379.049-1.291,6.58Z"/><path class="a" d="M948.827,858.012a4.912,4.912,0,0,1,1.043-2.753l9.335-16.065c.559-.956,1.229-1.439,3.19-1.468,2.232-.032,2.882.6,3.064,1.512l3.968,19.082c.074.4-1.329,1.609-2.817,1.631-1.282.019-2.071-.713-2.333-2.3l-.692-3.439-7.98.118-3.2,5.862C952.34,860.295,948.861,860.448,948.827,858.012Zm14.432-7.517-1.537-7.891-4.448,7.98Z"/><path class="a" d="M977.827,857.317l3.021-15.3-4.766.07c-1.387.02-2.14-.543-2.152-1.456a4.153,4.153,0,0,1,.778-2.345c.364-.378.836-.553,1.952-.569L991.4,837.5c1.35-.02,2.1.545,2.117,1.457a3.917,3.917,0,0,1-.779,2.345c-.364.378-.8.553-1.918.569l-4.971.073L982.8,857.377c-.315,1.526-1.013,2.281-2.467,2.3l-.677.01C978.268,859.712,977.511,858.878,977.827,857.317Z"/><path class="a" d="M992.735,857.1l3.46-17.534c.351-1.561,1.018-2.281,2.437-2.3l.745-.012c1.351-.02,2.143.815,1.827,2.374l-3.462,17.535c-.315,1.594-1.015,2.281-2.436,2.3l-.745.012C993.209,859.492,992.418,858.658,992.735,857.1Z"/><path class="a" d="M1002.41,857.227a3.778,3.778,0,0,1-1.291-2.618,2.75,2.75,0,0,1,1.992-2.5,8.023,8.023,0,0,0,6.85,3.551c2.434-.035,3.568-1.068,3.543-2.756-.022-1.522-1.72-2.072-3.932-2.886-2.652-1.009-5.578-2.386-5.635-6.173-.053-3.686,2.7-7.007,8.452-7.091,3.414-.051,5.76.863,7.1,2.162a3.316,3.316,0,0,1,1.151,2.383,2.806,2.806,0,0,1-2.159,2.636,7.044,7.044,0,0,0-6.133-3.291c-2.165.032-3.5,1.168-3.481,2.621.025,1.624,1.791,2.172,4.207,3.116,2.855,1.041,5.783,2.385,5.835,5.935.06,4.091-2.8,7.142-8.922,7.232C1006.431,859.6,1003.848,858.626,1002.41,857.227Z"/><path class="a" d="M1021,857.461a3.807,3.807,0,0,1,.841-2.615,2.579,2.579,0,0,1,2.122-.674c1.555-.022,2.306.54,2.325,1.724a3.649,3.649,0,0,1-.841,2.617c-.434.446-.872.622-2.122.64C1021.808,859.175,1021.022,858.645,1021,857.461Zm2.365-7.034.785-10.968c-.027-1.929,1.076-2.756,2.833-2.781,2.572-.038,3.7,1.13,2.789,3.273l-3.526,10.806c-.392.986-.725,1.4-1.468,1.407-1.078.017-1.39-.385-1.41-1.737Z"/><ellipse class="a" cx="30.061" cy="29.727" rx="30.061" ry="29.727" transform="translate(919.605 880.747)"/><path class="c" d="M951.124,891.986a1.62,1.62,0,1,0-2.765-.364v.011a1.59,1.59,0,0,0,.206.346,6.172,6.172,0,0,1,.575,5.166h1.408A6.171,6.171,0,0,1,951.124,891.986Z"/><path class="c" d="M943.832,894.236a1.249,1.249,0,0,0-1.683-1.489h0a1.25,1.25,0,0,0-.672,1.633,1.234,1.234,0,0,0,.281.415l.007.006a1.233,1.233,0,0,0,.25.186,4.759,4.759,0,0,1,1.941,3.5l1-.417A4.758,4.758,0,0,1,943.832,894.236Z"/><path class="c" d="M934.323,903.16a1.238,1.238,0,0,0-.613-.542,1.25,1.25,0,1,0-.951,2.311h0a1.239,1.239,0,0,0,.492.095h.009a1.225,1.225,0,0,0,.307-.045,4.759,4.759,0,0,1,3.851,1.1l.413-1A4.756,4.756,0,0,1,934.323,903.16Z"/><path class="c" d="M933.91,916.191a1.25,1.25,0,1,0,.558,2.075l.006-.006a1.229,1.229,0,0,0,.186-.25,4.76,4.76,0,0,1,3.5-1.941l-.417-1A4.752,4.752,0,0,1,933.91,916.191Z"/><path class="c" d="M942.832,925.7a1.251,1.251,0,1,0,1.771,1.568,1.239,1.239,0,0,0,.095-.492v-.009a1.225,1.225,0,0,0-.045-.307,4.758,4.758,0,0,1,1.1-3.85l-1-.414a4.76,4.76,0,0,1-1.923,3.5Z"/><path class="c" d="M955.869,926.116a1.249,1.249,0,1,0,2.076-.559l-.006-.006a1.269,1.269,0,0,0-.25-.186,4.756,4.756,0,0,1-1.941-3.5l-1,.417A4.759,4.759,0,0,1,955.869,926.116Z"/><path class="c" d="M965.377,917.192a1.237,1.237,0,0,0,.613.542,1.25,1.25,0,1,0,.457-2.407h-.009a1.222,1.222,0,0,0-.307.045,4.758,4.758,0,0,1-3.85-1.1l-.413,1A4.76,4.76,0,0,1,965.377,917.192Z"/><path class="c" d="M965.788,904.159a1.249,1.249,0,1,0-.56-2.076l-.006.007a1.23,1.23,0,0,0-.186.25,4.76,4.76,0,0,1-3.5,1.941l.417,1A4.757,4.757,0,0,1,965.788,904.159Z"/><path class="c" d="M956.866,894.649a1.237,1.237,0,0,0,.542-.613,1.25,1.25,0,0,0-.68-1.632h0A1.251,1.251,0,0,0,955,893.575v.009a1.225,1.225,0,0,0,.045.307,4.756,4.756,0,0,1-1.106,3.851l1,.413a4.758,4.758,0,0,1,1.92-3.507Z"/><path class="c" d="M937.887,896.414a1.624,1.624,0,1,0-2.213,1.691h.012a1.605,1.605,0,0,0,.391.1,6.174,6.174,0,0,1,4.059,3.245l1-1A6.167,6.167,0,0,1,937.887,896.414Z"/><path class="c" d="M931.659,908.9a1.619,1.619,0,0,0-2.621,1.274h0a1.621,1.621,0,0,0,1.621,1.621h0a1.615,1.615,0,0,0,.636-.13h.01a1.621,1.621,0,0,0,.347-.206,6.172,6.172,0,0,1,5.166-.576v-1.417a6.17,6.17,0,0,1-5.157-.57Z"/><path class="c" d="M936.087,922.139a1.624,1.624,0,1,0,1.691,2.213v-.011a1.6,1.6,0,0,0,.1-.392,6.173,6.173,0,0,1,3.246-4.059l-1-1a6.171,6.171,0,0,1-4.041,3.244Z"/><path class="c" d="M948.576,928.363a1.62,1.62,0,1,0,2.765.364v-.011a1.615,1.615,0,0,0-.206-.346,6.172,6.172,0,0,1-.576-5.166h-1.407A6.17,6.17,0,0,1,948.576,928.363Z"/><path class="c" d="M961.812,923.94a1.624,1.624,0,1,0,2.213-1.691h-.011a1.652,1.652,0,0,0-.391-.1,6.173,6.173,0,0,1-4.059-3.246l-1,1a6.173,6.173,0,0,1,3.244,4.042Z"/><path class="c" d="M968.041,911.45a1.62,1.62,0,0,0,2.622-1.273h0a1.621,1.621,0,0,0-1.621-1.621h0a1.615,1.615,0,0,0-.636.13h-.011a1.615,1.615,0,0,0-.346.206,6.171,6.171,0,0,1-5.166.575v1.407A6.174,6.174,0,0,1,968.041,911.45Z"/><path class="c" d="M963.614,898.214A1.624,1.624,0,1,0,961.923,896v.012a1.656,1.656,0,0,0-.1.391,6.172,6.172,0,0,1-3.243,4.058l1,1A6.17,6.17,0,0,1,963.614,898.214Z"/><path class="d" d="M949.851,896.916a13.261,13.261,0,1,1-13.261,13.261,13.261,13.261,0,0,1,13.261-13.261Z"/><path class="e" d="M949.85,898.7a11.477,11.477,0,1,1-11.477,11.477A11.477,11.477,0,0,1,949.85,898.7Z"/><circle class="a" cx="1.427" cy="1.427" r="1.427" transform="translate(945.701 899.672)"/><circle class="a" cx="1.427" cy="1.427" r="1.427" transform="translate(939.735 905.313)"/><circle class="a" cx="1.427" cy="1.427" r="1.427" transform="translate(939.93 912.835)"/><circle class="a" cx="1.427" cy="1.427" r="1.427" transform="translate(947.516 917.244)"/><circle class="a" cx="1.427" cy="1.427" r="1.427" transform="translate(954.324 915.817)"/><circle class="a" cx="1.427" cy="1.427" r="1.427" transform="translate(956.529 904.665)"/><circle class="a" cx="0.778" cy="0.778" r="0.778" transform="translate(954.259 901.293)"/><circle class="a" cx="0.778" cy="0.778" r="0.778" transform="translate(950.369 901.747)"/><circle class="a" cx="0.778" cy="0.778" r="0.778" transform="translate(943.949 903.886)"/><circle class="a" cx="0.778" cy="0.778" r="0.778" transform="translate(942.393 908.361)"/><circle class="a" cx="0.778" cy="0.778" r="0.778" transform="translate(944.209 915.04)"/><circle class="a" cx="0.778" cy="0.778" r="0.778" transform="translate(950.693 914.91)"/><circle class="a" cx="0.778" cy="0.778" r="0.778" transform="translate(958.345 911.019)"/><circle class="a" cx="0.778" cy="0.778" r="0.778" transform="translate(954.324 909.398)"/><circle class="a" cx="0.778" cy="0.778" r="0.778" transform="translate(946.738 909.398)"/><circle class="a" cx="0.778" cy="0.778" r="0.778" transform="translate(949.073 906.739)"/><circle class="a" cx="0.778" cy="0.778" r="0.778" transform="translate(949.85 910.824)"/><g class="f"><g class="f"><path class="g" d="M985.912,896.7a5.632,5.632,0,0,1,5.444-5.835,3.979,3.979,0,0,1,2.986,1.066,1.9,1.9,0,0,1,.63,1.215.913.913,0,0,1-1.02.854,2.536,2.536,0,0,0-2.61-1.769,4.047,4.047,0,0,0-3.81,4.274,2.82,2.82,0,0,0,2.925,3.045,3.187,3.187,0,0,0,2.79-1.425.818.818,0,0,1,.779.765,1.346,1.346,0,0,1-.479.9,4.606,4.606,0,0,1-3.151,1.14C987.682,900.926,985.912,899.307,985.912,896.7Z"/><path class="g" d="M995.317,897.6a4.109,4.109,0,0,1,4.079-4.245,3.225,3.225,0,0,1,3.375,3.33,4.109,4.109,0,0,1-4.079,4.244A3.226,3.226,0,0,1,995.317,897.6Zm6.09-.856a2.09,2.09,0,0,0-2.07-2.205,2.853,2.853,0,0,0-2.655,3,2.089,2.089,0,0,0,2.07,2.205A2.853,2.853,0,0,0,1001.407,896.741Z"/><path class="g" d="M1013.361,899.711a7.989,7.989,0,0,1,.375-1.859,8.377,8.377,0,0,0,.345-1.741,1.312,1.312,0,0,0-1.319-1.469,2.3,2.3,0,0,0-2.04,1.29l-.87,4.17c-.121.539-.375.7-.766.7h-.149c-.39,0-.691-.15-.571-.7l.72-3.451c.256-1.184-.27-2.009-1.23-2.009a2.272,2.272,0,0,0-2.025,1.3l-.885,4.156c-.1.554-.375.7-.75.7h-.165c-.389,0-.675-.165-.569-.7l1.394-6.555a.642.642,0,0,1,.375-.075c.481,0,.93.239.826,1.125a2.849,2.849,0,0,1,2.339-1.245,2.144,2.144,0,0,1,2.175,1.559,3.139,3.139,0,0,1,2.715-1.559,2.263,2.263,0,0,1,2.34,2.384,10.176,10.176,0,0,1-.42,2.175,8.158,8.158,0,0,0-.36,1.62c0,.406.211.555.615.6.03,0-.03.75-.93.75A1.066,1.066,0,0,1,1013.361,899.711Z"/><path class="g" d="M1015.927,902.981l1.995-9.434a.642.642,0,0,1,.375-.075c.51,0,.989.269.809,1.274a2.95,2.95,0,0,1,2.55-1.394,2.894,2.894,0,0,1,2.91,3.149c0,2.235-1.56,4.425-3.87,4.425a2.713,2.713,0,0,1-2.535-1.515l-.765,3.57c-.1.525-.3.7-.674.7h-.165C1016.151,903.686,1015.807,903.521,1015.927,902.981Zm2.955-6.945-.271,1.26a1.936,1.936,0,0,0,1.981,2.415c1.6,0,2.505-1.56,2.505-3.09a1.875,1.875,0,0,0-1.846-2.055A2.816,2.816,0,0,0,1018.882,896.036Z"/><path class="g" d="M1027.852,894.746a2.208,2.208,0,0,1,1.979-1.394c.63,0,1.155.314,1.155.825a.945.945,0,0,1-.645.96,1.178,1.178,0,0,0-.96-.406c-1.065,0-1.77,1.275-2.145,3.076l-.48,2.295c-.1.524-.315.7-.675.7h-.18c-.39,0-.735-.165-.63-.7l1.4-6.555a.642.642,0,0,1,.375-.075C1027.536,893.472,1028.016,893.741,1027.852,894.746Z"/><path class="g" d="M1036.536,899.4a3.129,3.129,0,0,1-2.7,1.53,2.763,2.763,0,0,1-2.819-3.015c0-2.265,1.679-4.559,4.034-4.559a2.635,2.635,0,0,1,2.445,1.394c.21-.93.54-1.274,1.17-1.274a.72.72,0,0,1,.54.179l-1.155,5.445c-.165.75-.03,1.02.585,1.08.03,0,0,.7-.885.7C1036.821,900.881,1036.446,900.312,1036.536,899.4Zm.42-2.115.24-1.125a2.038,2.038,0,0,0-2.055-1.6c-1.65,0-2.655,1.664-2.655,3.224a1.757,1.757,0,0,0,1.755,1.92A2.911,2.911,0,0,0,1036.956,897.281Z"/><path class="g" d="M1043.092,898.256l.734-3.51h-.495c-.375,0-.585-.135-.585-.39a1.09,1.09,0,0,1,.24-.674.665.665,0,0,1,.526-.151h.569l.12-.585c.18-.884.51-1.229,1.14-1.229.315,0,.57.135.555.179l-.345,1.635h1.546c.389,0,.6.135.6.375a1.243,1.243,0,0,1-.24.691.667.667,0,0,1-.524.149h-1.651l-.75,3.481c-.224,1.094.12,1.529.825,1.529a1.361,1.361,0,0,0,.945-.42c.046-.029.285.2.285.54a.846.846,0,0,1-.285.63,1.889,1.889,0,0,1-1.335.435C1043.481,900.941,1042.717,900.011,1043.092,898.256Z"/><path class="g" d="M1052.9,899.546a2.825,2.825,0,0,1-2.43,1.38c-1.875,0-2.715-1.35-2.295-3.315l.72-3.434c.12-.54.315-.705.69-.705h.165c.39,0,.75.149.63.705l-.72,3.42c-.27,1.2.21,2.039,1.335,2.039a2.408,2.408,0,0,0,2.145-1.44l.855-4.019c.1-.54.3-.705.675-.705h.165c.4,0,.75.149.63.705l-1.035,4.919c-.165.75-.031,1.02.585,1.08.03,0,0,.7-.885.7A1.111,1.111,0,0,1,1052.9,899.546Z"/><path class="g" d="M1058.991,899.846a1.676,1.676,0,0,1-.554-1.125.844.844,0,0,1,.75-.795,3.218,3.218,0,0,0,3.029,1.74c1.349,0,2-.57,2-1.53,0-.869-.87-1.215-1.95-1.65-1.215-.495-2.505-1.094-2.505-2.759,0-1.576,1.26-2.866,3.495-2.866a4.13,4.13,0,0,1,2.97.976,1.47,1.47,0,0,1,.48,1.019c0,.661-.735.885-.78.81a2.847,2.847,0,0,0-2.715-1.545c-1.14,0-1.905.615-1.905,1.441,0,.944.855,1.274,2.04,1.769,1.23.495,2.505,1.065,2.505,2.655,0,1.725-1.245,2.94-3.66,2.94A4.566,4.566,0,0,1,1058.991,899.846Z"/><path class="g" d="M1066.926,897.926a4.474,4.474,0,0,1,4.545-4.574c1.724,0,2.715.809,2.715,1.995,0,1.454-.96,2.34-4.185,2.34-.525,0-1.08-.031-1.725-.076v.27a1.787,1.787,0,0,0,1.98,1.905,2.685,2.685,0,0,0,2.309-1.125c.031-.045.676.106.676.615a.945.945,0,0,1-.36.75,3.593,3.593,0,0,1-2.655.9C1068.036,900.926,1066.926,899.651,1066.926,897.926Zm1.59-1.35a11.183,11.183,0,0,0,1.35.075c2.34,0,2.97-.6,2.97-1.259,0-.481-.465-.931-1.425-.931A3.2,3.2,0,0,0,1068.516,896.576Z"/><path class="g" d="M1074.771,902.816a1.468,1.468,0,0,1-.51-1c0-.75.81-.976.841-.9a2.561,2.561,0,0,0,4.889-.555l.21-1.02a3,3,0,0,1-2.52,1.29,2.9,2.9,0,0,1-2.925-3.12,4.136,4.136,0,0,1,3.974-4.154,2.705,2.705,0,0,1,2.46,1.379c.21-.915.54-1.259,1.17-1.259a.718.718,0,0,1,.54.179l-1.439,6.78a4.155,4.155,0,0,1-6.69,2.385Zm5.865-5.49.255-1.2a2.016,2.016,0,0,0-2.055-1.56,2.773,2.773,0,0,0-2.625,2.85,1.871,1.871,0,0,0,1.86,2.01A2.64,2.64,0,0,0,1080.636,897.326Z"/><path class="g" d="M1088.511,899.546a2.824,2.824,0,0,1-2.43,1.38c-1.875,0-2.715-1.35-2.3-3.315l.72-3.434c.12-.54.315-.705.69-.705h.165c.39,0,.75.149.63.705l-.72,3.42c-.27,1.2.209,2.039,1.334,2.039a2.408,2.408,0,0,0,2.146-1.44l.854-4.019c.106-.54.3-.705.675-.705h.165c.406,0,.75.149.631.705l-1.035,4.919c-.165.75-.03,1.02.585,1.08.029,0,0,.7-.885.7A1.111,1.111,0,0,1,1088.511,899.546Z"/><path class="g" d="M1094.271,894.746a2.21,2.21,0,0,1,1.979-1.394c.631,0,1.155.314,1.155.825a.946.946,0,0,1-.644.96,1.181,1.181,0,0,0-.96-.406c-1.066,0-1.771,1.275-2.146,3.076l-.479,2.295c-.106.524-.316.7-.675.7h-.181c-.389,0-.734-.165-.63-.7l1.4-6.555a.642.642,0,0,1,.375-.075C1093.955,893.472,1094.436,893.741,1094.271,894.746Z"/><path class="g" d="M1097.436,897.6a4.109,4.109,0,0,1,4.08-4.245,3.226,3.226,0,0,1,3.375,3.33,4.11,4.11,0,0,1-4.08,4.244A3.226,3.226,0,0,1,1097.436,897.6Zm6.089-.856a2.089,2.089,0,0,0-2.07-2.205,2.852,2.852,0,0,0-2.654,3,2.088,2.088,0,0,0,2.069,2.205A2.852,2.852,0,0,0,1103.525,896.741Z"/><path class="g" d="M1110.98,900.176l-1.665-8.7c-.03-.135.436-.5.915-.5.39,0,.691.255.765.781l1.2,7.184,4.47-7.979c0-.03,1.125-.061,1.125.8a1.881,1.881,0,0,1-.375.929l-4.529,7.605a1,1,0,0,1-.976.54C1111.3,900.836,1111.07,900.6,1110.98,900.176Z"/><path class="g" d="M1117.04,897.926a4.474,4.474,0,0,1,4.545-4.574c1.725,0,2.715.809,2.715,1.995,0,1.454-.96,2.34-4.185,2.34-.525,0-1.08-.031-1.724-.076v.27a1.786,1.786,0,0,0,1.979,1.905,2.687,2.687,0,0,0,2.31-1.125c.03-.045.675.106.675.615a.943.943,0,0,1-.36.75,3.589,3.589,0,0,1-2.655.9C1118.15,900.926,1117.04,899.651,1117.04,897.926Zm1.59-1.35a11.193,11.193,0,0,0,1.35.075c2.34,0,2.97-.6,2.97-1.259,0-.481-.465-.931-1.425-.931A3.2,3.2,0,0,0,1118.63,896.576Z"/><path class="g" d="M1129.835,899.711a8.881,8.881,0,0,1,.375-1.859,7.738,7.738,0,0,0,.36-1.741,1.325,1.325,0,0,0-1.44-1.469,2.377,2.377,0,0,0-2.13,1.439l-.854,4.021c-.106.524-.316.7-.675.7h-.181c-.39,0-.734-.165-.63-.7l1.9-8.956c.105-.525.315-.705.675-.705h.18c.391,0,.735.165.63.705l-.765,3.585a2.809,2.809,0,0,1,2.4-1.379,2.263,2.263,0,0,1,2.429,2.384,9.473,9.473,0,0,1-.435,2.175,8.156,8.156,0,0,0-.36,1.62c0,.406.21.555.616.6.044,0-.031.75-.915.75A1.071,1.071,0,0,1,1129.835,899.711Z"/><path class="g" d="M1133.315,899.081l1.05-4.9c.106-.526.3-.705.675-.705h.165c.405,0,.75.149.63.705L1134.8,899.1c-.164.75-.029,1.035.645,1.08.031,0,0,.7-.929.7C1133.42,900.881,1133.075,900.191,1133.315,899.081Zm1.531-7.784a.9.9,0,0,1,.929-.96c.57,0,.885.255.885.675a.909.909,0,0,1-.93.974C1135.16,891.986,1134.846,891.717,1134.846,891.3Z"/><path class="g" d="M1136.645,897.6a4.223,4.223,0,0,1,4.11-4.245,3.419,3.419,0,0,1,2.535.915,1.8,1.8,0,0,1,.585,1.2.79.79,0,0,1-.99.764,1.956,1.956,0,0,0-2.085-1.634,2.819,2.819,0,0,0-2.715,2.894,2.063,2.063,0,0,0,2.189,2.19,2.35,2.35,0,0,0,2.085-1.215c.031-.045.75.091.75.645a1.381,1.381,0,0,1-.479.885,3.614,3.614,0,0,1-2.49.93A3.232,3.232,0,0,1,1136.645,897.6Z"/><path class="g" d="M1149.439,899.546a2.823,2.823,0,0,1-2.429,1.38c-1.875,0-2.715-1.35-2.3-3.315l.72-3.434c.12-.54.315-.705.69-.705h.165c.39,0,.75.149.63.705l-.721,3.42c-.269,1.2.21,2.039,1.335,2.039a2.41,2.41,0,0,0,2.146-1.44l.854-4.019c.106-.54.3-.705.675-.705h.165c.405,0,.75.149.631.705l-1.035,4.919c-.165.75-.031,1.02.585,1.08.029,0,0,.7-.885.7A1.112,1.112,0,0,1,1149.439,899.546Z"/><path class="g" d="M1152.92,899.081l1.695-7.935c.1-.525.3-.705.675-.705h.165c.4,0,.75.165.63.705l-1.681,7.95c-.164.75-.029,1.035.646,1.08.03,0,0,.7-.93.7C1153.024,900.881,1152.68,900.191,1152.92,899.081Z"/><path class="g" d="M1161.8,899.4a3.127,3.127,0,0,1-2.7,1.53,2.764,2.764,0,0,1-2.821-3.015c0-2.265,1.68-4.559,4.035-4.559a2.635,2.635,0,0,1,2.445,1.394c.21-.93.54-1.274,1.17-1.274a.72.72,0,0,1,.54.179l-1.155,5.445c-.165.75-.03,1.02.585,1.08.03,0,0,.7-.884.7C1162.084,900.881,1161.709,900.312,1161.8,899.4Zm.42-2.115.24-1.125a2.038,2.038,0,0,0-2.055-1.6c-1.65,0-2.655,1.664-2.655,3.224a1.757,1.757,0,0,0,1.755,1.92A2.913,2.913,0,0,0,1162.219,897.281Z"/><path class="g" d="M1167.515,894.746a2.21,2.21,0,0,1,1.979-1.394c.631,0,1.155.314,1.155.825a.946.946,0,0,1-.644.96,1.18,1.18,0,0,0-.96-.406c-1.066,0-1.771,1.275-2.146,3.076l-.479,2.295c-.106.524-.316.7-.675.7h-.181c-.389,0-.734-.165-.629-.7l1.395-6.555a.642.642,0,0,1,.375-.075C1167.2,893.472,1167.68,893.741,1167.515,894.746Z"/></g><g class="f"><path class="g" d="M986.062,921.4a.706.706,0,0,1-.24-.555.749.749,0,0,1,.42-.645,1.287,1.287,0,0,0,.825.36c.57,0,1.095-.375,2.16-1.92l.21-.315c-.33-.06-.495-.3-.555-.705l-.42-3.795c-.12-1.05-.465-1.455-1.109-1.47-.031,0-.046-.915,1.019-.915.825,0,1.335.72,1.485,2.4l.3,3.42,3.494-5.8c.016-.015.991-.015.991.721a1.625,1.625,0,0,1-.345.869l-3.78,6.016c-1.29,2.054-2.055,2.729-3.21,2.729A1.678,1.678,0,0,1,986.062,921.4Z"/><path class="g" d="M997.387,915.6a4.109,4.109,0,0,1,4.08-4.245,3.226,3.226,0,0,1,3.375,3.33,4.11,4.11,0,0,1-4.08,4.244A3.226,3.226,0,0,1,997.387,915.6Zm6.09-.856a2.09,2.09,0,0,0-2.071-2.205,2.853,2.853,0,0,0-2.654,3,2.088,2.088,0,0,0,2.069,2.205A2.853,2.853,0,0,0,1003.477,914.741Z"/><path class="g" d="M1007.152,917.426v.045c-.211.975-.555,1.335-1.185,1.335-.3,0-.555-.135-.54-.18l2.01-9.48c.1-.525.3-.705.675-.705h.18c.375,0,.734.165.63.705l-.75,3.525a2.948,2.948,0,0,1,5.4,1.83c0,2.235-1.559,4.425-3.869,4.425A2.742,2.742,0,0,1,1007.152,917.426Zm.72-3.39-.255,1.26a1.936,1.936,0,0,0,1.98,2.415c1.605,0,2.505-1.56,2.505-3.09a1.875,1.875,0,0,0-1.845-2.055A2.9,2.9,0,0,0,1007.872,914.036Z"/><path class="g" d="M1015.027,916.256l.735-3.51h-.495c-.375,0-.585-.135-.585-.39a1.089,1.089,0,0,1,.24-.674.661.661,0,0,1,.525-.151h.57l.12-.585c.179-.884.509-1.229,1.139-1.229.316,0,.571.135.556.179l-.346,1.635h1.546c.39,0,.6.135.6.375a1.243,1.243,0,0,1-.24.691.671.671,0,0,1-.525.149h-1.65l-.75,3.481c-.225,1.094.12,1.529.825,1.529a1.358,1.358,0,0,0,.944-.42c.046-.029.285.2.285.54a.842.842,0,0,1-.285.63,1.887,1.887,0,0,1-1.335.435C1015.417,918.941,1014.652,918.011,1015.027,916.256Z"/><path class="g" d="M1019.752,915.926a4.474,4.474,0,0,1,4.545-4.574c1.724,0,2.715.809,2.715,1.995,0,1.454-.96,2.34-4.186,2.34-.524,0-1.079-.031-1.724-.076v.27a1.787,1.787,0,0,0,1.98,1.905,2.687,2.687,0,0,0,2.31-1.125c.03-.045.674.106.674.615a.94.94,0,0,1-.36.75,3.589,3.589,0,0,1-2.654.9C1020.861,918.926,1019.752,917.651,1019.752,915.926Zm1.59-1.35a11.179,11.179,0,0,0,1.349.075c2.34,0,2.97-.6,2.97-1.259,0-.481-.465-.931-1.425-.931A3.2,3.2,0,0,0,1021.342,914.576Zm4.109-6.18a1.361,1.361,0,0,1,.736-.224.618.618,0,0,1,.644.63c0,.314-.255.614-.689.87a5.075,5.075,0,0,1-2.731.75A5.976,5.976,0,0,1,1025.451,908.4Z"/><path class="g" d="M1029.967,912.7a2.854,2.854,0,0,1,2.415-1.349,2.266,2.266,0,0,1,2.444,2.384,9.464,9.464,0,0,1-.434,2.175,8.186,8.186,0,0,0-.361,1.62c0,.406.21.555.615.6.045,0-.03.75-.915.75a1.07,1.07,0,0,1-1.184-1.17,8.881,8.881,0,0,1,.375-1.859,7.731,7.731,0,0,0,.359-1.741,1.325,1.325,0,0,0-1.439-1.469,2.377,2.377,0,0,0-2.13,1.439l-.856,4.021c-.1.524-.314.7-.674.7H1028c-.391,0-.735-.165-.63-.7l1.4-6.555a.64.64,0,0,1,.375-.075C1029.637,911.472,1030.116,911.727,1029.967,912.7Z"/><path class="g" d="M1039.146,916.256l.736-3.51h-.495c-.375,0-.585-.135-.585-.39a1.089,1.089,0,0,1,.24-.674.657.657,0,0,1,.524-.151h.571l.12-.585c.18-.884.51-1.229,1.139-1.229.316,0,.571.135.555.179l-.345,1.635h1.545c.39,0,.6.135.6.375a1.248,1.248,0,0,1-.239.691.673.673,0,0,1-.526.149h-1.649l-.75,3.481c-.226,1.094.119,1.529.824,1.529a1.36,1.36,0,0,0,.945-.42c.045-.029.286.2.286.54a.843.843,0,0,1-.286.63,1.885,1.885,0,0,1-1.335.435C1039.536,918.941,1038.771,918.011,1039.146,916.256Z"/><path class="g" d="M1048.956,917.546a2.825,2.825,0,0,1-2.43,1.38c-1.875,0-2.714-1.35-2.3-3.315l.72-3.434c.12-.54.316-.705.691-.705h.165c.389,0,.75.149.63.705l-.721,3.42c-.27,1.2.21,2.039,1.335,2.039a2.408,2.408,0,0,0,2.145-1.44l.855-4.019c.1-.54.3-.705.675-.705h.165c.405,0,.75.149.63.705l-1.035,4.919c-.165.75-.03,1.02.585,1.08.03,0,0,.7-.884.7A1.112,1.112,0,0,1,1048.956,917.546Z"/><path class="g" d="M1054.086,920.981l1.995-9.434a.642.642,0,0,1,.375-.075c.51,0,.99.269.811,1.274a2.946,2.946,0,0,1,2.549-1.394,2.894,2.894,0,0,1,2.91,3.149c0,2.235-1.56,4.425-3.87,4.425a2.712,2.712,0,0,1-2.535-1.515l-.764,3.57c-.106.525-.3.7-.676.7h-.165C1054.312,921.686,1053.966,921.521,1054.086,920.981Zm2.955-6.945-.27,1.26a1.936,1.936,0,0,0,1.98,2.415c1.6,0,2.505-1.56,2.505-3.09a1.875,1.875,0,0,0-1.845-2.055A2.819,2.819,0,0,0,1057.041,914.036Z"/><path class="g" d="M1066.012,912.746a2.208,2.208,0,0,1,1.979-1.394c.63,0,1.155.314,1.155.825a.945.945,0,0,1-.645.96,1.177,1.177,0,0,0-.96-.406c-1.064,0-1.77,1.275-2.145,3.076l-.48,2.295c-.1.524-.314.7-.675.7h-.179c-.391,0-.736-.165-.63-.7l1.394-6.555a.642.642,0,0,1,.375-.075C1065.7,911.472,1066.176,911.741,1066.012,912.746Z"/><path class="g" d="M1074.2,917.546a2.825,2.825,0,0,1-2.43,1.38c-1.875,0-2.714-1.35-2.294-3.315l.719-3.434c.12-.54.316-.705.691-.705h.165c.389,0,.75.149.63.705l-.721,3.42c-.27,1.2.21,2.039,1.335,2.039a2.408,2.408,0,0,0,2.145-1.44l.855-4.019c.1-.54.3-.705.675-.705h.165c.405,0,.75.149.631.705l-1.036,4.919c-.165.75-.03,1.02.585,1.08.03,0,0,.7-.884.7A1.112,1.112,0,0,1,1074.2,917.546Z"/><path class="g" d="M1077.486,915.926a4.474,4.474,0,0,1,4.545-4.574c1.725,0,2.715.809,2.715,1.995,0,1.454-.96,2.34-4.185,2.34-.525,0-1.08-.031-1.725-.076v.27a1.787,1.787,0,0,0,1.98,1.905,2.687,2.687,0,0,0,2.31-1.125c.03-.045.675.106.675.615a.941.941,0,0,1-.361.75,3.587,3.587,0,0,1-2.654.9C1078.6,918.926,1077.486,917.651,1077.486,915.926Zm1.59-1.35a11.183,11.183,0,0,0,1.35.075c2.34,0,2.97-.6,2.97-1.259,0-.481-.465-.931-1.425-.931A3.2,3.2,0,0,0,1079.076,914.576Z"/><path class="g" d="M1086.727,917.426v.045c-.211.975-.556,1.335-1.186,1.335-.3,0-.555-.135-.54-.18l2.01-9.48c.1-.525.3-.705.676-.705h.179c.375,0,.735.165.63.705l-.75,3.525a2.949,2.949,0,0,1,5.4,1.83c0,2.235-1.56,4.425-3.87,4.425A2.739,2.739,0,0,1,1086.727,917.426Zm.719-3.39-.255,1.26a1.936,1.936,0,0,0,1.98,2.415c1.6,0,2.505-1.56,2.505-3.09a1.875,1.875,0,0,0-1.845-2.055A2.9,2.9,0,0,0,1087.446,914.036Z"/><path class="g" d="M1099.536,917.4a3.129,3.129,0,0,1-2.7,1.53,2.763,2.763,0,0,1-2.819-3.015c0-2.265,1.679-4.559,4.034-4.559a2.635,2.635,0,0,1,2.445,1.394c.21-.93.54-1.274,1.17-1.274a.72.72,0,0,1,.54.179l-1.155,5.445c-.165.75-.03,1.02.585,1.08.03,0,0,.7-.885.7C1099.821,918.881,1099.446,918.312,1099.536,917.4Zm.42-2.115.24-1.125a2.038,2.038,0,0,0-2.055-1.6c-1.65,0-2.655,1.664-2.655,3.224a1.757,1.757,0,0,0,1.755,1.92A2.911,2.911,0,0,0,1099.956,915.281Z"/><path class="g" d="M1107.8,912.746a2.21,2.21,0,0,1,1.979-1.394c.631,0,1.156.314,1.156.825a.946.946,0,0,1-.645.96,1.178,1.178,0,0,0-.96-.406c-1.065,0-1.77,1.275-2.145,3.076l-.48,2.295c-.105.524-.315.7-.675.7h-.18c-.39,0-.735-.165-.63-.7l1.4-6.555a.642.642,0,0,1,.375-.075C1107.485,911.472,1107.966,911.741,1107.8,912.746Z"/><path class="g" d="M1116.485,917.4a3.126,3.126,0,0,1-2.7,1.53,2.764,2.764,0,0,1-2.82-3.015c0-2.265,1.68-4.559,4.035-4.559a2.635,2.635,0,0,1,2.444,1.394c.21-.93.54-1.274,1.17-1.274a.718.718,0,0,1,.54.179L1118,917.1c-.165.75-.03,1.02.585,1.08.029,0,0,.7-.885.7C1116.771,918.881,1116.4,918.312,1116.485,917.4Zm.42-2.115.241-1.125a2.038,2.038,0,0,0-2.055-1.6c-1.651,0-2.655,1.664-2.655,3.224a1.756,1.756,0,0,0,1.754,1.92A2.911,2.911,0,0,0,1116.905,915.281Zm-.1-6.885a1.355,1.355,0,0,1,.735-.224.618.618,0,0,1,.645.63c0,.314-.255.614-.691.87a5.066,5.066,0,0,1-2.729.75A5.967,5.967,0,0,1,1116.8,908.4Z"/><path class="g" d="M1119.021,920.981l1.995-9.434a.64.64,0,0,1,.375-.075c.509,0,.99.269.81,1.274a2.947,2.947,0,0,1,2.55-1.394,2.894,2.894,0,0,1,2.909,3.149c0,2.235-1.559,4.425-3.869,4.425a2.712,2.712,0,0,1-2.535-1.515l-.765,3.57c-.1.525-.3.7-.676.7h-.165C1119.246,921.686,1118.9,921.521,1119.021,920.981Zm2.955-6.945-.27,1.26a1.935,1.935,0,0,0,1.98,2.415c1.6,0,2.5-1.56,2.5-3.09a1.874,1.874,0,0,0-1.844-2.055A2.816,2.816,0,0,0,1121.976,914.036Z"/><path class="g" d="M1128.666,917.081l1.05-4.9c.105-.526.3-.705.675-.705h.165c.405,0,.75.149.63.705l-1.036,4.919c-.164.75-.029,1.035.646,1.08.03,0,0,.7-.93.7C1128.771,918.881,1128.426,918.191,1128.666,917.081Zm1.53-7.784a.9.9,0,0,1,.93-.96c.569,0,.885.255.885.675a.909.909,0,0,1-.93.974C1130.511,909.986,1130.2,909.717,1130.2,909.3Z"/><path class="g" d="M1137.53,917.5a2.945,2.945,0,0,1-5.46-1.725c0-2.25,1.561-4.424,3.87-4.424a2.822,2.822,0,0,1,2.55,1.394l.781-3.6c.1-.525.3-.705.674-.705h.165c.406,0,.75.165.63.705l-1.679,7.95c-.181.75-.031,1.02.585,1.08.029,0,0,.7-.885.7A1.133,1.133,0,0,1,1137.53,917.5Zm.406-2.1.254-1.2a2.081,2.081,0,0,0-2.129-1.649c-1.635,0-2.536,1.574-2.536,3.1a1.87,1.87,0,0,0,1.845,2.04A2.72,2.72,0,0,0,1137.936,915.4Z"/><path class="g" d="M1146.365,917.4a3.129,3.129,0,0,1-2.7,1.53,2.763,2.763,0,0,1-2.819-3.015c0-2.265,1.679-4.559,4.034-4.559a2.635,2.635,0,0,1,2.445,1.394c.21-.93.54-1.274,1.17-1.274a.72.72,0,0,1,.54.179l-1.155,5.445c-.165.75-.03,1.02.585,1.08.03,0,0,.7-.885.7C1146.65,918.881,1146.275,918.312,1146.365,917.4Zm.42-2.115.24-1.125a2.037,2.037,0,0,0-2.055-1.6c-1.65,0-2.655,1.664-2.655,3.224a1.757,1.757,0,0,0,1.755,1.92A2.911,2.911,0,0,0,1146.785,915.281Z"/><path class="g" d="M1157.721,917.5a2.945,2.945,0,0,1-5.46-1.725c0-2.25,1.559-4.424,3.869-4.424a2.823,2.823,0,0,1,2.551,1.394l.779-3.6c.1-.525.3-.705.675-.705h.165c.4,0,.75.165.63.705l-1.68,7.95c-.18.75-.03,1.02.585,1.08.03,0,0,.7-.885.7A1.132,1.132,0,0,1,1157.721,917.5Zm.4-2.1.255-1.2a2.081,2.081,0,0,0-2.13-1.649c-1.635,0-2.534,1.574-2.534,3.1a1.869,1.869,0,0,0,1.845,2.04A2.719,2.719,0,0,0,1158.125,915.4Z"/><path class="g" d="M1160.976,915.926a4.474,4.474,0,0,1,4.545-4.574c1.724,0,2.714.809,2.714,1.995,0,1.454-.96,2.34-4.185,2.34-.525,0-1.079-.031-1.725-.076v.27a1.788,1.788,0,0,0,1.981,1.905,2.686,2.686,0,0,0,2.309-1.125c.031-.045.675.106.675.615a.943.943,0,0,1-.36.75,3.591,3.591,0,0,1-2.655.9C1162.085,918.926,1160.976,917.651,1160.976,915.926Zm1.589-1.35a11.185,11.185,0,0,0,1.35.075c2.34,0,2.97-.6,2.97-1.259,0-.481-.465-.931-1.425-.931A3.2,3.2,0,0,0,1162.565,914.576Z"/></g></g><g class="f"><g class="f"><path class="g" d="M982.428,946.734c0-8.279,6.2-15.477,14.677-15.477,4.24,0,6.759,1.359,8.239,2.84a5.159,5.159,0,0,1,1.639,3.279c0,3.079-3.678,3.479-3.879,3.239a5.888,5.888,0,0,0-5.958-4.079c-4.88,0-8.6,4.36-8.6,9.519,0,4.079,2.68,6.8,6.558,6.8a7.441,7.441,0,0,0,6.44-3.32c.119-.16,2.919.56,2.919,2.839a4.006,4.006,0,0,1-1.4,2.72,12.027,12.027,0,0,1-8.318,3.039C987.227,958.132,982.428,953.733,982.428,946.734Z"/><path class="g" d="M1008.388,946.694c0-8.438,6.119-15.437,14.6-15.437,7.8,0,12,5.159,12,11.4,0,8.439-6.119,15.477-14.6,15.477C1012.547,958.132,1008.388,952.934,1008.388,946.694Zm20.676-3.639c0-3.68-2.32-6.639-6.439-6.639-4.359,0-8.318,4.2-8.318,9.878,0,3.72,2.319,6.679,6.438,6.679C1025.064,952.973,1029.064,948.773,1029.064,943.055Z"/><path class="g" d="M1042.587,955.413l-4.2-21.837c-.119-.519,1.759-1.959,3.6-1.959,1.56,0,2.56,1,2.76,2.839l2.4,16.037,10.438-18.956c.04-.12,4.4-.04,4.4,2.919a5.638,5.638,0,0,1-1.32,3.159l-11.2,18.238a3.813,3.813,0,0,1-3.639,2.04C1043.786,957.893,1042.906,957.053,1042.587,955.413Z"/><path class="g" d="M1061.508,954.973l4.4-20.677c.44-1.839,1.239-2.679,2.919-2.679h.88c1.6,0,2.52,1,2.12,2.839l-4.4,20.677c-.4,1.88-1.24,2.68-2.92,2.68h-.84C1062.027,957.813,1061.107,956.813,1061.508,954.973Z"/><path class="g" d="M1072.588,953.893l4.039-19.077a3.41,3.41,0,0,1,3.679-3.04h5c7.878,0,12.557,4.16,12.557,10.759,0,8.118-5.319,15.117-16.157,15.117h-6.159C1073.107,957.652,1072.027,956.412,1072.588,953.893Zm9.918-1.24c6.358,0,9.438-4.359,9.438-9.358,0-4.079-2.639-6.52-7.2-6.52h-2.68l-3.359,15.878Z"/><path class="g" d="M1106.587,948.654a4.665,4.665,0,0,1,.96-2.679,2.54,2.54,0,0,1,2.119-.681h9.078c1.561,0,2.32.6,2.32,1.76a4.884,4.884,0,0,1-.96,2.719,2.679,2.679,0,0,1-2.12.68h-9.078C1107.347,950.453,1106.587,949.854,1106.587,948.654Z"/><path class="g" d="M1134.306,954.973l3.4-16.037a3.746,3.746,0,0,1-2.239.8,3.5,3.5,0,0,1-2.44-.8,2.727,2.727,0,0,1-.719-2,3.562,3.562,0,0,1,2-3.4,3.935,3.935,0,0,0,2.719.96,4.17,4.17,0,0,0,3.76-3h1.56c1.759,0,2.6.88,2.159,2.8l-4.44,20.837c-.4,1.88-1.239,2.68-2.918,2.68h-.72C1134.826,957.813,1133.906,956.813,1134.306,954.973Z"/><path class="g" d="M1147.346,955.772a3.819,3.819,0,0,1-1.159-2.639c0-2.44,2.838-2.919,2.918-2.8a6.093,6.093,0,0,0,5.56,3.119c3.839,0,6.039-2.439,7.2-6.919a12.314,12.314,0,0,1-6.478,1.84c-4.68,0-7.919-2.439-7.919-6.959,0-5.6,4.159-10.158,10.918-10.158,6.359,0,10.118,3.839,10.118,9.878,0,3.24-1.239,10.119-4.839,13.758-2,2-4.4,3.239-8.679,3.239C1150.865,958.132,1148.786,957.213,1147.346,955.772Zm15.237-13.077a9.477,9.477,0,0,0,.2-1.719c.2-3.4-1.559-5.36-4.558-5.36a4.89,4.89,0,0,0-5.12,5.119c0,2.36,1.44,3.839,4.439,3.839A7.413,7.413,0,0,0,1162.583,942.7Z"/></g></g><g class="f"><g class="f"><path class="g" d="M993.757,984.046a6.139,6.139,0,0,1-5.28,3.06c-3.15,0-5.55-2.22-5.55-6,0-4.679,3.33-9.359,8.04-9.359a5.148,5.148,0,0,1,4.71,2.64,2.968,2.968,0,0,1,3.09-2.4c.839,0,1.5.361,1.5.511l-2.281,10.619c-.36,1.62-.059,2.22,1.08,2.43.031.03-.179,1.5-2.339,1.5C994.6,987.046,993.7,985.876,993.757,984.046Zm.75-4.35.42-2.04a3.342,3.342,0,0,0-3.391-2.609c-2.789,0-4.5,2.79-4.5,5.459a2.96,2.96,0,0,0,2.97,3.24A4.83,4.83,0,0,0,994.507,979.7Z"/><path class="g" d="M1017.217,984.2a5.607,5.607,0,0,1-4.981,2.91c-3.149,0-5.759-2.28-5.759-6.3,0-4.59,3.03-9.06,7.65-9.06a5.6,5.6,0,0,1,4.949,2.64l1.38-6.45c.3-1.53.87-2.041,1.95-2.041h.45c1.14,0,2.161.481,1.831,2.041l-3.241,15.179c-.389,1.62-.059,2.22,1.08,2.43.031.03-.179,1.5-2.339,1.5C1018.116,987.046,1017.217,985.906,1017.217,984.2Zm.689-4.349.45-2.191a3.439,3.439,0,0,0-3.54-2.609c-2.759,0-4.229,2.64-4.229,5.279a3.106,3.106,0,0,0,3.09,3.42A4.5,4.5,0,0,0,1017.906,979.847Z"/><path class="g" d="M1024.747,980.387c0-4.47,3.149-8.64,8.279-8.64,4.38,0,7.02,2.909,7.02,6.72,0,4.47-3.15,8.639-8.279,8.639C1027.387,987.106,1024.747,984.2,1024.747,980.387Zm11.609-1.741a3.473,3.473,0,0,0-3.45-3.689c-2.609,0-4.469,2.52-4.469,5.279a3.465,3.465,0,0,0,3.45,3.66C1034.5,983.9,1036.356,981.376,1036.356,978.646Z"/><path class="g" d="M1060.656,984.437a14,14,0,0,1,.72-3.6,16.163,16.163,0,0,0,.63-3.149,2.136,2.136,0,0,0-2.16-2.4,3.592,3.592,0,0,0-3.15,1.95l-1.62,7.62c-.33,1.53-.96,2.01-2.04,2.01h-.45c-1.109,0-2.069-.45-1.739-2.01l1.319-6.24c.42-1.979-.42-3.33-1.979-3.33-1.321,0-2.191.57-3.151,1.92l-1.619,7.65c-.33,1.56-.96,2.01-2.04,2.01h-.45c-1.14,0-2.071-.45-1.74-2.01l2.669-12.6a1.864,1.864,0,0,1,1.17-.271,2.225,2.225,0,0,1,2.34,2.491,5.817,5.817,0,0,1,4.891-2.73,4.172,4.172,0,0,1,4.26,3.18,6.253,6.253,0,0,1,5.4-3.18,4.434,4.434,0,0,1,4.529,4.739,19.082,19.082,0,0,1-.84,4.29,15.934,15.934,0,0,0-.719,3.241c0,.839.42,1.17,1.2,1.29.09,0-.24,1.739-2.55,1.739C1061.556,987.046,1060.656,986.026,1060.656,984.437Z"/><path class="g" d="M1068.486,983l1.92-8.97c.33-1.529.87-2.04,1.95-2.04h.451c1.139,0,2.159.451,1.83,2.04l-1.95,9.09c-.331,1.62-.061,2.25,1.169,2.43.031.03-.21,1.5-2.46,1.5C1068.667,987.046,1067.977,985.366,1068.486,983Zm3.031-15.149a2.346,2.346,0,0,1,2.46-2.46c1.5,0,2.339.75,2.339,1.83a2.363,2.363,0,0,1-2.46,2.46C1072.356,969.677,1071.517,968.927,1071.517,967.847Z"/><path class="g" d="M1076.076,980.387a8.567,8.567,0,0,1,8.37-8.64,7.055,7.055,0,0,1,5.22,1.829,3.443,3.443,0,0,1,1.109,2.37,2.153,2.153,0,0,1-2.7,2.01,3.317,3.317,0,0,0-3.54-2.819,4.752,4.752,0,0,0-4.559,4.92,3.455,3.455,0,0,0,3.689,3.659,4.038,4.038,0,0,0,3.57-2.07c.09-.15,1.98.241,1.98,1.71a2.8,2.8,0,0,1-.99,1.951,6.969,6.969,0,0,1-4.92,1.8C1079.076,987.106,1076.076,984.646,1076.076,980.387Z"/><path class="g" d="M1091.766,983l1.92-8.97c.33-1.529.87-2.04,1.95-2.04h.45c1.14,0,2.159.451,1.83,2.04l-1.95,9.09c-.33,1.62-.061,2.25,1.17,2.43.03.03-.21,1.5-2.46,1.5C1091.946,987.046,1091.256,985.366,1091.766,983Zm3.03-15.149a2.346,2.346,0,0,1,2.46-2.46c1.5,0,2.34.75,2.34,1.83a2.363,2.363,0,0,1-2.46,2.46C1095.636,969.677,1094.8,968.927,1094.8,967.847Z"/><path class="g" d="M1099.626,983l3.21-15.059c.33-1.53.869-2.041,1.949-2.041h.45c1.14,0,2.161.481,1.83,2.041l-3.24,15.179c-.33,1.62-.059,2.25,1.17,2.43.03.03-.21,1.5-2.46,1.5C1099.806,987.046,1099.116,985.366,1099.626,983Z"/><path class="g" d="M1107.485,983l1.92-8.97c.33-1.529.87-2.04,1.95-2.04h.451c1.139,0,2.159.451,1.83,2.04l-1.95,9.09c-.331,1.62-.061,2.25,1.169,2.43.031.03-.209,1.5-2.459,1.5C1107.666,987.046,1106.976,985.366,1107.485,983Zm3.031-15.149a2.346,2.346,0,0,1,2.46-2.46c1.5,0,2.339.75,2.339,1.83a2.363,2.363,0,0,1-2.46,2.46C1111.355,969.677,1110.516,968.927,1110.516,967.847Z"/><path class="g" d="M1115.136,980.387c0-4.47,3.149-8.64,8.279-8.64,4.38,0,7.02,2.909,7.02,6.72,0,4.47-3.15,8.639-8.28,8.639C1117.775,987.106,1115.136,984.2,1115.136,980.387Zm11.609-1.741a3.474,3.474,0,0,0-3.45-3.689c-2.609,0-4.47,2.52-4.47,5.279a3.466,3.466,0,0,0,3.45,3.66C1124.885,983.9,1126.745,981.376,1126.745,978.646Z"/></g></g></g></svg>