<svg xmlns="http://www.w3.org/2000/svg" width="386.5" height="31.199" viewBox="0 0 386.5 31.199">
    <defs>
        <clipPath id="prefix__clip-path">
            <path id="prefix__Trazado_3652" d="M636.675-917.11h-3.69l.015 14.939c.021 3.791 1.889 6.026 5.923 6.047 1.713 0 2.742-.573 3.166-1.483v-2.353a6.676 6.676 0 0 1-2.682.435 2.615 2.615 0 0 1-2.016-.736 3.449 3.449 0 0 1-.713-2.4v-6.991h3.232a2 2 0 0 0 2.247-1.793v-1.513h-5.479zm-13.375 4.149c-4.976.005-7.146 3.482-7.159 6.9v9.656h3.708v-9.378a4.4 4.4 0 0 1 .86-2.845 2.835 2.835 0 0 1 2.261-1.026 3.186 3.186 0 0 1 2.547 1.014 4.75 4.75 0 0 1 .906 3.16v9.075h3.7v-9.437c-.008-4.6-3.072-7.108-6.825-7.118zm-13.783 16.555h3.728v-20.7h-3.728zm49.117-10.278v10.278h3.733v-9.54a4.283 4.283 0 0 1 .76-2.809 2.721 2.721 0 0 1 2.209-.88 5.915 5.915 0 0 1 1.016.084v-3.023a4.079 4.079 0 0 0-1.89-.4c-4.183.006-5.817 3.034-5.831 6.286zm-6.449.853a12.672 12.672 0 0 1-3.842.366h-1.985l.012-.175.03-.554a3.668 3.668 0 0 1 3.573-3.676 3.809 3.809 0 0 1 2.339.655 2.4 2.4 0 0 1 .9 1.989 1.353 1.353 0 0 1-1.026 1.4zm-1.854-7.13c-4.553.005-7.78 3.358-7.794 8.8a7.842 7.842 0 0 0 7.825 8.038c2.353 0 3.814-.375 4.665-1.086v-2.753a8.853 8.853 0 0 1-3.912.8c-2.436.007-4.4-1.354-4.715-3.539l-.028-.194h2.845c2.677 0 4.561-.247 5.751-.849a3 3 0 0 0 1.707-2.993 6.156 6.156 0 0 0-6.342-6.226z" class="prefix__cls-1" data-name="Trazado 3652"/>
        </clipPath>
        <clipPath id="prefix__clip-path-2">
            <path id="prefix__Trazado_3651" d="M447-35h1440v-900H447z" class="prefix__cls-2" data-name="Trazado 3651"/>
        </clipPath>
        <clipPath id="prefix__clip-path-3">
            <path id="prefix__Trazado_3655" d="M684.992-905.464l.013-.176.026-.554a3.668 3.668 0 0 1 3.569-3.676 3.8 3.8 0 0 1 2.342.655 2.383 2.383 0 0 1 .9 1.989 1.351 1.351 0 0 1-1.026 1.4 12.668 12.668 0 0 1-3.843.366zm8.607 1.723a3 3 0 0 0 1.708-2.993 6.155 6.155 0 0 0-6.341-6.226c-4.554.005-7.783 3.357-7.794 8.8a7.841 7.841 0 0 0 7.821 8.038c2.354 0 3.818-.375 4.669-1.086v-2.753a8.867 8.867 0 0 1-3.914.8c-2.438.007-4.4-1.354-4.717-3.539l-.026-.194h2.845c2.674 0 4.565-.247 5.749-.849z" class="prefix__cls-1" data-name="Trazado 3655"/>
        </clipPath>
        <clipPath id="prefix__clip-path-5">
            <path id="prefix__Trazado_3658" d="M729.632-906.683v10.278h3.738v-9.54a4.279 4.279 0 0 1 .762-2.809 2.723 2.723 0 0 1 2.208-.88 5.878 5.878 0 0 1 1.016.084v-3.023a4.08 4.08 0 0 0-1.892-.4c-4.181.006-5.814 3.034-5.832 6.286" class="prefix__cls-1" data-name="Trazado 3658"/>
        </clipPath>
        <clipPath id="prefix__clip-path-7">
            <path id="prefix__Trazado_3661" d="M673.165-896.187c-2.724 0-4.758-1.522-4.758-3.163v-1.823h.137a7.012 7.012 0 0 0 4.449 1.525c1.815 0 2.693-.568 2.693-1.766 0-.925-.522-1.37-3.08-1.76-3.129-.477-4.637-1.822-4.637-4.269 0-3.018 2.5-5.586 6.288-5.586 3.358 0 4.728 1.88 4.728 3.433v1.522h-.137a6.156 6.156 0 0 0-4.23-1.489c-2.256 0-2.968.743-2.968 1.79 0 .807.441 1.136 2.968 1.582 3.071.539 4.723 2 4.723 4.57 0 3.4-2.2 5.434-6.176 5.434" class="prefix__cls-1" data-name="Trazado 3661"/>
        </clipPath>
        <clipPath id="prefix__clip-path-9">
            <path id="prefix__Trazado_3664" d="M700.744-905.275c0 2.112 1.189 3.681 2.969 3.681 1.858 0 3.191-1.508 3.191-4.1 0-2.533-1.169-3.772-2.8-3.772-1.913 0-3.359 1.752-3.359 4.195m9.863 4.269c.027.656.059 1.523.059 2.06 0 4.032-2.473 7.645-7.254 7.645-3.051 0-5.139-1.61-5.139-3.522v-1.823h.164a6.246 6.246 0 0 0 4.7 1.732c2.661 0 3.869-1.372 3.869-3.7 0-.236 0-.567-.026-.838 0-.236-.025-.656-.025-.8v-.387a3.776 3.776 0 0 1-3.818 2.387c-3.6 0-6.155-2.718-6.155-6.513 0-4.539 2.743-8.213 7.525-8.213 3.685 0 6.044 2.928 6.044 7.051v2.747c0 .538.027 1.462.055 2.18" class="prefix__cls-1" data-name="Trazado 3664"/>
        </clipPath>
        <clipPath id="prefix__clip-path-11">
            <path id="prefix__Trazado_3667" d="M745.362-909.651c-2.253 0-3.4 1.992-3.4 4.763 0 3.328 1.146 5.323 3.743 5.323 2.284 0 3.4-2 3.4-4.733 0-3.36-1.172-5.352-3.743-5.352m.34-3.379c4.548 0 7.164 3.88 7.164 8.154 0 4.836-2.616 8.688-7.5 8.688-4.549 0-7.164-3.852-7.164-8.122 0-4.84 2.615-8.721 7.5-8.721" class="prefix__cls-1" data-name="Trazado 3667"/>
        </clipPath>
        <clipPath id="prefix__clip-path-13">
            <path id="prefix__Trazado_3670" d="M719.948-896.075c4.959-.008 7.124-3.495 7.134-6.924v-9.689h-3.692v9.412a4.434 4.434 0 0 1-.86 2.851 2.816 2.816 0 0 1-2.252 1.033 3.169 3.169 0 0 1-2.541-1.021 4.783 4.783 0 0 1-.9-3.172v-9.1h-3.691v9.472c.009 4.615 3.058 7.131 6.8 7.142" class="prefix__cls-1" data-name="Trazado 3670"/>
        </clipPath>
        <clipPath id="prefix__clip-path-15">
            <path id="prefix__Trazado_3675" d="M575-921.544h28.938v29.563H575z" class="prefix__cls-1" data-name="Trazado 3675"/>
        </clipPath>
        <clipPath id="prefix__clip-path-17">
            <path id="prefix__Rectángulo_40" d="M0 0H29V31H0z" class="prefix__cls-2" data-name="Rectángulo 40" transform="translate(575 -922)"/>
        </clipPath>
        <clipPath id="prefix__clip-path-18">
            <path id="prefix__Trazado_3673" d="M597.176-900.208l-15.419 2.847v-15.9l15.419-2.847zm-18.312-21.337a3.915 3.915 0 0 0-3.864 3.967v25.6h25.068a3.918 3.918 0 0 0 3.866-3.97v-25.593z" class="prefix__cls-1" data-name="Trazado 3673"/>
        </clipPath>
        <clipPath id="prefix__clip-path-19">
            <path id="prefix__Trazado_3672" d="M575-891h29v-31h-29z" class="prefix__cls-2" data-name="Trazado 3672"/>
        </clipPath>
        <clipPath id="prefix__clip-path-20">
            <path id="prefix__Trazado_3678" d="M769-921a1 1 0 0 1 1 1v27a1 1 0 0 1-1 1 1 1 0 0 1-1-1v-27a1 1 0 0 1 1-1z" class="prefix__cls-1" data-name="Trazado 3678"/>
        </clipPath>
        <style>
            .prefix__cls-1,.prefix__cls-2{fill:none}.prefix__cls-1{clip-rule:evenodd}.prefix__cls-4{clip-path:url(#prefix__clip-path-2)}.prefix__cls-5{fill:#00aded}.prefix__cls-17{fill:#0854c4}
        </style>
    </defs>
    <g id="prefix__Grupo_7542" data-name="Grupo 7542" transform="translate(-128 -16.5)">
        <g id="prefix__Grupo_2875" data-name="Grupo 2875" transform="translate(-447 939)">
            <g id="prefix__Grupo_2874" class="prefix__cls-4" data-name="Grupo 2874">
                <path id="prefix__Trazado_3650" d="M604.514-891.123h66.837v-30.987h-66.837z" class="prefix__cls-5" data-name="Trazado 3650"/>
            </g>
        </g>
        <g id="prefix__Grupo_2877" data-name="Grupo 2877" transform="translate(-447 939)">
            <g id="prefix__Grupo_2876" class="prefix__cls-4" data-name="Grupo 2876">
                <path id="prefix__Trazado_3653" d="M676.172-891.123h24.135v-26.837h-24.135z" class="prefix__cls-5" data-name="Trazado 3653"/>
            </g>
        </g>
        <g id="prefix__Grupo_2879" data-name="Grupo 2879" transform="translate(-447 939)">
            <g id="prefix__Grupo_2878" class="prefix__cls-4" data-name="Grupo 2878">
                <path id="prefix__Trazado_3656" d="M724.632-891.406h17.723v-26.564h-17.723z" class="prefix__cls-5" data-name="Trazado 3656"/>
            </g>
        </g>
        <g id="prefix__Grupo_2881" data-name="Grupo 2881" transform="translate(-447 939)">
            <g id="prefix__Grupo_2880" class="prefix__cls-4" data-name="Grupo 2880">
                <path id="prefix__Trazado_3659" d="M662.969-891.187h21.372v-26.843h-21.372z" class="prefix__cls-5" data-name="Trazado 3659"/>
            </g>
        </g>
        <g id="prefix__Grupo_2883" data-name="Grupo 2883" transform="translate(-447 939)">
            <g id="prefix__Grupo_2882" class="prefix__cls-4" data-name="Grupo 2882">
                <path id="prefix__Trazado_3662" d="M691.983-886.3h23.683v-31.683h-23.683z" class="prefix__cls-5" data-name="Trazado 3662"/>
            </g>
        </g>
        <g id="prefix__Grupo_2885" data-name="Grupo 2885" transform="translate(-447 939)">
            <g id="prefix__Grupo_2884" class="prefix__cls-4" data-name="Grupo 2884">
                <path id="prefix__Trazado_3665" d="M733.2-891.187h24.666v-26.843H733.2z" class="prefix__cls-5" data-name="Trazado 3665"/>
            </g>
        </g>
        <g id="prefix__Grupo_2887" data-name="Grupo 2887" transform="translate(-447 939)">
            <g id="prefix__Grupo_2886" class="prefix__cls-4" data-name="Grupo 2886">
                <path id="prefix__Trazado_3668" d="M708.144-891.075h23.938v-26.614h-23.938z" class="prefix__cls-5" data-name="Trazado 3668"/>
            </g>
        </g>
        <g id="prefix__Grupo_2893" data-name="Grupo 2893" transform="translate(-447 939)">
            <g id="prefix__Grupo_2892" class="prefix__cls-4" data-name="Grupo 2892">
                <g id="prefix__Grupo_2891" data-name="Grupo 2891" style="isolation:isolate">
                    <g id="prefix__Grupo_2890" data-name="Grupo 2890">
                        <g id="prefix__Grupo_2889" data-name="Grupo 2889">
                            <g id="prefix__Grupo_2888" data-name="Grupo 2888">
                                <path id="prefix__Trazado_3671" d="M570-886.981h38.938v-39.563H570z" class="prefix__cls-17" data-name="Trazado 3671"/>
                            </g>
                        </g>
                    </g>
                </g>
            </g>
        </g>
        <g id="prefix__Grupo_2895" data-name="Grupo 2895" transform="translate(-447 939)">
            <g id="prefix__Grupo_2894" class="prefix__cls-4" data-name="Grupo 2894">
                <path id="prefix__Trazado_3676" d="M763-887h12v-39h-12z" class="prefix__cls-17" data-name="Trazado 3676"/>
            </g>
        </g>
        <g id="prefix__Grupo_2872" data-name="Grupo 2872" transform="translate(338 23)">
            <text id="prefix__Seguro_Vehicular" data-name="Seguro Vehicular" transform="translate(0 17)" style="stroke:#0854c4;stroke-width:.5px;font-size:24px;font-family:OmnesMedium,Omnes;fill:#0854c4">
                <tspan x="0" y="0">Seguro Vehicular</tspan>
            </text>
        </g>
    </g>
</svg>
