<?xml version="1.0" encoding="UTF-8"?>
<svg width="13px" height="13px" viewBox="0 0 13 13" version="1.1" xmlns="http://www.w3.org/2000/svg" xmlns:xlink="http://www.w3.org/1999/xlink">
    <!-- Generator: sketchtool 54.1 (76490) - https://sketchapp.com -->
    <title>5DE01800-0892-4305-A544-478B6BB62BA6</title>
    <desc>Created with sketchtool.</desc>
    <g id="Web" stroke="none" stroke-width="1" fill="none" fill-rule="evenodd">
        <g id="Home-Web-Nueva" transform="translate(-371.000000, -2740.000000)" stroke-width="0.5">
            <g id="Group-19" transform="translate(171.000000, 2634.000000)">
                <g id="Group-12" transform="translate(147.000000, 107.000000)">
                    <g id="Group-14" transform="translate(54.000000, 0.000000)">
                        <g id="Group-11" fill="#959595" opacity="0.232607887" stroke="#000000">
                            <path d="M7.68406716,3.27158664 C7.73028734,3.36371661 7.81957908,3.4275722 7.9229589,3.44234477 L11.3978286,3.93909206 C11.6580341,3.97626173 11.7619791,4.2908935 11.5736672,4.47146029 L9.05920844,6.88260469 C8.98444881,6.9543231 8.95029835,7.05761191 8.96797908,7.15887545 L9.56157541,10.5634747 C9.60597908,10.8184603 9.33394606,11.0128863 9.10123046,10.8925217 L5.99317541,9.28509206 C5.90073505,9.23727978 5.79033138,9.23727978 5.69789101,9.28509206 L2.58987633,10.8925217 C2.35712037,11.0128863 2.08508734,10.8184603 2.12953138,10.5634747 L2.72312771,7.15887545 C2.74076807,7.05761191 2.70661761,6.9543231 2.63185798,6.88260469 L0.117439633,4.47146029 C-0.0708722936,4.2908935 0.0330322936,3.97626173 0.293237798,3.93909206 L3.76810752,3.44234477 C3.87148734,3.4275722 3.96081945,3.36371661 4.00699927,3.27158664 L5.56100661,0.173994585 C5.67738459,-0.0579981949 6.01368183,-0.0579981949 6.13005982,0.173994585 L7.68406716,3.27158664 Z" id="Fill-9"></path>
                        </g>
                        <path d="M5.67661548,9.32481119 L2.5686008,10.9322408 C2.33584484,11.0526054 2.06381181,10.8581794 2.10825585,10.6031939 L2.70185218,7.19859458 C2.71949255,7.09733105 2.68538246,6.99404224 2.61058246,6.92232383 L0.0961641077,4.51117942 C-0.0921478189,4.33061264 0.0117567682,4.01598087 0.27200264,3.97881119 L3.74687236,3.4820639 C3.85021181,3.46729134 3.93954392,3.40343574 3.98576411,3.31130578 L5.53977145,0.213713718 C5.65614943,-0.0182790614 5.76905585,9.27699892 5.67661548,9.32481119 Z" id="Fill-7-Copy-2" stroke="#A9A479" fill="#EEE017"></path>
                    </g>
                </g>
            </g>
        </g>
    </g>
</svg>