<?xml version="1.0" encoding="UTF-8"?>
<svg width="30px" height="24px" viewBox="0 0 30 24" version="1.1" xmlns="http://www.w3.org/2000/svg" xmlns:xlink="http://www.w3.org/1999/xlink">
    <!-- Generator: sketchtool 54.1 (76490) - https://sketchapp.com -->
    <title>D8A0EB7A-3547-4650-94E9-8328692114A5</title>
    <desc>Created with sketchtool.</desc>
    <g id="Web" stroke="none" stroke-width="1" fill="none" fill-rule="evenodd" stroke-linecap="round">
        <g id="Home-Web-Nueva-Menu" transform="translate(-1005.000000, -98.000000)" stroke="#00ADEE" stroke-width="1.76000004">
            <g id="Group-4" transform="translate(1006.000000, 99.000000)">
                <g id="Group-7">
                    <path d="M0.0990031621,13.4320633 L13.3041863,0.243796667 C13.4983101,0.0501966667 13.812571,0.05093 14.0052298,0.24563 L27.1811112,13.5596633" id="Stroke-1"></path>
                    <path d="M4.66897154,12.6733693 L4.66897154,21.12352 C4.66897154,21.50192 4.97847088,21.81212 5.35646298,21.81212 L11.8262812,21.81212 C12.2042733,21.81212 12.5137726,21.50192 12.5137726,21.12352 L12.5137726,17.36922 C12.5137726,17.2452867 12.6137647,17.1451867 12.7375644,17.1451867 L14.5425499,17.1451867 C14.6659834,17.1451867 14.7663418,17.2452867 14.7663418,17.36922 L14.7663418,21.12352 C14.7663418,21.4993533 15.0769399,21.81212 15.4783734,21.81212 L21.9251165,21.81212 C22.302376,21.81212 22.6111428,21.5026533 22.6111428,21.1253533 L22.6111428,12.6733693" id="Stroke-3"></path>
                    <path d="M20.9442783,7.25710333 L20.9442783,2.82960333 C20.9442783,2.62537 20.7787236,2.46000333 20.5747104,2.46000333 L19.8172265,2.46000333" id="Stroke-5"></path>
                </g>
            </g>
        </g>
    </g>
</svg>