<?xml version="1.0" encoding="UTF-8"?>
<svg width="32px" height="33px" viewBox="0 0 32 33" version="1.1" xmlns="http://www.w3.org/2000/svg" xmlns:xlink="http://www.w3.org/1999/xlink">
    <!-- Generator: sketchtool 54.1 (76490) - https://sketchapp.com -->
    <title>74EEF414-0175-4600-848A-8215D8756863</title>
    <desc>Created with sketchtool.</desc>
    <g id="Web" stroke="none" stroke-width="1" fill="none" fill-rule="evenodd">
        <g id="Home-Web-Nueva-Menu" transform="translate(-1005.000000, -294.000000)" stroke="#00ADEE" stroke-width="1.72499996">
            <g id="Group-22" transform="translate(1006.000000, 295.000000)">
                <g id="Group-13">
                    <path d="M4.22634375,19.4394618 C4.22634375,19.4394618 6.64696875,17.0857412 7.04821875,16.69505 C7.449,16.3052706 7.75321875,15.9825059 7.75321875,14.6371971 C7.75321875,12.9221676 8.238375,12.1075059 9.16415625,11.2066824" id="Stroke-1"></path>
                    <path d="M9.579,30.6993912 L12.2766562,28.0753324 C12.5054063,27.8528618 12.5054063,27.4918029 12.2766562,27.2693324 L3.93571875,19.1569059 C3.7065,18.9339794 3.33525,18.9339794 3.10603125,19.1569059 L0.40884375,21.7809647 C0.17915625,22.0034353 0.17915625,22.3644941 0.40884375,22.5869647 L8.7493125,30.6993912 C8.97853125,30.9218618 9.34978125,30.9218618 9.579,30.6993912 Z" id="Stroke-3"></path>
                    <path d="M3.52096875,22.1836456 L4.93190625,23.5558515" id="Stroke-5" stroke-linecap="round"></path>
                    <path d="M15.513,9.14869265 L13.1556562,6.89070735 C13.7139375,5.12689853 13.278,3.12922206 11.8431562,1.73331029 C10.2147187,0.150030882 7.79128125,-0.180483824 5.82534375,0.731736765 L9.59878125,4.40158971 L7.1045625,6.82688382 L3.33159375,3.15748676 C2.393625,5.06991324 2.73253125,7.426825 4.36096875,9.00964853 C5.58346875,10.1995015 7.2555,10.6786338 8.84503125,10.4602662 L11.986125,13.2648544 L17.6294063,7.77648676 C18.3784687,7.04798676 19.7734687,7.76235441 20.4508125,8.46258971 C22.4781562,10.5591926 26.4081562,15.0177221 25.388625,16.0092662 C23.9997187,17.3605015 18.334875,22.8698397 18.334875,22.8698397 C17.1653437,24.0068103 15.3883125,23.6767515 14.8075312,24.2415897 C14.22675,24.8073397 11.986125,26.9864574 11.986125,26.9864574" id="Stroke-7" stroke-linejoin="round"></path>
                    <path d="M20.4508594,20.8115309 L25.7411719,25.957075 C26.7152344,26.9043985 28.2944531,26.9043985 29.2685156,25.957075 C30.2425781,25.0097515 30.2425781,23.4743397 29.2685156,22.5270162 L23.9777344,17.3814721" id="Stroke-9" stroke-linejoin="round"></path>
                    <path d="M26.0941875,22.8697029 L27.505125,24.2419088" id="Stroke-11" stroke-linecap="round" stroke-linejoin="round"></path>
                </g>
            </g>
        </g>
    </g>
</svg>