<?xml version="1.0" encoding="UTF-8"?>
<svg width="37px" height="36px" viewBox="0 0 37 36" version="1.1" xmlns="http://www.w3.org/2000/svg" xmlns:xlink="http://www.w3.org/1999/xlink">
    <!-- Generator: sketchtool 54.1 (76490) - https://sketchapp.com -->
    <title>8E82AE89-1AE1-41E1-A385-8FD13A86D44B</title>
    <desc>Created with sketchtool.</desc>
    <defs>
        <polygon id="path-1" points="0.524646182 0.0027176469 23.9155967 0.0027176469 23.9155967 22.8620104 0.524646182 22.8620104"></polygon>
    </defs>
    <g id="Web" stroke="none" stroke-width="1" fill="none" fill-rule="evenodd">
        <g id="Home-Web-Nueva-Menu" transform="translate(-1166.000000, -524.000000)">
            <g id="Group-3" transform="translate(1166.000000, 524.000000)">
                <g id="Llamada-Icon">
                    <path d="M26.0309881,33.7600833 C24.3002353,34.3206961 22.4545344,34.3206961 20.7250878,33.7600833 C18.416982,32.97624 16.2238243,31.8562827 14.3781234,30.398943 C12.763625,29.2789857 11.1478203,27.9345296 9.76452427,26.5900735 C8.26366769,25.1340022 6.99531979,23.6779309 5.72566566,21.9973607 C4.22742154,20.0935602 3.07271552,18.076876 2.26546629,15.8369614 C1.68811328,14.1563913 1.68811328,12.364206 2.26546629,10.6836358 C2.72656496,9.11468093 4.34236965,6.98638155 6.18807056,6.98638155 L6.41796678,6.98638155 C8.03377147,7.21088035 9.53332182,8.7785669 10.340571,10.2346382 C10.6867216,10.795251 10.8029759,11.4674791 10.6867216,12.0280919 C10.4555192,12.4758212 10.2256229,12.8119352 9.87947238,13.036434 L8.8410207,12.0280919 C8.49487014,11.6919779 7.91882336,11.6919779 7.57136657,12.0280919 C7.22652224,12.364206 7.22652224,12.9235504 7.57136657,13.2596644 L8.60981825,14.2680065 C8.49487014,14.3796217 8.49487014,14.3796217 8.3786158,14.4925053 C7.45641846,15.9485766 7.45641846,17.9652608 8.49487014,19.4213321 C10.5717735,22.781204 13.4559261,25.5817314 16.9161255,27.5984156 C18.416982,28.6067577 20.3776311,28.6067577 21.9934357,27.7112992 L22.223332,27.4868004 L23.2617836,28.4951424 C23.6092404,28.8312565 24.1852872,28.8312565 24.5314378,28.4951424 C24.8775883,28.1590284 24.8775883,27.5984156 24.5314378,27.2623016 L23.4929861,26.2539595 C23.7228823,25.9178455 24.0690329,25.694615 24.5314378,25.4701162 C25.2237389,25.358501 25.9147338,25.4701162 26.3771387,25.8062302 C27.9916371,26.5900735 29.6074418,28.0474132 29.7223899,29.6150997 C29.8373381,31.5201687 27.6454866,33.1994704 26.0309881,33.7600833 M27.0694398,24.3501589 C26.1459362,23.7895461 24.8775883,23.6779309 23.8391367,23.9024297 C23.0305812,24.2385437 22.3395863,24.6862729 21.8771814,25.358501 C21.6472852,25.694615 21.3011346,25.9178455 20.9549841,26.2539595 C19.9165324,26.8145723 18.7631326,26.7029571 17.839629,26.030729 C16.2238243,25.1340022 14.7255802,24.0140449 13.4559261,22.6695888 C12.0713238,21.4380163 10.9179241,19.9806766 9.99572672,18.41299 C9.30211937,17.5162632 9.30211937,16.2846907 9.76452427,15.3879638 C9.99572672,15.0518498 10.340571,14.7157358 10.6867216,14.4925053 C11.3790227,14.0435077 11.9563757,13.3712797 12.186272,12.5874364 C12.5324225,11.5790943 12.3012201,10.3475218 11.7251733,9.45079495 C10.8029759,7.6586096 8.95727504,5.64192545 6.53291489,5.30581143 C3.53381419,5.08258098 1.34326895,8.10633885 0.533407259,10.0114078 C-0.157587632,12.0280919 -0.157587632,14.1563913 0.419765377,16.2846907 C1.22701461,18.7491041 2.49536251,20.9890187 4.22742154,23.0057028 C5.49446321,24.6862729 6.88037168,26.2539595 8.3786158,27.8229144 C9.87947238,29.2789857 11.4939708,30.6234418 13.2247236,31.8562827 C15.301627,33.4239692 17.6097328,34.6568101 20.1464286,35.5522686 C21.1848803,35.8883826 22.223332,35.9999979 23.2617836,35.9999979 C24.4164897,35.9999979 25.4549413,35.7767674 26.493393,35.4406534 C28.5689902,34.7684253 31.6843452,32.5272424 31.3368884,29.6150997 C31.1069922,27.1506863 29.0300888,25.358501 27.0694398,24.3501589" id="Fill-1" fill="#0055C8"></path>
                    <g id="Group-5" transform="translate(12.545454, 0.000000)">
                        <mask id="mask-2" fill="white">
                            <use xlink:href="#path-1"></use>
                        </mask>
                        <g id="Clip-4"></g>
                        <path d="M7.68177945,0.0027176469 C5.34964561,0.0027176469 3.1337223,0.459541149 1.03400951,1.37448227 C0.566526282,1.60354108 0.450315763,2.06036458 0.566526282,2.51718809 C0.684057375,2.97401159 1.26775112,3.08918805 1.73391377,2.97401159 C9.08290855,-0.226341163 17.5966497,2.97401159 20.8611088,10.0605994 C22.61219,13.7190698 22.61219,17.9469519 20.8611088,21.6054222 C20.6286878,22.0622457 20.8611088,22.5190692 21.328592,22.7481281 C21.4448025,22.7481281 21.5623336,22.8620104 21.6785442,22.8620104 C22.0284963,22.8620104 22.3784484,22.6342457 22.4946589,22.4051869 C26.1103908,14.4049521 22.61219,5.14554087 14.4470805,1.48836462 C12.2311572,0.574717613 10.0152339,0.116599993 7.68177945,0.0027176469" id="Fill-3" fill="#0055C8" mask="url(#mask-2)"></path>
                    </g>
                    <path d="M29.2744767,17.9999989 L29.3900061,17.9999989 C29.8534366,17.9999989 30.2013377,17.6470208 30.2013377,17.2940426 C30.31818,16.7053017 30.31818,16.1178928 30.31818,15.5291518 C30.31818,9.88283335 25.7954655,5.29411733 20.2290476,5.29411733 C19.6500876,5.29411733 19.0711277,5.29411733 18.4908548,5.41266471 C18.0274243,5.5298801 17.6795232,6.00007364 17.7950526,6.47026718 C17.9118949,6.94179272 18.2584832,7.29477088 18.7232265,7.1762235 C19.1853442,7.05900811 19.6500876,7.05900811 20.1135182,7.05900811 C24.753075,7.05900811 28.463145,10.8232204 28.463145,15.5291518 C28.463145,16.0006774 28.463145,16.4708709 28.3463027,16.9410645 C28.463145,17.5298054 28.8097333,17.9999989 29.2744767,17.9999989" id="Fill-6" fill="#0055C8"></path>
                </g>
            </g>
        </g>
    </g>
</svg>