<svg xmlns="http://www.w3.org/2000/svg" width="369.927" height="43.488" viewBox="0 0 369.927 43.488"><defs><style>.a{isolation:isolate;}.b{fill:#454a6c;}</style></defs><g transform="translate(-585 -242.113)"><g transform="translate(552.325 21.466)"><g class="a"><g class="a"><path class="b" d="M33.361,234.553l2.376-7c.286-.616.507-.88.969-.88.726,0,.9.264.924,1.122l-.638,7.129c.022,1.277-.7,1.8-1.849,1.8C33.471,236.732,32.745,235.961,33.361,234.553Zm2.4-10.319a2.477,2.477,0,0,1,.573-1.694,1.674,1.674,0,0,1,1.386-.418c1.012,0,1.5.374,1.5,1.144a2.46,2.46,0,0,1-.55,1.694c-.286.286-.594.4-1.409.4C36.266,225.356,35.759,225,35.759,224.234Z"/><path class="b" d="M39.719,235.236a2.465,2.465,0,0,1-.814-1.717,1.762,1.762,0,0,1,1.32-1.606,5.22,5.22,0,0,0,4.422,2.377c1.585,0,2.333-.661,2.333-1.761,0-.99-1.1-1.364-2.53-1.914-1.717-.682-3.609-1.607-3.609-4.071,0-2.4,1.826-4.533,5.567-4.533a6.338,6.338,0,0,1,4.6,1.475,2.158,2.158,0,0,1,.726,1.562,1.809,1.809,0,0,1-1.43,1.695,4.585,4.585,0,0,0-3.96-2.2c-1.408,0-2.289.726-2.289,1.672,0,1.056,1.145,1.43,2.707,2.069,1.848.7,3.74,1.606,3.74,3.916,0,2.663-1.892,4.621-5.875,4.621A6.89,6.89,0,0,1,39.719,235.236Z"/><path class="b" d="M51.885,231.869a6.084,6.084,0,0,1,6.073-6.337,4.784,4.784,0,0,1,5.148,4.928,6.084,6.084,0,0,1-6.073,6.337A4.783,4.783,0,0,1,51.885,231.869Zm8.515-1.276a2.549,2.549,0,0,0-2.53-2.707c-1.915,0-3.279,1.849-3.279,3.873a2.542,2.542,0,0,0,2.53,2.685C59.036,234.444,60.4,232.6,60.4,230.593Z"/><path class="b" d="M64.336,233.784l2.355-11.046c.242-1.122.638-1.5,1.43-1.5h.33c.836,0,1.584.351,1.342,1.5l-2.376,11.134c-.242,1.187-.044,1.65.858,1.782.022.021-.154,1.1-1.8,1.1C64.468,236.753,63.962,235.522,64.336,233.784Z"/><path class="b" d="M69.946,231.869a6.084,6.084,0,0,1,6.073-6.337,4.784,4.784,0,0,1,5.148,4.928A6.083,6.083,0,0,1,75.1,236.8,4.783,4.783,0,0,1,69.946,231.869Zm8.515-1.276a2.549,2.549,0,0,0-2.53-2.707c-1.914,0-3.279,1.849-3.279,3.873a2.543,2.543,0,0,0,2.531,2.685C77.1,234.444,78.461,232.6,78.461,230.593Z"/><path class="b" d="M84.84,239.328l2.86-13.422a1.371,1.371,0,0,1,.859-.2,1.643,1.643,0,0,1,1.716,1.936,4.146,4.146,0,0,1,3.63-2.112c2.311,0,4.225,1.65,4.225,4.6,0,3.389-2.222,6.667-5.611,6.667a3.87,3.87,0,0,1-3.586-2.046l-.991,4.577c-.22,1.123-.638,1.5-1.43,1.5h-.33C85.346,240.825,84.6,240.472,84.84,239.328Zm5.149-9.66-.33,1.54a2.423,2.423,0,0,0,2.42,3.147c1.958,0,3.037-1.892,3.037-3.828A2.3,2.3,0,0,0,92.827,228,3.5,3.5,0,0,0,89.989,229.668Z"/><path class="b" d="M99.25,231.869a6.084,6.084,0,0,1,6.073-6.337,4.784,4.784,0,0,1,5.148,4.928A6.084,6.084,0,0,1,104.4,236.8,4.783,4.783,0,0,1,99.25,231.869Zm8.515-1.276a2.549,2.549,0,0,0-2.53-2.707c-1.915,0-3.279,1.849-3.279,3.873a2.542,2.542,0,0,0,2.53,2.685C106.4,234.444,107.765,232.6,107.765,230.593Z"/><path class="b" d="M115.838,227.6a3.278,3.278,0,0,1,2.9-2.068c1.078,0,1.914.616,1.914,1.518a1.964,1.964,0,0,1-1.386,1.958,1.916,1.916,0,0,0-1.5-.637c-1.386,0-2.266,1.54-2.75,3.806l-.616,2.971c-.242,1.1-.638,1.474-1.43,1.474h-.33c-.836,0-1.585-.33-1.342-1.474l1.958-9.242a1.367,1.367,0,0,1,.858-.2A1.636,1.636,0,0,1,115.838,227.6Z"/><path class="b" d="M123.251,239.328l2.86-13.422a1.371,1.371,0,0,1,.859-.2,1.643,1.643,0,0,1,1.716,1.936,4.146,4.146,0,0,1,3.63-2.112c2.311,0,4.225,1.65,4.225,4.6,0,3.389-2.222,6.667-5.611,6.667a3.87,3.87,0,0,1-3.586-2.046l-.99,4.577c-.221,1.123-.639,1.5-1.431,1.5h-.33C123.757,240.825,123.009,240.472,123.251,239.328Zm5.149-9.66-.33,1.54a2.423,2.423,0,0,0,2.42,3.147c1.958,0,3.037-1.892,3.037-3.828a2.3,2.3,0,0,0-2.289-2.53A3.5,3.5,0,0,0,128.4,229.668Z"/><path class="b" d="M137.662,231.869a6.084,6.084,0,0,1,6.072-6.337,4.785,4.785,0,0,1,5.149,4.928,6.084,6.084,0,0,1-6.073,6.337A4.783,4.783,0,0,1,137.662,231.869Zm8.515-1.276a2.549,2.549,0,0,0-2.531-2.707c-1.914,0-3.278,1.849-3.278,3.873a2.542,2.542,0,0,0,2.53,2.685C144.812,234.444,146.177,232.6,146.177,230.593Z"/><path class="b" d="M149.915,231.869a6.284,6.284,0,0,1,6.14-6.337,5.17,5.17,0,0,1,3.828,1.343,2.523,2.523,0,0,1,.814,1.738,1.578,1.578,0,0,1-1.98,1.473,2.434,2.434,0,0,0-2.6-2.068,3.485,3.485,0,0,0-3.344,3.609,2.535,2.535,0,0,0,2.706,2.684,2.963,2.963,0,0,0,2.619-1.518c.066-.11,1.452.176,1.452,1.254a2.048,2.048,0,0,1-.726,1.43,5.1,5.1,0,0,1-3.608,1.32C152.116,236.8,149.915,234.994,149.915,231.869Z"/><path class="b" d="M161.268,231.869a6.083,6.083,0,0,1,6.072-6.337,4.784,4.784,0,0,1,5.148,4.928,6.083,6.083,0,0,1-6.072,6.337A4.783,4.783,0,0,1,161.268,231.869Zm8.514-1.276a2.549,2.549,0,0,0-2.53-2.707c-1.914,0-3.278,1.849-3.278,3.873a2.542,2.542,0,0,0,2.53,2.685C168.418,234.444,169.782,232.6,169.782,230.593Z"/><path class="b" d="M173.564,235.389a1.843,1.843,0,0,1-.615-1.254,1.444,1.444,0,0,1,1.056-1.364,4.677,4.677,0,0,0,3.587,1.826c1.078,0,1.65-.439,1.65-1.078,0-.594-.638-.858-1.738-1.254-1.5-.572-3.125-1.21-3.125-3.169,0-2.068,1.606-3.542,4.379-3.542a5.709,5.709,0,0,1,3.961,1.364,1.646,1.646,0,0,1,.527,1.189c0,1.034-1.078,1.518-1.166,1.408a4.014,4.014,0,0,0-3.212-1.782c-1.056,0-1.606.506-1.606,1.078,0,.615.66.88,1.936,1.363,1.628.617,3.212,1.3,3.212,3.147,0,2.068-1.606,3.455-4.511,3.455A6.187,6.187,0,0,1,173.564,235.389Z"/><path class="b" d="M195.588,234.664a4.112,4.112,0,0,1-3.652,2.133c-2.311,0-4.225-1.672-4.225-4.62,0-3.366,2.223-6.645,5.61-6.645a4.112,4.112,0,0,1,3.631,1.936l1.012-4.73c.221-1.122.639-1.5,1.431-1.5h.33c.836,0,1.584.351,1.341,1.5l-2.376,11.134c-.286,1.187-.044,1.628.792,1.782.023.021-.131,1.1-1.715,1.1A1.917,1.917,0,0,1,195.588,234.664Zm.506-3.191.33-1.606a2.523,2.523,0,0,0-2.6-1.914c-2.024,0-3.1,1.936-3.1,3.872a2.278,2.278,0,0,0,2.265,2.508A3.306,3.306,0,0,0,196.094,231.473Z"/><path class="b" d="M201.263,233.784l1.408-6.579c.242-1.122.638-1.5,1.431-1.5h.33c.836,0,1.584.331,1.341,1.5l-1.43,6.667c-.241,1.187-.044,1.65.858,1.782.023.021-.154,1.1-1.8,1.1C201.4,236.753,200.889,235.522,201.263,233.784Zm4.73-12.807a2.31,2.31,0,0,1,1.189-.33,1.284,1.284,0,0,1,1.32,1.32,1.937,1.937,0,0,1-1.145,1.541c-1.8,1.012-3.982.968-4.136.7C203.089,223.926,204.5,221.814,205.993,220.977Z"/><path class="b" d="M214.662,234.553a4.5,4.5,0,0,1-3.872,2.244c-2.311,0-4.071-1.628-4.071-4.4,0-3.433,2.442-6.865,5.9-6.865a3.774,3.774,0,0,1,3.454,1.936,2.177,2.177,0,0,1,2.267-1.76c.616,0,1.1.264,1.1.375l-1.672,7.789c-.264,1.187-.044,1.628.792,1.782.022.021-.132,1.1-1.716,1.1A1.921,1.921,0,0,1,214.662,234.553Zm.55-3.19.309-1.5a2.452,2.452,0,0,0-2.487-1.914c-2.047,0-3.3,2.046-3.3,4a2.172,2.172,0,0,0,2.179,2.375A3.541,3.541,0,0,0,215.212,231.363Z"/><path class="b" d="M220.117,235.389a1.845,1.845,0,0,1-.616-1.254,1.444,1.444,0,0,1,1.056-1.364,4.677,4.677,0,0,0,3.587,1.826c1.078,0,1.65-.439,1.65-1.078,0-.594-.639-.858-1.738-1.254-1.5-.572-3.125-1.21-3.125-3.169,0-2.068,1.606-3.542,4.379-3.542a5.709,5.709,0,0,1,3.961,1.364,1.646,1.646,0,0,1,.527,1.189c0,1.034-1.078,1.518-1.166,1.408a4.014,4.014,0,0,0-3.212-1.782c-1.057,0-1.607.506-1.607,1.078,0,.615.661.88,1.937,1.363,1.628.617,3.212,1.3,3.212,3.147,0,2.068-1.607,3.455-4.511,3.455A6.182,6.182,0,0,1,220.117,235.389Z"/><path class="b" d="M230.391,235.566a2.472,2.472,0,0,1,.572-1.694c.285-.287.594-.418,1.386-.418,1.011,0,1.5.374,1.5,1.143a2.372,2.372,0,0,1-.573,1.7c-.286.286-.572.4-1.385.4C230.9,236.688,230.391,236.335,230.391,235.566Zm1.6-4.555.616-7.129c0-1.255.727-1.782,1.87-1.782,1.673,0,2.4.77,1.784,2.156l-2.4,7c-.264.639-.484.881-.969.881C232.194,232.133,232,231.891,232,231.011Z"/></g><g class="a"><path class="b" d="M32.675,259.723a2.135,2.135,0,0,1,.432-1.134l5.546-9.255c.234-.4.486-.576,1.188-.576.865,0,1.1.27,1.188.684l2.089,10.588c.018.162-.486.576-1.044.576-.469,0-.81-.271-.919-.919l-.486-2.574H35.988l-2,3.511C33.953,260.66,32.675,260.732,32.675,259.723Zm7.814-4.1-.9-4.916-2.845,4.916Z"/><path class="b" d="M44.663,259.616a1.357,1.357,0,0,1-.45-.9.931.931,0,0,1,.738-.882A3.573,3.573,0,0,0,47.94,259.4c1.134,0,1.765-.485,1.765-1.206,0-.649-.666-.918-1.765-1.3-1.242-.45-2.575-.973-2.575-2.539s1.315-2.7,3.367-2.7a4.223,4.223,0,0,1,3.007,1.062,1.244,1.244,0,0,1,.45.9c0,.684-.756.954-.81.864a3.1,3.1,0,0,0-2.665-1.477c-1.116,0-1.674.559-1.674,1.171,0,.684.72.972,1.872,1.4,1.279.467,2.575.99,2.575,2.466,0,1.62-1.279,2.7-3.475,2.7A4.857,4.857,0,0,1,44.663,259.616Z"/><path class="b" d="M52.871,257.149a5.371,5.371,0,0,1,5.456-5.492c2.07,0,3.258.972,3.258,2.394,0,1.747-1.152,2.81-5.023,2.81-.63,0-1.3-.036-2.07-.09v.323a2.145,2.145,0,0,0,2.376,2.287,3.226,3.226,0,0,0,2.773-1.35c.036-.054.81.126.81.738a1.131,1.131,0,0,1-.432.9,4.306,4.306,0,0,1-3.187,1.081C54.2,260.75,52.871,259.219,52.871,257.149Zm1.909-1.621a13.7,13.7,0,0,0,1.62.091c2.809,0,3.565-.721,3.565-1.513,0-.576-.558-1.116-1.711-1.116A3.839,3.839,0,0,0,54.78,255.528Z"/><path class="b" d="M62.285,263.018a1.762,1.762,0,0,1-.612-1.206c0-.9.972-1.17,1.008-1.08a3.075,3.075,0,0,0,5.87-.666l.252-1.225a3.6,3.6,0,0,1-3.025,1.548,3.477,3.477,0,0,1-3.511-3.744,4.965,4.965,0,0,1,4.772-4.988,3.246,3.246,0,0,1,2.952,1.657c.253-1.1.649-1.513,1.405-1.513a.862.862,0,0,1,.648.216l-1.729,8.139c-.558,2.574-2.034,3.979-4.771,3.979A4.427,4.427,0,0,1,62.285,263.018Zm7.04-6.59.306-1.44a2.417,2.417,0,0,0-2.466-1.872,3.328,3.328,0,0,0-3.151,3.421,2.247,2.247,0,0,0,2.232,2.413A3.17,3.17,0,0,0,69.325,256.428Z"/><path class="b" d="M78.775,259.093a3.393,3.393,0,0,1-2.917,1.657c-2.251,0-3.259-1.621-2.755-3.979l.864-4.124c.144-.647.378-.846.828-.846h.2c.467,0,.9.18.756.846l-.865,4.105c-.323,1.441.253,2.45,1.6,2.45a2.892,2.892,0,0,0,2.575-1.729l1.026-4.826c.126-.647.36-.846.81-.846h.2c.486,0,.9.18.757.846l-1.243,5.906c-.2.9-.036,1.225.7,1.3.037,0,0,.847-1.062.847A1.334,1.334,0,0,1,78.775,259.093Z"/><path class="b" d="M85.686,253.332a2.651,2.651,0,0,1,2.377-1.675c.756,0,1.386.379,1.386.99a1.13,1.13,0,0,1-.775,1.152,1.42,1.42,0,0,0-1.152-.485c-1.278,0-2.125,1.53-2.575,3.69l-.576,2.755c-.126.63-.378.847-.81.847h-.216c-.468,0-.882-.2-.756-.847l1.674-7.868a.77.77,0,0,1,.45-.09C85.308,251.8,85.884,252.125,85.686,253.332Z"/><path class="b" d="M96.108,258.914a3.754,3.754,0,0,1-3.24,1.836,3.318,3.318,0,0,1-3.386-3.62c0-2.718,2.017-5.473,4.844-5.473a3.161,3.161,0,0,1,2.935,1.675c.252-1.117.648-1.531,1.4-1.531a.861.861,0,0,1,.647.216l-1.386,6.536c-.2.9-.036,1.225.7,1.3.037,0,0,.847-1.062.847C96.451,260.7,96,260.011,96.108,258.914Zm.5-2.539.288-1.351a2.446,2.446,0,0,0-2.467-1.927c-1.98,0-3.187,2-3.187,3.871a2.11,2.11,0,0,0,2.107,2.305A3.5,3.5,0,0,0,96.613,256.375Z"/><path class="b" d="M103.973,257.544l.882-4.212h-.594c-.45,0-.7-.163-.7-.468a1.316,1.316,0,0,1,.288-.811.8.8,0,0,1,.63-.179h.684l.144-.7c.216-1.061.612-1.475,1.369-1.475.378,0,.684.162.666.216l-.414,1.963h1.854c.469,0,.72.162.72.449a1.48,1.48,0,0,1-.288.829.8.8,0,0,1-.629.18H106.6l-.9,4.176c-.271,1.315.143,1.837.99,1.837a1.631,1.631,0,0,0,1.134-.5c.054-.036.342.235.342.649a1.019,1.019,0,0,1-.342.756,2.271,2.271,0,0,1-1.6.522C104.441,260.768,103.523,259.652,103.973,257.544Z"/><path class="b" d="M115.747,259.093a3.393,3.393,0,0,1-2.917,1.657c-2.251,0-3.26-1.621-2.755-3.979l.864-4.124c.144-.647.378-.846.828-.846h.2c.468,0,.9.18.756.846l-.864,4.105c-.324,1.441.252,2.45,1.6,2.45a2.894,2.894,0,0,0,2.576-1.729l1.026-4.826c.126-.647.36-.846.81-.846h.2c.486,0,.9.18.756.846l-1.242,5.906c-.2.9-.036,1.225.7,1.3.036,0,0,.847-1.062.847A1.334,1.334,0,0,1,115.747,259.093Z"/><path class="b" d="M129.444,258.914a3.754,3.754,0,0,1-3.24,1.836,3.318,3.318,0,0,1-3.386-3.62c0-2.718,2.017-5.473,4.844-5.473a3.161,3.161,0,0,1,2.935,1.675c.252-1.117.648-1.531,1.4-1.531a.862.862,0,0,1,.648.216l-1.386,6.536c-.2.9-.036,1.225.7,1.3.036,0,0,.847-1.062.847C129.787,260.7,129.336,260.011,129.444,258.914Zm.505-2.539.288-1.351a2.448,2.448,0,0,0-2.467-1.927c-1.98,0-3.187,2-3.187,3.871a2.11,2.11,0,0,0,2.107,2.305A3.5,3.5,0,0,0,129.949,256.375Z"/><path class="b" d="M139.434,259.093a3.39,3.39,0,0,1-2.916,1.657c-2.251,0-3.26-1.621-2.755-3.979l.864-4.124c.144-.647.378-.846.828-.846h.2c.469,0,.9.18.757.846l-.865,4.105c-.324,1.441.252,2.45,1.6,2.45a2.891,2.891,0,0,0,2.575-1.729l1.027-4.826c.126-.647.36-.846.81-.846h.2c.486,0,.9.18.756.846l-1.242,5.906c-.2.9-.036,1.225.7,1.3.036,0,0,.847-1.062.847A1.335,1.335,0,0,1,139.434,259.093Z"/><path class="b" d="M144.292,257.544l.883-4.212h-.594c-.45,0-.7-.163-.7-.468a1.317,1.317,0,0,1,.289-.811.8.8,0,0,1,.63-.179h.684l.144-.7c.217-1.061.612-1.475,1.369-1.475.378,0,.684.162.666.216l-.414,1.963H149.1c.467,0,.719.162.719.449a1.48,1.48,0,0,1-.288.829.8.8,0,0,1-.63.18h-1.98l-.9,4.176c-.27,1.315.145,1.837.991,1.837a1.631,1.631,0,0,0,1.134-.5c.054-.036.342.235.342.649a1.019,1.019,0,0,1-.342.756,2.271,2.271,0,0,1-1.6.522C144.761,260.768,143.843,259.652,144.292,257.544Z"/><path class="b" d="M149.963,256.752a4.934,4.934,0,0,1,4.9-5.1,3.872,3.872,0,0,1,4.051,4,4.933,4.933,0,0,1-4.9,5.1A3.872,3.872,0,0,1,149.963,256.752Zm7.31-1.026a2.508,2.508,0,0,0-2.485-2.646,3.423,3.423,0,0,0-3.186,3.6,2.508,2.508,0,0,0,2.484,2.648A3.425,3.425,0,0,0,157.273,255.726Z"/><path class="b" d="M162.959,256.752a5.069,5.069,0,0,1,4.933-5.1,4.1,4.1,0,0,1,3.043,1.1,2.157,2.157,0,0,1,.7,1.441.948.948,0,0,1-1.188.918,2.349,2.349,0,0,0-2.5-1.962,3.385,3.385,0,0,0-3.259,3.474,2.476,2.476,0,0,0,2.628,2.629,2.826,2.826,0,0,0,2.5-1.458c.036-.054.9.108.9.774a1.654,1.654,0,0,1-.576,1.062,4.335,4.335,0,0,1-2.989,1.117A3.88,3.88,0,0,1,162.959,256.752Z"/><path class="b" d="M172.282,256.752a4.934,4.934,0,0,1,4.9-5.1,3.872,3.872,0,0,1,4.051,4,4.934,4.934,0,0,1-4.9,5.1A3.872,3.872,0,0,1,172.282,256.752Zm7.311-1.026a2.507,2.507,0,0,0-2.486-2.646,3.423,3.423,0,0,0-3.186,3.6,2.508,2.508,0,0,0,2.484,2.648A3.425,3.425,0,0,0,179.593,255.726Z"/><path class="b" d="M185.172,253.278a3.427,3.427,0,0,1,2.9-1.621,2.723,2.723,0,0,1,2.935,2.863,11.393,11.393,0,0,1-.522,2.61,9.73,9.73,0,0,0-.432,1.946c0,.485.252.666.738.719.054,0-.036.9-1.1.9a1.284,1.284,0,0,1-1.421-1.4,10.683,10.683,0,0,1,.45-2.233,9.275,9.275,0,0,0,.431-2.089,1.592,1.592,0,0,0-1.728-1.764,2.855,2.855,0,0,0-2.557,1.728l-1.026,4.825c-.126.63-.378.847-.81.847h-.217c-.467,0-.881-.2-.755-.847l1.674-7.868a.772.772,0,0,1,.451-.09C184.775,251.8,185.352,252.107,185.172,253.278Z"/><path class="b" d="M195.5,258.535l2.034-9.525c.126-.63.36-.846.811-.846h.2c.485,0,.9.2.756.846l-2.017,9.543c-.2.9-.036,1.242.775,1.3.036,0,0,.847-1.117.847C195.628,260.7,195.214,259.868,195.5,258.535Z"/><path class="b" d="M206.16,258.914a3.756,3.756,0,0,1-3.241,1.836,3.317,3.317,0,0,1-3.385-3.62c0-2.718,2.017-5.473,4.843-5.473a3.161,3.161,0,0,1,2.935,1.675c.252-1.117.648-1.531,1.4-1.531a.862.862,0,0,1,.648.216l-1.386,6.536c-.2.9-.037,1.225.7,1.3.036,0,0,.847-1.063.847C206.5,260.7,206.052,260.011,206.16,258.914Zm.5-2.539.288-1.351a2.446,2.446,0,0,0-2.467-1.927c-1.98,0-3.186,2-3.186,3.871a2.109,2.109,0,0,0,2.106,2.305A3.5,3.5,0,0,0,206.664,256.375Z"/><path class="b" d="M213.1,259.616a1.357,1.357,0,0,1-.45-.9.932.932,0,0,1,.739-.882,3.573,3.573,0,0,0,2.989,1.566c1.134,0,1.763-.485,1.763-1.206,0-.649-.666-.918-1.763-1.3-1.243-.45-2.575-.973-2.575-2.539s1.314-2.7,3.367-2.7a4.225,4.225,0,0,1,3.007,1.062,1.248,1.248,0,0,1,.45.9c0,.684-.757.954-.811.864a3.1,3.1,0,0,0-2.665-1.477c-1.116,0-1.674.559-1.674,1.171,0,.684.72.972,1.872,1.4,1.279.467,2.576.99,2.576,2.466,0,1.62-1.279,2.7-3.476,2.7A4.859,4.859,0,0,1,213.1,259.616Z"/><path class="b" d="M221.313,257.149a5.372,5.372,0,0,1,5.457-5.492c2.07,0,3.258.972,3.258,2.394,0,1.747-1.152,2.81-5.023,2.81-.631,0-1.3-.036-2.071-.09v.323a2.145,2.145,0,0,0,2.377,2.287,3.223,3.223,0,0,0,2.772-1.35c.036-.054.811.126.811.738a1.134,1.134,0,0,1-.432.9,4.311,4.311,0,0,1-3.188,1.081C222.646,260.75,221.313,259.219,221.313,257.149Zm1.909-1.621a13.7,13.7,0,0,0,1.621.091c2.808,0,3.564-.721,3.564-1.513,0-.576-.557-1.116-1.71-1.116A3.839,3.839,0,0,0,223.222,255.528Z"/><path class="b" d="M230.728,263.018a1.762,1.762,0,0,1-.612-1.206c0-.9.972-1.17,1.008-1.08a3.075,3.075,0,0,0,5.87-.666l.252-1.225a3.6,3.6,0,0,1-3.025,1.548,3.477,3.477,0,0,1-3.511-3.744,4.965,4.965,0,0,1,4.771-4.988,3.25,3.25,0,0,1,2.954,1.657c.252-1.1.647-1.513,1.4-1.513a.862.862,0,0,1,.648.216l-1.728,8.139c-.559,2.574-2.035,3.979-4.772,3.979A4.427,4.427,0,0,1,230.728,263.018Zm7.04-6.59.306-1.44a2.417,2.417,0,0,0-2.467-1.872,3.329,3.329,0,0,0-3.151,3.421,2.247,2.247,0,0,0,2.233,2.413A3.171,3.171,0,0,0,237.768,256.428Z"/><path class="b" d="M247.217,259.093a3.392,3.392,0,0,1-2.917,1.657c-2.25,0-3.259-1.621-2.755-3.979l.864-4.124c.145-.647.379-.846.829-.846h.2c.468,0,.9.18.756.846l-.864,4.105c-.324,1.441.252,2.45,1.6,2.45a2.892,2.892,0,0,0,2.574-1.729l1.026-4.826c.126-.647.361-.846.811-.846h.2c.485,0,.9.18.756.846l-1.242,5.906c-.2.9-.036,1.225.7,1.3.036,0,0,.847-1.063.847A1.334,1.334,0,0,1,247.217,259.093Z"/><path class="b" d="M254.146,253.278a3.428,3.428,0,0,1,2.9-1.621,2.722,2.722,0,0,1,2.934,2.863,11.382,11.382,0,0,1-.521,2.61,9.752,9.752,0,0,0-.433,1.946c0,.485.252.666.739.719.053,0-.036.9-1.1.9a1.284,1.284,0,0,1-1.422-1.4,10.684,10.684,0,0,1,.45-2.233,9.289,9.289,0,0,0,.432-2.089,1.592,1.592,0,0,0-1.729-1.764,2.854,2.854,0,0,0-2.556,1.728l-1.027,4.825c-.126.63-.377.847-.809.847h-.217c-.468,0-.882-.2-.756-.847l1.675-7.868a.767.767,0,0,1,.45-.09C253.75,251.8,254.326,252.107,254.146,253.278Z"/><path class="b" d="M267.863,259.04a3.534,3.534,0,0,1-6.553-2.072c0-2.7,1.872-5.311,4.645-5.311a3.39,3.39,0,0,1,3.061,1.675l.936-4.322c.126-.63.36-.846.811-.846h.2c.485,0,.9.2.756.846l-2.017,9.543c-.216.9-.036,1.225.7,1.3.036,0,0,.847-1.062.847A1.36,1.36,0,0,1,267.863,259.04Zm.487-2.522.306-1.44A2.5,2.5,0,0,0,266.1,253.1c-1.962,0-3.043,1.891-3.043,3.728a2.243,2.243,0,0,0,2.215,2.448A3.265,3.265,0,0,0,268.35,256.518Z"/><path class="b" d="M278.466,258.914a3.756,3.756,0,0,1-3.241,1.836,3.317,3.317,0,0,1-3.385-3.62c0-2.718,2.016-5.473,4.843-5.473a3.162,3.162,0,0,1,2.935,1.675c.252-1.117.648-1.531,1.4-1.531a.863.863,0,0,1,.649.216l-1.387,6.536c-.2.9-.036,1.225.7,1.3.036,0,0,.847-1.062.847C278.808,260.7,278.357,260.011,278.466,258.914Zm.5-2.539.288-1.351a2.448,2.448,0,0,0-2.467-1.927c-1.98,0-3.187,2-3.187,3.871a2.11,2.11,0,0,0,2.107,2.305A3.5,3.5,0,0,0,278.97,256.375Z"/><path class="b" d="M285.447,256.752a5.069,5.069,0,0,1,4.934-5.1,4.107,4.107,0,0,1,3.043,1.1,2.162,2.162,0,0,1,.7,1.441.949.949,0,0,1-1.189.918,2.348,2.348,0,0,0-2.5-1.962,3.384,3.384,0,0,0-3.259,3.474,2.476,2.476,0,0,0,2.629,2.629,2.826,2.826,0,0,0,2.5-1.458c.036-.054.9.108.9.774a1.649,1.649,0,0,1-.576,1.062,4.328,4.328,0,0,1-2.988,1.117A3.881,3.881,0,0,1,285.447,256.752Z"/><path class="b" d="M300.8,259.093a3.392,3.392,0,0,1-2.917,1.657c-2.25,0-3.259-1.621-2.755-3.979l.864-4.124c.145-.647.379-.846.829-.846h.2c.469,0,.9.18.757.846l-.864,4.105c-.324,1.441.252,2.45,1.6,2.45a2.892,2.892,0,0,0,2.574-1.729l1.026-4.826c.126-.647.361-.846.811-.846h.2c.485,0,.9.18.756.846l-1.242,5.906c-.2.9-.036,1.225.7,1.3.036,0,0,.847-1.063.847A1.334,1.334,0,0,1,300.8,259.093Z"/><path class="b" d="M304.815,256.752a4.933,4.933,0,0,1,4.9-5.1,3.873,3.873,0,0,1,4.051,4,4.934,4.934,0,0,1-4.9,5.1A3.872,3.872,0,0,1,304.815,256.752Zm7.31-1.026a2.507,2.507,0,0,0-2.484-2.646,3.424,3.424,0,0,0-3.188,3.6,2.509,2.509,0,0,0,2.485,2.648A3.425,3.425,0,0,0,312.125,255.726Z"/><path class="b" d="M315.488,257.544l.883-4.212h-.6c-.45,0-.7-.163-.7-.468a1.316,1.316,0,0,1,.288-.811.8.8,0,0,1,.63-.179h.685l.144-.7c.216-1.061.613-1.475,1.368-1.475.378,0,.684.162.666.216l-.414,1.963H320.3c.468,0,.721.162.721.449a1.5,1.5,0,0,1-.288.829.8.8,0,0,1-.631.18h-1.981l-.9,4.176c-.27,1.315.144,1.837.99,1.837a1.634,1.634,0,0,0,1.135-.5c.054-.036.342.235.342.649a1.019,1.019,0,0,1-.342.756,2.274,2.274,0,0,1-1.6.522C315.957,260.768,315.038,259.652,315.488,257.544Z"/><path class="b" d="M327.785,258.914a3.756,3.756,0,0,1-3.241,1.836,3.317,3.317,0,0,1-3.385-3.62c0-2.718,2.017-5.473,4.843-5.473a3.161,3.161,0,0,1,2.935,1.675c.252-1.117.648-1.531,1.4-1.531a.862.862,0,0,1,.648.216l-1.386,6.536c-.2.9-.037,1.225.7,1.3.036,0,0,.847-1.063.847C328.127,260.7,327.677,260.011,327.785,258.914Zm.5-2.539.288-1.351a2.446,2.446,0,0,0-2.467-1.927c-1.98,0-3.186,2-3.186,3.871a2.109,2.109,0,0,0,2.106,2.305A3.5,3.5,0,0,0,328.289,256.375Z"/><path class="b" d="M346.488,259.292a9.614,9.614,0,0,1,.45-2.233,10.148,10.148,0,0,0,.415-2.089,1.576,1.576,0,0,0-1.585-1.764,2.765,2.765,0,0,0-2.449,1.548l-1.045,5.005c-.143.649-.45.847-.918.847h-.179c-.469,0-.829-.181-.685-.847l.864-4.14c.306-1.423-.324-2.413-1.476-2.413a2.728,2.728,0,0,0-2.431,1.566l-1.062,4.987c-.126.666-.45.847-.9.847h-.2c-.469,0-.81-.2-.685-.847l1.675-7.868a.77.77,0,0,1,.45-.09c.576,0,1.117.288.991,1.351a3.422,3.422,0,0,1,2.808-1.495,2.575,2.575,0,0,1,2.611,1.873,3.766,3.766,0,0,1,3.258-1.873,2.718,2.718,0,0,1,2.81,2.863,12.191,12.191,0,0,1-.505,2.61,9.781,9.781,0,0,0-.431,1.946c0,.485.251.666.738.719.036,0-.036.9-1.116.9A1.279,1.279,0,0,1,346.488,259.292Z"/><path class="b" d="M350.408,257.149a5.371,5.371,0,0,1,5.455-5.492c2.072,0,3.26.972,3.26,2.394,0,1.747-1.152,2.81-5.023,2.81-.631,0-1.3-.036-2.072-.09v.323a2.145,2.145,0,0,0,2.377,2.287,3.225,3.225,0,0,0,2.773-1.35c.036-.054.81.126.81.738a1.13,1.13,0,0,1-.431.9,4.311,4.311,0,0,1-3.188,1.081C351.74,260.75,350.408,259.219,350.408,257.149Zm1.908-1.621a13.726,13.726,0,0,0,1.621.091c2.809,0,3.565-.721,3.565-1.513,0-.576-.558-1.116-1.71-1.116A3.841,3.841,0,0,0,352.316,255.528Z"/><path class="b" d="M362.668,253.278a3.427,3.427,0,0,1,2.9-1.621,2.723,2.723,0,0,1,2.935,2.863,11.338,11.338,0,0,1-.522,2.61,9.8,9.8,0,0,0-.432,1.946c0,.485.252.666.738.719.054,0-.036.9-1.1.9a1.284,1.284,0,0,1-1.422-1.4,10.684,10.684,0,0,1,.45-2.233,9.274,9.274,0,0,0,.431-2.089,1.592,1.592,0,0,0-1.728-1.764,2.855,2.855,0,0,0-2.557,1.728l-1.026,4.825c-.126.63-.378.847-.81.847h-.216c-.468,0-.882-.2-.756-.847l1.675-7.868a.765.765,0,0,1,.45-.09C362.271,251.8,362.848,252.107,362.668,253.278Z"/><path class="b" d="M369.7,259.616a1.357,1.357,0,0,1-.45-.9.931.931,0,0,1,.738-.882,3.574,3.574,0,0,0,2.989,1.566c1.134,0,1.764-.485,1.764-1.206,0-.649-.666-.918-1.764-1.3-1.243-.45-2.575-.973-2.575-2.539s1.315-2.7,3.367-2.7a4.223,4.223,0,0,1,3.007,1.062,1.244,1.244,0,0,1,.45.9c0,.684-.756.954-.81.864a3.1,3.1,0,0,0-2.665-1.477c-1.116,0-1.674.559-1.674,1.171,0,.684.72.972,1.872,1.4,1.278.467,2.575.99,2.575,2.466,0,1.62-1.278,2.7-3.475,2.7A4.859,4.859,0,0,1,369.7,259.616Z"/><path class="b" d="M384.016,259.093a3.392,3.392,0,0,1-2.917,1.657c-2.25,0-3.259-1.621-2.755-3.979l.864-4.124c.145-.647.379-.846.829-.846h.2c.469,0,.9.18.757.846l-.864,4.105c-.324,1.441.252,2.45,1.6,2.45a2.892,2.892,0,0,0,2.575-1.729l1.026-4.826c.126-.647.36-.846.811-.846h.2c.485,0,.9.18.756.846l-1.242,5.906c-.2.9-.037,1.225.7,1.3.036,0,0,.847-1.063.847A1.334,1.334,0,0,1,384.016,259.093Z"/><path class="b" d="M394.654,258.914a3.755,3.755,0,0,1-3.241,1.836,3.317,3.317,0,0,1-3.385-3.62c0-2.718,2.017-5.473,4.843-5.473a3.163,3.163,0,0,1,2.936,1.675c.252-1.117.647-1.531,1.4-1.531a.862.862,0,0,1,.648.216l-1.386,6.536c-.2.9-.036,1.225.7,1.3.036,0,0,.847-1.063.847C395,260.7,394.546,260.011,394.654,258.914Zm.5-2.539.288-1.351a2.446,2.446,0,0,0-2.467-1.927c-1.98,0-3.186,2-3.186,3.871a2.109,2.109,0,0,0,2.106,2.305A3.5,3.5,0,0,0,395.158,256.375Z"/><path class="b" d="M398.774,258.535l2.035-9.525c.126-.63.36-.846.81-.846h.2c.486,0,.9.2.756.846l-2.016,9.543c-.2.9-.036,1.242.774,1.3.036,0,0,.847-1.116.847C398.9,260.7,398.486,259.868,398.774,258.535Z"/></g></g></g></g></svg>