<svg xmlns="http://www.w3.org/2000/svg" width="319.494" height="124.915" viewBox="0 0 319.494 124.915"><defs><style>.a{fill:#cbdbf2;}.b{fill:#fff;}.c{fill:#ea0f8f;}.d{fill:#0855c4;}.e{fill:#00b4ff;}.f{opacity:0.171;}.g{fill:#d2f1ff;}.h{fill:#ea0f90;}</style></defs><g transform="translate(-941.291 -533.085)"><g transform="translate(-4013.757 324.524)"><rect class="a" width="319.494" height="104.902" rx="6" transform="translate(4955.048 228.574)"/><circle class="b" cx="34.943" cy="34.943" r="34.943" transform="translate(4972.509 250.458)"/><rect class="c" width="168.64" height="41" rx="12" transform="translate(5059.048 208.561)"/><rect class="d" width="3.998" height="11.995" transform="translate(5013.511 265.309) rotate(-74.991)"/><rect class="d" width="4.999" height="3.998" transform="translate(5016.597 269.24) rotate(-74.991)"/><rect class="d" width="3.321" height="3.996" transform="translate(5027.653 275.239) rotate(-29.968)"/><circle class="b" cx="13.993" cy="13.993" r="13.993" transform="translate(5000.395 271.212)"/><path class="e" d="M5014.362,305.193a19.965,19.965,0,0,1-5.146-.677h0a19.992,19.992,0,1,1,24.485-14.137h0A20.063,20.063,0,0,1,5014.362,305.193Zm-4.114-4.542a15.993,15.993,0,1,0-9.709-7.45A15.992,15.992,0,0,0,5010.248,300.651Z"/><g class="f"><path class="e" d="M5011.284,296.79a11.994,11.994,0,0,1,6.209-23.171,2,2,0,0,1-1.035,3.862,8,8,0,0,0-4.139,15.448,2,2,0,1,1-.924,3.892c-.037-.009-.074-.019-.111-.03Z"/></g><path class="g" d="M5017.517,294.917a2.019,2.019,0,0,1,.77-2.74h0a1.979,1.979,0,0,1,2.69.77l.01.02h0a1.979,1.979,0,0,1-.742,2.7l0,0h0l-.015.009h0a1.953,1.953,0,0,1-1.476.2h0A2.038,2.038,0,0,1,5017.517,294.917Zm4.6-7.641a1.992,1.992,0,0,1,2.429-1.4h0a2,2,0,0,1,1.433,2.437h0a2.008,2.008,0,0,1-2.454,1.429h-.014a2,2,0,0,1-1.4-2.46h0Z"/><circle class="d" cx="1.999" cy="1.999" r="1.999" transform="translate(5012.39 283.207)"/><path class="d" d="M5014.391,285.2a1,1,0,0,1-.707-1.224l2.587-9.655a1,1,0,0,1,1.931.518l-2.587,9.655A1,1,0,0,1,5014.391,285.2Z"/><path class="h" d="M4983.651,276.143h10.212a1.655,1.655,0,0,1,1.655,1.655h0a1.655,1.655,0,0,1-1.655,1.655h-10.212A1.655,1.655,0,0,1,4982,277.8h0a1.655,1.655,0,0,1,1.655-1.655Z"/><path class="h" d="M4977.3,282.355h11.706a1.655,1.655,0,0,1,1.655,1.655h0a1.655,1.655,0,0,1-1.655,1.655H4977.3a1.655,1.655,0,0,1-1.655-1.655h0a1.655,1.655,0,0,1,1.655-1.655Z"/><path class="h" d="M4984,288.852h8.8a1.655,1.655,0,0,1,1.655,1.655h0a1.655,1.655,0,0,1-1.655,1.655H4984a1.655,1.655,0,0,1-1.655-1.655h0a1.655,1.655,0,0,1,1.655-1.655Z"/><g transform="translate(0 5)"><path class="b" d="M5071.98,231.165a1.453,1.453,0,0,1,.8-1.188,3.6,3.6,0,0,0,2.762,1.43c1.1,0,1.69-.466,1.69-1.27,0-.932-.931-1.076-2.019-1.349-1.488-.37-3-1.013-3-3.134,0-1.928,1.388-3.213,3.621-3.213s3.321,1.012,3.321,1.9a1.515,1.515,0,0,1-.845,1.237,3.194,3.194,0,0,0-2.462-1.286c-1.016,0-1.6.482-1.6,1.237,0,.9.83.98,1.975,1.269,1.675.418,3.135,1.205,3.135,3.165,0,2.073-1.346,3.294-3.793,3.294C5073.1,233.254,5071.98,232.113,5071.98,231.165Z" transform="translate(0 -3.056)"/><path class="b" d="M5080.251,227.855c0-3.165,2-5.414,4.78-5.414,2.806,0,4.767,2.233,4.767,5.4,0,3.181-1.976,5.415-4.781,5.415S5080.251,231.037,5080.251,227.855Zm7.457,0c0-1.96-1.1-3.325-2.691-3.325s-2.662,1.317-2.662,3.309c0,1.96,1.088,3.31,2.676,3.31S5087.708,229.815,5087.708,227.855Z" transform="translate(0 -3.056)"/><path class="b" d="M5096.008,232.2l-1.976-2.8h-.8v2.683c0,.675-.316,1.077-.916,1.077h-.3c-.572,0-.888-.466-.888-1.3v-7.841c0-.835.415-1.317,1.1-1.317h2.733c2.4,0,3.649,1.125,3.649,3.246a2.839,2.839,0,0,1-2.4,3.085l2.4,3.262c.086.112-.314.868-1.216.868C5096.795,233.164,5096.451,232.874,5096.008,232.2Zm-2.806-4.531h1.617c1.131,0,1.675-.595,1.675-1.559,0-1.012-.572-1.558-1.717-1.558H5093.2Z" transform="translate(0 -3.14)"/><path class="b" d="M5099.255,223.749v-.065a.876.876,0,0,1,.973-.98h6.284a.87.87,0,0,1,.973.98v.065c0,.675-.33,1.028-.973,1.028h-2.076v7.311c0,.707-.329,1.077-.93,1.077h-.3c-.587,0-.873-.37-.873-1.077v-7.311h-2.1A.9.9,0,0,1,5099.255,223.749Z" transform="translate(0 -3.14)"/><path class="b" d="M5108.528,231.8v-7.777c0-.835.416-1.317,1.1-1.317h5.167a.882.882,0,0,1,.973,1v.081a.869.869,0,0,1-.973,1h-4.151v2.057h3.034c.687,0,.973.337.973.916v.064a.853.853,0,0,1-.973.964h-3.034v2.265h4.222c.658,0,.973.321.973.932v.1a.9.9,0,0,1-.973,1.028h-5.238C5108.944,233.1,5108.528,232.634,5108.528,231.8Z" transform="translate(0 -3.13)"/><path class="b" d="M5116.628,227.855c0-3.165,2-5.414,4.78-5.414,2.806,0,4.767,2.233,4.767,5.4,0,3.181-1.976,5.415-4.781,5.415S5116.628,231.037,5116.628,227.855Zm7.457,0c0-1.96-1.1-3.325-2.691-3.325s-2.662,1.317-2.662,3.309c0,1.96,1.087,3.31,2.676,3.31S5124.085,229.815,5124.085,227.855Z" transform="translate(0 -3.056)"/><path class="b" d="M5136.124,229.1a2.155,2.155,0,0,1,1.336-1.716,6.32,6.32,0,0,0,4.6,2.063c1.837,0,2.814-.672,2.814-1.831,0-1.344-1.551-1.553-3.363-1.947-2.481-.533-5.008-1.46-5.008-4.52,0-2.781,2.313-4.635,6.033-4.635s5.533,1.46,5.533,2.735a2.253,2.253,0,0,1-1.407,1.784,5.61,5.61,0,0,0-4.1-1.854c-1.694,0-2.671.7-2.671,1.785,0,1.3,1.383,1.413,3.291,1.831,2.79.6,5.222,1.738,5.222,4.566,0,2.99-2.241,4.752-6.32,4.752C5137.985,232.116,5136.124,230.47,5136.124,229.1Z"/><path class="b" d="M5149,233.777a3.053,3.053,0,0,1,.19-.89l5.749-16.163a1.548,1.548,0,0,1,.714-.106c.693,0,1.718.17,1.718,1.187a3.3,3.3,0,0,1-.191.89l-5.724,16.163a1.729,1.729,0,0,1-.715.105C5150.029,234.963,5149,234.794,5149,233.777Z" transform="translate(0 -0.021)"/><path class="b" d="M5165.628,230.426v-9.361a2.353,2.353,0,0,1-1.359.416,1.964,1.964,0,0,1-2.147-1.919,1.632,1.632,0,0,1,.93-1.617,2.265,2.265,0,0,0,1.455.508,2.011,2.011,0,0,0,2.027-1.733h1.026a1.386,1.386,0,0,1,1.55,1.571v12.134a1.386,1.386,0,0,1-1.55,1.571h-.43A1.372,1.372,0,0,1,5165.628,230.426Z" transform="translate(0 -0.042)"/><path class="b" d="M5175.025,223.034a8.225,8.225,0,0,1,2.814-.508c3.434,0,5.7,1.8,5.7,4.736,0,3.027-2.385,4.945-6.271,4.945-3.626,0-5.748-1.548-5.748-2.911a1.928,1.928,0,0,1,1.43-1.618,5.209,5.209,0,0,0,4.27,2.01c1.979,0,3.195-.947,3.195-2.426,0-1.525-1.1-2.4-3.076-2.4a5.149,5.149,0,0,0-3.2.924c-1.36-.046-2.074-.624-2.074-1.987v-4.945c0-1.2.547-1.895,1.693-1.895h7.488c1.1,0,1.646.439,1.646,1.341v.115c0,.9-.525,1.317-1.646,1.317h-6.224Z" transform="translate(0 -0.091)"/><path class="b" d="M5185.066,225.07v-1.483c0-4.334,2.576-7.069,6.773-7.069s6.749,2.712,6.749,7.046v1.483c0,4.334-2.552,7.069-6.773,7.069S5185.066,229.428,5185.066,225.07Zm9.993.208v-1.923c0-2.642-1.169-4.1-3.244-4.1s-3.2,1.413-3.2,4.079v1.923c0,2.642,1.145,4.079,3.22,4.079S5195.059,227.9,5195.059,225.279Z"/><path class="b" d="M5200.4,225.07v-1.483c0-4.334,2.576-7.069,6.773-7.069s6.749,2.712,6.749,7.046v1.483c0,4.334-2.552,7.069-6.773,7.069S5200.4,229.428,5200.4,225.07Zm9.993.208v-1.923c0-2.642-1.169-4.1-3.244-4.1s-3.2,1.413-3.2,4.079v1.923c0,2.642,1.145,4.079,3.22,4.079S5210.4,227.9,5210.4,225.279Z"/></g></g></g></svg>