<svg xmlns="http://www.w3.org/2000/svg" width="351.035" height="124.915" viewBox="0 0 351.035 124.915"><defs><style>.a{fill:#cbdbf2;}.b{fill:#fff;}.c{fill:#ea0f8f;}.d{fill:#0855c4;}.e{fill:#00b4ff;}.f{opacity:0.171;}.g{fill:#d2f1ff;}.h{fill:#ea0f90;}</style></defs><g transform="translate(-916.75 -629.085)"><path class="a" d="M14.453,0l14.553,32.04-29-.053Z" transform="matrix(0.017, -1, 1, 0.017, 916.747, 715.46)"/><g transform="translate(-4006.757 420.524)"><rect class="a" width="319.494" height="104.902" rx="6" transform="translate(4955.048 228.574)"/><circle class="b" cx="34.943" cy="34.943" r="34.943" transform="translate(4972.509 250.458)"/><rect class="c" width="168.64" height="41" rx="12" transform="translate(5059.048 208.561)"/><rect class="d" width="3.998" height="11.995" transform="translate(5013.511 265.309) rotate(-74.991)"/><rect class="d" width="4.999" height="3.998" transform="translate(5016.597 269.24) rotate(-74.991)"/><rect class="d" width="3.321" height="3.996" transform="translate(5027.653 275.239) rotate(-29.968)"/><circle class="b" cx="13.993" cy="13.993" r="13.993" transform="translate(5000.395 271.212)"/><path class="e" d="M5014.362,305.193a19.965,19.965,0,0,1-5.146-.677h0a19.992,19.992,0,1,1,24.485-14.137h0A20.063,20.063,0,0,1,5014.362,305.193Zm-4.114-4.542a15.993,15.993,0,1,0-9.709-7.45A15.992,15.992,0,0,0,5010.248,300.651Z"/><g class="f"><path class="e" d="M5011.284,296.79a11.994,11.994,0,0,1,6.209-23.171,2,2,0,0,1-1.035,3.862,8,8,0,0,0-4.139,15.448,2,2,0,1,1-.924,3.892c-.037-.009-.074-.019-.111-.03Z"/></g><path class="g" d="M5017.517,294.917a2.019,2.019,0,0,1,.77-2.74h0a1.979,1.979,0,0,1,2.69.77l.01.02h0a1.979,1.979,0,0,1-.742,2.7l0,0h0l-.015.009h0a1.953,1.953,0,0,1-1.476.2h0A2.038,2.038,0,0,1,5017.517,294.917Zm4.6-7.641a1.992,1.992,0,0,1,2.429-1.4h0a2,2,0,0,1,1.433,2.437h0a2.008,2.008,0,0,1-2.454,1.429h-.014a2,2,0,0,1-1.4-2.46h0Z"/><circle class="d" cx="1.999" cy="1.999" r="1.999" transform="translate(5012.39 283.207)"/><path class="d" d="M5014.391,285.2a1,1,0,0,1-.707-1.224l2.587-9.655a1,1,0,0,1,1.931.518l-2.587,9.655A1,1,0,0,1,5014.391,285.2Z"/><path class="h" d="M4983.651,276.143h10.212a1.655,1.655,0,0,1,1.655,1.655h0a1.655,1.655,0,0,1-1.655,1.655h-10.212A1.655,1.655,0,0,1,4982,277.8h0a1.655,1.655,0,0,1,1.655-1.655Z"/><path class="h" d="M4977.3,282.355h11.706a1.655,1.655,0,0,1,1.655,1.655h0a1.655,1.655,0,0,1-1.655,1.655H4977.3a1.655,1.655,0,0,1-1.655-1.655h0a1.655,1.655,0,0,1,1.655-1.655Z"/><path class="h" d="M4984,288.852h8.8a1.655,1.655,0,0,1,1.655,1.655h0a1.655,1.655,0,0,1-1.655,1.655H4984a1.655,1.655,0,0,1-1.655-1.655h0a1.655,1.655,0,0,1,1.655-1.655Z"/><g transform="translate(0 4)"><path class="b" d="M5071.98,230.013a1.3,1.3,0,0,1,.8-1.031,3.792,3.792,0,0,0,2.762,1.241c1.1,0,1.69-.4,1.69-1.1,0-.809-.931-.934-2.019-1.171-1.488-.321-3-.879-3-2.72,0-1.673,1.388-2.788,3.621-2.788s3.321.878,3.321,1.645a1.355,1.355,0,0,1-.845,1.074,3.361,3.361,0,0,0-2.462-1.116c-1.016,0-1.6.418-1.6,1.074,0,.781.83.851,1.975,1.1,1.675.363,3.135,1.046,3.135,2.747,0,1.8-1.346,2.858-3.793,2.858C5073.1,231.825,5071.98,230.835,5071.98,230.013Z" transform="translate(0 -1.853)"/><path class="b" d="M5080.251,227.14a4.774,4.774,0,1,1,4.766,4.686A4.521,4.521,0,0,1,5080.251,227.14Zm7.457,0a2.669,2.669,0,0,0-2.691-2.886,2.879,2.879,0,1,0,2.691,2.886Z" transform="translate(0 -1.853)"/><path class="b" d="M5096.008,230.945l-1.976-2.426h-.8v2.329a.838.838,0,0,1-.916.935h-.3c-.572,0-.888-.4-.888-1.13v-6.805a1.03,1.03,0,0,1,1.1-1.143h2.733c2.4,0,3.649.976,3.649,2.817a2.565,2.565,0,0,1-2.4,2.677l2.4,2.831c.086.1-.314.753-1.216.753A1.6,1.6,0,0,1,5096.008,230.945Zm-2.806-3.932h1.617c1.131,0,1.675-.516,1.675-1.353,0-.878-.572-1.352-1.717-1.352H5093.2Z" transform="translate(0 -1.935)"/><path class="b" d="M5099.255,223.611v-.056c0-.558.344-.851.973-.851h6.284c.643,0,.973.293.973.851v.056c0,.585-.33.892-.973.892h-2.076v6.345a.836.836,0,0,1-.93.935h-.3c-.587,0-.873-.321-.873-.935V224.5h-2.1C5099.6,224.5,5099.255,224.2,5099.255,223.611Z" transform="translate(0 -1.935)"/><path class="b" d="M5108.528,230.6v-6.75a1.03,1.03,0,0,1,1.1-1.143h5.167c.658,0,.973.321.973.864v.07c0,.572-.315.864-.973.864h-4.151v1.785h3.034c.687,0,.973.293.973.8v.056c0,.544-.3.837-.973.837h-3.034v1.966h4.222c.658,0,.973.279.973.809v.084c0,.558-.315.893-.973.893h-5.238A1.02,1.02,0,0,1,5108.528,230.6Z" transform="translate(0 -1.935)"/><path class="b" d="M5116.628,227.14a4.774,4.774,0,1,1,4.766,4.686A4.521,4.521,0,0,1,5116.628,227.14Zm7.457,0a2.669,2.669,0,0,0-2.691-2.886,2.879,2.879,0,1,0,2.691,2.886Z" transform="translate(0 -1.853)"/><path class="b" d="M5136.124,229.134a2.159,2.159,0,0,1,1.336-1.72,6.313,6.313,0,0,0,4.6,2.068c1.837,0,2.814-.674,2.814-1.836,0-1.347-1.551-1.556-3.363-1.951-2.481-.535-5.008-1.464-5.008-4.531,0-2.788,2.313-4.646,6.033-4.646s5.533,1.464,5.533,2.742a2.257,2.257,0,0,1-1.407,1.789,5.6,5.6,0,0,0-4.1-1.859c-1.694,0-2.671.7-2.671,1.789,0,1.3,1.383,1.417,3.291,1.835,2.79.6,5.222,1.743,5.222,4.577,0,3-2.241,4.763-6.32,4.763C5137.985,232.154,5136.124,230.5,5136.124,229.134Z"/><path class="b" d="M5149,235.439a3.631,3.631,0,0,1,.19-.976l5.749-17.728a1.428,1.428,0,0,1,.714-.116c.693,0,1.718.186,1.718,1.3a3.932,3.932,0,0,1-.191.976l-5.724,17.728a1.593,1.593,0,0,1-.715.115C5150.029,236.74,5149,236.554,5149,235.439Z" transform="translate(0 -0.032)"/><path class="b" d="M5165.628,230.5v-9.41a2.345,2.345,0,0,1-1.359.418,1.969,1.969,0,0,1-2.147-1.929,1.641,1.641,0,0,1,.93-1.626,2.257,2.257,0,0,0,1.455.511,2.015,2.015,0,0,0,2.027-1.742h1.026a1.39,1.39,0,0,1,1.55,1.58v12.2a1.39,1.39,0,0,1-1.55,1.58h-.43A1.375,1.375,0,0,1,5165.628,230.5Z" transform="translate(0 -0.064)"/><path class="b" d="M5175.025,223.068a8.184,8.184,0,0,1,2.814-.511c3.434,0,5.7,1.812,5.7,4.763,0,3.044-2.385,4.972-6.271,4.972-3.626,0-5.748-1.556-5.748-2.927a1.933,1.933,0,0,1,1.43-1.626,5.2,5.2,0,0,0,4.27,2.021c1.979,0,3.195-.952,3.195-2.439,0-1.534-1.1-2.416-3.076-2.416a5.129,5.129,0,0,0-3.2.929c-1.36-.047-2.074-.627-2.074-2v-4.972c0-1.208.547-1.905,1.693-1.905h7.488c1.1,0,1.646.442,1.646,1.348v.115c0,.906-.525,1.325-1.646,1.325h-6.224Z" transform="translate(0 -0.137)"/><path class="b" d="M5185.066,225.091V223.6c0-4.345,2.576-7.086,6.773-7.086s6.749,2.718,6.749,7.063v1.487c0,4.345-2.552,7.086-6.773,7.086S5185.066,229.459,5185.066,225.091Zm9.993.209v-1.928c0-2.649-1.169-4.112-3.244-4.112s-3.2,1.417-3.2,4.089v1.928c0,2.649,1.145,4.089,3.22,4.089S5195.059,227.926,5195.059,225.3Z"/><path class="b" d="M5200.4,225.091V223.6c0-4.345,2.576-7.086,6.773-7.086s6.749,2.718,6.749,7.063v1.487c0,4.345-2.552,7.086-6.773,7.086S5200.4,229.459,5200.4,225.091Zm9.993.209v-1.928c0-2.649-1.169-4.112-3.244-4.112s-3.2,1.417-3.2,4.089v1.928c0,2.649,1.145,4.089,3.22,4.089S5210.4,227.926,5210.4,225.3Z"/></g></g></g></svg>
