<svg xmlns="http://www.w3.org/2000/svg" width="290.016" height="124.915" viewBox="0 0 290.016 124.915"><defs><style>.a{fill:#cbdbf2;}.b{fill:#fff;}.c{fill:#ea0f8f;}.d{fill:#0855c4;}.e{fill:#00b4ff;}.f{opacity:0.171;}.g{fill:#d2f1ff;}.h{fill:#ea0f90;}</style></defs><g transform="translate(-514.757 -292.118)"><rect class="a" width="290.016" height="104.902" rx="6" transform="translate(514.757 312.131)"/><circle class="b" cx="34.943" cy="34.943" r="34.943" transform="translate(530.218 334.015)"/><rect class="c" width="159" height="41" rx="12" transform="translate(604.757 292.118)"/><path class="b" d="M615.87,316.261h4.658c.8,0,1.184.256,1.184.768a1.746,1.746,0,0,1-.432,1.089h-6.659a2.231,2.231,0,0,1-.768-1.649,3.205,3.205,0,0,1,.912-2.337,7.216,7.216,0,0,1,3.378-1.569c1.7-.544,2.561-.895,2.561-1.937,0-.751-.592-1.248-1.681-1.248a2.735,2.735,0,0,0-2.529,1.681c-.032.048-1.233-.064-1.233-1.024a2.025,2.025,0,0,1,.641-1.377,4.407,4.407,0,0,1,3.153-1.1c2.449,0,3.874,1.217,3.874,2.978,0,2.257-1.393,3.025-3.986,3.745-1.6.433-2.177.656-2.625,1.121A1.6,1.6,0,0,0,615.87,316.261Z"/><path class="b" d="M628.8,316.757a2.994,2.994,0,0,1-2.657,1.553,3.068,3.068,0,0,1-3.087-3.049,2.957,2.957,0,0,1,.014-.312c0-2.449,1.617-4.834,4.082-4.834a2.992,2.992,0,0,1,2.641,1.407l.736-3.441c.16-.817.464-1.088,1.041-1.088h.239c.609,0,1.153.256.977,1.088l-1.729,8.1c-.208.865-.032,1.185.577,1.3.016.017-.1.8-1.249.8a1.4,1.4,0,0,1-1.585-1.524Zm.369-2.322.239-1.168a1.835,1.835,0,0,0-1.888-1.392c-1.473,0-2.257,1.408-2.257,2.816a1.657,1.657,0,0,0,1.48,1.817c.056.006.112.008.168.009a2.407,2.407,0,0,0,2.258-2.081Z"/><path class="b" d="M638.591,316.677a3.277,3.277,0,0,1-2.817,1.633,2.918,2.918,0,0,1-2.975-2.859,3.009,3.009,0,0,1,.014-.342c0-2.5,1.777-4.993,4.29-4.993a2.745,2.745,0,0,1,2.513,1.407,1.581,1.581,0,0,1,1.648-1.279c.449,0,.8.191.8.27l-1.217,5.667c-.192.865-.032,1.185.576,1.3.017.017-.1.8-1.248.8a1.4,1.4,0,0,1-1.584-1.6Zm.4-2.322.225-1.088a1.783,1.783,0,0,0-1.809-1.392c-1.489,0-2.4,1.488-2.4,2.913a1.577,1.577,0,0,0,1.423,1.721,1.243,1.243,0,0,0,.162.007,2.575,2.575,0,0,0,2.4-2.16Z"/><path class="b" d="M645.694,313.748a6.01,6.01,0,0,1,5.817-6.2h.057a4.436,4.436,0,0,1,3.3,1.137,2.069,2.069,0,0,1,.656,1.312c0,1.233-1.472,1.393-1.553,1.3a2.353,2.353,0,0,0-2.384-1.632,3.628,3.628,0,0,0-3.442,3.806v0a2.539,2.539,0,0,0,2.346,2.716c.093.006.186.008.279.005a2.979,2.979,0,0,0,2.577-1.328c.048-.065,1.169.223,1.169,1.135a1.606,1.606,0,0,1-.56,1.089,4.816,4.816,0,0,1-3.33,1.217C647.614,318.31,645.694,316.549,645.694,313.748Z"/><path class="b" d="M656.285,313.348l.976-4.578c.161-.736.5-1.072,1.169-1.072h.336c.657,0,1.009.384.848,1.12l-.992,4.705c-.368,1.793.256,2.722,1.857,2.722,1.168,0,1.937-.737,2.273-2.337l1.089-5.138c.16-.722.5-1.072,1.167-1.072h.3a.817.817,0,0,1,.864,1.12l-1.136,5.282c-.592,2.833-2.225,4.21-4.8,4.21C657.053,318.31,655.581,316.613,656.285,313.348Z"/><path class="b" d="M666.6,313.732a5.934,5.934,0,0,1,5.683-6.175c.053,0,.106,0,.159,0a4.432,4.432,0,0,1,4.8,4.563,5.947,5.947,0,0,1-5.694,6.189l-.149.005a4.429,4.429,0,0,1-4.787-4.041A4.382,4.382,0,0,1,666.6,313.732Zm8.276-1.457a2.482,2.482,0,0,0-2.3-2.652,2.382,2.382,0,0,0-.28,0,3.687,3.687,0,0,0-3.329,3.953,2.492,2.492,0,0,0,2.577,2.673A3.707,3.707,0,0,0,674.881,312.275Z"/><path class="b" d="M680.11,317.045l1.536-7.218h-2.257c-.656,0-1.007-.273-1.007-.7a1.958,1.958,0,0,1,.383-1.1c.176-.177.4-.257.929-.257h6.979c.64,0,1.008.273,1.008.7a1.885,1.885,0,0,1-.4,1.105c-.177.177-.385.257-.913.257h-2.353l-1.552,7.282c-.161.721-.5,1.073-1.185,1.073h-.32C680.3,318.182,679.95,317.782,680.11,317.045Z"/><path class="b" d="M686.137,317.173a2.327,2.327,0,0,1,.513-1.3l4.529-7.539c.273-.448.593-.671,1.521-.671,1.072,0,1.36.3,1.44.736l1.745,9.059c.033.193-.64.752-1.344.752-.609,0-.977-.351-1.088-1.1l-.3-1.632h-3.777l-1.553,2.753C687.789,318.278,686.137,318.322,686.137,317.173Zm6.883-3.457-.672-3.746-2.161,3.746Z"/><path class="b" d="M707.376,317.173a3.548,3.548,0,0,1-2.818,1.153c-2.721,0-4.385-1.729-4.385-4.514a6.121,6.121,0,0,1,5.964-6.273c.055,0,.11,0,.165,0a5.228,5.228,0,0,1,3.666,1.2,1.9,1.9,0,0,1,.592,1.312c0,1.521-1.888,1.521-1.984,1.41a2.531,2.531,0,0,0-2.177-1.185,3.113,3.113,0,0,0-2.98,3.242l0,.058a2.2,2.2,0,0,0,3.458,1.953,1.8,1.8,0,0,0,.687-.993H706.4c-.736,0-1.121-.352-1.121-.832a2,2,0,0,1,.417-1.2,1.342,1.342,0,0,1,1.056-.321h2.962c.864,0,1.184.464.976,1.457l-.913,4.258a1.341,1.341,0,0,1-.977.3A1.275,1.275,0,0,1,707.376,317.173Z"/><path class="b" d="M718.559,314.388l.576.945c.561.9.865,1.1,1.537,1.2.112.032.112,1.7-1.937,1.7-1.168,0-1.744-.465-2.529-1.985l-.72-1.361h-.608l-.384,1.826c-.208.992-.673,1.488-1.6,1.488h-.432a1.118,1.118,0,0,1-1.168-1.521l1.568-7.331a1.782,1.782,0,0,1,1.952-1.585h2.594c2.833,0,4.193,1.089,4.193,3.106A3.445,3.445,0,0,1,718.559,314.388Zm-1.841-1.776c1.168,0,1.649-.609,1.649-1.409,0-.672-.464-1.025-1.328-1.025h-1.2l-.528,2.434Z"/><path class="b" d="M721.42,316.885a2.828,2.828,0,0,1,.64-1.633l4.082-6.69c.352-.561.784-.9,2.08-.9,1.41,0,1.793.4,1.906.912l1.584,8.611c.048.288-.865,1.057-1.825,1.057-.832,0-1.3-.464-1.44-1.456l-.145-.817h-3.329l-1.248,2.3C723.676,318.341,721.42,318.358,721.42,316.885Zm6.787-3.217-.5-2.977-1.745,2.977Z"/><path class="b" d="M735.021,316.677l1.313-6.131H734.7c-.88,0-1.345-.416-1.345-.993a2.441,2.441,0,0,1,.5-1.424c.24-.24.529-.369,1.265-.369h6.611c.88,0,1.361.4,1.361.993a2.4,2.4,0,0,1-.513,1.424c-.239.24-.528.369-1.264.369h-1.761l-1.312,6.164c-.225.992-.673,1.488-1.6,1.488H736.2C735.309,318.2,734.813,317.654,735.021,316.677Z"/><path class="b" d="M742.4,316.677l1.6-7.539c.224-.992.673-1.457,1.585-1.457h.48a1.1,1.1,0,0,1,1.229.967,1.118,1.118,0,0,1-.076.554l-1.6,7.539c-.208.993-.673,1.457-1.568,1.457h-.481C742.683,318.2,742.187,317.654,742.4,316.677Z"/><path class="b" d="M747.387,317.189a1.9,1.9,0,0,1-.591-1.313,1.73,1.73,0,0,1,1.168-1.536,4.461,4.461,0,0,0,3.185,1.553c.817,0,1.2-.3,1.2-.849,0-.463-.672-.64-1.551-.959-1.217-.465-2.594-1.17-2.594-2.963,0-1.841,1.312-3.584,4.434-3.584a5.023,5.023,0,0,1,3.585,1.1,1.694,1.694,0,0,1,.514,1.184,1.843,1.843,0,0,1-1.281,1.679,3.733,3.733,0,0,0-2.849-1.519c-.816,0-1.232.351-1.232.815,0,.5.752.673,1.728,1.04,1.361.5,2.785,1.2,2.785,2.866,0,2.048-1.44,3.632-4.706,3.632A5.364,5.364,0,0,1,747.387,317.189Z"/><rect class="d" width="3.998" height="11.995" transform="translate(569.22 350.866) rotate(-74.991)"/><rect class="d" width="4.999" height="3.998" transform="translate(572.306 354.797) rotate(-74.991)"/><rect class="d" width="3.321" height="3.996" transform="translate(583.362 360.796) rotate(-29.968)"/><circle class="b" cx="13.993" cy="13.993" r="13.993" transform="translate(556.104 356.769)"/><path class="e" d="M570.071,390.75a19.96,19.96,0,0,1-5.146-.677h0a19.992,19.992,0,1,1,24.485-14.136A20.063,20.063,0,0,1,570.071,390.75Zm-4.114-4.542a15.993,15.993,0,1,0-9.709-7.45A16.039,16.039,0,0,0,565.957,386.208Z"/><g class="f"><path class="e" d="M566.993,382.347a11.994,11.994,0,0,1,6.209-23.171,2,2,0,0,1-1.035,3.862,8,8,0,0,0-4.139,15.448,2,2,0,1,1-.924,3.892q-.055-.014-.111-.03Z"/></g><path class="g" d="M573.226,380.474a2.019,2.019,0,0,1,.77-2.74h0a1.979,1.979,0,0,1,2.69.77l.01.02h0a1.979,1.979,0,0,1-.745,2.7h0l-.015.009h0a1.953,1.953,0,0,1-1.476.2h0A2.035,2.035,0,0,1,573.226,380.474Zm4.6-7.641a1.993,1.993,0,0,1,2.429-1.4h0a2,2,0,0,1,1.433,2.437h0a2.008,2.008,0,0,1-2.454,1.429h-.014a2,2,0,0,1-1.395-2.46h0Z"/><circle class="d" cx="1.999" cy="1.999" r="1.999" transform="translate(568.099 368.764)"/><path class="d" d="M570.1,370.762a1,1,0,0,1-.707-1.224l2.587-9.655a1,1,0,0,1,1.931.518l-2.587,9.655A1,1,0,0,1,570.1,370.762Z"/><path class="h" d="M539.36,361.7h10.212a1.655,1.655,0,0,1,1.655,1.655h0a1.655,1.655,0,0,1-1.655,1.655H539.36a1.655,1.655,0,0,1-1.655-1.655h0A1.655,1.655,0,0,1,539.36,361.7Z"/><path class="h" d="M533.013,367.912h11.706a1.655,1.655,0,0,1,1.655,1.655h0a1.655,1.655,0,0,1-1.655,1.655H533.013a1.655,1.655,0,0,1-1.655-1.655h0A1.655,1.655,0,0,1,533.013,367.912Z"/><path class="h" d="M539.712,374.409h8.8a1.655,1.655,0,0,1,1.655,1.655h0a1.655,1.655,0,0,1-1.655,1.655h-8.8a1.655,1.655,0,0,1-1.655-1.655h0A1.655,1.655,0,0,1,539.712,374.409Z"/></g></svg>