<svg xmlns="http://www.w3.org/2000/svg" width="207.492" height="61.962" viewBox="0 0 207.492 61.962"><defs><style>.a{isolation:isolate;}.b{fill:#0855c4;}.c{fill:#ea0f8f;}.d{fill:#fff;}</style></defs><g transform="translate(-24.999 -69)"><g transform="translate(-545.499 -279.884)"><g class="a"><g class="a"><path class="b" d="M571.108,361.526l2.161-6.361c.26-.56.46-.8.88-.8.66,0,.82.24.84,1.021l-.58,6.481c.02,1.16-.64,1.64-1.68,1.64C571.208,363.507,570.548,362.807,571.108,361.526Zm2.181-9.381a2.254,2.254,0,0,1,.52-1.541,1.528,1.528,0,0,1,1.26-.379c.92,0,1.36.339,1.36,1.04a2.235,2.235,0,0,1-.5,1.54c-.26.26-.54.36-1.28.36C573.749,353.165,573.289,352.845,573.289,352.145Z"/><path class="b" d="M576.888,362.146a2.237,2.237,0,0,1-.74-1.559,1.6,1.6,0,0,1,1.2-1.461,4.747,4.747,0,0,0,4.021,2.161c1.441,0,2.121-.6,2.121-1.6,0-.9-1-1.241-2.3-1.741-1.56-.62-3.281-1.461-3.281-3.7,0-2.181,1.661-4.121,5.061-4.121a5.767,5.767,0,0,1,4.181,1.341,1.966,1.966,0,0,1,.661,1.42,1.642,1.642,0,0,1-1.3,1.54,4.169,4.169,0,0,0-3.6-2c-1.281,0-2.081.66-2.081,1.52,0,.96,1.04,1.3,2.461,1.88,1.68.641,3.4,1.461,3.4,3.562,0,2.42-1.72,4.2-5.341,4.2A6.263,6.263,0,0,1,576.888,362.146Z"/><path class="b" d="M587.948,359.086a5.531,5.531,0,0,1,5.521-5.761,4.35,4.35,0,0,1,4.681,4.481,5.532,5.532,0,0,1-5.521,5.761A4.349,4.349,0,0,1,587.948,359.086Zm7.741-1.16a2.316,2.316,0,0,0-2.3-2.46,3.285,3.285,0,0,0-2.981,3.52,2.312,2.312,0,0,0,2.3,2.441A3.279,3.279,0,0,0,595.689,357.926Z"/><path class="b" d="M599.268,360.826l2.14-10.042c.22-1.019.58-1.36,1.3-1.36h.3c.761,0,1.441.32,1.221,1.36l-2.161,10.122c-.22,1.081-.04,1.5.78,1.621.02.02-.14,1-1.64,1C599.388,363.527,598.928,362.407,599.268,360.826Z"/><path class="b" d="M604.367,359.086a5.532,5.532,0,0,1,5.522-5.761,4.35,4.35,0,0,1,4.68,4.481,5.532,5.532,0,0,1-5.521,5.761A4.349,4.349,0,0,1,604.367,359.086Zm7.742-1.16a2.316,2.316,0,0,0-2.3-2.46,3.285,3.285,0,0,0-2.981,3.52,2.311,2.311,0,0,0,2.3,2.441A3.279,3.279,0,0,0,612.109,357.926Z"/><path class="b" d="M617.907,365.868l2.6-12.2a1.244,1.244,0,0,1,.781-.18,1.494,1.494,0,0,1,1.56,1.76,3.768,3.768,0,0,1,3.3-1.92c2.1,0,3.841,1.5,3.841,4.181,0,3.081-2.02,6.061-5.1,6.061a3.52,3.52,0,0,1-3.261-1.86l-.9,4.161c-.2,1.02-.58,1.36-1.3,1.36h-.3C618.367,367.228,617.687,366.908,617.907,365.868Zm4.681-8.782-.3,1.4a2.2,2.2,0,0,0,2.2,2.861c1.781,0,2.761-1.721,2.761-3.481a2.092,2.092,0,0,0-2.081-2.3A3.18,3.18,0,0,0,622.588,357.086Z"/><path class="b" d="M631.007,359.086a5.531,5.531,0,0,1,5.521-5.761,4.35,4.35,0,0,1,4.681,4.481,5.532,5.532,0,0,1-5.521,5.761A4.349,4.349,0,0,1,631.007,359.086Zm7.742-1.16a2.316,2.316,0,0,0-2.3-2.46,3.286,3.286,0,0,0-2.981,3.52,2.312,2.312,0,0,0,2.3,2.441A3.28,3.28,0,0,0,638.749,357.926Z"/><path class="b" d="M646.088,355.2a2.979,2.979,0,0,1,2.641-1.88c.979,0,1.74.56,1.74,1.38a1.784,1.784,0,0,1-1.261,1.78,1.742,1.742,0,0,0-1.36-.58c-1.26,0-2.06,1.4-2.5,3.461l-.56,2.7c-.22,1-.58,1.341-1.3,1.341h-.3c-.76,0-1.44-.3-1.22-1.341l1.781-8.4a1.24,1.24,0,0,1,.78-.18A1.487,1.487,0,0,1,646.088,355.2Z"/><path class="b" d="M652.827,365.868l2.6-12.2a1.244,1.244,0,0,1,.781-.18,1.494,1.494,0,0,1,1.56,1.76,3.768,3.768,0,0,1,3.3-1.92c2.1,0,3.841,1.5,3.841,4.181,0,3.081-2.02,6.061-5.1,6.061a3.52,3.52,0,0,1-3.261-1.86l-.9,4.161c-.2,1.02-.58,1.36-1.3,1.36h-.3C653.287,367.228,652.606,366.908,652.827,365.868Zm4.681-8.782-.3,1.4a2.2,2.2,0,0,0,2.2,2.861c1.78,0,2.76-1.721,2.76-3.481a2.092,2.092,0,0,0-2.08-2.3A3.18,3.18,0,0,0,657.508,357.086Z"/><path class="b" d="M665.926,359.086a5.532,5.532,0,0,1,5.522-5.761,4.35,4.35,0,0,1,4.68,4.481,5.532,5.532,0,0,1-5.521,5.761A4.35,4.35,0,0,1,665.926,359.086Zm7.742-1.16a2.316,2.316,0,0,0-2.3-2.46,3.285,3.285,0,0,0-2.981,3.52,2.311,2.311,0,0,0,2.3,2.441A3.279,3.279,0,0,0,673.668,357.926Z"/><path class="b" d="M677.066,359.086a5.712,5.712,0,0,1,5.581-5.761,4.706,4.706,0,0,1,3.481,1.22,2.3,2.3,0,0,1,.74,1.581,1.437,1.437,0,0,1-1.8,1.34,2.212,2.212,0,0,0-2.36-1.88,3.168,3.168,0,0,0-3.04,3.28,2.3,2.3,0,0,0,2.46,2.441,2.694,2.694,0,0,0,2.381-1.38c.059-.1,1.32.16,1.32,1.139a1.868,1.868,0,0,1-.66,1.3,4.646,4.646,0,0,1-3.281,1.2C679.066,363.567,677.066,361.927,677.066,359.086Z"/><path class="b" d="M687.386,359.086a5.531,5.531,0,0,1,5.521-5.761,4.35,4.35,0,0,1,4.681,4.481,5.532,5.532,0,0,1-5.521,5.761A4.349,4.349,0,0,1,687.386,359.086Zm7.742-1.16a2.317,2.317,0,0,0-2.3-2.46,3.285,3.285,0,0,0-2.98,3.52,2.311,2.311,0,0,0,2.3,2.441A3.279,3.279,0,0,0,695.128,357.926Z"/><path class="b" d="M698.565,362.287a1.683,1.683,0,0,1-.56-1.141,1.315,1.315,0,0,1,.961-1.24,4.249,4.249,0,0,0,3.261,1.66c.979,0,1.5-.4,1.5-.979,0-.54-.581-.78-1.581-1.141-1.36-.52-2.84-1.1-2.84-2.881,0-1.879,1.46-3.22,3.98-3.22a5.19,5.19,0,0,1,3.6,1.24,1.494,1.494,0,0,1,.48,1.08c0,.94-.98,1.381-1.06,1.28a3.651,3.651,0,0,0-2.92-1.62c-.961,0-1.461.46-1.461.981,0,.56.6.8,1.761,1.24,1.48.56,2.92,1.181,2.92,2.86,0,1.881-1.461,3.141-4.1,3.141A5.627,5.627,0,0,1,698.565,362.287Z"/><path class="b" d="M718.587,361.627a3.738,3.738,0,0,1-3.32,1.94c-2.1,0-3.841-1.52-3.841-4.2,0-3.06,2.02-6.041,5.1-6.041a3.738,3.738,0,0,1,3.3,1.76l.921-4.3c.2-1.019.58-1.36,1.3-1.36h.3c.76,0,1.44.32,1.22,1.36l-2.16,10.122c-.261,1.081-.04,1.481.72,1.621.019.02-.12,1-1.561,1A1.742,1.742,0,0,1,718.587,361.627Zm.46-2.9.3-1.461a2.3,2.3,0,0,0-2.362-1.741c-1.84,0-2.82,1.761-2.82,3.521a2.071,2.071,0,0,0,2.061,2.281A3.005,3.005,0,0,0,719.047,358.727Z"/><path class="b" d="M723.745,360.826l1.28-5.98c.221-1.021.58-1.361,1.3-1.361h.3c.76,0,1.44.3,1.221,1.361l-1.3,6.06c-.22,1.081-.04,1.5.78,1.621.02.02-.139,1-1.64,1C723.865,363.527,723.405,362.407,723.745,360.826Zm4.3-11.641a2.092,2.092,0,0,1,1.081-.3,1.167,1.167,0,0,1,1.2,1.2,1.759,1.759,0,0,1-1.041,1.4c-1.64.921-3.62.881-3.761.641C725.405,351.864,726.686,349.944,728.046,349.185Z"/><path class="b" d="M735.927,361.526a4.092,4.092,0,0,1-3.521,2.041c-2.1,0-3.7-1.48-3.7-4,0-3.121,2.221-6.241,5.361-6.241a3.433,3.433,0,0,1,3.141,1.76,1.98,1.98,0,0,1,2.061-1.6c.56,0,1,.241,1,.34l-1.52,7.081c-.24,1.081-.04,1.481.72,1.621.019.02-.12,1-1.561,1A1.747,1.747,0,0,1,735.927,361.526Zm.5-2.9.28-1.36a2.229,2.229,0,0,0-2.261-1.741c-1.86,0-3,1.861-3,3.641a1.975,1.975,0,0,0,1.981,2.161A3.22,3.22,0,0,0,736.427,358.626Z"/><path class="b" d="M740.885,362.287a1.679,1.679,0,0,1-.56-1.141,1.314,1.314,0,0,1,.96-1.24,4.252,4.252,0,0,0,3.261,1.66c.98,0,1.5-.4,1.5-.979,0-.54-.58-.78-1.58-1.141-1.361-.52-2.841-1.1-2.841-2.881,0-1.879,1.461-3.22,3.981-3.22a5.186,5.186,0,0,1,3.6,1.24,1.494,1.494,0,0,1,.48,1.08c0,.94-.98,1.381-1.06,1.28a3.655,3.655,0,0,0-2.921-1.62c-.96,0-1.46.46-1.46.981,0,.56.6.8,1.76,1.24,1.48.56,2.921,1.181,2.921,2.86,0,1.881-1.46,3.141-4.1,3.141A5.625,5.625,0,0,1,740.885,362.287Z"/><path class="b" d="M750.225,362.447a2.255,2.255,0,0,1,.52-1.541,1.526,1.526,0,0,1,1.261-.38c.92,0,1.359.34,1.359,1.04a2.158,2.158,0,0,1-.519,1.541c-.26.26-.521.36-1.261.36C750.686,363.467,750.225,363.147,750.225,362.447Zm1.461-4.141.559-6.482a1.481,1.481,0,0,1,1.7-1.62c1.521,0,2.181.7,1.621,1.961l-2.18,6.361c-.24.58-.441.8-.88.8C751.865,359.326,751.686,359.106,751.686,358.306Z"/></g><g class="a"><path class="b" d="M570.5,384.652a1.78,1.78,0,0,1,.36-.945l4.62-7.71c.195-.329.4-.479.99-.479.719,0,.915.224.99.57l1.74,8.819c.014.135-.406.48-.87.48-.391,0-.675-.225-.766-.765l-.4-2.144h-3.9l-1.665,2.924C571.563,385.433,570.5,385.492,570.5,384.652Zm6.51-3.42-.75-4.094-2.37,4.094Z"/><path class="b" d="M580.488,384.563a1.132,1.132,0,0,1-.375-.75.777.777,0,0,1,.615-.736,2.977,2.977,0,0,0,2.49,1.3c.945,0,1.469-.4,1.469-1,0-.54-.554-.765-1.469-1.08-1.035-.375-2.145-.81-2.145-2.114s1.094-2.25,2.8-2.25a3.518,3.518,0,0,1,2.505.884,1.035,1.035,0,0,1,.375.75c0,.571-.63.8-.674.72a2.586,2.586,0,0,0-2.22-1.229c-.93,0-1.395.464-1.395.974,0,.571.6.811,1.56,1.17,1.065.391,2.144.825,2.144,2.055,0,1.35-1.065,2.25-2.894,2.25A4.05,4.05,0,0,1,580.488,384.563Z"/><path class="b" d="M587.328,382.507a4.474,4.474,0,0,1,4.545-4.574c1.724,0,2.714.809,2.714,1.995,0,1.454-.96,2.34-4.185,2.34-.525,0-1.079-.031-1.724-.076v.27a1.786,1.786,0,0,0,1.98,1.9,2.685,2.685,0,0,0,2.309-1.125c.031-.045.676.106.676.615a.944.944,0,0,1-.361.75,3.59,3.59,0,0,1-2.655.9C588.437,385.507,587.328,384.232,587.328,382.507Zm1.589-1.35a11.211,11.211,0,0,0,1.351.075c2.339,0,2.969-.6,2.969-1.259,0-.481-.465-.931-1.425-.931A3.2,3.2,0,0,0,588.917,381.157Z"/><path class="b" d="M595.173,387.4a1.464,1.464,0,0,1-.51-1c0-.75.81-.976.84-.9a2.561,2.561,0,0,0,4.89-.554l.21-1.021a3,3,0,0,1-2.52,1.29,2.9,2.9,0,0,1-2.925-3.12,4.136,4.136,0,0,1,3.974-4.154,2.7,2.7,0,0,1,2.46,1.38c.21-.916.54-1.26,1.17-1.26a.724.724,0,0,1,.54.179l-1.44,6.78a4.154,4.154,0,0,1-6.689,2.385Zm5.865-5.49.254-1.2a2.015,2.015,0,0,0-2.054-1.56,2.774,2.774,0,0,0-2.625,2.85,1.871,1.871,0,0,0,1.86,2.01A2.64,2.64,0,0,0,601.038,381.907Z"/><path class="b" d="M608.913,384.127a2.827,2.827,0,0,1-2.431,1.38c-1.875,0-2.714-1.35-2.295-3.315l.721-3.434c.119-.54.315-.7.69-.7h.165c.389,0,.75.149.63.7l-.721,3.42c-.27,1.2.21,2.039,1.335,2.039a2.407,2.407,0,0,0,2.145-1.44l.855-4.019c.1-.54.3-.7.675-.7h.165c.405,0,.75.149.631.7l-1.036,4.919c-.165.75-.029,1.02.585,1.08.03,0,0,.705-.884.705A1.111,1.111,0,0,1,608.913,384.127Z"/><path class="b" d="M614.673,379.327a2.21,2.21,0,0,1,1.979-1.394c.631,0,1.156.314,1.156.825a.946.946,0,0,1-.645.96,1.178,1.178,0,0,0-.96-.4c-1.065,0-1.77,1.274-2.145,3.075l-.48,2.3c-.1.524-.315.7-.675.7h-.18c-.39,0-.735-.165-.63-.7l1.395-6.555a.639.639,0,0,1,.375-.075C614.357,378.053,614.837,378.322,614.673,379.327Z"/><path class="b" d="M623.357,383.978a3.13,3.13,0,0,1-2.7,1.529,2.764,2.764,0,0,1-2.82-3.015c0-2.264,1.68-4.559,4.035-4.559a2.635,2.635,0,0,1,2.445,1.394c.21-.93.54-1.274,1.17-1.274a.724.724,0,0,1,.54.179l-1.155,5.445c-.165.75-.03,1.02.585,1.08.03,0,0,.705-.885.705C623.642,385.462,623.267,384.893,623.357,383.978Zm.42-2.116.24-1.125a2.038,2.038,0,0,0-2.055-1.6c-1.65,0-2.655,1.664-2.655,3.224a1.757,1.757,0,0,0,1.755,1.92A2.913,2.913,0,0,0,623.777,381.862Z"/><path class="b" d="M629.913,382.837l.734-3.51h-.495c-.375,0-.585-.135-.585-.389a1.091,1.091,0,0,1,.241-.675.66.66,0,0,1,.525-.151h.569l.12-.585c.18-.884.51-1.229,1.14-1.229.316,0,.57.135.555.18l-.344,1.634h1.544c.39,0,.6.135.6.375a1.242,1.242,0,0,1-.24.691.669.669,0,0,1-.525.149H632.1l-.75,3.481c-.226,1.094.119,1.529.824,1.529a1.361,1.361,0,0,0,.945-.42c.045-.029.285.2.285.54a.846.846,0,0,1-.285.63,1.889,1.889,0,0,1-1.335.435C630.3,385.522,629.538,384.592,629.913,382.837Z"/><path class="b" d="M639.722,384.127a2.824,2.824,0,0,1-2.43,1.38c-1.875,0-2.715-1.35-2.295-3.315l.72-3.434c.12-.54.315-.7.69-.7h.165c.39,0,.75.149.63.7l-.72,3.42c-.27,1.2.21,2.039,1.335,2.039a2.408,2.408,0,0,0,2.145-1.44l.855-4.019c.1-.54.3-.7.675-.7h.165c.405,0,.75.149.63.7l-1.035,4.919c-.165.75-.03,1.02.585,1.08.03,0,0,.705-.885.705A1.111,1.111,0,0,1,639.722,384.127Z"/><path class="b" d="M651.137,383.978a3.13,3.13,0,0,1-2.7,1.529,2.763,2.763,0,0,1-2.819-3.015c0-2.264,1.679-4.559,4.034-4.559a2.635,2.635,0,0,1,2.445,1.394c.21-.93.54-1.274,1.17-1.274a.724.724,0,0,1,.54.179l-1.155,5.445c-.165.75-.029,1.02.585,1.08.03,0,0,.705-.884.705C651.422,385.462,651.047,384.893,651.137,383.978Zm.42-2.116.24-1.125a2.037,2.037,0,0,0-2.054-1.6c-1.651,0-2.656,1.664-2.656,3.224a1.757,1.757,0,0,0,1.755,1.92A2.911,2.911,0,0,0,651.557,381.862Z"/><path class="b" d="M659.462,384.127a2.824,2.824,0,0,1-2.43,1.38c-1.875,0-2.715-1.35-2.295-3.315l.721-3.434c.119-.54.314-.7.689-.7h.165c.39,0,.75.149.63.7l-.72,3.42c-.27,1.2.21,2.039,1.335,2.039a2.408,2.408,0,0,0,2.145-1.44l.855-4.019c.1-.54.3-.7.675-.7h.165c.405,0,.75.149.63.7l-1.035,4.919c-.165.75-.03,1.02.585,1.08.03,0,0,.705-.885.705A1.111,1.111,0,0,1,659.462,384.127Z"/><path class="b" d="M663.513,382.837l.735-3.51h-.5c-.375,0-.585-.135-.585-.389a1.091,1.091,0,0,1,.241-.675.66.66,0,0,1,.525-.151h.569l.121-.585c.179-.884.509-1.229,1.139-1.229.316,0,.571.135.555.18l-.345,1.634h1.546c.389,0,.6.135.6.375a1.243,1.243,0,0,1-.24.691.668.668,0,0,1-.524.149H665.7l-.75,3.481c-.225,1.094.119,1.529.824,1.529a1.361,1.361,0,0,0,.945-.42c.046-.029.285.2.285.54a.846.846,0,0,1-.285.63,1.889,1.889,0,0,1-1.335.435C663.9,385.522,663.138,384.592,663.513,382.837Z"/><path class="b" d="M668.237,382.178a4.109,4.109,0,0,1,4.08-4.245,3.225,3.225,0,0,1,3.375,3.33,4.11,4.11,0,0,1-4.08,4.244A3.226,3.226,0,0,1,668.237,382.178Zm6.09-.856a2.09,2.09,0,0,0-2.07-2.2,2.853,2.853,0,0,0-2.655,3,2.089,2.089,0,0,0,2.07,2.2A2.853,2.853,0,0,0,674.327,381.322Z"/><path class="b" d="M679.067,382.178a4.223,4.223,0,0,1,4.11-4.245,3.419,3.419,0,0,1,2.535.915,1.8,1.8,0,0,1,.585,1.2.791.791,0,0,1-.99.765,1.956,1.956,0,0,0-2.085-1.635,2.819,2.819,0,0,0-2.715,2.894,2.063,2.063,0,0,0,2.19,2.19,2.35,2.35,0,0,0,2.084-1.215c.031-.045.75.091.75.645a1.381,1.381,0,0,1-.479.885,3.612,3.612,0,0,1-2.49.93A3.232,3.232,0,0,1,679.067,382.178Z"/><path class="b" d="M686.837,382.178a4.109,4.109,0,0,1,4.079-4.245,3.225,3.225,0,0,1,3.375,3.33,4.11,4.11,0,0,1-4.079,4.244A3.225,3.225,0,0,1,686.837,382.178Zm6.09-.856a2.091,2.091,0,0,0-2.071-2.2,2.854,2.854,0,0,0-2.655,3,2.089,2.089,0,0,0,2.07,2.2A2.854,2.854,0,0,0,692.927,381.322Z"/><path class="b" d="M697.576,379.282a2.857,2.857,0,0,1,2.415-1.349,2.268,2.268,0,0,1,2.446,2.384,9.482,9.482,0,0,1-.436,2.175,8.153,8.153,0,0,0-.359,1.62c0,.406.21.555.615.6.045,0-.03.75-.915.75a1.071,1.071,0,0,1-1.186-1.17,8.889,8.889,0,0,1,.375-1.859,7.756,7.756,0,0,0,.361-1.741,1.326,1.326,0,0,0-1.441-1.469,2.379,2.379,0,0,0-2.13,1.439l-.854,4.021c-.106.524-.316.7-.675.7h-.181c-.389,0-.734-.165-.63-.7l1.4-6.555a.642.642,0,0,1,.375-.075C697.246,378.053,697.727,378.308,697.576,379.282Z"/><path class="b" d="M706.187,383.662l1.7-7.934c.1-.526.3-.706.675-.706h.165c.4,0,.75.166.63.706l-1.681,7.949c-.164.75-.029,1.035.645,1.08.031,0,0,.705-.929.705C706.291,385.462,705.946,384.772,706.187,383.662Z"/><path class="b" d="M715.065,383.978a3.127,3.127,0,0,1-2.7,1.529,2.764,2.764,0,0,1-2.82-3.015c0-2.264,1.68-4.559,4.035-4.559a2.635,2.635,0,0,1,2.444,1.394c.21-.93.54-1.274,1.17-1.274a.722.722,0,0,1,.54.179l-1.154,5.445c-.165.75-.03,1.02.585,1.08.029,0,0,.705-.885.705C715.351,385.462,714.976,384.893,715.065,383.978Zm.42-2.116.241-1.125a2.038,2.038,0,0,0-2.055-1.6c-1.65,0-2.655,1.664-2.655,3.224a1.757,1.757,0,0,0,1.755,1.92A2.911,2.911,0,0,0,715.485,381.862Z"/><path class="b" d="M720.856,384.563a1.132,1.132,0,0,1-.375-.75.777.777,0,0,1,.615-.736,2.977,2.977,0,0,0,2.49,1.3c.945,0,1.47-.4,1.47-1,0-.54-.555-.765-1.47-1.08-1.035-.375-2.145-.81-2.145-2.114s1.1-2.25,2.8-2.25a3.521,3.521,0,0,1,2.505.884,1.038,1.038,0,0,1,.375.75c0,.571-.63.8-.675.72a2.586,2.586,0,0,0-2.22-1.229c-.93,0-1.4.464-1.4.974,0,.571.6.811,1.56,1.17,1.065.391,2.145.825,2.145,2.055,0,1.35-1.065,2.25-2.9,2.25A4.05,4.05,0,0,1,720.856,384.563Z"/><path class="b" d="M727.7,382.507a4.474,4.474,0,0,1,4.545-4.574c1.725,0,2.715.809,2.715,1.995,0,1.454-.96,2.34-4.185,2.34-.525,0-1.08-.031-1.725-.076v.27a1.786,1.786,0,0,0,1.98,1.9,2.687,2.687,0,0,0,2.31-1.125c.03-.045.675.106.675.615a.941.941,0,0,1-.361.75,3.587,3.587,0,0,1-2.654.9C728.806,385.507,727.7,384.232,727.7,382.507Zm1.59-1.35a11.2,11.2,0,0,0,1.35.075c2.34,0,2.969-.6,2.969-1.259,0-.481-.464-.931-1.424-.931A3.2,3.2,0,0,0,729.286,381.157Z"/><path class="b" d="M735.541,387.4a1.468,1.468,0,0,1-.51-1c0-.75.81-.976.84-.9a2.561,2.561,0,0,0,4.89-.554l.21-1.021a3,3,0,0,1-2.52,1.29,2.9,2.9,0,0,1-2.925-3.12,4.136,4.136,0,0,1,3.975-4.154,2.707,2.707,0,0,1,2.46,1.38c.21-.916.54-1.26,1.17-1.26a.724.724,0,0,1,.54.179l-1.441,6.78a4.154,4.154,0,0,1-6.689,2.385Zm5.865-5.49.255-1.2a2.015,2.015,0,0,0-2.056-1.56,2.774,2.774,0,0,0-2.624,2.85,1.871,1.871,0,0,0,1.86,2.01A2.64,2.64,0,0,0,741.406,381.907Z"/><path class="b" d="M749.281,384.127a2.824,2.824,0,0,1-2.43,1.38c-1.875,0-2.715-1.35-2.295-3.315l.72-3.434c.12-.54.315-.7.69-.7h.165c.39,0,.75.149.63.7l-.72,3.42c-.27,1.2.21,2.039,1.335,2.039a2.408,2.408,0,0,0,2.145-1.44l.855-4.019c.1-.54.3-.7.675-.7h.165c.4,0,.75.149.63.7l-1.035,4.919c-.165.75-.031,1.02.585,1.08.03,0,0,.705-.885.705A1.111,1.111,0,0,1,749.281,384.127Z"/><path class="b" d="M755.056,379.282a2.854,2.854,0,0,1,2.415-1.349,2.267,2.267,0,0,1,2.444,2.384,9.418,9.418,0,0,1-.435,2.175,8.251,8.251,0,0,0-.36,1.62c0,.406.21.555.615.6.045,0-.03.75-.915.75a1.07,1.07,0,0,1-1.184-1.17,8.893,8.893,0,0,1,.375-1.859,7.727,7.727,0,0,0,.359-1.741,1.325,1.325,0,0,0-1.439-1.469,2.379,2.379,0,0,0-2.13,1.439l-.856,4.021c-.1.524-.314.7-.674.7h-.18c-.391,0-.736-.165-.63-.7l1.394-6.555a.645.645,0,0,1,.375-.075C754.726,378.053,755.205,378.308,755.056,379.282Z"/><path class="b" d="M766.485,384.082a2.945,2.945,0,0,1-5.46-1.725c0-2.25,1.561-4.424,3.871-4.424a2.822,2.822,0,0,1,2.549,1.394l.781-3.6c.1-.526.3-.706.674-.706h.165c.406,0,.75.166.63.706l-1.679,7.949c-.181.75-.031,1.02.585,1.08.029,0,0,.705-.885.705A1.133,1.133,0,0,1,766.485,384.082Zm.406-2.1.255-1.2a2.083,2.083,0,0,0-2.13-1.649c-1.635,0-2.536,1.574-2.536,3.1a1.87,1.87,0,0,0,1.845,2.04A2.72,2.72,0,0,0,766.891,381.982Z"/><path class="b" d="M775.32,383.978a3.13,3.13,0,0,1-2.7,1.529,2.763,2.763,0,0,1-2.819-3.015c0-2.264,1.679-4.559,4.034-4.559a2.635,2.635,0,0,1,2.445,1.394c.21-.93.54-1.274,1.17-1.274a.724.724,0,0,1,.54.179l-1.155,5.445c-.165.75-.03,1.02.585,1.08.03,0,0,.705-.885.705C775.6,385.462,775.23,384.893,775.32,383.978Zm.42-2.116.24-1.125a2.036,2.036,0,0,0-2.055-1.6c-1.65,0-2.654,1.664-2.654,3.224a1.757,1.757,0,0,0,1.754,1.92A2.911,2.911,0,0,0,775.74,381.862Z"/></g><g class="a"><path class="b" d="M571.053,401.178a4.223,4.223,0,0,1,4.11-4.245,3.419,3.419,0,0,1,2.535.915,1.791,1.791,0,0,1,.585,1.2.791.791,0,0,1-.991.765,1.954,1.954,0,0,0-2.084-1.635,2.819,2.819,0,0,0-2.715,2.894,2.063,2.063,0,0,0,2.19,2.19,2.353,2.353,0,0,0,2.085-1.215c.03-.045.75.091.75.645a1.378,1.378,0,0,1-.48.885,3.612,3.612,0,0,1-2.49.93A3.232,3.232,0,0,1,571.053,401.178Z"/><path class="b" d="M583.848,403.127a2.827,2.827,0,0,1-2.431,1.38c-1.875,0-2.714-1.35-2.294-3.315l.72-3.434c.119-.54.315-.7.69-.7h.165c.389,0,.75.149.63.7l-.721,3.42c-.27,1.2.21,2.039,1.335,2.039a2.407,2.407,0,0,0,2.145-1.44l.855-4.019c.1-.54.3-.7.675-.7h.165c.405,0,.75.149.631.7l-1.036,4.919c-.165.75-.03,1.02.585,1.08.03,0,0,.705-.884.705A1.111,1.111,0,0,1,583.848,403.127Z"/><path class="b" d="M587.193,401.178a4.109,4.109,0,0,1,4.079-4.245,3.225,3.225,0,0,1,3.375,3.33,4.109,4.109,0,0,1-4.079,4.244A3.226,3.226,0,0,1,587.193,401.178Zm6.09-.856a2.09,2.09,0,0,0-2.071-2.2,2.853,2.853,0,0,0-2.654,3,2.088,2.088,0,0,0,2.069,2.2A2.853,2.853,0,0,0,593.283,400.322Z"/><path class="b" d="M596.088,401.837l.735-3.51h-.495c-.375,0-.585-.135-.585-.389a1.09,1.09,0,0,1,.24-.675.661.661,0,0,1,.525-.151h.57l.12-.585c.179-.884.51-1.229,1.139-1.229.316,0,.571.135.556.18l-.346,1.634h1.546c.389,0,.6.135.6.375a1.241,1.241,0,0,1-.239.691.671.671,0,0,1-.525.149h-1.65l-.75,3.481c-.225,1.094.119,1.529.825,1.529a1.358,1.358,0,0,0,.944-.42c.046-.029.286.2.286.54a.844.844,0,0,1-.286.63,1.887,1.887,0,0,1-1.335.435C596.478,404.522,595.713,403.592,596.088,401.837Z"/><path class="b" d="M606.332,402.978a3.13,3.13,0,0,1-2.7,1.529,2.764,2.764,0,0,1-2.82-3.015c0-2.264,1.68-4.559,4.035-4.559a2.635,2.635,0,0,1,2.445,1.394c.21-.93.54-1.274,1.17-1.274a.724.724,0,0,1,.54.179l-1.155,5.445c-.165.75-.03,1.02.585,1.08.03,0,0,.705-.885.705C606.617,404.462,606.242,403.893,606.332,402.978Zm.42-2.116.24-1.125a2.038,2.038,0,0,0-2.055-1.6c-1.65,0-2.655,1.664-2.655,3.224a1.757,1.757,0,0,0,1.755,1.92A2.913,2.913,0,0,0,606.752,400.862Z"/><path class="b" d="M621.917,403.292a8,8,0,0,1,.375-1.859,8.444,8.444,0,0,0,.345-1.741,1.312,1.312,0,0,0-1.32-1.469,2.3,2.3,0,0,0-2.04,1.29l-.87,4.17c-.12.539-.375.7-.765.7h-.15c-.389,0-.69-.15-.57-.7l.72-3.451c.255-1.184-.269-2.009-1.229-2.009a2.272,2.272,0,0,0-2.026,1.3l-.885,4.156c-.105.554-.375.7-.75.7h-.165c-.389,0-.674-.165-.569-.7l1.4-6.555a.639.639,0,0,1,.375-.075c.48,0,.929.239.824,1.125a2.852,2.852,0,0,1,2.34-1.245,2.145,2.145,0,0,1,2.175,1.559,3.138,3.138,0,0,1,2.715-1.559,2.263,2.263,0,0,1,2.34,2.384,10.18,10.18,0,0,1-.42,2.175,8.175,8.175,0,0,0-.36,1.62c0,.406.21.555.615.6.03,0-.03.75-.93.75A1.066,1.066,0,0,1,621.917,403.292Z"/><path class="b" d="M625.187,401.507a4.475,4.475,0,0,1,4.545-4.574c1.725,0,2.715.809,2.715,1.995,0,1.454-.96,2.34-4.185,2.34-.525,0-1.079-.031-1.724-.076v.27a1.786,1.786,0,0,0,1.98,1.9,2.686,2.686,0,0,0,2.309-1.125c.03-.045.675.106.675.615a.943.943,0,0,1-.36.75,3.591,3.591,0,0,1-2.655.9C626.3,404.507,625.187,403.232,625.187,401.507Zm1.59-1.35a11.207,11.207,0,0,0,1.35.075c2.34,0,2.97-.6,2.97-1.259,0-.481-.465-.931-1.425-.931A3.2,3.2,0,0,0,626.777,400.157Z"/><path class="b" d="M635.4,398.282a2.857,2.857,0,0,1,2.415-1.349,2.268,2.268,0,0,1,2.445,2.384,9.474,9.474,0,0,1-.435,2.175,8.175,8.175,0,0,0-.36,1.62c0,.406.21.555.616.6.044,0-.031.75-.916.75a1.07,1.07,0,0,1-1.185-1.17,8.889,8.889,0,0,1,.375-1.859,7.741,7.741,0,0,0,.36-1.741,1.325,1.325,0,0,0-1.44-1.469,2.38,2.38,0,0,0-2.13,1.439l-.855,4.021c-.1.524-.314.7-.674.7h-.181c-.39,0-.734-.165-.629-.7l1.4-6.555a.639.639,0,0,1,.375-.075C635.072,397.053,635.552,397.308,635.4,398.282Z"/><path class="b" d="M641.267,403.563a1.132,1.132,0,0,1-.375-.75.777.777,0,0,1,.615-.736,2.977,2.977,0,0,0,2.49,1.3c.945,0,1.47-.4,1.47-1,0-.54-.555-.765-1.47-1.08-1.035-.375-2.145-.81-2.145-2.114s1.1-2.25,2.8-2.25a3.521,3.521,0,0,1,2.505.884,1.038,1.038,0,0,1,.375.75c0,.571-.63.8-.675.72a2.586,2.586,0,0,0-2.22-1.229c-.93,0-1.4.464-1.4.974,0,.571.6.811,1.56,1.17,1.065.391,2.145.825,2.145,2.055,0,1.35-1.065,2.25-2.9,2.25A4.05,4.05,0,0,1,641.267,403.563Z"/><path class="b" d="M653.192,403.127a2.824,2.824,0,0,1-2.43,1.38c-1.875,0-2.715-1.35-2.3-3.315l.72-3.434c.12-.54.315-.7.69-.7h.165c.39,0,.75.149.63.7l-.72,3.42c-.27,1.2.21,2.039,1.335,2.039a2.408,2.408,0,0,0,2.145-1.44l.855-4.019c.105-.54.3-.7.674-.7h.165c.406,0,.75.149.631.7l-1.035,4.919c-.165.75-.03,1.02.585,1.08.029,0,0,.705-.885.705A1.111,1.111,0,0,1,653.192,403.127Z"/><path class="b" d="M662.057,402.978a3.13,3.13,0,0,1-2.7,1.529,2.764,2.764,0,0,1-2.82-3.015c0-2.264,1.68-4.559,4.035-4.559a2.635,2.635,0,0,1,2.445,1.394c.21-.93.54-1.274,1.17-1.274a.724.724,0,0,1,.54.179l-1.155,5.445c-.165.75-.03,1.02.585,1.08.03,0,0,.705-.885.705C662.342,404.462,661.967,403.893,662.057,402.978Zm.42-2.116.24-1.125a2.038,2.038,0,0,0-2.055-1.6c-1.65,0-2.655,1.664-2.655,3.224a1.757,1.757,0,0,0,1.755,1.92A2.913,2.913,0,0,0,662.477,400.862Z"/><path class="b" d="M665.492,402.662l1.7-7.934c.1-.526.3-.706.675-.706h.165c.405,0,.75.166.63.706l-1.68,7.949c-.165.75-.03,1.035.645,1.08.03,0,0,.705-.93.705C665.6,404.462,665.252,403.772,665.492,402.662Z"/></g></g><path class="c" d="M739.175,410.846H678.741c-3.139,0-5.53-3.411-5.028-7.171l1.053-7.883c.4-2.993,2.53-5.192,5.028-5.192h60.252c3.082,0,5.458,3.3,5.049,7l-.871,7.883C743.885,408.555,741.727,410.846,739.175,410.846Z"/><g class="a"><g class="a"><path class="d" d="M689.083,404.079a3.486,3.486,0,0,1-2.716,1.125,3.9,3.9,0,0,1-4.215-4.184,5.719,5.719,0,0,1,5.641-5.895,4.667,4.667,0,0,1,3.3,1.125,1.7,1.7,0,0,1,.554,1.154c0,1.111-1.335,1.111-1.394,1.035a2.636,2.636,0,0,0-2.415-1.424,3.6,3.6,0,0,0-3.42,3.825,2.4,2.4,0,0,0,2.519,2.67,2.432,2.432,0,0,0,2.55-2.115h-1.755c-.524,0-.809-.225-.809-.571a1.591,1.591,0,0,1,.314-.9.933.933,0,0,1,.736-.21h2.88c.674,0,.929.345.764,1.08l-.87,4.109c-.015.061-.269.18-.644.18A.918.918,0,0,1,689.083,404.079Z"/><path class="d" d="M698.308,401.319l.839,1.425c.5.825.781,1.08,1.44,1.141.075.014.105,1.229-1.38,1.229-.869,0-1.35-.344-2.069-1.694l-1.021-1.846h-.9l-.526,2.505c-.149.676-.464,1.005-1.109,1.005h-.3c-.6,0-.944-.375-.795-1.064l1.606-7.56a1.279,1.279,0,0,1,1.38-1.141h2.415c2.415,0,3.644.946,3.644,2.7A3.2,3.2,0,0,1,698.308,401.319Zm-.975-1.364c1.3,0,1.949-.676,1.949-1.71,0-.78-.569-1.2-1.635-1.2h-1.5l-.615,2.91Z"/><path class="d" d="M701.428,404.14a2.173,2.173,0,0,1,.479-1.215l4.245-7.066c.255-.42.555-.63,1.425-.63,1,0,1.276.286,1.351.691l1.634,8.489c.03.181-.6.705-1.259.705-.571,0-.915-.33-1.021-1.035L708,402.55h-3.54L703,405.13C702.973,405.175,701.428,405.22,701.428,404.14Zm6.449-3.241-.63-3.509-2.024,3.509Z"/><path class="d" d="M713.562,404.02l1.44-6.765h-2.114c-.616,0-.946-.255-.946-.66a1.829,1.829,0,0,1,.361-1.035c.165-.165.375-.241.869-.241h6.54c.6,0,.945.256.945.66a1.758,1.758,0,0,1-.375,1.036c-.165.165-.36.24-.855.24h-2.205l-1.454,6.824c-.151.676-.466,1.005-1.111,1.005h-.3C713.742,405.084,713.412,404.709,713.562,404.02Z"/><path class="d" d="M720.178,404.02l1.649-7.755c.165-.69.465-1.005,1.1-1.005h.329c.6,0,.945.375.8,1.065l-1.651,7.754c-.15.7-.464,1.005-1.094,1.005h-.316C720.372,405.084,720.027,404.709,720.178,404.02Z"/><path class="d" d="M724.468,404.14a1.68,1.68,0,0,1-.555-1.17,1.2,1.2,0,0,1,.9-1.1,3.559,3.559,0,0,0,3.015,1.619c1.08,0,1.59-.449,1.59-1.2,0-.676-.75-.931-1.725-1.306-1.17-.465-2.46-1.094-2.46-2.774,0-1.635,1.246-3.09,3.795-3.09a4.323,4.323,0,0,1,3.135,1.005,1.47,1.47,0,0,1,.495,1.064,1.232,1.232,0,0,1-.974,1.156,3.129,3.129,0,0,0-2.7-1.5c-.96,0-1.559.495-1.559,1.139,0,.721.779.976,1.845,1.41,1.259.481,2.549,1.1,2.549,2.67,0,1.816-1.29,3.151-4.005,3.151A4.7,4.7,0,0,1,724.468,404.14Z"/></g></g></g></g></svg>