<svg xmlns="http://www.w3.org/2000/svg" width="319.494" height="124.915" viewBox="0 0 319.494 124.915"><defs><style>.a{fill:#cbdbf2;}.b{fill:#fff;}.c{fill:#ea0f8f;}.d{fill:#0855c4;}.e{fill:#00b4ff;}.f{opacity:0.171;}.g{fill:#d2f1ff;}.h{fill:#ea0f90;}</style></defs><g transform="translate(-941.291 -533.085)"><g transform="translate(-4013.757 324.524)"><rect class="a" width="319.494" height="104.902" rx="6" transform="translate(4955.048 228.574)"/><circle class="b" cx="34.943" cy="34.943" r="34.943" transform="translate(4972.509 250.458)"/><rect class="c" width="168.64" height="41" rx="12" transform="translate(5059.048 208.561)"/><rect class="d" width="3.998" height="11.995" transform="translate(5013.511 265.309) rotate(-74.991)"/><rect class="d" width="4.999" height="3.998" transform="translate(5016.597 269.24) rotate(-74.991)"/><rect class="d" width="3.321" height="3.996" transform="translate(5027.653 275.239) rotate(-29.968)"/><circle class="b" cx="13.993" cy="13.993" r="13.993" transform="translate(5000.395 271.212)"/><path class="e" d="M5014.362,305.193a19.965,19.965,0,0,1-5.146-.677h0a19.992,19.992,0,1,1,24.485-14.137h0A20.063,20.063,0,0,1,5014.362,305.193Zm-4.114-4.542a15.993,15.993,0,1,0-9.709-7.45A15.992,15.992,0,0,0,5010.248,300.651Z"/><g class="f"><path class="e" d="M5011.284,296.79a11.994,11.994,0,0,1,6.209-23.171,2,2,0,0,1-1.035,3.862,8,8,0,0,0-4.139,15.448,2,2,0,1,1-.924,3.892c-.037-.009-.074-.019-.111-.03Z"/></g><path class="g" d="M5017.517,294.917a2.019,2.019,0,0,1,.77-2.74h0a1.979,1.979,0,0,1,2.69.77l.01.02h0a1.979,1.979,0,0,1-.742,2.7l0,0h0l-.015.009h0a1.953,1.953,0,0,1-1.476.2h0A2.038,2.038,0,0,1,5017.517,294.917Zm4.6-7.641a1.992,1.992,0,0,1,2.429-1.4h0a2,2,0,0,1,1.433,2.437h0a2.008,2.008,0,0,1-2.454,1.429h-.014a2,2,0,0,1-1.4-2.46h0Z"/><circle class="d" cx="1.999" cy="1.999" r="1.999" transform="translate(5012.39 283.207)"/><path class="d" d="M5014.391,285.2a1,1,0,0,1-.707-1.224l2.587-9.655a1,1,0,0,1,1.931.518l-2.587,9.655A1,1,0,0,1,5014.391,285.2Z"/><path class="h" d="M4983.651,276.143h10.212a1.655,1.655,0,0,1,1.655,1.655h0a1.655,1.655,0,0,1-1.655,1.655h-10.212A1.655,1.655,0,0,1,4982,277.8h0a1.655,1.655,0,0,1,1.655-1.655Z"/><path class="h" d="M4977.3,282.355h11.706a1.655,1.655,0,0,1,1.655,1.655h0a1.655,1.655,0,0,1-1.655,1.655H4977.3a1.655,1.655,0,0,1-1.655-1.655h0a1.655,1.655,0,0,1,1.655-1.655Z"/><path class="h" d="M4984,288.852h8.8a1.655,1.655,0,0,1,1.655,1.655h0a1.655,1.655,0,0,1-1.655,1.655H4984a1.655,1.655,0,0,1-1.655-1.655h0a1.655,1.655,0,0,1,1.655-1.655Z"/><path class="b" d="M5071.98,233.46a1.846,1.846,0,0,1,.8-1.5,3.456,3.456,0,0,0,2.762,1.806,1.49,1.49,0,0,0,1.69-1.6c0-1.177-.931-1.359-2.019-1.7a3.7,3.7,0,0,1-3-3.958c0-2.435,1.388-4.058,3.621-4.058s3.321,1.278,3.321,2.394a1.914,1.914,0,0,1-.845,1.563,3.064,3.064,0,0,0-2.462-1.624,1.461,1.461,0,0,0-1.6,1.563c0,1.136.83,1.238,1.975,1.6,1.675.528,3.135,1.522,3.135,4,0,2.618-1.346,4.16-3.793,4.16C5073.1,236.1,5071.98,234.657,5071.98,233.46Z"/><path class="b" d="M5080.251,229.279c0-4,2-6.838,4.78-6.838,2.806,0,4.767,2.82,4.767,6.818,0,4.018-1.976,6.839-4.781,6.839S5080.251,233.3,5080.251,229.279Zm7.457,0c0-2.475-1.1-4.2-2.691-4.2s-2.662,1.664-2.662,4.18c0,2.476,1.088,4.181,2.676,4.181S5087.708,231.755,5087.708,229.279Z"/><path class="b" d="M5096.008,234.7l-1.976-3.531h-.8v3.389c0,.852-.316,1.36-.916,1.36h-.3c-.572,0-.888-.589-.888-1.644v-9.9c0-1.055.415-1.664,1.1-1.664h2.733c2.4,0,3.649,1.421,3.649,4.1,0,2.11-.843,3.531-2.4,3.9l2.4,4.12a1.232,1.232,0,0,1-1.216,1.1C5096.795,235.916,5096.451,235.55,5096.008,234.7Zm-2.806-5.723h1.617c1.131,0,1.675-.751,1.675-1.969,0-1.278-.572-1.968-1.717-1.968H5093.2Z"/><path class="b" d="M5099.255,224.024v-.082c0-.812.344-1.238.973-1.238h6.284c.643,0,.973.426.973,1.238v.082c0,.852-.33,1.3-.973,1.3h-2.076v9.234c0,.893-.329,1.36-.93,1.36h-.3c-.587,0-.873-.467-.873-1.36v-9.234h-2.1C5099.6,225.322,5099.255,224.876,5099.255,224.024Z"/><path class="b" d="M5108.528,234.191v-9.823c0-1.055.416-1.664,1.1-1.664h5.167c.658,0,.973.467.973,1.258v.1c0,.832-.315,1.258-.973,1.258h-4.151v2.6h3.034c.687,0,.973.426.973,1.157v.081c0,.791-.3,1.218-.973,1.218h-3.034v2.861h4.222c.658,0,.973.406.973,1.177v.122c0,.812-.315,1.3-.973,1.3h-5.238C5108.944,235.835,5108.528,235.246,5108.528,234.191Z"/><path class="b" d="M5116.628,229.279c0-4,2-6.838,4.78-6.838,2.806,0,4.767,2.82,4.767,6.818,0,4.018-1.976,6.839-4.781,6.839S5116.628,233.3,5116.628,229.279Zm7.457,0c0-2.475-1.1-4.2-2.691-4.2s-2.662,1.664-2.662,4.18c0,2.476,1.087,4.181,2.676,4.181S5124.085,231.755,5124.085,229.279Z"/><path class="b" d="M5136.124,234.879a3.077,3.077,0,0,1,1.336-2.5,5.754,5.754,0,0,0,4.6,3.01,2.481,2.481,0,0,0,2.814-2.672c0-1.961-1.551-2.265-3.363-2.84-2.481-.778-5.008-2.13-5.008-6.594,0-4.057,2.313-6.762,6.033-6.762s5.533,2.13,5.533,3.99a3.187,3.187,0,0,1-1.407,2.6,5.109,5.109,0,0,0-4.1-2.7,2.433,2.433,0,0,0-2.671,2.6c0,1.893,1.383,2.062,3.291,2.671,2.79.879,5.222,2.536,5.222,6.661,0,4.362-2.241,6.932-6.32,6.932C5137.985,239.274,5136.124,236.873,5136.124,234.879Z"/><path class="b" d="M5149,244.008a7.464,7.464,0,0,1,.19-1.42l5.749-25.8c0-.067.334-.169.714-.169.693,0,1.718.271,1.718,1.894a8.084,8.084,0,0,1-.191,1.42l-5.724,25.8a1.172,1.172,0,0,1-.715.168C5150.029,245.9,5149,245.631,5149,244.008Z"/><path class="b" d="M5165.628,236.772v-13.7a1.881,1.881,0,0,1-1.359.609c-1.241,0-2.147-1.15-2.147-2.807s.834-2.434.93-2.366a1.882,1.882,0,0,0,1.455.743c1.025,0,1.86-1.014,2.027-2.535h1.026c1.025,0,1.55.777,1.55,2.3v17.752c0,1.522-.525,2.3-1.55,2.3h-.43C5166.152,239.071,5165.628,238.294,5165.628,236.772Z"/><path class="b" d="M5175.025,225.85a5.977,5.977,0,0,1,2.814-.743c3.434,0,5.7,2.637,5.7,6.931,0,4.43-2.385,7.236-6.271,7.236-3.626,0-5.748-2.265-5.748-4.26,0-1.488,1.335-2.536,1.43-2.367a4.834,4.834,0,0,0,4.27,2.941c1.979,0,3.195-1.386,3.195-3.55,0-2.232-1.1-3.516-3.076-3.516a4.123,4.123,0,0,0-3.2,1.352c-1.36-.068-2.074-.913-2.074-2.908V219.73c0-1.758.547-2.773,1.693-2.773h7.488c1.1,0,1.646.643,1.646,1.962v.168c0,1.319-.525,1.928-1.646,1.928h-6.224Z"/><path class="b" d="M5185.066,228.995v-2.164c0-6.323,2.576-10.313,6.773-10.313s6.749,3.956,6.749,10.279v2.164c0,6.323-2.552,10.313-6.773,10.313S5185.066,235.352,5185.066,228.995Zm9.993.3v-2.806c0-3.855-1.169-5.985-3.244-5.985s-3.2,2.062-3.2,5.951v2.806c0,3.855,1.145,5.951,3.22,5.951S5195.059,233.12,5195.059,229.3Z"/><path class="b" d="M5200.4,228.995v-2.164c0-6.323,2.576-10.313,6.773-10.313s6.749,3.956,6.749,10.279v2.164c0,6.323-2.552,10.313-6.773,10.313S5200.4,235.352,5200.4,228.995Zm9.993.3v-2.806c0-3.855-1.169-5.985-3.244-5.985s-3.2,2.062-3.2,5.951v2.806c0,3.855,1.145,5.951,3.22,5.951S5210.4,233.12,5210.4,229.3Z"/></g></g></svg>