<?xml version="1.0" encoding="UTF-8"?>
<svg width="37px" height="37px" viewBox="0 0 37 37" version="1.1" xmlns="http://www.w3.org/2000/svg" xmlns:xlink="http://www.w3.org/1999/xlink">
    <!-- Generator: sketchtool 54.1 (76490) - https://sketchapp.com -->
    <title>E299F8F6-E7A5-4CEB-B694-3CADC20EB010</title>
    <desc>Created with sketchtool.</desc>
    <g id="Symbols" stroke="none" stroke-width="1" fill="none" fill-rule="evenodd">
        <g id="Foother-Mobile" transform="translate(-15.000000, -357.000000)" fill="#FFFFFF">
            <g id="Group-4-Copy" transform="translate(15.000000, 357.000000)">
                <g id="Phone-Icon" transform="translate(-0.000000, 0.000000)">
                    <path d="M26.4624036,34.2914376 C24.7116044,34.8680061 22.8442113,34.8680061 21.0927819,34.2914376 C18.7590132,33.4844909 16.5412081,32.3313541 14.673815,30.8320271 C13.0396097,29.6788903 11.4054044,28.2953752 10.0056473,26.9112374 C8.48740569,25.4125331 7.20361231,23.9138288 5.91981894,22.1841236 C4.40283776,20.22404 3.23563829,18.1481447 2.41885075,15.841871 C1.83525101,14.1121657 1.83525101,12.2672713 2.41885075,10.5381887 C2.88585659,8.92367265 4.5200619,6.73258814 6.38682477,6.73258814 L6.62064281,6.73258814 C8.25421789,6.96296645 9.7718293,8.57748254 10.5886168,10.0761868 C10.9390288,10.6533779 11.0556227,11.3445128 10.9390288,11.9217039 C10.705841,12.3824605 10.4720229,12.7286506 10.121611,12.9590289 L9.07163566,11.9217039 C8.72185396,11.5755138 8.13825422,11.5755138 7.78784229,11.9217039 C7.43743035,12.2672713 7.43743035,12.8438398 7.78784229,13.1900299 L8.83781762,14.2273549 C8.72185396,14.3431667 8.72185396,14.3431667 8.60462982,14.4583558 C7.67124839,15.9570601 7.67124839,18.0329555 8.72185396,19.5316598 C10.8224349,22.9910703 13.7398033,25.8739124 17.2414017,27.9491851 C18.7590132,28.9871327 20.7430002,28.9871327 22.3772055,28.0649969 L22.6110235,27.8339959 L23.6609989,28.8719436 C24.0107806,29.2181337 24.5943803,29.2181337 24.9447922,28.8719436 C25.2945739,28.5257535 25.2945739,27.9491851 24.9447922,27.6036176 L23.8948169,26.5656699 C24.1280047,26.2201025 24.4784166,25.9891015 24.9447922,25.7587232 C25.6449859,25.6429114 26.3451795,25.7587232 26.8121853,26.1049133 C28.4457604,26.9112374 30.0799657,28.4105643 30.1971899,30.0250804 C30.3137838,31.985164 28.096609,33.7148692 26.4624036,34.2914376 M27.512379,24.6055864 C26.5789975,24.029018 25.2945739,23.9138288 24.2439684,24.1442071 C23.4278111,24.4903972 22.7269872,24.9517765 22.2606116,25.6429114 C22.0267935,25.9891015 21.6763816,26.2201025 21.3272301,26.5656699 C20.2766246,27.1422383 19.1087949,27.0270492 18.1754134,26.3352916 C16.5412081,25.4125331 15.0242269,24.2593963 13.7398033,22.8758811 C12.339416,21.6075551 11.1722166,20.1082282 10.2388351,18.4937121 C9.53801126,17.5715762 9.53801126,16.3032502 10.0056473,15.3804917 C10.2388351,15.0349243 10.5886168,14.6887342 10.9390288,14.4583558 C11.6392224,13.9969766 12.2228221,13.305219 12.4560099,12.4982723 C12.8064219,11.4603246 12.5732341,10.1919986 11.9896343,9.26924011 C11.0556227,7.42434571 9.18822956,5.349073 6.73723671,5.00288289 C3.70264412,4.77250459 1.48483907,7.88572497 0.668051535,9.84580853 C-0.0321421022,11.9217039 -0.0321421022,14.1121657 0.551457635,16.3032502 C1.36887541,18.8399022 2.65266879,21.1461759 4.40283776,23.2220712 C5.68663114,24.9517765 7.08764865,26.5656699 8.60462982,28.180186 C10.121611,29.6788903 11.7558163,31.0624055 13.5066155,32.3313541 C15.6071964,33.9452475 17.9415954,35.2135735 20.5098124,36.136332 C21.5604179,36.4825221 22.6110235,36.5977113 23.6609989,36.5977113 C24.8281983,36.5977113 25.8781737,36.3667103 26.9287792,36.0211429 C29.0299904,35.3293853 32.1811769,33.0231117 31.8313952,30.0250804 C31.5975771,27.4884285 29.496366,25.6429114 27.512379,24.6055864" id="Fill-1"></path>
                    <path d="M20.7428741,0.0448303735 C18.4091054,0.0448303735 16.1913004,0.506209635 14.0900892,1.42834551 C13.6230834,1.65872382 13.5071197,2.12010308 13.6230834,2.58148234 C13.7403075,3.0428616 14.323277,3.15805076 14.7909131,3.0428616 C22.1438916,-0.186170579 30.6640697,3.0428616 33.9318501,10.1920609 C35.6826493,13.8818497 35.6826493,18.1482069 33.9318501,21.8379957 C33.6986623,22.299375 33.9318501,22.7607542 34.3988559,22.9911325 C34.51608,22.9911325 34.6320437,23.1063217 34.7492678,23.1063217 C35.0990495,23.1063217 35.4494615,22.8759434 35.5660554,22.6449424 C39.1842477,14.5736073 35.6826493,5.23332347 27.5122529,1.54353467 C25.2950781,0.621398789 23.0772731,0.160019528 20.7428741,0.0448303735" id="Fill-3"></path>
                    <path d="M29.846904,18.378772 L29.9641281,18.378772 C30.4305037,18.378772 30.7802854,18.0325819 30.7802854,17.6870144 C30.8975096,17.110446 30.8975096,16.5338776 30.8975096,15.9573092 C30.8975096,10.422626 26.3453056,5.92589047 20.7431262,5.92589047 C20.1595265,5.92589047 19.5759267,5.92589047 18.992327,6.04107963 C18.5253212,6.15626878 18.1749092,6.6170254 18.2921334,7.07840466 C18.4093575,7.53978392 18.7591392,7.88535139 19.2255148,7.77016223 C19.6931509,7.65497308 20.1595265,7.65497308 20.6265323,7.65497308 C25.2947,7.65497308 29.0301164,11.3447619 29.0301164,15.9573092 C29.0301164,16.4186885 29.0301164,16.8800677 28.9135225,17.3408243 C29.0301164,17.9173928 29.3805284,18.378772 29.846904,18.378772" id="Fill-5"></path>
                </g>
            </g>
        </g>
    </g>
</svg>