<svg xmlns="http://www.w3.org/2000/svg" width="29.243" height="29.243" viewBox="0 0 29.243 29.243"><defs><style>.a{fill:#00adee;}.b{fill:#fff;}</style></defs><g transform="translate(-561.257 -775)"><rect class="a" width="29.243" height="29.243" rx="7.649" transform="translate(590.5 775) rotate(90)"/><path class="b" d="M142.371,69.214a6.61,6.61,0,0,1-1.613.46c.259-.043.64-.513.793-.7a2.966,2.966,0,0,0,.535-.976c.014-.028.024-.063,0-.084a.092.092,0,0,0-.086.007,8.236,8.236,0,0,1-1.912.732.128.128,0,0,1-.132-.035,1.6,1.6,0,0,0-.167-.171,3.382,3.382,0,0,0-.926-.567,3.228,3.228,0,0,0-1.421-.229,3.385,3.385,0,0,0-1.348.381,3.469,3.469,0,0,0-1.087.888,3.332,3.332,0,0,0-.649,1.3,3.525,3.525,0,0,0-.035,1.373c.011.077,0,.087-.066.077a10.215,10.215,0,0,1-6.57-3.344c-.076-.088-.118-.088-.181.006a3.333,3.333,0,0,0,.568,3.937c.129.122.261.244.4.355a3.348,3.348,0,0,1-1.268-.355c-.077-.049-.115-.021-.122.066a1.941,1.941,0,0,0,.021.376,3.369,3.369,0,0,0,2.076,2.686,1.951,1.951,0,0,0,.421.129,3.746,3.746,0,0,1-1.243.038c-.091-.017-.125.028-.091.115a3.5,3.5,0,0,0,2.613,2.188c.118.021.237.021.356.049-.008.01-.015.01-.021.021a4.14,4.14,0,0,1-1.785.945,6.386,6.386,0,0,1-2.71.347c-.145-.021-.176-.02-.215,0s-.005.06.041.1c.185.122.373.23.565.335a8.968,8.968,0,0,0,1.811.725,9.65,9.65,0,0,0,9.367-2.19,9.833,9.833,0,0,0,2.592-7.171c0-.1.122-.16.194-.214a6.365,6.365,0,0,0,1.275-1.326.407.407,0,0,0,.084-.254v-.014C142.436,69.172,142.435,69.185,142.371,69.214Z" transform="translate(441.587 715.397)"/></g></svg>