<svg xmlns="http://www.w3.org/2000/svg" width="1919" height="468" viewBox="0 0 1919 468"><defs><style>.a{fill:#0855c4;}.b{fill:#3772d1;}.c{opacity:0.4;}.d{fill:#93bfff;}.e{fill:#5d9af2;}.f{fill:#fff;}.g{fill:#123e6b;}.h{fill:#0b4bb0;}.i,.j{fill:none;}.i{stroke:#1d55be;}.j{stroke:#5d9af2;stroke-width:2px;}.k{fill:#1a4798;fill-rule:evenodd;}</style></defs><g transform="translate(10265 -12331)"><g transform="translate(-10265.186 12259)"><rect class="a" width="1919" height="468" transform="translate(0.185 72)"/></g><rect class="b" width="1919" height="124" transform="translate(-10265 12675)"/><g class="c" transform="translate(-8700.96 12488.622)"><g transform="translate(0 0)"><path class="d" d="M5290.459,594.135v-7.4h-37.007v7.4h-2.287V730.746h39.182V594.135Z" transform="translate(-5230.62 -586.739)"/><path class="e" d="M5288.06,641.7h-36.9V778.309h39.182V641.7Z" transform="translate(-5230.62 -634.302)"/><rect class="d" width="44.306" height="144.008"/><rect class="e" width="44.306" height="7.397"/><g transform="translate(8.304 17.791)"><rect class="f" width="4.073" height="15.241"/><rect class="f" width="4.073" height="15.241" transform="translate(7.875)"/><rect class="f" width="4.073" height="15.241" transform="translate(15.75)"/><rect class="f" width="4.073" height="15.241" transform="translate(23.625)"/><g transform="translate(0 26.316)"><rect class="f" width="4.073" height="15.241"/><rect class="f" width="4.073" height="15.241" transform="translate(7.875)"/><rect class="f" width="4.073" height="15.241" transform="translate(15.75)"/><rect class="f" width="4.073" height="15.241" transform="translate(23.625)"/></g><g transform="translate(0 52.632)"><rect class="f" width="4.073" height="15.241"/><rect class="f" width="4.073" height="15.241" transform="translate(7.875)"/><rect class="f" width="4.073" height="15.241" transform="translate(15.75)"/><rect class="f" width="4.073" height="15.241" transform="translate(23.625)"/></g><g transform="translate(0 78.949)"><rect class="f" width="4.073" height="15.241"/><rect class="f" width="4.073" height="15.241" transform="translate(7.875)"/><rect class="f" width="4.073" height="15.241" transform="translate(15.75)"/><rect class="f" width="4.073" height="15.241" transform="translate(23.625)"/></g></g><g transform="translate(50.139 17.791)"><rect class="f" width="4.073" height="15.241"/><g transform="translate(0 26.316)"><rect class="f" width="4.073" height="15.241"/></g><g transform="translate(0 52.632)"><rect class="f" width="4.073" height="15.241"/></g><g transform="translate(0 78.949)"><rect class="f" width="4.073" height="15.241"/></g></g></g></g><g class="c" transform="translate(-10110.977 12474.222)"><g transform="translate(0 0)"><path class="d" d="M5251.165,594.692v-7.953h39.791v7.953h2.458V741.578h-42.129V594.692Z" transform="translate(-5251.165 -586.739)"/><path class="e" d="M5253.624,641.7h39.67V788.585h-42.129V641.7Z" transform="translate(-5251.045 -633.745)"/><rect class="d" width="47.639" height="154.84" transform="translate(16.702)"/><rect class="e" width="47.639" height="7.953" transform="translate(16.702)"/><g transform="translate(25.631 19.13)"><rect class="f" width="4.379" height="16.387" transform="translate(25.402)"/><rect class="f" width="4.379" height="16.387" transform="translate(16.935)"/><rect class="f" width="4.379" height="16.387" transform="translate(8.467)"/><rect class="f" width="4.379" height="16.387"/><g transform="translate(0 28.296)"><rect class="f" width="4.379" height="16.387" transform="translate(25.402)"/><rect class="f" width="4.379" height="16.387" transform="translate(16.935)"/><rect class="f" width="4.379" height="16.387" transform="translate(8.467)"/><rect class="f" width="4.379" height="16.387"/></g><g transform="translate(0 56.591)"><rect class="f" width="4.379" height="16.387" transform="translate(25.402)"/><rect class="f" width="4.379" height="16.387" transform="translate(16.935)"/><rect class="f" width="4.379" height="16.387" transform="translate(8.467)"/><rect class="f" width="4.379" height="16.387"/></g><g transform="translate(0 84.887)"><rect class="f" width="4.379" height="16.387" transform="translate(25.402)"/><rect class="f" width="4.379" height="16.387" transform="translate(16.935)"/><rect class="f" width="4.379" height="16.387" transform="translate(8.467)"/><rect class="f" width="4.379" height="16.387"/></g></g><g transform="translate(6.051 19.13)"><rect class="f" width="4.379" height="16.387"/><g transform="translate(0 28.296)"><rect class="f" width="4.379" height="16.387"/></g><g transform="translate(0 56.591)"><rect class="f" width="4.379" height="16.387"/></g><g transform="translate(0 84.887)"><rect class="f" width="4.379" height="16.387"/></g></g></g></g><g class="c" transform="translate(-8794.495 12485.351)"><g transform="translate(0 0)"><path class="d" d="M4465,650.155h-34.116V510.5L4465,499.408Z" transform="translate(-4430.886 -499.408)"/><rect class="e" width="34.116" height="150.746" transform="translate(34.272)"/><g transform="translate(0 11.089)"><rect class="e" width="34.116" height="1.913"/></g><g transform="translate(0 11.089)"><g transform="translate(0 11.578)"><rect class="e" width="34.116" height="1.913"/><path class="e" d="M0,0H34.116V1.913H0Z" transform="translate(0 11.578)"/><rect class="e" width="34.116" height="1.913" transform="translate(0 23.156)"/><rect class="e" width="34.116" height="1.913" transform="translate(0 34.734)"/><rect class="e" width="34.116" height="1.913" transform="translate(0 46.313)"/><rect class="e" width="34.116" height="1.913" transform="translate(0 57.891)"/><rect class="e" width="34.116" height="1.913" transform="translate(0 69.469)"/><rect class="e" width="34.116" height="1.913" transform="translate(0 81.047)"/><rect class="e" width="34.116" height="1.913" transform="translate(0 92.625)"/><rect class="e" width="34.116" height="1.913" transform="translate(0 104.203)"/><rect class="d" width="34.116" height="1.913" transform="translate(0 115.781)"/></g><g transform="translate(34.116)"><rect class="d" width="34.116" height="1.913"/><rect class="d" width="34.116" height="1.913" transform="translate(0 11.578)"/><rect class="d" width="34.116" height="1.913" transform="translate(0 23.156)"/><rect class="d" width="34.116" height="1.913" transform="translate(0 34.734)"/><rect class="d" width="34.116" height="1.913" transform="translate(0 46.312)"/><rect class="d" width="34.116" height="1.913" transform="translate(0 57.891)"/><rect class="d" width="34.116" height="1.913" transform="translate(0 69.469)"/><rect class="d" width="34.116" height="1.913" transform="translate(0 81.047)"/><rect class="d" width="34.116" height="1.913" transform="translate(0 92.625)"/><rect class="d" width="34.116" height="1.913" transform="translate(0 104.203)"/><rect class="d" width="34.116" height="1.913" transform="translate(0 115.781)"/><rect class="d" width="34.116" height="1.913" transform="translate(0 127.359)"/></g></g></g></g><g class="c" transform="translate(-10029.504 12477.314)"><g transform="translate(0 0)"><path class="d" d="M4465,650.155h-34.116V510.5L4465,499.408Z" transform="translate(-4430.886 -499.408)"/><rect class="e" width="34.116" height="150.746" transform="translate(34.272)"/><g transform="translate(0 11.089)"><rect class="e" width="34.116" height="1.913"/></g><g transform="translate(0 11.089)"><g transform="translate(0 11.578)"><rect class="e" width="34.116" height="1.913"/><path class="e" d="M0,0H34.116V1.913H0Z" transform="translate(0 11.578)"/><rect class="e" width="34.116" height="1.913" transform="translate(0 23.156)"/><rect class="e" width="34.116" height="1.913" transform="translate(0 34.734)"/><rect class="e" width="34.116" height="1.913" transform="translate(0 46.313)"/><rect class="e" width="34.116" height="1.913" transform="translate(0 57.891)"/><rect class="e" width="34.116" height="1.913" transform="translate(0 69.469)"/><rect class="e" width="34.116" height="1.913" transform="translate(0 81.047)"/><rect class="e" width="34.116" height="1.913" transform="translate(0 92.625)"/><rect class="e" width="34.116" height="1.913" transform="translate(0 104.203)"/><rect class="d" width="34.116" height="1.913" transform="translate(0 115.781)"/></g><g transform="translate(34.116)"><rect class="d" width="34.116" height="1.913"/><rect class="d" width="34.116" height="1.913" transform="translate(0 11.578)"/><rect class="d" width="34.116" height="1.913" transform="translate(0 23.156)"/><rect class="d" width="34.116" height="1.913" transform="translate(0 34.734)"/><rect class="d" width="34.116" height="1.913" transform="translate(0 46.312)"/><rect class="d" width="34.116" height="1.913" transform="translate(0 57.891)"/><rect class="d" width="34.116" height="1.913" transform="translate(0 69.469)"/><rect class="d" width="34.116" height="1.913" transform="translate(0 81.047)"/><rect class="d" width="34.116" height="1.913" transform="translate(0 92.625)"/><rect class="d" width="34.116" height="1.913" transform="translate(0 104.203)"/><rect class="d" width="34.116" height="1.913" transform="translate(0 115.781)"/><rect class="d" width="34.116" height="1.913" transform="translate(0 127.359)"/></g></g></g></g><g class="c" transform="translate(-9939 12457.628)"><g transform="translate(0 0)"><path class="e" d="M1169.759,726.706h-25.587V568.6l25.587-24.557Z" transform="translate(-1144.172 -544.045)"/><rect class="d" width="25.587" height="182.661" transform="translate(25.704 0)"/><g transform="translate(0 24.557)"><g transform="translate(0 9.978)"><rect class="d" width="25.587" height="1.649"/><rect class="d" width="25.587" height="1.649" transform="translate(0 9.978)"/><rect class="d" width="25.587" height="1.649" transform="translate(0 19.955)"/><rect class="d" width="25.587" height="1.649" transform="translate(0 29.933)"/><rect class="d" width="25.587" height="1.649" transform="translate(0 39.91)"/><rect class="d" width="25.587" height="1.649" transform="translate(0 49.888)"/><rect class="d" width="25.587" height="1.649" transform="translate(0 59.865)"/><rect class="d" width="25.587" height="1.649" transform="translate(0 69.843)"/><rect class="d" width="25.587" height="1.649" transform="translate(0 79.82)"/><rect class="d" width="25.587" height="1.649" transform="translate(0 89.798)"/><rect class="d" width="25.587" height="1.649" transform="translate(0 99.775)"/><rect class="d" width="25.587" height="1.649" transform="translate(0 109.753)"/><rect class="d" width="25.587" height="1.649" transform="translate(0 119.73)"/><rect class="d" width="25.587" height="1.649" transform="translate(0 129.708)"/><rect class="d" width="25.587" height="1.649" transform="translate(0 139.685)"/></g><rect class="d" width="25.587" height="1.649"/></g><g transform="translate(25.587 24.557)"><rect class="e" width="25.587" height="1.649"/><rect class="e" width="25.587" height="1.649" transform="translate(0 9.978)"/><rect class="e" width="25.587" height="1.649" transform="translate(0 19.955)"/><rect class="e" width="25.587" height="1.649" transform="translate(0 29.933)"/><rect class="e" width="25.587" height="1.649" transform="translate(0 39.91)"/><rect class="e" width="25.587" height="1.649" transform="translate(0 49.888)"/><rect class="e" width="25.587" height="1.649" transform="translate(0 59.865)"/><rect class="e" width="25.587" height="1.649" transform="translate(0 69.843)"/><rect class="e" width="25.587" height="1.649" transform="translate(0 79.82)"/><rect class="e" width="25.587" height="1.649" transform="translate(0 89.798)"/><rect class="e" width="25.587" height="1.649" transform="translate(0 99.775)"/><rect class="e" width="25.587" height="1.649" transform="translate(0 109.753)"/><rect class="e" width="25.587" height="1.649" transform="translate(0 119.73)"/><rect class="e" width="25.587" height="1.649" transform="translate(0 129.708)"/><rect class="e" width="25.587" height="1.649" transform="translate(0 139.685)"/><rect class="e" width="25.587" height="1.649" transform="translate(0 149.663)"/></g></g></g><g class="c" transform="translate(-8616.881 12446.156)"><g transform="translate(0 0)"><path class="e" d="M1169.759,726.706h-25.587V568.6l25.587-24.557Z" transform="translate(-1144.172 -544.045)"/><rect class="d" width="25.587" height="182.661" transform="translate(25.704 0)"/><g transform="translate(0 24.557)"><g transform="translate(0 9.978)"><rect class="d" width="25.587" height="1.649"/><rect class="d" width="25.587" height="1.649" transform="translate(0 9.978)"/><rect class="d" width="25.587" height="1.649" transform="translate(0 19.955)"/><rect class="d" width="25.587" height="1.649" transform="translate(0 29.933)"/><rect class="d" width="25.587" height="1.649" transform="translate(0 39.91)"/><rect class="d" width="25.587" height="1.649" transform="translate(0 49.888)"/><rect class="d" width="25.587" height="1.649" transform="translate(0 59.865)"/><rect class="d" width="25.587" height="1.649" transform="translate(0 69.843)"/><rect class="d" width="25.587" height="1.649" transform="translate(0 79.82)"/><rect class="d" width="25.587" height="1.649" transform="translate(0 89.798)"/><rect class="d" width="25.587" height="1.649" transform="translate(0 99.775)"/><rect class="d" width="25.587" height="1.649" transform="translate(0 109.753)"/><rect class="d" width="25.587" height="1.649" transform="translate(0 119.73)"/><rect class="d" width="25.587" height="1.649" transform="translate(0 129.708)"/><rect class="d" width="25.587" height="1.649" transform="translate(0 139.685)"/></g><rect class="d" width="25.587" height="1.649"/></g><g transform="translate(25.587 24.557)"><rect class="e" width="25.587" height="1.649"/><rect class="e" width="25.587" height="1.649" transform="translate(0 9.978)"/><rect class="e" width="25.587" height="1.649" transform="translate(0 19.955)"/><rect class="e" width="25.587" height="1.649" transform="translate(0 29.933)"/><rect class="e" width="25.587" height="1.649" transform="translate(0 39.91)"/><rect class="e" width="25.587" height="1.649" transform="translate(0 49.888)"/><rect class="e" width="25.587" height="1.649" transform="translate(0 59.865)"/><rect class="e" width="25.587" height="1.649" transform="translate(0 69.843)"/><rect class="e" width="25.587" height="1.649" transform="translate(0 79.82)"/><rect class="e" width="25.587" height="1.649" transform="translate(0 89.798)"/><rect class="e" width="25.587" height="1.649" transform="translate(0 99.775)"/><rect class="e" width="25.587" height="1.649" transform="translate(0 109.753)"/><rect class="e" width="25.587" height="1.649" transform="translate(0 119.73)"/><rect class="e" width="25.587" height="1.649" transform="translate(0 129.708)"/><rect class="e" width="25.587" height="1.649" transform="translate(0 139.685)"/><rect class="e" width="25.587" height="1.649" transform="translate(0 149.663)"/></g></g></g><g transform="translate(-8990.88 12578.152)"><g transform="translate(0 0)"><g transform="translate(0)"><path class="e" d="M2342.129,5095.135a10,10,0,1,0-18.123-.068,9.609,9.609,0,0,1,.032,8.144,10,10,0,1,0,18.123.068A9.61,9.61,0,0,1,2342.129,5095.135Z" transform="translate(-2323.084 -5080.866)"/></g><g transform="translate(2.605 9.247)"><g transform="translate(0)"><rect class="g" width="1.303" height="22.745" transform="translate(6.886 4.949)"/><rect class="g" width="1.303" height="6.596" transform="translate(2.404 10.25) rotate(-45.121)"/><rect class="g" width="9.989" height="1.303" transform="translate(7.078 22.036) rotate(-44.878)"/><rect class="g" width="1.303" height="41.6" transform="translate(6.886)"/><rect class="g" width="1.303" height="6.596" transform="translate(2.404 10.25) rotate(-45.121)"/><rect class="g" width="6.596" height="1.303" transform="translate(7.078 13.981) rotate(-44.878)"/><rect class="g" width="1.303" height="4.434" transform="translate(3.936 5.038) rotate(-45.12)"/><rect class="g" width="4.434" height="1.303" transform="translate(7.078 7.244) rotate(-44.878)"/><rect class="g" width="9.989" height="1.303" transform="translate(7.078 22.036) rotate(-44.878)"/><rect class="g" width="1.303" height="9.989" transform="matrix(0.706, -0.709, 0.709, 0.706, 0, 15.911)"/></g></g></g></g><g transform="translate(-9707.5 12579.26)"><g transform="translate(0 0)"><g transform="translate(0)"><path class="e" d="M2342.129,5095.135a10,10,0,1,0-18.123-.068,9.609,9.609,0,0,1,.032,8.144,10,10,0,1,0,18.123.068A9.61,9.61,0,0,1,2342.129,5095.135Z" transform="translate(-2323.084 -5080.866)"/></g><g transform="translate(2.605 9.247)"><g transform="translate(0)"><rect class="g" width="1.303" height="22.745" transform="translate(6.886 4.949)"/><rect class="g" width="1.303" height="6.596" transform="translate(2.404 10.25) rotate(-45.121)"/><rect class="g" width="9.989" height="1.303" transform="translate(7.078 22.036) rotate(-44.878)"/><rect class="g" width="1.303" height="41.6" transform="translate(6.886)"/><rect class="g" width="1.303" height="6.596" transform="translate(2.404 10.25) rotate(-45.121)"/><rect class="g" width="6.596" height="1.303" transform="translate(7.078 13.981) rotate(-44.878)"/><rect class="g" width="1.303" height="4.434" transform="translate(3.936 5.038) rotate(-45.12)"/><rect class="g" width="4.434" height="1.303" transform="translate(7.078 7.244) rotate(-44.878)"/><rect class="g" width="9.989" height="1.303" transform="translate(7.078 22.036) rotate(-44.878)"/><rect class="g" width="1.303" height="9.989" transform="matrix(0.706, -0.709, 0.709, 0.706, 0, 15.911)"/></g></g></g></g><g class="c" transform="translate(-9853.088 12485.994)"><g transform="translate(0 0)"><g transform="translate(0 0)"><rect class="e" width="41.031" height="139.237" transform="translate(0 8.47)"/><rect class="d" width="27.357" height="139.237" transform="translate(41.031 8.47)"/><rect class="d" width="51.95" height="8.47" transform="translate(9.278)"/><g transform="translate(6.251 14.834)"><g transform="translate(6.563)"><g transform="translate(19.69)"><rect class="d" width="2.188" height="1.945"/></g><g transform="translate(13.127)"><rect class="d" width="2.188" height="1.945"/></g><g transform="translate(6.563)"><rect class="d" width="2.188" height="1.945"/></g><rect class="d" width="2.188" height="1.945"/><g transform="translate(19.69 5.836)"><rect class="d" width="2.188" height="1.945"/></g><g transform="translate(13.127 5.836)"><rect class="d" width="2.188" height="1.945"/></g><g transform="translate(6.563 5.836)"><rect class="d" width="2.188" height="1.945"/></g><g transform="translate(0 5.836)"><rect class="d" width="2.188" height="1.945"/></g><g transform="translate(19.69 11.671)"><rect class="d" width="2.188" height="1.945"/></g><g transform="translate(13.127 11.671)"><rect class="d" width="2.188" height="1.945"/></g><g transform="translate(6.563 11.671)"><rect class="d" width="2.188" height="1.945"/></g><g transform="translate(0 11.671)"><rect class="d" width="2.188" height="1.945"/></g><g transform="translate(19.69 17.507)"><rect class="d" width="2.188" height="1.945"/></g><g transform="translate(13.127 17.507)"><rect class="d" width="2.188" height="1.945"/></g><g transform="translate(6.563 17.507)"><rect class="d" width="2.188" height="1.945"/></g><g transform="translate(0 17.507)"><rect class="d" width="2.188" height="1.945"/></g><g transform="translate(19.69 23.343)"><rect class="d" width="2.188" height="1.945"/></g><g transform="translate(13.127 23.343)"><rect class="d" width="2.188" height="1.945"/></g><g transform="translate(6.563 23.343)"><rect class="d" width="2.188" height="1.945"/></g><g transform="translate(0 23.343)"><rect class="d" width="2.188" height="1.945"/></g><g transform="translate(19.69 29.179)"><rect class="d" width="2.188" height="1.945"/></g><g transform="translate(13.127 29.179)"><rect class="d" width="2.188" height="1.945"/></g><g transform="translate(6.563 29.179)"><rect class="d" width="2.188" height="1.945"/></g><g transform="translate(0 29.179)"><rect class="d" width="2.188" height="1.945"/></g></g><rect class="d" width="2.188" height="1.945"/><g transform="translate(0 5.836)"><rect class="d" width="2.188" height="1.945"/></g><g transform="translate(0 11.671)"><rect class="d" width="2.188" height="1.945"/></g><g transform="translate(0 17.507)"><rect class="d" width="2.188" height="1.945"/></g><g transform="translate(0 23.343)"><rect class="d" width="2.188" height="1.945"/></g><g transform="translate(0 29.179)"><rect class="d" width="2.188" height="1.945"/></g><g transform="translate(0 35.014)"><g transform="translate(6.563)"><g transform="translate(19.69)"><rect class="d" width="2.188" height="1.945"/></g><g transform="translate(13.127)"><rect class="d" width="2.188" height="1.945"/></g><g transform="translate(6.563)"><rect class="d" width="2.188" height="1.945"/></g><rect class="d" width="2.188" height="1.945"/><g transform="translate(19.69 5.836)"><rect class="d" width="2.188" height="1.945"/></g><g transform="translate(13.127 5.836)"><rect class="d" width="2.188" height="1.945"/></g><g transform="translate(6.563 5.836)"><rect class="d" width="2.188" height="1.945"/></g><g transform="translate(0 5.836)"><rect class="d" width="2.188" height="1.945"/></g><g transform="translate(19.69 11.671)"><rect class="d" width="2.188" height="1.945"/></g><g transform="translate(13.127 11.671)"><rect class="d" width="2.188" height="1.945"/></g><g transform="translate(6.563 11.671)"><rect class="d" width="2.188" height="1.945"/></g><g transform="translate(0 11.671)"><rect class="d" width="2.188" height="1.945"/></g><g transform="translate(19.69 17.507)"><rect class="d" width="2.188" height="1.945"/></g><g transform="translate(13.127 17.507)"><rect class="d" width="2.188" height="1.945"/></g><g transform="translate(6.563 17.507)"><rect class="d" width="2.188" height="1.945"/></g><g transform="translate(0 17.507)"><rect class="d" width="2.188" height="1.945"/></g><g transform="translate(19.69 23.343)"><rect class="d" width="2.188" height="1.945"/></g><g transform="translate(13.127 23.343)"><rect class="d" width="2.188" height="1.945"/></g><g transform="translate(6.563 23.343)"><rect class="d" width="2.188" height="1.945"/></g><g transform="translate(0 23.343)"><rect class="d" width="2.188" height="1.945"/></g><g transform="translate(19.69 29.179)"><rect class="d" width="2.188" height="1.945"/></g><g transform="translate(13.127 29.179)"><rect class="d" width="2.188" height="1.945"/></g><g transform="translate(6.563 29.179)"><rect class="d" width="2.188" height="1.945"/></g><g transform="translate(0 29.179)"><rect class="d" width="2.188" height="1.945"/></g><g transform="translate(19.69 35.014)"><rect class="d" width="2.188" height="1.945"/></g><g transform="translate(13.127 35.014)"><rect class="d" width="2.188" height="1.945"/></g><g transform="translate(6.563 35.014)"><rect class="d" width="2.188" height="1.945"/></g><g transform="translate(0 35.014)"><rect class="d" width="2.188" height="1.945"/></g></g><rect class="d" width="2.188" height="1.945"/><g transform="translate(0 5.836)"><rect class="d" width="2.188" height="1.945"/></g><g transform="translate(0 11.671)"><rect class="d" width="2.188" height="1.945"/></g><g transform="translate(0 17.507)"><rect class="d" width="2.188" height="1.945"/></g><g transform="translate(0 23.343)"><rect class="d" width="2.188" height="1.945"/></g><g transform="translate(0 29.179)"><rect class="d" width="2.188" height="1.945"/></g><g transform="translate(0 35.014)"><rect class="d" width="2.188" height="1.945"/></g></g><g transform="translate(0 70.029)"><g transform="translate(6.563)"><g transform="translate(19.69)"><rect class="d" width="2.188" height="1.945"/></g><g transform="translate(13.127)"><rect class="d" width="2.188" height="1.945"/></g><g transform="translate(6.563)"><rect class="d" width="2.188" height="1.945"/></g><rect class="d" width="2.188" height="1.945"/><g transform="translate(19.69 5.836)"><rect class="d" width="2.188" height="1.945"/></g><g transform="translate(13.127 5.836)"><rect class="d" width="2.188" height="1.945"/></g><g transform="translate(6.563 5.836)"><rect class="d" width="2.188" height="1.945"/></g><g transform="translate(0 5.836)"><rect class="d" width="2.188" height="1.945"/></g><g transform="translate(19.69 11.671)"><rect class="d" width="2.188" height="1.945"/></g><g transform="translate(13.127 11.671)"><rect class="d" width="2.188" height="1.945"/></g><g transform="translate(6.563 11.671)"><rect class="d" width="2.188" height="1.945"/></g><g transform="translate(0 11.671)"><rect class="d" width="2.188" height="1.945"/></g><g transform="translate(19.69 17.507)"><rect class="d" width="2.188" height="1.945"/></g><g transform="translate(13.127 17.507)"><rect class="d" width="2.188" height="1.945"/></g><g transform="translate(6.563 17.507)"><rect class="d" width="2.188" height="1.945"/></g><g transform="translate(0 17.507)"><rect class="d" width="2.188" height="1.945"/></g><g transform="translate(19.69 23.343)"><rect class="d" width="2.188" height="1.945"/></g><g transform="translate(13.127 23.343)"><rect class="d" width="2.188" height="1.945"/></g><g transform="translate(6.563 23.343)"><rect class="d" width="2.188" height="1.945"/></g><g transform="translate(0 23.343)"><rect class="d" width="2.188" height="1.945"/></g><g transform="translate(19.69 29.179)"><rect class="d" width="2.188" height="1.945"/></g><g transform="translate(13.127 29.179)"><rect class="d" width="2.188" height="1.945"/></g><g transform="translate(6.563 29.179)"><rect class="d" width="2.188" height="1.945"/></g><g transform="translate(0 29.179)"><rect class="d" width="2.188" height="1.945"/></g></g><rect class="d" width="2.188" height="1.945"/><g transform="translate(0 5.836)"><rect class="d" width="2.188" height="1.945"/></g><g transform="translate(0 11.671)"><rect class="d" width="2.188" height="1.945"/></g><g transform="translate(0 17.507)"><rect class="d" width="2.188" height="1.945"/></g><g transform="translate(0 23.343)"><rect class="d" width="2.188" height="1.945"/></g><g transform="translate(0 29.179)"><rect class="d" width="2.188" height="1.945"/></g><g transform="translate(0 35.014)"><g transform="translate(6.563)"><g transform="translate(19.69)"><rect class="d" width="2.188" height="1.945"/></g><g transform="translate(13.127)"><rect class="d" width="2.188" height="1.945"/></g><g transform="translate(6.563)"><rect class="d" width="2.188" height="1.945"/></g><rect class="d" width="2.188" height="1.945"/><g transform="translate(19.69 5.836)"><rect class="d" width="2.188" height="1.945"/></g><g transform="translate(13.127 5.836)"><rect class="d" width="2.188" height="1.945"/></g><g transform="translate(6.563 5.836)"><rect class="d" width="2.188" height="1.945"/></g><g transform="translate(0 5.836)"><rect class="d" width="2.188" height="1.945"/></g><g transform="translate(19.69 11.671)"><rect class="d" width="2.188" height="1.945"/></g><g transform="translate(13.127 11.671)"><rect class="d" width="2.188" height="1.945"/></g><g transform="translate(6.563 11.671)"><rect class="d" width="2.188" height="1.945"/></g><g transform="translate(0 11.671)"><rect class="d" width="2.188" height="1.945"/></g><g transform="translate(19.69 17.507)"><rect class="d" width="2.188" height="1.945"/></g><g transform="translate(13.127 17.507)"><rect class="d" width="2.188" height="1.945"/></g><g transform="translate(6.563 17.507)"><rect class="d" width="2.188" height="1.945"/></g><g transform="translate(0 17.507)"><rect class="d" width="2.188" height="1.945"/></g></g><rect class="d" width="2.188" height="1.945"/><g transform="translate(0 5.836)"><rect class="d" width="2.188" height="1.945"/></g><g transform="translate(0 11.671)"><rect class="d" width="2.188" height="1.945"/></g><g transform="translate(0 17.507)"><rect class="d" width="2.188" height="1.945"/></g></g></g></g></g></g></g><g transform="translate(-9878.732 12573.621)"><g transform="translate(0 0)"><g transform="translate(0)"><path class="d" d="M2344.034,5096.562a11,11,0,1,0-19.935-.075,10.568,10.568,0,0,1,.036,8.958,11,11,0,1,0,19.935.075A10.57,10.57,0,0,1,2344.034,5096.562Z" transform="translate(-2323.084 -5080.866)"/></g><g transform="translate(2.865 10.172)"><g transform="translate(0)"><rect class="g" width="1.433" height="25.02" transform="translate(7.575 5.444)"/><rect class="g" width="1.433" height="7.255" transform="translate(2.645 11.275) rotate(-45.121)"/><rect class="g" width="10.988" height="1.433" transform="translate(7.786 24.24) rotate(-44.878)"/><rect class="g" width="1.433" height="45.761" transform="translate(7.575)"/><rect class="g" width="1.433" height="7.255" transform="translate(2.645 11.275) rotate(-45.121)"/><rect class="g" width="7.255" height="1.433" transform="translate(7.786 15.379) rotate(-44.878)"/><rect class="g" width="1.433" height="4.878" transform="translate(4.329 5.542) rotate(-45.12)"/><rect class="g" width="4.878" height="1.433" transform="translate(7.786 7.968) rotate(-44.878)"/><rect class="g" width="10.988" height="1.433" transform="translate(7.786 24.24) rotate(-44.878)"/><rect class="g" width="1.433" height="10.988" transform="matrix(0.706, -0.709, 0.709, 0.706, 0, 17.502)"/></g></g></g></g><path class="d" d="M3544.561,3291.438h-35a4.116,4.116,0,0,1,4.071-4.113,4.067,4.067,0,0,1,.432.023c-.013-.162-.024-.326-.024-.492a5.817,5.817,0,0,1,5.753-5.88,5.618,5.618,0,0,1,2.308.5,4.063,4.063,0,0,1,8.114.016,6.382,6.382,0,0,1,1.951-.3,6.59,6.59,0,0,1,6.517,6.661c0,.12-.012.236-.018.354a3.98,3.98,0,0,1,1.851-.458A4.106,4.106,0,0,1,3544.561,3291.438Z" transform="translate(-13466.061 9137.301)"/><path class="d" d="M3539.561,3289.468h-30a3.528,3.528,0,0,1,3.489-3.526,3.428,3.428,0,0,1,.37.021c-.011-.139-.021-.28-.021-.422a4.987,4.987,0,0,1,4.931-5.041,4.816,4.816,0,0,1,1.978.425,3.483,3.483,0,0,1,6.955.014,5.475,5.475,0,0,1,1.672-.261,5.649,5.649,0,0,1,5.586,5.71c0,.1-.01.2-.015.3a3.41,3.41,0,0,1,1.586-.392A3.52,3.52,0,0,1,3539.561,3289.468Z" transform="translate(-12210.602 9151.094)"/><g transform="translate(-9768.457 12495.5)"><g transform="translate(0 0)"><g transform="translate(0 0)"><rect class="d" width="29.453" height="136.552"/><rect class="e" width="17.564" height="136.552" transform="translate(29.453)"/><g transform="translate(4.188 4.151)"><rect class="e" width="21.077" height="2.29"/><rect class="e" width="21.077" height="2.29" transform="translate(0 6.629)"/><rect class="e" width="21.077" height="2.29" transform="translate(0 13.259)"/><rect class="e" width="21.077" height="2.29" transform="translate(0 19.888)"/><rect class="e" width="21.077" height="2.29" transform="translate(0 26.518)"/><rect class="e" width="21.077" height="2.29" transform="translate(0 33.147)"/><rect class="e" width="21.077" height="2.29" transform="translate(0 39.777)"/><rect class="e" width="21.077" height="2.29" transform="translate(0 46.406)"/><rect class="e" width="21.077" height="2.29" transform="translate(0 53.036)"/><rect class="e" width="21.077" height="2.29" transform="translate(0 59.665)"/><rect class="e" width="21.077" height="2.29" transform="translate(0 66.294)"/><rect class="e" width="21.077" height="2.29" transform="translate(0 72.924)"/><rect class="e" width="21.077" height="2.29" transform="translate(0 79.553)"/><rect class="e" width="21.077" height="2.29" transform="translate(0 86.183)"/><rect class="e" width="21.077" height="2.29" transform="translate(0 92.812)"/><rect class="e" width="21.077" height="2.29" transform="translate(0 99.442)"/><rect class="e" width="21.077" height="2.29" transform="translate(0 106.071)"/><rect class="e" width="21.077" height="2.29" transform="translate(0 112.701)"/><rect class="e" width="21.077" height="2.29" transform="translate(0 119.33)"/><rect class="e" width="21.077" height="2.29" transform="translate(0 125.959)"/></g><g transform="translate(33.912 4.151)"><rect class="d" width="8.647" height="2.29"/><rect class="d" width="8.647" height="2.29" transform="translate(0 6.629)"/><rect class="d" width="8.647" height="2.29" transform="translate(0 13.259)"/><rect class="d" width="8.647" height="2.29" transform="translate(0 19.888)"/><rect class="d" width="8.647" height="2.29" transform="translate(0 26.518)"/><rect class="d" width="8.647" height="2.29" transform="translate(0 33.147)"/><rect class="d" width="8.647" height="2.29" transform="translate(0 39.777)"/><rect class="d" width="8.647" height="2.29" transform="translate(0 46.406)"/><rect class="d" width="8.647" height="2.29" transform="translate(0 53.036)"/><rect class="d" width="8.647" height="2.29" transform="translate(0 59.665)"/><rect class="d" width="8.647" height="2.29" transform="translate(0 66.294)"/><rect class="d" width="8.647" height="2.29" transform="translate(0 72.924)"/><rect class="d" width="8.647" height="2.29" transform="translate(0 79.553)"/><rect class="d" width="8.647" height="2.29" transform="translate(0 86.183)"/><rect class="d" width="8.647" height="2.29" transform="translate(0 92.812)"/><rect class="d" width="8.647" height="2.29" transform="translate(0 99.442)"/><rect class="d" width="8.647" height="2.29" transform="translate(0 106.071)"/><rect class="d" width="8.647" height="2.29" transform="translate(0 112.701)"/><rect class="d" width="8.647" height="2.29" transform="translate(0 119.33)"/><rect class="d" width="8.647" height="2.29" transform="translate(0 125.959)"/></g></g></g></g><g class="c" transform="translate(-8548.475 12492.448)"><g transform="translate(0 0)"><g transform="translate(0 0)"><rect class="d" width="29.453" height="136.552"/><rect class="e" width="17.564" height="136.552" transform="translate(29.453)"/><g transform="translate(4.188 4.151)"><rect class="e" width="21.077" height="2.29"/><rect class="e" width="21.077" height="2.29" transform="translate(0 6.629)"/><rect class="e" width="21.077" height="2.29" transform="translate(0 13.259)"/><rect class="e" width="21.077" height="2.29" transform="translate(0 19.888)"/><rect class="e" width="21.077" height="2.29" transform="translate(0 26.518)"/><rect class="e" width="21.077" height="2.29" transform="translate(0 33.147)"/><rect class="e" width="21.077" height="2.29" transform="translate(0 39.777)"/><rect class="e" width="21.077" height="2.29" transform="translate(0 46.406)"/><rect class="e" width="21.077" height="2.29" transform="translate(0 53.036)"/><rect class="e" width="21.077" height="2.29" transform="translate(0 59.665)"/><rect class="e" width="21.077" height="2.29" transform="translate(0 66.294)"/><rect class="e" width="21.077" height="2.29" transform="translate(0 72.924)"/><rect class="e" width="21.077" height="2.29" transform="translate(0 79.553)"/><rect class="e" width="21.077" height="2.29" transform="translate(0 86.183)"/><rect class="e" width="21.077" height="2.29" transform="translate(0 92.812)"/><rect class="e" width="21.077" height="2.29" transform="translate(0 99.442)"/><rect class="e" width="21.077" height="2.29" transform="translate(0 106.071)"/><rect class="e" width="21.077" height="2.29" transform="translate(0 112.701)"/><rect class="e" width="21.077" height="2.29" transform="translate(0 119.33)"/><rect class="e" width="21.077" height="2.29" transform="translate(0 125.959)"/></g><g transform="translate(33.912 4.151)"><rect class="d" width="8.647" height="2.29"/><rect class="d" width="8.647" height="2.29" transform="translate(0 6.629)"/><rect class="d" width="8.647" height="2.29" transform="translate(0 13.259)"/><rect class="d" width="8.647" height="2.29" transform="translate(0 19.888)"/><rect class="d" width="8.647" height="2.29" transform="translate(0 26.518)"/><rect class="d" width="8.647" height="2.29" transform="translate(0 33.147)"/><rect class="d" width="8.647" height="2.29" transform="translate(0 39.777)"/><rect class="d" width="8.647" height="2.29" transform="translate(0 46.406)"/><rect class="d" width="8.647" height="2.29" transform="translate(0 53.036)"/><rect class="d" width="8.647" height="2.29" transform="translate(0 59.665)"/><rect class="d" width="8.647" height="2.29" transform="translate(0 66.294)"/><rect class="d" width="8.647" height="2.29" transform="translate(0 72.924)"/><rect class="d" width="8.647" height="2.29" transform="translate(0 79.553)"/><rect class="d" width="8.647" height="2.29" transform="translate(0 86.183)"/><rect class="d" width="8.647" height="2.29" transform="translate(0 92.812)"/><rect class="d" width="8.647" height="2.29" transform="translate(0 99.442)"/><rect class="d" width="8.647" height="2.29" transform="translate(0 106.071)"/><rect class="d" width="8.647" height="2.29" transform="translate(0 112.701)"/><rect class="d" width="8.647" height="2.29" transform="translate(0 119.33)"/><rect class="d" width="8.647" height="2.29" transform="translate(0 125.959)"/></g></g></g></g><rect class="h" width="1919" height="73" transform="translate(-10265 12629)"/><g transform="translate(-9794.699 12578.152)"><g transform="translate(0 0)"><g transform="translate(0)"><path class="e" d="M2342.129,5095.135a10,10,0,1,0-18.123-.068,9.609,9.609,0,0,1,.032,8.144,10,10,0,1,0,18.123.068A9.61,9.61,0,0,1,2342.129,5095.135Z" transform="translate(-2323.084 -5080.866)"/></g><g transform="translate(2.605 9.247)"><g transform="translate(0)"><rect class="g" width="1.303" height="22.745" transform="translate(6.886 4.949)"/><rect class="g" width="1.303" height="6.596" transform="translate(2.404 10.25) rotate(-45.121)"/><rect class="g" width="9.989" height="1.303" transform="translate(7.078 22.036) rotate(-44.878)"/><rect class="g" width="1.303" height="41.6" transform="translate(6.886)"/><rect class="g" width="1.303" height="6.596" transform="translate(2.404 10.25) rotate(-45.121)"/><rect class="g" width="6.596" height="1.303" transform="translate(7.078 13.981) rotate(-44.878)"/><rect class="g" width="1.303" height="4.434" transform="translate(3.936 5.038) rotate(-45.12)"/><rect class="g" width="4.434" height="1.303" transform="translate(7.078 7.244) rotate(-44.878)"/><rect class="g" width="9.989" height="1.303" transform="translate(7.078 22.036) rotate(-44.878)"/><rect class="g" width="1.303" height="9.989" transform="matrix(0.706, -0.709, 0.709, 0.706, 0, 15.911)"/></g></g></g></g><g transform="translate(-10060 12579.26)"><g transform="translate(0 0)"><g transform="translate(0)"><path class="e" d="M2342.129,5095.135a10,10,0,1,0-18.123-.068,9.609,9.609,0,0,1,.032,8.144,10,10,0,1,0,18.123.068A9.61,9.61,0,0,1,2342.129,5095.135Z" transform="translate(-2323.084 -5080.866)"/></g><g transform="translate(2.605 9.247)"><g transform="translate(0)"><rect class="g" width="1.303" height="22.745" transform="translate(6.886 4.949)"/><rect class="g" width="1.303" height="6.596" transform="translate(2.404 10.25) rotate(-45.121)"/><rect class="g" width="9.989" height="1.303" transform="translate(7.078 22.036) rotate(-44.878)"/><rect class="g" width="1.303" height="41.6" transform="translate(6.886)"/><rect class="g" width="1.303" height="6.596" transform="translate(2.404 10.25) rotate(-45.121)"/><rect class="g" width="6.596" height="1.303" transform="translate(7.078 13.981) rotate(-44.878)"/><rect class="g" width="1.303" height="4.434" transform="translate(3.936 5.038) rotate(-45.12)"/><rect class="g" width="4.434" height="1.303" transform="translate(7.078 7.244) rotate(-44.878)"/><rect class="g" width="9.989" height="1.303" transform="translate(7.078 22.036) rotate(-44.878)"/><rect class="g" width="1.303" height="9.989" transform="matrix(0.706, -0.709, 0.709, 0.706, 0, 15.911)"/></g></g></g></g><g class="c" transform="translate(-8909.564 12637.375)"><g transform="translate(494 -165)"><rect class="d" width="25" height="156.625" transform="translate(0 0)"/><path class="e" d="M3562.854,623.9h-25V467.271l25,20.386Z" transform="translate(-3512.854 -467.271)"/><g transform="translate(3.59 6.601)"><rect class="e" width="2.14" height="146.955"/><rect class="e" width="2.14" height="146.955" transform="translate(5.21)"/><rect class="e" width="2.14" height="146.955" transform="translate(10.42)"/><rect class="e" width="2.14" height="146.955" transform="translate(15.63)"/></g><g transform="translate(28.636 6.601)"><path class="d" d="M3565.471,664.354h2.14V519.111l-2.1-1.711h-.041Z" transform="translate(-3565.471 -517.4)"/><path class="d" d="M3607.177,692.149V551.155l-2.14-1.745v142.74Z" transform="translate(-3599.828 -545.195)"/><path class="d" d="M3646.743,720.166V583.419l-2.14-1.745V720.166Z" transform="translate(-3634.184 -573.211)"/><path class="d" d="M3686.31,748.182v-132.5l-2.14-1.745V748.182Z" transform="translate(-3668.541 -601.227)"/></g></g></g><path class="i" d="M-5773.564,15059v-61.893" transform="translate(-4165.436 -2367.554)"/><path class="i" d="M-5773.564,15059v-61.893" transform="translate(-4286.436 -2367.554)"/><path class="i" d="M-5773.564,15059v-61.893" transform="translate(-4398.436 -2368.107)"/><path class="i" d="M-5773.564,15059v-61.893" transform="translate(-4041 -2367.554)"/><path class="i" d="M-5773.564,15059v-61.893" transform="translate(-3913.936 -2367)"/><path class="i" d="M-5773.564,15059v-61.893" transform="translate(-3783 -2367)"/><path class="i" d="M-5773.564,15059v-61.893" transform="translate(-3660 -2367.554)"/><path class="i" d="M-5773.564,15059v-61.893" transform="translate(-3537 -2368.29)"/><path class="i" d="M-5773.564,15059v-61.893" transform="translate(-2976 -2367)"/><path class="i" d="M-5773.564,15059v-61.893" transform="translate(-2853 -2368.107)"/><path class="i" d="M-5773.564,15059v-61.893" transform="translate(-2730 -2368.107)"/><path class="i" d="M-5773.564,15059v-61.893" transform="translate(-2607 -2367)"/><path class="i" d="M-5773.564,15059v-61.893" transform="translate(-3414 -2367)"/><g transform="translate(-10242.945 12275)"><path class="j" d="M-5806.694,15122.5h46.445" transform="translate(5835 -14653)"/><path class="j" d="M-5806.694,15122.5h46.445" transform="translate(5973 -14653)"/><path class="j" d="M-5806.694,15122.5h46.445" transform="translate(6109.194 -14653)"/></g><g transform="translate(-9823.005 12275)"><path class="j" d="M-5806.694,15122.5h46.445" transform="translate(5835 -14653)"/><path class="j" d="M-5806.694,15122.5h46.445" transform="translate(5973 -14653)"/><path class="j" d="M-5806.694,15122.5h46.445" transform="translate(6109.194 -14653)"/></g><g transform="translate(-9376.189 12275)"><path class="j" d="M-5806.694,15122.5h46.445" transform="translate(5835 -14653)"/><path class="j" d="M-5806.694,15122.5h46.445" transform="translate(5973 -14653)"/><path class="j" d="M-5806.694,15122.5h46.445" transform="translate(6109.194 -14653)"/></g><g transform="translate(-8761.265 12275)"><path class="j" d="M-5806.694,15122.5h46.445" transform="translate(5835 -14653)"/><path class="j" d="M-5806.694,15122.5h46.445" transform="translate(5973 -14653)"/><path class="j" d="M-5806.694,15122.5h46.445" transform="translate(6109.194 -14653)"/></g><g class="c" transform="translate(-4156.62 -969.242)"><g transform="translate(-6056.472 13432.244)"><g transform="translate(0 0)"><g transform="translate(0 0)"><g transform="translate(0 27.269)"><rect class="e" width="39.908" height="138.79"/><rect class="d" width="39.908" height="138.79" transform="translate(40.092)"/><g transform="translate(6.059 5.2)"><rect class="d" width="27.79" height="1.501"/><rect class="d" width="27.79" height="1.501" transform="translate(0 6.259)"/><rect class="d" width="27.79" height="1.501" transform="translate(0 12.519)"/><rect class="d" width="27.79" height="1.501" transform="translate(0 18.778)"/><rect class="d" width="27.79" height="1.501" transform="translate(0 25.037)"/><rect class="d" width="27.79" height="1.501" transform="translate(0 31.297)"/><rect class="d" width="27.79" height="1.501" transform="translate(0 37.556)"/><rect class="d" width="27.79" height="1.501" transform="translate(0 43.815)"/><rect class="d" width="27.79" height="1.501" transform="translate(0 50.075)"/><rect class="d" width="27.79" height="1.501" transform="translate(0 56.334)"/><rect class="d" width="27.79" height="1.501" transform="translate(0 62.593)"/><rect class="d" width="27.79" height="1.501" transform="translate(0 68.853)"/><rect class="d" width="27.79" height="1.501" transform="translate(0 75.112)"/><rect class="d" width="27.79" height="1.501" transform="translate(0 81.371)"/><rect class="d" width="27.79" height="1.501" transform="translate(0 87.631)"/><rect class="d" width="27.79" height="1.501" transform="translate(0 93.89)"/><rect class="d" width="27.79" height="1.501" transform="translate(0 100.149)"/><g transform="translate(40.092)"><rect class="e" width="27.79" height="1.501"/><rect class="e" width="27.79" height="1.501" transform="translate(0 6.259)"/><rect class="e" width="27.79" height="1.501" transform="translate(0 12.519)"/><rect class="e" width="27.79" height="1.501" transform="translate(0 18.778)"/><rect class="e" width="27.79" height="1.501" transform="translate(0 25.037)"/><rect class="e" width="27.79" height="1.501" transform="translate(0 31.297)"/><rect class="e" width="27.79" height="1.501" transform="translate(0 37.556)"/><rect class="e" width="27.79" height="1.501" transform="translate(0 43.815)"/><rect class="e" width="27.79" height="1.501" transform="translate(0 50.075)"/><rect class="e" width="27.79" height="1.501" transform="translate(0 56.334)"/><rect class="e" width="27.79" height="1.501" transform="translate(0 62.593)"/><rect class="e" width="27.79" height="1.501" transform="translate(0 68.853)"/><rect class="e" width="27.79" height="1.501" transform="translate(0 75.112)"/><rect class="e" width="27.79" height="1.501" transform="translate(0 81.371)"/><rect class="e" width="27.79" height="1.501" transform="translate(0 87.631)"/><rect class="e" width="27.79" height="1.501" transform="translate(0 93.89)"/><rect class="e" width="27.79" height="1.501" transform="translate(0 100.149)"/></g></g></g><g transform="translate(12.54)"><path class="f" d="M549.189,570.875a27.46,27.46,0,0,1,27.46-27.46h0a27.46,27.46,0,0,1,27.46,27.46Z" transform="translate(-549.189 -543.367)"/><path class="e" d="M765.614,571.888H778.66a27.344,27.344,0,0,0-24.37-27.282C760.723,547.286,765.561,558.158,765.614,571.888Z" transform="translate(-723.707 -544.381)"/><path class="e" d="M646.109,573.663h12.166V546.956C651.526,547.879,646.165,559.486,646.109,573.663Z" transform="translate(-631.657 -546.38)"/><path class="d" d="M738.635,546.85v27H750.92C750.863,559.174,744.813,547.67,738.635,546.85Z" transform="translate(-710.387 -546.29)"/><path class="d" d="M573.776,543.095a27.46,27.46,0,0,0-24.37,27.282h13.046C562.505,556.682,567.343,545.775,573.776,543.095Z" transform="translate(-549.374 -543.095)"/><path class="d" d="M549.913,690.742a27.6,27.6,0,0,0-.507,5.267h.006c0,.075-.006.15-.006.225h54.92c0-.466-.013-.929-.035-1.389,0-.07-.011-.139-.015-.208-.022-.4-.052-.8-.091-1.195,0-.028-.007-.055-.01-.082-.091-.887-.227-1.759-.4-2.618H549.913Z" transform="translate(-549.374 -668.726)"/></g></g></g></g></g><g class="c" transform="translate(-2432.535 -935.018)"><g transform="translate(-6056.472 13432.244)"><g transform="translate(0 0)"><g transform="translate(0 0)"><g transform="translate(0 21.657)"><rect class="e" width="31.695" height="110.225" transform="translate(31.84)"/><rect class="d" width="31.695" height="110.225" transform="translate(0)"/><g transform="translate(4.812 4.13)"><g transform="translate(31.84)"><rect class="d" width="22.07" height="1.192"/><rect class="d" width="22.07" height="1.192" transform="translate(0 4.971)"/><rect class="d" width="22.07" height="1.192" transform="translate(0 9.942)"/><rect class="d" width="22.07" height="1.192" transform="translate(0 14.913)"/><rect class="d" width="22.07" height="1.192" transform="translate(0 19.884)"/><rect class="d" width="22.07" height="1.192" transform="translate(0 24.855)"/><rect class="d" width="22.07" height="1.192" transform="translate(0 29.826)"/><rect class="d" width="22.07" height="1.192" transform="translate(0 34.797)"/><rect class="d" width="22.07" height="1.192" transform="translate(0 39.769)"/><rect class="d" width="22.07" height="1.192" transform="translate(0 44.74)"/><rect class="d" width="22.07" height="1.192" transform="translate(0 49.711)"/><rect class="d" width="22.07" height="1.192" transform="translate(0 54.682)"/><rect class="d" width="22.07" height="1.192" transform="translate(0 59.653)"/><rect class="d" width="22.07" height="1.192" transform="translate(0 64.624)"/><rect class="d" width="22.07" height="1.192" transform="translate(0 69.595)"/><rect class="d" width="22.07" height="1.192" transform="translate(0 74.566)"/><rect class="d" width="22.07" height="1.192" transform="translate(0 79.537)"/></g><g transform="translate(0)"><rect class="e" width="22.07" height="1.192"/><rect class="e" width="22.07" height="1.192" transform="translate(0 4.971)"/><rect class="e" width="22.07" height="1.192" transform="translate(0 9.942)"/><rect class="e" width="22.07" height="1.192" transform="translate(0 14.913)"/><rect class="e" width="22.07" height="1.192" transform="translate(0 19.884)"/><rect class="e" width="22.07" height="1.192" transform="translate(0 24.855)"/><rect class="e" width="22.07" height="1.192" transform="translate(0 29.826)"/><rect class="e" width="22.07" height="1.192" transform="translate(0 34.797)"/><rect class="e" width="22.07" height="1.192" transform="translate(0 39.769)"/><rect class="e" width="22.07" height="1.192" transform="translate(0 44.74)"/><rect class="e" width="22.07" height="1.192" transform="translate(0 49.711)"/><rect class="e" width="22.07" height="1.192" transform="translate(0 54.682)"/><rect class="e" width="22.07" height="1.192" transform="translate(0 59.653)"/><rect class="e" width="22.07" height="1.192" transform="translate(0 64.624)"/><rect class="e" width="22.07" height="1.192" transform="translate(0 69.595)"/><rect class="e" width="22.07" height="1.192" transform="translate(0 74.566)"/><rect class="e" width="22.07" height="1.192" transform="translate(0 79.537)"/></g></g></g><g transform="translate(9.933)"><path class="f" d="M592.805,565.223A21.808,21.808,0,0,0,571,543.415h0a21.808,21.808,0,0,0-21.808,21.808Z" transform="translate(-549.163 -543.377)"/><path class="e" d="M764.651,566.273H754.29a21.716,21.716,0,0,1,19.354-21.667C768.535,546.734,764.693,555.369,764.651,566.273Z" transform="translate(-754.29 -544.427)"/><path class="e" d="M655.771,568.166h-9.662v-21.21C651.47,547.689,655.727,556.907,655.771,568.166Z" transform="translate(-623.606 -546.499)"/><path class="d" d="M748.392,546.85v21.441h-9.757C738.68,556.638,743.485,547.5,748.392,546.85Z" transform="translate(-727.183 -546.405)"/><path class="d" d="M549.406,543.095a21.809,21.809,0,0,1,19.354,21.667H558.4C558.357,553.886,554.515,545.223,549.406,543.095Z" transform="translate(-525.144 -543.095)"/><path class="d" d="M592.62,690.742a21.918,21.918,0,0,1,.4,4.183h0c0,.06,0,.119,0,.179H549.406c0-.37.01-.738.028-1.1,0-.055.008-.11.012-.165.018-.318.041-.635.072-.949,0-.022.005-.043.008-.065.072-.7.18-1.4.317-2.079H592.62Z" transform="translate(-549.406 -673.258)"/></g></g></g></g></g><g class="c" transform="translate(-2818.114 -934.185)"><g transform="translate(-6056.472 13432.244)"><g transform="translate(0 0)"><g transform="translate(0 0)"><g transform="translate(0 21.657)"><rect class="e" width="31.695" height="110.225" transform="translate(31.84)"/><rect class="d" width="31.695" height="110.225" transform="translate(0)"/><g transform="translate(4.812 4.13)"><g transform="translate(31.84)"><rect class="d" width="22.07" height="1.192"/><rect class="d" width="22.07" height="1.192" transform="translate(0 4.971)"/><rect class="d" width="22.07" height="1.192" transform="translate(0 9.942)"/><rect class="d" width="22.07" height="1.192" transform="translate(0 14.913)"/><rect class="d" width="22.07" height="1.192" transform="translate(0 19.884)"/><rect class="d" width="22.07" height="1.192" transform="translate(0 24.855)"/><rect class="d" width="22.07" height="1.192" transform="translate(0 29.826)"/><rect class="d" width="22.07" height="1.192" transform="translate(0 34.797)"/><rect class="d" width="22.07" height="1.192" transform="translate(0 39.769)"/><rect class="d" width="22.07" height="1.192" transform="translate(0 44.74)"/><rect class="d" width="22.07" height="1.192" transform="translate(0 49.711)"/><rect class="d" width="22.07" height="1.192" transform="translate(0 54.682)"/><rect class="d" width="22.07" height="1.192" transform="translate(0 59.653)"/><rect class="d" width="22.07" height="1.192" transform="translate(0 64.624)"/><rect class="d" width="22.07" height="1.192" transform="translate(0 69.595)"/><rect class="d" width="22.07" height="1.192" transform="translate(0 74.566)"/><rect class="d" width="22.07" height="1.192" transform="translate(0 79.537)"/></g><g transform="translate(0)"><rect class="e" width="22.07" height="1.192"/><rect class="e" width="22.07" height="1.192" transform="translate(0 4.971)"/><rect class="e" width="22.07" height="1.192" transform="translate(0 9.942)"/><rect class="e" width="22.07" height="1.192" transform="translate(0 14.913)"/><rect class="e" width="22.07" height="1.192" transform="translate(0 19.884)"/><rect class="e" width="22.07" height="1.192" transform="translate(0 24.855)"/><rect class="e" width="22.07" height="1.192" transform="translate(0 29.826)"/><rect class="e" width="22.07" height="1.192" transform="translate(0 34.797)"/><rect class="e" width="22.07" height="1.192" transform="translate(0 39.769)"/><rect class="e" width="22.07" height="1.192" transform="translate(0 44.74)"/><rect class="e" width="22.07" height="1.192" transform="translate(0 49.711)"/><rect class="e" width="22.07" height="1.192" transform="translate(0 54.682)"/><rect class="e" width="22.07" height="1.192" transform="translate(0 59.653)"/><rect class="e" width="22.07" height="1.192" transform="translate(0 64.624)"/><rect class="e" width="22.07" height="1.192" transform="translate(0 69.595)"/><rect class="e" width="22.07" height="1.192" transform="translate(0 74.566)"/><rect class="e" width="22.07" height="1.192" transform="translate(0 79.537)"/></g></g></g><g transform="translate(9.933)"><path class="f" d="M592.805,565.223A21.808,21.808,0,0,0,571,543.415h0a21.808,21.808,0,0,0-21.808,21.808Z" transform="translate(-549.163 -543.377)"/><path class="e" d="M764.651,566.273H754.29a21.716,21.716,0,0,1,19.354-21.667C768.535,546.734,764.693,555.369,764.651,566.273Z" transform="translate(-754.29 -544.427)"/><path class="e" d="M655.771,568.166h-9.662v-21.21C651.47,547.689,655.727,556.907,655.771,568.166Z" transform="translate(-623.606 -546.499)"/><path class="d" d="M748.392,546.85v21.441h-9.757C738.68,556.638,743.485,547.5,748.392,546.85Z" transform="translate(-727.183 -546.405)"/><path class="d" d="M549.406,543.095a21.809,21.809,0,0,1,19.354,21.667H558.4C558.357,553.886,554.515,545.223,549.406,543.095Z" transform="translate(-525.144 -543.095)"/><path class="d" d="M592.62,690.742a21.918,21.918,0,0,1,.4,4.183h0c0,.06,0,.119,0,.179H549.406c0-.37.01-.738.028-1.1,0-.055.008-.11.012-.165.018-.318.041-.635.072-.949,0-.022.005-.043.008-.065.072-.7.18-1.4.317-2.079H592.62Z" transform="translate(-549.406 -673.258)"/></g></g></g></g></g><g transform="translate(-10143.092 12578.706)"><g transform="translate(0 0)"><g transform="translate(0)"><path class="e" d="M2342.129,5095.135a10,10,0,1,0-18.123-.068,9.609,9.609,0,0,1,.032,8.144,10,10,0,1,0,18.123.068A9.61,9.61,0,0,1,2342.129,5095.135Z" transform="translate(-2323.084 -5080.866)"/></g><g transform="translate(2.605 9.247)"><g transform="translate(0)"><rect class="g" width="1.303" height="22.745" transform="translate(6.886 4.949)"/><rect class="g" width="1.303" height="6.596" transform="translate(2.404 10.25) rotate(-45.121)"/><rect class="g" width="9.989" height="1.303" transform="translate(7.078 22.036) rotate(-44.878)"/><rect class="g" width="1.303" height="41.6" transform="translate(6.886)"/><rect class="g" width="1.303" height="6.596" transform="translate(2.404 10.25) rotate(-45.121)"/><rect class="g" width="6.596" height="1.303" transform="translate(7.078 13.981) rotate(-44.878)"/><rect class="g" width="1.303" height="4.434" transform="translate(3.936 5.038) rotate(-45.12)"/><rect class="g" width="4.434" height="1.303" transform="translate(7.078 7.244) rotate(-44.878)"/><rect class="g" width="9.989" height="1.303" transform="translate(7.078 22.036) rotate(-44.878)"/><rect class="g" width="1.303" height="9.989" transform="matrix(0.706, -0.709, 0.709, 0.706, 0, 15.911)"/></g></g></g></g><g transform="translate(-8481.448 12578.152)"><g transform="translate(0 0)"><g transform="translate(0)"><path class="e" d="M2342.129,5095.135a10,10,0,1,0-18.123-.068,9.609,9.609,0,0,1,.032,8.144,10,10,0,1,0,18.123.068A9.61,9.61,0,0,1,2342.129,5095.135Z" transform="translate(-2323.084 -5080.866)"/></g><g transform="translate(2.605 9.247)"><g transform="translate(0)"><rect class="g" width="1.303" height="22.745" transform="translate(6.886 4.949)"/><rect class="g" width="1.303" height="6.596" transform="translate(2.404 10.25) rotate(-45.121)"/><rect class="g" width="9.989" height="1.303" transform="translate(7.078 22.036) rotate(-44.878)"/><rect class="g" width="1.303" height="41.6" transform="translate(6.886)"/><rect class="g" width="1.303" height="6.596" transform="translate(2.404 10.25) rotate(-45.121)"/><rect class="g" width="6.596" height="1.303" transform="translate(7.078 13.981) rotate(-44.878)"/><rect class="g" width="1.303" height="4.434" transform="translate(3.936 5.038) rotate(-45.12)"/><rect class="g" width="4.434" height="1.303" transform="translate(7.078 7.244) rotate(-44.878)"/><rect class="g" width="9.989" height="1.303" transform="translate(7.078 22.036) rotate(-44.878)"/><rect class="g" width="1.303" height="9.989" transform="matrix(0.706, -0.709, 0.709, 0.706, 0, 15.911)"/></g></g></g></g><g transform="translate(-8390.564 12573.152)"><g transform="translate(0 0)"><g transform="translate(0)"><path class="e" d="M2342.129,5095.135a10,10,0,1,0-18.123-.068,9.609,9.609,0,0,1,.032,8.144,10,10,0,1,0,18.123.068A9.61,9.61,0,0,1,2342.129,5095.135Z" transform="translate(-2323.084 -5080.866)"/></g><g transform="translate(2.605 9.247)"><g transform="translate(0)"><rect class="g" width="1.303" height="22.745" transform="translate(6.886 4.949)"/><rect class="g" width="1.303" height="6.596" transform="translate(2.404 10.25) rotate(-45.121)"/><rect class="g" width="9.989" height="1.303" transform="translate(7.078 22.036) rotate(-44.878)"/><rect class="g" width="1.303" height="41.6" transform="translate(6.886)"/><rect class="g" width="1.303" height="6.596" transform="translate(2.404 10.25) rotate(-45.121)"/><rect class="g" width="6.596" height="1.303" transform="translate(7.078 13.981) rotate(-44.878)"/><rect class="g" width="1.303" height="4.434" transform="translate(3.936 5.038) rotate(-45.12)"/><rect class="g" width="4.434" height="1.303" transform="translate(7.078 7.244) rotate(-44.878)"/><rect class="g" width="9.989" height="1.303" transform="translate(7.078 22.036) rotate(-44.878)"/><rect class="g" width="1.303" height="9.989" transform="matrix(0.706, -0.709, 0.709, 0.706, 0, 15.911)"/></g></g></g></g><g transform="translate(-9450.752 12280.445)"><path class="k" d="M2490.343,1890.1h-356.4a1.9,1.9,0,0,0-1.892,1.892h0a1.924,1.924,0,0,0,1.892,1.892h356.4a1.923,1.923,0,0,0,1.892-1.892h0a1.9,1.9,0,0,0-1.892-1.892Zm20.428,0h-7.721a1.9,1.9,0,0,0-1.892,1.892h0a1.922,1.922,0,0,0,1.892,1.892h7.721a1.922,1.922,0,0,0,1.891-1.892h0a1.9,1.9,0,0,0-1.891-1.892Zm-389.169,0h-8.4a1.9,1.9,0,0,0-1.892,1.892h0a1.923,1.923,0,0,0,1.892,1.892h8.4a1.923,1.923,0,0,0,1.892-1.892h0A1.9,1.9,0,0,0,2121.6,1890.1Z" transform="translate(-1738.305 -1406.227)"/></g></g></svg>