<svg xmlns="http://www.w3.org/2000/svg" width="420" height="154.782" viewBox="0 0 420 154.782"><defs><style>.a,.y{fill:#8eb5ff;}.a,.b,.c,.e,.f,.g,.h,.j,.k,.l{fill-rule:evenodd;}.b{fill:#184aa5;}.aa,.c,.h{fill:#ccdeff;}.d,.e{fill:#fff;}.f,.i{fill:#edf3ff;}.g{fill:#f4b350;}.h{opacity:0.242;}.j{fill:#2f7dcf;}.k{fill:#226fbf;}.l{fill:#cbddff;}.m{fill:#ea0f90;}.n{fill:#ffaf97;}.o{fill:#19467c;}.p{fill:#ffc764;}.q{fill:#d3892f;}.r{fill:#f29c61;}.s{fill:#031f59;}.t{fill:#fdfffc;}.u{fill:#d54f1f;}.v{fill:#0c3556;}.w{fill:#ff95d3;}.x{opacity:0.38;}.z{fill:#0855c4;}</style></defs><g transform="translate(-109.44 -1115.899)"><path class="a" d="M480.791,1386.163H691.875l53.843-7.661,8.45.011,5.606-18.393-.9-34.448H480.791Z" transform="translate(-241.806 -136.594)"/><path class="b" d="M388.688,1356.6H373.76c-12.675,0-22.951,15.852-22.951,35.407s10.276,35.406,22.951,35.406h14.928c12.675,0,22.951-15.852,22.951-35.406s-10.276-35.407-22.951-35.407Zm-184.263,70.814c12.675,0,22.951-15.852,22.951-35.406S217.1,1356.6,204.425,1356.6H189.5c-12.675,0-22.951,15.852-22.951,35.407s10.276,35.406,22.951,35.406Z" transform="translate(-37.185 -156.732)"/><path class="a" d="M1113.888,1356.6h-14.927c-12.676,0-22.952,15.852-22.952,35.407s10.276,35.406,22.952,35.406h14.927C1127.692,1427.412,1128.143,1356.6,1113.888,1356.6Z" transform="translate(-629.383 -156.732)"/><path class="c" d="M1141.75,1427.412c-12.642,0-22.952-15.906-22.952-35.407s10.311-35.407,22.952-35.407,22.951,15.906,22.951,35.407S1154.39,1427.412,1141.75,1427.412Z" transform="translate(-657.245 -156.732)"/><ellipse class="d" cx="15.578" cy="24.032" rx="15.578" ry="24.032" transform="translate(468.927 1211.242)"/><path class="a" d="M1159.65,1440.231c-7.36,0-13.363-9.26-13.363-20.612s6-20.614,13.363-20.614,13.361,9.259,13.361,20.614S1167.008,1440.231,1159.65,1440.231Z" transform="translate(-675.145 -184.345)"/><path class="a" d="M1157.069,1400.114c-6.143,1.857-10.778,10.206-10.778,20.227s4.635,18.369,10.778,20.226c6.143-1.856,10.778-10.206,10.778-20.226S1163.212,1401.971,1157.069,1400.114Z" transform="translate(-675.148 -185.067)"/><path class="e" d="M1158.845,1443.379a8.992,8.992,0,0,0,1.863-.385v-14.555l9.034,4.186a27.556,27.556,0,0,0,.925-3.29l.244-1.263a30.921,30.921,0,0,0,.389-3.468l-8.92-4.134,5.372-11.736a18.034,18.034,0,0,0-1.792-2.472l-.577-.626a13.055,13.055,0,0,0-2.061-1.733l-5.333,11.65-4.891-10.686a17.6,17.6,0,0,0-4.1,5.557l4.6,10.047-7.262,3.365a29.721,29.721,0,0,0,1.365,8.11l7.568-3.507v13.832A9.383,9.383,0,0,0,1158.845,1443.379Z" transform="translate(-675.178 -187.535)"/><path class="a" d="M585.684,1356.6H570.756c-12.675,0-22.951,15.852-22.951,35.407s10.276,35.406,22.951,35.406h14.928C599.488,1427.412,599.939,1356.6,585.684,1356.6Z" transform="translate(-285.442 -156.732)"/><path class="c" d="M613.546,1427.412c-12.642,0-22.952-15.906-22.952-35.407S600.9,1356.6,613.546,1356.6,636.5,1372.5,636.5,1392.005,626.186,1427.412,613.546,1427.412Z" transform="translate(-313.304 -156.732)"/><path class="e" d="M627.312,1437.27c-8.58,0-15.578-10.8-15.578-24.031s7-24.032,15.578-24.032,15.577,10.8,15.577,24.032S635.891,1437.27,627.312,1437.27Z" transform="translate(-327.07 -177.965)"/><path class="a" d="M631.446,1440.231c-7.36,0-13.363-9.26-13.363-20.612s6-20.614,13.363-20.614,13.361,9.259,13.361,20.614S638.8,1440.231,631.446,1440.231Z" transform="translate(-331.204 -184.345)"/><path class="a" d="M628.865,1400.114c-6.143,1.857-10.778,10.206-10.778,20.227s4.635,18.369,10.778,20.226c6.143-1.856,10.778-10.206,10.778-20.226S635.008,1401.971,628.865,1400.114Z" transform="translate(-331.207 -185.067)"/><path class="e" d="M630.641,1443.379a8.994,8.994,0,0,0,1.863-.385v-14.555l9.034,4.186a27.556,27.556,0,0,0,.925-3.29l.244-1.263a30.851,30.851,0,0,0,.389-3.468l-8.92-4.134,5.373-11.736a18,18,0,0,0-1.792-2.472l-.577-.626a13.058,13.058,0,0,0-2.061-1.733l-5.333,11.65-4.892-10.686a17.6,17.6,0,0,0-4.1,5.557l4.6,10.047-7.262,3.365a29.707,29.707,0,0,0,1.366,8.11l7.569-3.507v13.832A9.38,9.38,0,0,0,630.641,1443.379Z" transform="translate(-331.237 -187.535)"/><path class="e" d="M513.937,1164.145a205.874,205.874,0,0,0-25.227-5.717c-13.762-9.3-26.841-19.706-41.285-27.911a74.911,74.911,0,0,0-23.618-8.96c-29.838-5.285-57.3-6.045-85-5.514-27.063.519-60,2.6-79.3,8.674-28.174,8.865-50.106,24.435-71.12,39.537-23.318,3.776-46.08,10.77-63.464,19.6a3.336,3.336,0,0,0-1.363,1.493l-5.213,11.477-3.061,3.024a5.211,5.211,0,0,0-1.544,3.272l-1.33,12.39-2.362,2.9a2.73,2.73,0,0,0-.617,1.639l.34,5.119c.108,1.623,1.088,3.965,2.9,3.965h1.434l.274,9.906a2.038,2.038,0,0,0-2.147,2.214l.008,6.148a1.954,1.954,0,0,0,2.156,2.172H266.03c4.73-.636,4.094-9.693,6.2-22.042,2.76-16.169,12.576-32.671,28.122-32.671,18.727,0,27.325,24.12,27.325,39.732a44.326,44.326,0,0,1-1.862,12.811c-.385,1.273.31,2.17,1.3,2.17H450.069c4.729-.636,4.093-9.693,6.2-22.042,2.76-16.169,12.576-32.671,28.122-32.671,18.727,0,27.325,24.12,27.325,39.732a45.562,45.562,0,0,1-.327,5.452c-.216,1.782.472,2.036,1.272,1.822l6.161-1.663a6.268,6.268,0,0,0,3.171-1.932l2.762-2.9a5.554,5.554,0,0,0,1.4-3.908l.01-7.195,2.148-7.207a22.175,22.175,0,0,0,.781-4.608l.316-3.984a8.907,8.907,0,0,0-.838-4.411l-2.365-5.319-1.549-9.126,1.032-1.7a2.843,2.843,0,0,0,.424-2.222l-2.125-8.148a1.912,1.912,0,0,0-1.062-1.172l-2.166-1.188a34.39,34.39,0,0,0-5.026-9.828A3.7,3.7,0,0,0,513.937,1164.145Z" transform="translate(0)"/><path class="e" d="M598.913,1164.145a205.876,205.876,0,0,0-25.227-5.717c-13.762-9.3-26.841-19.706-41.285-27.911a74.911,74.911,0,0,0-23.618-8.96c-29.838-5.285-57.3-6.045-85-5.514-27.063.519-60,2.6-79.3,8.674-28.174,8.865-50.106,24.435-71.12,39.537a253.865,253.865,0,0,0-33.43,7.744h364.59a32.556,32.556,0,0,0-3.816-6.648A3.7,3.7,0,0,0,598.913,1164.145Z" transform="translate(-84.976)"/><path class="e" d="M118.546,1327.211l-.191.421-3.061,3.024a5.21,5.21,0,0,0-1.544,3.271l-1.33,12.39-2.362,2.9a2.73,2.73,0,0,0-.617,1.639l.34,5.12c.108,1.623,1.088,3.965,2.9,3.965h1.434l.274,9.906a2.038,2.038,0,0,0-2.147,2.214l.008,6.148a1.954,1.954,0,0,0,2.156,2.172H256.7c-25.009-18.9-15.835-45-.117-56.907,12.007-9.092-15.544-7.421-48.2-3.68C174.156,1323.711,134.109,1329.88,118.546,1327.211Z" transform="translate(0 -130.81)"/><path class="f" d="M1078.259,1386.163h2.658c4.729-.636,4.092-9.691,6.2-22.042,2.763-16.17,12.576-32.671,28.122-32.671,18.727,0,27.324,24.12,27.324,39.732a45.566,45.566,0,0,1-.327,5.452c-.216,1.782.472,2.036,1.272,1.822l3.788-1.022a51.28,51.28,0,0,0,.469-6.944c0-20.692-11.745-44.818-32.971-44.818s-30.042,18.615-33.156,36.853C1079.68,1374.008,1080.8,1382.969,1078.259,1386.163Z" transform="translate(-630.849 -136.594)"/><path class="f" d="M550.23,1386.163h2.821c4.73-.636,4.092-9.691,6.2-22.042,2.763-16.17,12.576-32.671,28.122-32.671,18.727,0,27.325,24.12,27.325,39.732a44.332,44.332,0,0,1-1.862,12.812c-.385,1.273.31,2.17,1.3,2.17h3.426a2.388,2.388,0,0,1,.073-1.221,50.03,50.03,0,0,0,2.1-14.452c0-20.692-11.745-44.818-32.972-44.818s-30.043,18.615-33.156,36.853C551.652,1374.008,552.768,1382.969,550.23,1386.163Z" transform="translate(-287.021 -136.594)"/><path class="e" d="M541.514,1164.145a205.866,205.866,0,0,0-25.227-5.717l-21.465,6.063H347.959l-12.721-.4,7.72-2.988,4.25-4.031,24.84-26.288a26.178,26.178,0,0,1,13.089-7.731c14.006-3.835,42.578-3.511,74.528.585h0a61.926,61.926,0,0,0-8.28-2.083c-29.838-5.285-57.3-6.045-85-5.514l-1.273.025h0l-1.281.026h0c-20.986.474-45.057,1.908-63.457,5.393h0q-1.127.213-2.224.436h0l-1.089.226h0l-1.074.231h0l-1.058.237h0l-1.042.241h0l-1.025.247c-.339.083-.674.169-1.007.254l-.99.259-.972.265-.953.27q-.472.136-.934.276t-.915.281c-28.174,8.865-50.106,24.435-71.12,39.537-8.18,1.435-16.227,3.117-24.088,5.144a211.033,211.033,0,0,0-39.431,14.484l-.027.015-.011.005-.011.007-.006,0,0,0-.011.007-.01.006h0l-.009.005-.011.006-.008,0,0,0-.01.006-.01.007,0,0-.008,0-.01.007-.009.006h0l-.01.007-.01.006,0,0-.006,0-.01.007-.011.007-.01.007-.01.008-.006,0,0,0-.01.007-.01.008h0l-.008.006-.011.008-.007.005,0,0-.01.007-.01.008,0,0-.007.006-.01.008-.009.007h0l-.01.008-.01.008,0,0-.007,0-.009.009-.01.008-.01.009-.01.008,0,.005,0,0-.01.009-.01.008v0l-.008.007-.01.009-.006.006,0,0-.009.008-.01.009,0,0-.007.007-.01.009-.007.007h0l-.009.01-.009.009,0,0-.006.006-.009.009-.009.009-.009.009-.009.009-.005.005,0,0-.009.01-.009.009h0l-.009.009-.008.009-.007.006,0,0-.009.009-.009.01,2.838,3.83,6.158.01,90.856.89,36.609-4.654c9.923-4.359,46.154-11.455,64.958-11.266l195.132,1.963a34.388,34.388,0,0,0-5.026-9.828l-.039-.05-.02-.025-.016-.019,0,0-.021-.025h0l-.019-.023-.008-.008-.055-.061,0,0-.023-.024h0l-.021-.022-.007-.006-.016-.017-.024-.024-.013-.012-.012-.011h0L543,1165l-.01-.01,0,0-.014-.012-.009-.008,0,0-.014-.012-.008-.007-.005-.005-.013-.011-.007-.006-.006-.007-.014-.012-.005,0-.008-.008-.014-.012,0,0-.01-.008-.014-.012,0,0-.011-.01-.014-.011h0l-.013-.011-.014-.011h0l-.014-.011-.013-.009,0,0-.014-.011-.012-.008,0,0-.014-.011-.01-.007-.005,0-.015-.011-.008-.006-.007-.005-.015-.011-.007,0-.008-.006-.015-.011-.006,0-.009-.007-.016-.011,0,0-.011-.008-.016-.01,0,0-.014-.009-.015-.01h0l-.014-.01-.015-.009h0l-.016-.01-.014-.009h0l-.016-.01-.012-.007,0,0-.016-.01-.01-.006-.006,0-.016-.01-.009-.005-.008,0-.016-.01-.007,0-.009-.006-.016-.009-.006,0-.01-.006-.017-.009,0,0-.013-.007-.016-.009h0l-.014-.008-.033-.018-.015-.008h0l-.017-.009-.013-.006,0,0-.016-.008-.011-.006-.005,0-.016-.009-.01,0-.007,0-.016-.008-.008,0-.028-.013,0,0-.031-.015h0l-.007,0-.006,0-.012-.005-.006,0c-.119-.052-.243-.1-.373-.146l-.007,0-.006,0h0l-.031-.009Z" transform="translate(-27.577)"/><path class="g" d="M1277.445,1300.067l1.031-1.7a2.835,2.835,0,0,0,.433-2.185l-2.134-8.186a1.7,1.7,0,0,0-1.012-1.151l-2.216-1.21-6.7-.1c-1.3-.02-1.755,1.255-.878,2.249l10.462,11.875A1.281,1.281,0,0,0,1277.445,1300.067Z" transform="translate(-752.782 -110.461)"/><path class="h" d="M118.674,1346.425l-3.061,3.024-.047.047-.022.021-.021.022,0,0-.017.018-.021.022-.007.007-.014.014-.021.022-.01.011-.01.011-.02.021-.013.015-.006.007-.02.022-.016.018,0,0-.02.022-.018.022h0l-.02.022-.018.022,0,0-.016.019-.019.022-.006.007-.012.016-.018.022-.009.011-.008.011-.018.022-.011.015-.006.008-.017.022-.014.018,0,0-.017.023-.016.022h0l-.016.023-.016.022,0,0-.015.019-.016.023,0,.007-.011.016-.016.022-.008.011-.008.012-.016.023-.01.015-.006.008-.015.023-.012.019,0,0-.015.023-.014.022h0l-.015.024-.015.023,0,0-.013.02-.014.023,0,.007-.01.017-.014.023-.006.011-.008.013-.014.023-.008.015-.006.009-.013.023-.01.019,0,0-.014.024-.039.073-.012.021-.012.024,0,.006-.008.017-.013.024,0,.01-.007.013-.012.024-.007.015-.005.009-.011.024-.009.018,0,.006-.012.023,8.476,8.188a7.383,7.383,0,0,0,5.251,2.236l76.816.272a25.252,25.252,0,0,0,7.906-1.3l41.092-14.7-45.832,8.11c-4.233.748-3.927.445-8.831.445H134.03c-2.846.062-6.943-.358-8.841-1.561l-6.515-6.219Zm-5.935,18.685-.037.045-.037.045-.037.045-.037.046-.037.045-.037.045-.037.045-.037.045-.037.045-.037.045-.037.046-.037.045-.037.045-.037.045-.037.045-.037.045-.037.045-.037.046-.037.045-.037.045-.037.045-.037.045-.036.045-.038.045-.036.046-.037.045-.037.045-.037.045-.036.045-.038.045-.036.045-.037.046-.037.045-.037.045-.037.045-.037.045-.037.046-.037.045-.037.045-.037.046-.037.045-.037.045-.037.045-.037.045-.037.045-.037.046-.037.046-.037.045-.037.046-.037.045-.037.045-.037.045-.037.045-.037.046-.037.045-.037.045-.037.045-.036.045-.037.045-.037.045-.037.046-.036.045-.038.045-.036.045-.017.02-.016.02-.016.02a2.582,2.582,0,0,0-.4.714l11.746,5.955Z" transform="translate(-0.32 -149.603)"/><path class="c" d="M171.93,1323.284h72.142a1.17,1.17,0,0,1,.926,1.854l-8.171,12.566a4.557,4.557,0,0,1-3.628,1.937H170.751a1.306,1.306,0,0,1-1.146-1.245l1.194-14.024A1.1,1.1,0,0,1,171.93,1323.284Z" transform="translate(-39.175 -135.04)"/><path class="c" d="M183.049,1323.284h68.282a1.17,1.17,0,0,1,.926,1.854l-8.171,12.566a4.558,4.558,0,0,1-3.628,1.937H181.9a1.306,1.306,0,0,1-1.145-1.245l1.193-14.024A1.1,1.1,0,0,1,183.049,1323.284Z" transform="translate(-46.434 -135.04)"/><path class="c" d="M158.223,1444.589h69.985a6.146,6.146,0,0,1,3.9,1.6l9.532,9.894a1.164,1.164,0,0,1-.915,1.988l-84.614,0a1.25,1.25,0,0,1-1.293-1.473l1.735-10.784A1.6,1.6,0,0,1,158.223,1444.589Z" transform="translate(-29.535 -214.027)"/><path class="c" d="M169.775,1444.589h65.955a6.146,6.146,0,0,1,3.9,1.6l9.532,9.894a1.164,1.164,0,0,1-.915,1.988l-80.584,0h-.041a1.248,1.248,0,0,1-1.252-1.473l1.735-10.784A1.6,1.6,0,0,1,169.775,1444.589Z" transform="translate(-37.057 -214.027)"/><path class="c" d="M415.106,1450.754h14.37a5.255,5.255,0,0,1,3.94,1.777l5.395,5.965a1.248,1.248,0,0,1-.951,2.165H424.234a6.155,6.155,0,0,1-4.064-1.585l-5.946-6.335A1.127,1.127,0,0,1,415.106,1450.754Z" transform="translate(-198.199 -218.042)"/><path class="c" d="M426.657,1450.754H437a5.255,5.255,0,0,1,3.94,1.777l5.395,5.965a1.248,1.248,0,0,1-.951,2.165h-9.594a6.153,6.153,0,0,1-4.064-1.585l-5.947-6.335A1.127,1.127,0,0,1,426.657,1450.754Z" transform="translate(-205.721 -218.042)"/><path class="e" d="M140.854,1312.277a3.554,3.554,0,0,0-.646.94,53.817,53.817,0,0,0-5.213,11.477l6.138,6.007a1.112,1.112,0,0,0,1.891-.835L144.251,1317c.083-.869-.4-1.36-1.083-2.129Z" transform="translate(-16.64 -127.872)"/><path class="f" d="M754.067,1475.412l113.116-4.244-10.815,5.889a10.092,10.092,0,0,1-4.752,1.21H754.067A1.434,1.434,0,1,1,754.067,1475.412Z" transform="translate(-418.734 -231.334)"/><path class="i" d="M2.1,0h9.1a2.1,2.1,0,0,1,2.1,2.1v0a2.1,2.1,0,0,1-2.1,2.1H2.1A2.1,2.1,0,0,1,0,2.1v0A2.1,2.1,0,0,1,2.1,0Z" transform="translate(154.36 1194.327)"/><path class="d" d="M2.1,0h9.1a2.1,2.1,0,0,1,2.1,2.1v0a2.1,2.1,0,0,1-2.1,2.1H2.1A2.1,2.1,0,0,1,0,2.1v0A2.1,2.1,0,0,1,2.1,0Z" transform="translate(152.255 1194.327)"/><path class="a" d="M922.079,1294.049h9.83a2.156,2.156,0,0,1,2.15,2.15h0a2.157,2.157,0,0,1-2.15,2.151h-9.83a2.157,2.157,0,0,1-2.15-2.151h0A2.157,2.157,0,0,1,922.079,1294.049Z" transform="translate(-527.752 -116.003)"/><path class="a" d="M1096.392,1294.049h9.829a2.157,2.157,0,0,1,2.151,2.15h0a2.157,2.157,0,0,1-2.151,2.151h-9.829a2.157,2.157,0,0,1-2.151-2.151h0A2.157,2.157,0,0,1,1096.392,1294.049Z" transform="translate(-641.255 -116.003)"/><path class="e" d="M440.928,1309.377l-42.048,4.658a3.34,3.34,0,0,0-2.409,1.445l-8.047,12.838a1.161,1.161,0,0,0,1.12,1.813l45.749-8.1a3.043,3.043,0,0,0,2.049-1.582l4.747-9.379A1.175,1.175,0,0,0,440.928,1309.377Z" transform="translate(-181.528 -125.979)"/><path class="j" d="M769.278,1207.444H756.86c-7.341,0-7.342,14.977,0,14.977h12.418a5.3,5.3,0,0,0,5.28-5.281v-4.415A5.3,5.3,0,0,0,769.278,1207.444Z" transform="translate(-417.983 -59.61)"/><path class="j" d="M742.424,1229.506l-7.366,2.069c-1.707.479-2.558,1.884-2.3,3.908.241,1.866,2.24,3.139,5.632,2.287l4.843-1.215c1.048-.264,2.237-.92,1.965-1.966l-.813-3.117C744.118,1230.427,743.463,1229.215,742.424,1229.506Z" transform="translate(-405.847 -73.947)"/><path class="k" d="M778.7,1215.663h0a2.425,2.425,0,0,0-2.414,2.414v5.666a1.541,1.541,0,0,1-1.7,1.675h-11.5c-2.208,0-2.212,2.354,0,2.354h12.754a5.181,5.181,0,0,0,5.281-5.44v-4.255A2.421,2.421,0,0,0,778.7,1215.663Z" transform="translate(-424.541 -64.962)"/><path class="f" d="M409.41,1139.69a15.637,15.637,0,0,0-1.721.5c-28.175,8.9-50.113,24.478-71.119,39.552H438.948c9.033,0,17.995-2.01,23.444-7.752l29.251-30.436c.788-.861.5-1.866-.861-1.866Z" transform="translate(-147.897 -15.492)"/><path class="l" d="M348.7,1181.611h98.147c7.456,0,16.489-1.436,21.938-7.035l27.53-28.713h-83.45c-24.017,8.04-43.8,21.176-64.165,35.748Z" transform="translate(-155.792 -19.511)"/><path class="e" d="M717.778,1179.51H862.719l5.3-1.5a.948.948,0,0,0,.789-1.433c-5.806-8.526-31.97-29.376-43.081-32.242-13.906-3.582-28.816-4.872-42.938-5.3-9.534-.286-22.58.287-32.114,4.586-8.745,4.013-23.3,20.922-33.69,34.392a.907.907,0,0,0,.788,1.5Z" transform="translate(-395.459 -15.02)"/><path class="l" d="M726.866,1181.326h68.958l-.072-.573v-.143l-.071-.5-.143-.573-.072-.43v-.143l-.072-.573v-.072l-.143-.5v-.215l-.072-.358v-.072l-.071-.5-.143-.5v-.071l-.072-.573v-.144l-.143-.43v-.287l-.071-.286-.072-.43-.072-.143-.072-.574h0l-.143-.573v-.143l-.072-.43-.072-.358-.071-.215-.072-.5v-.072l-.286-1.146v-.215l-.072-.358h0l-.143-.573-.143-.5h0l-.071-.573-.072-.143-.071-.43-.072-.287-.072-.286-.072-.43-.072-.143-.143-.573h0l-.072-.5-.143-.574-.071-.358-.072-.215-.143-.5v-.072l-.143-.573v-.072l-.143-.43-.072-.286-.071-.287-.072-.43-.072-.143-.143-.573h0l-.287-1.075-.072-.358-.071-.215-.072-.43-.072-.143-.143-.573h0l-.143-.573-.072-.143-.071-.358-.072-.358-.072-.215-.143-.5v-.072l-.143-.573-.072-.072-.143-.5-.072-.215-.072-.286-.072-.43-.071-.143-.143-.573h0l-.143-.574-.072-.143-.143-.43-.072-.286-.072-.287-.143-.43v-.072l-.215-.573v-.072l-.143-.5-.072-.215-.072-.358-.143-.358-.072-.215-.143-.573h0l-.143-.573-.072-.144-.143-.43-.071-.287-.072-.286-.143-.43-.071-.143c-9.39-.143-20.716.645-29.031,4.514-9.032,4.084-23.8,22-31.325,31.741Zm79.065,0h47.884a191.694,191.694,0,0,0-14.265-27.442,39.627,39.627,0,0,0-7.742-3.511,181.322,181.322,0,0,0-34.121-4.872,242.681,242.681,0,0,1,8.244,35.825Zm51.9,0h11.182l3.513-1c-4.66-5.875-15.842-15.261-25.877-22,1.505,2.579,2.939,5.23,4.3,7.81,2.581,5.016,4.875,10.1,6.882,15.189Z" transform="translate(-402.038 -18.986)"/><path class="l" d="M726.866,1215.325h68.958l-.072-.573v-.143l-.071-.5-.143-.573-.072-.43v-.143l-.072-.573v-.072l-.143-.5v-.215l-.072-.358v-.072l-.071-.5-.143-.5v-.072l-.072-.573v-.143l-.143-.43v-.287l-.071-.286-.072-.43-.072-.143-.072-.573h0l-.143-.573v-.143l-.072-.43-.072-.358-.071-.215-.072-.5v-.072l-.286-1.146v-.215l-.072-.358h0l-.143-.573-.143-.5h0l-.071-.573-.072-.143-.071-.43-.072-.286-.072-.286-.072-.43-.072-.143-.143-.573h0l-.072-.5-.143-.574-.071-.358-.072-.215-.072-.358h-3.441a408.092,408.092,0,0,0-49.962,3.511c-4.66,5.159-8.961,10.533-12.043,14.545Zm75.7-17.912a390.858,390.858,0,0,1,44.443,3.511c2.437,4.657,4.731,9.386,6.81,14.4H805.931c-.86-6.162-2.007-12.109-3.369-17.912Zm49.1,4.156q4.731.752,9.247,1.5a88.43,88.43,0,0,1,11.613,11.249l-3.513,1H857.829c-1.792-4.657-3.871-9.171-6.165-13.756Z" transform="translate(-402.038 -52.985)"/><g transform="translate(335.722 1140.208)"><g transform="translate(0 0)"><path class="m" d="M786.032,1191.6a23.507,23.507,0,0,0-11.918,6.077,13.964,13.964,0,0,1-1.384,1.222l-5.194,4-1.617-.118a.782.782,0,0,0-1.082-.225h0a.776.776,0,0,0-.155.133,1.315,1.315,0,0,0-1.821-.375h0a1.4,1.4,0,0,0-.257.224s1.5,7.643-4.5,11.263h15.391s9.726-2.526,9.94-2.926c.153-.286,1.518-4.258,2.864-6a4.38,4.38,0,0,0,.909-2.687v-4.3Z" transform="translate(-758.096 -1191.603)"/></g></g><g transform="translate(359.376 1137.381)"><g transform="translate(0)"><path class="n" d="M829.062,1186.837l.429,7.12-4.562,5.671,1.986,1.422s13.695-4.813,14.5-17.79l-.316-5.78Z" transform="translate(-824.93 -1177.479)"/></g></g><g transform="translate(360.415 1151.838)"><g transform="translate(0 0)"><ellipse class="o" cx="0.42" cy="0.433" rx="0.42" ry="0.433"/></g></g><g transform="translate(366.266 1140.437)"><g transform="translate(0)"><path class="m" d="M855.131,1186.338a3.363,3.363,0,0,1,4.065,2.47l0,.006a3.408,3.408,0,0,1,.094.941l7.637,4.579s16.8,3.393,7.492,15.351l-15.405-2.265-10.365-.983-3-2.795S855.7,1197.041,855.131,1186.338Z" transform="translate(-845.653 -1186.241)"/></g><g transform="translate(14.421 3.985)"><path class="m" d="M886.992,1197.665l12.26,4.908-1.419,1.208-4.711-.829-4.191-.828Z" transform="translate(-886.992 -1197.665)"/></g></g><g transform="translate(370.633 1140.429)"><path class="d" d="M858.171,1199.708s3.637-2.571,6.183.209c0,0,4.417-8.232,2.718-12.147,0,0-.94-2.031-3.786-1.449C863.283,1186.322,864.066,1192.806,858.171,1199.708Z" transform="translate(-858.171 -1186.216)"/></g><g transform="translate(375.869 1151.816)"><g transform="translate(0 0)"><ellipse class="d" cx="0.441" cy="0.455" rx="0.441" ry="0.455"/></g></g><g transform="translate(357.474 1147.479)"><g transform="translate(0 0)"><path class="d" d="M825.722,1214.257s-.219-3.664-5.274-1.9l6.08-5.932.385,6.382Z" transform="translate(-820.448 -1206.427)"/></g></g><g transform="translate(363.52 1148.423)"><g transform="translate(0.095 0.007)"><path class="p" d="M838.051,1209.15s.423,6.367.48,7.7" transform="translate(-838.051 -1209.15)"/></g><path class="q" d="M838.259,1216.837c-.056-1.309-.474-7.629-.48-7.692l.189-.014c0,.06.423,6.382.483,7.7Z" transform="translate(-837.779 -1209.131)"/></g><g transform="translate(359.782 1151.55)"><g transform="translate(0)"><ellipse class="d" cx="0.441" cy="0.455" rx="0.441" ry="0.455"/></g></g><g transform="translate(356.769 1116.264)"><g transform="translate(2.17 6.122)"><path class="n" d="M840.708,1150.357v-.045a2.3,2.3,0,0,0,.378.061,3.182,3.182,0,0,0,.264-6.274,2.272,2.272,0,0,0-.382.028l-.336-8.781-14.761-.85-.3,5.1v.171l-.909,15.182c-.155,2.583,1.6,5.975,4.091,6.29a9.276,9.276,0,0,0,1.148.2" transform="translate(-824.65 -1134.495)"/></g><g transform="translate(8.823 16.098)"><path class="o" d="M843.972,1163.971l-.251-.091a1.05,1.05,0,0,1,2.033,0l-.251.086a.806.806,0,0,0-.8-.6A.826.826,0,0,0,843.972,1163.971Z" transform="translate(-843.721 -1163.094)"/></g><g transform="translate(3.307 15.897)"><path class="o" d="M828.161,1163.371l-.252-.091a1.064,1.064,0,0,1,.95-.763,1.039,1.039,0,0,1,1.034.763l-.251.085a.765.765,0,0,0-1.479,0Z" transform="translate(-827.909 -1162.517)"/></g><g transform="translate(9.13 20.242)"><path class="r" d="M844.6,1176.155c.057-.745,1.108-1.268,2.351-1.17s2.2.785,2.148,1.53-1.108,1.268-2.351,1.17S844.544,1176.9,844.6,1176.155Z" transform="translate(-844.6 -1174.973)"/></g><g transform="translate(2.44 19.011)"><path class="r" d="M827.048,1172.9a1.832,1.832,0,0,1-1.626,1.489l.187-2.943A1.583,1.583,0,0,1,827.048,1172.9Z" transform="translate(-825.422 -1171.444)"/></g><g transform="translate(9.195 14.129)"><path class="o" d="M844.787,1157.831l.073-.382,2.1.414-.072.383Z" transform="translate(-844.787 -1157.449)"/></g><g transform="translate(3.217 14.007)"><path class="o" d="M827.651,1157.426l1.745-.328.07.384-1.745.328Z" transform="translate(-827.651 -1157.098)"/></g><g transform="translate(2.896 23.139)"><path class="s" d="M826.735,1185.5c.109-1.41,2.184-2.4,4.639-2.2s4.366,1.5,4.259,2.911-2.184,2.4-4.642,2.2S826.628,1186.91,826.735,1185.5Z" transform="translate(-826.731 -1183.275)"/></g><g transform="translate(5.527 24.27)"><path class="t" d="M834.273,1186.645s1.449-.06,3.594-.127C837.867,1186.518,836.062,1189.639,834.273,1186.645Z" transform="translate(-834.273 -1186.518)"/></g><g transform="translate(4.455 16.921)"><path class="u" d="M833.809,1171.5c-1.534-.328-2.4-.895-2.577-1.683-.281-1.263,1.3-2.625,1.553-2.827l.211-1.537.187.027-.22,1.615-.031.025c-.018.014-1.786,1.437-1.515,2.657.158.708.975,1.224,2.432,1.535Z" transform="translate(-831.199 -1165.452)"/></g><g transform="translate(15.932 9.779)"><path class="s" d="M864.563,1145.906a3.369,3.369,0,0,1-.112,2.394,5.777,5.777,0,0,0-.311.712,4.778,4.778,0,0,0,.194,2.1,4.715,4.715,0,0,1-.042,1.788,4.338,4.338,0,0,0-.181,1.068.9.9,0,0,0,.539.852,1.171,1.171,0,0,1,.962-.988,8.744,8.744,0,0,1,2.249.631c.989-.9.355-3.083,1.165-4.509.279-.49.858-.886,1.076-1.408.394-.943-.3-1.969-.938-2.755-.334-.4-.75-.845-1.264-.805a1.869,1.869,0,0,0-.777.342,6.285,6.285,0,0,1-2.58.875" transform="translate(-864.1 -1144.979)"/></g><g transform="translate(0.616 5.493)"><path class="v" d="M822.954,1133.607l-.423,7.39a16.428,16.428,0,0,0-2.126-3.062c-.707-.537.593-3.588.593-3.588l1.808-1.323.455-.331Z" transform="translate(-820.195 -1132.693)"/></g><g transform="translate(18.171 15.724)"><path class="n" d="M872.758,1162.694a2.321,2.321,0,0,0-1.958-.649l-.285,3.774,1.009.936.534-.406.693-1.261Z" transform="translate(-870.516 -1162.022)"/></g><g transform="translate(19.062 16.439)"><path class="u" d="M874.183,1167.579l-.166-.091a2.121,2.121,0,0,0-.945-3.236l.07-.181a2.553,2.553,0,0,1,1.343,1.389A2.619,2.619,0,0,1,874.183,1167.579Z" transform="translate(-873.072 -1164.071)"/></g><g transform="translate(15.056 12.539)"><path class="o" d="M863.28,1153.235s-.938-.192-1.691,1.738a2.747,2.747,0,0,1,1.52-2.081Z" transform="translate(-861.589 -1152.891)"/></g><g transform="translate(2.171 15.242)"><path class="s" d="M838.822,1160.64l-.33,4.341a8.262,8.262,0,0,1-6.16,5.869c-2.935.627-6.551.735-7.48-2.014l-.181,2.982c-.259,3.282,2.273,7.051,5.4,6.95h1.617a8.636,8.636,0,0,0,7.468-4.231,6.921,6.921,0,0,0,1-3.157l.771-10.238Z" transform="translate(-824.653 -1160.64)"/></g><g transform="translate(7.04 15.121)"><path class="d" d="M841.718,1164.62h-.1a3.309,3.309,0,0,1-3-3.555,3.714,3.714,0,0,1,.072-.612l.032-.161,6.075.211.021.163a3.739,3.739,0,0,1,.032.615A3.307,3.307,0,0,1,841.718,1164.62Zm-2.688-3.929a3.053,3.053,0,0,0-.036.385,2.867,2.867,0,0,0,1.216,2.684,2.677,2.677,0,0,0,2.869.1,2.856,2.856,0,0,0,1.389-2.593,3.288,3.288,0,0,0-.01-.389Z" transform="translate(-838.608 -1160.292)"/></g><g transform="translate(0.088 14.879)"><path class="d" d="M821.79,1163.928h-.1a3.31,3.31,0,0,1-3-3.555,3.726,3.726,0,0,1,.072-.613l.031-.161,6.075.213.021.164a3.891,3.891,0,0,1,.032.612A3.306,3.306,0,0,1,821.79,1163.928ZM819.1,1160a3.172,3.172,0,0,0-.036.384,2.925,2.925,0,0,0,2.637,3.153h.091a2.923,2.923,0,0,0,2.751-2.963,3.322,3.322,0,0,0-.011-.387Z" transform="translate(-818.681 -1159.599)"/></g><g transform="translate(13.059 15.324)"><path class="d" d="M855.862,1161.265v-.391l5.6.045v.391Z" transform="translate(-855.862 -1160.873)"/></g><g transform="translate(6.048 15.073)"><path class="d" d="M835.766,1160.545l.014-.392,1.248.048-.015.392Z" transform="translate(-835.766 -1160.153)"/></g><g transform="translate(0 0.294)"><path class="s" d="M835.672,1129.938a11.591,11.591,0,0,1-5.868.5c-2.6-.583-4.711-2.485-6.724-4.288a3.893,3.893,0,0,0-1.078-.764,1.3,1.3,0,0,0-1.257.091,1.651,1.651,0,0,0-.528.868,4.382,4.382,0,0,0,1.2,4.312c-.034.594-.06.966-.091,1.531a7.348,7.348,0,0,1-1.231-1.051,6.3,6.3,0,0,1-1.545-2.989,8.324,8.324,0,0,1,.768-5.162,19.639,19.639,0,0,1,2.982-4.319,2.914,2.914,0,0,1,.776-.709,2.026,2.026,0,0,1,2.062.252,8.776,8.776,0,0,1,1.546,1.576,3.911,3.911,0,0,0,1.743,1.3,4.148,4.148,0,0,0,1.107.121q1.113.016,2.225-.033a6.468,6.468,0,0,1,1.424.034,4.11,4.11,0,0,1,2.306,1.458,12.8,12.8,0,0,1,1.486,2.387l1.017,1.936a.527.527,0,0,1,.125.419.515.515,0,0,1-.236.365l-2.514,2.369" transform="translate(-818.429 -1117.788)"/></g><g transform="translate(0.961 5.98)"><path class="s" d="M827.3,1138.846s-5.274-3.906-5.435-1.216c0,0-.74-.618-.683-.767a11.873,11.873,0,0,1,1.183-2.136,5.118,5.118,0,0,0,.725-.638s2.355.068,2.551.138,1.292.428,1.292.428l.611.238a5.275,5.275,0,0,1,1.236.7c.091.2.938,2.16.938,2.16Z" transform="translate(-821.183 -1134.088)"/></g><g transform="translate(3.413)"><path class="s" d="M844.784,1126.808a6.71,6.71,0,0,0-2.295-5.379c-2.024-1.592-4.862-1.45-7.183-2.544-.909-.428-1.734-1.05-2.646-1.48a3.647,3.647,0,0,0-2.916-.274,2.646,2.646,0,0,0-1.493,2.848,3.933,3.933,0,0,0,1.038,1.856,14.716,14.716,0,0,0,5.306,3.31c3.07,1.317,6.381,2.51,9.655,1.923" transform="translate(-828.213 -1116.947)"/></g></g><g transform="translate(340.354 1148.523)"><g transform="translate(34.081 22.626)"><path class="q" d="M869.085,1274.321c-.007.032-.009.067-.016.1a1.254,1.254,0,0,0,.217-.144Z" transform="translate(-869.069 -1274.277)"/></g><g transform="translate(42.225)"><path class="m" d="M908.691,1218.54c0,5.037-4.783,10.848-10.222,10.429-6.988-.536-6.006-6.894-6.006-11.93s.9-7.62,6.354-7.62S908.691,1213.5,908.691,1218.54Z" transform="translate(-892.415 -1209.419)"/></g><g transform="translate(45.085 2.621)"><path class="w" d="M912.686,1224.857a7.2,7.2,0,0,0-2.355-5.548c-3.466-2.99-9.623-2.04-9.686-2.031l-.029-.195c.061-.009,6.3-.972,9.835,2.075a7.381,7.381,0,0,1,2.424,5.693Z" transform="translate(-900.615 -1216.932)"/></g><g transform="translate(0 2.943)"><path class="n" d="M813.531,1219.33l-27.617,7.882-4.943-4.691a11.991,11.991,0,0,1-5.867-4.435.513.513,0,0,0-.628-.188c-.919.4-2.818,1.741.705,5.092l2.182,1.971-5.238,2.831a1.351,1.351,0,0,0-.691.947,1.774,1.774,0,0,0,.747,1.947s-1.455,2.909,1.364,3.1c0,0-1.183,2.722,1.182,3,0,0-1.182,2.534,1.818,2.627,0,0,5.819-.657,6.092-.845s6.614-3.282,6.614-3.282l33.039-3.1s5.637-.657,5.092-6.473c0,0,0-5.724-5.274-5.443C822.111,1220.268,815.138,1221.957,813.531,1219.33Z" transform="translate(-771.374 -1217.856)"/></g><g transform="translate(0.774 15.265)"><g transform="translate(0.033 0.093)"><path class="p" d="M773.686,1253.86l1.147-.415" transform="translate(-773.686 -1253.445)"/></g><path class="q" d="M773.592,1253.594l1.148-.416.065.182-1.147.415Z" transform="translate(-773.592 -1253.178)"/></g><g transform="translate(2.066 18.424)"><g transform="translate(0.032 0.093)"><path class="p" d="M777.389,1262.914l1.147-.415" transform="translate(-777.389 -1262.499)"/></g><path class="q" d="M777.3,1262.649l1.147-.415.065.181-1.147.416Z" transform="translate(-777.296 -1262.233)"/></g><g transform="translate(3.239 21.258)"><g transform="translate(0.032 0.092)"><path class="p" d="M780.751,1271.037l1.147-.415" transform="translate(-780.751 -1270.622)"/></g><path class="q" d="M780.658,1270.772l1.147-.415.065.181-1.147.415Z" transform="translate(-780.658 -1270.357)"/></g><g transform="translate(14.485 12.219)"><g transform="translate(0.055 0.08)"><path class="p" d="M813.057,1244.676a2.729,2.729,0,0,1,.84,2.072" transform="translate(-813.057 -1244.676)"/></g><path class="q" d="M813.7,1246.6a2.672,2.672,0,0,0-.8-2l.11-.158a2.806,2.806,0,0,1,.88,2.147Z" transform="translate(-812.898 -1244.446)"/></g></g><g class="x" transform="translate(311.642 1136.819)"><path class="y" d="M-.4,0H4.64l-.26,8.577L-.4,13.519Z" transform="translate(2.224 4.205)"/><path class="n" d="M717.654,1196.218l-15.332-8.849L696,1181.887l-6.583,3.784v1.185l-.347,2.2a16.25,16.25,0,0,1,.779,3.141s1.957.759,1.213-3.141l.693-1.505,1.818-.7,1.91.7.26.983s-1.91,3.306,1.128,3.306a3.154,3.154,0,0,0,4.331.979l11.954,14.664S718.694,1205.693,717.654,1196.218Z" transform="translate(-689.069 -1181.887)"/><g transform="translate(7.769 7.692)"><path class="u" d="M711.409,1206.293l-.07-.181c.455-.192.714-.449.771-.765a1.736,1.736,0,0,0-.554-1.268l.13-.142a1.943,1.943,0,0,1,.61,1.45A1.3,1.3,0,0,1,711.409,1206.293Z" transform="translate(-711.338 -1203.936)"/></g><g transform="translate(0.19 0.875)"><path class="u" d="M689.8,1188.919l-.181-.043.329-1.53.043-.02,6.2-2.931,1.236,1.094-.121.149-1.147-1.011-6.045,2.859Z" transform="translate(-689.615 -1184.395)"/></g><g transform="translate(12.137 10.689)"><path class="u" d="M729.567,1216.049l-3.1-2.439a4.751,4.751,0,0,0-1.2-.764,1.5,1.5,0,0,0-1.312.061l-.1-.167a1.659,1.659,0,0,1,1.475-.072,4.906,4.906,0,0,1,1.246.791l3.1,2.438Z" transform="translate(-723.86 -1212.529)"/></g></g><path class="i" d="M334.937,1150.116l6.325-6.568,1.685,1.6-6.837,7.074Z" transform="translate(-15.306 -1.945)"/><path class="d" d="M336.448,1151.818l8.9-9.133,8.722,6.249-10.01,11.808Z" transform="translate(-15.75 -2.004)"/><g transform="translate(321.661 1142.662)"><g transform="translate(1.835 10.498)"><path class="z" d="M-354.587,732.763l-3.586,5.958s-1.367,4.525,7.083,5.134l4.278-11.093Z" transform="translate(358.255 -732.762)"/></g><g transform="translate(0 0)"><path class="y" d="M-346.311,716.316s-11.98,1.155-14.058,4.648.251,10.013,5.089,11.254,11.148-1.155,11.715-6.09c.587-4.932-.372-10.122-2.752-9.812Z" transform="translate(361.132 -716.302)"/></g><g transform="translate(0.021 5.461)"><g transform="translate(0)"><path class="aa" d="M-343.528,729.177c-1.42,4.053-7.03,5.937-11.417,4.809-3.977-1.02-6.25-5.585-5.786-9.121-1.316,3.607.995,9.269,5.467,10.415,4.83,1.241,11.165-1.154,11.736-6.092Z" transform="translate(361.098 -724.865)"/></g></g></g></g></svg>