<svg xmlns="http://www.w3.org/2000/svg" width="100" height="50.811" viewBox="0 0 100 50.811"><defs><style>.a{fill:#00c450;}</style></defs><g transform="translate(-326 -2504)"><g transform="translate(326 2504.014)"><path class="a" d="M20.8,44.9c.3.2.6.5.9.7A5.5,5.5,0,0,1,20.8,44.9Z"/><path class="a" d="M32.4,39.6v.7a7.039,7.039,0,0,1-6.9,6.4,7.187,7.187,0,0,1-3.6-1,7.107,7.107,0,0,0,8.1-.6,7.3,7.3,0,0,0,2.5-4.7h0a6.959,6.959,0,0,0-.5-3.2A8,8,0,0,1,32.4,39.6Z"/><path class="a" d="M73,35a5.7,5.7,0,0,1,1.3.1A5.283,5.283,0,0,0,73,35a6.42,6.42,0,0,0-4.6,1.9A6.42,6.42,0,0,1,73,35Z"/><path class="a" d="M74.9,35.3a6.332,6.332,0,0,1,2.6,1.6A6.332,6.332,0,0,0,74.9,35.3Z"/><path class="a" d="M38.1,15.2a1.5,1.5,0,0,0,1.5,1.1.6.6,0,0,0,.4-.1,1.491,1.491,0,0,0,1.1-1.8l-1-3.7,4.1,2.8a1.551,1.551,0,0,0,1.2.2,1.445,1.445,0,0,0,1-.7l4.8-7.6,3.2,7.7a1.419,1.419,0,0,0,.9.8,1.627,1.627,0,0,0,1.2-.1l5-3-1,2.6a1.5,1.5,0,0,0,2.8,1l2.5-6.6a1.731,1.731,0,0,0-.4-1.7A1.36,1.36,0,0,0,63.7,6l-7.3,4.5L52.8,1.7A1.4,1.4,0,0,0,51.6.8a1.513,1.513,0,0,0-1.4.7l-5.6,8.7L38.4,5.9a1.48,1.48,0,0,0-2.1.4,1.323,1.323,0,0,0-.2,1.2Z"/><path class="a" d="M59.4,5.9a1.854,1.854,0,0,0,.7.2,1.561,1.561,0,0,0,1.3-.8l.5-1a1.6,1.6,0,0,0-.5-2.1,1.507,1.507,0,0,0-2.1.5c0,.1-.1.1-.1.2l-.5,1A1.756,1.756,0,0,0,59.4,5.9Z"/><path class="a" d="M39.4,3.3a1.507,1.507,0,0,0,2,.8h0a1.507,1.507,0,0,0,.8-2h0L41.7.9a1.523,1.523,0,1,0-2.8,1.2v.1Z"/><path class="a" d="M16.5,23.5a1.689,1.689,0,0,0,1-.3,1.606,1.606,0,0,0,.5-1.1,4.533,4.533,0,0,0-1.6-3.7,1.461,1.461,0,0,0-2.1.3,1.6,1.6,0,0,0-.2,1.5L0,18.4v3l16.4,2Z"/><path class="a" d="M31.4,29a1.487,1.487,0,1,0,1-2.8l-3.8-1.3a1.487,1.487,0,1,0-1,2.8Z"/><path class="a" d="M87.1,19.2a1.6,1.6,0,0,0-.5-2.1,1.456,1.456,0,0,0-2,.5A21.094,21.094,0,0,0,82,22.8a1.907,1.907,0,0,0,.2,1.3,1.425,1.425,0,0,0,1.2.6H100v-3H85.6C86,21.1,86.5,20.2,87.1,19.2Z"/><path class="a" d="M68,25.7a39.14,39.14,0,0,0,7.6-1.4c1.4-.5,2.3-1.6,3.4-3,2.3-2.8,5.4-6.8,14.8-7.8,1.2-.1,3.5-.2,6.2-.2v-3c-2.8,0-5.2.1-6.6.2-10.6,1.2-14.5,6.1-16.8,9a7.294,7.294,0,0,1-2,2,27.755,27.755,0,0,1-7,1.2c-2.6.3-4.6.5-5.9,1.2a9.744,9.744,0,0,1-1.1.5c-.8.3-2,.7-2.2,2-.2,1.2.7,2.3,2.8,4-.1.2-.3.4-.4.6-.8,1-2.4,2.9-1.1,5.2a2.573,2.573,0,0,1,.1,1.5H43.6c-.3-.5-.5-1-.7-1.3a3.1,3.1,0,0,1-.6-1.3,6.148,6.148,0,0,0,1.3-4.5,7.541,7.541,0,0,0-2.5-4.4,2.36,2.36,0,0,0-.7-1.6,5.552,5.552,0,0,0-1.7-1.1V23c0-1.2,0-3.2-1.6-3.7-.7-.2-1.3,0-3.3.6-.6.2-1.7.5-2.1.6a10.074,10.074,0,0,0-2.5-.3,17.5,17.5,0,0,1-3.2-.4,16.876,16.876,0,0,1-3.1-2.1A66.511,66.511,0,0,0,3.8,7,34.39,34.39,0,0,0,0,5.9V9a22.881,22.881,0,0,1,2.8.8A60.444,60.444,0,0,1,21,20c1.8,1.4,3.1,2.4,4.2,2.7a23.205,23.205,0,0,0,3.8.5,13.552,13.552,0,0,1,2,.2c.7.2,1.4,0,3.6-.7l1.1-.3v.5c0,1.1,0,2.5,1.2,3l-2,2.7a1.5,1.5,0,1,0,2.4,1.8L39,28.2A5.75,5.75,0,0,1,40.7,31a3.394,3.394,0,0,1-1,2.7,2.01,2.01,0,0,0-.4.8,5.887,5.887,0,0,0,1,3.4,22.559,22.559,0,0,1,1.1,2.2c.3.6-.7,1.3-1.3,1.6l-4.9-.4c0-.2.1-.5.1-.7a10.016,10.016,0,1,0-19.9-2.3v1.2L0,38v3l15.4,1.4h.3a10.087,10.087,0,0,0,8.7,7.2h.9a9.88,9.88,0,0,0,8.9-5.5l6,.5h.1a1.268,1.268,0,0,0,.6-.1,5.56,5.56,0,0,0,3.4-3.9H58.8a2.5,2.5,0,0,0,.3,2.2,2.248,2.248,0,0,0,2,.9h2.7a9.466,9.466,0,0,0,11.5,6.8,9.719,9.719,0,0,0,6.8-6.8l17.9.1v-3l-17.6-.1a9.426,9.426,0,0,0-18.8,0H62c0-.1.1-.3.1-.4.5-1.5,1.3-3.7.2-5.6-.2-.4-.1-.7.8-1.9a4.345,4.345,0,0,0,1.3-2.9,2.944,2.944,0,0,0-1-1.8c-.6-.5-1-.8-1.3-1.1.4-.2.8-.3,1.2-.5A24.3,24.3,0,0,1,68,25.7ZM20.8,44.9l-.3-.3-.3-.3-.3-.3a6.071,6.071,0,0,1-.7-1c-.1-.1-.1-.2-.2-.3a.367.367,0,0,0-.1-.3,1.421,1.421,0,0,1-.2-.6h0a6.842,6.842,0,0,1,2.2-7.5,7.266,7.266,0,0,1,4.5-1.6H26a6.71,6.71,0,0,1,4.1,1.8l.5.5c.1.2.3.3.4.5a5.071,5.071,0,0,1,.9,1.6,8.591,8.591,0,0,1,.5,3.2h0A6.849,6.849,0,0,1,29.9,45a6.931,6.931,0,0,1-8.1.6A3.592,3.592,0,0,1,20.8,44.9Zm45.8-3.5V40.2a1.854,1.854,0,0,1,.2-.7.52.52,0,0,1,.2-.4c0-.1,0-.1.1-.2a4.831,4.831,0,0,1,1.4-2A6.362,6.362,0,0,1,73,35a5.283,5.283,0,0,1,1.3.1,1.421,1.421,0,0,1,.6.2,6.332,6.332,0,0,1,2.6,1.6c.1.1.2.1.2.2.1.1.1.2.2.2l.6.9c.1.1.1.2.2.3s.1.2.2.3a.1.1,0,0,0,.1.1c0,.1.1.2.1.3s.1.3.1.4h0a4.331,4.331,0,0,1,.1.5v2.2a.6.6,0,0,1-.1.4c0,.1-.1.3-.1.4s0,.1-.1.2c0,.1-.1.3-.1.4s0,.1-.1.1c-.1.2-.2.3-.2.5a2.186,2.186,0,0,1-.3.5,1.756,1.756,0,0,1-.4.5h0c-.1.2-.3.3-.4.4a1,1,0,0,1-.5.4,6.071,6.071,0,0,1-1,.7l-.6.3a6.963,6.963,0,0,1-2.5.5h-.7a1.268,1.268,0,0,1-.6-.1,1.421,1.421,0,0,1-.6-.2,6.311,6.311,0,0,1-4.2-4.2h0c-.1-.2-.1-.4-.2-.6,0-.2-.1-.3-.1-.5v-.2c.1,0,.1-.2.1-.4Z"/></g></g></svg>