<svg xmlns="http://www.w3.org/2000/svg" width="76.531" height="74.641" viewBox="0 0 76.531 74.641"><defs><style>.a{fill:#002e75;}.b{fill:#00c450;}</style></defs><g transform="translate(-686 -2496)"><path class="a" d="M31.627,70.5v2.7a.377.377,0,0,1-.427.427h0a.377.377,0,0,0,.427-.427Z" transform="translate(654.88 2491.997)"/><path class="a" d="M79.9,45.8v1.424l-4.7.569h.142l4.556-.569Z" transform="translate(673.519 2481.534)"/><path class="a" d="M75.323,62.5h0l-8.969-.285h-.285A.946.946,0,0,1,65.5,61.5a.9.9,0,0,0,.854.712Z" transform="translate(669.409 2488.185)"/><g transform="translate(685.997 2496.047)"><path class="b" d="M23.2,11.9a1.489,1.489,0,0,1-.4.9,2.471,2.471,0,0,0,.4-.9A3.037,3.037,0,0,1,24,9.8a4.031,4.031,0,0,0-.8,2.1Z"/><path class="b" d="M29.9,30.6h0a3.946,3.946,0,0,1-1.5.6,3.418,3.418,0,0,1-3.8-3.1.367.367,0,0,0-.1-.3,1.578,1.578,0,0,0-2-1.1,5.537,5.537,0,0,1-1.8.2,6.759,6.759,0,0,1-6.5-6.5,6.368,6.368,0,0,1,1.3-4.2,6.986,6.986,0,0,0-1.2,3.5,6.856,6.856,0,0,0,6.5,7,11.019,11.019,0,0,0,1.8-.2.367.367,0,0,0,.3-.1,1.667,1.667,0,0,1,1.8,1.4,2.456,2.456,0,0,0,.5,1.5A3.473,3.473,0,0,0,29.9,30.6Z"/><path class="b" d="M30.8,23.6a1.854,1.854,0,0,0-.2.7,1.078,1.078,0,0,1,.2-.7,1.922,1.922,0,0,0-.9-1.6,1.66,1.66,0,0,0-1.9.2,1.651,1.651,0,0,1,1.5-.5A1.676,1.676,0,0,1,30.8,23.6Z"/><path class="b" d="M30.5,8.2a9.5,9.5,0,0,1,1-1.7,6.932,6.932,0,0,0-1,1.7h0c0,.1-.1.2-.2.3C30.4,8.4,30.4,8.3,30.5,8.2Z"/><path class="b" d="M40.1,25.2a1.8,1.8,0,0,0-1,.2c-.1,0-.2.1-.3.2.1-.1.2-.1.3-.2A1.645,1.645,0,0,1,40.1,25.2Z"/><path class="b" d="M40.4,25.3c.1,0,.1.1.2.1a.349.349,0,0,1-.2-.1Z"/><path class="b" d="M40.6,25.4a1.381,1.381,0,0,1,.4.3C40.9,25.6,40.7,25.5,40.6,25.4Z"/><path class="b" d="M42.1,29.7a3.072,3.072,0,0,1-1.5-1,8.265,8.265,0,0,0,.7-1.3h0a1.788,1.788,0,0,0-.4-1.7,1.731,1.731,0,0,1,.4,1.7,5.388,5.388,0,0,1-.7,1.3A4.366,4.366,0,0,0,42.1,29.7Z"/><path class="b" d="M48,22.8a6.341,6.341,0,0,1-.2,8.1h0a6.337,6.337,0,0,0,.2-8.1c-.1-.1-.2-.1-.3-.2C47.8,22.7,47.9,22.8,48,22.8Z"/><path class="b" d="M53.6,13.5c.2,0,.5-.1.7-.1C54.1,13.4,53.9,13.5,53.6,13.5Z"/><path class="b" d="M67.2,58.6A9.392,9.392,0,0,0,62,60.2a5.734,5.734,0,0,0-2.5-.6,6.752,6.752,0,0,0-1.4.2,10.752,10.752,0,0,0-9.7-6.1,11.29,11.29,0,0,0-4.4,1V49.5c2.3-.1,4.7-.4,7-.7,4.5-.8,6.5-1.9,6.5-3.7s-2.1-2.7-3.9-3.1a35.868,35.868,0,0,0-7.2-1.1,1.746,1.746,0,0,0-1.2.4,2.384,2.384,0,0,0-.6,1.1,1.746,1.746,0,0,0,.4,1.2,2.384,2.384,0,0,0,1.1.6,37.351,37.351,0,0,1,6.7,1c-1.1.3-2.2.5-3.3.7-1.6.2-3.5.4-5.5.5v-11a1.6,1.6,0,0,0-3.2,0V46.3H36.5V34.2a1.6,1.6,0,1,0-3.2,0v12a52.186,52.186,0,0,1-6.2-.6,19.424,19.424,0,0,1-3.3-.7,38.7,38.7,0,0,1,7.6-1.1,1.382,1.382,0,0,0,1.1-.6,1.5,1.5,0,0,0,.4-1.1,1.579,1.579,0,0,0-1.7-1.5,52.293,52.293,0,0,0-7.8,1.1c-1.9.5-4.1,1.3-4.1,3.2s1.9,2.9,6.5,3.7a65.3,65.3,0,0,0,7.6.8v5.8a11.157,11.157,0,0,0-4.7-1.1,10.765,10.765,0,0,0-9.5,5.8,5.667,5.667,0,0,0-4.6.2A9.382,9.382,0,0,0,2.1,73.8a1.612,1.612,0,0,0,1.3.6,1.284,1.284,0,0,0,1-.4,1.607,1.607,0,0,0,.2-2.3h0a6.159,6.159,0,0,1,.9-8.6,5.943,5.943,0,0,1,3.8-1.4,5.834,5.834,0,0,1,2.6.6c-.1.2-.2.3-.3.5a1.632,1.632,0,0,0,2.9,1.5,2.834,2.834,0,0,1,3.8-1.2,2.927,2.927,0,0,1,1.2,3.8V67a6.758,6.758,0,0,0-1.3,3.3A1.569,1.569,0,0,0,19.6,72h.2a1.624,1.624,0,0,0,1.6-1.5,3.719,3.719,0,0,1,1-2.2,3.822,3.822,0,0,1,5.1,0,3.468,3.468,0,0,1,1,2.2,1.738,1.738,0,0,0,.6,1.1,1.607,1.607,0,0,0,2.3-.2,1.746,1.746,0,0,0,.4-1.2,6.834,6.834,0,0,0-7.5-6.1,5.019,5.019,0,0,0-1.2.2,7.012,7.012,0,0,0-1.2-2.8A7.438,7.438,0,0,1,28.7,57a7.333,7.333,0,0,1,4.7,1.7v5.8a1.6,1.6,0,0,0,3.2,0V49.6h4.3V64.9a1.6,1.6,0,0,0,3.2,0V58.3a7.473,7.473,0,0,1,10.4,1.5l.9,1.5a7.151,7.151,0,0,0-1.8,3.3,6.847,6.847,0,0,0-8.5,4.6,5.019,5.019,0,0,0-.2,1.2,2.375,2.375,0,0,0,.3,1.2,1.738,1.738,0,0,0,1.1.6,2.375,2.375,0,0,0,1.2-.3,2.384,2.384,0,0,0,.6-1.1,3.719,3.719,0,0,1,1-2.2,3.621,3.621,0,0,1,5.1,0,3.719,3.719,0,0,1,1,2.2,1.649,1.649,0,0,0,1.7,1.5h0a1.594,1.594,0,0,0,1.4-1.8A6.4,6.4,0,0,0,57,67.2a.1.1,0,0,0-.1-.1,2.818,2.818,0,1,1,5-2.6,1.642,1.642,0,0,0,2.2.7h0a1.642,1.642,0,0,0,.7-2.2c-.1-.2-.2-.3-.3-.5a5.954,5.954,0,0,1,2.7-.6,6.146,6.146,0,0,1,6.1,6.2,5.746,5.746,0,0,1-1.4,3.8A1.632,1.632,0,0,0,74.4,74h0a9.372,9.372,0,0,0-1.3-13.2,8.055,8.055,0,0,0-5.9-2.2Z"/><path class="b" d="M55,10.1a7.569,7.569,0,0,0-1.5.1,6.733,6.733,0,0,0-4.4-3.5A11.873,11.873,0,0,0,33.3,1.1a11.464,11.464,0,0,0-5,4.5,7.772,7.772,0,0,0-1.6-.2,6.874,6.874,0,0,0-6.5,4.8A9.909,9.909,0,0,0,20.7,30h0a4.1,4.1,0,0,0,1.1-.1,6.839,6.839,0,0,0,8.8,3.9,7.027,7.027,0,0,0,2.7-1.9,6.8,6.8,0,0,0,5.2-1,6.172,6.172,0,0,0,4,2h.7a5.9,5.9,0,0,0,1.4-.2,6.719,6.719,0,0,0,9.5-1.2,9.5,9.5,0,0,0,1-1.7,9.927,9.927,0,0,0,9.6-9.9v-.3A10.09,10.09,0,0,0,55,10.1Zm2,16.4a6.448,6.448,0,0,1-2,.3h0a3.4,3.4,0,0,1-1-.1,2.2,2.2,0,0,0-.8.1,1.521,1.521,0,0,0-1,1.3,3.322,3.322,0,0,1-2.1,2.7c-.2.1-.3.1-.5.2a.367.367,0,0,0-.3.1H48.2a.6.6,0,0,1-.4-.1,6.341,6.341,0,0,0,.2-8.1c-.1-.1-.2-.1-.3-.2a1.613,1.613,0,0,0-.9-.3h-.3a1.374,1.374,0,0,0-.8.5,1.657,1.657,0,0,0-.2,2,3.033,3.033,0,0,1-.4,4.3,3.694,3.694,0,0,1-1.4.7,2.719,2.719,0,0,1-.9,0c-.2,0-.4-.1-.6-.1a3.072,3.072,0,0,1-1.5-1,8.265,8.265,0,0,0,.7-1.3,1.788,1.788,0,0,0-.4-1.7,1.38,1.38,0,0,0-.4-.3c-.1,0-.1-.1-.2-.1h0c-.1,0-.2-.1-.3-.1a1.8,1.8,0,0,0-1,.1c-.1,0-.2.1-.3.2a1,1,0,0,0-.4.5.367.367,0,0,0-.1.3,3.965,3.965,0,1,1-7.7-1.9h0a1.854,1.854,0,0,1,.2-.7,1.6,1.6,0,0,0-1.3-1.9,1.651,1.651,0,0,0-1.5.5l-.1.1c0,.1-.1.1-.1.2a7.3,7.3,0,0,0,2.2,8l-.1.1a3.5,3.5,0,0,1-4.7-1.1,2.976,2.976,0,0,1-.5-1.5,1.594,1.594,0,0,0-1.8-1.4.367.367,0,0,0-.3.1,5.537,5.537,0,0,1-1.8.2,6.792,6.792,0,0,1-6.5-7,6.15,6.15,0,0,1,1.2-3.5c.1-.1.2-.3.3-.4a1.38,1.38,0,0,0,.3-.4,6.745,6.745,0,0,1,4.7-2.2h.7a1.594,1.594,0,0,0,1.2-.4c.1,0,.1-.1.1-.2a1.489,1.489,0,0,0,.4-.9h0A3.865,3.865,0,0,1,24,10c0-.1.1-.1.2-.2a3.25,3.25,0,0,1,2.5-1.1,2.934,2.934,0,0,1,1.6.4,1.655,1.655,0,0,0,1.9-.3h0a1.38,1.38,0,0,0,.3-.4h0a8.636,8.636,0,0,1,1-1.6,2.181,2.181,0,0,1,.4-.5A8.672,8.672,0,0,1,42,4.1,8.843,8.843,0,0,1,46.6,9a1.381,1.381,0,0,0,1.3,1,3.613,3.613,0,0,1,3,2.9c0,.1.1.2.1.3s.1.1.1.2v.1l.2.2c.1.1.3.2.4.3.2.1.3.1.5.2h.7a.9.9,0,0,1,.5-.1h.2a1.7,1.7,0,0,1,.7-.1h.8a6.733,6.733,0,0,1,6.2,4.7C62.5,21.6,60.5,25.4,57,26.5Z"/><path class="b" d="M13.9,57.8a1.607,1.607,0,0,0,2.3-.2h0a1.594,1.594,0,0,0,.4-1.2,1.382,1.382,0,0,0-.6-1.1l-5.7-4.9a1.632,1.632,0,0,0-2.1,2.5Z"/><path class="b" d="M14.3,41a1.627,1.627,0,0,0-.1-1.2l-.4-.8a1.419,1.419,0,0,0-.9-.8,1.566,1.566,0,0,0-2,1,1.65,1.65,0,0,0,0,1.2l.4.8a1.551,1.551,0,0,0,1.5.9,1.854,1.854,0,0,0,.7-.2A2.361,2.361,0,0,0,14.3,41Z"/><path class="b" d="M17.6,54.1a1.551,1.551,0,0,0,1.5.9,1.854,1.854,0,0,0,.7-.2,1.642,1.642,0,0,0,.7-2.2h0l-4.4-9a1.632,1.632,0,1,0-2.9,1.5h0Z"/><path class="b" d="M61.4,56.5a1.746,1.746,0,0,0,.4,1.2,1.425,1.425,0,0,0,1.2.6,1.5,1.5,0,0,0,1.1-.4L69.8,53a1.632,1.632,0,0,0-2.1-2.5L62,55.4A1.382,1.382,0,0,0,61.4,56.5Z"/><path class="b" d="M64.1,38.9l-.4.8a1.672,1.672,0,0,0-.1,1.2,1.419,1.419,0,0,0,.8.9,1.581,1.581,0,0,0,2.2-.7l.4-.8A1.678,1.678,0,0,0,65,38C64.7,38.3,64.3,38.5,64.1,38.9Z"/><path class="b" d="M64.8,43.9A1.419,1.419,0,0,0,64,43a1.642,1.642,0,0,0-2.2.7l-4.4,9a1.6,1.6,0,0,0,.8,2.2,1.581,1.581,0,0,0,2.2-.7l4.4-9A1.928,1.928,0,0,0,64.8,43.9Z"/></g></g></svg>