<svg xmlns="http://www.w3.org/2000/svg" width="73.52" height="65.4" viewBox="0 0 73.52 65.4"><defs><style>.a{fill:#002e75;}.b{fill:#00c450;}</style></defs><g transform="translate(-501.08 -2184)"><path class="a" d="M79.9,45.8v1.424l-4.7.569h.142l4.556-.569Z" transform="translate(488.519 2161.534)"/><g transform="translate(504 2184)"><path class="b" d="M38.5,31H34.7l2.1-4.7a1.682,1.682,0,0,0-.8-2.2,1.483,1.483,0,0,0-1.3,0,1.591,1.591,0,0,0-.9.9l-3.2,7a1.81,1.81,0,0,0,.1,1.6,1.6,1.6,0,0,0,1.4.8h3.8l-2.1,4.7a1.483,1.483,0,0,0,0,1.3,1.591,1.591,0,0,0,.9.9,1.854,1.854,0,0,0,.7.2,1.539,1.539,0,0,0,1.5-1l3.2-7a1.81,1.81,0,0,0-.1-1.6A1.763,1.763,0,0,0,38.5,31Z"/><path class="b" d="M35.3,11A1.752,1.752,0,0,0,37,9.3h0V1.7a1.7,1.7,0,0,0-3.4,0h0V9.3A1.685,1.685,0,0,0,35.3,11Z"/><path class="b" d="M23.1,5.4a1.73,1.73,0,0,0-2.4-.3,1.581,1.581,0,0,0-.4,2.2l4,6.1a1.6,1.6,0,0,0,1.4.8,1.4,1.4,0,0,0,.9-.3,1.652,1.652,0,0,0,.5-2.3Z"/><path class="b" d="M43.9,13.8h0a1.613,1.613,0,0,0,.9.3,1.6,1.6,0,0,0,1.4-.8l4-6.1a1.634,1.634,0,0,0-.5-2.3h0a1.634,1.634,0,0,0-2.3.5h0l-4,6.1A1.747,1.747,0,0,0,43.9,13.8Z"/><path class="b" d="M35.3,54.4a1.752,1.752,0,0,0-1.7,1.7h0v7.6a1.7,1.7,0,1,0,3.4,0V56.1a1.685,1.685,0,0,0-1.7-1.7Z"/><path class="b" d="M46.3,52.1a1.664,1.664,0,0,0-2.8,1.8l4,6.1a1.6,1.6,0,0,0,1.4.8,1.4,1.4,0,0,0,.9-.3,1.628,1.628,0,0,0,.4-2.3Z"/><path class="b" d="M26.7,51.6h0a1.86,1.86,0,0,0-2.4.5l-4,6.1a1.634,1.634,0,0,0,.5,2.3h0a1.613,1.613,0,0,0,.9.3,1.6,1.6,0,0,0,1.4-.8l4-6.1A1.55,1.55,0,0,0,26.7,51.6Z"/><path class="b" d="M21.9,41.4V37.7h3.6a1.831,1.831,0,0,0,1.6-1.8,1.807,1.807,0,0,0-1.6-1.6H21.9V29h3.6a1.831,1.831,0,0,0,1.6-1.8,1.807,1.807,0,0,0-1.6-1.6H21.9V22a1.752,1.752,0,0,0-1.7-1.7H1.7a1.7,1.7,0,0,0,0,3.4H18.5v16H1.7a1.7,1.7,0,0,0,0,3.4H20.2a1.752,1.752,0,0,0,1.7-1.7Z"/><path class="b" d="M68.9,39.7H52.1v-16H68.9a1.7,1.7,0,0,0,0-3.4H50.4A1.752,1.752,0,0,0,48.7,22h0v3.7H45.1a1.831,1.831,0,0,0-1.6,1.8,1.807,1.807,0,0,0,1.6,1.6h3.6v5.3H45.1a1.831,1.831,0,0,0-1.6,1.8,1.807,1.807,0,0,0,1.6,1.6h3.6v3.6a1.752,1.752,0,0,0,1.7,1.7H68.9a1.7,1.7,0,0,0,0-3.4Z"/></g><path class="a" d="M31.627,70.5v2.7a.377.377,0,0,1-.427.427h0a.377.377,0,0,0,.427-.427Z" transform="translate(469.88 2171.997)"/><path class="a" d="M75.323,62.5h0l-8.969-.285h-.285A.946.946,0,0,1,65.5,61.5a.9.9,0,0,0,.854.712Z" transform="translate(484.409 2168.185)"/></g></svg>