<svg xmlns="http://www.w3.org/2000/svg" width="91.072" height="68.998" viewBox="0 0 91.072 68.998"><defs><style>.a{fill:#00c450;}</style></defs><g transform="translate(-829 -2168)"><g transform="translate(829 2167.998)"><path class="a" d="M63.3,68.3H15.1a1.367,1.367,0,0,1-1.4-1.4h0V34.7a1.458,1.458,0,0,1,2.9-.3V65.3H62V34.7a1.473,1.473,0,0,1,1.5-1.5,1.394,1.394,0,0,1,1.4,1.5V66.9a1.617,1.617,0,0,1-1.6,1.4Z"/><path class="a" d="M44.5,68.3H33.9a1.367,1.367,0,0,1-1.4-1.4h0V49.5a1.367,1.367,0,0,1,1.4-1.4H44.4a1.43,1.43,0,0,1,1.4,1.4V66.8A1.272,1.272,0,0,1,44.5,68.3Zm-9.1-2.9H43V51H35.4Z"/><path class="a" d="M44.5,43.5H33.9A1.453,1.453,0,0,1,32.5,42V33.3a1.52,1.52,0,0,1,1.4-1.5H44.4a1.453,1.453,0,0,1,1.4,1.5V42A1.316,1.316,0,0,1,44.5,43.5Zm-9.1-2.9H43V34.8H35.4Z"/><path class="a" d="M2.6,63.3a1.777,1.777,0,0,1-1-.4A5.521,5.521,0,0,1,0,59a5.678,5.678,0,0,1,3.9-5.3A4.884,4.884,0,0,1,11.6,51a1.432,1.432,0,0,1-1.7,2.3,1.956,1.956,0,0,0-2.8.4,1.746,1.746,0,0,0-.4,1.2h0a1.347,1.347,0,0,1-1.3,1.4A2.61,2.61,0,0,0,3,58.9a2.342,2.342,0,0,0,.8,1.8,1.45,1.45,0,0,1,0,2.1,1.584,1.584,0,0,1-1.2.5Z"/><path class="a" d="M77.5,68.3a1.453,1.453,0,0,1-1.4-1.5,1.777,1.777,0,0,1,.4-1,3.471,3.471,0,0,0,1-2.5,3.6,3.6,0,0,0-3.3-3.6,1.493,1.493,0,0,1-1.3-1.4h0a2.8,2.8,0,0,0-2.8-2.8,2.271,2.271,0,0,0-1.6.6,1.43,1.43,0,1,1-1.7-2.3h0a5.987,5.987,0,0,1,3.4-1.1,5.774,5.774,0,0,1,5.6,4.5,6.421,6.421,0,0,1,4.7,6.2A6.6,6.6,0,0,1,78.6,68,2.279,2.279,0,0,1,77.5,68.3Z"/><path class="a" d="M74.5,61.6c0,.1-.1.1,0,0a1.485,1.485,0,1,1-2.1-2.1,2.046,2.046,0,0,0,.4-2h0l2.8-.9A5.272,5.272,0,0,1,74.5,61.6Z"/><path class="a" d="M80.4,31.8a1.451,1.451,0,1,1-.1-2.9h0a7.941,7.941,0,0,0,.5-15.8,1.4,1.4,0,0,1-1.2-1.4v-.1h0a9.233,9.233,0,0,0-18.4-.3,1.456,1.456,0,0,1-1.6,1.3.764.764,0,0,1-.5-.2,9.782,9.782,0,0,0-4.1-.9,7.926,7.926,0,0,0-7.4,8.4,1.453,1.453,0,0,1-1.4,1.5,1.5,1.5,0,0,1-1.5-1.3A10.777,10.777,0,0,1,54.8,8.6a10.226,10.226,0,0,1,3.9.5,12.1,12.1,0,0,1,23.7,1.3,10.89,10.89,0,0,1,8,13.1,10.757,10.757,0,0,1-9.8,8.2Z"/><path class="a" d="M57.7,19.3a1.291,1.291,0,0,1-1.3-.9,6.7,6.7,0,0,1,12.3-5.3,1.431,1.431,0,0,1-.8,1.9,1.4,1.4,0,0,1-1.9-.8h0a3.827,3.827,0,0,0-5-2,3.745,3.745,0,0,0-2,5,1.517,1.517,0,0,1-.8,1.9.764.764,0,0,1-.5.2Z"/><path class="a" d="M84.4,39.5a7.216,7.216,0,0,1-3.2-.8,1.432,1.432,0,0,1,1.2-2.6c.1,0,.1.1.2.1a3.759,3.759,0,0,0,3.6-6.6A1.432,1.432,0,0,1,87.4,27c.1,0,.1.1.2.1a6.7,6.7,0,0,1,2.7,9,6.421,6.421,0,0,1-4,3.2A11.076,11.076,0,0,1,84.4,39.5Z"/><path class="a" d="M72,55.6a1.367,1.367,0,0,1-1.4-1.4V35.3a12.5,12.5,0,0,1,2.1-7l.1-.1,4.6-5.7a1.442,1.442,0,0,1,2.4,1.6c0,.1-.1.1-.1.2l-4.6,5.6a10.951,10.951,0,0,0-1.6,5.3V54.1A1.538,1.538,0,0,1,72,55.6Z"/><path class="a" d="M77,46.8a7.472,7.472,0,0,1-5.5-2.3,1.456,1.456,0,0,1,.5-2,1.36,1.36,0,0,1,1.5,0A4.9,4.9,0,0,0,81.9,39a1.458,1.458,0,0,1,2.9-.3v.2A7.9,7.9,0,0,1,77,46.8Z"/><path class="a" d="M67.6,32.3a1.425,1.425,0,0,1-1.2-.6l-3.3-5.2a1.489,1.489,0,0,1,.6-2,1.4,1.4,0,0,1,1.8.4l3.3,5.2a1.528,1.528,0,0,1-.4,2,1.2,1.2,0,0,1-.8.2Z"/><path class="a" d="M72.3,39.2a1.855,1.855,0,0,0-.7-1.2L39.9,14.5a1.657,1.657,0,0,0-2.1,0L26.1,23.3a1.855,1.855,0,0,0-.7,1.2,1.943,1.943,0,0,0,.3,1.3,1.64,1.64,0,0,0,1.2.7,1.943,1.943,0,0,0,1.3-.3l10.6-8L69.5,41a2.016,2.016,0,0,0,1.1.3,1.73,1.73,0,0,0,1.7-2.1Z"/><path class="a" d="M21.8,27.2a1.517,1.517,0,0,0-1.3.3L6.2,38.1a1.871,1.871,0,0,0-.4,2.5,1.91,1.91,0,0,0,1.4.7A2.279,2.279,0,0,0,8.3,41L22.5,30.4a1.871,1.871,0,0,0,.4-2.5A1.515,1.515,0,0,0,21.8,27.2Z"/><path class="a" d="M81.8,65.4H3.4a1.8,1.8,0,1,0,0,3.6H81.8a1.8,1.8,0,1,0,0-3.6Z"/></g></g></svg>