<svg xmlns="http://www.w3.org/2000/svg" width="77.976" height="62.9" viewBox="0 0 77.976 62.9"><defs><style>.a{fill:#00c450;}</style></defs><g transform="translate(-1039 -2499)"><g transform="translate(872 873)"><g transform="translate(148.5 1601.2)"><path class="a" d="M31.571,70.5v2.348a.328.328,0,0,1-.371.371h0a.328.328,0,0,0,.371-.371Z" transform="translate(2.994 10.774)"/><path class="a" d="M26.818,61.872h0V59.4h0Z" transform="translate(1.939 8.157)"/><path class="a" d="M34.447,61.8h0a.266.266,0,0,1-.247.247C34.324,61.924,34.324,61.8,34.447,61.8Z" transform="translate(3.701 8.723)"/><path class="a" d="M34.4,61.847c0-.124.124-.124.124-.247a.383.383,0,0,1-.124.247Z" transform="translate(3.749 8.676)"/><path class="a" d="M34.524,61.718v-.494A.121.121,0,0,0,34.4,61.1a.121.121,0,0,0,.124.124A.376.376,0,0,1,34.524,61.718Z" transform="translate(3.749 8.558)"/><path class="a" d="M60.33,60.224l-.494,2.6H43.4L59.836,62.7l.494-2.6Z" transform="translate(5.87 8.322)"/><path class="a" d="M38.306,31,36.7,35.567,38.306,31a4.438,4.438,0,0,1,.865-1.236A2.528,2.528,0,0,0,38.306,31Zm14.211-2.6h0l1.977,5.561h0Zm5.808,0-1.112,1.854h0L58.326,28.4Z" transform="translate(4.291 0.849)"/><path class="a" d="M81.073,49.017h0l-1.854-5.932A7.173,7.173,0,0,0,74.4,38.142l-.247-.124a2.908,2.908,0,0,1-.989-.247l-1.854-.247a145.1,145.1,0,0,0-32.748,0,16.772,16.772,0,0,0-3.213.618,7.006,7.006,0,0,0-4.7,4.943L28.8,49.017h0l1.854-6.179a7.006,7.006,0,0,1,4.7-4.943,1.709,1.709,0,0,0,1.483-.371l1.73-.247a145.1,145.1,0,0,1,32.748,0l1.854.247a1.993,1.993,0,0,0,1.112.371H74.4a7.173,7.173,0,0,1,4.819,4.943Z" transform="translate(2.428 2.723)"/><path class="a" d="M25.054,47.336h0A2.8,2.8,0,0,0,23.2,46.1a2.8,2.8,0,0,1,1.854,1.236Z" transform="translate(1.108 5.022)"/><path class="a" d="M23.8,64.412h0V61.57A3.554,3.554,0,0,1,24.912,59.1c.124-.124.371-.247.494-.371a1.706,1.706,0,0,0-.494.371A3.111,3.111,0,0,0,23.8,61.57v2.842a4.6,4.6,0,0,0,2.842,4.325A4.6,4.6,0,0,1,23.8,64.412Zm16.806-1.606a4.956,4.956,0,0,0-4.2-3.337,5.793,5.793,0,0,1,4.2,3.337,5.1,5.1,0,0,1-.247,3.584A5.1,5.1,0,0,0,40.606,62.805ZM27.754,50.2l-.124.124h0l.124-.124,24.592-1.483Zm26.569-1.483h1.73A4.083,4.083,0,0,0,54.323,48.718ZM68.04,66.265a4.534,4.534,0,0,1-1.236,2.1,5,5,0,0,0,1.236-2.1l.494-2.719ZM84.6,50.2,58.9,48.718,84.6,50.2a1.706,1.706,0,0,0,.494.371A1.706,1.706,0,0,1,84.6,50.2Zm.247,8.032h0l-8.9,1.359,8.9-1.359Zm3.831-2.348-.494-.741a.121.121,0,0,0-.124-.124c0,.124.124.124.124.247l.494.618.371.741Zm.989,5.808v8.28a2.046,2.046,0,0,1-.618,1.483,1.068,1.068,0,0,1-.741.371,1.409,1.409,0,0,0,.741-.371,2.28,2.28,0,0,0,.618-1.483Z" transform="translate(1.25 5.617)"/><path class="a" d="M79.278,45.8v1.236L75.2,47.53h.124l3.954-.494Z" transform="translate(13.367 4.951)"/><path class="a" d="M74.027,62.365h0l-7.785-.247h-.247A.821.821,0,0,1,65.5,61.5a.783.783,0,0,0,.741.618Z" transform="translate(11.081 8.652)"/><path class="a" d="M78.32,57.265c-.124-.124-.371-.247-.494-.371a4.389,4.389,0,0,0-1.112-.494H75.6l-8.774,1.359A5.156,5.156,0,0,0,62.749,61.1a4.4,4.4,0,0,0,1.606,5.19h.124c.124.124.247.124.371.247a8.513,8.513,0,0,0,.989.371,2.409,2.409,0,0,0,.989.124l7.785.247h.124a4.775,4.775,0,0,0,3.337-1.359,4.956,4.956,0,0,0,1.483-3.46V59.613A3.668,3.668,0,0,0,78.32,57.265Zm-2.472,5.314a.68.68,0,0,1-.247.618l-.124.124c-.124.124-.247.124-.247.247h-.371l-7.909-.247a.692.692,0,0,1-.741-.618v-.124h0v-.247a1.508,1.508,0,0,1,1.112-.989l8.527-1.236Z" transform="translate(10.371 7.45)"/><path class="a" d="M40.606,61a4.956,4.956,0,0,0-4.2-3.337l-8.9-1.359h0a4.2,4.2,0,0,0-1.236.124.431.431,0,0,0-.247.124c-.247.124-.371.124-.618.247a1.706,1.706,0,0,0-.494.371A3.111,3.111,0,0,0,23.8,59.637v2.842A4.8,4.8,0,0,0,26.642,66.8c.124.124.247.124.494.124.124,0,.247.124.494.124a.934.934,0,0,1,.494.124h.618l7.662-.124H36.9a2.328,2.328,0,0,0,.989-.247c.247-.124.371-.124.618-.247A5.123,5.123,0,0,0,39.988,65.2h0a.937.937,0,0,0,.247-.494A4.887,4.887,0,0,0,40.606,61Zm-3.584,1.977h0c-.247.247-.247.371-.371.371h-.371l-7.785.247h-.247a.121.121,0,0,1-.124-.124L28,63.344l-.124-.124a.121.121,0,0,0-.124-.124V60.131l8.4,1.236h.124c.124,0,.247.124.371.124l.124.124.124.124c.124.124.124.247.247.371a.121.121,0,0,0,.124.124c-.124.247-.124.494-.247.741Z" transform="translate(1.25 7.426)"/><path class="a" d="M92.769,46.92a1.567,1.567,0,0,0-.741.124l-2.224.494a7.186,7.186,0,0,0-3.213,1.606L85.231,44.7A10.861,10.861,0,0,0,78.063,37.4l-2.348-6.673C74.48,27.272,70.4,24.8,65.706,24.8H49.147c-4.7,0-8.9,2.472-10.01,5.932l-2.224,6.55A10.8,10.8,0,0,0,29.745,44.7l-1.359,4.449a5.344,5.344,0,0,0-3.213-1.606l-2.348-.494a3.548,3.548,0,0,0-4.2,2.842,5.352,5.352,0,0,1-.124.618v1.73a3.465,3.465,0,0,0,2.966,3.46l2.472.247-1.854,2.966-.371.741a13.1,13.1,0,0,0-1.606,5.684L19.983,75.59a2.1,2.1,0,0,0,.124.865v7.167A4.114,4.114,0,0,0,24.184,87.7H34.318A4.114,4.114,0,0,0,38.4,83.622V81.274H76.581v2.348A4.114,4.114,0,0,0,80.659,87.7H90.792a4.114,4.114,0,0,0,4.078-4.078V74.477l-.124-9.145a11.61,11.61,0,0,0-1.606-5.684l-.371-.741a19.479,19.479,0,0,0-1.854-2.966l2.472-.247a3.481,3.481,0,0,0,3.089-3.46V50.5A3.778,3.778,0,0,0,92.769,46.92Zm-2.224,4.2,2.1-.371v1.236l-3.954.494h0A2.2,2.2,0,0,1,90.545,51.122ZM42.6,31.844a2.564,2.564,0,0,1,.741-1.236l.247-.247c.124-.124.371-.247.494-.371a9.1,9.1,0,0,1,5.067-1.483H65.83a8.159,8.159,0,0,1,1.73.124c2.348.371,4.325,1.606,4.819,3.337l1.606,4.572a146.191,146.191,0,0,0-32.871,0ZM31.352,51.74l1.854-5.932a7.006,7.006,0,0,1,4.7-4.943,16.773,16.773,0,0,1,3.213-.618,145.1,145.1,0,0,1,32.748,0l1.854.247a8.143,8.143,0,0,1,1.236.371,7.173,7.173,0,0,1,4.819,4.943l1.854,5.932v.247L60.516,50.751H55.7L31.475,51.863Zm-9.145.247V50.751l2.1.371a2.8,2.8,0,0,1,1.854,1.236h0ZM34.565,83.622a.328.328,0,0,1-.371.371H24.184a.328.328,0,0,1-.371-.371v-2.6a6.2,6.2,0,0,0,1.483.247h9.268Zm56.474,0a.328.328,0,0,1-.371.371H80.535a.328.328,0,0,1-.371-.371V81.274h9.268a7.233,7.233,0,0,0,1.606-.247Zm-.124-18.784V75.713A2.046,2.046,0,0,1,90.3,77.2a1.068,1.068,0,0,1-.741.371H25.3a1.124,1.124,0,0,1-.989-.494,2.484,2.484,0,0,1-.494-.989V74.477a.743.743,0,0,0-.124-.494l.124-8.774a8.411,8.411,0,0,1,.989-3.831l.494-.741a21.492,21.492,0,0,1,3.337-4.7H29L53.6,54.458l1.977-.124h4.7l25.58,1.483a1.706,1.706,0,0,0,.494.371h0a15.272,15.272,0,0,1,2.224,3.089,11.4,11.4,0,0,1,.618.989c0,.124.124.124.124.247s.124.124.124.247l.494.741c.124.247.247.371.371.618a1.757,1.757,0,0,1,.247.741A6.145,6.145,0,0,1,90.915,64.839Z" transform="translate(0 0)"/><path class="a" d="M64.715,60.213h0c0-.247,0-.371-.124-.371-.124-.247-.124-.494-.247-.618a11322.726,11322.726,0,0,0-.494-.494c-.124,0-.124-.494-.124-.494l-.247-.247a2.585,2.585,0,0,0-.741-.494.431.431,0,0,1-.247-.124c-.247-.124-.371-.124-.618-.247-.247,0-.494-.124-.741-.124H43.707a1.567,1.567,0,0,0-.741.124.944.944,0,0,0-.618.247.431.431,0,0,0-.247.124,2.585,2.585,0,0,0-.741.494l-.247.247-.247.247c-.124.124-.124.247-.247.247a.266.266,0,0,1-.247.247,2.088,2.088,0,0,0-.247.618c0,.124,0,.247-.124.247v.741h0a1.567,1.567,0,0,0,.124.741l.494,2.719c0,.247.124.371.247.618,0,.124.124.124.124.247.124.124.247.371.371.494l.247.247.371.371h0c.124.124.371.247.494.371a.944.944,0,0,0,.618.247,4.2,4.2,0,0,0,1.236.124H60.761A4.391,4.391,0,0,0,62,66.515c.247-.124.618-.247.865-.371a.266.266,0,0,0,.247-.247,4.163,4.163,0,0,0,1.359-2.1l.494-2.719c0-.247.124-.494.124-.741C64.839,60.584,64.715,60.46,64.715,60.213Zm-21.131.618h0l17.424-.124h0l.124.124-.494,2.6L44.2,63.55h0Z" transform="translate(5.069 7.591)"/><path class="a" d="M47.525,28.4v.989H45.919v4.572H44.806V29.389H43.2V28.4Z" transform="translate(5.823 0.849)"/><path class="a" d="M50.113,28.4H48.754L46.9,33.961h1.112l.494-1.359h1.977l.494,1.359h1.236Zm-1.359,3.213.741-2.224.741,2.224Z" transform="translate(6.695 0.849)"/><path class="a" d="M56.414,33.961H55.054L53.7,31.737l-1.236,2.224H51.1l.989-1.606L53.077,31l-1.854-2.6h1.359L53.7,30.377l.124-.124L54.931,28.4H56.29L54.437,31Z" transform="translate(7.686 0.849)"/><rect class="a" width="1.112" height="5.561" transform="translate(64.717 29.249)"/></g></g></g></svg>