<svg xmlns="http://www.w3.org/2000/svg" width="76.92" height="77.24" viewBox="0 0 76.92 77.24"><defs><style>.a{fill:#002e75;}.b{fill:#00c450;}</style></defs><g transform="translate(-1174.08 -2168.389)"><path class="a" d="M31.627,70.5v2.7a.377.377,0,0,1-.427.427h0a.377.377,0,0,0,.427-.427Z" transform="translate(1142.88 2171.997)"/><path class="a" d="M79.9,45.8v1.424l-4.7.569h.142l4.556-.569Z" transform="translate(1161.519 2161.534)"/><path class="a" d="M75.323,62.5h0l-8.969-.285h-.285A.946.946,0,0,1,65.5,61.5a.9.9,0,0,0,.854.712Z" transform="translate(1157.409 2168.185)"/><g transform="translate(1181.517 2168.389)"><path class="b" d="M20.552,38.9h0A1.58,1.58,0,0,0,19,40.452v13.61a1.58,1.58,0,0,0,1.552,1.552h0A1.58,1.58,0,0,0,22.1,54.061V40.452A1.58,1.58,0,0,0,20.552,38.9Z" transform="translate(3.683 7.54)"/><path class="b" d="M13.652,38.9h0A1.58,1.58,0,0,0,12.1,40.452v13.61a1.58,1.58,0,0,0,1.552,1.552h0A1.58,1.58,0,0,0,15.2,54.061h0V40.452A1.58,1.58,0,0,0,13.652,38.9Z" transform="translate(2.346 7.54)"/><path class="b" d="M30.552,38.9h0A1.58,1.58,0,0,0,29,40.452h0v13.61a1.58,1.58,0,0,0,1.552,1.552h0A1.58,1.58,0,0,0,32.1,54.061h0V40.452A1.58,1.58,0,0,0,30.552,38.9Z" transform="translate(5.622 7.54)"/><path class="b" d="M38.052,38.9h0A1.58,1.58,0,0,0,36.5,40.452h0v13.61a1.58,1.58,0,0,0,1.552,1.552h0A1.58,1.58,0,0,0,39.6,54.061h0V40.452A1.58,1.58,0,0,0,38.052,38.9Z" transform="translate(7.075 7.54)"/><path class="b" d="M57.424,27.1c-.239,0-.358-.239-.358-.478a.417.417,0,0,1,.119-.239A10.528,10.528,0,0,0,61,17.907,11.592,11.592,0,0,0,49.664,6.088h-.478a19.522,19.522,0,0,0-2.626.239C43.217,2.388,37.248,0,30.324,0S17.431,2.268,14.088,6.208a13.223,13.223,0,0,0-2.268-.239A11.518,11.518,0,0,0,0,17.31v.478A10.543,10.543,0,0,0,5.015,27.1a2.91,2.91,0,0,1,1.433,2.507V63.034a12.64,12.64,0,0,0,.6,3.7A2.5,2.5,0,0,1,6.686,69a5.224,5.224,0,0,0-.955,2.985,5.15,5.15,0,0,0,4.895,5.253H49.9A5.074,5.074,0,0,0,54.8,71.987a5.584,5.584,0,0,0-1.074-3.343,2.859,2.859,0,0,1-.478-2.388v-.119a1.793,1.793,0,0,1,1.791-1.313h.478A13.961,13.961,0,0,0,69.481,50.976V40.709A13.571,13.571,0,0,0,57.424,27.1Zm-8.118,6.327H29.727a1.379,1.379,0,0,1-1.433-1.433h0v-3.94a3.518,3.518,0,0,1,3.581-3.581h7.64a11.888,11.888,0,0,0,9.789,4.417h0A1.468,1.468,0,0,1,50.858,30.2v1.91A1.553,1.553,0,0,1,49.306,33.427Zm5.969,2.865h.358a4.662,4.662,0,0,1,4.656,4.656V51.1a4.662,4.662,0,0,1-4.656,4.656h-.358a1.452,1.452,0,0,1-1.433-1.433V37.725a1.537,1.537,0,0,1,1.433-1.433Zm-52.05-18.5a8.414,8.414,0,0,1,8.118-8.715h.6a8.272,8.272,0,0,1,2.388.358h0A1.755,1.755,0,0,0,16,8.834h0C18.505,5.253,24.116,3.1,30.324,3.1s11.938,2.268,14.445,5.85h0a1.373,1.373,0,0,0,1.671.6h0a11.049,11.049,0,0,1,2.746-.478A8.414,8.414,0,0,1,57.9,17.191v.6c0,5.85-4.656,7.879-8.715,7.879-3.462,0-6.208-1.313-7.64-3.7h0a2.932,2.932,0,0,0-1.791-.6H31.876a6.674,6.674,0,0,0-6.685,6.685h0V38.322a3.146,3.146,0,0,1-2.865,3.223,2.877,2.877,0,0,1-2.149-.836,2.989,2.989,0,0,1-.955-2.149V28.174a6.674,6.674,0,0,0-6.685-6.685H9.551a2.956,2.956,0,0,0-2.985,2.985h0A7.348,7.348,0,0,1,3.224,17.788ZM14.565,33.427H11.1a1.379,1.379,0,0,1-1.433-1.433h0V25.548a1.07,1.07,0,0,1,1.074-1.074h1.791a3.518,3.518,0,0,1,3.581,3.581v3.94A1.558,1.558,0,0,1,14.565,33.427ZM9.671,63.034V38.083A1.379,1.379,0,0,1,11.1,36.65h3.462A1.379,1.379,0,0,1,16,38.083h0v.239a6.359,6.359,0,0,0,1.552,4.3,6.073,6.073,0,0,0,4.775,2.029,6.3,6.3,0,0,0,5.969-6.327v-.358a1.379,1.379,0,0,1,1.433-1.433H49.306a1.379,1.379,0,0,1,1.433,1.433h0V62.914a9.119,9.119,0,0,1-.955,3.94H10.626A7.275,7.275,0,0,1,9.671,63.034ZM50.022,74.255H10.865a2.161,2.161,0,0,1-1.791-2.507,2.031,2.031,0,0,1,1.791-1.791H50.141a2.161,2.161,0,0,1,1.791,2.507A2.284,2.284,0,0,1,50.022,74.255ZM66.5,50.976A10.9,10.9,0,0,1,55.633,61.84h-.358a1.452,1.452,0,0,1-1.433-1.433v-.239a1.379,1.379,0,0,1,1.433-1.433h.358a7.72,7.72,0,0,0,7.76-7.64V40.829a7.744,7.744,0,0,0-7.76-7.76h-.358a1.379,1.379,0,0,1-1.433-1.433h0v-.119a1.379,1.379,0,0,1,1.433-1.433h.358A10.9,10.9,0,0,1,66.5,40.948h0Z" transform="translate(0)"/></g></g></svg>