<svg xmlns="http://www.w3.org/2000/svg" width="87.1" height="71.4" viewBox="0 0 87.1 71.4"><defs><style>.a{fill:#00c450;}</style></defs><g transform="translate(-178 -2176)"><g transform="translate(178 2176)"><path class="a" d="M73.1,32.8c-.2.1-.3.2-.5.2A.764.764,0,0,0,73.1,32.8Zm-2,.3a1.718,1.718,0,0,1-1.5-1.7A1.4,1.4,0,0,1,70.8,30a1.533,1.533,0,0,0-1.3,1.6,1.708,1.708,0,0,0,1.6,1.5h1.2a.367.367,0,0,0,.3-.1.367.367,0,0,0-.3.1ZM66,35.8c-.3,0-.6.3-1.1.7-.3.2-1.4,1.2-1.6,1,.1-.3.1-.5.2-.8.6-1.8,1.9-5.5-2.2-8-4.4-2.6-2.4-4.5-3.2-5.4a1.08,1.08,0,0,0-.7-.3c-.8,0-2.4,1.4-3.3,2.9a4.676,4.676,0,0,0-.4,4.7c.3.7,1.1,2,.7,2.8a1.589,1.589,0,0,1-1,.8,1.1,1.1,0,0,1-.9.3c-.9,0-1.2-.6-1.5-1.4-.2-.4-.4-.8-.8-.8a.764.764,0,0,0-.5.2,7.864,7.864,0,0,0-2.5,6.1,9.108,9.108,0,0,0,4.5,7.8.8.8,0,0,0,.8.1,1.208,1.208,0,0,0,.7-.7,1.163,1.163,0,0,0-.2-1,3.247,3.247,0,0,1-.8-3.4,6.11,6.11,0,0,1,.7-1.4,2.979,2.979,0,0,0,.8,1.8l.3.3a2.074,2.074,0,0,0,2.9-.4,1.84,1.84,0,0,0-.2-2,5.059,5.059,0,0,1-.1-4,7.761,7.761,0,0,1,1.2-2.2A13.548,13.548,0,0,0,59.5,38c1.4,2,1.9,2.9,1.9,4.2a4.558,4.558,0,0,1-.5,2.3,1.258,1.258,0,0,0,.2,1.3,1.226,1.226,0,0,0,1.6.2,8.9,8.9,0,0,0,4-7.4,9.862,9.862,0,0,0-.3-2.4C66.5,36,66.2,35.8,66,35.8ZM34.9,59.9a1.638,1.638,0,0,1,1,1.5,1.709,1.709,0,0,1-.7,1.3,1.709,1.709,0,0,0,.7-1.3A1.539,1.539,0,0,0,34.9,59.9Zm.2,2.8a1.072,1.072,0,0,1-.6.2A.845.845,0,0,0,35.1,62.7Z"/><path class="a" d="M83.1,60V41a5.936,5.936,0,0,0,4-5.4,5.794,5.794,0,0,0-4-5.5V11.3A5.795,5.795,0,0,0,81.3,0H30.4a5.8,5.8,0,0,0-5.8,5.8,5.88,5.88,0,0,0,4.1,5.6V30.2A5.831,5.831,0,0,0,25,37.5a5.7,5.7,0,0,0,3.7,3.7V60.1a5.777,5.777,0,0,0,1.7,11.3H81.3a5.8,5.8,0,0,0,5.8-5.8A6.1,6.1,0,0,0,83.1,60Zm-1.8,8.1H30.4a2.6,2.6,0,1,1,0-5.2h4.2a1.421,1.421,0,0,0,.6-.2h0a1.709,1.709,0,0,0,.7-1.3,1.638,1.638,0,0,0-1-1.5,1.268,1.268,0,0,0-.6-.1H31.8V41.4h4.8a1.71,1.71,0,0,0,1.3-1.6,1.6,1.6,0,0,0-1.3-1.6H30.3c-.2,0-.3,0-.4-.1-.1,0-.2,0-.2-.1a2.706,2.706,0,0,1-1.8-2.6A2.656,2.656,0,0,1,30.1,33h4.1a1.71,1.71,0,0,0,1.3-1.6,1.638,1.638,0,0,0-1-1.5c-.1,0-.2-.1-.3-.1H31.8V11.6H42.9A1.71,1.71,0,0,0,44.2,10a1.638,1.638,0,0,0-1-1.5c-.1,0-.2-.1-.3-.1H30.4a.9.9,0,0,1-.5-.1.52.52,0,0,1-.4-.2,2.186,2.186,0,0,1-.5-.3.349.349,0,0,0-.2-.1A2.189,2.189,0,0,1,28,6.3c0-.1-.1-.3-.1-.4V5.6a.6.6,0,0,1,.1-.4c0-.2.1-.3.2-.5,0-.1.1-.1.1-.2s.1-.1.1-.2c.1-.2.3-.3.4-.5a.349.349,0,0,1,.2-.1,1.612,1.612,0,0,1,.7-.4.349.349,0,0,0,.2-.1H81.8c.1,0,.2,0,.2.1a2.506,2.506,0,0,1,.7.4.349.349,0,0,0,.2.1,2.181,2.181,0,0,1,.4.5c0,.1.1.1.1.2s.1.1.1.2c.1.2.1.3.2.5,0,.1.1.3.1.4v.3a.6.6,0,0,1-.1.4,2.851,2.851,0,0,1-.8,1.4.349.349,0,0,1-.2.1,2.186,2.186,0,0,1-.5.3c-.1.1-.3.1-.4.2-.2,0-.3.1-.5.1H73.4a1.6,1.6,0,0,0,0,3.2h6.5V29.8H76.5a1.6,1.6,0,0,0,0,3.2h5.3c.1,0,.2,0,.2.1a2.506,2.506,0,0,1,.7.4.349.349,0,0,0,.2.1,2.651,2.651,0,0,1,.5.6c0,.1.1.1.1.2.1.2.1.3.2.5,0,.1.1.3.1.4v.3a.6.6,0,0,1-.1.4c-.1.2-.2.5-.3.7,0,.1-.1.1-.1.2-.1.2-.3.3-.4.5,0,.1-.1.1-.2.1a2.186,2.186,0,0,1-.5.3c-.1.1-.3.1-.4.2-.2,0-.3.1-.5.1H76.5a1.6,1.6,0,0,0,0,3.2h3.4V59.6H77.1c-.1,0-.2.1-.3.1a1.549,1.549,0,0,0-.8.8c0,.1-.1.2-.1.3v.6c0,.1.1.2.1.3a1.549,1.549,0,0,0,.8.8c.1,0,.2.1.3.1h4.2a2.647,2.647,0,0,1,2.6,2.6C83.8,67,82.7,68.1,81.3,68.1Z"/><path class="a" d="M5.6,32.9A1.58,1.58,0,0,1,4,34.5H2.8a1.6,1.6,0,1,1,0-3.2H4A1.645,1.645,0,0,1,5.6,32.9Z"/><path class="a" d="M33.2,3.1a1.58,1.58,0,0,1-1.6,1.6H28a1.58,1.58,0,0,1-1.6-1.6A1.58,1.58,0,0,1,28,1.5h3.6A1.58,1.58,0,0,1,33.2,3.1Z"/><path class="a" d="M13.8,3.1a1.58,1.58,0,0,1-1.6,1.6H10.4A1.58,1.58,0,0,1,8.8,3.1a1.58,1.58,0,0,1,1.6-1.6h1.8A1.58,1.58,0,0,1,13.8,3.1Z"/><path class="a" d="M15.9,54.4v.3c0,.1-.1.2-.1.3a1.549,1.549,0,0,1-.8.8c-.1,0-.2.1-.3.1H1.2c-.1,0-.2-.1-.3-.1A1.549,1.549,0,0,1,.1,55c0-.1-.1-.2-.1-.3v-.6c0-.1.1-.2.1-.3A1.549,1.549,0,0,1,.9,53c.1,0,.2-.1.3-.1H14.6c.1,0,.2.1.3.1a1.549,1.549,0,0,1,.8.8c0,.1.1.2.1.3A.367.367,0,0,1,15.9,54.4Z"/><path class="a" d="M73.9,61.3a1.58,1.58,0,0,1-1.6,1.6H69.9a1.6,1.6,0,0,1,0-3.2h2.4A1.58,1.58,0,0,1,73.9,61.3Z"/><path class="a" d="M68.2,61.3v.3c0,.1-.1.2-.1.3a1.549,1.549,0,0,1-.8.8c-.1,0-.2.1-.3.1h-.6a1.6,1.6,0,0,1,0-3.2H67c.1,0,.2.1.3.1a1.549,1.549,0,0,1,.8.8c0,.1.1.2.1.3Z"/><path class="a" d="M73.8,31.4h0V32c0,.1-.1.2-.1.3a.349.349,0,0,1-.1.2.215.215,0,0,1-.2.2l-.2.2c-.2.1-.3.2-.5.2-.1,0-.2.1-.3.1H71.2a1.58,1.58,0,0,1-1.6-1.6A1.71,1.71,0,0,1,70.9,30h1.8a.764.764,0,0,1,.5.2c.1,0,.1.1.2.2l.2.2a.31.31,0,0,1,.1.2c0,.1.1.2.1.3Z"/><path class="a" d="M66.8,38.6a8.77,8.77,0,0,1-4,7.4,1.358,1.358,0,0,1-1.6-.2,1.193,1.193,0,0,1-.2-1.3,5.932,5.932,0,0,0,.5-2.3c0-1.3-.5-2.3-1.9-4.2a12.324,12.324,0,0,1-1.7-4.5,6.782,6.782,0,0,0-1.2,2.2,5.059,5.059,0,0,0,.1,4,2.063,2.063,0,0,1,.2,2,2.074,2.074,0,0,1-2.9.4l-.3-.3A3.258,3.258,0,0,1,53,40a4.155,4.155,0,0,0-.8,3.2,3.192,3.192,0,0,0,.9,1.6,1.163,1.163,0,0,1,.2,1,1.208,1.208,0,0,1-.7.7,1.063,1.063,0,0,1-.8-.1,9.429,9.429,0,0,1-4.5-7.8,7.864,7.864,0,0,1,2.5-6.1c.1-.2.3-.2.5-.2.5,0,.7.4.8.8.3.8.6,1.4,1.5,1.4.3,0,.6-.1.8-.1a1.589,1.589,0,0,0,1-.8c.3-.8-.4-2.2-.7-2.8a4.656,4.656,0,0,1,.4-4.7c.9-1.5,2.5-2.9,3.3-2.9a.908.908,0,0,1,.7.3c.8.9-1.2,2.8,3.2,5.4,4.2,2.5,2.9,6.2,2.2,8a1.884,1.884,0,0,0-.2.8c.2.2,1.3-.8,1.6-1,.5-.5.8-.7,1.1-.7a.458.458,0,0,1,.5.4A7.316,7.316,0,0,1,66.8,38.6Z"/></g></g></svg>