<svg xmlns="http://www.w3.org/2000/svg" width="50" height="50" viewBox="0 0 50 50"><defs><style>.a{fill:#63b2e9;}.b{fill:#fff;}.c{fill:#707070;opacity:0.173;}.d{fill:#0033a1;}.e{fill:#0133a1;}.f{fill:#00c450;}</style></defs><g transform="translate(0.385 0.075)"><circle class="a" cx="25" cy="25" r="25" transform="translate(-0.385 -0.075)"/><g transform="translate(11.022 9.784)"><g transform="translate(0 0)"><path class="b" d="M334.154,67.486a6.9,6.9,0,0,0-8.944-8.944l4.472,4.473-4.1,3.712L321.3,62.448a6.9,6.9,0,0,0,8.944,8.945L344.5,85.644a2.208,2.208,0,0,0,3.123,0l.783-.783a2.209,2.209,0,0,0,0-3.123Z" transform="translate(-320.823 -58.062)"/><g transform="translate(1.245 1.986)"><path class="c" d="M459.12,193.868a1.06,1.06,0,0,1,0,1.5l-.643.643a1.06,1.06,0,0,1-1.5,0l-12.985-12.986a1.06,1.06,0,0,1,0-1.5l.643-.643a1.06,1.06,0,0,1,1.5,0Z" transform="translate(-433.955 -171.618)"/><path class="b" d="M340.958,196.292l-.005-.006-4.082,2.1-2.1,4.08,1.98,1.981,4.081-2.1,2.1-4.071,9.371-9.256-2.026-1.928Z" transform="translate(-334.77 -177.556)"/><path class="d" d="M487.7,81.115l-9.414,9.415,3.907,3.907,9.414-9.414a2.762,2.762,0,0,0-3.907-3.907Z" transform="translate(-465.469 -80.306)"/></g></g><path class="e" d="M449.662,217.808a.865.865,0,0,1-1.223,0l-2.684-2.684a.865.865,0,0,1,0-1.223l1.075-1.075,3.907,3.907Z" transform="translate(-434.368 -199.006)"/><path class="f" d="M464.276,200.358l-3.907-3.907c1.375.24,2.1.118,1.605-1.605l3.906,3.907C464.293,198.518,464,199.071,464.276,200.358Z" transform="translate(-447.907 -182.631)"/></g></g></svg>