<svg xmlns="http://www.w3.org/2000/svg" xmlns:xlink="http://www.w3.org/1999/xlink" width="50" height="50" viewBox="0 0 50 50"><defs><style>.a,.c,.f{fill:#fff;}.a{clip-rule:evenodd;}.b{fill:#63b2e9;}.c{fill-rule:evenodd;}.d{clip-path:url(#a);}.e{fill:#00c450;}</style><clipPath id="a"><path class="a" d="M-2605.407,920.22a17.423,17.423,0,0,1-11.946,4.592v15.433c0,5.105,3.985,8.3,11.946,11.592,7.96-3.289,11.945-6.487,11.945-11.592V924.812a17.421,17.421,0,0,1-11.945-4.592" transform="translate(2617.353 -920.22)"/></clipPath></defs><g transform="translate(-202 -946)"><circle class="b" cx="25" cy="25" r="25" transform="translate(202 946)"/><g transform="translate(215.505 955.516)"><g transform="translate(0 0)"><path class="c" d="M-2605.407,920.22a17.423,17.423,0,0,1-11.946,4.592v15.433c0,5.105,3.985,8.3,11.946,11.592,7.96-3.289,11.945-6.487,11.945-11.592V924.812a17.421,17.421,0,0,1-11.945-4.592" transform="translate(2617.353 -920.22)"/><g class="d" transform="translate(0)"><path class="c" d="M-3528.929,253.213l23.034,21.458-21.343,22.911-23.034-21.458" transform="translate(3540.029 -260.537)"/><path class="c" d="M-2122.29,1645.417a.129.129,0,0,0,.018-.178.129.129,0,0,0-.176.031.129.129,0,0,0-.019.178.129.129,0,0,0,.176-.031" transform="translate(2127.927 -1637.255)"/><path class="c" d="M-2129.77,1637.791a.215.215,0,0,0,.03-.3.214.214,0,0,0-.293.051.215.215,0,0,0-.031.3.215.215,0,0,0,.294-.051m-.079-.074a.086.086,0,0,1-.118.021.087.087,0,0,1,.012-.119.087.087,0,0,1,.118-.021A.086.086,0,0,1-2129.849,1637.717Z" transform="translate(2135.46 -1629.579)"/><path class="c" d="M-2137.242,1630.158a.3.3,0,0,0,.043-.415.3.3,0,0,0-.412.072.3.3,0,0,0-.043.415.3.3,0,0,0,.411-.072m-.079-.073a.172.172,0,0,1-.235.041.172.172,0,0,1,.024-.237.173.173,0,0,1,.235-.041A.173.173,0,0,1-2137.321,1630.085Z" transform="translate(2142.985 -1621.898)"/><path class="c" d="M-2144.723,1622.531a.387.387,0,0,0,.055-.534.388.388,0,0,0-.529.093.388.388,0,0,0-.055.534.387.387,0,0,0,.529-.093m-.079-.073a.258.258,0,0,1-.353.062.258.258,0,0,1,.037-.356.259.259,0,0,1,.353-.062A.258.258,0,0,1-2144.8,1622.458Z" transform="translate(2150.519 -1614.223)"/><path class="c" d="M-2152.2,1614.9a.474.474,0,0,0,.067-.653.474.474,0,0,0-.647.114.474.474,0,0,0-.067.653.474.474,0,0,0,.647-.114m-.079-.074a.345.345,0,0,1-.47.082.345.345,0,0,1,.049-.475.345.345,0,0,1,.47-.082A.344.344,0,0,1-2152.275,1614.829Z" transform="translate(2158.045 -1606.545)"/><path class="c" d="M-2159.676,1607.277a.56.56,0,0,0,.08-.772.56.56,0,0,0-.764.134.559.559,0,0,0-.08.772.559.559,0,0,0,.764-.134m-.079-.074a.431.431,0,0,1-.588.1.431.431,0,0,1,.062-.594.431.431,0,0,1,.588-.1A.43.43,0,0,1-2159.755,1607.2Z" transform="translate(2165.577 -1598.87)"/><path class="c" d="M-2167.153,1599.649a.646.646,0,0,0,.092-.891.645.645,0,0,0-.882.155.646.646,0,0,0-.092.89.646.646,0,0,0,.882-.155m-.079-.074a.516.516,0,0,1-.705.124.516.516,0,0,1,.073-.712.517.517,0,0,1,.706-.124A.517.517,0,0,1-2167.232,1599.576Z" transform="translate(2173.106 -1591.193)"/><path class="c" d="M-2174.629,1592.02a.732.732,0,0,0,.1-1.009.732.732,0,0,0-1,.175.732.732,0,0,0-.1,1.009.732.732,0,0,0,1-.176m-.079-.073a.6.6,0,0,1-.823.144.6.6,0,0,1,.086-.831.6.6,0,0,1,.823-.144A.6.6,0,0,1-2174.708,1591.947Z" transform="translate(2180.635 -1583.515)"/><path class="c" d="M-2182.106,1584.394a.818.818,0,0,0,.117-1.128.818.818,0,0,0-1.117.2.818.818,0,0,0-.117,1.128.818.818,0,0,0,1.117-.2m-.079-.073a.689.689,0,0,1-.941.165.689.689,0,0,1,.1-.95.688.688,0,0,1,.94-.165A.689.689,0,0,1-2182.185,1584.32Z" transform="translate(2188.165 -1575.839)"/><path class="c" d="M-2189.579,1576.763a.9.9,0,0,0,.129-1.247.9.9,0,0,0-1.234.217.9.9,0,0,0-.129,1.247.9.9,0,0,0,1.234-.217m-.079-.074a.775.775,0,0,1-1.058.186.775.775,0,0,1,.11-1.069.775.775,0,0,1,1.058-.186A.774.774,0,0,1-2189.658,1576.69Z" transform="translate(2195.691 -1568.16)"/><path class="c" d="M-2197.058,1569.14a.991.991,0,0,0,.141-1.365.991.991,0,0,0-1.353.237.99.99,0,0,0-.141,1.365.99.99,0,0,0,1.352-.237m-.079-.074a.86.86,0,0,1-1.176.206.86.86,0,0,1,.122-1.187.861.861,0,0,1,1.176-.206A.861.861,0,0,1-2197.137,1569.066Z" transform="translate(2203.223 -1560.487)"/><path class="c" d="M-2204.54,1561.507a1.076,1.076,0,0,0,.153-1.484,1.076,1.076,0,0,0-1.47.258,1.076,1.076,0,0,0-.153,1.484,1.076,1.076,0,0,0,1.47-.258m-.079-.073a.947.947,0,0,1-1.293.227.947.947,0,0,1,.135-1.306.947.947,0,0,1,1.293-.227A.947.947,0,0,1-2204.619,1561.434Z" transform="translate(2210.757 -1552.806)"/><path class="c" d="M-2212.014,1553.881a1.162,1.162,0,0,0,.166-1.6,1.162,1.162,0,0,0-1.587.278,1.162,1.162,0,0,0-.165,1.6,1.162,1.162,0,0,0,1.587-.278m-.079-.074a1.033,1.033,0,0,1-1.411.248,1.033,1.033,0,0,1,.147-1.425,1.033,1.033,0,0,1,1.411-.248A1.033,1.033,0,0,1-2212.093,1553.807Z" transform="translate(2218.283 -1545.13)"/><path class="c" d="M-2219.489,1546.252a1.248,1.248,0,0,0,.178-1.722,1.248,1.248,0,0,0-1.7.3,1.248,1.248,0,0,0-.178,1.722,1.248,1.248,0,0,0,1.7-.3m-.079-.074a1.119,1.119,0,0,1-1.528.268,1.119,1.119,0,0,1,.159-1.544,1.119,1.119,0,0,1,1.529-.268A1.119,1.119,0,0,1-2219.568,1546.179Z" transform="translate(2225.811 -1537.453)"/><path class="c" d="M-2226.962,1538.627a1.335,1.335,0,0,0,.19-1.84,1.335,1.335,0,0,0-1.823.32,1.334,1.334,0,0,0-.19,1.84,1.334,1.334,0,0,0,1.822-.32m-.079-.074a1.205,1.205,0,0,1-1.646.289,1.205,1.205,0,0,1,.172-1.662,1.205,1.205,0,0,1,1.646-.289A1.205,1.205,0,0,1-2227.041,1538.554Z" transform="translate(2233.337 -1529.779)"/><path class="c" d="M-2234.445,1531a1.42,1.42,0,0,0,.2-1.959,1.421,1.421,0,0,0-1.94.34,1.421,1.421,0,0,0-.2,1.959,1.421,1.421,0,0,0,1.94-.341m-.079-.074a1.292,1.292,0,0,1-1.764.31,1.292,1.292,0,0,1,.184-1.781,1.291,1.291,0,0,1,1.764-.309A1.291,1.291,0,0,1-2234.524,1530.926Z" transform="translate(2240.873 -1522.102)"/><path class="c" d="M-2241.923,1523.369a1.507,1.507,0,0,0,.215-2.078,1.506,1.506,0,0,0-2.057.361,1.507,1.507,0,0,0-.215,2.078,1.507,1.507,0,0,0,2.058-.361m-.079-.073a1.377,1.377,0,0,1-1.881.33,1.378,1.378,0,0,1,.2-1.9,1.378,1.378,0,0,1,1.881-.33A1.377,1.377,0,0,1-2242,1523.3Z" transform="translate(2248.403 -1514.423)"/><path class="c" d="M-2249.4,1515.745a1.593,1.593,0,0,0,.227-2.2,1.592,1.592,0,0,0-2.175.382,1.592,1.592,0,0,0-.227,2.2,1.593,1.593,0,0,0,2.175-.382m-.079-.073a1.464,1.464,0,0,1-2,.351,1.464,1.464,0,0,1,.208-2.019,1.463,1.463,0,0,1,2-.351A1.464,1.464,0,0,1-2249.475,1515.672Z" transform="translate(2255.929 -1506.75)"/><path class="c" d="M-2256.874,1508.114a1.679,1.679,0,0,0,.239-2.315,1.679,1.679,0,0,0-2.293.4,1.679,1.679,0,0,0-.239,2.315,1.678,1.678,0,0,0,2.292-.4m-.079-.074a1.549,1.549,0,0,1-2.116.371,1.55,1.55,0,0,1,.22-2.137,1.55,1.55,0,0,1,2.116-.372A1.55,1.55,0,0,1-2256.953,1508.04Z" transform="translate(2263.459 -1499.069)"/><path class="c" d="M-2264.355,1500.491a1.765,1.765,0,0,0,.251-2.434,1.765,1.765,0,0,0-2.41.423,1.765,1.765,0,0,0-.251,2.434,1.765,1.765,0,0,0,2.41-.423m-.079-.074a1.636,1.636,0,0,1-2.234.392,1.636,1.636,0,0,1,.233-2.256,1.636,1.636,0,0,1,2.234-.392A1.635,1.635,0,0,1-2264.434,1500.417Z" transform="translate(2270.994 -1491.397)"/><path class="c" d="M-2271.829,1492.857a1.851,1.851,0,0,0,.264-2.553,1.852,1.852,0,0,0-2.528.444,1.852,1.852,0,0,0-.263,2.553,1.851,1.851,0,0,0,2.528-.444m-.079-.073a1.722,1.722,0,0,1-2.352.413,1.721,1.721,0,0,1,.245-2.375,1.721,1.721,0,0,1,2.351-.413A1.722,1.722,0,0,1-2271.907,1492.784Z" transform="translate(2278.52 -1483.715)"/><path class="c" d="M-2279.305,1485.228a1.937,1.937,0,0,0,.276-2.671,1.937,1.937,0,0,0-2.645.464,1.937,1.937,0,0,0-.276,2.672,1.937,1.937,0,0,0,2.646-.464m-.079-.073a1.808,1.808,0,0,1-2.469.433,1.808,1.808,0,0,1,.258-2.494,1.808,1.808,0,0,1,2.469-.433A1.808,1.808,0,0,1-2279.385,1485.155Z" transform="translate(2286.049 -1476.036)"/><path class="c" d="M-2286.779,1477.6a2.023,2.023,0,0,0,.288-2.79,2.023,2.023,0,0,0-2.763.485,2.023,2.023,0,0,0-.288,2.79,2.023,2.023,0,0,0,2.763-.485m-.079-.073a1.894,1.894,0,0,1-2.586.454,1.894,1.894,0,0,1,.27-2.612,1.894,1.894,0,0,1,2.587-.454A1.894,1.894,0,0,1-2286.858,1477.529Z" transform="translate(2293.575 -1468.361)"/><path class="c" d="M-2294.26,1469.974a2.109,2.109,0,0,0,.3-2.909,2.109,2.109,0,0,0-2.881.506,2.109,2.109,0,0,0-.3,2.909,2.109,2.109,0,0,0,2.881-.505m-.079-.074a1.98,1.98,0,0,1-2.7.475,1.98,1.98,0,0,1,.282-2.731,1.98,1.98,0,0,1,2.7-.475A1.98,1.98,0,0,1-2294.339,1469.9Z" transform="translate(2301.109 -1460.684)"/><path class="c" d="M-2301.738,1462.349a2.2,2.2,0,0,0,.313-3.028,2.2,2.2,0,0,0-3,.526,2.195,2.195,0,0,0-.312,3.028,2.2,2.2,0,0,0,3-.526m-.079-.074a2.066,2.066,0,0,1-2.822.5,2.066,2.066,0,0,1,.294-2.85,2.067,2.067,0,0,1,2.822-.495A2.067,2.067,0,0,1-2301.816,1462.276Z" transform="translate(2308.639 -1453.01)"/><path class="c" d="M-2309.213,1454.719c.95-1.02,1.1-2.429.325-3.147s-2.166-.473-3.116.547-1.1,2.429-.325,3.147,2.166.473,3.115-.547m-.079-.074a2.152,2.152,0,0,1-2.94.516,2.153,2.153,0,0,1,.307-2.968,2.152,2.152,0,0,1,2.939-.516A2.153,2.153,0,0,1-2309.292,1454.645Z" transform="translate(2316.167 -1445.331)"/><path class="c" d="M-2316.691,1447.1c.986-1.058,1.137-2.52.337-3.265s-2.247-.491-3.234.567-1.136,2.52-.337,3.266,2.247.491,3.233-.568m-.079-.074a2.238,2.238,0,0,1-3.057.536,2.238,2.238,0,0,1,.319-3.087,2.239,2.239,0,0,1,3.057-.536A2.239,2.239,0,0,1-2316.77,1447.022Z" transform="translate(2323.698 -1437.659)"/><path class="c" d="M-2324.164,1439.464c1.021-1.1,1.178-2.612.349-3.384s-2.329-.509-3.351.588-1.178,2.612-.349,3.384,2.329.509,3.351-.588m-.079-.074c-.968,1.039-2.389,1.288-3.174.557s-.637-2.167.331-3.206,2.389-1.289,3.175-.557S-2323.275,1438.351-2324.243,1439.391Z" transform="translate(2331.224 -1429.978)"/><path class="c" d="M-2331.643,1431.833c1.057-1.135,1.219-2.7.362-3.5s-2.411-.527-3.469.609-1.219,2.7-.361,3.5,2.41.527,3.468-.609m-.079-.073c-1,1.077-2.478,1.336-3.292.578s-.661-2.247.343-3.325,2.478-1.336,3.292-.578S-2330.718,1430.682-2331.722,1431.76Z" transform="translate(2338.756 -1422.298)"/><path class="c" d="M-2339.121,1424.211c1.094-1.174,1.261-2.8.374-3.622s-2.493-.544-3.586.629-1.261,2.8-.374,3.622,2.492.545,3.586-.629m-.079-.074c-1.04,1.116-2.566,1.384-3.409.6s-.685-2.327.356-3.443,2.566-1.384,3.409-.6S-2338.16,1423.021-2339.2,1424.137Z" transform="translate(2346.285 -1414.626)"/><path class="c" d="M-2346.6,1416.577c1.13-1.212,1.3-2.887.386-3.74s-2.574-.563-3.7.65-1.3,2.887-.386,3.74,2.574.562,3.7-.65m-.079-.073c-1.076,1.154-2.655,1.432-3.527.619s-.708-2.407.368-3.562,2.655-1.432,3.527-.619S-2345.6,1415.349-2346.675,1416.5Z" transform="translate(2353.813 -1406.944)"/><path class="c" d="M-2354.078,1408.957c1.165-1.251,1.344-2.979.4-3.859s-2.656-.58-3.821.67-1.344,2.979-.4,3.859,2.656.58,3.821-.671m-.079-.073c-1.111,1.193-2.743,1.479-3.645.64s-.731-2.488.38-3.681,2.743-1.479,3.645-.64S-2353.045,1407.69-2354.157,1408.884Z" transform="translate(2361.348 -1399.275)"/><path class="c" d="M-2361.555,1401.323c1.2-1.289,1.385-3.07.411-3.978s-2.738-.6-3.938.691-1.385,3.07-.411,3.978,2.738.6,3.939-.691m-.079-.073c-1.148,1.232-2.832,1.527-3.762.66s-.755-2.568.392-3.8,2.832-1.527,3.763-.66S-2360.486,1400.018-2361.634,1401.25Z" transform="translate(2368.878 -1391.592)"/><path class="c" d="M-2369.028,1393.7c1.237-1.328,1.426-3.162.423-4.1s-2.82-.616-4.057.712-1.426,3.162-.423,4.1,2.819.616,4.056-.712m-.079-.074c-1.183,1.27-2.92,1.575-3.88.681s-.779-2.648.4-3.918,2.92-1.575,3.88-.681S-2367.924,1392.359-2369.107,1393.629Z" transform="translate(2376.404 -1383.922)"/><path class="c" d="M-2376.505,1386.069c1.273-1.366,1.468-3.253.435-4.215s-2.9-.634-4.174.733-1.468,3.253-.435,4.215,2.9.634,4.174-.732m-.079-.074c-1.219,1.309-3.009,1.623-4,.7s-.8-2.729.417-4.037,3.009-1.623,4-.7S-2375.365,1384.687-2376.584,1386Z" transform="translate(2383.934 -1376.239)"/><path class="c" d="M-2383.981,1378.441c1.309-1.4,1.509-3.345.448-4.334s-2.983-.652-4.292.753-1.509,3.346-.447,4.334,2.983.652,4.291-.753m-.079-.074c-1.255,1.347-3.1,1.671-4.115.722s-.826-2.809.429-4.156,3.1-1.671,4.115-.722S-2382.805,1377.02-2384.06,1378.367Z" transform="translate(2391.462 -1368.562)"/><path class="c" d="M-2391.46,1370.814c1.344-1.443,1.55-3.437.46-4.453s-3.064-.67-4.409.774-1.55,3.437-.46,4.453,3.065.67,4.409-.774m-.079-.074c-1.291,1.386-3.186,1.718-4.233.743s-.849-2.889.441-4.275,3.186-1.718,4.233-.743S-2390.249,1369.355-2391.54,1370.741Z" transform="translate(2398.994 -1360.887)"/><path class="c" d="M-2398.937,1363.181c1.381-1.482,1.592-3.529.472-4.572s-3.146-.687-4.526.794-1.592,3.528-.472,4.572,3.146.687,4.526-.794m-.079-.074c-1.326,1.424-3.274,1.766-4.35.763s-.873-2.969.453-4.393,3.274-1.766,4.351-.763S-2397.689,1361.684-2399.016,1363.108Z" transform="translate(2406.523 -1353.204)"/><path class="c" d="M-2406.411,1355.561c1.416-1.52,1.634-3.62.484-4.69s-3.228-.705-4.644.815-1.633,3.62-.484,4.69,3.228.705,4.644-.815m-.079-.074c-1.362,1.463-3.363,1.814-4.468.784s-.9-3.05.466-4.512,3.363-1.814,4.468-.784S-2405.128,1354.025-2406.49,1355.487Z" transform="translate(2414.05 -1345.535)"/><path class="c" d="M-2413.894,1347.928c1.452-1.559,1.674-3.712.5-4.809s-3.31-.723-4.761.836-1.674,3.712-.5,4.809,3.31.723,4.762-.836m-.079-.074c-1.4,1.5-3.451,1.861-4.585.8s-.92-3.13.479-4.631,3.451-1.861,4.585-.8S-2412.575,1346.353-2413.973,1347.854Z" transform="translate(2421.585 -1337.853)"/><path class="c" d="M-2421.366,1340.3c1.488-1.6,1.716-3.8.509-4.927s-3.391-.741-4.879.856-1.715,3.8-.509,4.928,3.392.741,4.879-.856m-.079-.073c-1.434,1.54-3.54,1.909-4.7.825s-.944-3.21.491-4.75,3.539-1.909,4.7-.825S-2420.011,1338.691-2421.445,1340.23Z" transform="translate(2429.11 -1330.18)"/><path class="c" d="M-2428.845,1332.673c1.524-1.636,1.757-3.9.521-5.047s-3.473-.759-5,.877-1.757,3.9-.521,5.047,3.473.759,5-.877m-.079-.074c-1.47,1.578-3.628,1.957-4.821.846s-.967-3.29.5-4.868,3.628-1.957,4.82-.846S-2427.454,1331.021-2428.924,1332.6Z" transform="translate(2436.642 -1322.5)"/><path class="c" d="M-2436.321,1325.048c1.56-1.674,1.8-3.987.533-5.165s-3.555-.777-5.115.9-1.8,3.987-.533,5.165,3.555.777,5.115-.9m-.079-.073c-1.506,1.616-3.717,2-4.938.866s-.991-3.37.515-4.987,3.717-2,4.938-.867S-2434.894,1323.358-2436.4,1324.975Z" transform="translate(2444.17 -1314.826)"/><path class="c" d="M-2443.8,1317.419c1.6-1.713,1.84-4.078.546-5.284s-3.637-.794-5.232.918-1.84,4.078-.546,5.284,3.637.794,5.232-.918m-.079-.074c-1.542,1.655-3.805,2.052-5.056.887s-1.015-3.451.527-5.106,3.805-2.052,5.056-.887S-2442.334,1315.691-2443.875,1317.346Z" transform="translate(2451.699 -1307.148)"/><path class="c" d="M-2451.277,1309.788c1.631-1.751,1.881-4.17.558-5.4s-3.719-.812-5.35.939-1.881,4.17-.558,5.4,3.718.812,5.349-.939m-.079-.074c-1.578,1.693-3.894,2.1-5.173.908s-1.038-3.531.54-5.225,3.894-2.1,5.173-.908S-2449.779,1308.021-2451.356,1309.715Z" transform="translate(2459.232 -1299.468)"/><path class="c" d="M-2458.749,1302.166c1.667-1.79,1.922-4.262.57-5.521s-3.8-.83-5.467.959-1.922,4.262-.57,5.521,3.8.83,5.467-.959m-.079-.074c-1.613,1.732-3.982,2.148-5.291.928s-1.062-3.611.552-5.343,3.982-2.148,5.291-.928S-2457.215,1300.36-2458.828,1302.092Z" transform="translate(2466.756 -1291.796)"/><path class="c" d="M-2466.228,1294.534c1.7-1.828,1.963-4.353.582-5.64s-3.882-.848-5.585.98-1.964,4.353-.582,5.64,3.882.848,5.585-.98m-.079-.074c-1.649,1.771-4.071,2.2-5.408.949s-1.085-3.692.564-5.462,4.071-2.2,5.409-.949S-2464.658,1292.69-2466.307,1294.461Z" transform="translate(2474.288 -1284.116)"/><path class="c" d="M-2473.71,1286.907c1.739-1.866,2.005-4.445.595-5.759s-3.964-.866-5.7,1-2,4.445-.595,5.759,3.964.866,5.7-1m-.079-.073c-1.685,1.809-4.159,2.243-5.526.97s-1.109-3.772.576-5.581,4.159-2.243,5.526-.97S-2472.1,1285.025-2473.789,1286.834Z" transform="translate(2481.823 -1276.44)"/><path class="c" d="M-2481.182,1279.28c1.775-1.905,2.046-4.537.607-5.877s-4.045-.884-5.82,1.021-2.046,4.537-.607,5.878,4.045.884,5.82-1.021m-.079-.074c-1.721,1.848-4.248,2.291-5.644.99s-1.133-3.852.589-5.7,4.248-2.291,5.643-.99S-2479.54,1277.359-2481.261,1279.206Z" transform="translate(2489.347 -1268.764)"/><path class="c" d="M-2488.659,1271.651c1.811-1.944,2.088-4.628.619-6s-4.127-.9-5.937,1.042-2.088,4.628-.619,6,4.127.9,5.938-1.042m-.079-.073c-1.757,1.886-4.336,2.338-5.761,1.011s-1.156-3.933.6-5.818,4.336-2.339,5.761-1.011S-2486.982,1269.692-2488.739,1271.578Z" transform="translate(2496.877 -1261.086)"/><path class="c" d="M-2496.137,1264.023c1.846-1.982,2.129-4.72.632-6.115s-4.209-.919-6.055,1.063-2.129,4.72-.632,6.115,4.208.919,6.055-1.063m-.079-.074c-1.793,1.924-4.425,2.386-5.879,1.032s-1.18-4.013.613-5.937,4.425-2.386,5.879-1.032S-2494.423,1262.025-2496.216,1263.949Z" transform="translate(2504.407 -1253.408)"/><path class="c" d="M-2503.614,1256.4c1.883-2.021,2.17-4.812.644-6.234s-4.29-.937-6.173,1.083-2.17,4.812-.644,6.234,4.291.937,6.173-1.083m-.079-.074c-1.829,1.963-4.513,2.434-6,1.052s-1.2-4.093.625-6.056,4.513-2.434,6-1.052S-2501.864,1254.361-2503.693,1256.324Z" transform="translate(2511.937 -1245.734)"/><path class="c" d="M-2511.092,1248.765c1.918-2.059,2.212-4.9.656-6.353s-4.372-.955-6.29,1.1-2.212,4.9-.656,6.353,4.372.955,6.291-1.1m-.079-.074c-1.864,2-4.6,2.482-6.114,1.073s-1.227-4.173.638-6.175,4.6-2.482,6.114-1.073S-2509.307,1246.69-2511.172,1248.692Z" transform="translate(2519.469 -1238.052)"/><path class="c" d="M-2518.564,1241.138c1.954-2.1,2.253-4.995.668-6.471s-4.454-.973-6.408,1.125-2.253,4.995-.668,6.471,4.454.973,6.408-1.125m-.079-.073c-1.9,2.04-4.69,2.53-6.231,1.094s-1.25-4.253.65-6.293,4.69-2.529,6.231-1.094S-2516.743,1239.025-2518.643,1241.064Z" transform="translate(2526.993 -1230.376)"/><path class="c" d="M-2526.045,1233.513c1.99-2.136,2.295-5.086.681-6.59s-4.536-.991-6.526,1.145-2.295,5.087-.681,6.59,4.536.991,6.525-1.145m-.079-.074c-1.936,2.078-4.779,2.577-6.349,1.114s-1.274-4.334.662-6.412,4.779-2.577,6.349-1.114S-2524.188,1231.361-2526.124,1233.439Z" transform="translate(2534.527 -1222.702)"/><path class="c" d="M-2533.526,1225.884c2.026-2.175,2.336-5.178.693-6.709s-4.617-1.009-6.643,1.166-2.336,5.178-.693,6.709,4.618,1.009,6.643-1.166m-.079-.074c-1.972,2.117-4.867,2.625-6.467,1.135s-1.3-4.414.674-6.531,4.867-2.625,6.467-1.135S-2531.633,1223.694-2533.6,1225.811Z" transform="translate(2542.06 -1215.025)"/><path class="c" d="M-2541,1218.257c2.062-2.213,2.377-5.27.705-6.828s-4.7-1.026-6.761,1.186-2.377,5.27-.7,6.828,4.7,1.027,6.76-1.186m-.079-.073c-2.008,2.155-4.956,2.672-6.584,1.155s-1.321-4.494.687-6.65,4.956-2.672,6.584-1.155S-2539.067,1216.028-2541.075,1218.184Z" transform="translate(2549.583 -1207.348)"/><path class="c" d="M-2548.475,1210.632c2.1-2.252,2.418-5.362.717-6.946s-4.781-1.044-6.878,1.207-2.419,5.361-.717,6.946,4.781,1.044,6.878-1.207m-.079-.074c-2.043,2.194-5.044,2.72-6.7,1.176s-1.345-4.574.7-6.768,5.044-2.72,6.7-1.176S-2546.51,1208.364-2548.554,1210.558Z" transform="translate(2557.115 -1199.674)"/><path class="c" d="M-2555.949,1203c2.134-2.29,2.46-5.453.73-7.065s-4.863-1.062-7,1.228-2.46,5.453-.73,7.065,4.863,1.063,7-1.228m-.079-.074c-2.08,2.232-5.133,2.768-6.819,1.2s-1.368-4.655.711-6.887,5.133-2.768,6.819-1.2S-2553.948,1200.7-2556.028,1202.929Z" transform="translate(2564.641 -1191.995)"/><path class="c" d="M-2563.43,1195.374c2.169-2.328,2.5-5.545.741-7.184s-4.944-1.08-7.113,1.248-2.5,5.545-.742,7.184,4.945,1.08,7.114-1.248m-.079-.073c-2.115,2.271-5.221,2.816-6.937,1.217s-1.392-4.735.723-7.006,5.221-2.816,6.937-1.218S-2561.393,1193.03-2563.509,1195.3Z" transform="translate(2572.174 -1184.319)"/><path class="c" d="M-2570.909,1187.749c2.2-2.367,2.542-5.636.754-7.3s-5.026-1.1-7.231,1.269-2.543,5.636-.754,7.3,5.026,1.1,7.231-1.269m-.079-.073c-2.151,2.309-5.31,2.864-7.055,1.238s-1.416-4.815.736-7.124,5.309-2.863,7.054-1.238S-2568.836,1185.366-2570.988,1187.675Z" transform="translate(2579.706 -1176.644)"/><path class="c" d="M-2578.38,1180.119c2.241-2.405,2.583-5.728.766-7.421s-5.108-1.116-7.348,1.289-2.584,5.728-.766,7.421,5.107,1.116,7.349-1.29m-.079-.073c-2.187,2.348-5.4,2.911-7.172,1.259s-1.439-4.9.748-7.243,5.4-2.911,7.172-1.259S-2576.272,1177.7-2578.459,1180.046Z" transform="translate(2587.23 -1168.965)"/><path class="c" d="M-2585.861,1172.49c2.277-2.444,2.625-5.82.779-7.54s-5.189-1.134-7.466,1.31-2.625,5.82-.779,7.54,5.189,1.134,7.466-1.31m-.079-.073c-2.223,2.386-5.487,2.959-7.29,1.279s-1.463-4.975.76-7.362,5.487-2.959,7.29-1.279S-2583.716,1170.03-2585.939,1172.416Z" transform="translate(2594.763 -1161.286)"/><path class="c" d="M-2593.336,1164.86c2.313-2.483,2.666-5.911.791-7.659s-5.271-1.151-7.583,1.331-2.667,5.911-.791,7.659,5.271,1.152,7.583-1.331m-.079-.074c-2.259,2.425-5.575,3.007-7.407,1.3s-1.487-5.056.772-7.481,5.575-3.007,7.407-1.3S-2591.156,1162.362-2593.415,1164.787Z" transform="translate(2602.291 -1153.608)"/><path class="c" d="M-2600.813,1157.234c2.348-2.521,2.708-6,.8-7.777s-5.353-1.169-7.7,1.351-2.708,6-.8,7.778,5.353,1.169,7.7-1.351m-.079-.074c-2.294,2.463-5.664,3.054-7.525,1.321s-1.51-5.136.784-7.6,5.664-3.054,7.525-1.321S-2598.6,1154.7-2600.892,1157.161Z" transform="translate(2609.821 -1145.933)"/><path class="c" d="M-2608.292,1149.607c2.384-2.559,2.75-6.095.815-7.9s-5.435-1.187-7.819,1.372-2.749,6.095-.815,7.9,5.435,1.187,7.819-1.372m-.079-.074c-2.33,2.5-5.752,3.1-7.642,1.341s-1.534-5.217.8-7.718,5.752-3.1,7.642-1.341S-2606.04,1147.031-2608.371,1149.533Z" transform="translate(2617.352 -1138.256)"/><path class="c" d="M-2615.764,1141.978c2.42-2.6,2.791-6.186.828-8.015s-5.516-1.205-7.937,1.393-2.79,6.186-.827,8.015,5.516,1.205,7.936-1.393m-.079-.073c-2.367,2.54-5.841,3.15-7.76,1.362s-1.557-5.3.81-7.837,5.84-3.15,7.76-1.362S-2613.476,1139.364-2615.842,1141.9Z" transform="translate(2624.877 -1130.578)"/><path class="c" d="M-2623.246,1134.352c2.456-2.636,2.833-6.278.84-8.134s-5.6-1.223-8.054,1.413-2.833,6.278-.84,8.134,5.6,1.223,8.054-1.413m-.079-.074c-2.4,2.579-5.929,3.2-7.877,1.383s-1.581-5.377.821-7.956,5.929-3.2,7.877-1.382S-2620.922,1131.7-2623.325,1134.278Z" transform="translate(2632.412 -1122.904)"/><path class="c" d="M-2630.724,1126.724c2.492-2.675,2.873-6.37.852-8.252s-5.68-1.241-8.172,1.434-2.873,6.37-.852,8.252,5.68,1.241,8.171-1.434m-.079-.073c-2.438,2.617-6.017,3.245-8,1.4s-1.6-5.457.834-8.074,6.018-3.245,8-1.4S-2628.365,1124.033-2630.8,1126.65Z" transform="translate(2639.943 -1115.227)"/><path class="c" d="M-2638.2,1119.093c2.528-2.713,2.915-6.461.864-8.371s-5.761-1.259-8.289,1.455-2.915,6.461-.864,8.371,5.761,1.259,8.289-1.455m-.079-.074c-2.474,2.656-6.106,3.293-8.113,1.424s-1.628-5.537.846-8.193,6.106-3.293,8.113-1.424S-2635.8,1116.364-2638.277,1119.02Z" transform="translate(2647.469 -1107.547)"/><path class="c" d="M-2645.674,1111.469c2.564-2.752,2.956-6.553.877-8.49s-5.844-1.277-8.406,1.475-2.956,6.553-.877,8.49,5.843,1.277,8.406-1.475m-.079-.073c-2.51,2.694-6.195,3.341-8.23,1.444s-1.652-5.618.858-8.312,6.195-3.341,8.23-1.444S-2643.243,1108.7-2645.753,1111.4Z" transform="translate(2654.998 -1099.873)"/><path class="c" d="M-2653.151,1103.836c2.6-2.79,3-6.645.889-8.609s-5.925-1.294-8.524,1.5-3,6.645-.889,8.609,5.925,1.294,8.524-1.5m-.079-.073c-2.545,2.732-6.283,3.388-8.348,1.465s-1.675-5.7.87-8.43,6.283-3.389,8.348-1.465S-2650.684,1101.03-2653.229,1103.763Z" transform="translate(2662.527 -1092.192)"/><path class="c" d="M-2660.628,1096.214c2.635-2.829,3.039-6.736.9-8.727s-6.007-1.312-8.642,1.516-3.039,6.736-.9,8.727,6.007,1.313,8.642-1.516m-.079-.073c-2.581,2.771-6.371,3.436-8.465,1.486s-1.7-5.778.883-8.549,6.372-3.436,8.465-1.486S-2658.126,1093.369-2660.708,1096.141Z" transform="translate(2670.058 -1084.521)"/><path class="c" d="M-2668.107,1088.582c2.671-2.867,3.081-6.828.914-8.846s-6.088-1.33-8.759,1.537-3.08,6.828-.914,8.846,6.088,1.33,8.759-1.537m-.078-.074c-2.618,2.81-6.46,3.484-8.583,1.506s-1.722-5.859.9-8.668,6.46-3.484,8.583-1.506S-2665.569,1085.7-2668.186,1088.508Z" transform="translate(2677.589 -1076.839)"/><path class="c" d="M-2675.58,1080.96c2.707-2.906,3.122-6.919.926-8.965s-6.17-1.348-8.877,1.558-3.122,6.919-.926,8.965,6.17,1.348,8.877-1.558m-.079-.074c-2.653,2.848-6.549,3.532-8.7,1.527s-1.746-5.939.907-8.787,6.548-3.532,8.7-1.527S-2673.006,1078.038-2675.659,1080.886Z" transform="translate(2685.115 -1069.168)"/><path class="c" d="M-2683.059,1073.327c2.743-2.944,3.163-7.011.938-9.084s-6.252-1.366-8.994,1.578-3.163,7.011-.938,9.084,6.252,1.366,8.994-1.578m-.079-.073c-2.689,2.886-6.637,3.579-8.818,1.547s-1.769-6.019.92-8.906,6.637-3.579,8.818-1.547S-2680.449,1070.367-2683.138,1073.254Z" transform="translate(2692.646 -1061.486)"/><path class="c" d="M-2690.536,1065.706c2.779-2.983,3.2-7.1.95-9.2s-6.333-1.384-9.112,1.6-3.2,7.1-.95,9.2,6.333,1.384,9.112-1.6m-.079-.074c-2.725,2.925-6.725,3.627-8.936,1.568s-1.793-6.1.932-9.024,6.726-3.627,8.936-1.568S-2687.89,1062.707-2690.615,1065.632Z" transform="translate(2700.176 -1053.816)"/><path class="c" d="M-2698.011,1058.072c2.815-3.021,3.246-7.195.963-9.321s-6.415-1.4-9.229,1.62-3.246,7.195-.963,9.321,6.416,1.4,9.23-1.62m-.079-.074c-2.761,2.964-6.814,3.675-9.053,1.589s-1.817-6.179.944-9.143,6.814-3.675,9.053-1.589S-2695.33,1055.035-2698.09,1058Z" transform="translate(2707.704 -1046.133)"/><path class="c" d="M-2705.491,1050.44c2.851-3.06,3.287-7.286.975-9.44s-6.5-1.419-9.347,1.641-3.287,7.286-.975,9.44,6.5,1.419,9.347-1.64m-.079-.074c-2.8,3-6.9,3.723-9.171,1.609s-1.84-6.26.956-9.262,6.9-3.723,9.171-1.609S-2702.774,1047.365-2705.57,1050.366Z" transform="translate(2715.236 -1038.452)"/><path class="c" d="M-2712.963,1042.818c2.886-3.1,3.328-7.378.987-9.559s-6.579-1.437-9.465,1.661-3.328,7.378-.987,9.559,6.578,1.437,9.465-1.661m-.079-.073c-2.833,3.04-6.991,3.77-9.289,1.63s-1.864-6.34.969-9.381,6.99-3.77,9.288-1.63S-2710.21,1039.7-2713.042,1042.745Z" transform="translate(2722.761 -1030.781)"/><path class="c" d="M-2720.445,1035.186c2.922-3.137,3.369-7.469,1-9.677s-6.66-1.455-9.582,1.682-3.369,7.469-1,9.677,6.661,1.455,9.583-1.682m-.079-.074c-2.868,3.079-7.08,3.818-9.406,1.651s-1.887-6.42.981-9.5,7.079-3.818,9.406-1.651S-2717.656,1032.034-2720.524,1035.112Z" transform="translate(2730.296 -1023.1)"/><path class="c" d="M-2727.918,1027.563c2.958-3.175,3.411-7.561,1.012-9.8s-6.742-1.473-9.7,1.7-3.411,7.561-1.012,9.8,6.742,1.473,9.7-1.7m-.079-.073c-2.9,3.117-7.168,3.866-9.524,1.671s-1.911-6.5.993-9.618,7.168-3.866,9.524-1.671S-2725.093,1024.372-2728,1027.49Z" transform="translate(2737.821 -1015.428)"/><path class="c" d="M-2735.4,1019.93c2.994-3.214,3.452-7.653,1.024-9.915s-6.824-1.491-9.818,1.723-3.452,7.653-1.023,9.915,6.824,1.491,9.817-1.723m-.079-.074c-2.94,3.156-7.257,3.914-9.641,1.692s-1.935-6.581,1.005-9.737,7.257-3.914,9.641-1.692S-2732.536,1016.7-2735.476,1019.857Z" transform="translate(2745.353 -1007.746)"/><path class="c" d="M-2742.876,1012.31c3.03-3.252,3.493-7.744,1.036-10.034s-6.906-1.509-9.935,1.744-3.494,7.744-1.036,10.034,6.906,1.509,9.935-1.744m-.079-.073c-2.976,3.194-7.345,3.961-9.759,1.713s-1.958-6.661,1.017-9.855,7.345-3.961,9.759-1.713S-2739.98,1009.042-2742.956,1012.236Z" transform="translate(2752.885 -1000.077)"/><path class="c" d="M-2750.35,1004.677c3.065-3.291,3.535-7.836,1.049-10.152s-6.988-1.526-10.053,1.764-3.535,7.836-1.048,10.152,6.987,1.526,10.053-1.764m-.079-.074c-3.012,3.233-7.434,4.009-9.876,1.733s-1.982-6.741,1.03-9.974,7.433-4.009,9.876-1.733S-2747.417,1001.37-2750.429,1004.6Z" transform="translate(2760.411 -992.394)"/><path class="c" d="M-2757.828,997.053c3.1-3.329,3.576-7.928,1.06-10.271s-7.069-1.544-10.17,1.785-3.576,7.928-1.061,10.271,7.069,1.544,10.17-1.785m-.079-.074c-3.047,3.271-7.522,4.057-9.994,1.754s-2.005-6.821,1.042-10.093,7.522-4.057,9.994-1.754S-2754.859,993.708-2757.907,996.979Z" transform="translate(2767.942 -984.721)"/><path class="c" d="M-2765.306,989.422c3.137-3.368,3.617-8.019,1.073-10.39s-7.151-1.562-10.288,1.806-3.617,8.019-1.073,10.39,7.151,1.562,10.288-1.805m-.079-.074c-3.083,3.31-7.611,4.1-10.112,1.775s-2.029-6.9,1.054-10.212,7.61-4.1,10.111-1.775S-2762.3,986.039-2765.385,989.349Z" transform="translate(2775.472 -977.042)"/><path class="c" d="M-2772.779,981.793c3.173-3.406,3.659-8.111,1.085-10.509s-7.232-1.58-10.406,1.826-3.659,8.111-1.085,10.509,7.232,1.58,10.406-1.826m-.079-.074c-3.119,3.348-7.7,4.152-10.229,1.8s-2.052-6.982,1.067-10.33,7.7-4.152,10.229-1.8S-2769.739,978.371-2772.858,981.72Z" transform="translate(2782.998 -969.364)"/><path class="c" d="M-2780.262,974.169c3.209-3.445,3.7-8.2,1.1-10.627s-7.314-1.6-10.523,1.847-3.7,8.2-1.1,10.627,7.314,1.6,10.523-1.847m-.079-.074c-3.155,3.387-7.787,4.2-10.347,1.816s-2.076-7.062,1.079-10.449,7.787-4.2,10.347-1.816S-2777.186,970.708-2780.341,974.095Z" transform="translate(2790.534 -961.69)"/><path class="c" d="M-2787.735,966.538c3.245-3.483,3.742-8.294,1.11-10.746s-7.4-1.616-10.641,1.867-3.742,8.294-1.109,10.746,7.4,1.616,10.64-1.867m-.079-.073c-3.191,3.425-7.876,4.248-10.464,1.836s-2.1-7.143,1.091-10.568,7.876-4.247,10.464-1.836S-2784.623,963.039-2787.814,966.464Z" transform="translate(2798.059 -954.01)"/><path class="c" d="M-2795.212,958.911c3.28-3.522,3.783-8.386,1.122-10.865s-7.478-1.634-10.758,1.888-3.783,8.386-1.122,10.865,7.478,1.634,10.758-1.888m-.079-.074c-3.227,3.464-7.964,4.3-10.582,1.857s-2.123-7.223,1.1-10.687,7.964-4.3,10.582-1.857S-2792.064,955.374-2795.291,958.838Z" transform="translate(2805.589 -946.335)"/><path class="c" d="M-2802.688,951.281c3.316-3.56,3.824-8.477,1.134-10.983s-7.559-1.651-10.875,1.909-3.825,8.477-1.134,10.984,7.559,1.651,10.876-1.909m-.079-.073c-3.262,3.5-8.052,4.343-10.7,1.878s-2.147-7.3,1.116-10.805,8.053-4.343,10.7-1.878S-2799.5,947.705-2802.768,951.208Z" transform="translate(2813.118 -938.656)"/><path class="c" d="M-2810.166,943.657c3.352-3.6,3.865-8.569,1.146-11.1s-7.641-1.669-10.993,1.929-3.866,8.569-1.147,11.1,7.641,1.669,10.994-1.929m-.079-.074c-3.3,3.541-8.141,4.391-10.817,1.9s-2.171-7.383,1.128-10.924,8.141-4.391,10.817-1.9S-2806.946,940.043-2810.245,943.583Z" transform="translate(2820.648 -930.982)"/><path class="c" d="M-2817.644,936.028c3.388-3.637,3.907-8.661,1.158-11.221s-7.723-1.687-11.111,1.95-3.906,8.661-1.158,11.221,7.723,1.687,11.111-1.95m-.079-.073c-3.334,3.579-8.23,4.438-10.934,1.919s-2.194-7.464,1.14-11.043,8.23-4.438,10.935-1.919S-2814.389,932.375-2817.723,935.954Z" transform="translate(2828.179 -923.304)"/><path class="c" d="M-2825.118,928.4c3.424-3.676,3.948-8.753,1.171-11.34s-7.8-1.705-11.229,1.97-3.948,8.753-1.171,11.34,7.8,1.705,11.229-1.97m-.079-.074c-3.371,3.618-8.319,4.486-11.052,1.94s-2.218-7.544,1.152-11.162,8.319-4.486,11.052-1.939S-2821.827,924.707-2825.2,928.324Z" transform="translate(2835.706 -915.625)"/><path class="c" d="M-2832.6,920.773c3.46-3.714,3.99-8.844,1.183-11.458s-7.886-1.723-11.346,1.991-3.989,8.844-1.183,11.458,7.886,1.723,11.346-1.991m-.079-.073c-3.406,3.656-8.407,4.534-11.17,1.96s-2.241-7.624,1.165-11.28,8.407-4.534,11.17-1.96S-2829.268,917.043-2832.674,920.7Z" transform="translate(2843.236 -907.951)"/><path class="c" d="M-2840.077,913.142c3.5-3.753,4.031-8.936,1.2-11.577s-7.968-1.741-11.464,2.012-4.031,8.936-1.2,11.577,7.968,1.741,11.463-2.012m-.079-.074c-3.442,3.695-8.5,4.582-11.287,1.981s-2.265-7.7,1.177-11.4,8.5-4.582,11.287-1.981S-2836.713,909.374-2840.155,913.068Z" transform="translate(2850.769 -900.271)"/><path class="c" d="M-2847.552,905.516c3.531-3.791,4.072-9.027,1.208-11.7s-8.05-1.759-11.581,2.033-4.072,9.027-1.208,11.7,8.05,1.759,11.581-2.033m-.079-.074c-3.478,3.733-8.584,4.629-11.405,2s-2.288-7.785,1.189-11.518,8.584-4.629,11.4-2S-2844.153,901.709-2847.63,905.442Z" transform="translate(2858.297 -892.596)"/><path class="c" d="M-2855.03,897.888c3.567-3.829,4.114-9.119,1.22-11.815s-8.132-1.776-11.7,2.053-4.114,9.119-1.22,11.815,8.131,1.776,11.7-2.053m-.079-.074c-3.514,3.772-8.672,4.677-11.522,2.022s-2.312-7.865,1.2-11.637,8.673-4.677,11.522-2.022S-2851.6,894.042-2855.109,897.814Z" transform="translate(2865.828 -884.919)"/><path class="c" d="M-2862.507,890.262c3.6-3.868,4.155-9.211,1.232-11.933s-8.213-1.794-11.816,2.074-4.155,9.211-1.232,11.933,8.213,1.794,11.816-2.074m-.079-.073c-3.549,3.81-8.761,4.725-11.64,2.043s-2.335-7.945,1.214-11.755,8.761-4.725,11.64-2.043S-2859.036,886.378-2862.586,890.189Z" transform="translate(2873.358 -877.244)"/><path class="c" d="M-2869.982,882.634c3.639-3.906,4.2-9.3,1.245-12.052s-8.295-1.812-11.934,2.094-4.2,9.3-1.244,12.052,8.294,1.812,11.933-2.094m-.079-.073c-3.585,3.849-8.85,4.772-11.758,2.063s-2.359-8.025,1.227-11.874,8.849-4.772,11.757-2.063S-2866.476,878.711-2870.061,882.56Z" transform="translate(2880.886 -869.566)"/><path class="c" d="M-2877.459,875.006c3.675-3.945,4.238-9.394,1.257-12.171s-8.376-1.83-12.051,2.115-4.238,9.394-1.257,12.171,8.376,1.83,12.051-2.115m-.079-.074c-3.622,3.887-8.938,4.82-11.875,2.084s-2.383-8.106,1.238-11.993,8.938-4.82,11.875-2.084S-2873.917,871.045-2877.538,874.932Z" transform="translate(2888.415 -861.89)"/><path class="c" d="M-2884.935,867.38c3.711-3.983,4.279-9.486,1.269-12.29s-8.459-1.848-12.169,2.136-4.279,9.486-1.269,12.29,8.458,1.848,12.169-2.135m-.079-.074c-3.657,3.926-9.027,4.868-11.993,2.1s-2.406-8.186,1.251-12.112,9.026-4.868,11.992-2.1S-2881.357,863.381-2885.014,867.307Z" transform="translate(2895.944 -854.215)"/><path class="c" d="M-2892.412,859.746c3.747-4.022,4.32-9.577,1.281-12.408s-8.54-1.866-12.286,2.156-4.321,9.577-1.281,12.409,8.54,1.866,12.287-2.156m-.079-.074c-3.693,3.964-9.115,4.916-12.11,2.125s-2.43-8.266,1.263-12.23,9.115-4.916,12.11-2.125S-2888.8,855.708-2892.491,859.672Z" transform="translate(2903.474 -846.531)"/><path class="c" d="M-2899.894,852.123c3.783-4.06,4.362-9.669,1.293-12.527s-8.622-1.884-12.4,2.177-4.362,9.669-1.293,12.527,8.621,1.884,12.4-2.177m-.079-.073c-3.729,4-9.2,4.963-12.228,2.146s-2.453-8.346,1.275-12.349,9.2-4.963,12.228-2.146S-2896.244,848.047-2899.973,852.049Z" transform="translate(2911.008 -838.86)"/><path class="c" d="M-2907.367,844.492c3.818-4.1,4.4-9.761,1.306-12.646s-8.7-1.9-12.522,2.2-4.4,9.761-1.306,12.646,8.7,1.9,12.522-2.2m-.079-.074c-3.765,4.041-9.292,5.011-12.345,2.167s-2.478-8.427,1.287-12.468,9.292-5.011,12.346-2.166S-2903.682,840.377-2907.446,844.419Z" transform="translate(2918.534 -831.18)"/><path class="c" d="M-2914.842,836.866c3.854-4.137,4.444-9.852,1.318-12.765s-8.785-1.919-12.639,2.218-4.445,9.852-1.318,12.765,8.785,1.919,12.639-2.218m-.079-.074c-3.8,4.08-9.381,5.059-12.463,2.187s-2.5-8.507,1.3-12.587,9.38-5.059,12.463-2.187S-2911.121,832.712-2914.921,836.792Z" transform="translate(2926.062 -823.504)"/><path class="c" d="M-2922.318,829.238c3.89-4.176,4.486-9.944,1.33-12.883s-8.867-1.937-12.757,2.239-4.486,9.944-1.33,12.883,8.867,1.937,12.757-2.239m-.079-.074c-3.836,4.118-9.469,5.107-12.58,2.208s-2.525-8.587,1.312-12.705,9.469-5.107,12.58-2.208S-2918.561,825.047-2922.4,829.165Z" transform="translate(2933.591 -815.828)"/><path class="c" d="M-2929.8,821.61c3.926-4.214,4.527-10.036,1.343-13s-8.949-1.955-12.875,2.259-4.527,10.036-1.342,13,8.948,1.955,12.874-2.259m-.079-.074c-3.873,4.157-9.557,5.154-12.7,2.228s-2.547-8.667,1.325-12.824,9.558-5.154,12.7-2.228S-2926.006,817.38-2929.878,821.537Z" transform="translate(2941.124 -808.151)"/><path class="c" d="M-2937.277,813.98c3.962-4.253,4.569-10.127,1.355-13.121s-9.03-1.973-12.992,2.28-4.569,10.127-1.355,13.121,9.031,1.973,12.992-2.28m-.079-.074c-3.908,4.2-9.646,5.2-12.816,2.249s-2.572-8.748,1.336-12.943,9.646-5.2,12.816-2.249S-2933.448,809.712-2937.356,813.907Z" transform="translate(2948.655 -800.472)"/><path class="c" d="M-2944.75,806.351c4-4.291,4.609-10.219,1.367-13.24s-9.112-1.991-13.109,2.3-4.61,10.219-1.368,13.24,9.112,1.991,13.11-2.3m-.079-.073c-3.944,4.234-9.734,5.25-12.933,2.27s-2.6-8.828,1.348-13.061,9.734-5.25,12.933-2.27S-2940.885,802.044-2944.829,806.278Z" transform="translate(2956.18 -792.794)"/><path class="c" d="M-2952.228,798.727c4.033-4.33,4.651-10.311,1.379-13.359s-9.194-2.008-13.227,2.321-4.651,10.311-1.379,13.358,9.194,2.009,13.227-2.321m-.079-.074c-3.979,4.272-9.823,5.3-13.051,2.29s-2.619-8.908,1.361-13.18,9.823-5.3,13.051-2.29S-2948.327,794.381-2952.307,798.653Z" transform="translate(2963.71 -785.12)"/><path class="c" d="M-2959.7,791.1c4.069-4.368,4.692-10.4,1.392-13.477s-9.276-2.026-13.345,2.342-4.693,10.4-1.392,13.477,9.276,2.026,13.345-2.342m-.079-.074c-4.015,4.311-9.911,5.345-13.168,2.311s-2.643-8.988,1.373-13.3,9.911-5.345,13.168-2.311S-2955.768,786.712-2959.784,791.022Z" transform="translate(2971.24 -777.44)"/><path class="c" d="M-2967.182,783.473c4.105-4.407,4.734-10.494,1.4-13.6s-9.357-2.044-13.462,2.363-4.734,10.494-1.4,13.6,9.357,2.044,13.462-2.362m-.079-.074c-4.052,4.349-10,5.393-13.286,2.331s-2.666-9.069,1.385-13.418,10-5.393,13.286-2.331S-2963.21,779.05-2967.261,783.4Z" transform="translate(2978.77 -769.768)"/><path class="c" d="M-2974.659,775.842c4.141-4.445,4.775-10.585,1.416-13.715s-9.439-2.062-13.58,2.383-4.775,10.585-1.416,13.715,9.439,2.062,13.58-2.383m-.079-.074c-4.087,4.388-10.088,5.441-13.4,2.352s-2.69-9.149,1.4-13.536,10.088-5.441,13.4-2.352S-2970.651,771.381-2974.738,775.769Z" transform="translate(2986.3 -762.088)"/><path class="c" d="M-2982.133,768.217c4.177-4.484,4.816-10.677,1.428-13.833s-9.521-2.08-13.7,2.4-4.816,10.677-1.428,13.833,9.521,2.08,13.7-2.4m-.079-.074c-4.123,4.426-10.177,5.488-13.521,2.373s-2.713-9.229,1.41-13.655,10.177-5.488,13.521-2.373S-2978.089,763.718-2982.212,768.144Z" transform="translate(2993.826 -754.414)"/><path class="c" d="M-2989.614,760.586c4.213-4.522,4.858-10.769,1.441-13.952s-9.6-2.1-13.815,2.424-4.858,10.769-1.441,13.952,9.6,2.1,13.815-2.424m-.079-.074c-4.159,4.465-10.265,5.536-13.639,2.393s-2.737-9.309,1.423-13.774,10.265-5.536,13.639-2.394S-2985.534,756.048-2989.693,760.512Z" transform="translate(3001.36 -746.734)"/><path class="c" d="M-2997.093,752.963c4.249-4.561,4.9-10.86,1.453-14.071s-9.684-2.116-13.933,2.445-4.9,10.86-1.453,14.071,9.684,2.116,13.933-2.445m-.079-.074c-4.194,4.5-10.353,5.584-13.756,2.414s-2.76-9.39,1.434-13.893,10.354-5.584,13.756-2.414S-2992.977,748.386-2997.172,752.889Z" transform="translate(3008.892 -739.062)"/><path class="c" d="M-3004.568,745.332c4.285-4.6,4.941-10.952,1.465-14.19s-9.766-2.133-14.051,2.466-4.94,10.952-1.465,14.19,9.766,2.133,14.05-2.466m-.079-.074c-4.231,4.541-10.442,5.631-13.874,2.435s-2.784-9.47,1.447-14.011,10.442-5.631,13.874-2.435S-3000.416,740.717-3004.646,745.258Z" transform="translate(3016.419 -731.382)"/><path class="c" d="M-3012.045,737.7c4.32-4.638,4.982-11.044,1.478-14.308s-9.848-2.151-14.168,2.486-4.982,11.044-1.477,14.308,9.848,2.151,14.168-2.486m-.079-.073c-4.266,4.58-10.53,5.679-13.991,2.455s-2.807-9.55,1.459-14.13,10.531-5.679,13.991-2.455S-3007.857,733.051-3012.124,737.631Z" transform="translate(3023.949 -723.705)"/><path class="c" d="M-3019.518,730.077c4.356-4.676,5.023-11.135,1.49-14.427s-9.929-2.169-14.285,2.507-5.023,11.135-1.49,14.427,9.929,2.169,14.285-2.507m-.079-.074c-4.3,4.619-10.619,5.727-14.109,2.476s-2.831-9.63,1.472-14.249,10.619-5.727,14.109-2.476S-3015.3,725.385-3019.6,730Z" transform="translate(3031.475 -716.029)"/><path class="c" d="M-3027,722.448c4.392-4.715,5.065-11.227,1.5-14.546s-10.011-2.187-14.4,2.528-5.064,11.227-1.5,14.546,10.011,2.187,14.4-2.528m-.079-.074c-4.338,4.657-10.707,5.775-14.226,2.5s-2.855-9.711,1.483-14.368,10.708-5.775,14.227-2.5S-3022.738,717.717-3027.076,722.375Z" transform="translate(3039.007 -708.351)"/><path class="c" d="M-3034.476,714.822c4.428-4.753,5.105-11.319,1.514-14.664s-10.093-2.2-14.521,2.548-5.106,11.319-1.514,14.664,10.093,2.205,14.521-2.548m-.079-.074c-4.374,4.7-10.8,5.823-14.344,2.517s-2.878-9.791,1.5-14.486,10.8-5.822,14.344-2.517S-3030.181,710.053-3034.555,714.748Z" transform="translate(3046.538 -700.675)"/><path class="c" d="M-3041.95,707.19c4.464-4.792,5.147-11.41,1.527-14.783s-10.175-2.223-14.638,2.569-5.147,11.41-1.526,14.783,10.175,2.223,14.638-2.569m-.079-.074c-4.41,4.734-10.885,5.87-14.462,2.538s-2.9-9.871,1.508-14.605,10.885-5.87,14.462-2.538S-3037.619,702.383-3042.029,707.117Z" transform="translate(3054.065 -692.995)"/><path class="c" d="M-3049.431,699.568c4.5-4.83,5.189-11.5,1.538-14.9s-10.256-2.241-14.756,2.59-5.188,11.5-1.538,14.9,10.256,2.241,14.756-2.59m-.079-.074c-4.446,4.772-10.973,5.918-14.579,2.559s-2.926-9.951,1.52-14.724,10.973-5.918,14.579-2.559S-3045.064,694.722-3049.51,699.494Z" transform="translate(3061.598 -685.323)"/><path class="c" d="M-3056.9,691.936c4.535-4.869,5.23-11.594,1.551-15.021s-10.338-2.259-14.873,2.61-5.23,11.594-1.552,15.021,10.338,2.258,14.874-2.61m-.079-.073c-4.482,4.811-11.062,5.966-14.7,2.579s-2.949-10.032,1.532-14.843,11.062-5.966,14.7-2.579S-3052.5,687.051-3056.982,691.862Z" transform="translate(3069.123 -677.642)"/><path class="c" d="M-3064.382,684.313c4.571-4.907,5.271-11.685,1.563-15.139s-10.42-2.276-14.991,2.631-5.271,11.685-1.563,15.139,10.42,2.276,14.991-2.631m-.079-.074c-4.517,4.849-11.15,6.013-14.814,2.6s-2.972-10.112,1.545-14.961,11.15-6.013,14.814-2.6S-3059.943,679.39-3064.461,684.239Z" transform="translate(3076.655 -669.97)"/><path class="c" d="M-3071.86,676.682c4.607-4.945,5.313-11.777,1.575-15.258s-10.5-2.294-15.108,2.651-5.312,11.777-1.575,15.258,10.5,2.294,15.108-2.651m-.079-.074c-4.553,4.888-11.239,6.061-14.932,2.62s-3-10.192,1.557-15.08,11.239-6.061,14.932-2.621S-3067.386,671.721-3071.939,676.609Z" transform="translate(3084.186 -662.29)"/><path class="c" d="M-3079.336,669.051c4.643-4.984,5.354-11.869,1.588-15.377s-10.583-2.312-15.226,2.672-5.354,11.869-1.587,15.377,10.583,2.312,15.226-2.672m-.079-.074c-4.589,4.926-11.327,6.109-15.05,2.641s-3.02-10.273,1.569-15.2,11.327-6.109,15.05-2.641S-3074.826,664.051-3079.415,668.977Z" transform="translate(3091.714 -654.61)"/><path class="c" d="M-3086.815,661.425c4.679-5.023,5.4-11.96,1.6-15.5s-10.665-2.33-15.344,2.693-5.4,11.96-1.6,15.5,10.665,2.33,15.344-2.693m-.079-.074c-4.625,4.965-11.416,6.157-15.167,2.662s-3.043-10.353,1.581-15.318,11.416-6.156,15.168-2.662S-3082.269,656.387-3086.894,661.352Z" transform="translate(3099.246 -646.936)"/><path class="c" d="M-3094.287,653.8c4.715-5.061,5.437-12.052,1.612-15.614s-10.746-2.348-15.461,2.713-5.436,12.052-1.612,15.614,10.747,2.348,15.461-2.713m-.079-.073c-4.661,5-11.5,6.2-15.285,2.682s-3.067-10.433,1.594-15.436,11.5-6.2,15.285-2.682S-3089.705,648.72-3094.366,653.724Z" transform="translate(3106.771 -639.258)"/><path class="c" d="M-3101.766,646.172c4.75-5.1,5.478-12.144,1.624-15.733s-10.829-2.365-15.579,2.734-5.478,12.143-1.625,15.733,10.828,2.365,15.579-2.734m-.079-.074c-4.7,5.042-11.592,6.252-15.4,2.7s-3.091-10.513,1.606-15.555,11.593-6.252,15.4-2.7S-3097.148,641.057-3101.845,646.1Z" transform="translate(3114.302 -631.584)"/><path class="c" d="M-3109.248,638.543c4.786-5.138,5.519-12.235,1.636-15.852s-10.91-2.383-15.7,2.755-5.519,12.235-1.637,15.852,10.91,2.384,15.7-2.755m-.079-.073c-4.733,5.08-11.681,6.3-15.52,2.724s-3.115-10.594,1.618-15.674,11.681-6.3,15.52-2.724S-3104.594,633.39-3109.327,638.47Z" transform="translate(3121.837 -623.907)"/><path class="c" d="M-3116.722,630.918c4.822-5.177,5.561-12.327,1.649-15.971s-10.992-2.4-15.814,2.775-5.561,12.327-1.649,15.971,10.992,2.4,15.814-2.775m-.079-.074c-4.769,5.119-11.77,6.348-15.638,2.744s-3.138-10.674,1.63-15.792,11.77-6.348,15.637-2.744S-3112.032,625.726-3116.8,630.844Z" transform="translate(3129.363 -616.232)"/><path class="c" d="M-3124.2,623.284c4.858-5.215,5.6-12.418,1.662-16.089s-11.074-2.419-15.932,2.8-5.6,12.418-1.662,16.089,11.074,2.419,15.932-2.8m-.079-.074c-4.8,5.157-11.858,6.4-15.755,2.765s-3.162-10.754,1.643-15.911,11.858-6.4,15.755-2.765S-3119.473,618.053-3124.277,623.21Z" transform="translate(3136.892 -608.549)"/><path class="c" d="M-3131.675,615.656c4.894-5.253,5.643-12.51,1.674-16.208s-11.155-2.437-16.049,2.817-5.643,12.51-1.673,16.208,11.155,2.437,16.049-2.817m-.079-.073c-4.84,5.2-11.947,6.443-15.873,2.786s-3.185-10.834,1.655-16.03,11.947-6.443,15.873-2.786S-3126.914,610.387-3131.754,615.582Z" transform="translate(3144.422 -600.872)"/><path class="c" d="M-3139.152,608.03c4.93-5.292,5.684-12.6,1.686-16.327s-11.237-2.455-16.167,2.837-5.684,12.6-1.685,16.327,11.237,2.455,16.167-2.837m-.079-.073c-4.876,5.234-12.035,6.491-15.991,2.806s-3.208-10.915,1.668-16.149,12.035-6.491,15.99-2.806S-3134.355,602.722-3139.231,607.956Z" transform="translate(3151.952 -593.197)"/><path class="c" d="M-3146.631,600.4c4.966-5.331,5.726-12.693,1.7-16.446s-11.318-2.473-16.284,2.858-5.726,12.694-1.7,16.446,11.318,2.473,16.284-2.858m-.079-.074c-4.912,5.273-12.124,6.538-16.108,2.827s-3.232-10.995,1.68-16.267,12.124-6.538,16.108-2.827S-3141.8,595.053-3146.71,600.326Z" transform="translate(3159.483 -585.518)"/><path class="c" d="M-3154.1,592.776c5-5.369,5.767-12.785,1.71-16.564s-11.4-2.49-16.4,2.878-5.767,12.785-1.71,16.564,11.4,2.491,16.4-2.878m-.079-.074c-4.948,5.311-12.212,6.586-16.225,2.847s-3.256-11.075,1.692-16.386,12.212-6.586,16.226-2.847S-3149.236,587.391-3154.183,592.7Z" transform="translate(3167.009 -577.845)"/><path class="c" d="M-3161.583,585.146c5.038-5.407,5.809-12.877,1.722-16.683s-11.482-2.508-16.519,2.9-5.809,12.877-1.723,16.683,11.482,2.508,16.52-2.9m-.079-.074c-4.983,5.35-12.3,6.634-16.343,2.868s-3.28-11.155,1.7-16.5,12.3-6.634,16.343-2.868S-3156.678,579.723-3161.662,585.073Z" transform="translate(3174.541 -570.166)"/><path class="c" d="M-3169.063,577.519c5.073-5.446,5.85-12.968,1.735-16.8s-11.563-2.526-16.637,2.92-5.85,12.968-1.735,16.8,11.564,2.526,16.637-2.92m-.079-.074c-5.02,5.388-12.389,6.681-16.461,2.889s-3.3-11.235,1.716-16.624,12.389-6.681,16.461-2.889S-3164.123,572.057-3169.142,577.446Z" transform="translate(3182.073 -562.49)"/><path class="c" d="M-3176.535,569.891c5.109-5.484,5.891-13.06,1.747-16.921s-11.646-2.544-16.754,2.94-5.891,13.06-1.747,16.921,11.646,2.544,16.754-2.94m-.079-.074c-5.055,5.427-12.477,6.729-16.578,2.909s-3.327-11.316,1.729-16.742,12.478-6.729,16.578-2.909S-3171.559,564.391-3176.614,569.818Z" transform="translate(3189.598 -554.813)"/><path class="c" d="M-3184.014,562.264c5.145-5.523,5.933-13.152,1.759-17.039s-11.727-2.562-16.872,2.961-5.932,13.152-1.759,17.039,11.727,2.562,16.872-2.961m-.079-.074c-5.091,5.465-12.566,6.777-16.7,2.93s-3.35-11.4,1.741-16.861,12.566-6.777,16.7-2.93S-3179,556.725-3184.093,562.191Z" transform="translate(3197.129 -547.137)"/><path class="c" d="M-3191.487,554.636c5.181-5.561,5.974-13.243,1.772-17.158s-11.809-2.58-16.99,2.982-5.974,13.243-1.771,17.158,11.809,2.58,16.99-2.981m-.079-.074c-5.127,5.5-12.654,6.825-16.813,2.951s-3.374-11.476,1.753-16.98,12.655-6.825,16.813-2.951S-3186.439,549.059-3191.566,554.563Z" transform="translate(3204.655 -539.46)"/><path class="c" d="M-3198.968,547.006c5.216-5.6,6.015-13.335,1.784-17.277s-11.891-2.6-17.108,3-6.015,13.335-1.783,17.277,11.89,2.6,17.107-3m-.08-.073c-5.163,5.542-12.742,6.872-16.931,2.971s-3.4-11.556,1.765-17.1,12.743-6.872,16.931-2.971S-3193.884,541.39-3199.048,546.932Z" transform="translate(3212.189 -531.78)"/><path class="c" d="M-3206.447,539.383c5.253-5.638,6.057-13.427,1.8-17.4s-11.973-2.616-17.225,3.023-6.057,13.427-1.8,17.4,11.972,2.615,17.224-3.023m-.078-.074c-5.2,5.581-12.832,6.92-17.049,2.992s-3.42-11.637,1.778-17.217,12.832-6.92,17.049-2.992S-3201.327,533.728-3206.525,539.309Z" transform="translate(3219.72 -524.108)"/><path class="c" d="M-3213.921,531.753c5.288-5.677,6.1-13.518,1.808-17.514s-12.054-2.633-17.343,3.044-6.1,13.518-1.808,17.514,12.054,2.633,17.343-3.044m-.079-.073c-5.235,5.619-12.92,6.968-17.166,3.012s-3.445-11.717,1.79-17.336,12.92-6.968,17.166-3.013S-3208.765,526.06-3214,531.679Z" transform="translate(3227.247 -516.429)"/><path class="c" d="M-3221.4,524.126c5.324-5.715,6.139-13.61,1.821-17.633s-12.136-2.651-17.46,3.064-6.139,13.61-1.82,17.633,12.135,2.651,17.46-3.064m-.079-.074c-5.27,5.658-13.009,7.016-17.284,3.033s-3.468-11.8,1.8-17.455,13.009-7.016,17.284-3.033S-3216.208,518.394-3221.478,524.052Z" transform="translate(3234.777 -508.753)"/><path class="c" d="M-3228.873,516.5c5.36-5.754,6.181-13.7,1.833-17.752s-12.217-2.669-17.577,3.085-6.18,13.7-1.833,17.752,12.218,2.669,17.578-3.085m-.079-.074c-5.306,5.7-13.1,7.063-17.4,3.054s-3.492-11.877,1.814-17.574,13.1-7.063,17.4-3.054S-3223.646,510.726-3228.952,516.422Z" transform="translate(3242.304 -501.074)"/><path class="c" d="M-3236.351,508.87c5.4-5.792,6.222-13.793,1.845-17.871s-12.3-2.687-17.7,3.105-6.221,13.793-1.845,17.871,12.3,2.687,17.695-3.105m-.079-.074c-5.342,5.734-13.186,7.111-17.519,3.074s-3.515-11.958,1.827-17.692,13.186-7.111,17.519-3.074S-3231.088,503.062-3236.43,508.8Z" transform="translate(3249.835 -493.399)"/><path class="c" d="M-3243.83,501.242c5.432-5.831,6.263-13.885,1.857-17.989s-12.381-2.7-17.813,3.126-6.263,13.885-1.857,17.989,12.381,2.7,17.813-3.126m-.079-.073c-5.378,5.773-13.274,7.159-17.636,3.1s-3.539-12.038,1.839-17.811,13.274-7.159,17.636-3.1S-3238.531,495.4-3243.909,501.169Z" transform="translate(3257.366 -485.723)"/><path class="c" d="M-3251.3,493.615c5.468-5.869,6.3-13.977,1.87-18.108s-12.463-2.723-17.93,3.147-6.3,13.977-1.87,18.108,12.463,2.723,17.93-3.147m-.079-.074c-5.414,5.812-13.363,7.206-17.754,3.116s-3.563-12.118,1.851-17.93,13.363-7.206,17.754-3.116S-3245.969,487.73-3251.382,493.542Z" transform="translate(3264.893 -478.046)"/><path class="c" d="M-3258.784,485.988c5.5-5.908,6.346-14.068,1.882-18.227s-12.545-2.741-18.048,3.167-6.346,14.068-1.882,18.227,12.544,2.74,18.048-3.167m-.079-.074c-5.45,5.85-13.451,7.254-17.872,3.136s-3.586-12.2,1.864-18.049,13.451-7.254,17.872-3.136S-3253.414,480.065-3258.863,485.915Z" transform="translate(3272.426 -470.37)"/><path class="c" d="M-3266.263,478.356c5.539-5.946,6.387-14.16,1.894-18.345s-12.626-2.758-18.166,3.188-6.387,14.16-1.894,18.345,12.626,2.758,18.166-3.188m-.079-.074c-5.486,5.889-13.54,7.3-17.989,3.157s-3.61-12.279,1.875-18.167,13.539-7.3,17.989-3.157S-3260.857,472.394-3266.343,478.283Z" transform="translate(3279.958 -462.689)"/><path class="c" d="M-3273.736,470.73c5.575-5.985,6.428-14.251,1.906-18.464s-12.708-2.776-18.283,3.208-6.429,14.251-1.906,18.464,12.708,2.776,18.283-3.208m-.079-.074c-5.521,5.927-13.628,7.35-18.106,3.178s-3.633-12.359,1.888-18.286,13.628-7.35,18.106-3.178S-3268.294,464.729-3273.815,470.656Z" transform="translate(3287.483 -455.014)"/><path class="c" d="M-3281.212,463.1c5.611-6.023,6.47-14.343,1.919-18.583s-12.79-2.794-18.4,3.229-6.47,14.343-1.919,18.583,12.79,2.794,18.4-3.229m-.079-.073c-5.557,5.965-13.717,7.4-18.224,3.2s-3.657-12.439,1.9-18.4,13.717-7.4,18.224-3.2S-3275.734,457.062-3281.291,463.027Z" transform="translate(3295.012 -447.336)"/><path class="c" d="M-3288.69,455.476c5.647-6.062,6.511-14.435,1.931-18.7s-12.871-2.812-18.518,3.25-6.511,14.435-1.931,18.7,12.872,2.812,18.518-3.25m-.079-.074c-5.594,6-13.805,7.445-18.342,3.219s-3.681-12.519,1.912-18.523,13.805-7.445,18.342-3.219S-3283.176,449.4-3288.769,455.4Z" transform="translate(3302.543 -439.662)"/><path class="c" d="M-3296.167,447.846c5.683-6.1,6.553-14.526,1.943-18.82s-12.953-2.83-18.636,3.27-6.553,14.526-1.943,18.82,12.953,2.83,18.636-3.27m-.079-.074c-5.629,6.042-13.894,7.493-18.46,3.239s-3.7-12.6,1.925-18.642,13.894-7.493,18.459-3.239S-3290.617,441.73-3296.246,447.772Z" transform="translate(3310.072 -431.983)"/><path class="c" d="M-3303.647,440.223c5.719-6.139,6.594-14.618,1.956-18.939s-13.035-2.848-18.753,3.291-6.594,14.618-1.956,18.939,13.035,2.848,18.753-3.291m-.079-.074c-5.665,6.081-13.982,7.541-18.577,3.26s-3.728-12.68,1.937-18.761,13.982-7.541,18.577-3.26S-3298.061,434.068-3303.726,440.149Z" transform="translate(3317.605 -424.31)"/><path class="c" d="M-3311.119,432.589c5.754-6.177,6.635-14.71,1.968-19.058s-13.116-2.866-18.871,3.312-6.635,14.71-1.968,19.058,13.117,2.866,18.871-3.312m-.079-.074c-5.7,6.12-14.071,7.588-18.695,3.281s-3.751-12.76,1.949-18.88,14.071-7.588,18.695-3.281S-3305.5,426.4-3311.2,432.515Z" transform="translate(3325.129 -416.627)"/><path class="c" d="M-3318.6,424.963c5.79-6.216,6.677-14.8,1.98-19.177s-13.2-2.883-18.989,3.332-6.677,14.8-1.98,19.177,13.2,2.883,18.989-3.332m-.079-.074c-5.736,6.158-14.159,7.636-18.812,3.3s-3.775-12.841,1.962-19,14.159-7.636,18.812-3.3S-3312.942,418.732-3318.679,424.889Z" transform="translate(3332.663 -408.953)"/><path class="c" d="M-3326.075,417.335c5.826-6.254,6.718-14.893,1.992-19.3s-13.28-2.9-19.106,3.353-6.718,14.893-1.992,19.3,13.28,2.9,19.106-3.353m-.079-.074c-5.772,6.2-14.247,7.684-18.929,3.322s-3.8-12.921,1.974-19.117,14.248-7.684,18.93-3.322S-3320.382,411.065-3326.155,417.261Z" transform="translate(3340.191 -401.276)"/><path class="c" d="M-3333.552,409.707c5.862-6.293,6.76-14.985,2-19.414s-13.362-2.919-19.224,3.373-6.76,14.985-2,19.414,13.361,2.919,19.223-3.374m-.079-.074c-5.808,6.235-14.336,7.732-19.047,3.343s-3.822-13,1.986-19.236,14.336-7.732,19.047-3.343S-3327.823,403.4-3333.631,409.633Z" transform="translate(3347.721 -393.599)"/><path class="c" d="M-3341.029,402.081c5.9-6.331,6.8-15.076,2.017-19.533s-13.443-2.937-19.341,3.394-6.8,15.076-2.017,19.533,13.443,2.937,19.341-3.394m-.079-.073c-5.844,6.273-14.424,7.779-19.165,3.363s-3.846-13.081,2-19.355,14.424-7.779,19.165-3.363S-3335.264,395.734-3341.108,402.008Z" transform="translate(3355.25 -385.924)"/><path class="c" d="M-3348.505,394.45c5.934-6.37,6.842-15.168,2.029-19.652s-13.525-2.955-19.459,3.415-6.842,15.168-2.029,19.652,13.525,2.955,19.459-3.415m-.079-.074c-5.88,6.312-14.513,7.827-19.282,3.384s-3.869-13.162,2.01-19.473,14.514-7.827,19.283-3.384S-3342.7,388.065-3348.584,394.376Z" transform="translate(3362.779 -378.243)"/><path class="c" d="M-3355.983,386.826c5.97-6.408,6.884-15.26,2.042-19.77s-13.607-2.973-19.576,3.435-6.884,15.26-2.042,19.77,13.607,2.973,19.576-3.435m-.079-.074c-5.916,6.35-14.6,7.875-19.4,3.4s-3.893-13.242,2.023-19.592,14.6-7.875,19.4-3.4S-3350.146,380.4-3356.062,386.753Z" transform="translate(3370.309 -370.57)"/><path class="c" d="M-3363.463,379.193c6.005-6.447,6.925-15.351,2.053-19.889s-13.688-2.99-19.694,3.456-6.925,15.351-2.054,19.889,13.688,2.99,19.694-3.456m-.079-.074c-5.951,6.389-14.69,7.922-19.517,3.425s-3.917-13.322,2.035-19.711,14.69-7.922,19.518-3.425S-3357.591,372.731-3363.542,379.12Z" transform="translate(3377.842 -362.889)"/><path class="c" d="M-3370.935,371.571c6.041-6.485,6.966-15.443,2.066-20.008s-13.77-3.008-19.812,3.477-6.966,15.443-2.066,20.008,13.771,3.008,19.812-3.477m-.079-.074c-5.988,6.427-14.779,7.97-19.635,3.446s-3.94-13.4,2.047-19.83,14.779-7.97,19.635-3.446S-3365.027,365.07-3371.014,371.5Z" transform="translate(3385.367 -355.217)"/><path class="c" d="M-3378.417,363.939c6.077-6.524,7.007-15.534,2.078-20.127s-13.852-3.026-19.929,3.5-7.008,15.535-2.078,20.127,13.852,3.026,19.929-3.5m-.079-.074c-6.023,6.466-14.867,8.018-19.752,3.466s-3.964-13.483,2.06-19.948,14.867-8.018,19.752-3.466S-3372.472,357.4-3378.5,363.865Z" transform="translate(3392.901 -347.536)"/><path class="c" d="M-3385.89,356.312c6.113-6.562,7.049-15.626,2.09-20.245s-13.934-3.044-20.047,3.518-7.049,15.626-2.091,20.245,13.934,3.044,20.047-3.518m-.079-.074c-6.06,6.5-14.955,8.066-19.87,3.487s-3.987-13.563,2.072-20.067,14.956-8.066,19.871-3.487S-3379.91,349.734-3385.969,356.238Z" transform="translate(3400.427 -339.86)"/><path class="c" d="M-3393.367,348.685c6.149-6.6,7.09-15.718,2.1-20.364s-14.015-3.062-20.164,3.539-7.09,15.718-2.1,20.364,14.015,3.062,20.164-3.539m-.079-.073c-6.1,6.543-15.044,8.113-19.988,3.508s-4.011-13.643,2.084-20.186,15.044-8.113,19.988-3.508S-3387.351,342.068-3393.446,348.611Z" transform="translate(3407.957 -332.184)"/><path class="c" d="M-3400.846,341.057c6.185-6.639,7.131-15.809,2.115-20.483s-14.1-3.08-20.282,3.559-7.132,15.809-2.115,20.483,14.1,3.08,20.282-3.559m-.079-.074c-6.131,6.581-15.132,8.161-20.105,3.528s-4.034-13.723,2.1-20.3,15.133-8.161,20.105-3.528S-3394.794,334.4-3400.925,340.984Z" transform="translate(3415.489 -324.507)"/><path class="c" d="M-3408.322,333.431c6.221-6.678,7.173-15.9,2.127-20.6s-14.179-3.1-20.4,3.58-7.173,15.9-2.127,20.6,14.179,3.1,20.4-3.58m-.078-.074c-6.167,6.62-15.221,8.209-20.224,3.549s-4.058-13.8,2.109-20.423,15.221-8.209,20.223-3.549S-3402.234,326.738-3408.4,333.357Z" transform="translate(3423.017 -316.832)"/><path class="c" d="M-3415.8,325.8c6.256-6.716,7.214-15.993,2.139-20.72s-14.26-3.115-20.517,3.6-7.214,15.993-2.139,20.72,14.26,3.116,20.517-3.6m-.079-.074c-6.2,6.658-15.309,8.256-20.341,3.57s-4.082-13.884,2.121-20.542,15.309-8.256,20.341-3.57S-3409.676,319.068-3415.878,325.726Z" transform="translate(3430.547 -309.151)"/><path class="c" d="M-3423.273,318.174c6.292-6.754,7.256-16.084,2.152-20.839s-14.342-3.133-20.635,3.621-7.255,16.084-2.151,20.839,14.342,3.133,20.634-3.621m-.079-.074c-6.239,6.7-15.4,8.3-20.458,3.59s-4.1-13.964,2.133-20.661,15.4-8.3,20.458-3.59S-3417.114,311.4-3423.352,318.1Z" transform="translate(3438.074 -301.477)"/><path class="c" d="M-3430.752,310.546c6.328-6.793,7.3-16.176,2.164-20.958s-14.424-3.151-20.752,3.642-7.3,16.176-2.164,20.958,14.424,3.151,20.752-3.642m-.079-.074c-6.274,6.735-15.486,8.352-20.575,3.611s-4.129-14.044,2.145-20.78,15.486-8.352,20.576-3.611S-3424.557,303.737-3430.832,310.472Z" transform="translate(3445.606 -293.8)"/><path class="c" d="M-3438.233,302.916c6.364-6.831,7.338-16.268,2.176-21.076s-14.506-3.169-20.87,3.662-7.338,16.268-2.176,21.076,14.506,3.169,20.87-3.663m-.079-.074c-6.31,6.774-15.575,8.4-20.693,3.632s-4.152-14.125,2.158-20.9,15.575-8.4,20.693-3.631S-3432,296.069-3438.312,302.843Z" transform="translate(3453.14 -286.121)"/><path class="c" d="M-3445.7,295.29c6.4-6.87,7.379-16.359,2.188-21.2s-14.587-3.187-20.987,3.683-7.38,16.359-2.188,21.2,14.588,3.187,20.987-3.683m-.079-.074c-6.346,6.812-15.663,8.447-20.811,3.652s-4.176-14.2,2.17-21.017,15.663-8.447,20.811-3.652S-3439.438,288.4-3445.784,295.216Z" transform="translate(3460.663 -278.446)"/><path class="c" d="M-3453.183,287.659c6.436-6.908,7.421-16.451,2.2-21.314s-14.669-3.2-21.1,3.7-7.421,16.451-2.2,21.314,14.669,3.2,21.1-3.7m-.079-.074c-6.382,6.851-15.752,8.5-20.929,3.673s-4.2-14.285,2.182-21.136,15.752-8.5,20.928-3.673S-3446.88,280.735-3453.262,287.585Z" transform="translate(3468.194 -270.766)"/><path class="c" d="M-3460.656,280.033c6.471-6.947,7.462-16.543,2.213-21.433s-14.75-3.223-21.222,3.724-7.463,16.543-2.213,21.433,14.751,3.222,21.222-3.724m-.079-.074c-6.418,6.889-15.841,8.543-21.046,3.694s-4.223-14.365,2.195-21.255,15.84-8.543,21.046-3.694S-3454.318,273.071-3460.735,279.96Z" transform="translate(3475.72 -263.091)"/><path class="c" d="M-3468.14,272.405c6.508-6.985,7.5-16.634,2.225-21.551s-14.833-3.24-21.34,3.745-7.5,16.634-2.225,21.551,14.833,3.24,21.34-3.745m-.079-.074c-6.454,6.928-15.929,8.591-21.164,3.714s-4.247-14.446,2.207-21.373,15.929-8.591,21.164-3.714S-3461.765,265.4-3468.218,272.332Z" transform="translate(3483.256 -255.414)"/><path class="c" d="M-3475.617,264.78c6.543-7.024,7.545-16.726,2.238-21.67s-14.915-3.258-21.458,3.766-7.545,16.726-2.237,21.67,14.914,3.258,21.457-3.766m-.079-.074c-6.49,6.966-16.018,8.638-21.282,3.735s-4.27-14.526,2.219-21.492,16.017-8.638,21.281-3.735S-3469.206,257.74-3475.7,264.706Z" transform="translate(3490.786 -247.739)"/><path class="c" d="M-3483.09,257.151c6.579-7.062,7.586-16.818,2.25-21.789s-15-3.276-21.575,3.786-7.586,16.818-2.25,21.789,15,3.276,21.575-3.786m-.079-.074c-6.526,7-16.106,8.686-21.4,3.755s-4.294-14.606,2.231-21.611,16.106-8.686,21.4-3.755S-3476.644,250.072-3483.169,257.077Z" transform="translate(3498.312 -240.061)"/><path class="c" d="M-3490.567,249.526c6.615-7.1,7.628-16.909,2.262-21.908s-15.078-3.294-21.693,3.807-7.628,16.909-2.262,21.908,15.078,3.294,21.693-3.807m-.079-.074c-6.561,7.043-16.194,8.734-21.516,3.776s-4.318-14.686,2.243-21.73,16.194-8.734,21.516-3.776S-3484.085,242.409-3490.646,249.453Z" transform="translate(3505.842 -232.388)"/><path class="c" d="M-3498.046,241.9c6.65-7.139,7.669-17,2.274-22.026s-15.16-3.312-21.81,3.828-7.669,17-2.275,22.026,15.16,3.312,21.811-3.828m-.079-.073c-6.6,7.082-16.283,8.781-21.633,3.8s-4.341-14.767,2.256-21.848,16.283-8.781,21.634-3.8S-3491.528,234.742-3498.126,241.823Z" transform="translate(3513.373 -224.709)"/><path class="c" d="M-3505.522,234.264c6.687-7.178,7.71-17.092,2.287-22.145s-15.241-3.33-21.928,3.848-7.71,17.093-2.287,22.145,15.241,3.33,21.928-3.848m-.079-.074c-6.633,7.12-16.371,8.829-21.751,3.817s-4.365-14.847,2.268-21.967,16.371-8.829,21.751-3.817S-3498.968,227.07-3505.6,234.19Z" transform="translate(3520.902 -217.027)"/><path class="c" d="M-3513,226.641c6.722-7.216,7.752-17.184,2.3-22.264s-15.323-3.348-22.045,3.869-7.751,17.184-2.3,22.264,15.323,3.348,22.046-3.869m-.079-.074c-6.669,7.159-16.46,8.877-21.869,3.838s-4.388-14.927,2.28-22.086,16.46-8.877,21.869-3.838S-3506.41,219.409-3513.078,226.568Z" transform="translate(3528.432 -209.356)"/><path class="c" d="M-3520.473,219.009c6.758-7.255,7.793-17.276,2.311-22.383s-15.4-3.365-22.163,3.889-7.793,17.276-2.311,22.383,15.4,3.365,22.163-3.889m-.079-.074c-6.7,7.2-16.548,8.925-21.987,3.858s-4.412-15.007,2.292-22.2,16.549-8.925,21.987-3.858S-3513.847,211.738-3520.552,218.935Z" transform="translate(3535.958 -201.674)"/><path class="c" d="M-3527.954,211.386c6.794-7.293,7.834-17.368,2.323-22.5s-15.487-3.383-22.281,3.91-7.834,17.368-2.324,22.5,15.487,3.383,22.281-3.91m-.079-.074c-6.74,7.236-16.636,8.972-22.1,3.879s-4.435-15.088,2.3-22.323,16.637-8.972,22.1-3.879S-3521.292,204.077-3528.033,211.313Z" transform="translate(3543.491 -194.003)"/><path class="c" d="M-3535.432,203.755c6.83-7.332,7.875-17.459,2.336-22.62s-15.568-3.4-22.4,3.931-7.875,17.459-2.335,22.62,15.568,3.4,22.4-3.931m-.079-.074c-6.776,7.274-16.725,9.02-22.221,3.9s-4.459-15.168,2.317-22.442,16.725-9.02,22.222-3.9S-3528.735,196.407-3535.511,203.682Z" transform="translate(3551.022 -186.322)"/><path class="c" d="M-3542.907,196.133c6.865-7.37,7.917-17.551,2.347-22.739s-15.65-3.419-22.516,3.951-7.917,17.551-2.348,22.739,15.65,3.419,22.516-3.951m-.08-.074c-6.812,7.313-16.813,9.068-22.339,3.92s-4.483-15.248,2.329-22.561,16.814-9.068,22.339-3.92S-3536.174,188.746-3542.986,196.059Z" transform="translate(3558.55 -178.651)"/><path class="c" d="M-3550.382,188.5c6.9-7.409,7.958-17.642,2.36-22.858s-15.731-3.437-22.633,3.972-7.958,17.642-2.36,22.858,15.732,3.437,22.633-3.972m-.079-.074c-6.848,7.351-16.9,9.115-22.457,3.941s-4.506-15.328,2.341-22.679,16.9-9.115,22.457-3.941S-3543.613,181.077-3550.461,188.428Z" transform="translate(3566.078 -170.97)"/><path class="c" d="M-3557.858,180.872c6.938-7.447,8-17.734,2.372-22.976s-15.813-3.455-22.751,3.993-8,17.734-2.372,22.976,15.813,3.455,22.751-3.993m-.079-.074c-6.884,7.39-16.991,9.163-22.574,3.962s-4.53-15.409,2.354-22.8,16.991-9.163,22.575-3.962S-3551.053,173.409-3557.937,180.8Z" transform="translate(3573.606 -163.292)"/><path class="c" d="M-3565.336,173.245c6.973-7.486,8.041-17.826,2.385-23.1s-15.9-3.472-22.868,4.013-8.041,17.826-2.385,23.095,15.9,3.472,22.868-4.013m-.079-.074c-6.92,7.428-17.079,9.211-22.692,3.982s-4.553-15.489,2.367-22.917,17.079-9.211,22.692-3.982S-3558.5,165.743-3565.415,173.171Z" transform="translate(3581.137 -155.616)"/><path class="c" d="M-3572.814,165.613c7.01-7.524,8.083-17.918,2.4-23.214s-15.977-3.49-22.986,4.034-8.083,17.917-2.4,23.214,15.977,3.49,22.986-4.034m-.079-.074c-6.956,7.466-17.168,9.259-22.81,4s-4.577-15.569,2.378-23.036,17.168-9.259,22.81-4S-3565.938,158.073-3572.893,165.54Z" transform="translate(3588.668 -147.935)"/><path class="c" d="M-3580.289,157.991c7.045-7.563,8.123-18.009,2.409-23.333s-16.058-3.508-23.1,4.055-8.124,18.009-2.409,23.332,16.058,3.508,23.1-4.054m-.079-.074c-6.992,7.5-17.256,9.306-22.927,4.023s-4.6-15.649,2.391-23.154,17.256-9.306,22.927-4.023S-3573.377,150.413-3580.369,157.917Z" transform="translate(3596.196 -140.264)"/><path class="c" d="M-3587.771,150.359c7.081-7.6,8.165-18.1,2.421-23.451s-16.14-3.526-23.221,4.075-8.165,18.1-2.421,23.451,16.141,3.526,23.221-4.075m-.079-.074c-7.028,7.544-17.345,9.354-23.045,4.044s-4.624-15.73,2.4-23.273,17.345-9.354,23.045-4.044S-3580.823,142.742-3587.849,150.285Z" transform="translate(3603.729 -132.582)"/><path class="c" d="M-3595.243,142.734c7.117-7.64,8.206-18.192,2.433-23.57s-16.222-3.544-23.339,4.1-8.206,18.192-2.434,23.57,16.222,3.544,23.339-4.1m-.08-.074c-7.062,7.582-17.433,9.4-23.162,4.065s-4.647-15.81,2.415-23.392,17.433-9.4,23.163-4.065S-3588.259,135.079-3595.322,142.661Z" transform="translate(3611.254 -124.909)"/><path class="c" d="M-3602.719,135.1c7.153-7.678,8.248-18.284,2.446-23.689s-16.3-3.562-23.456,4.116-8.248,18.284-2.446,23.689,16.3,3.562,23.456-4.116m-.079-.074c-7.1,7.621-17.522,9.45-23.28,4.085s-4.671-15.89,2.428-23.511,17.521-9.45,23.28-4.086S-3595.7,127.411-3602.8,135.031Z" transform="translate(3618.783 -117.23)"/><path class="c" d="M-3610.2,127.479c7.189-7.717,8.289-18.376,2.458-23.807s-16.385-3.58-23.574,4.137-8.289,18.376-2.458,23.807,16.385,3.58,23.574-4.137m-.079-.074c-7.135,7.659-17.61,9.5-23.4,4.106s-4.7-15.97,2.44-23.629,17.61-9.5,23.4-4.106S-3603.141,119.747-3610.276,127.406Z" transform="translate(3626.314 -109.556)"/><path class="c" d="M-3617.675,119.849c7.224-7.755,8.33-18.467,2.47-23.926s-16.467-3.6-23.691,4.158-8.331,18.467-2.471,23.926,16.467,3.6,23.692-4.158m-.08-.074c-7.17,7.7-17.7,9.545-23.515,4.127s-4.719-16.051,2.452-23.748,17.7-9.545,23.516-4.127S-3610.583,112.078-3617.754,119.775Z" transform="translate(3633.844 -101.877)"/><path class="c" d="M-3625.154,112.22c7.26-7.794,8.372-18.559,2.483-24.045s-16.549-3.615-23.809,4.178-8.372,18.559-2.483,24.045,16.549,3.615,23.809-4.178m-.079-.074c-7.206,7.736-17.787,9.593-23.632,4.147s-4.742-16.131,2.464-23.867,17.787-9.593,23.633-4.147S-3618.027,104.411-3625.233,112.146Z" transform="translate(3641.376 -94.198)"/><path class="c" d="M-3632.631,104.594c7.3-7.832,8.414-18.651,2.5-24.164s-16.63-3.633-23.927,4.2-8.413,18.651-2.495,24.164,16.63,3.633,23.926-4.2m-.079-.074c-7.242,7.774-17.875,9.64-23.75,4.168s-4.766-16.211,2.477-23.986,17.875-9.64,23.75-4.168S-3625.468,96.746-3632.71,104.521Z" transform="translate(3648.906 -86.524)"/><path class="c" d="M-3640.1,96.966c7.332-7.871,8.454-18.742,2.507-24.282s-16.712-3.651-24.045,4.22-8.454,18.742-2.507,24.282,16.712,3.651,24.045-4.22m-.079-.074c-7.278,7.813-17.964,9.688-23.867,4.189s-4.79-16.291,2.489-24.1,17.964-9.688,23.868-4.189S-3632.906,89.08-3640.184,96.892Z" transform="translate(3656.432 -78.846)"/><path class="c" d="M-3647.587,89.337c7.368-7.909,8.5-18.834,2.52-24.4s-16.794-3.669-24.162,4.24-8.5,18.834-2.52,24.4,16.794,3.669,24.162-4.24m-.079-.074c-7.314,7.851-18.053,9.736-23.986,4.209s-4.813-16.372,2.5-24.223,18.053-9.736,23.986-4.209S-3640.351,81.412-3647.666,89.264Z" transform="translate(3663.967 -71.168)"/><path class="c" d="M-3655.058,81.711c7.4-7.947,8.537-18.925,2.531-24.52s-16.875-3.687-24.28,4.261-8.537,18.925-2.531,24.52,16.875,3.687,24.279-4.261m-.079-.074c-7.35,7.89-18.141,9.784-24.1,4.23s-4.837-16.452,2.513-24.342,18.141-9.784,24.1-4.23S-3647.787,73.747-3655.137,81.637Z" transform="translate(3671.491 -63.493)"/><path class="c" d="M-3662.537,74.085c7.439-7.986,8.578-19.017,2.544-24.639s-16.957-3.7-24.4,4.281-8.579,19.017-2.544,24.639,16.958,3.7,24.4-4.281m-.079-.074c-7.385,7.928-18.23,9.831-24.221,4.25s-4.86-16.532,2.525-24.461,18.23-9.831,24.221-4.25S-3655.23,66.083-3662.615,74.011Z" transform="translate(3679.022 -55.818)"/><path class="c" d="M-3670.014,66.454c7.475-8.024,8.62-19.109,2.556-24.757s-17.039-3.722-24.515,4.3-8.62,19.109-2.556,24.757,17.039,3.722,24.514-4.3m-.079-.074c-7.422,7.967-18.318,9.879-24.338,4.271s-4.884-16.612,2.538-24.579,18.318-9.879,24.338-4.271S-3662.671,58.414-3670.093,66.381Z" transform="translate(3686.552 -48.139)"/><path class="c" d="M-3677.49,58.831c7.511-8.063,8.661-19.2,2.569-24.876s-17.121-3.74-24.632,4.323-8.661,19.2-2.568,24.876,17.121,3.74,24.632-4.323m-.079-.073c-7.458,8.005-18.407,9.927-24.456,4.292s-4.908-16.693,2.55-24.7,18.407-9.927,24.456-4.292S-3670.112,50.752-3677.569,58.757Z" transform="translate(3694.08 -40.466)"/><path class="c" d="M-3684.971,51.2c7.547-8.1,8.7-19.292,2.581-24.995s-17.2-3.758-24.75,4.343-8.7,19.292-2.581,25,17.2,3.758,24.75-4.343m-.079-.074c-7.493,8.044-18.5,9.975-24.573,4.312s-4.931-16.773,2.563-24.817,18.495-9.975,24.573-4.312S-3677.556,43.082-3685.05,51.126Z" transform="translate(3701.614 -32.786)"/><path class="c" d="M-3692.443,43.571c7.583-8.14,8.743-19.384,2.593-25.114s-17.285-3.776-24.867,4.364-8.744,19.384-2.593,25.114,17.285,3.776,24.867-4.364m-.079-.074c-7.529,8.082-18.583,10.022-24.69,4.333s-4.955-16.853,2.574-24.935,18.584-10.022,24.691-4.333S-3684.993,35.415-3692.522,43.5Z" transform="translate(3709.139 -25.108)"/><path class="c" d="M-3699.922,35.943c7.619-8.179,8.785-19.475,2.605-25.232s-17.366-3.794-24.985,4.385-8.785,19.475-2.605,25.232,17.366,3.794,24.985-4.385m-.079-.074c-7.565,8.121-18.672,10.07-24.809,4.354s-4.978-16.933,2.587-25.054,18.672-10.07,24.809-4.354S-3692.436,27.749-3700,35.869Z" transform="translate(3716.67 -17.431)"/><path class="c" d="M-3707.4,28.317c7.655-8.217,8.826-19.567,2.617-25.351s-17.447-3.812-25.1,4.405-8.827,19.567-2.617,25.351,17.448,3.812,25.1-4.405m-.079-.074c-7.6,8.159-18.761,10.118-24.926,4.374s-5-17.014,2.6-25.173,18.76-10.118,24.926-4.374S-3699.878,20.084-3707.479,28.243Z" transform="translate(3724.202 -9.755)"/><path class="c" d="M-3714.873,20.688c7.69-8.256,8.868-19.659,2.63-25.47s-17.53-3.83-25.22,4.426-8.868,19.659-2.63,25.47,17.529,3.83,25.22-4.426m-.079-.074c-7.637,8.2-18.849,10.165-25.043,4.4s-5.026-17.094,2.611-25.292,18.849-10.165,25.044-4.4S-3707.315,12.417-3714.952,20.615Z" transform="translate(3731.727 -2.078)"/><path class="c" d="M-3722.354,13.062c7.726-8.294,8.91-19.75,2.642-25.589s-17.611-3.847-25.338,4.447-8.909,19.75-2.642,25.589,17.611,3.847,25.337-4.446m-.079-.074c-7.673,8.236-18.937,10.213-25.161,4.416s-5.049-17.174,2.624-25.411,18.937-10.213,25.161-4.416S-3714.76,4.752-3722.433,12.988Z" transform="translate(3739.26 5.598)"/><path class="c" d="M-3729.826,5.434c7.762-8.333,8.95-19.842,2.654-25.707s-17.693-3.865-25.455,4.467-8.95,19.842-2.654,25.707,17.693,3.865,25.455-4.467m-.079-.074c-7.708,8.275-19.026,10.261-25.279,4.436s-5.072-17.254,2.636-25.529,19.026-10.261,25.279-4.436S-3722.2-2.914-3729.905,5.361Z" transform="translate(3746.785 13.274)"/><path class="c" d="M-3737.306-2.2c7.8-8.371,8.992-19.934,2.667-25.826s-17.775-3.883-25.573,4.488S-3769.2-3.6-3762.879,2.292s17.774,3.883,25.573-4.488m-.079-.074c-7.744,8.313-19.115,10.309-25.4,4.457s-5.1-17.335,2.648-25.648,19.115-10.309,25.4-4.457S-3729.641-10.582-3737.385-2.269Z" transform="translate(3754.318 20.953)"/><path class="c" d="M-3744.785-9.82c7.834-8.41,9.033-20.025,2.679-25.945s-17.856-3.9-25.69,4.508-9.033,20.025-2.679,25.945,17.856,3.9,25.69-4.508m-.079-.074c-7.78,8.352-19.2,10.356-25.514,4.478s-5.12-17.415,2.66-25.767,19.2-10.356,25.514-4.478S-3737.084-18.245-3744.865-9.893Z" transform="translate(3761.85 28.626)"/><path class="c" d="M-3752.258-17.45c7.87-8.448,9.075-20.117,2.691-26.063s-17.938-3.919-25.808,4.529-9.074,20.117-2.691,26.063,17.938,3.919,25.808-4.529m-.078-.074c-7.816,8.39-19.292,10.4-25.632,4.5s-5.143-17.5,2.673-25.886,19.292-10.4,25.631-4.5S-3744.521-25.914-3752.336-17.524Z" transform="translate(3769.375 36.306)"/><path class="c" d="M-3759.737-25.079c7.906-8.486,9.116-20.209,2.7-26.182s-18.02-3.937-25.925,4.55-9.116,20.209-2.7,26.182,18.02,3.937,25.925-4.55m-.079-.074c-7.852,8.429-19.38,10.452-25.749,4.519s-5.167-17.575,2.685-26,19.38-10.452,25.749-4.519S-3751.964-33.582-3759.815-25.153Z" transform="translate(3776.906 43.984)"/><path class="c" d="M-3767.218-32.707c7.941-8.525,9.157-20.3,2.716-26.3s-18.1-3.955-26.043,4.57-9.157,20.3-2.716,26.3,18.1,3.955,26.043-4.57m-.079-.074c-7.888,8.467-19.469,10.5-25.867,4.539s-5.191-17.656,2.7-26.123S-3771-64.864-3764.6-58.9-3759.409-41.248-3767.3-32.781Z" transform="translate(3784.44 51.661)"/><path class="c" d="M-3774.69-40.335c7.977-8.563,9.2-20.392,2.728-26.42s-18.183-3.972-26.161,4.591-9.2,20.392-2.728,26.42,18.184,3.972,26.161-4.591m-.079-.074c-7.924,8.506-19.557,10.547-25.984,4.56s-5.214-17.736,2.709-26.242,19.557-10.547,25.984-4.56S-3766.845-48.914-3774.769-40.409Z" transform="translate(3791.965 59.338)"/><path class="c" d="M-3782.168-47.96c8.013-8.6,9.24-20.484,2.74-26.539s-18.265-3.99-26.278,4.612-9.24,20.484-2.74,26.539,18.265,3.99,26.278-4.612m-.079-.074c-7.96,8.544-19.646,10.595-26.1,4.581s-5.238-17.816,2.722-26.36,19.646-10.595,26.1-4.581S-3774.288-56.578-3782.247-48.034Z" transform="translate(3799.496 67.012)"/><path class="c" d="M-3789.641-55.592c8.049-8.64,9.281-20.575,2.752-26.657s-18.347-4.008-26.4,4.632-9.281,20.575-2.752,26.657,18.347,4.008,26.4-4.632m-.079-.074c-8,8.583-19.734,10.643-26.219,4.6s-5.261-17.9,2.734-26.479,19.734-10.643,26.219-4.6S-3781.725-64.248-3789.72-55.665Z" transform="translate(3807.022 74.693)"/><path class="c" d="M-3797.121-63.215c8.084-8.679,9.323-20.667,2.764-26.776s-18.428-4.026-26.513,4.653-9.323,20.667-2.765,26.776,18.428,4.026,26.513-4.653m-.079-.074c-8.031,8.621-19.822,10.69-26.337,4.622s-5.285-17.977,2.746-26.6,19.823-10.691,26.337-4.622S-3789.169-71.91-3797.2-63.289Z" transform="translate(3814.554 82.365)"/><path class="c" d="M-3804.6-70.846c8.121-8.717,9.364-20.758,2.777-26.895s-18.51-4.044-26.631,4.673-9.364,20.758-2.777,26.895,18.51,4.044,26.631-4.673m-.079-.074c-8.067,8.66-19.911,10.738-26.455,4.643s-5.308-18.057,2.759-26.717,19.911-10.738,26.454-4.642S-3796.615-79.579-3804.682-70.919Z" transform="translate(3822.088 90.045)"/><path class="c" d="M-3812.075-78.474c8.156-8.756,9.405-20.85,2.789-27.013s-18.592-4.062-26.748,4.694-9.406,20.85-2.79,27.013,18.592,4.062,26.749-4.694m-.079-.074c-8.1,8.7-20,10.786-26.572,4.663s-5.332-18.137,2.771-26.835,20-10.786,26.572-4.663S-3804.051-87.246-3812.154-78.548Z" transform="translate(3829.614 97.722)"/><path class="c" d="M-3819.552-86.1c8.192-8.794,9.447-20.942,2.8-27.132s-18.673-4.08-26.866,4.715-9.447,20.942-2.8,27.132,18.674,4.08,26.866-4.715m-.079-.074c-8.139,8.737-20.088,10.834-26.69,4.684s-5.356-18.218,2.783-26.954,20.088-10.834,26.689-4.684S-3811.492-94.911-3819.63-86.174Z" transform="translate(3837.143 105.398)"/><path class="c" d="M-3827.025-93.731c8.228-8.833,9.488-21.034,2.813-27.251s-18.755-4.1-26.984,4.735-9.487,21.034-2.813,27.251,18.755,4.1,26.984-4.735m-.079-.074c-8.175,8.775-20.177,10.881-26.807,4.7s-5.379-18.3,2.8-27.073,20.176-10.881,26.807-4.7S-3818.93-102.579-3827.1-93.8Z" transform="translate(3844.669 113.077)"/><path class="c" d="M-3834.507-101.355c8.264-8.871,9.529-21.125,2.826-27.37s-18.837-4.115-27.1,4.756-9.53,21.125-2.826,27.37,18.837,4.115,27.1-4.756m-.079-.074c-8.21,8.814-20.265,10.929-26.925,4.725s-5.4-18.378,2.808-27.192,20.265-10.929,26.925-4.725S-3826.375-110.242-3834.586-101.428Z" transform="translate(3852.203 120.75)"/><path class="c" d="M-3841.985-108.989c8.3-8.91,9.571-21.217,2.838-27.489s-18.919-4.133-27.219,4.777-9.571,21.217-2.838,27.488,18.919,4.133,27.219-4.777m-.079-.074c-8.247,8.852-20.354,10.977-27.042,4.746s-5.427-18.458,2.82-27.31,20.353-10.977,27.042-4.746S-3833.818-117.914-3842.064-109.062Z" transform="translate(3859.734 128.433)"/><path class="c" d="M-3849.458-116.61c8.336-8.948,9.612-21.308,2.851-27.607s-19-4.151-27.336,4.8-9.612,21.308-2.851,27.607,19,4.151,27.336-4.8m-.079-.074c-8.282,8.891-20.442,11.024-27.16,4.766s-5.45-18.539,2.832-27.429,20.442-11.024,27.16-4.766S-3841.255-125.574-3849.537-116.683Z" transform="translate(3867.26 136.103)"/><path class="c" d="M-3856.936-124.242c8.372-8.987,9.654-21.4,2.863-27.726s-19.082-4.169-27.454,4.818-9.653,21.4-2.863,27.726,19.082,4.169,27.454-4.818m-.079-.074c-8.318,8.929-20.53,11.072-27.277,4.787s-5.474-18.619,2.844-27.548,20.531-11.072,27.278-4.787S-3848.7-133.245-3857.015-124.316Z" transform="translate(3874.791 143.784)"/><path class="c" d="M-3864.417-131.865c8.408-9.025,9.695-21.492,2.875-27.845s-19.164-4.187-27.572,4.839-9.695,21.492-2.875,27.845,19.164,4.187,27.572-4.839m-.079-.074c-8.354,8.967-20.619,11.12-27.4,4.808s-5.5-18.7,2.856-27.667,20.619-11.12,27.4-4.808S-3856.143-140.906-3864.5-131.938Z" transform="translate(3882.324 151.456)"/><path class="c" d="M-3871.89-139.5c8.443-9.064,9.736-21.583,2.887-27.963s-19.245-4.2-27.689,4.859-9.736,21.583-2.887,27.963,19.246,4.2,27.689-4.859m-.079-.074c-8.39,9.006-20.708,11.168-27.513,4.828s-5.521-18.779,2.869-27.785,20.707-11.168,27.512-4.828S-3863.579-148.576-3871.969-139.57Z" transform="translate(3889.85 159.136)"/><path class="c" d="M-3879.369-147.129c8.479-9.1,9.778-21.675,2.9-28.082s-19.327-4.222-27.806,4.88-9.778,21.675-2.9,28.082,19.327,4.222,27.807-4.88m-.079-.074c-8.425,9.044-20.8,11.215-27.63,4.849s-5.544-18.86,2.881-27.9,20.8-11.215,27.63-4.849S-3871.022-156.247-3879.448-147.2Z" transform="translate(3897.382 166.818)"/><path class="c" d="M-3886.841-154.749c8.515-9.141,9.819-21.767,2.912-28.2s-19.409-4.24-27.924,4.9-9.819,21.767-2.912,28.2,19.409,4.24,27.924-4.9m-.079-.074c-8.462,9.083-20.885,11.263-27.748,4.87s-5.568-18.94,2.893-28.023,20.885-11.263,27.748-4.87S-3878.458-163.905-3886.919-154.822Z" transform="translate(3904.906 174.487)"/><path class="c" d="M-3894.323-162.382c8.551-9.179,9.86-21.858,2.924-28.32s-19.49-4.258-28.042,4.921-9.86,21.858-2.924,28.32,19.491,4.258,28.042-4.921m-.079-.074c-8.5,9.121-20.973,11.311-27.865,4.89s-5.592-19.02,2.906-28.142,20.973-11.311,27.865-4.89S-3885.9-171.577-3894.4-162.456Z" transform="translate(3912.44 182.17)"/><path class="c" d="M-3901.8-170.006c8.586-9.218,9.9-21.95,2.936-28.438s-19.573-4.276-28.159,4.942-9.9,21.95-2.936,28.438,19.573,4.276,28.16-4.942m-.079-.074c-8.533,9.16-21.062,11.358-27.983,4.911s-5.615-19.1,2.918-28.26,21.061-11.358,27.983-4.911S-3893.346-179.239-3901.879-170.079Z" transform="translate(3919.971 189.842)"/><path class="c" d="M-3909.275-177.637c8.623-9.256,9.943-22.042,2.948-28.557s-19.654-4.294-28.277,4.962-9.943,22.042-2.949,28.557,19.655,4.294,28.277-4.962m-.079-.074c-8.569,9.2-21.15,11.406-28.1,4.931s-5.639-19.181,2.93-28.379,21.15-11.406,28.1-4.931S-3900.785-186.908-3909.354-177.71Z" transform="translate(3927.498 197.522)"/><path class="c" d="M-3916.753-185.26c8.659-9.295,9.984-22.133,2.961-28.676s-19.736-4.312-28.395,4.983-9.984,22.133-2.961,28.676,19.736,4.312,28.395-4.983m-.079-.074c-8.6,9.237-21.239,11.454-28.218,4.952s-5.662-19.261,2.943-28.5,21.238-11.454,28.218-4.952S-3908.227-194.57-3916.832-185.333Z" transform="translate(3935.029 205.194)"/><path class="c" d="M-3924.227-192.891c8.694-9.333,10.025-22.225,2.973-28.795s-19.817-4.329-28.512,5-10.025,22.225-2.973,28.795,19.818,4.329,28.512-5m-.079-.074c-8.641,9.275-21.327,11.5-28.335,4.973s-5.686-19.341,2.955-28.616,21.327-11.5,28.336-4.973S-3915.666-202.24-3924.306-192.965Z" transform="translate(3942.556 212.875)"/><path class="c" d="M-3931.7-200.522c8.73-9.372,10.067-22.317,2.985-28.913s-19.9-4.347-28.63,5.024-10.067,22.317-2.985,28.913,19.9,4.347,28.63-5.024m-.079-.074c-8.677,9.314-21.416,11.549-28.453,4.993s-5.709-19.421,2.967-28.735,21.416-11.549,28.453-4.993S-3923.107-209.909-3931.783-200.6Z" transform="translate(3950.085 220.555)"/><path class="c" d="M-3939.183-208.145c8.766-9.41,10.108-22.408,3-29.032s-19.981-4.365-28.747,5.045-10.108,22.408-3,29.032,19.981,4.365,28.747-5.045m-.079-.074c-8.712,9.352-21.5,11.6-28.571,5.014s-5.733-19.5,2.979-28.854,21.5-11.6,28.571-5.014S-3930.55-217.571-3939.262-208.219Z" transform="translate(3957.617 228.227)"/><path class="c" d="M-3946.657-215.776c8.8-9.449,10.15-22.5,3.01-29.151s-20.062-4.383-28.865,5.066-10.15,22.5-3.01,29.151,20.063,4.383,28.865-5.065m-.079-.074c-8.748,9.391-21.592,11.645-28.688,5.035s-5.757-19.582,2.992-28.973,21.592-11.645,28.688-5.035S-3937.988-225.241-3946.736-215.85Z" transform="translate(3965.144 235.907)"/><path class="c" d="M-3954.138-223.4c8.837-9.487,10.19-22.592,3.022-29.27s-20.145-4.4-28.982,5.086-10.191,22.591-3.022,29.269,20.145,4.4,28.982-5.086m-.079-.074c-8.784,9.429-21.681,11.693-28.806,5.055s-5.78-19.662,3-29.091,21.681-11.693,28.807-5.055S-3945.434-232.9-3954.217-223.474Z" transform="translate(3972.677 243.58)"/><path class="c" d="M-3961.612-231.03c8.874-9.526,10.232-22.683,3.034-29.388s-20.226-4.419-29.1,5.107-10.232,22.683-3.034,29.388,20.226,4.419,29.1-5.107m-.079-.074c-8.82,9.468-21.769,11.74-28.924,5.076s-5.8-19.742,3.016-29.21,21.77-11.74,28.924-5.076S-3952.872-240.571-3961.691-231.1Z" transform="translate(3980.204 251.259)"/><path class="c" d="M-3969.09-238.658c8.909-9.564,10.273-22.775,3.047-29.507s-20.308-4.437-29.218,5.127-10.274,22.775-3.047,29.507,20.308,4.437,29.218-5.127m-.079-.074c-8.855,9.506-21.858,11.788-29.041,5.1s-5.827-19.823,3.028-29.329,21.858-11.788,29.041-5.1S-3960.313-248.238-3969.169-238.732Z" transform="translate(3987.734 258.936)"/><path class="c" d="M-3976.568-246.287c8.945-9.6,10.315-22.866,3.059-29.626s-20.39-4.454-29.335,5.148-10.314,22.866-3.059,29.626,20.39,4.454,29.335-5.148m-.079-.074c-8.892,9.545-21.947,11.836-29.159,5.117s-5.851-19.9,3.04-29.448,21.947-11.836,29.159-5.117S-3967.755-255.9-3976.646-246.36Z" transform="translate(3995.264 266.614)"/><path class="c" d="M-3984.043-253.913c8.981-9.641,10.356-22.958,3.071-29.745s-20.471-4.472-29.453,5.169-10.356,22.958-3.071,29.745,20.471,4.472,29.453-5.169m-.079-.074c-8.928,9.583-22.035,11.884-29.276,5.138s-5.875-19.983,3.053-29.566,22.035-11.884,29.276-5.138S-3975.195-263.57-3984.122-253.986Z" transform="translate(4002.793 274.289)"/><path class="c" d="M-3991.522-261.541c9.017-9.679,10.4-23.05,3.083-29.863s-20.553-4.49-29.57,5.189-10.4,23.05-3.083,29.863,20.553,4.49,29.57-5.189m-.079-.074c-8.963,9.622-22.124,11.931-29.394,5.158s-5.9-20.063,3.065-29.685,22.123-11.931,29.394-5.158S-3982.638-271.236-3991.6-261.614Z" transform="translate(4010.324 281.966)"/><path class="c" d="M-3999-269.172c9.053-9.718,10.439-23.141,3.1-29.982s-20.635-4.508-29.687,5.21-10.439,23.141-3.1,29.982,20.635,4.508,29.688-5.21m-.079-.074c-9,9.66-22.212,11.979-29.512,5.179s-5.922-20.144,3.078-29.8S-4003.3-305.85-3996-299.05-3990.081-278.906-3999.079-269.246Z" transform="translate(4017.855 289.647)"/><path class="c" d="M-4006.472-276.8c9.089-9.756,10.48-23.233,3.108-30.1s-20.717-4.526-29.806,5.231-10.48,23.233-3.108,30.1,20.717,4.526,29.806-5.231m-.079-.074c-9.034,9.7-22.3,12.027-29.629,5.2s-5.946-20.224,3.089-29.923,22.3-12.027,29.629-5.2S-3997.516-286.569-4006.552-276.871Z" transform="translate(4025.38 297.32)"/><path class="c" d="M-4013.955-284.426c9.125-9.8,10.521-23.325,3.12-30.219s-20.8-4.544-29.923,5.251-10.522,23.325-3.12,30.219,20.8,4.544,29.923-5.251m-.079-.074c-9.071,9.737-22.389,12.075-29.746,5.22s-5.969-20.3,3.1-30.041,22.389-12.075,29.747-5.22S-4004.963-294.237-4014.034-284.5Z" transform="translate(4032.916 304.998)"/><path class="c" d="M-4021.428-292.054c9.16-9.833,10.563-23.416,3.133-30.338s-20.88-4.562-30.041,5.272-10.563,23.416-3.132,30.338,20.88,4.562,30.04-5.272m-.079-.074c-9.107,9.776-22.477,12.122-29.864,5.241s-5.992-20.384,3.114-30.16,22.477-12.122,29.864-5.241S-4012.4-301.9-4021.508-292.128Z" transform="translate(4040.441 312.675)"/><path class="c" d="M-4025.17-295.867c9.178-9.853,10.583-23.462,3.138-30.4s-20.921-4.57-30.1,5.282-10.584,23.462-3.139,30.4,20.921,4.57,30.1-5.282m-.053-.049c-9.142,9.814-22.566,12.17-29.982,5.262s-6.016-20.465,3.126-30.279,22.566-12.17,29.982-5.262S-4016.08-305.73-4025.223-295.916Z" transform="translate(4044.21 316.513)"/></g></g><ellipse class="e" cx="7.818" cy="7.818" rx="7.818" ry="7.818" transform="translate(4.127 6.714)"/><g transform="translate(7.383 11.999)"><path class="f" d="M-1942.2,2018.829l-2.729-2.951.806-.746,2.05,2.217,5.674-4.346.668.872Z" transform="translate(1944.927 -2013.003)"/></g></g></g></svg>