<svg xmlns="http://www.w3.org/2000/svg" xmlns:xlink="http://www.w3.org/1999/xlink" width="48.63" height="48.63" viewBox="0 0 48.63 48.63"><defs><style>.a{fill:#63b2e9;}.b{fill:none;}.c{fill:#fff;}.d{fill:#707070;}.e{clip-path:url(#a);}.f{clip-path:url(#b);}.g{clip-path:url(#c);}.h{clip-path:url(#d);}.i{fill:#9ab3e3;}.j{clip-path:url(#e);}.k{fill:#869dcd;}.l{clip-path:url(#g);}.m{fill:#2153c0;}.n{clip-path:url(#i);}.o{fill:#17419e;}.p{clip-path:url(#k);}.q{clip-path:url(#l);}.r{clip-path:url(#m);}.s{opacity:0.108;clip-path:url(#o);}.t{clip-path:url(#p);}</style><clipPath id="a"><path class="a" d="M641.315-231.37a24.315,24.315,0,0,0,24.315-24.315A24.315,24.315,0,0,0,641.315-280,24.315,24.315,0,0,0,617-255.685,24.315,24.315,0,0,0,641.315-231.37Z" transform="translate(-617 280)"/></clipPath><clipPath id="b"><path class="a" d="M447-437.636h795.778V-935H447Z" transform="translate(-447 935)"/></clipPath><clipPath id="c"><path class="b" d="M650.951-229.091l-2.111-2.11,2.517-2.517,2.11,2.11Z" transform="translate(-648.84 233.719)"/></clipPath><clipPath id="d"><path class="b" d="M447-513.415h674.533V-935H447Z" transform="translate(-447 935)"/></clipPath><clipPath id="e"><path class="b" d="M652.148-227.894l-1.055-1.055,2.517-2.517,1.055,1.055Z" transform="translate(-651.093 231.466)"/></clipPath><clipPath id="g"><path class="b" d="M632.244-218.406l-1.957-1.957a1.777,1.777,0,0,1,0-2.506l6.063-6.063a1.777,1.777,0,0,1,2.506,0l1.957,1.957a1.778,1.778,0,0,1,0,2.506l-6.063,6.063A1.777,1.777,0,0,1,632.244-218.406Z" transform="translate(-629.771 229.449)"/></clipPath><clipPath id="i"><path class="b" d="M633.941-216.709a1.777,1.777,0,0,0,2.506,0l6.063-6.063a1.777,1.777,0,0,0,0-2.506l-.978-.978-8.569,8.569Z" transform="translate(-632.963 226.257)"/></clipPath><clipPath id="k"><path class="c" d="M659.77-248.431a10.76,10.76,0,0,0,10.76-10.76,10.76,10.76,0,0,0-10.76-10.76,10.76,10.76,0,0,0-10.76,10.76A10.76,10.76,0,0,0,659.77-248.431Z" transform="translate(-649.01 269.952)"/></clipPath><clipPath id="l"><path class="c" d="M447-513.415h674.533V-935H447Z" transform="translate(-447 935)"/></clipPath><clipPath id="m"><path class="c" d="M670.956-248.007a10.76,10.76,0,0,0,0-15.217l-15.217,15.217A10.76,10.76,0,0,0,670.956-248.007Z" transform="translate(-655.739 263.225)"/></clipPath><clipPath id="o"><path class="d" d="M662.826-248.068a8.068,8.068,0,0,0,8.068-8.068,8.068,8.068,0,0,0-8.068-8.067,8.068,8.068,0,0,0-8.068,8.067A8.067,8.067,0,0,0,662.826-248.068Z" transform="translate(-654.759 264.203)"/></clipPath><clipPath id="p"><path class="d" d="M447-513.415h674.533V-935H447Z" transform="translate(-447 935)"/></clipPath></defs><g transform="translate(-538.151 -1375.531)"><g class="e" transform="translate(538.151 1375.53)"><g class="f" transform="translate(-93.946 -361.97)"><path class="a" d="M612-230.843h54.156V-285H612Z" transform="translate(-520.817 644.207)"/></g></g><g class="g" transform="translate(556.022 1401.817)"><g class="h" transform="translate(-94.547 -328.499)"><path class="i" d="M647.192-229.538l-5.423-5.423,5.83-5.83,5.423,5.423Z" transform="translate(-550.535 565.977)"/></g></g><g class="j" transform="translate(557.077 1402.873)"><g class="h" transform="translate(-95.602 -329.555)"><path class="k" d="M648.389-228.34l-4.367-4.368,5.83-5.83,4.368,4.367Z" transform="translate(-551.732 564.78)"/></g></g><g class="l" transform="translate(547.089 1403.818)"><g class="h" transform="translate(-85.615 -330.499)"><path class="m" d="M624.771-218.2h16.244v-16.244H624.771Z" transform="translate(-541.498 562.606)"/></g></g><g class="n" transform="translate(548.584 1405.313)"><g class="h" transform="translate(-87.11 -331.995)"><path class="o" d="M627.963-216.508h14.749v-14.749H627.963Z" transform="translate(-543.195 560.909)"/></g></g><g class="p" transform="translate(556.101 1384.846)"><g class="q" transform="translate(-94.627 -311.527)"><path class="c" d="M644.01-248.747h26.2v-26.205h-26.2Z" transform="translate(-551.726 584.137)"/></g></g><g class="r" transform="translate(559.253 1387.996)"><g class="q" transform="translate(-97.779 -314.678)"><path class="c" d="M650.739-245.171h23.053v-23.053H650.739Z" transform="translate(-555.302 580.561)"/></g></g><g class="s" transform="translate(558.794 1387.539)"><g class="t" transform="translate(-97.32 -314.22)"><path class="d" d="M649.759-248.384h20.819V-269.2H649.759Z" transform="translate(-554.781 581.081)"/></g></g></g></svg>