<svg xmlns="http://www.w3.org/2000/svg" xmlns:xlink="http://www.w3.org/1999/xlink" width="51.91" height="51.91" viewBox="0 0 51.91 51.91"><defs><style>.a{fill:none;}.b{fill:#63b2e9;}.c{fill:#0133a1;}.d{clip-path:url(#a);}.e{fill:#ffba00;}.f{fill:#fff;}.g{clip-path:url(#b);}.h{fill:#35ae61;}</style><clipPath id="a"><path class="a" d="M-2091-3144.02l-23.923.31a1.8,1.8,0,0,0-1.767,1.811l.182,14.3a1.8,1.8,0,0,0,1.811,1.766l23.923-.31a1.8,1.8,0,0,0,1.766-1.811l-.182-14.3A1.789,1.789,0,0,0-2090.7-3144a2.392,2.392,0,0,0-.3-.023" transform="translate(2116.69 3144.02)"/></clipPath><clipPath id="b"><path class="a" d="M-1969.309-3118.035l-23.923.31a1.8,1.8,0,0,0-1.766,1.811l.182,14.3a1.8,1.8,0,0,0,1.811,1.766l23.923-.31a1.8,1.8,0,0,0,1.766-1.811l-.182-14.3a1.79,1.79,0,0,0-1.511-1.744,2.441,2.441,0,0,0-.3-.022" transform="translate(1994.999 3118.036)"/></clipPath></defs><g transform="translate(0 0)"><g transform="translate(0 0)"><g transform="translate(0)"><path class="b" d="M-2203.087-3424.8a25.955,25.955,0,0,1-25.955,25.955A25.955,25.955,0,0,1-2255-3424.8a25.955,25.955,0,0,1,25.955-25.955,25.955,25.955,0,0,1,25.955,25.955" transform="translate(2254.997 3450.751)"/></g><path class="c" d="M-2147.376-2888.149H-2196.9c4.931,10.169,13.134,16.733,22.211,17.776h5.1C-2160.51-2871.414-2152.306-2877.979-2147.376-2888.149Z" transform="translate(2198.301 2922.185)"/></g><g transform="translate(7.954 16.168)"><g transform="translate(0 0)"><g class="d"><g transform="translate(-10.843 -11.097)"><rect class="e" width="32.758" height="43.714" transform="translate(0 32.355) rotate(-81)"/></g></g><g transform="translate(0.084 3.978)"><path class="f" d="M-2106.384-3085l-.085-2.807a.287.287,0,0,0-.29-.274l-3.929.124a.288.288,0,0,0-.274.29l.085,2.806a.287.287,0,0,0,.29.274l3.929-.124a.277.277,0,0,0,.274-.28s0-.006,0-.01m.307,5.031a.434.434,0,0,0-.423.446.434.434,0,0,0,.445.423.434.434,0,0,0,.423-.445v0a.435.435,0,0,0-.446-.421m-1.4.049a.434.434,0,0,0-.423.445.434.434,0,0,0,.445.423.434.434,0,0,0,.423-.445v0a.435.435,0,0,0-.445-.421m-1.407.043a.434.434,0,0,0-.423.445.435.435,0,0,0,.445.423.435.435,0,0,0,.423-.446v0a.437.437,0,0,0-.445-.421m-1.394.044a.434.434,0,0,0-.421.445.426.426,0,0,0,.435.416h.011a.431.431,0,0,0,.418-.442.431.431,0,0,0-.442-.418h0m11.5-.362a.435.435,0,0,0-.423.446.434.434,0,0,0,.445.423.435.435,0,0,0,.423-.446v0a.435.435,0,0,0-.445-.421m-1.4.043a.434.434,0,0,0-.423.446.435.435,0,0,0,.445.423.435.435,0,0,0,.423-.446v0a.438.438,0,0,0-.445-.421m-1.406.042a.434.434,0,0,0-.428.439.433.433,0,0,0,.439.428.434.434,0,0,0,.428-.439s0-.005,0-.008a.422.422,0,0,0-.424-.42h-.015m-1.395.044a.434.434,0,0,0-.421.445.426.426,0,0,0,.435.417h.011a.43.43,0,0,0,.418-.442.431.431,0,0,0-.442-.418h0m11.5-.362a.434.434,0,0,0-.423.445.434.434,0,0,0,.445.423.435.435,0,0,0,.423-.446v0a.432.432,0,0,0-.442-.421h0m-1.4.043a.434.434,0,0,0-.423.445.434.434,0,0,0,.445.423.434.434,0,0,0,.423-.445v0a.434.434,0,0,0-.445-.421m-1.4.043a.434.434,0,0,0-.423.446.434.434,0,0,0,.445.423.434.434,0,0,0,.423-.445v0a.437.437,0,0,0-.445-.421m-1.4.043a.435.435,0,0,0-.421.446.425.425,0,0,0,.435.416h.011a.43.43,0,0,0,.418-.442.43.43,0,0,0-.442-.418h0m-19.825-3.066.163,7.85a1.64,1.64,0,0,0,1.932,1.662l.391-.012-.093-10.626c-1.309-.067-2.4.026-2.392,1.126" transform="translate(2115.512 3088.082)"/></g></g></g><g transform="translate(16.607 18.016)"><g transform="translate(0 0)"><g class="g"><g transform="translate(-10.843 -11.097)"><rect class="h" width="32.758" height="43.714" transform="translate(0 32.355) rotate(-81)"/></g></g></g><g transform="translate(0.084 3.978)"><path class="f" d="M-1984.692-3059.019l-.085-2.807a.287.287,0,0,0-.29-.274l-3.929.124a.287.287,0,0,0-.274.289l.086,2.807a.287.287,0,0,0,.289.274l3.929-.124a.277.277,0,0,0,.274-.279s0-.007,0-.01m.307,5.031a.434.434,0,0,0-.423.445.434.434,0,0,0,.445.423.434.434,0,0,0,.423-.446v0a.434.434,0,0,0-.445-.421m-1.4.049a.434.434,0,0,0-.423.446.434.434,0,0,0,.445.423.434.434,0,0,0,.423-.445v0a.435.435,0,0,0-.445-.421m-1.406.042a.434.434,0,0,0-.423.445.435.435,0,0,0,.445.423.434.434,0,0,0,.423-.445v0a.438.438,0,0,0-.445-.421m-1.394.044a.434.434,0,0,0-.421.445.426.426,0,0,0,.435.416h.011a.431.431,0,0,0,.418-.442.43.43,0,0,0-.443-.418h0m11.5-.362a.434.434,0,0,0-.423.445.434.434,0,0,0,.445.423.434.434,0,0,0,.423-.445v0a.435.435,0,0,0-.445-.421m-1.4.043a.434.434,0,0,0-.423.445.434.434,0,0,0,.445.423.434.434,0,0,0,.423-.445v0a.437.437,0,0,0-.445-.421m-1.407.042a.434.434,0,0,0-.428.439.434.434,0,0,0,.439.428.434.434,0,0,0,.428-.439s0-.005,0-.008a.422.422,0,0,0-.424-.42h-.015m-1.394.044a.434.434,0,0,0-.421.445.425.425,0,0,0,.435.416h.011a.431.431,0,0,0,.418-.443.43.43,0,0,0-.442-.418h0m11.5-.362a.434.434,0,0,0-.423.445.434.434,0,0,0,.445.423.434.434,0,0,0,.423-.445v0a.431.431,0,0,0-.442-.421h0m-1.4.043a.434.434,0,0,0-.423.445.435.435,0,0,0,.445.423.434.434,0,0,0,.423-.445v0a.435.435,0,0,0-.445-.421m-1.4.043a.434.434,0,0,0-.423.445.434.434,0,0,0,.445.423.434.434,0,0,0,.423-.445v0a.438.438,0,0,0-.445-.421m-1.4.043a.434.434,0,0,0-.421.445.425.425,0,0,0,.435.416h.011a.431.431,0,0,0,.419-.443.431.431,0,0,0-.443-.418h0m-19.825-3.066.162,7.85a1.64,1.64,0,0,0,1.932,1.663l.391-.012-.093-10.626c-1.309-.067-2.4.026-2.392,1.126" transform="translate(1993.821 3062.099)"/></g></g></g></svg>