<svg xmlns="http://www.w3.org/2000/svg" width="49" height="48" viewBox="0 0 49 48"><defs><style>.a{fill:#63b2e9;}.b{fill:#fff;}</style></defs><g transform="translate(-965 -1032)"><g transform="translate(965 1032)"><g transform="translate(0 0)"><ellipse class="a" cx="24.5" cy="24" rx="24.5" ry="24" transform="translate(0 -0.001)"/><path class="b" d="M-12.151-31.48a5.788,5.788,0,0,1,.92-3.367A17.99,17.99,0,0,1-8.55-37.783a15.623,15.623,0,0,0,1.9-1.977,2.94,2.94,0,0,0,.607-1.82A2.685,2.685,0,0,0-7.2-43.87a5.1,5.1,0,0,0-3.073-.842,6.829,6.829,0,0,0-3.269.763,6.967,6.967,0,0,0-2.408,2.133l-4.737-2.779a10.965,10.965,0,0,1,4.443-3.876,14.944,14.944,0,0,1,6.635-1.37,12.293,12.293,0,0,1,7.223,1.918A6.154,6.154,0,0,1,.337-42.6a7.007,7.007,0,0,1-.528,2.819,7.464,7.464,0,0,1-1.292,2.055q-.763.842-1.977,1.938a16.451,16.451,0,0,0-2.114,2.173A3.437,3.437,0,0,0-6.24-31.48Zm2.975,9.826a3.712,3.712,0,0,1-2.682-1.037,3.374,3.374,0,0,1-1.077-2.525A3.279,3.279,0,0,1-11.877-27.7a3.776,3.776,0,0,1,2.7-1,3.776,3.776,0,0,1,2.7,1,3.279,3.279,0,0,1,1.057,2.486,3.374,3.374,0,0,1-1.077,2.525A3.712,3.712,0,0,1-9.176-21.654Z" transform="translate(33.533 60.571)"/></g></g></g></svg>