<svg xmlns="http://www.w3.org/2000/svg" width="72.292" height="72.292" viewBox="0 0 72.292 72.292"><defs><style>.a{fill:#63b2e9;}.b{fill:#3c62af;}.c{fill:#10995b;}.d{fill:#56cc81;}.e{fill:#222a63;}.f{fill:#3c4b9b;}.g{fill:#fff;}.h{fill:#0133a1;}</style></defs><g transform="translate(0 0)"><g transform="translate(0 0)"><circle class="a" cx="25.559" cy="25.559" r="25.559" transform="translate(0 36.146) rotate(-45)"/><rect class="b" width="3.452" height="3.452" rx="1.726" transform="translate(37.52 36.943)"/><path class="c" d="M70.946,298.118h6.5a14.647,14.647,0,0,1,6.374,1.459l10.892,5.264,8.24,1.59a6.489,6.489,0,0,1,5.259,6.371v2.23a2.358,2.358,0,0,1-2.358,2.358h-34.9Z" transform="translate(-56.221 -267.388)"/><path class="d" d="M41.607,306.432l-8.24-1.59-10.892-5.264a14.647,14.647,0,0,0-6.374-1.459H12.794a25.632,25.632,0,0,0,3.5,19.273H44.509a2.358,2.358,0,0,0,2.358-2.358V312.8A6.489,6.489,0,0,0,41.607,306.432Z" transform="translate(-1.632 -267.388)"/><ellipse class="e" cx="4.695" cy="4.695" rx="4.695" ry="4.695" transform="translate(29.232 42.98)"/><path class="b" d="M297.246,488.874h-.258a3.255,3.255,0,1,1-.954-2.3,3.244,3.244,0,0,1,.954,2.3h.516a3.771,3.771,0,1,0-1.1,2.667,3.761,3.761,0,0,0,1.1-2.667Z" transform="translate(-259.806 -441.199)"/><path class="e" d="M413.661,571.7a4.7,4.7,0,0,0,8.156,0Z" transform="translate(-374.791 -521.697)"/><path class="e" d="M175.9,317.826l-9.683-4.681a10.014,10.014,0,0,0-4.479-1l-2.291.028,11.805,5.707Z" transform="translate(-138.489 -280.429)"/><path class="f" d="M554.324,452.319a2.8,2.8,0,0,0-2.109,2.721,27.679,27.679,0,0,1,3.135-.575A6.484,6.484,0,0,0,554.324,452.319Z" transform="translate(-503.583 -410.725)"/><path class="f" d="M518.733,515.591h3.581a.582.582,0,0,1,.582.582v.192a1.581,1.581,0,0,1-1.581,1.581h-1.584a1.581,1.581,0,0,1-1.581-1.581v-.192A.582.582,0,0,1,518.733,515.591Z" transform="translate(-471.919 -469.54)"/><path class="c" d="M53.6,393.552v10.782h.258V393.552" transform="translate(-40.096 -356.099)"/><line x2="0.997" transform="translate(15.124 39.465)"/><path class="c" d="M73.212,418.964h1a.258.258,0,1,0,0-.516h-1a.258.258,0,0,0,0,.516" transform="translate(-58.088 -379.241)"/><path class="b" d="M29.984,319.465l-7.818-3.779a14.647,14.647,0,0,0-6.374-1.46H12.921c-.115,0-.231,0-.346.005a25.731,25.731,0,0,0-.356,4.277q0,.657.033,1.307H29.9A.185.185,0,0,0,29.984,319.465Z" transform="translate(-1.632 -282.362)"/><path class="e" d="M53.6,314.227v5.589h.258v-5.589" transform="translate(-40.096 -282.363)"/><path class="f" d="M487.4,451.855a2.786,2.786,0,0,0-2.27-2.751c-.557-.09-1.023-.156-1.43-.211a6.484,6.484,0,0,1,1.233,2.477C485.484,451.452,486.234,451.589,487.4,451.855Z" transform="translate(-439.9 -407.541)"/><path class="g" d="M440.942,443.286a15.134,15.134,0,0,0,2.495.43,6.485,6.485,0,0,0-1.233-2.477,16.9,16.9,0,0,1-3.145-.58A2.638,2.638,0,0,0,440.942,443.286Z" transform="translate(-398.399 -399.887)"/><path class="e" d="M94.684,605.3a25.561,25.561,0,0,0,39.5,0Z" transform="translate(-78.287 -552.93)"/><path class="c" d="M67.463,406.251v9.638H54.31q.069.129.139.258H67.592a.129.129,0,0,0,.129-.129v-9.9h-.258Z" transform="translate(-40.758 -367.783)"/><rect class="e" width="3.619" height="2.046" rx="1.023" transform="translate(25.459 36.422)"/></g><g transform="translate(37.82 20.389)"><path class="h" d="M-1131.434-3322.472v13.136a.094.094,0,0,1-.14.081,10.9,10.9,0,0,1-5.1-6.519,20.974,20.974,0,0,1-.712-5.707.33.33,0,0,1,.29-.312Z" transform="translate(1137.397 3322.472)"/><path class="h" d="M-915.218-3322.472v13.136a.094.094,0,0,0,.14.081,10.9,10.9,0,0,0,5.1-6.519,20.97,20.97,0,0,0,.711-5.707.329.329,0,0,0-.29-.312Z" transform="translate(921.181 3322.472)"/></g><path class="g" d="M.667-8.3h-1.98v1.935H-2.781V-8.3H-4.75V-9.685h1.969V-11.62h1.468v1.935H.667Z" transform="translate(45.697 35.002)"/></g></svg>