<svg xmlns="http://www.w3.org/2000/svg" xmlns:xlink="http://www.w3.org/1999/xlink" width="131.816" height="25.705" viewBox="0 0 131.816 25.705"><defs><style>.a{fill:#fff;}.b{clip-path:url(#a);}.c{clip-path:url(#b);}.d{clip-path:url(#c);}.e{clip-path:url(#e);}.f{clip-path:url(#g);}.g{clip-path:url(#i);}.h{clip-path:url(#k);}.i{clip-path:url(#m);}.j{clip-path:url(#o);}.k{clip-path:url(#q);}.l{clip-path:url(#s);}</style><clipPath id="a"><path class="a" d="M940.751-442.111v4.473c-2.178.394-3.428-.3-3.476-2.411-.07-3.036-.116-6.072.046-9.084.186-3.523,2.132-5.887,5.053-6.442a5.868,5.868,0,0,1,7.022,3.639,9.139,9.139,0,0,1-.58,8.459C947.154-441.02,944.534-440.556,940.751-442.111Zm5.887-6.326a13.335,13.335,0,0,0-.208-1.668,2.735,2.735,0,0,0-2.758-2.364,2.6,2.6,0,0,0-2.757,2.318,8.419,8.419,0,0,0-.231,2.526c.231,2.178,1.645,3.662,3.267,3.592,1.674-.091,2.693-1.621,2.693-4.4Z" transform="translate(-937.211 455.775)"/></clipPath><clipPath id="b"><path class="a" d="M447,350.3H2503.5V-935H447Z" transform="translate(-447 935)"/></clipPath><clipPath id="c"><path class="a" d="M934.181-448.638c-.023,4.473-2.271,7.253-5.54,7.253-4.728-.023-7.185-2.456-7.141-7.045.046-4.079,2.271-6.906,5.7-7.283a6.175,6.175,0,0,1,7.045,4.96A4.388,4.388,0,0,1,934.181-448.638Zm-3.152.347c0-2.8-1.067-4.4-3.014-4.473-1.9-.07-3.106,1.529-3.129,4.1-.023,2.781,1.112,4.284,3.2,4.284,1.948-.019,2.945-1.317,2.945-3.913Z" transform="translate(-921.5 455.791)"/></clipPath><clipPath id="e"><path class="a" d="M884.778-441.56h-3.222c0-3.175-.232-6.284.07-9.317.324-3.285,2.966-5.053,6.559-4.867a5.581,5.581,0,0,1,5.631,5.427c.162,2.856.023,5.724.023,8.569a5.314,5.314,0,0,1-3.285.046c0-2.456.046-4.937,0-7.393-.046-2.5-1.02-3.732-2.874-3.777s-2.827,1.158-2.873,3.713C884.732-446.678,884.778-444.2,884.778-441.56Z" transform="translate(-881.471 455.757)"/></clipPath><clipPath id="g"><path class="a" d="M901.42-446.96c1.067,3.013,2.642,3.546,7.23,2.665.788,1.876-.023,2.735-1.856,2.989-3.036.44-5.794-.116-7.672-2.758a7.569,7.569,0,0,1-.279-8.39,6.192,6.192,0,0,1,6.442-3.285,5.25,5.25,0,0,1,4.264,2.479c1.9,2.989.673,5.631-2.828,6C905.035-447.03,903.344-447.057,901.42-446.96Zm1.529-1.808c2.225-.046,4.31-1.042,4.242-2.109-.093-1.692-1.344-2.109-2.735-2.155A3.176,3.176,0,0,0,901.328-450c.068,1.182.783,1.344,1.622,1.225Z" transform="translate(-897.709 455.81)"/></clipPath><clipPath id="i"><path class="a" d="M891.881-458.247h3.013c.625,1.042-.07,2.2.464,3.267,1.414.648,3.036-.093,4.636.487.256,3.917-3.082,2.086-4.82,2.966v4.126c0,4.009.51,4.45,4.57,4.1.714,1.947-.093,2.9-2.016,3.152-3.222.394-5.678-1.391-5.794-4.57C891.765-449.138,891.881-453.566,891.881-458.247Z" transform="translate(-891.842 458.247)"/></clipPath><clipPath id="k"><path class="a" d="M923.971-444.534c.6,1.714-.023,2.5-1.46,2.966a7.415,7.415,0,0,1-8.14-2.456,8.069,8.069,0,0,1,.163-9.154,7.331,7.331,0,0,1,7.973-2.295,2.018,2.018,0,0,1,1.52,1.064,2.02,2.02,0,0,1,.009,1.856c-2.479-.324-5.261-1.251-6.791,1.857a4.658,4.658,0,0,0,.44,5.053C919.335-443.355,921.653-444.047,923.971-444.534Z" transform="translate(-913.027 455.849)"/></clipPath><clipPath id="m"><path class="a" d="M938.7-453.145c-3.129.58-3.5,1-3.546,4.171-.023,2.388,0,4.774,0,7.162a6.12,6.12,0,0,1-3.383.163c.116-3.453-.324-6.906.278-10.314.533-2.989,2.549-4.079,6.3-3.662C938.98-454.883,938.516-453.979,938.7-453.145Z" transform="translate(-931.725 455.71)"/></clipPath><clipPath id="o"><path class="a" d="M880.5-440.613a5.486,5.486,0,0,1-3.059.023v-17.45c.95-.44,1.924-.116,3.059-.255Z" transform="translate(-877.442 458.296)"/></clipPath><clipPath id="q"><path class="a" d="M907.786-441.631c0-3.315-.116-6.4.023-9.478.186-3.476,2.479-5.005,6.427-4.473.672.714.208,1.6.371,2.364-3.268.811-3.5,1.113-3.523,4.427,0,2.248-.023,4.5-.047,6.744,0,.07-.07.143-.186.3a6.277,6.277,0,0,1-3.065.116Z" transform="translate(-907.74 455.685)"/></clipPath><clipPath id="s"><path class="a" d="M879.745-460.985c-7.625,0-14.971-.046-22.341.023-2.2.023-3.315,1.437-3.315,3.917-.023,6.05-.023,12.121,0,18.17a6.635,6.635,0,0,0,.324,3.523c7.283,0,14.578.046,21.85-.023,2.2-.023,3.407-1.437,3.427-3.87C879.767-446.384,879.745-453.522,879.745-460.985Zm-20.211,20.116a2.673,2.673,0,0,1-.093-.417A2.673,2.673,0,0,0,859.534-440.869Zm2.2.487c-.58,0-1.143-.023-1.714-.023.046-4.45.116-8.923.163-13.373,4.473-.765,8.968-1.552,13.441-2.318.023,4.473.046,8.946.07,13.4-3.777.741-7.555,1.46-11.357,2.2-.21.047-.419.093-.6.116Zm12.515-15.181a1.172,1.172,0,0,1,.046.3.44.44,0,0,0-.046-.3Zm4.8,6.351c0,3.106.023,6.234,0,9.34.023-3.106,0-6.234,0-9.34s-.046-6.234.023-9.34c-.069,3.106-.021,6.235-.021,9.34Z" transform="translate(-853.984 461)"/></clipPath></defs><g transform="translate(0 0)"><g class="b" transform="translate(118.859 7.462)"><g class="c" transform="translate(-700.081 -684.387)"><path class="a" d="M932.211-428.252h27.237v-32.524H932.211Z" transform="translate(-239.271 1138.021)"/></g></g><g class="d" transform="translate(96.421 7.44)"><g class="c" transform="translate(-677.643 -684.364)"><path class="a" d="M916.5-432.1h27.126v-28.688H916.5Z" transform="translate(-245.997 1138.015)"/></g></g><g class="e" transform="translate(39.256 7.488)"><g class="c" transform="translate(-620.478 -684.412)"><path class="a" d="M876.471-432.184h26.705v-28.573H876.471Z" transform="translate(-263.134 1138.029)"/></g></g><g class="f" transform="translate(62.446 7.412)"><g class="c" transform="translate(-643.668 -684.337)"><path class="a" d="M892.709-431.889h27.014V-460.81H892.709Z" transform="translate(-256.182 1138.006)"/></g></g><g class="g" transform="translate(54.066 3.932)"><g class="c" transform="translate(-635.288 -680.857)"><path class="a" d="M886.842-430.812h22.447v-32.435H886.842Z" transform="translate(-258.694 1136.963)"/></g></g><g class="h" transform="translate(84.321 7.357)"><g class="c" transform="translate(-665.543 -684.281)"><path class="a" d="M908.027-431.916h25.512v-28.933H908.027Z" transform="translate(-249.624 1137.99)"/></g></g><g class="i" transform="translate(111.024 7.555)"><g class="c" transform="translate(-692.246 -684.48)"><path class="a" d="M926.725-432.2h21.258V-460.71H926.725Z" transform="translate(-241.619 1138.049)"/></g></g><g class="j" transform="translate(33.502 3.862)"><g class="c" transform="translate(-614.724 -680.787)"><path class="a" d="M872.442-431.1h17.34V-463.3h-17.34Z" transform="translate(-264.859 1136.942)"/></g></g><g class="k" transform="translate(76.771 7.591)"><g class="c" transform="translate(-657.993 -684.515)"><path class="a" d="M902.741-432.213h21.154v-28.473H902.741Z" transform="translate(-251.888 1138.06)"/></g></g><g class="l" transform="translate(0)"><g class="c" transform="translate(-581.222 -676.924)"><path class="a" d="M848.984-426.056h40.046V-466H848.984Z" transform="translate(-274.902 1135.784)"/></g></g></g></svg>