<svg xmlns="http://www.w3.org/2000/svg" xmlns:xlink="http://www.w3.org/1999/xlink" width="340.567" height="27.325" viewBox="0 0 340.567 27.325"><defs><style>.a,.b{fill:none;}.a{clip-rule:evenodd;}.c{clip-path:url(#a);}.d{clip-path:url(#b);}.e{fill:#00aded;}.f{clip-path:url(#c);}.g{clip-path:url(#e);}.h{clip-path:url(#g);}.i{clip-path:url(#i);}.j{clip-path:url(#k);}.k{clip-path:url(#m);}.l{clip-path:url(#o);}.m{isolation:isolate;}.n{clip-path:url(#q);}.o{clip-path:url(#r);}.p{clip-path:url(#s);}.q,.s{fill:#0854c4;}.r{clip-path:url(#t);}.s{stroke:#0854c4;stroke-width:0.5px;font-size:20px;font-family:OmnesMedium, Omnes;}</style><clipPath id="a"><path class="a" d="M633.478-917.11h-3.255l.011,13.181c.018,3.345,1.667,5.317,5.225,5.336,1.512,0,2.42-.505,2.793-1.309v-2.076a5.891,5.891,0,0,1-2.367.383,2.307,2.307,0,0,1-1.778-.65,3.043,3.043,0,0,1-.63-2.119v-6.168h2.851a1.762,1.762,0,0,0,1.983-1.582v-1.335h-4.834Zm-11.8,3.661c-4.391,0-6.3,3.072-6.317,6.087v8.519h3.271v-8.274a3.884,3.884,0,0,1,.759-2.51,2.5,2.5,0,0,1,1.995-.905,2.81,2.81,0,0,1,2.247.895,4.191,4.191,0,0,1,.8,2.788v8.007H627.7v-8.326c-.007-4.056-2.71-6.271-6.022-6.28Zm-12.161,14.606H612.8V-917.11h-3.289Zm43.336-9.068,0,9.068h3.294v-8.417a3.779,3.779,0,0,1,.671-2.479,2.4,2.4,0,0,1,1.949-.776,5.219,5.219,0,0,1,.9.074v-2.667a3.6,3.6,0,0,0-1.667-.35c-3.691.006-5.132,2.677-5.144,5.546Zm-5.69.753a11.181,11.181,0,0,1-3.39.323h-1.752l.01-.155.026-.489a3.236,3.236,0,0,1,3.152-3.244,3.361,3.361,0,0,1,2.063.578,2.119,2.119,0,0,1,.8,1.755,1.194,1.194,0,0,1-.906,1.232Zm-1.635-6.291c-4.017,0-6.864,2.962-6.877,7.764a6.919,6.919,0,0,0,6.9,7.092c2.076,0,3.365-.331,4.116-.958v-2.429a7.81,7.81,0,0,1-3.452.709c-2.149.006-3.879-1.2-4.16-3.123l-.024-.171h2.51a11.96,11.96,0,0,0,5.074-.749,2.642,2.642,0,0,0,1.506-2.641,5.431,5.431,0,0,0-5.6-5.493Z" transform="translate(-609.514 917.11)"/></clipPath><clipPath id="b"><path class="b" d="M447-140.932H1717.509V-935H447Z" transform="translate(-447 935)"/></clipPath><clipPath id="c"><path class="a" d="M684.542-906.347l.012-.155.023-.489a3.237,3.237,0,0,1,3.149-3.244,3.351,3.351,0,0,1,2.066.578,2.1,2.1,0,0,1,.8,1.755,1.192,1.192,0,0,1-.9,1.232,11.176,11.176,0,0,1-3.391.323Zm7.594,1.52a2.642,2.642,0,0,0,1.507-2.641,5.431,5.431,0,0,0-5.594-5.493c-4.018,0-6.867,2.962-6.877,7.764a6.918,6.918,0,0,0,6.9,7.092c2.077,0,3.369-.331,4.12-.958v-2.429a7.822,7.822,0,0,1-3.453.709c-2.151.006-3.88-1.195-4.162-3.123l-.023-.171h2.51a11.938,11.938,0,0,0,5.072-.749Z" transform="translate(-681.172 912.96)"/></clipPath><clipPath id="e"><path class="a" d="M729.632-907.423v9.068h3.3v-8.417a3.776,3.776,0,0,1,.672-2.479,2.4,2.4,0,0,1,1.948-.776,5.184,5.184,0,0,1,.9.074v-2.667a3.6,3.6,0,0,0-1.669-.35c-3.689.006-5.13,2.677-5.145,5.546" transform="translate(-729.632 912.97)"/></clipPath><clipPath id="g"><path class="a" d="M672.553-898.17c-2.4,0-4.2-1.343-4.2-2.791v-1.609h.121a6.187,6.187,0,0,0,3.926,1.345c1.6,0,2.376-.5,2.376-1.558,0-.816-.461-1.209-2.718-1.553-2.76-.421-4.092-1.607-4.092-3.767,0-2.663,2.2-4.928,5.548-4.928,2.963,0,4.172,1.658,4.172,3.029v1.343h-.121a5.431,5.431,0,0,0-3.732-1.314c-1.99,0-2.619.655-2.619,1.579,0,.712.389,1,2.619,1.4,2.71.476,4.167,1.766,4.167,4.032,0,3-1.94,4.795-5.449,4.795" transform="translate(-667.969 913.03)"/></clipPath><clipPath id="i"><path class="a" d="M700.3-906.182c0,1.863,1.049,3.248,2.619,3.248,1.639,0,2.815-1.331,2.815-3.62,0-2.235-1.032-3.328-2.471-3.328-1.688,0-2.964,1.546-2.964,3.7m8.7,3.767c.024.579.052,1.344.052,1.817,0,3.557-2.182,6.745-6.4,6.745-2.692,0-4.534-1.42-4.534-3.108v-1.608h.145a5.51,5.51,0,0,0,4.148,1.528c2.348,0,3.413-1.211,3.413-3.267,0-.208,0-.5-.023-.739,0-.208-.022-.579-.022-.709v-.341a3.332,3.332,0,0,1-3.369,2.106c-3.178,0-5.431-2.4-5.431-5.746,0-4,2.42-7.246,6.639-7.246,3.251,0,5.332,2.583,5.332,6.221v2.423c0,.475.024,1.29.049,1.924" transform="translate(-696.983 912.984)"/></clipPath><clipPath id="k"><path class="a" d="M744.519-910.049c-1.987,0-3,1.757-3,4.2,0,2.936,1.011,4.7,3.3,4.7,2.015,0,3-1.76,3-4.176,0-2.965-1.034-4.722-3.3-4.722m.3-2.981c4.013,0,6.321,3.424,6.321,7.195,0,4.267-2.308,7.666-6.619,7.666-4.014,0-6.32-3.4-6.32-7.166,0-4.27,2.307-7.694,6.619-7.694" transform="translate(-738.201 913.03)"/></clipPath><clipPath id="m"><path class="a" d="M719.147-898.031a5.876,5.876,0,0,0,6.294-6.109v-8.548h-3.257v8.3a3.912,3.912,0,0,1-.758,2.515,2.484,2.484,0,0,1-1.987.911,2.8,2.8,0,0,1-2.242-.9,4.219,4.219,0,0,1-.8-2.8l0-8.033h-3.256v8.357c.008,4.072,2.7,6.292,6,6.3" transform="translate(-713.144 912.689)"/></clipPath><clipPath id="o"><path class="a" d="M575-921.544h25.532v26.083H575Z" transform="translate(-575 921.544)"/></clipPath><clipPath id="q"><rect class="b" width="25" height="27" transform="translate(0 0)"/></clipPath><clipPath id="r"><path class="a" d="M594.566-902.719l-13.6,2.512v-14.032l13.6-2.512Zm-16.157-18.825a3.454,3.454,0,0,0-3.409,3.5v22.584h22.118a3.457,3.457,0,0,0,3.411-3.5l0-22.581Z" transform="translate(-575 921.544)"/></clipPath><clipPath id="s"><path class="b" d="M575-894.649h25.587V-922H575Z" transform="translate(-575 922)"/></clipPath><clipPath id="t"><path class="a" d="M768.882-921a.882.882,0,0,1,.882.882V-896.3a.882.882,0,0,1-.882.882A.882.882,0,0,1,768-896.3v-23.822A.882.882,0,0,1,768.882-921Z" transform="translate(-768 921)"/></clipPath></defs><g transform="translate(0 0.24)"><g class="c" transform="translate(30.451 4.315)"><g class="d" transform="translate(-143.385 -15.784)"><path class="e" d="M604.514-894.771h58.97V-922.11h-58.97Z" transform="translate(-465.54 933.483)"/></g></g><g class="f" transform="translate(93.675 7.976)"><g class="d" transform="translate(-206.61 -19.445)"><path class="e" d="M676.172-894.282h21.294v-23.678H676.172Z" transform="translate(-473.974 932.994)"/></g></g><g class="g" transform="translate(136.432 7.967)"><g class="d" transform="translate(-249.366 -19.437)"><path class="e" d="M724.632-894.532h15.637V-917.97H724.632Z" transform="translate(-479.678 932.995)"/></g></g><g class="h" transform="translate(82.027 7.914)"><g class="d" transform="translate(-194.961 -19.384)"><path class="e" d="M662.969-894.347h18.856V-918.03H662.969Z" transform="translate(-472.42 933.003)"/></g></g><g class="i" transform="translate(107.626 7.955)"><g class="d" transform="translate(-220.56 -19.425)"><path class="e" d="M691.983-890.03h20.9v-27.954h-20.9Z" transform="translate(-475.835 932.997)"/></g></g><g class="j" transform="translate(143.992 7.914)"><g class="d" transform="translate(-256.926 -19.384)"><path class="e" d="M733.2-894.347h21.763V-918.03H733.2Z" transform="translate(-480.686 933.003)"/></g></g><g class="k" transform="translate(121.884 8.215)"><g class="d" transform="translate(-234.818 -19.685)"><path class="e" d="M708.144-894.208h21.121v-23.481H708.144Z" transform="translate(-477.737 932.962)"/></g></g><g class="l" transform="translate(0 0.402)"><g class="d" transform="translate(-112.934 -11.872)"><g class="m" transform="translate(113.151 11.73)"><g class="n" transform="translate(0 0)"><g class="o" transform="translate(-0.217 0.142)"><g class="p" transform="translate(0 -0.402)"><path class="q" d="M570-891.638h34.355v-34.906H570Z" transform="translate(-574.411 922.535)"/></g></g></g></g></g></g><g class="r" transform="translate(170.283 0.882)"><g class="d" transform="translate(-283.218 -12.352)"><path class="q" d="M763-891.59h10.588V-926H763Z" transform="translate(-484.194 933.941)"/></g></g><g transform="translate(185.217 0.26)"><text class="s" transform="translate(0 19)"><tspan x="0" y="0">Seguro Vehicular</tspan></text></g></g></svg>