<svg xmlns="http://www.w3.org/2000/svg" width="92.277" height="18" viewBox="0 0 92.277 18"><defs><style>.a{fill:#515154;}.b{fill:#04499a;}</style></defs><g transform="translate(-14.45 -13.735)"><path class="a" d="M529.7,55.7v3.132c-1.525.276-2.4-.211-2.434-1.688-.049-2.126-.081-4.252.032-6.361.13-2.467,1.493-4.122,3.538-4.511a4.109,4.109,0,0,1,4.917,2.548,6.4,6.4,0,0,1-.406,5.923C534.183,56.464,532.349,56.789,529.7,55.7Zm4.122-4.43a9.318,9.318,0,0,0-.146-1.168,1.915,1.915,0,0,0-1.931-1.655,1.817,1.817,0,0,0-1.931,1.623,5.9,5.9,0,0,0-.162,1.769c.162,1.525,1.152,2.564,2.288,2.515C533.112,54.29,533.826,53.219,533.826,51.271Z" transform="translate(-429.56 -27.172)"/><path class="a" d="M439.275,50.984c-.016,3.132-1.59,5.079-3.879,5.079-3.311-.016-5.031-1.72-5-4.933.032-2.856,1.59-4.836,3.992-5.1a4.324,4.324,0,0,1,4.933,3.473A3.071,3.071,0,0,1,439.275,50.984Zm-2.207.243c0-1.964-.747-3.083-2.11-3.132-1.331-.049-2.175,1.071-2.191,2.872-.016,1.947.779,3,2.239,3C436.37,53.954,437.068,53.045,437.068,51.227Z" transform="translate(-348.446 -27.031)"/><path class="a" d="M186.048,55.984h-2.256c0-2.223-.162-4.4.049-6.524.227-2.3,2.077-3.538,4.593-3.408a3.908,3.908,0,0,1,3.943,3.8c.114,2,.016,4.008.016,6a3.72,3.72,0,0,1-2.3.032c0-1.72.032-3.457,0-5.177-.032-1.753-.714-2.613-2.012-2.645s-1.98.811-2.012,2.6C186.016,52.4,186.048,54.134,186.048,55.984Z" transform="translate(-141.811 -27.065)"/><path class="a" d="M286.417,52.068c.747,2.11,1.85,2.483,5.063,1.866.552,1.314-.016,1.915-1.3,2.093-2.126.308-4.057-.081-5.372-1.931a5.3,5.3,0,0,1-.195-5.875,4.336,4.336,0,0,1,4.511-2.3,3.676,3.676,0,0,1,2.986,1.736c1.331,2.093.471,3.943-1.98,4.2C288.948,52.019,287.764,52,286.417,52.068Zm1.071-1.266c1.558-.032,3.018-.73,2.97-1.477-.065-1.185-.941-1.477-1.915-1.509a2.224,2.224,0,0,0-2.191,2.126C286.4,50.77,286.9,50.883,287.488,50.8Z" transform="translate(-225.659 -26.946)"/><path class="a" d="M247.655,30.7h2.11c.438.73-.049,1.542.325,2.288.99.454,2.126-.065,3.246.341.179,2.743-2.158,1.461-3.375,2.077v2.889c0,2.807.357,3.116,3.2,2.872.5,1.363-.065,2.029-1.412,2.207-2.256.276-3.976-.974-4.057-3.2C247.574,37.078,247.655,33.978,247.655,30.7Z" transform="translate(-195.336 -14.212)"/><path class="a" d="M385.855,53.474c.422,1.2-.016,1.753-1.022,2.077a5.192,5.192,0,0,1-5.7-1.72,5.65,5.65,0,0,1,.114-6.41,5.133,5.133,0,0,1,5.583-1.607,1.414,1.414,0,0,1,1.071,2.045c-1.736-.227-3.684-.876-4.755,1.3a3.262,3.262,0,0,0,.308,3.538C382.609,54.3,384.232,53.815,385.855,53.474Z" transform="translate(-304.715 -26.665)"/><path class="a" d="M498.279,48.127c-2.191.406-2.451.7-2.483,2.921-.016,1.672,0,3.343,0,5.015a4.286,4.286,0,0,1-2.369.114c.081-2.418-.227-4.836.195-7.222.373-2.093,1.785-2.856,4.414-2.564C498.474,46.91,498.149,47.543,498.279,48.127Z" transform="translate(-401.219 -27.306)"/><path class="a" d="M161.042,42.782a3.842,3.842,0,0,1-2.142.016V30.579c.665-.308,1.347-.081,2.142-.179Z" transform="translate(-121.008 -13.961)"/><path class="a" d="M345.636,56.3c0-2.321-.081-4.479.016-6.637.13-2.434,1.736-3.505,4.5-3.132.471.5.146,1.12.26,1.655-2.288.568-2.45.779-2.467,3.1,0,1.574-.016,3.148-.033,4.722,0,.049-.049.1-.13.211A4.394,4.394,0,0,1,345.636,56.3Z" transform="translate(-277.414 -27.409)"/><path class="b" d="M32.472,13.745c-5.339,0-10.483-.032-15.644.016-1.542.016-2.321,1.006-2.321,2.743-.016,4.236-.016,8.487,0,12.723a4.646,4.646,0,0,0,.227,2.467c5.1,0,10.208.032,15.3-.016,1.542-.016,2.386-1.006,2.4-2.71C32.488,23.969,32.472,18.971,32.472,13.745ZM18.32,27.831a1.887,1.887,0,0,1-.065-.292A1.887,1.887,0,0,0,18.32,27.831Zm1.542.341c-.406,0-.8-.016-1.2-.016.032-3.116.081-6.248.114-9.364,3.132-.536,6.28-1.087,9.412-1.623.016,3.132.032,6.264.049,9.38-2.645.519-5.29,1.022-7.952,1.542C20.138,28.124,19.992,28.156,19.862,28.172Zm8.763-10.63a.822.822,0,0,1,.032.211A.309.309,0,0,0,28.625,17.543Zm3.359,4.447c0,2.175.016,4.365,0,6.54.016-2.175,0-4.365,0-6.54s-.032-4.365.016-6.54C31.952,17.624,31.985,19.815,31.985,21.989Z" transform="translate(0)"/></g></svg>