<svg xmlns="http://www.w3.org/2000/svg" width="16.036" height="20.307" viewBox="0 0 16.036 20.307"><defs><style>.a{fill:#0855c4;}</style></defs><path class="a" d="M414.358,98.5c-7.484-1.245-12.676-8.779-11.579-16.8,0-.024.005-.048.009-.072l0-.022a3.787,3.787,0,0,1,4.264-3.318l.025,0,.029,0a3.588,3.588,0,0,1,1.25.46.415.415,0,0,1,.2.333l.361,6.016a.423.423,0,0,1-.154.357,3.6,3.6,0,0,1-1.543.722,10.272,10.272,0,0,0,4.432,6.441,3.9,3.9,0,0,1,1.125-1.349.364.364,0,0,1,.359-.048l5.2,2.138a.4.4,0,0,1,.236.29,3.846,3.846,0,0,1,.083.59,4.265,4.265,0,0,1-.033.912A3.785,3.785,0,0,1,414.358,98.5Z" transform="translate(-402.633 -78.243)"/></svg>