<svg xmlns="http://www.w3.org/2000/svg" xmlns:xlink="http://www.w3.org/1999/xlink" width="642.271" height="391.07" viewBox="0 0 642.271 391.07"><defs><style>.a{fill:none;}.b{clip-path:url(#a);}.c,.k{fill:#fff;}.d{opacity:0.42;}.e{fill:#50acff;}.f{fill:#fdfdfd;}.g{fill:#ea0c90;}.h{fill:#40e262;}.i{fill:#ffde6e;}.j{fill:#57c3ff;}.k{fill-rule:evenodd;}</style><clipPath id="a"><circle class="a" cx="34.481" cy="34.481" r="34.481" transform="translate(0 16.84) rotate(-14.134)"/></clipPath></defs><g transform="translate(-704 -97.623)"><g transform="translate(-2402.295 -1194.008)"><g transform="translate(3580.423 1329.639)"><g class="b" transform="translate(0 0)"><g transform="translate(-54.21 -56.267)"><g transform="translate(63.637 0)"><rect class="c" width="0.969" height="173.887" transform="translate(0 0.62) rotate(-39.763)"/></g><g transform="translate(60.87 2.303)"><rect class="c" width="0.969" height="173.887" transform="translate(0 0.62) rotate(-39.763)"/></g><g transform="translate(58.103 4.604)"><rect class="c" width="0.969" height="173.887" transform="translate(0 0.62) rotate(-39.763)"/></g><g transform="translate(55.337 6.907)"><rect class="c" width="0.969" height="173.887" transform="translate(0 0.62) rotate(-39.763)"/></g><g transform="translate(52.569 9.209)"><rect class="c" width="0.969" height="173.887" transform="translate(0 0.62) rotate(-39.763)"/></g><g transform="translate(49.803 11.511)"><rect class="c" width="0.969" height="173.887" transform="translate(0 0.62) rotate(-39.763)"/></g><g transform="translate(47.036 13.813)"><rect class="c" width="0.969" height="173.887" transform="translate(0 0.62) rotate(-39.763)"/></g><g transform="translate(44.269 16.116)"><rect class="c" width="0.969" height="173.887" transform="translate(0 0.62) rotate(-39.763)"/></g><g transform="translate(41.503 18.418)"><rect class="c" width="0.969" height="173.887" transform="translate(0 0.62) rotate(-39.763)"/></g><g transform="translate(38.735 20.72)"><rect class="c" width="0.969" height="173.887" transform="translate(0 0.62) rotate(-39.763)"/></g><g transform="translate(35.968 23.023)"><rect class="c" width="0.969" height="173.887" transform="translate(0 0.62) rotate(-39.763)"/></g><g transform="translate(33.202 25.324)"><rect class="c" width="0.969" height="173.887" transform="translate(0 0.62) rotate(-39.763)"/></g><g transform="translate(30.435 27.627)"><rect class="c" width="0.969" height="173.887" transform="translate(0 0.62) rotate(-39.763)"/></g><g transform="translate(27.668 29.929)"><rect class="c" width="0.969" height="173.886" transform="matrix(0.769, -0.64, 0.64, 0.769, 0, 0.62)"/></g><g transform="translate(24.901 32.231)"><rect class="c" width="0.969" height="173.887" transform="translate(0 0.62) rotate(-39.763)"/></g><g transform="translate(22.134 34.533)"><rect class="c" width="0.969" height="173.887" transform="translate(0 0.62) rotate(-39.763)"/></g><g transform="translate(19.368 36.835)"><rect class="c" width="0.969" height="173.887" transform="translate(0 0.62) rotate(-39.763)"/></g><g transform="translate(16.601 39.138)"><rect class="c" width="0.969" height="173.887" transform="translate(0 0.62) rotate(-39.763)"/></g><g transform="translate(13.834 41.44)"><rect class="c" width="0.969" height="173.886" transform="matrix(0.769, -0.64, 0.64, 0.769, 0, 0.62)"/></g><g transform="translate(11.067 43.743)"><rect class="c" width="0.969" height="173.887" transform="translate(0 0.62) rotate(-39.763)"/></g><g transform="translate(8.3 46.044)"><rect class="c" width="0.969" height="173.887" transform="translate(0 0.62) rotate(-39.763)"/></g><g transform="translate(5.533 48.347)"><rect class="c" width="0.969" height="173.887" transform="translate(0 0.62) rotate(-39.763)"/></g><g transform="translate(2.767 50.649)"><rect class="c" width="0.969" height="173.887" transform="translate(0 0.62) rotate(-39.763)"/></g><g transform="translate(0 52.951)"><rect class="c" width="0.969" height="173.886" transform="matrix(0.769, -0.64, 0.64, 0.769, 0, 0.62)"/></g></g></g></g><g class="d" transform="translate(3170.995 1590.236)"><path class="c" d="M3193.985,1642.7a6.517,6.517,0,1,1-6.517-6.516A6.516,6.516,0,0,1,3193.985,1642.7Z" transform="translate(-3180.951 -1636.183)"/></g><g transform="translate(3348.508 1420.561)"><path class="c" d="M3391.9,1452.645a6.122,6.122,0,1,1,6.122-6.123A6.13,6.13,0,0,1,3391.9,1452.645Zm0-9.583a3.46,3.46,0,1,0,3.459,3.46A3.464,3.464,0,0,0,3391.9,1443.062Z" transform="translate(-3385.778 -1440.4)"/></g><g transform="translate(3266.776 1291.631)"><g transform="translate(0 0)"><circle class="e" cx="25.456" cy="25.456" r="25.456" transform="translate(0 50.335) rotate(-81.372)"/></g><g transform="translate(20.253 12.392)"><path class="f" d="M3331.2,1321.143h-.262a2.331,2.331,0,1,0,0-4.663h-7.478c.923-1.453,2.173-3.769,2.173-5.661,0-3-1.641-4.663-2.712-4.853a1.837,1.837,0,0,0-2.165,1.284c-.309.9.238,2.617.027,3.229-.327.943-1.977,2.2-4.213,5.073a8.627,8.627,0,0,0-1.713,5.59v10.2a1.455,1.455,0,0,0,1.452,1.451H3330.2a1.689,1.689,0,1,0,0-3.377h.238a2.07,2.07,0,1,0,0-4.139h.761a2.07,2.07,0,1,0,0-4.139Z" transform="translate(-3314.839 -1305.93)"/></g></g><g transform="translate(3112.611 1444.865)"><g transform="translate(114.182)"><path class="e" d="M3264.068,1468.443h30.685c6.628,0,10.841,5.373,9.409,12l-3.861,17.88c-1.433,6.629-7.964,12-14.594,12h-30.685c-6.628,0-10.841-5.373-9.409-12l3.861-17.88C3250.906,1473.815,3257.439,1468.443,3264.068,1468.443Z" transform="translate(-3245.334 -1468.443)"/></g><g transform="translate(97.28 49.252)"><g transform="translate(7.807 0.078)"><path class="e" d="M3245.828,1552.863a16.274,16.274,0,0,0,14.844-9.422h-7.232a7.65,7.65,0,0,1-6.4,3.462c-4.039,0-6.157-3-5.127-7.77s4.447-7.769,8.484-7.769a4.6,4.6,0,0,1,4.906,3.461h7.232c-.275-5.846-4.34-9.461-10.764-9.461a17.077,17.077,0,0,0-16.551,13.768C3233.475,1547.209,3237.862,1552.863,3245.828,1552.863Z" transform="translate(-3234.839 -1525.364)"/></g><g transform="translate(37.562 0.385)"><path class="e" d="M3285.554,1541.873c-.69,3.191-2.741,5.035-5.859,5.035s-4.294-1.847-3.6-5.035l3.49-16.154H3273l-3.479,16.112c-1.612,7.462,2.478,11.158,8.748,11.158a13.741,13.741,0,0,0,13.871-11.158l3.479-16.112h-6.582Z" transform="translate(-3269.172 -1525.718)"/></g><g transform="translate(64.222)"><path class="e" d="M3311.22,1552.929c7.644-.031,15.151-6.248,16.769-13.885s-3.267-13.8-10.91-13.769c-7.614.031-15.1,6.2-16.753,13.807-1.794,7.464,2.771,13.663,10.194,13.845C3310.75,1552.933,3310.984,1552.934,3311.22,1552.929Zm4.685-21.692c4.311,0,6.46,3.039,5.422,7.848-1.021,4.73-4.5,7.848-8.811,7.848-4.384,0-6.48-3.113-5.459-7.848,1.035-4.807,4.461-7.848,8.849-7.848Z" transform="translate(-3299.935 -1525.274)"/></g><g transform="translate(96.261 0.385)"><path class="e" d="M3339.359,1552.72h6.577l4.694-21.733h7.158l1.138-5.269h-20.884l-1.138,5.269h7.161Z" transform="translate(-3336.904 -1525.718)"/></g><g transform="translate(113.98 0.386)"><path class="e" d="M3376.962,1547.949l.585,4.769h6.958l-3.936-27h-7.614l-15.606,27.006h6.885l2.645-4.77Zm-1.806-14.964,1.208,9.887h-6.653Z" transform="translate(-3357.349 -1525.719)"/></g><g transform="translate(0 36.231)"><path class="e" d="M3237.986,1584h8.347a8.412,8.412,0,0,1-7.569,4.77c-4.731,0-6.944-2.923-5.865-7.924,1.014-4.69,4.468-7.69,8.7-7.69,2.461,0,4.1.961,4.709,2.77h7.269c-.227-5.538-4.2-8.846-10.665-8.846a17.148,17.148,0,0,0-16.7,13.77c-1.745,8.077,2.726,13.731,10.8,13.731,5.894.168,12.03-3.636,15.014-9.3l1.32-6.115h-14.307Z" transform="translate(-3225.831 -1567.08)"/></g><g transform="translate(27.872 36.535)"><path class="e" d="M3282.95,1575.93c1.013-4.692-1.471-8.5-8.086-8.5h-11.041l-5.831,27h6.576l2.2-10.192h1.576l3.418,10.192h7.423l-3.925-10.694A10.409,10.409,0,0,0,3282.95,1575.93Zm-11.1,3.662h-4.081l1.446-6.692h4.081c2.462,0,3.333,1.3,2.9,3.308a4.024,4.024,0,0,1-4.345,3.383Z" transform="translate(-3257.992 -1567.43)"/></g><g transform="translate(51.18 36.532)"><path class="e" d="M3300.489,1567.427l-15.6,27.006h6.886l2.645-4.77h10.076l.586,4.77h6.958l-3.942-27Zm-3.243,17.154,5.443-9.887,1.207,9.887Z" transform="translate(-3284.886 -1567.427)"/></g><g transform="translate(84.531 36.534)"><path class="e" d="M3323.369,1572.7h7.153l-4.694,21.733h6.577l4.693-21.733h7.158l1.138-5.269h-20.888Z" transform="translate(-3323.369 -1567.429)"/></g><g transform="translate(104.027 36.538)"><path class="e" d="M3351.7,1567.434h6.577l-5.831,27h-6.577Z" transform="translate(-3345.865 -1567.434)"/></g><g transform="translate(116.19 36.154)"><path class="e" d="M3369.6,1574.722a3.077,3.077,0,0,1,3.3-2.461,2.281,2.281,0,0,1,2.552,1.974,2.323,2.323,0,0,1-.028.745h0l-.02.086h7.116c.842-5.154-2.492-8.075-8.37-8.075-5.656,0-10.46,2.846-11.566,7.964-2.144,9.574,11.937,6.886,10.856,11.885-.34,1.576-1.78,2.538-3.7,2.538a2.415,2.415,0,0,1-2.729-2.829v-.008c.011-.081.024-.163.042-.245h-7c-.988,5.462,2.929,8.346,8.735,8.346,6.306,0,10.661-3.769,11.644-8.308C3382.39,1577.3,3368.586,1579.413,3369.6,1574.722Z" transform="translate(-3359.9 -1566.991)"/></g></g><g transform="translate(0 2.002)"><path class="e" d="M3117.728,1562.646c27.562-19.317,56.6-38.48,60.609-57.042,1.726-8-.786-13.127-8.633-13.127-7.694,0-13.526,6.036-15.775,16.452h-24.9c6.524-26.714,26.354-38.175,46.424-38.175,25.05,0,33.056,14.638,29.047,33.2-5.218,24.147-30.968,43.46-51.369,56.891h40.738l-4.532,20.972h-75.754Z" transform="translate(-3113.583 -1470.753)"/></g><g transform="translate(7.534 2.002)"><path class="c" d="M3126.414,1562.646c27.563-19.317,56.6-38.48,60.611-57.042,1.724-8-.787-13.127-8.635-13.127-7.695,0-13.526,6.036-15.775,16.452h-24.9c6.524-26.714,26.354-38.175,46.425-38.175,25.05,0,33.057,14.638,29.048,33.2-5.218,24.147-30.968,43.46-51.371,56.891h40.746l-4.531,20.975h-75.756Z" transform="translate(-3122.276 -1470.753)"/></g><g transform="translate(100.885 49.252)"><g transform="translate(7.804 0.077)"><path class="c" d="M3249.984,1552.863a16.276,16.276,0,0,0,14.844-9.424H3257.6a7.648,7.648,0,0,1-6.4,3.462c-4.038,0-6.158-3-5.126-7.77s4.446-7.769,8.485-7.769a4.6,4.6,0,0,1,4.906,3.462h7.232c-.275-5.846-4.344-9.461-10.766-9.461a17.075,17.075,0,0,0-16.549,13.769C3237.631,1547.208,3242.025,1552.863,3249.984,1552.863Z" transform="translate(-3238.996 -1525.363)"/></g><g transform="translate(37.561 0.385)"><path class="c" d="M3289.713,1541.873c-.69,3.191-2.741,5.035-5.858,5.035s-4.294-1.847-3.6-5.035l3.49-16.154h-6.578l-3.479,16.112c-1.612,7.462,2.478,11.158,8.747,11.158a13.74,13.74,0,0,0,13.871-11.158l3.479-16.112H3293.2Z" transform="translate(-3273.331 -1525.718)"/></g><g transform="translate(64.221)"><path class="c" d="M3315.379,1552.929c7.643-.031,15.15-6.248,16.769-13.885s-3.268-13.8-10.911-13.769c-7.614.031-15.1,6.2-16.753,13.807-1.795,7.464,2.77,13.663,10.2,13.845C3314.911,1552.933,3315.146,1552.933,3315.379,1552.929Zm4.684-21.692c4.312,0,6.461,3.039,5.423,7.848-1.021,4.73-4.5,7.848-8.81,7.848-4.385,0-6.481-3.113-5.459-7.848,1.035-4.807,4.463-7.848,8.848-7.848Z" transform="translate(-3304.094 -1525.274)"/></g><g transform="translate(96.26 0.385)"><path class="c" d="M3343.52,1552.72h6.577l4.694-21.733h7.153l1.139-5.269H3342.2l-1.139,5.269h7.153Z" transform="translate(-3341.062 -1525.718)"/></g><g transform="translate(113.979 0.386)"><path class="c" d="M3381.122,1547.949l.585,4.769h6.957l-3.936-27h-7.615l-15.6,27.006h6.885l2.645-4.77Zm-1.806-14.962,1.207,9.888h-6.653Z" transform="translate(-3361.508 -1525.719)"/></g><g transform="translate(0 36.231)"><path class="c" d="M3242.144,1584h8.348a8.414,8.414,0,0,1-7.569,4.77c-4.73,0-6.944-2.923-5.865-7.924,1.014-4.69,4.469-7.69,8.7-7.69,2.462,0,4.1.961,4.71,2.77h7.27c-.228-5.538-4.2-8.846-10.665-8.846a17.15,17.15,0,0,0-16.7,13.77c-1.745,8.077,2.728,13.731,10.8,13.731,5.894.166,12.03-3.639,15.006-9.307l1.321-6.115h-14.312Z" transform="translate(-3229.991 -1567.08)"/></g><g transform="translate(27.871 36.535)"><path class="c" d="M3287.108,1575.93c1.013-4.692-1.472-8.5-8.088-8.5h-11.039l-5.832,27h6.577l2.2-10.192h1.577l3.419,10.192h7.422l-3.921-10.694A10.41,10.41,0,0,0,3287.108,1575.93Zm-11.1,3.662h-4.077l1.445-6.692h4.077c2.462,0,3.333,1.3,2.9,3.308a4.021,4.021,0,0,1-4.345,3.383Z" transform="translate(-3262.15 -1567.43)"/></g><g transform="translate(51.182 36.532)"><path class="c" d="M3304.648,1567.427l-15.6,27h6.885l2.644-4.769h10.074l.586,4.769h6.958l-3.936-27Zm-3.243,17.154,5.443-9.887,1.207,9.887Z" transform="translate(-3289.048 -1567.427)"/></g><g transform="translate(84.53 36.534)"><path class="c" d="M3327.527,1572.7h7.158l-4.694,21.733h6.577l4.693-21.733h7.159l1.138-5.269h-20.891Z" transform="translate(-3327.527 -1567.429)"/></g><g transform="translate(104.027 36.538)"><path class="c" d="M3355.856,1567.434h6.574l-5.83,27h-6.577Z" transform="translate(-3350.024 -1567.434)"/></g><g transform="translate(116.196 36.15)"><path class="c" d="M3373.757,1574.721a3.077,3.077,0,0,1,3.3-2.461,2.279,2.279,0,0,1,2.55,1.973,2.244,2.244,0,0,1-.028.745h0c-.006.029-.008.06-.014.086h7.116c.843-5.154-2.485-8.077-8.37-8.077-5.654,0-10.46,2.847-11.566,7.965-2.151,9.572,11.936,6.885,10.856,11.885-.34,1.577-1.779,2.538-3.7,2.538a2.416,2.416,0,0,1-2.729-2.83v-.006c.01-.079.023-.16.042-.244h-6.995c-.987,5.457,2.929,8.346,8.736,8.346,6.307,0,10.661-3.769,11.643-8.308C3386.547,1577.3,3372.745,1579.411,3373.757,1574.721Z" transform="translate(-3364.066 -1566.986)"/></g></g><g transform="translate(128.662 6.26)"><path class="c" d="M3270.178,1480.133a4.128,4.128,0,0,1,3.945,2.182l1.436-6.649h4.395l-4.1,19h-4.394l.444-2.057a6.258,6.258,0,0,1-4.9,2.26c-3.519,0-5.7-2.874-4.72-7.394S3266.665,1480.133,3270.178,1480.133Zm.458,3.827a4.154,4.154,0,0,0-3.891,3.519c-.494,2.289.718,3.57,2.36,3.57a4.165,4.165,0,0,0,3.9-3.544c.493-2.288-.7-3.544-2.368-3.544Z" transform="translate(-3262.042 -1475.666)"/><g transform="translate(17.438 4.447)"><path class="c" d="M3290.3,1480.817a3.912,3.912,0,0,1,3.936,2.233l.438-2.026h4.394l-3.093,14.325h-4.394l.438-2.029a6.389,6.389,0,0,1-4.926,2.235c-3.49,0-5.668-2.875-4.692-7.393S3286.776,1480.817,3290.3,1480.817Zm.457,3.827a4.157,4.157,0,0,0-3.892,3.519c-.493,2.289.719,3.57,2.362,3.57a4.165,4.165,0,0,0,3.9-3.544c.493-2.288-.7-3.542-2.369-3.542Z" transform="translate(-3282.163 -1480.797)"/></g></g><g transform="translate(125.428 29.832)"><path class="c" d="M3259.241,1502.865H3291.8l-.931,4.313h-32.556Z" transform="translate(-3258.311 -1502.865)"/></g></g><g transform="translate(3537.872 1355.344)"><circle class="g" cx="6.812" cy="6.812" r="6.812"/></g><g transform="translate(3425.924 1420.686)"><path class="h" d="M3475.973,1442.914l5.91,2.482,4.187-4.852-.535,6.387,5.909,2.483-6.24,1.465-.535,6.387-3.322-5.482-6.241,1.465,4.187-4.852Z" transform="translate(-3475.106 -1440.544)"/></g><g transform="translate(3106.295 1307.821)"><g transform="translate(55.615)"><path class="i" d="M3170.475,1312.167c-.279,1.232,7.409,13.729,9.175,14.128.493.11.391-.514.822-.416,2.052.462-3.39-9.331-4.458-12.074C3174.237,1309.27,3171.047,1309.629,3170.475,1312.167Z" transform="translate(-3170.468 -1310.312)"/></g><g transform="translate(48.25 25.597)"><path class="i" d="M3164.947,1341.889c-.111-.187-1.628-2.207-1.935-2.031C3159.316,1341.99,3166.773,1345.063,3164.947,1341.889Z" transform="translate(-3161.969 -1339.847)"/></g><g transform="translate(22.155 28.87)"><path class="i" d="M3133.813,1343.791a1.944,1.944,0,0,0-1.136-.136,1.024,1.024,0,0,0-.77.647c-.84,2.611,9.581,11.113,12.251,11.976.336.109.55.1.6-.067C3144.949,1355.617,3136.38,1344.618,3133.813,1343.791Z" transform="translate(-3131.859 -1343.624)"/></g><g transform="translate(31.999 56.785)"><path class="i" d="M3143.25,1376.507c-.407,1.264,3.169,5.156,4.014,2.534C3147.718,1377.637,3143.912,1374.45,3143.25,1376.507Z" transform="translate(-3143.218 -1375.834)"/></g><g transform="translate(0 67.557)"><path class="i" d="M3107.018,1388.266c-1.21.34-.466,1.114-.675,1.759-1.07,3.321,16.081,6.118,18.1,5.249.577-.252.883-1.454.409-1.607a.357.357,0,0,1-.164-.347C3124.7,1393.088,3107.437,1388.148,3107.018,1388.266Z" transform="translate(-3106.295 -1388.264)"/></g><g transform="translate(10.598 90.54)"><path class="i" d="M3123.2,1414.929a9.3,9.3,0,0,0-4.146.276c-1.264.815.052,2.977.6,2.625a1.575,1.575,0,0,1,.711.081C3121.811,1418.32,3125.971,1416.244,3123.2,1414.929Z" transform="translate(-3118.524 -1414.784)"/></g></g><g transform="translate(3711.045 1501.042)"><g transform="translate(0 78.476)"><path class="j" d="M3816.528,1632.478c-.143-1.076-10.066-8.863-11.61-8.659-.431.058-.161.53-.538.58-1.792.239,5.513,6.515,7.192,8.408C3814.357,1635.935,3816.822,1634.695,3816.528,1632.478Z" transform="translate(-3804.099 -1623.816)"/></g><g transform="translate(7.769 63.721)"><path class="j" d="M3813.584,1608.107c.146.119,1.97,1.3,2.166,1.062C3818.094,1606.347,3811.166,1606.092,3813.584,1608.107Z" transform="translate(-3813.064 -1606.79)"/></g><g transform="translate(17.212 48.839)"><path class="j" d="M3836.489,1596.609a1.667,1.667,0,0,0,.956-.229.88.88,0,0,0,.428-.752c-.1-2.356-11.037-6.107-13.447-6.007-.3.012-.472.088-.466.233C3823.985,1590.391,3834.172,1596.706,3836.489,1596.609Z" transform="translate(-3823.96 -1589.619)"/></g><g transform="translate(10.891 33.339)"><path class="j" d="M3820.658,1573.666c-.047-1.141-4.091-3.213-3.991-.847C3816.719,1574.086,3820.738,1575.522,3820.658,1573.666Z" transform="translate(-3816.666 -1571.733)"/></g><g transform="translate(20.745 14.854)"><path class="j" d="M3844.413,1553.346c.874-.634.043-1.036.02-1.62-.127-3-14.791-.142-16.157,1.159-.39.375-.278,1.436.149,1.418a.31.31,0,0,1,.236.231C3828.717,1554.726,3844.11,1553.566,3844.413,1553.346Z" transform="translate(-3828.037 -1550.405)"/></g><g transform="translate(17.395)"><path class="j" d="M3825.269,1536.748a7.981,7.981,0,0,0,3.262-1.458c.777-1.034-.929-2.385-1.265-1.938a1.361,1.361,0,0,1-.6.146C3825.381,1533.6,3822.645,1536.512,3825.269,1536.748Z" transform="translate(-3824.17 -1533.265)"/></g></g><g transform="translate(3167.207 1361.695)"><g transform="translate(137.909 5.351)"><g transform="translate(35.402 4.451)"><path class="c" d="M3418.422,1387.95c-4.67.005-7.98,3.37-8,8.832a7.957,7.957,0,0,0,8.026,8.068c2.413,0,3.912-.377,4.785-1.09V1401a9.256,9.256,0,0,1-4.013.806c-2.5.008-4.51-1.36-4.837-3.552l-.029-.2h2.919c2.745,0,4.678-.248,5.9-.851a3,3,0,0,0,1.75-3,6.252,6.252,0,0,0-6.5-6.249m1.9,7.157a13.27,13.27,0,0,1-3.941.367h-2.036l.011-.176.03-.556a3.72,3.72,0,0,1,3.665-3.689,3.969,3.969,0,0,1,2.4.657,2.388,2.388,0,0,1,.925,2,1.36,1.36,0,0,1-1.052,1.4m6.614-.856,0,10.317h3.83v-9.576a4.23,4.23,0,0,1,.78-2.819,2.817,2.817,0,0,1,2.266-.883,6.172,6.172,0,0,1,1.042.084v-3.034a4.264,4.264,0,0,0-1.938-.4c-4.291.006-5.966,3.046-5.981,6.309m-50.379,10.317h3.824v-20.781h-3.824Zm14.138-16.617c-5.1.005-7.33,3.5-7.344,6.925v9.692h3.8v-9.413a4.354,4.354,0,0,1,.882-2.856,2.935,2.935,0,0,1,2.319-1.03,3.3,3.3,0,0,1,2.612,1.017,4.7,4.7,0,0,1,.929,3.173l0,9.109h3.8v-9.473c-.009-4.615-3.151-7.135-7-7.145m13.722-4.164h-3.785l.013,14.995c.021,3.805,1.937,6.048,6.074,6.07,1.757,0,2.812-.575,3.248-1.489V1401a7,7,0,0,1-2.752.436,2.718,2.718,0,0,1-2.067-.739,3.413,3.413,0,0,1-.731-2.411v-7.017h3.314c1.621,0,2.3-1.034,2.305-1.8v-1.519h-5.619Z" transform="translate(-3376.558 -1383.786)"/><g transform="translate(73.501 4.164)"><path class="c" d="M3474.115,1397.845a3,3,0,0,0,1.752-3,6.252,6.252,0,0,0-6.5-6.249c-4.671.005-7.982,3.37-7.994,8.832a7.956,7.956,0,0,0,8.022,8.068c2.414,0,3.917-.377,4.788-1.09v-2.764a9.263,9.263,0,0,1-4.014.806c-2.5.008-4.51-1.36-4.838-3.552l-.027-.2h2.918c2.743,0,4.682-.248,5.9-.851m-8.828-1.73.014-.176.027-.556a3.72,3.72,0,0,1,3.661-3.689,3.957,3.957,0,0,1,2.4.657,2.373,2.373,0,0,1,.926,2,1.359,1.359,0,0,1-1.052,1.4,13.261,13.261,0,0,1-3.941.367Z" transform="translate(-3461.369 -1388.591)"/></g><g transform="translate(123.206 4.156)"><path class="c" d="M3518.722,1394.89v10.317h3.834v-9.576a4.23,4.23,0,0,1,.781-2.819,2.823,2.823,0,0,1,2.265-.883,6.151,6.151,0,0,1,1.042.084v-3.034a4.265,4.265,0,0,0-1.941-.4c-4.288.006-5.963,3.046-5.981,6.309" transform="translate(-3518.722 -1388.581)"/></g><g transform="translate(59.959 4.094)"><path class="c" d="M3451.072,1405.417c-2.794,0-4.88-1.528-4.88-3.175v-1.83h.141a7.288,7.288,0,0,0,4.564,1.531c1.862,0,2.762-.57,2.762-1.771,0-.929-.535-1.375-3.16-1.768-3.209-.479-4.756-1.828-4.756-4.286,0-3.029,2.561-5.606,6.449-5.606,3.445,0,4.85,1.888,4.85,3.447v1.528h-.141a6.393,6.393,0,0,0-4.339-1.495c-2.313,0-3.043.745-3.043,1.8,0,.81.451,1.14,3.043,1.589,3.151.541,4.845,2.008,4.845,4.587,0,3.417-2.255,5.455-6.335,5.455" transform="translate(-3445.743 -1388.51)"/></g><g transform="translate(89.718 4.142)"><path class="c" d="M3494.056,1400.588c.027.658.06,1.528.06,2.067,0,4.046-2.537,7.674-7.441,7.674-3.13,0-5.271-1.617-5.271-3.537v-1.829h.167a6.486,6.486,0,0,0,4.824,1.738c2.729,0,3.968-1.377,3.968-3.717,0-.237,0-.568-.026-.841,0-.237-.026-.659-.026-.806v-.388a3.873,3.873,0,0,1-3.916,2.4,6.184,6.184,0,0,1-6.314-6.537c0-4.556,2.813-8.243,7.718-8.243,3.779,0,6.2,2.938,6.2,7.077v2.757c0,.54.028,1.468.057,2.189m-10.117-4.286c0,2.12,1.22,3.694,3.044,3.694,1.907,0,3.273-1.514,3.273-4.118,0-2.543-1.2-3.786-2.872-3.786-1.963,0-3.446,1.758-3.446,4.21" transform="translate(-3480.081 -1388.565)"/></g><g transform="translate(131.996 4.094)"><path class="c" d="M3536.558,1388.51c4.665,0,7.349,3.9,7.349,8.186,0,4.855-2.684,8.721-7.7,8.721-4.666,0-7.347-3.866-7.347-8.153,0-4.858,2.681-8.754,7.694-8.754m-.348,3.393c-2.311,0-3.486,2-3.486,4.779,0,3.34,1.175,5.343,3.839,5.343,2.342,0,3.485-2,3.485-4.751,0-3.373-1.2-5.372-3.838-5.372" transform="translate(-3528.864 -1388.51)"/></g><g transform="translate(106.294 4.437)"><path class="c" d="M3506.187,1405.581c5.086-.007,7.306-3.507,7.317-6.95v-9.724h-3.787v9.447a4.383,4.383,0,0,1-.881,2.862,2.917,2.917,0,0,1-2.31,1.037,3.291,3.291,0,0,1-2.606-1.024,4.733,4.733,0,0,1-.925-3.184l0-9.139h-3.785v9.507c.008,4.632,3.136,7.158,6.979,7.168" transform="translate(-3499.208 -1388.906)"/></g></g><path class="k" d="M3339.672,1378.65a3.963,3.963,0,0,0-3.963,3.962v25.711h25.713a3.966,3.966,0,0,0,3.966-3.965l0-25.708Zm18.784,21.417-15.816,2.857V1386.96l15.816-2.857Z" transform="translate(-3335.709 -1378.65)"/></g><path class="c" d="M3197.19,1398.11v5.333c0,6.423-3.518,10.093-10.3,10.093s-10.305-3.67-10.305-10.093v-20.873c0-6.423,3.518-10.093,10.305-10.093s10.3,3.67,10.3,10.093v3.9h-6.535v-4.3c0-2.867-1.382-3.956-3.582-3.956s-3.582,1.089-3.582,3.956v21.678c0,2.867,1.383,3.9,3.582,3.9s3.582-1.031,3.582-3.9v-5.735Z" transform="translate(-3176.58 -1372.476)"/><g transform="translate(21.867 0.461)"><path class="c" d="M3210.546,1399.843l-8.734-26.835h7.225l5.279,18.293,5.278-18.293h6.6l-8.734,26.835v13.3h-6.911Z" transform="translate(-3201.812 -1373.008)"/></g><g transform="translate(49.013 0.458)"><path class="c" d="M3253.807,1382.237v1.433c0,4.13-1.382,6.767-4.462,8.086,3.707,1.319,5.153,4.359,5.153,8.6v3.269c0,6.193-3.582,9.519-10.493,9.519h-10.87V1373h10.431C3250.728,1373.005,3253.807,1376.044,3253.807,1382.237Zm-13.762-3.5v10.609h2.7c2.577,0,4.148-1.032,4.148-4.245v-2.233c0-2.867-1.069-4.129-3.519-4.129Zm0,16.344v12.33H3244c2.326,0,3.582-.975,3.582-3.957v-3.5c0-3.727-1.32-4.875-4.461-4.875Z" transform="translate(-3233.135 -1373.004)"/></g><g transform="translate(74.522 0.459)"><path class="c" d="M3269.482,1389.919h9.491v5.735h-9.491v11.76h11.938v5.735h-18.852v-40.142h18.852v5.734h-11.938Z" transform="translate(-3262.569 -1373.005)"/></g><g transform="translate(97.648 0.459)"><path class="c" d="M3303.7,1413.147c-.372-1.032-.627-1.663-.627-4.932v-6.308c0-3.727-1.383-5.1-4.525-5.1h-2.388v16.344h-6.912v-40.142h10.43c7.165,0,10.242,3.039,10.242,9.232v3.155c0,4.129-1.445,6.824-4.524,8.143,3.456,1.319,4.587,4.358,4.587,8.544v6.194a10.872,10.872,0,0,0,.754,4.874Zm-7.536-34.408v12.329h2.7c2.576,0,4.148-1.032,4.148-4.246v-3.953c0-2.867-1.069-4.129-3.52-4.129Z" transform="translate(-3289.253 -1373.005)"/></g></g><g transform="translate(3377.349 1483.942)"><path class="c" d="M3428.087,1535.823h13.14v-13.26a9.03,9.03,0,0,1,9.031-9.031h.637a9.031,9.031,0,0,1,9.031,9.031v13.26h13.26a9.031,9.031,0,0,1,9.031,9.03v.637a9.031,9.031,0,0,1-9.031,9.031h-13.26v13.14a9.031,9.031,0,0,1-9.031,9.031h-.637a9.03,9.03,0,0,1-9.031-9.031v-13.14h-13.14a9.03,9.03,0,0,1-9.031-9.031v-.637A9.03,9.03,0,0,1,3428.087,1535.823Z" transform="translate(-3419.056 -1513.533)"/></g><g transform="translate(3381.112 1486.279)"><path class="g" d="M3432.43,1538.52h13.14v-13.26a9.03,9.03,0,0,1,9.031-9.031h.637a9.031,9.031,0,0,1,9.031,9.031v13.26h13.26a9.031,9.031,0,0,1,9.03,9.03v.637a9.031,9.031,0,0,1-9.03,9.031h-13.26v13.14a9.031,9.031,0,0,1-9.031,9.031h-.637a9.031,9.031,0,0,1-9.031-9.031v-13.14h-13.14a9.03,9.03,0,0,1-9.031-9.031v-.637A9.03,9.03,0,0,1,3432.43,1538.52Z" transform="translate(-3423.399 -1516.23)"/></g><g transform="translate(3460.44 1451.614)"><g transform="translate(54.443 7.467)"><g transform="translate(0.002)"><path class="e" d="M3637.354,1485.9,3620.7,1590.945l-31.568,3.671,8.606-59.364c1.208-8.377,1.7-13.449,1.458-15.172s-1.387-3.068-3.455-4.022-6.94-1.567-14.654-1.828l-3.331-.113,1.754-13.087c16.6-2.2,29.539-7.6,39.033-16.182Z" transform="translate(-3577.755 -1484.847)"/></g><g transform="translate(53.838 1.049)"><path class="e" d="M3645.632,1486.058l4.408,3.746-5.68,4.27-4.486-2.883Z" transform="translate(-3639.875 -1486.058)"/></g><g transform="translate(11.374 106.732)"><path class="e" d="M3590.877,1611.038l4.409,3.745,2.782-3.595-.861-2.974-1.342-.212Z" transform="translate(-3590.877 -1608.002)"/></g><g transform="translate(0 26.524)"><path class="e" d="M3577.753,1518.2l4.409,3.745,2.465-2.655-.894-3.616-1.383-.22Z" transform="translate(-3577.753 -1515.452)"/></g></g><g transform="translate(0 0.94)"><path class="e" d="M3542.163,1491.008l-8.57,1.867-1.624-1.741.526-3.172a6.066,6.066,0,0,0,.079-2.822,1.181,1.181,0,0,0-1.2-.592,2.022,2.022,0,0,0-1.635.84,5.543,5.543,0,0,0-.923,2.491,6.731,6.731,0,0,0,.035,3.219q.367,1.078,2.669,2.577,6.609,4.321,8.055,7.127t.423,9.1a18.173,18.173,0,0,1-2.153,6.755,10.7,10.7,0,0,1-4.692,3.683,17.887,17.887,0,0,1-7.321,1.547,14.06,14.06,0,0,1-7.292-1.606,6.434,6.434,0,0,1-3.391-4.258,21.538,21.538,0,0,1,.269-7.414l.469-2.8,10.233-.121,1.624,1.741-2.485,3.467a6.618,6.618,0,0,0-.078,3.087,1.385,1.385,0,0,0,1.42.67,2.181,2.181,0,0,0,1.781-.892,5.783,5.783,0,0,0,.963-2.6q.621-3.78-.208-4.932a25.126,25.126,0,0,0-4.509-3.822,38.9,38.9,0,0,1-4.773-3.925,7.446,7.446,0,0,1-1.633-3.408,14.626,14.626,0,0,1,.069-5.59,17.94,17.94,0,0,1,2.451-7.2,10.853,10.853,0,0,1,4.6-3.605,17.4,17.4,0,0,1,6.877-1.365,15.479,15.479,0,0,1,7.038,1.308,5.944,5.944,0,0,1,3.4,3.478q.625,2.117-.21,7.217Z" transform="translate(-3514.933 -1477.316)"/></g><g transform="translate(24.497)"><path class="e" d="M3570.823,1476.231l2.322,2.317-21.927,42.3-6.4,1.833-1.625-1.741,19.76-44.609Z" transform="translate(-3543.199 -1476.231)"/></g><g transform="translate(115.477 10.056)"><path class="e" d="M3713.421,1523.907l-4.98,34.008q-1.69,11.589-3.7,16.9a28.733,28.733,0,0,1-6.576,9.953,27.452,27.452,0,0,1-10.381,6.73,38.556,38.556,0,0,1-12.63,2.167q-8.991.109-14.63-1.931a16.359,16.359,0,0,1-8.507-6.462,23.556,23.556,0,0,1-3.609-9.349q-.744-4.923.879-15.686l5.381-35.554q2.133-14.029,5.569-21.046a26.157,26.157,0,0,1,11.119-11.327,36.591,36.591,0,0,1,17.7-4.449,31.925,31.925,0,0,1,14.189,2.725q6.016,2.839,8.588,7.015a20.35,20.35,0,0,1,2.93,9.445Q3715.126,1512.32,3713.421,1523.907Zm-23.616-8.231q1.213-8.121.748-10.154t-3.293-2a4.281,4.281,0,0,0-3.988,2.22q-1.219,2.184-2.4,10.051l-7.423,49.729q-1.315,8.878-.752,10.692t3.351,1.781a4.222,4.222,0,0,0,3.969-2.187q1.183-2.151,2.289-9.642Z" transform="translate(-3648.178 -1487.835)"/></g><g transform="translate(3.149 2.68)"><path class="c" d="M3545.8,1493.016l-10.194.127.526-3.172a6.063,6.063,0,0,0,.079-2.822,1.18,1.18,0,0,0-1.2-.592,2.024,2.024,0,0,0-1.635.839,5.548,5.548,0,0,0-.923,2.492,6.746,6.746,0,0,0,.035,3.219q.367,1.079,2.67,2.578,6.609,4.319,8.054,7.126t.423,9.1a18.173,18.173,0,0,1-2.153,6.756,10.681,10.681,0,0,1-4.691,3.683,17.876,17.876,0,0,1-7.321,1.547,14.064,14.064,0,0,1-7.293-1.606,6.433,6.433,0,0,1-3.391-4.258,21.535,21.535,0,0,1,.27-7.414l.469-2.8,10.232-.12-.861,5.207a6.643,6.643,0,0,0-.078,3.088,1.387,1.387,0,0,0,1.421.67,2.181,2.181,0,0,0,1.78-.893,5.77,5.77,0,0,0,.962-2.6q.621-3.779-.207-4.931a25.11,25.11,0,0,0-4.51-3.822,38.963,38.963,0,0,1-4.772-3.926,7.436,7.436,0,0,1-1.631-3.407,14.612,14.612,0,0,1,.068-5.59,17.944,17.944,0,0,1,2.451-7.2,10.856,10.856,0,0,1,4.6-3.605,17.4,17.4,0,0,1,6.877-1.366,15.46,15.46,0,0,1,7.037,1.309,5.948,5.948,0,0,1,3.4,3.477q.624,2.116-.211,7.217Z" transform="translate(-3518.566 -1479.324)"/></g><g transform="translate(26.82 2.317)"><path class="c" d="M3573.5,1478.9l-19.6,44.62-8.019.092,19.76-44.609Z" transform="translate(-3545.88 -1478.904)"/></g><g transform="translate(119.34 14.191)"><path class="c" d="M3717.876,1528.678l-4.98,34.007q-1.687,11.589-3.7,16.9a28.743,28.743,0,0,1-6.576,9.953,27.445,27.445,0,0,1-10.381,6.73,38.6,38.6,0,0,1-12.63,2.167q-8.991.109-14.63-1.931a16.36,16.36,0,0,1-8.507-6.463,23.545,23.545,0,0,1-3.608-9.349q-.744-4.922.878-15.685l5.382-35.554q2.134-14.03,5.568-21.047a26.142,26.142,0,0,1,11.118-11.327,36.583,36.583,0,0,1,17.7-4.448,31.911,31.911,0,0,1,14.189,2.725q6.016,2.836,8.588,7.013a20.356,20.356,0,0,1,2.931,9.447Q3719.578,1517.092,3717.876,1528.678Zm-23.617-8.231q1.211-8.12.748-10.155t-3.293-2a4.277,4.277,0,0,0-3.989,2.221q-1.218,2.183-2.4,10.051l-7.423,49.73q-1.317,8.878-.752,10.692t3.351,1.78a4.218,4.218,0,0,0,3.969-2.187q1.183-2.152,2.289-9.642Z" transform="translate(-3652.635 -1492.606)"/></g><g transform="translate(183.196 8.011)"><path class="e" d="M3791.559,1521.548l-4.98,34.007q-1.69,11.588-3.7,16.9a28.728,28.728,0,0,1-6.576,9.953,27.457,27.457,0,0,1-10.382,6.73,38.6,38.6,0,0,1-12.63,2.167q-8.989.109-14.631-1.932a16.355,16.355,0,0,1-8.506-6.462,23.556,23.556,0,0,1-3.609-9.349q-.744-4.922.879-15.684l5.381-35.554q2.133-14.03,5.569-21.047a26.144,26.144,0,0,1,11.119-11.327,36.584,36.584,0,0,1,17.7-4.449,31.916,31.916,0,0,1,14.189,2.726q6.018,2.836,8.587,7.014a20.366,20.366,0,0,1,2.932,9.445Q3793.261,1509.963,3791.559,1521.548Zm-23.616-8.231q1.213-8.119.748-10.153t-3.293-2a4.28,4.28,0,0,0-3.987,2.22q-1.218,2.184-2.4,10.05l-7.422,49.729q-1.315,8.879-.753,10.693t3.352,1.78a4.222,4.222,0,0,0,3.969-2.188q1.181-2.152,2.288-9.641Z" transform="translate(-3726.317 -1485.475)"/></g><g transform="translate(187.059 12.147)"><path class="c" d="M3796.011,1526.321l-4.979,34.007q-1.69,11.589-3.7,16.9a28.711,28.711,0,0,1-6.576,9.953,27.455,27.455,0,0,1-10.376,6.731,38.594,38.594,0,0,1-12.63,2.166q-8.992.108-14.631-1.932a16.366,16.366,0,0,1-8.507-6.462,23.559,23.559,0,0,1-3.608-9.349q-.744-4.922.88-15.685l5.381-35.555q2.132-14.029,5.568-21.048a26.143,26.143,0,0,1,11.117-11.327,36.588,36.588,0,0,1,17.7-4.448,31.9,31.9,0,0,1,14.188,2.725q6.018,2.836,8.588,7.013a20.367,20.367,0,0,1,2.93,9.447Q3797.715,1514.735,3796.011,1526.321Zm-23.618-8.231q1.213-8.12.749-10.155t-3.294-2a4.281,4.281,0,0,0-3.988,2.22q-1.217,2.184-2.4,10.052l-7.423,49.73q-1.315,8.878-.753,10.692t3.352,1.78a4.222,4.222,0,0,0,3.969-2.187q1.183-2.151,2.288-9.642Z" transform="translate(-3730.775 -1490.248)"/></g><g transform="translate(58.721 12.033)"><path class="c" d="M3642.288,1491.168,3625.3,1598.289l-31.2.758,8.564-58.526c1.208-8.375,1.7-13.448,1.459-15.172s-1.388-3.067-3.456-4.021-6.94-1.568-14.652-1.829l-3.331-.112,1.753-13.088c16.6-2.2,29.541-7.6,39.033-16.182Z" transform="translate(-3582.689 -1490.116)"/></g></g><g transform="translate(3556.443 1414.407)"><path class="c" d="M3769.5,1468.926H3641.485c-8.7,0-15.777-7.991-15.777-17.814s7.078-17.813,15.777-17.813H3769.5c8.7,0,15.777,7.991,15.777,17.813S3778.2,1468.926,3769.5,1468.926Zm-128.013-33.894c-7.853,0-14.242,7.213-14.242,16.08s6.389,16.081,14.242,16.081H3769.5c7.854,0,14.243-7.214,14.243-16.081s-6.389-16.08-14.243-16.08Z" transform="translate(-3625.708 -1433.299)"/></g><g transform="translate(3569.153 1423.363)"><g transform="translate(0 0.071)"><path class="c" d="M3643.038,1459.9c-.5,0-.825-.4-.9-1l-1.767-13.873c.095-.741.589-1.311,1.131-1.311h1.626c.423,0,.8.485.848,1.025l1.131,8.918,3.723-8.918c.236-.54.754-1.025,1.179-1.025h1.626c.542,0,.848.57.754,1.311l-5.82,13.873a1.408,1.408,0,0,1-1.179,1Z" transform="translate(-3640.374 -1443.715)"/></g><g transform="translate(9.778 0.071)"><path class="c" d="M3661.717,1460.039c-1.389,0-1.578-1.254-1.719-2.193l-.213-1.368h-3.463l-1.036,2.364c-.212.57-.66,1.055-1.131,1.055h-1.7c-.542,0-.9-.484-.777-1.168l6.032-14.015a1.465,1.465,0,0,1,1.178-1h1.98c.447,0,.777.4.872,1l1.6,11.223c.07.371.094.684.165.712a1.081,1.081,0,0,1,.4,1.026l-.142.939C3663.625,1459.7,3662.472,1460.039,3661.717,1460.039Zm-3.888-7.179h1.438l-.33-2.593Z" transform="translate(-3651.657 -1443.715)"/></g><g transform="translate(23.889 0.071)"><path class="c" d="M3668.741,1459.9c-.566,0-.9-.484-.778-1.168l2-13.846a1.249,1.249,0,0,1,1.131-1.167h1.533c.542,0,.9.485.777,1.167l-1.626,11.168h4.407c.542,0,.894.484.8,1.139l-.211,1.538a1.267,1.267,0,0,1-1.131,1.168Z" transform="translate(-3667.939 -1443.715)"/></g><g transform="translate(34.961 0.071)"><path class="c" d="M3681.516,1459.9c-.566,0-.9-.484-.777-1.168l2-13.846a1.249,1.249,0,0,1,1.131-1.167h7.234c.566,0,.872.485.754,1.167l-.212,1.567a1.205,1.205,0,0,1-1.108,1.14H3685.8l-.354,2.308h3.37c.542,0,.847.513.753,1.167l-.211,1.539a1.254,1.254,0,0,1-1.108,1.167h-3.37l-.33,2.28h4.737c.565,0,.872.484.777,1.139l-.213,1.538c-.118.684-.541,1.168-1.108,1.168Z" transform="translate(-3680.714 -1443.715)"/></g><g transform="translate(57.156)"><path class="c" d="M3708.988,1459.814c-.495,0-.825-.4-.9-1l-1.767-13.874c.094-.74.589-1.31,1.131-1.31h1.627c.423,0,.8.484.848,1.024l1.131,8.918,3.724-8.918c.236-.541.753-1.024,1.178-1.024h1.626c.542,0,.848.569.753,1.31l-5.82,13.874a1.409,1.409,0,0,1-1.178,1Z" transform="translate(-3706.325 -1443.633)"/></g><g transform="translate(69.29)"><path class="c" d="M3723.79,1458.645a1.27,1.27,0,0,1-1.133,1.169H3721.1c-.542,0-.872-.484-.753-1.169l2-13.845a1.247,1.247,0,0,1,1.108-1.167h1.555c.542,0,.9.484.777,1.167Z" transform="translate(-3720.325 -1443.633)"/></g><g transform="translate(75.699)"><path class="c" d="M3734.906,1443.633c3.251,0,4.642,1.709,4.077,5.612-.306,2.107-.943,3.56-2.1,4.472a22.212,22.212,0,0,0,.542,2.849,1,1,0,0,1,.33,1.026l-.141.939a1.858,1.858,0,0,1-2,1.426c-1.273,0-1.484-.969-1.673-2.024l-.542-3.134h-1.65l-.564,3.845c-.119.685-.543,1.169-1.132,1.169h-1.508c-.542,0-.92-.484-.8-1.169l2-13.845a1.288,1.288,0,0,1,1.154-1.167Zm.636,5.612c.141-1.056-.259-1.738-.99-1.738h-1.743l-.519,3.447h1.744C3734.788,1450.954,3735.377,1450.328,3735.542,1449.245Z" transform="translate(-3727.721 -1443.633)"/></g><g transform="translate(89.155)"><path class="c" d="M3752.69,1443.633c.542,0,.848.484.731,1.167l-.213,1.567a1.2,1.2,0,0,1-1.084,1.14h-2.332l-1.626,11.138a1.269,1.269,0,0,1-1.131,1.169h-1.555c-.544,0-.872-.484-.755-1.169l1.627-11.138h-2.333c-.542,0-.848-.485-.755-1.14l.212-1.567a1.247,1.247,0,0,1,1.108-1.167Z" transform="translate(-3743.248 -1443.633)"/></g><g transform="translate(100.228)"><path class="c" d="M3756.253,1452.55l1.131-7.75a1.289,1.289,0,0,1,1.156-1.167h1.53c.543,0,.873.484.755,1.167l-1.154,7.949c-.448,3.133.613,3.361,1.414,3.361s1.955-.228,2.4-3.361l1.154-7.949a1.269,1.269,0,0,1,1.131-1.167h1.532c.542,0,.9.484.778,1.167l-1.131,7.75c-.919,6.381-3.133,7.407-6.408,7.407S3755.334,1458.931,3756.253,1452.55Z" transform="translate(-3756.024 -1443.633)"/></g><g transform="translate(112.048)"><path class="c" d="M3779.723,1459.957c-1.389,0-1.578-1.254-1.719-2.194l-.213-1.368h-3.463l-1.036,2.364c-.211.57-.661,1.055-1.131,1.055h-1.7c-.542,0-.9-.484-.778-1.169l6.032-14.015a1.466,1.466,0,0,1,1.179-1h1.979c.448,0,.778.4.872,1l1.6,11.224c.07.37.094.685.165.712a1.078,1.078,0,0,1,.4,1.026l-.141.939C3781.631,1459.614,3780.478,1459.957,3779.723,1459.957Zm-3.888-7.179h1.438l-.33-2.593Z" transform="translate(-3769.662 -1443.633)"/></g><g transform="translate(126.158)"><path class="c" d="M3786.745,1459.814c-.566,0-.9-.484-.778-1.169l2-13.845a1.249,1.249,0,0,1,1.131-1.167h1.532c.542,0,.9.484.777,1.167l-1.626,11.167h4.407c.542,0,.9.484.8,1.141l-.211,1.537a1.269,1.269,0,0,1-1.131,1.169Z" transform="translate(-3785.944 -1443.633)"/></g></g><g transform="translate(3152.963 1408.198)"><g transform="translate(0 0)"><rect class="c" width="29.897" height="2.6" transform="translate(0 29.757) rotate(-84.453)"/></g></g><g transform="translate(3138.036 1569.47)"><path class="c" d="M3538.332,1667.962H3167.166c-6.74,0-13-3.538-17.624-9.964-4.838-6.72-7.207-15.848-6.5-25.041l1.6-20.736,2.052.251-1.6,20.736c-.652,8.465,1.525,16.864,5.974,23.042,4.229,5.875,9.946,9.111,16.1,9.111h371.166Z" transform="translate(-3142.92 -1612.221)"/></g><g transform="translate(3499.911 1379.584)"><path class="c" d="M3739.348,1415.329c-3.67-11.73-13.624-19.611-24.769-19.611h-154.1v-2.6h154.1c12.288,0,23.239,8.615,27.251,21.436Z" transform="translate(-3560.477 -1393.118)"/></g><g transform="translate(3508.704 1585.162)"><path class="c" d="M3573.756,1648.8a1.037,1.037,0,0,1-1.054-.971l-2.079-13.5a1.444,1.444,0,0,1,1.33-1.277h1.914a1.1,1.1,0,0,1,1,1l1.331,8.68,4.382-8.68a1.845,1.845,0,0,1,1.387-1h1.914c.637,0,1,.555.887,1.277l-6.849,13.5a1.617,1.617,0,0,1-1.387.971Z" transform="translate(-3570.623 -1630.691)"/><path class="c" d="M3593.692,1638.814l-1.524,8.541a1.254,1.254,0,0,1-1.248,1.082h-1.3c-.5,0-.859-.111-1-.527l-.083-.222a4.444,4.444,0,0,1-2.524.887c-3.133,0-3.688-2.635-3.189-5.462.639-3.55,3.217-6.073,6.877-6.073a9.9,9.9,0,0,1,3.467.666A.986.986,0,0,1,3593.692,1638.814Zm-4.407,2.024a2.552,2.552,0,0,0-2.385,2.274c-.251,1.469.3,1.718.886,1.718a2.044,2.044,0,0,0,.86-.332Zm1.219-10.094a1.693,1.693,0,0,1,1.026-.416.822.822,0,0,1,.749.305l.86,1.248a1.108,1.108,0,0,1,.222.914,1.535,1.535,0,0,1-.777.943l-2.773,1.969a2.14,2.14,0,0,1-1.053.333,1.074,1.074,0,0,1-.8-.444l-.388-.5a1.146,1.146,0,0,1-.3-.943,2.328,2.328,0,0,1,.277-.609Z" transform="translate(-3572.229 -1630.328)"/><path class="c" d="M3597.708,1634.156a1.33,1.33,0,0,1,1.276-1.109h1.858a.886.886,0,0,1,.915,1.109l-1.969,11.037c-.055.333,0,.5.083.527a.878.878,0,0,1,.415.972l-.165.886a1.322,1.322,0,0,1-1.082,1.082,5.567,5.567,0,0,1-1.553.277c-2.219,0-2.051-1.969-1.886-2.94Z" transform="translate(-3573.942 -1630.691)"/><path class="c" d="M3606.058,1647.634a1.357,1.357,0,0,1-1.3,1.109H3602.9a.858.858,0,0,1-.889-1.109l1.582-9.012a1.306,1.306,0,0,1,1.275-1.109h1.858a.887.887,0,0,1,.917,1.109Zm.61-15a1.719,1.719,0,0,1,1.747,2.135,2.6,2.6,0,0,1-2.5,2.135,1.749,1.749,0,0,1-1.775-2.135A2.658,2.658,0,0,1,3606.668,1632.631Z" transform="translate(-3574.805 -1630.635)"/><path class="c" d="M3618.485,1647.218a1.506,1.506,0,0,1-.943,1.109,13.953,13.953,0,0,1-4.132.61c-3.771,0-5.269-2.3-4.6-5.963.637-3.66,3.161-5.573,6.017-5.573a4.52,4.52,0,0,1,1.3.166l.61-3.439a1.283,1.283,0,0,1,1.276-1.082h1.886a.848.848,0,0,1,.888,1.082Zm-4.521-2.025c.111,0,.556-.028.832-.055l.667-3.827a1.775,1.775,0,0,0-.667-.139c-.887,0-1.608.444-1.83,1.8C3612.688,1644.445,3612.91,1645.193,3613.964,1645.193Z" transform="translate(-3575.695 -1630.691)"/><path class="c" d="M3621.958,1643.729c.61-3.411,2.718-5.657,6.489-5.657s5.1,2.246,4.492,5.657c-.637,3.66-2.745,5.879-6.516,5.879S3621.321,1647.388,3621.958,1643.729Zm6.933.028c.137-.8.056-1.914-1.109-1.914s-1.636,1.109-1.775,1.914c-.139.832-.25,2.107,1.053,2.107S3628.752,1644.588,3628.891,1643.756Z" transform="translate(-3577.448 -1631.361)"/><path class="c" d="M3641.47,1639.791a1.715,1.715,0,0,1,1.109-1.193,14.994,14.994,0,0,1,3.966-.527c3.771,0,5.242,2.3,4.6,5.962s-2.856,5.573-6.627,5.573h-.721l-.749,4.188a1.306,1.306,0,0,1-1.275,1.109h-1.886a.868.868,0,0,1-.887-1.109Zm2.967,6.073h.527a2.054,2.054,0,0,0,2.135-1.83c.25-1.47-.082-2.191-1.136-2.191a4.811,4.811,0,0,0-.8.056Z" transform="translate(-3579.739 -1631.361)"/><path class="c" d="M3664.282,1639.846l-1.525,8.541a1.253,1.253,0,0,1-1.247,1.082h-1.3c-.5,0-.859-.111-1-.527l-.083-.222a4.444,4.444,0,0,1-2.524.887c-3.133,0-3.688-2.635-3.189-5.462.639-3.55,3.217-6.073,6.877-6.073a9.9,9.9,0,0,1,3.467.666A.986.986,0,0,1,3664.282,1639.846Zm-4.408,2.024a2.553,2.553,0,0,0-2.385,2.274c-.25,1.469.3,1.719.887,1.719a2.047,2.047,0,0,0,.86-.332Z" transform="translate(-3581.642 -1631.361)"/><path class="c" d="M3675.335,1638.986a1.092,1.092,0,0,1,.359,1,.971.971,0,0,1-.166.388l-.749,1.276a1.4,1.4,0,0,1-1.108.693.838.838,0,0,1-.445-.139,3.371,3.371,0,0,0-1.33-.36,1.608,1.608,0,0,0-.889.25l-1.109,6.294a1.253,1.253,0,0,1-1.247,1.082h-1.886a.865.865,0,0,1-.915-1.082l1.442-8.152a1.494,1.494,0,0,1,.749-1.026,7.462,7.462,0,0,1,4.409-1.137A3.9,3.9,0,0,1,3675.335,1638.986Z" transform="translate(-3583.319 -1631.361)"/><path class="c" d="M3686.427,1639.846l-1.525,8.541a1.254,1.254,0,0,1-1.247,1.082h-1.3c-.5,0-.86-.111-1-.527l-.082-.222a4.446,4.446,0,0,1-2.524.887c-3.134,0-3.688-2.635-3.189-5.462.638-3.55,3.217-6.073,6.877-6.073a9.9,9.9,0,0,1,3.466.666A.987.987,0,0,1,3686.427,1639.846Zm-4.409,2.024a2.552,2.552,0,0,0-2.385,2.274c-.25,1.469.3,1.719.887,1.719a2.05,2.05,0,0,0,.86-.332Z" transform="translate(-3584.595 -1631.361)"/><path class="c" d="M3704.347,1640.262c-.028.166-.055.222-.886,1.5a1.223,1.223,0,0,1-1.109.638,1.631,1.631,0,0,1-.555-.194,3.891,3.891,0,0,0-1.886-.36,2.194,2.194,0,0,0-2.191,1.969c-.25,1.441.555,2.052,1.47,2.052a4,4,0,0,0,2.08-.415,1.279,1.279,0,0,1,.583-.14.955.955,0,0,1,.86.639,13.828,13.828,0,0,1,.388,1.441,1.733,1.733,0,0,1-.8,1.109,7.156,7.156,0,0,1-3.966,1.109c-3.716,0-5.3-2.135-4.659-5.8.638-3.605,2.968-5.74,6.684-5.74a5.218,5.218,0,0,1,3.577,1.137A1.092,1.092,0,0,1,3704.347,1640.262Z" transform="translate(-3587.013 -1631.361)"/><path class="c" d="M3705.7,1643.729c.61-3.411,2.718-5.657,6.489-5.657s5.1,2.246,4.492,5.657c-.637,3.66-2.745,5.879-6.516,5.879S3705.063,1647.388,3705.7,1643.729Zm6.933.028c.139-.8.056-1.914-1.109-1.914s-1.636,1.109-1.775,1.914c-.138.832-.25,2.107,1.054,2.107S3712.5,1644.588,3712.634,1643.756Z" transform="translate(-3588.615 -1631.361)"/><path class="c" d="M3720.111,1639.791a1.615,1.615,0,0,1,1.109-1.193,9.451,9.451,0,0,1,3.411-.527,4.31,4.31,0,0,1,3.162.971,5.287,5.287,0,0,1,2.856-.943c3.216,0,3.354,2.191,2.828,5.1l-.914,5.185a1.276,1.276,0,0,1-1.249,1.082h-1.885a.864.864,0,0,1-.915-1.082l.915-5.074c.25-1.414.083-1.47-.389-1.47a2.248,2.248,0,0,0-.444.028c-.054.444-.166,1.026-.25,1.609l-.887,4.908a1.254,1.254,0,0,1-1.249,1.082h-1.553a.865.865,0,0,1-.914-1.082l.86-4.88c.25-1.414.305-1.664-.416-1.664a2.77,2.77,0,0,0-.416.083l-1.137,6.461a1.254,1.254,0,0,1-1.248,1.082H3719.5a.864.864,0,0,1-.914-1.082Z" transform="translate(-3590.352 -1631.361)"/><path class="c" d="M3737.405,1639.791a1.717,1.717,0,0,1,1.108-1.193,15.007,15.007,0,0,1,3.966-.527c3.772,0,5.241,2.3,4.6,5.962s-2.857,5.573-6.628,5.573h-.721l-.749,4.188a1.307,1.307,0,0,1-1.276,1.109h-1.885a.868.868,0,0,1-.888-1.109Zm2.967,6.073h.526a2.055,2.055,0,0,0,2.135-1.83c.25-1.47-.083-2.191-1.137-2.191a4.81,4.81,0,0,0-.8.056Z" transform="translate(-3592.532 -1631.361)"/><path class="c" d="M3758.533,1638.986a1.093,1.093,0,0,1,.359,1,.972.972,0,0,1-.165.388l-.75,1.276a1.4,1.4,0,0,1-1.109.693.838.838,0,0,1-.444-.139,3.366,3.366,0,0,0-1.33-.36,1.608,1.608,0,0,0-.888.25l-1.11,6.294a1.253,1.253,0,0,1-1.247,1.082h-1.886a.864.864,0,0,1-.914-1.082l1.441-8.152a1.5,1.5,0,0,1,.749-1.026,7.463,7.463,0,0,1,4.41-1.137A3.9,3.9,0,0,1,3758.533,1638.986Z" transform="translate(-3594.414 -1631.361)"/><path class="c" d="M3769.625,1639.846l-1.525,8.541a1.254,1.254,0,0,1-1.247,1.082h-1.3c-.5,0-.859-.111-1-.527l-.083-.222a4.445,4.445,0,0,1-2.524.887c-3.133,0-3.689-2.635-3.189-5.462.637-3.55,3.217-6.073,6.878-6.073a9.9,9.9,0,0,1,3.467.666A.987.987,0,0,1,3769.625,1639.846Zm-4.408,2.024a2.552,2.552,0,0,0-2.385,2.274c-.249,1.469.305,1.719.888,1.719a2.042,2.042,0,0,0,.859-.332Z" transform="translate(-3595.689 -1631.361)"/><path class="c" d="M3775.525,1646.114c.3,0,1.11,0,1.164-.278.111-.665-5.435-.472-4.824-4.048.36-1.969,1.94-3.716,5.545-3.716a23.514,23.514,0,0,1,2.662.333.986.986,0,0,1,.887,1.109l-.055.222a6.181,6.181,0,0,1-.361,1.248c-.25.666-.555.887-1.026.887-.915-.056-1.414-.139-1.969-.139-1,0-1.608,0-1.635.167-.139.666,5.407.582,4.824,3.881-.416,2.413-2.578,3.827-5.767,3.827a10.315,10.315,0,0,1-3.328-.638,1.053,1.053,0,0,1-.61-1.165,6.3,6.3,0,0,1,.666-1.441,1.249,1.249,0,0,1,1.164-.666,1.588,1.588,0,0,1,.388.056A9.567,9.567,0,0,0,3775.525,1646.114Z" transform="translate(-3597.345 -1631.361)"/><path class="c" d="M3653.161,1678.226a11.666,11.666,0,0,1-1.387-.084c.333.805,1.219.86,1.94.86a5.5,5.5,0,0,0,2.69-.583.685.685,0,0,1,1,.471l.333,1.137a1.163,1.163,0,0,1,.028.416,1.756,1.756,0,0,1-.749,1.054,6.789,6.789,0,0,1-4.16,1.109c-3.743,0-5.1-2.219-4.464-5.878.61-3.411,2.578-5.657,6.35-5.657,2.994,0,4.465,1.581,4.076,3.744C3658.346,1677.505,3655.711,1678.226,3653.161,1678.226Zm-.472-3.023c.111.277.637.471,1.165.471.415,0,.8-.139.86-.582.082-.388-.445-.471-.832-.471A1.636,1.636,0,0,0,3652.689,1675.2Z" transform="translate(-3580.974 -1635.761)"/><path class="c" d="M3661.84,1672.791a1.614,1.614,0,0,1,1.108-1.193,12.688,12.688,0,0,1,3.966-.527c3.744,0,4.881,1.692,4.243,5.408l-.888,4.908a1.262,1.262,0,0,1-1.276,1.082h-1.858a.864.864,0,0,1-.914-1.082l.859-4.88c.25-1.414.223-1.664-.749-1.664a4.625,4.625,0,0,0-.8.056l-1.166,6.489a1.282,1.282,0,0,1-1.276,1.082h-1.857a.864.864,0,0,1-.915-1.082Z" transform="translate(-3582.581 -1635.761)"/><path class="c" d="M3686.518,1666.047c3.826,0,5.546,1.664,4.881,5.463s-2.968,5.408-6.794,5.408h-1.5l-.666,3.743a1.363,1.363,0,0,1-1.332,1.137h-1.775a.893.893,0,0,1-.943-1.137l2.358-13.477a1.391,1.391,0,0,1,1.358-1.137Zm.832,5.436c.194-1.026-.277-1.664-1.165-1.664h-1.83l-.61,3.355h1.831A1.841,1.841,0,0,0,3687.35,1671.483Z" transform="translate(-3584.991 -1635.091)"/><path class="c" d="M3694.634,1667.156a1.33,1.33,0,0,1,1.277-1.109h1.858a.885.885,0,0,1,.914,1.109l-1.968,11.037c-.056.333,0,.5.083.527a.881.881,0,0,1,.416.971l-.166.886a1.322,1.322,0,0,1-1.081,1.082,5.573,5.573,0,0,1-1.553.277c-2.219,0-2.052-1.969-1.886-2.94Z" transform="translate(-3586.867 -1635.091)"/><path class="c" d="M3709.786,1672.846l-1.525,8.541a1.254,1.254,0,0,1-1.247,1.082h-1.3c-.5,0-.86-.111-1-.527l-.083-.222a4.442,4.442,0,0,1-2.524.887c-3.133,0-3.688-2.634-3.189-5.463.638-3.55,3.217-6.073,6.878-6.073a9.9,9.9,0,0,1,3.467.666A.987.987,0,0,1,3709.786,1672.846Zm-4.409,2.025a2.553,2.553,0,0,0-2.385,2.274c-.249,1.469.305,1.719.888,1.719a2.046,2.046,0,0,0,.86-.332Z" transform="translate(-3587.71 -1635.761)"/><path class="c" d="M3712.878,1672.791a1.614,1.614,0,0,1,1.109-1.193,12.688,12.688,0,0,1,3.966-.527c3.744,0,4.881,1.692,4.243,5.408l-.887,4.908a1.263,1.263,0,0,1-1.276,1.082h-1.858a.864.864,0,0,1-.914-1.082l.86-4.88c.249-1.414.222-1.664-.749-1.664a4.629,4.629,0,0,0-.8.056l-1.166,6.489a1.282,1.282,0,0,1-1.276,1.082h-1.857a.865.865,0,0,1-.915-1.082Z" transform="translate(-3589.387 -1635.761)"/><path class="c" d="M3737.17,1666.047c3.827,0,5.574,1.082,4.881,4.936a3.437,3.437,0,0,1-1.581,2.662,3.146,3.146,0,0,1,1.248,3.245c-.694,3.826-2.8,4.908-6.627,4.908h-4.716a.946.946,0,0,1-.943-1.165l2.358-13.449a1.413,1.413,0,0,1,1.358-1.137Zm.5,10.815c.167-.887-.61-1.025-1.525-1.025h-1.831l-.388,2.218h1.83C3736.671,1678.054,3737.5,1677.861,3737.669,1676.862Zm-2.274-7.043-.388,2.219h1.137c.887,0,1.692-.111,1.886-1.165.166-.943-.61-1.054-1.5-1.054Z" transform="translate(-3591.798 -1635.091)"/><path class="c" d="M3746.249,1667.156a1.33,1.33,0,0,1,1.276-1.109h1.858a.886.886,0,0,1,.915,1.109l-1.969,11.037c-.056.333,0,.5.083.527a.879.879,0,0,1,.415.971l-.165.886a1.322,1.322,0,0,1-1.082,1.082,5.567,5.567,0,0,1-1.553.277c-2.219,0-2.052-1.969-1.886-2.94Z" transform="translate(-3593.75 -1635.091)"/><path class="c" d="M3761.4,1672.846l-1.524,8.541a1.255,1.255,0,0,1-1.248,1.082h-1.3c-.5,0-.859-.111-1-.527l-.083-.222a4.443,4.443,0,0,1-2.524.887c-3.133,0-3.688-2.634-3.189-5.463.639-3.55,3.217-6.073,6.878-6.073a9.9,9.9,0,0,1,3.467.666A.985.985,0,0,1,3761.4,1672.846Zm-4.408,2.025a2.552,2.552,0,0,0-2.384,2.274c-.25,1.469.3,1.719.886,1.719a2.044,2.044,0,0,0,.86-.332Z" transform="translate(-3594.593 -1635.761)"/><path class="c" d="M3774.074,1673.262c-.028.166-.055.222-.886,1.5a1.224,1.224,0,0,1-1.11.638,1.633,1.633,0,0,1-.554-.194,3.891,3.891,0,0,0-1.886-.361,2.194,2.194,0,0,0-2.191,1.969c-.25,1.441.553,2.051,1.47,2.051a3.994,3.994,0,0,0,2.079-.415,1.278,1.278,0,0,1,.582-.14.955.955,0,0,1,.86.639,14.194,14.194,0,0,1,.389,1.441,1.737,1.737,0,0,1-.8,1.109,7.16,7.16,0,0,1-3.966,1.109c-3.716,0-5.3-2.135-4.659-5.8.638-3.605,2.967-5.741,6.684-5.741a5.221,5.221,0,0,1,3.578,1.137A1.094,1.094,0,0,1,3774.074,1673.262Z" transform="translate(-3596.312 -1635.761)"/><path class="c" d="M3780.675,1679.5a5.33,5.33,0,0,0-.638-1.524l-.389.138-.47,2.607a1.254,1.254,0,0,1-1.248,1.082h-1.886a.864.864,0,0,1-.914-1.082l2.412-13.588a1.283,1.283,0,0,1,1.276-1.082h1.886a.848.848,0,0,1,.887,1.082l-1.192,6.684a5.354,5.354,0,0,0,2.274-2.246,1.348,1.348,0,0,1,1.275-1h1.858a.89.89,0,0,1,.887,1.137,9.107,9.107,0,0,1-3,4.27,7.436,7.436,0,0,1,1,1.942l.971,2.634a1.39,1.39,0,0,1-1.277,1.248h-2.024a1.489,1.489,0,0,1-1.22-.915Z" transform="translate(-3597.892 -1635.091)"/></g></g><g transform="translate(769.892 476.078)"><g transform="translate(0 0.775)"><path class="c" d="M396,1196.06l2.05-9.573c.125-.571.374-.834.91-.834h.249c.535,0,.8.32.66.89l-1.926,9.075h4.919c.521,0,.8.2.8.521a1.584,1.584,0,0,1-.321.927c-.125.143-.321.2-.714.2h-5.667C396.181,1197.255,395.843,1196.844,396,1196.06Z" transform="translate(-395.964 -1185.653)"/></g><g transform="translate(8.831 3.586)"><path class="c" d="M411.011,1195.537a3.72,3.72,0,0,1-3.208,1.819,3.285,3.285,0,0,1-3.365-3.2,2.879,2.879,0,0,1,.013-.381c0-2.692,2-5.42,4.795-5.42a3.133,3.133,0,0,1,2.907,1.657c.249-1.1.641-1.515,1.391-1.515a.849.849,0,0,1,.642.214l-1.375,6.471c-.2.892-.036,1.211.7,1.283.035,0,0,.834-1.053.834C411.35,1197.3,410.9,1196.624,411.011,1195.537Zm.5-2.515.285-1.338a2.423,2.423,0,0,0-2.443-1.908c-1.964,0-3.155,1.981-3.155,3.829a2.084,2.084,0,0,0,1.877,2.273h.008c.069,0,.136.008.2.008a3.463,3.463,0,0,0,3.231-2.866Z" transform="translate(-404.436 -1188.35)"/></g><g transform="translate(22.356 3.589)"><path class="c" d="M417.415,1193.4a4.886,4.886,0,0,1,4.722-5.044h.127a3.828,3.828,0,0,1,4.009,3.639v0c0,.1.006.208,0,.313a4.885,4.885,0,0,1-4.721,5.043h-.128a3.83,3.83,0,0,1-4.009-3.642h0C417.412,1193.61,417.412,1193.505,417.415,1193.4Zm7.238-1.016a2.484,2.484,0,0,0-2.342-2.618H422.2a3.39,3.39,0,0,0-3.156,3.566,2.483,2.483,0,0,0,2.342,2.617h.118a3.391,3.391,0,0,0,3.15-3.562Z" transform="translate(-417.412 -1188.353)"/></g><g transform="translate(32.554 0)"><path class="c" d="M427.5,1196.519l1.355-6.364h-.963c-.446,0-.7-.162-.7-.464a1.415,1.415,0,0,1,.284-.8.787.787,0,0,1,.625-.177h1.053l.195-.834c.429-2.085,1.533-2.96,3.043-2.96a2.173,2.173,0,0,1,1.641.534.972.972,0,0,1,.286.66c0,.521-.5.874-.552.82a1.638,1.638,0,0,0-1.283-.589c-.73,0-1.229.464-1.48,1.64l-.161.729h1.459c.464,0,.713.161.713.446a1.481,1.481,0,0,1-.285.82.8.8,0,0,1-.625.178H430.6l-1.337,6.364c-.125.625-.374.834-.8.834h-.214C427.787,1197.356,427.37,1197.161,427.5,1196.519Z" transform="translate(-427.196 -1184.909)"/></g><g transform="translate(38.313 3.587)"><path class="c" d="M432.723,1193.787a5.316,5.316,0,0,1,5.192-5.437h.208c2.051,0,3.231.963,3.231,2.371,0,1.73-1.141,2.781-4.974,2.781-.625,0-1.283-.034-2.05-.089v.322a2.124,2.124,0,0,0,1.966,2.271,2.091,2.091,0,0,0,.391-.008,3.2,3.2,0,0,0,2.751-1.337c.035-.054.8.125.8.73a1.125,1.125,0,0,1-.429.891,4.272,4.272,0,0,1-3.155,1.07C434.041,1197.355,432.723,1195.839,432.723,1193.787Zm1.89-1.6a13.42,13.42,0,0,0,1.6.09c2.782,0,3.53-.714,3.53-1.5,0-.571-.553-1.1-1.694-1.1a3.8,3.8,0,0,0-3.44,2.517Z" transform="translate(-432.722 -1188.351)"/></g><g transform="translate(47.35 3.588)"><path class="c" d="M444.478,1190.009a2.623,2.623,0,0,1,2.357-1.657c.75,0,1.375.374,1.375.981a1.117,1.117,0,0,1-.766,1.142,1.408,1.408,0,0,0-1.141-.482c-1.264,0-2.1,1.516-2.552,3.656l-.57,2.727c-.125.625-.374.834-.8.834h-.214c-.464,0-.873-.2-.749-.834l1.659-7.791a.753.753,0,0,1,.446-.09C444.1,1188.494,444.674,1188.815,444.478,1190.009Z" transform="translate(-441.391 -1188.352)"/></g><g transform="translate(54.911 1.646)"><path class="c" d="M449.057,1194.257l.872-4.169h-.589c-.445,0-.7-.161-.7-.465a1.289,1.289,0,0,1,.285-.8.789.789,0,0,1,.625-.178h.678l.143-.7c.214-1.053.605-1.459,1.355-1.459.374,0,.678.162.659.214l-.41,1.943h1.836c.464,0,.714.161.714.446a1.486,1.486,0,0,1-.286.82.787.787,0,0,1-.625.179h-1.964l-.89,4.136c-.267,1.3.144,1.818.982,1.818a1.62,1.62,0,0,0,1.124-.5c.053-.035.339.232.339.641a1.017,1.017,0,0,1-.339.75,2.25,2.25,0,0,1-1.586.516C449.518,1197.449,448.609,1196.344,449.057,1194.257Z" transform="translate(-448.645 -1186.489)"/></g><g transform="translate(60.922 3.585)"><path class="c" d="M460.988,1195.537a3.722,3.722,0,0,1-3.21,1.819,3.286,3.286,0,0,1-3.352-3.583c0-2.692,2-5.42,4.795-5.42a3.128,3.128,0,0,1,2.906,1.657c.249-1.1.642-1.516,1.391-1.516a.855.855,0,0,1,.641.214l-1.375,6.471c-.2.891-.036,1.212.7,1.283.037,0,0,.834-1.052.834C461.326,1197.3,460.882,1196.624,460.988,1195.537Zm.5-2.515.285-1.338a2.423,2.423,0,0,0-2.443-1.908c-1.964,0-3.155,1.98-3.155,3.83a2.09,2.09,0,0,0,1.887,2.273c.067.006.133.008.2.008a3.463,3.463,0,0,0,3.231-2.866Z" transform="translate(-454.412 -1188.348)"/></g><g transform="translate(74.876 1.646)"><path class="c" d="M468.211,1194.257l.873-4.169H468.5c-.446,0-.7-.161-.7-.465a1.3,1.3,0,0,1,.285-.8.789.789,0,0,1,.625-.178h.677l.143-.7c.214-1.053.606-1.459,1.355-1.459.374,0,.677.162.66.214l-.411,1.943h1.836c.465,0,.715.161.715.446a1.493,1.493,0,0,1-.286.82.788.788,0,0,1-.625.179h-1.964l-.891,4.136c-.267,1.3.143,1.818.982,1.818a1.62,1.62,0,0,0,1.124-.5c.053-.035.339.232.339.641a1.015,1.015,0,0,1-.339.75,2.25,2.25,0,0,1-1.586.516C468.674,1197.449,467.766,1196.344,468.211,1194.257Z" transform="translate(-467.8 -1186.489)"/></g><g transform="translate(80.832 3.587)"><path class="c" d="M473.515,1193.787a5.316,5.316,0,0,1,5.192-5.437h.208c2.05,0,3.231.963,3.231,2.371,0,1.73-1.141,2.781-4.974,2.781-.625,0-1.283-.034-2.05-.089v.322a2.124,2.124,0,0,0,1.966,2.271,2.092,2.092,0,0,0,.391-.008,3.2,3.2,0,0,0,2.75-1.337c.035-.054.8.125.8.73a1.12,1.12,0,0,1-.428.891,4.274,4.274,0,0,1-3.156,1.07C474.834,1197.355,473.515,1195.839,473.515,1193.787Zm1.89-1.6a13.421,13.421,0,0,0,1.6.09c2.781,0,3.529-.714,3.529-1.5,0-.571-.551-1.1-1.694-1.1a3.8,3.8,0,0,0-3.44,2.517Z" transform="translate(-473.513 -1188.351)"/></g><g transform="translate(89.867 3.588)"><path class="c" d="M485.269,1190.009a2.623,2.623,0,0,1,2.357-1.657c.749,0,1.376.374,1.376.981a1.121,1.121,0,0,1-.767,1.142,1.406,1.406,0,0,0-1.14-.482c-1.265,0-2.1,1.516-2.553,3.656l-.571,2.727c-.124.625-.374.834-.8.834h-.214c-.464,0-.873-.2-.749-.834l1.658-7.791a.754.754,0,0,1,.446-.09C484.892,1188.494,485.465,1188.815,485.269,1190.009Z" transform="translate(-482.182 -1188.352)"/></g><g transform="translate(96.495 3.585)"><path class="c" d="M500.332,1195.91a9.514,9.514,0,0,1,.446-2.21,10.061,10.061,0,0,0,.41-2.068,1.564,1.564,0,0,0-1.362-1.737,1.533,1.533,0,0,0-.208-.01,2.735,2.735,0,0,0-2.425,1.533l-1.034,4.956c-.143.642-.446.834-.909.834h-.178c-.464,0-.82-.177-.677-.834l.856-4.1c.3-1.408-.321-2.389-1.459-2.389a2.7,2.7,0,0,0-2.405,1.551l-1.053,4.938c-.125.66-.446.834-.891.834h-.2c-.465,0-.8-.2-.677-.834l1.657-7.79a.751.751,0,0,1,.445-.089c.571,0,1.106.285.982,1.337a3.393,3.393,0,0,1,2.782-1.48,2.552,2.552,0,0,1,2.584,1.855,3.73,3.73,0,0,1,3.231-1.855,2.692,2.692,0,0,1,2.785,2.595h0v.24a12.13,12.13,0,0,1-.5,2.586,9.55,9.55,0,0,0-.428,1.924c0,.481.249.66.729.714.037,0-.035.89-1.1.89a1.267,1.267,0,0,1-1.388-1.131A1.211,1.211,0,0,1,500.332,1195.91Z" transform="translate(-488.541 -1188.349)"/></g><g transform="translate(112.317 0.004)"><path class="c" d="M503.805,1195.306l1.251-5.83c.125-.625.358-.834.8-.834h.194c.482,0,.891.178.749.834l-1.23,5.849c-.2.89-.035,1.228.767,1.281.035,0,0,.834-1.106.834C503.931,1197.446,503.522,1196.626,503.805,1195.306Zm1.819-9.252a1.08,1.08,0,0,1,1.016-1.14h.09c.676,0,1.052.3,1.052.8a1.08,1.08,0,0,1-1,1.157h0a.74.74,0,0,1-.1,0c-.677,0-1.051-.321-1.051-.819Z" transform="translate(-503.72 -1184.914)"/></g><g transform="translate(116.17 3.578)"><path class="c" d="M510.532,1189.955a3.4,3.4,0,0,1,2.87-1.6,2.7,2.7,0,0,1,2.9,2.47v0a2.682,2.682,0,0,1,0,.363,11.282,11.282,0,0,1-.521,2.586,9.675,9.675,0,0,0-.428,1.925c0,.481.249.659.73.714.053,0-.035.89-1.088.89a1.277,1.277,0,0,1-1.406-1.131h0a1.371,1.371,0,0,1,0-.261,10.521,10.521,0,0,1,.446-2.21,9.179,9.179,0,0,0,.427-2.068,1.579,1.579,0,0,0-1.394-1.744,1.608,1.608,0,0,0-.318,0,2.829,2.829,0,0,0-2.532,1.711l-1.016,4.777c-.125.625-.374.834-.8.834h-.214c-.464,0-.874-.2-.749-.834l1.657-7.791a.756.756,0,0,1,.446-.089C510.141,1188.493,510.711,1188.8,510.532,1189.955Z" transform="translate(-507.417 -1188.343)"/></g><g transform="translate(126.314 3.585)"><path class="c" d="M523.724,1195.537a3.722,3.722,0,0,1-3.209,1.819,3.286,3.286,0,0,1-3.365-3.2,3.253,3.253,0,0,1,.012-.38c0-2.692,2-5.42,4.795-5.42a3.128,3.128,0,0,1,2.907,1.657c.249-1.1.642-1.516,1.391-1.516a.85.85,0,0,1,.642.214l-1.375,6.471c-.2.891-.036,1.211.7,1.283.037,0,0,.834-1.052.834C524.062,1197.3,523.617,1196.624,523.724,1195.537Zm.5-2.515.284-1.338a2.422,2.422,0,0,0-2.442-1.907c-1.964,0-3.155,1.981-3.155,3.829a2.089,2.089,0,0,0,1.887,2.273,1.952,1.952,0,0,0,.2.008,3.462,3.462,0,0,0,3.226-2.866Z" transform="translate(-517.149 -1188.348)"/></g><g transform="translate(139.767 3.587)"><path class="c" d="M530.057,1193.787a5.315,5.315,0,0,1,5.192-5.437h.208c2.05,0,3.231.963,3.231,2.371,0,1.73-1.141,2.781-4.975,2.781-.625,0-1.283-.034-2.05-.089v.322a2.124,2.124,0,0,0,1.966,2.271,2.1,2.1,0,0,0,.392-.008,3.2,3.2,0,0,0,2.749-1.337c.035-.054.8.125.8.73a1.127,1.127,0,0,1-.428.891,4.276,4.276,0,0,1-3.156,1.07C531.377,1197.355,530.057,1195.839,530.057,1193.787Zm1.891-1.6a13.426,13.426,0,0,0,1.6.09c2.781,0,3.531-.714,3.531-1.5,0-.571-.552-1.1-1.694-1.1a3.8,3.8,0,0,0-3.439,2.517Z" transform="translate(-530.056 -1188.351)"/></g><g transform="translate(148.793 3.578)"><path class="c" d="M541.832,1189.955a3.4,3.4,0,0,1,2.87-1.6,2.665,2.665,0,0,1,2.9,2.835,11.292,11.292,0,0,1-.521,2.586,9.726,9.726,0,0,0-.428,1.924c0,.482.249.66.73.714.053,0-.036.89-1.088.89a1.278,1.278,0,0,1-1.407-1.135,1.243,1.243,0,0,1,0-.257,10.506,10.506,0,0,1,.446-2.211,9.227,9.227,0,0,0,.428-2.068,1.576,1.576,0,0,0-1.388-1.743h0a1.64,1.64,0,0,0-.321,0,2.829,2.829,0,0,0-2.532,1.715l-1.016,4.777c-.125.625-.375.834-.8.834h-.214c-.464,0-.873-.2-.749-.834l1.657-7.791a.774.774,0,0,1,.446-.09C541.44,1188.493,542.01,1188.8,541.832,1189.955Z" transform="translate(-538.715 -1188.343)"/></g><g transform="translate(158.786 4.557)"><path class="c" d="M548.307,1196.475a1.533,1.533,0,0,1,.374-1.124,1.053,1.053,0,0,1,.857-.285c.66,0,1.016.267,1.016.748a1.53,1.53,0,0,1-.357,1.125,1.1,1.1,0,0,1-.873.285C548.663,1197.226,548.307,1196.959,548.307,1196.475Zm1.23-5.793a1.664,1.664,0,0,1,.357-1.123,1.093,1.093,0,0,1,.874-.267c.66,0,1.016.249,1.016.749a1.67,1.67,0,0,1-.357,1.124,1.1,1.1,0,0,1-.873.267c-.659,0-1.015-.246-1.015-.749Z" transform="translate(-548.303 -1189.281)"/></g></g></g></svg>