<svg xmlns="http://www.w3.org/2000/svg" width="701.917" height="336.542" viewBox="0 0 701.917 336.542"><defs><style>.a{fill:#ea0d90;}.b,.h{fill:#fff;}.c{fill:#0c1e39;}.d{fill:#fc0;}.e{fill:#fbbf00;}.f{fill:#f82900;}.g{fill:#ff7619;}.h{fill-rule:evenodd;}.i{fill:#ffde6e;}</style></defs><g transform="translate(-1231.95 -1969.547)"><path class="a" d="M1405.064,2025.956v5.333c0,6.423-3.519,10.093-10.3,10.093s-10.3-3.67-10.3-10.093v-20.873c0-6.423,3.518-10.093,10.3-10.093s10.3,3.67,10.3,10.093v3.9h-6.535v-4.3c0-2.867-1.382-3.956-3.582-3.956s-3.582,1.089-3.582,3.956v21.678c0,2.867,1.383,3.9,3.582,3.9s3.582-1.031,3.582-3.9v-5.738Z"/><path class="a" d="M1415.055,2027.62l-8.734-26.835h7.225l5.279,18.293,5.278-18.293h6.6l-8.734,26.835v13.3h-6.911Z"/><path class="a" d="M1454.143,2010.015v1.433c0,4.13-1.383,6.767-4.462,8.086,3.707,1.319,5.153,4.359,5.153,8.6v3.269c0,6.193-3.582,9.519-10.493,9.519h-10.87v-40.144H1443.9C1451.06,2000.783,1454.143,2003.822,1454.143,2010.015Zm-13.762-3.5v10.609h2.7c2.576,0,4.147-1.032,4.147-4.245v-2.233c0-2.867-1.069-4.129-3.519-4.129Zm0,16.344v12.33h3.955c2.326,0,3.582-.975,3.582-3.957v-3.5c0-3.727-1.32-4.875-4.461-4.875Z"/><path class="a" d="M1465.889,2017.7h9.49v5.735h-9.49v11.76h11.938v5.735h-18.853v-40.142h18.853v5.734h-11.938Z"/><path class="a" d="M1496.549,2040.925c-.372-1.032-.627-1.663-.627-4.932v-6.308c0-3.727-1.383-5.1-4.525-5.1h-2.388v16.344H1482.1v-40.142h10.43c7.165,0,10.242,3.039,10.242,9.232v3.155c0,4.129-1.445,6.824-4.524,8.143,3.456,1.319,4.587,4.358,4.587,8.544v6.194a10.853,10.853,0,0,0,.754,4.874Zm-7.536-34.408v12.329h2.7c2.576,0,4.148-1.032,4.148-4.246v-3.953c0-2.867-1.069-4.129-3.52-4.129Z"/><path class="b" d="M1542.374,2074.617a6.122,6.122,0,1,1,6.122-6.123,6.122,6.122,0,0,1-6.122,6.123Zm0-9.583a3.46,3.46,0,1,0,3.459,3.461h0A3.466,3.466,0,0,0,1542.374,2065.034Z"/><path class="a" d="M1446.9,2071.231h30.685c6.628,0,10.842,5.373,9.409,12l-3.861,17.88c-1.433,6.629-7.964,12-14.594,12h-30.685c-6.628,0-10.841-5.373-9.409-12l3.861-17.88C1433.736,2076.6,1440.269,2071.231,1446.9,2071.231Z"/><path class="c" d="M1430.058,2153.056a16.27,16.27,0,0,0,14.844-9.422h-7.232a7.646,7.646,0,0,1-6.4,3.462c-4.039,0-6.157-3-5.127-7.77s4.447-7.769,8.484-7.769a4.6,4.6,0,0,1,4.906,3.461h7.232c-.275-5.845-4.34-9.461-10.764-9.461a17.078,17.078,0,0,0-16.551,13.768C1417.7,2147.406,1422.092,2153.056,1430.058,2153.056Z"/><path class="c" d="M1465.206,2142.023c-.69,3.191-2.741,5.035-5.859,5.035s-4.294-1.847-3.6-5.035l3.49-16.154h-6.585l-3.479,16.112c-1.612,7.462,2.478,11.158,8.748,11.158a13.739,13.739,0,0,0,13.871-11.158l3.479-16.112h-6.582Z"/><path class="c" d="M1486.769,2153.138c7.644-.031,15.151-6.248,16.769-13.885s-3.267-13.8-10.91-13.769c-7.614.031-15.1,6.2-16.753,13.807-1.794,7.464,2.771,13.663,10.194,13.845C1486.3,2153.142,1486.533,2153.143,1486.769,2153.138Zm4.685-21.692c4.311,0,6.46,3.039,5.422,7.848-1.021,4.73-4.5,7.848-8.811,7.848-4.384,0-6.48-3.113-5.459-7.848,1.035-4.807,4.461-7.848,8.849-7.848Z"/><path class="c" d="M1509.978,2152.87h6.577l4.694-21.733h7.158l1.138-5.269h-20.884l-1.138,5.269h7.161Z"/><path class="c" d="M1544.855,2148.1l.585,4.769h6.958l-3.936-27h-7.614l-15.606,27.006h6.885l2.645-4.77Zm-1.806-14.964,1.208,9.887H1537.6Z"/><path class="c" d="M1423.417,2178.634h8.347a8.407,8.407,0,0,1-7.569,4.77c-4.731,0-6.944-2.922-5.865-7.923,1.014-4.69,4.468-7.69,8.7-7.69,2.461,0,4.1.961,4.709,2.77h7.269c-.227-5.538-4.2-8.846-10.665-8.846a17.15,17.15,0,0,0-16.7,13.77c-1.745,8.077,2.726,13.731,10.8,13.731,5.894.168,12.03-3.636,15.014-9.3l1.32-6.115H1424.47Z"/><path class="c" d="M1464.092,2170.518c1.013-4.692-1.471-8.5-8.086-8.5h-11.041l-5.831,27h6.576l2.2-10.192h1.576l3.418,10.192h7.423l-3.925-10.694A10.405,10.405,0,0,0,1464.092,2170.518Zm-11.1,3.662h-4.081l1.446-6.692h4.081c2.462,0,3.333,1.3,2.9,3.308a4.022,4.022,0,0,1-4.345,3.383Z"/><path class="c" d="M1478.043,2162.015l-15.6,27.006h6.886l2.645-4.77h10.076l.586,4.77h6.958l-3.942-27Zm-3.243,17.154,5.444-9.886,1.207,9.886Z"/><path class="c" d="M1495.793,2167.288h7.153l-4.694,21.733h6.577l4.693-21.733h7.158l1.138-5.269H1496.93Z"/><path class="c" d="M1521.124,2162.021h6.577l-5.831,27h-6.577Z"/><path class="c" d="M1537.152,2169.368a3.079,3.079,0,0,1,3.3-2.461,2.282,2.282,0,0,1,2.552,1.974h0a2.3,2.3,0,0,1-.029.745h0l-.02.086h7.116c.842-5.154-2.492-8.074-8.37-8.074-5.656,0-10.46,2.845-11.566,7.964-2.144,9.574,11.937,6.886,10.856,11.885-.34,1.576-1.78,2.538-3.7,2.538a2.416,2.416,0,0,1-2.729-2.829v-.009c.011-.081.024-.162.042-.245h-7c-.988,5.463,2.929,8.346,8.735,8.346,6.306,0,10.661-3.769,11.645-8.308C1549.943,2171.947,1536.138,2174.056,1537.152,2169.368Z"/><path class="c" d="M1318.127,2170.126c27.562-19.317,56.6-38.48,60.609-57.042,1.726-8-.786-13.127-8.633-13.127-7.694,0-13.526,6.036-15.775,16.452h-24.9c6.524-26.714,26.354-38.175,46.424-38.175,25.05,0,33.056,14.638,29.048,33.2-5.218,24.147-30.968,43.46-51.369,56.891h40.738l-4.532,20.972h-75.754Z"/><path class="b" d="M1325.654,2170.126c27.563-19.317,56.6-38.48,60.612-57.042,1.724-8-.788-13.127-8.635-13.127-7.7,0-13.526,6.036-15.775,16.452h-24.9c6.524-26.714,26.354-38.175,46.425-38.175,25.05,0,33.057,14.638,29.048,33.2-5.218,24.147-30.968,43.46-51.371,56.891H1401.8l-4.531,20.975h-75.756Z"/><path class="b" d="M1433.659,2153.056a16.274,16.274,0,0,0,14.844-9.424h-7.228a7.65,7.65,0,0,1-6.4,3.463c-4.038,0-6.158-3-5.126-7.771s4.446-7.769,8.486-7.769a4.6,4.6,0,0,1,4.906,3.462h7.231c-.274-5.845-4.344-9.461-10.766-9.461a17.075,17.075,0,0,0-16.549,13.769C1421.306,2147.405,1425.7,2153.056,1433.659,2153.056Z"/><path class="b" d="M1468.81,2142.023c-.69,3.191-2.741,5.035-5.858,5.035s-4.294-1.847-3.6-5.035l3.49-16.154h-6.578l-3.479,16.112c-1.612,7.462,2.478,11.158,8.747,11.158a13.739,13.739,0,0,0,13.871-11.158l3.479-16.112H1472.3Z"/><path class="b" d="M1490.373,2153.138c7.643-.031,15.15-6.248,16.769-13.885s-3.268-13.8-10.911-13.769c-7.614.031-15.1,6.2-16.753,13.807-1.794,7.464,2.77,13.663,10.2,13.845C1489.905,2153.142,1490.143,2153.142,1490.373,2153.138Zm4.684-21.692c4.312,0,6.461,3.039,5.423,7.848-1.021,4.73-4.5,7.848-8.81,7.848-4.385,0-6.481-3.113-5.459-7.848,1.035-4.807,4.463-7.848,8.848-7.848Z"/><path class="b" d="M1513.585,2152.87h6.577l4.694-21.733h7.153l1.139-5.269h-20.883l-1.139,5.269h7.153Z"/><path class="b" d="M1548.46,2148.1l.585,4.769H1556l-3.936-27h-7.615l-15.6,27.006h6.885l2.645-4.77Zm-1.806-14.962,1.207,9.888h-6.653Z"/><path class="b" d="M1427.02,2178.634h8.348a8.411,8.411,0,0,1-7.569,4.77c-4.73,0-6.944-2.922-5.865-7.923,1.014-4.69,4.469-7.69,8.7-7.69,2.462,0,4.1.961,4.71,2.77h7.27c-.228-5.538-4.2-8.846-10.665-8.846a17.151,17.151,0,0,0-16.7,13.77c-1.745,8.077,2.728,13.731,10.8,13.731,5.894.166,12.03-3.639,15.006-9.307l1.321-6.115h-14.312Z"/><path class="b" d="M1467.7,2170.518c1.013-4.692-1.472-8.5-8.088-8.5h-11.039l-5.832,27h6.577l2.2-10.192h1.577l3.419,10.192h7.422l-3.921-10.694A10.406,10.406,0,0,0,1467.7,2170.518Zm-11.1,3.662h-4.077l1.445-6.692h4.079c2.462,0,3.333,1.3,2.9,3.308a4.02,4.02,0,0,1-4.345,3.383Z"/><path class="b" d="M1481.649,2162.015l-15.6,27h6.885l2.644-4.769h10.074l.586,4.769h6.958l-3.936-27Zm-3.243,17.154,5.443-9.886,1.207,9.886Z"/><path class="b" d="M1499.4,2167.288h7.158l-4.694,21.733h6.577l4.693-21.733h7.159l1.138-5.269h-20.891Z"/><path class="b" d="M1524.726,2162.021h6.574l-5.83,27h-6.577Z"/><path class="b" d="M1540.754,2169.368a3.079,3.079,0,0,1,3.3-2.461,2.279,2.279,0,0,1,2.55,1.971h0a2.247,2.247,0,0,1-.029.745h0c-.006.029-.008.06-.013.086h7.116c.843-5.154-2.486-8.077-8.371-8.077-5.654,0-10.46,2.847-11.566,7.965-2.15,9.572,11.937,6.885,10.856,11.885-.34,1.577-1.779,2.538-3.7,2.538a2.418,2.418,0,0,1-2.729-2.83v-.006c.01-.079.023-.16.042-.244h-6.995c-.987,5.457,2.929,8.346,8.736,8.346,6.307,0,10.661-3.769,11.644-8.308C1553.543,2171.948,1539.743,2174.056,1540.754,2169.368Z"/><path class="b" d="M1450.788,2081.944a4.128,4.128,0,0,1,3.942,2.188l1.446-6.646,4.4.007-4.129,18.993-4.394-.007.447-2.056a6.256,6.256,0,0,1-4.9,2.252c-3.519-.005-5.695-2.883-4.708-7.4S1447.275,2081.939,1450.788,2081.944Zm.452,3.828a4.154,4.154,0,0,0-3.9,3.513c-.5,2.288.712,3.571,2.354,3.574a4.167,4.167,0,0,0,3.906-3.538c.5-2.287-.7-3.545-2.363-3.548Z"/><path class="b" d="M1468.227,2081.972a3.911,3.911,0,0,1,3.933,2.239l.441-2.025,4.394.006-3.115,14.32-4.394-.006.441-2.029a6.386,6.386,0,0,1-4.93,2.227c-3.49-.005-5.663-2.883-4.68-7.4S1464.7,2081.966,1468.227,2081.972Zm.451,3.827a4.157,4.157,0,0,0-3.9,3.513c-.5,2.288.713,3.571,2.356,3.574a4.166,4.166,0,0,0,3.906-3.538c.5-2.287-.7-3.543-2.364-3.546Z"/><path class="b" d="M1440.343,2101.063H1472.9l-.931,4.313h-32.556Z"/><path class="d" d="M1908.775,2212.567c-.143-1.076-10.066-8.863-11.61-8.659-.431.058-.161.53-.538.58-1.792.239,5.513,6.515,7.192,8.408C1906.6,2216.024,1909.075,2214.784,1908.775,2212.567Z"/><path class="d" d="M1904.636,2190.467c.146.119,1.97,1.3,2.166,1.062C1909.146,2188.707,1902.218,2188.452,1904.636,2190.467Z"/><path class="d" d="M1926.088,2181.258a1.66,1.66,0,0,0,.956-.229.876.876,0,0,0,.428-.752c-.1-2.356-11.037-6.107-13.447-6.007-.3.012-.472.088-.466.233C1913.584,2175.04,1923.775,2181.355,1926.088,2181.258Z"/><path class="d" d="M1911.23,2160.7c-.047-1.141-4.091-3.213-3.991-.847C1907.291,2161.121,1911.31,2162.557,1911.23,2160.7Z"/><path class="d" d="M1933.468,2143.224c.874-.634.043-1.036.02-1.62-.127-3-14.791-.142-16.157,1.159-.39.375-.278,1.436.149,1.418a.308.308,0,0,1,.236.231C1917.775,2144.6,1933.165,2143.444,1933.468,2143.224Z"/><path class="d" d="M1914.841,2128.912a7.969,7.969,0,0,0,3.262-1.458c.778-1.034-.929-2.385-1.264-1.938a1.361,1.361,0,0,1-.6.146C1914.954,2125.764,1912.217,2128.677,1914.841,2128.912Z"/><path class="c" d="M1585.585,2141.319h13.14v-13.263a9.031,9.031,0,0,1,9.029-9.031h.639a9.031,9.031,0,0,1,9.031,9.031h0v13.26h13.26a9.032,9.032,0,0,1,9.031,9.03v.637a9.031,9.031,0,0,1-9.031,9.031h-13.26v13.14a9.031,9.031,0,0,1-9.031,9.031h-.637a9.03,9.03,0,0,1-9.031-9.029h0v-13.142h-13.14a9.03,9.03,0,0,1-9.031-9.029h0v-.639a9.03,9.03,0,0,1,9.03-9.03h0Z"/><path class="b" d="M1590.679,2144.055h13.14v-13.26a9.031,9.031,0,0,1,9.029-9.031h.639a9.031,9.031,0,0,1,9.031,9.031h0v13.26h13.26a9.031,9.031,0,0,1,9.03,9.03v.637a9.03,9.03,0,0,1-9.029,9.031h-13.261v13.14a9.031,9.031,0,0,1-9.031,9.031h-.637a9.031,9.031,0,0,1-9.031-9.031h0v-13.138h-13.14a9.03,9.03,0,0,1-9.031-9.029h0v-.639a9.03,9.03,0,0,1,9.03-9.03h0Z"/><path class="c" d="M1756.689,2091.221l-16.654,105.045-31.568,3.671,8.606-59.364c1.208-8.377,1.7-13.449,1.458-15.172s-1.387-3.068-3.455-4.022-6.94-1.567-14.654-1.828l-3.331-.113,1.753-13.087c16.6-2.2,29.54-7.6,39.033-16.182Z"/><path class="c" d="M1756.683,2091.217l4.408,3.746-5.68,4.27-4.486-2.883Z"/><path class="c" d="M1708.462,2199.936l4.409,3.745,2.782-3.6-.861-2.974-1.342-.212Z"/><path class="c" d="M1697.088,2119.44l4.409,3.745,2.465-2.655-.894-3.616-1.383-.22Z"/><path class="c" d="M1669.875,2091.333l-8.57,1.867-1.624-1.741.526-3.172a6.065,6.065,0,0,0,.079-2.822,1.181,1.181,0,0,0-1.2-.592,2.022,2.022,0,0,0-1.635.84,5.542,5.542,0,0,0-.923,2.491,6.729,6.729,0,0,0,.035,3.219q.366,1.078,2.668,2.577,6.609,4.322,8.055,7.127t.424,9.1a18.152,18.152,0,0,1-2.154,6.755,10.7,10.7,0,0,1-4.691,3.683,17.893,17.893,0,0,1-7.322,1.547,14.05,14.05,0,0,1-7.291-1.606,6.436,6.436,0,0,1-3.392-4.258,21.58,21.58,0,0,1,.269-7.414l.469-2.8,10.233-.121,1.624,1.741-2.485,3.467a6.645,6.645,0,0,0-.078,3.087,1.386,1.386,0,0,0,1.42.67,2.179,2.179,0,0,0,1.781-.892,5.768,5.768,0,0,0,.963-2.6q.621-3.78-.208-4.932a25.11,25.11,0,0,0-4.509-3.822,39.073,39.073,0,0,1-4.773-3.925,7.446,7.446,0,0,1-1.633-3.408,14.644,14.644,0,0,1,.069-5.59,17.941,17.941,0,0,1,2.451-7.2,10.858,10.858,0,0,1,4.6-3.6,17.4,17.4,0,0,1,6.877-1.365,15.474,15.474,0,0,1,7.038,1.308,5.942,5.942,0,0,1,3.4,3.478q.625,2.118-.21,7.217Z"/><path class="c" d="M1694.766,2076.7l2.322,2.317-21.927,42.3-6.4,1.833-1.625-1.741,19.76-44.609Z"/><path class="c" d="M1823.365,2128.829l-4.98,34.008q-1.69,11.589-3.7,16.9a28.729,28.729,0,0,1-6.576,9.953,27.439,27.439,0,0,1-10.381,6.73,38.547,38.547,0,0,1-12.63,2.167q-8.991.109-14.63-1.931a16.355,16.355,0,0,1-8.507-6.462,23.57,23.57,0,0,1-3.609-9.349q-.744-4.923.879-15.686l5.381-35.554q2.133-14.03,5.569-21.046a26.16,26.16,0,0,1,11.119-11.327,36.6,36.6,0,0,1,17.7-4.449,31.919,31.919,0,0,1,14.189,2.725q6.016,2.839,8.588,7.015a20.367,20.367,0,0,1,2.93,9.445Q1825.07,2117.242,1823.365,2128.829Zm-23.616-8.231q1.212-8.121.748-10.154t-3.293-2a4.282,4.282,0,0,0-3.988,2.22q-1.219,2.184-2.4,10.051l-7.423,49.729q-1.314,8.878-.752,10.692t3.351,1.781a4.222,4.222,0,0,0,3.969-2.187q1.185-2.151,2.289-9.642Z"/><path class="b" d="M1673.028,2093.073l-10.194.127.526-3.172a6.063,6.063,0,0,0,.079-2.822,1.181,1.181,0,0,0-1.2-.592,2.024,2.024,0,0,0-1.635.839,5.559,5.559,0,0,0-.923,2.492,6.728,6.728,0,0,0,.035,3.219q.366,1.078,2.67,2.578,6.609,4.319,8.054,7.126t.423,9.1a18.165,18.165,0,0,1-2.153,6.756,10.684,10.684,0,0,1-4.691,3.683,17.893,17.893,0,0,1-7.321,1.547,14.06,14.06,0,0,1-7.293-1.606,6.434,6.434,0,0,1-3.391-4.258,21.5,21.5,0,0,1,.27-7.414l.469-2.8,10.231-.12-.861,5.207a6.646,6.646,0,0,0-.077,3.088,1.386,1.386,0,0,0,1.42.67,2.177,2.177,0,0,0,1.78-.893,5.75,5.75,0,0,0,.962-2.6q.621-3.779-.207-4.931a25.068,25.068,0,0,0-4.51-3.822,38.952,38.952,0,0,1-4.772-3.926,7.455,7.455,0,0,1-1.631-3.407,14.623,14.623,0,0,1,.068-5.59,17.973,17.973,0,0,1,2.451-7.2,10.871,10.871,0,0,1,4.6-3.6,17.408,17.408,0,0,1,6.877-1.366,15.461,15.461,0,0,1,7.037,1.309,5.949,5.949,0,0,1,3.4,3.477q.625,2.116-.211,7.217Z"/><path class="b" d="M1697.085,2079.014l-19.6,44.62-8.019.092,19.76-44.609Z"/><path class="b" d="M1827.226,2132.964l-4.98,34.007q-1.687,11.589-3.7,16.9a28.743,28.743,0,0,1-6.576,9.953,27.444,27.444,0,0,1-10.381,6.73,38.577,38.577,0,0,1-12.63,2.167q-8.991.109-14.63-1.931a16.353,16.353,0,0,1-8.507-6.463,23.54,23.54,0,0,1-3.608-9.349q-.744-4.922.878-15.685l5.382-35.554q2.134-14.03,5.568-21.047a26.143,26.143,0,0,1,11.118-11.327,36.591,36.591,0,0,1,17.7-4.448,31.916,31.916,0,0,1,14.189,2.725q6.017,2.836,8.588,7.013a20.348,20.348,0,0,1,2.931,9.447Q1828.928,2121.379,1827.226,2132.964Zm-23.617-8.231q1.212-8.119.748-10.155t-3.293-2a4.281,4.281,0,0,0-3.989,2.221q-1.218,2.184-2.4,10.051l-7.423,49.73q-1.317,8.878-.752,10.692t3.351,1.78a4.218,4.218,0,0,0,3.969-2.187q1.185-2.151,2.289-9.642Z"/><path class="c" d="M1891.083,2126.785l-4.98,34.007q-1.691,11.589-3.7,16.9a28.726,28.726,0,0,1-6.576,9.953,27.448,27.448,0,0,1-10.382,6.73,38.583,38.583,0,0,1-12.63,2.167q-8.988.109-14.631-1.932a16.348,16.348,0,0,1-8.506-6.462,23.572,23.572,0,0,1-3.609-9.349q-.744-4.922.879-15.684l5.381-35.554q2.133-14.03,5.569-21.047a26.156,26.156,0,0,1,11.119-11.327,36.59,36.59,0,0,1,17.7-4.449,31.917,31.917,0,0,1,14.189,2.726q6.018,2.836,8.587,7.014a20.382,20.382,0,0,1,2.932,9.445Q1892.785,2115.2,1891.083,2126.785Zm-23.616-8.231q1.215-8.118.748-10.153t-3.293-2a4.283,4.283,0,0,0-3.987,2.22q-1.218,2.184-2.4,10.05l-7.422,49.729q-1.314,8.88-.753,10.693t3.352,1.78a4.219,4.219,0,0,0,3.969-2.188q1.182-2.151,2.288-9.641Z"/><path class="b" d="M1894.943,2130.921l-4.979,34.007q-1.689,11.589-3.7,16.9a28.682,28.682,0,0,1-6.576,9.953,27.44,27.44,0,0,1-10.376,6.731,38.581,38.581,0,0,1-12.63,2.166q-8.991.108-14.631-1.932a16.365,16.365,0,0,1-8.507-6.462,23.556,23.556,0,0,1-3.608-9.349q-.744-4.922.88-15.685l5.381-35.555q2.132-14.03,5.568-21.048a26.151,26.151,0,0,1,11.117-11.327,36.589,36.589,0,0,1,17.7-4.448,31.888,31.888,0,0,1,14.188,2.725q6.018,2.837,8.588,7.013a20.37,20.37,0,0,1,2.93,9.447Q1896.644,2119.335,1894.943,2130.921Zm-23.618-8.231q1.214-8.118.749-10.155t-3.294-2a4.282,4.282,0,0,0-3.988,2.22q-1.215,2.184-2.4,10.052l-7.423,49.73q-1.314,8.878-.753,10.692t3.352,1.78a4.22,4.22,0,0,0,3.969-2.187q1.184-2.151,2.288-9.642Z"/><path class="b" d="M1760.965,2095.786l-16.988,107.121-31.2.758,8.564-58.526c1.208-8.375,1.7-13.448,1.459-15.172s-1.388-3.067-3.456-4.021-6.94-1.568-14.652-1.829l-3.331-.112,1.753-13.088c16.6-2.2,29.541-7.6,39.033-16.182Z"/><path class="b" d="M1863.359,2076.523H1759.491c-7.059,0-12.8-6.9-12.8-15.376s5.743-15.375,12.8-15.375h103.868c7.059,0,12.8,6.9,12.8,15.375S1870.418,2076.523,1863.359,2076.523Zm-103.867-29.255c-6.372,0-11.555,6.225-11.555,13.879s5.183,13.88,11.555,13.88h103.867c6.373,0,11.557-6.227,11.557-13.88s-5.184-13.879-11.557-13.879Z"/><path class="b" d="M1759.164,2067.533c-.406,0-.67-.345-.731-.863L1757,2054.7c.077-.64.478-1.132.917-1.132h1.32c.343,0,.649.419.688.885l.917,7.7,3.021-7.7c.192-.466.612-.885.957-.885h1.319c.44,0,.688.492.612,1.132l-4.723,11.974a1.163,1.163,0,0,1-.956.863Z"/><path class="b" d="M1773.1,2067.656c-1.127,0-1.28-1.082-1.4-1.893l-.172-1.18h-2.81l-.841,2.04c-.171.492-.535.911-.917.911h-1.38c-.439,0-.73-.418-.63-1.008l4.894-12.1a1.214,1.214,0,0,1,.956-.863h1.606c.363,0,.631.345.708.863l1.3,9.687c.057.32.077.59.134.614a.964.964,0,0,1,.325.886l-.116.81A1.546,1.546,0,0,1,1773.1,2067.656Zm-3.154-6.2h1.166l-.267-2.238Z"/><path class="b" d="M1777.036,2067.533c-.459,0-.73-.417-.632-1.008l1.623-11.951a1.05,1.05,0,0,1,.918-1.007h1.244c.44,0,.73.419.63,1.007l-1.319,9.64h3.576c.44,0,.725.417.649.983l-.171,1.327a1.066,1.066,0,0,1-.918,1.008Z"/><path class="b" d="M1786.019,2067.533c-.459,0-.73-.417-.63-1.008l1.623-11.951a1.051,1.051,0,0,1,.917-1.007h5.87c.459,0,.707.419.611,1.007l-.171,1.353a1.014,1.014,0,0,1-.9.984h-3.845l-.287,1.992h2.734c.44,0,.688.443.611,1.007l-.171,1.328a1.056,1.056,0,0,1-.9,1.008h-2.734l-.268,1.968h3.844c.458,0,.707.417.63.983l-.173,1.327c-.095.591-.439,1.008-.9,1.008Z"/><path class="b" d="M1805.538,2067.468c-.4,0-.669-.345-.73-.863l-1.434-11.975c.076-.639.478-1.131.918-1.131h1.32c.343,0,.649.418.688.884l.918,7.7,3.021-7.7c.192-.467.611-.884.956-.884h1.319c.44,0,.688.491.611,1.131L1808.4,2066.6a1.164,1.164,0,0,1-.956.863Z"/><path class="b" d="M1816.034,2066.456a1.067,1.067,0,0,1-.919,1.009h-1.264c-.439,0-.707-.417-.611-1.009l1.623-11.95a1.052,1.052,0,0,1,.9-1.007h1.262c.44,0,.73.418.63,1.007Z"/><path class="b" d="M1824.252,2053.5c2.638,0,3.767,1.475,3.308,4.844a5.779,5.779,0,0,1-1.7,3.86,20.31,20.31,0,0,0,.44,2.459.9.9,0,0,1,.268.886l-.115.81a1.517,1.517,0,0,1-1.622,1.231c-1.033,0-1.2-.836-1.358-1.747l-.44-2.7h-1.338l-.458,3.319c-.1.591-.44,1.009-.918,1.009h-1.224c-.44,0-.746-.418-.649-1.009l1.623-11.95a1.082,1.082,0,0,1,.936-1.008Zm.516,4.844c.115-.911-.21-1.5-.8-1.5h-1.414l-.421,2.975h1.415c.612,0,1.09-.54,1.223-1.475Z"/><path class="b" d="M1837,2053.5c.44,0,.688.418.594,1.007l-.173,1.353a1.01,1.01,0,0,1-.88.984h-1.892l-1.319,9.613a1.067,1.067,0,0,1-.918,1.009h-1.262c-.441,0-.707-.417-.612-1.009l1.32-9.613h-1.893c-.44,0-.688-.419-.612-.984l.172-1.353a1.048,1.048,0,0,1,.9-1.007Z"/><path class="b" d="M1838.511,2061.2l.917-6.69a1.083,1.083,0,0,1,.938-1.007h1.242c.44,0,.708.418.612,1.007l-.936,6.861c-.364,2.7.5,2.9,1.147,2.9s1.587-.2,1.948-2.9l.936-6.861a1.067,1.067,0,0,1,.918-1.007h1.243c.439,0,.73.418.631,1.007l-.918,6.69c-.745,5.507-2.542,6.393-5.2,6.393S1837.765,2066.706,1838.511,2061.2Z"/><path class="b" d="M1856.079,2067.592c-1.127,0-1.281-1.082-1.4-1.894l-.173-1.181h-2.81l-.84,2.041c-.171.492-.536.911-.918.911h-1.379c-.44,0-.73-.418-.632-1.009l4.9-12.1a1.211,1.211,0,0,1,.956-.863h1.606c.363,0,.631.345.708.863l1.3,9.688c.057.319.076.591.134.614a.957.957,0,0,1,.324.886l-.114.81A1.55,1.55,0,0,1,1856.079,2067.592Zm-3.155-6.2h1.167l-.268-2.239Z"/><path class="b" d="M1860.014,2067.468c-.459,0-.73-.417-.631-1.009l1.622-11.95a1.051,1.051,0,0,1,.918-1.007h1.243c.44,0,.73.418.631,1.007l-1.32,9.639h3.576c.44,0,.73.418.649.985l-.171,1.326a1.066,1.066,0,0,1-.918,1.009Z"/><path class="b" d="M1712.185,2238.191a.92.92,0,0,1-.943-.851l-1.86-11.844a1.281,1.281,0,0,1,1.19-1.12h1.712a.974.974,0,0,1,.9.877l1.191,7.615,3.921-7.615a1.651,1.651,0,0,1,1.241-.877h1.712c.57,0,.9.487.794,1.12l-6.128,11.844a1.447,1.447,0,0,1-1.241.851Z"/><path class="b" d="M1728.585,2229.749l-1.363,7.493a1.115,1.115,0,0,1-1.117.949h-1.162c-.447,0-.768-.1-.9-.462l-.074-.2a4.015,4.015,0,0,1-2.258.778c-2.8,0-3.3-2.311-2.854-4.791a6.13,6.13,0,0,1,6.154-5.328,9.022,9.022,0,0,1,3.1.584A.859.859,0,0,1,1728.585,2229.749Zm-3.943,1.776a2.265,2.265,0,0,0-2.134,2c-.224,1.289.269,1.507.793,1.507a1.848,1.848,0,0,0,.77-.291Zm1.091-8.855a1.53,1.53,0,0,1,.918-.365.741.741,0,0,1,.67.267l.77,1.095a.956.956,0,0,1,.2.8,1.352,1.352,0,0,1-.7.827l-2.481,1.728a1.943,1.943,0,0,1-.942.292.969.969,0,0,1-.716-.39l-.347-.438a1,1,0,0,1-.269-.828,2.061,2.061,0,0,1,.248-.534Z"/><path class="b" d="M1730.643,2225.344a1.183,1.183,0,0,1,1.142-.972h1.662a.787.787,0,0,1,.843.724.742.742,0,0,1-.024.248l-1.762,9.683c-.049.292,0,.439.074.462a.765.765,0,0,1,.372.853l-.148.777a1.172,1.172,0,0,1-.968.95,5.061,5.061,0,0,1-1.39.242c-1.985,0-1.835-1.727-1.687-2.579Z"/><path class="b" d="M1737.343,2237.218a1.207,1.207,0,0,1-1.163.972h-1.663a.763.763,0,0,1-.827-.689.736.736,0,0,1,.032-.283l1.416-7.906a1.162,1.162,0,0,1,1.14-.973h1.663a.788.788,0,0,1,.844.725.739.739,0,0,1-.024.248Zm.546-13.16a1.528,1.528,0,0,1,1.608,1.437,1.451,1.451,0,0,1-.045.436,2.311,2.311,0,0,1-2.237,1.873,1.535,1.535,0,0,1-1.588-1.872,2.365,2.365,0,0,1,2.262-1.875Z"/><path class="b" d="M1747.668,2236.8a1.329,1.329,0,0,1-.844.973,12.668,12.668,0,0,1-3.7.535c-3.374,0-4.715-2.017-4.116-5.231.57-3.211,2.828-4.889,5.383-4.889a4.127,4.127,0,0,1,1.164.146l.546-3.017a1.141,1.141,0,0,1,1.141-.949h1.688a.754.754,0,0,1,.822.676.739.739,0,0,1-.028.273Zm-4.046-1.776c.1,0,.5-.025.745-.048l.6-3.358a1.621,1.621,0,0,0-.6-.122c-.794,0-1.439.39-1.637,1.579C1742.481,2234.371,1742.679,2235.027,1743.622,2235.027Z"/><path class="b" d="M1749.207,2233.156c.545-2.992,2.431-4.963,5.806-4.963s4.563,1.971,4.019,4.963c-.57,3.211-2.457,5.157-5.831,5.157S1748.637,2236.365,1749.207,2233.156Zm6.2.024c.122-.7.05-1.679-.992-1.679s-1.464.973-1.588,1.679c-.125.73-.224,1.849.942,1.849S1755.282,2233.91,1755.407,2233.18Z"/><path class="b" d="M1764.615,2229.7a1.515,1.515,0,0,1,.992-1.046,13.674,13.674,0,0,1,3.549-.463c3.374,0,4.69,2.018,4.115,5.231s-2.555,4.889-5.929,4.889h-.645l-.67,3.674a1.163,1.163,0,0,1-1.141.973H1763.2a.771.771,0,0,1-.823-.713.735.735,0,0,1,.029-.26Zm2.654,5.328h.472a1.827,1.827,0,0,0,1.91-1.6c.224-1.29-.073-1.923-1.016-1.923a4.427,4.427,0,0,0-.716.05Z"/><path class="b" d="M1783.323,2229.748l-1.365,7.493a1.111,1.111,0,0,1-1.115.949h-1.164c-.447,0-.768-.1-.894-.462l-.075-.2a4.015,4.015,0,0,1-2.258.778c-2.8,0-3.3-2.311-2.853-4.791a6.129,6.129,0,0,1,6.153-5.328,9.023,9.023,0,0,1,3.1.584A.86.86,0,0,1,1783.323,2229.748Zm-3.944,1.776a2.267,2.267,0,0,0-2.134,2c-.224,1.289.268,1.508.793,1.508a1.847,1.847,0,0,0,.77-.291Z"/><path class="b" d="M1791.712,2228.994a.947.947,0,0,1,.321.877.827.827,0,0,1-.149.341l-.67,1.119a1.254,1.254,0,0,1-.991.608.748.748,0,0,1-.4-.122,3.065,3.065,0,0,0-1.19-.316,1.476,1.476,0,0,0-.8.219l-.992,5.522a1.113,1.113,0,0,1-1.116.949h-1.682a.769.769,0,0,1-.841-.686.753.753,0,0,1,.022-.263l1.29-7.152a1.318,1.318,0,0,1,.67-.9,6.79,6.79,0,0,1,3.945-1A3.535,3.535,0,0,1,1791.712,2228.994Z"/><path class="b" d="M1800.495,2229.748l-1.365,7.493a1.113,1.113,0,0,1-1.115.949h-1.164c-.447,0-.769-.1-.894-.462l-.074-.2a4.015,4.015,0,0,1-2.258.778c-2.8,0-3.3-2.311-2.853-4.791a6.126,6.126,0,0,1,6.153-5.328,9.022,9.022,0,0,1,3.1.584A.861.861,0,0,1,1800.495,2229.748Zm-3.945,1.776a2.263,2.263,0,0,0-2.134,2c-.224,1.289.268,1.508.794,1.508a1.857,1.857,0,0,0,.769-.291Z"/><path class="b" d="M1814.365,2230.113c-.025.146-.049.2-.793,1.316a1.1,1.1,0,0,1-.992.56,1.465,1.465,0,0,1-.5-.17,3.539,3.539,0,0,0-1.688-.316,1.95,1.95,0,0,0-1.96,1.727c-.224,1.265.5,1.8,1.315,1.8a3.619,3.619,0,0,0,1.861-.364,1.179,1.179,0,0,1,.522-.122.851.851,0,0,1,.769.56,11.819,11.819,0,0,1,.347,1.264,1.512,1.512,0,0,1-.715.973,6.487,6.487,0,0,1-3.549.973c-3.325,0-4.742-1.873-4.169-5.088a5.648,5.648,0,0,1,5.981-5.036,4.739,4.739,0,0,1,3.2,1A.946.946,0,0,1,1814.365,2230.113Z"/><path class="b" d="M1814.143,2233.156c.546-2.992,2.432-4.963,5.806-4.963s4.563,1.971,4.019,4.963c-.57,3.211-2.456,5.157-5.83,5.157S1813.572,2236.365,1814.143,2233.156Zm6.2.024c.125-.7.05-1.679-.992-1.679s-1.464.973-1.588,1.679c-.123.73-.223,1.849.943,1.849s1.518-1.119,1.638-1.849Z"/><path class="b" d="M1825.482,2229.7a1.428,1.428,0,0,1,.992-1.046,8.6,8.6,0,0,1,3.052-.463,3.91,3.91,0,0,1,2.829.852,4.805,4.805,0,0,1,2.556-.827c2.877,0,3,1.922,2.53,4.474l-.818,4.549a1.134,1.134,0,0,1-1.117.949h-1.687a.769.769,0,0,1-.841-.685.734.734,0,0,1,.022-.264l.819-4.452c.224-1.24.074-1.289-.348-1.289a2.047,2.047,0,0,0-.4.024c-.049.39-.149.9-.224,1.412l-.794,4.306a1.115,1.115,0,0,1-1.117.949h-1.39a.771.771,0,0,1-.84-.688.737.737,0,0,1,.022-.261l.77-4.282c.224-1.24.273-1.459-.372-1.459a2.488,2.488,0,0,0-.372.073l-1.018,5.668a1.115,1.115,0,0,1-1.116.949h-1.688a.769.769,0,0,1-.84-.686.75.75,0,0,1,.022-.263Z"/><path class="b" d="M1839.005,2229.7a1.521,1.521,0,0,1,.991-1.046,13.676,13.676,0,0,1,3.549-.463c3.375,0,4.689,2.018,4.116,5.231s-2.556,4.889-5.93,4.889h-.645l-.671,3.674a1.162,1.162,0,0,1-1.141.973h-1.687a.76.76,0,0,1-.822-.692.74.74,0,0,1,.028-.281Zm2.655,5.328h.47a1.83,1.83,0,0,0,1.911-1.6c.223-1.29-.075-1.923-1.018-1.923a4.415,4.415,0,0,0-.715.05Z"/><path class="b" d="M1856.225,2228.994a.947.947,0,0,1,.321.877.839.839,0,0,1-.147.341l-.671,1.119a1.256,1.256,0,0,1-.993.608.748.748,0,0,1-.4-.122,3.065,3.065,0,0,0-1.19-.316,1.476,1.476,0,0,0-.794.219l-.994,5.522a1.113,1.113,0,0,1-1.116.949h-1.687a.771.771,0,0,1-.841-.685.758.758,0,0,1,.023-.264l1.289-7.152a1.322,1.322,0,0,1,.671-.9,6.775,6.775,0,0,1,3.945-1A3.537,3.537,0,0,1,1856.225,2228.994Z"/><path class="b" d="M1865.009,2229.748l-1.364,7.493a1.114,1.114,0,0,1-1.116.949h-1.163c-.448,0-.769-.1-.9-.462l-.074-.2a4.018,4.018,0,0,1-2.259.778c-2.8,0-3.3-2.311-2.853-4.791a6.126,6.126,0,0,1,6.154-5.328,9.023,9.023,0,0,1,3.1.584A.861.861,0,0,1,1865.009,2229.748Zm-3.944,1.776a2.265,2.265,0,0,0-2.134,2c-.223,1.289.273,1.508.794,1.508a1.844,1.844,0,0,0,.769-.291Z"/><path class="b" d="M1868.806,2235.247c.269,0,.993,0,1.042-.244.1-.583-4.863-.414-4.317-3.551.323-1.727,1.736-3.26,4.962-3.26a21.749,21.749,0,0,1,2.382.292.87.87,0,0,1,.8.934v.039l-.049.2a5.3,5.3,0,0,1-.323,1.095c-.224.584-.5.778-.918.778-.819-.049-1.265-.122-1.762-.122-.894,0-1.438,0-1.463.147-.124.584,4.838.51,4.317,3.4-.373,2.117-2.307,3.358-5.16,3.358a9.44,9.44,0,0,1-2.978-.56.921.921,0,0,1-.546-1.022,5.531,5.531,0,0,1,.6-1.264,1.119,1.119,0,0,1,1.042-.584,1.4,1.4,0,0,1,.347.049A8.782,8.782,0,0,0,1868.806,2235.247Z"/><path class="b" d="M1773.97,2259.556a10.7,10.7,0,0,1-1.241-.073c.3.706,1.091.754,1.736.754a5.013,5.013,0,0,0,2.407-.511.618.618,0,0,1,.831.24.6.6,0,0,1,.063.173l.3,1a.976.976,0,0,1,.025.365,1.535,1.535,0,0,1-.67.925,6.165,6.165,0,0,1-3.722.973c-3.349,0-4.563-1.947-3.994-5.157.546-2.992,2.306-4.963,5.682-4.963,2.678,0,3.995,1.387,3.647,3.285C1778.609,2258.926,1776.252,2259.556,1773.97,2259.556Zm-.422-2.652c.1.243.57.413,1.042.413.371,0,.716-.122.77-.51.073-.341-.4-.413-.745-.413a1.472,1.472,0,0,0-1.067.508Z"/><path class="b" d="M1780.3,2254.79a1.427,1.427,0,0,1,.991-1.046,11.608,11.608,0,0,1,3.549-.463c3.349,0,4.367,1.485,3.8,4.745l-.794,4.3a1.125,1.125,0,0,1-1.142.95h-1.662a.77.77,0,0,1-.841-.686.758.758,0,0,1,.023-.264l.768-4.281c.224-1.24.2-1.46-.67-1.46a4.182,4.182,0,0,0-.716.05l-1.043,5.692a1.139,1.139,0,0,1-1.142.949h-1.661a.767.767,0,0,1-.841-.684.741.741,0,0,1,.022-.265Z"/><path class="b" d="M1800.222,2249.462c3.423,0,4.962,1.459,4.367,4.792s-2.655,4.745-6.079,4.745h-1.342l-.6,3.283a1.212,1.212,0,0,1-1.191,1h-1.588a.8.8,0,0,1-.872-.705.765.765,0,0,1,.028-.293l2.109-11.823a1.238,1.238,0,0,1,1.215-1Zm.744,4.769c.174-.9-.248-1.46-1.042-1.46h-1.637l-.546,2.943h1.638a1.631,1.631,0,0,0,1.587-1.483Z"/><path class="b" d="M1805.805,2250.435a1.18,1.18,0,0,1,1.143-.973h1.662a.784.784,0,0,1,.842.721v0a.753.753,0,0,1-.024.25l-1.761,9.682c-.05.292,0,.439.074.462a.768.768,0,0,1,.373.852l-.149.777a1.172,1.172,0,0,1-.967.95,5.092,5.092,0,0,1-1.39.243c-1.985,0-1.836-1.728-1.687-2.579Z"/><path class="b" d="M1818.608,2254.838l-1.365,7.493a1.114,1.114,0,0,1-1.115.95h-1.164c-.447,0-.769-.1-.894-.463l-.075-.2a4.022,4.022,0,0,1-2.258.779c-2.8,0-3.3-2.311-2.853-4.793a6.127,6.127,0,0,1,6.154-5.328,9.006,9.006,0,0,1,3.1.585A.86.86,0,0,1,1818.608,2254.838Zm-3.945,1.777a2.267,2.267,0,0,0-2.134,2c-.223,1.289.273,1.508.794,1.508a1.846,1.846,0,0,0,.77-.291Z"/><path class="b" d="M1819.874,2254.79a1.428,1.428,0,0,1,.992-1.046,11.608,11.608,0,0,1,3.549-.463c3.349,0,4.367,1.485,3.8,4.745l-.794,4.3a1.124,1.124,0,0,1-1.141.95h-1.663a.769.769,0,0,1-.84-.686.712.712,0,0,1,.023-.264l.769-4.281c.223-1.24.2-1.46-.67-1.46a4.191,4.191,0,0,0-.716.05l-1.043,5.692a1.139,1.139,0,0,1-1.142.949h-1.661a.767.767,0,0,1-.841-.686.757.757,0,0,1,.022-.263Z"/><path class="b" d="M1839.451,2249.462c3.425,0,4.988.949,4.368,4.33a3,3,0,0,1-1.415,2.335,2.734,2.734,0,0,1,1.117,2.847c-.621,3.357-2.505,4.306-5.93,4.306h-4.219a.84.84,0,0,1-.867-.81.8.8,0,0,1,.023-.212l2.11-11.8a1.256,1.256,0,0,1,1.215-1Zm.448,9.487c.149-.778-.546-.9-1.365-.9H1836.9l-.347,1.946h1.637c.819,0,1.561-.17,1.712-1.046Zm-2.035-6.178-.347,1.946h1.017c.794,0,1.514-.1,1.688-1.022.148-.827-.546-.924-1.342-.924Z"/><path class="b" d="M1845.828,2250.435a1.183,1.183,0,0,1,1.142-.973h1.662a.787.787,0,0,1,.843.724.748.748,0,0,1-.024.249l-1.762,9.682c-.05.292,0,.439.075.462a.767.767,0,0,1,.371.852l-.148.777a1.172,1.172,0,0,1-.968.95,5.078,5.078,0,0,1-1.389.243c-1.986,0-1.836-1.728-1.688-2.579Z"/><path class="b" d="M1858.63,2254.838l-1.363,7.493a1.118,1.118,0,0,1-1.117.95h-1.163c-.448,0-.769-.1-.9-.463l-.074-.2a4.021,4.021,0,0,1-2.258.779c-2.8,0-3.3-2.311-2.854-4.793a6.13,6.13,0,0,1,6.154-5.328,9.007,9.007,0,0,1,3.1.585A.858.858,0,0,1,1858.63,2254.838Zm-3.944,1.777a2.264,2.264,0,0,0-2.133,2c-.224,1.289.269,1.508.793,1.508a1.837,1.837,0,0,0,.769-.291Z"/><path class="b" d="M1868.432,2255.2c-.025.146-.049.2-.793,1.316a1.1,1.1,0,0,1-.993.56,1.477,1.477,0,0,1-.495-.17,3.555,3.555,0,0,0-1.688-.317,1.948,1.948,0,0,0-1.96,1.728c-.224,1.264.495,1.8,1.315,1.8a3.637,3.637,0,0,0,1.86-.364,1.163,1.163,0,0,1,.521-.123.854.854,0,0,1,.77.561,12.537,12.537,0,0,1,.348,1.264,1.528,1.528,0,0,1-.716.973,6.488,6.488,0,0,1-3.549.973c-3.325,0-4.742-1.873-4.168-5.089a5.644,5.644,0,0,1,5.98-5.036,4.736,4.736,0,0,1,3.2,1A.948.948,0,0,1,1868.432,2255.2Z"/><path class="b" d="M1872.925,2261.264a4.655,4.655,0,0,0-.571-1.337l-.348.121-.421,2.287a1.114,1.114,0,0,1-1.116.949h-1.688a.769.769,0,0,1-.84-.685.732.732,0,0,1,.022-.264l2.159-11.921a1.142,1.142,0,0,1,1.141-.949h1.688a.755.755,0,0,1,.821.677.736.736,0,0,1-.028.272l-1.066,5.864a4.741,4.741,0,0,0,2.034-1.97,1.2,1.2,0,0,1,1.141-.878h1.662a.791.791,0,0,1,.825.753.746.746,0,0,1-.031.245,7.989,7.989,0,0,1-2.684,3.746,6.493,6.493,0,0,1,.9,1.7l.868,2.31a1.23,1.23,0,0,1-1.142,1.095h-1.811a1.331,1.331,0,0,1-1.092-.8Z"/><path class="b" d="M1326.068,2304.661l2.05-9.573c.125-.571.374-.834.91-.834h.249c.535,0,.8.32.66.89l-1.926,9.075h4.919c.521,0,.8.2.8.521a1.578,1.578,0,0,1-.321.927c-.125.143-.321.2-.714.2h-5.667C1326.249,2305.855,1325.911,2305.444,1326.068,2304.661Z"/><path class="b" d="M1341.438,2304.251a3.719,3.719,0,0,1-3.208,1.819,3.284,3.284,0,0,1-3.365-3.2,2.84,2.84,0,0,1,.013-.381c0-2.692,2-5.42,4.795-5.42a3.133,3.133,0,0,1,2.907,1.657c.249-1.1.641-1.515,1.391-1.515a.848.848,0,0,1,.642.214l-1.375,6.471c-.2.892-.036,1.211.7,1.283.035,0,0,.834-1.053.834C1341.777,2306.014,1341.327,2305.338,1341.438,2304.251Zm.5-2.515.285-1.338a2.423,2.423,0,0,0-2.443-1.908c-1.964,0-3.155,1.981-3.155,3.829a2.083,2.083,0,0,0,1.874,2.273h.011c.069,0,.136.008.2.008a3.462,3.462,0,0,0,3.231-2.866Z"/><path class="b" d="M1348.391,2302.114a4.885,4.885,0,0,1,4.721-5.044h.128a3.829,3.829,0,0,1,4.009,3.638h0c0,.1.006.208,0,.313a4.885,4.885,0,0,1-4.721,5.043h-.128a3.829,3.829,0,0,1-4.009-3.64v0h0C1348.388,2302.324,1348.388,2302.219,1348.391,2302.114Zm7.238-1.016a2.485,2.485,0,0,0-2.342-2.618h-.111a3.39,3.39,0,0,0-3.156,3.566,2.483,2.483,0,0,0,2.341,2.617h.119a3.391,3.391,0,0,0,3.15-3.562Z"/><path class="b" d="M1358.89,2305.088l1.355-6.364h-.962c-.446,0-.7-.162-.7-.464a1.4,1.4,0,0,1,.284-.8.787.787,0,0,1,.625-.177h1.053l.2-.834c.429-2.085,1.533-2.96,3.043-2.96a2.174,2.174,0,0,1,1.641.534.978.978,0,0,1,.286.66c0,.521-.5.874-.552.82a1.639,1.639,0,0,0-1.283-.589c-.73,0-1.229.464-1.48,1.64l-.161.729h1.459c.464,0,.713.161.713.446a1.479,1.479,0,0,1-.285.82.8.8,0,0,1-.625.178H1362l-1.337,6.364c-.125.625-.374.834-.8.834h-.214C1359.177,2305.925,1358.76,2305.73,1358.89,2305.088Z"/><path class="b" d="M1364.346,2302.5a5.317,5.317,0,0,1,5.192-5.437h.208c2.051,0,3.231.963,3.231,2.371,0,1.73-1.141,2.781-4.974,2.781-.625,0-1.283-.034-2.05-.089v.322a2.124,2.124,0,0,0,1.966,2.271,2.032,2.032,0,0,0,.391-.008,3.2,3.2,0,0,0,2.751-1.337c.035-.054.8.125.8.73a1.126,1.126,0,0,1-.429.891,4.272,4.272,0,0,1-3.155,1.07C1365.664,2306.069,1364.346,2304.553,1364.346,2302.5Zm1.89-1.6a13.37,13.37,0,0,0,1.6.09c2.782,0,3.53-.714,3.53-1.5,0-.571-.553-1.1-1.694-1.1a3.8,3.8,0,0,0-3.44,2.517Z"/><path class="b" d="M1376.469,2298.723a2.624,2.624,0,0,1,2.357-1.657c.75,0,1.375.374,1.375.981a1.117,1.117,0,0,1-.766,1.142,1.412,1.412,0,0,0-1.141-.482c-1.264,0-2.1,1.516-2.552,3.656l-.57,2.727c-.125.625-.374.834-.8.834h-.214c-.464,0-.873-.2-.749-.834l1.659-7.791a.753.753,0,0,1,.446-.09C1376.091,2297.208,1376.665,2297.529,1376.469,2298.723Z"/><path class="b" d="M1381.355,2302.892l.872-4.169h-.589c-.445,0-.7-.161-.7-.465a1.288,1.288,0,0,1,.285-.8.791.791,0,0,1,.625-.178h.678l.143-.7c.214-1.053.6-1.459,1.355-1.459.374,0,.678.162.659.214l-.41,1.943h1.836c.464,0,.714.161.714.446a1.487,1.487,0,0,1-.286.82.787.787,0,0,1-.625.179h-1.964l-.89,4.136c-.267,1.3.144,1.818.982,1.818a1.617,1.617,0,0,0,1.124-.5c.053-.035.339.232.339.641a1.014,1.014,0,0,1-.339.75,2.247,2.247,0,0,1-1.586.516C1381.816,2306.084,1380.907,2304.979,1381.355,2302.892Z"/><path class="b" d="M1393.53,2304.252a3.72,3.72,0,0,1-3.21,1.819,3.287,3.287,0,0,1-3.365-3.2,3.21,3.21,0,0,1,.013-.378c0-2.692,2-5.42,4.8-5.42a3.13,3.13,0,0,1,2.906,1.657c.249-1.1.642-1.516,1.391-1.516a.855.855,0,0,1,.641.214l-1.375,6.471c-.2.891-.036,1.212.7,1.283.037,0,0,.834-1.052.834C1393.868,2306.015,1393.424,2305.339,1393.53,2304.252Zm.5-2.515.285-1.338a2.423,2.423,0,0,0-2.443-1.908c-1.964,0-3.155,1.98-3.155,3.83a2.089,2.089,0,0,0,1.887,2.273c.067.006.133.008.2.008a3.462,3.462,0,0,0,3.231-2.866Z"/><path class="b" d="M1401.319,2302.892l.873-4.169h-.584c-.446,0-.7-.161-.7-.465a1.3,1.3,0,0,1,.285-.8.791.791,0,0,1,.625-.178h.677l.143-.7c.214-1.053.606-1.459,1.355-1.459.374,0,.677.162.66.214l-.411,1.943h1.836c.465,0,.715.161.715.446a1.5,1.5,0,0,1-.286.82.786.786,0,0,1-.625.179h-1.964l-.891,4.136c-.267,1.3.143,1.818.982,1.818a1.617,1.617,0,0,0,1.124-.5c.053-.035.339.232.339.641a1.015,1.015,0,0,1-.339.75,2.246,2.246,0,0,1-1.586.516C1401.783,2306.084,1400.874,2304.979,1401.319,2302.892Z"/><path class="b" d="M1406.866,2302.5a5.316,5.316,0,0,1,5.192-5.437h.208c2.05,0,3.231.963,3.231,2.371,0,1.73-1.141,2.781-4.974,2.781-.625,0-1.283-.034-2.05-.089v.322a2.124,2.124,0,0,0,1.966,2.271,2.032,2.032,0,0,0,.391-.008,3.2,3.2,0,0,0,2.75-1.337c.035-.054.8.125.8.73a1.122,1.122,0,0,1-.428.891,4.276,4.276,0,0,1-3.156,1.07C1408.183,2306.069,1406.866,2304.553,1406.866,2302.5Zm1.89-1.6a13.37,13.37,0,0,0,1.6.09c2.781,0,3.529-.714,3.529-1.5,0-.571-.551-1.1-1.694-1.1a3.8,3.8,0,0,0-3.44,2.517Z"/><path class="b" d="M1418.983,2298.723a2.624,2.624,0,0,1,2.357-1.657c.749,0,1.376.374,1.376.981a1.121,1.121,0,0,1-.767,1.142,1.408,1.408,0,0,0-1.14-.482c-1.265,0-2.1,1.516-2.553,3.656l-.571,2.727c-.124.625-.374.834-.8.834h-.214c-.464,0-.873-.2-.749-.834l1.658-7.791a.763.763,0,0,1,.446-.09C1418.609,2297.208,1419.183,2297.529,1418.983,2298.723Z"/><path class="b" d="M1434.318,2304.624a9.462,9.462,0,0,1,.446-2.21,9.982,9.982,0,0,0,.41-2.068,1.564,1.564,0,0,0-1.362-1.737,1.6,1.6,0,0,0-.208-.01,2.735,2.735,0,0,0-2.425,1.533l-1.034,4.956c-.143.642-.446.834-.909.834h-.178c-.464,0-.82-.177-.677-.834l.856-4.1c.3-1.408-.321-2.389-1.459-2.389a2.7,2.7,0,0,0-2.4,1.551l-1.053,4.938c-.125.66-.446.834-.891.834h-.2c-.465,0-.8-.2-.677-.834l1.657-7.79a.748.748,0,0,1,.445-.089c.571,0,1.106.285.982,1.337a3.4,3.4,0,0,1,2.782-1.48,2.554,2.554,0,0,1,2.584,1.855,3.732,3.732,0,0,1,3.231-1.855,2.693,2.693,0,0,1,2.785,2.595h0v.24a12.1,12.1,0,0,1-.5,2.586,9.545,9.545,0,0,0-.428,1.924c0,.481.249.66.729.714.037,0-.035.89-1.1.89a1.265,1.265,0,0,1-1.388-1.131A1.188,1.188,0,0,1,1434.318,2304.624Z"/><path class="b" d="M1438.434,2303.874l1.251-5.83c.125-.625.358-.834.8-.834h.2c.482,0,.891.178.749.834l-1.23,5.849c-.2.89-.035,1.228.767,1.281.035,0,0,.834-1.106.834C1438.56,2306.014,1438.151,2305.194,1438.434,2303.874Zm1.819-9.252a1.081,1.081,0,0,1,1.016-1.14h.09c.676,0,1.052.3,1.052.8a1.08,1.08,0,0,1-1,1.157h0a.57.57,0,0,1-.1,0c-.677,0-1.051-.321-1.051-.819Z"/><path class="b" d="M1445.317,2298.668a3.4,3.4,0,0,1,2.87-1.6,2.7,2.7,0,0,1,2.9,2.47h0a2.768,2.768,0,0,1,0,.363,11.3,11.3,0,0,1-.521,2.586,9.772,9.772,0,0,0-.428,1.925c0,.481.249.659.73.714.053,0-.035.89-1.088.89a1.276,1.276,0,0,1-1.406-1.131h0a1.412,1.412,0,0,1,0-.261,10.555,10.555,0,0,1,.446-2.21,9.111,9.111,0,0,0,.427-2.068,1.58,1.58,0,0,0-1.394-1.744,1.687,1.687,0,0,0-.318,0,2.831,2.831,0,0,0-2.532,1.711l-1.016,4.777c-.125.625-.374.834-.8.834h-.214c-.464,0-.874-.2-.749-.834l1.657-7.791a.77.77,0,0,1,.446-.089C1444.926,2297.206,1445.5,2297.513,1445.317,2298.668Z"/><path class="b" d="M1458.921,2304.252a3.722,3.722,0,0,1-3.209,1.819,3.287,3.287,0,0,1-3.365-3.2,3.012,3.012,0,0,1,.012-.38c0-2.692,2-5.42,4.8-5.42a3.126,3.126,0,0,1,2.907,1.657c.249-1.1.642-1.516,1.391-1.516a.852.852,0,0,1,.642.214l-1.375,6.471c-.2.891-.036,1.211.7,1.283.037,0,0,.834-1.052.834C1459.259,2306.015,1458.814,2305.339,1458.921,2304.252Zm.5-2.515.284-1.338a2.423,2.423,0,0,0-2.442-1.907c-1.964,0-3.155,1.981-3.155,3.829a2.088,2.088,0,0,0,1.885,2.273h0a1.89,1.89,0,0,0,.2.008,3.462,3.462,0,0,0,3.226-2.866Z"/><path class="b" d="M1465.8,2302.5a5.316,5.316,0,0,1,5.19-5.437h.21c2.05,0,3.231.963,3.231,2.371,0,1.73-1.141,2.781-4.975,2.781-.625,0-1.283-.034-2.05-.089v.322a2.124,2.124,0,0,0,1.966,2.271,2.044,2.044,0,0,0,.392-.008,3.2,3.2,0,0,0,2.749-1.337c.035-.054.8.125.8.73a1.129,1.129,0,0,1-.428.891,4.276,4.276,0,0,1-3.156,1.07C1467.12,2306.069,1465.8,2304.553,1465.8,2302.5Zm1.891-1.6a13.368,13.368,0,0,0,1.6.09c2.781,0,3.531-.714,3.531-1.5,0-.571-.552-1.1-1.694-1.1a3.8,3.8,0,0,0-3.439,2.517Z"/><path class="b" d="M1477.942,2298.668a3.4,3.4,0,0,1,2.87-1.6,2.665,2.665,0,0,1,2.9,2.408v0a2.721,2.721,0,0,1,.005.422,11.3,11.3,0,0,1-.521,2.586,9.678,9.678,0,0,0-.428,1.924c0,.482.249.66.73.714.053,0-.036.89-1.088.89a1.279,1.279,0,0,1-1.407-1.134h0a1.223,1.223,0,0,1,0-.257,10.552,10.552,0,0,1,.446-2.211,9.183,9.183,0,0,0,.428-2.068,1.575,1.575,0,0,0-1.388-1.743h0a1.72,1.72,0,0,0-.321,0,2.829,2.829,0,0,0-2.532,1.715l-1.016,4.777c-.125.625-.375.834-.8.834h-.214c-.464,0-.873-.2-.749-.834l1.657-7.791a.777.777,0,0,1,.446-.09C1477.55,2297.206,1478.12,2297.513,1477.942,2298.668Z"/><path class="b" d="M1484.822,2305.229a1.539,1.539,0,0,1,.374-1.124,1.055,1.055,0,0,1,.857-.285c.66,0,1.016.267,1.016.748a1.525,1.525,0,0,1-.357,1.125,1.1,1.1,0,0,1-.873.285C1485.178,2305.98,1484.822,2305.713,1484.822,2305.229Zm1.23-5.793a1.664,1.664,0,0,1,.357-1.123,1.1,1.1,0,0,1,.874-.267c.66,0,1.016.249,1.016.749a1.664,1.664,0,0,1-.357,1.124,1.1,1.1,0,0,1-.873.267c-.659,0-1.015-.246-1.015-.749Z"/><path class="e" d="M1721.03,2028.756a5.823,5.823,0,0,0,11.637.459q.009-.229,0-.459a6.144,6.144,0,0,0-1.933-4.495c-2.25,3.172-5.455-1.637-2.957-5.153C1727.777,2019.108,1721.03,2019.983,1721.03,2028.756Z"/><path class="f" d="M1716.769,2021.194a10.608,10.608,0,0,0,3.128,2.847s-1.534-13.457,8.46-15.793c-2.561,9.753,3.256,12.5,5.375,7.351a8.386,8.386,0,0,1,.852,9.188c1.453.217,2.675-1.429,2.675-1.429.011.2.018.407.018.613a10.433,10.433,0,1,1-20.853.743q-.013-.394,0-.791a11.208,11.208,0,0,1,.343-2.729Z"/><path class="f" d="M1737.258,2023.356s-1.219,1.646-2.675,1.429a8.385,8.385,0,0,0-.852-9.188c-2.118,5.153-7.935,2.4-5.374-7.351a10.883,10.883,0,0,0-1.509.468v26.076a10.629,10.629,0,0,0,10.426-10.821h0C1737.274,2023.767,1737.269,2023.561,1737.258,2023.356Z"/><path class="g" d="M1720.826,2027.6a6.026,6.026,0,0,0,12.044.441q.008-.221,0-.441a6.353,6.353,0,0,0-2-4.653c-2.329,3.283-5.647-1.7-3.061-5.334C1727.809,2017.616,1720.826,2018.521,1720.826,2027.6Z"/><path class="e" d="M1722.975,2029.829a3.876,3.876,0,0,0,7.747.285c0-.093,0-.187,0-.28a4.094,4.094,0,0,0-1.287-2.994c-1.5,2.111-3.632-1.092-1.969-3.431C1727.464,2023.41,1722.975,2023.991,1722.975,2029.829Z"/><path class="e" d="M1361.4,2029.1a5.822,5.822,0,0,0,11.637.4c.005-.134.005-.269,0-.4a6.145,6.145,0,0,0-1.933-4.5c-2.25,3.173-5.455-1.637-2.957-5.153C1368.149,2019.456,1361.4,2020.33,1361.4,2029.1Z"/><path class="f" d="M1357.143,2021.54a10.615,10.615,0,0,0,3.128,2.848s-1.534-13.457,8.46-15.794c-2.561,9.753,3.256,12.5,5.375,7.351a8.39,8.39,0,0,1,.853,9.189c1.452.217,2.675-1.43,2.675-1.43.011.2.017.407.017.613a10.433,10.433,0,0,1-20.853.741q-.014-.394,0-.789a11.2,11.2,0,0,1,.343-2.728Z"/><path class="f" d="M1377.63,2023.7s-1.219,1.647-2.675,1.43a8.388,8.388,0,0,0-.852-9.189c-2.118,5.153-7.935,2.4-5.373-7.351a11.07,11.07,0,0,0-1.509.468v26.076a10.628,10.628,0,0,0,10.425-10.82h0C1377.643,2024.114,1377.643,2023.907,1377.63,2023.7Z"/><path class="g" d="M1361.2,2027.946a6.027,6.027,0,1,0,12.045.466c.006-.155.006-.311,0-.466a6.361,6.361,0,0,0-2-4.653c-2.329,3.284-5.646-1.7-3.061-5.334C1368.181,2017.962,1361.2,2018.868,1361.2,2027.946Z"/><path class="e" d="M1363.343,2030.176a3.876,3.876,0,1,0,7.747.283c0-.092,0-.185,0-.278a4.087,4.087,0,0,0-1.287-2.995c-1.5,2.111-3.632-1.091-1.968-3.431C1367.836,2023.756,1363.343,2024.338,1363.343,2030.176Z"/><g transform="translate(1284.045 2027.554)"><path class="d" d="M1678.29,2280.978h-54.309v-2.339h54.309c5.048,0,9.155-3.544,9.155-7.9v-9.149c0-4.537-4.274-8.229-9.529-8.229H1322.76c-21.348,0-38.715-15.177-38.715-33.834V2061.388c0-18.657,17.367-33.834,38.715-33.834h23.323v2.339H1322.76c-19.969,0-36.215,14.128-36.215,31.495v158.137c0,17.367,16.246,31.495,36.215,31.495h355.156c6.633,0,12.029,4.741,12.029,10.568v9.149C1689.945,2276.384,1684.717,2280.978,1678.29,2280.978Z" transform="translate(-1284.045 -2027.554)"/></g><g transform="translate(1611.691 2273.821)"><path class="d" d="M1617.939,2303.034a5.916,5.916,0,1,1,6.249-5.907A6.092,6.092,0,0,1,1617.939,2303.034Zm0-9.314a3.423,3.423,0,1,0,3.749,3.407A3.594,3.594,0,0,0,1617.939,2293.72Z" transform="translate(-1611.691 -2291.22)"/></g><g transform="translate(1271.781 2015.596)"><path class="a" d="M1666.027,2267.9h-54.309v-2.329h54.309c5.048,0,9.156-3.53,9.156-7.866v-9.108c0-4.517-4.276-8.191-9.531-8.191H1310.5c-21.348,0-38.716-15.11-38.716-33.682V2049.294c0-18.572,17.368-33.682,38.716-33.682l32.907-.016,0,2.329-32.908.016c-19.971,0-36.217,14.064-36.217,31.353v157.426c0,17.288,16.246,31.353,36.216,31.353h355.155c6.634,0,12.031,4.719,12.031,10.52v9.108C1677.683,2263.322,1672.454,2267.9,1666.027,2267.9Z" transform="translate(-1271.781 -2015.596)"/></g><g transform="translate(1599.428 2260.739)"><path class="a" d="M1605.676,2291.093a5.916,5.916,0,1,1,6.248-5.907A6.092,6.092,0,0,1,1605.676,2291.093Zm0-9.314a3.422,3.422,0,1,0,3.748,3.407A3.594,3.594,0,0,0,1605.676,2281.779Z" transform="translate(-1599.428 -2279.279)"/></g><path class="b" d="M1599.274,2015.3c-4.67.005-7.98,3.37-8,8.832a7.957,7.957,0,0,0,7.845,8.067h.181c2.413,0,3.912-.377,4.785-1.09v-2.76a9.258,9.258,0,0,1-4.013.806c-2.5.008-4.51-1.36-4.837-3.552l-.029-.2h2.919c2.745,0,4.678-.248,5.9-.851a3,3,0,0,0,1.75-3,6.252,6.252,0,0,0-6.25-6.254h0c-.084,0-.167,0-.25.005m1.9,7.157a13.273,13.273,0,0,1-3.941.367H1595.2l.011-.176.03-.556a3.72,3.72,0,0,1,3.665-3.689,3.964,3.964,0,0,1,2.4.657,2.388,2.388,0,0,1,.925,2,1.359,1.359,0,0,1-1.052,1.4m6.614-.856v10.317h3.83v-9.576a4.233,4.233,0,0,1,.78-2.819,2.816,2.816,0,0,1,2.266-.883,6.056,6.056,0,0,1,1.042.084v-3.034a4.248,4.248,0,0,0-1.938-.4c-4.291.006-5.966,3.046-5.981,6.309m-50.379,10.317h3.824V2011.14h-3.824Zm14.138-16.617c-5.1.005-7.33,3.5-7.344,6.925v9.692h3.8v-9.413a4.362,4.362,0,0,1,.882-2.856,2.937,2.937,0,0,1,2.32-1.03,3.3,3.3,0,0,1,2.612,1.017,4.7,4.7,0,0,1,.929,3.173v9.109h3.8v-9.473c-.009-4.615-3.151-7.135-7-7.145m13.722-4.164h-3.785l.013,14.995c.021,3.8,1.937,6.048,6.074,6.07,1.757,0,2.812-.575,3.248-1.489v-2.367a7.017,7.017,0,0,1-2.752.436,2.72,2.72,0,0,1-2.067-.739,3.412,3.412,0,0,1-.731-2.411v-7.017h3.314c1.621,0,2.3-1.034,2.3-1.8V2015.3h-5.619Z"/><path class="b" d="M1643.657,2024.556a3,3,0,0,0,1.752-3,6.252,6.252,0,0,0-6.25-6.254h0c-.083,0-.167,0-.25.005-4.671.005-7.982,3.37-7.994,8.832a7.957,7.957,0,0,0,7.843,8.067h.179c2.414,0,3.917-.377,4.788-1.09v-2.764a9.26,9.26,0,0,1-4.014.806c-2.5.008-4.51-1.36-4.837-3.552l-.028-.2h2.918c2.743,0,4.682-.248,5.9-.851m-8.828-1.73.014-.176.027-.556a3.721,3.721,0,0,1,3.661-3.689,3.956,3.956,0,0,1,2.4.657,2.37,2.37,0,0,1,.926,2,1.358,1.358,0,0,1-1.052,1.4,13.236,13.236,0,0,1-3.941.367Z"/><path class="b" d="M1680.616,2021.6v10.317h3.834v-9.576a4.233,4.233,0,0,1,.781-2.819,2.822,2.822,0,0,1,2.265-.883,6.056,6.056,0,0,1,1.042.084v-3.034a4.26,4.26,0,0,0-1.941-.4c-4.288.006-5.963,3.046-5.981,6.309"/><path class="b" d="M1622.7,2032.136c-2.794,0-4.88-1.528-4.88-3.175v-1.83h.141a7.3,7.3,0,0,0,4.564,1.531c1.863,0,2.762-.57,2.762-1.771,0-.929-.535-1.375-3.16-1.768-3.208-.479-4.756-1.828-4.756-4.286,0-3.029,2.561-5.606,6.449-5.606,3.445,0,4.85,1.888,4.85,3.447v1.528h-.141a6.391,6.391,0,0,0-4.339-1.495c-2.313,0-3.043.745-3.043,1.8,0,.81.451,1.14,3.043,1.589,3.151.541,4.845,2.008,4.845,4.587,0,3.417-2.255,5.455-6.335,5.455"/><path class="b" d="M1661.1,2027.3c.027.658.06,1.528.06,2.067,0,4.046-2.537,7.674-7.441,7.674-3.13,0-5.271-1.617-5.271-3.537v-1.829h.167a6.487,6.487,0,0,0,4.824,1.738c2.729,0,3.968-1.377,3.968-3.717,0-.237,0-.568-.026-.841,0-.237-.026-.659-.026-.806v-.388a3.873,3.873,0,0,1-3.916,2.4,6.185,6.185,0,0,1-6.322-6.042c0-.165,0-.33.008-.495,0-4.556,2.813-8.243,7.718-8.243,3.779,0,6.2,2.938,6.2,7.077v2.757c0,.54.028,1.468.057,2.189m-10.117-4.286c0,2.12,1.22,3.694,3.044,3.694,1.907,0,3.273-1.514,3.273-4.118,0-2.543-1.2-3.786-2.872-3.786-1.963,0-3.446,1.758-3.446,4.21"/><path class="b" d="M1697.1,2015.229c4.665,0,7.349,3.9,7.349,8.186,0,4.855-2.684,8.721-7.7,8.721-4.666,0-7.347-3.866-7.347-8.153,0-4.858,2.681-8.754,7.7-8.754m-.348,3.393c-2.311,0-3.486,2-3.486,4.779,0,3.34,1.175,5.343,3.839,5.343,2.342,0,3.485-2,3.485-4.751,0-3.373-1.2-5.372-3.838-5.372"/><path class="b" d="M1670.683,2032.247c5.086-.007,7.306-3.507,7.317-6.95v-9.724h-3.787v9.447a4.388,4.388,0,0,1-.881,2.862,2.917,2.917,0,0,1-2.31,1.037,3.287,3.287,0,0,1-2.606-1.024,4.733,4.733,0,0,1-.925-3.184v-9.139h-3.785v9.507c.008,4.632,3.136,7.158,6.979,7.168"/><path class="h" d="M1525.971,2006.684a3.964,3.964,0,0,0-3.963,3.962v25.71h25.713a3.966,3.966,0,0,0,3.966-3.965v-25.708Zm18.784,21.417-15.812,2.855v-15.964l15.816-2.857Z"/><path class="d" d="M1407.709,2026.967v5.333c0,6.423-3.518,10.093-10.3,10.093s-10.305-3.67-10.305-10.093v-20.873c0-6.423,3.518-10.093,10.305-10.093s10.3,3.67,10.3,10.093v3.9h-6.535v-4.3c0-2.867-1.382-3.956-3.582-3.956s-3.582,1.089-3.582,3.956V2032.7c0,2.867,1.383,3.9,3.582,3.9s3.582-1.031,3.582-3.9v-5.735Z"/><path class="d" d="M1417.7,2028.629l-8.734-26.835h7.225l5.279,18.293,5.278-18.293h6.6l-8.733,26.835v13.3H1417.7Z"/><path class="d" d="M1456.784,2011.024v1.433c0,4.13-1.382,6.767-4.462,8.086,3.707,1.319,5.153,4.359,5.153,8.6v3.269c0,6.193-3.582,9.519-10.493,9.519h-10.87v-40.144h10.431C1453.7,2001.792,1456.784,2004.831,1456.784,2011.024Zm-13.762-3.5v10.609h2.7c2.577,0,4.148-1.032,4.148-4.245v-2.232c0-2.867-1.069-4.129-3.519-4.129Zm0,16.344v12.33h3.955c2.326,0,3.582-.975,3.582-3.957v-3.5c0-3.727-1.32-4.875-4.461-4.875Z"/><path class="d" d="M1468.534,2018.706h9.491v5.735h-9.491v11.76h11.938v5.735H1461.62v-40.142h18.852v5.734h-11.938Z"/><path class="d" d="M1499.194,2041.934c-.372-1.032-.627-1.663-.627-4.932v-6.308c0-3.727-1.383-5.1-4.525-5.1h-2.388v16.344h-6.911V2001.8h10.43c7.165,0,10.242,3.039,10.242,9.232v3.155c0,4.129-1.445,6.824-4.524,8.143,3.456,1.319,4.587,4.358,4.587,8.544v6.194a10.88,10.88,0,0,0,.754,4.874Zm-7.536-34.408v12.33h2.7c2.576,0,4.148-1.032,4.148-4.246v-3.954c0-2.867-1.069-4.129-3.52-4.129Z"/><path class="d" d="M1890.314,2039.082a17.285,17.285,0,0,0-15.952-10.576H1756.488v-2.5h117.874a19.779,19.779,0,0,1,18.255,12.1Z"/><path class="a" d="M1881.47,2028.065a17.29,17.29,0,0,0-15.953-10.575H1747.644v-2.5h117.873a19.781,19.781,0,0,1,18.255,12.1Z"/><path class="i" d="M1287.573,1971.4c-.279,1.232,7.409,13.729,9.175,14.128.493.11.391-.514.822-.416,2.052.462-3.39-9.331-4.458-12.074C1291.338,1968.505,1288.148,1968.864,1287.573,1971.4Z"/><path class="i" d="M1283.182,1997.186c-.111-.187-1.628-2.207-1.935-2.031C1277.551,1997.287,1285.008,2000.36,1283.182,1997.186Z"/><path class="i" d="M1256.063,1998.584a1.951,1.951,0,0,0-1.136-.136,1.026,1.026,0,0,0-.77.647c-.84,2.611,9.581,11.113,12.251,11.976.336.109.55.1.6-.067C1267.2,2010.41,1258.63,1999.411,1256.063,1998.584Z"/><path class="i" d="M1263.985,2027.005c-.407,1.264,3.169,5.156,4.014,2.534C1268.453,2028.135,1264.647,2024.948,1263.985,2027.005Z"/><path class="i" d="M1232.673,2037.106c-1.21.34-.466,1.114-.675,1.759-1.07,3.321,16.081,6.118,18.1,5.249.577-.252.883-1.454.409-1.607a.359.359,0,0,1-.164-.347C1250.359,2041.928,1233.1,2036.993,1232.673,2037.106Z"/><path class="i" d="M1247.228,2060.232a9.306,9.306,0,0,0-4.146.276c-1.264.815.052,2.977.6,2.625a1.575,1.575,0,0,1,.711.081C1245.839,2063.623,1250,2061.547,1247.228,2060.232Z"/></g></svg>