<svg xmlns="http://www.w3.org/2000/svg" xmlns:xlink="http://www.w3.org/1999/xlink" width="318.961" height="171.171" viewBox="0 0 318.961 171.171"><defs><style>.a{fill:none;}.b{clip-path:url(#a);}.c,.j{fill:#fff;}.d{opacity:0.42;}.e{fill:#50acff;}.f{fill:#ea0c90;}.g{fill:#40e262;}.h{fill:#ffde6e;}.i{fill:#57c3ff;}.j{fill-rule:evenodd;}</style><clipPath id="a"><circle class="a" cx="17.124" cy="17.124" r="17.124" transform="translate(0 8.363) rotate(-14.134)"/></clipPath></defs><g transform="translate(-704 -105.663)"><g transform="translate(704 97.623)"><g transform="translate(235.459 18.876)"><g class="b" transform="translate(0 0)"><g transform="translate(-26.922 -27.943)"><g transform="translate(31.603 0)"><rect class="c" width="0.481" height="86.355" transform="translate(0 0.308) rotate(-39.763)"/></g><g transform="translate(30.229 1.143)"><rect class="c" width="0.481" height="86.355" transform="translate(0 0.308) rotate(-39.763)"/></g><g transform="translate(28.855 2.287)"><rect class="c" width="0.481" height="86.355" transform="translate(0 0.308) rotate(-39.763)"/></g><g transform="translate(27.481 3.43)"><rect class="c" width="0.481" height="86.355" transform="translate(0 0.308) rotate(-39.763)"/></g><g transform="translate(26.107 4.573)"><rect class="c" width="0.481" height="86.355" transform="translate(0 0.308) rotate(-39.763)"/></g><g transform="translate(24.733 5.717)"><rect class="c" width="0.481" height="86.355" transform="translate(0 0.308) rotate(-39.763)"/></g><g transform="translate(23.359 6.86)"><rect class="c" width="0.481" height="86.355" transform="translate(0 0.308) rotate(-39.763)"/></g><g transform="translate(21.985 8.003)"><rect class="c" width="0.481" height="86.355" transform="translate(0 0.308) rotate(-39.763)"/></g><g transform="translate(20.611 9.147)"><rect class="c" width="0.481" height="86.355" transform="translate(0 0.308) rotate(-39.763)"/></g><g transform="translate(19.236 10.29)"><rect class="c" width="0.481" height="86.355" transform="translate(0 0.308) rotate(-39.763)"/></g><g transform="translate(17.862 11.433)"><rect class="c" width="0.481" height="86.355" transform="translate(0 0.308) rotate(-39.763)"/></g><g transform="translate(16.488 12.577)"><rect class="c" width="0.481" height="86.355" transform="translate(0 0.308) rotate(-39.763)"/></g><g transform="translate(15.114 13.72)"><rect class="c" width="0.481" height="86.355" transform="translate(0 0.308) rotate(-39.763)"/></g><g transform="translate(13.741 14.863)"><rect class="c" width="0.481" height="86.355" transform="matrix(0.769, -0.64, 0.64, 0.769, 0, 0.308)"/></g><g transform="translate(12.366 16.006)"><rect class="c" width="0.481" height="86.355" transform="translate(0 0.308) rotate(-39.763)"/></g><g transform="translate(10.992 17.15)"><rect class="c" width="0.481" height="86.355" transform="translate(0 0.308) rotate(-39.763)"/></g><g transform="translate(9.618 18.293)"><rect class="c" width="0.481" height="86.355" transform="translate(0 0.308) rotate(-39.763)"/></g><g transform="translate(8.244 19.437)"><rect class="c" width="0.481" height="86.355" transform="translate(0 0.308) rotate(-39.763)"/></g><g transform="translate(6.87 20.58)"><rect class="c" width="0.481" height="86.355" transform="matrix(0.769, -0.64, 0.64, 0.769, 0, 0.308)"/></g><g transform="translate(5.496 21.723)"><rect class="c" width="0.481" height="86.355" transform="translate(0 0.308) rotate(-39.763)"/></g><g transform="translate(4.122 22.866)"><rect class="c" width="0.481" height="86.355" transform="translate(0 0.308) rotate(-39.763)"/></g><g transform="translate(2.748 24.01)"><rect class="c" width="0.481" height="86.355" transform="translate(0 0.308) rotate(-39.763)"/></g><g transform="translate(1.374 25.153)"><rect class="c" width="0.481" height="86.355" transform="translate(0 0.308) rotate(-39.763)"/></g><g transform="translate(0 26.296)"><rect class="c" width="0.481" height="86.355" transform="matrix(0.769, -0.64, 0.64, 0.769, 0, 0.308)"/></g></g></g></g><g class="d" transform="translate(32.131 148.292)"><path class="c" d="M3187.424,1639.419a3.236,3.236,0,1,1-3.236-3.236A3.236,3.236,0,0,1,3187.424,1639.419Z" transform="translate(-3180.951 -1636.183)"/></g><g transform="translate(120.287 64.029)"><path class="c" d="M3388.819,1446.481a3.04,3.04,0,1,1,3.04-3.041A3.044,3.044,0,0,1,3388.819,1446.481Zm0-4.759a1.718,1.718,0,1,0,1.718,1.718A1.72,1.72,0,0,0,3388.819,1441.722Z" transform="translate(-3385.778 -1440.4)"/></g><g transform="translate(3.137 76.098)"><g transform="translate(56.704)"><path class="e" d="M3254.638,1468.443h15.238a4.661,4.661,0,0,1,4.673,5.96l-1.917,8.879a7.8,7.8,0,0,1-7.248,5.961h-15.238a4.662,4.662,0,0,1-4.673-5.961l1.917-8.879A7.8,7.8,0,0,1,3254.638,1468.443Z" transform="translate(-3245.334 -1468.443)"/></g><g transform="translate(48.31 24.459)"><g transform="translate(3.877 0.039)"><path class="e" d="M3240.3,1539.02a8.081,8.081,0,0,0,7.372-4.679h-3.591a3.8,3.8,0,0,1-3.178,1.719c-2.006,0-3.058-1.49-2.546-3.859s2.208-3.858,4.213-3.858a2.283,2.283,0,0,1,2.436,1.719h3.592c-.137-2.9-2.156-4.7-5.346-4.7a8.481,8.481,0,0,0-8.22,6.838C3234.161,1536.212,3236.34,1539.02,3240.3,1539.02Z" transform="translate(-3234.839 -1525.364)"/></g><g transform="translate(18.654 0.191)"><path class="e" d="M3277.308,1533.741a2.841,2.841,0,0,1-2.91,2.5c-1.548,0-2.132-.917-1.79-2.5l1.733-8.022h-3.266l-1.727,8c-.8,3.706,1.23,5.541,4.344,5.541a6.824,6.824,0,0,0,6.888-5.541l1.728-8h-3.269Z" transform="translate(-3269.173 -1525.718)"/></g><g transform="translate(31.893)"><path class="e" d="M3305.539,1539.008a8.991,8.991,0,0,0,8.328-6.9c.8-3.793-1.623-6.853-5.418-6.838a8.993,8.993,0,0,0-8.32,6.857c-.891,3.707,1.376,6.785,5.063,6.876C3305.306,1539.01,3305.422,1539.01,3305.539,1539.008Zm2.327-10.773c2.141,0,3.208,1.509,2.693,3.9a4.557,4.557,0,0,1-4.375,3.9c-2.177,0-3.218-1.546-2.711-3.9a4.515,4.515,0,0,1,4.395-3.9Z" transform="translate(-3299.935 -1525.274)"/></g><g transform="translate(47.805 0.191)"><path class="e" d="M3338.123,1539.128h3.266l2.331-10.793h3.554l.565-2.617h-10.371l-.565,2.617h3.556Z" transform="translate(-3336.904 -1525.718)"/></g><g transform="translate(56.604 0.192)"><path class="e" d="M3367.089,1536.759l.291,2.368h3.455l-1.955-13.408H3365.1l-7.75,13.412h3.419l1.313-2.369Zm-.9-7.431.6,4.91h-3.3Z" transform="translate(-3357.349 -1525.719)"/></g><g transform="translate(0 17.993)"><path class="e" d="M3231.867,1575.483h4.145a4.178,4.178,0,0,1-3.759,2.369c-2.35,0-3.449-1.452-2.913-3.935a4.473,4.473,0,0,1,4.319-3.819,2.2,2.2,0,0,1,2.339,1.375h3.61c-.113-2.75-2.088-4.393-5.3-4.393a8.516,8.516,0,0,0-8.3,6.839c-.866,4.011,1.354,6.819,5.365,6.819a8.554,8.554,0,0,0,7.456-4.62l.655-3.037h-7.1Z" transform="translate(-3225.831 -1567.08)"/></g><g transform="translate(13.842 18.144)"><path class="e" d="M3270.386,1571.651c.5-2.33-.73-4.221-4.016-4.221h-5.483l-2.9,13.408h3.266l1.093-5.061h.783l1.7,5.061h3.686l-1.949-5.311A5.169,5.169,0,0,0,3270.386,1571.651Zm-5.511,1.818h-2.027l.718-3.323h2.026c1.223,0,1.656.647,1.441,1.643a2,2,0,0,1-2.158,1.68Z" transform="translate(-3257.992 -1567.43)"/></g><g transform="translate(25.417 18.142)"><path class="e" d="M3292.634,1567.427l-7.748,13.412h3.42l1.313-2.369h5l.291,2.369h3.455l-1.957-13.409Zm-1.611,8.519,2.7-4.91.6,4.91Z" transform="translate(-3284.886 -1567.427)"/></g><g transform="translate(41.979 18.143)"><path class="e" d="M3323.369,1570.046h3.552l-2.331,10.793h3.266l2.331-10.793h3.555l.565-2.617h-10.373Z" transform="translate(-3323.369 -1567.429)"/></g><g transform="translate(51.661 18.145)"><path class="e" d="M3348.761,1567.434h3.266l-2.9,13.409h-3.266Z" transform="translate(-3345.865 -1567.434)"/></g><g transform="translate(57.702 17.955)"><path class="e" d="M3364.717,1570.831a1.528,1.528,0,0,1,1.639-1.222,1.133,1.133,0,0,1,1.268.98,1.156,1.156,0,0,1-.014.37h0l-.01.043h3.534c.418-2.559-1.238-4.01-4.157-4.01-2.809,0-5.195,1.414-5.744,3.955-1.065,4.755,5.928,3.42,5.391,5.9a1.718,1.718,0,0,1-1.838,1.26,1.2,1.2,0,0,1-1.355-1.4v0c.006-.04.012-.081.02-.122h-3.474c-.49,2.712,1.455,4.145,4.338,4.145,3.132,0,5.294-1.872,5.782-4.126C3371.069,1572.109,3364.214,1573.16,3364.717,1570.831Z" transform="translate(-3359.9 -1566.991)"/></g></g><g transform="translate(0 0.994)"><path class="e" d="M3115.641,1516.388c13.688-9.593,28.109-19.11,30.1-28.328.857-3.972-.39-6.519-4.287-6.519-3.821,0-6.717,3-7.834,8.17h-12.366c3.24-13.266,13.088-18.958,23.055-18.958,12.44,0,16.416,7.27,14.425,16.487-2.591,11.992-15.379,21.583-25.51,28.253h20.231l-2.25,10.415h-37.62Z" transform="translate(-3113.583 -1470.753)"/></g><g transform="translate(3.741 0.994)"><path class="c" d="M3124.331,1516.388c13.688-9.593,28.108-19.11,30.1-28.328.856-3.972-.391-6.519-4.288-6.519-3.821,0-6.717,3-7.834,8.17h-12.366c3.24-13.266,13.087-18.958,23.055-18.958,12.44,0,16.416,7.27,14.426,16.487-2.592,11.992-15.379,21.583-25.511,28.253h20.235l-2.25,10.417h-37.621Z" transform="translate(-3122.276 -1470.753)"/></g><g transform="translate(50.101 24.459)"><g transform="translate(3.876 0.038)"><path class="c" d="M3244.453,1539.02a8.084,8.084,0,0,0,7.372-4.68h-3.592a3.8,3.8,0,0,1-3.179,1.719c-2.005,0-3.058-1.49-2.546-3.859s2.208-3.859,4.214-3.859a2.284,2.284,0,0,1,2.436,1.719h3.592c-.136-2.9-2.157-4.7-5.347-4.7a8.48,8.48,0,0,0-8.218,6.838C3238.319,1536.212,3240.5,1539.02,3244.453,1539.02Z" transform="translate(-3238.996 -1525.363)"/></g><g transform="translate(18.653 0.191)"><path class="c" d="M3281.467,1533.741a2.84,2.84,0,0,1-2.909,2.5c-1.548,0-2.132-.917-1.79-2.5l1.733-8.022h-3.267l-1.728,8c-.8,3.706,1.23,5.541,4.344,5.541a6.824,6.824,0,0,0,6.889-5.541l1.728-8H3283.2Z" transform="translate(-3273.331 -1525.718)"/></g><g transform="translate(31.893)"><path class="c" d="M3309.7,1539.008a8.992,8.992,0,0,0,8.328-6.9c.8-3.793-1.623-6.853-5.418-6.838a8.993,8.993,0,0,0-8.32,6.857c-.891,3.707,1.375,6.785,5.063,6.876C3309.466,1539.01,3309.582,1539.01,3309.7,1539.008Zm2.326-10.773c2.142,0,3.208,1.509,2.693,3.9a4.556,4.556,0,0,1-4.375,3.9c-2.177,0-3.218-1.546-2.711-3.9a4.515,4.515,0,0,1,4.394-3.9Z" transform="translate(-3304.094 -1525.274)"/></g><g transform="translate(47.804 0.191)"><path class="c" d="M3342.283,1539.128h3.266l2.331-10.793h3.552l.566-2.617h-10.37l-.565,2.617h3.552Z" transform="translate(-3341.062 -1525.718)"/></g><g transform="translate(56.604 0.192)"><path class="c" d="M3371.249,1536.759l.291,2.368h3.455l-1.955-13.408h-3.782l-7.75,13.412h3.419l1.313-2.369Zm-.9-7.43.6,4.91h-3.3Z" transform="translate(-3361.508 -1525.719)"/></g><g transform="translate(0 17.993)"><path class="c" d="M3236.026,1575.483h4.146a4.179,4.179,0,0,1-3.759,2.369c-2.349,0-3.448-1.452-2.913-3.935a4.473,4.473,0,0,1,4.319-3.819,2.2,2.2,0,0,1,2.339,1.375h3.61c-.113-2.75-2.088-4.393-5.3-4.393a8.517,8.517,0,0,0-8.3,6.839c-.866,4.011,1.355,6.819,5.365,6.819a8.547,8.547,0,0,0,7.452-4.622l.656-3.037h-7.108Z" transform="translate(-3229.991 -1567.08)"/></g><g transform="translate(13.841 18.144)"><path class="c" d="M3274.545,1571.651c.5-2.33-.731-4.221-4.017-4.221h-5.482l-2.9,13.408h3.266l1.093-5.061h.783l1.7,5.061h3.686l-1.948-5.311A5.169,5.169,0,0,0,3274.545,1571.651Zm-5.511,1.818h-2.024l.718-3.323h2.025c1.223,0,1.655.647,1.44,1.643a2,2,0,0,1-2.158,1.68Z" transform="translate(-3262.15 -1567.43)"/></g><g transform="translate(25.418 18.142)"><path class="c" d="M3296.8,1567.427l-7.747,13.408h3.419l1.313-2.369h5l.291,2.369h3.455l-1.955-13.408Zm-1.611,8.519,2.7-4.91.6,4.91Z" transform="translate(-3289.048 -1567.427)"/></g><g transform="translate(41.979 18.143)"><path class="c" d="M3327.527,1570.046h3.555l-2.331,10.793h3.266l2.331-10.793h3.555l.565-2.617h-10.375Z" transform="translate(-3327.527 -1567.429)"/></g><g transform="translate(51.661 18.145)"><path class="c" d="M3352.92,1567.434h3.265l-2.9,13.409h-3.266Z" transform="translate(-3350.024 -1567.434)"/></g><g transform="translate(57.705 17.952)"><path class="c" d="M3368.879,1570.827a1.528,1.528,0,0,1,1.639-1.222,1.132,1.132,0,0,1,1.267.98,1.108,1.108,0,0,1-.014.37h0c0,.015,0,.03-.006.042h3.534c.418-2.56-1.234-4.011-4.157-4.011-2.808,0-5.195,1.414-5.744,3.955-1.068,4.754,5.927,3.419,5.391,5.9a1.718,1.718,0,0,1-1.839,1.26,1.2,1.2,0,0,1-1.355-1.405v0c.005-.039.012-.08.021-.121h-3.474c-.49,2.71,1.455,4.145,4.338,4.145,3.132,0,5.294-1.872,5.782-4.126C3375.23,1572.106,3368.376,1573.156,3368.879,1570.827Z" transform="translate(-3364.066 -1566.986)"/></g></g><g transform="translate(63.895 3.109)"><path class="c" d="M3266.083,1477.884a2.05,2.05,0,0,1,1.959,1.084l.713-3.3h2.182l-2.038,9.435h-2.182l.221-1.022a3.109,3.109,0,0,1-2.436,1.122c-1.747,0-2.829-1.427-2.344-3.672A4.27,4.27,0,0,1,3266.083,1477.884Zm.227,1.9a2.062,2.062,0,0,0-1.932,1.747c-.245,1.137.356,1.773,1.172,1.773a2.068,2.068,0,0,0,1.936-1.76c.245-1.136-.348-1.76-1.176-1.76Z" transform="translate(-3262.042 -1475.666)"/><g transform="translate(8.66 2.208)"><path class="c" d="M3286.2,1480.807a1.942,1.942,0,0,1,1.955,1.109l.218-1.006h2.182l-1.536,7.114h-2.182l.217-1.008a3.172,3.172,0,0,1-2.446,1.11c-1.733,0-2.815-1.427-2.33-3.672A4.268,4.268,0,0,1,3286.2,1480.807Zm.227,1.9a2.064,2.064,0,0,0-1.933,1.747c-.245,1.137.357,1.773,1.173,1.773a2.069,2.069,0,0,0,1.936-1.76c.245-1.136-.349-1.759-1.177-1.759Z" transform="translate(-3282.163 -1480.797)"/></g></g><g transform="translate(62.289 14.815)"><path class="c" d="M3258.773,1502.865h16.168l-.462,2.142h-16.168Z" transform="translate(-3258.311 -1502.865)"/></g></g><g transform="translate(214.328 31.641)"><circle class="f" cx="3.383" cy="3.383" r="3.383"/></g><g transform="translate(158.733 64.091)"><path class="g" d="M3475.536,1441.721l2.935,1.233,2.079-2.41-.266,3.172,2.935,1.233-3.1.728-.266,3.172-1.65-2.723-3.1.728,2.079-2.41Z" transform="translate(-3475.106 -1440.544)"/></g><g transform="translate(0 8.04)"><g transform="translate(27.619)"><path class="h" d="M3170.471,1311.233c-.138.612,3.68,6.818,4.556,7.016.245.055.194-.255.408-.207,1.019.229-1.683-4.634-2.214-6C3172.34,1309.795,3170.756,1309.973,3170.471,1311.233Z" transform="translate(-3170.468 -1310.312)"/></g><g transform="translate(23.962 12.712)"><path class="h" d="M3163.448,1340.861c-.055-.093-.808-1.1-.961-1.008C3160.651,1340.911,3164.354,1342.437,3163.448,1340.861Z" transform="translate(-3161.969 -1339.847)"/></g><g transform="translate(11.002 14.337)"><path class="h" d="M3132.829,1343.707a.965.965,0,0,0-.564-.068.508.508,0,0,0-.383.321c-.417,1.3,4.758,5.519,6.084,5.948.167.054.273.047.3-.033C3138.36,1349.58,3134.1,1344.118,3132.829,1343.707Z" transform="translate(-3131.859 -1343.624)"/></g><g transform="translate(15.891 28.2)"><path class="h" d="M3143.234,1376.168c-.2.628,1.574,2.56,1.993,1.259C3145.452,1376.729,3143.563,1375.147,3143.234,1376.168Z" transform="translate(-3143.218 -1375.834)"/></g><g transform="translate(0 33.55)"><path class="h" d="M3106.654,1388.265c-.6.169-.232.553-.335.874-.531,1.649,7.986,3.038,8.986,2.607.287-.125.439-.722.2-.8a.178.178,0,0,1-.082-.172C3115.435,1390.659,3106.862,1388.206,3106.654,1388.265Z" transform="translate(-3106.295 -1388.264)"/></g><g transform="translate(5.263 44.964)"><path class="h" d="M3120.847,1414.856a4.617,4.617,0,0,0-2.059.137c-.628.405.026,1.478.3,1.3a.782.782,0,0,1,.353.04C3120.157,1416.54,3122.222,1415.509,3120.847,1414.856Z" transform="translate(-3118.524 -1414.784)"/></g></g><g transform="translate(300.328 103.997)"><g transform="translate(0 38.972)"><path class="i" d="M3810.271,1628.117c-.071-.534-5-4.4-5.766-4.3-.214.029-.08.263-.267.288-.89.119,2.738,3.235,3.572,4.176C3809.193,1629.834,3810.417,1629.218,3810.271,1628.117Z" transform="translate(-3804.099 -1623.816)"/></g><g transform="translate(3.858 31.645)"><path class="i" d="M3813.322,1607.444c.073.059.978.643,1.076.527C3815.562,1606.57,3812.122,1606.443,3813.322,1607.444Z" transform="translate(-3813.064 -1606.79)"/></g><g transform="translate(8.548 24.254)"><path class="i" d="M3830.183,1593.09a.826.826,0,0,0,.475-.114.437.437,0,0,0,.212-.374c-.05-1.17-5.481-3.033-6.678-2.983-.151.006-.235.044-.231.116C3823.973,1590,3829.032,1593.139,3830.183,1593.09Z" transform="translate(-3823.96 -1589.619)"/></g><g transform="translate(5.409 16.557)"><path class="i" d="M3818.648,1572.693c-.023-.566-2.032-1.6-1.982-.421C3816.692,1572.9,3818.688,1573.615,3818.648,1572.693Z" transform="translate(-3816.666 -1571.733)"/></g><g transform="translate(10.302 7.377)"><path class="i" d="M3836.169,1551.865c.434-.315.022-.515.01-.8-.063-1.488-7.345-.071-8.023.575-.194.186-.138.713.073.7a.154.154,0,0,1,.117.115C3828.375,1552.551,3836.019,1551.975,3836.169,1551.865Z" transform="translate(-3828.037 -1550.405)"/></g><g transform="translate(8.638)"><path class="i" d="M3824.716,1534.995a3.961,3.961,0,0,0,1.62-.724c.386-.513-.461-1.184-.628-.962a.672.672,0,0,1-.3.073C3824.771,1533.431,3823.413,1534.877,3824.716,1534.995Z" transform="translate(-3824.17 -1533.265)"/></g></g><g transform="translate(30.25 34.795)"><g transform="translate(68.487 2.657)"><g transform="translate(17.581 2.21)"><path class="c" d="M3397.348,1385.854c-2.319,0-3.963,1.674-3.97,4.386a3.952,3.952,0,0,0,3.986,4.007,3.785,3.785,0,0,0,2.376-.542v-1.372a4.6,4.6,0,0,1-1.993.4,2.229,2.229,0,0,1-2.4-1.764l-.014-.1h1.449a7.05,7.05,0,0,0,2.929-.423,1.488,1.488,0,0,0,.869-1.492,3.1,3.1,0,0,0-3.23-3.1m.944,3.554a6.594,6.594,0,0,1-1.957.182h-1.011l.006-.087.015-.276a1.847,1.847,0,0,1,1.82-1.832,1.97,1.97,0,0,1,1.191.326,1.185,1.185,0,0,1,.459.991.676.676,0,0,1-.523.7m3.285-.425v5.123h1.9v-4.755a2.1,2.1,0,0,1,.387-1.4,1.4,1.4,0,0,1,1.125-.439,3.066,3.066,0,0,1,.517.042v-1.507a2.116,2.116,0,0,0-.963-.2,2.835,2.835,0,0,0-2.97,3.133m-25.019,5.123h1.9v-10.32h-1.9Zm7.021-8.252a3.356,3.356,0,0,0-3.647,3.439v4.813h1.889v-4.675a2.163,2.163,0,0,1,.438-1.418,1.458,1.458,0,0,1,1.152-.512,1.642,1.642,0,0,1,1.3.505,2.334,2.334,0,0,1,.461,1.576v4.524h1.886v-4.7a3.328,3.328,0,0,0-3.477-3.548m6.815-2.068h-1.88l.007,7.447a2.7,2.7,0,0,0,3.016,3.015c.873,0,1.4-.285,1.613-.74v-1.173a3.474,3.474,0,0,1-1.367.216,1.349,1.349,0,0,1-1.026-.367,1.7,1.7,0,0,1-.363-1.2V1387.5h1.646c.805,0,1.142-.513,1.145-.893v-.754h-2.791Z" transform="translate(-3376.558 -1383.786)"/><g transform="translate(36.502 2.068)"><path class="c" d="M3467.7,1393.187a1.488,1.488,0,0,0,.87-1.492,3.1,3.1,0,0,0-3.23-3.1c-2.32,0-3.964,1.674-3.97,4.386a3.951,3.951,0,0,0,3.984,4.007,3.789,3.789,0,0,0,2.378-.542v-1.373a4.6,4.6,0,0,1-1.993.4,2.23,2.23,0,0,1-2.4-1.764l-.013-.1h1.449a7.039,7.039,0,0,0,2.928-.423m-4.384-.859.007-.087.013-.276a1.848,1.848,0,0,1,1.818-1.832,1.964,1.964,0,0,1,1.192.326,1.178,1.178,0,0,1,.46.991.676.676,0,0,1-.523.7,6.594,6.594,0,0,1-1.957.182Z" transform="translate(-3461.369 -1388.591)"/></g><g transform="translate(61.186 2.064)"><path class="c" d="M3518.722,1391.714v5.123h1.9v-4.755a2.1,2.1,0,0,1,.388-1.4,1.4,1.4,0,0,1,1.125-.439,3.05,3.05,0,0,1,.517.042v-1.507a2.12,2.12,0,0,0-.964-.2,2.837,2.837,0,0,0-2.97,3.133" transform="translate(-3518.722 -1388.581)"/></g><g transform="translate(29.776 2.033)"><path class="c" d="M3448.389,1396.906c-1.388,0-2.423-.759-2.423-1.577v-.909h.07a3.619,3.619,0,0,0,2.266.76c.925,0,1.372-.283,1.372-.88,0-.461-.266-.683-1.569-.878-1.594-.238-2.362-.908-2.362-2.128a2.937,2.937,0,0,1,3.2-2.784c1.711,0,2.408.937,2.408,1.712v.759h-.07a3.174,3.174,0,0,0-2.155-.742c-1.149,0-1.511.37-1.511.892,0,.4.224.566,1.511.789,1.565.269,2.406,1,2.406,2.278,0,1.7-1.12,2.709-3.146,2.709" transform="translate(-3445.743 -1388.51)"/></g><g transform="translate(44.555 2.057)"><path class="c" d="M3487.021,1394.536c.013.327.03.759.03,1.026a3.572,3.572,0,0,1-3.7,3.811c-1.554,0-2.617-.8-2.617-1.757v-.908h.083a3.221,3.221,0,0,0,2.4.863c1.355,0,1.97-.684,1.97-1.846,0-.117,0-.282-.013-.417,0-.117-.013-.327-.013-.4v-.193a1.923,1.923,0,0,1-1.945,1.19,3.071,3.071,0,0,1-3.136-3.247,3.777,3.777,0,0,1,3.833-4.093c1.877,0,3.079,1.459,3.079,3.514v1.369c0,.268.014.729.028,1.087m-5.024-2.128a1.628,1.628,0,0,0,1.512,1.835c.947,0,1.626-.752,1.626-2.045,0-1.263-.6-1.881-1.427-1.881a1.872,1.872,0,0,0-1.711,2.091" transform="translate(-3480.081 -1388.565)"/></g><g transform="translate(65.551 2.033)"><path class="c" d="M3532.686,1388.51c2.316,0,3.649,1.935,3.649,4.065,0,2.411-1.333,4.331-3.822,4.331-2.317,0-3.648-1.92-3.648-4.049,0-2.413,1.332-4.347,3.821-4.347m-.173,1.685c-1.148,0-1.731.992-1.731,2.373,0,1.659.583,2.653,1.907,2.653,1.163,0,1.73-.995,1.73-2.359,0-1.675-.6-2.668-1.906-2.668" transform="translate(-3528.864 -1388.51)"/></g><g transform="translate(52.787 2.204)"><path class="c" d="M3502.674,1397.187a3.356,3.356,0,0,0,3.634-3.452v-4.829h-1.881v4.692a2.176,2.176,0,0,1-.437,1.421,1.449,1.449,0,0,1-1.147.515,1.634,1.634,0,0,1-1.294-.509,2.351,2.351,0,0,1-.459-1.581v-4.539h-1.88v4.721a3.326,3.326,0,0,0,3.466,3.56" transform="translate(-3499.208 -1388.906)"/></g></g><path class="j" d="M3337.677,1378.65a1.968,1.968,0,0,0-1.968,1.968v12.768h12.77a1.97,1.97,0,0,0,1.97-1.969V1378.65Zm9.328,10.636-7.854,1.419v-7.928l7.854-1.419Z" transform="translate(-3335.709 -1378.65)"/></g><path class="c" d="M3186.815,1385.206v2.648c0,3.19-1.747,5.012-5.117,5.012s-5.118-1.823-5.118-5.012v-10.366c0-3.19,1.747-5.012,5.118-5.012s5.117,1.823,5.117,5.012v1.936h-3.245v-2.136c0-1.424-.686-1.965-1.779-1.965s-1.779.541-1.779,1.965v10.765c0,1.424.687,1.936,1.779,1.936s1.779-.512,1.779-1.936v-2.848Z" transform="translate(-3176.58 -1372.476)"/><g transform="translate(10.86 0.229)"><path class="c" d="M3206.15,1386.335l-4.338-13.327h3.588l2.621,9.085,2.621-9.085h3.277l-4.337,13.327v6.607h-3.432Z" transform="translate(-3201.812 -1373.008)"/></g><g transform="translate(24.341 0.227)"><path class="c" d="M3243.4,1377.589v.712c0,2.051-.686,3.361-2.216,4.016,1.841.655,2.559,2.164,2.559,4.272v1.624c0,3.075-1.779,4.727-5.211,4.727h-5.4V1373h5.18C3241.872,1373,3243.4,1374.514,3243.4,1377.589Zm-6.834-1.737v5.268h1.34c1.28,0,2.06-.513,2.06-2.108V1377.9c0-1.424-.531-2.051-1.747-2.051Zm0,8.116v6.123h1.966c1.155,0,1.779-.484,1.779-1.965v-1.737c0-1.851-.655-2.421-2.216-2.421Z" transform="translate(-3233.135 -1373.004)"/></g><g transform="translate(37.009 0.228)"><path class="c" d="M3266,1381.4h4.713v2.848H3266v5.84h5.929v2.848h-9.362v-19.935h9.362v2.848H3266Z" transform="translate(-3262.569 -1373.005)"/></g><g transform="translate(48.493 0.228)"><path class="c" d="M3296.43,1392.94a5.689,5.689,0,0,1-.311-2.449v-3.133c0-1.851-.687-2.535-2.247-2.535h-1.186v8.117h-3.432v-19.935h5.18c3.558,0,5.086,1.509,5.086,4.585v1.567c0,2.05-.717,3.389-2.247,4.044,1.717.655,2.278,2.165,2.278,4.243v3.076a5.393,5.393,0,0,0,.375,2.421Zm-3.743-17.087v6.123h1.34c1.28,0,2.06-.513,2.06-2.109V1377.9c0-1.424-.531-2.05-1.748-2.05Z" transform="translate(-3289.253 -1373.005)"/></g></g><g transform="translate(134.609 95.504)"><path class="c" d="M3423.541,1524.6h6.525v-6.585a4.485,4.485,0,0,1,4.485-4.485h.316a4.485,4.485,0,0,1,4.485,4.485v6.585h6.585a4.485,4.485,0,0,1,4.485,4.485v.316a4.485,4.485,0,0,1-4.485,4.485h-6.585v6.526a4.485,4.485,0,0,1-4.485,4.485h-.316a4.485,4.485,0,0,1-4.485-4.485v-6.526h-6.525a4.485,4.485,0,0,1-4.485-4.485v-.316A4.485,4.485,0,0,1,3423.541,1524.6Z" transform="translate(-3419.056 -1513.533)"/></g><g transform="translate(136.478 96.665)"><path class="f" d="M3427.884,1527.3h6.525v-6.585a4.485,4.485,0,0,1,4.485-4.485h.316a4.485,4.485,0,0,1,4.484,4.485v6.585h6.585a4.484,4.484,0,0,1,4.484,4.484v.316a4.484,4.484,0,0,1-4.484,4.485h-6.585v6.526a4.485,4.485,0,0,1-4.484,4.485h-.316a4.485,4.485,0,0,1-4.485-4.485v-6.526h-6.525a4.485,4.485,0,0,1-4.485-4.485v-.316A4.485,4.485,0,0,1,3427.884,1527.3Z" transform="translate(-3423.399 -1516.23)"/></g><g transform="translate(175.874 79.45)"><g transform="translate(27.037 3.708)"><g transform="translate(0.001)"><path class="e" d="M3607.353,1485.369l-8.272,52.168-15.677,1.823,4.274-29.481a42.676,42.676,0,0,0,.724-7.535,2.622,2.622,0,0,0-1.716-2c-1.027-.474-3.447-.778-7.277-.908l-1.654-.056.871-6.5c8.245-1.095,14.669-3.772,19.384-8.036Z" transform="translate(-3577.755 -1484.847)"/></g><g transform="translate(26.737 0.521)"><path class="e" d="M3642.734,1486.058l2.189,1.86-2.821,2.12-2.228-1.432Z" transform="translate(-3639.875 -1486.058)"/></g><g transform="translate(5.648 53.005)"><path class="e" d="M3590.877,1609.51l2.189,1.86,1.382-1.785-.428-1.477-.667-.105Z" transform="translate(-3590.877 -1608.002)"/></g><g transform="translate(0 13.172)"><path class="e" d="M3577.753,1516.816l2.19,1.86,1.224-1.319-.444-1.8-.687-.109Z" transform="translate(-3577.753 -1515.452)"/></g></g><g transform="translate(0 0.467)"><path class="e" d="M3528.456,1484.115l-4.256.927-.807-.865.261-1.575a3.011,3.011,0,0,0,.039-1.4.586.586,0,0,0-.6-.294,1,1,0,0,0-.812.417,2.755,2.755,0,0,0-.458,1.237,3.341,3.341,0,0,0,.017,1.6,3.182,3.182,0,0,0,1.326,1.28q3.282,2.146,4,3.54t.21,4.519a9.025,9.025,0,0,1-1.069,3.355,5.311,5.311,0,0,1-2.33,1.829,8.883,8.883,0,0,1-3.636.768,6.984,6.984,0,0,1-3.622-.8,3.2,3.2,0,0,1-1.684-2.115,10.706,10.706,0,0,1,.134-3.682l.233-1.391,5.082-.06.807.865-1.234,1.721a3.283,3.283,0,0,0-.039,1.533.687.687,0,0,0,.705.333,1.084,1.084,0,0,0,.885-.443,2.874,2.874,0,0,0,.478-1.29,3.727,3.727,0,0,0-.1-2.449,12.462,12.462,0,0,0-2.24-1.9,19.326,19.326,0,0,1-2.37-1.949,3.7,3.7,0,0,1-.811-1.692,7.268,7.268,0,0,1,.034-2.776,8.913,8.913,0,0,1,1.217-3.576,5.391,5.391,0,0,1,2.283-1.791,8.644,8.644,0,0,1,3.415-.678,7.69,7.69,0,0,1,3.5.649,2.952,2.952,0,0,1,1.687,1.727,9.1,9.1,0,0,1-.1,3.584Z" transform="translate(-3514.933 -1477.316)"/></g><g transform="translate(12.166)"><path class="e" d="M3556.917,1476.231l1.154,1.151-10.889,21.009-3.176.91-.807-.865,9.813-22.153Z" transform="translate(-3543.199 -1476.231)"/></g><g transform="translate(57.348 4.994)"><path class="e" d="M3680.579,1505.749l-2.473,16.889a43.706,43.706,0,0,1-1.836,8.392,14.268,14.268,0,0,1-3.266,4.943,13.631,13.631,0,0,1-5.155,3.342,19.154,19.154,0,0,1-6.272,1.076,20.985,20.985,0,0,1-7.265-.959,8.124,8.124,0,0,1-4.225-3.209,11.7,11.7,0,0,1-1.792-4.643,29.164,29.164,0,0,1,.437-7.79l2.673-17.657a37.9,37.9,0,0,1,2.765-10.452,12.991,12.991,0,0,1,5.522-5.625,18.174,18.174,0,0,1,8.79-2.209,15.856,15.856,0,0,1,7.047,1.353,9.639,9.639,0,0,1,4.265,3.484,10.112,10.112,0,0,1,1.455,4.69A44.123,44.123,0,0,1,3680.579,1505.749Zm-11.728-4.087a19.166,19.166,0,0,0,.372-5.043q-.231-1.01-1.636-.992a2.126,2.126,0,0,0-1.98,1.1,18.255,18.255,0,0,0-1.192,4.992l-3.686,24.7q-.653,4.408-.374,5.31t1.665.884a2.1,2.1,0,0,0,1.971-1.086,17.478,17.478,0,0,0,1.137-4.789Z" transform="translate(-3648.178 -1487.835)"/></g><g transform="translate(1.564 1.331)"><path class="c" d="M3532.088,1486.124l-5.062.063.261-1.575a3.012,3.012,0,0,0,.039-1.4.586.586,0,0,0-.6-.294,1,1,0,0,0-.812.417,2.752,2.752,0,0,0-.458,1.237,3.348,3.348,0,0,0,.017,1.6,3.183,3.183,0,0,0,1.326,1.281q3.282,2.145,4,3.539t.21,4.519a9.03,9.03,0,0,1-1.069,3.355,5.306,5.306,0,0,1-2.33,1.829,8.881,8.881,0,0,1-3.636.768,6.985,6.985,0,0,1-3.622-.8,3.193,3.193,0,0,1-1.684-2.115,10.7,10.7,0,0,1,.134-3.682l.233-1.391,5.082-.06-.427,2.586a3.3,3.3,0,0,0-.039,1.533.689.689,0,0,0,.706.333,1.083,1.083,0,0,0,.884-.443,2.866,2.866,0,0,0,.478-1.289,3.728,3.728,0,0,0-.1-2.449,12.485,12.485,0,0,0-2.24-1.9,19.327,19.327,0,0,1-2.37-1.95,3.691,3.691,0,0,1-.81-1.692,7.256,7.256,0,0,1,.033-2.776,8.915,8.915,0,0,1,1.217-3.576,5.393,5.393,0,0,1,2.283-1.79,8.64,8.64,0,0,1,3.415-.678,7.676,7.676,0,0,1,3.495.65,2.954,2.954,0,0,1,1.688,1.727,9.128,9.128,0,0,1-.1,3.584Z" transform="translate(-3518.566 -1479.324)"/></g><g transform="translate(13.319 1.15)"><path class="c" d="M3559.6,1478.9l-9.735,22.159-3.982.045,9.813-22.153Z" transform="translate(-3545.88 -1478.904)"/></g><g transform="translate(59.266 7.048)"><path class="c" d="M3685.035,1510.52l-2.473,16.889a43.632,43.632,0,0,1-1.835,8.392,14.272,14.272,0,0,1-3.266,4.943,13.632,13.632,0,0,1-5.155,3.342,19.176,19.176,0,0,1-6.272,1.076,20.989,20.989,0,0,1-7.265-.959,8.127,8.127,0,0,1-4.225-3.209,11.7,11.7,0,0,1-1.792-4.643,29.154,29.154,0,0,1,.436-7.789l2.673-17.657a37.925,37.925,0,0,1,2.765-10.452,12.984,12.984,0,0,1,5.522-5.625,18.165,18.165,0,0,1,8.789-2.209,15.852,15.852,0,0,1,7.047,1.354,9.632,9.632,0,0,1,4.265,3.483,10.114,10.114,0,0,1,1.455,4.692A44.273,44.273,0,0,1,3685.035,1510.52Zm-11.728-4.088a19.2,19.2,0,0,0,.371-5.043q-.231-1.01-1.635-.992a2.125,2.125,0,0,0-1.981,1.1,18.287,18.287,0,0,0-1.192,4.991l-3.686,24.7q-.654,4.409-.374,5.31t1.665.884a2.1,2.1,0,0,0,1.971-1.086,17.47,17.47,0,0,0,1.136-4.788Z" transform="translate(-3652.635 -1492.606)"/></g><g transform="translate(90.978 3.978)"><path class="e" d="M3758.717,1503.389l-2.473,16.889a43.807,43.807,0,0,1-1.835,8.392,14.262,14.262,0,0,1-3.266,4.943,13.635,13.635,0,0,1-5.156,3.342,19.175,19.175,0,0,1-6.272,1.076,20.985,20.985,0,0,1-7.266-.959,8.124,8.124,0,0,1-4.224-3.209,11.7,11.7,0,0,1-1.792-4.643,29.161,29.161,0,0,1,.437-7.789l2.672-17.657a37.905,37.905,0,0,1,2.766-10.452,12.985,12.985,0,0,1,5.522-5.625,18.17,18.17,0,0,1,8.79-2.21,15.852,15.852,0,0,1,7.046,1.354,9.621,9.621,0,0,1,4.264,3.483,10.115,10.115,0,0,1,1.456,4.69A44.327,44.327,0,0,1,3758.717,1503.389Zm-11.728-4.088a19.139,19.139,0,0,0,.371-5.042q-.23-1.01-1.635-.992a2.125,2.125,0,0,0-1.98,1.1,18.269,18.269,0,0,0-1.192,4.991l-3.686,24.7q-.653,4.409-.374,5.31t1.665.884a2.1,2.1,0,0,0,1.971-1.087,17.5,17.5,0,0,0,1.136-4.788Z" transform="translate(-3726.317 -1485.475)"/></g><g transform="translate(92.896 6.033)"><path class="c" d="M3763.172,1508.162l-2.473,16.889a43.759,43.759,0,0,1-1.835,8.392,14.262,14.262,0,0,1-3.266,4.943,13.639,13.639,0,0,1-5.153,3.343,19.173,19.173,0,0,1-6.272,1.076,20.989,20.989,0,0,1-7.266-.959,8.127,8.127,0,0,1-4.224-3.209,11.7,11.7,0,0,1-1.792-4.643,29.155,29.155,0,0,1,.437-7.789l2.672-17.657a37.894,37.894,0,0,1,2.765-10.453,12.984,12.984,0,0,1,5.521-5.625,18.17,18.17,0,0,1,8.791-2.209,15.84,15.84,0,0,1,7.046,1.354,9.624,9.624,0,0,1,4.265,3.483,10.108,10.108,0,0,1,1.455,4.692A44.372,44.372,0,0,1,3763.172,1508.162Zm-11.729-4.087a19.143,19.143,0,0,0,.372-5.043q-.23-1.01-1.636-.992a2.126,2.126,0,0,0-1.98,1.1,18.3,18.3,0,0,0-1.192,4.992l-3.686,24.7q-.653,4.409-.374,5.31t1.665.884a2.1,2.1,0,0,0,1.971-1.086,17.457,17.457,0,0,0,1.136-4.788Z" transform="translate(-3730.775 -1490.248)"/></g><g transform="translate(29.162 5.976)"><path class="c" d="M3612.286,1490.639l-8.435,53.2-15.493.377,4.253-29.065a42.679,42.679,0,0,0,.724-7.535,2.622,2.622,0,0,0-1.716-2c-1.027-.474-3.446-.779-7.277-.908l-1.654-.056.871-6.5c8.246-1.094,14.67-3.772,19.385-8.036Z" transform="translate(-3582.689 -1490.116)"/></g></g><g transform="translate(223.55 60.972)"><path class="c" d="M3697.116,1450.992h-63.573c-4.32,0-7.835-3.969-7.835-8.847s3.515-8.846,7.835-8.846h63.573c4.32,0,7.835,3.969,7.835,8.846S3701.437,1450.992,3697.116,1450.992Zm-63.573-16.832c-3.9,0-7.073,3.582-7.073,7.985s3.173,7.986,7.073,7.986h63.573c3.9,0,7.073-3.583,7.073-7.986s-3.173-7.985-7.073-7.985Z" transform="translate(-3625.708 -1433.299)"/></g><g transform="translate(229.862 65.42)"><g transform="translate(0 0.035)"><path class="c" d="M3641.7,1451.751c-.246,0-.41-.2-.445-.5l-.877-6.89c.047-.368.292-.651.562-.651h.808c.21,0,.4.241.421.509l.562,4.429,1.849-4.429c.117-.268.374-.509.585-.509h.807c.27,0,.421.283.375.651l-2.89,6.89a.7.7,0,0,1-.585.5Z" transform="translate(-3640.374 -1443.715)"/></g><g transform="translate(4.856 0.035)"><path class="c" d="M3656.653,1451.822c-.69,0-.784-.623-.854-1.089l-.106-.68h-1.72l-.515,1.174c-.1.283-.328.524-.562.524h-.843c-.269,0-.445-.24-.386-.58l3-6.96a.727.727,0,0,1,.585-.5h.983c.222,0,.386.2.433.5l.8,5.574c.035.184.047.34.082.354a.537.537,0,0,1,.2.51l-.071.467C3657.6,1451.651,3657.028,1451.822,3656.653,1451.822Zm-1.931-3.565h.714l-.164-1.288Z" transform="translate(-3651.657 -1443.715)"/></g><g transform="translate(11.864 0.035)"><path class="c" d="M3668.337,1451.751c-.281,0-.445-.24-.386-.58l.994-6.876a.621.621,0,0,1,.562-.58h.761c.269,0,.445.241.386.58l-.807,5.546h2.188c.269,0,.444.24.4.566l-.1.764a.63.63,0,0,1-.562.58Z" transform="translate(-3667.939 -1443.715)"/></g><g transform="translate(17.362 0.035)"><path class="c" d="M3681.112,1451.751c-.281,0-.445-.24-.386-.58l.994-6.876a.62.62,0,0,1,.562-.58h3.593c.281,0,.433.241.375.58l-.105.778a.6.6,0,0,1-.55.566h-2.352l-.176,1.146h1.673c.269,0,.421.255.374.58l-.1.764a.623.623,0,0,1-.55.58h-1.674l-.164,1.132h2.353c.281,0,.433.24.386.566l-.106.764c-.059.34-.269.58-.551.58Z" transform="translate(-3680.715 -1443.715)"/></g><g transform="translate(28.385)"><path class="c" d="M3707.647,1451.669c-.245,0-.41-.2-.445-.5l-.878-6.89c.047-.368.293-.65.562-.65h.808c.21,0,.4.24.421.509l.562,4.429,1.849-4.429c.117-.269.374-.509.585-.509h.808c.269,0,.421.283.374.65l-2.89,6.89a.7.7,0,0,1-.585.5Z" transform="translate(-3706.325 -1443.633)"/></g><g transform="translate(34.41)"><path class="c" d="M3722.046,1451.088a.631.631,0,0,1-.562.581h-.772c-.269,0-.433-.24-.374-.581l.994-6.875a.619.619,0,0,1,.55-.58h.772c.269,0,.444.24.386.58Z" transform="translate(-3720.325 -1443.633)"/></g><g transform="translate(37.593)"><path class="c" d="M3731.289,1443.633c1.615,0,2.305.849,2.025,2.787a3.25,3.25,0,0,1-1.042,2.221,11,11,0,0,0,.269,1.415.5.5,0,0,1,.164.51l-.07.467a.923.923,0,0,1-.994.708c-.632,0-.737-.481-.831-1l-.269-1.556h-.819l-.28,1.91c-.059.34-.27.581-.562.581h-.749c-.269,0-.457-.24-.4-.581l.995-6.875a.639.639,0,0,1,.573-.58Zm.316,2.787c.07-.524-.129-.863-.492-.863h-.866l-.258,1.712h.866C3731.231,1447.269,3731.523,1446.958,3731.6,1446.42Z" transform="translate(-3727.721 -1443.633)"/></g><g transform="translate(44.276)"><path class="c" d="M3747.937,1443.633c.27,0,.421.24.363.58l-.106.778a.6.6,0,0,1-.538.566H3746.5l-.808,5.531a.63.63,0,0,1-.562.581h-.772c-.27,0-.433-.24-.375-.581l.808-5.531h-1.158c-.27,0-.422-.241-.375-.566l.105-.778a.619.619,0,0,1,.55-.58Z" transform="translate(-3743.248 -1443.633)"/></g><g transform="translate(49.775)"><path class="c" d="M3756.138,1448.061l.562-3.848a.64.64,0,0,1,.574-.58h.76c.27,0,.434.24.375.58l-.573,3.948c-.223,1.556.3,1.669.7,1.669s.971-.113,1.193-1.669l.574-3.948a.63.63,0,0,1,.562-.58h.761c.269,0,.445.24.386.58l-.562,3.848c-.457,3.169-1.556,3.679-3.183,3.679S3755.682,1451.23,3756.138,1448.061Z" transform="translate(-3756.024 -1443.633)"/></g><g transform="translate(55.644)"><path class="c" d="M3774.659,1451.74c-.69,0-.784-.623-.854-1.09l-.106-.679h-1.72l-.515,1.174c-.1.283-.328.524-.562.524h-.843c-.269,0-.445-.24-.386-.581l3-6.96a.728.728,0,0,1,.586-.495h.983c.222,0,.386.2.433.495l.8,5.574c.035.184.047.34.082.354a.537.537,0,0,1,.2.51l-.07.467C3775.606,1451.569,3775.033,1451.74,3774.659,1451.74Zm-1.931-3.565h.714l-.164-1.288Z" transform="translate(-3769.662 -1443.633)"/></g><g transform="translate(62.652)"><path class="c" d="M3786.342,1451.669c-.281,0-.445-.24-.387-.581l1-6.875a.62.62,0,0,1,.562-.58h.761c.269,0,.445.24.386.58l-.808,5.545h2.188c.269,0,.444.241.4.567l-.1.763a.63.63,0,0,1-.562.581Z" transform="translate(-3785.944 -1443.633)"/></g></g><g transform="translate(23.176 57.889)"><g transform="translate(0 0)"><rect class="c" width="14.847" height="1.291" transform="translate(0 14.778) rotate(-84.453)"/></g></g><g transform="translate(15.763 137.979)"><path class="c" d="M3339.287,1639.9H3154.961c-3.347,0-6.456-1.757-8.753-4.948a19.041,19.041,0,0,1-3.227-12.436l.792-10.3,1.019.125-.792,10.3a17.521,17.521,0,0,0,2.967,11.443,9.89,9.89,0,0,0,7.994,4.525h184.326Z" transform="translate(-3142.92 -1612.221)"/></g><g transform="translate(195.475 43.679)"><path class="c" d="M3649.307,1404.148c-1.823-5.825-6.766-9.739-12.3-9.739h-76.529v-1.291h76.529c6.1,0,11.541,4.278,13.533,10.645Z" transform="translate(-3560.477 -1393.118)"/></g><g transform="translate(199.842 145.772)"><path class="c" d="M3572.179,1640.869a.515.515,0,0,1-.524-.482l-1.032-6.706a.717.717,0,0,1,.66-.634h.95a.544.544,0,0,1,.5.5l.661,4.311,2.176-4.311a.916.916,0,0,1,.689-.5h.95c.317,0,.5.276.44.634l-3.4,6.706a.8.8,0,0,1-.688.482Z" transform="translate(-3570.623 -1631.877)"/><path class="c" d="M3588.139,1634.542l-.757,4.241a.622.622,0,0,1-.62.537h-.647c-.248,0-.427-.055-.5-.262l-.041-.11a2.207,2.207,0,0,1-1.253.441c-1.556,0-1.832-1.308-1.584-2.713a3.424,3.424,0,0,1,3.415-3.016,4.918,4.918,0,0,1,1.722.331A.489.489,0,0,1,3588.139,1634.542Zm-2.189,1.005a1.268,1.268,0,0,0-1.185,1.13c-.125.729.151.853.44.853a1.014,1.014,0,0,0,.427-.165Zm.605-5.013a.841.841,0,0,1,.51-.207.408.408,0,0,1,.372.152l.427.62a.552.552,0,0,1,.11.454.763.763,0,0,1-.386.468l-1.377.978a1.063,1.063,0,0,1-.523.165.533.533,0,0,1-.4-.22l-.193-.248a.568.568,0,0,1-.151-.468,1.153,1.153,0,0,1,.137-.3Z" transform="translate(-3577.48 -1630.328)"/><path class="c" d="M3596.6,1633.6a.661.661,0,0,1,.634-.551h.923a.44.44,0,0,1,.454.551l-.978,5.481c-.027.165,0,.249.042.262a.436.436,0,0,1,.206.482l-.082.44a.657.657,0,0,1-.537.537,2.771,2.771,0,0,1-.771.138c-1.1,0-1.019-.978-.936-1.46Z" transform="translate(-3584.801 -1631.877)"/><path class="c" d="M3604.006,1640.082a.675.675,0,0,1-.647.551h-.922a.427.427,0,0,1-.441-.551l.785-4.476a.649.649,0,0,1,.633-.551h.923a.44.44,0,0,1,.455.551Zm.3-7.45a.854.854,0,0,1,.868,1.061,1.294,1.294,0,0,1-1.24,1.06.868.868,0,0,1-.881-1.06A1.32,1.32,0,0,1,3604.308,1632.631Z" transform="translate(-3588.485 -1631.64)"/><path class="c" d="M3613.536,1640.084a.747.747,0,0,1-.469.551,6.928,6.928,0,0,1-2.052.3c-1.873,0-2.616-1.143-2.286-2.961a3.034,3.034,0,0,1,2.988-2.768,2.247,2.247,0,0,1,.647.083l.3-1.708a.638.638,0,0,1,.634-.537h.937a.421.421,0,0,1,.441.537Zm-2.245-1.005c.055,0,.276-.014.413-.027l.331-1.9a.88.88,0,0,0-.331-.069c-.44,0-.8.22-.909.895C3610.657,1638.707,3610.767,1639.079,3611.291,1639.079Z" transform="translate(-3592.286 -1631.877)"/><path class="c" d="M3621.881,1640.881a3.072,3.072,0,0,1,3.223-2.81c1.873,0,2.534,1.115,2.231,2.81a3.1,3.1,0,0,1-3.236,2.919C3622.225,1643.8,3621.564,1642.7,3621.881,1640.881Zm3.443.014c.068-.4.028-.95-.551-.95s-.813.551-.882.95-.124,1.046.523,1.046S3625.255,1641.308,3625.324,1640.895Z" transform="translate(-3599.777 -1634.739)"/><path class="c" d="M3640.219,1638.925a.851.851,0,0,1,.551-.592,7.443,7.443,0,0,1,1.969-.262c1.873,0,2.6,1.143,2.286,2.961a3.025,3.025,0,0,1-3.291,2.768h-.358l-.372,2.08a.648.648,0,0,1-.633.551h-.937a.431.431,0,0,1-.44-.551Zm1.473,3.016h.261a1.02,1.02,0,0,0,1.06-.909c.124-.73-.041-1.088-.564-1.088a2.389,2.389,0,0,0-.4.028Z" transform="translate(-3609.562 -1634.739)"/><path class="c" d="M3658.729,1638.953l-.758,4.241a.622.622,0,0,1-.619.537h-.647c-.248,0-.427-.055-.5-.262l-.041-.11a2.208,2.208,0,0,1-1.254.441c-1.555,0-1.832-1.308-1.583-2.713a3.424,3.424,0,0,1,3.416-3.016,4.917,4.917,0,0,1,1.721.331A.489.489,0,0,1,3658.729,1638.953Zm-2.189,1.005a1.268,1.268,0,0,0-1.184,1.129c-.124.729.151.853.44.853a1.017,1.017,0,0,0,.427-.165Z" transform="translate(-3617.688 -1634.739)"/><path class="c" d="M3670.551,1638.526a.542.542,0,0,1,.178.5.483.483,0,0,1-.083.193l-.372.634a.7.7,0,0,1-.551.344.417.417,0,0,1-.221-.069,1.675,1.675,0,0,0-.661-.179.8.8,0,0,0-.441.124l-.551,3.126a.623.623,0,0,1-.619.537h-.937a.43.43,0,0,1-.454-.537l.716-4.049a.742.742,0,0,1,.372-.51,3.705,3.705,0,0,1,2.19-.565A1.936,1.936,0,0,1,3670.551,1638.526Z" transform="translate(-3624.855 -1634.739)"/><path class="c" d="M3680.874,1638.953l-.758,4.241a.622.622,0,0,1-.619.537h-.647c-.248,0-.427-.055-.5-.262l-.041-.11a2.207,2.207,0,0,1-1.253.441c-1.556,0-1.832-1.308-1.584-2.713a3.423,3.423,0,0,1,3.415-3.016,4.915,4.915,0,0,1,1.721.331A.49.49,0,0,1,3680.874,1638.953Zm-2.189,1.005a1.268,1.268,0,0,0-1.185,1.129c-.124.729.151.853.44.853a1.018,1.018,0,0,0,.427-.165Z" transform="translate(-3630.302 -1634.739)"/><path class="c" d="M3698.9,1639.159c-.014.083-.027.11-.44.744a.607.607,0,0,1-.551.317.811.811,0,0,1-.275-.1,1.932,1.932,0,0,0-.937-.179,1.09,1.09,0,0,0-1.088.978c-.124.716.275,1.019.73,1.019a1.984,1.984,0,0,0,1.033-.206.635.635,0,0,1,.289-.069.474.474,0,0,1,.427.317,6.9,6.9,0,0,1,.193.716.861.861,0,0,1-.4.551,3.553,3.553,0,0,1-1.969.551c-1.846,0-2.63-1.06-2.314-2.878a3.152,3.152,0,0,1,3.319-2.851,2.592,2.592,0,0,1,1.777.565A.541.541,0,0,1,3698.9,1639.159Z" transform="translate(-3640.634 -1634.739)"/><path class="c" d="M3705.624,1640.881a3.072,3.072,0,0,1,3.223-2.81c1.873,0,2.534,1.115,2.231,2.81a3.1,3.1,0,0,1-3.236,2.919C3705.968,1643.8,3705.307,1642.7,3705.624,1640.881Zm3.443.014c.069-.4.028-.95-.551-.95s-.813.551-.882.95-.124,1.046.523,1.046S3709,1641.308,3709.067,1640.895Z" transform="translate(-3647.478 -1634.739)"/><path class="c" d="M3719.334,1638.925a.8.8,0,0,1,.551-.592,4.694,4.694,0,0,1,1.694-.262,2.141,2.141,0,0,1,1.57.482,2.625,2.625,0,0,1,1.419-.468c1.6,0,1.666,1.088,1.4,2.534l-.454,2.575a.634.634,0,0,1-.62.537h-.937a.429.429,0,0,1-.454-.537l.454-2.52c.124-.7.041-.73-.193-.73a1.114,1.114,0,0,0-.22.014c-.027.22-.083.51-.124.8l-.44,2.437a.623.623,0,0,1-.62.537h-.771a.43.43,0,0,1-.454-.537l.427-2.423c.124-.7.151-.826-.207-.826a1.379,1.379,0,0,0-.206.041l-.565,3.208a.623.623,0,0,1-.62.537h-.937a.429.429,0,0,1-.454-.537Z" transform="translate(-3654.894 -1634.739)"/><path class="c" d="M3736.153,1638.925a.853.853,0,0,1,.55-.592,7.451,7.451,0,0,1,1.969-.262c1.873,0,2.6,1.143,2.286,2.961a3.025,3.025,0,0,1-3.292,2.768h-.358l-.372,2.08a.649.649,0,0,1-.634.551h-.936a.431.431,0,0,1-.441-.551Zm1.474,3.016h.261a1.02,1.02,0,0,0,1.06-.909c.124-.73-.042-1.088-.565-1.088a2.385,2.385,0,0,0-.4.028Z" transform="translate(-3664.207 -1634.739)"/><path class="c" d="M3753.75,1638.526a.544.544,0,0,1,.178.5.485.485,0,0,1-.082.193l-.373.634a.7.7,0,0,1-.551.344.416.416,0,0,1-.22-.069,1.669,1.669,0,0,0-.66-.179.8.8,0,0,0-.441.124l-.551,3.126a.622.622,0,0,1-.619.537h-.937a.429.429,0,0,1-.454-.537l.716-4.049a.743.743,0,0,1,.372-.51,3.706,3.706,0,0,1,2.19-.565A1.936,1.936,0,0,1,3753.75,1638.526Z" transform="translate(-3672.246 -1634.739)"/><path class="c" d="M3764.072,1638.953l-.758,4.241a.622.622,0,0,1-.619.537h-.647c-.248,0-.427-.055-.5-.262l-.041-.11a2.207,2.207,0,0,1-1.253.441c-1.556,0-1.832-1.308-1.584-2.713a3.423,3.423,0,0,1,3.415-3.016,4.919,4.919,0,0,1,1.722.331A.49.49,0,0,1,3764.072,1638.953Zm-2.189,1.005a1.268,1.268,0,0,0-1.185,1.129c-.124.729.152.853.441.853a1.015,1.015,0,0,0,.427-.165Z" transform="translate(-3677.693 -1634.739)"/><path class="c" d="M3773.253,1642.065c.151,0,.551,0,.578-.138.055-.33-2.7-.234-2.4-2.01.179-.978.963-1.845,2.754-1.845a11.647,11.647,0,0,1,1.322.165.49.49,0,0,1,.441.551l-.027.11a3.087,3.087,0,0,1-.179.62c-.124.331-.275.441-.51.441-.454-.028-.7-.069-.978-.069-.5,0-.8,0-.812.083-.069.33,2.685.289,2.4,1.928-.207,1.2-1.28,1.9-2.864,1.9a5.12,5.12,0,0,1-1.653-.317.522.522,0,0,1-.3-.578,3.123,3.123,0,0,1,.33-.716.62.62,0,0,1,.578-.331.787.787,0,0,1,.193.028A4.75,4.75,0,0,0,3773.253,1642.065Z" transform="translate(-3684.766 -1634.739)"/><path class="c" d="M3650.684,1674.624a5.783,5.783,0,0,1-.688-.042c.165.4.605.427.963.427a2.729,2.729,0,0,0,1.336-.29.368.368,0,0,1,.166-.041.364.364,0,0,1,.33.275l.165.565a.576.576,0,0,1,.014.207.872.872,0,0,1-.372.523,3.372,3.372,0,0,1-2.066.551c-1.859,0-2.534-1.1-2.217-2.919a3.008,3.008,0,0,1,3.154-2.81c1.487,0,2.217.785,2.024,1.859C3653.259,1674.266,3651.95,1674.624,3650.684,1674.624Zm-.234-1.5c.056.138.316.234.579.234.206,0,.4-.069.427-.289.041-.193-.221-.234-.414-.234A.813.813,0,0,0,3650.449,1673.123Z" transform="translate(-3614.834 -1653.536)"/><path class="c" d="M3661.063,1671.925a.8.8,0,0,1,.551-.592,6.3,6.3,0,0,1,1.969-.262c1.859,0,2.424.84,2.107,2.686l-.441,2.437a.627.627,0,0,1-.634.537h-.923a.429.429,0,0,1-.454-.537l.427-2.424c.124-.7.11-.826-.372-.826a2.3,2.3,0,0,0-.4.028l-.579,3.222a.637.637,0,0,1-.634.537h-.923a.429.429,0,0,1-.454-.537Z" transform="translate(-3621.702 -1653.536)"/><path class="c" d="M3682.414,1666.047c1.9,0,2.754.826,2.424,2.713s-1.474,2.686-3.374,2.686h-.743l-.331,1.859a.677.677,0,0,1-.661.565h-.881a.444.444,0,0,1-.468-.565l1.171-6.693a.691.691,0,0,1,.675-.565Zm.413,2.7c.1-.51-.138-.826-.578-.826h-.909l-.3,1.667h.909A.914.914,0,0,0,3682.827,1668.747Z" transform="translate(-3631.994 -1650.674)"/><path class="c" d="M3693.53,1666.6a.66.66,0,0,1,.634-.551h.922a.44.44,0,0,1,.454.551l-.978,5.481c-.028.165,0,.248.041.262a.437.437,0,0,1,.207.482l-.083.44a.656.656,0,0,1-.537.537,2.767,2.767,0,0,1-.771.138c-1.1,0-1.019-.978-.936-1.46Z" transform="translate(-3640.011 -1650.674)"/><path class="c" d="M3704.233,1671.952l-.758,4.242a.623.623,0,0,1-.619.537h-.647c-.248,0-.427-.055-.5-.262l-.041-.11a2.206,2.206,0,0,1-1.253.441c-1.556,0-1.832-1.308-1.584-2.713a3.424,3.424,0,0,1,3.416-3.016,4.917,4.917,0,0,1,1.722.331A.49.49,0,0,1,3704.233,1671.952Zm-2.19,1.005a1.267,1.267,0,0,0-1.184,1.129c-.124.73.151.853.441.853a1.017,1.017,0,0,0,.427-.165Z" transform="translate(-3643.608 -1653.536)"/><path class="c" d="M3712.1,1671.925a.8.8,0,0,1,.55-.592,6.3,6.3,0,0,1,1.969-.262c1.859,0,2.424.84,2.107,2.686l-.44,2.437a.627.627,0,0,1-.634.537h-.923a.429.429,0,0,1-.454-.537l.427-2.424c.124-.7.11-.826-.372-.826a2.307,2.307,0,0,0-.4.028l-.579,3.222a.637.637,0,0,1-.634.537h-.922a.43.43,0,0,1-.455-.537Z" transform="translate(-3650.774 -1653.536)"/><path class="c" d="M3733.266,1666.047c1.9,0,2.768.537,2.424,2.451a1.706,1.706,0,0,1-.785,1.322,1.562,1.562,0,0,1,.62,1.611c-.345,1.9-1.391,2.438-3.291,2.438h-2.342a.47.47,0,0,1-.468-.579l1.171-6.679a.7.7,0,0,1,.674-.565Zm.248,5.371c.083-.441-.3-.509-.757-.509h-.909l-.193,1.1h.909C3733.018,1672.01,3733.431,1671.914,3733.514,1671.418Zm-1.129-3.5-.193,1.1h.565c.441,0,.84-.055.937-.578.083-.468-.3-.523-.744-.523Z" transform="translate(-3661.073 -1650.674)"/><path class="c" d="M3745.144,1666.6a.661.661,0,0,1,.634-.551h.923a.44.44,0,0,1,.455.551l-.978,5.481c-.028.165,0,.248.041.262a.436.436,0,0,1,.206.482l-.082.44a.657.657,0,0,1-.537.537,2.766,2.766,0,0,1-.771.138c-1.1,0-1.019-.978-.937-1.46Z" transform="translate(-3669.411 -1650.674)"/><path class="c" d="M3755.848,1671.952l-.757,4.242a.623.623,0,0,1-.62.537h-.647c-.248,0-.427-.055-.5-.262l-.042-.11a2.206,2.206,0,0,1-1.253.441c-1.556,0-1.832-1.308-1.584-2.713a3.424,3.424,0,0,1,3.416-3.016,4.917,4.917,0,0,1,1.722.331A.489.489,0,0,1,3755.848,1671.952Zm-2.19,1.005a1.267,1.267,0,0,0-1.184,1.129c-.124.73.151.853.44.853a1.016,1.016,0,0,0,.427-.165Z" transform="translate(-3673.008 -1653.536)"/><path class="c" d="M3768.631,1672.159c-.014.083-.027.11-.44.744a.607.607,0,0,1-.551.317.808.808,0,0,1-.275-.1,1.934,1.934,0,0,0-.937-.179,1.09,1.09,0,0,0-1.088.978c-.124.716.275,1.019.73,1.019a1.984,1.984,0,0,0,1.032-.206.636.636,0,0,1,.289-.069.474.474,0,0,1,.427.317,6.986,6.986,0,0,1,.193.716.862.862,0,0,1-.4.551,3.557,3.557,0,0,1-1.97.551c-1.845,0-2.63-1.061-2.314-2.878a3.152,3.152,0,0,1,3.319-2.851,2.593,2.593,0,0,1,1.777.565A.544.544,0,0,1,3768.631,1672.159Z" transform="translate(-3680.351 -1653.536)"/><path class="c" d="M3777.874,1672.726a2.646,2.646,0,0,0-.317-.757l-.193.068-.233,1.295a.623.623,0,0,1-.62.537h-.937a.429.429,0,0,1-.454-.537l1.2-6.748a.637.637,0,0,1,.634-.537h.937a.421.421,0,0,1,.441.537l-.592,3.319a2.658,2.658,0,0,0,1.129-1.116.67.67,0,0,1,.633-.5h.923a.442.442,0,0,1,.441.565,4.524,4.524,0,0,1-1.488,2.12,3.693,3.693,0,0,1,.5.965l.482,1.308a.69.69,0,0,1-.634.62h-1a.74.74,0,0,1-.606-.455Z" transform="translate(-3687.101 -1650.674)"/></g></g><g transform="translate(714.723 270.569)"><g transform="translate(0 0.385)"><path class="c" d="M395.983,1190.821l1.018-4.754c.062-.284.186-.414.452-.414h.124c.266,0,.4.159.328.442l-.957,4.507h2.443c.259,0,.4.1.4.259a.786.786,0,0,1-.159.46c-.062.071-.159.1-.355.1h-2.814C396.072,1191.415,395.9,1191.211,395.983,1190.821Z" transform="translate(-395.964 -1185.653)"/></g><g transform="translate(4.386 1.781)"><path class="c" d="M407.7,1191.919a1.848,1.848,0,0,1-1.593.9,1.631,1.631,0,0,1-1.671-1.59,1.429,1.429,0,0,1,.006-.189,2.6,2.6,0,0,1,2.381-2.692,1.556,1.556,0,0,1,1.444.823c.124-.549.318-.752.691-.752a.421.421,0,0,1,.319.106l-.683,3.214c-.1.443-.018.6.345.637.018,0,0,.414-.523.414C407.87,1192.8,407.648,1192.459,407.7,1191.919Zm.248-1.249.141-.664a1.2,1.2,0,0,0-1.213-.947,1.764,1.764,0,0,0-1.567,1.9,1.035,1.035,0,0,0,.932,1.129h0c.034,0,.067,0,.1,0a1.72,1.72,0,0,0,1.6-1.423Z" transform="translate(-404.436 -1188.35)"/></g><g transform="translate(11.102 1.782)"><path class="c" d="M417.414,1190.86a2.426,2.426,0,0,1,2.345-2.5h.063a1.9,1.9,0,0,1,1.991,1.807h0c0,.052,0,.1,0,.155a2.426,2.426,0,0,1-2.344,2.5H419.4a1.9,1.9,0,0,1-1.991-1.809h0C417.412,1190.963,417.412,1190.912,417.414,1190.86Zm3.594-.5a1.234,1.234,0,0,0-1.163-1.3h-.056a1.683,1.683,0,0,0-1.567,1.771,1.233,1.233,0,0,0,1.163,1.3h.059a1.684,1.684,0,0,0,1.564-1.769Z" transform="translate(-417.412 -1188.353)"/></g><g transform="translate(16.167 0)"><path class="c" d="M427.347,1190.675l.673-3.16h-.478c-.222,0-.345-.08-.345-.231a.7.7,0,0,1,.141-.4.39.39,0,0,1,.311-.088h.523l.1-.414c.213-1.035.761-1.47,1.511-1.47a1.079,1.079,0,0,1,.815.265.482.482,0,0,1,.142.328c0,.259-.248.434-.274.407a.814.814,0,0,0-.637-.292c-.362,0-.61.23-.735.815l-.08.362h.725c.23,0,.354.08.354.222a.735.735,0,0,1-.142.407.4.4,0,0,1-.311.088h-.749l-.664,3.16c-.062.31-.186.414-.4.414h-.106C427.489,1191.091,427.282,1190.994,427.347,1190.675Z" transform="translate(-427.196 -1184.91)"/></g><g transform="translate(19.027 1.781)"><path class="c" d="M432.722,1191.051a2.64,2.64,0,0,1,2.578-2.7h.1c1.019,0,1.6.478,1.6,1.177,0,.859-.567,1.381-2.47,1.381-.311,0-.637-.017-1.018-.044v.16a1.055,1.055,0,0,0,.976,1.128,1.042,1.042,0,0,0,.194,0,1.588,1.588,0,0,0,1.366-.664c.018-.027.4.062.4.362a.559.559,0,0,1-.213.443,2.121,2.121,0,0,1-1.567.531A1.723,1.723,0,0,1,432.722,1191.051Zm.939-.8a6.67,6.67,0,0,0,.8.045c1.382,0,1.753-.354,1.753-.744,0-.283-.274-.549-.841-.549a1.888,1.888,0,0,0-1.708,1.25Z" transform="translate(-432.722 -1188.351)"/></g><g transform="translate(23.515 1.782)"><path class="c" d="M442.924,1189.175a1.3,1.3,0,0,1,1.17-.823c.372,0,.683.186.683.487a.555.555,0,0,1-.38.567.7.7,0,0,0-.567-.24c-.628,0-1.044.753-1.268,1.816l-.283,1.354c-.062.31-.186.414-.4.414h-.106c-.23,0-.434-.1-.372-.414l.824-3.869a.375.375,0,0,1,.221-.045C442.737,1188.422,443.022,1188.582,442.924,1189.175Z" transform="translate(-441.391 -1188.352)"/></g><g transform="translate(27.269 0.817)"><path class="c" d="M448.849,1190.347l.433-2.071h-.292c-.221,0-.345-.08-.345-.231a.64.64,0,0,1,.141-.4.392.392,0,0,1,.311-.088h.336l.071-.345c.106-.523.3-.725.673-.725.186,0,.336.08.327.106l-.2.965h.912c.23,0,.355.08.355.221a.738.738,0,0,1-.142.407.391.391,0,0,1-.311.089h-.975l-.442,2.054c-.132.646.072.9.488.9a.8.8,0,0,0,.558-.248c.026-.017.168.115.168.318a.5.5,0,0,1-.168.372,1.116,1.116,0,0,1-.788.256C449.079,1191.932,448.627,1191.383,448.849,1190.347Z" transform="translate(-448.645 -1186.489)"/></g><g transform="translate(30.255 1.78)"><path class="c" d="M457.678,1191.918a1.849,1.849,0,0,1-1.594.9,1.632,1.632,0,0,1-1.665-1.78,2.6,2.6,0,0,1,2.381-2.692,1.554,1.554,0,0,1,1.443.823c.124-.549.319-.753.691-.753a.425.425,0,0,1,.318.106l-.683,3.214c-.1.443-.018.6.345.637.018,0,0,.414-.522.414C457.845,1192.795,457.625,1192.458,457.678,1191.918Zm.248-1.249.142-.664a1.2,1.2,0,0,0-1.213-.948,1.764,1.764,0,0,0-1.567,1.9,1.038,1.038,0,0,0,.937,1.129c.033,0,.066,0,.1,0a1.72,1.72,0,0,0,1.6-1.424Z" transform="translate(-454.412 -1188.348)"/></g><g transform="translate(37.185 0.817)"><path class="c" d="M468,1190.347l.434-2.071h-.292c-.222,0-.345-.08-.345-.231a.644.644,0,0,1,.141-.4.392.392,0,0,1,.311-.088h.336l.071-.345c.106-.523.3-.725.673-.725.186,0,.336.08.328.106l-.2.965h.912c.231,0,.355.08.355.221a.742.742,0,0,1-.142.407.392.392,0,0,1-.311.089H469.3l-.443,2.054c-.133.646.071.9.488.9a.805.805,0,0,0,.558-.248c.026-.017.168.115.168.318a.5.5,0,0,1-.168.372,1.117,1.117,0,0,1-.788.256C468.234,1191.932,467.783,1191.383,468,1190.347Z" transform="translate(-467.8 -1186.489)"/></g><g transform="translate(40.142 1.781)"><path class="c" d="M473.514,1191.051a2.64,2.64,0,0,1,2.578-2.7h.1c1.018,0,1.6.478,1.6,1.177,0,.859-.567,1.381-2.47,1.381-.311,0-.637-.017-1.018-.044v.16a1.055,1.055,0,0,0,.976,1.128,1.042,1.042,0,0,0,.194,0,1.588,1.588,0,0,0,1.366-.664c.018-.027.4.062.4.362a.556.556,0,0,1-.213.443,2.122,2.122,0,0,1-1.567.531A1.723,1.723,0,0,1,473.514,1191.051Zm.939-.8a6.67,6.67,0,0,0,.8.045c1.381,0,1.753-.354,1.753-.744,0-.283-.274-.549-.841-.549a1.888,1.888,0,0,0-1.708,1.25Z" transform="translate(-473.514 -1188.351)"/></g><g transform="translate(44.629 1.782)"><path class="c" d="M483.715,1189.175a1.3,1.3,0,0,1,1.17-.823c.372,0,.683.186.683.487a.557.557,0,0,1-.381.567.7.7,0,0,0-.566-.24c-.628,0-1.044.753-1.268,1.816l-.284,1.354c-.062.31-.186.414-.4.414h-.106c-.23,0-.434-.1-.372-.414l.824-3.869a.375.375,0,0,1,.221-.045C483.528,1188.422,483.813,1188.582,483.715,1189.175Z" transform="translate(-482.182 -1188.352)"/></g><g transform="translate(47.921 1.78)"><path class="c" d="M494.4,1192.1a4.727,4.727,0,0,1,.221-1.1,4.994,4.994,0,0,0,.2-1.027.777.777,0,0,0-.677-.863.8.8,0,0,0-.1-.005,1.359,1.359,0,0,0-1.2.761l-.513,2.461c-.071.319-.222.414-.452.414h-.088c-.23,0-.407-.088-.336-.414l.425-2.036c.15-.7-.159-1.186-.725-1.186a1.34,1.34,0,0,0-1.195.77l-.523,2.452c-.062.328-.222.414-.443.414h-.1c-.231,0-.4-.1-.336-.414l.823-3.869a.372.372,0,0,1,.221-.044c.284,0,.549.141.487.664a1.685,1.685,0,0,1,1.382-.735,1.268,1.268,0,0,1,1.283.921,1.852,1.852,0,0,1,1.6-.921,1.337,1.337,0,0,1,1.383,1.289h0v.119a6.021,6.021,0,0,1-.248,1.284,4.746,4.746,0,0,0-.213.956c0,.239.124.328.362.355.018,0-.018.442-.549.442a.629.629,0,0,1-.69-.562A.6.6,0,0,1,494.4,1192.1Z" transform="translate(-488.541 -1188.349)"/></g><g transform="translate(55.778 0.002)"><path class="c" d="M503.762,1190.074l.621-2.9c.062-.311.178-.414.4-.414h.1c.239,0,.443.089.372.414l-.611,2.9c-.1.442-.018.61.381.636.018,0,0,.414-.549.414C503.825,1191.137,503.622,1190.73,503.762,1190.074Zm.9-4.594a.536.536,0,0,1,.5-.566h.045c.336,0,.522.151.522.4a.536.536,0,0,1-.494.575h0a.365.365,0,0,1-.052,0c-.336,0-.522-.16-.522-.407Z" transform="translate(-503.72 -1184.914)"/></g><g transform="translate(57.692 1.777)"><path class="c" d="M508.964,1189.143a1.688,1.688,0,0,1,1.425-.8,1.339,1.339,0,0,1,1.441,1.227h0a1.333,1.333,0,0,1,0,.18,5.6,5.6,0,0,1-.259,1.284,4.8,4.8,0,0,0-.213.956c0,.239.124.328.362.354.026,0-.017.442-.54.442a.634.634,0,0,1-.7-.561h0a.673.673,0,0,1,0-.13,5.225,5.225,0,0,1,.221-1.1,4.561,4.561,0,0,0,.212-1.027.784.784,0,0,0-.692-.866.794.794,0,0,0-.158,0,1.4,1.4,0,0,0-1.257.85l-.5,2.373c-.062.31-.186.414-.4.414H507.8c-.23,0-.434-.1-.372-.414l.823-3.869a.374.374,0,0,1,.222-.044C508.77,1188.417,509.053,1188.568,508.964,1189.143Z" transform="translate(-507.417 -1188.343)"/></g><g transform="translate(62.729 1.78)"><path class="c" d="M520.414,1191.918a1.848,1.848,0,0,1-1.594.9,1.632,1.632,0,0,1-1.671-1.591,1.609,1.609,0,0,1,.006-.189,2.6,2.6,0,0,1,2.381-2.692,1.554,1.554,0,0,1,1.444.823c.124-.549.319-.753.691-.753a.422.422,0,0,1,.319.106l-.683,3.214c-.1.443-.018.6.345.637.018,0,0,.414-.522.414C520.582,1192.795,520.361,1192.458,520.414,1191.918Zm.248-1.249.141-.664a1.2,1.2,0,0,0-1.213-.947,1.764,1.764,0,0,0-1.567,1.9,1.038,1.038,0,0,0,.937,1.129.929.929,0,0,0,.1,0,1.719,1.719,0,0,0,1.6-1.423Z" transform="translate(-517.149 -1188.348)"/></g><g transform="translate(69.41 1.781)"><path class="c" d="M530.056,1191.051a2.64,2.64,0,0,1,2.578-2.7h.1c1.018,0,1.6.478,1.6,1.177,0,.859-.567,1.381-2.471,1.381-.311,0-.637-.017-1.018-.044v.16a1.054,1.054,0,0,0,1.171,1.124,1.587,1.587,0,0,0,1.365-.664c.018-.027.4.062.4.362a.56.56,0,0,1-.213.443,2.123,2.123,0,0,1-1.568.531A1.723,1.723,0,0,1,530.056,1191.051Zm.939-.8a6.674,6.674,0,0,0,.8.045c1.381,0,1.753-.354,1.753-.744,0-.283-.274-.549-.841-.549a1.889,1.889,0,0,0-1.708,1.25Z" transform="translate(-530.056 -1188.351)"/></g><g transform="translate(73.893 1.777)"><path class="c" d="M540.263,1189.143a1.687,1.687,0,0,1,1.425-.8,1.339,1.339,0,0,1,1.441,1.229,1.316,1.316,0,0,1,0,.18,5.6,5.6,0,0,1-.259,1.284,4.826,4.826,0,0,0-.213.955c0,.239.124.328.362.355.026,0-.018.442-.541.442a.634.634,0,0,1-.7-.564.622.622,0,0,1,0-.127A5.22,5.22,0,0,1,542,1191a4.578,4.578,0,0,0,.213-1.027.783.783,0,0,0-.689-.865h0a.809.809,0,0,0-.159,0,1.4,1.4,0,0,0-1.257.852l-.5,2.372c-.062.311-.186.414-.4.414H539.1c-.23,0-.434-.1-.372-.414l.823-3.869a.384.384,0,0,1,.222-.045C540.068,1188.417,540.351,1188.568,540.263,1189.143Z" transform="translate(-538.715 -1188.343)"/></g><g transform="translate(78.855 2.263)"><path class="c" d="M548.3,1192.854a.762.762,0,0,1,.186-.558.524.524,0,0,1,.426-.142c.328,0,.5.132.5.371a.76.76,0,0,1-.177.559.546.546,0,0,1-.433.141C548.482,1193.227,548.3,1193.094,548.3,1192.854Zm.611-2.877a.827.827,0,0,1,.177-.558.543.543,0,0,1,.434-.133c.327,0,.5.124.5.372a.829.829,0,0,1-.177.558.545.545,0,0,1-.434.133c-.327,0-.5-.122-.5-.372Z" transform="translate(-548.303 -1189.281)"/></g></g></g></svg>