<svg xmlns="http://www.w3.org/2000/svg" width="253.1" height="147.298" viewBox="0 0 253.1 147.298"><defs><style>.a{fill:#ea0c90;}.b{fill:#fff;}.c{fill:#ffd527;}</style></defs><g transform="matrix(0.998, 0.07, -0.07, 0.998, -4836.334, -3484.13)"><g transform="translate(5183.29 3155.988)"><g transform="translate(0 16.506)"><path class="a" d="M5962.25,3515.2a6.449,6.449,0,0,0-5.648-1.6,7.011,7.011,0,0,0-2.514.954,6.792,6.792,0,0,0-1.859,1.693,6.569,6.569,0,0,0-1.231,4.8,6.248,6.248,0,0,0,.81,2.416,5.753,5.753,0,0,0,1.6,1.75,6.034,6.034,0,0,0,2.179.976,6.439,6.439,0,0,0,2.561.055,7.79,7.79,0,0,0,5.025-3.317l.831,6.977-.6.313a19.932,19.932,0,0,1-2.546,1.134,13.722,13.722,0,0,1-2.375.619,12.535,12.535,0,0,1-4.749-.107,11.655,11.655,0,0,1-7.416-5.118,11.08,11.08,0,0,1-1.675-4.618,11.687,11.687,0,0,1,.345-4.989,12.972,12.972,0,0,1,2.2-4.3,13.629,13.629,0,0,1,3.642-3.25,13.678,13.678,0,0,1,7.527-2.021,17.081,17.081,0,0,1,3.041.382Z" transform="translate(-5944.514 -3507.558)"/></g><g transform="translate(19.185 11.933)"><path class="a" d="M6105.515,3473.482l1.4,12.76q.111,1.013.308,2.055a5.183,5.183,0,0,0,.691,1.826,2.98,2.98,0,0,0,1.418,1.171,4.608,4.608,0,0,0,2.5.119,4.917,4.917,0,0,0,2.38-.947,3.761,3.761,0,0,0,1.137-1.612,5.5,5.5,0,0,0,.308-2.01q-.027-1.078-.129-2.1l-1.3-12.866,6.466-1.189,1.3,13.786q.516,5.457-1.873,8.37-2.37,2.9-7.74,3.783-5.337.88-8.174-1.128c-1.9-1.339-3.055-3.781-3.471-7.345l-1.574-13.505Z" transform="translate(-6099.168 -3470.689)"/></g><g transform="translate(44.227 7.895)"><path class="a" d="M6301.091,3453.669a12.417,12.417,0,0,1,.578-5.107,14.088,14.088,0,0,1,2.514-4.543,15.379,15.379,0,0,1,4.2-3.526,17.429,17.429,0,0,1,5.656-2.045,15.962,15.962,0,0,1,5.844-.068,12.207,12.207,0,0,1,4.771,1.922,10.747,10.747,0,0,1,3.268,3.576,11.153,11.153,0,0,1,1.4,4.865,12.562,12.562,0,0,1-.749,5.188,14.162,14.162,0,0,1-2.693,4.5,15.692,15.692,0,0,1-4.3,3.393A17.446,17.446,0,0,1,6316,3463.7a15.8,15.8,0,0,1-5.682-.015,12.021,12.021,0,0,1-4.573-1.881,10.845,10.845,0,0,1-3.188-3.435A11.1,11.1,0,0,1,6301.091,3453.669Zm6.817-1.19a5.662,5.662,0,0,0,.789,2.51,5.83,5.83,0,0,0,1.709,1.8,6.352,6.352,0,0,0,2.367.976,7.559,7.559,0,0,0,2.771.021,8.461,8.461,0,0,0,4.906-2.713,7.547,7.547,0,0,0,1.43-2.361,6.4,6.4,0,0,0,.393-2.743,5.682,5.682,0,0,0-.769-2.555,5.744,5.744,0,0,0-1.744-1.839,6.573,6.573,0,0,0-2.428-.985,7.591,7.591,0,0,0-2.815,0,8.365,8.365,0,0,0-2.726.994,8.173,8.173,0,0,0-2.166,1.8,7.639,7.639,0,0,0-1.371,2.372A6.367,6.367,0,0,0,6307.908,3452.479Z" transform="translate(-6301.036 -3438.141)"/></g><g transform="translate(71.557 2.882)"><path class="a" d="M6534.221,3404.29l.967,19.019-6.781,1.122-1.092-18.9-5.62,1.01-.345-5.439,18.351-3.376.25,5.532Z" transform="translate(-6521.349 -3397.728)"/></g><g transform="translate(88.569 0)"><path class="a" d="M6677.285,3395.047l-10.031,1.691-1.43,4.485-7.343,1.214,9.18-26.5,7.823-1.439,11.113,23.288-7.572,1.252Zm-2.021-4.566-3.452-7.762-2.883,8.853Z" transform="translate(-6658.481 -3374.499)"/></g><g transform="translate(1.577 44.831)"><path class="a" d="M5969.341,3746.35l12.025-1.846a29.462,29.462,0,0,1,.205,3.18,10.732,10.732,0,0,1-1.735,5.957,10.5,10.5,0,0,1-2.342,2.533,13.1,13.1,0,0,1-3.092,1.78,15.238,15.238,0,0,1-3.646.98,13.9,13.9,0,0,1-4.943-.115,10.93,10.93,0,0,1-4.039-1.733,10.257,10.257,0,0,1-2.909-3.171,11.754,11.754,0,0,1-1.509-4.45,12.214,12.214,0,0,1,.216-4.729,10.526,10.526,0,0,1,1.955-4,11.869,11.869,0,0,1,3.543-2.969,14.946,14.946,0,0,1,4.968-1.668,13.178,13.178,0,0,1,6.613.463,10.1,10.1,0,0,1,4.95,3.938l-5.517,3.145a5.344,5.344,0,0,0-2.4-2.257,5.416,5.416,0,0,0-3.012-.326,6.311,6.311,0,0,0-2.4.865,5.549,5.549,0,0,0-1.7,1.653,6.636,6.636,0,0,0-.938,2.3,8.215,8.215,0,0,0-.074,2.809,8.1,8.1,0,0,0,.715,2.471,5.487,5.487,0,0,0,1.4,1.839,5.023,5.023,0,0,0,2.047,1.035,6.786,6.786,0,0,0,2.669.081,7.92,7.92,0,0,0,1.681-.435,4.883,4.883,0,0,0,1.407-.814,3.7,3.7,0,0,0,.956-1.228,4.221,4.221,0,0,0,.388-1.685l-4.929.739Z" transform="translate(-5957.223 -3735.89)"/></g><g transform="translate(26.94 41.591)"><path class="a" d="M6183.842,3730.569l-7.742,1.114-6.751-7.507.88,8.351-6.1.877-2.45-21.9,9.715-1.567a10.185,10.185,0,0,1,3.595-.015,6.494,6.494,0,0,1,2.649,1.116,5.841,5.841,0,0,1,1.7,1.983,6.94,6.94,0,0,1,.752,2.609,6.53,6.53,0,0,1-.947,4.34,7.371,7.371,0,0,1-3.708,2.723Zm-14.883-10.1,1.171-.179a5.078,5.078,0,0,0,2.754-1.139,2.5,2.5,0,0,0,.784-2.189,2.231,2.231,0,0,0-1.2-1.889,4.72,4.72,0,0,0-2.912-.265l-1.177.186Z" transform="translate(-6161.683 -3709.773)"/></g><g transform="translate(47.824 37.623)"><path class="a" d="M6346.983,3696.4l-9.13,1.34-1.131,4.035-6.693.963,7.357-23.8,7.107-1.146,11.137,21.265-6.888.991Zm-2.039-4.17-3.48-7.085-2.284,7.951Z" transform="translate(-6330.03 -3677.788)"/></g><g transform="translate(69.641 33.578)"><path class="a" d="M6518.352,3651.236l.979,17.862-6.557.943-1.1-17.755-5.432.855-.344-5.107,17.727-2.859.255,5.191Z" transform="translate(-6505.902 -3645.174)"/></g><g transform="translate(88.652 32.266)"><path class="a" d="M6666,3634.6l.949,23.311-6.689.962-1.106-23.168Z" transform="translate(-6659.153 -3634.601)"/></g><g transform="translate(98.916 29.275)"><path class="a" d="M6757.186,3616.661a7.754,7.754,0,0,0-2.321-.865,6.5,6.5,0,0,0-2.226-.047,4.395,4.395,0,0,0-2.192.919,2,2,0,0,0-.809,1.62,1.213,1.213,0,0,0,.456.974,3.176,3.176,0,0,0,1.137.535,9.382,9.382,0,0,0,1.576.278q.876.086,1.736.206a9.58,9.58,0,0,1,5.073,1.924,5.373,5.373,0,0,1,1.671,4.135,8.1,8.1,0,0,1-.635,3.371,8.23,8.23,0,0,1-1.972,2.783,11.345,11.345,0,0,1-3.206,2.064,17.3,17.3,0,0,1-13.585-.073l2.734-5.257a10.581,10.581,0,0,0,3.093,1.333,7.842,7.842,0,0,0,2.99.146,4.36,4.36,0,0,0,2.492-1.049,2.27,2.27,0,0,0,.789-1.67,1.546,1.546,0,0,0-.96-1.493,5.261,5.261,0,0,0-1.3-.413q-.8-.161-1.937-.333-1.348-.171-2.643-.428a7.464,7.464,0,0,1-2.317-.85,4.8,4.8,0,0,1-1.676-1.635,5.606,5.606,0,0,1-.719-2.794,8.126,8.126,0,0,1,.533-3.292,8.49,8.49,0,0,1,1.747-2.76,10.029,10.029,0,0,1,2.857-2.076,13.345,13.345,0,0,1,3.856-1.2,18.7,18.7,0,0,1,4.215-.181,18.112,18.112,0,0,1,4.254.785Z" transform="translate(-6741.89 -3610.49)"/></g><g transform="translate(24.873 14.725)"><path class="a" d="M6145.677,3493.2l3.666.3-4.324,3.654Z" transform="translate(-6145.019 -3493.203)"/></g><g transform="translate(40.415 11.933)"><path class="a" d="M6270.6,3470.689l3.665.3s-2.813,4.566-3.6,3.805S6270.6,3470.689,6270.6,3470.689Z" transform="translate(-6270.307 -3470.689)"/></g><g transform="translate(88.175 2.882)"><path class="a" d="M6657.038,3397.728l3.665.3-3.013,2.7-2.385-1.187Z" transform="translate(-6655.304 -3397.728)"/></g><g transform="translate(71.902 9.07)"><path class="a" d="M6524.132,3450.238l3.665.3,1.485-2.171-3.7-.759Z" transform="translate(-6524.132 -3447.611)"/></g><g transform="translate(88.569 26.318)"><path class="a" d="M6658.481,3588.27l3.666.3,1.743-1.2-.246-.726Z" transform="translate(-6658.481 -3586.649)"/></g><g transform="translate(109.112 22.212)"><path class="a" d="M6824.087,3555.883l3.665.3.813-.722-.024-1.413-1.421-.5Z" transform="translate(-6824.087 -3553.555)"/></g><g transform="translate(103.067)"><path class="a" d="M6777.861,3374.5l3.665.3-1.776,3.156-4.393-.436Z" transform="translate(-6775.357 -3374.499)"/></g><g transform="translate(94.809 32.266)"><path class="a" d="M6709.476,3634.6l3.665.3-4.354,4.11Z" transform="translate(-6708.787 -3634.602)"/></g><g transform="translate(86.054 33.578)"><path class="a" d="M6639.527,3645.174l3.019,1.336.559.911-4.25.993-.642-.826Z" transform="translate(-6638.214 -3645.174)"/></g><g transform="translate(78.614 26.504)"><path class="a" d="M6578.238,3591.235l3.666.3,2.349-1.518-1.914-1.866Z" transform="translate(-6578.238 -3588.155)"/></g><g transform="translate(101.65 48.013)"><path class="a" d="M6763.934,3761.543l3.665.3-.563,1.95-2.957-.787Z" transform="translate(-6763.934 -3761.543)"/></g><g transform="translate(66.536 57.696)"><path class="a" d="M6480.874,3841.781l3.666.3.872-.956-1.49-1.53Z" transform="translate(-6480.874 -3839.598)"/></g><g transform="translate(76.513 56.074)"><path class="a" d="M6561.295,3828.895l3.864.317.962-1.714-1.338-.973Z" transform="translate(-6561.295 -3826.525)"/></g><g transform="translate(89.759 54.557)"><path class="a" d="M6668.073,3816.275l3.666.3.915-1.225-.661-1.06Z" transform="translate(-6668.073 -3814.293)"/></g><g transform="translate(69.985 39.663)"><path class="a" d="M6508.675,3696.114l3.665.3,1.064-1.436-.4-.748Z" transform="translate(-6508.675 -3694.233)"/></g><g transform="translate(29.39 63.033)"><path class="a" d="M6181.43,3884.8l3.665.3,1.621-1.523-.762-.97Z" transform="translate(-6181.43 -3882.615)"/></g><g transform="translate(41.357 61.582)"><path class="a" d="M6277.9,3872.84l3.665.3,1.447-2.052-2.574-.17Z" transform="translate(-6277.903 -3870.921)"/></g><g transform="translate(59.334 37.623)"><path class="a" d="M6425.768,3677.788l3.665.3-1.326,3.222-5.293-1.231Z" transform="translate(-6422.814 -3677.788)"/></g><g transform="translate(18.439 48.797)"><path class="a" d="M6093.154,3771.652l3.665.3.881-2.252-2.948-1.844Z" transform="translate(-6093.154 -3767.86)"/></g><g transform="translate(14.248 57.589)"><path class="a" d="M6059.365,3840.784l3.666.3,1.015-1.961-2.979-.39Z" transform="translate(-6059.365 -3838.736)"/></g></g><g transform="translate(5263.251 3137.899)"><path class="b" d="M6599.331,3330.153l-.083-1.184,34.278-5.722a15.261,15.261,0,0,0,8.513-4.325,11.533,11.533,0,0,0,3.4-7.894l.573-69.791a10.548,10.548,0,0,0-3.83-8.16,14.542,14.542,0,0,0-11.857-3.071l-41.052,6.608-.177-1.1,41.051-6.607a15.652,15.652,0,0,1,12.763,3.327,11.644,11.644,0,0,1,4.219,9.015l-.574,69.792a12.637,12.637,0,0,1-3.719,8.662,16.374,16.374,0,0,1-9.13,4.649Z" transform="translate(-6589.101 -3228.679)"/></g><g transform="translate(5089.493 3165.91)"><path class="b" d="M5202.691,3554.8a15.244,15.244,0,0,1-9.932-3.509,11.662,11.662,0,0,1-4.268-8.948l-.1-69.711a12.605,12.605,0,0,1,3.68-8.73,16.358,16.358,0,0,1,9.172-4.69l29.331-4.721.177,1.1-29.331,4.722a15.242,15.242,0,0,0-8.545,4.362,11.5,11.5,0,0,0-3.368,7.955l.095,69.711a10.564,10.564,0,0,0,3.875,8.1,14.562,14.562,0,0,0,11.815,3.032l31.964-4.714.07,1-31.857,4.813A17.476,17.476,0,0,1,5202.691,3554.8Z" transform="translate(-5188.397 -3454.486)"/></g><g transform="translate(5256.858 3125.042)"><path class="c" d="M6537.739,3131.745l-.177-1.1,33.438-5.382a15.482,15.482,0,0,1,13.985,4.524l-.832.744a14.363,14.363,0,0,0-12.976-4.166Z" transform="translate(-6537.562 -3125.042)"/></g><g transform="translate(5075.486 3150.683)"><path class="c" d="M5081.647,3432.2a11.915,11.915,0,0,1-6.066-10.243l-.094-69.711a12.611,12.611,0,0,1,3.68-8.73,16.364,16.364,0,0,1,9.172-4.69l44.023-7.086.177,1.1-44.023,7.086a15.238,15.238,0,0,0-8.545,4.363,11.5,11.5,0,0,0-3.368,7.954l.095,69.711a10.82,10.82,0,0,0,5.528,9.29Z" transform="translate(-5075.486 -3331.735)"/></g><g transform="translate(5106.235 3180.808)"><path class="a" d="M5367.412,3615.556l.46,13.463-44.007,7.385-.125-3.365c22.586-30.646,25.729-35.581,25.559-40.424-.108-3.061-2.309-4.7-5.35-4.113a6.066,6.066,0,0,0-5.141,6.535l.039,1.083-15.427,2.927-.038-1.028c-.416-11.244,7.015-20.237,19.9-22.831,12.669-2.551,21.781,3.11,22.147,13.814.246,7.166-2.388,13.18-14.74,29.49Z" transform="translate(-5323.365 -3574.581)"/><g transform="translate(0.055 22.805)"><path class="a" d="M5323.8,3760.076l4.217,1.538.777-2.164-.018-1.035Z" transform="translate(-5323.805 -3758.415)"/></g><g transform="translate(41.527 40.975)"><path class="a" d="M5660.639,3904.888l4.218,1.539-3.438,3.167-3.3-.785Z" transform="translate(-5658.119 -3904.888)"/></g><g transform="translate(0.499 58.923)"><path class="a" d="M5327.392,4052.472l4.218,1.539,1.16-2.777s.485-.74-.016-.908-2.238-.752-2.238-.752l-1.1.634Z" transform="translate(-5327.392 -4049.573)"/></g><g transform="translate(4.218 1.538)"><path class="c" d="M5401.413,3627.957l.459,13.462-44.006,7.385-.125-3.364c22.586-30.647,25.729-35.582,25.558-40.424-.108-3.061-2.308-4.7-5.349-4.113a6.067,6.067,0,0,0-5.142,6.535l.04,1.083-15.427,2.927-.038-1.027c-.416-11.244,7.015-20.237,19.9-22.831,12.669-2.551,21.781,3.11,22.147,13.814.245,7.166-2.387,13.181-14.74,29.49Z" transform="translate(-5357.366 -3586.981)"/></g></g><g transform="translate(5143.925 3228.015)"><g transform="translate(0 5.653)"><g transform="translate(0 0)"><path class="a" d="M116.95,22.246,4.3,38.552a2.794,2.794,0,0,1-3.246-2.5L0,18.948a2.725,2.725,0,0,1,2.4-2.815L115.087.03a2.794,2.794,0,0,1,3.242,2.5l1.018,16.9A2.725,2.725,0,0,1,116.95,22.246Z"/></g><g transform="translate(0.575 12.524)"><path class="a" d="M3.867,0,0,4.642,2.429,7.51s5.913-.285,6.1-.742A29.425,29.425,0,0,1,10.689,4Z"/></g><g transform="translate(115.208 13.747)"><path class="a" d="M7.764,2.3,3.537,7.5,0,4.153,3.8,0Z" transform="translate(0 0)"/></g></g><g transform="translate(3.778 0)"><path class="b" d="M117.718,22.263,4.158,39.532A2.755,2.755,0,0,1,.911,37.055L0,19.937A2.791,2.791,0,0,1,2.446,17.1L116.037.034a2.755,2.755,0,0,1,3.242,2.481l.876,16.913A2.79,2.79,0,0,1,117.718,22.263Z" transform="translate(0)"/></g><g transform="translate(11.349 8.469)"><path class="a" d="M0,7.119.4,2.488,1.632,2.3,1.476,6.9ZM1.013.013A.955.955,0,0,1,1.37.02a.8.8,0,0,1,.288.124.723.723,0,0,1,.2.217.771.771,0,0,1,.1.286A.9.9,0,0,1,1.954.98a.75.75,0,0,1-.127.281.8.8,0,0,1-.237.21.929.929,0,0,1-.339.115.966.966,0,0,1-.357-.008.791.791,0,0,1-.288-.124.714.714,0,0,1-.2-.22A.785.785,0,0,1,.3.946.906.906,0,0,1,.309.617.727.727,0,0,1,.437.336.8.8,0,0,1,.674.128.92.92,0,0,1,1.013.013Z" transform="translate(0 17.295)"/><path class="a" d="M2.838.036a2.768,2.768,0,0,1,.916,0A2.019,2.019,0,0,1,4.5.33a1.789,1.789,0,0,1,.535.547,1.991,1.991,0,0,1,.278.776,2.771,2.771,0,0,1-.046,1.135A2.407,2.407,0,0,1,4.8,3.71a2.627,2.627,0,0,1-.829.663,3.591,3.591,0,0,1-1.137.358l-1.3.2L1.4,7.061,0,7.272.407.4ZM1.589,3.763,2.645,3.6a1.786,1.786,0,0,0,.591-.191,1.357,1.357,0,0,0,.426-.35A1.24,1.24,0,0,0,3.9,2.584,1.473,1.473,0,0,0,3.917,2a.86.86,0,0,0-.4-.655,1.256,1.256,0,0,0-.843-.116l-.932.14Z" transform="translate(2.869 15.191)"/><path class="a" d="M3.367,7.155a3.168,3.168,0,0,1-1.218-.035,2.707,2.707,0,0,1-1-.456,2.668,2.668,0,0,1-.717-.809A3.071,3.071,0,0,1,.062,4.762,5.18,5.18,0,0,1,.014,3.583,4.661,4.661,0,0,1,.22,2.519,3.779,3.779,0,0,1,.655,1.6a3.638,3.638,0,0,1,.638-.74A3.383,3.383,0,0,1,2.109.33,3.545,3.545,0,0,1,3.078.043,3.2,3.2,0,0,1,4.3.077,2.654,2.654,0,0,1,5.3.534,2.63,2.63,0,0,1,6,1.344a3.12,3.12,0,0,1,.37,1.093,5.283,5.283,0,0,1,.051,1.181,4.478,4.478,0,0,1-.2,1.067,3.9,3.9,0,0,1-.435.917,3.532,3.532,0,0,1-.636.738,3.435,3.435,0,0,1-.814.529A3.528,3.528,0,0,1,3.367,7.155Zm1.592-4.4a2.105,2.105,0,0,0-.213-.673A1.587,1.587,0,0,0,4.362,1.6a1.345,1.345,0,0,0-.522-.27A1.527,1.527,0,0,0,3.211,1.3a1.75,1.75,0,0,0-.814.344,2.206,2.206,0,0,0-.595.7,3.033,3.033,0,0,0-.324.965,3.6,3.6,0,0,0,0,1.134,2.114,2.114,0,0,0,.212.676,1.6,1.6,0,0,0,.385.485,1.35,1.35,0,0,0,.525.27,1.555,1.555,0,0,0,.636.027,1.748,1.748,0,0,0,.812-.342,2.193,2.193,0,0,0,.593-.7A2.952,2.952,0,0,0,4.962,3.9,3.659,3.659,0,0,0,4.959,2.759Z" transform="translate(8.612 14.107)"/><path class="a" d="M.413.429l2.634-.4a2.489,2.489,0,0,1,.865.012,1.974,1.974,0,0,1,.719.29,1.764,1.764,0,0,1,.519.532,1.889,1.889,0,0,1,.268.738,2.233,2.233,0,0,1-.008.728,2.329,2.329,0,0,1-.232.679,2.361,2.361,0,0,1-.443.588,2.519,2.519,0,0,1-.632.449L5.4,6.484,3.9,6.71,2.745,4.417l-1.19.18L1.4,7.087,0,7.3Zm1.2,3.065L2.828,3.31a1.743,1.743,0,0,0,.543-.169,1.288,1.288,0,0,0,.4-.305,1.065,1.065,0,0,0,.222-.408,1.13,1.13,0,0,0,.025-.485.838.838,0,0,0-.357-.616A1.062,1.062,0,0,0,2.9,1.206l-1.144.173Z" transform="translate(15.687 13.23)"/><path class="a" d="M1.646,7.381l.347-5.642L0,2.04.065.813,5.452,0,5.387,1.227l-1.992.3L3.048,7.17Z" transform="translate(23.678 11.694)"/><path class="a" d="M0,7.081.412.212,1.815,0,1.4,6.87Z" transform="translate(29.468 11.369)"/><path class="a" d="M4.414,6.868,0,7.535.412.665,4.821,0,4.756,1.227l-3.007.454L1.638,3.287l2.841-.428L4.414,4l-2.836.428L1.463,6.1l3.012-.454Z" transform="translate(32.008 10.532)"/><path class="a" d="M0,7.933.412,1.064l1.6-.242L3.554,5.166l.083-.013,2.13-4.9L7.464,0,7.052,6.869l-1.3.2.283-4.6-.074.011L4.006,6.937l-.927.14L1.658,3.131l-.074.011L1.3,7.737Z" transform="translate(37.407 9.319)"/><path class="a" d="M2.838.036a2.767,2.767,0,0,1,.916,0A2.008,2.008,0,0,1,4.5.33a1.777,1.777,0,0,1,.535.547,1.987,1.987,0,0,1,.278.777,2.769,2.769,0,0,1-.047,1.134A2.406,2.406,0,0,1,4.8,3.71a2.625,2.625,0,0,1-.829.663,3.587,3.587,0,0,1-1.137.358l-1.3.2L1.4,7.061,0,7.272.407.4ZM1.589,3.763,2.645,3.6a1.791,1.791,0,0,0,.592-.191,1.364,1.364,0,0,0,.426-.35A1.237,1.237,0,0,0,3.9,2.585,1.474,1.474,0,0,0,3.917,2a.86.86,0,0,0-.4-.655,1.258,1.258,0,0,0-.843-.116l-.932.14Z" transform="translate(45.606 8.744)"/><path class="a" d="M3.367,7.155A3.169,3.169,0,0,1,2.15,7.119a2.705,2.705,0,0,1-1-.456,2.653,2.653,0,0,1-.716-.809A3.044,3.044,0,0,1,.063,4.762,5.216,5.216,0,0,1,.014,3.583,4.648,4.648,0,0,1,.219,2.519,3.8,3.8,0,0,1,.654,1.6a3.673,3.673,0,0,1,.638-.74A3.349,3.349,0,0,1,2.109.331,3.536,3.536,0,0,1,3.077.043,3.2,3.2,0,0,1,4.3.077,2.658,2.658,0,0,1,5.3.534,2.642,2.642,0,0,1,6,1.345a3.117,3.117,0,0,1,.369,1.093,5.321,5.321,0,0,1,.051,1.181,4.49,4.49,0,0,1-.2,1.067,3.906,3.906,0,0,1-.434.917,3.535,3.535,0,0,1-.637.738,3.443,3.443,0,0,1-.814.529A3.528,3.528,0,0,1,3.367,7.155Zm1.592-4.4a2.111,2.111,0,0,0-.212-.674A1.6,1.6,0,0,0,4.362,1.6a1.356,1.356,0,0,0-.522-.27A1.535,1.535,0,0,0,3.21,1.3a1.748,1.748,0,0,0-.813.344,2.2,2.2,0,0,0-.6.7,3.01,3.01,0,0,0-.324.964,3.58,3.58,0,0,0,0,1.134,2.108,2.108,0,0,0,.213.676,1.593,1.593,0,0,0,.384.484,1.339,1.339,0,0,0,.524.27,1.549,1.549,0,0,0,.636.027,1.745,1.745,0,0,0,.811-.342,2.2,2.2,0,0,0,.593-.7A2.951,2.951,0,0,0,4.961,3.9,3.67,3.67,0,0,0,4.959,2.759Z" transform="translate(51.349 7.66)"/><path class="a" d="M4.354,6.424,0,7.081.412.211,1.81,0,1.464,5.619,4.42,5.173Z" transform="translate(60.387 6.705)"/><path class="a" d="M0,7.081.412.212,1.815,0,1.4,6.869Z" transform="translate(65.538 5.928)"/><path class="a" d="M0,7.933.412,1.064l1.6-.242L3.554,5.166l.083-.012,2.13-4.9L7.464,0,7.052,6.869l-1.3.2.284-4.6-.074.011L4.006,6.937l-.927.14L1.658,3.131l-.074.011L1.3,7.737Z" transform="translate(68.077 4.692)"/><path class="a" d="M0,7.081.412.212,1.815,0,1.4,6.87Z" transform="translate(76.272 4.308)"/><path class="a" d="M1.645,7.381l.347-5.642L0,2.04.065.813,5.452,0,5.387,1.227l-1.993.3L3.048,7.17Z" transform="translate(78.77 3.383)"/><path class="a" d="M4.419,5.18l-2.348.354L1.453,7.25,0,7.469,2.778.243,4.388,0,6.254,6.526,4.82,6.742Zm-1.984-.8,1.757-.265L3.532,1.549l-.088.013Z" transform="translate(84.086 2.741)"/><path class="a" d="M2.765.045A3.352,3.352,0,0,1,3.934.057a2.373,2.373,0,0,1,.938.4,2.331,2.331,0,0,1,.668.77A3.287,3.287,0,0,1,5.9,2.341a4.914,4.914,0,0,1,.047,1.1,4.37,4.37,0,0,1-.191,1,3.7,3.7,0,0,1-.406.871,3.339,3.339,0,0,1-.606.707,3.272,3.272,0,0,1-.784.51,3.421,3.421,0,0,1-.937.278L0,7.269.408.4ZM1.472,5.835l1.245-.188A2,2,0,0,0,4.162,4.7,2.551,2.551,0,0,0,4.488,3.8a3.381,3.381,0,0,0,0-1.09,2.15,2.15,0,0,0-.214-.685,1.459,1.459,0,0,0-.394-.483,1.387,1.387,0,0,0-.553-.258,1.847,1.847,0,0,0-.693-.016l-.881.133Z" transform="translate(91.016 1.896)"/><path class="a" d="M3.367,7.155a3.161,3.161,0,0,1-1.218-.036,2.7,2.7,0,0,1-1-.456,2.657,2.657,0,0,1-.717-.81A3.047,3.047,0,0,1,.063,4.762,5.163,5.163,0,0,1,.014,3.583,4.591,4.591,0,0,1,.22,2.519,3.747,3.747,0,0,1,.654,1.6a3.664,3.664,0,0,1,.638-.74A3.377,3.377,0,0,1,2.109.33,3.557,3.557,0,0,1,3.077.043,3.2,3.2,0,0,1,4.3.077,2.657,2.657,0,0,1,5.3.534,2.635,2.635,0,0,1,6,1.344a3.12,3.12,0,0,1,.37,1.093,5.3,5.3,0,0,1,.051,1.181,4.486,4.486,0,0,1-.2,1.066,3.9,3.9,0,0,1-.435.917,3.523,3.523,0,0,1-.637.738,3.4,3.4,0,0,1-.814.529A3.505,3.505,0,0,1,3.367,7.155Zm1.592-4.4a2.133,2.133,0,0,0-.212-.673A1.6,1.6,0,0,0,4.361,1.6a1.346,1.346,0,0,0-.522-.27A1.521,1.521,0,0,0,3.21,1.3a1.75,1.75,0,0,0-.814.344,2.194,2.194,0,0,0-.595.7,3.019,3.019,0,0,0-.324.964,3.575,3.575,0,0,0,0,1.135,2.1,2.1,0,0,0,.213.676,1.6,1.6,0,0,0,.385.484,1.341,1.341,0,0,0,.524.27,1.552,1.552,0,0,0,.636.027,1.75,1.75,0,0,0,.812-.342,2.2,2.2,0,0,0,.593-.7A2.973,2.973,0,0,0,4.962,3.9,3.681,3.681,0,0,0,4.959,2.759Z" transform="translate(97.53 0.694)"/><path class="a" d="M.961,7.1A.964.964,0,0,1,.6,7.094.792.792,0,0,1,.316,6.97a.713.713,0,0,1-.2-.217.772.772,0,0,1-.1-.286A.884.884,0,0,1,.02,6.135a.743.743,0,0,1,.128-.282.8.8,0,0,1,.237-.21.936.936,0,0,1,.339-.115.976.976,0,0,1,.357.007.8.8,0,0,1,.288.124.706.706,0,0,1,.2.219.788.788,0,0,1,.1.289.889.889,0,0,1-.009.331.717.717,0,0,1-.128.279.8.8,0,0,1-.237.208A.933.933,0,0,1,.961,7.1ZM1.975,0l-.4,4.627L.342,4.813.5.223Z" transform="translate(104.671 0)"/></g></g><g transform="translate(5136.704 3130.662)"><g transform="translate(2.56 15.941)"><path class="b" d="M5595.243,3301.494a1.541,1.541,0,0,0-.241-.558,1.4,1.4,0,0,0-.419-.393,1.59,1.59,0,0,0-.565-.206,2.084,2.084,0,0,0-.674,0,2.054,2.054,0,0,0-.953.409,2.536,2.536,0,0,0-.685.824,3.486,3.486,0,0,0-.36,1.138,4.322,4.322,0,0,0,.023,1.352,2.549,2.549,0,0,0,.254.782,1.744,1.744,0,0,0,.446.552,1.534,1.534,0,0,0,.6.3,1.844,1.844,0,0,0,.738.021,2.336,2.336,0,0,0,.627-.19,2.017,2.017,0,0,0,.517-.344,1.9,1.9,0,0,0,.37-.466,1.708,1.708,0,0,0,.2-.559l1.63-.258a3.241,3.241,0,0,1-.266,1.178,3.2,3.2,0,0,1-.663.977,3.714,3.714,0,0,1-1.009.718,4.51,4.51,0,0,1-1.3.4,3.79,3.79,0,0,1-1.387-.018,2.91,2.91,0,0,1-1.969-1.413,3.747,3.747,0,0,1-.453-1.3,5.848,5.848,0,0,1,0-2.016,4.652,4.652,0,0,1,.643-1.679,4.086,4.086,0,0,1,1.2-1.216,4.143,4.143,0,0,1,1.666-.63,3.805,3.805,0,0,1,1.287.008,3.219,3.219,0,0,1,1.1.407,2.729,2.729,0,0,1,.812.747,2.432,2.432,0,0,1,.425,1.023c.007.039.014.077.02.115a.7.7,0,0,1,.01.116l-1.6.252Z" transform="translate(-5589.612 -3298.849)"/></g><g transform="translate(10.351 14.718)"><path class="b" d="M5656.487,3297.279a3.833,3.833,0,0,1-1.446-.028,3.273,3.273,0,0,1-1.193-.52,3.151,3.151,0,0,1-.868-.934,3.535,3.535,0,0,1-.468-1.265,5.882,5.882,0,0,1-.083-1.366,5.248,5.248,0,0,1,.22-1.233,4.3,4.3,0,0,1,.494-1.063,4.16,4.16,0,0,1,.736-.86,3.939,3.939,0,0,1,.95-.62,4.23,4.23,0,0,1,1.134-.342,3.865,3.865,0,0,1,1.447.025,3.216,3.216,0,0,1,1.181.514,3.124,3.124,0,0,1,.857.925,3.6,3.6,0,0,1,.468,1.256,6.025,6.025,0,0,1,.1,1.365,5.079,5.079,0,0,1-.21,1.239,4.417,4.417,0,0,1-.489,1.07,4.026,4.026,0,0,1-.733.866,3.983,3.983,0,0,1-.952.625A4.189,4.189,0,0,1,5656.487,3297.279Zm1.768-5.123a2.432,2.432,0,0,0-.269-.775,1.9,1.9,0,0,0-.467-.557,1.636,1.636,0,0,0-.624-.305,1.853,1.853,0,0,0-.743-.024,2.068,2.068,0,0,0-.952.406,2.518,2.518,0,0,0-.685.815,3.405,3.405,0,0,0-.36,1.118,4.058,4.058,0,0,0,.025,1.314,2.471,2.471,0,0,0,.268.782,1.906,1.906,0,0,0,.467.559,1.624,1.624,0,0,0,.628.308,1.877,1.877,0,0,0,.754.023,2.062,2.062,0,0,0,.954-.407,2.506,2.506,0,0,0,.684-.815,3.325,3.325,0,0,0,.354-1.118A4.143,4.143,0,0,0,5658.254,3292.156Z" transform="translate(-5652.419 -3288.993)"/></g><g transform="translate(18.799 12.859)"><path class="b" d="M5720.521,3283.255l.276-7.946,1.877-.3,1.966,4.986.1-.016,2.333-5.663,1.987-.313-.213,7.926-1.528.242.16-5.318-.086.014-2.153,5.176-1.094.173-1.813-4.552-.086.014-.187,5.326Z" transform="translate(-5720.521 -3274.01)"/></g><g transform="translate(28.476 12.155)"><path class="b" d="M5801.562,3268.376a3.355,3.355,0,0,1,1.077-.007,2.488,2.488,0,0,1,.892.324,2.154,2.154,0,0,1,.654.619,2.291,2.291,0,0,1,.363.887,3.1,3.1,0,0,1,0,1.3,2.668,2.668,0,0,1-.507,1.067,2.975,2.975,0,0,1-.948.774,4.217,4.217,0,0,1-1.327.427l-1.528.242-.068,2.473-1.646.261.2-7.922Zm-1.308,4.292,1.239-.2a2.1,2.1,0,0,0,.689-.227,1.527,1.527,0,0,0,.486-.407,1.365,1.365,0,0,0,.255-.553,1.65,1.65,0,0,0,0-.67,1.019,1.019,0,0,0-.5-.747,1.53,1.53,0,0,0-1-.123l-1.091.172Z" transform="translate(-5798.523 -3268.329)"/></g><g transform="translate(35.343 11.05)"><path class="b" d="M5854.034,3259.95l3.073-.484a3.031,3.031,0,0,1,1.017,0,2.466,2.466,0,0,1,.859.323,2.166,2.166,0,0,1,.639.6,2.212,2.212,0,0,1,.354.841,2.5,2.5,0,0,1,.031.834,2.555,2.555,0,0,1-.236.782,2.591,2.591,0,0,1-.489.681,2.824,2.824,0,0,1-.722.524l1.671,2.8-1.761.279-1.488-2.634-1.4.22-.054,2.879-1.649.261Zm1.563,3.5,1.426-.225a2.043,2.043,0,0,0,.631-.2,1.449,1.449,0,0,0,.448-.355,1.158,1.158,0,0,0,.24-.471,1.27,1.27,0,0,0,0-.556,1,1,0,0,0-.452-.7,1.3,1.3,0,0,0-.9-.13l-1.336.211Z" transform="translate(-5853.884 -3259.425)"/></g><g transform="translate(41.916 9.82)"><path class="b" d="M5911.952,3255.438l-2.749.435-.631,1.988-1.706.27,2.857-8.326,1.874-.295,2.6,7.458-1.681.267Zm-2.388-.9,2.055-.325-.933-2.93-.1.016Z" transform="translate(-5906.867 -3249.51)"/></g><g transform="translate(51.909 8.008)"><path class="b" d="M5989.732,3243.382l.017-6.469-2.317.366-.005-1.4,6.254-.985.013,1.394-2.315.365-.007,6.465Z" transform="translate(-5987.426 -3234.898)"/></g><g transform="translate(59.049 6.846)"><path class="b" d="M6048.678,3234.027a4.229,4.229,0,0,1-1.323.018,3.037,3.037,0,0,1-1.071-.368,2.54,2.54,0,0,1-.774-.693,2.5,2.5,0,0,1-.429-.959q-.034-.158-.056-.33a2.8,2.8,0,0,1-.021-.346l-.023-4.8,1.631-.257.027,4.756a2.354,2.354,0,0,0,.061.547,1.233,1.233,0,0,0,.6.828,1.747,1.747,0,0,0,1.155.151,1.908,1.908,0,0,0,.607-.2,1.518,1.518,0,0,0,.455-.367,1.562,1.562,0,0,0,.283-.523,2.181,2.181,0,0,0,.1-.665l-.041-5.041,1.623-.255.059,5.4a3.237,3.237,0,0,1-.178,1.14,2.681,2.681,0,0,1-.55.917,3.04,3.04,0,0,1-.9.663A4.253,4.253,0,0,1,6048.678,3234.027Z" transform="translate(-6044.981 -3225.53)"/></g><g transform="translate(68.754 5.676)"><path class="b" d="M6124.779,3222.111a1.2,1.2,0,0,0,.286.416,1.464,1.464,0,0,0,.429.282,1.867,1.867,0,0,0,.535.139,2.247,2.247,0,0,0,.608-.017,2.3,2.3,0,0,0,.582-.166,1.376,1.376,0,0,0,.416-.276.886.886,0,0,0,.226-.363.776.776,0,0,0,.012-.422.759.759,0,0,0-.134-.29.884.884,0,0,0-.261-.223,1.7,1.7,0,0,0-.411-.164,4.518,4.518,0,0,0-.578-.113l-.86-.12a3.7,3.7,0,0,1-.84-.213,2.613,2.613,0,0,1-.669-.375,2.152,2.152,0,0,1-.482-.526,2.1,2.1,0,0,1-.279-.667,2.027,2.027,0,0,1,.009-.992,2.127,2.127,0,0,1,.461-.854,2.866,2.866,0,0,1,.845-.646,3.777,3.777,0,0,1,1.163-.369,3.9,3.9,0,0,1,1.2-.011,3.156,3.156,0,0,1,1.026.334,2.624,2.624,0,0,1,.781.639,2.36,2.36,0,0,1,.464.906l-1.521.24a1.292,1.292,0,0,0-.262-.405,1.335,1.335,0,0,0-.393-.284,1.61,1.61,0,0,0-.5-.144,1.985,1.985,0,0,0-.57.011,1.9,1.9,0,0,0-.51.151,1.3,1.3,0,0,0-.376.257.859.859,0,0,0-.213.336.7.7,0,0,0-.016.384.829.829,0,0,0,.371.511,2.171,2.171,0,0,0,.888.277l.848.116a4.983,4.983,0,0,1,.932.214,2.663,2.663,0,0,1,.7.354,1.849,1.849,0,0,1,.481.508,2.2,2.2,0,0,1,.276.678,2.225,2.225,0,0,1,.01,1.063,2.121,2.121,0,0,1-.47.9,2.859,2.859,0,0,1-.9.67,4.4,4.4,0,0,1-1.271.388,4.352,4.352,0,0,1-1.246.027,3.213,3.213,0,0,1-1.057-.317,2.536,2.536,0,0,1-.805-.644,2.7,2.7,0,0,1-.5-.95Z" transform="translate(-6123.213 -3216.099)"/></g><g transform="translate(75.824 4.428)"><path class="b" d="M6185.487,3213.841l-5.129.813-.154-7.814,5.085-.8.044,1.385-3.472.547.021,1.821,3.286-.519.037,1.291-3.285.519.023,1.908,3.494-.553Z" transform="translate(-6180.204 -3206.039)"/></g><g transform="translate(81.776 3.534)"><path class="b" d="M6235.374,3203.146a4.668,4.668,0,0,1-.134,1.459,3.147,3.147,0,0,1-.552,1.134,2.957,2.957,0,0,1-.953.79,4.239,4.239,0,0,1-1.336.428,3.9,3.9,0,0,1-1.391-.018,3.264,3.264,0,0,1-1.187-.489,3.366,3.366,0,0,1-.9-.909,3.888,3.888,0,0,1-.552-1.276,6.02,6.02,0,0,1-.179-1.34,4.8,4.8,0,0,1,.125-1.208,3.932,3.932,0,0,1,.409-1.042,3.5,3.5,0,0,1,1.57-1.452,4.087,4.087,0,0,1,1.122-.338,3.9,3.9,0,0,1,1.241,0,3.587,3.587,0,0,1,1.1.362,3,3,0,0,1,.857.671,2.349,2.349,0,0,1,.5.92.434.434,0,0,1,.023.08c.006.03.012.061.02.092l-1.562.247a1.265,1.265,0,0,0-.267-.471,1.462,1.462,0,0,0-.438-.331,1.808,1.808,0,0,0-.572-.169,2.313,2.313,0,0,0-.663.012,1.9,1.9,0,0,0-.916.4,2.2,2.2,0,0,0-.615.791,3.049,3.049,0,0,0-.267,1.1,4.277,4.277,0,0,0,.128,1.314,2.576,2.576,0,0,0,.316.771,1.976,1.976,0,0,0,.5.545,1.7,1.7,0,0,0,.644.294,2,2,0,0,0,.756.016,2.287,2.287,0,0,0,.68-.214,1.732,1.732,0,0,0,.515-.386,1.622,1.622,0,0,0,.416-1.162l-.006-.135-1.637.259-.041-1.22,3.205-.506Z" transform="translate(-6228.184 -3198.833)"/></g><g transform="translate(89.833 2.009)"><path class="b" d="M6297.041,3194.965a4.232,4.232,0,0,1-1.317.018,3.121,3.121,0,0,1-1.077-.364,2.635,2.635,0,0,1-.792-.687,2.573,2.573,0,0,1-.456-.951c-.026-.1-.048-.213-.066-.327a3.077,3.077,0,0,1-.03-.343l-.164-4.752,1.617-.254.167,4.713a2.375,2.375,0,0,0,.076.542,1.275,1.275,0,0,0,.621.821,1.768,1.768,0,0,0,1.155.149,1.876,1.876,0,0,0,.6-.2,1.448,1.448,0,0,0,.441-.364,1.467,1.467,0,0,0,.267-.518,2.117,2.117,0,0,0,.078-.659l-.189-4.995,1.609-.253.218,5.353a3.166,3.166,0,0,1-.144,1.129,2.555,2.555,0,0,1-.521.908,2.879,2.879,0,0,1-.877.657A4.15,4.15,0,0,1,6297.041,3194.965Z" transform="translate(-6293.139 -3186.546)"/></g><g transform="translate(97.558 1.291)"><path class="b" d="M6355.407,3181.272l3.02-.475a3.019,3.019,0,0,1,1.008,0,2.588,2.588,0,0,1,.871.317,2.343,2.343,0,0,1,.669.591,2.31,2.31,0,0,1,.4.826,2.462,2.462,0,0,1,.08.819,2.361,2.361,0,0,1-.188.767,2.327,2.327,0,0,1-.445.668,2.558,2.558,0,0,1-.685.515l1.822,2.745-1.729.274-1.632-2.586-1.37.217.116,2.827-1.62.257Zm1.755,3.434,1.4-.221a1.919,1.919,0,0,0,.614-.2,1.318,1.318,0,0,0,.425-.348,1.067,1.067,0,0,0,.209-.463,1.242,1.242,0,0,0-.029-.546,1.068,1.068,0,0,0-.49-.688,1.335,1.335,0,0,0-.9-.127l-1.313.207Z" transform="translate(-6355.407 -3180.756)"/></g><g transform="translate(104.307 0)"><path class="b" d="M6414.187,3178.407a3.859,3.859,0,0,1-1.431-.027,3.584,3.584,0,0,1-1.224-.505,3.547,3.547,0,0,1-.94-.909,3.766,3.766,0,0,1-.573-1.23,5.82,5.82,0,0,1-.2-1.329,4.855,4.855,0,0,1,.108-1.2,3.74,3.74,0,0,1,.394-1.034,3.524,3.524,0,0,1,.651-.837,3.422,3.422,0,0,1,.883-.6,4.116,4.116,0,0,1,2.52-.308,3.456,3.456,0,0,1,2.14,1.4,3.834,3.834,0,0,1,.574,1.222,5.9,5.9,0,0,1,.214,1.328,4.681,4.681,0,0,1-.1,1.2,3.893,3.893,0,0,1-.388,1.042,3.457,3.457,0,0,1-.648.842,3.493,3.493,0,0,1-.885.608A3.887,3.887,0,0,1,6414.187,3178.407Zm1.293-4.983a2.552,2.552,0,0,0-.334-.754,2.105,2.105,0,0,0-.511-.542,1.8,1.8,0,0,0-.642-.3,1.952,1.952,0,0,0-1.64.372,2.153,2.153,0,0,0-.605.793,3.064,3.064,0,0,0-.257,1.087,3.984,3.984,0,0,0,.141,1.279,2.573,2.573,0,0,0,.334.76,2.09,2.09,0,0,0,.511.543,1.777,1.777,0,0,0,.647.3,1.905,1.905,0,0,0,.747.023,1.867,1.867,0,0,0,.906-.4,2.156,2.156,0,0,0,.6-.793,3,3,0,0,0,.251-1.088A4.044,4.044,0,0,0,6415.48,3173.424Z" transform="translate(-6409.815 -3170.347)"/></g><g transform="translate(0 29.397)"><path class="b" d="M5571.264,3416.257l-2.288-7.763,1.769-.282,1.542,5.943.1-.016,2.062-6.518,1.87-.3-3.03,8.608Z" transform="translate(-5568.976 -3407.324)"/></g><g transform="translate(7.768 28.435)"><path class="b" d="M5636.89,3407.734l-5.3.85.363-8.179,5.25-.836-.047,1.449-3.584.572-.1,1.906,3.394-.542-.049,1.352-3.392.542-.1,2,3.609-.578Z" transform="translate(-5631.593 -3399.569)"/></g><g transform="translate(14.246 27.151)"><path class="b" d="M5689.067,3397.633l.119-3.422-3.568.571-.13,3.426-1.675.269.313-8.164,1.667-.266-.127,3.277,3.563-.569.116-3.274,1.665-.265-.26,8.148Z" transform="translate(-5683.813 -3389.215)"/></g><g transform="translate(22.544 26.671)"><path class="b" d="M5750.7,3393.755l.25-8.144,1.663-.265-.236,8.14Z" transform="translate(-5750.704 -3385.345)"/></g><g transform="translate(25.33 25.711)"><path class="b" d="M5778.812,3380.3a1.61,1.61,0,0,0-.255-.569,1.463,1.463,0,0,0-.431-.4,1.633,1.633,0,0,0-.576-.21,2.085,2.085,0,0,0-.681,0,2.008,2.008,0,0,0-.953.417,2.5,2.5,0,0,0-.674.84,3.527,3.527,0,0,0-.339,1.16,4.456,4.456,0,0,0,.054,1.378,2.643,2.643,0,0,0,.273.8,1.824,1.824,0,0,0,.461.562,1.6,1.6,0,0,0,.618.3,1.862,1.862,0,0,0,.746.021,2.293,2.293,0,0,0,.629-.194,1.96,1.96,0,0,0,.514-.35,1.882,1.882,0,0,0,.363-.475,1.716,1.716,0,0,0,.186-.57l1.641-.263a3.31,3.31,0,0,1-.242,1.2,3.187,3.187,0,0,1-.648,1,3.636,3.636,0,0,1-1,.731,4.461,4.461,0,0,1-1.306.41,3.811,3.811,0,0,1-1.4-.019,3.062,3.062,0,0,1-1.163-.5,3.113,3.113,0,0,1-.857-.937,3.912,3.912,0,0,1-.486-1.327,6.01,6.01,0,0,1-.047-2.055,4.654,4.654,0,0,1,.613-1.711,4.018,4.018,0,0,1,1.183-1.24,4.066,4.066,0,0,1,1.669-.642,3.8,3.8,0,0,1,1.3.008,3.3,3.3,0,0,1,1.118.415,2.863,2.863,0,0,1,.836.762,2.559,2.559,0,0,1,.451,1.042c.008.04.016.079.022.117a.775.775,0,0,1,.012.118l-1.61.257Z" transform="translate(-5773.167 -3377.608)"/></g><g transform="translate(33.535 24.153)"><path class="b" d="M5842.979,3373.834a4.224,4.224,0,0,1-1.345.018,2.985,2.985,0,0,1-1.079-.38,2.515,2.515,0,0,1-.771-.717,2.555,2.555,0,0,1-.412-.992c-.021-.109-.037-.223-.049-.341a2.816,2.816,0,0,1-.012-.358l.1-4.958,1.664-.265-.089,4.917a2.412,2.412,0,0,0,.048.565,1.232,1.232,0,0,0,.588.856,1.73,1.73,0,0,0,1.17.156,1.964,1.964,0,0,0,.623-.2,1.6,1.6,0,0,0,.471-.38,1.662,1.662,0,0,0,.3-.541,2.33,2.33,0,0,0,.115-.687l.083-5.21,1.656-.264-.074,5.584a3.449,3.449,0,0,1-.208,1.178,2.879,2.879,0,0,1-.582.947,3.2,3.2,0,0,1-.933.686A4.347,4.347,0,0,1,5842.979,3373.834Z" transform="translate(-5839.311 -3365.05)"/></g><g transform="translate(41.477 23.68)"><path class="b" d="M5908.507,3368.767l-5.175.831.1-8.1,1.649-.263-.085,6.613,3.508-.562Z" transform="translate(-5903.332 -3361.235)"/></g><g transform="translate(47.034 22.318)"><path class="b" d="M5953.26,3356.333l-2.78.445-.628,2.037-1.725.277,2.85-8.53,1.9-.3,2.675,7.642-1.7.273Zm-2.421-.919,2.079-.333-.959-3-.1.017Z" transform="translate(-5948.126 -3350.259)"/></g><g transform="translate(55.249 21.23)"><path class="b" d="M6014.352,3342.021l3.1-.493a3.013,3.013,0,0,1,1.026,0,2.53,2.53,0,0,1,.875.33,2.268,2.268,0,0,1,.656.614,2.313,2.313,0,0,1,.375.858,2.582,2.582,0,0,1,.047.85,2.55,2.55,0,0,1-.7,1.492,2.792,2.792,0,0,1-.72.535l1.742,2.852-1.772.285-1.556-2.687-1.405.225v2.937l-1.661.267Zm1.646,3.568,1.437-.23a1.988,1.988,0,0,0,.633-.2,1.435,1.435,0,0,0,.447-.362,1.161,1.161,0,0,0,.232-.48,1.313,1.313,0,0,0-.006-.568,1.054,1.054,0,0,0-.472-.715,1.309,1.309,0,0,0-.91-.133l-1.346.214Z" transform="translate(-6014.352 -3341.485)"/></g><g transform="translate(64.123 19.227)"><path class="b" d="M6088.69,3334.067l-.027-2.973-2.782-4.633,1.709-.272,1.8,3.086.1-.016,1.678-3.639,1.782-.284-2.638,5.562.039,2.9Z" transform="translate(-6085.881 -3325.336)"/></g><g transform="translate(74.263 18.476)"><path class="b" d="M6172.9,3326.746l-5.126.823-.146-8.022,1.634-.26.119,6.55,3.476-.557Z" transform="translate(-6167.624 -3319.286)"/></g><g transform="translate(80.281 17.518)"><path class="b" d="M6221.444,3319.007l-5.118.821-.191-8.007,1.631-.26.155,6.538,3.47-.556Z" transform="translate(-6216.135 -3311.561)"/></g><g transform="translate(86.288 16.003)"><path class="b" d="M6269.979,3307.327l-5.18.831-.237-7.993,5.136-.818.059,1.417-3.506.559.042,1.863,3.318-.53.05,1.321-3.317.531.042,1.952,3.529-.565Z" transform="translate(-6264.563 -3299.347)"/></g><g transform="translate(92.023 14.768)"><path class="b" d="M6313.711,3298.089l-2.924-7.555,1.723-.274,2.032,5.785.1-.015,1.479-6.344,1.822-.29-2.256,8.379Z" transform="translate(-6310.787 -3289.394)"/></g><g transform="translate(99.728 13.998)"><path class="b" d="M6377.867,3289.17l-2.739.438-.523,2.005-1.7.272,2.41-8.4,1.867-.3,3.033,7.524-1.675.269Zm-2.45-.905,2.047-.328-1.1-2.957-.1.017Z" transform="translate(-6372.905 -3283.189)"/></g><g transform="translate(106.976 12.532)"><path class="b" d="M6434.045,3279.932l-.328-6.53-2.311.369-.08-1.41,6.236-.993.088,1.407-2.308.369.337,6.527Z" transform="translate(-6431.326 -3271.367)"/></g><g transform="translate(114.079 11.582)"><path class="b" d="M6494.173,3271.626l-5.139.824-.447-7.928,5.095-.812.1,1.405-3.479.555.089,1.847,3.293-.526.084,1.31-3.291.526.094,1.936,3.5-.561Z" transform="translate(-6488.587 -3263.711)"/></g></g><g transform="translate(5154.467 3172.5)"><g transform="translate(0)"><path class="a" d="M5719.041,3507.991l2.251-.38,1.286,15.65-2.269.432-.077-.957a5.028,5.028,0,0,1-2.945,1.8,4.179,4.179,0,0,1-3.493-.737,4.4,4.4,0,0,1-1.612-3.264,5.2,5.2,0,0,1,1.078-3.669,4.983,4.983,0,0,1,3.215-1.967,4.028,4.028,0,0,1,3.185.754Zm-4.506,12.111a2.745,2.745,0,0,0,.932,2,2.374,2.374,0,0,0,2.037.468,3.074,3.074,0,0,0,1.976-1.19,3.271,3.271,0,0,0,.6-2.256,2.7,2.7,0,0,0-.944-1.966,2.476,2.476,0,0,0-2.08-.447,2.963,2.963,0,0,0-1.9,1.178A3.2,3.2,0,0,0,5714.535,3520.1Z" transform="translate(-5712.165 -3507.611)"/><g transform="translate(12.386 4.45)"><path class="a" d="M5819.147,3543.871l2.186-.389.8,8.9-2.194.417-.083-.939a4.927,4.927,0,0,1-2.819,1.755,4.054,4.054,0,0,1-3.409-.729,4.39,4.39,0,0,1-1.588-3.209,5.113,5.113,0,0,1,1.014-3.609,4.8,4.8,0,0,1,3.108-1.916,3.879,3.879,0,0,1,3.083.75Zm-4.838,5.387a2.746,2.746,0,0,0,.919,1.971,2.292,2.292,0,0,0,1.976.465,2.935,2.935,0,0,0,1.906-1.163,3.219,3.219,0,0,0,.567-2.214,2.694,2.694,0,0,0-.93-1.934,2.39,2.39,0,0,0-2.02-.445,2.822,2.822,0,0,0-1.833,1.152A3.145,3.145,0,0,0,5814.309,3549.258Z" transform="translate(-5812.013 -3543.482)"/></g><g transform="translate(8.709 0)"><path class="a" d="M5782.787,3507.611l1.146.739-.476.714-1.089-.227Z" transform="translate(-5782.367 -3507.611)"/></g><g transform="translate(21.14 4.45)"><path class="a" d="M5883.143,3543.481l1.146.739-.592,1.151-1.118-.14,0-.149Z" transform="translate(-5882.576 -3543.481)"/></g><g transform="translate(1.146 0.739)"><path class="c" d="M5728.28,3513.945l2.251-.38,1.286,15.65-2.269.432-.077-.957a5.029,5.029,0,0,1-2.945,1.8,4.178,4.178,0,0,1-3.493-.736,4.394,4.394,0,0,1-1.612-3.265,5.2,5.2,0,0,1,1.078-3.668,4.986,4.986,0,0,1,3.215-1.967,4.031,4.031,0,0,1,3.186.753Zm-4.506,12.11a2.745,2.745,0,0,0,.931,2,2.375,2.375,0,0,0,2.037.468,3.077,3.077,0,0,0,1.976-1.19,3.271,3.271,0,0,0,.6-2.256,2.7,2.7,0,0,0-.943-1.966,2.478,2.478,0,0,0-2.081-.447,2.96,2.96,0,0,0-1.9,1.178A3.2,3.2,0,0,0,5723.774,3526.056Z" transform="translate(-5721.404 -3513.565)"/><g transform="translate(12.386 4.45)"><path class="c" d="M5828.388,3549.824l2.185-.389.8,8.9-2.194.417-.082-.939a4.932,4.932,0,0,1-2.82,1.755,4.056,4.056,0,0,1-3.41-.729,4.391,4.391,0,0,1-1.588-3.21,5.119,5.119,0,0,1,1.014-3.609,4.8,4.8,0,0,1,3.108-1.916,3.879,3.879,0,0,1,3.083.75Zm-4.838,5.387a2.744,2.744,0,0,0,.918,1.971,2.3,2.3,0,0,0,1.977.465,2.932,2.932,0,0,0,1.905-1.163,3.222,3.222,0,0,0,.568-2.214,2.7,2.7,0,0,0-.931-1.933,2.391,2.391,0,0,0-2.02-.445,2.825,2.825,0,0,0-1.833,1.152A3.14,3.14,0,0,0,5823.549,3555.211Z" transform="translate(-5821.252 -3549.435)"/></g></g></g><g transform="translate(3.728 16.944)"><g transform="translate(19.876)"><path class="a" d="M5903.714,3644.2l.921.859-.437.977-1.759-.165.186-.958Z" transform="translate(-5902.439 -3644.196)"/></g><g transform="translate(0 0.015)"><g transform="translate(0 0)"><rect class="a" width="21.409" height="1.737" transform="matrix(0.988, -0.154, 0.154, 0.988, 0, 3.294)"/></g><g transform="translate(0.274 4.372)"><path class="a" d="M5744.427,3680.194l.8.97.181-.495.149-1.077-.532-.035Z" transform="translate(-5744.427 -3679.558)"/></g><g transform="translate(0.8 0.956)"><rect class="c" width="21.409" height="1.737" transform="matrix(0.988, -0.154, 0.154, 0.988, 0, 3.294)"/></g></g></g></g><g transform="translate(5186.955 3156.291)"><g transform="translate(0 16.506)"><path class="c" d="M5991.8,3517.641a6.451,6.451,0,0,0-5.648-1.6,7.033,7.033,0,0,0-2.514.954,6.793,6.793,0,0,0-1.858,1.694,6.57,6.57,0,0,0-1.232,4.8,6.236,6.236,0,0,0,.811,2.416,5.742,5.742,0,0,0,1.6,1.75,6.037,6.037,0,0,0,2.179.975,6.438,6.438,0,0,0,2.561.055,7.789,7.789,0,0,0,5.026-3.318l.83,6.977-.6.313a19.91,19.91,0,0,1-2.547,1.135,13.755,13.755,0,0,1-2.374.619,12.555,12.555,0,0,1-4.75-.106,11.659,11.659,0,0,1-7.415-5.119,11.1,11.1,0,0,1-1.675-4.618,11.7,11.7,0,0,1,.345-4.989,12.985,12.985,0,0,1,2.2-4.3,13.619,13.619,0,0,1,3.642-3.25,13.677,13.677,0,0,1,7.527-2.021,17.064,17.064,0,0,1,3.04.381Z" transform="translate(-5974.06 -3510.001)"/></g><g transform="translate(19.185 11.932)"><path class="c" d="M6135.061,3475.926l1.405,12.759q.111,1.013.308,2.056a5.175,5.175,0,0,0,.69,1.826,2.979,2.979,0,0,0,1.418,1.171,4.609,4.609,0,0,0,2.5.119,4.915,4.915,0,0,0,2.381-.947,3.755,3.755,0,0,0,1.137-1.612,5.511,5.511,0,0,0,.308-2.01q-.026-1.078-.129-2.1l-1.3-12.866,6.465-1.189,1.3,13.786q.516,5.457-1.873,8.37-2.37,2.9-7.739,3.783-5.336.88-8.175-1.128c-1.9-1.339-3.055-3.781-3.47-7.345l-1.575-13.505Z" transform="translate(-6128.714 -3473.133)"/></g><g transform="translate(44.227 7.895)"><path class="c" d="M6330.636,3456.113a12.418,12.418,0,0,1,.578-5.108,14.113,14.113,0,0,1,2.513-4.542,15.391,15.391,0,0,1,4.2-3.526,17.433,17.433,0,0,1,5.656-2.045,15.959,15.959,0,0,1,5.845-.068,12.207,12.207,0,0,1,4.771,1.921,10.739,10.739,0,0,1,3.268,3.576,11.153,11.153,0,0,1,1.4,4.865,12.569,12.569,0,0,1-.748,5.188,14.152,14.152,0,0,1-2.692,4.5,15.692,15.692,0,0,1-4.3,3.393,17.452,17.452,0,0,1-5.567,1.878,15.812,15.812,0,0,1-5.682-.015,12.026,12.026,0,0,1-4.573-1.882,10.841,10.841,0,0,1-3.188-3.435A11.112,11.112,0,0,1,6330.636,3456.113Zm6.817-1.19a5.657,5.657,0,0,0,.789,2.51,5.813,5.813,0,0,0,1.709,1.8,6.347,6.347,0,0,0,2.368.976,7.556,7.556,0,0,0,2.771.021,8.463,8.463,0,0,0,4.906-2.713,7.55,7.55,0,0,0,1.43-2.361,6.389,6.389,0,0,0,.393-2.743,5.677,5.677,0,0,0-.77-2.555,5.742,5.742,0,0,0-1.744-1.838,6.57,6.57,0,0,0-2.427-.984,7.584,7.584,0,0,0-2.815,0,8.363,8.363,0,0,0-2.726.994,8.155,8.155,0,0,0-2.166,1.8,7.627,7.627,0,0,0-1.371,2.372A6.369,6.369,0,0,0,6337.454,3454.923Z" transform="translate(-6330.581 -3440.586)"/></g><g transform="translate(71.557 2.882)"><path class="c" d="M6563.768,3406.734l.967,19.019-6.782,1.122-1.092-18.9-5.621,1.011-.345-5.439,18.351-3.376.25,5.532Z" transform="translate(-6550.896 -3400.172)"/></g><g transform="translate(88.569 0)"><path class="c" d="M6706.831,3397.491l-10.031,1.691-1.43,4.485-7.343,1.214,9.179-26.5,7.822-1.439,11.113,23.288-7.572,1.252Zm-2.021-4.565-3.452-7.762-2.882,8.853Z" transform="translate(-6688.027 -3376.943)"/></g><g transform="translate(1.577 44.831)"><path class="c" d="M5998.887,3748.794l12.024-1.846a29.222,29.222,0,0,1,.205,3.18,10.723,10.723,0,0,1-1.735,5.957,10.505,10.505,0,0,1-2.341,2.533,13.142,13.142,0,0,1-3.093,1.78,15.263,15.263,0,0,1-3.646.979,13.9,13.9,0,0,1-4.943-.115,10.933,10.933,0,0,1-4.039-1.733,10.252,10.252,0,0,1-2.909-3.171,11.753,11.753,0,0,1-1.508-4.45,12.185,12.185,0,0,1,.216-4.729,10.53,10.53,0,0,1,1.954-4,11.853,11.853,0,0,1,3.544-2.969,14.938,14.938,0,0,1,4.968-1.668,13.179,13.179,0,0,1,6.613.463,10.1,10.1,0,0,1,4.95,3.938l-5.517,3.145a5.349,5.349,0,0,0-2.4-2.258,5.423,5.423,0,0,0-3.013-.326,6.32,6.32,0,0,0-2.395.865,5.544,5.544,0,0,0-1.7,1.652,6.637,6.637,0,0,0-.938,2.3,8.2,8.2,0,0,0-.074,2.809,8.086,8.086,0,0,0,.716,2.471,5.473,5.473,0,0,0,1.4,1.839,5.03,5.03,0,0,0,2.047,1.035,6.793,6.793,0,0,0,2.67.081,7.908,7.908,0,0,0,1.681-.435,4.87,4.87,0,0,0,1.407-.814,3.681,3.681,0,0,0,.956-1.228,4.229,4.229,0,0,0,.388-1.685l-4.929.739Z" transform="translate(-5986.769 -3738.334)"/></g><g transform="translate(26.94 41.591)"><path class="c" d="M6213.39,3733.013l-7.743,1.114-6.75-7.507.88,8.352-6.1.877-2.449-21.9,9.714-1.567a10.191,10.191,0,0,1,3.595-.014,6.484,6.484,0,0,1,2.649,1.116,5.829,5.829,0,0,1,1.7,1.982,6.942,6.942,0,0,1,.752,2.609,6.529,6.529,0,0,1-.947,4.34,7.367,7.367,0,0,1-3.709,2.723Zm-14.884-10.1,1.171-.179a5.08,5.08,0,0,0,2.755-1.139,2.5,2.5,0,0,0,.783-2.189,2.232,2.232,0,0,0-1.2-1.89,4.719,4.719,0,0,0-2.912-.265l-1.177.186Z" transform="translate(-6191.23 -3712.218)"/></g><g transform="translate(47.824 37.623)"><path class="c" d="M6376.53,3698.841l-9.131,1.34-1.13,4.035-6.693.963,7.357-23.8,7.107-1.146,11.137,21.265-6.888.991Zm-2.04-4.17-3.48-7.085-2.284,7.95Z" transform="translate(-6359.576 -3680.232)"/></g><g transform="translate(69.641 33.578)"><path class="c" d="M6547.9,3653.679l.979,17.862-6.556.943-1.1-17.755-5.432.855-.344-5.107,17.727-2.86.254,5.191Z" transform="translate(-6535.448 -3647.618)"/></g><g transform="translate(88.652 32.266)"><path class="c" d="M6695.546,3637.045l.949,23.311-6.689.962-1.106-23.168Z" transform="translate(-6688.7 -3637.045)"/></g><g transform="translate(98.916 29.275)"><path class="c" d="M6786.731,3619.105a7.741,7.741,0,0,0-2.321-.865,6.5,6.5,0,0,0-2.226-.047,4.393,4.393,0,0,0-2.192.919,1.994,1.994,0,0,0-.809,1.62,1.214,1.214,0,0,0,.456.974,3.189,3.189,0,0,0,1.136.535,9.384,9.384,0,0,0,1.576.278q.876.086,1.737.206a9.58,9.58,0,0,1,5.073,1.924,5.379,5.379,0,0,1,1.671,4.136,8.121,8.121,0,0,1-.635,3.371,8.23,8.23,0,0,1-1.972,2.783,11.348,11.348,0,0,1-3.206,2.064,17.307,17.307,0,0,1-13.584-.073l2.734-5.258a10.551,10.551,0,0,0,3.093,1.333,7.837,7.837,0,0,0,2.99.146,4.361,4.361,0,0,0,2.492-1.048,2.271,2.271,0,0,0,.789-1.67,1.544,1.544,0,0,0-.96-1.493,5.234,5.234,0,0,0-1.3-.413q-.8-.16-1.937-.333-1.348-.171-2.643-.427a7.475,7.475,0,0,1-2.317-.85,4.8,4.8,0,0,1-1.676-1.635,5.617,5.617,0,0,1-.719-2.794,8.142,8.142,0,0,1,.533-3.292,8.5,8.5,0,0,1,1.748-2.76,10.032,10.032,0,0,1,2.857-2.076,13.351,13.351,0,0,1,3.856-1.2,18.711,18.711,0,0,1,4.215-.181,18.154,18.154,0,0,1,4.255.785Z" transform="translate(-6771.437 -3612.934)"/></g></g><path class="b" d="M6278.9,3279.53l1.662-.225.666-1.978-1.552.138Z" transform="translate(-1054.127 -133.394)"/></g></svg>