<svg xmlns="http://www.w3.org/2000/svg" width="595.751" height="346.714" viewBox="0 0 595.751 346.714"><defs><style>.a{fill:#ea0c90;}.b{fill:#fff;}.c{fill:#ffd527;}</style></defs><g transform="matrix(0.998, 0.07, -0.07, 0.998, -4824.425, -3501.258)"><g transform="translate(5329.237 3197.882)"><g transform="translate(0 38.852)"><path class="a" d="M5986.26,3525.54a15.184,15.184,0,0,0-13.3-3.766,16.528,16.528,0,0,0-5.917,2.245,16,16,0,0,0-4.375,3.986,15.467,15.467,0,0,0-2.9,11.291,14.688,14.688,0,0,0,1.907,5.687,13.523,13.523,0,0,0,3.756,4.12,14.207,14.207,0,0,0,5.13,2.3,15.155,15.155,0,0,0,6.027.13q6.937-1.176,11.829-7.809l1.955,16.423-1.42.737a46.905,46.905,0,0,1-5.994,2.67,32.374,32.374,0,0,1-5.588,1.457,29.531,29.531,0,0,1-11.179-.251,27.442,27.442,0,0,1-17.455-12.047,26.109,26.109,0,0,1-3.942-10.871,27.527,27.527,0,0,1,.813-11.743,30.518,30.518,0,0,1,5.168-10.118,32.065,32.065,0,0,1,8.572-7.651,31.7,31.7,0,0,1,10.989-4.228,32.042,32.042,0,0,1,6.729-.528,40.176,40.176,0,0,1,7.157.9Z" transform="translate(-5944.513 -3507.558)"/></g><g transform="translate(45.158 28.087)"><path class="a" d="M6114.106,3477.263l3.307,30.033q.261,2.384.725,4.838a12.186,12.186,0,0,0,1.626,4.3,7.008,7.008,0,0,0,3.338,2.756,10.839,10.839,0,0,0,5.885.281,11.575,11.575,0,0,0,5.6-2.229,8.84,8.84,0,0,0,2.675-3.794,12.929,12.929,0,0,0,.726-4.731q-.063-2.539-.3-4.944l-3.065-30.285,15.219-2.8,3.07,32.45q1.216,12.844-4.408,19.7-5.578,6.829-18.218,8.905-12.561,2.072-19.24-2.656c-4.469-3.152-7.19-8.9-8.169-17.29l-3.706-31.789Z" transform="translate(-6099.168 -3470.689)"/></g><g transform="translate(104.102 18.583)"><path class="a" d="M6301.166,3474.69a29.229,29.229,0,0,1,1.36-12.022,33.2,33.2,0,0,1,5.917-10.693,36.219,36.219,0,0,1,9.887-8.3,41.023,41.023,0,0,1,13.314-4.814,37.582,37.582,0,0,1,13.756-.16,28.74,28.74,0,0,1,11.23,4.523,25.289,25.289,0,0,1,7.691,8.417,26.252,26.252,0,0,1,3.284,11.451,29.561,29.561,0,0,1-1.761,12.21,33.327,33.327,0,0,1-6.338,10.593,36.907,36.907,0,0,1-10.132,7.986,41.06,41.06,0,0,1-13.1,4.421,37.206,37.206,0,0,1-13.375-.036,28.3,28.3,0,0,1-10.764-4.429,25.53,25.53,0,0,1-7.5-8.084A26.13,26.13,0,0,1,6301.166,3474.69Zm16.047-2.8a13.308,13.308,0,0,0,1.857,5.908,13.708,13.708,0,0,0,4.022,4.244,14.956,14.956,0,0,0,5.573,2.3,17.788,17.788,0,0,0,6.522.049,19.919,19.919,0,0,0,11.547-6.386,17.773,17.773,0,0,0,3.366-5.557,15.066,15.066,0,0,0,.925-6.457,13.245,13.245,0,0,0-5.916-10.342,15.47,15.47,0,0,0-5.713-2.317,17.885,17.885,0,0,0-6.627,0,19.691,19.691,0,0,0-6.416,2.34,19.24,19.24,0,0,0-5.1,4.231,17.974,17.974,0,0,0-3.227,5.583A14.984,14.984,0,0,0,6317.212,3471.889Z" transform="translate(-6301.035 -3438.141)"/></g><g transform="translate(168.433 6.783)"><path class="a" d="M6551.648,3413.174l2.275,44.767-15.963,2.64-2.57-44.484-13.229,2.379-.812-12.8,43.194-7.947.587,13.022Z" transform="translate(-6521.349 -3397.728)"/></g><g transform="translate(208.475 0)"><path class="a" d="M6702.742,3422.865l-23.611,3.98-3.365,10.556-17.285,2.859,21.607-62.373,18.413-3.388,26.158,54.816-17.823,2.948Zm-4.758-10.747-8.126-18.27-6.786,20.838Z" transform="translate(-6658.481 -3374.499)"/></g><g transform="translate(3.711 105.524)"><path class="a" d="M5985.748,3760.511l28.3-4.345a69.207,69.207,0,0,1,.483,7.485,25.243,25.243,0,0,1-4.085,14.021,24.731,24.731,0,0,1-5.511,5.963,30.855,30.855,0,0,1-7.28,4.188,35.849,35.849,0,0,1-8.581,2.306,32.717,32.717,0,0,1-11.635-.27,25.713,25.713,0,0,1-9.506-4.08,24.132,24.132,0,0,1-6.848-7.463,27.679,27.679,0,0,1-3.55-10.475,28.718,28.718,0,0,1,.508-11.132,24.77,24.77,0,0,1,4.6-9.405,27.909,27.909,0,0,1,8.341-6.988,35.166,35.166,0,0,1,11.694-3.926,31.025,31.025,0,0,1,15.565,1.089,23.78,23.78,0,0,1,11.652,9.27l-12.986,7.4a12.579,12.579,0,0,0-5.657-5.314,12.751,12.751,0,0,0-7.09-.767,14.871,14.871,0,0,0-5.637,2.036,13.048,13.048,0,0,0-4.008,3.89,15.6,15.6,0,0,0-2.209,5.416,19.334,19.334,0,0,0-.175,6.612,19.092,19.092,0,0,0,1.684,5.816,12.923,12.923,0,0,0,3.294,4.329,11.837,11.837,0,0,0,4.82,2.436,15.972,15.972,0,0,0,6.283.191,18.688,18.688,0,0,0,3.958-1.023,11.477,11.477,0,0,0,3.311-1.916,8.687,8.687,0,0,0,2.25-2.89,9.932,9.932,0,0,0,.913-3.967l-11.6,1.74Z" transform="translate(-5957.222 -3735.89)"/></g><g transform="translate(63.412 97.898)"><path class="a" d="M6213.842,3758.722l-18.224,2.622-15.891-17.671,2.071,19.658-14.35,2.064-5.766-51.541,22.867-3.689a23.984,23.984,0,0,1,8.462-.034,15.273,15.273,0,0,1,6.236,2.627,13.73,13.73,0,0,1,4,4.667,16.326,16.326,0,0,1,1.771,6.14,15.366,15.366,0,0,1-2.229,10.216,17.345,17.345,0,0,1-8.729,6.41Zm-35.033-23.767,2.756-.423a11.951,11.951,0,0,0,6.483-2.682,5.887,5.887,0,0,0,1.845-5.152,5.253,5.253,0,0,0-2.817-4.448q-2.5-1.31-6.854-.624l-2.771.437Z" transform="translate(-6161.683 -3709.772)"/></g><g transform="translate(112.569 88.559)"><path class="a" d="M6369.936,3721.59l-21.491,3.155-2.662,9.5-15.753,2.266,17.317-56.023,16.729-2.7,26.214,50.053-16.213,2.332Zm-4.8-9.814-8.191-16.677-5.377,18.715Z" transform="translate(-6330.03 -3677.788)"/></g><g transform="translate(163.923 79.036)"><path class="a" d="M6535.206,3659.441l2.3,42.044-15.433,2.22-2.58-41.792-12.785,2.012-.81-12.021,41.725-6.731.6,12.218Z" transform="translate(-6505.902 -3645.174)"/></g><g transform="translate(208.671 75.948)"><path class="a" d="M6675.268,3634.6l2.234,54.869-15.744,2.265-2.6-54.534Z" transform="translate(-6659.153 -3634.601)"/></g><g transform="translate(232.83 68.908)"><path class="a" d="M6777.892,3625.015a18.225,18.225,0,0,0-5.462-2.034,15.315,15.315,0,0,0-5.239-.112,10.349,10.349,0,0,0-5.161,2.164,4.7,4.7,0,0,0-1.9,3.813,2.86,2.86,0,0,0,1.073,2.293,7.489,7.489,0,0,0,2.676,1.26,22.113,22.113,0,0,0,3.71.654q2.062.2,4.088.485,8.112,1.134,11.942,4.53t3.933,9.734a19.1,19.1,0,0,1-1.5,7.936,19.365,19.365,0,0,1-4.642,6.551,26.681,26.681,0,0,1-7.545,4.859,40.732,40.732,0,0,1-31.976-.173l6.437-12.375a24.887,24.887,0,0,0,7.278,3.139,18.477,18.477,0,0,0,7.04.344,10.266,10.266,0,0,0,5.866-2.468,5.341,5.341,0,0,0,1.856-3.931,4.066,4.066,0,0,0-.553-2.08,4.107,4.107,0,0,0-1.706-1.434,12.375,12.375,0,0,0-3.069-.971q-1.886-.378-4.56-.783-3.173-.4-6.22-1.006a17.559,17.559,0,0,1-5.454-2,11.3,11.3,0,0,1-3.946-3.849,13.212,13.212,0,0,1-1.691-6.576,19.162,19.162,0,0,1,1.255-7.749,19.969,19.969,0,0,1,4.114-6.5,23.584,23.584,0,0,1,6.724-4.887,31.435,31.435,0,0,1,9.077-2.83,44.059,44.059,0,0,1,9.921-.426,42.683,42.683,0,0,1,10.015,1.848Z" transform="translate(-6741.89 -3610.49)"/></g><g transform="translate(58.547 34.661)"><path class="a" d="M6146.568,3493.2l8.628.714-10.178,8.6Z" transform="translate(-6145.019 -3493.203)"/></g><g transform="translate(95.13 28.087)"><path class="a" d="M6271.006,3470.689l8.627.714s-6.622,10.749-8.463,8.957S6271.006,3470.689,6271.006,3470.689Z" transform="translate(-6270.307 -3470.689)"/></g><g transform="translate(207.547 6.783)"><path class="a" d="M6659.384,3397.728l8.627.714-7.095,6.346-5.612-2.793Z" transform="translate(-6655.304 -3397.728)"/></g><g transform="translate(169.245 21.348)"><path class="a" d="M6524.132,3453.793l8.627.714,3.494-5.11-8.7-1.786Z" transform="translate(-6524.132 -3447.611)"/></g><g transform="translate(208.475 61.947)"><path class="a" d="M6658.481,3590.463l8.628.714,4.1-2.82-.579-1.708Z" transform="translate(-6658.481 -3586.649)"/></g><g transform="translate(256.831 52.283)"><path class="a" d="M6824.087,3559.035l8.627.714,1.912-1.7-.056-3.325-3.346-1.169Z" transform="translate(-6824.087 -3553.555)"/></g><g transform="translate(242.602)"><path class="a" d="M6781.25,3374.5l8.628.714-4.182,7.429-10.339-1.025Z" transform="translate(-6775.357 -3374.499)"/></g><g transform="translate(223.164 75.949)"><path class="a" d="M6710.408,3634.6l8.627.714-10.248,9.674Z" transform="translate(-6708.787 -3634.602)"/></g><g transform="translate(202.557 79.036)"><path class="a" d="M6641.3,3645.174l7.107,3.144,1.316,2.144-10,2.336-1.509-1.944Z" transform="translate(-6638.214 -3645.174)"/></g><g transform="translate(185.044 62.386)"><path class="a" d="M6578.238,3595.4l8.627.714,5.528-3.572-4.505-4.392Z" transform="translate(-6578.238 -3588.155)"/></g><g transform="translate(239.266 113.015)"><path class="a" d="M6763.934,3761.543l8.627.714-1.327,4.589-6.961-1.852Z" transform="translate(-6763.934 -3761.543)"/></g><g transform="translate(156.615 135.806)"><path class="a" d="M6480.874,3844.736l8.627.713,2.051-2.25-3.508-3.6Z" transform="translate(-6480.874 -3839.598)"/></g><g transform="translate(180.097 131.989)"><path class="a" d="M6561.295,3832.1l9.1.747,2.264-4.036-3.149-2.289Z" transform="translate(-6561.295 -3826.525)"/></g><g transform="translate(211.276 128.418)"><path class="a" d="M6668.073,3818.958l8.627.714,2.152-2.883-1.555-2.495Z" transform="translate(-6668.073 -3814.293)"/></g><g transform="translate(164.732 93.361)"><path class="a" d="M6508.675,3698.66l8.627.714,2.5-3.38-.947-1.761Z" transform="translate(-6508.675 -3694.233)"/></g><g transform="translate(69.178 148.367)"><path class="a" d="M6181.43,3887.769l8.627.714,3.814-3.585-1.792-2.282Z" transform="translate(-6181.43 -3882.615)"/></g><g transform="translate(97.348 144.953)"><path class="a" d="M6277.9,3875.437l8.627.713,3.405-4.83-6.058-.4Z" transform="translate(-6277.903 -3870.921)"/></g><g transform="translate(139.661 88.559)"><path class="a" d="M6429.766,3677.788l8.628.714-3.121,7.584-12.458-2.9Z" transform="translate(-6422.814 -3677.788)"/></g><g transform="translate(43.402 114.859)"><path class="a" d="M6093.154,3776.787l8.627.714,2.075-5.3-6.939-4.34Z" transform="translate(-6093.154 -3767.86)"/></g><g transform="translate(33.536 135.555)"><path class="a" d="M6059.365,3843.557l8.627.713,2.389-4.617-7.011-.917Z" transform="translate(-6059.365 -3838.736)"/></g></g><g transform="translate(5517.453 3155.304)"><path class="b" d="M6613.181,3467.53l-.195-2.786,80.683-13.469a35.922,35.922,0,0,0,20.038-10.18,27.143,27.143,0,0,0,8.014-18.582l1.35-164.276a24.827,24.827,0,0,0-9.014-19.206c-7.3-6.274-17.477-8.908-27.912-7.229l-96.627,15.554-.417-2.594,96.627-15.554c11.2-1.8,22.149,1.051,30.041,7.831a27.411,27.411,0,0,1,9.93,21.221l-1.35,164.276a29.753,29.753,0,0,1-8.755,20.389,38.549,38.549,0,0,1-21.491,10.942Z" transform="translate(-6589.1 -3228.679)"/></g><g transform="translate(5108.455 3221.238)"><path class="b" d="M5222.044,3690.6a35.884,35.884,0,0,1-23.378-8.26,27.458,27.458,0,0,1-10.045-21.063l-.223-164.087a29.677,29.677,0,0,1,8.662-20.549,38.512,38.512,0,0,1,21.59-11.041l69.039-11.113.417,2.594-69.039,11.113a35.872,35.872,0,0,0-20.114,10.269,27.069,27.069,0,0,0-7.928,18.723l.223,164.087a24.871,24.871,0,0,0,9.12,19.065c7.3,6.208,17.436,8.809,27.811,7.138l75.238-11.1.165,2.36-74.985,11.33A41.177,41.177,0,0,1,5222.044,3690.6Z" transform="translate(-5188.397 -3454.486)"/></g><g transform="translate(5502.404 3125.042)"><path class="c" d="M6537.979,3140.82l-.417-2.594,78.707-12.669c12.619-2.033,25.234,2.049,32.919,10.649l-1.959,1.751c-7.094-7.939-18.8-11.7-30.542-9.805Z" transform="translate(-6537.562 -3125.042)"/></g><g transform="translate(5075.486 3185.396)"><path class="c" d="M5089.988,3568.2c-9.062-5.49-14.266-14.277-14.28-24.111L5075.486,3380a29.676,29.676,0,0,1,8.662-20.549,38.514,38.514,0,0,1,21.59-11.041l103.622-16.679.417,2.594-103.622,16.679a35.868,35.868,0,0,0-20.114,10.268,27.068,27.068,0,0,0-7.928,18.723l.223,164.087c.012,8.894,4.755,16.864,13.013,21.866Z" transform="translate(-5075.486 -3331.735)"/></g><g transform="translate(5147.865 3256.305)"><path class="a" d="M5427.043,3671.029l1.082,31.689L5324.541,3720.1l-.293-7.92c53.164-72.136,60.562-83.752,60.16-95.151-.254-7.2-5.433-11.068-12.591-9.682-7.816,1.513-12.388,7.434-12.1,15.382l.092,2.551-36.313,6.889-.089-2.419c-.979-26.466,16.513-47.634,46.842-53.74,29.82-6,51.268,7.321,52.13,32.516.578,16.867-5.62,31.025-34.7,69.414Z" transform="translate(-5323.365 -3574.581)"/><g transform="translate(0.128 53.678)"><path class="a" d="M5323.8,3762.323l9.928,3.621,1.829-5.093-.041-2.437Z" transform="translate(-5323.804 -3758.415)"/></g><g transform="translate(97.746 96.448)"><path class="a" d="M5664.05,3904.888l9.928,3.621-8.094,7.457-7.765-1.849Z" transform="translate(-5658.119 -3904.888)"/></g><g transform="translate(1.176 138.695)"><path class="a" d="M5327.391,4056.4l9.928,3.621,2.729-6.537s1.142-1.742-.036-2.136-5.268-1.771-5.268-1.771l-2.593,1.491Z" transform="translate(-5327.391 -4049.573)"/></g><g transform="translate(9.928 3.621)"><path class="c" d="M5461.043,3683.429l1.083,31.688L5358.542,3732.5l-.293-7.92c53.165-72.137,60.562-83.752,60.16-95.151-.254-7.2-5.433-11.067-12.591-9.682-7.816,1.513-12.387,7.434-12.1,15.381l.092,2.55-36.313,6.89-.089-2.419c-.979-26.466,16.513-47.634,46.842-53.74,29.821-6,51.269,7.321,52.131,32.516.577,16.867-5.62,31.025-34.7,69.414Z" transform="translate(-5357.366 -3586.981)"/></g></g><g transform="translate(-6.309 3.448)"><g transform="translate(5225.409 3418.998)"><g transform="translate(17.478 -41.718)"><path class="a" d="M5675.66,4121.869l-265.152,38.382a6.576,6.576,0,0,1-7.642-5.888l-2.473-40.257a6.415,6.415,0,0,1,5.653-6.627l265.23-37.9a6.575,6.575,0,0,1,7.63,5.9l2.4,39.778A6.414,6.414,0,0,1,5675.66,4121.869Z" transform="translate(-5400.381 -4069.506)"/></g><g transform="translate(18.833 -12.238)"><path class="a" d="M5413.4,4154.724l-9.1,10.926,5.718,6.75s13.918-.67,14.347-1.748,5.1-6.513,5.1-6.513Z" transform="translate(-5404.298 -4154.724)"/></g><g transform="translate(288.658 -9.361)"><path class="a" d="M6202.553,4168.458,6192.6,4180.7l-8.326-7.886,8.934-9.776Z" transform="translate(-6184.278 -4163.042)"/></g></g><g transform="translate(5234.141 3405.703)"><path class="b" d="M5703.175,4083.446l-267.3,40.646a6.486,6.486,0,0,1-7.643-5.831l-2.136-40.291a6.568,6.568,0,0,1,5.75-6.683l267.373-40.166a6.484,6.484,0,0,1,7.63,5.84l2.063,39.811A6.568,6.568,0,0,1,5703.175,4083.446Z" transform="translate(-5408.449 -4072.771)"/></g><g transform="translate(5254.444 3425.465)"><path class="a" d="M5477.6,4223.1l.943-10.9,2.9-.437-.368,10.815Zm2.385-16.727a2.253,2.253,0,0,1,.841.017,1.884,1.884,0,0,1,.677.292,1.7,1.7,0,0,1,.478.512,1.813,1.813,0,0,1,.239.674,2.107,2.107,0,0,1-.021.781,1.771,1.771,0,0,1-.3.661,1.876,1.876,0,0,1-.559.5,2.182,2.182,0,0,1-.8.27,2.271,2.271,0,0,1-.84-.018,1.86,1.86,0,0,1-.677-.292,1.68,1.68,0,0,1-.478-.517,1.846,1.846,0,0,1-.241-.68,2.119,2.119,0,0,1,.021-.774,1.708,1.708,0,0,1,.3-.662,1.884,1.884,0,0,1,.56-.489A2.165,2.165,0,0,1,5479.99,4206.377Z" transform="translate(-5462.448 -4207.192)"/><path class="a" d="M5503.807,4192.113a6.509,6.509,0,0,1,2.155.008,4.75,4.75,0,0,1,1.758.684,4.21,4.21,0,0,1,1.26,1.287,4.682,4.682,0,0,1,.653,1.828,6.525,6.525,0,0,1-.108,2.671,5.672,5.672,0,0,1-1.1,2.17,6.19,6.19,0,0,1-1.952,1.56,8.452,8.452,0,0,1-2.676.843l-3.062.462-.319,5.022-3.29.5.958-16.168Zm-2.94,8.772,2.487-.375a4.2,4.2,0,0,0,1.392-.45,3.194,3.194,0,0,0,1-.823,2.918,2.918,0,0,0,.552-1.126,3.472,3.472,0,0,0,.047-1.374,2.022,2.022,0,0,0-.932-1.542,2.959,2.959,0,0,0-1.984-.273l-2.193.331Z" transform="translate(-5475.217 -4197.828)"/><path class="a" d="M5544.128,4201.5a7.46,7.46,0,0,1-2.866-.083,6.378,6.378,0,0,1-2.344-1.073,6.277,6.277,0,0,1-1.687-1.9,7.224,7.224,0,0,1-.882-2.571,12.191,12.191,0,0,1-.113-2.776,10.981,10.981,0,0,1,.482-2.5,8.92,8.92,0,0,1,1.024-2.158,8.574,8.574,0,0,1,1.5-1.742,7.956,7.956,0,0,1,1.922-1.251,8.344,8.344,0,0,1,2.28-.677,7.538,7.538,0,0,1,2.888.081,6.091,6.091,0,0,1,4,2.983,7.342,7.342,0,0,1,.871,2.572,12.433,12.433,0,0,1,.121,2.78,10.541,10.541,0,0,1-.482,2.511,9.22,9.22,0,0,1-1.023,2.158,8.333,8.333,0,0,1-1.5,1.736,8.093,8.093,0,0,1-1.916,1.245A8.3,8.3,0,0,1,5544.128,4201.5Zm3.748-10.347a4.953,4.953,0,0,0-.5-1.585,3.742,3.742,0,0,0-.906-1.146,3.177,3.177,0,0,0-1.228-.637,3.6,3.6,0,0,0-1.481-.065,4.121,4.121,0,0,0-1.915.811,5.182,5.182,0,0,0-1.4,1.649,7.134,7.134,0,0,0-.763,2.271,8.477,8.477,0,0,0,0,2.669,4.972,4.972,0,0,0,.5,1.59,3.764,3.764,0,0,0,.9,1.141,3.177,3.177,0,0,0,1.235.635,3.659,3.659,0,0,0,1.5.063,4.111,4.111,0,0,0,1.911-.8,5.159,5.159,0,0,0,1.4-1.637,6.943,6.943,0,0,0,.758-2.263A8.608,8.608,0,0,0,5547.875,4191.151Z" transform="translate(-5500.775 -4193.007)"/><path class="a" d="M5585.316,4179.7l6.2-.936a5.864,5.864,0,0,1,2.035.027,4.644,4.644,0,0,1,1.691.683,4.151,4.151,0,0,1,1.221,1.253,4.438,4.438,0,0,1,.63,1.738,5.247,5.247,0,0,1-.02,1.713,5.465,5.465,0,0,1-.547,1.6,5.561,5.561,0,0,1-1.042,1.384,5.937,5.937,0,0,1-1.488,1.058l3.063,5.733-3.529.532-2.723-5.4-2.8.423-.359,5.861-3.3.5Zm2.82,7.214,2.866-.433a4.106,4.106,0,0,0,1.277-.4,3.037,3.037,0,0,0,.93-.718,2.507,2.507,0,0,0,.522-.961,2.664,2.664,0,0,0,.06-1.142,1.975,1.975,0,0,0-.84-1.45,2.5,2.5,0,0,0-1.786-.285l-2.693.406Z" transform="translate(-5532.264 -4189.101)"/><path class="a" d="M5642.589,4185.606l.816-13.281-4.69.708.153-2.888,12.681-1.913-.153,2.889-4.689.708-.817,13.28Z" transform="translate(-5567.824 -4182.264)"/><path class="a" d="M5678.113,4182.69l.97-16.169,3.3-.5-.97,16.17Z" transform="translate(-5593.593 -4180.819)"/><path class="a" d="M5705.783,4176.5l-10.39,1.568.97-16.17,10.378-1.566-.153,2.889-7.078,1.067-.262,3.781,6.688-1.009-.153,2.677-6.676,1.007-.272,3.938,7.089-1.069Z" transform="translate(-5604.896 -4177.096)"/><path class="a" d="M5732.129,4170.749l.97-16.169,3.766-.569,3.63,10.224.195-.03,5.013-11.527,4-.6-.971,16.168-3.05.462.667-10.816-.174.026-4.614,10.49-2.182.329-3.345-9.288-.174.026-.667,10.815Z" transform="translate(-5628.923 -4171.697)"/><path class="a" d="M5794.6,4148.246a6.519,6.519,0,0,1,2.155.008,4.727,4.727,0,0,1,1.758.684,4.185,4.185,0,0,1,1.26,1.287,4.672,4.672,0,0,1,.654,1.828,6.515,6.515,0,0,1-.109,2.67,5.661,5.661,0,0,1-1.1,2.17,6.176,6.176,0,0,1-1.952,1.56,8.446,8.446,0,0,1-2.677.843l-3.062.462-.319,5.022-3.289.5.959-16.168Zm-2.94,8.772,2.486-.375a4.215,4.215,0,0,0,1.393-.45,3.207,3.207,0,0,0,1-.824,2.907,2.907,0,0,0,.551-1.125,3.464,3.464,0,0,0,.049-1.374,2.025,2.025,0,0,0-.933-1.542,2.958,2.958,0,0,0-1.984-.272l-2.193.331Z" transform="translate(-5665.411 -4169.136)"/><path class="a" d="M5834.918,4157.632a7.456,7.456,0,0,1-2.865-.084,6.358,6.358,0,0,1-2.344-1.073,6.242,6.242,0,0,1-1.686-1.9,7.171,7.171,0,0,1-.883-2.571,12.273,12.273,0,0,1-.114-2.775,10.944,10.944,0,0,1,.483-2.5,8.927,8.927,0,0,1,1.023-2.158,8.638,8.638,0,0,1,1.5-1.743,7.885,7.885,0,0,1,1.921-1.25,8.327,8.327,0,0,1,2.28-.678,7.54,7.54,0,0,1,2.888.081,6.1,6.1,0,0,1,4,2.984,7.338,7.338,0,0,1,.87,2.572,12.521,12.521,0,0,1,.12,2.78,10.575,10.575,0,0,1-.482,2.511,9.186,9.186,0,0,1-1.022,2.158,8.315,8.315,0,0,1-1.5,1.736,8.088,8.088,0,0,1-1.917,1.245A8.3,8.3,0,0,1,5834.918,4157.632Zm3.747-10.347a4.976,4.976,0,0,0-.5-1.585,3.769,3.769,0,0,0-.906-1.146,3.184,3.184,0,0,0-1.229-.637,3.614,3.614,0,0,0-1.48-.065,4.113,4.113,0,0,0-1.915.811,5.179,5.179,0,0,0-1.4,1.649,7.081,7.081,0,0,0-.763,2.27,8.425,8.425,0,0,0,0,2.67,4.965,4.965,0,0,0,.5,1.59,3.747,3.747,0,0,0,.9,1.14,3.158,3.158,0,0,0,1.234.635,3.654,3.654,0,0,0,1.5.063,4.107,4.107,0,0,0,1.91-.8,5.163,5.163,0,0,0,1.4-1.636,6.953,6.953,0,0,0,.758-2.264A8.638,8.638,0,0,0,5838.666,4147.285Z" transform="translate(-5690.97 -4164.315)"/><path class="a" d="M5898.742,4149.411l-10.249,1.546.97-16.17,3.289-.5-.814,13.226,6.959-1.05Z" transform="translate(-5731.194 -4160.064)"/><path class="a" d="M5923.535,4145.667l.97-16.169,3.3-.5-.971,16.169Z" transform="translate(-5754.114 -4156.603)"/><path class="a" d="M5940.814,4139.267l.969-16.168,3.767-.569,3.63,10.224.2-.029,5.013-11.527,4-.6-.971,16.169-3.051.46.669-10.815-.175.026-4.614,10.489-2.181.329-3.346-9.289-.174.026-.667,10.815Z" transform="translate(-5765.416 -4151.106)"/><path class="a" d="M5996.57,4134.649l.97-16.169,3.3-.5-.971,16.17Z" transform="translate(-5801.883 -4149.397)"/><path class="a" d="M6017.447,4129.058l.817-13.281-4.69.708.153-2.888,12.681-1.913-.153,2.888-4.69.708-.817,13.28Z" transform="translate(-5813.005 -4145.277)"/><path class="a" d="M6060.143,4119.511l-5.527.834-1.455,4.039-3.42.516,6.539-17.009,3.789-.572,4.393,15.361-3.376.508Zm-4.671-1.883,4.137-.624-1.555-6.039-.207.031Z" transform="translate(-5836.66 -4142.423)"/><path class="a" d="M6103.4,4101.672a7.9,7.9,0,0,1,2.751.029,5.586,5.586,0,0,1,2.208.95,5.485,5.485,0,0,1,1.573,1.812,7.743,7.743,0,0,1,.844,2.615,11.569,11.569,0,0,1,.109,2.6,10.3,10.3,0,0,1-.449,2.36,8.736,8.736,0,0,1-.957,2.049,7.843,7.843,0,0,1-1.426,1.664,7.712,7.712,0,0,1-1.845,1.2,8.053,8.053,0,0,1-2.206.655l-7.111,1.072.959-16.167Zm-3.042,13.628,2.931-.442a4.713,4.713,0,0,0,3.4-2.239,6.007,6.007,0,0,0,.767-2.1,7.957,7.957,0,0,0,0-2.564,5.069,5.069,0,0,0-.5-1.612,3.432,3.432,0,0,0-.926-1.137,3.269,3.269,0,0,0-1.3-.609,4.348,4.348,0,0,0-1.632-.038l-2.074.313Z" transform="translate(-5867.503 -4138.66)"/><path class="a" d="M6149.14,4110.229a7.443,7.443,0,0,1-2.866-.084,6.351,6.351,0,0,1-2.344-1.072,6.256,6.256,0,0,1-1.687-1.906,7.169,7.169,0,0,1-.881-2.571,12.179,12.179,0,0,1-.114-2.774,10.814,10.814,0,0,1,.483-2.505,8.845,8.845,0,0,1,1.022-2.158,8.634,8.634,0,0,1,1.5-1.743,7.941,7.941,0,0,1,1.921-1.25,8.374,8.374,0,0,1,2.279-.677,7.532,7.532,0,0,1,2.889.081,6.1,6.1,0,0,1,4,2.983,7.34,7.34,0,0,1,.87,2.573,12.462,12.462,0,0,1,.12,2.78,10.586,10.586,0,0,1-.481,2.51,9.189,9.189,0,0,1-1.023,2.158,8.3,8.3,0,0,1-1.5,1.736,8.015,8.015,0,0,1-1.917,1.245A8.271,8.271,0,0,1,6149.14,4110.229Zm3.747-10.347a5.018,5.018,0,0,0-.5-1.585,3.76,3.76,0,0,0-.907-1.146,3.172,3.172,0,0,0-1.229-.637,3.589,3.589,0,0,0-1.48-.065,4.126,4.126,0,0,0-1.915.81,5.16,5.16,0,0,0-1.4,1.65,7.1,7.1,0,0,0-.764,2.27,8.411,8.411,0,0,0,0,2.67,4.96,4.96,0,0,0,.5,1.59,3.754,3.754,0,0,0,.905,1.14,3.156,3.156,0,0,0,1.233.635,3.653,3.653,0,0,0,1.5.063,4.116,4.116,0,0,0,1.911-.8,5.176,5.176,0,0,0,1.4-1.638,6.992,6.992,0,0,0,.759-2.264A8.662,8.662,0,0,0,6152.887,4099.883Z" transform="translate(-5896.49 -4133.311)"/><path class="a" d="M6192.065,4105.384a2.276,2.276,0,0,1-.841-.017,1.864,1.864,0,0,1-.676-.292,1.678,1.678,0,0,1-.477-.511,1.815,1.815,0,0,1-.241-.674,2.077,2.077,0,0,1,.021-.78,1.756,1.756,0,0,1,.3-.663,1.877,1.877,0,0,1,.558-.495,2.2,2.2,0,0,1,.8-.27,2.3,2.3,0,0,1,.841.017,1.88,1.88,0,0,1,.677.293,1.666,1.666,0,0,1,.478.516,1.854,1.854,0,0,1,.241.68,2.088,2.088,0,0,1-.021.78,1.686,1.686,0,0,1-.3.656,1.882,1.882,0,0,1-.559.49A2.2,2.2,0,0,1,6192.065,4105.384Zm2.386-16.716-.945,10.891-2.9.438.368-10.8Z" transform="translate(-5928.27 -4130.224)"/></g></g><g transform="translate(5219.582 3138.271)"><g transform="translate(6.025 37.522)"><path class="b" d="M5602.864,3305.073a3.627,3.627,0,0,0-.565-1.314,3.3,3.3,0,0,0-.986-.925,3.748,3.748,0,0,0-1.33-.484,4.9,4.9,0,0,0-1.588.006,4.82,4.82,0,0,0-2.242.964,5.966,5.966,0,0,0-1.613,1.939,8.211,8.211,0,0,0-.849,2.679,10.2,10.2,0,0,0,.057,3.182,5.981,5.981,0,0,0,.6,1.841,4.12,4.12,0,0,0,1.049,1.3,3.624,3.624,0,0,0,1.424.7,4.35,4.35,0,0,0,1.737.049,5.484,5.484,0,0,0,1.476-.448,4.747,4.747,0,0,0,1.217-.809,4.483,4.483,0,0,0,.869-1.1,4.006,4.006,0,0,0,.462-1.316l3.838-.607a7.551,7.551,0,0,1-2.187,5.073,8.735,8.735,0,0,1-2.375,1.689,10.623,10.623,0,0,1-3.065.948,8.932,8.932,0,0,1-3.266-.042,6.854,6.854,0,0,1-4.635-3.326,8.8,8.8,0,0,1-1.066-3.064,13.751,13.751,0,0,1-.007-4.746,10.922,10.922,0,0,1,1.515-3.952,9.6,9.6,0,0,1,2.818-2.864,9.753,9.753,0,0,1,3.923-1.483,8.927,8.927,0,0,1,3.027.018,7.59,7.59,0,0,1,2.584.958,6.435,6.435,0,0,1,1.91,1.759,5.728,5.728,0,0,1,1,2.408q.025.138.047.27a1.558,1.558,0,0,1,.021.273l-3.765.594Z" transform="translate(-5589.612 -3298.849)"/></g><g transform="translate(24.365 34.644)"><path class="b" d="M5661.993,3308.5a9.017,9.017,0,0,1-3.405-.064,7.7,7.7,0,0,1-2.808-1.224,7.422,7.422,0,0,1-2.043-2.2,8.333,8.333,0,0,1-1.1-2.977,13.868,13.868,0,0,1-.193-3.216,12.32,12.32,0,0,1,.517-2.9,10.106,10.106,0,0,1,1.162-2.5,9.763,9.763,0,0,1,1.733-2.023,9.258,9.258,0,0,1,2.235-1.46,9.941,9.941,0,0,1,2.669-.8,9.1,9.1,0,0,1,3.405.06,7.549,7.549,0,0,1,2.778,1.208,7.357,7.357,0,0,1,2.019,2.177,8.475,8.475,0,0,1,1.1,2.956,14.16,14.16,0,0,1,.224,3.213,11.858,11.858,0,0,1-.5,2.915,10.386,10.386,0,0,1-1.149,2.519,9.477,9.477,0,0,1-1.727,2.038,9.381,9.381,0,0,1-2.24,1.472A9.866,9.866,0,0,1,5661.993,3308.5Zm4.16-12.058a5.713,5.713,0,0,0-.634-1.824,4.437,4.437,0,0,0-1.1-1.311,3.845,3.845,0,0,0-1.467-.719,4.366,4.366,0,0,0-1.75-.058,4.866,4.866,0,0,0-2.239.957,5.926,5.926,0,0,0-1.613,1.918,8.056,8.056,0,0,0-.849,2.631,9.555,9.555,0,0,0,.06,3.093,5.761,5.761,0,0,0,.63,1.84,4.47,4.47,0,0,0,1.1,1.315,3.822,3.822,0,0,0,1.479.725,4.428,4.428,0,0,0,1.777.056,4.871,4.871,0,0,0,2.244-.958,5.9,5.9,0,0,0,1.609-1.918,7.833,7.833,0,0,0,.835-2.632A9.745,9.745,0,0,0,5666.153,3296.438Z" transform="translate(-5652.419 -3288.993)"/></g><g transform="translate(44.25 30.269)"><path class="b" d="M5720.521,3295.772l.649-18.7,4.417-.695,4.629,11.736.23-.037,5.493-13.329,4.676-.736-.5,18.657-3.6.57.375-12.517-.2.032-5.066,12.184-2.575.408-4.268-10.713-.2.032-.438,12.536Z" transform="translate(-5720.521 -3274.009)"/></g><g transform="translate(67.026 28.61)"><path class="b" d="M5805.676,3268.44a7.874,7.874,0,0,1,2.535-.016,5.827,5.827,0,0,1,2.1.762,5.1,5.1,0,0,1,1.542,1.458,5.455,5.455,0,0,1,.855,2.088,7.3,7.3,0,0,1,0,3.068,6.25,6.25,0,0,1-1.193,2.511,6.98,6.98,0,0,1-2.232,1.822,9.9,9.9,0,0,1-3.124,1l-3.6.569-.161,5.821-3.876.614.464-18.647Zm-3.079,10.1,2.917-.461a4.949,4.949,0,0,0,1.623-.533,3.634,3.634,0,0,0,1.146-.959,3.227,3.227,0,0,0,.6-1.3,3.9,3.9,0,0,0-.006-1.578,2.407,2.407,0,0,0-1.168-1.758,3.606,3.606,0,0,0-2.348-.289l-2.566.4Z" transform="translate(-5798.523 -3268.329)"/></g><g transform="translate(83.192 26.011)"><path class="b" d="M5854.238,3260.662l7.234-1.138a7.112,7.112,0,0,1,2.392.006,5.8,5.8,0,0,1,2.023.76,5.1,5.1,0,0,1,1.5,1.417,5.2,5.2,0,0,1,.835,1.98,5.872,5.872,0,0,1,.072,1.962,5.958,5.958,0,0,1-.557,1.84,6.064,6.064,0,0,1-1.15,1.6,6.662,6.662,0,0,1-1.7,1.234l3.933,6.58-4.145.657-3.5-6.2-3.283.519-.128,6.777-3.881.615Zm3.677,8.232,3.356-.53a4.766,4.766,0,0,0,1.485-.472,3.41,3.41,0,0,0,1.057-.835,2.731,2.731,0,0,0,.563-1.109,2.976,2.976,0,0,0,.011-1.31,2.368,2.368,0,0,0-1.066-1.65,3.058,3.058,0,0,0-2.116-.306l-3.145.5Z" transform="translate(-5853.884 -3259.425)"/></g><g transform="translate(98.662 23.115)"><path class="b" d="M5918.835,3263.463l-6.47,1.023-1.484,4.679-4.015.637,6.726-19.6,4.41-.694,6.131,17.555-3.957.627Zm-5.62-2.112,4.837-.764-2.2-6.9-.24.038Z" transform="translate(-5906.867 -3249.51)"/></g><g transform="translate(122.185 18.849)"><path class="b" d="M5992.854,3254.868l.04-15.225-5.455.86-.012-3.287,14.721-2.317.033,3.281-5.449.859-.017,15.218Z" transform="translate(-5987.426 -3234.898)"/></g><g transform="translate(138.991 16.113)"><path class="b" d="M6053.682,3245.53a9.958,9.958,0,0,1-3.114.042,7.141,7.141,0,0,1-2.521-.865,6,6,0,0,1-1.823-1.632,5.912,5.912,0,0,1-1.009-2.259q-.082-.373-.132-.776a6.537,6.537,0,0,1-.048-.814l-.054-11.288,3.839-.6.065,11.194a5.481,5.481,0,0,0,.142,1.288,2.9,2.9,0,0,0,1.409,1.949,4.113,4.113,0,0,0,2.72.355,4.5,4.5,0,0,0,1.429-.464,3.564,3.564,0,0,0,1.07-.864,3.648,3.648,0,0,0,.667-1.231,5.117,5.117,0,0,0,.229-1.564l-.1-11.864,3.821-.6.139,12.715a7.614,7.614,0,0,1-.419,2.682,6.3,6.3,0,0,1-1.294,2.156,7.143,7.143,0,0,1-2.121,1.561A10.011,10.011,0,0,1,6053.682,3245.53Z" transform="translate(-6044.981 -3225.53)"/></g><g transform="translate(161.834 13.359)"><path class="b" d="M6126.9,3230.249a2.823,2.823,0,0,0,.671.979,3.473,3.473,0,0,0,1.011.663,4.4,4.4,0,0,0,1.261.328,5.3,5.3,0,0,0,1.431-.04,5.41,5.41,0,0,0,1.369-.391,3.245,3.245,0,0,0,.979-.649,2.1,2.1,0,0,0,.532-.855,1.837,1.837,0,0,0,.029-.993,1.8,1.8,0,0,0-.317-.681,2.1,2.1,0,0,0-.613-.525,3.981,3.981,0,0,0-.967-.385,10.617,10.617,0,0,0-1.361-.265l-2.025-.282a8.708,8.708,0,0,1-1.978-.5,6.16,6.16,0,0,1-1.575-.883,5.068,5.068,0,0,1-1.135-1.239,4.912,4.912,0,0,1-.656-1.57,4.749,4.749,0,0,1,.021-2.336,5,5,0,0,1,1.085-2.01,6.748,6.748,0,0,1,1.989-1.52,8.873,8.873,0,0,1,2.737-.869,9.167,9.167,0,0,1,2.834-.027,7.419,7.419,0,0,1,2.417.788,6.19,6.19,0,0,1,1.838,1.5,5.566,5.566,0,0,1,1.091,2.133l-3.58.564a3.02,3.02,0,0,0-.616-.954,3.187,3.187,0,0,0-.925-.669,3.825,3.825,0,0,0-1.167-.338,4.663,4.663,0,0,0-1.341.026,4.464,4.464,0,0,0-1.2.355,3.077,3.077,0,0,0-.888.6,2.028,2.028,0,0,0-.5.792,1.643,1.643,0,0,0-.037.9,1.944,1.944,0,0,0,.873,1.2,5.1,5.1,0,0,0,2.089.653l1.995.272a11.809,11.809,0,0,1,2.193.5,6.267,6.267,0,0,1,1.645.833,4.359,4.359,0,0,1,1.131,1.2,5.189,5.189,0,0,1,.651,1.6,5.255,5.255,0,0,1,.022,2.5,5,5,0,0,1-1.106,2.111,6.728,6.728,0,0,1-2.111,1.578,10.339,10.339,0,0,1-2.99.912,10.2,10.2,0,0,1-2.934.065,7.588,7.588,0,0,1-2.486-.747,5.974,5.974,0,0,1-1.9-1.515,6.315,6.315,0,0,1-1.175-2.236Z" transform="translate(-6123.213 -3216.099)"/></g><g transform="translate(178.475 10.422)"><path class="b" d="M6192.639,3224.4l-12.071,1.914-.363-18.393,11.969-1.884.1,3.26-8.172,1.288.05,4.287,7.735-1.221.085,3.039-7.732,1.222.054,4.492,8.224-1.3Z" transform="translate(-6180.204 -3206.039)"/></g><g transform="translate(192.485 8.318)"><path class="b" d="M6245.106,3208.984a11.021,11.021,0,0,1-.314,3.436,7.428,7.428,0,0,1-1.3,2.669,6.956,6.956,0,0,1-2.245,1.859,9.969,9.969,0,0,1-3.145,1.007,9.156,9.156,0,0,1-3.274-.042,7.677,7.677,0,0,1-2.793-1.151,7.891,7.891,0,0,1-2.129-2.141,9.138,9.138,0,0,1-1.3-3,14.271,14.271,0,0,1-.422-3.153,11.355,11.355,0,0,1,.3-2.845,9.325,9.325,0,0,1,.961-2.453,8.246,8.246,0,0,1,3.7-3.419,9.654,9.654,0,0,1,2.641-.8,9.153,9.153,0,0,1,2.92,0,8.438,8.438,0,0,1,2.6.853,7.061,7.061,0,0,1,2.019,1.58,5.517,5.517,0,0,1,1.186,2.165.968.968,0,0,1,.054.188c.014.07.029.142.047.216l-3.679.581a2.951,2.951,0,0,0-.628-1.11,3.435,3.435,0,0,0-1.032-.778,4.247,4.247,0,0,0-1.347-.4,5.425,5.425,0,0,0-1.559.03,4.493,4.493,0,0,0-2.156.931,5.166,5.166,0,0,0-1.447,1.863,7.15,7.15,0,0,0-.628,2.584,10.116,10.116,0,0,0,.3,3.094,6.113,6.113,0,0,0,.746,1.815,4.663,4.663,0,0,0,1.169,1.282,4,4,0,0,0,1.516.691,4.7,4.7,0,0,0,1.779.039,5.391,5.391,0,0,0,1.6-.5,4.106,4.106,0,0,0,1.211-.91,3.8,3.8,0,0,0,.978-2.736l-.014-.318-3.853.609-.1-2.872,7.545-1.191Z" transform="translate(-6228.184 -3198.833)"/></g><g transform="translate(211.452 4.73)"><path class="b" d="M6302.322,3206.364a9.969,9.969,0,0,1-3.1.042,7.358,7.358,0,0,1-2.536-.857,6.226,6.226,0,0,1-1.863-1.617,6.059,6.059,0,0,1-1.072-2.239c-.062-.246-.113-.5-.154-.769a6.718,6.718,0,0,1-.072-.806l-.386-11.186,3.8-.6.395,11.093a5.545,5.545,0,0,0,.18,1.276,3,3,0,0,0,1.461,1.932,4.164,4.164,0,0,0,2.719.351,4.389,4.389,0,0,0,1.41-.46,3.389,3.389,0,0,0,1.039-.857,3.46,3.46,0,0,0,.627-1.219,4.993,4.993,0,0,0,.184-1.551l-.445-11.757,3.787-.6.514,12.6a7.454,7.454,0,0,1-.339,2.658,6.013,6.013,0,0,1-1.227,2.136,6.779,6.779,0,0,1-2.065,1.547A9.762,9.762,0,0,1,6302.322,3206.364Z" transform="translate(-6293.139 -3186.545)"/></g><g transform="translate(229.634 3.039)"><path class="b" d="M6355.407,3181.971l7.106-1.118a7.12,7.12,0,0,1,2.373.006,6.1,6.1,0,0,1,2.051.746,5.5,5.5,0,0,1,1.574,1.392,5.437,5.437,0,0,1,.945,1.944,5.791,5.791,0,0,1,.187,1.927,5.55,5.55,0,0,1-.442,1.807,5.483,5.483,0,0,1-1.047,1.573,6.053,6.053,0,0,1-1.611,1.211l4.288,6.461-4.071.645-3.841-6.087-3.226.51.273,6.654-3.812.6Zm4.133,8.082,3.3-.521a4.524,4.524,0,0,0,1.445-.464,3.094,3.094,0,0,0,1-.82,2.5,2.5,0,0,0,.493-1.089,2.906,2.906,0,0,0-.067-1.286,2.513,2.513,0,0,0-1.154-1.62,3.136,3.136,0,0,0-2.115-.3l-3.091.487Z" transform="translate(-6355.407 -3180.756)"/></g><g transform="translate(245.52 0)"><path class="b" d="M6420.106,3189.318a9.079,9.079,0,0,1-3.369-.062,8.438,8.438,0,0,1-2.881-1.19,8.336,8.336,0,0,1-2.212-2.139,8.85,8.85,0,0,1-1.35-2.9,13.674,13.674,0,0,1-.475-3.128,11.389,11.389,0,0,1,.254-2.823,8.851,8.851,0,0,1,.926-2.435,8.365,8.365,0,0,1,1.534-1.969,8.086,8.086,0,0,1,2.079-1.42,9.7,9.7,0,0,1,5.933-.726,8.135,8.135,0,0,1,5.035,3.293,9,9,0,0,1,1.351,2.876,13.99,13.99,0,0,1,.5,3.125,11.042,11.042,0,0,1-.233,2.835,9.118,9.118,0,0,1-.913,2.451,8.069,8.069,0,0,1-3.607,3.414A9.141,9.141,0,0,1,6420.106,3189.318Zm3.045-11.729a6.038,6.038,0,0,0-.788-1.774,4.966,4.966,0,0,0-1.2-1.275,4.237,4.237,0,0,0-1.511-.7,4.6,4.6,0,0,0-3.86.875,5.067,5.067,0,0,0-1.424,1.867,7.217,7.217,0,0,0-.6,2.559,9.335,9.335,0,0,0,.332,3.01,6.055,6.055,0,0,0,.785,1.79,4.938,4.938,0,0,0,1.2,1.278,4.185,4.185,0,0,0,1.524.705,4.47,4.47,0,0,0,1.759.054,4.4,4.4,0,0,0,2.131-.932,5.084,5.084,0,0,0,1.421-1.867,7.061,7.061,0,0,0,.592-2.561A9.526,9.526,0,0,0,6423.151,3177.589Z" transform="translate(-6409.814 -3170.346)"/></g><g transform="translate(0 69.196)"><path class="b" d="M5574.361,3428.351l-5.385-18.273,4.162-.663,3.63,13.99.234-.038,4.854-15.341,4.4-.7-7.131,20.262Z" transform="translate(-5568.976 -3407.324)"/></g><g transform="translate(18.284 66.932)"><path class="b" d="M5644.061,3418.789l-12.468,2,.855-19.253,12.358-1.969-.11,3.411-8.438,1.346-.235,4.487,7.988-1.276-.115,3.182-7.985,1.277-.245,4.7,8.494-1.361Z" transform="translate(-5631.593 -3399.568)"/></g><g transform="translate(33.532 63.908)"><path class="b" d="M5696.18,3409.028l.279-8.054-8.4,1.344-.306,8.063-3.942.633.737-19.217,3.925-.625-.3,7.714,8.386-1.34.273-7.706,3.919-.625-.612,19.178Z" transform="translate(-5683.813 -3389.215)"/></g><g transform="translate(53.064 62.778)"><path class="b" d="M5750.7,3405.139l.587-19.17,3.916-.624-.557,19.16Z" transform="translate(-5750.704 -3385.345)"/></g><g transform="translate(59.622 60.519)"><path class="b" d="M5786.455,3383.953a3.8,3.8,0,0,0-.6-1.339,3.437,3.437,0,0,0-1.016-.943,3.838,3.838,0,0,0-1.354-.494,4.915,4.915,0,0,0-1.6.006,4.739,4.739,0,0,0-2.243.982,5.891,5.891,0,0,0-1.586,1.977,8.275,8.275,0,0,0-.8,2.731,10.517,10.517,0,0,0,.127,3.243,6.257,6.257,0,0,0,.644,1.876,4.318,4.318,0,0,0,1.086,1.324,3.754,3.754,0,0,0,1.455.716,4.382,4.382,0,0,0,1.756.05,5.409,5.409,0,0,0,1.48-.457,4.632,4.632,0,0,0,1.21-.824,4.438,4.438,0,0,0,.854-1.118,4.048,4.048,0,0,0,.438-1.342l3.862-.618a7.756,7.756,0,0,1-.57,2.827,7.485,7.485,0,0,1-1.526,2.343,8.56,8.56,0,0,1-2.361,1.722,10.514,10.514,0,0,1-3.075.966,8.978,8.978,0,0,1-3.3-.043,7.22,7.22,0,0,1-2.737-1.184,7.343,7.343,0,0,1-2.017-2.207,9.214,9.214,0,0,1-1.145-3.124,14.15,14.15,0,0,1-.111-4.836,10.945,10.945,0,0,1,1.443-4.028,9.437,9.437,0,0,1,2.783-2.919,9.575,9.575,0,0,1,3.929-1.511,8.932,8.932,0,0,1,3.057.018,7.771,7.771,0,0,1,2.632.977,6.739,6.739,0,0,1,1.968,1.793,6.011,6.011,0,0,1,1.062,2.454l.053.275a1.564,1.564,0,0,1,.028.279l-3.789.6Z" transform="translate(-5773.167 -3377.608)"/></g><g transform="translate(78.936 56.852)"><path class="b" d="M5847.946,3385.725a9.96,9.96,0,0,1-3.167.042,7.034,7.034,0,0,1-2.541-.895,5.92,5.92,0,0,1-1.812-1.688,6.019,6.019,0,0,1-.97-2.335q-.073-.386-.115-.8a6.8,6.8,0,0,1-.029-.842l.224-11.67,3.917-.624-.21,11.573a5.745,5.745,0,0,0,.113,1.331,2.9,2.9,0,0,0,1.384,2.016,4.079,4.079,0,0,0,2.755.367,4.622,4.622,0,0,0,1.464-.48,3.775,3.775,0,0,0,1.109-.894,3.919,3.919,0,0,0,.708-1.272,5.445,5.445,0,0,0,.271-1.617l.2-12.264,3.9-.621-.173,13.143a8.113,8.113,0,0,1-.492,2.773,6.743,6.743,0,0,1-1.369,2.229,7.507,7.507,0,0,1-2.194,1.614A10.247,10.247,0,0,1,5847.946,3385.725Z" transform="translate(-5839.31 -3365.05)"/></g><g transform="translate(97.63 55.738)"><path class="b" d="M5915.514,3378.964l-12.182,1.955.247-19.065,3.882-.618-.2,15.565,8.258-1.323Z" transform="translate(-5903.332 -3361.235)"/></g><g transform="translate(110.71 52.534)"><path class="b" d="M5960.208,3364.555l-6.543,1.049-1.479,4.794-4.061.652,6.708-20.079,4.461-.71,6.3,17.987-4,.642Zm-5.7-2.164,4.892-.782-2.257-7.067-.243.039Z" transform="translate(-5948.126 -3350.259)"/></g><g transform="translate(130.047 49.972)"><path class="b" d="M6014.352,3342.745l7.285-1.161a7.117,7.117,0,0,1,2.417.007,5.925,5.925,0,0,1,2.059.775,5.331,5.331,0,0,1,1.546,1.447,5.441,5.441,0,0,1,.882,2.02,5.988,5.988,0,0,1-1.547,5.513,6.54,6.54,0,0,1-1.692,1.259l4.1,6.714-4.174.67-3.66-6.325-3.308.53,0,6.913-3.91.627Zm3.873,8.4,3.381-.54a4.7,4.7,0,0,0,1.49-.481,3.364,3.364,0,0,0,1.052-.852,2.732,2.732,0,0,0,.547-1.131,3.058,3.058,0,0,0-.014-1.336,2.478,2.478,0,0,0-1.109-1.683,3.088,3.088,0,0,0-2.143-.312l-3.168.5Z" transform="translate(-6014.352 -3341.485)"/></g><g transform="translate(150.933 45.256)"><path class="b" d="M6092.493,3345.888l-.064-7-6.548-10.9,4.022-.641,4.23,7.264.229-.037,3.948-8.567,4.2-.668-6.209,13.092.091,6.835Z" transform="translate(-6085.881 -3325.336)"/></g><g transform="translate(174.802 43.49)"><path class="b" d="M6180.035,3336.844l-12.069,1.937-.342-18.882,3.846-.612.279,15.416,8.182-1.312Z" transform="translate(-6167.624 -3319.286)"/></g><g transform="translate(188.967 41.234)"><path class="b" d="M6228.633,3329.088l-12.047,1.933-.451-18.848,3.84-.612.367,15.389,8.167-1.309Z" transform="translate(-6216.135 -3311.561)"/></g><g transform="translate(203.107 37.667)"><path class="b" d="M6277.313,3318.131l-12.192,1.956-.558-18.815,12.088-1.926.139,3.334-8.253,1.316.1,4.385,7.811-1.248.117,3.109-7.808,1.249.1,4.595,8.307-1.331Z" transform="translate(-6264.563 -3299.347)"/></g><g transform="translate(216.605 34.761)"><path class="b" d="M6317.669,3309.86l-6.882-17.785,4.054-.646,4.783,13.616.229-.036,3.482-14.933,4.288-.683-5.311,19.722Z" transform="translate(-6310.787 -3289.394)"/></g><g transform="translate(234.743 32.949)"><path class="b" d="M6384.583,3297.266l-6.446,1.032-1.232,4.72-4,.642,5.673-19.771,4.395-.7,7.138,17.711-3.943.633Zm-5.766-2.131,4.82-.771-2.589-6.959-.239.039Z" transform="translate(-6372.905 -3283.189)"/></g><g transform="translate(251.802 29.497)"><path class="b" d="M6437.726,3291.527l-.771-15.37-5.439.868-.188-3.319,14.679-2.338.208,3.313-5.433.867.795,15.363Z" transform="translate(-6431.326 -3271.367)"/></g><g transform="translate(268.521 27.262)"><path class="b" d="M6501.734,3282.341l-12.1,1.94-1.052-18.66,11.992-1.91.227,3.307-8.187,1.306.21,4.349,7.75-1.238.2,3.084-7.745,1.239.221,4.557,8.24-1.32Z" transform="translate(-6488.587 -3263.711)"/></g></g><g transform="translate(5261.393 3236.75)"><g transform="translate(0)"><path class="a" d="M5728.35,3508.506l5.3-.894,3.025,36.837-5.339,1.017-.183-2.252a11.836,11.836,0,0,1-6.933,4.236,9.835,9.835,0,0,1-8.222-1.734,10.345,10.345,0,0,1-3.795-7.684,12.229,12.229,0,0,1,2.538-8.635,11.728,11.728,0,0,1,7.566-4.631,9.481,9.481,0,0,1,7.5,1.774Zm-10.606,28.507a6.462,6.462,0,0,0,2.192,4.718,5.591,5.591,0,0,0,4.794,1.1,7.241,7.241,0,0,0,4.652-2.8,7.7,7.7,0,0,0,1.423-5.311,6.345,6.345,0,0,0-2.222-4.628,5.832,5.832,0,0,0-4.9-1.053,6.974,6.974,0,0,0-4.477,2.773A7.521,7.521,0,0,0,5717.743,3537.012Z" transform="translate(-5712.164 -3507.611)"/><g transform="translate(29.155 10.474)"><path class="a" d="M5828.807,3544.4l5.144-.915,1.872,20.949-5.166.982-.195-2.211a11.6,11.6,0,0,1-6.636,4.131,9.543,9.543,0,0,1-8.025-1.716,10.332,10.332,0,0,1-3.739-7.555,12.041,12.041,0,0,1,2.385-8.494,11.293,11.293,0,0,1,7.316-4.51,9.135,9.135,0,0,1,7.257,1.766Zm-11.389,12.68a6.465,6.465,0,0,0,2.163,4.639,5.4,5.4,0,0,0,4.653,1.095,6.909,6.909,0,0,0,4.484-2.737,7.579,7.579,0,0,0,1.335-5.212,6.339,6.339,0,0,0-2.19-4.551,5.629,5.629,0,0,0-4.754-1.048,6.645,6.645,0,0,0-4.313,2.712A7.4,7.4,0,0,0,5817.417,3557.077Z" transform="translate(-5812.013 -3543.482)"/></g><g transform="translate(20.499 0)"><path class="a" d="M5783.354,3507.611l2.7,1.739-1.121,1.68-2.565-.533Z" transform="translate(-5782.367 -3507.611)"/></g><g transform="translate(49.759 10.474)"><path class="a" d="M5883.91,3543.481l2.7,1.738-1.393,2.71-2.633-.331-.006-.351Z" transform="translate(-5882.576 -3543.481)"/></g><g transform="translate(2.698 1.738)"><path class="c" d="M5737.589,3514.459l5.3-.895,3.026,36.837-5.339,1.016-.182-2.251a11.84,11.84,0,0,1-6.933,4.236,9.835,9.835,0,0,1-8.222-1.733,10.341,10.341,0,0,1-3.794-7.685,12.225,12.225,0,0,1,2.538-8.635,11.73,11.73,0,0,1,7.566-4.631,9.485,9.485,0,0,1,7.5,1.774Zm-10.607,28.506a6.465,6.465,0,0,0,2.193,4.718,5.593,5.593,0,0,0,4.794,1.1,7.244,7.244,0,0,0,4.652-2.8,7.7,7.7,0,0,0,1.422-5.311,6.349,6.349,0,0,0-2.221-4.628,5.832,5.832,0,0,0-4.9-1.053,6.973,6.973,0,0,0-4.477,2.773A7.523,7.523,0,0,0,5726.981,3542.966Z" transform="translate(-5721.403 -3513.565)"/><g transform="translate(29.155 10.474)"><path class="c" d="M5838.046,3550.35l5.144-.915,1.872,20.949-5.165.982-.195-2.211a11.6,11.6,0,0,1-6.636,4.131,9.545,9.545,0,0,1-8.025-1.716,10.335,10.335,0,0,1-3.738-7.556,12.043,12.043,0,0,1,2.385-8.494,11.294,11.294,0,0,1,7.316-4.51,9.132,9.132,0,0,1,7.257,1.766Zm-11.389,12.68a6.461,6.461,0,0,0,2.162,4.639,5.4,5.4,0,0,0,4.653,1.095,6.906,6.906,0,0,0,4.485-2.737,7.579,7.579,0,0,0,1.335-5.212,6.343,6.343,0,0,0-2.189-4.551,5.631,5.631,0,0,0-4.755-1.048,6.647,6.647,0,0,0-4.313,2.712A7.4,7.4,0,0,0,5826.658,3563.03Z" transform="translate(-5821.252 -3549.435)"/></g></g></g><g transform="translate(8.776 39.882)"><g transform="translate(46.784)"><path class="a" d="M5905.439,3644.2l2.167,2.022-1.027,2.3-4.14-.387.439-2.256Z" transform="translate(-5902.439 -3644.196)"/></g><g transform="translate(0 0.035)"><g transform="translate(0 0)"><rect class="a" width="50.392" height="4.088" transform="matrix(0.988, -0.154, 0.154, 0.988, 0, 7.754)"/></g><g transform="translate(0.645 10.29)"><path class="a" d="M5744.427,3681.056l1.891,2.283.426-1.165.351-2.535-1.253-.082Z" transform="translate(-5744.427 -3679.558)"/></g><g transform="translate(1.883 2.25)"><rect class="c" width="50.392" height="4.088" transform="matrix(0.988, -0.154, 0.154, 0.988, 0, 7.754)"/></g></g></g></g><g transform="translate(5337.865 3198.596)"><g transform="translate(0 38.852)"><path class="c" d="M6015.807,3527.983a15.184,15.184,0,0,0-13.3-3.766,16.54,16.54,0,0,0-5.917,2.244,16,16,0,0,0-4.374,3.986,15.462,15.462,0,0,0-2.9,11.291,14.674,14.674,0,0,0,1.907,5.688,13.531,13.531,0,0,0,3.756,4.12,14.2,14.2,0,0,0,5.129,2.3,15.157,15.157,0,0,0,6.027.13q6.938-1.176,11.829-7.809l1.955,16.424-1.421.737a46.879,46.879,0,0,1-5.994,2.671,32.362,32.362,0,0,1-5.588,1.457,29.541,29.541,0,0,1-11.179-.25,27.438,27.438,0,0,1-17.454-12.048,26.117,26.117,0,0,1-3.942-10.871,27.527,27.527,0,0,1,.813-11.743,30.555,30.555,0,0,1,5.168-10.118,32.052,32.052,0,0,1,8.572-7.651,31.7,31.7,0,0,1,10.988-4.228,32.037,32.037,0,0,1,6.729-.528,40.165,40.165,0,0,1,7.157.9Z" transform="translate(-5974.06 -3510.001)"/></g><g transform="translate(45.158 28.087)"><path class="c" d="M6143.652,3479.707l3.306,30.033q.262,2.384.725,4.838a12.2,12.2,0,0,0,1.626,4.3,7,7,0,0,0,3.338,2.756,10.84,10.84,0,0,0,5.885.281,11.573,11.573,0,0,0,5.6-2.228,8.846,8.846,0,0,0,2.676-3.794,12.992,12.992,0,0,0,.725-4.731q-.064-2.539-.306-4.944l-3.064-30.285,15.218-2.8,3.07,32.45q1.215,12.844-4.408,19.7-5.578,6.829-18.218,8.905-12.561,2.072-19.241-2.656c-4.468-3.152-7.19-8.9-8.168-17.289l-3.706-31.789Z" transform="translate(-6128.714 -3473.133)"/></g><g transform="translate(104.102 18.583)"><path class="c" d="M6330.711,3477.135a29.221,29.221,0,0,1,1.36-12.022,33.207,33.207,0,0,1,5.917-10.693,36.215,36.215,0,0,1,9.887-8.3,41.03,41.03,0,0,1,13.315-4.814,37.568,37.568,0,0,1,13.756-.16,28.736,28.736,0,0,1,11.229,4.523,25.286,25.286,0,0,1,7.692,8.417,26.254,26.254,0,0,1,3.283,11.452,29.566,29.566,0,0,1-1.76,12.21,33.338,33.338,0,0,1-6.339,10.593,36.912,36.912,0,0,1-10.132,7.986,41.072,41.072,0,0,1-13.1,4.422,37.228,37.228,0,0,1-13.375-.036,28.309,28.309,0,0,1-10.764-4.429,25.531,25.531,0,0,1-7.5-8.084A26.137,26.137,0,0,1,6330.711,3477.135Zm16.047-2.8a13.313,13.313,0,0,0,1.857,5.909,13.712,13.712,0,0,0,4.022,4.243,14.951,14.951,0,0,0,5.573,2.3,17.783,17.783,0,0,0,6.522.05,19.924,19.924,0,0,0,11.548-6.387,17.769,17.769,0,0,0,3.366-5.557,15.066,15.066,0,0,0,.925-6.457,13.373,13.373,0,0,0-1.812-6.015,13.515,13.515,0,0,0-4.1-4.327,15.469,15.469,0,0,0-5.713-2.317,17.872,17.872,0,0,0-6.627,0,19.69,19.69,0,0,0-6.417,2.339,19.23,19.23,0,0,0-5.1,4.231,17.977,17.977,0,0,0-3.227,5.583A14.984,14.984,0,0,0,6346.758,3474.333Z" transform="translate(-6330.581 -3440.586)"/></g><g transform="translate(168.433 6.783)"><path class="c" d="M6581.194,3415.618l2.275,44.767-15.963,2.64-2.57-44.484-13.229,2.379-.812-12.8,43.194-7.947.587,13.022Z" transform="translate(-6550.895 -3400.172)"/></g><g transform="translate(208.475 0)"><path class="c" d="M6732.288,3425.309l-23.612,3.98-3.364,10.556-17.285,2.859,21.607-62.373,18.413-3.387,26.158,54.816-17.823,2.948Zm-4.759-10.747-8.126-18.27-6.785,20.838Z" transform="translate(-6688.027 -3376.943)"/></g><g transform="translate(3.711 105.524)"><path class="c" d="M6015.293,3762.955l28.3-4.345a69.216,69.216,0,0,1,.484,7.485,25.244,25.244,0,0,1-4.085,14.022,24.762,24.762,0,0,1-5.511,5.963,30.883,30.883,0,0,1-7.28,4.188,35.882,35.882,0,0,1-8.581,2.306,32.727,32.727,0,0,1-11.635-.271,25.718,25.718,0,0,1-9.506-4.08,24.13,24.13,0,0,1-6.848-7.463,27.682,27.682,0,0,1-3.55-10.475,28.718,28.718,0,0,1,.507-11.132,24.793,24.793,0,0,1,4.6-9.405,27.9,27.9,0,0,1,8.342-6.988,35.153,35.153,0,0,1,11.694-3.926,31.019,31.019,0,0,1,15.565,1.089,23.772,23.772,0,0,1,11.652,9.27l-12.985,7.4a12.581,12.581,0,0,0-5.657-5.314,12.756,12.756,0,0,0-7.09-.767,14.875,14.875,0,0,0-5.638,2.037,13.042,13.042,0,0,0-4.008,3.889,15.587,15.587,0,0,0-2.209,5.416,19.322,19.322,0,0,0-.176,6.613,19.122,19.122,0,0,0,1.684,5.816,12.942,12.942,0,0,0,3.295,4.329,11.837,11.837,0,0,0,4.82,2.436,15.97,15.97,0,0,0,6.282.191,18.66,18.66,0,0,0,3.958-1.023,11.468,11.468,0,0,0,3.311-1.916,8.659,8.659,0,0,0,2.25-2.89,9.928,9.928,0,0,0,.914-3.966l-11.6,1.74Z" transform="translate(-5986.768 -3738.334)"/></g><g transform="translate(63.412 97.898)"><path class="c" d="M6243.389,3761.167l-18.224,2.621-15.89-17.671,2.071,19.658L6197,3767.84l-5.765-51.541,22.867-3.689a23.975,23.975,0,0,1,8.461-.034,15.274,15.274,0,0,1,6.236,2.626,13.733,13.733,0,0,1,4,4.666,16.326,16.326,0,0,1,1.771,6.14,15.361,15.361,0,0,1-2.229,10.216,17.338,17.338,0,0,1-8.729,6.41Zm-35.033-23.767,2.756-.423a11.945,11.945,0,0,0,6.483-2.682,5.885,5.885,0,0,0,1.845-5.152,5.252,5.252,0,0,0-2.815-4.448q-2.5-1.31-6.856-.624l-2.77.437Z" transform="translate(-6191.23 -3712.217)"/></g><g transform="translate(112.569 88.559)"><path class="c" d="M6399.482,3724.034l-21.491,3.155-2.661,9.5-15.753,2.266,17.317-56.023,16.728-2.7,26.214,50.054-16.213,2.332Zm-4.8-9.814-8.192-16.677-5.375,18.714Z" transform="translate(-6359.576 -3680.232)"/></g><g transform="translate(163.923 79.036)"><path class="c" d="M6564.751,3661.885l2.3,42.044-15.432,2.219-2.58-41.791-12.786,2.013-.809-12.022,41.726-6.731.6,12.218Z" transform="translate(-6535.448 -3647.618)"/></g><g transform="translate(208.671 75.948)"><path class="c" d="M6704.814,3637.045l2.234,54.869-15.743,2.265-2.6-54.534Z" transform="translate(-6688.7 -3637.045)"/></g><g transform="translate(232.83 68.908)"><path class="c" d="M6807.438,3627.459a18.237,18.237,0,0,0-5.462-2.034,15.3,15.3,0,0,0-5.238-.112,10.34,10.34,0,0,0-5.161,2.164,4.694,4.694,0,0,0-1.9,3.813,2.857,2.857,0,0,0,1.073,2.293,7.494,7.494,0,0,0,2.675,1.259,22.13,22.13,0,0,0,3.71.654q2.063.2,4.089.484,8.112,1.134,11.941,4.53t3.934,9.734a19.116,19.116,0,0,1-1.5,7.936,19.368,19.368,0,0,1-4.642,6.551,26.686,26.686,0,0,1-7.545,4.859,40.73,40.73,0,0,1-31.976-.173l6.437-12.375a24.87,24.87,0,0,0,7.279,3.139,18.463,18.463,0,0,0,7.039.345,10.265,10.265,0,0,0,5.866-2.468,5.345,5.345,0,0,0,1.856-3.931,3.634,3.634,0,0,0-2.259-3.513,12.341,12.341,0,0,0-3.069-.972q-1.886-.378-4.56-.782-3.173-.4-6.22-1.007a17.581,17.581,0,0,1-5.455-2,11.3,11.3,0,0,1-3.945-3.85,13.213,13.213,0,0,1-1.691-6.576,19.177,19.177,0,0,1,1.254-7.748,19.979,19.979,0,0,1,4.114-6.5,23.582,23.582,0,0,1,6.724-4.887,31.423,31.423,0,0,1,9.077-2.829,44.069,44.069,0,0,1,9.921-.427,42.682,42.682,0,0,1,10.015,1.848Z" transform="translate(-6771.436 -3612.934)"/></g></g><path class="b" d="M6278.9,3282.512l3.91-.529,1.568-4.657-3.654.325Z" transform="translate(-852.022 -107.818)"/></g></svg>