<svg xmlns="http://www.w3.org/2000/svg" width="360" height="164.687" viewBox="0 0 360 164.687"><defs><style>.a{fill:#ea0d90;}.b,.h{fill:#fff;}.c{fill:#0c1e39;}.d{fill:#fc0;}.e{fill:#fbbf00;}.f{fill:#f82900;}.g{fill:#ff7619;}.h{fill-rule:evenodd;}.i{fill:#ffde6e;}</style></defs><g transform="translate(-1231.95 -1969.547)"><g transform="translate(1310.172 1985.331)"><g transform="translate(0)"><path class="a" d="M1395.029,2013.47v2.735c0,3.294-1.8,5.177-5.283,5.177s-5.283-1.882-5.283-5.177V2005.5c0-3.294,1.8-5.177,5.283-5.177s5.283,1.882,5.283,5.177v2h-3.352v-2.206c0-1.47-.709-2.029-1.837-2.029s-1.837.558-1.837,2.029v11.118c0,1.47.709,2,1.837,2s1.837-.529,1.837-2v-2.943Z" transform="translate(-1384.464 -2000.323)"/></g><g transform="translate(11.21 0.237)"><path class="a" d="M1410.8,2014.548l-4.48-13.763h3.706l2.707,9.382,2.707-9.382h3.385l-4.48,13.763v6.821H1410.8Z" transform="translate(-1406.321 -2000.785)"/></g><g transform="translate(25.135 0.233)"><path class="a" d="M1444.073,2005.516v.735c0,2.118-.709,3.47-2.288,4.147,1.9.677,2.643,2.236,2.643,4.411v1.677c0,3.176-1.837,4.882-5.382,4.882h-5.575v-20.589h5.35C1442.492,2000.781,1444.073,2002.339,1444.073,2005.516Zm-7.058-1.8v5.441h1.385c1.321,0,2.127-.529,2.127-2.177v-1.145c0-1.471-.548-2.118-1.8-2.118Zm0,8.383v6.324h2.029c1.193,0,1.837-.5,1.837-2.029v-1.8c0-1.911-.677-2.5-2.288-2.5Z" transform="translate(-1433.471 -2000.778)"/></g><g transform="translate(38.215 0.237)"><path class="a" d="M1462.521,2009.459h4.867v2.941h-4.867v6.031h6.123v2.941h-9.669v-20.588h9.669v2.941h-6.123Z" transform="translate(-1458.974 -2000.785)"/></g><g transform="translate(50.074 0.238)"><path class="a" d="M1489.509,2021.373a5.871,5.871,0,0,1-.322-2.53v-3.235c0-1.912-.709-2.616-2.321-2.616h-1.225v8.383H1482.1v-20.588h5.349c3.675,0,5.253,1.558,5.253,4.735v1.618c0,2.118-.741,3.5-2.32,4.177,1.772.676,2.353,2.235,2.353,4.382v3.177a5.568,5.568,0,0,0,.387,2.5Zm-3.865-17.647v6.323h1.385c1.321,0,2.127-.529,2.127-2.178v-2.027c0-1.47-.548-2.118-1.805-2.118Z" transform="translate(-1482.097 -2000.787)"/></g></g><g transform="translate(1388.021 2017.156)"><g transform="translate(0 0)"><path class="b" d="M1539.392,2068.653a3.14,3.14,0,1,1,3.14-3.141,3.14,3.14,0,0,1-3.14,3.141Zm0-4.915a1.775,1.775,0,1,0,1.774,1.775h0A1.778,1.778,0,0,0,1539.392,2063.738Z" transform="translate(-1536.252 -2062.373)"/></g></g><g transform="translate(1274.023 2021.699)"><g transform="translate(58.561 0)"><path class="a" d="M1437.772,2071.231h15.738a4.813,4.813,0,0,1,4.826,6.155l-1.98,9.17a8.057,8.057,0,0,1-7.485,6.154h-15.738a4.814,4.814,0,0,1-4.826-6.154l1.98-9.17A8.058,8.058,0,0,1,1437.772,2071.231Z" transform="translate(-1428.163 -2071.231)"/></g><g transform="translate(49.896 27.825)"><g transform="translate(4.001 0.037)"><path class="c" d="M1424.705,2139.66a8.344,8.344,0,0,0,7.613-4.832h-3.709a3.922,3.922,0,0,1-3.282,1.776c-2.072,0-3.158-1.539-2.63-3.985s2.281-3.985,4.351-3.985a2.359,2.359,0,0,1,2.516,1.775h3.709c-.141-3-2.226-4.852-5.521-4.852a8.759,8.759,0,0,0-8.489,7.061C1418.37,2136.763,1420.62,2139.66,1424.705,2139.66Z" transform="translate(-1419.07 -2125.557)"/></g><g transform="translate(19.26 0.197)"><path class="c" d="M1457.224,2134.154a2.933,2.933,0,0,1-3.005,2.583c-1.6,0-2.2-.948-1.846-2.583l1.79-8.285h-3.377l-1.784,8.263c-.827,3.827,1.271,5.723,4.487,5.723a7.046,7.046,0,0,0,7.114-5.723l1.784-8.263h-3.376Z" transform="translate(-1448.82 -2125.869)"/></g><g transform="translate(32.936)"><path class="c" d="M1481.272,2139.667a9.285,9.285,0,0,0,8.6-7.121c.83-3.917-1.676-7.078-5.6-7.062a9.287,9.287,0,0,0-8.592,7.081c-.92,3.828,1.421,7.008,5.228,7.1C1481.031,2139.669,1481.151,2139.67,1481.272,2139.667Zm2.4-11.125c2.211,0,3.313,1.559,2.781,4.025a4.705,4.705,0,0,1-4.519,4.025c-2.248,0-3.323-1.6-2.8-4.025a4.663,4.663,0,0,1,4.539-4.025Z" transform="translate(-1475.485 -2125.484)"/></g><g transform="translate(49.367 0.197)"><path class="c" d="M1508.782,2139.717h3.373l2.407-11.146h3.671l.584-2.7h-10.711l-.584,2.7h3.673Z" transform="translate(-1507.523 -2125.868)"/></g><g transform="translate(58.455 0.197)"><path class="c" d="M1535.3,2137.27l.3,2.446h3.569l-2.019-13.848h-3.905l-8,13.851h3.531l1.357-2.446Zm-.926-7.675.62,5.071h-3.412Z" transform="translate(-1525.242 -2125.868)"/></g><g transform="translate(0 18.582)"><path class="c" d="M1417.5,2170.392h4.281a4.312,4.312,0,0,1-3.882,2.447c-2.427,0-3.562-1.5-3.008-4.064a4.62,4.62,0,0,1,4.462-3.944,2.269,2.269,0,0,1,2.415,1.421h3.728c-.116-2.84-2.154-4.537-5.47-4.537a8.8,8.8,0,0,0-8.565,7.063c-.9,4.142,1.4,7.042,5.539,7.042a8.835,8.835,0,0,0,7.7-4.77l.677-3.136h-7.338Z" transform="translate(-1411.268 -2161.715)"/></g><g transform="translate(14.292 18.738)"><path class="c" d="M1451.934,2166.377c.519-2.406-.755-4.359-4.147-4.359h-5.663l-2.991,13.848h3.373l1.128-5.228h.808l1.753,5.228H1450l-2.013-5.485A5.336,5.336,0,0,0,1451.934,2166.377Zm-5.693,1.878h-2.093l.742-3.432h2.093c1.263,0,1.709.667,1.487,1.7a2.063,2.063,0,0,1-2.228,1.735Z" transform="translate(-1439.134 -2162.018)"/></g><g transform="translate(26.247 18.736)"><path class="c" d="M1470.444,2162.015l-8,13.851h3.532l1.356-2.446h5.168l.3,2.446h3.569l-2.022-13.848Zm-1.663,8.8,2.792-5.071.619,5.071Z" transform="translate(-1462.443 -2162.015)"/></g><g transform="translate(43.351 18.738)"><path class="c" d="M1495.793,2164.721h3.669l-2.407,11.146h3.373l2.407-11.146h3.671l.584-2.7h-10.713Z" transform="translate(-1495.793 -2162.019)"/></g><g transform="translate(53.352 18.739)"><path class="c" d="M1518.284,2162.021h3.373l-2.991,13.848h-3.373Z" transform="translate(-1515.293 -2162.021)"/></g><g transform="translate(59.588 18.543)"><path class="c" d="M1532.427,2165.6a1.579,1.579,0,0,1,1.692-1.262,1.17,1.17,0,0,1,1.309,1.012h0a1.181,1.181,0,0,1-.015.382h0l-.01.044h3.65c.432-2.643-1.278-4.141-4.293-4.141-2.9,0-5.365,1.459-5.932,4.084-1.1,4.911,6.122,3.532,5.568,6.1a1.774,1.774,0,0,1-1.9,1.3,1.24,1.24,0,0,1-1.4-1.451v0c.006-.042.012-.083.021-.126h-3.59c-.507,2.8,1.5,4.281,4.48,4.281,3.234,0,5.468-1.933,5.972-4.261C1538.987,2166.925,1531.907,2168.007,1532.427,2165.6Z" transform="translate(-1527.452 -2161.638)"/></g></g><g transform="translate(0 3.592)"><path class="c" d="M1316.108,2125.363c14.136-9.907,29.029-19.736,31.085-29.256.885-4.1-.4-6.732-4.428-6.732-3.946,0-6.937,3.1-8.091,8.438H1321.9c3.346-13.7,13.516-19.579,23.81-19.579,12.848,0,16.954,7.508,14.9,17.028-2.676,12.385-15.883,22.29-26.346,29.178h20.894l-2.324,10.756h-38.853Z" transform="translate(-1313.983 -2078.234)"/></g><g transform="translate(3.864 3.592)"><path class="b" d="M1323.639,2125.363c14.136-9.907,29.029-19.736,31.087-29.256.884-4.1-.4-6.732-4.429-6.732-3.949,0-6.937,3.1-8.091,8.438h-12.771c3.346-13.7,13.516-19.579,23.81-19.579,12.848,0,16.954,7.508,14.9,17.028-2.676,12.385-15.883,22.29-26.347,29.178h20.9l-2.324,10.758h-38.854Z" transform="translate(-1321.517 -2078.234)"/></g><g transform="translate(51.745 27.825)"><g transform="translate(4.001 0.037)"><path class="b" d="M1428.308,2139.66a8.347,8.347,0,0,0,7.613-4.833h-3.707a3.924,3.924,0,0,1-3.282,1.776c-2.071,0-3.158-1.539-2.629-3.986s2.28-3.985,4.352-3.985a2.36,2.36,0,0,1,2.516,1.776h3.709c-.141-3-2.228-4.852-5.522-4.852a8.758,8.758,0,0,0-8.488,7.062C1421.973,2136.761,1424.226,2139.66,1428.308,2139.66Z" transform="translate(-1422.675 -2125.556)"/></g><g transform="translate(19.263 0.197)"><path class="b" d="M1460.832,2134.154a2.933,2.933,0,0,1-3,2.583c-1.6,0-2.2-.948-1.846-2.583l1.79-8.285H1454.4l-1.784,8.263c-.827,3.827,1.271,5.723,4.486,5.723a7.046,7.046,0,0,0,7.114-5.723l1.784-8.263h-3.377Z" transform="translate(-1452.432 -2125.869)"/></g><g transform="translate(32.934)"><path class="b" d="M1484.876,2139.667a9.286,9.286,0,0,0,8.6-7.121c.83-3.917-1.676-7.078-5.6-7.062a9.287,9.287,0,0,0-8.592,7.081c-.92,3.828,1.421,7.008,5.231,7.1C1484.636,2139.669,1484.758,2139.669,1484.876,2139.667Zm2.4-11.125c2.212,0,3.314,1.559,2.781,4.025a4.705,4.705,0,0,1-4.519,4.025c-2.249,0-3.324-1.6-2.8-4.025a4.663,4.663,0,0,1,4.538-4.025Z" transform="translate(-1479.088 -2125.484)"/></g><g transform="translate(49.366 0.197)"><path class="b" d="M1512.387,2139.717h3.373l2.407-11.146h3.669l.584-2.7h-10.71l-.584,2.7h3.669Z" transform="translate(-1511.126 -2125.868)"/></g><g transform="translate(58.457 0.197)"><path class="b" d="M1538.908,2137.27l.3,2.446h3.568l-2.019-13.848h-3.906l-8,13.851h3.531l1.356-2.446Zm-.926-7.674.619,5.071h-3.412Z" transform="translate(-1528.851 -2125.868)"/></g><g transform="translate(0 18.582)"><path class="b" d="M1421.1,2170.392h4.281a4.314,4.314,0,0,1-3.882,2.447c-2.426,0-3.561-1.5-3.008-4.064a4.62,4.62,0,0,1,4.462-3.944,2.27,2.27,0,0,1,2.416,1.421h3.729c-.117-2.84-2.154-4.537-5.47-4.537a8.8,8.8,0,0,0-8.565,7.063c-.895,4.142,1.4,7.042,5.539,7.042a8.826,8.826,0,0,0,7.7-4.773l.677-3.136h-7.34Z" transform="translate(-1414.874 -2161.715)"/></g><g transform="translate(14.29 18.738)"><path class="b" d="M1455.538,2166.377c.52-2.406-.755-4.359-4.148-4.359h-5.662l-2.991,13.848h3.373l1.128-5.228h.809l1.753,5.228h3.807l-2.011-5.485A5.337,5.337,0,0,0,1455.538,2166.377Zm-5.693,1.878h-2.091l.741-3.432h2.092c1.263,0,1.709.667,1.487,1.7a2.062,2.062,0,0,1-2.228,1.735Z" transform="translate(-1442.737 -2162.018)"/></g><g transform="translate(26.247 18.736)"><path class="b" d="M1474.05,2162.015l-8,13.848h3.531l1.356-2.446h5.167l.3,2.446h3.569l-2.019-13.848Zm-1.663,8.8,2.792-5.071.619,5.071Z" transform="translate(-1466.049 -2162.015)"/></g><g transform="translate(43.35 18.738)"><path class="b" d="M1499.4,2164.721h3.671l-2.407,11.146h3.373l2.407-11.146h3.672l.584-2.7h-10.715Z" transform="translate(-1499.397 -2162.019)"/></g><g transform="translate(53.349 18.739)"><path class="b" d="M1521.885,2162.021h3.372l-2.99,13.848h-3.373Z" transform="translate(-1518.893 -2162.021)"/></g><g transform="translate(59.591 18.54)"><path class="b" d="M1536.033,2165.6a1.579,1.579,0,0,1,1.692-1.262,1.169,1.169,0,0,1,1.308,1.011h0a1.154,1.154,0,0,1-.015.382h0c0,.015,0,.031-.007.044h3.65c.432-2.643-1.275-4.142-4.293-4.142-2.9,0-5.365,1.46-5.932,4.085-1.1,4.909,6.122,3.531,5.568,6.1a1.774,1.774,0,0,1-1.9,1.3,1.241,1.241,0,0,1-1.4-1.452v0c.005-.041.012-.082.022-.125h-3.588c-.506,2.8,1.5,4.281,4.481,4.281,3.235,0,5.468-1.933,5.972-4.261C1542.592,2166.923,1535.515,2168,1536.033,2165.6Z" transform="translate(-1531.063 -2161.633)"/></g></g><g transform="translate(65.99 3.208)"><path class="b" d="M1446.823,2079.772a2.117,2.117,0,0,1,2.022,1.122l.742-3.409,2.254,0-2.118,9.741-2.254,0,.229-1.054a3.208,3.208,0,0,1-2.513,1.155c-1.8,0-2.921-1.479-2.414-3.8A4.407,4.407,0,0,1,1446.823,2079.772Zm.232,1.963a2.131,2.131,0,0,0-2,1.8c-.257,1.173.365,1.832,1.207,1.833a2.138,2.138,0,0,0,2-1.815c.256-1.173-.359-1.818-1.212-1.82Z" transform="translate(-1442.649 -2077.486)"/><g transform="translate(8.94 2.291)"><path class="b" d="M1464.258,2081.962a2,2,0,0,1,2.017,1.148l.226-1.038,2.254,0-1.6,7.345-2.254,0,.226-1.041a3.274,3.274,0,0,1-2.529,1.142c-1.79,0-2.9-1.479-2.4-3.8A4.405,4.405,0,0,1,1464.258,2081.962Zm.231,1.963a2.133,2.133,0,0,0-2,1.8c-.256,1.174.366,1.832,1.208,1.833a2.137,2.137,0,0,0,2-1.815c.256-1.173-.356-1.817-1.213-1.819Z" transform="translate(-1460.08 -2081.952)"/></g></g><g transform="translate(64.332 15.3)"><path class="b" d="M1439.891,2101.063h16.7l-.478,2.212h-16.7Z" transform="translate(-1439.415 -2101.063)"/></g></g><g transform="translate(1572.706 2049.495)"><g transform="translate(0 40.249)"><path class="d" d="M1902.72,2208.347c-.073-.552-5.162-4.545-5.954-4.441-.221.03-.083.272-.276.3-.919.122,2.828,3.341,3.688,4.312C1901.608,2210.12,1902.874,2209.484,1902.72,2208.347Z" transform="translate(-1896.346 -2203.904)"/></g><g transform="translate(3.985 32.682)"><path class="d" d="M1904.383,2189.825c.075.061,1.01.667,1.111.545C1906.7,2188.923,1903.142,2188.792,1904.383,2189.825Z" transform="translate(-1904.116 -2189.15)"/></g><g transform="translate(8.828 25.049)"><path class="d" d="M1919.985,2177.853a.849.849,0,0,0,.49-.117.449.449,0,0,0,.22-.386c-.051-1.208-5.661-3.132-6.9-3.081-.154.006-.242.045-.239.119C1913.572,2174.664,1918.8,2177.9,1919.985,2177.853Z" transform="translate(-1913.559 -2174.268)"/></g><g transform="translate(5.586 17.1)"><path class="d" d="M1909.285,2159.76c-.024-.585-2.1-1.648-2.047-.434C1907.265,2159.975,1909.326,2160.711,1909.285,2159.76Z" transform="translate(-1907.237 -2158.769)"/></g><g transform="translate(10.64 7.617)"><path class="d" d="M1925.49,2141.791c.448-.325.022-.531.01-.831-.065-1.539-7.586-.073-8.286.594-.2.192-.143.737.076.727a.158.158,0,0,1,.121.118C1917.442,2142.5,1925.335,2141.9,1925.49,2141.791Z" transform="translate(-1917.091 -2140.281)"/></g><g transform="translate(8.922)"><path class="d" d="M1914.306,2127.215a4.083,4.083,0,0,0,1.673-.748c.4-.531-.476-1.223-.648-.994a.694.694,0,0,1-.308.075C1914.364,2125.6,1912.96,2127.094,1914.306,2127.215Z" transform="translate(-1913.743 -2125.428)"/></g></g><g transform="translate(1408.691 2046.211)"><g transform="translate(0)"><path class="c" d="M1581.186,2130.459h6.739v-6.8a4.632,4.632,0,0,1,4.631-4.632h.328a4.632,4.632,0,0,1,4.632,4.632h0v6.8h6.8a4.633,4.633,0,0,1,4.632,4.631v.327a4.632,4.632,0,0,1-4.632,4.632h-6.8v6.74a4.632,4.632,0,0,1-4.632,4.632h-.327a4.631,4.631,0,0,1-4.632-4.631h0v-6.74h-6.739a4.631,4.631,0,0,1-4.632-4.631h0v-.328a4.632,4.632,0,0,1,4.631-4.631h0Z" transform="translate(-1576.554 -2119.025)"/></g></g><g transform="translate(1411.303 2047.616)"><g transform="translate(0)"><path class="b" d="M1586.28,2133.2h6.739v-6.8a4.632,4.632,0,0,1,4.631-4.632h.328a4.631,4.631,0,0,1,4.632,4.632h0v6.8h6.8a4.632,4.632,0,0,1,4.631,4.631v.327a4.631,4.631,0,0,1-4.631,4.632h-6.8v6.739a4.631,4.631,0,0,1-4.632,4.632h-.327a4.632,4.632,0,0,1-4.632-4.632h0v-6.738h-6.739a4.632,4.632,0,0,1-4.632-4.631h0v-.328a4.632,4.632,0,0,1,4.631-4.631h0Z" transform="translate(-1581.648 -2121.764)"/></g></g><g transform="translate(1442.595 2024.504)"><g transform="translate(27.915 6.907)"><g transform="translate(0.002)"><path class="c" d="M1727.657,2090.708l-8.541,53.875-16.191,1.883,4.414-30.447a43.879,43.879,0,0,0,.748-7.781,2.714,2.714,0,0,0-1.772-2.063c-1.061-.489-3.559-.8-7.516-.937l-1.708-.058.9-6.712c8.514-1.128,15.151-3.9,20.019-8.3Z" transform="translate(-1697.091 -2090.169)"/></g><g transform="translate(27.612 0.538)"><path class="c" d="M1753.878,2091.217l2.261,1.921-2.913,2.19-2.3-1.478Z" transform="translate(-1750.925 -2091.217)"/></g><g transform="translate(5.834 54.738)"><path class="c" d="M1708.462,2198.455l2.261,1.921,1.427-1.846-.442-1.526-.688-.108Z" transform="translate(-1708.462 -2196.895)"/></g><g transform="translate(0 13.604)"><path class="c" d="M1697.088,2118.1l2.261,1.921,1.264-1.362-.458-1.854-.709-.113Z" transform="translate(-1697.088 -2116.694)"/></g></g><g transform="translate(0 0.474)"><path class="c" d="M1656.618,2084.656l-4.4.958-.833-.893.27-1.627a3.109,3.109,0,0,0,.041-1.447.606.606,0,0,0-.615-.3,1.037,1.037,0,0,0-.839.431,2.844,2.844,0,0,0-.473,1.278,3.454,3.454,0,0,0,.018,1.651,3.288,3.288,0,0,0,1.368,1.322q3.389,2.216,4.131,3.655t.217,4.667a9.306,9.306,0,0,1-1.1,3.464A5.489,5.489,0,0,1,1652,2099.7a9.176,9.176,0,0,1-3.755.793,7.2,7.2,0,0,1-3.739-.823,3.3,3.3,0,0,1-1.74-2.184,11.065,11.065,0,0,1,.138-3.8l.24-1.436,5.248-.062.833.893-1.275,1.778a3.406,3.406,0,0,0-.04,1.583.711.711,0,0,0,.728.344,1.118,1.118,0,0,0,.914-.458,2.957,2.957,0,0,0,.494-1.333,3.85,3.85,0,0,0-.106-2.53,12.894,12.894,0,0,0-2.313-1.96,20.054,20.054,0,0,1-2.448-2.013,3.819,3.819,0,0,1-.838-1.748,7.51,7.51,0,0,1,.035-2.867,9.2,9.2,0,0,1,1.257-3.693,5.572,5.572,0,0,1,2.359-1.846,8.923,8.923,0,0,1,3.527-.7,7.933,7.933,0,0,1,3.61.671,3.048,3.048,0,0,1,1.744,1.784,9.4,9.4,0,0,1-.108,3.7Z" transform="translate(-1642.659 -2077.625)"/></g><g transform="translate(12.554)"><path class="c" d="M1681.307,2076.7l1.191,1.188-11.246,21.695-3.282.94-.833-.893,10.135-22.879Z" transform="translate(-1667.136 -2076.701)"/></g><g transform="translate(59.217 8.236)"><path class="c" d="M1791.582,2111.259l-2.554,17.442a45.081,45.081,0,0,1-1.9,8.667,14.738,14.738,0,0,1-3.373,5.1,14.076,14.076,0,0,1-5.324,3.451,19.766,19.766,0,0,1-6.478,1.112,21.666,21.666,0,0,1-7.5-.99,8.389,8.389,0,0,1-4.363-3.314,12.09,12.09,0,0,1-1.851-4.8,30.1,30.1,0,0,1,.451-8.045l2.76-18.235a39.146,39.146,0,0,1,2.856-10.794,13.417,13.417,0,0,1,5.7-5.81,18.773,18.773,0,0,1,9.078-2.282,16.371,16.371,0,0,1,7.277,1.4,9.951,9.951,0,0,1,4.4,3.6,10.442,10.442,0,0,1,1.5,4.844A45.4,45.4,0,0,1,1791.582,2111.259Zm-12.112-4.221a19.809,19.809,0,0,0,.384-5.208q-.238-1.043-1.689-1.026a2.2,2.2,0,0,0-2.045,1.138,18.852,18.852,0,0,0-1.231,5.155l-3.807,25.505q-.674,4.553-.386,5.484t1.719.913a2.166,2.166,0,0,0,2.036-1.122,18,18,0,0,0,1.174-4.945Z" transform="translate(-1758.118 -2092.759)"/></g><g transform="translate(1.617 1.367)"><path class="b" d="M1659.771,2086.4l-5.228.065.27-1.627a3.112,3.112,0,0,0,.041-1.448.605.605,0,0,0-.615-.3,1.038,1.038,0,0,0-.839.43,2.852,2.852,0,0,0-.474,1.278,3.451,3.451,0,0,0,.018,1.651,3.286,3.286,0,0,0,1.369,1.322q3.39,2.215,4.131,3.655t.217,4.667a9.318,9.318,0,0,1-1.1,3.465,5.482,5.482,0,0,1-2.406,1.889,9.176,9.176,0,0,1-3.755.793,7.211,7.211,0,0,1-3.74-.823,3.3,3.3,0,0,1-1.739-2.184,11.03,11.03,0,0,1,.139-3.8l.241-1.436,5.247-.062-.442,2.67a3.408,3.408,0,0,0-.04,1.584.711.711,0,0,0,.728.344,1.116,1.116,0,0,0,.913-.458,2.952,2.952,0,0,0,.494-1.334,3.853,3.853,0,0,0-.106-2.529,12.843,12.843,0,0,0-2.313-1.96,20.005,20.005,0,0,1-2.447-2.014,3.822,3.822,0,0,1-.837-1.747,7.5,7.5,0,0,1,.035-2.867,9.216,9.216,0,0,1,1.257-3.693,5.577,5.577,0,0,1,2.359-1.846,8.926,8.926,0,0,1,3.527-.7,7.928,7.928,0,0,1,3.609.671,3.052,3.052,0,0,1,1.744,1.783,9.4,9.4,0,0,1-.108,3.7Z" transform="translate(-1645.813 -2079.367)"/></g><g transform="translate(13.749 1.186)"><path class="b" d="M1683.631,2079.014l-10.052,22.885-4.113.047,10.135-22.879Z" transform="translate(-1669.466 -2079.014)"/></g><g transform="translate(61.197 10.356)"><path class="b" d="M1795.443,2115.393l-2.554,17.441a44.9,44.9,0,0,1-1.9,8.668,14.736,14.736,0,0,1-3.373,5.1,14.078,14.078,0,0,1-5.324,3.452,19.779,19.779,0,0,1-6.478,1.111,21.663,21.663,0,0,1-7.5-.99,8.387,8.387,0,0,1-4.363-3.315,12.076,12.076,0,0,1-1.85-4.795,30.114,30.114,0,0,1,.45-8.045l2.76-18.235a39.193,39.193,0,0,1,2.856-10.795,13.411,13.411,0,0,1,5.7-5.809,18.767,18.767,0,0,1,9.078-2.281,16.369,16.369,0,0,1,7.277,1.4,9.944,9.944,0,0,1,4.4,3.6,10.436,10.436,0,0,1,1.5,4.845A45.571,45.571,0,0,1,1795.443,2115.393Zm-12.113-4.222a19.809,19.809,0,0,0,.384-5.208q-.237-1.044-1.689-1.026a2.2,2.2,0,0,0-2.046,1.139,18.858,18.858,0,0,0-1.231,5.155l-3.807,25.506q-.675,4.554-.386,5.484t1.719.913a2.163,2.163,0,0,0,2.036-1.122,17.975,17.975,0,0,0,1.174-4.945Z" transform="translate(-1761.98 -2096.893)"/></g><g transform="translate(93.947 7.187)"><path class="c" d="M1859.3,2109.214l-2.554,17.442a45.116,45.116,0,0,1-1.9,8.668,14.734,14.734,0,0,1-3.373,5.1,14.082,14.082,0,0,1-5.325,3.452,19.8,19.8,0,0,1-6.478,1.112,21.674,21.674,0,0,1-7.5-.991,8.386,8.386,0,0,1-4.363-3.314,12.091,12.091,0,0,1-1.851-4.795,30.1,30.1,0,0,1,.451-8.044l2.76-18.235a39.15,39.15,0,0,1,2.856-10.795,13.411,13.411,0,0,1,5.7-5.809,18.766,18.766,0,0,1,9.078-2.282,16.366,16.366,0,0,1,7.277,1.4,9.929,9.929,0,0,1,4.4,3.6,10.451,10.451,0,0,1,1.5,4.844A45.553,45.553,0,0,1,1859.3,2109.214Zm-12.112-4.221a19.7,19.7,0,0,0,.384-5.207q-.239-1.044-1.689-1.026a2.2,2.2,0,0,0-2.045,1.139,18.868,18.868,0,0,0-1.231,5.154l-3.807,25.505q-.674,4.555-.386,5.484t1.719.913a2.164,2.164,0,0,0,2.036-1.123,18.058,18.058,0,0,0,1.173-4.945Z" transform="translate(-1825.835 -2090.714)"/></g><g transform="translate(95.931 9.307)"><path class="b" d="M1863.163,2113.349l-2.554,17.441a45.02,45.02,0,0,1-1.9,8.668,14.708,14.708,0,0,1-3.373,5.1,14.071,14.071,0,0,1-5.321,3.452,19.791,19.791,0,0,1-6.478,1.111,21.686,21.686,0,0,1-7.5-.991,8.392,8.392,0,0,1-4.363-3.314,12.08,12.08,0,0,1-1.85-4.795,30.1,30.1,0,0,1,.451-8.045l2.76-18.235a39.125,39.125,0,0,1,2.856-10.8,13.414,13.414,0,0,1,5.7-5.81,18.768,18.768,0,0,1,9.078-2.281,16.353,16.353,0,0,1,7.277,1.4,9.937,9.937,0,0,1,4.4,3.6,10.446,10.446,0,0,1,1.5,4.845A45.791,45.791,0,0,1,1863.163,2113.349Zm-12.113-4.221a19.785,19.785,0,0,0,.384-5.208q-.238-1.044-1.689-1.026a2.2,2.2,0,0,0-2.045,1.139,18.927,18.927,0,0,0-1.231,5.156l-3.807,25.506q-.674,4.553-.386,5.483t1.719.913a2.164,2.164,0,0,0,2.036-1.122,18,18,0,0,0,1.173-4.945Z" transform="translate(-1829.702 -2094.848)"/></g><g transform="translate(30.107 9.249)"><path class="b" d="M1731.931,2095.274l-8.713,54.94-16,.389,4.392-30.017a43.967,43.967,0,0,0,.748-7.781,2.711,2.711,0,0,0-1.772-2.062c-1.061-.49-3.56-.8-7.515-.938l-1.708-.057.9-6.712c8.514-1.128,15.151-3.9,20.019-8.3Z" transform="translate(-1701.361 -2094.735)"/></g></g><g transform="translate(1495.951 2008.641)"><g transform="translate(0 0)"><path class="b" d="M1806.528,2061.543h-53.272c-3.62,0-6.565-3.539-6.565-7.886s2.945-7.886,6.565-7.886h53.272c3.62,0,6.565,3.539,6.565,7.886S1810.148,2061.543,1806.528,2061.543Zm-53.272-15c-3.268,0-5.926,3.193-5.926,7.118s2.658,7.119,5.926,7.119h53.272c3.268,0,5.927-3.194,5.927-7.119s-2.659-7.118-5.927-7.118Z" transform="translate(-1746.691 -2045.772)"/></g></g><g transform="translate(1501.238 2012.603)"><g transform="translate(0 0.034)"><path class="b" d="M1758.11,2060.728c-.208,0-.344-.177-.375-.443l-.735-6.141c.04-.328.245-.581.47-.581h.677c.176,0,.333.215.353.454l.47,3.949,1.549-3.949c.1-.239.314-.454.491-.454h.676c.226,0,.353.252.314.581l-2.422,6.141a.6.6,0,0,1-.49.443Z" transform="translate(-1757 -2053.564)"/></g><g transform="translate(4.066 0.034)"><path class="b" d="M1769.118,2060.791c-.578,0-.656-.555-.718-.971l-.088-.605h-1.441l-.431,1.047c-.088.252-.275.467-.47.467h-.708c-.225,0-.374-.214-.323-.517l2.51-6.206a.623.623,0,0,1,.49-.443h.824c.186,0,.323.177.363.443l.667,4.969c.029.164.039.3.069.315a.5.5,0,0,1,.167.455l-.059.415A.793.793,0,0,1,1769.118,2060.791Zm-1.618-3.18h.6l-.137-1.148Z" transform="translate(-1764.928 -2053.563)"/></g><g transform="translate(9.942 0.036)"><path class="b" d="M1776.718,2060.729c-.235,0-.374-.214-.324-.517l.832-6.129a.539.539,0,0,1,.471-.517h.638c.226,0,.375.215.323.517l-.677,4.944h1.834c.226,0,.372.214.333.5l-.088.68a.547.547,0,0,1-.471.517Z" transform="translate(-1776.384 -2053.567)"/></g><g transform="translate(14.55 0.036)"><path class="b" d="M1785.7,2060.729c-.235,0-.375-.214-.323-.517l.832-6.129a.539.539,0,0,1,.47-.517h3.011c.235,0,.363.215.313.517l-.088.694a.52.52,0,0,1-.462.5h-1.972l-.147,1.022h1.4c.226,0,.353.227.313.517l-.088.681a.541.541,0,0,1-.462.517h-1.4l-.137,1.009h1.972c.235,0,.363.214.323.5l-.089.68c-.049.3-.225.517-.462.517Z" transform="translate(-1785.368 -2053.567)"/></g><g transform="translate(23.784 0.001)"><path class="b" d="M1804.484,2060.663c-.2,0-.343-.177-.374-.442l-.735-6.142c.039-.328.245-.58.471-.58h.677c.176,0,.333.214.353.453l.471,3.949,1.549-3.949c.1-.239.313-.453.49-.453h.677c.226,0,.353.252.313.58l-2.422,6.142a.6.6,0,0,1-.49.442Z" transform="translate(-1803.374 -2053.499)"/></g><g transform="translate(28.834 0.001)"><path class="b" d="M1814.663,2060.145a.547.547,0,0,1-.471.518h-.648c-.225,0-.362-.214-.313-.518l.832-6.129a.54.54,0,0,1,.462-.516h.647c.225,0,.374.214.323.516Z" transform="translate(-1813.221 -2053.499)"/></g><g transform="translate(31.505 0.003)"><path class="b" d="M1821.415,2053.5c1.353,0,1.932.756,1.7,2.484a2.962,2.962,0,0,1-.872,1.979,10.385,10.385,0,0,0,.226,1.261.462.462,0,0,1,.137.455l-.059.415a.778.778,0,0,1-.832.632c-.53,0-.615-.429-.7-.9l-.226-1.385h-.686l-.235,1.7c-.051.3-.226.517-.471.517h-.628c-.226,0-.383-.214-.333-.517l.832-6.129a.555.555,0,0,1,.48-.517Zm.265,2.484c.059-.467-.108-.77-.41-.77h-.725l-.216,1.526h.726c.314,0,.559-.277.627-.756Z" transform="translate(-1818.428 -2053.502)"/></g><g transform="translate(37.102 0.003)"><path class="b" d="M1833.269,2053.5c.226,0,.353.214.3.516l-.089.694a.518.518,0,0,1-.451.5h-.97l-.677,4.93a.547.547,0,0,1-.471.518h-.647c-.226,0-.363-.214-.314-.518l.677-4.93h-.971c-.226,0-.353-.215-.314-.5l.088-.694a.538.538,0,0,1,.462-.516Z" transform="translate(-1829.34 -2053.502)"/></g><g transform="translate(41.71 0.003)"><path class="b" d="M1838.42,2057.449l.47-3.431a.555.555,0,0,1,.481-.516h.637c.226,0,.363.214.314.516l-.48,3.519c-.187,1.385.256,1.487.588,1.487s.814-.1,1-1.487l.48-3.519a.547.547,0,0,1,.471-.516h.637c.225,0,.374.214.324.516l-.471,3.431c-.382,2.825-1.3,3.279-2.667,3.279S1838.038,2060.274,1838.42,2057.449Z" transform="translate(-1838.325 -2053.502)"/></g><g transform="translate(46.625)"><path class="b" d="M1852.1,2060.726c-.578,0-.657-.555-.718-.972l-.089-.606h-1.441l-.431,1.047c-.088.252-.275.467-.471.467h-.707c-.226,0-.375-.214-.324-.518l2.513-6.206a.622.622,0,0,1,.49-.443h.824c.186,0,.323.177.363.443l.667,4.969c.029.164.039.3.069.315a.49.49,0,0,1,.166.454l-.059.415A.8.8,0,0,1,1852.1,2060.726Zm-1.618-3.18h.6l-.137-1.148Z" transform="translate(-1847.908 -2053.497)"/></g><g transform="translate(52.5 0.003)"><path class="b" d="M1859.7,2060.665c-.235,0-.374-.214-.324-.518l.832-6.129a.539.539,0,0,1,.471-.516h.638c.226,0,.374.214.324.516l-.677,4.944h1.834c.226,0,.375.215.333.505l-.088.68a.547.547,0,0,1-.471.518Z" transform="translate(-1859.363 -2053.502)"/></g></g><g transform="translate(1476.816 2099.178)"><g transform="translate(0 1.065)"><path class="b" d="M1710.819,2231.461a.472.472,0,0,1-.484-.436l-.954-6.075a.657.657,0,0,1,.61-.574h.878a.5.5,0,0,1,.462.45l.611,3.906,2.011-3.906a.847.847,0,0,1,.636-.45h.878c.292,0,.459.25.407.574l-3.143,6.075a.742.742,0,0,1-.637.436Z" transform="translate(-1709.382 -2224.376)"/></g><g transform="translate(4.786 0)"><path class="b" d="M1723.776,2226.12l-.7,3.843a.572.572,0,0,1-.573.487h-.6c-.229,0-.394-.051-.462-.237l-.038-.1a2.06,2.06,0,0,1-1.158.4c-1.436,0-1.693-1.185-1.464-2.457a3.144,3.144,0,0,1,3.156-2.733,4.625,4.625,0,0,1,1.59.3A.44.44,0,0,1,1723.776,2226.12Zm-2.022.911a1.162,1.162,0,0,0-1.095,1.023c-.115.661.138.773.407.773a.949.949,0,0,0,.395-.149Zm.56-4.542a.785.785,0,0,1,.471-.187.38.38,0,0,1,.344.137l.395.562a.49.49,0,0,1,.1.411.692.692,0,0,1-.356.424l-1.272.886a1,1,0,0,1-.483.15.5.5,0,0,1-.367-.2l-.178-.224a.511.511,0,0,1-.138-.425,1.058,1.058,0,0,1,.127-.274Z" transform="translate(-1718.714 -2222.299)"/></g><g transform="translate(9.897 1.062)"><path class="b" d="M1729.686,2224.869a.607.607,0,0,1,.586-.5h.852a.4.4,0,0,1,.432.371.382.382,0,0,1-.012.127l-.9,4.966c-.025.149,0,.225.038.237a.392.392,0,0,1,.191.438l-.076.4a.6.6,0,0,1-.5.487,2.6,2.6,0,0,1-.713.124c-1.018,0-.941-.886-.865-1.323Z" transform="translate(-1728.679 -2224.37)"/></g><g transform="translate(12.466 0.901)"><path class="b" d="M1735.562,2230.807a.619.619,0,0,1-.6.5h-.853a.391.391,0,0,1-.424-.354.379.379,0,0,1,.016-.145l.726-4.055a.6.6,0,0,1,.585-.5h.853a.4.4,0,0,1,.433.372.385.385,0,0,1-.012.127Zm.28-6.75a.784.784,0,0,1,.825.737.745.745,0,0,1-.023.224,1.186,1.186,0,0,1-1.147.961.787.787,0,0,1-.814-.96,1.213,1.213,0,0,1,1.16-.962Z" transform="translate(-1733.687 -2224.056)"/></g><g transform="translate(15.124 1.061)"><path class="b" d="M1743.382,2230.745a.681.681,0,0,1-.433.5,6.487,6.487,0,0,1-1.9.274c-1.73,0-2.418-1.034-2.111-2.683a2.783,2.783,0,0,1,2.761-2.508,2.115,2.115,0,0,1,.6.075l.28-1.547a.585.585,0,0,1,.585-.487h.866a.387.387,0,0,1,.422.347.383.383,0,0,1-.014.14Zm-2.075-.911c.051,0,.256-.013.382-.025l.308-1.722a.832.832,0,0,0-.308-.062c-.407,0-.738.2-.84.81C1740.722,2229.5,1740.823,2229.835,1741.307,2229.835Z" transform="translate(-1738.87 -2224.368)"/></g><g transform="translate(20.355 3.023)"><path class="b" d="M1749.14,2230.739a2.82,2.82,0,0,1,2.978-2.545c1.731,0,2.34,1.011,2.061,2.545a2.84,2.84,0,0,1-2.991,2.645C1749.458,2233.383,1748.848,2232.384,1749.14,2230.739Zm3.18.012c.063-.359.026-.861-.509-.861s-.751.5-.814.861-.115.948.483.948S1752.256,2231.125,1752.32,2230.751Z" transform="translate(-1749.07 -2228.193)"/></g><g transform="translate(27.179 3.022)"><path class="b" d="M1763.523,2228.965a.777.777,0,0,1,.509-.537,7.027,7.027,0,0,1,1.82-.237c1.73,0,2.406,1.035,2.111,2.683a2.78,2.78,0,0,1-3.041,2.507h-.331l-.344,1.884a.6.6,0,0,1-.585.5h-.865a.4.4,0,0,1-.422-.366.378.378,0,0,1,.015-.133Zm1.361,2.733h.242a.938.938,0,0,0,.98-.821c.115-.661-.038-.986-.521-.986a2.315,2.315,0,0,0-.367.025Z" transform="translate(-1762.374 -2228.191)"/></g><g transform="translate(32.862 3.02)"><path class="b" d="M1778.516,2228.987l-.7,3.843a.57.57,0,0,1-.572.487h-.6c-.229,0-.394-.051-.458-.237l-.039-.1a2.058,2.058,0,0,1-1.158.4c-1.436,0-1.693-1.185-1.463-2.457a3.144,3.144,0,0,1,3.156-2.733,4.626,4.626,0,0,1,1.59.3A.441.441,0,0,1,1778.516,2228.987Zm-2.023.911a1.163,1.163,0,0,0-1.094,1.023c-.115.661.138.773.407.773a.946.946,0,0,0,.4-.149Z" transform="translate(-1773.455 -2228.187)"/></g><g transform="translate(37.859 3.014)"><path class="b" d="M1787.565,2228.595a.486.486,0,0,1,.165.45.426.426,0,0,1-.076.175l-.344.574a.643.643,0,0,1-.508.312.386.386,0,0,1-.205-.063,1.577,1.577,0,0,0-.61-.162.759.759,0,0,0-.41.113l-.509,2.832a.571.571,0,0,1-.573.487h-.863a.4.4,0,0,1-.431-.352.389.389,0,0,1,.011-.135l.662-3.668a.676.676,0,0,1,.344-.462,3.481,3.481,0,0,1,2.023-.513A1.812,1.812,0,0,1,1787.565,2228.595Z" transform="translate(-1783.199 -2228.175)"/></g><g transform="translate(41.67 3.02)"><path class="b" d="M1795.688,2228.987l-.7,3.843a.571.571,0,0,1-.572.487h-.6c-.229,0-.394-.051-.458-.237l-.038-.1a2.059,2.059,0,0,1-1.158.4c-1.436,0-1.693-1.185-1.463-2.457a3.142,3.142,0,0,1,3.156-2.733,4.626,4.626,0,0,1,1.59.3A.441.441,0,0,1,1795.688,2228.987Zm-2.023.911a1.16,1.16,0,0,0-1.094,1.023c-.115.661.137.773.407.773a.948.948,0,0,0,.395-.149Z" transform="translate(-1790.628 -2228.187)"/></g><g transform="translate(48.881 3.015)"><path class="b" d="M1809.652,2229.17c-.013.075-.025.1-.407.675a.563.563,0,0,1-.509.287.751.751,0,0,1-.256-.087,1.812,1.812,0,0,0-.866-.162,1,1,0,0,0-1.005.886c-.115.649.256.923.674.923a1.864,1.864,0,0,0,.955-.187.6.6,0,0,1,.268-.062.436.436,0,0,1,.394.287,6.126,6.126,0,0,1,.178.648.775.775,0,0,1-.367.5,3.327,3.327,0,0,1-1.82.5c-1.705,0-2.432-.961-2.138-2.61a2.9,2.9,0,0,1,3.068-2.583,2.432,2.432,0,0,1,1.641.513A.486.486,0,0,1,1809.652,2229.17Z" transform="translate(-1804.689 -2228.178)"/></g><g transform="translate(53.66 3.023)"><path class="b" d="M1814.076,2230.739a2.821,2.821,0,0,1,2.978-2.545c1.73,0,2.34,1.011,2.061,2.545a2.84,2.84,0,0,1-2.99,2.645C1814.395,2233.383,1813.783,2232.384,1814.076,2230.739Zm3.18.012c.064-.359.026-.861-.509-.861s-.751.5-.814.861-.114.948.484.948.779-.574.84-.948Z" transform="translate(-1814.006 -2228.193)"/></g><g transform="translate(58.831 3.013)"><path class="b" d="M1824.8,2228.956a.732.732,0,0,1,.509-.536,4.413,4.413,0,0,1,1.565-.238,2,2,0,0,1,1.451.437,2.464,2.464,0,0,1,1.311-.424c1.476,0,1.539.986,1.3,2.295l-.42,2.333a.582.582,0,0,1-.573.487h-.865a.394.394,0,0,1-.431-.352.377.377,0,0,1,.011-.135l.42-2.283c.115-.636.038-.661-.178-.661a1.029,1.029,0,0,0-.205.012c-.025.2-.076.462-.115.724l-.407,2.208a.572.572,0,0,1-.573.487h-.713a.4.4,0,0,1-.431-.353.379.379,0,0,1,.011-.134l.4-2.2c.115-.636.14-.748-.191-.748a1.276,1.276,0,0,0-.191.038l-.522,2.907a.572.572,0,0,1-.572.487h-.866a.4.4,0,0,1-.431-.352.381.381,0,0,1,.011-.135Z" transform="translate(-1824.089 -2228.173)"/></g><g transform="translate(65.331 3.022)"><path class="b" d="M1837.912,2228.965a.78.78,0,0,1,.508-.537,7.027,7.027,0,0,1,1.82-.237c1.731,0,2.405,1.035,2.111,2.683a2.78,2.78,0,0,1-3.042,2.507h-.331l-.344,1.884a.6.6,0,0,1-.585.5h-.865a.39.39,0,0,1-.422-.355.377.377,0,0,1,.014-.144Zm1.362,2.733h.241a.939.939,0,0,0,.98-.821c.114-.661-.039-.986-.522-.986a2.307,2.307,0,0,0-.367.025Z" transform="translate(-1836.762 -2228.191)"/></g><g transform="translate(70.946 3.014)"><path class="b" d="M1852.077,2228.595a.485.485,0,0,1,.165.45.431.431,0,0,1-.075.175l-.344.574a.645.645,0,0,1-.509.312.386.386,0,0,1-.205-.063,1.576,1.576,0,0,0-.61-.162.757.757,0,0,0-.407.113l-.51,2.832a.571.571,0,0,1-.572.487h-.865a.4.4,0,0,1-.431-.351.389.389,0,0,1,.012-.136l.661-3.668a.678.678,0,0,1,.344-.462,3.475,3.475,0,0,1,2.023-.513A1.813,1.813,0,0,1,1852.077,2228.595Z" transform="translate(-1847.71 -2228.175)"/></g><g transform="translate(74.755 3.02)"><path class="b" d="M1860.2,2228.987l-.7,3.843a.571.571,0,0,1-.572.487h-.6c-.23,0-.394-.051-.462-.237l-.038-.1a2.059,2.059,0,0,1-1.159.4c-1.436,0-1.693-1.185-1.463-2.457a3.142,3.142,0,0,1,3.156-2.733,4.627,4.627,0,0,1,1.59.3A.441.441,0,0,1,1860.2,2228.987Zm-2.023.911a1.161,1.161,0,0,0-1.094,1.023c-.115.661.14.773.407.773a.944.944,0,0,0,.395-.149Z" transform="translate(-1855.136 -2228.187)"/></g><g transform="translate(79.699 3.022)"><path class="b" d="M1866.843,2231.81c.138,0,.509,0,.534-.125.052-.3-2.494-.212-2.214-1.821.166-.886.89-1.672,2.545-1.672a11.223,11.223,0,0,1,1.222.15.446.446,0,0,1,.411.479v.02l-.025.1a2.723,2.723,0,0,1-.166.562c-.115.3-.256.4-.471.4-.42-.025-.649-.062-.9-.062-.459,0-.738,0-.75.075-.064.3,2.481.262,2.214,1.744-.191,1.086-1.183,1.722-2.646,1.722a4.848,4.848,0,0,1-1.527-.287.473.473,0,0,1-.28-.524,2.838,2.838,0,0,1,.308-.648.574.574,0,0,1,.535-.3.719.719,0,0,1,.178.025A4.5,4.5,0,0,0,1866.843,2231.81Z" transform="translate(-1864.776 -2228.192)"/></g><g transform="translate(30.869 15.891)"><path class="b" d="M1771.827,2256.5a5.435,5.435,0,0,1-.636-.038c.154.362.559.387.89.387a2.569,2.569,0,0,0,1.235-.262.317.317,0,0,1,.426.123.309.309,0,0,1,.032.089l.154.513a.5.5,0,0,1,.013.187.787.787,0,0,1-.344.474,3.164,3.164,0,0,1-1.909.5c-1.717,0-2.34-1-2.048-2.645a2.76,2.76,0,0,1,2.914-2.545c1.374,0,2.049.711,1.871,1.685C1774.206,2256.177,1773,2256.5,1771.827,2256.5Zm-.216-1.36c.051.125.292.211.534.211.19,0,.367-.062.4-.261.037-.175-.205-.211-.382-.211a.753.753,0,0,0-.547.26Z" transform="translate(-1769.57 -2253.282)"/></g><g transform="translate(35.661 15.888)"><path class="b" d="M1779.623,2254.053a.732.732,0,0,1,.508-.536,5.954,5.954,0,0,1,1.82-.238c1.717,0,2.24.762,1.949,2.434l-.407,2.205a.577.577,0,0,1-.586.488h-.852a.4.4,0,0,1-.431-.352.389.389,0,0,1,.012-.136l.394-2.2c.115-.636.1-.749-.344-.749a2.149,2.149,0,0,0-.367.026l-.535,2.919a.584.584,0,0,1-.586.487h-.852a.394.394,0,0,1-.431-.351.375.375,0,0,1,.011-.136Z" transform="translate(-1778.913 -2253.277)"/></g><g transform="translate(42.842 13.931)"><path class="b" d="M1796.662,2249.461c1.756,0,2.545.748,2.24,2.458s-1.362,2.434-3.118,2.434h-.688l-.308,1.684a.622.622,0,0,1-.611.513h-.814a.41.41,0,0,1-.447-.362.4.4,0,0,1,.014-.15l1.082-6.064a.635.635,0,0,1,.623-.513Zm.382,2.446c.089-.462-.127-.749-.535-.749h-.84l-.28,1.51h.84a.837.837,0,0,0,.814-.76Z" transform="translate(-1792.913 -2249.461)"/></g><g transform="translate(48.447 13.93)"><path class="b" d="M1804.849,2249.96a.6.6,0,0,1,.586-.5h.852a.4.4,0,0,1,.432.37h0a.385.385,0,0,1-.012.128l-.9,4.966c-.026.15,0,.225.038.237a.394.394,0,0,1,.191.437l-.076.4a.6.6,0,0,1-.5.487,2.613,2.613,0,0,1-.713.125c-1.018,0-.942-.886-.865-1.323Z" transform="translate(-1803.842 -2249.46)"/></g><g transform="translate(50.959 15.887)"><path class="b" d="M1813.8,2254.077l-.7,3.843a.572.572,0,0,1-.572.487h-.6c-.229,0-.394-.052-.458-.238l-.038-.1a2.064,2.064,0,0,1-1.158.4c-1.436,0-1.693-1.186-1.463-2.458a3.143,3.143,0,0,1,3.156-2.733,4.614,4.614,0,0,1,1.59.3A.441.441,0,0,1,1813.8,2254.077Zm-2.023.912a1.163,1.163,0,0,0-1.094,1.023c-.114.661.14.773.407.773a.947.947,0,0,0,.4-.149Z" transform="translate(-1808.74 -2253.275)"/></g><g transform="translate(55.961 15.888)"><path class="b" d="M1819.2,2254.053a.732.732,0,0,1,.509-.536,5.953,5.953,0,0,1,1.82-.238c1.718,0,2.24.762,1.949,2.434l-.407,2.205a.576.576,0,0,1-.585.488h-.853a.4.4,0,0,1-.431-.352.367.367,0,0,1,.012-.136l.395-2.2c.114-.636.1-.749-.344-.749a2.153,2.153,0,0,0-.367.026l-.535,2.919a.585.585,0,0,1-.586.487h-.852a.39.39,0,0,1-.42-.487Z" transform="translate(-1818.493 -2253.277)"/></g><g transform="translate(63.147 13.929)"><path class="b" d="M1836.067,2249.46c1.757,0,2.558.486,2.24,2.221a1.54,1.54,0,0,1-.726,1.2,1.4,1.4,0,0,1,.573,1.46c-.319,1.722-1.285,2.208-3.041,2.208h-2.164a.431.431,0,0,1-.445-.416.413.413,0,0,1,.012-.109l1.082-6.052a.644.644,0,0,1,.623-.513Zm.23,4.865c.077-.4-.28-.461-.7-.461h-.84l-.178,1h.84c.42,0,.8-.087.878-.537Zm-1.044-3.168-.178,1h.522c.407,0,.776-.051.866-.524.076-.424-.28-.474-.688-.474Z" transform="translate(-1832.505 -2249.458)"/></g><g transform="translate(68.973 13.93)"><path class="b" d="M1844.871,2249.96a.606.606,0,0,1,.586-.5h.852a.4.4,0,0,1,.432.371.385.385,0,0,1-.012.128l-.9,4.966c-.026.15,0,.225.038.237a.394.394,0,0,1,.19.437l-.076.4a.6.6,0,0,1-.5.487,2.608,2.608,0,0,1-.713.125c-1.018,0-.942-.886-.866-1.323Z" transform="translate(-1843.864 -2249.46)"/></g><g transform="translate(71.483 15.887)"><path class="b" d="M1853.821,2254.077l-.7,3.843a.573.573,0,0,1-.573.487h-.6c-.23,0-.394-.052-.462-.238l-.038-.1a2.064,2.064,0,0,1-1.158.4c-1.436,0-1.692-1.186-1.464-2.458a3.144,3.144,0,0,1,3.156-2.733,4.615,4.615,0,0,1,1.59.3A.44.44,0,0,1,1853.821,2254.077Zm-2.023.912a1.161,1.161,0,0,0-1.094,1.023c-.115.661.138.773.407.773a.944.944,0,0,0,.395-.149Z" transform="translate(-1848.758 -2253.275)"/></g><g transform="translate(76.613 15.883)"><path class="b" d="M1863.72,2254.26c-.013.075-.025.1-.407.675a.564.564,0,0,1-.509.287.753.753,0,0,1-.254-.087,1.824,1.824,0,0,0-.866-.163,1,1,0,0,0-1.005.886c-.115.648.254.923.674.923a1.863,1.863,0,0,0,.954-.187.6.6,0,0,1,.267-.063.437.437,0,0,1,.395.288,6.5,6.5,0,0,1,.179.648.784.784,0,0,1-.367.5,3.329,3.329,0,0,1-1.82.5c-1.705,0-2.432-.961-2.138-2.61a2.9,2.9,0,0,1,3.067-2.583,2.43,2.43,0,0,1,1.641.513A.487.487,0,0,1,1863.72,2254.26Z" transform="translate(-1858.76 -2253.267)"/></g><g transform="translate(81.32 13.931)"><path class="b" d="M1870.5,2255.515a2.387,2.387,0,0,0-.293-.686l-.178.063-.216,1.172a.571.571,0,0,1-.572.487h-.866a.394.394,0,0,1-.431-.352.37.37,0,0,1,.011-.135l1.107-6.114a.586.586,0,0,1,.585-.487h.866a.388.388,0,0,1,.421.348.377.377,0,0,1-.015.139l-.547,3.008a2.434,2.434,0,0,0,1.043-1.011.616.616,0,0,1,.585-.451h.852a.406.406,0,0,1,.423.387.382.382,0,0,1-.016.125,4.1,4.1,0,0,1-1.376,1.921,3.336,3.336,0,0,1,.462.872l.445,1.185a.631.631,0,0,1-.586.562h-.929a.683.683,0,0,1-.56-.411Z" transform="translate(-1867.937 -2249.462)"/></g></g><g transform="translate(1257.202 2125.686)"><g transform="translate(0 0.525)"><path class="b" d="M1326.056,2301.309l1.39-6.49c.085-.387.254-.565.617-.565h.169c.363,0,.542.217.447.6l-1.306,6.152h3.335c.353,0,.542.136.542.354a1.067,1.067,0,0,1-.218.628c-.085.1-.218.136-.484.136h-3.842C1326.178,2302.118,1325.95,2301.839,1326.056,2301.309Z" transform="translate(-1326.031 -2294.254)"/></g><g transform="translate(5.988 2.431)"><path class="b" d="M1339.32,2301.937a2.522,2.522,0,0,1-2.175,1.233,2.226,2.226,0,0,1-2.281-2.169,1.926,1.926,0,0,1,.009-.258,3.545,3.545,0,0,1,3.25-3.674,2.124,2.124,0,0,1,1.971,1.124c.169-.745.434-1.027.943-1.027a.575.575,0,0,1,.435.145l-.932,4.387c-.135.6-.024.82.474.87.024,0,0,.565-.714.565C1339.55,2303.132,1339.245,2302.673,1339.32,2301.937Zm.339-1.7.193-.907a1.642,1.642,0,0,0-1.656-1.293,2.408,2.408,0,0,0-2.138,2.6,1.411,1.411,0,0,0,1.27,1.541h.007c.047,0,.092.005.136.005a2.346,2.346,0,0,0,2.19-1.942Z" transform="translate(-1334.864 -2297.066)"/></g><g transform="translate(15.156 2.431)"><path class="b" d="M1348.39,2300.488a3.312,3.312,0,0,1,3.2-3.419h.086a2.6,2.6,0,0,1,2.718,2.466h0c0,.068,0,.141,0,.212a3.311,3.311,0,0,1-3.2,3.418h-.087a2.6,2.6,0,0,1-2.717-2.467h0C1348.388,2300.63,1348.388,2300.559,1348.39,2300.488Zm4.906-.689a1.685,1.685,0,0,0-1.588-1.774h-.075a2.3,2.3,0,0,0-2.139,2.417,1.683,1.683,0,0,0,1.587,1.774h.081a2.3,2.3,0,0,0,2.135-2.414Z" transform="translate(-1348.388 -2297.065)"/></g><g transform="translate(22.067)"><path class="b" d="M1358.791,2301.349l.918-4.314h-.652c-.3,0-.475-.11-.475-.314a.953.953,0,0,1,.193-.542.535.535,0,0,1,.424-.12h.714l.136-.565c.291-1.413,1.039-2.007,2.063-2.007a1.473,1.473,0,0,1,1.112.362.663.663,0,0,1,.194.448c0,.353-.339.592-.374.556a1.112,1.112,0,0,0-.87-.4c-.495,0-.833.314-1,1.112l-.109.494h.989c.315,0,.484.109.484.3a1,1,0,0,1-.193.556.543.543,0,0,1-.424.121h-1.02l-.906,4.314c-.085.424-.253.565-.542.565h-.145C1358.986,2301.916,1358.7,2301.784,1358.791,2301.349Z" transform="translate(-1358.583 -2293.479)"/></g><g transform="translate(25.972 2.43)"><path class="b" d="M1364.346,2300.749a3.6,3.6,0,0,1,3.52-3.686h.141c1.39,0,2.19.653,2.19,1.607,0,1.173-.773,1.885-3.372,1.885-.424,0-.87-.023-1.39-.061v.218a1.441,1.441,0,0,0,1.333,1.54,1.374,1.374,0,0,0,.265-.005,2.169,2.169,0,0,0,1.865-.906c.024-.036.542.084.542.495a.763.763,0,0,1-.291.6,2.9,2.9,0,0,1-2.139.725A2.351,2.351,0,0,1,1364.346,2300.749Zm1.281-1.085a9.041,9.041,0,0,0,1.085.061c1.886,0,2.393-.484,2.393-1.017,0-.387-.375-.746-1.148-.746a2.576,2.576,0,0,0-2.332,1.706Z" transform="translate(-1364.345 -2297.064)"/></g><g transform="translate(32.102 2.431)"><path class="b" d="M1375.476,2298.189a1.779,1.779,0,0,1,1.6-1.123c.508,0,.932.253.932.665a.758.758,0,0,1-.519.774.957.957,0,0,0-.774-.327c-.857,0-1.423,1.028-1.73,2.479l-.386,1.848c-.084.424-.254.566-.542.566h-.145c-.315,0-.592-.136-.508-.566l1.125-5.281a.512.512,0,0,1,.3-.061C1375.22,2297.162,1375.609,2297.38,1375.476,2298.189Z" transform="translate(-1373.386 -2297.066)"/></g><g transform="translate(37.221 1.113)"><path class="b" d="M1381.221,2300.388l.591-2.826h-.4c-.3,0-.475-.109-.475-.315a.875.875,0,0,1,.193-.542.536.536,0,0,1,.424-.12h.46l.1-.475c.145-.713.407-.989.918-.989.254,0,.459.11.447.145l-.278,1.318h1.245c.314,0,.484.109.484.3a1.008,1.008,0,0,1-.194.556.536.536,0,0,1-.424.121h-1.332l-.6,2.8c-.181.881.1,1.233.666,1.233a1.1,1.1,0,0,0,.762-.339c.036-.024.23.157.23.435a.69.69,0,0,1-.23.509,1.524,1.524,0,0,1-1.075.35C1381.533,2302.552,1380.917,2301.8,1381.221,2300.388Z" transform="translate(-1380.938 -2295.121)"/></g><g transform="translate(41.299 2.434)"><path class="b" d="M1391.412,2301.938a2.522,2.522,0,0,1-2.176,1.233,2.228,2.228,0,0,1-2.281-2.169,2.186,2.186,0,0,1,.009-.256,3.544,3.544,0,0,1,3.254-3.674,2.122,2.122,0,0,1,1.97,1.123c.169-.746.435-1.027.943-1.027a.576.576,0,0,1,.435.145l-.932,4.386c-.135.6-.024.821.475.869.025,0,0,.566-.713.566C1391.641,2303.134,1391.34,2302.675,1391.412,2301.938Zm.339-1.705.193-.907a1.642,1.642,0,0,0-1.656-1.293,2.408,2.408,0,0,0-2.139,2.6,1.416,1.416,0,0,0,1.279,1.541c.045,0,.09.005.135.005a2.347,2.347,0,0,0,2.19-1.943Z" transform="translate(-1386.954 -2297.07)"/></g><g transform="translate(50.758 1.113)"><path class="b" d="M1401.187,2300.388l.592-2.826h-.4c-.3,0-.474-.109-.474-.315a.882.882,0,0,1,.193-.542.536.536,0,0,1,.424-.12h.459l.1-.475c.145-.713.411-.989.918-.989.254,0,.459.11.447.145l-.278,1.318h1.245c.315,0,.485.109.485.3a1.013,1.013,0,0,1-.194.556.535.535,0,0,1-.424.121h-1.331l-.6,2.8c-.181.881.1,1.233.666,1.233a1.1,1.1,0,0,0,.762-.339c.036-.024.23.157.23.435a.69.69,0,0,1-.23.509,1.524,1.524,0,0,1-1.075.35C1401.5,2302.552,1400.885,2301.8,1401.187,2300.388Z" transform="translate(-1400.908 -2295.121)"/></g><g transform="translate(54.796 2.43)"><path class="b" d="M1406.865,2300.749a3.6,3.6,0,0,1,3.519-3.686h.141c1.39,0,2.19.653,2.19,1.607,0,1.173-.773,1.885-3.372,1.885-.424,0-.87-.023-1.39-.061v.218a1.44,1.44,0,0,0,1.333,1.54,1.371,1.371,0,0,0,.265-.005,2.171,2.171,0,0,0,1.865-.906c.023-.036.542.084.542.495a.762.762,0,0,1-.29.6,2.9,2.9,0,0,1-2.139.725A2.35,2.35,0,0,1,1406.865,2300.749Zm1.281-1.085a9.042,9.042,0,0,0,1.084.061c1.885,0,2.392-.484,2.392-1.017,0-.387-.374-.746-1.148-.746a2.576,2.576,0,0,0-2.332,1.706Z" transform="translate(-1406.865 -2297.064)"/></g><g transform="translate(60.92 2.431)"><path class="b" d="M1417.99,2298.189a1.779,1.779,0,0,1,1.6-1.123c.508,0,.933.253.933.665a.76.76,0,0,1-.52.774.955.955,0,0,0-.773-.327c-.857,0-1.423,1.028-1.73,2.479l-.387,1.848c-.084.424-.253.566-.542.566h-.145c-.314,0-.592-.136-.508-.566l1.124-5.281a.515.515,0,0,1,.3-.061C1417.736,2297.162,1418.125,2297.38,1417.99,2298.189Z" transform="translate(-1415.899 -2297.066)"/></g><g transform="translate(65.412 2.429)"><path class="b" d="M1430.52,2302.188a6.416,6.416,0,0,1,.3-1.5,6.769,6.769,0,0,0,.278-1.4,1.06,1.06,0,0,0-.923-1.178,1.133,1.133,0,0,0-.141-.007,1.857,1.857,0,0,0-1.644,1.039l-.7,3.36c-.1.435-.3.565-.616.565h-.121c-.314,0-.556-.12-.459-.565l.58-2.779c.2-.954-.218-1.62-.989-1.62a1.831,1.831,0,0,0-1.63,1.051l-.714,3.348c-.085.448-.3.565-.6.565H1423c-.315,0-.542-.136-.459-.565l1.123-5.28a.506.506,0,0,1,.3-.061c.387,0,.75.193.666.906a2.3,2.3,0,0,1,1.886-1,1.732,1.732,0,0,1,1.752,1.258,2.53,2.53,0,0,1,2.19-1.258,1.826,1.826,0,0,1,1.888,1.759h0v.163a8.2,8.2,0,0,1-.339,1.753,6.454,6.454,0,0,0-.29,1.3c0,.326.169.448.494.484.025,0-.024.6-.746.6a.857.857,0,0,1-.941-.767A.811.811,0,0,1,1430.52,2302.188Z" transform="translate(-1422.526 -2297.063)"/></g><g transform="translate(76.138 0.002)"><path class="b" d="M1438.407,2300.526l.848-3.952c.085-.423.243-.566.542-.566h.134c.327,0,.6.121.508.566l-.833,3.965c-.136.6-.024.833.52.869.024,0,0,.565-.75.565C1438.492,2301.977,1438.215,2301.421,1438.407,2300.526Zm1.233-6.272a.733.733,0,0,1,.689-.773h.061c.458,0,.713.2.713.542a.732.732,0,0,1-.677.784h0a.451.451,0,0,1-.068,0c-.459,0-.712-.218-.712-.555Z" transform="translate(-1438.349 -2293.482)"/></g><g transform="translate(78.75 2.427)"><path class="b" d="M1444.313,2298.15a2.3,2.3,0,0,1,1.946-1.084,1.83,1.83,0,0,1,1.966,1.674h0a1.836,1.836,0,0,1,0,.246,7.643,7.643,0,0,1-.353,1.753,6.639,6.639,0,0,0-.29,1.3c0,.326.169.447.495.484.036,0-.024.6-.738.6a.865.865,0,0,1-.953-.767h0a.953.953,0,0,1,0-.177,7.144,7.144,0,0,1,.3-1.5,6.15,6.15,0,0,0,.29-1.4,1.071,1.071,0,0,0-.945-1.182,1.18,1.18,0,0,0-.216,0,1.919,1.919,0,0,0-1.717,1.16l-.688,3.238c-.085.424-.254.565-.542.565h-.145c-.315,0-.593-.135-.508-.565l1.123-5.282a.525.525,0,0,1,.3-.06C1444.048,2297.158,1444.435,2297.366,1444.313,2298.15Z" transform="translate(-1442.201 -2297.06)"/></g><g transform="translate(85.626 2.432)"><path class="b" d="M1456.8,2301.938a2.522,2.522,0,0,1-2.175,1.233,2.228,2.228,0,0,1-2.281-2.169,2.071,2.071,0,0,1,.008-.258,3.544,3.544,0,0,1,3.251-3.674,2.119,2.119,0,0,1,1.971,1.123c.169-.746.435-1.028.943-1.028a.578.578,0,0,1,.435.145l-.932,4.386c-.135.6-.024.821.475.87.025,0,0,.565-.713.565C1457.032,2303.132,1456.73,2302.675,1456.8,2301.938Zm.339-1.7.193-.907a1.643,1.643,0,0,0-1.655-1.293,2.408,2.408,0,0,0-2.139,2.6,1.416,1.416,0,0,0,1.278,1.541h0a1.261,1.261,0,0,0,.135.006,2.347,2.347,0,0,0,2.187-1.943Z" transform="translate(-1452.346 -2297.067)"/></g><g transform="translate(94.746 2.43)"><path class="b" d="M1465.8,2300.749a3.6,3.6,0,0,1,3.518-3.686h.142c1.39,0,2.19.653,2.19,1.607,0,1.173-.773,1.885-3.372,1.885-.424,0-.87-.023-1.39-.061v.218a1.44,1.44,0,0,0,1.333,1.54,1.38,1.38,0,0,0,.266-.005,2.17,2.17,0,0,0,1.864-.906c.024-.036.542.084.542.495a.765.765,0,0,1-.29.6,2.9,2.9,0,0,1-2.14.725A2.351,2.351,0,0,1,1465.8,2300.749Zm1.282-1.085a9.043,9.043,0,0,0,1.085.061c1.885,0,2.394-.484,2.394-1.017,0-.387-.374-.746-1.148-.746a2.577,2.577,0,0,0-2.331,1.706Z" transform="translate(-1465.799 -2297.064)"/></g><g transform="translate(100.871 2.425)"><path class="b" d="M1476.941,2298.149a2.3,2.3,0,0,1,1.945-1.085,1.807,1.807,0,0,1,1.966,1.633v0a1.893,1.893,0,0,1,0,.286,7.659,7.659,0,0,1-.353,1.753,6.556,6.556,0,0,0-.29,1.3c0,.327.169.447.495.484.036,0-.024.6-.738.6a.867.867,0,0,1-.954-.769h0a.816.816,0,0,1,0-.174,7.156,7.156,0,0,1,.3-1.5,6.238,6.238,0,0,0,.29-1.4,1.068,1.068,0,0,0-.941-1.182h0a1.156,1.156,0,0,0-.218,0,1.917,1.917,0,0,0-1.716,1.162l-.689,3.238c-.085.424-.254.565-.542.565h-.145c-.315,0-.592-.135-.508-.565l1.123-5.281a.527.527,0,0,1,.3-.061C1476.675,2297.158,1477.062,2297.366,1476.941,2298.149Z" transform="translate(-1474.835 -2297.056)"/></g><g transform="translate(107.638 3.089)"><path class="b" d="M1484.821,2302.912a1.044,1.044,0,0,1,.254-.762.715.715,0,0,1,.581-.193c.447,0,.688.181.688.507a1.032,1.032,0,0,1-.242.763.741.741,0,0,1-.592.193C1485.062,2303.421,1484.821,2303.24,1484.821,2302.912Zm.834-3.927a1.13,1.13,0,0,1,.242-.761.743.743,0,0,1,.593-.181c.448,0,.689.169.689.508a1.131,1.131,0,0,1-.242.762.747.747,0,0,1-.592.181c-.447,0-.688-.167-.688-.508Z" transform="translate(-1484.818 -2298.036)"/></g></g><g transform="translate(1480.424 1989.395)"><g transform="translate(2.363 5.571)"><path class="e" d="M1721.028,2024.056a2.987,2.987,0,1,0,5.968.235c0-.078,0-.157,0-.235a3.151,3.151,0,0,0-.991-2.305c-1.154,1.627-2.8-.839-1.516-2.643C1724.488,2019.108,1721.028,2019.557,1721.028,2024.056Z" transform="translate(-1721.025 -2019.108)"/></g><g transform="translate(0 0.001)"><path class="f" d="M1716.6,2014.888a5.443,5.443,0,0,0,1.6,1.46s-.787-6.9,4.339-8.1c-1.313,5,1.67,6.411,2.757,3.77a4.3,4.3,0,0,1,.437,4.712c.745.111,1.372-.733,1.372-.733.006.1.009.208.009.314a5.351,5.351,0,1,1-10.695.381c0-.135,0-.27,0-.406a5.765,5.765,0,0,1,.176-1.4Z" transform="translate(-1716.418 -2008.248)"/></g><g transform="translate(5.349)"><path class="f" d="M1732.187,2016s-.625.844-1.372.733a4.3,4.3,0,0,0-.437-4.712c-1.086,2.643-4.07,1.231-2.756-3.77a5.6,5.6,0,0,0-.774.24v13.374a5.451,5.451,0,0,0,5.347-5.55h0C1732.2,2016.206,1732.193,2016.1,1732.187,2016Z" transform="translate(-1726.848 -2008.246)"/></g><g transform="translate(2.259 4.804)"><path class="g" d="M1720.824,2022.734a3.091,3.091,0,0,0,6.177.226q0-.113,0-.226a3.258,3.258,0,0,0-1.026-2.386c-1.194,1.684-2.9-.872-1.57-2.736C1724.405,2017.614,1720.824,2018.078,1720.824,2022.734Z" transform="translate(-1720.822 -2017.612)"/></g><g transform="translate(3.362 7.777)"><path class="e" d="M1722.974,2026.7a1.988,1.988,0,1,0,3.973.146c0-.048,0-.1,0-.144a2.1,2.1,0,0,0-.66-1.535c-.769,1.083-1.863-.56-1.01-1.76C1725.276,2023.41,1722.974,2023.707,1722.974,2026.7Z" transform="translate(-1722.972 -2023.409)"/></g></g><g transform="translate(1295.979 1989.573)"><g transform="translate(2.363 5.566)"><path class="e" d="M1361.4,2024.4a2.986,2.986,0,1,0,5.968.207c0-.069,0-.138,0-.207a3.151,3.151,0,0,0-.991-2.308c-1.154,1.627-2.8-.84-1.516-2.643C1364.861,2019.452,1361.4,2019.9,1361.4,2024.4Z" transform="translate(-1361.398 -2019.447)"/></g><g transform="translate(0)"><path class="f" d="M1356.972,2015.234a5.446,5.446,0,0,0,1.6,1.461s-.787-6.9,4.339-8.1c-1.313,5,1.67,6.411,2.757,3.77a4.3,4.3,0,0,1,.438,4.713c.745.111,1.372-.733,1.372-.733.006.1.009.209.009.314a5.351,5.351,0,0,1-10.7.38q-.007-.2,0-.4a5.751,5.751,0,0,1,.176-1.4Z" transform="translate(-1356.792 -2008.594)"/></g><g transform="translate(5.349)"><path class="f" d="M1372.56,2016.344s-.625.845-1.372.733a4.3,4.3,0,0,0-.437-4.713c-1.086,2.643-4.07,1.231-2.756-3.77a5.686,5.686,0,0,0-.774.24v13.374a5.451,5.451,0,0,0,5.347-5.549h0C1372.566,2016.554,1372.566,2016.448,1372.56,2016.344Z" transform="translate(-1367.221 -2008.594)"/></g><g transform="translate(2.257 4.803)"><path class="g" d="M1361.2,2023.081a3.091,3.091,0,1,0,6.178.239c0-.08,0-.159,0-.239a3.263,3.263,0,0,0-1.026-2.387c-1.195,1.684-2.9-.872-1.57-2.736C1364.777,2017.96,1361.2,2018.425,1361.2,2023.081Z" transform="translate(-1361.193 -2017.959)"/></g><g transform="translate(3.359 7.776)"><path class="e" d="M1363.342,2027.048a1.988,1.988,0,0,0,3.973.145q0-.071,0-.143a2.1,2.1,0,0,0-.66-1.536c-.769,1.083-1.863-.56-1.009-1.76C1365.646,2023.755,1363.342,2024.054,1363.342,2027.048Z" transform="translate(-1363.34 -2023.755)"/></g></g><g transform="translate(1258.669 1999.298)"><g transform="translate(0 0)"><path class="d" d="M1486.246,2157.53h-27.854v-1.2h27.854c2.589,0,4.7-1.818,4.7-4.052v-4.692c0-2.327-2.192-4.221-4.887-4.221H1303.9c-10.949,0-19.856-7.784-19.856-17.353v-81.105c0-9.569,8.907-17.353,19.856-17.353h11.962v1.2H1303.9c-10.242,0-18.574,7.246-18.574,16.153v81.105c0,8.907,8.332,16.153,18.574,16.153h182.153c3.4,0,6.169,2.432,6.169,5.42v4.692C1492.223,2155.174,1489.542,2157.53,1486.246,2157.53Z" transform="translate(-1284.045 -2027.554)"/></g><g transform="translate(168.043 126.306)"><path class="d" d="M1614.9,2297.279a3.034,3.034,0,1,1,3.2-3.03A3.124,3.124,0,0,1,1614.9,2297.279Zm0-4.777a1.755,1.755,0,1,0,1.923,1.747A1.843,1.843,0,0,0,1614.9,2292.5Z" transform="translate(-1611.691 -2291.22)"/></g></g><g transform="translate(1252.379 1993.165)"><g transform="translate(0 0)"><path class="a" d="M1473.982,2145h-27.854V2143.8h27.854c2.589,0,4.7-1.81,4.7-4.034V2135.1c0-2.317-2.193-4.2-4.888-4.2H1291.638c-10.949,0-19.857-7.749-19.857-17.275v-80.741c0-9.525,8.908-17.275,19.857-17.275l16.877-.008v1.194l-16.878.008c-10.243,0-18.575,7.213-18.575,16.08v80.741c0,8.866,8.332,16.08,18.574,16.08H1473.79c3.4,0,6.171,2.42,6.171,5.4v4.672C1479.96,2142.65,1477.278,2145,1473.982,2145Z" transform="translate(-1271.781 -2015.596)"/></g><g transform="translate(168.044 125.729)"><path class="a" d="M1602.632,2285.338a3.034,3.034,0,1,1,3.2-3.029A3.124,3.124,0,0,1,1602.632,2285.338Zm0-4.777a1.755,1.755,0,1,0,1.922,1.748A1.843,1.843,0,0,0,1602.632,2280.561Z" transform="translate(-1599.428 -2279.279)"/></g></g><g transform="translate(1380.715 1988.593)"><g transform="translate(0 0)"><g transform="translate(18.158 2.285)"><path class="b" d="M1578.882,2013.272c-2.4,0-4.093,1.729-4.1,4.53a4.081,4.081,0,0,0,4.023,4.138h.093a3.908,3.908,0,0,0,2.454-.559v-1.416a4.749,4.749,0,0,1-2.058.414,2.3,2.3,0,0,1-2.481-1.822l-.015-.1h1.5a7.309,7.309,0,0,0,3.026-.436,1.538,1.538,0,0,0,.9-1.539,3.206,3.206,0,0,0-3.205-3.208h0c-.043,0-.086,0-.128,0m.974,3.671a6.812,6.812,0,0,1-2.021.188h-1.044l.005-.09.015-.285a1.908,1.908,0,0,1,1.88-1.892,2.033,2.033,0,0,1,1.231.337,1.225,1.225,0,0,1,.475,1.026.7.7,0,0,1-.54.718m3.392-.439v5.291h1.964v-4.911a2.171,2.171,0,0,1,.4-1.446,1.444,1.444,0,0,1,1.162-.453,3.111,3.111,0,0,1,.535.043v-1.556a2.181,2.181,0,0,0-.994-.205,2.928,2.928,0,0,0-3.068,3.236m-25.838,5.291h1.961v-10.658h-1.961Zm7.251-8.522a3.469,3.469,0,0,0-3.767,3.552v4.971h1.949v-4.828a2.237,2.237,0,0,1,.452-1.465,1.507,1.507,0,0,1,1.19-.528,1.692,1.692,0,0,1,1.34.522,2.409,2.409,0,0,1,.476,1.627v4.672h1.949v-4.858a3.437,3.437,0,0,0-3.59-3.665m7.038-2.135h-1.941l.007,7.69a2.8,2.8,0,0,0,3.115,3.113c.9,0,1.442-.295,1.666-.764v-1.214a3.6,3.6,0,0,1-1.411.224,1.4,1.4,0,0,1-1.06-.379,1.75,1.75,0,0,1-.375-1.237v-3.6h1.7c.831,0,1.18-.53,1.18-.923v-.779H1571.7Z" transform="translate(-1557.411 -2011.139)"/><g transform="translate(37.698 2.135)"><path class="b" d="M1637.45,2020.048a1.539,1.539,0,0,0,.9-1.539,3.207,3.207,0,0,0-3.206-3.208h0c-.043,0-.086,0-.128,0-2.4,0-4.094,1.729-4.1,4.53a4.081,4.081,0,0,0,4.023,4.138h.092a3.912,3.912,0,0,0,2.456-.559V2022a4.747,4.747,0,0,1-2.059.413,2.3,2.3,0,0,1-2.481-1.822l-.014-.1h1.5a7.306,7.306,0,0,0,3.026-.436m-4.528-.887.007-.09.014-.285a1.908,1.908,0,0,1,1.878-1.892,2.031,2.031,0,0,1,1.231.337,1.216,1.216,0,0,1,.475,1.026.7.7,0,0,1-.54.718,6.778,6.778,0,0,1-2.021.188Z" transform="translate(-1630.914 -2015.302)"/></g><g transform="translate(63.189 2.127)"><path class="b" d="M1680.616,2018.525v5.291h1.966V2018.9a2.171,2.171,0,0,1,.4-1.446,1.448,1.448,0,0,1,1.161-.453,3.113,3.113,0,0,1,.535.043v-1.556a2.188,2.188,0,0,0-1-.205,2.93,2.93,0,0,0-3.068,3.236" transform="translate(-1680.616 -2015.287)"/></g><g transform="translate(30.751 2.099)"><path class="b" d="M1620.1,2023.9c-1.433,0-2.5-.784-2.5-1.628v-.939h.072a3.743,3.743,0,0,0,2.341.785c.956,0,1.417-.292,1.417-.908,0-.476-.274-.705-1.621-.906-1.645-.246-2.439-.937-2.439-2.2a3.034,3.034,0,0,1,3.307-2.875c1.767,0,2.487.968,2.487,1.768v.784h-.072a3.277,3.277,0,0,0-2.225-.767c-1.186,0-1.561.382-1.561.923,0,.415.231.585,1.561.815,1.616.277,2.485,1.03,2.485,2.353,0,1.752-1.157,2.8-3.249,2.8" transform="translate(-1617.369 -2015.231)"/></g><g transform="translate(46.01 2.124)"><path class="b" d="M1654.292,2021.445c.014.337.031.784.031,1.06a3.689,3.689,0,0,1-3.816,3.936c-1.605,0-2.7-.829-2.7-1.814v-.938h.086a3.328,3.328,0,0,0,2.474.891c1.4,0,2.035-.706,2.035-1.906,0-.122,0-.291-.013-.431,0-.121-.013-.338-.013-.413v-.2a1.986,1.986,0,0,1-2.008,1.231,3.172,3.172,0,0,1-3.243-3.1c0-.085,0-.169,0-.254a3.9,3.9,0,0,1,3.958-4.228c1.938,0,3.18,1.507,3.18,3.63v1.414c0,.277.014.753.029,1.123m-5.189-2.2a1.681,1.681,0,0,0,1.561,1.895c.978,0,1.679-.777,1.679-2.112,0-1.3-.615-1.942-1.473-1.942a1.933,1.933,0,0,0-1.767,2.159" transform="translate(-1647.12 -2015.281)"/></g><g transform="translate(67.696 2.098)"><path class="b" d="M1693.35,2015.229c2.392,0,3.769,2,3.769,4.2,0,2.49-1.377,4.473-3.949,4.473-2.393,0-3.768-1.983-3.768-4.181,0-2.491,1.375-4.49,3.947-4.49m-.179,1.74c-1.185,0-1.788,1.026-1.788,2.451,0,1.713.6,2.74,1.969,2.74,1.2,0,1.787-1.026,1.787-2.437,0-1.73-.615-2.755-1.969-2.755" transform="translate(-1689.402 -2015.229)"/></g><g transform="translate(54.517 2.274)"><path class="b" d="M1667.284,2024.124a3.465,3.465,0,0,0,3.753-3.564v-4.987h-1.942v4.845a2.25,2.25,0,0,1-.452,1.468,1.5,1.5,0,0,1-1.185.532,1.687,1.687,0,0,1-1.336-.525,2.429,2.429,0,0,1-.474-1.633v-4.687h-1.941v4.876a3.435,3.435,0,0,0,3.579,3.677" transform="translate(-1663.706 -2015.572)"/></g></g><path class="h" d="M1524.041,2006.683a2.033,2.033,0,0,0-2.033,2.032V2021.9H1535.2a2.034,2.034,0,0,0,2.034-2.033v-13.185Zm9.634,10.984-8.11,1.464v-8.188l8.112-1.465Z" transform="translate(-1522.008 -2006.683)"/></g></g><g transform="translate(1311.526 1985.85)"><g transform="translate(0 0)"><path class="d" d="M1397.672,2014.481v2.735c0,3.294-1.8,5.177-5.283,5.177s-5.285-1.882-5.285-5.177V2006.51c0-3.294,1.8-5.177,5.285-5.177s5.283,1.882,5.283,5.177v2h-3.352v-2.205c0-1.47-.709-2.029-1.837-2.029s-1.837.559-1.837,2.029v11.118c0,1.47.709,2,1.837,2s1.837-.529,1.837-2v-2.941Z" transform="translate(-1387.104 -2001.334)"/></g><g transform="translate(11.213 0.236)"><path class="d" d="M1413.445,2015.557l-4.479-13.763h3.706l2.708,9.382,2.707-9.382h3.385l-4.479,13.763v6.821h-3.545Z" transform="translate(-1408.966 -2001.794)"/></g><g transform="translate(25.135 0.232)"><path class="d" d="M1446.714,2006.524v.735c0,2.118-.709,3.471-2.288,4.147,1.9.677,2.643,2.236,2.643,4.411v1.677c0,3.176-1.837,4.882-5.382,4.882h-5.575v-20.589h5.35C1445.135,2001.79,1446.714,2003.348,1446.714,2006.524Zm-7.058-1.8v5.441h1.385c1.322,0,2.127-.529,2.127-2.177v-1.145c0-1.47-.548-2.118-1.8-2.118Zm0,8.383v6.324h2.028c1.193,0,1.837-.5,1.837-2.03v-1.8c0-1.911-.677-2.5-2.288-2.5Z" transform="translate(-1436.112 -2001.787)"/></g><g transform="translate(38.218 0.236)"><path class="d" d="M1465.166,2010.468h4.868v2.941h-4.868v6.031h6.123v2.941h-9.669v-20.588h9.669v2.941h-6.123Z" transform="translate(-1461.62 -2001.794)"/></g><g transform="translate(50.077 0.237)"><path class="d" d="M1492.155,2022.382a5.874,5.874,0,0,1-.322-2.53v-3.235c0-1.912-.709-2.616-2.321-2.616h-1.225v8.383h-3.544V2001.8h5.349c3.675,0,5.253,1.559,5.253,4.735v1.618c0,2.118-.741,3.5-2.32,4.177,1.772.677,2.353,2.235,2.353,4.382v3.177a5.58,5.58,0,0,0,.387,2.5Zm-3.865-17.647v6.324h1.385c1.321,0,2.127-.529,2.127-2.178v-2.028c0-1.47-.548-2.118-1.805-2.118Z" transform="translate(-1484.743 -2001.796)"/></g></g><g transform="translate(1500.976 1998.504)"><path class="d" d="M1825.125,2032.712a8.865,8.865,0,0,0-8.182-5.424h-60.455v-1.282h60.455a10.144,10.144,0,0,1,9.363,6.208Z" transform="translate(-1756.488 -2026.006)"/></g><g transform="translate(1496.44 1992.854)"><path class="a" d="M1816.281,2021.7a8.868,8.868,0,0,0-8.182-5.424h-60.455v-1.282H1808.1a10.145,10.145,0,0,1,9.363,6.207Z" transform="translate(-1747.644 -2014.99)"/></g><g transform="translate(1231.95 1969.547)"><g transform="translate(28.524)"><path class="i" d="M1287.569,1970.5c-.143.632,3.8,7.041,4.706,7.246.253.056.2-.264.422-.213,1.052.237-1.739-4.786-2.286-6.193C1289.5,1969.012,1287.864,1969.2,1287.569,1970.5Z" transform="translate(-1287.565 -1969.547)"/></g><g transform="translate(24.749 13.128)"><path class="i" d="M1281.731,1996.191c-.057-.1-.835-1.132-.992-1.042C1278.843,1996.243,1282.668,1997.819,1281.731,1996.191Z" transform="translate(-1280.204 -1995.144)"/></g><g transform="translate(11.365 14.807)"><path class="i" d="M1255.111,1998.5a1,1,0,0,0-.583-.07.526.526,0,0,0-.395.332c-.431,1.339,4.914,5.7,6.283,6.142.172.056.282.051.308-.034C1260.823,2004.568,1256.428,1998.927,1255.111,1998.5Z" transform="translate(-1254.109 -1998.417)"/></g><g transform="translate(16.414 29.124)"><path class="i" d="M1263.969,2026.677c-.209.648,1.625,2.645,2.059,1.3C1266.261,2027.257,1264.309,2025.622,1263.969,2026.677Z" transform="translate(-1263.953 -2026.332)"/></g><g transform="translate(0 34.649)"><path class="i" d="M1232.321,2037.1c-.621.175-.239.572-.346.9-.549,1.7,8.247,3.138,9.283,2.692.3-.129.453-.746.21-.824a.184.184,0,0,1-.084-.178C1241.392,2039.578,1232.538,2037.047,1232.321,2037.1Z" transform="translate(-1231.95 -2037.104)"/></g><g transform="translate(5.437 46.451)"><path class="i" d="M1244.949,2060.175a4.773,4.773,0,0,0-2.126.142c-.648.418.027,1.527.308,1.346a.805.805,0,0,1,.365.042C1244.237,2061.914,1246.371,2060.849,1244.949,2060.175Z" transform="translate(-1242.55 -2060.115)"/></g></g></g></svg>