<svg xmlns="http://www.w3.org/2000/svg" width="52" height="52" viewBox="0 0 52 52"><defs><style>.a{fill:#fff;}.b{fill:#0855c4;}.c{fill:#001f5e;}.d{fill:#00aded;}</style></defs><g transform="translate(-1000 -735)"><circle class="a" cx="26" cy="26" r="26" transform="translate(1000 735)"/><g transform="translate(1016.245 746.398)"><g transform="translate(0 0)"><path class="b" d="M283.165,176.673l-8.083-19.558a1.742,1.742,0,0,0-1.051-.985l-10.146-3.44a1.742,1.742,0,0,0-2.121.876l-4.757,9.6a1.742,1.742,0,0,0-.049,1.439l8.083,19.558a1.742,1.742,0,0,0,2.276.945l7.451-3.08,7.451-3.08A1.742,1.742,0,0,0,283.165,176.673ZM265.952,160.7a2.043,2.043,0,1,1,1.108-2.668A2.043,2.043,0,0,1,265.952,160.7Z" transform="translate(-256.826 -152.597)"/></g></g><g transform="translate(1014.054 744.065)"><path class="c" d="M244.341,140.934l.571-1.153c-2.432-1.25-4.227-2.791-4.469-3.838a.709.709,0,0,1,.794-.895c1.951.1,5.857,3.773,7.567,6.6a.644.644,0,0,0,1.1-.666c-1.726-2.855-5.936-7.088-8.6-7.221a1.993,1.993,0,0,0-2.113,2.47c.5,2.166,4.063,4.144,5.144,4.7Z" transform="translate(-239.132 -133.759)"/></g><g transform="translate(1025.972 758.129)"><path class="a" d="M338.376,261.024a.981.981,0,0,1-.908-1.349l4.758-11.727a.98.98,0,1,1,1.817.737l-4.758,11.728A.981.981,0,0,1,338.376,261.024Z" transform="translate(-337.396 -247.336)"/></g><g transform="translate(1022.301 760.505)"><path class="a" d="M308.464,273.28a2.725,2.725,0,1,1,2.509-3.786h0a2.727,2.727,0,0,1-2.509,3.786Zm0-3.489a.763.763,0,1,0,.7.466A.758.758,0,0,0,308.463,269.792Z" transform="translate(-305.739 -267.831)"/></g><g transform="translate(1030.912 763.992)"><path class="a" d="M382.72,303.353a2.724,2.724,0,1,1,1.057-.215A2.728,2.728,0,0,1,382.72,303.353Zm0-3.487a.764.764,0,1,0,.7.466h0a.765.765,0,0,0-.7-.466Z" transform="translate(-379.992 -297.904)"/></g><g transform="translate(1025.761 741.062)"><path class="d" d="M334.08,114.254a.4.4,0,0,1-.4-.4V109.9a.4.4,0,1,1,.792,0v3.958A.4.4,0,0,1,334.08,114.254Z" transform="translate(-333.684 -109.504)"/></g><g transform="translate(1036.36 745.129)"><path class="a" d="M419.675,145.3a.4.4,0,0,1-.28-.676l2.155-2.156a.4.4,0,1,1,.56.56l-2.155,2.156A.4.4,0,0,1,419.675,145.3Z" transform="translate(-419.279 -142.35)"/></g><g transform="translate(1039.39 757.883)"><path class="a" d="M448.1,246.144h-3.958a.4.4,0,1,1,0-.792H448.1a.4.4,0,1,1,0,.792Z" transform="translate(-443.746 -245.352)"/></g><g transform="translate(1040.778 762.754)"><path class="a" d="M457.61,286.241a.282.282,0,0,1-.108-.022l-2.372-.983a.283.283,0,0,1,.216-.523l2.372.983a.283.283,0,0,1-.108.545Z" transform="translate(-454.955 -284.692)"/></g><g transform="translate(1030.705 743.962)"><path class="d" d="M373.894,135.86a.283.283,0,0,1-.261-.392l.983-2.372a.283.283,0,1,1,.523.217l-.983,2.372A.283.283,0,0,1,373.894,135.86Z" transform="translate(-373.611 -132.921)"/></g><g transform="translate(1020.436 742.355)"><path class="d" d="M291.881,122.731a.283.283,0,0,1-.262-.175l-.919-2.219a.283.283,0,1,1,.523-.217l.919,2.219a.283.283,0,0,1-.261.392Z" transform="translate(-290.678 -119.945)"/></g><g transform="translate(1037.537 752.183)"><path class="a" d="M429.07,200.864a.283.283,0,0,1-.109-.545l2.372-.983a.283.283,0,0,1,.216.523l-2.372.983A.279.279,0,0,1,429.07,200.864Z" transform="translate(-428.787 -199.315)"/></g><g transform="translate(1012.135 750.561)"><path class="d" d="M226.192,189.169a.4.4,0,0,1-.28-.116l-2.156-2.156a.4.4,0,1,1,.56-.56l2.156,2.156a.4.4,0,0,1-.28.676Z" transform="translate(-223.641 -186.221)"/></g><g transform="translate(1010.042 772.658)"><path class="a" d="M207.13,367.622a.4.4,0,0,1-.28-.676l2.155-2.156a.4.4,0,0,1,.56.56l-2.155,2.156A.4.4,0,0,1,207.13,367.622Z" transform="translate(-206.734 -364.674)"/></g><g transform="translate(1005.629 762.059)"><path class="a" d="M175.447,279.871h-3.958a.4.4,0,1,1,0-.792h3.958a.4.4,0,0,1,0,.792Z" transform="translate(-171.093 -279.079)"/></g><g transform="translate(1009.293 756.359)"><path class="d" d="M203.342,234.593a.281.281,0,0,1-.108-.022l-2.372-.983a.283.283,0,0,1,.217-.523l2.372.983a.283.283,0,0,1-.108.545Z" transform="translate(-200.687 -233.044)"/></g><g transform="translate(1008.146 767.768)"><path class="a" d="M191.706,326.729a.283.283,0,0,1-.108-.545l2.372-.982a.283.283,0,1,1,.216.523l-2.372.982A.281.281,0,0,1,191.706,326.729Z" transform="translate(-191.423 -325.181)"/></g></g></svg>