<svg xmlns="http://www.w3.org/2000/svg" xmlns:xlink="http://www.w3.org/1999/xlink" width="1453" height="484" viewBox="0 0 1453 484"><defs><style>.a{fill:url(#a);}.b{opacity:0.687;}.c{fill:#0af;}.d{opacity:0.63;}</style><linearGradient id="a" x1="0.5" x2="0.5" y2="1" gradientUnits="objectBoundingBox"><stop offset="0" stop-color="#0855c4"/><stop offset="0.355" stop-color="#075ec8"/><stop offset="1" stop-color="#0081f0"/></linearGradient></defs><g transform="translate(0 -72)"><rect class="a" width="1453" height="484" transform="translate(0 72)"/><g class="b" transform="translate(887.387 194.144)"><g transform="translate(436.613 -76.087)"><path class="c" d="M436.613,3.448l.633-2.034c.886-2.84,1.663-5.387,2.377-7.744.7-2.3,1.324-4.421,1.9-6.433.566-1.974,1.088-3.842,1.585-5.693.481-1.8.94-3.582,1.379-5.406.431-1.78.845-3.58,1.244-5.481.386-1.849.762-3.782,1.109-5.837l.077-.453.38-.255q1.815-1.232,3.623-2.433c1.236-.815,2.463-1.615,3.692-2.409,1.255-.807,2.512-1.6,3.786-2.4q1.934-1.21,3.928-2.418,2.021-1.226,4.127-2.469c1.435-.845,2.907-1.712,4.421-2.583q2.326-1.332,4.825-2.72c1.716-.952,3.5-1.92,5.387-2.92,1.931-1.017,3.969-2.068,6.133-3.145,2.229-1.107,4.6-2.252,7.148-3.428,2.851-1.319,5.653-2.561,8.566-3.793,3.37-1.431,6.92-2.857,10.552-4.243,4.436-1.688,8.982-3.316,13.508-4.842l1.178-.4.221,1.225c.571,3.181,1.066,6.221,1.508,9.173.47,3.074.877,6.039,1.249,8.96.378,3.029.725,6,1.045,8.982.324,3.093.624,6.2.92,9.389.3,3.316.583,6.732.869,10.32.292,3.733.592,7.667.914,11.919L536.113-.18l-1.45-.373C527.569-2.381,521-3.8,514.588-4.9c-4.96-.837-9.608-1.442-14.212-1.845-3.649-.32-7.171-.5-10.767-.532-3-.026-5.818.045-8.6.219-2.5.146-4.846.358-7.165.648-2.115.257-4.192.566-6.18.922-1.909.339-3.735.712-5.509,1.107-1.729.38-3.407.787-5.054,1.218-1.613.423-3.2.877-4.775,1.345-1.54.453-3.072.935-4.614,1.439-1.5.491-3.014,1-4.541,1.527Zm12.27-37.817c-.332,1.916-.686,3.728-1.051,5.466-.4,1.922-.819,3.745-1.257,5.547-.446,1.838-.907,3.634-1.394,5.455-.5,1.862-1.023,3.741-1.594,5.73-.581,2.023-1.212,4.155-1.911,6.463-.541,1.785-1.118,3.679-1.748,5.723l2.538-.89c1.542-.534,3.065-1.045,4.58-1.538,1.562-.511,3.113-1,4.67-1.459,1.594-.474,3.2-.935,4.842-1.362,1.673-.44,3.381-.854,5.133-1.238,1.8-.4,3.658-.781,5.6-1.124,2.025-.363,4.145-.68,6.294-.94,2.33-.292,4.786-.515,7.3-.661,2.832-.176,5.7-.249,8.752-.223,3.651.039,7.227.215,10.934.541,4.661.41,9.366,1.019,14.384,1.866,6.034,1.032,12.2,2.347,18.8,4.011l-.987-12.957c-.322-4.25-.622-8.18-.914-11.912-.285-3.578-.566-6.985-.867-10.293-.294-3.179-.594-6.279-.916-9.357-.32-2.969-.665-5.927-1.04-8.941-.369-2.9-.774-5.848-1.242-8.907-.382-2.555-.8-5.17-1.281-7.89-4.11,1.4-8.225,2.883-12.249,4.415-3.606,1.375-7.133,2.791-10.479,4.213-2.892,1.223-5.674,2.454-8.5,3.763-2.533,1.167-4.882,2.3-7.094,3.4-2.147,1.066-4.17,2.109-6.086,3.119-1.871.993-3.643,1.954-5.346,2.9q-2.494,1.387-4.8,2.705-2.259,1.3-4.4,2.57-2.095,1.236-4.106,2.456c-1.319.8-2.619,1.6-3.9,2.4-1.268.792-2.516,1.583-3.763,2.385q-1.831,1.184-3.668,2.394Q450.5-35.464,448.883-34.37Z" transform="translate(-436.613 76.087)"/></g><g transform="translate(455.762 -44.791)"><rect class="c" width="40.887" height="2.146" transform="translate(0 40.435) rotate(-81.466)"/></g></g><g transform="translate(397.624 546.201)"><path class="c" d="M231.819-100.012l-.1-.819c-.293-2.336-.623-4.646-1.038-7.269-.332-2.088-.676-4.076-1.053-6.076-.351-1.9-.711-3.68-1.08-5.44s-.754-3.484-1.161-5.251-.84-3.573-1.313-5.471-.969-3.907-1.525-6.072l-.17-.664,1.955-.692c.625-.221,1.236-.435,1.834-.651,1.007-.358,1.976-.723,2.918-1.083s1.847-.726,2.739-1.111,1.77-.768,2.635-1.182c.9-.429,1.735-.858,2.564-1.307.916-.495,1.751-.975,2.555-1.465.9-.555,1.751-1.114,2.585-1.705.922-.652,1.793-1.319,2.663-2.039.952-.782,1.86-1.592,2.777-2.48,1.023-.992,1.975-2,2.911-3.078,1.08-1.249,2.083-2.519,3.068-3.881,1.117-1.545,2.172-3.163,3.226-4.948l.871-1.474,2.394,7.961c.454,1.51.894,2.974,1.326,4.424.506,1.687,1,3.354,1.5,5.04s.987,3.379,1.49,5.137,1.018,3.583,1.555,5.521,1.1,4,1.7,6.24,1.235,4.658,1.925,7.335l.1.378-.254.3c-1.127,1.321-2.33,2.614-3.679,3.954-1.152,1.134-2.323,2.2-3.482,3.173-1.064.9-2.141,1.736-3.292,2.568-1.013.732-2.062,1.436-3.117,2.094-.953.6-1.924,1.161-2.968,1.73-1,.541-1.935,1.017-2.851,1.457s-1.847.867-2.752,1.258-1.8.757-2.7,1.116-1.789.705-2.686,1.031-1.8.638-2.707.938-1.834.578-2.765.848-1.879.527-2.846.775-1.944.478-2.943.7Zm-5.65-36.106c.49,1.917.937,3.708,1.359,5.42.474,1.9.91,3.719,1.318,5.5s.793,3.509,1.167,5.278c.433,2.065.778,3.8,1.087,5.473.379,2.012.726,4.014,1.059,6.116.37,2.332.672,4.419.941,6.5q1.063-.248,2.1-.51,1.425-.365,2.8-.762c.917-.265,1.818-.541,2.716-.833s1.78-.6,2.662-.922,1.761-.662,2.641-1.013,1.765-.711,2.657-1.1,1.789-.8,2.7-1.235c.894-.429,1.8-.9,2.784-1.423,1.015-.553,1.961-1.1,2.889-1.684,1.027-.64,2.047-1.325,3.032-2.037,1.121-.81,2.17-1.628,3.206-2.5,1.13-.948,2.271-1.988,3.393-3.091,1.215-1.209,2.311-2.379,3.339-3.566-.651-2.522-1.253-4.814-1.824-6.943-.6-2.239-1.161-4.292-1.7-6.227s-1.049-3.754-1.552-5.508-1-3.45-1.487-5.13-.989-3.346-1.495-5.031c-.432-1.45-.872-2.913-1.326-4.422l-1.415-4.706c-.789,1.268-1.59,2.46-2.424,3.613-1.009,1.4-2.04,2.7-3.149,3.984-.965,1.114-1.947,2.152-3,3.175-.948.917-1.885,1.754-2.867,2.559-.9.743-1.8,1.432-2.75,2.106-.861.61-1.734,1.186-2.669,1.76-.828.5-1.686,1-2.623,1.5-.851.461-1.712.9-2.631,1.341-.885.424-1.78.82-2.692,1.208s-1.834.763-2.793,1.133-1.934.733-2.95,1.094c-.6.216-1.212.432-1.841.654Z"/><path class="c" d="M241.69-103.152l-1.491-.16c.784-7.3-6.73-36.129-6.806-36.42l1.451-.38C235.157-138.915,242.5-110.726,241.69-103.152Z"/></g><g transform="translate(1006.503 558.341)"><g transform="translate(289.497 -146.963)"><path class="c" d="M339.087-77.341l-.487-.351c-4.739-3.412-8.908-6.572-12.393-9.4-3.447-2.79-6.085-5.038-8.55-7.287-2.426-2.211-4.329-4.018-6.17-5.859-1.619-1.619-2.889-2.983-4.118-4.3l-.431-.463c-.786-.841-1.468-1.667-2.127-2.465-.467-.566-.923-1.119-1.4-1.652a40.145,40.145,0,0,1-2.81-3.608c-.864-1.208-1.584-2.154-2.331-3.053a28.907,28.907,0,0,1-1.961-2.919c-.574-.873-1.123-1.707-1.649-2.541-.391-.622-.742-1.218-1.083-1.8l-.35-.591a23.374,23.374,0,0,1-1.3-2.447,14.3,14.3,0,0,0-.663-1.279c-.158-.282-.315-.559-.463-.854l-1.311-2.78.635-.346c2-1.091,3.65-2.025,5.051-2.857,1.514-.9,2.885-1.726,4.188-2.531s2.529-1.583,3.735-2.364l11.709-7.88,5.289,3.109,2.689,1.462,3.091,1.541c.98.468,2,.956,3.061,1.419l.846.373c.912.4,1.852.821,2.9,1.228l.818.321c1.157.454,2.352.924,3.643,1.379l.185.065c1.576.556,3.363,1.187,5.286,1.774,1.8.549,4.258,1.3,6.894,1.983,2.164.56,5.451,1.4,9.014,2.2,3.1.7,7.2,1.492,12.2,2.365,4.93.859,11.015,1.758,17.136,2.532l1.537.194-14.5,14.711c-1.277,1.281-2.56,2.57-3.865,3.857-1.73,1.711-3.686,3.606-6.153,5.963-1.856,1.773-3.854,3.637-5.965,5.6l-.968.9c-2.382,2.221-5.066,4.608-7.907,7.136l-.337.3c-2.992,2.662-6.317,5.543-10.167,8.812ZM291.5-130.333l.687,1.459c.129.257.273.511.42.77.237.422.483.859.726,1.4a21.728,21.728,0,0,0,1.212,2.284l.357.6c.333.567.677,1.151,1.06,1.759.52.826,1.062,1.652,1.652,2.548a27.86,27.86,0,0,0,1.86,2.774c.751.9,1.493,1.877,2.386,3.127a38.7,38.7,0,0,0,2.706,3.475c.48.541.95,1.108,1.429,1.69.645.78,1.311,1.587,2.066,2.395l.432.464c1.219,1.309,2.481,2.663,4.079,4.262,1.824,1.824,3.711,3.616,6.119,5.811,2.443,2.227,5.058,4.456,8.482,7.227,3.343,2.709,7.324,5.732,11.837,8.993,3.648-3.1,6.819-5.853,9.683-8.4l.337-.3c2.834-2.522,5.511-4.9,7.88-7.112l.97-.9c2.106-1.962,4.1-3.821,5.951-5.59,2.46-2.351,4.41-4.24,6.135-5.945,1.3-1.286,2.582-2.572,3.855-3.851l1.882-1.886,10.44-10.612c-5.62-.73-11.133-1.555-15.673-2.347-5.024-.876-9.154-1.676-12.276-2.379-3.585-.807-6.889-1.649-9.062-2.212-2.669-.69-5.147-1.447-6.958-2-1.955-.6-3.758-1.234-5.349-1.8l-.185-.064c-1.315-.465-2.525-.939-3.693-1.4l-.815-.319c-1.076-.42-2.034-.844-2.96-1.254l-.839-.37c-1.077-.47-2.114-.966-3.108-1.44l-.186-.089-2.954-1.477-2.728-1.483-4.5-2.635-3.747,2.487-7.161,4.861c-1.226.793-2.462,1.579-3.773,2.389s-2.688,1.641-4.21,2.544C294.7-132.119,293.234-131.286,291.5-130.333Z" transform="translate(-289.497 146.963)"/></g><g transform="translate(302.38 -136.835)"><rect class="c" width="39.911" height="1.533" transform="matrix(0.798, -0.602, 0.602, 0.798, 0, 24.038)"/></g></g><g class="d" transform="translate(577.75 322.79)"><g transform="translate(58.152 -202.143)"><path class="c" d="M95.788-156.79l-.317-.149c-2.816-1.317-5.3-2.529-7.5-3.6-2.1-1.026-4.16-2.062-6.114-3.08-1.6-.832-3.463-1.809-5.188-2.744-1.606-.87-3.168-1.718-4.633-2.544s-2.921-1.655-4.355-2.488l-9.533-5.536.831-.346c3.548-1.478,6.842-2.927,9.792-4.309,2.6-1.174,4.932-2.376,6.872-3.4,2.119-1.116,3.76-2.02,5.018-2.763,1.421-.84,2.71-1.646,3.784-2.324,1.115-.7,2.106-1.337,2.955-1.967.406-.3.8-.587,1.175-.862.427-.311.832-.607,1.209-.89.7-.527,1.364-1.058,1.973-1.553.493-.4,1.132-.928,1.693-1.429.321-.287.634-.573.937-.853l.558-.51c.508-.461.948-.883,1.345-1.29l1.281-1.27,1.415-1.452,8.148,2.87c.825.26,1.677.526,2.583.791s1.86.529,2.912.819c.931.258,1.97.522,3.47.884l.4.1-.067.409c-.078.472-.157.933-.258,1.427l-.035.169c-.089.434-.178.872-.277,1.323-.113.514-.236,1.02-.382,1.57s-.291,1.075-.47,1.668-.358,1.173-.57,1.809-.434,1.281-.678,1.982l-.139.4a19.756,19.756,0,0,1-.708,1.854c-.186.411-.361.82-.543,1.246s-.359.841-.566,1.3c-.433.969-.886,1.929-1.427,3.023-.493,1-1.109,2.207-1.933,3.632-.862,1.491-1.7,2.864-2.706,4.454-.933,1.47-2.125,3.3-3.9,5.738-1.947,2.676-3.858,5.164-5.84,7.608Zm-35.63-20,7.976,4.629c1.431.832,2.871,1.652,4.345,2.483s3.018,1.669,4.62,2.537c1.72.931,3.581,1.906,5.176,2.737,1.946,1.014,4,2.047,6.092,3.068s4.485,2.186,7.166,3.444c1.894-2.344,3.725-4.735,5.591-7.3,1.76-2.417,2.942-4.234,3.867-5.691,1-1.579,1.831-2.943,2.687-4.422.813-1.4,1.42-2.6,1.906-3.581.536-1.083.985-2.034,1.412-2.991.2-.458.386-.881.56-1.289.185-.433.362-.847.551-1.264.288-.635.486-1.214.677-1.775l.141-.408c.243-.7.464-1.338.674-1.969s.386-1.2.562-1.785.319-1.1.461-1.639.263-1.03.373-1.532c.1-.448.187-.881.275-1.312l.035-.169c.07-.338.128-.661.184-.982-1.3-.316-2.238-.557-3.093-.794-1.057-.292-2.013-.556-2.925-.823s-1.77-.535-2.617-.8l-7.622-2.685-1.022,1.048-1.281,1.27c-.4.415-.857.849-1.379,1.323l-.554.507c-.307.281-.622.57-.946.86-.575.513-1.224,1.047-1.725,1.455-.616.5-1.285,1.039-2,1.575-.38.285-.789.584-1.22.9q-.562.409-1.169.857c-.874.649-1.881,1.292-3.011,2.005-1.079.681-2.375,1.491-3.806,2.337-1.27.751-2.924,1.662-5.057,2.785-1.951,1.027-4.3,2.237-6.914,3.418C66.424-179.494,63.4-178.158,60.158-176.795Z" transform="translate(-58.152 202.143)"/></g><g transform="translate(78.932 -186.752)"><rect class="c" width="0.895" height="30.651" transform="matrix(0.467, -0.884, 0.884, 0.467, 0, 0.791)"/></g></g><g class="d" transform="translate(-23.957 345.467)"><g transform="translate(58.152 -202.143)"><path class="c" d="M95.788-156.79l-.317-.149c-2.816-1.317-5.3-2.529-7.5-3.6-2.1-1.026-4.16-2.062-6.114-3.08-1.6-.832-3.463-1.809-5.188-2.744-1.606-.87-3.168-1.718-4.633-2.544s-2.921-1.655-4.355-2.488l-9.533-5.536.831-.346c3.548-1.478,6.842-2.927,9.792-4.309,2.6-1.174,4.932-2.376,6.872-3.4,2.119-1.116,3.76-2.02,5.018-2.763,1.421-.84,2.71-1.646,3.784-2.324,1.115-.7,2.106-1.337,2.955-1.967.406-.3.8-.587,1.175-.862.427-.311.832-.607,1.209-.89.7-.527,1.364-1.058,1.973-1.553.493-.4,1.132-.928,1.693-1.429.321-.287.634-.573.937-.853l.558-.51c.508-.461.948-.883,1.345-1.29l1.281-1.27,1.415-1.452,8.148,2.87c.825.26,1.677.526,2.583.791s1.86.529,2.912.819c.931.258,1.97.522,3.47.884l.4.1-.067.409c-.078.472-.157.933-.258,1.427l-.035.169c-.089.434-.178.872-.277,1.323-.113.514-.236,1.02-.382,1.57s-.291,1.075-.47,1.668-.358,1.173-.57,1.809-.434,1.281-.678,1.982l-.139.4a19.756,19.756,0,0,1-.708,1.854c-.186.411-.361.82-.543,1.246s-.359.841-.566,1.3c-.433.969-.886,1.929-1.427,3.023-.493,1-1.109,2.207-1.933,3.632-.862,1.491-1.7,2.864-2.706,4.454-.933,1.47-2.125,3.3-3.9,5.738-1.947,2.676-3.858,5.164-5.84,7.608Zm-35.63-20,7.976,4.629c1.431.832,2.871,1.652,4.345,2.483s3.018,1.669,4.62,2.537c1.72.931,3.581,1.906,5.176,2.737,1.946,1.014,4,2.047,6.092,3.068s4.485,2.186,7.166,3.444c1.894-2.344,3.725-4.735,5.591-7.3,1.76-2.417,2.942-4.234,3.867-5.691,1-1.579,1.831-2.943,2.687-4.422.813-1.4,1.42-2.6,1.906-3.581.536-1.083.985-2.034,1.412-2.991.2-.458.386-.881.56-1.289.185-.433.362-.847.551-1.264.288-.635.486-1.214.677-1.775l.141-.408c.243-.7.464-1.338.674-1.969s.386-1.2.562-1.785.319-1.1.461-1.639.263-1.03.373-1.532c.1-.448.187-.881.275-1.312l.035-.169c.07-.338.128-.661.184-.982-1.3-.316-2.238-.557-3.093-.794-1.057-.292-2.013-.556-2.925-.823s-1.77-.535-2.617-.8l-7.622-2.685-1.022,1.048-1.281,1.27c-.4.415-.857.849-1.379,1.323l-.554.507c-.307.281-.622.57-.946.86-.575.513-1.224,1.047-1.725,1.455-.616.5-1.285,1.039-2,1.575-.38.285-.789.584-1.22.9q-.562.409-1.169.857c-.874.649-1.881,1.292-3.011,2.005-1.079.681-2.375,1.491-3.806,2.337-1.27.751-2.924,1.662-5.057,2.785-1.951,1.027-4.3,2.237-6.914,3.418C66.424-179.494,63.4-178.158,60.158-176.795Z" transform="translate(-58.152 202.143)"/></g><g transform="translate(78.932 -186.752)"><rect class="c" width="0.895" height="30.651" transform="matrix(0.467, -0.884, 0.884, 0.467, 0, 0.791)"/></g></g></g></svg>