<svg xmlns="http://www.w3.org/2000/svg" xmlns:xlink="http://www.w3.org/1999/xlink" width="209.241" height="59.629" viewBox="0 0 209.241 59.629"><defs><style>.a{fill:#fff;}.b{fill:#ff8307;}.c{fill:#fac800;}.d{fill:#64caec;}.e{fill:#e569f6;}.f{fill:#f86fb4;}.g{isolation:isolate;}.h{fill:url(#a);}</style><linearGradient id="a" y1="0.5" x2="1" y2="0.5" gradientUnits="objectBoundingBox"><stop offset="0" stop-color="#f6db4b"/><stop offset="0.535" stop-color="#f8d124"/><stop offset="1" stop-color="#fac800"/></linearGradient></defs><g transform="translate(-677.742 -153.371)"><g transform="translate(678.742 146.258)"><g transform="translate(5.534 7.113)"><g transform="translate(105.823 29.697)"><path class="a" d="M691.332,1975.406v5.1h5.209v4.354h-5.209v5.069h-4.849v-5.066h-5.208v-4.354h5.208v-5.1Z" transform="translate(-681.275 -1975.406)"/></g><g transform="translate(45.755 7.653)"><path class="b" d="M513.041,1910.911h12.3a3.761,3.761,0,0,1,3.77,4.809l-1.547,7.165a6.3,6.3,0,0,1-5.848,4.809h-12.3a3.762,3.762,0,0,1-3.77-4.809l1.547-7.165A6.3,6.3,0,0,1,513.041,1910.911Z" transform="translate(-505.534 -1910.911)"/></g><g transform="translate(38.985 27.389)"><g transform="translate(3.128 0.032)"><path class="b" d="M499.278,1979.766a6.521,6.521,0,0,0,5.947-3.775h-2.9a3.063,3.063,0,0,1-2.563,1.387c-1.618,0-2.467-1.2-2.055-3.113a3.592,3.592,0,0,1,3.4-3.113,1.843,1.843,0,0,1,1.966,1.387h2.9c-.111-2.342-1.739-3.792-4.313-3.792a6.843,6.843,0,0,0-6.631,5.518C494.327,1977.5,496.086,1979.766,499.278,1979.766Z" transform="translate(-494.875 -1968.747)"/></g><g transform="translate(15.048 0.155)"><path class="b" d="M536.316,1975.579a2.292,2.292,0,0,1-2.346,2.019c-1.248,0-1.721-.74-1.444-2.019l1.4-6.473h-2.635l-1.394,6.458c-.646,2.99.991,4.471,3.505,4.471a5.507,5.507,0,0,0,5.558-4.471l1.395-6.458h-2.638Z" transform="translate(-529.753 -1969.106)"/></g><g transform="translate(25.733)"><path class="b" d="M565.535,1979.736a7.254,7.254,0,0,0,6.719-5.564,4.332,4.332,0,0,0-4.372-5.518,7.256,7.256,0,0,0-6.713,5.532,4.245,4.245,0,0,0,4.085,5.548C565.346,1979.739,565.439,1979.739,565.535,1979.736Zm1.877-8.692c1.728,0,2.589,1.217,2.173,3.145a3.677,3.677,0,0,1-3.53,3.144c-1.756,0-2.6-1.248-2.187-3.144a3.642,3.642,0,0,1,3.546-3.145Z" transform="translate(-561.014 -1968.654)"/></g><g transform="translate(38.571 0.155)"><path class="b" d="M599.556,1979.926h2.635l1.88-8.708h2.87l.456-2.112h-8.368l-.456,2.112h2.869Z" transform="translate(-598.572 -1969.106)"/></g><g transform="translate(45.669 0.155)"><path class="b" d="M627.2,1978.014l.235,1.911h2.789l-1.578-10.819H625.6l-6.255,10.82H622.1l1.06-1.911Zm-.724-6,.484,3.961H624.3Z" transform="translate(-619.341 -1969.106)"/></g><g transform="translate(0 14.519)"><path class="b" d="M490.593,2017.914h3.346a3.372,3.372,0,0,1-3.033,1.911c-1.9,0-2.782-1.171-2.35-3.175a3.61,3.61,0,0,1,3.486-3.082,1.772,1.772,0,0,1,1.887,1.11h2.912c-.091-2.219-1.685-3.544-4.272-3.544a6.87,6.87,0,0,0-6.694,5.518c-.7,3.236,1.094,5.5,4.329,5.5a6.9,6.9,0,0,0,6.016-3.728l.529-2.45h-5.736Z" transform="translate(-485.725 -2011.133)"/></g><g transform="translate(11.166 14.64)"><path class="b" d="M528.4,2014.893c.406-1.88-.59-3.406-3.241-3.406h-4.424l-2.337,10.819h2.636l.882-4.084h.632l1.37,4.084h2.974l-1.572-4.285A4.169,4.169,0,0,0,528.4,2014.893Zm-4.447,1.466h-1.637l.579-2.682h1.634c.986,0,1.336.522,1.162,1.325a1.611,1.611,0,0,1-1.741,1.355Z" transform="translate(-518.394 -2011.487)"/></g><g transform="translate(20.506 14.639)"><path class="b" d="M551.971,2011.484l-6.252,10.821h2.759l1.06-1.911h4.038l.235,1.911H556.6l-1.58-10.819Zm-1.3,6.874,2.181-3.961.484,3.96Z" transform="translate(-545.719 -2011.484)"/></g><g transform="translate(33.87 14.64)"><path class="b" d="M584.819,2013.6h2.866l-1.88,8.709h2.635l1.88-8.709h2.869l.456-2.112h-8.369Z" transform="translate(-584.819 -2011.486)"/></g><g transform="translate(41.683 14.641)"><path class="b" d="M610.013,2011.491h2.636l-2.336,10.819h-2.635Z" transform="translate(-607.677 -2011.491)"/></g><g transform="translate(46.556 14.487)"><path class="b" d="M625.821,2014.138a1.233,1.233,0,0,1,1.322-.986.916.916,0,0,1,1.011,1.09h0l-.008.034H631c.338-2.065-1-3.236-3.354-3.236-2.267,0-4.192,1.141-4.635,3.19-.859,3.836,4.783,2.759,4.35,4.762a1.387,1.387,0,0,1-1.484,1.017.967.967,0,0,1-1.094-1.133v0c0-.034.01-.065.017-.1H622c-.4,2.188,1.173,3.344,3.5,3.344a4.51,4.51,0,0,0,4.665-3.329C630.947,2015.169,625.416,2016.017,625.821,2014.138Z" transform="translate(-621.934 -2011.039)"/></g></g><g transform="translate(0 8.454)"><path class="b" d="M373.328,1950.077c11.044-7.741,22.68-15.419,24.287-22.858.691-3.205-.315-5.26-3.46-5.26-3.083,0-5.42,2.419-6.323,6.593h-9.976c2.614-10.7,10.561-15.3,18.6-15.3,10.038,0,13.246,5.865,11.64,13.3-2.089,9.677-12.409,17.415-20.585,22.8h16.325l-1.816,8.4H371.666Z" transform="translate(-371.666 -1913.253)"/></g><g transform="translate(3.018 8.454)"><path class="a" d="M382.157,1950.077c11.045-7.741,22.68-15.419,24.287-22.858.691-3.205-.315-5.26-3.46-5.26-3.084,0-5.42,2.419-6.323,6.593h-9.979c2.614-10.7,10.561-15.3,18.6-15.3,10.038,0,13.246,5.865,11.64,13.3-2.089,9.677-12.409,17.415-20.585,22.8h16.327l-1.815,8.405H380.5Z" transform="translate(-380.496 -1913.253)"/></g><g transform="translate(40.429 27.389)"><g transform="translate(3.125 0.031)"><path class="a" d="M503.5,1979.765a6.52,6.52,0,0,0,5.947-3.776h-2.9a3.064,3.064,0,0,1-2.563,1.388c-1.618,0-2.468-1.2-2.055-3.113a3.592,3.592,0,0,1,3.4-3.113,1.843,1.843,0,0,1,1.966,1.387h2.9c-.111-2.342-1.74-3.792-4.314-3.792a6.842,6.842,0,0,0-6.631,5.518C498.546,1977.5,500.307,1979.765,503.5,1979.765Z" transform="translate(-499.092 -1968.746)"/></g><g transform="translate(15.049 0.155)"><path class="a" d="M540.545,1975.579a2.293,2.293,0,0,1-2.347,2.019c-1.248,0-1.72-.74-1.444-2.019l1.4-6.473h-2.636l-1.395,6.458c-.646,2.99.991,4.471,3.506,4.471a5.507,5.507,0,0,0,5.558-4.471l1.395-6.458h-2.636Z" transform="translate(-533.98 -1969.106)"/></g><g transform="translate(25.733)"><path class="a" d="M569.758,1979.736a7.254,7.254,0,0,0,6.719-5.564,4.332,4.332,0,0,0-4.372-5.518,7.256,7.256,0,0,0-6.713,5.532,4.245,4.245,0,0,0,4.085,5.548C569.571,1979.738,569.664,1979.738,569.758,1979.736Zm1.877-8.692c1.728,0,2.589,1.217,2.173,3.145a3.677,3.677,0,0,1-3.53,3.144c-1.757,0-2.6-1.248-2.187-3.144a3.643,3.643,0,0,1,3.546-3.145Z" transform="translate(-565.237 -1968.654)"/></g><g transform="translate(38.569 0.155)"><path class="a" d="M603.778,1979.926h2.636l1.88-8.708h2.866l.456-2.112h-8.368l-.456,2.112h2.866Z" transform="translate(-602.792 -1969.106)"/></g><g transform="translate(45.673 0.155)"><path class="a" d="M631.436,1978.014l.234,1.911h2.79l-1.577-10.819h-3.052l-6.253,10.82h2.758l1.06-1.911Zm-.724-6,.484,3.961H628.53Z" transform="translate(-623.578 -1969.106)"/></g><g transform="translate(0 14.519)"><path class="a" d="M494.818,2017.914h3.345a3.372,3.372,0,0,1-3.033,1.911c-1.9,0-2.782-1.171-2.35-3.175a3.61,3.61,0,0,1,3.486-3.082,1.772,1.772,0,0,1,1.887,1.11h2.913c-.091-2.219-1.685-3.544-4.272-3.544a6.87,6.87,0,0,0-6.694,5.518c-.7,3.236,1.094,5.5,4.329,5.5a6.9,6.9,0,0,0,6.013-3.73l.529-2.451h-5.737Z" transform="translate(-489.95 -2011.133)"/></g><g transform="translate(11.166 14.64)"><path class="a" d="M532.621,2014.893c.406-1.88-.59-3.406-3.241-3.406h-4.424l-2.337,10.819h2.635l.882-4.084h.631l1.37,4.084h2.974l-1.572-4.285A4.173,4.173,0,0,0,532.621,2014.893Zm-4.447,1.466H526.54l.581-2.682h1.634c.986,0,1.336.522,1.162,1.325a1.612,1.612,0,0,1-1.743,1.355Z" transform="translate(-522.619 -2011.487)"/></g><g transform="translate(20.507 14.639)"><path class="a" d="M556.2,2011.484l-6.251,10.82h2.759l1.06-1.911H557.8l.235,1.911h2.79l-1.578-10.82Zm-1.3,6.874,2.181-3.961.484,3.96Z" transform="translate(-549.948 -2011.484)"/></g><g transform="translate(33.87 14.64)"><path class="a" d="M589.045,2013.6h2.868l-1.88,8.709h2.636l1.88-8.709h2.868l.456-2.112H589.5Z" transform="translate(-589.045 -2011.486)"/></g><g transform="translate(41.683 14.641)"><path class="a" d="M614.241,2011.491h2.635l-2.336,10.819H611.9Z" transform="translate(-611.904 -2011.491)"/></g><g transform="translate(46.56 14.486)"><path class="a" d="M630.055,2014.136a1.233,1.233,0,0,1,1.323-.987.914.914,0,0,1,1.011,1.089h0c0,.012,0,.024-.005.034h2.852c.338-2.065-1-3.237-3.354-3.237-2.266,0-4.192,1.141-4.635,3.19-.862,3.836,4.783,2.759,4.35,4.762a1.387,1.387,0,0,1-1.484,1.018.967.967,0,0,1-1.094-1.134v0c0-.032.01-.064.017-.1h-2.8c-.4,2.188,1.175,3.344,3.5,3.344a4.511,4.511,0,0,0,4.666-3.329C635.179,2015.167,629.649,2016.014,630.055,2014.136Z" transform="translate(-626.172 -2011.036)"/></g></g><g transform="translate(51.558 10.161)"><path class="a" d="M525.77,1920.041a1.655,1.655,0,0,1,1.581.874l.576-2.666h1.759l-1.644,7.613h-1.76l.178-.824a2.505,2.505,0,0,1-1.965.906c-1.41,0-2.283-1.152-1.892-2.963A3.443,3.443,0,0,1,525.77,1920.041Zm.183,1.534a1.665,1.665,0,0,0-1.559,1.41c-.2.915.288,1.43.946,1.43a1.67,1.67,0,0,0,1.562-1.42c.2-.916-.281-1.42-.949-1.42Z" transform="translate(-522.51 -1918.249)"/><g transform="translate(6.986 1.782)"><path class="a" d="M546.208,1923.47a1.569,1.569,0,0,1,1.576.9l.175-.812h1.758l-1.24,5.74H546.72l.176-.813a2.564,2.564,0,0,1-1.974.9c-1.4,0-2.272-1.152-1.88-2.963A3.444,3.444,0,0,1,546.208,1923.47Zm.183,1.534a1.665,1.665,0,0,0-1.559,1.41c-.2.915.288,1.43.946,1.43a1.67,1.67,0,0,0,1.562-1.42c.2-.916-.281-1.42-.949-1.42Z" transform="translate(-542.948 -1923.462)"/></g></g><g transform="translate(50.262 19.609)"><path class="a" d="M519.091,1945.891h13.046l-.373,1.729H518.718Z" transform="translate(-518.718 -1945.891)"/></g><g transform="translate(185.382 6.422)"><g transform="translate(8.686 39.01)"><path class="c" d="M946.65,2022.886c-.294-.447-6.36-1.783-7-1.363-.179.118.042.269-.115.372-.742.489,3.837,1.713,4.986,2.2C946.425,2024.885,947.254,2023.807,946.65,2022.886Z" transform="translate(-939.455 -2021.442)"/></g><g transform="translate(8.914 30.669)"><path class="d" d="M940.534,1997.9c.089.021,1.151.154,1.188.009C942.16,1996.157,939.031,1997.525,940.534,1997.9Z" transform="translate(-940.122 -1997.038)"/></g><g transform="translate(9.869 21.602)"><path class="e" d="M949.925,1971.774a.824.824,0,0,0,.376-.308.434.434,0,0,0,.03-.425c-.547-1.024-6.2-.354-7.248.205-.132.071-.191.139-.157.2C943.049,1971.685,948.918,1972.312,949.925,1971.774Z" transform="translate(-942.916 -1970.509)"/></g><g transform="translate(3.857 16.573)"><path class="f" d="M927.366,1956.142c-.265-.5-2.5-.552-1.952.476C925.708,1957.169,927.8,1956.948,927.366,1956.142Z" transform="translate(-925.327 -1955.797)"/></g><g transform="translate(4.754 3.455)"><path class="a" d="M935.229,1918.379c.253-.468-.2-.47-.337-.723-.7-1.3-6.593,3.095-6.921,3.965-.093.25.182.7.368.6a.149.149,0,0,1,.154.052C928.561,1922.342,935.142,1918.541,935.229,1918.379Z" transform="translate(-927.953 -1917.416)"/></g><path class="a" d="M914.754,1909.352a3.93,3.93,0,0,0,1.136-1.343c.124-.625-.923-.86-.975-.59a.653.653,0,0,1-.235.192C914.133,1907.932,913.54,1909.808,914.754,1909.352Z" transform="translate(-914.043 -1907.309)"/></g><g transform="translate(131.874 11.332)"><ellipse class="b" cx="25.48" cy="24.144" rx="25.48" ry="24.144"/></g><g transform="translate(134.422 11.341)"><ellipse class="a" cx="25.48" cy="24.144" rx="25.48" ry="24.144"/></g><g transform="translate(138.191 32.071)"><g class="g"><g class="g"><path class="b" d="M780.634,1984.984h-1.965v-.6a1.19,1.19,0,0,0-.075-.538.278.278,0,0,0-.252-.115.319.319,0,0,0-.289.156.9.9,0,0,0-.1.473,1.334,1.334,0,0,0,.11.614,1.6,1.6,0,0,0,.6.5,6.029,6.029,0,0,1,1.779,1.376,3.156,3.156,0,0,1,.367,1.733,3.034,3.034,0,0,1-.2,1.281,1.594,1.594,0,0,1-.786.691,3.11,3.11,0,0,1-1.357.279,3.031,3.031,0,0,1-1.45-.322,1.575,1.575,0,0,1-.786-.819,4.193,4.193,0,0,1-.186-1.412v-.533h1.965v.99a1.3,1.3,0,0,0,.083.588.321.321,0,0,0,.294.131.345.345,0,0,0,.314-.166.947.947,0,0,0,.1-.493,1.526,1.526,0,0,0-.2-.94,6.306,6.306,0,0,0-.99-.739,9.64,9.64,0,0,1-1.046-.759,1.776,1.776,0,0,1-.424-.653,2.875,2.875,0,0,1-.168-1.065,2.955,2.955,0,0,1,.239-1.367,1.608,1.608,0,0,1,.771-.676,3.086,3.086,0,0,1,1.286-.243,3.349,3.349,0,0,1,1.4.266,1.47,1.47,0,0,1,.769.671,3.549,3.549,0,0,1,.188,1.374Z" transform="translate(-775.976 -1982.351)"/><path class="b" d="M794.952,1982.4l-2.406,8.447h-1.538l2.422-8.447Z" transform="translate(-785.87 -1982.38)"/></g></g></g><g transform="translate(143.414 0)"><g class="g"><g class="g"><path class="a" d="M791.257,1888.98h3.25v1.5h-1.3v1.421h1.217v1.427h-1.217v1.648h1.431v1.5h-3.38Z" transform="translate(-791.257 -1888.823)"/><path class="a" d="M807.136,1888.98v7.5h-1.709l-1.014-3.408v3.408h-1.63v-7.5h1.63l1.092,3.375v-3.375Z" transform="translate(-798.844 -1888.823)"/><path class="a" d="M826.475,1888.98l-.992,7.5h-2.961l-1.126-7.5h2.056q.358,3.1.511,5.241.151-2.167.321-3.847l.135-1.394Z" transform="translate(-811.095 -1888.823)"/><path class="a" d="M839.371,1888.98l1.115,7.5h-1.992l-.1-1.347h-.7l-.117,1.347h-2.015l.994-7.5Zm-1.033,4.82q-.148-1.274-.3-3.149-.3,2.153-.374,3.149Z" transform="translate(-820.417 -1888.823)"/><path class="a" d="M852.889,1888.98v6h1.185v1.5h-3.135v-7.5Z" transform="translate(-830.54 -1888.823)"/><path class="a" d="M861.492,1888.98h3.25v1.5h-1.3v1.421h1.218v1.427h-1.218v1.648h1.431v1.5h-3.38Z" transform="translate(-837.486 -1888.823)"/><path class="a" d="M876.838,1890.946h-1.81v-.556a1.1,1.1,0,0,0-.069-.5.256.256,0,0,0-.232-.107.3.3,0,0,0-.266.143.834.834,0,0,0-.09.436,1.229,1.229,0,0,0,.1.565,1.471,1.471,0,0,0,.551.458,5.562,5.562,0,0,1,1.64,1.268,2.908,2.908,0,0,1,.338,1.6,2.8,2.8,0,0,1-.188,1.181,1.468,1.468,0,0,1-.725.636,2.868,2.868,0,0,1-1.25.257,2.8,2.8,0,0,1-1.336-.3,1.455,1.455,0,0,1-.725-.755,3.873,3.873,0,0,1-.171-1.3v-.49h1.811v.912a1.2,1.2,0,0,0,.076.542.3.3,0,0,0,.271.12.318.318,0,0,0,.289-.153.873.873,0,0,0,.095-.454,1.406,1.406,0,0,0-.181-.866,5.723,5.723,0,0,0-.912-.681,8.853,8.853,0,0,1-.963-.7,1.624,1.624,0,0,1-.391-.6,2.644,2.644,0,0,1-.155-.981,2.723,2.723,0,0,1,.22-1.259,1.48,1.48,0,0,1,.711-.623,2.832,2.832,0,0,1,1.185-.224,3.092,3.092,0,0,1,1.294.245,1.358,1.358,0,0,1,.708.618,3.271,3.271,0,0,1,.174,1.266Z" transform="translate(-844.762 -1888.52)"/></g></g></g><path class="b" d="M7.273-47.983v18.657H3.179v-10a19.965,19.965,0,0,0-.091-2.6.949.949,0,0,0-.5-.663A4.615,4.615,0,0,0,.757-42.82H.352V-45a7.326,7.326,0,0,0,4.509-2.985ZM18.52-41.668v6.223a16.7,16.7,0,0,1-.2,3.088,4.492,4.492,0,0,1-.841,1.809,3.655,3.655,0,0,1-1.54,1.21,5.283,5.283,0,0,1-2.016.369,6.669,6.669,0,0,1-2.442-.386,3.374,3.374,0,0,1-1.55-1.2,5.411,5.411,0,0,1-.821-1.723,12.168,12.168,0,0,1-.243-2.875v-6.511a14.132,14.132,0,0,1,.39-3.849,3.707,3.707,0,0,1,1.55-2.051,4.96,4.96,0,0,1,2.812-.772,5.288,5.288,0,0,1,2.412.536A4.1,4.1,0,0,1,17.618-46.5a4.6,4.6,0,0,1,.714,1.74A18.032,18.032,0,0,1,18.52-41.668Zm-4.094-1.567A7.9,7.9,0,0,0,14.3-45.1a.554.554,0,0,0-.593-.375.582.582,0,0,0-.6.4,6.863,6.863,0,0,0-.147,1.838v9.1a7.651,7.651,0,0,0,.137,1.959.57.57,0,0,0,.593.334.573.573,0,0,0,.6-.392,6.614,6.614,0,0,0,.142-1.763Zm15.22,1.567v6.223a16.7,16.7,0,0,1-.2,3.088,4.492,4.492,0,0,1-.841,1.809,3.655,3.655,0,0,1-1.54,1.21,5.283,5.283,0,0,1-2.016.369,6.669,6.669,0,0,1-2.442-.386,3.374,3.374,0,0,1-1.55-1.2,5.411,5.411,0,0,1-.821-1.723,12.168,12.168,0,0,1-.243-2.875v-6.511a14.132,14.132,0,0,1,.39-3.849,3.707,3.707,0,0,1,1.55-2.051,4.96,4.96,0,0,1,2.812-.772,5.288,5.288,0,0,1,2.412.536A4.1,4.1,0,0,1,28.745-46.5a4.6,4.6,0,0,1,.714,1.74A18.032,18.032,0,0,1,29.646-41.668Zm-4.094-1.567a7.9,7.9,0,0,0-.127-1.861.554.554,0,0,0-.593-.375.582.582,0,0,0-.6.4,6.863,6.863,0,0,0-.147,1.838v9.1a7.651,7.651,0,0,0,.137,1.959.57.57,0,0,0,.593.334.573.573,0,0,0,.6-.392,6.615,6.615,0,0,0,.142-1.763Z" transform="translate(148.921 74.963)"/></g><g transform="translate(87 21.955)"><ellipse class="a" cx="1.346" cy="1.203" rx="1.346" ry="1.203"/></g><g transform="translate(128.383 54.221)"><ellipse class="a" cx="1.924" cy="1.794" rx="1.924" ry="1.794"/></g><g transform="translate(44.178 10)"><path class="e" d="M481.8,1869.757c0,.117.114.227.311.322a3.432,3.432,0,0,1,1.54,1.436c.1.184.219.29.345.29s.244-.106.345-.29a3.431,3.431,0,0,1,1.54-1.436c.2-.094.311-.2.311-.322s-.113-.228-.311-.322a3.431,3.431,0,0,1-1.54-1.436c-.1-.184-.219-.29-.345-.29s-.244.106-.345.29a3.432,3.432,0,0,1-1.54,1.436C481.916,1869.529,481.8,1869.639,481.8,1869.757Z" transform="translate(-481.802 -1867.709)"/></g><g transform="translate(127.553 21.04)"><path class="h" d="M728.66,1931.666c0,.138.133.267.365.377a4.023,4.023,0,0,1,1.8,1.682c.118.216.256.34.4.34s.286-.124.4-.34a4.02,4.02,0,0,1,1.8-1.682c.232-.11.365-.239.365-.377s-.133-.266-.365-.376a4.021,4.021,0,0,1-1.8-1.683c-.118-.216-.256-.34-.4-.34s-.286.125-.4.34a4.024,4.024,0,0,1-1.8,1.683C728.793,1931.4,728.66,1931.529,728.66,1931.666Z" transform="translate(-728.66 -1929.267)"/></g><g transform="translate(-1 35.611)"><path class="c" d="M355.474,1968.3c0,.3.236.575.647.813a7.93,7.93,0,0,1,3.205,3.629c.21.466.455.733.718.733s.508-.268.717-.733a7.932,7.932,0,0,1,3.205-3.629c.411-.238.647-.516.647-.812s-.236-.575-.647-.812a7.931,7.931,0,0,1-3.205-3.629c-.21-.466-.455-.733-.717-.733s-.508.268-.718.733a7.93,7.93,0,0,1-3.205,3.629C355.71,1967.721,355.474,1968,355.474,1968.3Z" transform="translate(-355.474 -1963.121)"/></g></g></g></svg>