<svg xmlns="http://www.w3.org/2000/svg" xmlns:xlink="http://www.w3.org/1999/xlink" width="382.932" height="193.285" viewBox="0 0 382.932 193.285"><defs><style>.a{fill:none;}.b{clip-path:url(#a);}.c,.j{fill:#fff;}.d{opacity:0.42;}.e{fill:#50acff;}.f{fill:#ea0c90;}.g{fill:#40e262;}.h{fill:#ffde6e;}.i{fill:#57c3ff;}.j{fill-rule:evenodd;}</style><clipPath id="a"><circle class="a" cx="20.558" cy="20.558" r="20.558" transform="translate(0 10.04) rotate(-14.134)"/></clipPath></defs><g transform="translate(-704 -105.663)"><g transform="translate(704 105.663)"><g transform="translate(282.683 13.009)"><g class="b" transform="translate(0 0)"><g transform="translate(-32.321 -33.547)"><g transform="translate(37.941 0)"><rect class="c" width="0.578" height="103.674" transform="translate(0 0.37) rotate(-39.763)"/></g><g transform="translate(36.292 1.373)"><rect class="c" width="0.578" height="103.674" transform="translate(0 0.37) rotate(-39.763)"/></g><g transform="translate(34.642 2.745)"><rect class="c" width="0.578" height="103.674" transform="translate(0 0.37) rotate(-39.763)"/></g><g transform="translate(32.993 4.118)"><rect class="c" width="0.578" height="103.674" transform="translate(0 0.37) rotate(-39.763)"/></g><g transform="translate(31.343 5.491)"><rect class="c" width="0.578" height="103.674" transform="translate(0 0.37) rotate(-39.763)"/></g><g transform="translate(29.693 6.863)"><rect class="c" width="0.578" height="103.674" transform="translate(0 0.37) rotate(-39.763)"/></g><g transform="translate(28.044 8.236)"><rect class="c" width="0.578" height="103.674" transform="translate(0 0.37) rotate(-39.763)"/></g><g transform="translate(26.394 9.608)"><rect class="c" width="0.578" height="103.674" transform="translate(0 0.37) rotate(-39.763)"/></g><g transform="translate(24.745 10.981)"><rect class="c" width="0.578" height="103.674" transform="translate(0 0.37) rotate(-39.763)"/></g><g transform="translate(23.094 12.354)"><rect class="c" width="0.578" height="103.674" transform="translate(0 0.37) rotate(-39.763)"/></g><g transform="translate(21.445 13.726)"><rect class="c" width="0.578" height="103.674" transform="translate(0 0.37) rotate(-39.763)"/></g><g transform="translate(19.795 15.099)"><rect class="c" width="0.578" height="103.674" transform="translate(0 0.37) rotate(-39.763)"/></g><g transform="translate(18.146 16.472)"><rect class="c" width="0.578" height="103.674" transform="translate(0 0.37) rotate(-39.763)"/></g><g transform="translate(16.496 17.844)"><rect class="c" width="0.578" height="103.674" transform="matrix(0.769, -0.64, 0.64, 0.769, 0, 0.37)"/></g><g transform="translate(14.846 19.217)"><rect class="c" width="0.578" height="103.674" transform="translate(0 0.37) rotate(-39.763)"/></g><g transform="translate(13.197 20.589)"><rect class="c" width="0.578" height="103.674" transform="translate(0 0.37) rotate(-39.763)"/></g><g transform="translate(11.547 21.962)"><rect class="c" width="0.578" height="103.674" transform="translate(0 0.37) rotate(-39.763)"/></g><g transform="translate(9.898 23.335)"><rect class="c" width="0.578" height="103.674" transform="translate(0 0.37) rotate(-39.763)"/></g><g transform="translate(8.248 24.707)"><rect class="c" width="0.578" height="103.674" transform="matrix(0.769, -0.64, 0.64, 0.769, 0, 0.37)"/></g><g transform="translate(6.598 26.08)"><rect class="c" width="0.578" height="103.674" transform="translate(0 0.37) rotate(-39.763)"/></g><g transform="translate(4.949 27.452)"><rect class="c" width="0.578" height="103.674" transform="translate(0 0.37) rotate(-39.763)"/></g><g transform="translate(3.299 28.825)"><rect class="c" width="0.578" height="103.674" transform="translate(0 0.37) rotate(-39.763)"/></g><g transform="translate(1.65 30.198)"><rect class="c" width="0.578" height="103.674" transform="translate(0 0.37) rotate(-39.763)"/></g><g transform="translate(0 31.57)"><rect class="c" width="0.578" height="103.674" transform="matrix(0.769, -0.64, 0.64, 0.769, 0, 0.37)"/></g></g></g></g><g class="d" transform="translate(38.576 168.38)"><path class="c" d="M3188.722,1640.068a3.885,3.885,0,1,1-3.885-3.885A3.885,3.885,0,0,1,3188.722,1640.068Z" transform="translate(-3180.951 -1636.183)"/></g><g transform="translate(144.412 67.218)"><path class="c" d="M3389.429,1447.7a3.65,3.65,0,1,1,3.65-3.65A3.655,3.655,0,0,1,3389.429,1447.7Zm0-5.713a2.063,2.063,0,1,0,2.063,2.063A2.065,2.065,0,0,0,3389.429,1441.987Z" transform="translate(-3385.778 -1440.4)"/></g><g transform="translate(3.766 81.708)"><g transform="translate(68.077)"><path class="e" d="M3256.5,1468.443H3274.8c3.952,0,6.463,3.2,5.61,7.155l-2.3,10.66a9.368,9.368,0,0,1-8.7,7.156H3251.11c-3.952,0-6.463-3.2-5.61-7.156l2.3-10.66A9.366,9.366,0,0,1,3256.5,1468.443Z" transform="translate(-3245.334 -1468.443)"/></g><g transform="translate(58 29.365)"><g transform="translate(4.654 0.047)"><path class="e" d="M3241.391,1541.759a9.7,9.7,0,0,0,8.85-5.618h-4.312a4.562,4.562,0,0,1-3.816,2.064c-2.408,0-3.671-1.788-3.057-4.633s2.651-4.632,5.058-4.632a2.742,2.742,0,0,1,2.925,2.064h4.312c-.164-3.485-2.588-5.641-6.418-5.641a10.182,10.182,0,0,0-9.868,8.209C3234.025,1538.388,3236.641,1541.759,3241.391,1541.759Z" transform="translate(-3234.839 -1525.364)"/></g><g transform="translate(22.395 0.229)"><path class="e" d="M3278.94,1535.35a3.411,3.411,0,0,1-3.494,3c-1.859,0-2.56-1.1-2.149-3l2.081-9.631h-3.921l-2.073,9.606c-.961,4.449,1.477,6.653,5.216,6.653a8.192,8.192,0,0,0,8.27-6.653l2.074-9.606h-3.924Z" transform="translate(-3269.173 -1525.718)"/></g><g transform="translate(38.29)"><path class="e" d="M3306.663,1541.762a10.794,10.794,0,0,0,10-8.279c.965-4.554-1.948-8.227-6.5-8.209a10.8,10.8,0,0,0-9.989,8.232c-1.07,4.451,1.652,8.146,6.078,8.255C3306.383,1541.765,3306.522,1541.766,3306.663,1541.762Zm2.793-12.933c2.571,0,3.852,1.812,3.233,4.679-.609,2.82-2.684,4.679-5.253,4.679-2.614,0-3.864-1.856-3.255-4.679.617-2.866,2.66-4.679,5.276-4.679Z" transform="translate(-3299.935 -1525.274)"/></g><g transform="translate(57.392 0.229)"><path class="e" d="M3338.368,1541.817h3.921l2.8-12.958h4.267l.678-3.142h-12.451l-.678,3.142h4.269Z" transform="translate(-3336.904 -1525.718)"/></g><g transform="translate(67.957 0.23)"><path class="e" d="M3369.043,1538.973l.349,2.843h4.148l-2.346-16.1h-4.54l-9.3,16.1h4.1l1.577-2.844Zm-1.077-8.922.72,5.895h-3.967Z" transform="translate(-3357.349 -1525.719)"/></g><g transform="translate(0 21.602)"><path class="e" d="M3233.078,1577.168h4.977a5.015,5.015,0,0,1-4.513,2.844c-2.821,0-4.14-1.743-3.5-4.724a5.37,5.37,0,0,1,5.186-4.585,2.638,2.638,0,0,1,2.808,1.651h4.334c-.135-3.3-2.507-5.274-6.359-5.274a10.224,10.224,0,0,0-9.959,8.21c-1.04,4.816,1.626,8.187,6.44,8.187a10.269,10.269,0,0,0,8.952-5.547l.787-3.646h-8.53Z" transform="translate(-3225.831 -1567.08)"/></g><g transform="translate(16.618 21.782)"><path class="e" d="M3272.872,1572.5c.6-2.8-.877-5.068-4.821-5.068h-6.583l-3.476,16.1h3.921l1.313-6.077h.94l2.038,6.077h4.426l-2.34-6.376A6.206,6.206,0,0,0,3272.872,1572.5Zm-6.616,2.183h-2.433l.862-3.99h2.432c1.468,0,1.988.777,1.73,1.972a2.4,2.4,0,0,1-2.591,2.017Z" transform="translate(-3257.992 -1567.43)"/></g><g transform="translate(30.514 21.781)"><path class="e" d="M3294.188,1567.427l-9.3,16.1h4.105l1.577-2.844h6.007l.349,2.844h4.148l-2.35-16.1Zm-1.934,10.227,3.246-5.895.719,5.895Z" transform="translate(-3284.886 -1567.427)"/></g><g transform="translate(50.399 21.782)"><path class="e" d="M3323.369,1570.571h4.265l-2.8,12.958h3.921l2.8-12.958h4.268l.678-3.141h-12.454Z" transform="translate(-3323.369 -1567.429)"/></g><g transform="translate(62.023 21.784)"><path class="e" d="M3349.341,1567.434h3.921l-3.476,16.1h-3.921Z" transform="translate(-3345.865 -1567.434)"/></g><g transform="translate(69.275 21.556)"><path class="e" d="M3365.683,1571.6a1.834,1.834,0,0,1,1.967-1.467,1.36,1.36,0,0,1,1.522,1.177,1.385,1.385,0,0,1-.017.444h0l-.012.051h4.243c.5-3.073-1.486-4.815-4.99-4.815-3.372,0-6.237,1.7-6.9,4.748-1.279,5.708,7.117,4.105,6.472,7.086a2.062,2.062,0,0,1-2.207,1.513,1.44,1.44,0,0,1-1.627-1.687v0c.007-.049.014-.1.024-.146h-4.171c-.589,3.256,1.747,4.976,5.208,4.976,3.76,0,6.356-2.247,6.942-4.953C3373.309,1573.136,3365.079,1574.4,3365.683,1571.6Z" transform="translate(-3359.9 -1566.991)"/></g></g><g transform="translate(0 1.194)"><path class="e" d="M3116.054,1525.541c16.433-11.517,33.746-22.942,36.136-34.01,1.029-4.769-.468-7.826-5.147-7.826-4.587,0-8.064,3.6-9.4,9.809h-14.846c3.89-15.927,15.713-22.76,27.679-22.76,14.935,0,19.708,8.728,17.318,19.793-3.111,14.4-18.463,25.911-30.627,33.919h24.288l-2.7,12.5h-45.166Z" transform="translate(-3113.583 -1470.753)"/></g><g transform="translate(4.492 1.194)"><path class="c" d="M3124.743,1525.541c16.433-11.517,33.746-22.942,36.137-34.01,1.028-4.769-.469-7.826-5.148-7.826-4.587,0-8.064,3.6-9.405,9.809h-14.846c3.889-15.927,15.712-22.76,27.679-22.76,14.935,0,19.709,8.728,17.319,19.793-3.111,14.4-18.464,25.911-30.628,33.919h24.293l-2.7,12.506h-45.167Z" transform="translate(-3122.276 -1470.753)"/></g><g transform="translate(60.149 29.365)"><g transform="translate(4.653 0.046)"><path class="c" d="M3245.548,1541.759a9.705,9.705,0,0,0,8.85-5.619h-4.312a4.561,4.561,0,0,1-3.817,2.064c-2.407,0-3.672-1.788-3.056-4.632s2.651-4.632,5.059-4.632A2.741,2.741,0,0,1,3251.2,1531h4.312c-.164-3.485-2.59-5.641-6.419-5.641a10.181,10.181,0,0,0-9.866,8.209C3238.183,1538.388,3240.8,1541.759,3245.548,1541.759Z" transform="translate(-3238.997 -1525.363)"/></g><g transform="translate(22.394 0.229)"><path class="c" d="M3283.1,1535.35a3.41,3.41,0,0,1-3.493,3c-1.858,0-2.56-1.1-2.149-3l2.081-9.631h-3.922l-2.074,9.606c-.961,4.449,1.477,6.653,5.216,6.653a8.192,8.192,0,0,0,8.27-6.653l2.074-9.606h-3.922Z" transform="translate(-3273.331 -1525.718)"/></g><g transform="translate(38.29)"><path class="c" d="M3310.822,1541.762a10.8,10.8,0,0,0,10-8.279c.965-4.554-1.948-8.227-6.505-8.209a10.8,10.8,0,0,0-9.988,8.232c-1.07,4.451,1.651,8.146,6.078,8.255C3310.543,1541.765,3310.683,1541.765,3310.822,1541.762Zm2.793-12.933c2.571,0,3.852,1.812,3.233,4.679-.608,2.82-2.684,4.679-5.253,4.679-2.614,0-3.864-1.856-3.255-4.679.617-2.866,2.661-4.679,5.275-4.679Z" transform="translate(-3304.094 -1525.274)"/></g><g transform="translate(57.392 0.229)"><path class="c" d="M3342.528,1541.817h3.92l2.8-12.958h4.265l.679-3.142h-12.45l-.679,3.142h4.265Z" transform="translate(-3341.062 -1525.718)"/></g><g transform="translate(67.956 0.23)"><path class="c" d="M3373.2,1538.973l.349,2.843h4.148l-2.347-16.1h-4.541l-9.3,16.1h4.1l1.577-2.844Zm-1.077-8.92.72,5.9h-3.967Z" transform="translate(-3361.508 -1525.719)"/></g><g transform="translate(0 21.602)"><path class="c" d="M3237.237,1577.168h4.977a5.017,5.017,0,0,1-4.513,2.844c-2.821,0-4.14-1.743-3.5-4.724a5.37,5.37,0,0,1,5.185-4.585,2.638,2.638,0,0,1,2.809,1.651h4.334c-.136-3.3-2.507-5.274-6.358-5.274a10.226,10.226,0,0,0-9.96,8.21c-1.04,4.816,1.627,8.187,6.441,8.187a10.261,10.261,0,0,0,8.947-5.549l.787-3.646h-8.533Z" transform="translate(-3229.991 -1567.08)"/></g><g transform="translate(16.617 21.782)"><path class="c" d="M3277.031,1572.5c.6-2.8-.877-5.068-4.823-5.068h-6.581l-3.477,16.1h3.921l1.313-6.077h.94l2.039,6.077h4.425l-2.338-6.376A6.206,6.206,0,0,0,3277.031,1572.5Zm-6.616,2.183h-2.43l.861-3.99h2.431c1.468,0,1.987.777,1.729,1.972a2.4,2.4,0,0,1-2.591,2.017Z" transform="translate(-3262.15 -1567.43)"/></g><g transform="translate(30.515 21.781)"><path class="c" d="M3298.349,1567.427l-9.3,16.1h4.1l1.577-2.844h6.006l.349,2.844h4.148l-2.346-16.1Zm-1.934,10.227,3.245-5.895.72,5.895Z" transform="translate(-3289.048 -1567.427)"/></g><g transform="translate(50.398 21.782)"><path class="c" d="M3327.527,1570.571h4.268l-2.8,12.958h3.922l2.8-12.958h4.268l.678-3.141h-12.456Z" transform="translate(-3327.527 -1567.429)"/></g><g transform="translate(62.022 21.784)"><path class="c" d="M3353.5,1567.434h3.92l-3.476,16.1h-3.921Z" transform="translate(-3350.024 -1567.434)"/></g><g transform="translate(69.278 21.553)"><path class="c" d="M3369.844,1571.6a1.835,1.835,0,0,1,1.968-1.468,1.359,1.359,0,0,1,1.521,1.177,1.318,1.318,0,0,1-.017.444h0c0,.018,0,.036-.007.051h4.242c.5-3.073-1.482-4.816-4.991-4.816-3.371,0-6.236,1.7-6.9,4.749-1.282,5.707,7.116,4.105,6.473,7.086a2.063,2.063,0,0,1-2.208,1.513,1.439,1.439,0,0,1-1.627-1.687v0c.006-.047.014-.1.025-.146h-4.17c-.589,3.254,1.747,4.976,5.208,4.976,3.76,0,6.356-2.247,6.942-4.953C3377.47,1573.133,3369.241,1574.394,3369.844,1571.6Z" transform="translate(-3364.066 -1566.986)"/></g></g><g transform="translate(76.71 3.732)"><path class="c" d="M3266.893,1478.329a2.462,2.462,0,0,1,2.352,1.3l.856-3.964h2.62l-2.447,11.328h-2.62l.265-1.227a3.731,3.731,0,0,1-2.924,1.347c-2.1,0-3.4-1.714-2.814-4.408S3264.8,1478.329,3266.893,1478.329Zm.273,2.282a2.475,2.475,0,0,0-2.319,2.1c-.294,1.365.427,2.128,1.407,2.128a2.483,2.483,0,0,0,2.324-2.113c.294-1.364-.418-2.113-1.412-2.113Z" transform="translate(-3262.043 -1475.666)"/><g transform="translate(10.397 2.651)"><path class="c" d="M3287.012,1480.809a2.332,2.332,0,0,1,2.347,1.332l.261-1.208h2.62l-1.844,8.541h-2.62l.261-1.21a3.809,3.809,0,0,1-2.937,1.333c-2.081,0-3.379-1.714-2.8-4.408S3284.914,1480.809,3287.012,1480.809Zm.272,2.282a2.478,2.478,0,0,0-2.32,2.1c-.294,1.365.429,2.128,1.408,2.128a2.484,2.484,0,0,0,2.324-2.113c.294-1.364-.418-2.112-1.413-2.112Z" transform="translate(-3282.163 -1480.797)"/></g></g><g transform="translate(74.782 17.786)"><path class="c" d="M3258.866,1502.865h19.411l-.555,2.571h-19.41Z" transform="translate(-3258.311 -1502.865)"/></g></g><g transform="translate(257.313 28.334)"><circle class="f" cx="4.061" cy="4.061" r="4.061"/></g><g transform="translate(190.568 67.292)"><path class="g" d="M3475.623,1441.957l3.523,1.48,2.5-2.893-.319,3.808,3.523,1.481-3.72.874-.319,3.808-1.98-3.269-3.721.874,2.5-2.893Z" transform="translate(-3475.106 -1440.544)"/></g><g transform="translate(0 0)"><g transform="translate(33.159)"><path class="h" d="M3170.472,1311.418c-.166.734,4.418,8.185,5.47,8.424.295.065.233-.307.49-.248,1.223.275-2.021-5.563-2.658-7.2C3172.715,1309.691,3170.813,1309.9,3170.472,1311.418Z" transform="translate(-3170.468 -1310.312)"/></g><g transform="translate(28.767 15.261)"><path class="h" d="M3163.744,1341.064c-.066-.112-.97-1.316-1.154-1.211C3160.387,1341.125,3164.833,1342.957,3163.744,1341.064Z" transform="translate(-3161.969 -1339.847)"/></g><g transform="translate(13.209 17.213)"><path class="h" d="M3133.024,1343.724a1.158,1.158,0,0,0-.677-.081.61.61,0,0,0-.459.386c-.5,1.557,5.712,6.626,7.3,7.14.2.065.328.057.359-.04C3139.664,1350.774,3134.555,1344.217,3133.024,1343.724Z" transform="translate(-3131.859 -1343.624)"/></g><g transform="translate(19.078 33.856)"><path class="h" d="M3143.237,1376.235c-.243.754,1.889,3.074,2.393,1.511C3145.9,1376.909,3143.632,1375.009,3143.237,1376.235Z" transform="translate(-3143.218 -1375.834)"/></g><g transform="translate(0 40.278)"><path class="h" d="M3106.726,1388.265c-.721.2-.278.664-.4,1.049-.638,1.98,9.587,3.648,10.788,3.13.345-.15.527-.867.244-.958a.215.215,0,0,1-.1-.207C3117.268,1391.14,3106.976,1388.194,3106.726,1388.265Z" transform="translate(-3106.295 -1388.264)"/></g><g transform="translate(6.319 53.982)"><path class="h" d="M3121.313,1414.87a5.543,5.543,0,0,0-2.472.164c-.754.486.031,1.775.357,1.565a.94.94,0,0,1,.424.048C3120.484,1416.892,3122.964,1415.655,3121.313,1414.87Z" transform="translate(-3118.524 -1414.784)"/></g></g><g transform="translate(360.562 115.202)"><g transform="translate(0 46.789)"><path class="i" d="M3811.51,1628.98c-.086-.642-6-5.284-6.922-5.162-.256.034-.1.316-.32.346-1.068.143,3.287,3.884,4.288,5.013C3810.215,1631.042,3811.685,1630.3,3811.51,1628.98Z" transform="translate(-3804.099 -1623.816)"/></g><g transform="translate(4.632 37.991)"><path class="i" d="M3813.374,1607.575c.087.071,1.174.772,1.292.633C3816.063,1606.526,3811.933,1606.374,3813.374,1607.575Z" transform="translate(-3813.064 -1606.79)"/></g><g transform="translate(10.262 29.119)"><path class="i" d="M3831.431,1593.786a.992.992,0,0,0,.57-.136.525.525,0,0,0,.255-.448c-.06-1.4-6.58-3.641-8.017-3.582-.181.007-.282.052-.278.139C3823.975,1590.079,3830.049,1593.844,3831.431,1593.786Z" transform="translate(-3823.96 -1589.619)"/></g><g transform="translate(6.493 19.877)"><path class="i" d="M3819.046,1572.885c-.028-.68-2.439-1.916-2.379-.5C3816.7,1573.136,3819.093,1573.992,3819.046,1572.885Z" transform="translate(-3816.666 -1571.733)"/></g><g transform="translate(12.369 8.856)"><path class="i" d="M3837.8,1552.158c.521-.378.026-.618.012-.966-.076-1.787-8.818-.085-9.632.691-.233.224-.166.856.088.845a.185.185,0,0,1,.141.137C3828.443,1552.981,3837.62,1552.29,3837.8,1552.158Z" transform="translate(-3828.037 -1550.404)"/></g><g transform="translate(10.371)"><path class="i" d="M3824.825,1535.341a4.752,4.752,0,0,0,1.944-.869c.464-.616-.554-1.422-.754-1.155a.8.8,0,0,1-.355.087C3824.892,1533.464,3823.26,1535.2,3824.825,1535.341Z" transform="translate(-3824.17 -1533.265)"/></g></g><g transform="translate(36.317 32.121)"><g transform="translate(82.223 3.19)"><g transform="translate(21.107 2.654)"><path class="c" d="M3401.518,1386.269c-2.785,0-4.758,2.009-4.767,5.266a4.745,4.745,0,0,0,4.785,4.811,4.544,4.544,0,0,0,2.853-.65v-1.648a5.519,5.519,0,0,1-2.393.48,2.676,2.676,0,0,1-2.884-2.118l-.017-.116h1.74a8.463,8.463,0,0,0,3.517-.507,1.786,1.786,0,0,0,1.044-1.792,3.727,3.727,0,0,0-3.878-3.726m1.133,4.267a7.92,7.92,0,0,1-2.35.219h-1.214l.007-.1.018-.332a2.217,2.217,0,0,1,2.185-2.2,2.365,2.365,0,0,1,1.429.392,1.423,1.423,0,0,1,.552,1.19.811.811,0,0,1-.628.836m3.944-.511,0,6.151h2.283v-5.709a2.521,2.521,0,0,1,.465-1.681,1.679,1.679,0,0,1,1.351-.527,3.684,3.684,0,0,1,.621.05V1386.5a2.542,2.542,0,0,0-1.156-.237c-2.558,0-3.556,1.816-3.565,3.762m-30.037,6.151h2.28v-12.39h-2.28Zm8.429-9.907a4.03,4.03,0,0,0-4.379,4.129v5.778h2.268v-5.612a2.6,2.6,0,0,1,.526-1.7,1.75,1.75,0,0,1,1.383-.614,1.971,1.971,0,0,1,1.558.607,2.8,2.8,0,0,1,.553,1.891v5.431h2.264v-5.648a4,4,0,0,0-4.174-4.26m8.181-2.483h-2.257l.008,8.94c.012,2.269,1.155,3.606,3.621,3.619,1.048,0,1.677-.343,1.937-.888v-1.408a4.171,4.171,0,0,1-1.641.26,1.619,1.619,0,0,1-1.232-.441,2.035,2.035,0,0,1-.436-1.437v-4.184h1.976c.967,0,1.37-.616,1.375-1.073v-.906h-3.35Z" transform="translate(-3376.558 -1383.786)"/><g transform="translate(43.822 2.483)"><path class="c" d="M3468.969,1394.109a1.787,1.787,0,0,0,1.044-1.792,3.728,3.728,0,0,0-3.878-3.726c-2.785,0-4.759,2.01-4.766,5.266a4.743,4.743,0,0,0,4.783,4.811,4.55,4.55,0,0,0,2.854-.65v-1.648a5.523,5.523,0,0,1-2.394.481,2.677,2.677,0,0,1-2.884-2.118l-.016-.116h1.739a8.453,8.453,0,0,0,3.516-.507m-5.264-1.031.008-.1.016-.331a2.219,2.219,0,0,1,2.183-2.2,2.358,2.358,0,0,1,1.432.392,1.416,1.416,0,0,1,.552,1.19.811.811,0,0,1-.627.836,7.915,7.915,0,0,1-2.35.219Z" transform="translate(-3461.369 -1388.591)"/></g><g transform="translate(73.457 2.478)"><path class="c" d="M3518.722,1392.343v6.151h2.286v-5.709a2.524,2.524,0,0,1,.466-1.681,1.682,1.682,0,0,1,1.351-.527,3.66,3.66,0,0,1,.621.05v-1.809a2.542,2.542,0,0,0-1.157-.237c-2.556,0-3.556,1.816-3.566,3.761" transform="translate(-3518.722 -1388.581)"/></g><g transform="translate(35.748 2.441)"><path class="c" d="M3448.92,1398.59c-1.666,0-2.909-.911-2.909-1.893v-1.092h.084a4.343,4.343,0,0,0,2.72.913c1.11,0,1.647-.34,1.647-1.056,0-.554-.319-.82-1.884-1.054-1.914-.286-2.836-1.09-2.836-2.555,0-1.806,1.526-3.343,3.845-3.343,2.054,0,2.891,1.125,2.891,2.055v.911h-.083a3.81,3.81,0,0,0-2.587-.891c-1.379,0-1.815.444-1.815,1.071,0,.483.269.68,1.815.947,1.878.322,2.888,1.2,2.888,2.735,0,2.037-1.344,3.252-3.777,3.252" transform="translate(-3445.743 -1388.51)"/></g><g transform="translate(53.491 2.469)"><path class="c" d="M3488.413,1395.733c.016.392.036.911.036,1.232a4.289,4.289,0,0,1-4.436,4.576c-1.866,0-3.143-.964-3.143-2.109v-1.09h.1a3.866,3.866,0,0,0,2.876,1.036c1.627,0,2.366-.821,2.366-2.216,0-.141,0-.339-.016-.5,0-.141-.016-.392-.016-.48v-.232a2.309,2.309,0,0,1-2.334,1.428,3.687,3.687,0,0,1-3.765-3.9c0-2.716,1.678-4.914,4.6-4.914,2.253,0,3.7,1.752,3.7,4.219v1.644c0,.322.017.875.034,1.305m-6.032-2.555a1.955,1.955,0,0,0,1.815,2.2c1.136,0,1.952-.9,1.952-2.455,0-1.516-.715-2.258-1.713-2.258a2.247,2.247,0,0,0-2.054,2.51" transform="translate(-3480.081 -1388.565)"/></g><g transform="translate(78.698 2.441)"><path class="c" d="M3533.452,1388.51c2.781,0,4.381,2.323,4.381,4.881,0,2.895-1.6,5.2-4.589,5.2-2.782,0-4.38-2.3-4.38-4.861,0-2.9,1.6-5.219,4.588-5.219m-.208,2.023c-1.378,0-2.079,1.192-2.079,2.85,0,1.991.7,3.186,2.289,3.186,1.4,0,2.078-1.194,2.078-2.833,0-2.011-.717-3.2-2.288-3.2" transform="translate(-3528.864 -1388.51)"/></g><g transform="translate(63.374 2.646)"><path class="c" d="M3503.37,1398.848a4.029,4.029,0,0,0,4.362-4.144v-5.8h-2.258v5.632a2.613,2.613,0,0,1-.525,1.706,1.74,1.74,0,0,1-1.377.619,1.963,1.963,0,0,1-1.554-.611,2.823,2.823,0,0,1-.551-1.9v-5.449h-2.257v5.668a3.993,3.993,0,0,0,4.161,4.274" transform="translate(-3499.208 -1388.906)"/></g></g><path class="j" d="M3338.072,1378.65a2.363,2.363,0,0,0-2.363,2.363v15.329h15.331a2.365,2.365,0,0,0,2.365-2.364V1378.65Zm11.2,12.769-9.429,1.7V1383.6l9.429-1.7Z" transform="translate(-3335.709 -1378.65)"/></g><path class="c" d="M3188.868,1387.759v3.179c0,3.829-2.1,6.018-6.144,6.018s-6.145-2.188-6.145-6.018v-12.445c0-3.829,2.1-6.018,6.145-6.018s6.144,2.188,6.144,6.018v2.324h-3.9v-2.564c0-1.709-.824-2.359-2.136-2.359s-2.136.65-2.136,2.359v12.924c0,1.709.825,2.325,2.136,2.325s2.136-.615,2.136-2.325v-3.419Z" transform="translate(-3176.58 -1372.476)"/><g transform="translate(13.038 0.275)"><path class="c" d="M3207.02,1389.007l-5.208-16h4.308l3.147,10.907,3.147-10.907h3.934l-5.207,16v7.932h-4.121Z" transform="translate(-3201.812 -1373.008)"/></g><g transform="translate(29.222 0.273)"><path class="c" d="M3245.46,1378.509v.855c0,2.462-.824,4.035-2.66,4.821,2.21.786,3.072,2.6,3.072,5.128v1.949c0,3.692-2.135,5.676-6.256,5.676h-6.48V1373h6.219C3243.625,1373,3245.46,1374.817,3245.46,1378.509Zm-8.2-2.085v6.325h1.609c1.536,0,2.473-.615,2.473-2.531v-1.331c0-1.709-.637-2.462-2.1-2.462Zm0,9.744v7.351h2.36c1.387,0,2.136-.581,2.136-2.359v-2.085c0-2.222-.787-2.906-2.66-2.906Z" transform="translate(-3233.136 -1373.004)"/></g><g transform="translate(44.431 0.273)"><path class="c" d="M3266.691,1383.089h5.659v3.419h-5.659v7.011h7.118v3.419h-11.24v-23.933h11.24v3.419h-7.118Z" transform="translate(-3262.569 -1373.005)"/></g><g transform="translate(58.219 0.273)"><path class="c" d="M3297.869,1396.939a6.829,6.829,0,0,1-.374-2.941v-3.761c0-2.222-.825-3.043-2.7-3.043h-1.424v9.745h-4.121v-23.933h6.219c4.272,0,6.106,1.812,6.106,5.5v1.881c0,2.462-.861,4.069-2.7,4.855,2.061.787,2.735,2.6,2.735,5.094v3.693a6.479,6.479,0,0,0,.45,2.906Zm-4.493-20.515v7.351h1.609c1.536,0,2.473-.615,2.473-2.531v-2.356c0-1.709-.637-2.462-2.1-2.462Z" transform="translate(-3289.253 -1373.005)"/></g></g><g transform="translate(161.607 105.006)"><path class="c" d="M3424.44,1526.823h7.834v-7.906a5.384,5.384,0,0,1,5.384-5.384h.379a5.384,5.384,0,0,1,5.384,5.384v7.906h7.906a5.384,5.384,0,0,1,5.384,5.384v.38a5.385,5.385,0,0,1-5.384,5.384h-7.906v7.834a5.384,5.384,0,0,1-5.384,5.384h-.379a5.384,5.384,0,0,1-5.384-5.384v-7.834h-7.834a5.384,5.384,0,0,1-5.384-5.384v-.38A5.384,5.384,0,0,1,3424.44,1526.823Z" transform="translate(-3419.056 -1513.533)"/></g><g transform="translate(163.851 106.4)"><path class="f" d="M3428.783,1529.52h7.834v-7.906a5.384,5.384,0,0,1,5.384-5.384h.38a5.384,5.384,0,0,1,5.384,5.384v7.906h7.906a5.384,5.384,0,0,1,5.384,5.384v.38a5.384,5.384,0,0,1-5.384,5.384h-7.906v7.834a5.384,5.384,0,0,1-5.384,5.384H3442a5.384,5.384,0,0,1-5.384-5.384v-7.834h-7.834a5.384,5.384,0,0,1-5.384-5.384v-.38A5.384,5.384,0,0,1,3428.783,1529.52Z" transform="translate(-3423.399 -1516.23)"/></g><g transform="translate(211.147 85.732)"><g transform="translate(32.46 4.452)"><g transform="translate(0.001)"><path class="e" d="M3613.289,1485.473l-9.931,62.631-18.821,2.189,5.131-35.394c.72-4.994,1.011-8.018.869-9.046a3.148,3.148,0,0,0-2.06-2.4c-1.232-.569-4.138-.934-8.736-1.09l-1.986-.067,1.046-7.8c9.9-1.314,17.611-4.528,23.272-9.648Z" transform="translate(-3577.755 -1484.847)"/></g><g transform="translate(32.099 0.626)"><path class="e" d="M3643.308,1486.058l2.628,2.233-3.387,2.546-2.674-1.719Z" transform="translate(-3639.875 -1486.058)"/></g><g transform="translate(6.781 63.635)"><path class="e" d="M3590.877,1609.812l2.628,2.233,1.659-2.143-.514-1.773-.8-.127Z" transform="translate(-3590.877 -1608.002)"/></g><g transform="translate(0 15.814)"><path class="e" d="M3577.753,1517.09l2.629,2.233,1.47-1.583-.533-2.156-.825-.131Z" transform="translate(-3577.753 -1515.452)"/></g></g><g transform="translate(0 0.56)"><path class="e" d="M3531.167,1485.479l-5.109,1.113-.968-1.038.314-1.891a3.608,3.608,0,0,0,.046-1.682.7.7,0,0,0-.716-.353,1.2,1.2,0,0,0-.975.5,3.3,3.3,0,0,0-.55,1.485,4.01,4.01,0,0,0,.021,1.919,3.816,3.816,0,0,0,1.591,1.537q3.94,2.576,4.8,4.25t.251,5.425a10.838,10.838,0,0,1-1.283,4.028,6.378,6.378,0,0,1-2.8,2.2,10.665,10.665,0,0,1-4.365.922,8.384,8.384,0,0,1-4.348-.957,3.836,3.836,0,0,1-2.021-2.539,12.852,12.852,0,0,1,.161-4.42l.279-1.67,6.1-.072.968,1.038-1.481,2.067a3.936,3.936,0,0,0-.046,1.841.825.825,0,0,0,.846.4,1.3,1.3,0,0,0,1.062-.531,3.454,3.454,0,0,0,.574-1.548q.37-2.254-.124-2.941a14.981,14.981,0,0,0-2.689-2.279,23.174,23.174,0,0,1-2.845-2.34,4.441,4.441,0,0,1-.974-2.032,8.734,8.734,0,0,1,.041-3.333,10.7,10.7,0,0,1,1.461-4.293,6.472,6.472,0,0,1,2.742-2.15,10.376,10.376,0,0,1,4.1-.814,9.235,9.235,0,0,1,4.2.78,3.544,3.544,0,0,1,2.025,2.074,10.931,10.931,0,0,1-.125,4.3Z" transform="translate(-3514.933 -1477.316)"/></g><g transform="translate(14.605)"><path class="e" d="M3559.668,1476.231l1.385,1.381-13.073,25.222-3.813,1.093-.969-1.038,11.782-26.6Z" transform="translate(-3543.199 -1476.231)"/></g><g transform="translate(68.849 5.996)"><path class="e" d="M3687.077,1509.342l-2.969,20.276a52.434,52.434,0,0,1-2.2,10.075,17.123,17.123,0,0,1-3.921,5.934,16.363,16.363,0,0,1-6.188,4.012,22.989,22.989,0,0,1-7.531,1.292,25.189,25.189,0,0,1-8.723-1.151,9.753,9.753,0,0,1-5.072-3.852,14.042,14.042,0,0,1-2.152-5.574,35.024,35.024,0,0,1,.524-9.352l3.208-21.2q1.272-8.365,3.32-12.548A15.6,15.6,0,0,1,3662,1490.5a21.819,21.819,0,0,1,10.553-2.653,19.037,19.037,0,0,1,8.46,1.625,11.571,11.571,0,0,1,5.12,4.182,12.138,12.138,0,0,1,1.747,5.631A52.982,52.982,0,0,1,3687.077,1509.342ZM3673,1504.434q.724-4.842.447-6.054t-1.964-1.191a2.553,2.553,0,0,0-2.377,1.324,21.916,21.916,0,0,0-1.431,5.993l-4.426,29.649q-.784,5.292-.448,6.375t2,1.062a2.518,2.518,0,0,0,2.366-1.3,20.972,20.972,0,0,0,1.365-5.749Z" transform="translate(-3648.179 -1487.835)"/></g><g transform="translate(1.877 1.598)"><path class="c" d="M3534.8,1487.487l-6.078.075.313-1.891a3.617,3.617,0,0,0,.047-1.682.7.7,0,0,0-.717-.353,1.206,1.206,0,0,0-.975.5,3.3,3.3,0,0,0-.55,1.485,4.018,4.018,0,0,0,.021,1.919,3.818,3.818,0,0,0,1.592,1.537q3.94,2.574,4.8,4.249t.252,5.425a10.838,10.838,0,0,1-1.283,4.028,6.372,6.372,0,0,1-2.8,2.2,10.657,10.657,0,0,1-4.365.922,8.385,8.385,0,0,1-4.348-.958,3.835,3.835,0,0,1-2.021-2.539,12.853,12.853,0,0,1,.161-4.42l.279-1.67,6.1-.072-.513,3.1a3.959,3.959,0,0,0-.046,1.841.827.827,0,0,0,.847.4,1.3,1.3,0,0,0,1.061-.532,3.442,3.442,0,0,0,.574-1.548q.371-2.253-.124-2.94a14.984,14.984,0,0,0-2.689-2.279,23.2,23.2,0,0,1-2.846-2.341,4.43,4.43,0,0,1-.972-2.031,8.712,8.712,0,0,1,.04-3.333,10.708,10.708,0,0,1,1.461-4.293,6.476,6.476,0,0,1,2.742-2.149,10.375,10.375,0,0,1,4.1-.814,9.216,9.216,0,0,1,4.2.781,3.545,3.545,0,0,1,2.027,2.073,10.946,10.946,0,0,1-.126,4.3Z" transform="translate(-3518.566 -1479.323)"/></g><g transform="translate(15.991 1.381)"><path class="c" d="M3562.349,1478.9l-11.688,26.6-4.781.054,11.781-26.6Z" transform="translate(-3545.88 -1478.904)"/></g><g transform="translate(71.152 8.461)"><path class="c" d="M3691.533,1514.113l-2.969,20.276a52.38,52.38,0,0,1-2.2,10.075,17.133,17.133,0,0,1-3.921,5.934,16.364,16.364,0,0,1-6.188,4.012,23.021,23.021,0,0,1-7.53,1.292,25.2,25.2,0,0,1-8.723-1.151,9.758,9.758,0,0,1-5.072-3.853,14.041,14.041,0,0,1-2.151-5.574,34.992,34.992,0,0,1,.523-9.352l3.209-21.2q1.272-8.365,3.319-12.549a15.589,15.589,0,0,1,6.629-6.754,21.81,21.81,0,0,1,10.552-2.652,19.029,19.029,0,0,1,8.46,1.625,11.563,11.563,0,0,1,5.12,4.181,12.134,12.134,0,0,1,1.747,5.633A53.145,53.145,0,0,1,3691.533,1514.113Zm-14.081-4.908q.722-4.841.446-6.054t-1.963-1.191a2.551,2.551,0,0,0-2.378,1.324,21.947,21.947,0,0,0-1.431,5.992l-4.426,29.65q-.784,5.293-.448,6.375t2,1.061a2.514,2.514,0,0,0,2.366-1.3,20.978,20.978,0,0,0,1.365-5.749Z" transform="translate(-3652.635 -1492.606)"/></g><g transform="translate(109.224 4.776)"><path class="e" d="M3765.216,1506.982l-2.969,20.276a52.578,52.578,0,0,1-2.2,10.075,17.119,17.119,0,0,1-3.921,5.934,16.366,16.366,0,0,1-6.189,4.012,23.018,23.018,0,0,1-7.53,1.292,25.193,25.193,0,0,1-8.723-1.152,9.754,9.754,0,0,1-5.072-3.853,14.055,14.055,0,0,1-2.151-5.574,35,35,0,0,1,.524-9.351l3.208-21.2q1.271-8.365,3.32-12.549a15.588,15.588,0,0,1,6.629-6.753,21.814,21.814,0,0,1,10.553-2.653,19.031,19.031,0,0,1,8.459,1.625,11.554,11.554,0,0,1,5.12,4.182,12.151,12.151,0,0,1,1.748,5.631A53.253,53.253,0,0,1,3765.216,1506.982Zm-14.08-4.908q.723-4.841.446-6.053t-1.964-1.191a2.552,2.552,0,0,0-2.377,1.324,21.926,21.926,0,0,0-1.431,5.992l-4.425,29.649q-.784,5.294-.449,6.375t2,1.061a2.517,2.517,0,0,0,2.367-1.3,21.018,21.018,0,0,0,1.364-5.748Z" transform="translate(-3726.317 -1485.475)"/></g><g transform="translate(111.527 7.243)"><path class="c" d="M3769.67,1511.755l-2.969,20.276a52.54,52.54,0,0,1-2.2,10.075,17.122,17.122,0,0,1-3.921,5.934,16.378,16.378,0,0,1-6.187,4.013,23.021,23.021,0,0,1-7.531,1.291,25.2,25.2,0,0,1-8.723-1.152,9.757,9.757,0,0,1-5.071-3.853,14.041,14.041,0,0,1-2.151-5.574,35.009,35.009,0,0,1,.524-9.352l3.208-21.2q1.271-8.365,3.32-12.549a15.589,15.589,0,0,1,6.628-6.753,21.813,21.813,0,0,1,10.554-2.652,19.018,19.018,0,0,1,8.459,1.625,11.556,11.556,0,0,1,5.12,4.181,12.135,12.135,0,0,1,1.747,5.633A53.282,53.282,0,0,1,3769.67,1511.755Zm-14.082-4.907q.724-4.841.446-6.054t-1.964-1.191a2.553,2.553,0,0,0-2.377,1.324,22.007,22.007,0,0,0-1.431,5.993l-4.425,29.65q-.784,5.293-.449,6.375t2,1.061a2.516,2.516,0,0,0,2.366-1.3,20.952,20.952,0,0,0,1.364-5.749Z" transform="translate(-3730.775 -1490.248)"/></g><g transform="translate(35.01 7.175)"><path class="c" d="M3618.222,1490.743l-10.126,63.867-18.6.452,5.106-34.894c.72-4.994,1.012-8.018.87-9.046a3.147,3.147,0,0,0-2.061-2.4c-1.232-.569-4.137-.935-8.736-1.091l-1.986-.067,1.045-7.8c9.9-1.314,17.613-4.528,23.272-9.648Z" transform="translate(-3582.689 -1490.116)"/></g></g><g transform="translate(268.385 63.548)"><path class="c" d="M3711.438,1454.541h-76.324c-5.187,0-9.406-4.765-9.406-10.621s4.22-10.62,9.406-10.62h76.324c5.187,0,9.407,4.765,9.407,10.62S3716.625,1454.541,3711.438,1454.541Zm-76.324-20.208c-4.682,0-8.491,4.3-8.491,9.587s3.809,9.588,8.491,9.588h76.324c4.683,0,8.492-4.3,8.492-9.588s-3.809-9.587-8.492-9.587Z" transform="translate(-3625.708 -1433.299)"/></g><g transform="translate(275.963 68.888)"><g transform="translate(0 0.042)"><path class="c" d="M3641.962,1453.362c-.3,0-.492-.238-.535-.595l-1.053-8.271c.056-.442.351-.781.674-.781h.97c.252,0,.477.289.505.611l.674,5.317,2.22-5.317c.141-.322.449-.611.7-.611h.969c.324,0,.506.339.45.781l-3.47,8.271a.839.839,0,0,1-.7.595Z" transform="translate(-3640.374 -1443.715)"/></g><g transform="translate(5.83 0.042)"><path class="c" d="M3657.655,1453.448c-.829,0-.941-.748-1.026-1.308l-.127-.816h-2.064l-.618,1.41c-.126.34-.394.629-.674.629h-1.012c-.323,0-.534-.289-.463-.7l3.6-8.356a.873.873,0,0,1,.7-.595h1.18c.267,0,.463.238.52.595l.955,6.691c.042.221.057.408.1.425a.646.646,0,0,1,.239.612l-.085.56C3658.792,1453.243,3658.1,1453.448,3657.655,1453.448Zm-2.318-4.281h.857l-.2-1.546Z" transform="translate(-3651.657 -1443.715)"/></g><g transform="translate(14.243 0.042)"><path class="c" d="M3668.417,1453.362c-.337,0-.535-.289-.464-.7l1.194-8.255a.745.745,0,0,1,.674-.7h.914c.323,0,.534.289.463.7l-.97,6.658h2.627c.323,0,.534.289.477.679l-.125.917a.756.756,0,0,1-.675.7Z" transform="translate(-3667.939 -1443.715)"/></g><g transform="translate(20.844 0.042)"><path class="c" d="M3681.192,1453.362c-.337,0-.535-.289-.463-.7l1.194-8.255a.745.745,0,0,1,.675-.7h4.313c.337,0,.52.289.449.7l-.126.934a.719.719,0,0,1-.661.679h-2.823l-.21,1.376h2.008c.323,0,.506.306.449.7l-.126.918a.748.748,0,0,1-.66.7H3683.2l-.2,1.359h2.825c.336,0,.52.289.463.679l-.127.917c-.07.408-.323.7-.661.7Z" transform="translate(-3680.714 -1443.715)"/></g><g transform="translate(34.077)"><path class="c" d="M3707.913,1453.281c-.294,0-.492-.238-.534-.595l-1.054-8.272c.057-.441.352-.781.674-.781h.97c.252,0,.477.288.505.611l.675,5.317,2.22-5.317c.14-.323.449-.611.7-.611h.97c.323,0,.506.339.449.781l-3.47,8.272a.84.84,0,0,1-.7.595Z" transform="translate(-3706.325 -1443.633)"/></g><g transform="translate(41.311)"><path class="c" d="M3722.391,1452.583a.757.757,0,0,1-.675.7h-.927c-.322,0-.52-.289-.449-.7l1.194-8.254a.743.743,0,0,1,.661-.7h.927c.322,0,.534.288.463.7Z" transform="translate(-3720.325 -1443.633)"/></g><g transform="translate(45.133)"><path class="c" d="M3732,1443.633c1.938,0,2.768,1.019,2.431,3.346a3.9,3.9,0,0,1-1.25,2.666,13.206,13.206,0,0,0,.322,1.7.6.6,0,0,1,.2.612l-.084.56a1.108,1.108,0,0,1-1.194.85c-.759,0-.885-.578-1-1.206l-.323-1.869h-.984l-.336,2.293c-.071.408-.324.7-.674.7h-.9c-.323,0-.548-.289-.478-.7l1.194-8.254a.768.768,0,0,1,.688-.7Zm.38,3.346c.084-.629-.155-1.036-.59-1.036h-1.04l-.309,2.055h1.04C3731.935,1448,3732.286,1447.625,3732.384,1446.979Z" transform="translate(-3727.721 -1443.633)"/></g><g transform="translate(53.156)"><path class="c" d="M3748.877,1443.633c.324,0,.505.288.436.7l-.127.934a.717.717,0,0,1-.646.68h-1.391l-.97,6.641a.756.756,0,0,1-.674.7h-.927c-.324,0-.52-.289-.45-.7l.969-6.641h-1.39c-.324,0-.506-.289-.45-.68l.126-.934a.743.743,0,0,1,.66-.7Z" transform="translate(-3743.248 -1443.633)"/></g><g transform="translate(59.757)"><path class="c" d="M3756.16,1448.949l.675-4.62a.768.768,0,0,1,.689-.7h.912c.324,0,.521.288.45.7l-.688,4.739c-.267,1.868.365,2,.843,2s1.166-.136,1.433-2l.688-4.739a.757.757,0,0,1,.674-.7h.914c.323,0,.534.288.463.7l-.674,4.62c-.548,3.8-1.869,4.416-3.821,4.416S3755.613,1452.754,3756.16,1448.949Z" transform="translate(-3756.024 -1443.633)"/></g><g transform="translate(66.805)"><path class="c" d="M3775.661,1453.366c-.829,0-.941-.748-1.025-1.308l-.127-.815h-2.065l-.618,1.41c-.126.34-.394.629-.675.629h-1.012c-.323,0-.534-.289-.463-.7l3.6-8.356a.875.875,0,0,1,.7-.594h1.18c.267,0,.463.238.52.594l.956,6.692c.042.22.056.408.1.425a.644.644,0,0,1,.239.612l-.084.56C3776.8,1453.161,3776.111,1453.366,3775.661,1453.366Zm-2.318-4.28h.857l-.2-1.546Z" transform="translate(-3769.663 -1443.633)"/></g><g transform="translate(75.217)"><path class="c" d="M3786.422,1453.281c-.338,0-.534-.289-.464-.7l1.194-8.254a.744.744,0,0,1,.674-.7h.914c.323,0,.534.288.463.7l-.969,6.658h2.627c.323,0,.534.289.478.68l-.126.917a.757.757,0,0,1-.674.7Z" transform="translate(-3785.944 -1443.633)"/></g></g><g transform="translate(27.824 59.847)"><g transform="translate(0 0)"><rect class="c" width="17.825" height="1.55" transform="translate(0 17.742) rotate(-84.453)"/></g></g><g transform="translate(18.925 155.999)"><path class="c" d="M3378.671,1645.455H3157.376c-4.019,0-7.751-2.11-10.508-5.941a22.861,22.861,0,0,1-3.875-14.93l.951-12.363,1.223.15-.951,12.364a21.035,21.035,0,0,0,3.562,13.738c2.522,3.5,5.93,5.432,9.6,5.432h221.294Z" transform="translate(-3142.92 -1612.221)"/></g><g transform="translate(234.68 42.787)"><path class="c" d="M3667.123,1406.361c-2.188-6.994-8.123-11.693-14.768-11.693h-91.878v-1.55h91.878c7.327,0,13.856,5.136,16.248,12.78Z" transform="translate(-3560.477 -1393.118)"/></g><g transform="translate(239.923 165.355)"><path class="c" d="M3572.491,1642.438a.618.618,0,0,1-.629-.579l-1.239-8.051a.86.86,0,0,1,.792-.761h1.141a.653.653,0,0,1,.6.6l.793,5.175,2.613-5.175a1.1,1.1,0,0,1,.827-.6h1.141c.38,0,.595.331.529.761l-4.084,8.051a.964.964,0,0,1-.827.579Z" transform="translate(-3570.623 -1631.642)"/><path class="c" d="M3589.237,1635.387l-.909,5.092a.748.748,0,0,1-.744.645h-.777c-.3,0-.513-.066-.6-.314l-.05-.132a2.65,2.65,0,0,1-1.5.529c-1.868,0-2.2-1.571-1.9-3.257a4.111,4.111,0,0,1,4.1-3.621,5.9,5.9,0,0,1,2.067.4A.587.587,0,0,1,3589.237,1635.387Zm-2.627,1.207a1.522,1.522,0,0,0-1.422,1.356c-.149.876.182,1.025.529,1.025a1.215,1.215,0,0,0,.512-.2Zm.727-6.018a1.011,1.011,0,0,1,.612-.248.49.49,0,0,1,.446.182l.513.744a.663.663,0,0,1,.132.545.916.916,0,0,1-.463.562l-1.654,1.174a1.275,1.275,0,0,1-.628.2.641.641,0,0,1-.479-.265l-.231-.3a.682.682,0,0,1-.181-.562,1.374,1.374,0,0,1,.165-.363Z" transform="translate(-3576.441 -1630.328)"/><path class="c" d="M3596.822,1633.708a.793.793,0,0,1,.761-.661h1.107a.528.528,0,0,1,.545.661l-1.174,6.58c-.033.2,0,.3.05.314a.523.523,0,0,1,.247.579l-.1.528a.789.789,0,0,1-.645.645,3.327,3.327,0,0,1-.926.165c-1.322,0-1.223-1.174-1.124-1.753Z" transform="translate(-3582.652 -1631.642)"/><path class="c" d="M3604.412,1641.576a.81.81,0,0,1-.777.661h-1.107a.512.512,0,0,1-.53-.661l.943-5.373a.779.779,0,0,1,.76-.661h1.108a.529.529,0,0,1,.546.661Zm.363-8.945a1.025,1.025,0,0,1,1.042,1.273,1.553,1.553,0,0,1-1.488,1.273,1.042,1.042,0,0,1-1.058-1.273A1.585,1.585,0,0,1,3604.775,1632.631Z" transform="translate(-3585.778 -1631.441)"/><path class="c" d="M3614.515,1641.5a.9.9,0,0,1-.562.661,8.318,8.318,0,0,1-2.463.364c-2.249,0-3.142-1.372-2.744-3.555a3.642,3.642,0,0,1,3.587-3.323,2.7,2.7,0,0,1,.777.1l.364-2.05a.766.766,0,0,1,.761-.645h1.125a.506.506,0,0,1,.529.645Zm-2.7-1.207c.066,0,.332-.016.5-.032l.4-2.282a1.055,1.055,0,0,0-.4-.083c-.529,0-.959.265-1.091,1.074C3611.059,1639.843,3611.191,1640.289,3611.82,1640.289Z" transform="translate(-3589.003 -1631.642)"/><path class="c" d="M3621.9,1641.444a3.688,3.688,0,0,1,3.869-3.373c2.248,0,3.042,1.339,2.678,3.373-.38,2.182-1.636,3.5-3.885,3.5S3621.516,1643.626,3621.9,1641.444Zm4.134.017c.082-.479.033-1.141-.661-1.141s-.976.661-1.058,1.141c-.083.5-.149,1.256.628,1.256S3625.947,1641.957,3626.03,1641.461Z" transform="translate(-3595.359 -1634.07)"/><path class="c" d="M3640.466,1639.1a1.022,1.022,0,0,1,.661-.711,8.941,8.941,0,0,1,2.365-.314c2.249,0,3.125,1.372,2.744,3.555a3.632,3.632,0,0,1-3.951,3.323h-.43l-.447,2.5a.779.779,0,0,1-.761.661h-1.124a.518.518,0,0,1-.529-.661Zm1.769,3.621h.314a1.224,1.224,0,0,0,1.273-1.091c.149-.876-.049-1.306-.677-1.306a2.87,2.87,0,0,0-.479.033Z" transform="translate(-3603.661 -1634.07)"/><path class="c" d="M3659.827,1639.13l-.909,5.092a.747.747,0,0,1-.744.645h-.777c-.3,0-.512-.066-.595-.314l-.05-.132a2.649,2.649,0,0,1-1.5.529c-1.867,0-2.2-1.571-1.9-3.257a4.11,4.11,0,0,1,4.1-3.621,5.9,5.9,0,0,1,2.067.4A.587.587,0,0,1,3659.827,1639.13Zm-2.628,1.207a1.521,1.521,0,0,0-1.422,1.356c-.149.876.182,1.025.529,1.025a1.218,1.218,0,0,0,.512-.2Z" transform="translate(-3610.557 -1634.07)"/><path class="c" d="M3671.5,1638.617a.65.65,0,0,1,.214.6.579.579,0,0,1-.1.231l-.446.761a.835.835,0,0,1-.661.413.5.5,0,0,1-.265-.083,2.012,2.012,0,0,0-.793-.215.956.956,0,0,0-.529.149l-.662,3.753a.747.747,0,0,1-.744.645h-1.125a.516.516,0,0,1-.545-.645l.86-4.861a.889.889,0,0,1,.447-.612,4.448,4.448,0,0,1,2.628-.678A2.324,2.324,0,0,1,3671.5,1638.617Z" transform="translate(-3616.637 -1634.07)"/><path class="c" d="M3681.973,1639.13l-.91,5.092a.747.747,0,0,1-.744.645h-.777c-.3,0-.513-.066-.6-.314l-.049-.132a2.649,2.649,0,0,1-1.5.529c-1.869,0-2.2-1.571-1.9-3.257a4.11,4.11,0,0,1,4.1-3.621,5.9,5.9,0,0,1,2.066.4A.589.589,0,0,1,3681.973,1639.13Zm-2.628,1.207a1.522,1.522,0,0,0-1.422,1.356c-.148.876.181,1.025.529,1.025a1.221,1.221,0,0,0,.513-.2Z" transform="translate(-3621.259 -1634.07)"/><path class="c" d="M3699.98,1639.377c-.016.1-.032.132-.528.893a.729.729,0,0,1-.661.38.97.97,0,0,1-.331-.116,2.32,2.32,0,0,0-1.125-.215,1.308,1.308,0,0,0-1.306,1.174c-.149.859.331,1.223.876,1.223a2.383,2.383,0,0,0,1.24-.247.763.763,0,0,1,.348-.083.568.568,0,0,1,.512.381,8.257,8.257,0,0,1,.231.859,1.033,1.033,0,0,1-.479.661,4.267,4.267,0,0,1-2.364.661c-2.216,0-3.158-1.273-2.778-3.455a3.784,3.784,0,0,1,3.985-3.422,3.112,3.112,0,0,1,2.133.678A.65.65,0,0,1,3699.98,1639.377Z" transform="translate(-3630.025 -1634.07)"/><path class="c" d="M3705.639,1641.444a3.688,3.688,0,0,1,3.869-3.373c2.248,0,3.042,1.339,2.678,3.373-.38,2.182-1.637,3.5-3.885,3.5S3705.259,1643.626,3705.639,1641.444Zm4.134.017c.083-.479.033-1.141-.661-1.141s-.976.661-1.059,1.141c-.083.5-.149,1.256.628,1.256S3709.69,1641.957,3709.773,1641.461Z" transform="translate(-3635.831 -1634.07)"/><path class="c" d="M3719.488,1639.1a.963.963,0,0,1,.661-.711,5.638,5.638,0,0,1,2.034-.314,2.571,2.571,0,0,1,1.885.579,3.151,3.151,0,0,1,1.7-.562c1.917,0,2,1.306,1.686,3.042l-.545,3.091a.761.761,0,0,1-.745.645h-1.124a.516.516,0,0,1-.545-.645l.545-3.025c.149-.843.049-.876-.232-.876a1.337,1.337,0,0,0-.265.017c-.032.265-.1.612-.148.959l-.529,2.926a.748.748,0,0,1-.744.645h-.926a.516.516,0,0,1-.545-.645l.513-2.909c.149-.843.182-.992-.249-.992a1.644,1.644,0,0,0-.248.05l-.678,3.852a.748.748,0,0,1-.745.645h-1.124a.516.516,0,0,1-.545-.645Z" transform="translate(-3642.123 -1634.07)"/><path class="c" d="M3736.4,1639.1a1.024,1.024,0,0,1,.661-.711,8.942,8.942,0,0,1,2.364-.314c2.249,0,3.125,1.372,2.745,3.555a3.632,3.632,0,0,1-3.952,3.323h-.43l-.446,2.5a.779.779,0,0,1-.761.661h-1.124a.518.518,0,0,1-.529-.661Zm1.769,3.621h.314a1.225,1.225,0,0,0,1.273-1.091c.149-.876-.05-1.306-.678-1.306a2.871,2.871,0,0,0-.479.033Z" transform="translate(-3650.025 -1634.07)"/><path class="c" d="M3754.7,1638.617a.654.654,0,0,1,.214.6.585.585,0,0,1-.1.231l-.447.761a.835.835,0,0,1-.661.413.5.5,0,0,1-.265-.083,2,2,0,0,0-.793-.215.96.96,0,0,0-.53.149l-.662,3.753a.747.747,0,0,1-.743.645h-1.125a.516.516,0,0,1-.545-.645l.859-4.861a.892.892,0,0,1,.447-.612,4.45,4.45,0,0,1,2.629-.678A2.324,2.324,0,0,1,3754.7,1638.617Z" transform="translate(-3656.846 -1634.07)"/><path class="c" d="M3765.17,1639.13l-.91,5.092a.747.747,0,0,1-.743.645h-.777c-.3,0-.513-.066-.6-.314l-.049-.132a2.651,2.651,0,0,1-1.5.529c-1.868,0-2.2-1.571-1.9-3.257a4.11,4.11,0,0,1,4.1-3.621,5.9,5.9,0,0,1,2.067.4A.589.589,0,0,1,3765.17,1639.13Zm-2.628,1.207a1.521,1.521,0,0,0-1.422,1.356c-.148.876.182,1.025.529,1.025a1.221,1.221,0,0,0,.513-.2Z" transform="translate(-3661.468 -1634.07)"/><path class="c" d="M3773.7,1642.866c.181,0,.662,0,.694-.166.066-.4-3.24-.281-2.876-2.414.215-1.174,1.157-2.216,3.306-2.216a13.966,13.966,0,0,1,1.587.2.588.588,0,0,1,.529.661l-.033.132a3.728,3.728,0,0,1-.215.744c-.149.4-.331.529-.612.529-.545-.033-.843-.083-1.174-.083-.6,0-.959,0-.975.1-.083.4,3.224.347,2.876,2.314-.248,1.438-1.537,2.282-3.438,2.282a6.15,6.15,0,0,1-1.984-.38.628.628,0,0,1-.364-.694,3.757,3.757,0,0,1,.4-.859.745.745,0,0,1,.694-.4.95.95,0,0,1,.231.033A5.7,5.7,0,0,0,3773.7,1642.866Z" transform="translate(-3667.469 -1634.07)"/><path class="c" d="M3651.174,1675.337a6.955,6.955,0,0,1-.827-.05c.2.48.727.513,1.157.513a3.278,3.278,0,0,0,1.6-.348.409.409,0,0,1,.6.281l.2.678a.686.686,0,0,1,.017.248,1.046,1.046,0,0,1-.447.628,4.047,4.047,0,0,1-2.48.661c-2.232,0-3.042-1.323-2.662-3.5.364-2.034,1.537-3.373,3.787-3.373,1.785,0,2.661.942,2.43,2.232C3654.265,1674.907,3652.695,1675.337,3651.174,1675.337Zm-.281-1.8c.067.165.38.281.695.281.247,0,.479-.083.513-.347.049-.232-.266-.281-.5-.281A.976.976,0,0,0,3650.892,1673.535Z" transform="translate(-3608.135 -1650.019)"/><path class="c" d="M3661.217,1672.1a.962.962,0,0,1,.661-.711,7.555,7.555,0,0,1,2.364-.314c2.232,0,2.91,1.009,2.53,3.224l-.529,2.926a.753.753,0,0,1-.761.645h-1.108a.515.515,0,0,1-.545-.645l.513-2.91c.148-.843.132-.992-.446-.992a2.762,2.762,0,0,0-.479.033l-.695,3.869a.764.764,0,0,1-.761.645h-1.107a.515.515,0,0,1-.545-.645Z" transform="translate(-3613.962 -1650.019)"/><path class="c" d="M3683.226,1666.047c2.281,0,3.307.992,2.91,3.257s-1.77,3.224-4.051,3.224h-.893l-.4,2.232a.813.813,0,0,1-.794.678h-1.058a.533.533,0,0,1-.562-.678l1.406-8.035a.829.829,0,0,1,.81-.678Zm.5,3.241c.116-.612-.165-.992-.694-.992h-1.091l-.364,2h1.091A1.1,1.1,0,0,0,3683.722,1669.288Z" transform="translate(-3622.694 -1647.591)"/><path class="c" d="M3693.748,1666.709a.793.793,0,0,1,.761-.661h1.107a.528.528,0,0,1,.545.661l-1.174,6.58c-.033.2,0,.3.049.314a.525.525,0,0,1,.249.579l-.1.528a.788.788,0,0,1-.645.645,3.321,3.321,0,0,1-.926.165c-1.323,0-1.223-1.174-1.125-1.753Z" transform="translate(-3629.496 -1647.591)"/><path class="c" d="M3705.332,1672.129l-.91,5.092a.748.748,0,0,1-.744.645h-.777c-.3,0-.513-.066-.6-.314l-.049-.132a2.649,2.649,0,0,1-1.5.529c-1.868,0-2.2-1.571-1.9-3.257a4.111,4.111,0,0,1,4.1-3.621,5.9,5.9,0,0,1,2.067.4A.589.589,0,0,1,3705.332,1672.129Zm-2.629,1.207a1.522,1.522,0,0,0-1.422,1.356c-.149.876.182,1.025.529,1.025a1.221,1.221,0,0,0,.513-.2Z" transform="translate(-3632.548 -1650.019)"/><path class="c" d="M3712.255,1672.1a.963.963,0,0,1,.661-.711,7.563,7.563,0,0,1,2.365-.314c2.232,0,2.91,1.009,2.53,3.224l-.528,2.926a.754.754,0,0,1-.761.645h-1.108a.515.515,0,0,1-.545-.645l.512-2.91c.148-.843.132-.992-.446-.992a2.762,2.762,0,0,0-.479.033l-.7,3.869a.764.764,0,0,1-.76.645h-1.107a.516.516,0,0,1-.545-.645Z" transform="translate(-3638.628 -1650.019)"/><path class="c" d="M3734.038,1666.047c2.282,0,3.324.645,2.91,2.943a2.047,2.047,0,0,1-.942,1.587,1.876,1.876,0,0,1,.744,1.934c-.414,2.281-1.67,2.927-3.951,2.927h-2.812a.564.564,0,0,1-.562-.695l1.406-8.019a.842.842,0,0,1,.81-.678Zm.3,6.448c.1-.529-.364-.611-.91-.611h-1.091l-.231,1.322h1.091C3733.741,1673.206,3734.237,1673.091,3734.336,1672.5Zm-1.356-4.2-.232,1.323h.678c.529,0,1.009-.066,1.125-.695.1-.562-.364-.628-.893-.628Z" transform="translate(-3647.366 -1647.591)"/><path class="c" d="M3745.363,1666.709a.793.793,0,0,1,.761-.661h1.107a.529.529,0,0,1,.546.661l-1.174,6.58c-.033.2,0,.3.049.314a.523.523,0,0,1,.248.579l-.1.528a.79.79,0,0,1-.645.645,3.324,3.324,0,0,1-.926.165c-1.323,0-1.223-1.174-1.125-1.753Z" transform="translate(-3654.441 -1647.591)"/><path class="c" d="M3756.946,1672.129l-.909,5.092a.748.748,0,0,1-.745.645h-.777c-.3,0-.512-.066-.595-.314l-.05-.132a2.65,2.65,0,0,1-1.5.529c-1.868,0-2.2-1.571-1.9-3.257a4.111,4.111,0,0,1,4.1-3.621,5.9,5.9,0,0,1,2.067.4A.588.588,0,0,1,3756.946,1672.129Zm-2.629,1.207a1.52,1.52,0,0,0-1.421,1.356c-.149.876.182,1.025.528,1.025a1.221,1.221,0,0,0,.513-.2Z" transform="translate(-3657.493 -1650.019)"/><path class="c" d="M3769.708,1672.377c-.017.1-.033.132-.529.893a.729.729,0,0,1-.662.381.969.969,0,0,1-.33-.116,2.322,2.322,0,0,0-1.125-.215,1.308,1.308,0,0,0-1.306,1.174c-.148.859.33,1.223.876,1.223a2.382,2.382,0,0,0,1.24-.247.762.762,0,0,1,.347-.083.57.57,0,0,1,.513.381,8.341,8.341,0,0,1,.231.859,1.034,1.034,0,0,1-.479.662,4.271,4.271,0,0,1-2.365.661c-2.215,0-3.158-1.273-2.778-3.455a3.784,3.784,0,0,1,3.985-3.423,3.113,3.113,0,0,1,2.133.678A.653.653,0,0,1,3769.708,1672.377Z" transform="translate(-3663.723 -1650.019)"/><path class="c" d="M3778.428,1674.066a3.185,3.185,0,0,0-.38-.909l-.232.082-.28,1.554a.748.748,0,0,1-.744.645h-1.125a.516.516,0,0,1-.545-.645l1.438-8.1a.766.766,0,0,1,.761-.645h1.125a.505.505,0,0,1,.529.645l-.711,3.985a3.192,3.192,0,0,0,1.355-1.339.8.8,0,0,1,.76-.6h1.108a.531.531,0,0,1,.529.678,5.435,5.435,0,0,1-1.786,2.546,4.426,4.426,0,0,1,.6,1.158l.579,1.57a.829.829,0,0,1-.761.744h-1.207a.888.888,0,0,1-.728-.546Z" transform="translate(-3669.449 -1647.591)"/></g></g></g></svg>