<svg xmlns="http://www.w3.org/2000/svg" width="440" height="198.141" viewBox="0 0 440 198.141"><defs><style>.a{fill:#ea0d90;}.b,.h{fill:#fff;}.c{fill:#0c1e39;}.d{fill:#fc0;}.e{fill:#fbbf00;}.f{fill:#f82900;}.g{fill:#ff7619;}.h{fill-rule:evenodd;}.i{fill:#ffde6e;}</style></defs><g transform="translate(-1231.95 -1969.547)"><g transform="translate(1327.554 1988.839)"><g transform="translate(0)"><path class="a" d="M1397.377,2016.392v3.343c0,4.027-2.206,6.327-6.457,6.327s-6.457-2.3-6.457-6.327V2006.65c0-4.026,2.205-6.327,6.457-6.327s6.457,2.3,6.457,6.327v2.445h-4.1v-2.7c0-1.8-.866-2.48-2.245-2.48s-2.245.682-2.245,2.48v13.589c0,1.8.867,2.445,2.245,2.445s2.245-.647,2.245-2.445v-3.6Z" transform="translate(-1384.464 -2000.323)"/></g><g transform="translate(13.701 0.29)"><path class="a" d="M1411.8,2017.607l-5.475-16.822h4.529l3.309,11.467,3.309-11.467h4.137l-5.475,16.822v8.337H1411.8Z" transform="translate(-1406.321 -2000.785)"/></g><g transform="translate(30.72 0.285)"><path class="a" d="M1446.429,2006.569v.9c0,2.589-.867,4.242-2.8,5.069,2.324.827,3.23,2.732,3.23,5.391v2.049c0,3.882-2.245,5.967-6.578,5.967h-6.814v-25.165h6.539C1444.5,2000.781,1446.429,2002.686,1446.429,2006.569Zm-8.627-2.194v6.65h1.693c1.615,0,2.6-.647,2.6-2.661v-1.4c0-1.8-.67-2.589-2.206-2.589Zm0,10.246v7.729h2.479c1.458,0,2.245-.611,2.245-2.48v-2.194c0-2.336-.827-3.056-2.8-3.056Z" transform="translate(-1433.471 -2000.778)"/></g><g transform="translate(46.707 0.29)"><path class="a" d="M1463.309,2011.386h5.949v3.595h-5.949v7.372h7.484v3.595h-11.818v-25.164h11.818v3.594h-7.484Z" transform="translate(-1458.974 -2000.785)"/></g><g transform="translate(61.202 0.291)"><path class="a" d="M1491.156,2025.948a7.174,7.174,0,0,1-.393-3.092V2018.9c0-2.337-.867-3.2-2.837-3.2h-1.5v10.245H1482.1v-25.163h6.538c4.491,0,6.42,1.9,6.42,5.787v1.978c0,2.588-.906,4.278-2.836,5.1,2.166.826,2.875,2.732,2.875,5.356v3.883a6.805,6.805,0,0,0,.473,3.055Zm-4.724-21.569v7.729h1.693c1.615,0,2.6-.647,2.6-2.662v-2.478c0-1.8-.67-2.589-2.207-2.589Z" transform="translate(-1482.097 -2000.787)"/></g></g><g transform="translate(1422.703 2027.735)"><g transform="translate(0 0)"><path class="b" d="M1540.089,2070.049a3.838,3.838,0,1,1,3.838-3.838,3.838,3.838,0,0,1-3.838,3.838Zm0-6.007a2.169,2.169,0,1,0,2.168,2.169h0A2.173,2.173,0,0,0,1540.089,2064.042Z" transform="translate(-1536.252 -2062.373)"/></g></g><g transform="translate(1283.373 2033.288)"><g transform="translate(71.575 0)"><path class="a" d="M1439.907,2071.231h19.235c4.155,0,6.8,3.368,5.9,7.523l-2.42,11.208a9.847,9.847,0,0,1-9.148,7.522h-19.235c-4.155,0-6.8-3.368-5.9-7.522l2.421-11.208A9.848,9.848,0,0,1,1439.907,2071.231Z" transform="translate(-1428.164 -2071.231)"/></g><g transform="translate(60.984 34.009)"><g transform="translate(4.891 0.046)"><path class="c" d="M1425.958,2142.795a10.2,10.2,0,0,0,9.3-5.906h-4.533a4.794,4.794,0,0,1-4.012,2.17c-2.532,0-3.86-1.881-3.214-4.871s2.788-4.87,5.318-4.87a2.883,2.883,0,0,1,3.075,2.169h4.533c-.172-3.664-2.721-5.931-6.748-5.931a10.7,10.7,0,0,0-10.375,8.631C1418.214,2139.253,1420.964,2142.795,1425.958,2142.795Z" transform="translate(-1419.07 -2125.557)"/></g><g transform="translate(23.54 0.241)"><path class="c" d="M1459.092,2136a3.585,3.585,0,0,1-3.673,3.156c-1.954,0-2.692-1.158-2.257-3.156l2.188-10.126h-4.128l-2.181,10.1c-1.01,4.678,1.553,6.995,5.484,6.995a8.612,8.612,0,0,0,8.695-6.995l2.181-10.1h-4.126Z" transform="translate(-1448.82 -2125.869)"/></g><g transform="translate(40.255)"><path class="c" d="M1482.558,2142.819a11.348,11.348,0,0,0,10.511-8.7c1.015-4.787-2.048-8.651-6.839-8.631a11.351,11.351,0,0,0-10.5,8.655c-1.125,4.679,1.737,8.565,6.39,8.679C1482.264,2142.822,1482.41,2142.822,1482.558,2142.819Zm2.937-13.6c2.7,0,4.049,1.9,3.4,4.92-.64,2.965-2.821,4.92-5.523,4.92-2.748,0-4.062-1.952-3.422-4.92.649-3.014,2.8-4.92,5.547-4.92Z" transform="translate(-1475.485 -2125.484)"/></g><g transform="translate(60.338 0.241)"><path class="c" d="M1509.062,2142.794h4.123l2.942-13.623h4.487l.713-3.3h-13.091l-.713,3.3h4.489Z" transform="translate(-1507.523 -2125.868)"/></g><g transform="translate(71.445 0.241)"><path class="c" d="M1537.537,2139.8l.367,2.99h4.362l-2.467-16.925h-4.773l-9.783,16.929h4.316l1.658-2.99Zm-1.132-9.38.757,6.2h-4.17Z" transform="translate(-1525.242 -2125.868)"/></g><g transform="translate(0 22.712)"><path class="c" d="M1418.884,2172.321h5.232a5.27,5.27,0,0,1-4.745,2.99c-2.966,0-4.353-1.832-3.677-4.967.636-2.94,2.8-4.82,5.454-4.82,1.543,0,2.57.6,2.952,1.736h4.557c-.142-3.472-2.633-5.545-6.685-5.545a10.75,10.75,0,0,0-10.469,8.632c-1.094,5.062,1.709,8.606,6.77,8.606a10.8,10.8,0,0,0,9.411-5.83l.827-3.833h-8.968Z" transform="translate(-1411.268 -2161.715)"/></g><g transform="translate(17.468 22.902)"><path class="c" d="M1454.779,2167.346c.635-2.941-.922-5.328-5.069-5.328h-6.921l-3.655,16.926h4.122l1.379-6.389h.988l2.142,6.389h4.653l-2.461-6.7A6.522,6.522,0,0,0,1454.779,2167.346Zm-6.958,2.3h-2.558l.906-4.195h2.558c1.543,0,2.089.815,1.818,2.073a2.521,2.521,0,0,1-2.724,2.121Z" transform="translate(-1439.134 -2162.018)"/></g><g transform="translate(32.079 22.9)"><path class="c" d="M1472.222,2162.015l-9.779,16.929h4.317l1.658-2.99h6.316l.367,2.99h4.362l-2.471-16.925Zm-2.033,10.753,3.413-6.2.756,6.2Z" transform="translate(-1462.443 -2162.015)"/></g><g transform="translate(52.985 22.902)"><path class="c" d="M1495.793,2165.322h4.484l-2.943,13.624h4.123l2.942-13.624h4.487l.714-3.3h-13.094Z" transform="translate(-1495.793 -2162.02)"/></g><g transform="translate(65.209 22.903)"><path class="c" d="M1518.948,2162.021h4.123l-3.655,16.926h-4.123Z" transform="translate(-1515.293 -2162.021)"/></g><g transform="translate(72.83 22.663)"><path class="c" d="M1533.533,2166.484a1.93,1.93,0,0,1,2.068-1.543,1.43,1.43,0,0,1,1.6,1.238h0a1.445,1.445,0,0,1-.018.467h0l-.013.054h4.461c.528-3.23-1.562-5.061-5.247-5.061-3.545,0-6.557,1.783-7.25,4.992-1.344,6,7.483,4.316,6.805,7.45a2.169,2.169,0,0,1-2.319,1.592,1.515,1.515,0,0,1-1.711-1.774v-.005c.007-.051.015-.1.026-.154h-4.388c-.619,3.424,1.836,5.232,5.476,5.232,3.953,0,6.683-2.363,7.3-5.208C1541.551,2168.1,1532.9,2169.423,1533.533,2166.484Z" transform="translate(-1527.452 -2161.638)"/></g></g><g transform="translate(0 4.39)"><path class="c" d="M1316.581,2135.837c17.277-12.109,35.48-24.122,37.993-35.757,1.082-5.015-.493-8.229-5.412-8.229-4.823,0-8.479,3.783-9.889,10.313h-15.609c4.09-16.746,16.52-23.93,29.1-23.93,15.7,0,20.721,9.176,18.209,20.812-3.271,15.136-19.412,27.243-32.2,35.663h25.536l-2.841,13.146h-47.487Z" transform="translate(-1313.983 -2078.234)"/></g><g transform="translate(4.723 4.39)"><path class="b" d="M1324.11,2135.837c17.278-12.109,35.48-24.122,37.995-35.757,1.081-5.015-.494-8.229-5.413-8.229-4.827,0-8.479,3.783-9.889,10.313H1331.2c4.089-16.746,16.52-23.93,29.1-23.93,15.7,0,20.722,9.176,18.209,20.812-3.271,15.136-19.412,27.243-32.2,35.663h25.542l-2.84,13.148h-47.488Z" transform="translate(-1321.517 -2078.234)"/></g><g transform="translate(63.244 34.009)"><g transform="translate(4.89 0.045)"><path class="b" d="M1429.56,2142.794a10.2,10.2,0,0,0,9.305-5.907h-4.531a4.8,4.8,0,0,1-4.012,2.171c-2.531,0-3.86-1.881-3.214-4.871s2.787-4.87,5.32-4.87a2.884,2.884,0,0,1,3.075,2.17h4.533c-.172-3.664-2.723-5.931-6.749-5.931a10.7,10.7,0,0,0-10.374,8.632C1421.817,2139.252,1424.571,2142.794,1429.56,2142.794Z" transform="translate(-1422.675 -2125.556)"/></g><g transform="translate(23.544 0.241)"><path class="b" d="M1462.7,2136a3.585,3.585,0,0,1-3.672,3.156c-1.954,0-2.692-1.158-2.257-3.156l2.188-10.126h-4.123l-2.181,10.1c-1.01,4.678,1.553,6.995,5.483,6.995a8.612,8.612,0,0,0,8.7-6.995l2.181-10.1h-4.128Z" transform="translate(-1452.433 -2125.869)"/></g><g transform="translate(40.253)"><path class="b" d="M1486.162,2142.819a11.35,11.35,0,0,0,10.512-8.7c1.015-4.787-2.049-8.651-6.84-8.631a11.351,11.351,0,0,0-10.5,8.655c-1.125,4.679,1.736,8.565,6.394,8.679C1485.869,2142.822,1486.018,2142.822,1486.162,2142.819Zm2.936-13.6c2.7,0,4.05,1.9,3.4,4.92-.64,2.965-2.821,4.92-5.523,4.92-2.749,0-4.062-1.952-3.422-4.92.649-3.014,2.8-4.92,5.546-4.92Z" transform="translate(-1479.088 -2125.484)"/></g><g transform="translate(60.336 0.241)"><path class="b" d="M1512.668,2142.794h4.123l2.943-13.623h4.484l.714-3.3H1511.84l-.714,3.3h4.484Z" transform="translate(-1511.126 -2125.868)"/></g><g transform="translate(71.447 0.241)"><path class="b" d="M1541.143,2139.8l.367,2.99h4.361l-2.467-16.925h-4.774l-9.779,16.929h4.316l1.658-2.99Zm-1.132-9.379.756,6.2h-4.17Z" transform="translate(-1528.851 -2125.868)"/></g><g transform="translate(0 22.712)"><path class="b" d="M1422.488,2172.321h5.233a5.274,5.274,0,0,1-4.745,2.99c-2.965,0-4.353-1.832-3.676-4.967.636-2.94,2.8-4.82,5.454-4.82,1.543,0,2.57.6,2.953,1.736h4.557c-.143-3.472-2.633-5.545-6.685-5.545a10.752,10.752,0,0,0-10.469,8.632c-1.094,5.062,1.71,8.606,6.77,8.606a10.787,10.787,0,0,0,9.406-5.834l.828-3.833h-8.972Z" transform="translate(-1414.874 -2161.715)"/></g><g transform="translate(17.466 22.902)"><path class="b" d="M1458.383,2167.346c.635-2.941-.923-5.328-5.07-5.328h-6.92l-3.656,16.926h4.123l1.379-6.389h.989l2.143,6.389h4.653l-2.458-6.7A6.523,6.523,0,0,0,1458.383,2167.346Zm-6.958,2.3h-2.556l.906-4.195h2.557c1.543,0,2.089.815,1.818,2.073a2.52,2.52,0,0,1-2.724,2.121Z" transform="translate(-1442.737 -2162.018)"/></g><g transform="translate(32.079 22.9)"><path class="b" d="M1475.828,2162.015l-9.779,16.925h4.316l1.657-2.99h6.315l.367,2.99h4.362l-2.467-16.925Zm-2.033,10.753,3.412-6.2.757,6.2Z" transform="translate(-1466.049 -2162.015)"/></g><g transform="translate(52.984 22.902)"><path class="b" d="M1499.4,2165.322h4.487l-2.943,13.624h4.123l2.942-13.624h4.488l.713-3.3h-13.1Z" transform="translate(-1499.397 -2162.02)"/></g><g transform="translate(65.205 22.903)"><path class="b" d="M1522.55,2162.021h4.121l-3.655,16.926h-4.123Z" transform="translate(-1518.893 -2162.021)"/></g><g transform="translate(72.833 22.66)"><path class="b" d="M1537.138,2166.481a1.93,1.93,0,0,1,2.068-1.543,1.429,1.429,0,0,1,1.6,1.236h0a1.409,1.409,0,0,1-.018.467h0c0,.019-.005.038-.008.054h4.461c.528-3.23-1.559-5.063-5.248-5.063-3.544,0-6.557,1.785-7.25,4.992-1.348,6,7.483,4.316,6.805,7.45a2.168,2.168,0,0,1-2.32,1.591,1.516,1.516,0,0,1-1.711-1.774v0c.007-.05.015-.1.027-.154h-4.385c-.618,3.421,1.836,5.232,5.477,5.232,3.953,0,6.683-2.363,7.3-5.208C1545.155,2168.1,1536.5,2169.421,1537.138,2166.481Z" transform="translate(-1531.063 -2161.633)"/></g></g><g transform="translate(80.655 3.921)"><path class="b" d="M1447.751,2080.281a2.588,2.588,0,0,1,2.471,1.372l.906-4.166,2.755,0-2.588,11.906-2.754,0,.28-1.289a3.921,3.921,0,0,1-3.072,1.412c-2.206,0-3.57-1.808-2.951-4.639S1445.549,2080.278,1447.751,2080.281Zm.283,2.4a2.6,2.6,0,0,0-2.445,2.2c-.314,1.434.446,2.239,1.476,2.241a2.613,2.613,0,0,0,2.448-2.218c.313-1.433-.439-2.222-1.481-2.224Z" transform="translate(-1442.649 -2077.486)"/><g transform="translate(10.927 2.8)"><path class="b" d="M1465.187,2081.965a2.45,2.45,0,0,1,2.465,1.4l.277-1.269,2.754,0-1.953,8.977-2.754,0,.276-1.272a4,4,0,0,1-3.09,1.4c-2.187,0-3.549-1.807-2.933-4.639S1462.978,2081.961,1465.187,2081.965Zm.283,2.4a2.607,2.607,0,0,0-2.445,2.2c-.313,1.435.447,2.239,1.477,2.241a2.612,2.612,0,0,0,2.449-2.218c.313-1.433-.436-2.221-1.482-2.222Z" transform="translate(-1460.08 -2081.953)"/></g></g><g transform="translate(78.628 18.7)"><path class="b" d="M1440,2101.063h20.41l-.584,2.7h-20.408Z" transform="translate(-1439.415 -2101.063)"/></g></g><g transform="translate(1648.43 2067.262)"><g transform="translate(0 49.193)"><path class="d" d="M1904.137,2209.334c-.089-.674-6.31-5.556-7.278-5.428-.27.037-.1.332-.337.364-1.124.15,3.456,4.084,4.508,5.271C1902.777,2211.5,1904.325,2210.724,1904.137,2209.334Z" transform="translate(-1896.346 -2203.904)"/></g><g transform="translate(4.871 39.945)"><path class="d" d="M1904.442,2189.976c.092.074,1.235.815,1.358.666C1907.269,2188.873,1902.926,2188.712,1904.442,2189.976Z" transform="translate(-1904.116 -2189.15)"/></g><g transform="translate(10.79 30.615)"><path class="d" d="M1921.413,2178.65a1.036,1.036,0,0,0,.6-.144.548.548,0,0,0,.268-.471c-.062-1.477-6.918-3.828-8.429-3.765-.188.008-.3.055-.292.146C1913.575,2174.752,1919.963,2178.711,1921.413,2178.65Z" transform="translate(-1913.559 -2174.268)"/></g><g transform="translate(6.827 20.9)"><path class="d" d="M1909.74,2159.98c-.029-.715-2.564-2.014-2.5-.531C1907.271,2160.243,1909.79,2161.143,1909.74,2159.98Z" transform="translate(-1907.237 -2158.769)"/></g><g transform="translate(13.004 9.31)"><path class="d" d="M1927.357,2142.126c.548-.4.027-.649.013-1.016-.08-1.88-9.272-.089-10.128.727-.245.235-.174.9.093.889a.2.2,0,0,1,.148.145C1917.52,2142.991,1927.167,2142.264,1927.357,2142.126Z" transform="translate(-1917.092 -2140.281)"/></g><g transform="translate(10.905)"><path class="d" d="M1914.432,2127.612a5,5,0,0,0,2.045-.914c.488-.649-.582-1.5-.792-1.216a.847.847,0,0,1-.376.092C1914.5,2125.639,1912.787,2127.465,1914.432,2127.612Z" transform="translate(-1913.743 -2125.428)"/></g></g><g transform="translate(1447.967 2063.248)"><g transform="translate(0)"><path class="c" d="M1582.215,2133h8.237v-8.314a5.661,5.661,0,0,1,5.66-5.661h.4a5.661,5.661,0,0,1,5.661,5.661h0V2133h8.312a5.662,5.662,0,0,1,5.661,5.66v.4a5.661,5.661,0,0,1-5.661,5.661h-8.312v8.237a5.66,5.66,0,0,1-5.661,5.661h-.4a5.66,5.66,0,0,1-5.661-5.659h0v-8.239h-8.237a5.661,5.661,0,0,1-5.661-5.66h0v-.4a5.661,5.661,0,0,1,5.661-5.66h0Z" transform="translate(-1576.554 -2119.025)"/></g></g><g transform="translate(1451.16 2064.965)"><g transform="translate(0)"><path class="b" d="M1587.309,2135.738h8.237v-8.312a5.661,5.661,0,0,1,5.66-5.661h.4a5.66,5.66,0,0,1,5.661,5.661h0v8.313h8.312a5.661,5.661,0,0,1,5.66,5.66v.4a5.661,5.661,0,0,1-5.66,5.661h-8.313v8.237a5.66,5.66,0,0,1-5.661,5.661h-.4a5.661,5.661,0,0,1-5.661-5.661h0v-8.236h-8.237a5.66,5.66,0,0,1-5.661-5.659h0v-.4a5.661,5.661,0,0,1,5.661-5.661h0Z" transform="translate(-1581.648 -2121.764)"/></g></g><g transform="translate(1489.405 2036.717)"><g transform="translate(34.119 8.442)"><g transform="translate(0.002)"><path class="c" d="M1734.45,2090.829l-10.439,65.848-19.789,2.3,5.395-37.213c.757-5.251,1.066-8.43.914-9.51a3.318,3.318,0,0,0-2.166-2.521c-1.3-.6-4.35-.981-9.186-1.146l-2.088-.071,1.1-8.2c10.406-1.379,18.517-4.765,24.468-10.144Z" transform="translate(-1697.091 -2090.169)"/></g><g transform="translate(33.748 0.657)"><path class="c" d="M1754.535,2091.217l2.763,2.348-3.561,2.677-2.812-1.807Z" transform="translate(-1750.925 -2091.217)"/></g><g transform="translate(7.13 66.902)"><path class="c" d="M1708.462,2198.8l2.764,2.347,1.744-2.257-.54-1.865-.841-.133Z" transform="translate(-1708.462 -2196.895)"/></g><g transform="translate(0 16.627)"><path class="c" d="M1697.088,2118.416l2.764,2.348,1.546-1.664-.561-2.267-.867-.138Z" transform="translate(-1697.088 -2116.694)"/></g></g><g transform="translate(0 0.579)"><path class="c" d="M1659.72,2086.218l-5.372,1.17-1.018-1.092.33-1.988a3.8,3.8,0,0,0,.05-1.769.74.74,0,0,0-.752-.371,1.268,1.268,0,0,0-1.025.526,3.473,3.473,0,0,0-.579,1.562,4.224,4.224,0,0,0,.022,2.018,4.021,4.021,0,0,0,1.672,1.615q4.143,2.709,5.049,4.467t.266,5.7a11.38,11.38,0,0,1-1.35,4.234,6.711,6.711,0,0,1-2.941,2.309,11.218,11.218,0,0,1-4.59.969,8.8,8.8,0,0,1-4.57-1.007,4.033,4.033,0,0,1-2.126-2.669,13.533,13.533,0,0,1,.169-4.647l.294-1.755,6.415-.076,1.018,1.091-1.558,2.173a4.161,4.161,0,0,0-.049,1.935.869.869,0,0,0,.89.42,1.367,1.367,0,0,0,1.116-.559,3.615,3.615,0,0,0,.6-1.63q.39-2.369-.13-3.092a15.785,15.785,0,0,0-2.827-2.4,24.466,24.466,0,0,1-2.992-2.46,4.667,4.667,0,0,1-1.024-2.136,9.187,9.187,0,0,1,.043-3.5,11.25,11.25,0,0,1,1.537-4.514,6.809,6.809,0,0,1,2.884-2.257,10.921,10.921,0,0,1,4.311-.856,9.7,9.7,0,0,1,4.412.82,3.727,3.727,0,0,1,2.131,2.18,11.487,11.487,0,0,1-.132,4.524Z" transform="translate(-1642.659 -2077.625)"/></g><g transform="translate(15.343)"><path class="c" d="M1684.456,2076.7l1.456,1.452-13.745,26.516-4.012,1.149-1.019-1.091,12.386-27.963Z" transform="translate(-1667.136 -2076.701)"/></g><g transform="translate(72.376 10.066)"><path class="c" d="M1799.018,2115.37l-3.122,21.318a55.1,55.1,0,0,1-2.319,10.593,18.017,18.017,0,0,1-4.122,6.24,17.21,17.21,0,0,1-6.507,4.218,24.152,24.152,0,0,1-7.917,1.358,26.476,26.476,0,0,1-9.171-1.21,10.253,10.253,0,0,1-5.333-4.05,14.776,14.776,0,0,1-2.262-5.861q-.466-3.085.551-9.833l3.373-22.287q1.337-8.794,3.491-13.192a16.4,16.4,0,0,1,6.97-7.1,22.944,22.944,0,0,1,11.1-2.789,20.007,20.007,0,0,1,8.894,1.708,12.162,12.162,0,0,1,5.383,4.4,12.76,12.76,0,0,1,1.837,5.92A55.485,55.485,0,0,1,1799.018,2115.37Zm-14.8-5.16q.76-5.091.469-6.365t-2.064-1.254a2.683,2.683,0,0,0-2.5,1.391q-.764,1.369-1.5,6.3l-4.653,31.173q-.824,5.565-.472,6.7t2.1,1.116a2.647,2.647,0,0,0,2.488-1.371,22,22,0,0,0,1.435-6.044Z" transform="translate(-1758.118 -2092.759)"/></g><g transform="translate(1.977 1.671)"><path class="b" d="M1662.873,2087.958l-6.39.08.33-1.988a3.8,3.8,0,0,0,.049-1.769.74.74,0,0,0-.752-.371,1.268,1.268,0,0,0-1.025.526,3.482,3.482,0,0,0-.579,1.562,4.215,4.215,0,0,0,.022,2.018,4.016,4.016,0,0,0,1.674,1.616q4.143,2.707,5.049,4.467t.265,5.7a11.393,11.393,0,0,1-1.35,4.235,6.7,6.7,0,0,1-2.941,2.308,11.217,11.217,0,0,1-4.589.97,8.815,8.815,0,0,1-4.572-1.007,4.034,4.034,0,0,1-2.126-2.669,13.478,13.478,0,0,1,.169-4.647l.294-1.756,6.413-.075-.54,3.264a4.167,4.167,0,0,0-.048,1.936.869.869,0,0,0,.89.42,1.365,1.365,0,0,0,1.116-.56,3.606,3.606,0,0,0,.6-1.63q.389-2.369-.13-3.091a15.7,15.7,0,0,0-2.827-2.4,24.427,24.427,0,0,1-2.991-2.461,4.67,4.67,0,0,1-1.022-2.135,9.17,9.17,0,0,1,.043-3.5,11.261,11.261,0,0,1,1.536-4.513,6.815,6.815,0,0,1,2.884-2.257,10.917,10.917,0,0,1,4.311-.856,9.691,9.691,0,0,1,4.411.821,3.729,3.729,0,0,1,2.131,2.179,11.479,11.479,0,0,1-.132,4.524Z" transform="translate(-1645.813 -2079.367)"/></g><g transform="translate(16.804 1.45)"><path class="b" d="M1686.779,2079.014l-12.286,27.971-5.027.057,12.387-27.963Z" transform="translate(-1669.466 -2079.014)"/></g><g transform="translate(74.797 12.658)"><path class="b" d="M1802.88,2119.5l-3.122,21.317a54.892,54.892,0,0,1-2.32,10.594,18.009,18.009,0,0,1-4.122,6.239,17.2,17.2,0,0,1-6.507,4.219,24.178,24.178,0,0,1-7.917,1.358,26.484,26.484,0,0,1-9.171-1.21,10.253,10.253,0,0,1-5.332-4.052,14.761,14.761,0,0,1-2.262-5.86q-.466-3.085.55-9.832l3.374-22.287q1.338-8.795,3.49-13.194a16.391,16.391,0,0,1,6.97-7.1,22.942,22.942,0,0,1,11.095-2.788,20.005,20.005,0,0,1,8.895,1.708,12.154,12.154,0,0,1,5.384,4.4,12.757,12.757,0,0,1,1.837,5.922A55.669,55.669,0,0,1,1802.88,2119.5Zm-14.8-5.16q.76-5.09.469-6.366t-2.064-1.253a2.682,2.682,0,0,0-2.5,1.392q-.763,1.369-1.5,6.3l-4.653,31.174q-.826,5.566-.471,6.7t2.1,1.116a2.644,2.644,0,0,0,2.488-1.371,21.971,21.971,0,0,0,1.435-6.044Z" transform="translate(-1761.98 -2096.893)"/></g><g transform="translate(114.825 8.784)"><path class="c" d="M1866.736,2113.325l-3.122,21.317a55.123,55.123,0,0,1-2.319,10.594,18.007,18.007,0,0,1-4.122,6.239,17.207,17.207,0,0,1-6.508,4.219,24.194,24.194,0,0,1-7.917,1.359,26.49,26.49,0,0,1-9.171-1.211,10.249,10.249,0,0,1-5.332-4.051,14.777,14.777,0,0,1-2.262-5.861q-.467-3.085.551-9.832l3.373-22.287q1.337-8.8,3.491-13.194a16.4,16.4,0,0,1,6.97-7.1,22.942,22.942,0,0,1,11.1-2.789,20,20,0,0,1,8.894,1.709,12.138,12.138,0,0,1,5.383,4.4,12.772,12.772,0,0,1,1.838,5.92A55.686,55.686,0,0,1,1866.736,2113.325Zm-14.8-5.16q.762-5.089.469-6.365t-2.064-1.254a2.685,2.685,0,0,0-2.5,1.392q-.763,1.369-1.5,6.3l-4.653,31.173q-.824,5.567-.472,6.7t2.1,1.116a2.645,2.645,0,0,0,2.488-1.372,22.073,22.073,0,0,0,1.434-6.043Z" transform="translate(-1825.835 -2090.714)"/></g><g transform="translate(117.249 11.376)"><path class="b" d="M1870.6,2117.461l-3.121,21.317a55,55,0,0,1-2.32,10.594,17.972,17.972,0,0,1-4.122,6.239,17.2,17.2,0,0,1-6.5,4.219,24.2,24.2,0,0,1-7.917,1.358,26.508,26.508,0,0,1-9.172-1.211,10.254,10.254,0,0,1-5.333-4.051,14.764,14.764,0,0,1-2.262-5.86q-.467-3.085.552-9.833l3.373-22.288q1.336-8.794,3.49-13.194a16.394,16.394,0,0,1,6.969-7.1,22.942,22.942,0,0,1,11.1-2.788,19.988,19.988,0,0,1,8.894,1.708,12.143,12.143,0,0,1,5.383,4.4,12.765,12.765,0,0,1,1.837,5.921A55.978,55.978,0,0,1,1870.6,2117.461Zm-14.805-5.16q.761-5.089.469-6.366t-2.065-1.254a2.685,2.685,0,0,0-2.5,1.392q-.762,1.369-1.5,6.3l-4.653,31.173q-.824,5.565-.472,6.7t2.1,1.116a2.645,2.645,0,0,0,2.488-1.371,22,22,0,0,0,1.434-6.044Z" transform="translate(-1829.702 -2094.848)"/></g><g transform="translate(36.797 11.305)"><path class="b" d="M1738.724,2095.394l-10.649,67.149-19.558.475,5.368-36.687c.757-5.25,1.066-8.43.914-9.511a3.313,3.313,0,0,0-2.166-2.52c-1.3-.6-4.351-.983-9.185-1.147l-2.088-.071,1.1-8.2c10.406-1.379,18.518-4.764,24.468-10.144Z" transform="translate(-1701.361 -2094.735)"/></g></g><g transform="translate(1554.618 2017.329)"><g transform="translate(0 0)"><path class="b" d="M1819.825,2065.048h-65.11c-4.425,0-8.023-4.325-8.023-9.638s3.6-9.638,8.023-9.638h65.11c4.425,0,8.024,4.325,8.024,9.638S1824.25,2065.048,1819.825,2065.048Zm-65.11-18.338c-3.994,0-7.243,3.9-7.243,8.7s3.249,8.7,7.243,8.7h65.11c3.995,0,7.244-3.9,7.244-8.7s-3.25-8.7-7.244-8.7Z" transform="translate(-1746.691 -2045.772)"/></g></g><g transform="translate(1561.08 2022.171)"><g transform="translate(0 0.042)"><path class="b" d="M1758.356,2062.321c-.254,0-.42-.217-.458-.541l-.9-7.506c.048-.4.3-.709.575-.709h.828c.215,0,.407.262.431.555l.575,4.827,1.894-4.827c.12-.293.384-.555.6-.555h.827c.276,0,.431.308.384.709l-2.96,7.506a.731.731,0,0,1-.6.541Z" transform="translate(-1757 -2053.564)"/></g><g transform="translate(4.97 0.041)"><path class="b" d="M1770.05,2062.4c-.707,0-.8-.678-.878-1.187l-.108-.74H1767.3l-.527,1.279c-.107.309-.335.572-.575.572h-.865c-.275,0-.458-.262-.4-.633l3.068-7.584a.761.761,0,0,1,.6-.541h1.007c.227,0,.4.216.443.541l.815,6.072c.036.2.048.37.084.385a.606.606,0,0,1,.2.556l-.073.508A.968.968,0,0,1,1770.05,2062.4Zm-1.977-3.886h.731l-.168-1.4Z" transform="translate(-1764.928 -2053.563)"/></g><g transform="translate(12.151 0.044)"><path class="b" d="M1776.793,2062.322c-.288,0-.458-.261-.4-.632l1.017-7.492a.658.658,0,0,1,.576-.631h.78c.276,0,.458.263.4.631l-.827,6.043h2.242c.276,0,.454.262.407.616l-.107.832a.669.669,0,0,1-.575.632Z" transform="translate(-1776.384 -2053.567)"/></g><g transform="translate(17.783 0.044)"><path class="b" d="M1785.776,2062.322c-.288,0-.458-.261-.395-.632l1.017-7.492a.658.658,0,0,1,.575-.631h3.68c.288,0,.443.263.383.631l-.107.848a.636.636,0,0,1-.564.617h-2.41l-.18,1.249h1.714c.276,0,.431.278.383.631l-.107.833a.662.662,0,0,1-.564.632h-1.714l-.168,1.233h2.41c.287,0,.443.262.4.616l-.109.832c-.059.371-.275.632-.564.632Z" transform="translate(-1785.368 -2053.567)"/></g><g transform="translate(29.07 0.001)"><path class="b" d="M1804.73,2062.255c-.25,0-.419-.216-.457-.541l-.9-7.506c.047-.4.3-.709.575-.709h.828c.215,0,.407.262.431.554l.576,4.827,1.894-4.827c.12-.292.383-.554.6-.554h.827c.276,0,.431.308.383.709l-2.96,7.506a.729.729,0,0,1-.6.541Z" transform="translate(-1803.374 -2053.499)"/></g><g transform="translate(35.242 0.001)"><path class="b" d="M1814.984,2061.621a.669.669,0,0,1-.576.633h-.792c-.275,0-.443-.262-.383-.633l1.017-7.491a.659.659,0,0,1,.564-.631h.791c.276,0,.458.262.395.631Z" transform="translate(-1813.221 -2053.499)"/></g><g transform="translate(38.506 0.003)"><path class="b" d="M1822.079,2053.5c1.654,0,2.361.924,2.074,3.037a3.62,3.62,0,0,1-1.066,2.419,12.662,12.662,0,0,0,.276,1.542.564.564,0,0,1,.168.555l-.072.508a.952.952,0,0,1-1.017.772c-.648,0-.752-.524-.851-1.1l-.276-1.692h-.839l-.287,2.081c-.063.37-.276.632-.576.632h-.767c-.276,0-.468-.262-.407-.632l1.017-7.491a.677.677,0,0,1,.587-.632Zm.324,3.037c.072-.571-.132-.941-.5-.941h-.886l-.264,1.865h.887c.384,0,.683-.338.767-.924Z" transform="translate(-1818.428 -2053.502)"/></g><g transform="translate(45.347 0.003)"><path class="b" d="M1834.143,2053.5c.276,0,.431.262.372.631l-.108.848a.632.632,0,0,1-.552.616h-1.186l-.827,6.026a.669.669,0,0,1-.575.633h-.791c-.277,0-.443-.261-.384-.633l.828-6.026h-1.186c-.276,0-.431-.262-.384-.616l.108-.848a.657.657,0,0,1,.564-.631Z" transform="translate(-1829.341 -2053.502)"/></g><g transform="translate(50.979 0.003)"><path class="b" d="M1838.441,2058.327l.575-4.193a.679.679,0,0,1,.588-.631h.779c.276,0,.444.262.383.631l-.587,4.3c-.228,1.693.313,1.818.719,1.818s.995-.125,1.221-1.818l.587-4.3a.668.668,0,0,1,.575-.631h.779c.275,0,.458.262.4.631l-.575,4.193c-.467,3.453-1.593,4.008-3.26,4.008S1837.974,2061.779,1838.441,2058.327Z" transform="translate(-1838.325 -2053.502)"/></g><g transform="translate(56.986)"><path class="b" d="M1853.03,2062.333c-.706,0-.8-.679-.878-1.188l-.108-.74h-1.761l-.527,1.28c-.107.308-.336.571-.575.571h-.864c-.276,0-.458-.262-.4-.633l3.072-7.585a.76.76,0,0,1,.6-.541h1.007c.227,0,.4.217.443.541l.815,6.073c.036.2.047.371.084.385a.6.6,0,0,1,.2.555l-.072.507A.972.972,0,0,1,1853.03,2062.333Zm-1.978-3.887h.732l-.168-1.4Z" transform="translate(-1847.908 -2053.497)"/></g><g transform="translate(64.167 0.003)"><path class="b" d="M1859.771,2062.257c-.288,0-.457-.261-.4-.633l1.016-7.491a.659.659,0,0,1,.576-.631h.779c.276,0,.458.262.4.631l-.827,6.042h2.241c.276,0,.458.262.407.618l-.107.831a.668.668,0,0,1-.575.633Z" transform="translate(-1859.363 -2053.502)"/></g></g><g transform="translate(1531.23 2127.986)"><g transform="translate(0 1.302)"><path class="b" d="M1711.139,2233.036a.577.577,0,0,1-.591-.533l-1.166-7.425a.8.8,0,0,1,.746-.7h1.073a.611.611,0,0,1,.564.55l.747,4.773,2.458-4.773a1.036,1.036,0,0,1,.778-.55h1.073c.357,0,.561.305.5.7l-3.841,7.425a.908.908,0,0,1-.778.533Z" transform="translate(-1709.382 -2224.376)"/></g><g transform="translate(5.85 0)"><path class="b" d="M1724.9,2226.969l-.854,4.7a.7.7,0,0,1-.7.595h-.728c-.28,0-.481-.062-.564-.29l-.046-.125a2.521,2.521,0,0,1-1.416.487c-1.755,0-2.069-1.449-1.789-3a3.842,3.842,0,0,1,3.858-3.34,5.647,5.647,0,0,1,1.943.366A.538.538,0,0,1,1724.9,2226.969Zm-2.472,1.113a1.421,1.421,0,0,0-1.338,1.251c-.14.808.169.945.5.945a1.166,1.166,0,0,0,.483-.183Zm.684-5.551a.96.96,0,0,1,.576-.229.464.464,0,0,1,.42.167l.483.687a.6.6,0,0,1,.125.5.846.846,0,0,1-.436.518l-1.555,1.083a1.224,1.224,0,0,1-.59.183.607.607,0,0,1-.449-.245l-.218-.274a.625.625,0,0,1-.169-.52,1.3,1.3,0,0,1,.156-.334Z" transform="translate(-1718.714 -2222.299)"/></g><g transform="translate(12.096 1.298)"><path class="b" d="M1729.91,2224.981a.741.741,0,0,1,.716-.609h1.042a.493.493,0,0,1,.529.453.48.48,0,0,1-.015.156l-1.1,6.07c-.031.183,0,.275.046.29a.479.479,0,0,1,.233.535l-.093.487a.734.734,0,0,1-.607.6,3.17,3.17,0,0,1-.871.152c-1.244,0-1.15-1.083-1.058-1.617Z" transform="translate(-1728.679 -2224.37)"/></g><g transform="translate(15.236 1.101)"><path class="b" d="M1735.979,2232.307a.757.757,0,0,1-.729.609h-1.042a.479.479,0,0,1-.519-.432.466.466,0,0,1,.02-.177l.888-4.956a.728.728,0,0,1,.715-.61h1.043a.493.493,0,0,1,.529.454.471.471,0,0,1-.015.155Zm.342-8.249a.958.958,0,0,1,1.008.9.914.914,0,0,1-.028.273,1.448,1.448,0,0,1-1.4,1.174.961.961,0,0,1-1-1.173,1.483,1.483,0,0,1,1.418-1.176Z" transform="translate(-1733.687 -2224.056)"/></g><g transform="translate(18.484 1.297)"><path class="b" d="M1744.385,2232.163a.833.833,0,0,1-.529.61,7.929,7.929,0,0,1-2.319.335c-2.115,0-2.956-1.264-2.58-3.278a3.4,3.4,0,0,1,3.374-3.065,2.592,2.592,0,0,1,.73.091l.342-1.891a.715.715,0,0,1,.715-.595h1.058a.473.473,0,0,1,.515.424.467.467,0,0,1-.018.171Zm-2.536-1.113c.063,0,.313-.016.467-.031l.376-2.105a1.021,1.021,0,0,0-.376-.076c-.5,0-.9.244-1.026.99C1741.134,2230.639,1741.258,2231.05,1741.849,2231.05Z" transform="translate(-1738.87 -2224.368)"/></g><g transform="translate(24.879 3.695)"><path class="b" d="M1749.156,2231.3a3.446,3.446,0,0,1,3.64-3.111c2.116,0,2.86,1.236,2.519,3.111a3.471,3.471,0,0,1-3.655,3.232C1749.545,2234.537,1748.8,2233.316,1749.156,2231.3Zm3.886.015c.077-.439.031-1.052-.622-1.052s-.918.61-1,1.052c-.078.458-.14,1.159.59,1.159S1752.964,2231.777,1753.042,2231.319Z" transform="translate(-1749.07 -2228.193)"/></g><g transform="translate(33.218 3.693)"><path class="b" d="M1763.779,2229.137a.949.949,0,0,1,.622-.656,8.587,8.587,0,0,1,2.224-.29c2.115,0,2.94,1.265,2.58,3.279a3.4,3.4,0,0,1-3.717,3.065h-.4l-.42,2.3a.729.729,0,0,1-.715.61h-1.058a.484.484,0,0,1-.516-.447.463.463,0,0,1,.018-.163Zm1.664,3.34h.3a1.146,1.146,0,0,0,1.2-1c.14-.808-.046-1.205-.637-1.205a2.851,2.851,0,0,0-.449.031Z" transform="translate(-1762.374 -2228.191)"/></g><g transform="translate(40.165 3.691)"><path class="b" d="M1779.641,2229.165l-.856,4.7a.7.7,0,0,1-.7.595h-.73c-.28,0-.481-.062-.56-.29l-.047-.125a2.514,2.514,0,0,1-1.415.488c-1.755,0-2.069-1.448-1.789-3a3.842,3.842,0,0,1,3.857-3.34,5.653,5.653,0,0,1,1.943.366A.538.538,0,0,1,1779.641,2229.165Zm-2.472,1.114a1.421,1.421,0,0,0-1.338,1.25c-.14.809.168.945.5.945a1.15,1.15,0,0,0,.483-.183Z" transform="translate(-1773.455 -2228.187)"/></g><g transform="translate(46.272 3.684)"><path class="b" d="M1788.535,2228.688a.594.594,0,0,1,.2.55.525.525,0,0,1-.093.214l-.42.7a.788.788,0,0,1-.621.381.467.467,0,0,1-.251-.077,1.91,1.91,0,0,0-.746-.2.922.922,0,0,0-.5.138l-.622,3.461a.7.7,0,0,1-.7.595h-1.055a.476.476,0,0,1-.513-.595l.809-4.483a.825.825,0,0,1,.42-.564,4.25,4.25,0,0,1,2.473-.627A2.213,2.213,0,0,1,1788.535,2228.688Z" transform="translate(-1783.199 -2228.175)"/></g><g transform="translate(50.929 3.691)"><path class="b" d="M1796.813,2229.165l-.855,4.7a.7.7,0,0,1-.7.595h-.73c-.28,0-.482-.062-.56-.29l-.046-.125a2.516,2.516,0,0,1-1.416.488c-1.755,0-2.069-1.448-1.789-3a3.841,3.841,0,0,1,3.857-3.34,5.655,5.655,0,0,1,1.943.366A.539.539,0,0,1,1796.813,2229.165Zm-2.473,1.114a1.419,1.419,0,0,0-1.338,1.25c-.14.809.168.945.5.945a1.149,1.149,0,0,0,.482-.183Z" transform="translate(-1790.628 -2228.187)"/></g><g transform="translate(59.744 3.685)"><path class="b" d="M1810.755,2229.391c-.016.091-.031.122-.5.824a.688.688,0,0,1-.622.351.905.905,0,0,1-.313-.107,2.219,2.219,0,0,0-1.058-.2,1.223,1.223,0,0,0-1.229,1.083c-.14.793.313,1.129.824,1.129a2.275,2.275,0,0,0,1.167-.229.737.737,0,0,1,.327-.076.532.532,0,0,1,.482.35,7.488,7.488,0,0,1,.218.793.947.947,0,0,1-.448.61,4.06,4.06,0,0,1-2.225.61c-2.084,0-2.973-1.174-2.614-3.189a3.541,3.541,0,0,1,3.749-3.157,2.976,2.976,0,0,1,2.006.627A.6.6,0,0,1,1810.755,2229.391Z" transform="translate(-1804.689 -2228.178)"/></g><g transform="translate(65.584 3.695)"><path class="b" d="M1814.092,2231.3a3.447,3.447,0,0,1,3.64-3.111c2.115,0,2.86,1.236,2.52,3.111a3.471,3.471,0,0,1-3.655,3.232C1814.481,2234.537,1813.734,2233.316,1814.092,2231.3Zm3.886.015c.078-.439.032-1.052-.622-1.052s-.917.61-1,1.052c-.077.458-.14,1.159.591,1.159s.952-.7,1.027-1.159Z" transform="translate(-1814.006 -2228.193)"/></g><g transform="translate(71.905 3.682)"><path class="b" d="M1824.962,2229.131a.9.9,0,0,1,.622-.656,5.391,5.391,0,0,1,1.913-.29,2.45,2.45,0,0,1,1.773.534,3.012,3.012,0,0,1,1.6-.519c1.8,0,1.88,1.2,1.586,2.8l-.513,2.852a.711.711,0,0,1-.7.595h-1.058a.482.482,0,0,1-.527-.43.462.462,0,0,1,.014-.165l.513-2.791c.141-.777.047-.808-.218-.808a1.288,1.288,0,0,0-.251.015c-.031.244-.093.564-.14.885l-.5,2.7a.7.7,0,0,1-.7.595h-.871a.484.484,0,0,1-.526-.432.46.46,0,0,1,.014-.163l.483-2.684c.141-.777.171-.915-.233-.915a1.523,1.523,0,0,0-.233.046l-.638,3.552a.7.7,0,0,1-.7.595h-1.058a.482.482,0,0,1-.527-.43.463.463,0,0,1,.014-.165Z" transform="translate(-1824.089 -2228.174)"/></g><g transform="translate(79.849 3.693)"><path class="b" d="M1838.168,2229.137a.953.953,0,0,1,.622-.656,8.584,8.584,0,0,1,2.224-.29c2.116,0,2.939,1.265,2.58,3.279a3.4,3.4,0,0,1-3.717,3.065h-.4l-.421,2.3a.728.728,0,0,1-.715.61h-1.058a.477.477,0,0,1-.515-.434.458.458,0,0,1,.018-.176Zm1.665,3.34h.295a1.148,1.148,0,0,0,1.2-1c.14-.808-.047-1.205-.639-1.205a2.844,2.844,0,0,0-.448.031Z" transform="translate(-1836.762 -2228.191)"/></g><g transform="translate(86.712 3.684)"><path class="b" d="M1853.048,2228.688a.594.594,0,0,1,.2.55.532.532,0,0,1-.092.214l-.421.7a.789.789,0,0,1-.622.381.468.468,0,0,1-.251-.077,1.908,1.908,0,0,0-.746-.2.924.924,0,0,0-.5.138l-.623,3.461a.7.7,0,0,1-.7.595h-1.058a.475.475,0,0,1-.513-.595l.808-4.483a.828.828,0,0,1,.421-.564,4.245,4.245,0,0,1,2.473-.627A2.214,2.214,0,0,1,1853.048,2228.688Z" transform="translate(-1847.71 -2228.175)"/></g><g transform="translate(91.367 3.691)"><path class="b" d="M1861.325,2229.165l-.855,4.7a.7.7,0,0,1-.7.595h-.729c-.281,0-.482-.062-.564-.29l-.046-.125a2.516,2.516,0,0,1-1.416.488c-1.755,0-2.069-1.448-1.788-3a3.84,3.84,0,0,1,3.858-3.34,5.655,5.655,0,0,1,1.943.366A.54.54,0,0,1,1861.325,2229.165Zm-2.472,1.114a1.419,1.419,0,0,0-1.338,1.25c-.14.809.171.945.5.945a1.149,1.149,0,0,0,.482-.183Z" transform="translate(-1855.136 -2228.187)"/></g><g transform="translate(97.41 3.694)"><path class="b" d="M1867.3,2232.615c.169,0,.622,0,.653-.153.063-.366-3.048-.26-2.706-2.226.2-1.082,1.088-2.043,3.11-2.043a13.631,13.631,0,0,1,1.493.183.545.545,0,0,1,.5.585v.025l-.031.122a3.317,3.317,0,0,1-.2.687c-.14.366-.313.487-.575.487-.513-.031-.793-.076-1.1-.076-.561,0-.9,0-.917.092-.078.366,3.033.32,2.706,2.131-.234,1.327-1.446,2.105-3.234,2.105a5.929,5.929,0,0,1-1.867-.351.578.578,0,0,1-.342-.641,3.473,3.473,0,0,1,.376-.792.7.7,0,0,1,.653-.366.874.874,0,0,1,.217.031A5.515,5.515,0,0,0,1867.3,2232.615Z" transform="translate(-1864.776 -2228.192)"/></g><g transform="translate(37.729 19.422)"><path class="b" d="M1772.329,2257.215a6.573,6.573,0,0,1-.778-.046c.188.443.684.473,1.088.473a3.14,3.14,0,0,0,1.509-.32.387.387,0,0,1,.521.15.381.381,0,0,1,.04.108l.188.627a.616.616,0,0,1,.015.229.962.962,0,0,1-.42.58,3.867,3.867,0,0,1-2.333.61c-2.1,0-2.861-1.221-2.5-3.233a3.373,3.373,0,0,1,3.562-3.111c1.679,0,2.5.869,2.286,2.059C1775.236,2256.82,1773.759,2257.215,1772.329,2257.215Zm-.265-1.662c.063.153.358.258.653.258.233,0,.449-.076.483-.319.046-.214-.251-.258-.467-.258a.92.92,0,0,0-.669.318Z" transform="translate(-1769.57 -2253.282)"/></g><g transform="translate(43.586 19.419)"><path class="b" d="M1779.781,2254.225a.894.894,0,0,1,.621-.656,7.287,7.287,0,0,1,2.225-.29c2.1,0,2.737.931,2.382,2.975l-.5,2.695a.706.706,0,0,1-.716.6h-1.042a.483.483,0,0,1-.527-.43.478.478,0,0,1,.014-.166l.481-2.683c.141-.778.125-.916-.42-.916a2.68,2.68,0,0,0-.449.031l-.654,3.568a.715.715,0,0,1-.716.6h-1.041a.481.481,0,0,1-.527-.429.459.459,0,0,1,.014-.166Z" transform="translate(-1778.913 -2253.277)"/></g><g transform="translate(52.362 17.027)"><path class="b" d="M1797.495,2249.462c2.146,0,3.11.914,2.738,3s-1.665,2.974-3.811,2.974h-.841l-.376,2.058a.76.76,0,0,1-.747.627h-1a.5.5,0,0,1-.547-.442.48.48,0,0,1,.018-.183l1.322-7.411a.776.776,0,0,1,.761-.627Zm.466,2.99c.109-.564-.155-.916-.653-.916h-1.026l-.342,1.845h1.027a1.022,1.022,0,0,0,.995-.929Z" transform="translate(-1792.913 -2249.461)"/></g><g transform="translate(59.213 17.026)"><path class="b" d="M1805.073,2250.071a.739.739,0,0,1,.716-.61h1.042a.491.491,0,0,1,.528.452h0a.471.471,0,0,1-.015.157l-1.1,6.069c-.031.183,0,.275.046.29a.481.481,0,0,1,.234.534l-.094.487a.734.734,0,0,1-.606.6,3.19,3.19,0,0,1-.871.153c-1.244,0-1.151-1.083-1.057-1.617Z" transform="translate(-1803.842 -2249.46)"/></g><g transform="translate(62.283 19.418)"><path class="b" d="M1814.926,2254.255l-.856,4.7a.7.7,0,0,1-.7.6h-.73c-.28,0-.482-.063-.56-.29l-.047-.125a2.523,2.523,0,0,1-1.415.489c-1.756,0-2.069-1.449-1.789-3a3.841,3.841,0,0,1,3.858-3.34,5.642,5.642,0,0,1,1.943.367A.539.539,0,0,1,1814.926,2254.255Zm-2.473,1.114a1.422,1.422,0,0,0-1.338,1.251c-.14.808.171.945.5.945a1.165,1.165,0,0,0,.483-.183Z" transform="translate(-1808.74 -2253.276)"/></g><g transform="translate(68.397 19.419)"><path class="b" d="M1819.359,2254.225a.9.9,0,0,1,.622-.656,7.286,7.286,0,0,1,2.225-.29c2.1,0,2.738.931,2.382,2.975l-.5,2.695a.7.7,0,0,1-.715.6h-1.043a.483.483,0,0,1-.527-.43.453.453,0,0,1,.014-.166l.482-2.683c.14-.778.125-.916-.42-.916a2.685,2.685,0,0,0-.449.031l-.654,3.568a.715.715,0,0,1-.716.6h-1.041a.477.477,0,0,1-.514-.6Z" transform="translate(-1818.493 -2253.277)"/></g><g transform="translate(77.18 17.025)"><path class="b" d="M1836.859,2249.461c2.147,0,3.127.594,2.738,2.714a1.881,1.881,0,0,1-.887,1.464,1.714,1.714,0,0,1,.7,1.785c-.39,2.1-1.57,2.7-3.717,2.7h-2.645a.526.526,0,0,1-.543-.508.5.5,0,0,1,.014-.133l1.323-7.4a.787.787,0,0,1,.762-.627Zm.281,5.947c.094-.487-.342-.564-.856-.564h-1.027l-.217,1.219h1.026c.514,0,.979-.106,1.073-.656Zm-1.276-3.872-.218,1.219h.638c.5,0,.949-.062,1.058-.64.093-.518-.342-.579-.841-.579Z" transform="translate(-1832.505 -2249.458)"/></g><g transform="translate(84.3 17.026)"><path class="b" d="M1845.095,2250.071a.741.741,0,0,1,.716-.61h1.042a.493.493,0,0,1,.529.453.471.471,0,0,1-.015.156l-1.1,6.069c-.031.183,0,.275.047.29a.481.481,0,0,1,.233.534l-.093.487a.734.734,0,0,1-.607.6,3.18,3.18,0,0,1-.871.153c-1.245,0-1.151-1.083-1.058-1.617Z" transform="translate(-1843.864 -2249.46)"/></g><g transform="translate(87.368 19.418)"><path class="b" d="M1854.946,2254.255l-.855,4.7a.7.7,0,0,1-.7.6h-.729c-.281,0-.482-.063-.564-.29l-.046-.125a2.523,2.523,0,0,1-1.415.489c-1.755,0-2.069-1.449-1.789-3a3.843,3.843,0,0,1,3.858-3.34,5.642,5.642,0,0,1,1.943.367A.538.538,0,0,1,1854.946,2254.255Zm-2.472,1.114a1.42,1.42,0,0,0-1.337,1.251c-.14.808.169.945.5.945a1.157,1.157,0,0,0,.482-.183Z" transform="translate(-1848.758 -2253.276)"/></g><g transform="translate(93.638 19.412)"><path class="b" d="M1864.823,2254.481c-.016.091-.031.122-.5.825a.689.689,0,0,1-.623.351.925.925,0,0,1-.31-.106,2.226,2.226,0,0,0-1.058-.2,1.221,1.221,0,0,0-1.229,1.083c-.14.792.31,1.129.824,1.129a2.279,2.279,0,0,0,1.166-.229.73.73,0,0,1,.327-.077.535.535,0,0,1,.482.352,7.9,7.9,0,0,1,.218.792.959.959,0,0,1-.449.61,4.067,4.067,0,0,1-2.225.61c-2.084,0-2.973-1.174-2.613-3.19a3.538,3.538,0,0,1,3.749-3.157,2.969,2.969,0,0,1,2.006.627A.6.6,0,0,1,1864.823,2254.481Z" transform="translate(-1858.76 -2253.267)"/></g><g transform="translate(99.391 17.027)"><path class="b" d="M1871.064,2256.861a2.916,2.916,0,0,0-.358-.838l-.218.076-.264,1.433a.7.7,0,0,1-.7.595h-1.058a.482.482,0,0,1-.526-.43.449.449,0,0,1,.014-.165l1.353-7.472a.716.716,0,0,1,.715-.6h1.058a.474.474,0,0,1,.515.425.468.468,0,0,1-.018.17l-.668,3.676a2.974,2.974,0,0,0,1.275-1.235.753.753,0,0,1,.715-.551h1.042a.5.5,0,0,1,.517.473.467.467,0,0,1-.02.153,5.007,5.007,0,0,1-1.682,2.348,4.076,4.076,0,0,1,.564,1.066l.544,1.448a.771.771,0,0,1-.716.687h-1.135a.835.835,0,0,1-.684-.5Z" transform="translate(-1867.938 -2249.462)"/></g></g><g transform="translate(1535.641 1993.806)"><g transform="translate(2.888 6.809)"><path class="e" d="M1721.028,2025.156a3.65,3.65,0,1,0,7.295.288q.005-.143,0-.288a3.852,3.852,0,0,0-1.212-2.818c-1.41,1.989-3.419-1.026-1.854-3.23C1725.258,2019.108,1721.028,2019.656,1721.028,2025.156Z" transform="translate(-1721.025 -2019.108)"/></g><g transform="translate(0 0.001)"><path class="f" d="M1716.638,2016.363a6.651,6.651,0,0,0,1.961,1.785s-.961-8.435,5.3-9.9c-1.605,6.113,2.041,7.836,3.37,4.608a5.256,5.256,0,0,1,.534,5.759c.911.136,1.677-.9,1.677-.9.007.125.011.255.011.384a6.54,6.54,0,1,1-13.072.466c-.006-.165-.005-.331,0-.5a7.052,7.052,0,0,1,.215-1.711Z" transform="translate(-1716.418 -2008.248)"/></g><g transform="translate(6.538)"><path class="f" d="M1733.374,2017.718s-.764,1.032-1.677.9a5.257,5.257,0,0,0-.534-5.76c-1.328,3.23-4.974,1.5-3.369-4.608a6.809,6.809,0,0,0-.946.293v16.346a6.662,6.662,0,0,0,6.536-6.783h0C1733.384,2017.976,1733.38,2017.847,1733.374,2017.718Z" transform="translate(-1726.848 -2008.246)"/></g><g transform="translate(2.761 5.871)"><path class="g" d="M1720.825,2023.873a3.777,3.777,0,0,0,7.55.277c0-.092,0-.184,0-.277a3.982,3.982,0,0,0-1.254-2.917c-1.46,2.058-3.54-1.066-1.919-3.344C1725.2,2017.615,1720.825,2018.182,1720.825,2023.873Z" transform="translate(-1720.822 -2017.612)"/></g><g transform="translate(4.109 9.505)"><path class="e" d="M1722.974,2027.433a2.43,2.43,0,0,0,4.856.179c0-.059,0-.117,0-.176a2.565,2.565,0,0,0-.807-1.877c-.94,1.323-2.277-.685-1.234-2.151C1725.788,2023.41,1722.974,2023.774,1722.974,2027.433Z" transform="translate(-1722.972 -2023.409)"/></g></g><g transform="translate(1310.208 1994.024)"><g transform="translate(2.888 6.803)"><path class="e" d="M1361.4,2025.5a3.649,3.649,0,1,0,7.295.253c0-.084,0-.169,0-.253a3.852,3.852,0,0,0-1.212-2.821c-1.411,1.989-3.42-1.026-1.854-3.23C1365.63,2019.453,1361.4,2020,1361.4,2025.5Z" transform="translate(-1361.399 -2019.447)"/></g><g transform="translate(0)"><path class="f" d="M1357.012,2016.709a6.648,6.648,0,0,0,1.961,1.785s-.961-8.436,5.3-9.9c-1.605,6.114,2.041,7.835,3.37,4.608a5.26,5.26,0,0,1,.535,5.76c.91.136,1.677-.9,1.677-.9.007.125.01.256.01.385a6.54,6.54,0,1,1-13.072.464c-.005-.165,0-.33,0-.495a7.02,7.02,0,0,1,.215-1.709Z" transform="translate(-1356.792 -2008.594)"/></g><g transform="translate(6.538)"><path class="f" d="M1373.746,2018.066s-.764,1.032-1.677.9a5.258,5.258,0,0,0-.534-5.76c-1.328,3.23-4.974,1.5-3.368-4.608a6.966,6.966,0,0,0-.946.293v16.346a6.661,6.661,0,0,0,6.535-6.782h0C1373.754,2018.323,1373.754,2018.193,1373.746,2018.066Z" transform="translate(-1367.221 -2008.594)"/></g><g transform="translate(2.759 5.87)"><path class="g" d="M1361.2,2024.22a3.778,3.778,0,1,0,7.551.292q.006-.146,0-.292a3.988,3.988,0,0,0-1.254-2.917c-1.46,2.059-3.539-1.065-1.918-3.344C1365.574,2017.961,1361.2,2018.529,1361.2,2024.22Z" transform="translate(-1361.193 -2017.959)"/></g><g transform="translate(4.105 9.504)"><path class="e" d="M1363.342,2027.78a2.43,2.43,0,0,0,4.856.177q0-.087,0-.174a2.562,2.562,0,0,0-.807-1.877c-.94,1.323-2.277-.684-1.234-2.151C1366.159,2023.756,1363.342,2024.12,1363.342,2027.78Z" transform="translate(-1363.341 -2023.755)"/></g></g><g transform="translate(1264.606 2005.909)"><g transform="translate(0 0)"><path class="d" d="M1531.179,2186.414h-34.044v-1.467h34.044c3.165,0,5.739-2.222,5.739-4.953v-5.735c0-2.844-2.679-5.159-5.974-5.159H1308.314c-13.382,0-24.269-9.514-24.269-21.209v-99.129c0-11.695,10.886-21.209,24.269-21.209h14.62v1.467h-14.62c-12.518,0-22.7,8.856-22.7,19.742v99.129c0,10.886,10.184,19.743,22.7,19.743h222.631c4.158,0,7.54,2.972,7.54,6.625v5.735C1538.485,2183.535,1535.208,2186.414,1531.179,2186.414Z" transform="translate(-1284.045 -2027.554)"/></g><g transform="translate(205.386 154.374)"><path class="d" d="M1615.608,2298.626a3.709,3.709,0,1,1,3.917-3.7A3.818,3.818,0,0,1,1615.608,2298.626Zm0-5.838a2.145,2.145,0,1,0,2.35,2.135A2.253,2.253,0,0,0,1615.608,2292.787Z" transform="translate(-1611.691 -2291.22)"/></g></g><g transform="translate(1256.918 1998.413)"><g transform="translate(0 0)"><path class="a" d="M1518.916,2173.751h-34.044v-1.46h34.044c3.164,0,5.739-2.213,5.739-4.931v-5.71c0-2.831-2.68-5.135-5.974-5.135H1296.05c-13.382,0-24.269-9.471-24.269-21.114v-98.683c0-11.642,10.887-21.113,24.269-21.113l20.628-.01v1.46l-20.629.01c-12.519,0-22.7,8.816-22.7,19.654V2135.4c0,10.837,10.184,19.654,22.7,19.654h222.631c4.159,0,7.542,2.958,7.542,6.594v5.71C1526.223,2170.884,1522.945,2173.751,1518.916,2173.751Z" transform="translate(-1271.781 -2015.596)"/></g><g transform="translate(205.387 153.669)"><path class="a" d="M1603.345,2286.685a3.709,3.709,0,1,1,3.917-3.7A3.818,3.818,0,0,1,1603.345,2286.685Zm0-5.839a2.145,2.145,0,1,0,2.349,2.136A2.253,2.253,0,0,0,1603.345,2280.846Z" transform="translate(-1599.428 -2279.279)"/></g></g><g transform="translate(1413.774 1992.826)"><g transform="translate(0 0)"><g transform="translate(22.193 2.793)"><path class="b" d="M1583.653,2013.746c-2.928,0-5,2.113-5.015,5.536a4.988,4.988,0,0,0,4.917,5.058h.114a4.775,4.775,0,0,0,3-.684v-1.73a5.8,5.8,0,0,1-2.516.505,2.814,2.814,0,0,1-3.032-2.227l-.018-.125h1.83a8.929,8.929,0,0,0,3.7-.533,1.88,1.88,0,0,0,1.1-1.881,3.919,3.919,0,0,0-3.918-3.92h0c-.053,0-.1,0-.157,0m1.191,4.486a8.325,8.325,0,0,1-2.471.23H1581.1l.007-.111.019-.348a2.332,2.332,0,0,1,2.3-2.312,2.485,2.485,0,0,1,1.5.412,1.5,1.5,0,0,1,.58,1.254.851.851,0,0,1-.66.877m4.146-.537v6.468h2.4v-6a2.653,2.653,0,0,1,.489-1.767,1.764,1.764,0,0,1,1.42-.554,3.828,3.828,0,0,1,.653.053V2014a2.664,2.664,0,0,0-1.215-.251c-2.69,0-3.74,1.909-3.749,3.955m-31.58,6.467h2.4V2011.14h-2.4Zm8.862-10.416a4.24,4.24,0,0,0-4.6,4.341v6.075h2.382v-5.9a2.735,2.735,0,0,1,.553-1.791,1.843,1.843,0,0,1,1.455-.646,2.068,2.068,0,0,1,1.637.638,2.945,2.945,0,0,1,.582,1.989v5.709h2.382v-5.938a4.2,4.2,0,0,0-4.388-4.479m8.6-2.61H1572.5l.008,9.4c.013,2.382,1.214,3.792,3.808,3.805,1.1,0,1.763-.361,2.036-.934v-1.484a4.4,4.4,0,0,1-1.725.273,1.7,1.7,0,0,1-1.3-.463,2.14,2.14,0,0,1-.458-1.511v-4.4h2.077c1.016,0,1.442-.648,1.442-1.128v-.952h-3.522Z" transform="translate(-1557.411 -2011.139)"/><g transform="translate(46.076 2.61)"><path class="b" d="M1638.9,2021.1a1.881,1.881,0,0,0,1.1-1.881,3.919,3.919,0,0,0-3.918-3.92h0c-.052,0-.1,0-.157,0-2.928,0-5,2.113-5.011,5.537a4.988,4.988,0,0,0,4.917,5.057h.112a4.781,4.781,0,0,0,3-.684v-1.732a5.8,5.8,0,0,1-2.516.505,2.814,2.814,0,0,1-3.032-2.227l-.017-.125h1.829a8.932,8.932,0,0,0,3.7-.533m-5.534-1.085.009-.11.017-.349a2.332,2.332,0,0,1,2.3-2.312,2.482,2.482,0,0,1,1.5.412,1.487,1.487,0,0,1,.58,1.254.851.851,0,0,1-.66.877,8.289,8.289,0,0,1-2.47.23Z" transform="translate(-1630.914 -2015.302)"/></g><g transform="translate(77.232 2.6)"><path class="b" d="M1680.616,2019.245v6.467h2.4v-6a2.654,2.654,0,0,1,.49-1.767,1.77,1.77,0,0,1,1.42-.554,3.83,3.83,0,0,1,.654.053v-1.9a2.671,2.671,0,0,0-1.217-.251c-2.688,0-3.738,1.91-3.749,3.955" transform="translate(-1680.616 -2015.287)"/></g><g transform="translate(37.585 2.565)"><path class="b" d="M1620.71,2025.828c-1.751,0-3.059-.958-3.059-1.99v-1.147h.089a4.574,4.574,0,0,0,2.861.96c1.168,0,1.732-.357,1.732-1.11,0-.582-.335-.862-1.981-1.108-2.011-.3-2.981-1.146-2.981-2.687,0-1.9,1.606-3.514,4.042-3.514,2.159,0,3.04,1.183,3.04,2.16v.958h-.088a4,4,0,0,0-2.72-.937c-1.45,0-1.908.467-1.908,1.128,0,.508.283.715,1.908,1,1.975.339,3.037,1.259,3.037,2.876,0,2.141-1.414,3.419-3.971,3.419" transform="translate(-1617.369 -2015.231)"/></g><g transform="translate(56.234 2.596)"><path class="b" d="M1655.885,2022.816c.017.412.038.958.038,1.3a4.509,4.509,0,0,1-4.664,4.81c-1.962,0-3.3-1.013-3.3-2.217v-1.146h.1a4.067,4.067,0,0,0,3.024,1.089c1.711,0,2.487-.863,2.487-2.33,0-.148,0-.356-.016-.527,0-.148-.016-.413-.016-.505v-.243a2.428,2.428,0,0,1-2.455,1.5,3.877,3.877,0,0,1-3.963-3.787c0-.1,0-.207.005-.31,0-2.856,1.763-5.167,4.838-5.167,2.369,0,3.887,1.842,3.887,4.436v1.728c0,.339.017.921.036,1.373m-6.342-2.687a2.055,2.055,0,0,0,1.908,2.316c1.2,0,2.052-.949,2.052-2.582,0-1.594-.752-2.374-1.8-2.374a2.363,2.363,0,0,0-2.16,2.639" transform="translate(-1647.12 -2015.281)"/></g><g transform="translate(82.739 2.564)"><path class="b" d="M1694.228,2015.229c2.924,0,4.607,2.444,4.607,5.132,0,3.043-1.683,5.466-4.827,5.466-2.925,0-4.605-2.423-4.605-5.11,0-3.045,1.681-5.487,4.824-5.487m-.219,2.127c-1.448,0-2.185,1.254-2.185,3,0,2.094.736,3.349,2.406,3.349,1.468,0,2.184-1.253,2.184-2.978,0-2.115-.752-3.368-2.406-3.368" transform="translate(-1689.402 -2015.229)"/></g><g transform="translate(66.632 2.779)"><path class="b" d="M1668.08,2026.025a4.235,4.235,0,0,0,4.587-4.356v-6.1h-2.374v5.922a2.75,2.75,0,0,1-.552,1.794,1.829,1.829,0,0,1-1.448.65,2.063,2.063,0,0,1-1.633-.642,2.968,2.968,0,0,1-.58-2v-5.729h-2.372v5.959a4.2,4.2,0,0,0,4.375,4.493" transform="translate(-1663.706 -2015.572)"/></g></g><path class="h" d="M1524.493,2006.684a2.485,2.485,0,0,0-2.484,2.483v16.116h16.118a2.486,2.486,0,0,0,2.486-2.486v-16.115Zm11.775,13.425-9.912,1.79v-10.007l9.915-1.791Z" transform="translate(-1522.008 -2006.683)"/></g></g><g transform="translate(1329.209 1989.473)"><g transform="translate(0 0)"><path class="d" d="M1400.021,2017.4v3.343c0,4.026-2.205,6.327-6.457,6.327s-6.46-2.3-6.46-6.327v-13.084c0-4.027,2.205-6.327,6.46-6.327s6.457,2.3,6.457,6.327v2.444h-4.1v-2.7c0-1.8-.866-2.48-2.245-2.48s-2.245.683-2.245,2.48V2021c0,1.8.867,2.444,2.245,2.444s2.245-.646,2.245-2.444V2017.4Z" transform="translate(-1387.104 -2001.334)"/></g><g transform="translate(13.704 0.288)"><path class="d" d="M1414.441,2018.616l-5.475-16.822h4.529l3.309,11.467,3.309-11.467h4.137l-5.474,16.822v8.337h-4.332Z" transform="translate(-1408.966 -2001.794)"/></g><g transform="translate(30.721 0.284)"><path class="d" d="M1449.07,2007.577v.9c0,2.589-.866,4.242-2.8,5.068,2.324.827,3.23,2.732,3.23,5.391v2.049c0,3.882-2.245,5.967-6.578,5.967h-6.814v-25.165h6.539C1447.14,2001.79,1449.07,2003.7,1449.07,2007.577Zm-8.627-2.194v6.65h1.693c1.615,0,2.6-.646,2.6-2.661v-1.4c0-1.8-.67-2.588-2.206-2.588Zm0,10.246v7.729h2.479c1.458,0,2.245-.611,2.245-2.48v-2.194c0-2.336-.827-3.056-2.8-3.056Z" transform="translate(-1436.112 -2001.787)"/></g><g transform="translate(46.711 0.288)"><path class="d" d="M1465.954,2012.4h5.95v3.6h-5.95v7.372h7.484v3.6H1461.62v-25.163h11.818v3.594h-7.484Z" transform="translate(-1461.62 -2001.794)"/></g><g transform="translate(61.205 0.29)"><path class="d" d="M1493.8,2026.957a7.182,7.182,0,0,1-.393-3.092v-3.954c0-2.337-.867-3.2-2.836-3.2h-1.5v10.245h-4.332V2001.8h6.538c4.491,0,6.42,1.905,6.42,5.787v1.978c0,2.588-.906,4.278-2.836,5.1,2.166.827,2.875,2.732,2.875,5.356v3.883a6.821,6.821,0,0,0,.473,3.055Zm-4.724-21.569v7.729h1.693c1.615,0,2.6-.647,2.6-2.662v-2.479c0-1.8-.67-2.588-2.207-2.588Z" transform="translate(-1484.743 -2001.796)"/></g></g><g transform="translate(1560.759 2004.939)"><path class="d" d="M1840.378,2034.2a10.836,10.836,0,0,0-10-6.63h-73.89v-1.567h73.89a12.4,12.4,0,0,1,11.443,7.587Z" transform="translate(-1756.488 -2026.006)"/></g><g transform="translate(1555.215 1998.033)"><path class="a" d="M1831.534,2023.186a10.839,10.839,0,0,0-10-6.629h-73.889v-1.566h73.889a12.4,12.4,0,0,1,11.443,7.586Z" transform="translate(-1747.644 -2014.99)"/></g><g transform="translate(1231.95 1969.547)"><g transform="translate(34.863)"><path class="i" d="M1287.57,1970.71c-.175.773,4.644,8.606,5.751,8.856.309.069.245-.322.515-.261,1.286.29-2.125-5.849-2.795-7.568C1289.93,1968.894,1287.931,1969.119,1287.57,1970.71Z" transform="translate(-1287.566 -1969.547)"/></g><g transform="translate(30.248 16.046)"><path class="i" d="M1282.071,1996.424c-.069-.117-1.021-1.384-1.213-1.273C1278.541,1996.487,1283.216,1998.414,1282.071,1996.424Z" transform="translate(-1280.204 -1995.144)"/></g><g transform="translate(13.89 18.098)"><path class="i" d="M1255.334,1998.522a1.222,1.222,0,0,0-.712-.085.643.643,0,0,0-.483.406c-.527,1.637,6.006,6.966,7.679,7.507.211.068.345.063.376-.042C1262.315,2005.935,1256.943,1999.041,1255.334,1998.522Z" transform="translate(-1254.109 -1998.417)"/></g><g transform="translate(20.061 35.596)"><path class="i" d="M1263.973,2026.754c-.255.792,1.986,3.232,2.516,1.588C1266.774,2027.463,1264.388,2025.465,1263.973,2026.754Z" transform="translate(-1263.953 -2026.333)"/></g><g transform="translate(0 42.348)"><path class="i" d="M1232.4,2037.1c-.759.213-.292.7-.423,1.1-.671,2.081,10.08,3.835,11.346,3.29.362-.158.554-.912.256-1.008a.225.225,0,0,1-.1-.217C1243.49,2040.128,1232.668,2037.034,1232.4,2037.1Z" transform="translate(-1231.95 -2037.104)"/></g><g transform="translate(6.645 56.773)"><path class="i" d="M1245.483,2060.189a5.833,5.833,0,0,0-2.6.173c-.792.511.032,1.866.376,1.646a.985.985,0,0,1,.446.051C1244.612,2062.314,1247.22,2061.013,1245.483,2060.189Z" transform="translate(-1242.55 -2060.115)"/></g></g></g></svg>