<svg xmlns="http://www.w3.org/2000/svg" width="348.669" height="202.917" viewBox="0 0 348.669 202.917"><defs><style>.a{fill:#ea0c90;}.b{fill:#fff;}.c{fill:#ffd527;}</style></defs><g transform="matrix(0.998, 0.07, -0.07, 0.998, -4833.013, -3488.907)"><g transform="translate(5223.995 3167.672)"><g transform="translate(0 22.739)"><path class="a" d="M5968.946,3518.082a8.883,8.883,0,0,0-7.781-2.2,9.648,9.648,0,0,0-3.462,1.313,9.359,9.359,0,0,0-2.562,2.333,9.053,9.053,0,0,0-1.7,6.608,8.6,8.6,0,0,0,1.115,3.329,7.916,7.916,0,0,0,2.2,2.411,8.311,8.311,0,0,0,3,1.344,8.872,8.872,0,0,0,3.527.075,10.732,10.732,0,0,0,6.923-4.57l1.144,9.612-.831.431a27.55,27.55,0,0,1-3.508,1.563,18.923,18.923,0,0,1-3.271.853,17.257,17.257,0,0,1-6.541-.147,16.058,16.058,0,0,1-10.216-7.051,15.268,15.268,0,0,1-2.307-6.362,16.1,16.1,0,0,1,.476-6.872,17.872,17.872,0,0,1,3.024-5.922,18.793,18.793,0,0,1,5.017-4.478,18.847,18.847,0,0,1,10.37-2.783,23.565,23.565,0,0,1,4.189.525Z" transform="translate(-5944.513 -3507.558)"/></g><g transform="translate(26.429 16.438)"><path class="a" d="M6107.911,3474.536l1.936,17.578q.152,1.395.424,2.832a7.13,7.13,0,0,0,.951,2.516,4.109,4.109,0,0,0,1.953,1.614,6.35,6.35,0,0,0,3.445.164,6.779,6.779,0,0,0,3.279-1.3,5.179,5.179,0,0,0,1.565-2.221,7.565,7.565,0,0,0,.425-2.769q-.038-1.486-.179-2.894l-1.794-17.725,8.907-1.638,1.8,18.992q.712,7.517-2.579,11.531-3.265,4-10.662,5.211-7.352,1.213-11.261-1.554c-2.615-1.845-4.208-5.208-4.781-10.119l-2.169-18.6Z" transform="translate(-6099.168 -3470.689)"/></g><g transform="translate(60.927 10.876)"><path class="a" d="M6301.111,3459.532a17.1,17.1,0,0,1,.8-7.036,19.4,19.4,0,0,1,3.463-6.258,21.182,21.182,0,0,1,5.786-4.857,24,24,0,0,1,7.792-2.817,21.989,21.989,0,0,1,8.051-.094,16.816,16.816,0,0,1,6.572,2.647,14.813,14.813,0,0,1,4.5,4.926,15.369,15.369,0,0,1,1.922,6.7,17.285,17.285,0,0,1-1.031,7.146,19.5,19.5,0,0,1-3.709,6.2,21.622,21.622,0,0,1-5.931,4.674,24.031,24.031,0,0,1-7.668,2.587,21.772,21.772,0,0,1-7.828-.021,16.558,16.558,0,0,1-6.3-2.591,14.937,14.937,0,0,1-4.392-4.732A15.3,15.3,0,0,1,6301.111,3459.532Zm9.392-1.639a7.8,7.8,0,0,0,1.087,3.458,8.049,8.049,0,0,0,2.354,2.483,8.746,8.746,0,0,0,3.261,1.344,10.419,10.419,0,0,0,3.817.029,11.66,11.66,0,0,0,6.759-3.738,10.382,10.382,0,0,0,1.97-3.252,8.811,8.811,0,0,0,.542-3.779,7.831,7.831,0,0,0-1.06-3.52,7.914,7.914,0,0,0-2.4-2.533,9.053,9.053,0,0,0-3.344-1.356,10.446,10.446,0,0,0-3.878,0,11.51,11.51,0,0,0-3.756,1.37,11.239,11.239,0,0,0-2.983,2.476,10.523,10.523,0,0,0-1.889,3.267A8.769,8.769,0,0,0,6310.5,3457.893Z" transform="translate(-6301.035 -3438.141)"/></g><g transform="translate(98.577 3.97)"><path class="a" d="M6539.082,3406.768l1.331,26.2-9.342,1.545-1.5-26.035-7.742,1.392-.476-7.492,25.279-4.651.344,7.621Z" transform="translate(-6521.35 -3397.728)"/></g><g transform="translate(122.011 0)"><path class="a" d="M6684.385,3402.806l-13.818,2.33-1.969,6.178-10.116,1.673,12.646-36.5,10.776-1.983,15.31,32.082-10.431,1.726Zm-2.784-6.29-4.756-10.692-3.972,12.195Z" transform="translate(-6658.481 -3374.499)"/></g><g transform="translate(2.172 61.759)"><path class="a" d="M5973.917,3750.3l16.565-2.542a40.693,40.693,0,0,1,.282,4.38,14.771,14.771,0,0,1-2.391,8.206,14.466,14.466,0,0,1-3.226,3.49,18.05,18.05,0,0,1-4.26,2.452,21.012,21.012,0,0,1-5.023,1.35,19.148,19.148,0,0,1-6.809-.158,15.05,15.05,0,0,1-5.564-2.387,14.135,14.135,0,0,1-4.007-4.368,16.2,16.2,0,0,1-2.079-6.131,16.829,16.829,0,0,1,.3-6.515,14.482,14.482,0,0,1,2.693-5.5,16.351,16.351,0,0,1,4.881-4.09,20.6,20.6,0,0,1,6.845-2.3,18.157,18.157,0,0,1,9.109.637,13.91,13.91,0,0,1,6.819,5.425l-7.6,4.333a7.363,7.363,0,0,0-3.311-3.11,7.459,7.459,0,0,0-4.149-.449,8.692,8.692,0,0,0-3.3,1.191,7.644,7.644,0,0,0-2.346,2.276,9.124,9.124,0,0,0-1.293,3.17,11.287,11.287,0,0,0-.1,3.87,11.159,11.159,0,0,0,.984,3.4,7.562,7.562,0,0,0,1.929,2.534,6.92,6.92,0,0,0,2.82,1.426,9.351,9.351,0,0,0,3.678.111,10.863,10.863,0,0,0,2.315-.6,6.718,6.718,0,0,0,1.938-1.121,5.1,5.1,0,0,0,1.316-1.691,5.8,5.8,0,0,0,.534-2.322l-6.789,1.019Z" transform="translate(-5957.222 -3735.89)"/></g><g transform="translate(37.113 57.296)"><path class="a" d="M6192.209,3738.421l-10.665,1.534-9.3-10.342,1.213,11.5-8.4,1.208-3.375-30.165,13.384-2.159a14.029,14.029,0,0,1,4.951-.02,8.949,8.949,0,0,1,3.65,1.537,8.048,8.048,0,0,1,2.338,2.731,9.58,9.58,0,0,1,1.037,3.594,9,9,0,0,1-1.3,5.979,10.152,10.152,0,0,1-5.108,3.751Zm-20.5-13.91,1.613-.248a7,7,0,0,0,3.794-1.569,3.446,3.446,0,0,0,1.08-3.016,3.076,3.076,0,0,0-1.648-2.6,6.5,6.5,0,0,0-4.012-.365l-1.621.256Z" transform="translate(-6161.683 -3709.773)"/></g><g transform="translate(65.882 51.83)"><path class="a" d="M6353.385,3703.424l-12.577,1.846-1.559,5.559-9.22,1.327,10.135-32.788,9.791-1.58,15.342,29.294-9.488,1.365Zm-2.81-5.744-4.794-9.76-3.146,10.953Z" transform="translate(-6330.029 -3677.788)"/></g><g transform="translate(95.937 46.256)"><path class="a" d="M6523.052,3653.524l1.349,24.606-9.032,1.3-1.51-24.458-7.482,1.178-.474-7.036,24.42-3.939.351,7.15Z" transform="translate(-6505.902 -3645.174)"/></g><g transform="translate(122.126 44.449)"><path class="a" d="M6668.584,3634.6l1.308,32.113-9.215,1.325-1.523-31.916Z" transform="translate(-6659.153 -3634.601)"/></g><g transform="translate(136.265 40.329)"><path class="a" d="M6762.961,3618.991a10.66,10.66,0,0,0-3.2-1.191,8.951,8.951,0,0,0-3.066-.065,6.055,6.055,0,0,0-3.021,1.266,2.752,2.752,0,0,0-1.113,2.232,1.671,1.671,0,0,0,.628,1.341,4.376,4.376,0,0,0,1.566.737,12.954,12.954,0,0,0,2.171.383q1.207.119,2.392.284,4.749.664,6.989,2.651a7.4,7.4,0,0,1,2.3,5.7,11.173,11.173,0,0,1-.874,4.644,11.343,11.343,0,0,1-2.717,3.834,15.625,15.625,0,0,1-4.416,2.844,23.84,23.84,0,0,1-18.715-.1l3.767-7.242a14.588,14.588,0,0,0,4.261,1.837,10.807,10.807,0,0,0,4.119.2,6.01,6.01,0,0,0,3.434-1.444,3.125,3.125,0,0,0,1.087-2.3,2.13,2.13,0,0,0-1.322-2.057,7.269,7.269,0,0,0-1.8-.568q-1.1-.221-2.669-.458-1.857-.236-3.641-.589a10.277,10.277,0,0,1-3.192-1.17,6.607,6.607,0,0,1-2.309-2.253,7.726,7.726,0,0,1-.99-3.849,11.2,11.2,0,0,1,.734-4.535,11.688,11.688,0,0,1,2.407-3.8,13.814,13.814,0,0,1,3.936-2.86,18.394,18.394,0,0,1,5.313-1.656,25.758,25.758,0,0,1,5.806-.249,24.925,24.925,0,0,1,5.86,1.081Z" transform="translate(-6741.89 -3610.49)"/></g><g transform="translate(34.265 20.286)"><path class="a" d="M6145.926,3493.2l5.049.418-5.957,5.034Z" transform="translate(-6145.018 -3493.203)"/></g><g transform="translate(55.676 16.438)"><path class="a" d="M6270.717,3470.689l5.049.417s-3.876,6.291-4.953,5.242S6270.717,3470.689,6270.717,3470.689Z" transform="translate(-6270.307 -3470.689)"/></g><g transform="translate(121.469 3.97)"><path class="a" d="M6657.692,3397.728l5.048.417-4.15,3.714-3.285-1.635Z" transform="translate(-6655.304 -3397.728)"/></g><g transform="translate(99.052 12.494)"><path class="a" d="M6524.132,3451.229l5.049.417,2.046-2.991-5.09-1.045Z" transform="translate(-6524.132 -3447.611)"/></g><g transform="translate(122.011 36.255)"><path class="a" d="M6658.481,3588.881l5.05.417,2.4-1.65-.339-1Z" transform="translate(-6658.481 -3586.649)"/></g><g transform="translate(150.312 30.599)"><path class="a" d="M6824.087,3556.762l5.049.417,1.119-.995-.033-1.946-1.957-.684Z" transform="translate(-6824.087 -3553.555)"/></g><g transform="translate(141.985)"><path class="a" d="M6778.807,3374.5l5.049.418-2.446,4.348-6.053-.6Z" transform="translate(-6775.357 -3374.499)"/></g><g transform="translate(130.608 44.449)"><path class="a" d="M6709.736,3634.6l5.049.417-6,5.662Z" transform="translate(-6708.787 -3634.602)"/></g><g transform="translate(118.548 46.256)"><path class="a" d="M6640.023,3645.173l4.159,1.841.771,1.254-5.855,1.368-.884-1.138Z" transform="translate(-6638.213 -3645.173)"/></g><g transform="translate(108.299 36.512)"><path class="a" d="M6578.238,3592.4l5.05.418,3.235-2.091-2.637-2.571Z" transform="translate(-6578.238 -3588.155)"/></g><g transform="translate(140.033 66.143)"><path class="a" d="M6763.933,3761.543l5.049.418-.775,2.686-4.074-1.083Z" transform="translate(-6763.933 -3761.543)"/></g><g transform="translate(91.66 79.482)"><path class="a" d="M6480.874,3842.6l5.05.417,1.2-1.316-2.053-2.108Z" transform="translate(-6480.874 -3839.598)"/></g><g transform="translate(105.403 77.248)"><path class="a" d="M6561.294,3829.79l5.323.437,1.325-2.362-1.843-1.34Z" transform="translate(-6561.294 -3826.525)"/></g><g transform="translate(123.651 75.157)"><path class="a" d="M6668.073,3817.023l5.049.418,1.26-1.687-.909-1.46Z" transform="translate(-6668.073 -3814.293)"/></g><g transform="translate(96.411 54.64)"><path class="a" d="M6508.674,3696.823l5.05.418,1.465-1.978-.554-1.031Z" transform="translate(-6508.674 -3694.233)"/></g><g transform="translate(40.487 86.833)"><path class="a" d="M6181.43,3885.631l5.049.417,2.233-2.1-1.05-1.336Z" transform="translate(-6181.43 -3882.615)"/></g><g transform="translate(56.974 84.835)"><path class="a" d="M6277.9,3873.564l5.049.417,1.993-2.827-3.546-.234Z" transform="translate(-6277.903 -3870.921)"/></g><g transform="translate(81.738 51.83)"><path class="a" d="M6426.883,3677.788l5.049.418-1.826,4.438-7.292-1.7Z" transform="translate(-6422.814 -3677.788)"/></g><g transform="translate(25.402 67.222)"><path class="a" d="M6093.154,3773.084l5.049.418,1.214-3.1-4.062-2.54Z" transform="translate(-6093.154 -3767.86)"/></g><g transform="translate(19.627 79.335)"><path class="a" d="M6059.365,3841.558l5.05.418,1.4-2.7-4.1-.537Z" transform="translate(-6059.365 -3838.736)"/></g></g><g transform="translate(5334.15 3142.753)"><path class="b" d="M6603.194,3368.469l-.114-1.631,47.221-7.883a21.024,21.024,0,0,0,11.728-5.958,15.889,15.889,0,0,0,4.69-10.875l.789-96.144a14.528,14.528,0,0,0-5.275-11.241,20.035,20.035,0,0,0-16.335-4.231l-56.553,9.1-.244-1.519,56.553-9.1a21.561,21.561,0,0,1,17.581,4.583,16.046,16.046,0,0,1,5.813,12.419l-.791,96.144a17.407,17.407,0,0,1-5.123,11.932,22.558,22.558,0,0,1-12.578,6.4Z" transform="translate(-6589.1 -3228.679)"/></g><g transform="translate(5094.782 3181.342)"><path class="b" d="M5208.088,3592.673a21,21,0,0,1-13.682-4.834,16.066,16.066,0,0,1-5.879-12.327l-.131-96.034a17.366,17.366,0,0,1,5.07-12.026,22.538,22.538,0,0,1,12.636-6.461l40.406-6.5.244,1.518-40.406,6.5a21,21,0,0,0-11.772,6.009,15.842,15.842,0,0,0-4.639,10.958l.13,96.033a14.553,14.553,0,0,0,5.337,11.158,20.06,20.06,0,0,0,16.276,4.177l44.034-6.494.1,1.381-43.886,6.63A24.053,24.053,0,0,1,5208.088,3592.673Z" transform="translate(-5188.396 -3454.486)"/></g><g transform="translate(5325.343 3125.042)"><path class="c" d="M6537.806,3134.276l-.244-1.519,46.064-7.415c7.385-1.19,14.768,1.2,19.266,6.232l-1.146,1.024c-4.152-4.646-11-6.845-17.875-5.739Z" transform="translate(-6537.562 -3125.042)"/></g><g transform="translate(5075.486 3160.365)"><path class="c" d="M5083.973,3470.129a16.414,16.414,0,0,1-8.357-14.111l-.13-96.034a17.373,17.373,0,0,1,5.069-12.026,22.542,22.542,0,0,1,12.636-6.461l60.646-9.762.244,1.519-60.646,9.762a20.991,20.991,0,0,0-11.771,6.01,15.841,15.841,0,0,0-4.64,10.958l.13,96.033a14.9,14.9,0,0,0,7.616,12.8Z" transform="translate(-5075.486 -3331.735)"/></g><g transform="translate(5117.846 3201.865)"><path class="a" d="M5384.043,3631.028l.634,18.546-60.624,10.174-.172-4.636c31.115-42.218,35.444-49.017,35.209-55.688-.149-4.216-3.18-6.478-7.37-5.666a8.356,8.356,0,0,0-7.082,9l.054,1.493-21.252,4.032-.053-1.416c-.573-15.49,9.664-27.878,27.415-31.453,17.453-3.514,30.005,4.285,30.51,19.031.338,9.871-3.289,18.157-20.306,40.625Z" transform="translate(-5323.365 -3574.581)"/><g transform="translate(0.075 31.416)"><path class="a" d="M5323.8,3760.7l5.81,2.119,1.071-2.981-.025-1.426Z" transform="translate(-5323.805 -3758.414)"/></g><g transform="translate(57.207 56.447)"><path class="a" d="M5661.59,3904.887l5.811,2.12-4.737,4.364-4.544-1.082Z" transform="translate(-5658.119 -3904.887)"/></g><g transform="translate(0.688 81.172)"><path class="a" d="M5327.392,4053.567l5.811,2.119,1.6-3.826s.667-1.02-.022-1.25-3.083-1.037-3.083-1.037l-1.519.873Z" transform="translate(-5327.392 -4049.573)"/></g><g transform="translate(5.81 2.119)"><path class="c" d="M5418.044,3643.428l.633,18.545-60.623,10.173-.171-4.635c31.115-42.219,35.444-49.017,35.208-55.688-.148-4.217-3.18-6.478-7.369-5.667a8.358,8.358,0,0,0-7.083,9l.055,1.492-21.252,4.032-.052-1.416c-.573-15.489,9.664-27.878,27.414-31.452,17.454-3.514,30.006,4.284,30.51,19.03.338,9.872-3.289,18.158-20.306,40.625Z" transform="translate(-5357.366 -3586.981)"/></g></g><g transform="translate(5169.767 3266.896)"><g transform="translate(0 7.787)"><g transform="translate(0 0)"><path class="a" d="M161.109,30.646,5.926,53.11a3.849,3.849,0,0,1-4.472-3.446L.007,26.1a3.754,3.754,0,0,1,3.308-3.878L158.543.042a3.848,3.848,0,0,1,4.466,3.451l1.4,23.28A3.754,3.754,0,0,1,161.109,30.646Z"/></g><g transform="translate(0.792 17.254)"><path class="a" d="M5.327,0,0,6.394l3.346,3.951s8.146-.392,8.4-1.023a40.536,40.536,0,0,1,2.982-3.811Z" transform="translate(0 0)"/></g><g transform="translate(158.71 18.938)"><path class="a" d="M10.7,3.17,4.873,10.337,0,5.721,5.229,0Z" transform="translate(0 0)"/></g></g><g transform="translate(5.204 0)"><path class="b" d="M162.167,30.67,5.728,54.459a3.8,3.8,0,0,1-4.473-3.412L.005,27.466A3.844,3.844,0,0,1,3.37,23.554L159.852.047a3.8,3.8,0,0,1,4.466,3.418l1.207,23.3A3.844,3.844,0,0,1,162.167,30.67Z" transform="translate(0 0)"/></g><g transform="translate(15.634 11.667)"><path class="a" d="M0,9.808.552,3.427l1.7-.256L2.033,9.5ZM1.4.018a1.316,1.316,0,0,1,.492.01,1.1,1.1,0,0,1,.4.171,1,1,0,0,1,.28.3A1.062,1.062,0,0,1,2.7.893a1.236,1.236,0,0,1-.012.457,1.033,1.033,0,0,1-.175.387,1.1,1.1,0,0,1-.327.29,1.279,1.279,0,0,1-.467.158,1.331,1.331,0,0,1-.492-.01A1.089,1.089,0,0,1,.834,2a.984.984,0,0,1-.28-.3,1.081,1.081,0,0,1-.141-.4A1.249,1.249,0,0,1,.426.85,1,1,0,0,1,.6.462,1.1,1.1,0,0,1,.929.176,1.267,1.267,0,0,1,1.4.018Z" transform="translate(0 23.826)"/><path class="a" d="M3.909.05a3.814,3.814,0,0,1,1.261,0A2.781,2.781,0,0,1,6.2.455a2.465,2.465,0,0,1,.737.753,2.743,2.743,0,0,1,.382,1.07,3.817,3.817,0,0,1-.064,1.563,3.316,3.316,0,0,1-.643,1.27,3.619,3.619,0,0,1-1.142.913A4.947,4.947,0,0,1,3.9,6.517l-1.792.271L1.925,9.727,0,10.017.561.555ZM2.188,5.184l1.456-.22A2.46,2.46,0,0,0,4.458,4.7a1.869,1.869,0,0,0,.587-.482,1.708,1.708,0,0,0,.323-.659,2.03,2.03,0,0,0,.028-.8,1.184,1.184,0,0,0-.545-.9,1.73,1.73,0,0,0-1.161-.16l-1.284.194Z" transform="translate(3.952 20.927)"/><path class="a" d="M4.638,9.857a4.364,4.364,0,0,1-1.677-.049A3.729,3.729,0,0,1,1.589,9.18,3.675,3.675,0,0,1,.6,8.065a4.23,4.23,0,0,1-.516-1.5A7.136,7.136,0,0,1,.02,4.936,6.421,6.421,0,0,1,.3,3.47,5.205,5.205,0,0,1,.9,2.207a5.012,5.012,0,0,1,.879-1.02A4.66,4.66,0,0,1,2.905.455,4.883,4.883,0,0,1,4.24.059,4.413,4.413,0,0,1,5.93.106,3.657,3.657,0,0,1,7.295.735a3.623,3.623,0,0,1,.974,1.117,4.3,4.3,0,0,1,.51,1.505,7.278,7.278,0,0,1,.07,1.627,6.168,6.168,0,0,1-.282,1.469,5.377,5.377,0,0,1-.6,1.263,4.865,4.865,0,0,1-.877,1.016,4.732,4.732,0,0,1-1.121.728A4.861,4.861,0,0,1,4.638,9.857ZM6.832,3.8a2.9,2.9,0,0,0-.293-.928,2.187,2.187,0,0,0-.53-.67,1.853,1.853,0,0,0-.719-.373,2.1,2.1,0,0,0-.867-.038A2.411,2.411,0,0,0,3.3,2.266a3.039,3.039,0,0,0-.819.965,4.178,4.178,0,0,0-.447,1.329,4.962,4.962,0,0,0,0,1.562,2.913,2.913,0,0,0,.293.931,2.2,2.2,0,0,0,.53.668,1.86,1.86,0,0,0,.723.372,2.142,2.142,0,0,0,.876.037,2.408,2.408,0,0,0,1.118-.471A3.021,3.021,0,0,0,6.391,6.7a4.067,4.067,0,0,0,.444-1.324A5.04,5.04,0,0,0,6.832,3.8Z" transform="translate(11.864 19.434)"/><path class="a" d="M.568.591,4.2.044A3.429,3.429,0,0,1,5.388.06a2.72,2.72,0,0,1,.99.4,2.43,2.43,0,0,1,.714.733A2.6,2.6,0,0,1,7.46,2.21a3.076,3.076,0,0,1-.011,1,3.208,3.208,0,0,1-.32.935,3.252,3.252,0,0,1-.61.81,3.47,3.47,0,0,1-.871.619L7.441,8.932l-2.066.312L3.782,6.085l-1.64.247-.21,3.43L0,10.055Zm1.65,4.222L3.9,4.56a2.4,2.4,0,0,0,.748-.233,1.774,1.774,0,0,0,.544-.42,1.467,1.467,0,0,0,.306-.562,1.557,1.557,0,0,0,.035-.668,1.155,1.155,0,0,0-.491-.849,1.463,1.463,0,0,0-1.045-.167L2.415,1.9Z" transform="translate(21.611 18.225)"/><path class="a" d="M2.267,10.168,2.745,2.4,0,2.81.09,1.12,7.511,0l-.09,1.69L4.677,2.1,4.2,9.877Z" transform="translate(32.618 16.109)"/><path class="a" d="M0,9.755.568.292,2.5,0,1.932,9.464Z" transform="translate(40.595 15.662)"/><path class="a" d="M6.081,9.462,0,10.38.568.916,6.642,0l-.09,1.691L2.41,2.316,2.257,4.528l3.914-.59L6.081,5.5l-3.907.589L2.015,8.4l4.149-.626Z" transform="translate(44.094 14.509)"/><path class="a" d="M0,10.929.568,1.466l2.2-.333L4.9,7.117,5.011,7.1,7.945.353,10.283,0,9.715,9.463l-1.785.27L8.32,3.4l-.1.015-2.7,6.139-1.277.192L2.283,4.314l-.1.015-.39,6.33Z" transform="translate(51.532 12.837)"/><path class="a" d="M3.91.05a3.812,3.812,0,0,1,1.261,0A2.766,2.766,0,0,1,6.2.455a2.448,2.448,0,0,1,.737.753,2.737,2.737,0,0,1,.383,1.07,3.814,3.814,0,0,1-.064,1.563,3.314,3.314,0,0,1-.643,1.27,3.616,3.616,0,0,1-1.142.913A4.942,4.942,0,0,1,3.9,6.517l-1.792.271L1.925,9.727,0,10.017.561.555ZM2.189,5.184l1.455-.22A2.467,2.467,0,0,0,4.459,4.7a1.879,1.879,0,0,0,.587-.482,1.7,1.7,0,0,0,.323-.659,2.031,2.031,0,0,0,.028-.8,1.185,1.185,0,0,0-.546-.9A1.733,1.733,0,0,0,3.69,1.695l-1.283.194Z" transform="translate(62.827 12.045)"/><path class="a" d="M4.638,9.857a4.366,4.366,0,0,1-1.677-.049A3.727,3.727,0,0,1,1.589,9.18,3.654,3.654,0,0,1,.6,8.065a4.194,4.194,0,0,1-.517-1.5A7.186,7.186,0,0,1,.019,4.936,6.4,6.4,0,0,1,.3,3.47,5.229,5.229,0,0,1,.9,2.207a5.06,5.06,0,0,1,.88-1.02A4.613,4.613,0,0,1,2.905.455a4.871,4.871,0,0,1,1.334-.4A4.41,4.41,0,0,1,5.93.106,3.662,3.662,0,0,1,7.295.735,3.64,3.64,0,0,1,8.27,1.852a4.294,4.294,0,0,1,.509,1.505,7.33,7.33,0,0,1,.07,1.627,6.185,6.185,0,0,1-.282,1.469,5.381,5.381,0,0,1-.6,1.263,4.87,4.87,0,0,1-.877,1.016,4.743,4.743,0,0,1-1.122.729A4.86,4.86,0,0,1,4.638,9.857ZM6.831,3.8a2.908,2.908,0,0,0-.292-.928,2.21,2.21,0,0,0-.53-.67,1.868,1.868,0,0,0-.719-.373,2.115,2.115,0,0,0-.867-.038,2.408,2.408,0,0,0-1.12.474,3.025,3.025,0,0,0-.82.965A4.147,4.147,0,0,0,2.036,4.56a4.932,4.932,0,0,0,0,1.563,2.9,2.9,0,0,0,.293.931,2.194,2.194,0,0,0,.529.667,1.845,1.845,0,0,0,.722.372,2.133,2.133,0,0,0,.876.037,2.4,2.4,0,0,0,1.118-.471A3.025,3.025,0,0,0,6.391,6.7a4.065,4.065,0,0,0,.444-1.325A5.056,5.056,0,0,0,6.831,3.8Z" transform="translate(70.738 10.553)"/><path class="a" d="M6,8.849l-6,.9L.568.291,2.493,0,2.016,7.74l4.073-.614Z" transform="translate(83.189 9.237)"/><path class="a" d="M0,9.755.568.292,2.5,0,1.932,9.463Z" transform="translate(90.284 8.166)"/><path class="a" d="M0,10.929.567,1.466l2.2-.333L4.9,7.116,5.011,7.1,7.945.353,10.283,0,9.715,9.463l-1.786.269L8.321,3.4l-.1.016-2.7,6.139L4.242,9.75,2.283,4.313l-.1.015-.39,6.33Z" transform="translate(93.782 6.464)"/><path class="a" d="M0,9.755.568.292,2.5,0,1.931,9.464Z" transform="translate(105.071 5.935)"/><path class="a" d="M2.267,10.168,2.745,2.4,0,2.81.09,1.12,7.511,0l-.09,1.69L4.676,2.1,4.2,9.877Z" transform="translate(108.514 4.66)"/><path class="a" d="M6.088,7.136l-3.235.488L2,9.988l-2,.3L3.827.335,6.045,0,8.616,8.99l-1.976.3Zm-2.734-1.1,2.421-.365-.91-3.534-.121.018Z" transform="translate(115.836 3.776)"/><path class="a" d="M3.809.062a4.618,4.618,0,0,1,1.61.017A3.269,3.269,0,0,1,6.712.635a3.212,3.212,0,0,1,.92,1.06,4.528,4.528,0,0,1,.494,1.53A6.769,6.769,0,0,1,8.19,4.746a6.02,6.02,0,0,1-.263,1.381,5.1,5.1,0,0,1-.56,1.2,4.6,4.6,0,0,1-.834.974,4.507,4.507,0,0,1-1.08.7,4.713,4.713,0,0,1-1.291.384L0,10.014.562.552ZM2.028,8.038l1.715-.259a2.759,2.759,0,0,0,1.989-1.31,3.514,3.514,0,0,0,.449-1.228,4.658,4.658,0,0,0,0-1.5,2.962,2.962,0,0,0-.3-.943,2.011,2.011,0,0,0-.542-.665,1.911,1.911,0,0,0-.762-.356,2.545,2.545,0,0,0-.955-.022l-1.214.183Z" transform="translate(125.383 2.612)"/><path class="a" d="M4.638,9.857a4.354,4.354,0,0,1-1.678-.049A3.713,3.713,0,0,1,1.589,9.18,3.66,3.66,0,0,1,.6,8.065a4.2,4.2,0,0,1-.516-1.5A7.112,7.112,0,0,1,.02,4.936,6.324,6.324,0,0,1,.3,3.47,5.162,5.162,0,0,1,.9,2.207a5.047,5.047,0,0,1,.88-1.02A4.652,4.652,0,0,1,2.9.455a4.9,4.9,0,0,1,1.334-.4,4.41,4.41,0,0,1,1.69.047A3.66,3.66,0,0,1,7.295.735a3.63,3.63,0,0,1,.975,1.116,4.3,4.3,0,0,1,.509,1.506,7.3,7.3,0,0,1,.07,1.627,6.18,6.18,0,0,1-.282,1.469,5.366,5.366,0,0,1-.6,1.263,4.854,4.854,0,0,1-.877,1.016,4.686,4.686,0,0,1-1.122.728A4.829,4.829,0,0,1,4.638,9.857ZM6.831,3.8a2.938,2.938,0,0,0-.292-.928,2.2,2.2,0,0,0-.531-.67,1.854,1.854,0,0,0-.719-.373,2.1,2.1,0,0,0-.867-.038A2.411,2.411,0,0,0,3.3,2.266a3.022,3.022,0,0,0-.819.966A4.159,4.159,0,0,0,2.036,4.56a4.925,4.925,0,0,0,0,1.563,2.9,2.9,0,0,0,.293.931,2.2,2.2,0,0,0,.53.667,1.848,1.848,0,0,0,.722.372,2.138,2.138,0,0,0,.876.037,2.411,2.411,0,0,0,1.118-.471A3.031,3.031,0,0,0,6.391,6.7a4.1,4.1,0,0,0,.444-1.325A5.071,5.071,0,0,0,6.831,3.8Z" transform="translate(134.356 0.956)"/><path class="a" d="M1.324,9.783a1.329,1.329,0,0,1-.492-.01,1.092,1.092,0,0,1-.4-.171.983.983,0,0,1-.279-.3,1.063,1.063,0,0,1-.141-.395,1.217,1.217,0,0,1,.012-.456A1.024,1.024,0,0,1,.2,8.064,1.1,1.1,0,0,1,.53,7.775,1.289,1.289,0,0,1,1,7.616a1.345,1.345,0,0,1,.492.01,1.1,1.1,0,0,1,.4.171.972.972,0,0,1,.279.3,1.086,1.086,0,0,1,.141.4,1.224,1.224,0,0,1-.012.456.988.988,0,0,1-.176.384,1.1,1.1,0,0,1-.327.287A1.285,1.285,0,0,1,1.324,9.783ZM2.72,0,2.167,6.374l-1.7.256L.687.307Z" transform="translate(144.193 0)"/></g></g><g transform="translate(5159.82 3132.784)"><g transform="translate(3.526 21.96)"><path class="b" d="M5597.369,3302.492a2.122,2.122,0,0,0-.332-.769,1.92,1.92,0,0,0-.577-.542,2.2,2.2,0,0,0-.778-.283,2.881,2.881,0,0,0-.929,0,2.834,2.834,0,0,0-1.313.564,3.5,3.5,0,0,0-.944,1.135,4.793,4.793,0,0,0-.5,1.568,5.944,5.944,0,0,0,.032,1.862,3.5,3.5,0,0,0,.35,1.078,2.4,2.4,0,0,0,.614.76,2.115,2.115,0,0,0,.833.411,2.546,2.546,0,0,0,1.017.028,3.208,3.208,0,0,0,.864-.262,2.776,2.776,0,0,0,.711-.473,2.6,2.6,0,0,0,.509-.642,2.345,2.345,0,0,0,.271-.771l2.246-.355a4.47,4.47,0,0,1-.367,1.624,4.4,4.4,0,0,1-.914,1.345,5.117,5.117,0,0,1-1.39.988,6.216,6.216,0,0,1-1.794.555,5.218,5.218,0,0,1-1.911-.024,4.008,4.008,0,0,1-2.712-1.946,5.161,5.161,0,0,1-.625-1.793,8.05,8.05,0,0,1,0-2.778,6.407,6.407,0,0,1,.886-2.312,5.627,5.627,0,0,1,1.651-1.676,5.708,5.708,0,0,1,2.295-.868,5.233,5.233,0,0,1,1.772.01,4.434,4.434,0,0,1,1.512.561,3.757,3.757,0,0,1,1.118,1.029,3.35,3.35,0,0,1,.585,1.409c.009.054.019.106.027.158a.954.954,0,0,1,.013.16l-2.2.348Z" transform="translate(-5589.612 -3298.849)"/></g><g transform="translate(14.26 20.276)"><path class="b" d="M5658.022,3300.408a5.278,5.278,0,0,1-1.992-.038,4.505,4.505,0,0,1-1.644-.716,4.334,4.334,0,0,1-1.2-1.287,4.869,4.869,0,0,1-.645-1.743,8.133,8.133,0,0,1-.114-1.882,7.241,7.241,0,0,1,.3-1.7,5.938,5.938,0,0,1,.68-1.464,5.748,5.748,0,0,1,1.014-1.185,5.439,5.439,0,0,1,1.309-.854,5.825,5.825,0,0,1,1.562-.471,5.329,5.329,0,0,1,1.993.035,4.43,4.43,0,0,1,1.626.708,4.3,4.3,0,0,1,1.181,1.274,4.968,4.968,0,0,1,.646,1.73,8.305,8.305,0,0,1,.131,1.88,6.987,6.987,0,0,1-.29,1.706,6.062,6.062,0,0,1-.673,1.474,5.476,5.476,0,0,1-2.322,2.054A5.763,5.763,0,0,1,5658.022,3300.408Zm2.435-7.057a3.353,3.353,0,0,0-.371-1.067,2.609,2.609,0,0,0-.644-.768,2.259,2.259,0,0,0-.859-.421,2.554,2.554,0,0,0-1.023-.034,2.85,2.85,0,0,0-1.311.56,3.471,3.471,0,0,0-.944,1.123,4.7,4.7,0,0,0-.5,1.54,5.59,5.59,0,0,0,.035,1.81,3.394,3.394,0,0,0,.369,1.077,2.626,2.626,0,0,0,.644.77,2.24,2.24,0,0,0,.866.424,2.578,2.578,0,0,0,1.039.032,2.838,2.838,0,0,0,1.314-.561,3.454,3.454,0,0,0,.942-1.122,4.582,4.582,0,0,0,.488-1.541A5.7,5.7,0,0,0,5660.458,3293.351Z" transform="translate(-5652.419 -3288.993)"/></g><g transform="translate(25.898 17.715)"><path class="b" d="M5720.521,3286.747l.38-10.946,2.585-.407,2.709,6.869.135-.022,3.214-7.8,2.737-.431-.293,10.919-2.105.333.22-7.325-.119.019-2.966,7.131-1.507.239-2.5-6.27-.119.019-.257,7.337Z" transform="translate(-5720.521 -3274.01)"/></g><g transform="translate(39.228 16.745)"><path class="b" d="M5802.709,3268.394a4.617,4.617,0,0,1,1.483-.009,3.426,3.426,0,0,1,1.229.447,2.969,2.969,0,0,1,.9.853,3.157,3.157,0,0,1,.5,1.222,4.275,4.275,0,0,1,0,1.8,3.689,3.689,0,0,1-.7,1.47,4.1,4.1,0,0,1-1.307,1.066,5.815,5.815,0,0,1-1.828.588l-2.105.333-.095,3.407-2.268.36.271-10.914Zm-1.8,5.913,1.707-.27a2.891,2.891,0,0,0,.95-.312,2.107,2.107,0,0,0,.67-.562,1.878,1.878,0,0,0,.351-.762,2.265,2.265,0,0,0,0-.924,1.4,1.4,0,0,0-.684-1.029,2.108,2.108,0,0,0-1.373-.169l-1.5.236Z" transform="translate(-5798.523 -3268.329)"/></g><g transform="translate(48.688 15.223)"><path class="b" d="M5854.091,3260.149l4.234-.667a4.167,4.167,0,0,1,1.4,0,3.387,3.387,0,0,1,1.184.445,2.977,2.977,0,0,1,.88.83,3.038,3.038,0,0,1,.488,1.159,3.451,3.451,0,0,1,.043,1.148,3.525,3.525,0,0,1-.326,1.077,3.57,3.57,0,0,1-.674.938,3.885,3.885,0,0,1-.994.722l2.3,3.851-2.425.385-2.05-3.628-1.922.3-.074,3.966-2.272.36Zm2.152,4.818,1.964-.31a2.825,2.825,0,0,0,.869-.276,2,2,0,0,0,.617-.489,1.6,1.6,0,0,0,.331-.649,1.746,1.746,0,0,0,.005-.767,1.385,1.385,0,0,0-.623-.965,1.8,1.8,0,0,0-1.239-.18l-1.84.291Z" transform="translate(-5853.884 -3259.425)"/></g><g transform="translate(57.743 13.528)"><path class="b" d="M5913.872,3257.676l-3.786.6-.869,2.739-2.35.372,3.937-11.47,2.581-.406,3.588,10.273-2.315.368Zm-3.289-1.236,2.83-.447-1.284-4.037-.141.022Z" transform="translate(-5906.867 -3249.51)"/></g><g transform="translate(71.51 11.031)"><path class="b" d="M5990.6,3246.585l.023-8.911-3.192.5-.008-1.924,8.616-1.356.019,1.92-3.189.5-.01,8.906Z" transform="translate(-5987.426 -3234.898)"/></g><g transform="translate(81.345 9.43)"><path class="b" d="M6050.073,3237.235a5.822,5.822,0,0,1-1.822.025,4.178,4.178,0,0,1-1.476-.506,3.5,3.5,0,0,1-1.066-.955,3.459,3.459,0,0,1-.592-1.322c-.031-.146-.057-.3-.076-.455a3.852,3.852,0,0,1-.028-.476l-.031-6.606,2.246-.354.038,6.552a3.214,3.214,0,0,0,.083.753,1.7,1.7,0,0,0,.825,1.141,2.4,2.4,0,0,0,1.591.208,2.625,2.625,0,0,0,.836-.272,2.075,2.075,0,0,0,.627-.506,2.159,2.159,0,0,0,.391-.72,3.023,3.023,0,0,0,.134-.916l-.056-6.944,2.235-.352.081,7.441a4.455,4.455,0,0,1-.245,1.57,3.7,3.7,0,0,1-.757,1.263,4.192,4.192,0,0,1-1.242.913A5.835,5.835,0,0,1,6050.073,3237.235Z" transform="translate(-6044.981 -3225.53)"/></g><g transform="translate(94.715 7.819)"><path class="b" d="M6125.37,3224.38a1.654,1.654,0,0,0,.394.573,2.02,2.02,0,0,0,.591.388,2.6,2.6,0,0,0,.737.191,3.1,3.1,0,0,0,.839-.023,3.179,3.179,0,0,0,.8-.229,1.9,1.9,0,0,0,.572-.38,1.219,1.219,0,0,0,.312-.5,1.116,1.116,0,0,0-.168-.98,1.222,1.222,0,0,0-.359-.307,2.337,2.337,0,0,0-.565-.226,6.176,6.176,0,0,0-.8-.155l-1.185-.165a5.065,5.065,0,0,1-1.158-.293,3.6,3.6,0,0,1-.922-.517,2.969,2.969,0,0,1-.664-.725,2.883,2.883,0,0,1-.385-.919,2.8,2.8,0,0,1,.012-1.367,2.95,2.95,0,0,1,.636-1.177,3.951,3.951,0,0,1,1.165-.89,5.194,5.194,0,0,1,1.6-.509,5.369,5.369,0,0,1,1.659-.015,4.347,4.347,0,0,1,1.414.46,3.619,3.619,0,0,1,1.075.881,3.245,3.245,0,0,1,.639,1.248l-2.094.33a1.806,1.806,0,0,0-.361-.558,1.847,1.847,0,0,0-.542-.392,2.209,2.209,0,0,0-.683-.2,2.747,2.747,0,0,0-.785.016,2.618,2.618,0,0,0-.7.208,1.8,1.8,0,0,0-.519.354,1.189,1.189,0,0,0-.293.463.963.963,0,0,0-.021.529,1.139,1.139,0,0,0,.511.7,2.983,2.983,0,0,0,1.223.382l1.168.159a6.9,6.9,0,0,1,1.283.295,3.663,3.663,0,0,1,.963.488,2.546,2.546,0,0,1,.662.7,3.019,3.019,0,0,1,.38.934,3.071,3.071,0,0,1,.014,1.464,2.914,2.914,0,0,1-.647,1.235,3.938,3.938,0,0,1-1.235.923,6.057,6.057,0,0,1-1.75.534,5.984,5.984,0,0,1-1.717.038,4.415,4.415,0,0,1-1.455-.437,3.48,3.48,0,0,1-1.109-.886,3.724,3.724,0,0,1-.688-1.309Z" transform="translate(-6123.213 -3216.099)"/></g><g transform="translate(104.454 6.1)"><path class="b" d="M6187.482,3216.787l-7.065,1.12-.213-10.765,7.006-1.1.061,1.908-4.783.753.029,2.509,4.526-.714.051,1.779-4.525.715.031,2.628,4.813-.762Z" transform="translate(-6180.204 -3206.04)"/></g><g transform="translate(112.653 4.868)"><path class="b" d="M6238.088,3204.774a6.42,6.42,0,0,1-.185,2.011,4.325,4.325,0,0,1-.76,1.562,4.074,4.074,0,0,1-1.313,1.088,5.838,5.838,0,0,1-1.841.59,5.364,5.364,0,0,1-1.916-.024,4.493,4.493,0,0,1-1.635-.674,4.618,4.618,0,0,1-1.246-1.253,5.357,5.357,0,0,1-.761-1.758,8.288,8.288,0,0,1-.247-1.846,6.578,6.578,0,0,1,.174-1.665,5.405,5.405,0,0,1,.563-1.436,4.814,4.814,0,0,1,2.163-2,5.613,5.613,0,0,1,1.545-.466,5.351,5.351,0,0,1,1.709,0,4.947,4.947,0,0,1,1.519.5,4.128,4.128,0,0,1,1.182.924,3.224,3.224,0,0,1,.694,1.267.635.635,0,0,1,.032.11c.008.042.017.083.026.126l-2.152.339a1.742,1.742,0,0,0-.368-.649,2.011,2.011,0,0,0-.6-.455,2.49,2.49,0,0,0-.789-.233,3.173,3.173,0,0,0-.912.017,2.63,2.63,0,0,0-1.262.545,3.037,3.037,0,0,0-.848,1.09,4.226,4.226,0,0,0-.367,1.513,5.907,5.907,0,0,0,.177,1.811,3.566,3.566,0,0,0,.437,1.062,2.725,2.725,0,0,0,.684.75,2.355,2.355,0,0,0,.888.4,2.757,2.757,0,0,0,1.041.022,3.163,3.163,0,0,0,.937-.295,2.382,2.382,0,0,0,.709-.533,2.237,2.237,0,0,0,.572-1.6l-.008-.186-2.256.356-.057-1.681,4.416-.7Z" transform="translate(-6228.184 -3198.833)"/></g><g transform="translate(123.754 2.768)"><path class="b" d="M6298.514,3198.145a5.829,5.829,0,0,1-1.814.024,4.3,4.3,0,0,1-1.483-.5,3.622,3.622,0,0,1-1.091-.946,3.537,3.537,0,0,1-.628-1.31q-.054-.216-.091-.45a4.219,4.219,0,0,1-.042-.472l-.226-6.547,2.227-.35.23,6.492a3.314,3.314,0,0,0,.105.747,1.759,1.759,0,0,0,.854,1.13,2.436,2.436,0,0,0,1.592.206,2.588,2.588,0,0,0,.825-.27,1.989,1.989,0,0,0,.608-.5,2.015,2.015,0,0,0,.367-.713,2.905,2.905,0,0,0,.106-.908l-.26-6.881,2.216-.348.3,7.374a4.367,4.367,0,0,1-.2,1.556,3.512,3.512,0,0,1-.718,1.25,3.955,3.955,0,0,1-1.209.905A5.713,5.713,0,0,1,6298.514,3198.145Z" transform="translate(-6293.139 -3186.545)"/></g><g transform="translate(134.395 1.779)"><path class="b" d="M6355.407,3181.467l4.159-.654a4.163,4.163,0,0,1,1.389,0,3.56,3.56,0,0,1,1.2.436,3.235,3.235,0,0,1,.922.814,3.194,3.194,0,0,1,.553,1.138,3.407,3.407,0,0,1,.109,1.128,3.258,3.258,0,0,1-.259,1.057,3.206,3.206,0,0,1-.613.92,3.518,3.518,0,0,1-.942.709l2.51,3.782-2.383.377-2.248-3.562-1.888.3.159,3.894-2.23.354Zm2.418,4.73,1.93-.3a2.633,2.633,0,0,0,.846-.271,1.805,1.805,0,0,0,.585-.48,1.463,1.463,0,0,0,.289-.637,1.7,1.7,0,0,0-.04-.752,1.469,1.469,0,0,0-.675-.948,1.841,1.841,0,0,0-1.238-.176l-1.81.285Z" transform="translate(-6355.407 -3180.756)"/></g><g transform="translate(143.693 0)"><path class="b" d="M6415.838,3181.45a5.324,5.324,0,0,1-1.972-.037,4.945,4.945,0,0,1-1.686-.7,4.882,4.882,0,0,1-1.295-1.252,5.18,5.18,0,0,1-.79-1.695,8.051,8.051,0,0,1-.278-1.831,6.734,6.734,0,0,1,.148-1.652,5.174,5.174,0,0,1,.543-1.425,4.864,4.864,0,0,1,.9-1.152,4.716,4.716,0,0,1,1.217-.831,5.67,5.67,0,0,1,3.472-.425,4.757,4.757,0,0,1,2.947,1.927,5.292,5.292,0,0,1,.791,1.684,8.109,8.109,0,0,1,.294,1.829,6.444,6.444,0,0,1-.136,1.659,5.355,5.355,0,0,1-.534,1.435,4.743,4.743,0,0,1-.893,1.16,4.808,4.808,0,0,1-1.219.838A5.359,5.359,0,0,1,6415.838,3181.45Zm1.782-6.865a3.558,3.558,0,0,0-.461-1.039,2.9,2.9,0,0,0-.7-.746,2.473,2.473,0,0,0-.885-.409,2.691,2.691,0,0,0-2.259.512,2.967,2.967,0,0,0-.834,1.092,4.23,4.23,0,0,0-.354,1.5,5.483,5.483,0,0,0,.193,1.761,3.541,3.541,0,0,0,.461,1.047,2.878,2.878,0,0,0,.7.749,2.458,2.458,0,0,0,.892.413,2.628,2.628,0,0,0,1.029.031,2.573,2.573,0,0,0,1.248-.546,2.966,2.966,0,0,0,.831-1.092,4.127,4.127,0,0,0,.347-1.5A5.579,5.579,0,0,0,6417.62,3174.585Z" transform="translate(-6409.814 -3170.347)"/></g><g transform="translate(0 40.498)"><path class="b" d="M5572.127,3419.63l-3.151-10.694,2.437-.388,2.124,8.188.138-.021,2.841-8.979,2.575-.411-4.174,11.858Z" transform="translate(-5568.976 -3407.324)"/></g><g transform="translate(10.701 39.172)"><path class="b" d="M5638.891,3410.818l-7.3,1.17.5-11.268,7.233-1.152-.064,2-4.938.789-.138,2.625,4.675-.747-.067,1.862-4.673.747-.144,2.752,4.972-.8Z" transform="translate(-5631.593 -3399.568)"/></g><g transform="translate(19.625 37.403)"><path class="b" d="M5691.051,3400.811l.164-4.714-4.915.786-.18,4.719-2.307.37.431-11.247,2.3-.366-.176,4.515,4.908-.784.16-4.51,2.294-.366-.359,11.224Z" transform="translate(-5683.813 -3389.215)"/></g><g transform="translate(31.056 36.742)"><path class="b" d="M5750.7,3396.93l.344-11.219,2.291-.365-.325,11.214Z" transform="translate(-5750.704 -3385.345)"/></g><g transform="translate(34.894 35.419)"><path class="b" d="M5780.943,3381.321a2.219,2.219,0,0,0-.351-.783,2.017,2.017,0,0,0-.594-.552,2.245,2.245,0,0,0-.793-.289,2.868,2.868,0,0,0-.938,0,2.765,2.765,0,0,0-1.312.575,3.439,3.439,0,0,0-.929,1.157,4.851,4.851,0,0,0-.467,1.6,6.138,6.138,0,0,0,.074,1.9,3.651,3.651,0,0,0,.377,1.1,2.517,2.517,0,0,0,.636.774,2.2,2.2,0,0,0,.851.419,2.557,2.557,0,0,0,1.028.029,3.157,3.157,0,0,0,.867-.267,2.7,2.7,0,0,0,.708-.482,2.6,2.6,0,0,0,.5-.654,2.374,2.374,0,0,0,.256-.786l2.261-.362a4.561,4.561,0,0,1-.333,1.654,4.38,4.38,0,0,1-.894,1.372,5.01,5.01,0,0,1-1.382,1.008,6.149,6.149,0,0,1-1.8.565,5.242,5.242,0,0,1-1.931-.026,4.219,4.219,0,0,1-1.6-.692,4.29,4.29,0,0,1-1.181-1.292,5.392,5.392,0,0,1-.669-1.829,8.277,8.277,0,0,1-.065-2.831,6.4,6.4,0,0,1,.844-2.357,5.537,5.537,0,0,1,1.629-1.708,5.6,5.6,0,0,1,2.3-.884,5.231,5.231,0,0,1,1.789.011,4.557,4.557,0,0,1,1.541.572,3.947,3.947,0,0,1,1.152,1.049,3.52,3.52,0,0,1,.621,1.437c.011.055.021.108.031.161a1.036,1.036,0,0,1,.017.163l-2.218.354Z" transform="translate(-5773.167 -3377.609)"/></g><g transform="translate(46.198 33.273)"><path class="b" d="M5844.364,3377.15a5.817,5.817,0,0,1-1.854.025,4.112,4.112,0,0,1-1.486-.523,3.471,3.471,0,0,1-1.062-.988,3.524,3.524,0,0,1-.567-1.367c-.028-.15-.051-.307-.067-.469a3.951,3.951,0,0,1-.017-.493l.132-6.83,2.291-.365-.122,6.773a3.374,3.374,0,0,0,.065.779,1.7,1.7,0,0,0,.811,1.18,2.379,2.379,0,0,0,1.611.215,2.7,2.7,0,0,0,.857-.28,2.2,2.2,0,0,0,.648-.523,2.282,2.282,0,0,0,.415-.745,3.2,3.2,0,0,0,.159-.946l.114-7.178,2.281-.363-.1,7.692a4.748,4.748,0,0,1-.287,1.623,3.968,3.968,0,0,1-.8,1.3,4.395,4.395,0,0,1-1.285.944A5.983,5.983,0,0,1,5844.364,3377.15Z" transform="translate(-5839.31 -3365.05)"/></g><g transform="translate(57.139 32.621)"><path class="b" d="M5910.461,3371.611l-7.129,1.144.144-11.158,2.272-.362-.118,9.109,4.833-.774Z" transform="translate(-5903.332 -3361.235)"/></g><g transform="translate(64.794 30.746)"><path class="b" d="M5955.2,3358.626l-3.83.613-.865,2.806-2.377.381,3.927-11.751,2.61-.416,3.685,10.527-2.342.375Zm-3.336-1.267,2.863-.458-1.32-4.136-.143.023Z" transform="translate(-5948.126 -3350.259)"/></g><g transform="translate(76.111 29.246)"><path class="b" d="M6014.351,3342.223l4.265-.68a4.16,4.16,0,0,1,1.414,0,3.5,3.5,0,0,1,1.206.454,3.121,3.121,0,0,1,.9.846,3.181,3.181,0,0,1,.517,1.183,3.549,3.549,0,0,1,.064,1.171,3.5,3.5,0,0,1-.97,2.055,3.839,3.839,0,0,1-.991.737l2.4,3.929-2.442.393-2.143-3.7-1.937.31,0,4.046-2.289.367Zm2.268,4.915,1.979-.317a2.745,2.745,0,0,0,.872-.281,1.989,1.989,0,0,0,.616-.5,1.611,1.611,0,0,0,.32-.661,1.813,1.813,0,0,0-.009-.783,1.449,1.449,0,0,0-.649-.984,1.8,1.8,0,0,0-1.254-.183l-1.854.3Z" transform="translate(-6014.351 -3341.485)"/></g><g transform="translate(88.335 26.486)"><path class="b" d="M6089.751,3337.364l-.038-4.1-3.833-6.382,2.355-.375,2.476,4.251.135-.022,2.311-5.014,2.455-.392-3.634,7.662.054,4Z" transform="translate(-6085.88 -3325.336)"/></g><g transform="translate(102.304 25.453)"><path class="b" d="M6174.887,3329.562l-7.062,1.134-.2-11.051,2.251-.359.163,9.023,4.788-.768Z" transform="translate(-6167.624 -3319.286)"/></g><g transform="translate(110.594 24.132)"><path class="b" d="M6223.449,3321.819l-7.051,1.131-.264-11.031,2.247-.358.214,9.007,4.78-.766Z" transform="translate(-6216.135 -3311.561)"/></g><g transform="translate(118.87 22.045)"><path class="b" d="M6272.024,3310.34l-7.136,1.146-.327-11.012,7.075-1.127.081,1.952-4.83.77.057,2.566,4.571-.73.068,1.82-4.569.731.059,2.689,4.861-.779Z" transform="translate(-6264.562 -3299.347)"/></g><g transform="translate(126.77 20.344)"><path class="b" d="M6314.815,3301.372l-4.028-10.408,2.373-.378,2.8,7.969.134-.021,2.037-8.74,2.51-.4-3.108,11.542Z" transform="translate(-6310.787 -3289.394)"/></g><g transform="translate(137.385 19.284)"><path class="b" d="M6379.74,3291.428l-3.773.6-.721,2.763-2.341.375,3.319-11.571,2.571-.41,4.178,10.365-2.307.371Zm-3.375-1.247,2.82-.452-1.515-4.073-.141.023Z" transform="translate(-6372.905 -3283.189)"/></g><g transform="translate(147.369 17.264)"><path class="b" d="M6435.072,3283.166l-.452-9-3.184.508-.11-1.943,8.592-1.368.121,1.938-3.18.508.465,8.991Z" transform="translate(-6431.326 -3271.367)"/></g><g transform="translate(157.154 15.955)"><path class="b" d="M6496.282,3274.614l-7.079,1.136-.616-10.921,7.019-1.118.134,1.936-4.792.765.122,2.545,4.536-.725.116,1.805-4.533.725.13,2.667,4.822-.773Z" transform="translate(-6488.586 -3263.711)"/></g></g><g transform="translate(5184.29 3190.42)"><g transform="translate(0)"><path class="a" d="M5721.638,3508.135l3.1-.524,1.771,21.559-3.125.6-.106-1.318a6.923,6.923,0,0,1-4.058,2.479,5.755,5.755,0,0,1-4.812-1.015,6.057,6.057,0,0,1-2.221-4.5,7.159,7.159,0,0,1,1.484-5.054,6.864,6.864,0,0,1,4.429-2.71,5.547,5.547,0,0,1,4.388,1.038Zm-6.208,16.683a3.781,3.781,0,0,0,1.283,2.761,3.269,3.269,0,0,0,2.806.645,4.233,4.233,0,0,0,2.722-1.639,4.5,4.5,0,0,0,.834-3.108,3.717,3.717,0,0,0-1.3-2.708,3.413,3.413,0,0,0-2.865-.616,4.083,4.083,0,0,0-2.621,1.623A4.405,4.405,0,0,0,5715.43,3524.818Z" transform="translate(-5712.165 -3507.611)"/><g transform="translate(17.063 6.13)"><path class="a" d="M5821.841,3544.018l3.011-.535,1.1,12.26-3.023.575-.114-1.294a6.788,6.788,0,0,1-3.884,2.417,5.586,5.586,0,0,1-4.7-1,6.05,6.05,0,0,1-2.188-4.421,7.044,7.044,0,0,1,1.4-4.972,6.606,6.606,0,0,1,4.281-2.64,5.346,5.346,0,0,1,4.247,1.033Zm-6.666,7.421a3.784,3.784,0,0,0,1.267,2.715,3.159,3.159,0,0,0,2.722.641,4.044,4.044,0,0,0,2.625-1.6,4.435,4.435,0,0,0,.781-3.05,3.711,3.711,0,0,0-1.282-2.664,3.293,3.293,0,0,0-2.783-.613,3.888,3.888,0,0,0-2.524,1.587A4.334,4.334,0,0,0,5815.176,3551.438Z" transform="translate(-5812.013 -3543.482)"/></g><g transform="translate(11.997 0)"><path class="a" d="M5782.945,3507.611l1.578,1.018-.655.983-1.5-.312Z" transform="translate(-5782.367 -3507.611)"/></g><g transform="translate(29.122 6.13)"><path class="a" d="M5883.356,3543.481l1.579,1.018-.815,1.586-1.54-.193,0-.206Z" transform="translate(-5882.575 -3543.481)"/></g><g transform="translate(1.579 1.017)"><path class="c" d="M5730.877,3514.089l3.1-.524,1.771,21.559-3.125.595-.106-1.317a6.928,6.928,0,0,1-4.058,2.479,5.756,5.756,0,0,1-4.812-1.014,6.052,6.052,0,0,1-2.22-4.5,7.157,7.157,0,0,1,1.484-5.054,6.869,6.869,0,0,1,4.429-2.71,5.553,5.553,0,0,1,4.388,1.038Zm-6.208,16.683a3.78,3.78,0,0,0,1.283,2.761,3.272,3.272,0,0,0,2.806.646,4.239,4.239,0,0,0,2.722-1.64,4.506,4.506,0,0,0,.833-3.107,3.718,3.718,0,0,0-1.3-2.709,3.414,3.414,0,0,0-2.867-.616,4.08,4.08,0,0,0-2.62,1.624A4.4,4.4,0,0,0,5724.669,3530.772Z" transform="translate(-5721.404 -3513.565)"/><g transform="translate(17.063 6.13)"><path class="c" d="M5831.082,3549.971l3.01-.536,1.1,12.26-3.023.575-.113-1.294a6.794,6.794,0,0,1-3.885,2.418,5.588,5.588,0,0,1-4.7-1,6.049,6.049,0,0,1-2.188-4.422,7.052,7.052,0,0,1,1.4-4.971,6.609,6.609,0,0,1,4.282-2.64,5.344,5.344,0,0,1,4.246,1.034Zm-6.665,7.421a3.78,3.78,0,0,0,1.265,2.715,3.161,3.161,0,0,0,2.723.641,4.04,4.04,0,0,0,2.625-1.6,4.438,4.438,0,0,0,.782-3.05,3.715,3.715,0,0,0-1.282-2.664,3.292,3.292,0,0,0-2.783-.613,3.889,3.889,0,0,0-2.525,1.587A4.325,4.325,0,0,0,5824.417,3557.392Z" transform="translate(-5821.252 -3549.435)"/></g></g></g><g transform="translate(5.136 23.341)"><g transform="translate(27.38)"><path class="a" d="M5904.2,3644.2l1.269,1.184-.6,1.346-2.423-.227.256-1.32Z" transform="translate(-5902.439 -3644.196)"/></g><g transform="translate(0 0.02)"><g transform="translate(0 0)"><rect class="a" width="29.493" height="2.393" transform="matrix(0.988, -0.154, 0.154, 0.988, 0, 4.538)"/></g><g transform="translate(0.377 6.023)"><path class="a" d="M5744.427,3680.435l1.107,1.336.249-.681.205-1.484-.733-.048Z" transform="translate(-5744.427 -3679.558)"/></g><g transform="translate(1.102 1.317)"><rect class="c" width="29.493" height="2.393" transform="matrix(0.988, -0.154, 0.154, 0.988, 0, 4.538)"/></g></g></g></g><g transform="translate(5229.045 3168.09)"><g transform="translate(0 22.739)"><path class="c" d="M5998.492,3520.525a8.886,8.886,0,0,0-7.781-2.2,9.685,9.685,0,0,0-3.463,1.313,9.36,9.36,0,0,0-2.56,2.333,9.054,9.054,0,0,0-1.7,6.608,8.6,8.6,0,0,0,1.117,3.329,7.907,7.907,0,0,0,2.2,2.411,8.309,8.309,0,0,0,3,1.344,8.862,8.862,0,0,0,3.527.076,10.727,10.727,0,0,0,6.923-4.57l1.144,9.612-.831.431a27.43,27.43,0,0,1-3.509,1.563,18.947,18.947,0,0,1-3.27.853,17.3,17.3,0,0,1-6.543-.146,16.066,16.066,0,0,1-10.215-7.052,15.291,15.291,0,0,1-2.308-6.362,16.12,16.12,0,0,1,.476-6.872,17.882,17.882,0,0,1,3.024-5.922,18.773,18.773,0,0,1,5.018-4.478,18.835,18.835,0,0,1,10.37-2.784,23.489,23.489,0,0,1,4.188.525Z" transform="translate(-5974.059 -3510.001)"/></g><g transform="translate(26.429 16.438)"><path class="c" d="M6137.457,3476.98l1.936,17.577q.154,1.4.424,2.832a7.155,7.155,0,0,0,.951,2.516,4.1,4.1,0,0,0,1.954,1.613,6.347,6.347,0,0,0,3.443.165,6.77,6.77,0,0,0,3.28-1.3,5.168,5.168,0,0,0,1.565-2.221,7.588,7.588,0,0,0,.424-2.769q-.037-1.485-.178-2.894l-1.793-17.725,8.906-1.639,1.8,18.992q.71,7.517-2.58,11.53-3.265,4-10.661,5.212-7.352,1.213-11.262-1.555c-2.615-1.844-4.208-5.208-4.78-10.118l-2.17-18.6Z" transform="translate(-6128.714 -3473.133)"/></g><g transform="translate(60.927 10.876)"><path class="c" d="M6330.657,3461.976a17.106,17.106,0,0,1,.8-7.037,19.426,19.426,0,0,1,3.462-6.257,21.194,21.194,0,0,1,5.787-4.858,24.015,24.015,0,0,1,7.792-2.817,21.994,21.994,0,0,1,8.052-.094,16.828,16.828,0,0,1,6.572,2.647,14.8,14.8,0,0,1,4.5,4.926,15.371,15.371,0,0,1,1.922,6.7,17.334,17.334,0,0,1-1.03,7.146,19.506,19.506,0,0,1-3.709,6.2,21.631,21.631,0,0,1-5.931,4.674,24.038,24.038,0,0,1-7.669,2.588,21.793,21.793,0,0,1-7.828-.021,16.574,16.574,0,0,1-6.3-2.592,14.946,14.946,0,0,1-4.392-4.731A15.307,15.307,0,0,1,6330.657,3461.976Zm9.392-1.639a7.792,7.792,0,0,0,1.087,3.458,8,8,0,0,0,2.354,2.483,8.738,8.738,0,0,0,3.261,1.344,10.408,10.408,0,0,0,3.817.029,11.661,11.661,0,0,0,6.758-3.738,10.416,10.416,0,0,0,1.971-3.252,8.812,8.812,0,0,0,.541-3.779,7.811,7.811,0,0,0-1.061-3.521,7.905,7.905,0,0,0-2.4-2.532,9.054,9.054,0,0,0-3.344-1.356,10.441,10.441,0,0,0-3.879,0,11.514,11.514,0,0,0-3.755,1.369,11.226,11.226,0,0,0-2.983,2.476,10.492,10.492,0,0,0-1.889,3.268A8.77,8.77,0,0,0,6340.049,3460.337Z" transform="translate(-6330.581 -3440.586)"/></g><g transform="translate(98.577 3.97)"><path class="c" d="M6568.627,3409.212l1.332,26.2-9.343,1.545-1.5-26.034-7.742,1.393-.476-7.493,25.28-4.651.344,7.621Z" transform="translate(-6550.895 -3400.172)"/></g><g transform="translate(122.011 0)"><path class="c" d="M6713.931,3405.25l-13.818,2.33-1.97,6.178-10.115,1.673,12.646-36.5,10.775-1.982,15.31,32.081-10.431,1.725Zm-2.785-6.289-4.756-10.693-3.971,12.2Z" transform="translate(-6688.027 -3376.943)"/></g><g transform="translate(2.172 61.759)"><path class="c" d="M6003.462,3752.744l16.564-2.543a39.962,39.962,0,0,1,.282,4.381,14.755,14.755,0,0,1-2.391,8.206,14.462,14.462,0,0,1-3.225,3.49,18.1,18.1,0,0,1-4.26,2.451,21.04,21.04,0,0,1-5.022,1.35,19.141,19.141,0,0,1-6.81-.159,15.057,15.057,0,0,1-5.564-2.388,14.113,14.113,0,0,1-4.008-4.368,16.2,16.2,0,0,1-2.077-6.13,16.775,16.775,0,0,1,.3-6.515,14.492,14.492,0,0,1,2.691-5.5,16.34,16.34,0,0,1,4.882-4.09,20.59,20.59,0,0,1,6.844-2.3,18.153,18.153,0,0,1,9.11.638,13.909,13.909,0,0,1,6.819,5.425l-7.6,4.333a7.372,7.372,0,0,0-3.311-3.11,7.474,7.474,0,0,0-4.15-.449,8.717,8.717,0,0,0-3.3,1.192,7.637,7.637,0,0,0-2.346,2.276,9.128,9.128,0,0,0-1.293,3.17,11.287,11.287,0,0,0-.1,3.87,11.14,11.14,0,0,0,.986,3.4,7.54,7.54,0,0,0,1.928,2.533,6.929,6.929,0,0,0,2.819,1.426,9.366,9.366,0,0,0,3.679.112,10.922,10.922,0,0,0,2.315-.6,6.731,6.731,0,0,0,1.938-1.122,5.078,5.078,0,0,0,1.316-1.691,5.818,5.818,0,0,0,.534-2.321l-6.789,1.018Z" transform="translate(-5986.768 -3738.334)"/></g><g transform="translate(37.113 57.296)"><path class="c" d="M6221.756,3740.865l-10.666,1.534-9.3-10.342,1.213,11.505-8.4,1.208-3.374-30.165,13.383-2.159a14.034,14.034,0,0,1,4.952-.02,8.933,8.933,0,0,1,3.649,1.537,8.039,8.039,0,0,1,2.339,2.73,9.566,9.566,0,0,1,1.036,3.594,8.994,8.994,0,0,1-1.3,5.979,10.147,10.147,0,0,1-5.109,3.751Zm-20.5-13.91,1.613-.247a6.992,6.992,0,0,0,3.795-1.569,3.443,3.443,0,0,0,1.079-3.016,3.076,3.076,0,0,0-1.647-2.6,6.5,6.5,0,0,0-4.012-.365l-1.622.255Z" transform="translate(-6191.23 -3712.217)"/></g><g transform="translate(65.882 51.83)"><path class="c" d="M6382.932,3705.868l-12.578,1.847-1.558,5.559-9.22,1.326,10.135-32.788,9.79-1.579,15.342,29.294-9.488,1.365Zm-2.811-5.744-4.794-9.76-3.146,10.953Z" transform="translate(-6359.576 -3680.232)"/></g><g transform="translate(95.937 46.256)"><path class="c" d="M6552.6,3655.968l1.349,24.606-9.031,1.3-1.51-24.459-7.483,1.178-.474-7.036,24.42-3.939.351,7.151Z" transform="translate(-6535.448 -3647.617)"/></g><g transform="translate(122.127 44.449)"><path class="c" d="M6698.132,3637.045l1.308,32.113-9.215,1.325-1.524-31.917Z" transform="translate(-6688.7 -3637.045)"/></g><g transform="translate(136.265 40.329)"><path class="c" d="M6792.506,3621.436a10.643,10.643,0,0,0-3.2-1.191,8.945,8.945,0,0,0-3.065-.065,6.056,6.056,0,0,0-3.02,1.266,2.749,2.749,0,0,0-1.115,2.232,1.673,1.673,0,0,0,.629,1.342,4.379,4.379,0,0,0,1.565.736,12.841,12.841,0,0,0,2.171.383q1.207.119,2.394.284,4.748.663,6.988,2.651a7.4,7.4,0,0,1,2.3,5.7,11.173,11.173,0,0,1-.875,4.644,11.338,11.338,0,0,1-2.717,3.834,15.623,15.623,0,0,1-4.416,2.844,23.844,23.844,0,0,1-18.714-.1l3.768-7.243a14.533,14.533,0,0,0,4.26,1.837,10.8,10.8,0,0,0,4.12.2,6.007,6.007,0,0,0,3.433-1.444,3.133,3.133,0,0,0,1.087-2.3,2.127,2.127,0,0,0-1.323-2.056,7.2,7.2,0,0,0-1.8-.569q-1.1-.221-2.668-.458-1.857-.235-3.641-.589a10.3,10.3,0,0,1-3.193-1.171,6.6,6.6,0,0,1-2.308-2.253,7.724,7.724,0,0,1-.99-3.849,11.2,11.2,0,0,1,.733-4.535,11.7,11.7,0,0,1,2.408-3.8,13.828,13.828,0,0,1,3.936-2.86,18.4,18.4,0,0,1,5.313-1.655,25.76,25.76,0,0,1,5.806-.25,24.992,24.992,0,0,1,5.861,1.081Z" transform="translate(-6771.436 -3612.935)"/></g></g><path class="b" d="M6278.9,3280.362l2.289-.31.918-2.725-2.139.19Z" transform="translate(-997.758 -126.261)"/></g></svg>