<svg xmlns="http://www.w3.org/2000/svg" width="66.665" height="31.246" viewBox="0 0 66.665 31.246"><defs><style>.a{fill:#ea0c90;}.b{fill:#ffd527;}.c{fill:#fff;}</style></defs><g transform="matrix(0.998, 0.07, -0.07, 0.998, -4855.178, -3482.995)"><g transform="translate(5113.69 3136.923)"><g transform="translate(0 5.422)"><path class="a" d="M5950.34,3510.067a2.118,2.118,0,0,0-1.855-.525,2.3,2.3,0,0,0-.825.313,2.215,2.215,0,0,0-.61.556,2.162,2.162,0,0,0-.405,1.576,2.044,2.044,0,0,0,.267.793,1.889,1.889,0,0,0,.524.575,1.985,1.985,0,0,0,.716.321,2.118,2.118,0,0,0,.841.018,2.559,2.559,0,0,0,1.65-1.09l.273,2.292-.2.1a6.573,6.573,0,0,1-.836.373,4.563,4.563,0,0,1-.781.2,4.12,4.12,0,0,1-1.56-.035,3.836,3.836,0,0,1-2.436-1.681,3.627,3.627,0,0,1-.55-1.517,3.833,3.833,0,0,1,.112-1.639,4.292,4.292,0,0,1,.722-1.412,4.5,4.5,0,0,1,3.669-1.731,5.606,5.606,0,0,1,1,.125Z" transform="translate(-5944.514 -3507.558)"/></g><g transform="translate(6.302 3.92)"><path class="a" d="M6101.254,3471.606l.46,4.191c.024.222.059.447.1.675a1.688,1.688,0,0,0,.228.6.969.969,0,0,0,.466.385,1.508,1.508,0,0,0,.82.039,1.614,1.614,0,0,0,.782-.311,1.23,1.23,0,0,0,.373-.529,1.806,1.806,0,0,0,.1-.66q-.01-.354-.043-.69l-.428-4.227,2.123-.391.429,4.528a3.668,3.668,0,0,1-.615,2.75,3.988,3.988,0,0,1-2.542,1.243,3.573,3.573,0,0,1-2.686-.371,3.25,3.25,0,0,1-1.14-2.413l-.518-4.437Z" transform="translate(-6099.168 -3470.689)"/></g><g transform="translate(14.528 2.593)"><path class="a" d="M6301.054,3443.242a4.072,4.072,0,0,1,.19-1.677,4.63,4.63,0,0,1,.826-1.493,5.045,5.045,0,0,1,1.379-1.158,5.713,5.713,0,0,1,1.858-.672,5.236,5.236,0,0,1,1.919-.022,3.991,3.991,0,0,1,1.567.631,3.517,3.517,0,0,1,1.073,1.174,3.646,3.646,0,0,1,.458,1.6,4.107,4.107,0,0,1-.246,1.7,4.655,4.655,0,0,1-.884,1.479,5.157,5.157,0,0,1-1.415,1.115,5.745,5.745,0,0,1-1.829.617,5.193,5.193,0,0,1-1.866-.006,3.941,3.941,0,0,1-1.5-.618,3.554,3.554,0,0,1-1.047-1.128A3.663,3.663,0,0,1,6301.054,3443.242Zm2.24-.391a1.854,1.854,0,0,0,.259.825,1.909,1.909,0,0,0,.561.593,2.088,2.088,0,0,0,.777.32,2.477,2.477,0,0,0,.911.007,2.777,2.777,0,0,0,1.611-.892,2.474,2.474,0,0,0,.47-.775,2.1,2.1,0,0,0,.129-.9,1.859,1.859,0,0,0-.252-.839,1.881,1.881,0,0,0-.573-.6,2.141,2.141,0,0,0-.8-.324,2.489,2.489,0,0,0-.924,0,2.731,2.731,0,0,0-.9.327,2.667,2.667,0,0,0-.712.59,2.521,2.521,0,0,0-.45.779A2.091,2.091,0,0,0,6303.294,3442.851Z" transform="translate(-6301.036 -3438.142)"/></g><g transform="translate(23.506 0.947)"><path class="a" d="M6525.578,3399.884l.317,6.247-2.227.369-.359-6.208-1.847.332-.113-1.787,6.028-1.109.081,1.818Z" transform="translate(-6521.35 -3397.728)"/></g><g transform="translate(29.094 0)"><path class="a" d="M6664.659,3381.249l-3.295.555-.471,1.473-2.411.4,3.016-8.7,2.569-.473,3.651,7.65-2.488.412Zm-.664-1.5-1.135-2.549-.946,2.908Z" transform="translate(-6658.482 -3374.499)"/></g><g transform="translate(0.518 14.726)"><path class="a" d="M5961.2,3739.327l3.95-.607a9.962,9.962,0,0,1,.068,1.045,3.541,3.541,0,0,1-.106.89,3.5,3.5,0,0,1-.465,1.066,3.432,3.432,0,0,1-.769.832,4.291,4.291,0,0,1-1.016.584,4.972,4.972,0,0,1-1.2.322,4.569,4.569,0,0,1-1.624-.037,3.585,3.585,0,0,1-1.327-.569,3.37,3.37,0,0,1-.956-1.042,3.868,3.868,0,0,1-.5-1.462,4.006,4.006,0,0,1,.071-1.554,3.467,3.467,0,0,1,.642-1.312,3.908,3.908,0,0,1,1.164-.975,4.91,4.91,0,0,1,1.632-.548,4.32,4.32,0,0,1,2.172.152,3.319,3.319,0,0,1,1.626,1.293l-1.812,1.034a1.759,1.759,0,0,0-.79-.742,1.781,1.781,0,0,0-.989-.106,2.062,2.062,0,0,0-.787.284,1.812,1.812,0,0,0-.56.543,2.186,2.186,0,0,0-.308.755,2.681,2.681,0,0,0-.024.923,2.644,2.644,0,0,0,.234.812,1.815,1.815,0,0,0,.46.6,1.637,1.637,0,0,0,.672.34,2.222,2.222,0,0,0,.877.027,2.6,2.6,0,0,0,.552-.143,1.593,1.593,0,0,0,.462-.267,1.227,1.227,0,0,0,.314-.4,1.377,1.377,0,0,0,.126-.553l-1.619.243Z" transform="translate(-5957.223 -3735.89)"/></g><g transform="translate(8.85 13.662)"><path class="a" d="M6168.961,3716.6l-2.542.366-2.218-2.466.289,2.744-2,.288-.8-7.193,3.191-.515a3.339,3.339,0,0,1,1.181,0,2.134,2.134,0,0,1,.87.366,1.913,1.913,0,0,1,.558.651,2.25,2.25,0,0,1,.247.857,2.137,2.137,0,0,1-.311,1.426,2.416,2.416,0,0,1-1.218.895Zm-4.888-3.317.385-.059a1.674,1.674,0,0,0,.9-.374.819.819,0,0,0,.257-.719.732.732,0,0,0-.393-.621,1.549,1.549,0,0,0-.957-.087l-.386.061Z" transform="translate(-6161.683 -3709.773)"/></g><g transform="translate(15.71 12.359)"><path class="a" d="M6335.6,3683.9l-3,.44-.372,1.326-2.2.316,2.416-7.818,2.335-.377,3.658,6.985-2.262.326Zm-.669-1.369-1.143-2.328-.75,2.612Z" transform="translate(-6330.03 -3677.788)"/></g><g transform="translate(22.876 11.03)"><path class="a" d="M6509.992,3647.166l.321,5.867-2.154.31-.36-5.832-1.784.281-.113-1.678,5.823-.939.083,1.706Z" transform="translate(-6505.903 -3645.174)"/></g><g transform="translate(29.121 10.599)"><path class="a" d="M6661.4,3634.6l.313,7.658-2.2.316-.363-7.611Z" transform="translate(-6659.154 -3634.601)"/></g><g transform="translate(32.493 9.616)"><path class="a" d="M6746.914,3612.517a2.552,2.552,0,0,0-.762-.284,2.15,2.15,0,0,0-.731-.016,1.443,1.443,0,0,0-.72.3.654.654,0,0,0-.266.532.392.392,0,0,0,.15.319,1.028,1.028,0,0,0,.373.176,2.992,2.992,0,0,0,.517.091c.191.019.384.042.571.068a3.154,3.154,0,0,1,1.667.632,1.767,1.767,0,0,1,.547,1.359,2.63,2.63,0,0,1-.207,1.107,2.708,2.708,0,0,1-.648.914,3.716,3.716,0,0,1-1.053.678,5.682,5.682,0,0,1-4.463-.024l.9-1.727a3.469,3.469,0,0,0,1.016.438,2.6,2.6,0,0,0,.982.048,1.426,1.426,0,0,0,.817-.345.741.741,0,0,0,.26-.548.558.558,0,0,0-.078-.291.573.573,0,0,0-.236-.2,1.71,1.71,0,0,0-.429-.135c-.176-.036-.389-.072-.637-.11-.3-.038-.584-.084-.868-.14a2.463,2.463,0,0,1-.761-.279,1.58,1.58,0,0,1-.551-.538,1.844,1.844,0,0,1-.236-.917,2.654,2.654,0,0,1,.175-1.081,2.81,2.81,0,0,1,.574-.907,3.283,3.283,0,0,1,.939-.681,4.359,4.359,0,0,1,1.266-.4,6.133,6.133,0,0,1,1.386-.059,5.912,5.912,0,0,1,1.4.258Z" transform="translate(-6741.89 -3610.49)"/></g><g transform="translate(8.17 4.837)"><path class="a" d="M6145.234,3493.2l1.205.1-1.421,1.2Z" transform="translate(-6145.019 -3493.203)"/></g><g transform="translate(13.276 3.92)"><path class="a" d="M6270.405,3470.689l1.2.1s-.924,1.5-1.181,1.25S6270.405,3470.689,6270.405,3470.689Z" transform="translate(-6270.307 -3470.689)"/></g><g transform="translate(28.964 0.947)"><path class="a" d="M6655.874,3397.728l1.2.1-.988.886-.783-.39Z" transform="translate(-6655.305 -3397.728)"/></g><g transform="translate(23.619 2.979)"><path class="a" d="M6524.132,3448.474l1.2.1.488-.713-1.214-.249Z" transform="translate(-6524.132 -3447.611)"/></g><g transform="translate(29.094 8.645)"><path class="a" d="M6658.482,3587.182l1.2.1.572-.394-.081-.238Z" transform="translate(-6658.482 -3586.649)"/></g><g transform="translate(35.842 7.296)"><path class="a" d="M6824.087,3554.32l1.205.1.267-.237-.009-.464-.467-.163Z" transform="translate(-6824.087 -3553.555)"/></g><g transform="translate(33.856)"><path class="a" d="M6776.181,3374.5l1.2.1-.583,1.037-1.443-.144Z" transform="translate(-6775.357 -3374.499)"/></g><g transform="translate(31.144 10.599)"><path class="a" d="M6709.015,3634.6l1.2.1-1.432,1.35Z" transform="translate(-6708.787 -3634.602)"/></g><g transform="translate(28.268 11.03)"><path class="a" d="M6638.645,3645.174l.993.439.183.3-1.4.326-.211-.271Z" transform="translate(-6638.214 -3645.174)"/></g><g transform="translate(25.824 8.706)"><path class="a" d="M6578.239,3589.167l1.2.1.772-.5-.629-.613Z" transform="translate(-6578.239 -3588.155)"/></g><g transform="translate(33.391 15.772)"><path class="a" d="M6763.934,3761.543l1.2.1-.185.64-.972-.258Z" transform="translate(-6763.934 -3761.543)"/></g><g transform="translate(21.856 18.952)"><path class="a" d="M6480.874,3840.315l1.205.1.286-.314-.49-.5Z" transform="translate(-6480.874 -3839.598)"/></g><g transform="translate(25.133 18.42)"><path class="a" d="M6561.295,3827.3l1.27.1.315-.563-.438-.319Z" transform="translate(-6561.295 -3826.525)"/></g><g transform="translate(29.485 17.921)"><path class="a" d="M6668.073,3814.945l1.205.1.3-.4-.216-.348Z" transform="translate(-6668.073 -3814.294)"/></g><g transform="translate(22.989 13.029)"><path class="a" d="M6508.675,3694.851l1.2.1.349-.472-.131-.246Z" transform="translate(-6508.675 -3694.233)"/></g><g transform="translate(9.654 20.705)"><path class="a" d="M6181.43,3883.334l1.2.1.533-.5-.25-.319Z" transform="translate(-6181.43 -3882.615)"/></g><g transform="translate(13.585 20.229)"><path class="a" d="M6277.9,3871.551l1.2.1.475-.674-.846-.055Z" transform="translate(-6277.904 -3870.921)"/></g><g transform="translate(19.49 12.359)"><path class="a" d="M6423.785,3677.788l1.2.1-.435,1.058-1.739-.4Z" transform="translate(-6422.814 -3677.788)"/></g><g transform="translate(6.057 16.029)"><path class="a" d="M6093.155,3769.106l1.2.1.289-.74-.968-.606Z" transform="translate(-6093.155 -3767.86)"/></g><g transform="translate(4.68 18.917)"><path class="a" d="M6059.365,3839.409l1.205.1.333-.644-.978-.128Z" transform="translate(-6059.365 -3838.736)"/></g></g><g transform="translate(5088.378 3145.076)"><path class="a" d="M5337.834,3588.041l.151,4.422-14.455,2.426-.041-1.1c7.419-10.067,8.452-11.688,8.4-13.279a1.354,1.354,0,0,0-1.758-1.351,1.993,1.993,0,0,0-1.689,2.146l.013.356-5.067.961-.013-.337c-.136-3.694,2.3-6.647,6.537-7.5,4.162-.838,7.155,1.022,7.275,4.538.081,2.354-.784,4.33-4.842,9.687Z" transform="translate(-5323.365 -3574.581)"/><g transform="translate(0.018 7.491)"><path class="a" d="M5323.8,3758.961l1.386.505.255-.711-.006-.34Z" transform="translate(-5323.805 -3758.415)"/></g><g transform="translate(13.641 13.46)"><path class="a" d="M5658.947,3904.888l1.386.5-1.129,1.041-1.084-.258Z" transform="translate(-5658.12 -3904.888)"/></g><g transform="translate(0.164 19.356)"><path class="a" d="M5327.392,4050.526l1.386.505.381-.912s.159-.244,0-.3l-.735-.248-.361.208Z" transform="translate(-5327.392 -4049.573)"/></g><g transform="translate(1.386 0.505)"><path class="b" d="M5371.835,3600.441l.15,4.422-14.455,2.426-.041-1.1c7.419-10.067,8.451-11.688,8.4-13.279a1.353,1.353,0,0,0-1.757-1.352,1.994,1.994,0,0,0-1.689,2.146l.013.356-5.067.961-.013-.338c-.137-3.693,2.3-6.647,6.536-7.5,4.162-.838,7.156,1.021,7.275,4.538.081,2.354-.784,4.33-4.842,9.687Z" transform="translate(-5357.367 -3586.981)"/></g></g><g transform="translate(5104.222 3142.347)"><g transform="translate(0)"><path class="a" d="M5714.424,3507.736l.739-.125.422,5.141-.746.142-.024-.314a1.655,1.655,0,0,1-.968.591,1.373,1.373,0,0,1-1.147-.242,1.441,1.441,0,0,1-.529-1.072,1.7,1.7,0,0,1,.354-1.206,1.637,1.637,0,0,1,1.056-.646,1.324,1.324,0,0,1,1.046.248Zm-1.48,3.979a.9.9,0,0,0,.306.658.78.78,0,0,0,.669.154,1.01,1.01,0,0,0,.648-.391,1.072,1.072,0,0,0,.2-.741.879.879,0,0,0-.311-.646.813.813,0,0,0-.683-.147.978.978,0,0,0-.625.387A1.052,1.052,0,0,0,5712.944,3511.715Z" transform="translate(-5712.165 -3507.612)"/><g transform="translate(4.069 1.462)"><path class="a" d="M5814.357,3543.611l.718-.128.261,2.923-.721.137-.028-.309a1.614,1.614,0,0,1-.925.577,1.331,1.331,0,0,1-1.12-.24,1.441,1.441,0,0,1-.522-1.054,1.681,1.681,0,0,1,.333-1.186,1.575,1.575,0,0,1,1.021-.629,1.273,1.273,0,0,1,1.013.247Zm-1.589,1.769a.9.9,0,0,0,.3.647.752.752,0,0,0,.649.153.967.967,0,0,0,.625-.382,1.055,1.055,0,0,0,.187-.727.886.886,0,0,0-.307-.636.785.785,0,0,0-.663-.146.929.929,0,0,0-.6.378A1.03,1.03,0,0,0,5812.768,3545.38Z" transform="translate(-5812.013 -3543.483)"/></g><g transform="translate(2.861 0)"><path class="a" d="M5782.5,3507.612l.377.243-.156.234-.358-.074Z" transform="translate(-5782.368 -3507.612)"/></g><g transform="translate(6.944 1.462)"><path class="a" d="M5882.762,3543.481l.377.243-.194.378-.367-.046v-.049Z" transform="translate(-5882.576 -3543.481)"/></g><g transform="translate(0.376 0.243)"><path class="b" d="M5723.663,3513.69l.74-.125.422,5.141-.745.142-.025-.313a1.655,1.655,0,0,1-.968.59,1.373,1.373,0,0,1-1.148-.242,1.45,1.45,0,0,1-.529-1.072,1.706,1.706,0,0,1,.355-1.205,1.633,1.633,0,0,1,1.056-.646,1.327,1.327,0,0,1,1.047.247Zm-1.48,3.978a.9.9,0,0,0,.307.659.78.78,0,0,0,.669.153,1.01,1.01,0,0,0,.648-.391,1.078,1.078,0,0,0,.2-.741.886.886,0,0,0-.311-.646.813.813,0,0,0-.684-.147.976.976,0,0,0-.625.387A1.051,1.051,0,0,0,5722.183,3517.668Z" transform="translate(-5721.403 -3513.565)"/><g transform="translate(4.069 1.462)"><path class="b" d="M5823.6,3549.563l.718-.127.261,2.923-.721.137-.027-.309a1.616,1.616,0,0,1-.926.576,1.33,1.33,0,0,1-1.12-.239,1.443,1.443,0,0,1-.522-1.054,1.686,1.686,0,0,1,.333-1.186,1.578,1.578,0,0,1,1.021-.629,1.275,1.275,0,0,1,1.013.247Zm-1.589,1.77a.9.9,0,0,0,.3.647.751.751,0,0,0,.648.153.96.96,0,0,0,.626-.382,1.058,1.058,0,0,0,.187-.728.889.889,0,0,0-.306-.635.787.787,0,0,0-.664-.146.93.93,0,0,0-.6.378A1.034,1.034,0,0,0,5822.007,3551.332Z" transform="translate(-5821.252 -3549.435)"/></g></g></g><g transform="translate(1.225 5.566)"><g transform="translate(6.529)"><path class="a" d="M5902.858,3644.2l.3.282-.144.321-.578-.054.062-.315Z" transform="translate(-5902.439 -3644.197)"/></g><g transform="translate(0 0.005)"><g transform="translate(0 0)"><rect class="a" width="7.033" height="0.571" transform="matrix(0.988, -0.154, 0.154, 0.988, 0, 1.082)"/></g><g transform="translate(0.09 1.436)"><path class="a" d="M5744.427,3679.767l.264.318.059-.162.049-.354-.174-.012Z" transform="translate(-5744.427 -3679.558)"/></g><g transform="translate(0.263 0.314)"><rect class="b" width="7.033" height="0.571" transform="matrix(0.988, -0.154, 0.154, 0.988, 0, 1.082)"/></g></g></g></g><g transform="translate(5114.894 3137.022)"><g transform="translate(0 5.422)"><path class="b" d="M5979.886,3512.511a2.121,2.121,0,0,0-1.855-.525,2.315,2.315,0,0,0-.826.313,2.237,2.237,0,0,0-.61.556,2.165,2.165,0,0,0-.4,1.576,2.044,2.044,0,0,0,.267.793,1.871,1.871,0,0,0,.524.575,1.977,1.977,0,0,0,.716.321,2.118,2.118,0,0,0,.841.018,2.562,2.562,0,0,0,1.651-1.09l.272,2.292-.2.1a6.521,6.521,0,0,1-.837.373,4.553,4.553,0,0,1-.78.2,4.13,4.13,0,0,1-1.56-.035,3.828,3.828,0,0,1-2.436-1.682,3.655,3.655,0,0,1-.551-1.517,3.846,3.846,0,0,1,.113-1.639,4.253,4.253,0,0,1,.722-1.412,4.474,4.474,0,0,1,1.2-1.068,4.493,4.493,0,0,1,2.473-.664,5.617,5.617,0,0,1,1,.125Z" transform="translate(-5974.06 -3510.002)"/></g><g transform="translate(6.302 3.92)"><path class="b" d="M6130.8,3474.05l.461,4.192c.024.222.059.447.1.675a1.689,1.689,0,0,0,.227.6.971.971,0,0,0,.465.384,1.511,1.511,0,0,0,.821.039,1.614,1.614,0,0,0,.782-.311,1.229,1.229,0,0,0,.373-.53,1.8,1.8,0,0,0,.1-.66c-.006-.236-.021-.466-.042-.689l-.427-4.228,2.124-.39.428,4.528a3.675,3.675,0,0,1-.615,2.75,3.987,3.987,0,0,1-2.542,1.243,3.573,3.573,0,0,1-2.686-.371,3.249,3.249,0,0,1-1.14-2.413l-.517-4.437Z" transform="translate(-6128.714 -3473.133)"/></g><g transform="translate(14.528 2.593)"><path class="b" d="M6330.6,3445.687a4.064,4.064,0,0,1,.189-1.678,4.636,4.636,0,0,1,.826-1.492,5.063,5.063,0,0,1,1.38-1.159,5.745,5.745,0,0,1,1.858-.672,5.249,5.249,0,0,1,1.92-.022,4,4,0,0,1,1.567.631,3.511,3.511,0,0,1,1.073,1.175,3.649,3.649,0,0,1,.458,1.6,4.114,4.114,0,0,1-.246,1.7,4.649,4.649,0,0,1-.885,1.479,5.153,5.153,0,0,1-1.414,1.114,5.721,5.721,0,0,1-1.829.617,5.211,5.211,0,0,1-1.867,0,3.953,3.953,0,0,1-1.5-.618,3.577,3.577,0,0,1-1.047-1.128A3.648,3.648,0,0,1,6330.6,3445.687Zm2.239-.391a1.872,1.872,0,0,0,.259.825,1.924,1.924,0,0,0,.562.592,2.1,2.1,0,0,0,.778.321,2.488,2.488,0,0,0,.911.006,2.725,2.725,0,0,0,.889-.312,2.756,2.756,0,0,0,.723-.578,2.484,2.484,0,0,0,.469-.776,2.094,2.094,0,0,0,.129-.9,1.869,1.869,0,0,0-.252-.839,1.9,1.9,0,0,0-.573-.6,2.158,2.158,0,0,0-.8-.324,2.5,2.5,0,0,0-.925,0,2.741,2.741,0,0,0-.9.327,2.657,2.657,0,0,0-.711.59,2.5,2.5,0,0,0-.451.779A2.094,2.094,0,0,0,6332.839,3445.3Z" transform="translate(-6330.582 -3440.586)"/></g><g transform="translate(23.506 0.947)"><path class="b" d="M6555.124,3402.329l.318,6.247-2.229.369-.358-6.208-1.847.332-.113-1.786,6.028-1.109.081,1.817Z" transform="translate(-6550.896 -3400.173)"/></g><g transform="translate(29.094 0)"><path class="b" d="M6694.205,3383.693l-3.295.556-.471,1.473-2.412.4,3.015-8.7,2.571-.473,3.649,7.65-2.487.412Zm-.665-1.5-1.133-2.55-.947,2.908Z" transform="translate(-6688.027 -3376.943)"/></g><g transform="translate(0.518 14.726)"><path class="b" d="M5990.75,3741.771l3.95-.607a9.978,9.978,0,0,1,.067,1.045,3.541,3.541,0,0,1-.105.89,3.487,3.487,0,0,1-.466,1.066,3.439,3.439,0,0,1-.769.832,4.331,4.331,0,0,1-1.016.585,5.074,5.074,0,0,1-1.2.322,4.576,4.576,0,0,1-1.625-.038,3.6,3.6,0,0,1-1.326-.569,3.371,3.371,0,0,1-.956-1.042,3.862,3.862,0,0,1-.5-1.462,4,4,0,0,1,.071-1.554,3.454,3.454,0,0,1,.642-1.312,3.9,3.9,0,0,1,1.164-.976,4.9,4.9,0,0,1,1.632-.548,4.328,4.328,0,0,1,2.173.152,3.315,3.315,0,0,1,1.626,1.293l-1.812,1.033a1.75,1.75,0,0,0-.789-.742,1.777,1.777,0,0,0-.989-.107,2.065,2.065,0,0,0-.787.284,1.828,1.828,0,0,0-.56.543,2.193,2.193,0,0,0-.309.756,2.7,2.7,0,0,0-.023.922,2.632,2.632,0,0,0,.235.812,1.8,1.8,0,0,0,.459.6,1.646,1.646,0,0,0,.672.339,2.227,2.227,0,0,0,.878.027,2.6,2.6,0,0,0,.552-.142,1.606,1.606,0,0,0,.462-.268,1.2,1.2,0,0,0,.314-.4,1.408,1.408,0,0,0,.128-.553l-1.62.243Z" transform="translate(-5986.769 -3738.334)"/></g><g transform="translate(8.85 13.662)"><path class="b" d="M6198.509,3719.049l-2.543.365-2.218-2.466.29,2.743-2,.288-.8-7.192,3.191-.515a3.362,3.362,0,0,1,1.181,0,2.146,2.146,0,0,1,.871.367,1.91,1.91,0,0,1,.557.651,2.275,2.275,0,0,1,.248.857,2.147,2.147,0,0,1-.312,1.426,2.42,2.42,0,0,1-1.218.895Zm-4.889-3.317.384-.059a1.672,1.672,0,0,0,.905-.374.825.825,0,0,0,.257-.72.733.733,0,0,0-.393-.62,1.549,1.549,0,0,0-.957-.087l-.387.061Z" transform="translate(-6191.23 -3712.218)"/></g><g transform="translate(15.71 12.359)"><path class="b" d="M6365.146,3686.345l-3,.44-.372,1.326-2.2.316,2.417-7.819,2.335-.376,3.658,6.985-2.263.326Zm-.671-1.37-1.143-2.328-.75,2.612Z" transform="translate(-6359.577 -3680.232)"/></g><g transform="translate(22.876 11.03)"><path class="b" d="M6539.538,3649.609l.321,5.867-2.154.31-.359-5.833-1.784.281-.113-1.678,5.823-.939.084,1.706Z" transform="translate(-6535.448 -3647.618)"/></g><g transform="translate(29.121 10.599)"><path class="b" d="M6690.949,3637.045l.313,7.658-2.2.316-.363-7.611Z" transform="translate(-6688.701 -3637.045)"/></g><g transform="translate(32.493 9.616)"><path class="b" d="M6776.461,3614.961a2.532,2.532,0,0,0-.763-.284,2.12,2.12,0,0,0-.73-.016,1.448,1.448,0,0,0-.72.3.656.656,0,0,0-.267.533.4.4,0,0,0,.149.32,1.066,1.066,0,0,0,.374.176,3.083,3.083,0,0,0,.518.091q.287.029.57.068a3.15,3.15,0,0,1,1.667.632,1.773,1.773,0,0,1,.549,1.359,2.634,2.634,0,0,1-.856,2.021,3.718,3.718,0,0,1-1.054.678,5.685,5.685,0,0,1-4.462-.024l.9-1.728a3.446,3.446,0,0,0,1.017.438,2.57,2.57,0,0,0,.981.048,1.439,1.439,0,0,0,.819-.344.751.751,0,0,0,.259-.549.51.51,0,0,0-.316-.49,1.686,1.686,0,0,0-.428-.136q-.264-.053-.636-.109-.444-.057-.868-.141a2.439,2.439,0,0,1-.762-.279,1.575,1.575,0,0,1-.551-.537,1.843,1.843,0,0,1-.236-.917,2.673,2.673,0,0,1,.176-1.082,2.78,2.78,0,0,1,.574-.907,3.3,3.3,0,0,1,.938-.682,4.383,4.383,0,0,1,1.266-.4,6.189,6.189,0,0,1,1.385-.059,5.928,5.928,0,0,1,1.4.258Z" transform="translate(-6771.437 -3612.935)"/></g></g><path class="c" d="M6278.9,3278.051l.547-.074.219-.65-.51.046Z" transform="translate(-1151.582 -144.364)"/></g></svg>