<svg xmlns="http://www.w3.org/2000/svg" width="171.115" height="57.541" viewBox="0 0 171.115 57.541"><defs><style>.a,.b{fill:#fff;}.b{fill-rule:evenodd;}.c{fill:#ffd508;}.d{fill:#ea0c90;}</style></defs><g transform="translate(-1095.731 -1670.03)"><g transform="translate(1111.277 1670.303)"><g transform="translate(0 3.669)"><g transform="translate(0.369 38.858)"><g transform="translate(0 0)"><g transform="translate(17.188 2.149)"><path class="a" d="M1174.118,1748.214c-2.268,0-3.876,1.637-3.883,4.29a3.865,3.865,0,0,0,3.808,3.921h.091a3.7,3.7,0,0,0,2.324-.53v-1.342a4.5,4.5,0,0,1-1.949.392,2.18,2.18,0,0,1-2.353-1.726l-.014-.095h1.417a6.88,6.88,0,0,0,2.865-.413,1.456,1.456,0,0,0,.849-1.459,3.037,3.037,0,0,0-3.036-3.039l-.124,0m.923,3.476a6.448,6.448,0,0,1-1.915.178h-.988l.005-.085.015-.27a1.808,1.808,0,0,1,1.78-1.793,1.929,1.929,0,0,1,1.165.32,1.16,1.16,0,0,1,.449.969.659.659,0,0,1-.511.681m3.213-.416v5.011h1.861v-4.651a2.054,2.054,0,0,1,.379-1.372,1.376,1.376,0,0,1,1.1-.429,2.981,2.981,0,0,1,.506.041V1748.4a2.056,2.056,0,0,0-.942-.2,2.772,2.772,0,0,0-2.905,3.064m-24.47,5.011h1.858v-10.094h-1.858Zm6.867-8.071a3.282,3.282,0,0,0-3.566,3.364v4.705h1.847V1751.7a2.112,2.112,0,0,1,.428-1.387,1.424,1.424,0,0,1,1.127-.5,1.6,1.6,0,0,1,1.269.495,2.277,2.277,0,0,1,.452,1.541v4.424h1.845v-4.6a3.255,3.255,0,0,0-3.028-3.467,3.166,3.166,0,0,0-.37,0m6.665-2.026h-1.838l.006,7.283a2.645,2.645,0,0,0,2.951,2.948c.853,0,1.366-.279,1.577-.723v-1.148a3.383,3.383,0,0,1-1.336.212,1.321,1.321,0,0,1-1-.359,1.657,1.657,0,0,1-.355-1.171v-3.409h1.61c.784,0,1.116-.5,1.12-.874v-.737h-2.729Z" transform="translate(-1153.78 -1746.178)"/><g transform="translate(35.704 2.034)"><path class="a" d="M1214.613,1753.787a1.455,1.455,0,0,0,.849-1.459,3.036,3.036,0,0,0-3.035-3.037c-.041,0-.082,0-.123,0-2.269,0-3.878,1.637-3.883,4.29a3.864,3.864,0,0,0,3.807,3.921h.089a3.7,3.7,0,0,0,2.326-.53v-1.342a4.5,4.5,0,0,1-1.95.392,2.18,2.18,0,0,1-2.352-1.726l-.013-.095h1.417a6.867,6.867,0,0,0,2.864-.413m-4.288-.84.006-.085.013-.27a1.807,1.807,0,0,1,1.778-1.792,1.92,1.92,0,0,1,1.166.32,1.15,1.15,0,0,1,.45.97.661.661,0,0,1-.511.681,6.433,6.433,0,0,1-1.915.178Z" transform="translate(-1208.421 -1749.291)"/></g><g transform="translate(59.848 2.026)"><path class="a" d="M1245.37,1752.349v5.01h1.863v-4.65a2.051,2.051,0,0,1,.379-1.372,1.374,1.374,0,0,1,1.1-.428,3.1,3.1,0,0,1,.506.04v-1.473a2.075,2.075,0,0,0-.942-.2,2.773,2.773,0,0,0-2.905,3.065" transform="translate(-1245.37 -1749.278)"/></g><g transform="translate(29.124 2.002)"><path class="a" d="M1200.943,1757.454c-1.358,0-2.371-.742-2.371-1.542v-.889h.065a3.545,3.545,0,0,0,2.217.743c.9,0,1.342-.277,1.342-.86,0-.451-.262-.668-1.535-.858-1.558-.233-2.31-.888-2.31-2.082a2.872,2.872,0,0,1,3.133-2.723c1.674,0,2.352.915,2.352,1.674v.741h-.066a3.111,3.111,0,0,0-2.107-.726c-1.124,0-1.479.362-1.479.872,0,.392.22.554,1.479.772,1.53.262,2.352.976,2.352,2.229,0,1.66-1.095,2.648-3.077,2.648" transform="translate(-1198.351 -1749.242)"/></g><g transform="translate(43.577 2.022)"><path class="a" d="M1227.262,1755.115c.014.319.029.742.029,1a3.491,3.491,0,0,1-3.614,3.724c-1.521,0-2.56-.784-2.56-1.717v-.889h.082a3.15,3.15,0,0,0,2.343.844c1.326,0,1.927-.669,1.927-1.805,0-.115,0-.276-.012-.409,0-.115-.013-.32-.013-.392v-.188a1.88,1.88,0,0,1-1.9,1.163,3,3,0,0,1-3.071-2.939c0-.078,0-.158,0-.236a3.693,3.693,0,0,1,3.749-4c1.836,0,3.011,1.427,3.011,3.437v1.339c0,.262.013.714.027,1.063m-4.914-2.082a1.592,1.592,0,0,0,1.48,1.794c.925,0,1.589-.735,1.589-2,0-1.235-.582-1.839-1.395-1.839a1.83,1.83,0,0,0-1.674,2.043" transform="translate(-1220.469 -1749.273)"/></g><g transform="translate(64.117 2.001)"><path class="a" d="M1255.641,1749.241c2.265,0,3.569,1.9,3.569,3.976,0,2.358-1.3,4.235-3.737,4.235-2.266,0-3.569-1.878-3.569-3.96,0-2.36,1.3-4.252,3.738-4.252m-.17,1.648c-1.122,0-1.693.971-1.693,2.322,0,1.623.571,2.595,1.865,2.595,1.138,0,1.693-.972,1.693-2.307,0-1.638-.584-2.609-1.865-2.609" transform="translate(-1251.903 -1749.241)"/></g><g transform="translate(51.626 2.169)"><path class="a" d="M1236.185,1757.6a3.282,3.282,0,0,0,3.554-3.376V1749.5H1237.9v4.589a2.129,2.129,0,0,1-.428,1.39,1.417,1.417,0,0,1-1.122.5,1.6,1.6,0,0,1-1.266-.5,2.3,2.3,0,0,1-.449-1.547V1749.5H1232.8v4.618a3.253,3.253,0,0,0,3.014,3.477,3.2,3.2,0,0,0,.376,0" transform="translate(-1232.787 -1749.497)"/></g></g><path class="b" d="M1129.4,1742.889a1.925,1.925,0,0,0-1.925,1.925h0V1757.3h12.489a1.926,1.926,0,0,0,1.927-1.926V1742.89Zm9.124,10.4-7.681,1.388v-7.754l7.681-1.388Z" transform="translate(-1127.476 -1742.889)"/></g></g><g transform="translate(0 0)"><path class="a" d="M1142.46,1704.605v4.409c0,5.309-2.654,8.342-7.773,8.342s-7.776-3.033-7.776-8.342v-17.251c0-5.308,2.654-8.342,7.776-8.342s7.773,3.033,7.773,8.342v3.223h-4.929v-3.555c0-2.37-1.045-3.267-2.7-3.267s-2.7.9-2.7,3.267v17.915c0,2.37,1.046,3.222,2.7,3.222s2.7-.85,2.7-3.222v-4.74Z" transform="translate(-1126.911 -1683.422)"/><g transform="translate(16.497 0.377)"><path class="a" d="M1158.746,1706.18,1152.158,1684h5.451l3.981,15.119L1165.57,1684h4.977l-6.588,22.181v11h-5.213Z" transform="translate(-1152.158 -1683.999)"/></g><g transform="translate(36.973 0.378)"><path class="a" d="M1199.087,1691.631v1.185c0,3.412-1.046,5.593-3.365,6.683,2.8,1.09,3.886,3.6,3.886,7.109v2.7c0,5.119-2.7,7.869-7.915,7.869h-8.2V1684h7.867C1196.763,1684,1199.087,1686.512,1199.087,1691.631Zm-10.38-2.892v8.769h2.038c1.943,0,3.128-.852,3.128-3.507v-1.851c0-2.369-.805-3.411-2.654-3.411Zm0,13.509v10.189h2.986c1.754,0,2.7-.806,2.7-3.267v-2.891c0-3.081-1-4.029-3.365-4.029Z" transform="translate(-1183.494 -1684.001)"/></g><g transform="translate(56.216 0.377)"><path class="a" d="M1218.154,1697.981h7.156v4.739h-7.156v9.716h9.008v4.739h-14.218V1684h14.218v4.74h-9.005Z" transform="translate(-1212.943 -1683.999)"/></g><g transform="translate(73.653 0.378)"><path class="a" d="M1250.53,1717.176a10.212,10.212,0,0,1-.474-4.077v-5.213c0-3.081-1.045-4.218-3.413-4.218h-1.8v13.508h-5.213V1684h7.867c5.4,0,7.726,2.512,7.726,7.631v2.606c0,3.411-1.09,5.64-3.413,6.73,2.606,1.09,3.463,3.6,3.463,7.061v5.118a9.774,9.774,0,0,0,.569,4.029Zm-5.685-28.438v10.19h2.038c1.944,0,3.128-.852,3.128-3.506v-3.267c0-2.37-.805-3.412-2.654-3.412Z" transform="translate(-1239.627 -1684)"/></g></g></g><g transform="translate(99.362 0)"><circle class="c" cx="28.104" cy="28.104" r="28.104"/><g transform="translate(3.675 16.039)"><path class="d" d="M1309.251,1707.855h-1.9l-.03.189a3.14,3.14,0,0,1-3.149,2.785,3.475,3.475,0,0,1-2.281-.825l-.037-.023c-.116-.058-.264-.027-.465.1a3.4,3.4,0,0,0-1.4,2.877,3.542,3.542,0,0,0,3.793,3.513,4.061,4.061,0,0,0,2.034-.53v15.649c0,1.882.967,2.919,2.721,2.919h.714a2.769,2.769,0,0,0,2.089-.747,3.039,3.039,0,0,0,.711-2.171v-20.813C1312.051,1708.867,1311.083,1707.855,1309.251,1707.855Z" transform="translate(-1299.987 -1707.855)"/><g transform="translate(15.627 0.28)"><path class="d" d="M1339.136,1717.918a13.347,13.347,0,0,0-4.453.778v-5.128h10.124c1.991,0,2.958-.812,2.958-2.483v-.2c0-1.674-1-2.522-2.958-2.522h-12.448c-1.959,0-3.038,1.234-3.038,3.474v8.484c0,2.357,1.2,3.546,3.664,3.632h.08l.063-.048a8.255,8.255,0,0,1,5.177-1.539c3.154,0,4.893,1.385,4.893,3.9,0,2.43-1.95,3.939-5.089,3.939a8.288,8.288,0,0,1-6.922-3.366c-.14-.175-.4-.084-.483-.055-.588.206-2.293,1.338-2.293,2.969,0,1.29.958,2.59,2.628,3.567a13.987,13.987,0,0,0,7.147,1.649c6.569,0,10.649-3.336,10.649-8.706C1348.834,1721.2,1345.028,1717.918,1339.136,1717.918Z" transform="translate(-1328.412 -1708.364)"/></g></g><g transform="translate(40.974 16.708)"><path class="d" d="M1367.834,1711.3v-.107a2.047,2.047,0,0,1,2.011-2.083c.054,0,.108,0,.162,0a2.022,2.022,0,0,1,2.141,1.9c0,.056,0,.113,0,.17v.107a2.045,2.045,0,0,1-2.005,2.083c-.051,0-.1,0-.154,0a2.034,2.034,0,0,1-2.154-1.906C1367.834,1711.41,1367.833,1711.357,1367.834,1711.3Zm.684,6.157a.958.958,0,0,1,.363-.684l6.747-7.686c.067-.08.8.12.8.6a1.179,1.179,0,0,1-.362.711l-6.747,7.673c-.067.08-.805-.151-.805-.618Zm2.375-6.1v-.215a.911.911,0,0,0-.795-1.013.852.852,0,0,0-.1-.006.9.9,0,0,0-.908.885.921.921,0,0,0,.009.135v.215a.9.9,0,0,0,.912.993.885.885,0,0,0,.892-.876.86.86,0,0,0-.007-.118Zm1.945,4.628v-.11a2.055,2.055,0,0,1,2.027-2.083c.049,0,.1,0,.146,0a2.016,2.016,0,0,1,2.141,1.881c0,.062,0,.124,0,.185v.107a2.04,2.04,0,0,1-2,2.082c-.048,0-.1,0-.146,0a2.037,2.037,0,0,1-2.169-1.9c0-.056-.005-.112,0-.168Zm3.071.04v-.214a.917.917,0,0,0-.809-1.014c-.03,0-.06-.005-.09-.005a.9.9,0,0,0-.907.885.853.853,0,0,0,.009.134v.214a.9.9,0,0,0,.783,1,.809.809,0,0,0,.115.007.909.909,0,0,0,.9-1.008Z" transform="translate(-1367.833 -1709.073)"/></g><g transform="translate(41.241 27.809)"><g transform="translate(0 0.043)"><path class="d" d="M1368.322,1729.641a.263.263,0,0,1,.236-.287h.61a1.085,1.085,0,0,1,1.213.94,1.208,1.208,0,0,1-1.052,1.343,1.15,1.15,0,0,1-.179-.007h-.541a.286.286,0,0,1-.288-.285Zm1.551.844a.644.644,0,0,0-.593-.691.729.729,0,0,0-.122,0h-.32v1.389h.313a.651.651,0,0,0,.721-.7Z" transform="translate(-1368.321 -1729.344)"/></g><g transform="translate(2.28)"><path class="d" d="M1372.468,1731.182c0-.144.179-.275.2-.257a.926.926,0,0,0,.675.306c.271,0,.415-.1.415-.275,0-.2-.229-.246-.495-.306-.362-.081-.735-.214-.735-.682,0-.422.337-.7.886-.7a1.118,1.118,0,0,1,.654.168.314.314,0,0,1,.158.25.339.339,0,0,1-.2.271.816.816,0,0,0-.6-.278c-.246,0-.393.1-.393.267,0,.2.2.225.485.289.411.092.77.26.77.689,0,.454-.334.718-.932.718a1.146,1.146,0,0,1-.735-.208A.327.327,0,0,1,1372.468,1731.182Z" transform="translate(-1372.468 -1729.266)"/></g><g transform="translate(4.311 0.002)"><path class="d" d="M1377.338,1729.271a1.109,1.109,0,0,1,.665.19.453.453,0,0,1,.207.327c0,.229-.292.281-.3.264a.622.622,0,0,0-.556-.309.655.655,0,0,0-.657.651c0,.021,0,.042,0,.063a.664.664,0,0,0,.61.715.43.43,0,0,0,.05,0,.582.582,0,0,0,.562-.341c.007-.022.309.031.309.26a.488.488,0,0,1-.22.348,1.111,1.111,0,0,1-.685.2,1.123,1.123,0,0,1-1.165-1.079c0-.036,0-.071,0-.107a1.131,1.131,0,0,1,1.071-1.188C1377.269,1729.269,1377.3,1729.269,1377.338,1729.271Z" transform="translate(-1376.162 -1729.27)"/></g><g transform="translate(6.517 0.053)"><path class="d" d="M1380.929,1729.815h-.514c-.155,0-.239-.078-.239-.22v-.018c0-.141.084-.215.239-.215h1.539c.158,0,.239.074.239.215v.018c0,.144-.081.22-.239.22h-.5v1.6a.212.212,0,0,1-.183.235.252.252,0,0,1-.049,0h-.074c-.141,0-.214-.081-.214-.235Z" transform="translate(-1380.176 -1729.362)"/></g><g transform="translate(8.598 0.002)"><path class="d" d="M1383.962,1730.46a1.14,1.14,0,0,1,1.089-1.188c.029,0,.057,0,.086,0a1.127,1.127,0,0,1,1.168,1.084c0,.034,0,.068,0,.1a1.133,1.133,0,0,1-1.075,1.188c-.032,0-.064,0-.1,0a1.128,1.128,0,0,1-1.172-1.083C1383.96,1730.529,1383.96,1730.495,1383.962,1730.46Zm1.829,0a.665.665,0,0,0-.6-.724.544.544,0,0,0-.06,0,.654.654,0,0,0-.658.649.572.572,0,0,0,0,.075.66.66,0,0,0,.588.725.644.644,0,0,0,.072,0,.66.66,0,0,0,.659-.66.6.6,0,0,0,0-.065Z" transform="translate(-1383.96 -1729.271)"/></g><g transform="translate(11.214 1.833)"><path class="d" d="M1388.72,1732.837a.209.209,0,0,1,.177-.235.225.225,0,0,1,.059,0h.06a.21.21,0,0,1,.239.177.2.2,0,0,1,0,.058v.05a.211.211,0,0,1-.183.236.207.207,0,0,1-.056,0h-.06a.21.21,0,0,1-.236-.18.23.23,0,0,1,0-.055Z" transform="translate(-1388.718 -1732.6)"/></g></g></g></g><g transform="translate(1095.731 1670.03)"><g transform="translate(0 0)"><g transform="translate(0 0)"><g transform="translate(2.983 1.249)"><path class="a" d="M1117.311,1667.4a2.359,2.359,0,1,1,2.359-2.359A2.361,2.361,0,0,1,1117.311,1667.4Zm0-3.029a.67.67,0,1,0,.67.67A.67.67,0,0,0,1117.311,1664.374Z" transform="translate(-1114.953 -1662.685)"/></g><g transform="translate(0 48.077)"><path class="a" d="M1123.153,1793.981a2.983,2.983,0,1,1,2.983-2.983A2.986,2.986,0,0,1,1123.153,1793.981Zm0-4.278a1.294,1.294,0,1,0,1.295,1.294A1.3,1.3,0,0,0,1123.153,1789.7Z" transform="translate(-1120.17 -1788.015)"/></g><g transform="translate(110.051)"><path class="a" d="M1123.153,1793.981a2.983,2.983,0,1,1,2.983-2.983A2.986,2.986,0,0,1,1123.153,1793.981Zm0-4.278a1.294,1.294,0,1,0,1.295,1.294A1.3,1.3,0,0,0,1123.153,1789.7Z" transform="translate(-1120.17 -1788.015)"/></g><g transform="translate(114.447 52.474)"><g transform="translate(0 0)"><circle class="a" cx="0.785" cy="0.785" r="0.785"/></g></g></g></g></g></g></svg>