<svg xmlns="http://www.w3.org/2000/svg" width="127.947" height="59.969" viewBox="0 0 127.947 59.969"><defs><style>.a{fill:#ea0c90;}.b{fill:#ffd527;}.c{fill:#fff;}</style></defs><g transform="matrix(0.998, 0.07, -0.07, 0.998, -4853.099, -3485.491)"><g transform="translate(5136.958 3140.563)"><g transform="translate(0 10.406)"><path class="a" d="M5955.7,3512.374a4.067,4.067,0,0,0-3.562-1.008,4.414,4.414,0,0,0-1.583.6,4.247,4.247,0,0,0-1.171,1.067,4.147,4.147,0,0,0-.778,3.025,3.909,3.909,0,0,0,.512,1.523,3.618,3.618,0,0,0,1.007,1.1,3.809,3.809,0,0,0,1.374.616,4.07,4.07,0,0,0,1.614.033,4.909,4.909,0,0,0,3.167-2.092l.525,4.4-.381.2a12.589,12.589,0,0,1-1.6.715,8.689,8.689,0,0,1-1.5.391,7.907,7.907,0,0,1-2.993-.067,7.357,7.357,0,0,1-4.674-3.227,6.963,6.963,0,0,1-1.056-2.912,7.352,7.352,0,0,1,.216-3.146,8.22,8.22,0,0,1,1.385-2.709,8.6,8.6,0,0,1,2.3-2.049,8.508,8.508,0,0,1,2.943-1.133,8.613,8.613,0,0,1,1.8-.14,10.692,10.692,0,0,1,1.917.24Z" transform="translate(-5944.514 -3507.558)"/></g><g transform="translate(12.095 7.523)"><path class="a" d="M6103.17,3472.449l.883,8.045q.071.638.2,1.3a3.235,3.235,0,0,0,.436,1.152,1.857,1.857,0,0,0,.895.738,2.892,2.892,0,0,0,1.574.075,3.1,3.1,0,0,0,1.5-.6,2.362,2.362,0,0,0,.717-1.016,3.477,3.477,0,0,0,.2-1.267q-.02-.681-.083-1.325l-.82-8.112,4.075-.75.822,8.691a7.038,7.038,0,0,1-1.181,5.277,7.653,7.653,0,0,1-4.878,2.385q-3.366.556-5.154-.711c-1.2-.844-1.925-2.384-2.187-4.63l-.994-8.515Z" transform="translate(-6099.167 -3470.689)"/></g><g transform="translate(27.883 4.977)"><path class="a" d="M6301.07,3447.93a7.816,7.816,0,0,1,.365-3.219,8.914,8.914,0,0,1,1.586-2.865,9.677,9.677,0,0,1,2.647-2.223,10.956,10.956,0,0,1,3.567-1.29,10.042,10.042,0,0,1,3.684-.042,7.658,7.658,0,0,1,3.007,1.212,6.75,6.75,0,0,1,2.061,2.253,7.009,7.009,0,0,1,.879,3.067,7.894,7.894,0,0,1-.472,3.271,8.918,8.918,0,0,1-1.7,2.838,9.89,9.89,0,0,1-2.714,2.139,11.025,11.025,0,0,1-3.51,1.185,9.963,9.963,0,0,1-3.582-.011,7.558,7.558,0,0,1-2.883-1.186,6.817,6.817,0,0,1-2.01-2.164A7.032,7.032,0,0,1,6301.07,3447.93Zm4.3-.751a3.568,3.568,0,0,0,.5,1.583,3.674,3.674,0,0,0,1.076,1.138,4.021,4.021,0,0,0,1.493.614,4.763,4.763,0,0,0,1.748.014,5.334,5.334,0,0,0,3.093-1.712,4.767,4.767,0,0,0,.9-1.488,4.017,4.017,0,0,0,.247-1.729,3.55,3.55,0,0,0-.483-1.611,3.6,3.6,0,0,0-1.1-1.158,4.111,4.111,0,0,0-1.531-.621,4.777,4.777,0,0,0-1.773,0,5.252,5.252,0,0,0-1.719.627,5.128,5.128,0,0,0-1.367,1.132,4.843,4.843,0,0,0-.864,1.5A4.026,4.026,0,0,0,6305.37,3447.179Z" transform="translate(-6301.035 -3438.142)"/></g><g transform="translate(45.113 1.817)"><path class="a" d="M6529.464,3401.865l.609,11.99-4.273.708-.689-11.914-3.545.637-.217-3.43,11.57-2.128.155,3.489Z" transform="translate(-6521.349 -3397.728)"/></g><g transform="translate(55.838 0)"><path class="a" d="M6670.336,3387.454l-6.324,1.066-.9,2.827-4.628.766,5.788-16.707,4.931-.907,7.007,14.682-4.775.79Zm-1.274-2.879-2.178-4.893-1.816,5.582Z" transform="translate(-6658.481 -3374.499)"/></g><g transform="translate(0.994 28.264)"><path class="a" d="M5964.863,3742.485l7.581-1.165a19.025,19.025,0,0,1,.13,2.007,6.76,6.76,0,0,1-1.1,3.754,6.573,6.573,0,0,1-1.476,1.6,8.253,8.253,0,0,1-1.949,1.122,9.567,9.567,0,0,1-2.3.618,8.767,8.767,0,0,1-3.117-.071,6.886,6.886,0,0,1-2.546-1.093,6.462,6.462,0,0,1-1.833-2,7.412,7.412,0,0,1-.951-2.805,7.689,7.689,0,0,1,.137-2.982,6.649,6.649,0,0,1,1.231-2.519,7.494,7.494,0,0,1,2.234-1.872,9.417,9.417,0,0,1,3.132-1.052,8.288,8.288,0,0,1,4.169.292,6.366,6.366,0,0,1,3.12,2.481l-3.477,1.984a3.387,3.387,0,0,0-1.516-1.425,3.426,3.426,0,0,0-1.9-.2,3.97,3.97,0,0,0-1.511.545,3.5,3.5,0,0,0-1.074,1.042,4.211,4.211,0,0,0-.591,1.449,5.543,5.543,0,0,0,.4,3.33,3.492,3.492,0,0,0,.883,1.159,3.144,3.144,0,0,0,1.291.653,4.266,4.266,0,0,0,1.683.051,4.951,4.951,0,0,0,1.06-.274,3.038,3.038,0,0,0,.886-.513,2.353,2.353,0,0,0,.6-.774,2.624,2.624,0,0,0,.242-1.062l-3.106.466Z" transform="translate(-5957.223 -3735.89)"/></g><g transform="translate(16.985 26.221)"><path class="a" d="M6175.652,3722.884l-4.88.7-4.256-4.733.555,5.266-3.843.553-1.544-13.8,6.125-.988a6.4,6.4,0,0,1,2.266-.009,4.088,4.088,0,0,1,1.669.7,3.681,3.681,0,0,1,1.071,1.25,4.344,4.344,0,0,1,.473,1.645,4.109,4.109,0,0,1-.6,2.736,4.638,4.638,0,0,1-2.338,1.717Zm-9.382-6.367.738-.112a3.216,3.216,0,0,0,1.737-.718,1.571,1.571,0,0,0,.492-1.38,1.4,1.4,0,0,0-.753-1.191,2.966,2.966,0,0,0-1.837-.167l-.741.117Z" transform="translate(-6161.683 -3709.773)"/></g><g transform="translate(30.151 23.72)"><path class="a" d="M6340.718,3689.52l-5.756.845-.713,2.545-4.219.606,4.637-15,4.481-.723,7.021,13.406-4.342.625Zm-1.286-2.628-2.193-4.468-1.439,5.013Z" transform="translate(-6330.03 -3677.788)"/></g><g transform="translate(43.905 21.169)"><path class="a" d="M6513.751,3649l.616,11.261-4.133.594-.691-11.193-3.424.539-.217-3.22,11.176-1.8.16,3.273Z" transform="translate(-6505.902 -3645.174)"/></g><g transform="translate(55.891 20.342)"><path class="a" d="M6663.469,3634.6l.6,14.7-4.218.606-.7-14.608Z" transform="translate(-6659.154 -3634.601)"/></g><g transform="translate(62.362 18.457)"><path class="a" d="M6751.533,3614.38a4.908,4.908,0,0,0-1.463-.545,4.124,4.124,0,0,0-1.4-.03,2.766,2.766,0,0,0-1.381.58,1.253,1.253,0,0,0-.51,1.021.752.752,0,0,0,.289.613,1.967,1.967,0,0,0,.715.338,5.7,5.7,0,0,0,.992.174c.368.037.736.081,1.1.132a6.05,6.05,0,0,1,3.2,1.212,3.392,3.392,0,0,1,1.05,2.608,5.058,5.058,0,0,1-.4,2.125,5.205,5.205,0,0,1-1.245,1.754,7.123,7.123,0,0,1-2.021,1.3,10.9,10.9,0,0,1-8.565-.046l1.727-3.315a6.626,6.626,0,0,0,1.949.842,4.971,4.971,0,0,0,1.885.092,2.735,2.735,0,0,0,1.568-.661,1.424,1.424,0,0,0,.5-1.052,1.066,1.066,0,0,0-.149-.557,1.11,1.11,0,0,0-.454-.385,3.29,3.29,0,0,0-.823-.259c-.337-.068-.746-.138-1.222-.211-.568-.072-1.122-.162-1.667-.269a4.728,4.728,0,0,1-1.46-.536,3.034,3.034,0,0,1-1.057-1.031,3.539,3.539,0,0,1-.454-1.761,5.083,5.083,0,0,1,.336-2.075,5.383,5.383,0,0,1,1.1-1.741,6.294,6.294,0,0,1,1.8-1.308,8.362,8.362,0,0,1,2.429-.759,11.74,11.74,0,0,1,2.659-.113,11.327,11.327,0,0,1,2.681.495Z" transform="translate(-6741.889 -3610.49)"/></g><g transform="translate(15.681 9.284)"><path class="a" d="M6145.433,3493.2l2.313.192-2.727,2.3Z" transform="translate(-6145.019 -3493.203)"/></g><g transform="translate(25.48 7.523)"><path class="a" d="M6270.5,3470.689l2.31.191s-1.774,2.879-2.266,2.4S6270.5,3470.689,6270.5,3470.689Z" transform="translate(-6270.308 -3470.689)"/></g><g transform="translate(55.59 1.817)"><path class="a" d="M6656.4,3397.728l2.309.191-1.9,1.7-1.5-.749Z" transform="translate(-6655.305 -3397.728)"/></g><g transform="translate(45.331 5.718)"><path class="a" d="M6524.131,3449.266l2.312.191.938-1.368-2.33-.478Z" transform="translate(-6524.131 -3447.611)"/></g><g transform="translate(55.838 16.592)"><path class="a" d="M6658.481,3587.671l2.311.19,1.1-.756-.156-.457Z" transform="translate(-6658.481 -3586.649)"/></g><g transform="translate(68.79 14.004)"><path class="a" d="M6824.086,3555.022l2.313.192.512-.456-.018-.89-.9-.313Z" transform="translate(-6824.086 -3553.554)"/></g><g transform="translate(64.979)"><path class="a" d="M6776.938,3374.5l2.31.191-1.12,1.991-2.77-.276Z" transform="translate(-6775.357 -3374.499)"/></g><g transform="translate(59.773 20.342)"><path class="a" d="M6709.224,3634.6l2.311.192-2.747,2.59Z" transform="translate(-6708.787 -3634.602)"/></g><g transform="translate(54.253 21.169)"><path class="a" d="M6639.04,3645.174l1.906.842.351.575-2.679.625-.4-.521Z" transform="translate(-6638.213 -3645.174)"/></g><g transform="translate(49.563 16.71)"><path class="a" d="M6578.239,3590.1l2.309.192,1.483-.957-1.208-1.177Z" transform="translate(-6578.239 -3588.155)"/></g><g transform="translate(64.086 30.27)"><path class="a" d="M6763.934,3761.543l2.31.192-.353,1.229-1.866-.5Z" transform="translate(-6763.934 -3761.543)"/></g><g transform="translate(41.948 36.375)"><path class="a" d="M6480.874,3840.974l2.313.191.549-.6-.941-.965Z" transform="translate(-6480.874 -3839.597)"/></g><g transform="translate(48.238 35.352)"><path class="a" d="M6561.294,3828.019l2.437.2.6-1.081-.841-.613Z" transform="translate(-6561.294 -3826.525)"/></g><g transform="translate(56.589 34.396)"><path class="a" d="M6668.073,3815.543l2.313.19.574-.771-.414-.668Z" transform="translate(-6668.073 -3814.294)"/></g><g transform="translate(44.122 25.006)"><path class="a" d="M6508.674,3695.419l2.312.191.67-.905-.252-.472Z" transform="translate(-6508.674 -3694.233)"/></g><g transform="translate(18.529 39.739)"><path class="a" d="M6181.43,3884l2.31.19,1.022-.959-.481-.612Z" transform="translate(-6181.43 -3882.615)"/></g><g transform="translate(26.074 38.824)"><path class="a" d="M6277.9,3872.13l2.313.19.911-1.294-1.624-.106Z" transform="translate(-6277.903 -3870.92)"/></g><g transform="translate(37.407 23.72)"><path class="a" d="M6424.677,3677.788l2.311.192-.835,2.03-3.338-.776Z" transform="translate(-6422.814 -3677.788)"/></g><g transform="translate(11.625 30.764)"><path class="a" d="M6093.154,3770.251l2.313.191.554-1.42-1.858-1.163Z" transform="translate(-6093.154 -3767.86)"/></g><g transform="translate(8.982 36.307)"><path class="a" d="M6059.365,3840.028l2.313.191.637-1.236-1.876-.247Z" transform="translate(-6059.365 -3838.736)"/></g></g><g transform="translate(5088.378 3156.211)"><path class="a" d="M5351.134,3600.414l.29,8.487-27.743,4.656-.079-2.121c14.24-19.322,16.221-22.433,16.114-25.486a2.6,2.6,0,0,0-3.374-2.593,3.824,3.824,0,0,0-3.241,4.12l.024.683L5323.4,3590l-.025-.647c-.261-7.089,4.424-12.758,12.547-14.395,7.986-1.608,13.733,1.961,13.963,8.71.155,4.518-1.5,8.31-9.294,18.592Z" transform="translate(-5323.365 -3574.581)"/><g transform="translate(0.034 14.377)"><path class="a" d="M5323.8,3759.463l2.661.969.488-1.364-.011-.653Z" transform="translate(-5323.804 -3758.415)"/></g><g transform="translate(26.181 25.833)"><path class="a" d="M5659.708,3904.888l2.659.968-2.167,2-2.081-.495Z" transform="translate(-5658.119 -3904.888)"/></g><g transform="translate(0.315 37.148)"><path class="a" d="M5327.392,4051.4l2.659.97.732-1.751s.3-.468-.01-.573-1.411-.475-1.411-.475l-.693.4Z" transform="translate(-5327.392 -4049.573)"/></g><g transform="translate(2.659 0.97)"><path class="b" d="M5385.135,3612.815l.289,8.486-27.742,4.656-.079-2.12c14.239-19.322,16.22-22.433,16.113-25.486a2.6,2.6,0,0,0-3.371-2.594,3.825,3.825,0,0,0-3.243,4.12l.025.684-9.727,1.845-.024-.649c-.263-7.088,4.422-12.758,12.545-14.393,7.987-1.609,13.734,1.96,13.963,8.709.156,4.518-1.5,8.309-9.293,18.592Z" transform="translate(-5357.366 -3586.981)"/></g></g><g transform="translate(5118.787 3150.973)"><g transform="translate(0)"><path class="a" d="M5716.5,3507.85l1.42-.239.81,9.866-1.431.273-.047-.6a3.174,3.174,0,0,1-1.857,1.134,2.635,2.635,0,0,1-2.2-.464,2.764,2.764,0,0,1-1.016-2.057,3.268,3.268,0,0,1,.679-2.314,3.142,3.142,0,0,1,2.026-1.24,2.542,2.542,0,0,1,2.009.475Zm-2.84,7.636a1.724,1.724,0,0,0,.587,1.263,1.5,1.5,0,0,0,1.284.3,1.94,1.94,0,0,0,1.245-.75,2.061,2.061,0,0,0,.381-1.423,1.689,1.689,0,0,0-.6-1.239,1.56,1.56,0,0,0-1.311-.283,1.875,1.875,0,0,0-1.2.742A2.014,2.014,0,0,0,5713.66,3515.486Z" transform="translate(-5712.165 -3507.611)"/><g transform="translate(7.809 2.805)"><path class="a" d="M5816.511,3543.728l1.377-.245.5,5.611-1.384.263-.053-.592a3.1,3.1,0,0,1-1.776,1.107,2.554,2.554,0,0,1-2.149-.46,2.764,2.764,0,0,1-1-2.023,3.226,3.226,0,0,1,.639-2.276,3.026,3.026,0,0,1,1.96-1.208,2.447,2.447,0,0,1,1.944.473Zm-3.051,3.4a1.734,1.734,0,0,0,.58,1.243,1.445,1.445,0,0,0,1.246.293,1.856,1.856,0,0,0,1.2-.733,2.025,2.025,0,0,0,.359-1.4,1.7,1.7,0,0,0-.589-1.221,1.506,1.506,0,0,0-1.272-.28,1.78,1.78,0,0,0-1.154.726A1.978,1.978,0,0,0,5813.46,3547.123Z" transform="translate(-5812.013 -3543.482)"/></g><g transform="translate(5.49 0)"><path class="a" d="M5782.63,3507.611l.724.466-.3.45-.688-.143Z" transform="translate(-5782.367 -3507.611)"/></g><g transform="translate(13.328 2.805)"><path class="a" d="M5882.932,3543.481l.723.466-.372.727-.706-.089v-.094Z" transform="translate(-5882.576 -3543.481)"/></g><g transform="translate(0.723 0.466)"><path class="b" d="M5725.74,3513.806l1.42-.241.81,9.867-1.43.271-.049-.6a3.178,3.178,0,0,1-1.857,1.133,2.635,2.635,0,0,1-2.2-.464,2.784,2.784,0,0,1-1.016-2.058,3.274,3.274,0,0,1,.682-2.312,3.134,3.134,0,0,1,2.026-1.24,2.546,2.546,0,0,1,2.009.474Zm-2.842,7.634a1.735,1.735,0,0,0,.589,1.265,1.5,1.5,0,0,0,1.284.294,1.941,1.941,0,0,0,1.245-.751,2.065,2.065,0,0,0,.382-1.422,1.7,1.7,0,0,0-.6-1.239,1.562,1.562,0,0,0-1.312-.283,1.873,1.873,0,0,0-1.2.743A2.016,2.016,0,0,0,5722.9,3521.439Z" transform="translate(-5721.403 -3513.565)"/><g transform="translate(7.809 2.805)"><path class="b" d="M5825.75,3549.68l1.378-.245.5,5.61-1.384.264-.052-.592a3.1,3.1,0,0,1-1.777,1.105,2.552,2.552,0,0,1-2.149-.459,2.769,2.769,0,0,1-1-2.023,3.24,3.24,0,0,1,.64-2.276,3.033,3.033,0,0,1,1.96-1.208,2.448,2.448,0,0,1,1.943.474Zm-3.05,3.4a1.728,1.728,0,0,0,.58,1.243,1.443,1.443,0,0,0,1.245.293,1.845,1.845,0,0,0,1.2-.733,2.033,2.033,0,0,0,.358-1.4,1.712,1.712,0,0,0-.587-1.22,1.51,1.51,0,0,0-1.273-.28,1.783,1.783,0,0,0-1.157.726A1.986,1.986,0,0,0,5822.7,3553.076Z" transform="translate(-5821.252 -3549.435)"/></g></g></g><g transform="translate(2.35 10.682)"><g transform="translate(12.531)"><path class="a" d="M5903.243,3644.2l.582.542-.275.616-1.109-.1.118-.6Z" transform="translate(-5902.439 -3644.197)"/></g><g transform="translate(0 0.009)"><g transform="translate(0 0)"><rect class="a" width="13.497" height="1.095" transform="matrix(0.988, -0.154, 0.154, 0.988, 0, 2.077)"/></g><g transform="translate(0.173 2.756)"><path class="a" d="M5744.427,3679.959l.506.611.113-.312.094-.679-.333-.022Z" transform="translate(-5744.427 -3679.558)"/></g><g transform="translate(0.504 0.603)"><rect class="b" width="13.497" height="1.095" transform="matrix(0.988, -0.154, 0.154, 0.988, 0, 2.077)"/></g></g></g></g><g transform="translate(5139.269 3140.754)"><g transform="translate(0 10.406)"><path class="b" d="M5985.241,3514.817a4.068,4.068,0,0,0-3.561-1.008,4.434,4.434,0,0,0-1.586.6,4.275,4.275,0,0,0-1.171,1.068,4.154,4.154,0,0,0-.776,3.024,3.909,3.909,0,0,0,.512,1.523,3.58,3.58,0,0,0,1.006,1.1,3.789,3.789,0,0,0,1.374.616,4.06,4.06,0,0,0,1.614.035,4.919,4.919,0,0,0,3.17-2.092l.522,4.4-.381.2a12.418,12.418,0,0,1-1.605.715,8.679,8.679,0,0,1-1.5.391,7.932,7.932,0,0,1-2.993-.066,7.348,7.348,0,0,1-4.674-3.228,7.027,7.027,0,0,1-1.058-2.912,7.4,7.4,0,0,1,.218-3.145,8.185,8.185,0,0,1,1.384-2.71,8.6,8.6,0,0,1,2.3-2.049,8.621,8.621,0,0,1,4.746-1.273,10.691,10.691,0,0,1,1.917.24Z" transform="translate(-5974.059 -3510.002)"/></g><g transform="translate(12.095 7.523)"><path class="b" d="M6132.716,3474.893l.885,8.045c.045.425.112.857.195,1.3a3.23,3.23,0,0,0,.436,1.152,1.859,1.859,0,0,0,.893.737,2.9,2.9,0,0,0,1.576.075,3.1,3.1,0,0,0,1.5-.6,2.356,2.356,0,0,0,.717-1.017,3.476,3.476,0,0,0,.195-1.267c-.011-.454-.04-.9-.082-1.323l-.82-8.114,4.077-.749.821,8.691a7.057,7.057,0,0,1-1.181,5.278,7.654,7.654,0,0,1-4.879,2.385c-2.244.37-3.958.132-5.154-.712s-1.926-2.382-2.188-4.63l-.993-8.515Z" transform="translate(-6128.713 -3473.133)"/></g><g transform="translate(27.883 4.977)"><path class="b" d="M6330.617,3450.375a7.8,7.8,0,0,1,.362-3.22,8.882,8.882,0,0,1,1.585-2.864,9.717,9.717,0,0,1,2.648-2.224,11.018,11.018,0,0,1,3.566-1.289,10.077,10.077,0,0,1,3.685-.042,7.683,7.683,0,0,1,3.007,1.212,6.728,6.728,0,0,1,2.059,2.255,6.994,6.994,0,0,1,.88,3.067,7.883,7.883,0,0,1-.471,3.27,8.938,8.938,0,0,1-1.7,2.837,9.879,9.879,0,0,1-2.713,2.139,10.983,10.983,0,0,1-3.51,1.185,9.993,9.993,0,0,1-3.583-.01,7.6,7.6,0,0,1-2.883-1.186,6.866,6.866,0,0,1-2.01-2.165A6.994,6.994,0,0,1,6330.617,3450.375Zm4.3-.75a3.589,3.589,0,0,0,.5,1.583,3.692,3.692,0,0,0,1.078,1.136,4.042,4.042,0,0,0,1.492.616,4.788,4.788,0,0,0,1.748.012,5.237,5.237,0,0,0,1.706-.6,5.293,5.293,0,0,0,1.387-1.109,4.761,4.761,0,0,0,.9-1.489,4.024,4.024,0,0,0,.249-1.73,3.584,3.584,0,0,0-.484-1.611,3.636,3.636,0,0,0-1.1-1.158,4.135,4.135,0,0,0-1.53-.621,4.79,4.79,0,0,0-1.775,0,5.263,5.263,0,0,0-1.718.627,5.08,5.08,0,0,0-1.364,1.133,4.763,4.763,0,0,0-.866,1.5A4.019,4.019,0,0,0,6334.913,3449.625Z" transform="translate(-6330.582 -3440.586)"/></g><g transform="translate(45.113 1.817)"><path class="b" d="M6559.011,3404.31l.611,11.99-4.277.708-.688-11.915-3.544.637-.218-3.428,11.57-2.128.156,3.488Z" transform="translate(-6550.895 -3400.173)"/></g><g transform="translate(55.838 0)"><path class="b" d="M6699.883,3389.9l-6.323,1.066-.9,2.828-4.629.765,5.786-16.707,4.934-.908,7,14.682-4.773.79Zm-1.275-2.878-2.175-4.894-1.818,5.582Z" transform="translate(-6688.027 -3376.943)"/></g><g transform="translate(0.994 28.264)"><path class="b" d="M5994.41,3744.929l7.581-1.165a19.6,19.6,0,0,1,.13,2.006,6.887,6.887,0,0,1-.2,1.708,6.7,6.7,0,0,1-.9,2.046,6.586,6.586,0,0,1-1.475,1.6,8.341,8.341,0,0,1-1.949,1.124,9.757,9.757,0,0,1-2.3.617,8.783,8.783,0,0,1-3.118-.073,6.926,6.926,0,0,1-2.546-1.093,6.464,6.464,0,0,1-1.835-2,7.4,7.4,0,0,1-.95-2.806,7.681,7.681,0,0,1,.137-2.982,6.633,6.633,0,0,1,1.231-2.518,7.494,7.494,0,0,1,2.234-1.872,9.41,9.41,0,0,1,3.132-1.052,8.3,8.3,0,0,1,4.17.293,6.355,6.355,0,0,1,3.121,2.482l-3.479,1.983a3.36,3.36,0,0,0-1.515-1.424,3.412,3.412,0,0,0-1.9-.206,3.957,3.957,0,0,0-1.51.545,3.5,3.5,0,0,0-1.074,1.042,4.216,4.216,0,0,0-.593,1.451,5.173,5.173,0,0,0-.045,1.771,5.065,5.065,0,0,0,.451,1.557,3.44,3.44,0,0,0,.882,1.16,3.161,3.161,0,0,0,1.289.651,4.265,4.265,0,0,0,1.685.051,4.94,4.94,0,0,0,1.059-.272,3.091,3.091,0,0,0,.888-.514,2.314,2.314,0,0,0,.6-.774,2.7,2.7,0,0,0,.246-1.062l-3.109.465Z" transform="translate(-5986.768 -3738.334)"/></g><g transform="translate(16.985 26.221)"><path class="b" d="M6205.2,3725.329l-4.88.7-4.257-4.732.557,5.265-3.844.553-1.544-13.8,6.125-.989a6.465,6.465,0,0,1,2.266-.01,4.122,4.122,0,0,1,1.671.7,3.668,3.668,0,0,1,1.069,1.25,4.374,4.374,0,0,1,.476,1.644,4.125,4.125,0,0,1-.6,2.737,4.65,4.65,0,0,1-2.339,1.717Zm-9.382-6.368.738-.112a3.21,3.21,0,0,0,1.737-.718,1.587,1.587,0,0,0,.494-1.381,1.409,1.409,0,0,0-.753-1.19,2.974,2.974,0,0,0-1.836-.168l-.744.117Z" transform="translate(-6191.23 -3712.218)"/></g><g transform="translate(30.151 23.72)"><path class="b" d="M6370.266,3691.964l-5.756.845-.714,2.545-4.22.607,4.639-15.006,4.48-.722,7.021,13.406-4.344.625Zm-1.288-2.628-2.193-4.467-1.438,5.013Z" transform="translate(-6359.576 -3680.232)"/></g><g transform="translate(43.905 21.169)"><path class="b" d="M6543.3,3651.44l.617,11.261-4.135.6-.69-11.194-3.424.539-.217-3.22,11.176-1.8.162,3.273Z" transform="translate(-6535.448 -3647.618)"/></g><g transform="translate(55.891 20.342)"><path class="b" d="M6693.015,3637.044l.6,14.7-4.218.606-.7-14.608Z" transform="translate(-6688.701 -3637.044)"/></g><g transform="translate(62.362 18.457)"><path class="b" d="M6781.08,3616.824a4.873,4.873,0,0,0-1.464-.544,4.082,4.082,0,0,0-1.4-.03,2.773,2.773,0,0,0-1.381.58,1.26,1.26,0,0,0-.512,1.022.773.773,0,0,0,.286.614,2.045,2.045,0,0,0,.719.337,5.968,5.968,0,0,0,.993.175q.552.055,1.1.13a6.054,6.054,0,0,1,3.2,1.213,3.4,3.4,0,0,1,1.053,2.608,5.061,5.061,0,0,1-1.645,3.88,7.119,7.119,0,0,1-2.021,1.3,10.906,10.906,0,0,1-8.564-.046l1.725-3.316a6.616,6.616,0,0,0,1.952.841,4.941,4.941,0,0,0,1.883.092,2.763,2.763,0,0,0,1.573-.66,1.445,1.445,0,0,0,.5-1.053.978.978,0,0,0-.608-.941,3.2,3.2,0,0,0-.821-.26q-.505-.1-1.22-.209-.852-.11-1.667-.27a4.658,4.658,0,0,1-1.461-.536,3.018,3.018,0,0,1-1.058-1.031,3.545,3.545,0,0,1-.454-1.761,5.131,5.131,0,0,1,.338-2.076,5.34,5.34,0,0,1,1.1-1.74,6.329,6.329,0,0,1,1.8-1.309,8.41,8.41,0,0,1,2.429-.758,11.886,11.886,0,0,1,2.658-.114,11.4,11.4,0,0,1,2.684.5Z" transform="translate(-6771.436 -3612.935)"/></g></g><path class="c" d="M6278.9,3278.717l1.05-.141.419-1.248-.979.088Z" transform="translate(-1115.788 -144.364)"/></g></svg>