<svg xmlns="http://www.w3.org/2000/svg" xmlns:xlink="http://www.w3.org/1999/xlink" width="235.899" height="68.406" viewBox="0 0 235.899 68.406"><defs><style>.a{fill:none;}.b{fill:#fff;}.c{fill:#ffd527;}.d{fill:#ea0c90;}.e{isolation:isolate;}.f{clip-path:url(#a);}.g{fill:#f2792d;}.h{fill:#f27a2d;}.i{fill:#f37b2d;}.j{fill:#f37c2d;}.k{fill:#f37d2d;}.l{fill:#f37e2d;}.m{fill:#f37f2d;}.n{fill:#f3802d;}.o{fill:#f3812d;}.p{fill:#f3822d;}.q{fill:#f3832d;}.r{fill:#f3842d;}.s{fill:#f3852d;}.t{fill:#f4862d;}.u{fill:#f4872d;}.v{fill:#f4882d;}.w{fill:#f4892d;}.x{fill:#f48a2d;}.y{fill:#f48c2c;}.z{fill:#f48d2c;}.aa{fill:#f48e2c;}.ab{fill:#f48f2c;}.ac{fill:#f4902c;}.ad{fill:#00adee;}.ae{fill:#40e262;}.af{fill:#64caec;}.ag{fill:#fc7c71;}</style><clipPath id="a"><rect class="a" width="2.817" height="5.701" transform="matrix(-0.806, -0.592, 0.592, -0.806, 2.271, 6.263)"/></clipPath></defs><g transform="translate(767.479 -1358.652)"><g transform="translate(-627.236 1392.584)"><g transform="translate(0 0)"><path class="b" d="M-359.231,1468.085v5.51h5.63v4.708h-5.63v5.478h-5.241V1478.3H-370.1V1473.6h5.629v-5.512Z" transform="translate(370.101 -1468.085)"/></g></g><g transform="translate(-741.616 1368.758)"><g transform="translate(49.454 0)"><path class="c" d="M-546.042,1400.54h13.29a4.066,4.066,0,0,1,4.076,5.2l-1.672,7.744a6.8,6.8,0,0,1-6.321,5.2h-13.29a4.066,4.066,0,0,1-4.075-5.2l1.672-7.744A6.8,6.8,0,0,1-546.042,1400.54Z" transform="translate(554.156 -1400.54)"/></g><g transform="translate(42.135 21.333)"><g transform="translate(3.38 0.033)"><path class="d" d="M-560.563,1473.02a7.048,7.048,0,0,0,6.429-4.082h-3.131a3.313,3.313,0,0,1-2.772,1.5c-1.749,0-2.667-1.3-2.221-3.365a3.883,3.883,0,0,1,3.675-3.365,1.991,1.991,0,0,1,2.125,1.5h3.132c-.12-2.532-1.88-4.1-4.662-4.1a7.4,7.4,0,0,0-7.169,5.964C-565.914,1470.571-564.014,1473.02-560.563,1473.02Z" transform="translate(565.323 -1461.109)"/></g><g transform="translate(16.267 0.167)"><path class="d" d="M-521.695,1468.484a2.477,2.477,0,0,1-2.537,2.182c-1.349,0-1.859-.8-1.561-2.182l1.511-7h-2.849l-1.507,6.98c-.7,3.232,1.073,4.833,3.789,4.833a5.952,5.952,0,0,0,6.008-4.833l1.507-6.98h-2.851Z" transform="translate(528.79 -1461.487)"/></g><g transform="translate(27.814)"><path class="d" d="M-491.168,1472.992a7.841,7.841,0,0,0,7.263-6.013,4.683,4.683,0,0,0-4.725-5.964,7.843,7.843,0,0,0-7.255,5.981c-.777,3.233,1.2,5.918,4.416,6Q-491.321,1473-491.168,1472.992Zm2.029-9.4c1.866,0,2.8,1.316,2.348,3.4a3.973,3.973,0,0,1-3.816,3.4c-1.9,0-2.807-1.349-2.365-3.4a3.937,3.937,0,0,1,3.832-3.4Z" transform="translate(496.055 -1461.015)"/></g><g transform="translate(41.691 0.167)"><path class="d" d="M-455.652,1473.182h2.848l2.033-9.413h3.1l.493-2.282h-9.044l-.493,2.282h3.1Z" transform="translate(456.716 -1461.487)"/></g><g transform="translate(49.366 0.167)"><path class="d" d="M-426.464,1471.115l.254,2.066h3.015l-1.706-11.694h-3.3l-6.759,11.7h2.982l1.146-2.066Zm-.782-6.481.524,4.281H-429.6Z" transform="translate(434.958 -1461.487)"/></g><g transform="translate(0 15.692)"><path class="d" d="M-569.642,1512.828h3.615a3.644,3.644,0,0,1-3.278,2.066c-2.049,0-3.007-1.266-2.539-3.431a3.9,3.9,0,0,1,3.768-3.332,1.917,1.917,0,0,1,2.04,1.2h3.148c-.1-2.4-1.821-3.831-4.619-3.831a7.427,7.427,0,0,0-7.235,5.964c-.756,3.5,1.181,5.947,4.679,5.947a7.459,7.459,0,0,0,6.5-4.03l.572-2.649h-6.2Z" transform="translate(574.904 -1505.499)"/></g><g transform="translate(12.071 15.824)"><path class="d" d="M-529.875,1509.555c.439-2.032-.637-3.682-3.5-3.682h-4.781l-2.526,11.694h2.848l.953-4.414h.683l1.48,4.414h3.215l-1.7-4.632A4.509,4.509,0,0,0-529.875,1509.555Zm-4.806,1.582h-1.768l.626-2.9h1.766c1.066,0,1.444.564,1.256,1.433a1.742,1.742,0,0,1-1.882,1.465Z" transform="translate(540.684 -1505.873)"/></g><g transform="translate(22.164 15.824)"><path class="d" d="M-505.313,1505.875l-6.758,11.694h2.983l1.145-2.066h4.364l.254,2.066h3.015l-1.708-11.694Zm-1.4,7.43,2.357-4.281.524,4.281Z" transform="translate(512.071 -1505.875)"/></g><g transform="translate(36.61 15.823)"><path class="d" d="M-471.12,1508.154h3.1l-2.033,9.412h2.849l2.033-9.412h3.1l.493-2.282h-9.045Z" transform="translate(471.12 -1505.872)"/></g><g transform="translate(45.054 15.825)"><path class="d" d="M-444.656,1505.876h2.848l-2.526,11.694h-2.848Z" transform="translate(447.181 -1505.876)"/></g><g transform="translate(50.323 15.66)"><path class="d" d="M-428.047,1508.756a1.333,1.333,0,0,1,1.43-1.066.988.988,0,0,1,1.093,1.178h0l-.008.038h3.082c.365-2.232-1.079-3.5-3.625-3.5-2.45,0-4.531,1.232-5.01,3.448-.928,4.148,5.17,2.982,4.7,5.147a1.5,1.5,0,0,1-1.6,1.1,1.047,1.047,0,0,1-1.181-1.226v0c0-.035.011-.071.018-.106h-3.032c-.428,2.365,1.268,3.615,3.784,3.615a4.874,4.874,0,0,0,5.042-3.6C-422.507,1509.871-428.485,1510.787-428.047,1508.756Z" transform="translate(432.247 -1505.408)"/></g></g><g transform="translate(0 0.865)"><path class="d" d="M-692.556,1442.8c11.937-8.366,24.514-16.667,26.251-24.706.748-3.464-.341-5.686-3.74-5.686-3.333,0-5.858,2.614-6.833,7.126h-10.784c2.826-11.57,11.414-16.536,20.107-16.536,10.85,0,14.317,6.34,12.581,14.379-2.258,10.457-13.413,18.823-22.25,24.64h17.645l-1.962,9.085h-32.81Z" transform="translate(694.351 -1402.993)"/></g><g transform="translate(3.263 0.865)"><path class="c" d="M-683.308,1442.8c11.938-8.366,24.515-16.667,26.251-24.706.748-3.464-.341-5.686-3.74-5.686-3.333,0-5.858,2.614-6.833,7.126h-10.784c2.826-11.57,11.414-16.536,20.107-16.536,10.85,0,14.317,6.34,12.581,14.379-2.258,10.457-13.413,18.823-22.25,24.64h17.647l-1.962,9.085H-685.1Z" transform="translate(685.1 -1402.993)"/></g><g transform="translate(43.696 21.333)"><g transform="translate(3.378 0.033)"><path class="c" d="M-556.142,1473.02a7.05,7.05,0,0,0,6.429-4.082h-3.132a3.314,3.314,0,0,1-2.773,1.5c-1.749,0-2.667-1.3-2.221-3.365a3.883,3.883,0,0,1,3.675-3.365,1.992,1.992,0,0,1,2.125,1.5h3.132c-.12-2.532-1.882-4.1-4.663-4.1a7.4,7.4,0,0,0-7.168,5.964C-561.493,1470.571-559.589,1473.02-556.142,1473.02Z" transform="translate(560.902 -1461.109)"/></g><g transform="translate(16.268 0.167)"><path class="c" d="M-517.266,1468.484a2.477,2.477,0,0,1-2.537,2.182c-1.349,0-1.859-.8-1.561-2.182l1.511-7H-522.7l-1.507,6.98c-.7,3.232,1.073,4.833,3.789,4.833a5.952,5.952,0,0,0,6.008-4.833l1.507-6.98h-2.848Z" transform="translate(524.361 -1461.487)"/></g><g transform="translate(27.814)"><path class="c" d="M-486.741,1472.992a7.841,7.841,0,0,0,7.262-6.013,4.683,4.683,0,0,0-4.725-5.964,7.843,7.843,0,0,0-7.255,5.981c-.777,3.233,1.2,5.918,4.416,6C-486.943,1473-486.842,1473-486.741,1472.992Zm2.029-9.4c1.866,0,2.8,1.316,2.348,3.4a3.973,3.973,0,0,1-3.816,3.4c-1.9,0-2.807-1.349-2.365-3.4a3.938,3.938,0,0,1,3.832-3.4Z" transform="translate(491.628 -1461.015)"/></g><g transform="translate(41.689 0.167)"><path class="c" d="M-451.23,1473.182h2.848l2.033-9.413h3.1l.493-2.282H-451.8l-.493,2.282h3.1Z" transform="translate(452.296 -1461.487)"/></g><g transform="translate(49.367 0.167)"><path class="c" d="M-422.037,1471.115l.253,2.066h3.015l-1.7-11.694h-3.3l-6.759,11.7h2.982l1.146-2.066Zm-.782-6.48.525,4.281h-2.882Z" transform="translate(430.53 -1461.487)"/></g><g transform="translate(0 15.692)"><path class="c" d="M-565.216,1512.828h3.615a3.644,3.644,0,0,1-3.278,2.066c-2.049,0-3.007-1.266-2.539-3.431a3.9,3.9,0,0,1,3.768-3.332,1.917,1.917,0,0,1,2.04,1.2h3.149c-.1-2.4-1.822-3.831-4.619-3.831a7.427,7.427,0,0,0-7.235,5.964c-.756,3.5,1.181,5.947,4.679,5.947a7.46,7.46,0,0,0,6.5-4.031l.572-2.649h-6.2Z" transform="translate(570.478 -1505.499)"/></g><g transform="translate(12.071 15.824)"><path class="c" d="M-525.45,1509.555c.439-2.032-.637-3.682-3.5-3.682h-4.781l-2.526,11.694h2.848l.953-4.414h.683l1.481,4.414h3.215l-1.7-4.632A4.509,4.509,0,0,0-525.45,1509.555Zm-4.806,1.582h-1.766l.626-2.9h1.766c1.066,0,1.444.564,1.256,1.433a1.743,1.743,0,0,1-1.882,1.465Z" transform="translate(536.259 -1505.873)"/></g><g transform="translate(22.166 15.824)"><path class="c" d="M-500.884,1505.875l-6.757,11.694h2.982l1.145-2.066h4.365l.253,2.066h3.015l-1.706-11.694Zm-1.4,7.43,2.357-4.281.525,4.281Z" transform="translate(507.641 -1505.875)"/></g><g transform="translate(36.61 15.823)"><path class="c" d="M-466.7,1508.154h3.1l-2.033,9.412h2.848l2.033-9.412h3.1l.493-2.282H-466.2Z" transform="translate(466.695 -1505.872)"/></g><g transform="translate(45.055 15.825)"><path class="c" d="M-440.229,1505.876h2.848l-2.526,11.694h-2.848Z" transform="translate(442.754 -1505.876)"/></g><g transform="translate(50.326 15.659)"><path class="c" d="M-423.614,1508.756a1.332,1.332,0,0,1,1.43-1.066.988.988,0,0,1,1.093,1.177h0c0,.013,0,.026-.006.038h3.082c.365-2.232-1.077-3.5-3.625-3.5-2.449,0-4.531,1.233-5.009,3.448-.931,4.148,5.17,2.982,4.7,5.147a1.5,1.5,0,0,1-1.6,1.1,1.047,1.047,0,0,1-1.182-1.226v0c0-.035.011-.07.018-.106h-3.03c-.427,2.364,1.268,3.615,3.784,3.615a4.874,4.874,0,0,0,5.042-3.6C-418.075,1509.87-424.053,1510.786-423.614,1508.756Z" transform="translate(427.811 -1505.407)"/></g></g><g transform="translate(55.726 2.711)"><path class="d" d="M-532.851,1410.16a1.789,1.789,0,0,1,1.708.945l.622-2.88h1.9l-1.777,8.229h-1.9l.192-.891a2.709,2.709,0,0,1-2.124.979c-1.524,0-2.468-1.245-2.045-3.2A3.723,3.723,0,0,1-532.851,1410.16Zm.2,1.658a1.8,1.8,0,0,0-1.685,1.524c-.213.99.311,1.546,1.023,1.546a1.8,1.8,0,0,0,1.688-1.535c.214-.99-.3-1.535-1.026-1.535Z" transform="translate(536.375 -1408.225)"/><g transform="translate(7.551 1.932)"><path class="d" d="M-511.444,1413.7a1.7,1.7,0,0,1,1.7.968l.189-.877h1.9l-1.34,6.2h-1.9l.19-.879a2.77,2.77,0,0,1-2.133.968c-1.512,0-2.455-1.245-2.033-3.2A3.724,3.724,0,0,1-511.444,1413.7Zm.2,1.658a1.8,1.8,0,0,0-1.686,1.523c-.213.99.311,1.546,1.023,1.546a1.8,1.8,0,0,0,1.688-1.535c.214-.99-.3-1.534-1.026-1.534Z" transform="translate(514.968 -1413.702)"/></g></g><g transform="translate(54.324 12.922)"><path class="d" d="M-539.948,1437.172h14.1l-.4,1.868h-14.1Z" transform="translate(540.352 -1437.172)"/></g></g><g transform="translate(-603.632 1372.798)"><g transform="translate(0 0)"><ellipse class="d" cx="22.92" cy="23.005" rx="22.92" ry="23.005"/></g></g><g transform="translate(-601.34 1372.807)"><g transform="translate(0 0)"><ellipse class="c" cx="22.92" cy="23.005" rx="22.92" ry="23.005"/></g></g><g transform="translate(-597.003 1382.771)"><g transform="translate(29.259 2.799)"><path class="d" d="M-199.549,1448.2a1.392,1.392,0,0,1,1.429,1.64,2,2,0,0,1-1.887,1.681,1.392,1.392,0,0,1-1.429-1.64l0-.021a1.839,1.839,0,0,1,1.632-1.659A1.579,1.579,0,0,1-199.549,1448.2Zm-.728,1.66c-.069.462.076.668.37.668s.51-.2.58-.668-.085-.677-.378-.677-.5.2-.573.677Zm4.109-1.552h1.615l-4.806,6.916h-1.615Zm.7,3.7a1.392,1.392,0,0,1,1.44,1.63,2,2,0,0,1-1.878,1.69,1.392,1.392,0,0,1-1.441-1.63l0-.03a1.832,1.832,0,0,1,1.621-1.658A1.537,1.537,0,0,1-195.471,1452.014Zm-.729,1.661c-.069.461.076.668.37.668s.511-.206.58-.668-.085-.678-.378-.678-.5.216-.571.678Z" transform="translate(201.451 -1448.198)"/></g><g class="e" transform="translate(0 0)"><g class="e"><g transform="translate(0 0.453)"><path class="d" d="M-273.2,1441.549l-3.55,23.664h-6.039l1.9-12.687a22.027,22.027,0,0,0,.361-3.3,1.017,1.017,0,0,0-.614-.84,7.424,7.424,0,0,0-2.656-.285h-.6l.414-2.759a13.248,13.248,0,0,0,7.22-3.789Z" transform="translate(284.395 -1441.549)"/></g><g transform="translate(10.848)"><path class="d" d="M-237.909,1448.728l-1.184,7.893a19.594,19.594,0,0,1-.886,3.917,6.542,6.542,0,0,1-1.585,2.295,6.537,6.537,0,0,1-2.5,1.534,9.554,9.554,0,0,1-3.045.468,10.62,10.62,0,0,1-3.529-.49,4.022,4.022,0,0,1-2.058-1.527,5.469,5.469,0,0,1-.883-2.185,13.147,13.147,0,0,1,.188-3.647l1.239-8.258a16.91,16.91,0,0,1,1.308-4.882,6.018,6.018,0,0,1,2.677-2.6,9.08,9.08,0,0,1,4.295-.979,8.151,8.151,0,0,1,3.456.68,4.8,4.8,0,0,1,2.1,1.659,4.652,4.652,0,0,1,.723,2.207A19.706,19.706,0,0,1-237.909,1448.728Zm-5.741-1.988a8.586,8.586,0,0,0,.168-2.36q-.116-.475-.8-.475a1.027,1.027,0,0,0-.965.5,8.144,8.144,0,0,0-.567,2.331l-1.732,11.547a8.31,8.31,0,0,0-.171,2.485q.138.424.811.424a1.011,1.011,0,0,0,.956-.5,7.854,7.854,0,0,0,.545-2.236Z" transform="translate(253.643 -1440.265)"/></g></g></g><g transform="translate(28.52 12.108)"><g class="e"><g transform="translate(0 0.058)"><path class="d" d="M-203.109,1474.753h.565a3.578,3.578,0,0,1,.732.048.473.473,0,0,1,.268.157.415.415,0,0,1,.087.243,3.577,3.577,0,0,1-.058.527l-.153.969a2.272,2.272,0,0,1-.116.5.459.459,0,0,1-.159.2.644.644,0,0,1-.242.1,2.23,2.23,0,0,1-.41.028h-.952Zm.68.473-.287,1.819q.163,0,.211-.062a.958.958,0,0,0,.091-.339l.17-1.074a1.44,1.44,0,0,0,.026-.241.1.1,0,0,0-.045-.078A.367.367,0,0,0-202.428,1475.226Z" transform="translate(203.546 -1474.753)"/></g><g transform="translate(2.092)"><path class="d" d="M-195.773,1475.484h-.7l.032-.2a.369.369,0,0,0,0-.183.085.085,0,0,0-.084-.04.137.137,0,0,0-.111.053.336.336,0,0,0-.06.161.416.416,0,0,0,.006.208.447.447,0,0,0,.187.169,1.7,1.7,0,0,1,.561.468.959.959,0,0,1,.038.589,1.1,1.1,0,0,1-.141.435.7.7,0,0,1-.318.235,1.265,1.265,0,0,1-.5.095,1.025,1.025,0,0,1-.5-.109.439.439,0,0,1-.237-.278,1.32,1.32,0,0,1,.01-.48l.029-.181h.7l-.053.337a.4.4,0,0,0,0,.2.1.1,0,0,0,.1.044.147.147,0,0,0,.121-.056.348.348,0,0,0,.064-.167.462.462,0,0,0-.02-.319,1.735,1.735,0,0,0-.314-.251,2.765,2.765,0,0,1-.332-.258.488.488,0,0,1-.116-.222.9.9,0,0,1,0-.362,1.087,1.087,0,0,1,.158-.464.707.707,0,0,1,.312-.23,1.243,1.243,0,0,1,.472-.083,1.147,1.147,0,0,1,.487.09.414.414,0,0,1,.238.228,1.115,1.115,0,0,1-.006.467Z" transform="translate(197.616 -1474.589)"/></g><g transform="translate(4.023)"><path class="d" d="M-190.224,1475.851h-.755l.076-.48a.811.811,0,0,0,.017-.261c-.011-.035-.044-.052-.1-.052a.134.134,0,0,0-.128.063.99.99,0,0,0-.068.273l-.2,1.284a.837.837,0,0,0-.017.263c.01.041.045.061.1.061a.127.127,0,0,0,.12-.062,1.038,1.038,0,0,0,.072-.289l.055-.348h.755l-.017.108a2.226,2.226,0,0,1-.16.609.793.793,0,0,1-.331.314,1.115,1.115,0,0,1-.559.135,1.051,1.051,0,0,1-.529-.114.454.454,0,0,1-.235-.317,1.947,1.947,0,0,1,.026-.609l.128-.808a3.564,3.564,0,0,1,.092-.448.739.739,0,0,1,.174-.288.885.885,0,0,1,.331-.218,1.211,1.211,0,0,1,.447-.079,1,1,0,0,1,.531.123.481.481,0,0,1,.237.306,1.715,1.715,0,0,1-.022.57Z" transform="translate(192.141 -1474.589)"/></g><g transform="translate(6.184 0.058)"><path class="d" d="M-184.276,1474.753l-.087.553h-.448l-.35,2.211h-.755l.35-2.211h-.447l.087-.553Z" transform="translate(186.014 -1474.753)"/></g><g transform="translate(7.744)"><path class="d" d="M-179.774,1476.266q-.066.417-.114.59a.772.772,0,0,1-.179.317.857.857,0,0,1-.328.22,1.2,1.2,0,0,1-.443.077,1.054,1.054,0,0,1-.407-.072.549.549,0,0,1-.264-.218.551.551,0,0,1-.084-.316,5.668,5.668,0,0,1,.073-.6l.075-.473q.066-.417.114-.59a.772.772,0,0,1,.179-.317.86.86,0,0,1,.328-.22,1.2,1.2,0,0,1,.443-.077,1.054,1.054,0,0,1,.407.073.547.547,0,0,1,.264.218.554.554,0,0,1,.085.316,5.8,5.8,0,0,1-.073.6Zm-.612-.908a.793.793,0,0,0,.017-.246q-.014-.054-.084-.054a.125.125,0,0,0-.1.044.654.654,0,0,0-.072.257l-.2,1.291a1.211,1.211,0,0,0-.026.3c.008.038.037.056.087.056a.112.112,0,0,0,.109-.065,1.419,1.419,0,0,0,.07-.309Z" transform="translate(181.594 -1474.589)"/></g></g></g></g><g transform="translate(-767.479 1408.28)"><circle class="d" cx="3.625" cy="3.625" r="3.625" transform="translate(0 0)"/></g><g transform="translate(-649.273 1358.652)"><g transform="translate(0 0)"><g class="f"><path class="g" d="M-426.911,1372.146l-5.635-.255h5.635Z" transform="translate(432.555 -1371.89)"/><path class="h" d="M-426.927,1372.441l-5.644-.256v-.295h.009l5.635.255Z" transform="translate(432.572 -1371.89)"/><path class="i" d="M-426.927,1373.277l-5.644-.256v-.3l5.644.256Z" transform="translate(432.572 -1372.431)"/><path class="j" d="M-426.927,1374.114l-5.644-.256v-.3l5.644.256Z" transform="translate(432.572 -1372.973)"/><path class="k" d="M-426.927,1374.951l-5.644-.256v-.3l5.644.256Z" transform="translate(432.572 -1373.515)"/><path class="l" d="M-426.927,1375.788l-5.644-.256v-.3l5.644.256Z" transform="translate(432.572 -1374.057)"/><path class="m" d="M-426.927,1376.625l-5.644-.256v-.3l5.644.256Z" transform="translate(432.572 -1374.598)"/><path class="n" d="M-426.927,1377.462l-5.644-.256v-.3l5.644.256Z" transform="translate(432.572 -1375.14)"/><path class="o" d="M-426.927,1378.3l-5.644-.256v-.3l5.644.256Z" transform="translate(432.572 -1375.682)"/><path class="p" d="M-426.927,1379.136l-5.644-.256v-.3l5.644.256Z" transform="translate(432.572 -1376.223)"/><path class="q" d="M-426.927,1379.973l-5.644-.256v-.3l5.644.256Z" transform="translate(432.572 -1376.765)"/><path class="r" d="M-426.927,1380.81l-5.644-.256v-.3l5.644.256Z" transform="translate(432.572 -1377.307)"/><path class="s" d="M-426.927,1381.647l-5.644-.256v-.3l5.644.256Z" transform="translate(432.572 -1377.849)"/><path class="t" d="M-426.927,1382.484l-5.644-.256v-.3l5.644.256Z" transform="translate(432.572 -1378.39)"/><path class="u" d="M-426.927,1383.321l-5.644-.256v-.3l5.644.256Z" transform="translate(432.572 -1378.932)"/><path class="v" d="M-426.927,1384.158l-5.644-.256v-.3l5.644.256Z" transform="translate(432.572 -1379.474)"/><path class="w" d="M-426.927,1384.995l-5.644-.256v-.3l5.644.256Z" transform="translate(432.572 -1380.016)"/><path class="x" d="M-426.927,1385.832l-5.644-.256v-.3l5.644.256Z" transform="translate(432.572 -1380.557)"/><path class="y" d="M-426.927,1386.669l-5.644-.256v-.3l5.644.256Z" transform="translate(432.572 -1381.099)"/><path class="z" d="M-426.927,1387.506l-5.644-.256v-.3l5.644.256Z" transform="translate(432.572 -1381.641)"/><path class="aa" d="M-426.927,1388.343l-5.644-.256v-.3l5.644.256Z" transform="translate(432.572 -1382.182)"/><path class="ab" d="M-431.175,1388.987l-1.4-.063v-.3l5.644.256v.1Z" transform="translate(432.572 -1382.724)"/><path class="ac" d="M-432.572,1389.466l1.4.063h-1.4Z" transform="translate(432.572 -1383.266)"/></g></g></g><g transform="translate(-617.947 1361.783)"><g transform="translate(0 0)"><path class="ad" d="M-337.037,1380.768l1.294,3.108-6.73,2.294-1.294-3.108Z" transform="translate(343.767 -1380.768)"/></g></g><g transform="translate(-562.139 1364.309)"><g transform="translate(0 0)"><path class="ae" d="M-198.347,1356.8l3.145,1.321,2.228-2.583-.285,3.4,3.145,1.321-3.321.78-.285,3.4-1.768-2.917-3.321.78,2.228-2.583Z" transform="translate(198.807 -1355.539)"/></g></g><g transform="matrix(0.966, -0.259, 0.259, 0.966, -769.562, 1369.543)"><g transform="translate(26.642 0)"><path class="d" d="M.012.712c-.21.539,2.42,6.716,3.19,7.016.216.084.211-.206.4-.132.9.349-.9-4.452-1.2-5.766C1.912-.343.444-.4.012.712Z"/></g><g transform="translate(22.332 9.851)"><path class="af" d="M1.308,1.053C1.272.961.721-.057.57,0-1.248.715,1.919,2.611,1.308,1.053Z"/></g><g transform="translate(11.331 9.411)"><path class="ad" d="M.949.143A.893.893,0,0,0,.444,0,.47.47,0,0,0,.051.244C-.506,1.368,3.63,5.926,4.779,6.5c.145.072.243.08.277.01C5.183,6.251,2.056.692.949.143Z"/></g><g transform="translate(13.79 21.431)"><path class="ag" d="M.035.251C-.235.795,1.118,2.8,1.678,1.671,1.978,1.066.475-.635.035.251Z"/></g><g transform="translate(0 23.638)"><path class="c" d="M.471,0C-.1.071.185.472.047.75c-.71,1.43,6.859,3.862,7.83,3.606.278-.073.5-.6.294-.7a.162.162,0,0,1-.05-.168C8.143,3.385.669-.025.471,0Z"/></g><g transform="translate(3.269 33.937)"><path class="b" d="M2.213.2A4.25,4.25,0,0,0,.318.044C-.31.327.14,1.395.41,1.273a.709.709,0,0,1,.315.087C1.353,1.641,3.376.984,2.213.2Z"/></g></g><g transform="translate(-554.979 1380.344)"><g transform="translate(0 40.393)"><path class="d" d="M-159.132,1553.137c-.014-.578-4.822-5.264-5.648-5.244-.231.006-.115.271-.318.276-.961.024,2.546,3.761,3.326,4.859C-160.478,1554.842-159.1,1554.327-159.132,1553.137Z" transform="translate(165.264 -1547.893)"/></g><g transform="translate(4.969 33.036)"><path class="af" d="M-150.945,1527.708c.069.071.969.8,1.086.685C-148.457,1527.034-152.11,1526.505-150.945,1527.708Z" transform="translate(151.178 -1527.037)"/></g><g transform="translate(10.835 25.671)"><path class="ad" d="M-128.3,1510.546a.893.893,0,0,0,.519-.067.47.47,0,0,0,.27-.374c.081-1.252-5.492-3.862-6.772-3.945-.162-.01-.255.019-.26.1C-134.566,1506.542-129.538,1510.466-128.3,1510.546Z" transform="translate(134.548 -1506.158)"/></g><g transform="translate(8.325 17.133)"><path class="ag" d="M-139.6,1483.154c.04-.607-1.982-1.934-2.064-.677C-141.705,1483.151-139.662,1484.141-139.6,1483.154Z" transform="translate(141.662 -1481.954)"/></g><g transform="translate(14.468 8.514)"><path class="c" d="M-115.563,1459.362c.5-.285.083-.547.1-.856.1-1.593-7.818-.919-8.615-.309-.229.175-.23.744,0,.759.046,0,.1.067.111.135C-123.947,1459.2-115.736,1459.461-115.563,1459.362Z" transform="translate(124.248 -1457.52)"/></g><g transform="translate(13.576 0)"><path class="b" d="M-126.241,1435.1a4.246,4.246,0,0,0,1.809-.586c.47-.5-.356-1.315-.558-1.1a.71.71,0,0,1-.324.042C-126,1433.445-127.616,1434.83-126.241,1435.1Z" transform="translate(126.779 -1433.385)"/></g></g></g></svg>