<svg xmlns="http://www.w3.org/2000/svg" width="219" height="57.413" viewBox="0 0 219 57.413"><defs><style>.a{fill:#50acff;}.b{fill:#fff;}.c{fill:#ea0c90;}</style></defs><g transform="translate(-3187.594 -1998.234)"><g transform="translate(3187.594 2009.288)"><g transform="translate(41.441)"><path class="a" d="M3326.144,2033.378h11.137a3.407,3.407,0,0,1,3.415,4.356l-1.4,6.489a5.7,5.7,0,0,1-5.3,4.356h-11.137a3.407,3.407,0,0,1-3.415-4.356l1.4-6.489A5.7,5.7,0,0,1,3326.144,2033.378Z" transform="translate(-3319.345 -2033.378)"/></g><g transform="translate(35.307 17.876)"><g transform="translate(2.833 0.028)"><path class="a" d="M3312.838,2100.28a5.907,5.907,0,0,0,5.388-3.42H3315.6a2.778,2.778,0,0,1-2.323,1.257c-1.466,0-2.235-1.089-1.861-2.82a3.254,3.254,0,0,1,3.079-2.82,1.669,1.669,0,0,1,1.781,1.256h2.625c-.1-2.122-1.575-3.434-3.907-3.434a6.2,6.2,0,0,0-6.007,5C3308.355,2098.227,3309.947,2100.28,3312.838,2100.28Z" transform="translate(-3308.85 -2090.299)"/></g><g transform="translate(13.633 0.14)"><path class="a" d="M3349.129,2096.516a2.076,2.076,0,0,1-2.127,1.828c-1.132,0-1.558-.67-1.308-1.828l1.267-5.863h-2.386l-1.262,5.848c-.585,2.708.9,4.05,3.175,4.05a4.987,4.987,0,0,0,5.034-4.05l1.262-5.848h-2.389Z" transform="translate(-3343.184 -2090.653)"/></g><g transform="translate(23.309)"><path class="a" d="M3378.042,2100.246a6.57,6.57,0,0,0,6.086-5.04,3.924,3.924,0,0,0-3.96-5,6.572,6.572,0,0,0-6.08,5.011,3.845,3.845,0,0,0,3.7,5.025C3377.871,2100.248,3377.956,2100.248,3378.042,2100.246Zm1.7-7.873c1.565,0,2.345,1.1,1.968,2.848a3.33,3.33,0,0,1-3.2,2.849c-1.591,0-2.352-1.13-1.981-2.849a3.3,3.3,0,0,1,3.212-2.848Z" transform="translate(-3373.946 -2090.209)"/></g><g transform="translate(34.938 0.14)"><path class="a" d="M3411.807,2100.453h2.387l1.7-7.888h2.6l.414-1.912h-7.58l-.413,1.912h2.6Z" transform="translate(-3410.916 -2090.653)"/></g><g transform="translate(41.368 0.14)"><path class="a" d="M3438.479,2098.722l.213,1.731h2.525l-1.429-9.8h-2.764l-5.664,9.8h2.5l.96-1.731Zm-.655-5.431.438,3.588h-2.415Z" transform="translate(-3431.36 -2090.654)"/></g><g transform="translate(0 13.15)"><path class="a" d="M3304.254,2138.156h3.029a3.053,3.053,0,0,1-2.747,1.731c-1.717,0-2.52-1.061-2.128-2.876a3.268,3.268,0,0,1,3.156-2.791,1.606,1.606,0,0,1,1.709,1.005h2.638c-.083-2.01-1.526-3.21-3.871-3.21a6.224,6.224,0,0,0-6.063,5c-.634,2.932.99,4.984,3.921,4.984a6.251,6.251,0,0,0,5.449-3.376l.479-2.219h-5.193Z" transform="translate(-3299.842 -2132.015)"/></g><g transform="translate(10.116 13.26)"><path class="a" d="M3341.061,2135.45c.368-1.7-.534-3.085-2.935-3.085h-4.007l-2.116,9.8h2.387l.8-3.7h.572l1.24,3.7h2.694l-1.425-3.882A3.777,3.777,0,0,0,3341.061,2135.45Zm-4.027,1.329h-1.481l.525-2.429h1.481c.894,0,1.21.473,1.053,1.2a1.46,1.46,0,0,1-1.577,1.228Z" transform="translate(-3332.003 -2132.365)"/></g><g transform="translate(18.575 13.259)"><path class="a" d="M3364.56,2132.362l-5.663,9.8h2.5l.96-1.731h3.657l.213,1.731h2.525l-1.431-9.8Zm-1.177,6.226,1.975-3.588.438,3.588Z" transform="translate(-3358.897 -2132.362)"/></g><g transform="translate(30.68 13.26)"><path class="a" d="M3397.38,2134.276h2.6l-1.7,7.888h2.387l1.7-7.888h2.6l.413-1.912h-7.581Z" transform="translate(-3397.38 -2132.364)"/></g><g transform="translate(37.756 13.261)"><path class="a" d="M3421.992,2132.369h2.387l-2.116,9.8h-2.387Z" transform="translate(-3419.876 -2132.369)"/></g><g transform="translate(42.17 13.122)"><path class="a" d="M3437.431,2134.731a1.117,1.117,0,0,1,1.2-.893.828.828,0,0,1,.916.987h0l-.007.031h2.583c.306-1.87-.9-2.931-3.038-2.931-2.053,0-3.8,1.033-4.2,2.891-.778,3.475,4.333,2.5,3.94,4.314a1.256,1.256,0,0,1-1.344.921.877.877,0,0,1-1-.739.867.867,0,0,1,.005-.287v0c0-.03.009-.059.015-.089h-2.54c-.359,1.982,1.063,3.029,3.17,3.029a4.086,4.086,0,0,0,4.226-3.015C3442.073,2135.666,3437.063,2136.434,3437.431,2134.731Z" transform="translate(-3433.911 -2131.925)"/></g></g><g transform="translate(0 0.727)"><path class="a" d="M3189.1,2069.04c10-7.011,20.542-13.966,22-20.7.626-2.9-.285-4.764-3.134-4.764-2.792,0-4.909,2.191-5.725,5.971H3193.2c2.368-9.7,9.565-13.855,16.849-13.855,9.092,0,12,5.313,10.542,12.049-1.894,8.764-11.24,15.773-18.644,20.648h14.785l-1.645,7.612h-27.494Z" transform="translate(-3187.594 -2035.688)"/></g><g transform="translate(2.734 0.727)"><path class="b" d="M3197.79,2069.04c10-7.011,20.542-13.966,22-20.7.626-2.9-.286-4.764-3.134-4.764-2.793,0-4.909,2.191-5.726,5.971h-9.038c2.368-9.7,9.565-13.855,16.85-13.855,9.092,0,12,5.313,10.543,12.049-1.894,8.764-11.24,15.773-18.645,20.648h14.788l-1.645,7.613h-27.495Z" transform="translate(-3196.287 -2035.688)"/></g><g transform="translate(36.615 17.876)"><g transform="translate(2.832 0.028)"><path class="b" d="M3317,2100.279a5.908,5.908,0,0,0,5.388-3.42h-2.625a2.776,2.776,0,0,1-2.324,1.257c-1.465,0-2.235-1.089-1.86-2.82a3.254,3.254,0,0,1,3.079-2.82,1.669,1.669,0,0,1,1.781,1.257h2.625c-.1-2.122-1.576-3.434-3.908-3.434a6.2,6.2,0,0,0-6.006,5C3312.512,2098.227,3314.106,2100.279,3317,2100.279Z" transform="translate(-3313.007 -2090.298)"/></g><g transform="translate(13.632 0.14)"><path class="b" d="M3353.289,2096.516a2.076,2.076,0,0,1-2.127,1.828c-1.132,0-1.558-.67-1.308-1.828l1.267-5.863h-2.387l-1.263,5.848c-.585,2.708.9,4.05,3.175,4.05a4.987,4.987,0,0,0,5.034-4.05l1.262-5.848h-2.388Z" transform="translate(-3347.342 -2090.653)"/></g><g transform="translate(23.309)"><path class="b" d="M3382.2,2100.246a6.571,6.571,0,0,0,6.086-5.04,3.924,3.924,0,0,0-3.96-5,6.573,6.573,0,0,0-6.081,5.011,3.845,3.845,0,0,0,3.7,5.025C3382.031,2100.248,3382.116,2100.248,3382.2,2100.246Zm1.7-7.873c1.565,0,2.344,1.1,1.968,2.848a3.33,3.33,0,0,1-3.2,2.849c-1.591,0-2.352-1.13-1.981-2.849a3.3,3.3,0,0,1,3.212-2.848Z" transform="translate(-3378.105 -2090.209)"/></g><g transform="translate(34.937 0.14)"><path class="b" d="M3415.965,2100.453h2.387l1.7-7.888h2.6l.413-1.912h-7.579l-.414,1.912h2.6Z" transform="translate(-3415.073 -2090.653)"/></g><g transform="translate(41.368 0.14)"><path class="b" d="M3442.638,2098.722l.212,1.731h2.525l-1.429-9.8h-2.764l-5.664,9.8h2.5l.96-1.731Zm-.656-5.43.438,3.588h-2.415Z" transform="translate(-3435.519 -2090.654)"/></g><g transform="translate(0 13.15)"><path class="b" d="M3308.413,2138.156h3.03a3.053,3.053,0,0,1-2.747,1.731c-1.717,0-2.52-1.061-2.129-2.876a3.269,3.269,0,0,1,3.157-2.791,1.606,1.606,0,0,1,1.709,1.005h2.639c-.083-2.01-1.527-3.21-3.871-3.21a6.223,6.223,0,0,0-6.062,5c-.634,2.932.99,4.984,3.92,4.984a6.247,6.247,0,0,0,5.447-3.378l.479-2.22h-5.195Z" transform="translate(-3304.002 -2132.015)"/></g><g transform="translate(10.115 13.26)"><path class="b" d="M3345.219,2135.45c.368-1.7-.534-3.085-2.936-3.085h-4.006l-2.117,9.8h2.387l.8-3.7h.572l1.24,3.7h2.694l-1.423-3.882A3.778,3.778,0,0,0,3345.219,2135.45Zm-4.028,1.329h-1.48l.525-2.429h1.479c.894,0,1.21.473,1.053,1.2a1.46,1.46,0,0,1-1.577,1.228Z" transform="translate(-3336.161 -2132.365)"/></g><g transform="translate(18.576 13.259)"><path class="b" d="M3368.721,2132.362l-5.662,9.8h2.5l.96-1.731h3.656l.213,1.731h2.525l-1.429-9.8Zm-1.177,6.226,1.975-3.588.438,3.588Z" transform="translate(-3363.059 -2132.362)"/></g><g transform="translate(30.68 13.26)"><path class="b" d="M3401.539,2134.276h2.6l-1.7,7.888h2.387l1.7-7.888h2.6l.413-1.912h-7.582Z" transform="translate(-3401.539 -2132.364)"/></g><g transform="translate(37.756 13.261)"><path class="b" d="M3426.152,2132.369h2.386l-2.116,9.8h-2.387Z" transform="translate(-3424.035 -2132.369)"/></g><g transform="translate(42.173 13.12)"><path class="b" d="M3441.595,2134.728a1.117,1.117,0,0,1,1.2-.893.828.828,0,0,1,.916.986h0c0,.011,0,.022-.005.031h2.583c.306-1.871-.9-2.932-3.038-2.932-2.052,0-3.8,1.033-4.2,2.891-.781,3.474,4.332,2.5,3.94,4.314a1.256,1.256,0,0,1-1.344.921.878.878,0,0,1-.991-1.027v0c0-.029.009-.058.016-.089h-2.539c-.358,1.98,1.063,3.029,3.171,3.029a4.086,4.086,0,0,0,4.226-3.015C3446.237,2135.663,3441.227,2136.431,3441.595,2134.728Z" transform="translate(-3438.078 -2131.921)"/></g></g><g transform="translate(46.697 2.272)"><path class="b" d="M3339.006,2042.222a1.5,1.5,0,0,1,1.432.792l.521-2.413h1.595l-1.489,6.9h-1.595l.161-.747a2.27,2.27,0,0,1-1.779.82c-1.277,0-2.068-1.043-1.714-2.684A3.121,3.121,0,0,1,3339.006,2042.222Zm.166,1.389a1.508,1.508,0,0,0-1.412,1.277c-.179.831.261,1.3.856,1.3a1.512,1.512,0,0,0,1.415-1.286c.179-.83-.254-1.286-.86-1.286Z" transform="translate(-3336.053 -2040.601)"/><g transform="translate(6.329 1.614)"><path class="b" d="M3359.126,2045.739a1.42,1.42,0,0,1,1.429.811l.159-.735h1.595l-1.123,5.2h-1.595l.159-.736a2.32,2.32,0,0,1-1.788.811c-1.267,0-2.057-1.043-1.7-2.684A3.119,3.119,0,0,1,3359.126,2045.739Zm.166,1.389a1.508,1.508,0,0,0-1.412,1.277c-.179.831.261,1.3.857,1.3a1.512,1.512,0,0,0,1.415-1.286c.179-.83-.254-1.285-.86-1.285Z" transform="translate(-3356.174 -2045.732)"/></g></g><g transform="translate(45.523 10.827)"><path class="b" d="M3332.659,2067.8h11.816l-.338,1.565h-11.816Z" transform="translate(-3332.322 -2067.8)"/></g></g><g transform="translate(3283.678 2023.471)"><g transform="translate(0)"><path class="b" d="M3496.344,2086.558h4.769v-4.812a3.278,3.278,0,0,1,3.278-3.278h.231a3.278,3.278,0,0,1,3.278,3.278v4.813h4.813a3.277,3.277,0,0,1,3.277,3.278v.231a3.277,3.277,0,0,1-3.277,3.277H3507.9v4.769a3.278,3.278,0,0,1-3.278,3.278h-.231a3.278,3.278,0,0,1-3.278-3.278v-4.769h-4.769a3.277,3.277,0,0,1-3.277-3.277v-.231A3.277,3.277,0,0,1,3496.344,2086.558Z" transform="translate(-3493.067 -2078.468)"/></g></g><g transform="translate(3285.045 2024.319)"><g transform="translate(0 0)"><path class="c" d="M3500.688,2089.255h4.769v-4.813a3.277,3.277,0,0,1,3.278-3.277h.231a3.277,3.277,0,0,1,3.278,3.277v4.813h4.813a3.277,3.277,0,0,1,3.278,3.278v.231a3.277,3.277,0,0,1-3.278,3.278h-4.812v4.769a3.277,3.277,0,0,1-3.278,3.277h-.231a3.277,3.277,0,0,1-3.278-3.277v-4.769h-4.769a3.278,3.278,0,0,1-3.278-3.278v-.231A3.278,3.278,0,0,1,3500.688,2089.255Z" transform="translate(-3497.41 -2081.165)"/></g></g><g transform="translate(3313.836 2011.738)"><g transform="translate(19.76 2.71)"><g transform="translate(0.001)"><path class="a" d="M3673.4,2050.163l-6.045,38.126-11.458,1.332,3.123-21.545a31.2,31.2,0,0,0,.529-5.507,1.916,1.916,0,0,0-1.254-1.46,17.638,17.638,0,0,0-5.318-.664l-1.209-.041.636-4.75c6.026-.8,10.721-2.757,14.167-5.873Z" transform="translate(-3651.767 -2049.782)"/></g><g transform="translate(19.54 0.381)"><path class="a" d="M3715.976,2050.993l1.6,1.359-2.062,1.55-1.628-1.046Z" transform="translate(-3713.886 -2050.993)"/></g><g transform="translate(4.128 38.738)"><path class="a" d="M3664.888,2174.039l1.6,1.359,1.009-1.3-.312-1.079-.487-.077Z" transform="translate(-3664.888 -2172.937)"/></g><g transform="translate(0 9.627)"><path class="a" d="M3651.764,2081.384l1.6,1.359.895-.964-.324-1.312-.5-.08Z" transform="translate(-3651.764 -2080.387)"/></g></g><g transform="translate(0 0.341)"><path class="a" d="M3598.827,2047.22l-3.11.678-.589-.632.191-1.151a2.2,2.2,0,0,0,.029-1.024.429.429,0,0,0-.436-.215.734.734,0,0,0-.593.3,2.008,2.008,0,0,0-.335.9,2.447,2.447,0,0,0,.013,1.168,2.326,2.326,0,0,0,.969.936,8.822,8.822,0,0,1,2.923,2.587,5.663,5.663,0,0,1,.153,3.3,6.593,6.593,0,0,1-.781,2.452,3.88,3.88,0,0,1-1.7,1.337,6.49,6.49,0,0,1-2.657.562,5.1,5.1,0,0,1-2.647-.583,2.334,2.334,0,0,1-1.231-1.545,7.83,7.83,0,0,1,.1-2.691l.17-1.017,3.714-.044.589.632-.9,1.258a2.411,2.411,0,0,0-.028,1.12.5.5,0,0,0,.515.243.792.792,0,0,0,.646-.324,2.1,2.1,0,0,0,.349-.942,2.725,2.725,0,0,0-.075-1.79,9.126,9.126,0,0,0-1.637-1.387,14.132,14.132,0,0,1-1.732-1.425,2.706,2.706,0,0,1-.593-1.237,5.3,5.3,0,0,1,.025-2.029,6.511,6.511,0,0,1,.889-2.613,3.94,3.94,0,0,1,1.669-1.308,6.314,6.314,0,0,1,2.5-.5,5.619,5.619,0,0,1,2.554.475,2.156,2.156,0,0,1,1.233,1.262,6.654,6.654,0,0,1-.076,2.62Z" transform="translate(-3588.944 -2042.251)"/></g><g transform="translate(8.891 0)"><path class="a" d="M3627.236,2041.166l.843.841-7.958,15.354-2.321.665-.589-.632,7.172-16.191Z" transform="translate(-3617.211 -2041.166)"/></g><g transform="translate(41.912 3.65)"><path class="a" d="M3745.869,2065.862l-1.807,12.343a31.958,31.958,0,0,1-1.342,6.133,10.43,10.43,0,0,1-2.387,3.613,9.961,9.961,0,0,1-3.768,2.443,13.991,13.991,0,0,1-4.584.786,15.343,15.343,0,0,1-5.31-.7,5.94,5.94,0,0,1-3.088-2.345,8.552,8.552,0,0,1-1.31-3.393,21.306,21.306,0,0,1,.319-5.693l1.953-12.9a27.692,27.692,0,0,1,2.021-7.639,9.495,9.495,0,0,1,4.035-4.111,13.28,13.28,0,0,1,6.424-1.615,11.588,11.588,0,0,1,5.15.989,7.039,7.039,0,0,1,3.117,2.546,7.383,7.383,0,0,1,1.063,3.428A32.17,32.17,0,0,1,3745.869,2065.862Zm-8.571-2.987a13.99,13.99,0,0,0,.271-3.686q-.168-.738-1.2-.725a1.553,1.553,0,0,0-1.447.806,13.325,13.325,0,0,0-.871,3.648l-2.694,18.049a13.519,13.519,0,0,0-.273,3.88q.2.659,1.216.646a1.533,1.533,0,0,0,1.441-.794,12.78,12.78,0,0,0,.831-3.5Z" transform="translate(-3722.189 -2052.77)"/></g><g transform="translate(1.143 0.973)"><path class="b" d="M3602.459,2049.228l-3.7.046.191-1.151a2.192,2.192,0,0,0,.029-1.024.428.428,0,0,0-.436-.215.735.735,0,0,0-.594.3,2.017,2.017,0,0,0-.335.9,2.444,2.444,0,0,0,.012,1.168,2.327,2.327,0,0,0,.969.936,8.8,8.8,0,0,1,2.923,2.586,5.669,5.669,0,0,1,.154,3.3,6.6,6.6,0,0,1-.781,2.452,3.878,3.878,0,0,1-1.7,1.337,6.488,6.488,0,0,1-2.657.561,5.1,5.1,0,0,1-2.646-.583,2.333,2.333,0,0,1-1.231-1.545,7.81,7.81,0,0,1,.1-2.691l.17-1.017,3.714-.043-.312,1.89a2.41,2.41,0,0,0-.028,1.121q.116.247.516.243a.792.792,0,0,0,.646-.324,2.1,2.1,0,0,0,.349-.942,2.724,2.724,0,0,0-.075-1.79,9.11,9.11,0,0,0-1.637-1.387,14.11,14.11,0,0,1-1.732-1.425,2.691,2.691,0,0,1-.592-1.237,5.3,5.3,0,0,1,.024-2.029,6.514,6.514,0,0,1,.889-2.613,3.939,3.939,0,0,1,1.669-1.308,6.316,6.316,0,0,1,2.5-.5,5.609,5.609,0,0,1,2.554.475,2.158,2.158,0,0,1,1.234,1.262,6.659,6.659,0,0,1-.076,2.62Z" transform="translate(-3592.577 -2044.259)"/></g><g transform="translate(9.734 0.841)"><path class="b" d="M3629.917,2043.839l-7.115,16.195-2.911.033,7.172-16.19Z" transform="translate(-3619.891 -2043.839)"/></g><g transform="translate(43.314 5.151)"><path class="b" d="M3750.326,2070.633l-1.808,12.343a31.906,31.906,0,0,1-1.341,6.133,10.432,10.432,0,0,1-2.387,3.612,9.957,9.957,0,0,1-3.768,2.443,14.006,14.006,0,0,1-4.583.786,15.345,15.345,0,0,1-5.31-.7,5.937,5.937,0,0,1-3.087-2.345,8.541,8.541,0,0,1-1.31-3.393,21.315,21.315,0,0,1,.319-5.693l1.953-12.9a27.721,27.721,0,0,1,2.021-7.639,9.489,9.489,0,0,1,4.036-4.111,13.28,13.28,0,0,1,6.424-1.615,11.583,11.583,0,0,1,5.149.989,7.036,7.036,0,0,1,3.117,2.545,7.386,7.386,0,0,1,1.064,3.429A32.36,32.36,0,0,1,3750.326,2070.633Zm-8.572-2.988a14,14,0,0,0,.271-3.686q-.168-.738-1.2-.725a1.552,1.552,0,0,0-1.447.806,13.346,13.346,0,0,0-.872,3.648l-2.694,18.049a13.487,13.487,0,0,0-.273,3.881q.2.658,1.217.646a1.531,1.531,0,0,0,1.44-.794,12.761,12.761,0,0,0,.831-3.5Z" transform="translate(-3726.647 -2057.541)"/></g><g transform="translate(66.49 2.908)"><path class="a" d="M3824.008,2063.5l-1.807,12.343a32.02,32.02,0,0,1-1.342,6.133,10.428,10.428,0,0,1-2.387,3.612,9.97,9.97,0,0,1-3.768,2.442,14.006,14.006,0,0,1-4.583.786,15.329,15.329,0,0,1-5.31-.7,5.935,5.935,0,0,1-3.087-2.345,8.543,8.543,0,0,1-1.31-3.393,21.314,21.314,0,0,1,.319-5.693l1.953-12.9a27.7,27.7,0,0,1,2.021-7.639,9.487,9.487,0,0,1,4.036-4.111,13.276,13.276,0,0,1,6.424-1.615,11.583,11.583,0,0,1,5.15.99,7.028,7.028,0,0,1,3.116,2.546,7.387,7.387,0,0,1,1.064,3.428A32.421,32.421,0,0,1,3824.008,2063.5Zm-8.571-2.988a13.974,13.974,0,0,0,.271-3.685q-.168-.738-1.2-.725a1.554,1.554,0,0,0-1.447.806,13.344,13.344,0,0,0-.871,3.648l-2.694,18.049a13.512,13.512,0,0,0-.274,3.881q.2.659,1.217.646a1.532,1.532,0,0,0,1.44-.794,12.8,12.8,0,0,0,.831-3.5Z" transform="translate(-3800.329 -2050.41)"/></g><g transform="translate(67.892 4.409)"><path class="b" d="M3828.463,2068.275l-1.807,12.343a32.03,32.03,0,0,1-1.341,6.133,10.427,10.427,0,0,1-2.387,3.612,9.965,9.965,0,0,1-3.766,2.443,14,14,0,0,1-4.584.786,15.338,15.338,0,0,1-5.31-.7,5.942,5.942,0,0,1-3.088-2.345,8.552,8.552,0,0,1-1.309-3.393,21.306,21.306,0,0,1,.319-5.692l1.953-12.9a27.7,27.7,0,0,1,2.021-7.639,9.487,9.487,0,0,1,4.035-4.111,13.278,13.278,0,0,1,6.424-1.615,11.584,11.584,0,0,1,5.15.989,7.037,7.037,0,0,1,3.117,2.545,7.4,7.4,0,0,1,1.063,3.429A32.465,32.465,0,0,1,3828.463,2068.275Zm-8.572-2.987a14.01,14.01,0,0,0,.272-3.686q-.168-.738-1.2-.725a1.554,1.554,0,0,0-1.447.806,13.37,13.37,0,0,0-.871,3.648l-2.694,18.049a13.523,13.523,0,0,0-.273,3.88q.2.658,1.217.646a1.532,1.532,0,0,0,1.441-.794,12.765,12.765,0,0,0,.83-3.5Z" transform="translate(-3804.786 -2055.183)"/></g><g transform="translate(21.313 4.367)"><path class="b" d="M3678.332,2055.433l-6.165,38.879-11.323.275,3.108-21.242a31.2,31.2,0,0,0,.53-5.507,1.917,1.917,0,0,0-1.254-1.459,17.633,17.633,0,0,0-5.318-.664l-1.209-.041.636-4.75c6.026-.8,10.722-2.757,14.167-5.873Z" transform="translate(-3656.701 -2055.051)"/></g></g><g transform="translate(3348.68 1998.234)"><path class="b" d="M3751.907,2011.165h-46.461c-3.157,0-5.726-2.9-5.726-6.465s2.569-6.465,5.726-6.465h46.461c3.158,0,5.727,2.9,5.727,6.465S3755.064,2011.165,3751.907,2011.165Zm-46.461-12.3c-2.85,0-5.169,2.618-5.169,5.836s2.319,5.836,5.169,5.836h46.461c2.851,0,5.169-2.618,5.169-5.836s-2.319-5.836-5.169-5.836Z" transform="translate(-3699.719 -1998.234)"/></g><g transform="translate(3353.293 2001.484)"><g transform="translate(0 0.026)"><path class="b" d="M3715.352,2014.523c-.179,0-.3-.145-.325-.362l-.641-5.035c.034-.269.214-.475.41-.475h.591c.154,0,.291.176.308.372l.41,3.237,1.352-3.237c.086-.2.273-.372.428-.372h.59c.2,0,.308.207.273.475l-2.113,5.035a.51.51,0,0,1-.427.362Z" transform="translate(-3714.385 -2008.65)"/></g><g transform="translate(3.549 0.026)"><path class="b" d="M3729.319,2014.575c-.5,0-.573-.455-.624-.8l-.077-.5h-1.257l-.376.858c-.077.207-.24.383-.41.383h-.616c-.2,0-.325-.176-.282-.424l2.189-5.087a.531.531,0,0,1,.427-.362h.718c.163,0,.282.145.316.362l.582,4.073c.025.135.034.249.06.259a.391.391,0,0,1,.145.372l-.051.341C3730.012,2014.45,3729.593,2014.575,3729.319,2014.575Zm-1.411-2.606h.522l-.12-.941Z" transform="translate(-3725.668 -2008.65)"/></g><g transform="translate(8.67 0.026)"><path class="b" d="M3742.241,2014.523c-.205,0-.325-.176-.282-.424l.727-5.025a.453.453,0,0,1,.41-.424h.556c.2,0,.325.176.282.424l-.59,4.053h1.6c.2,0,.324.176.291.414l-.077.558a.46.46,0,0,1-.41.424Z" transform="translate(-3741.95 -2008.65)"/></g><g transform="translate(12.689 0.026)"><path class="b" d="M3755.016,2014.523c-.205,0-.325-.176-.282-.424l.727-5.025a.453.453,0,0,1,.41-.424h2.626c.205,0,.316.176.273.424l-.077.569a.438.438,0,0,1-.4.414h-1.719l-.128.838h1.223c.2,0,.308.186.273.424l-.077.559a.455.455,0,0,1-.4.424h-1.223l-.12.827h1.719c.205,0,.316.176.282.414l-.077.558c-.042.248-.2.424-.4.424Z" transform="translate(-3754.725 -2008.65)"/></g><g transform="translate(20.745)"><path class="b" d="M3781.3,2014.441c-.179,0-.3-.145-.325-.362l-.641-5.036c.034-.269.214-.475.41-.475h.59c.154,0,.291.175.308.372l.411,3.237,1.352-3.237c.085-.2.273-.372.427-.372h.59c.2,0,.308.207.273.475l-2.112,5.036a.511.511,0,0,1-.427.362Z" transform="translate(-3780.337 -2008.568)"/></g><g transform="translate(25.148)"><path class="b" d="M3795.594,2014.017a.461.461,0,0,1-.411.424h-.565c-.2,0-.316-.176-.273-.424l.727-5.025a.453.453,0,0,1,.4-.424h.564c.2,0,.325.175.283.424Z" transform="translate(-3794.336 -2008.568)"/></g><g transform="translate(27.474)"><path class="b" d="M3804.339,2008.568c1.18,0,1.685.62,1.48,2.037a2.375,2.375,0,0,1-.761,1.623,7.731,7.731,0,0,0,.2,1.034.365.365,0,0,1,.12.372l-.052.341a.675.675,0,0,1-.727.517c-.462,0-.539-.352-.607-.734l-.2-1.137h-.6l-.2,1.4c-.043.248-.2.424-.411.424h-.547c-.2,0-.333-.176-.291-.424l.727-5.025a.467.467,0,0,1,.419-.424Zm.231,2.037c.051-.383-.094-.631-.359-.631h-.633l-.188,1.251h.633C3804.3,2011.225,3804.51,2011,3804.57,2010.6Z" transform="translate(-3801.732 -2008.568)"/></g><g transform="translate(32.359)"><path class="b" d="M3820.687,2008.568c.2,0,.308.175.265.424l-.077.569a.437.437,0,0,1-.393.414h-.847l-.59,4.043a.461.461,0,0,1-.41.424h-.565c-.2,0-.316-.176-.274-.424l.591-4.043h-.847c-.2,0-.308-.176-.274-.414l.077-.569a.453.453,0,0,1,.4-.424Z" transform="translate(-3817.26 -2008.568)"/></g><g transform="translate(36.377)"><path class="b" d="M3830.119,2011.8l.41-2.813a.468.468,0,0,1,.419-.424h.556c.2,0,.316.175.274.424l-.419,2.885c-.163,1.137.222,1.22.513,1.22s.71-.083.872-1.22l.419-2.885a.46.46,0,0,1,.41-.424h.556c.2,0,.325.175.282.424l-.41,2.813c-.333,2.316-1.138,2.688-2.326,2.688S3829.785,2014.12,3830.119,2011.8Z" transform="translate(-3830.036 -2008.568)"/></g><g transform="translate(40.667)"><path class="b" d="M3847.325,2014.493c-.5,0-.573-.455-.624-.8l-.077-.5h-1.257l-.376.858c-.077.207-.24.383-.41.383h-.616c-.2,0-.325-.176-.282-.424l2.19-5.087a.531.531,0,0,1,.427-.362h.719c.162,0,.282.145.316.362l.582,4.074c.026.134.034.248.06.259a.392.392,0,0,1,.146.372l-.052.341C3848.018,2014.368,3847.6,2014.493,3847.325,2014.493Zm-1.411-2.606h.522l-.12-.941Z" transform="translate(-3843.674 -2008.568)"/></g><g transform="translate(45.788)"><path class="b" d="M3860.246,2014.441c-.205,0-.325-.176-.282-.424l.727-5.025a.453.453,0,0,1,.411-.424h.556c.2,0,.325.175.282.424l-.59,4.053h1.6c.2,0,.325.176.291.414l-.077.558a.46.46,0,0,1-.41.424Z" transform="translate(-3859.955 -2008.568)"/></g></g></g></svg>