<svg xmlns="http://www.w3.org/2000/svg" width="260.899" height="59.409" viewBox="0 0 260.899 59.409">
  <g id="Grupo_27835" data-name="Grupo 27835" transform="translate(-42.829 -5.999)">
    <g id="Grupo_22815" data-name="Grupo 22815" transform="translate(810.308 -1355.652)">
      <g id="Grupo_21381" data-name="Grupo 21381" transform="translate(-627.236 1392.584)">
        <g id="Grupo_21380" data-name="Grupo 21380" transform="translate(0 0)">
          <g id="Trazado_20088" data-name="Trazado 20088">
            <g id="Trazado_20193" data-name="Trazado 20193">
              <g id="Grupo_22749" data-name="Grupo 22749">
                <path id="Trazado_24928" data-name="Trazado 24928" d="M-359.231,1468.085v5.51h5.63v4.708h-5.63v5.478h-5.241V1478.3H-370.1V1473.6h5.629v-5.512Z" transform="translate(370.101 -1468.085)" fill="#ea0d90"/>
              </g>
            </g>
          </g>
        </g>
      </g>
      <g id="Grupo_22778" data-name="Grupo 22778" transform="translate(-741.616 1368.758)">
        <g id="Grupo_21326" data-name="Grupo 21326" transform="translate(49.454 0)">
          <g id="Grupo_21325" data-name="Grupo 21325">
            <g id="Rectángulo_6078" data-name="Rectángulo 6078">
              <g id="Rectángulo_6083" data-name="Rectángulo 6083">
                <g id="Grupo_22750" data-name="Grupo 22750">
                  <path id="Trazado_24929" data-name="Trazado 24929" d="M-546.042,1400.54h13.29a4.066,4.066,0,0,1,4.076,5.2l-1.672,7.744a6.8,6.8,0,0,1-6.321,5.2h-13.29a4.066,4.066,0,0,1-4.075-5.2l1.672-7.744A6.8,6.8,0,0,1-546.042,1400.54Z" transform="translate(554.156 -1400.54)" fill="#003aad"/>
                </g>
              </g>
            </g>
          </g>
        </g>
        <g id="Grupo_21349" data-name="Grupo 21349" transform="translate(42.135 21.333)">
          <g id="Grupo_21328" data-name="Grupo 21328" transform="translate(3.38 0.033)">
            <g id="Grupo_21327" data-name="Grupo 21327">
              <g id="Trazado_20064" data-name="Trazado 20064">
                <g id="Trazado_20169" data-name="Trazado 20169">
                  <g id="Grupo_22751" data-name="Grupo 22751">
                    <path id="Trazado_24930" data-name="Trazado 24930" d="M-560.563,1473.02a7.048,7.048,0,0,0,6.429-4.082h-3.131a3.313,3.313,0,0,1-2.772,1.5c-1.749,0-2.667-1.3-2.221-3.365a3.883,3.883,0,0,1,3.675-3.365,1.991,1.991,0,0,1,2.125,1.5h3.132c-.12-2.532-1.88-4.1-4.662-4.1a7.4,7.4,0,0,0-7.169,5.964C-565.914,1470.571-564.014,1473.02-560.563,1473.02Z" transform="translate(565.323 -1461.109)" fill="#fff"/>
                  </g>
                </g>
              </g>
            </g>
          </g>
          <g id="Grupo_21330" data-name="Grupo 21330" transform="translate(16.267 0.167)">
            <g id="Grupo_21329" data-name="Grupo 21329">
              <g id="Trazado_20065" data-name="Trazado 20065">
                <g id="Trazado_20170" data-name="Trazado 20170">
                  <g id="Grupo_22752" data-name="Grupo 22752">
                    <path id="Trazado_24931" data-name="Trazado 24931" d="M-521.695,1468.484a2.477,2.477,0,0,1-2.537,2.182c-1.349,0-1.859-.8-1.561-2.182l1.511-7h-2.849l-1.507,6.98c-.7,3.232,1.073,4.833,3.789,4.833a5.952,5.952,0,0,0,6.008-4.833l1.507-6.98h-2.851Z" transform="translate(528.79 -1461.487)" fill="#fff"/>
                  </g>
                </g>
              </g>
            </g>
          </g>
          <g id="Grupo_21332" data-name="Grupo 21332" transform="translate(27.814)">
            <g id="Grupo_21331" data-name="Grupo 21331">
              <g id="Trazado_20066" data-name="Trazado 20066">
                <g id="Trazado_20171" data-name="Trazado 20171">
                  <g id="Grupo_22753" data-name="Grupo 22753">
                    <path id="Trazado_24932" data-name="Trazado 24932" d="M-491.168,1472.992a7.841,7.841,0,0,0,7.263-6.013,4.683,4.683,0,0,0-4.725-5.964,7.843,7.843,0,0,0-7.255,5.981c-.777,3.233,1.2,5.918,4.416,6Q-491.321,1473-491.168,1472.992Zm2.029-9.4c1.866,0,2.8,1.316,2.348,3.4a3.973,3.973,0,0,1-3.816,3.4c-1.9,0-2.807-1.349-2.365-3.4a3.937,3.937,0,0,1,3.832-3.4Z" transform="translate(496.055 -1461.015)" fill="#fff"/>
                  </g>
                </g>
              </g>
            </g>
          </g>
          <g id="Grupo_21334" data-name="Grupo 21334" transform="translate(41.691 0.167)">
            <g id="Grupo_21333" data-name="Grupo 21333">
              <g id="Trazado_20067" data-name="Trazado 20067">
                <g id="Trazado_20172" data-name="Trazado 20172">
                  <g id="Grupo_22754" data-name="Grupo 22754">
                    <path id="Trazado_24933" data-name="Trazado 24933" d="M-455.652,1473.182h2.848l2.033-9.413h3.1l.493-2.282h-9.044l-.493,2.282h3.1Z" transform="translate(456.716 -1461.487)" fill="#fff"/>
                  </g>
                </g>
              </g>
            </g>
          </g>
          <g id="Grupo_21336" data-name="Grupo 21336" transform="translate(49.366 0.167)">
            <g id="Grupo_21335" data-name="Grupo 21335">
              <g id="Trazado_20068" data-name="Trazado 20068">
                <g id="Trazado_20173" data-name="Trazado 20173">
                  <g id="Grupo_22755" data-name="Grupo 22755">
                    <path id="Trazado_24934" data-name="Trazado 24934" d="M-426.464,1471.115l.254,2.066h3.015l-1.706-11.694h-3.3l-6.759,11.7h2.982l1.146-2.066Zm-.782-6.481.524,4.281H-429.6Z" transform="translate(434.958 -1461.487)" fill="#fff"/>
                  </g>
                </g>
              </g>
            </g>
          </g>
          <g id="Grupo_21338" data-name="Grupo 21338" transform="translate(0 15.692)">
            <g id="Grupo_21337" data-name="Grupo 21337">
              <g id="Trazado_20069" data-name="Trazado 20069">
                <g id="Trazado_20174" data-name="Trazado 20174">
                  <g id="Grupo_22756" data-name="Grupo 22756">
                    <path id="Trazado_24935" data-name="Trazado 24935" d="M-569.642,1512.828h3.615a3.644,3.644,0,0,1-3.278,2.066c-2.049,0-3.007-1.266-2.539-3.431a3.9,3.9,0,0,1,3.768-3.332,1.917,1.917,0,0,1,2.04,1.2h3.148c-.1-2.4-1.821-3.831-4.619-3.831a7.427,7.427,0,0,0-7.235,5.964c-.756,3.5,1.181,5.947,4.679,5.947a7.459,7.459,0,0,0,6.5-4.03l.572-2.649h-6.2Z" transform="translate(574.904 -1505.499)" fill="#fff"/>
                  </g>
                </g>
              </g>
            </g>
          </g>
          <g id="Grupo_21340" data-name="Grupo 21340" transform="translate(12.071 15.824)">
            <g id="Grupo_21339" data-name="Grupo 21339">
              <g id="Trazado_20070" data-name="Trazado 20070">
                <g id="Trazado_20175" data-name="Trazado 20175">
                  <g id="Grupo_22757" data-name="Grupo 22757">
                    <path id="Trazado_24936" data-name="Trazado 24936" d="M-529.875,1509.555c.439-2.032-.637-3.682-3.5-3.682h-4.781l-2.526,11.694h2.848l.953-4.414h.683l1.48,4.414h3.215l-1.7-4.632A4.509,4.509,0,0,0-529.875,1509.555Zm-4.806,1.582h-1.768l.626-2.9h1.766c1.066,0,1.444.564,1.256,1.433a1.742,1.742,0,0,1-1.882,1.465Z" transform="translate(540.684 -1505.873)" fill="#fff"/>
                  </g>
                </g>
              </g>
            </g>
          </g>
          <g id="Grupo_21342" data-name="Grupo 21342" transform="translate(22.164 15.824)">
            <g id="Grupo_21341" data-name="Grupo 21341">
              <g id="Trazado_20071" data-name="Trazado 20071">
                <g id="Trazado_20176" data-name="Trazado 20176">
                  <g id="Grupo_22758" data-name="Grupo 22758">
                    <path id="Trazado_24937" data-name="Trazado 24937" d="M-505.313,1505.875l-6.758,11.694h2.983l1.145-2.066h4.364l.254,2.066h3.015l-1.708-11.694Zm-1.4,7.43,2.357-4.281.524,4.281Z" transform="translate(512.071 -1505.875)" fill="#fff"/>
                  </g>
                </g>
              </g>
            </g>
          </g>
          <g id="Grupo_21344" data-name="Grupo 21344" transform="translate(36.61 15.823)">
            <g id="Grupo_21343" data-name="Grupo 21343">
              <g id="Trazado_20072" data-name="Trazado 20072">
                <g id="Trazado_20177" data-name="Trazado 20177">
                  <g id="Grupo_22759" data-name="Grupo 22759">
                    <path id="Trazado_24938" data-name="Trazado 24938" d="M-471.12,1508.154h3.1l-2.033,9.412h2.849l2.033-9.412h3.1l.493-2.282h-9.045Z" transform="translate(471.12 -1505.872)" fill="#fff"/>
                  </g>
                </g>
              </g>
            </g>
          </g>
          <g id="Grupo_21346" data-name="Grupo 21346" transform="translate(45.054 15.825)">
            <g id="Grupo_21345" data-name="Grupo 21345">
              <g id="Rectángulo_6079" data-name="Rectángulo 6079">
                <g id="Rectángulo_6084" data-name="Rectángulo 6084">
                  <g id="Grupo_22760" data-name="Grupo 22760">
                    <path id="Trazado_24939" data-name="Trazado 24939" d="M-444.656,1505.876h2.848l-2.526,11.694h-2.848Z" transform="translate(447.181 -1505.876)" fill="#fff"/>
                  </g>
                </g>
              </g>
            </g>
          </g>
          <g id="Grupo_21348" data-name="Grupo 21348" transform="translate(50.323 15.66)">
            <g id="Grupo_21347" data-name="Grupo 21347">
              <g id="Trazado_20073" data-name="Trazado 20073">
                <g id="Trazado_20178" data-name="Trazado 20178">
                  <g id="Grupo_22761" data-name="Grupo 22761">
                    <path id="Trazado_24940" data-name="Trazado 24940" d="M-428.047,1508.756a1.333,1.333,0,0,1,1.43-1.066.988.988,0,0,1,1.093,1.178h0l-.008.038h3.082c.365-2.232-1.079-3.5-3.625-3.5-2.45,0-4.531,1.232-5.01,3.448-.928,4.148,5.17,2.982,4.7,5.147a1.5,1.5,0,0,1-1.6,1.1,1.047,1.047,0,0,1-1.181-1.226v0c0-.035.011-.071.018-.106h-3.032c-.428,2.365,1.268,3.615,3.784,3.615a4.874,4.874,0,0,0,5.042-3.6C-422.507,1509.871-428.485,1510.787-428.047,1508.756Z" transform="translate(432.247 -1505.408)" fill="#fff"/>
                  </g>
                </g>
              </g>
            </g>
          </g>
        </g>
        <g id="Grupo_21351" data-name="Grupo 21351" transform="translate(0 0.865)">
          <g id="Grupo_21350" data-name="Grupo 21350">
            <g id="Trazado_20074" data-name="Trazado 20074">
              <g id="Trazado_20179" data-name="Trazado 20179">
                <g id="Grupo_22762" data-name="Grupo 22762">
                  <path id="Trazado_24941" data-name="Trazado 24941" d="M-692.556,1442.8c11.937-8.366,24.514-16.667,26.251-24.706.748-3.464-.341-5.686-3.74-5.686-3.333,0-5.858,2.614-6.833,7.126h-10.784c2.826-11.57,11.414-16.536,20.107-16.536,10.85,0,14.317,6.34,12.581,14.379-2.258,10.457-13.413,18.823-22.25,24.64h17.645l-1.962,9.085h-32.81Z" transform="translate(694.351 -1402.993)" fill="#fff"/>
                </g>
              </g>
            </g>
          </g>
        </g>
        <g id="Grupo_21353" data-name="Grupo 21353" transform="translate(3.263 0.865)">
          <g id="Grupo_21352" data-name="Grupo 21352">
            <g id="Trazado_20075" data-name="Trazado 20075">
              <g id="Trazado_20180" data-name="Trazado 20180">
                <g id="Grupo_22763" data-name="Grupo 22763">
                  <path id="Trazado_24942" data-name="Trazado 24942" d="M-683.308,1442.8c11.938-8.366,24.515-16.667,26.251-24.706.748-3.464-.341-5.686-3.74-5.686-3.333,0-5.858,2.614-6.833,7.126h-10.784c2.826-11.57,11.414-16.536,20.107-16.536,10.85,0,14.317,6.34,12.581,14.379-2.258,10.457-13.413,18.823-22.25,24.64h17.647l-1.962,9.085H-685.1Z" transform="translate(685.1 -1402.993)" fill="#003aad"/>
                </g>
              </g>
            </g>
          </g>
        </g>
        <g id="Grupo_21376" data-name="Grupo 21376" transform="translate(43.696 21.333)">
          <g id="Grupo_21355" data-name="Grupo 21355" transform="translate(3.378 0.033)">
            <g id="Grupo_21354" data-name="Grupo 21354">
              <g id="Trazado_20076" data-name="Trazado 20076">
                <g id="Trazado_20181" data-name="Trazado 20181">
                  <g id="Grupo_22764" data-name="Grupo 22764">
                    <path id="Trazado_24943" data-name="Trazado 24943" d="M-556.142,1473.02a7.05,7.05,0,0,0,6.429-4.082h-3.132a3.314,3.314,0,0,1-2.773,1.5c-1.749,0-2.667-1.3-2.221-3.365a3.883,3.883,0,0,1,3.675-3.365,1.992,1.992,0,0,1,2.125,1.5h3.132c-.12-2.532-1.882-4.1-4.663-4.1a7.4,7.4,0,0,0-7.168,5.964C-561.493,1470.571-559.589,1473.02-556.142,1473.02Z" transform="translate(560.902 -1461.109)" fill="#003aad"/>
                  </g>
                </g>
              </g>
            </g>
          </g>
          <g id="Grupo_21357" data-name="Grupo 21357" transform="translate(16.268 0.167)">
            <g id="Grupo_21356" data-name="Grupo 21356">
              <g id="Trazado_20077" data-name="Trazado 20077">
                <g id="Trazado_20182" data-name="Trazado 20182">
                  <g id="Grupo_22765" data-name="Grupo 22765">
                    <path id="Trazado_24944" data-name="Trazado 24944" d="M-517.266,1468.484a2.477,2.477,0,0,1-2.537,2.182c-1.349,0-1.859-.8-1.561-2.182l1.511-7H-522.7l-1.507,6.98c-.7,3.232,1.073,4.833,3.789,4.833a5.952,5.952,0,0,0,6.008-4.833l1.507-6.98h-2.848Z" transform="translate(524.361 -1461.487)" fill="#003aad"/>
                  </g>
                </g>
              </g>
            </g>
          </g>
          <g id="Grupo_21359" data-name="Grupo 21359" transform="translate(27.814)">
            <g id="Grupo_21358" data-name="Grupo 21358">
              <g id="Trazado_20078" data-name="Trazado 20078">
                <g id="Trazado_20183" data-name="Trazado 20183">
                  <g id="Grupo_22766" data-name="Grupo 22766">
                    <path id="Trazado_24945" data-name="Trazado 24945" d="M-486.741,1472.992a7.841,7.841,0,0,0,7.262-6.013,4.683,4.683,0,0,0-4.725-5.964,7.843,7.843,0,0,0-7.255,5.981c-.777,3.233,1.2,5.918,4.416,6C-486.943,1473-486.842,1473-486.741,1472.992Zm2.029-9.4c1.866,0,2.8,1.316,2.348,3.4a3.973,3.973,0,0,1-3.816,3.4c-1.9,0-2.807-1.349-2.365-3.4a3.938,3.938,0,0,1,3.832-3.4Z" transform="translate(491.628 -1461.015)" fill="#003aad"/>
                  </g>
                </g>
              </g>
            </g>
          </g>
          <g id="Grupo_21361" data-name="Grupo 21361" transform="translate(41.689 0.167)">
            <g id="Grupo_21360" data-name="Grupo 21360">
              <g id="Trazado_20079" data-name="Trazado 20079">
                <g id="Trazado_20184" data-name="Trazado 20184">
                  <g id="Grupo_22767" data-name="Grupo 22767">
                    <path id="Trazado_24946" data-name="Trazado 24946" d="M-451.23,1473.182h2.848l2.033-9.413h3.1l.493-2.282H-451.8l-.493,2.282h3.1Z" transform="translate(452.296 -1461.487)" fill="#003aad"/>
                  </g>
                </g>
              </g>
            </g>
          </g>
          <g id="Grupo_21363" data-name="Grupo 21363" transform="translate(49.367 0.167)">
            <g id="Grupo_21362" data-name="Grupo 21362">
              <g id="Trazado_20080" data-name="Trazado 20080">
                <g id="Trazado_20185" data-name="Trazado 20185">
                  <g id="Grupo_22768" data-name="Grupo 22768">
                    <path id="Trazado_24947" data-name="Trazado 24947" d="M-422.037,1471.115l.253,2.066h3.015l-1.7-11.694h-3.3l-6.759,11.7h2.982l1.146-2.066Zm-.782-6.48.525,4.281h-2.882Z" transform="translate(430.53 -1461.487)" fill="#003aad"/>
                  </g>
                </g>
              </g>
            </g>
          </g>
          <g id="Grupo_21365" data-name="Grupo 21365" transform="translate(0 15.692)">
            <g id="Grupo_21364" data-name="Grupo 21364">
              <g id="Trazado_20081" data-name="Trazado 20081">
                <g id="Trazado_20186" data-name="Trazado 20186">
                  <g id="Grupo_22769" data-name="Grupo 22769">
                    <path id="Trazado_24948" data-name="Trazado 24948" d="M-565.216,1512.828h3.615a3.644,3.644,0,0,1-3.278,2.066c-2.049,0-3.007-1.266-2.539-3.431a3.9,3.9,0,0,1,3.768-3.332,1.917,1.917,0,0,1,2.04,1.2h3.149c-.1-2.4-1.822-3.831-4.619-3.831a7.427,7.427,0,0,0-7.235,5.964c-.756,3.5,1.181,5.947,4.679,5.947a7.46,7.46,0,0,0,6.5-4.031l.572-2.649h-6.2Z" transform="translate(570.478 -1505.499)" fill="#003aad"/>
                  </g>
                </g>
              </g>
            </g>
          </g>
          <g id="Grupo_21367" data-name="Grupo 21367" transform="translate(12.071 15.824)">
            <g id="Grupo_21366" data-name="Grupo 21366">
              <g id="Trazado_20082" data-name="Trazado 20082">
                <g id="Trazado_20187" data-name="Trazado 20187">
                  <g id="Grupo_22770" data-name="Grupo 22770">
                    <path id="Trazado_24949" data-name="Trazado 24949" d="M-525.45,1509.555c.439-2.032-.637-3.682-3.5-3.682h-4.781l-2.526,11.694h2.848l.953-4.414h.683l1.481,4.414h3.215l-1.7-4.632A4.509,4.509,0,0,0-525.45,1509.555Zm-4.806,1.582h-1.766l.626-2.9h1.766c1.066,0,1.444.564,1.256,1.433a1.743,1.743,0,0,1-1.882,1.465Z" transform="translate(536.259 -1505.873)" fill="#003aad"/>
                  </g>
                </g>
              </g>
            </g>
          </g>
          <g id="Grupo_21369" data-name="Grupo 21369" transform="translate(22.166 15.824)">
            <g id="Grupo_21368" data-name="Grupo 21368">
              <g id="Trazado_20083" data-name="Trazado 20083">
                <g id="Trazado_20188" data-name="Trazado 20188">
                  <g id="Grupo_22771" data-name="Grupo 22771">
                    <path id="Trazado_24950" data-name="Trazado 24950" d="M-500.884,1505.875l-6.757,11.694h2.982l1.145-2.066h4.365l.253,2.066h3.015l-1.706-11.694Zm-1.4,7.43,2.357-4.281.525,4.281Z" transform="translate(507.641 -1505.875)" fill="#003aad"/>
                  </g>
                </g>
              </g>
            </g>
          </g>
          <g id="Grupo_21371" data-name="Grupo 21371" transform="translate(36.61 15.823)">
            <g id="Grupo_21370" data-name="Grupo 21370">
              <g id="Trazado_20084" data-name="Trazado 20084">
                <g id="Trazado_20189" data-name="Trazado 20189">
                  <g id="Grupo_22772" data-name="Grupo 22772">
                    <path id="Trazado_24951" data-name="Trazado 24951" d="M-466.7,1508.154h3.1l-2.033,9.412h2.848l2.033-9.412h3.1l.493-2.282H-466.2Z" transform="translate(466.695 -1505.872)" fill="#003aad"/>
                  </g>
                </g>
              </g>
            </g>
          </g>
          <g id="Grupo_21373" data-name="Grupo 21373" transform="translate(45.055 15.825)">
            <g id="Grupo_21372" data-name="Grupo 21372">
              <g id="Rectángulo_6080" data-name="Rectángulo 6080">
                <g id="Rectángulo_6085" data-name="Rectángulo 6085">
                  <g id="Grupo_22773" data-name="Grupo 22773">
                    <path id="Trazado_24952" data-name="Trazado 24952" d="M-440.229,1505.876h2.848l-2.526,11.694h-2.848Z" transform="translate(442.754 -1505.876)" fill="#003aad"/>
                  </g>
                </g>
              </g>
            </g>
          </g>
          <g id="Grupo_21375" data-name="Grupo 21375" transform="translate(50.326 15.659)">
            <g id="Grupo_21374" data-name="Grupo 21374">
              <g id="Trazado_20085" data-name="Trazado 20085">
                <g id="Trazado_20190" data-name="Trazado 20190">
                  <g id="Grupo_22774" data-name="Grupo 22774">
                    <path id="Trazado_24953" data-name="Trazado 24953" d="M-423.614,1508.756a1.332,1.332,0,0,1,1.43-1.066.988.988,0,0,1,1.093,1.177h0c0,.013,0,.026-.006.038h3.082c.365-2.232-1.077-3.5-3.625-3.5-2.449,0-4.531,1.233-5.009,3.448-.931,4.148,5.17,2.982,4.7,5.147a1.5,1.5,0,0,1-1.6,1.1,1.047,1.047,0,0,1-1.182-1.226v0c0-.035.011-.07.018-.106h-3.03c-.427,2.364,1.268,3.615,3.784,3.615a4.874,4.874,0,0,0,5.042-3.6C-418.075,1509.87-424.053,1510.786-423.614,1508.756Z" transform="translate(427.811 -1505.407)" fill="#003aad"/>
                  </g>
                </g>
              </g>
            </g>
          </g>
        </g>
        <g id="Grupo_21379" data-name="Grupo 21379" transform="translate(55.726 2.711)">
          <g id="Grupo_21377" data-name="Grupo 21377">
            <g id="Trazado_20086" data-name="Trazado 20086">
              <g id="Trazado_20191" data-name="Trazado 20191">
                <g id="Grupo_22775" data-name="Grupo 22775">
                  <path id="Trazado_24954" data-name="Trazado 24954" d="M-532.851,1410.16a1.789,1.789,0,0,1,1.708.945l.622-2.88h1.9l-1.777,8.229h-1.9l.192-.891a2.709,2.709,0,0,1-2.124.979c-1.524,0-2.468-1.245-2.045-3.2A3.723,3.723,0,0,1-532.851,1410.16Zm.2,1.658a1.8,1.8,0,0,0-1.685,1.524c-.213.99.311,1.546,1.023,1.546a1.8,1.8,0,0,0,1.688-1.535c.214-.99-.3-1.535-1.026-1.535Z" transform="translate(536.375 -1408.225)" fill="#fff"/>
                </g>
              </g>
            </g>
          </g>
          <g id="Grupo_21378" data-name="Grupo 21378" transform="translate(7.551 1.932)">
            <g id="Trazado_20087" data-name="Trazado 20087">
              <g id="Trazado_20192" data-name="Trazado 20192">
                <g id="Grupo_22776" data-name="Grupo 22776">
                  <path id="Trazado_24955" data-name="Trazado 24955" d="M-511.444,1413.7a1.7,1.7,0,0,1,1.7.968l.189-.877h1.9l-1.34,6.2h-1.9l.19-.879a2.77,2.77,0,0,1-2.133.968c-1.512,0-2.455-1.245-2.033-3.2A3.724,3.724,0,0,1-511.444,1413.7Zm.2,1.658a1.8,1.8,0,0,0-1.686,1.523c-.213.99.311,1.546,1.023,1.546a1.8,1.8,0,0,0,1.688-1.535c.214-.99-.3-1.534-1.026-1.534Z" transform="translate(514.968 -1413.702)" fill="#fff"/>
                </g>
              </g>
            </g>
          </g>
        </g>
        <g id="Grupo_21383" data-name="Grupo 21383" transform="translate(54.324 12.922)">
          <g id="Grupo_21382" data-name="Grupo 21382">
            <g id="Rectángulo_6081" data-name="Rectángulo 6081">
              <g id="Rectángulo_6086" data-name="Rectángulo 6086">
                <g id="Grupo_22777" data-name="Grupo 22777">
                  <path id="Trazado_24956" data-name="Trazado 24956" d="M-539.948,1437.172h14.1l-.4,1.868h-14.1Z" transform="translate(540.352 -1437.172)" fill="#fff"/>
                </g>
              </g>
            </g>
          </g>
        </g>
      </g>
      <g id="Grupo_22792" data-name="Grupo 22792" transform="translate(-767.479 1408.28)">
        <circle id="Elipse_2099" data-name="Elipse 2099" cx="3.625" cy="3.625" r="3.625" transform="translate(0 0)" fill="#fff"/>
      </g>
      <g id="Grupo_22800" data-name="Grupo 22800" transform="translate(-520.627 1366.784)">
        <g id="Grupo_22799" data-name="Grupo 22799" transform="translate(0 0)">
          <path id="Trazado_24989" data-name="Trazado 24989" d="M-198.347,1356.8l3.145,1.321,2.228-2.583-.285,3.4,3.145,1.321-3.321.78-.285,3.4-1.768-2.917-3.321.78,2.228-2.583Z" transform="translate(198.807 -1355.539)" fill="#ffd527"/>
        </g>
      </g>
      <g id="Grupo_22807" data-name="Grupo 22807" transform="matrix(0.966, -0.259, 0.259, 0.966, -769.562, 1369.543)">
        <g id="Grupo_22801" data-name="Grupo 22801" transform="translate(26.642 0)">
          <path id="Trazado_24990" data-name="Trazado 24990" d="M.012.712c-.21.539,2.42,6.716,3.19,7.016.216.084.211-.206.4-.132.9.349-.9-4.452-1.2-5.766C1.912-.343.444-.4.012.712Z" fill="#ea0c90"/>
        </g>
        <g id="Grupo_22802" data-name="Grupo 22802" transform="translate(22.332 9.851)">
          <path id="Trazado_24991" data-name="Trazado 24991" d="M1.308,1.053C1.272.961.721-.057.57,0-1.248.715,1.919,2.611,1.308,1.053Z" fill="#ff6700"/>
        </g>
        <g id="Grupo_22803" data-name="Grupo 22803" transform="translate(11.331 9.411)">
          <path id="Trazado_24992" data-name="Trazado 24992" d="M.949.143A.893.893,0,0,0,.444,0,.47.47,0,0,0,.051.244C-.506,1.368,3.63,5.926,4.779,6.5c.145.072.243.08.277.01C5.183,6.251,2.056.692.949.143Z" fill="#003aad"/>
        </g>
        <g id="Grupo_22804" data-name="Grupo 22804" transform="translate(13.79 21.431)">
          <path id="Trazado_24993" data-name="Trazado 24993" d="M.035.251C-.235.795,1.118,2.8,1.678,1.671,1.978,1.066.475-.635.035.251Z" fill="#ff6700"/>
        </g>
        <g id="Grupo_22805" data-name="Grupo 22805" transform="translate(0 23.638)">
          <path id="Trazado_24994" data-name="Trazado 24994" d="M.471,0C-.1.071.185.472.047.75c-.71,1.43,6.859,3.862,7.83,3.606.278-.073.5-.6.294-.7a.162.162,0,0,1-.05-.168C8.143,3.385.669-.025.471,0Z" fill="#ffd527"/>
        </g>
        <g id="Grupo_22806" data-name="Grupo 22806" transform="translate(3.269 33.937)">
          <path id="Trazado_24995" data-name="Trazado 24995" d="M2.213.2A4.25,4.25,0,0,0,.318.044C-.31.327.14,1.395.41,1.273a.709.709,0,0,1,.315.087C1.353,1.641,3.376.984,2.213.2Z" fill="#fff"/>
        </g>
      </g>
      <g id="Grupo_22814" data-name="Grupo 22814" transform="translate(-529.979 1380.344)">
        <g id="Grupo_22808" data-name="Grupo 22808" transform="translate(11.402 23.393)">
          <path id="Trazado_24996" data-name="Trazado 24996" d="M-159.132,1553.137c-.014-.578-4.822-5.264-5.648-5.244-.231.006-.115.271-.318.276-.961.024,2.546,3.761,3.326,4.859C-160.478,1554.842-159.1,1554.327-159.132,1553.137Z" transform="translate(165.264 -1547.893)" fill="#ea0c90"/>
        </g>
        <g id="Grupo_22809" data-name="Grupo 22809" transform="translate(8.326 28.349)">
          <path id="Trazado_24997" data-name="Trazado 24997" d="M-150.945,1527.708c.069.071.969.8,1.086.685C-148.457,1527.034-152.11,1526.505-150.945,1527.708Z" transform="translate(151.178 -1527.037)" fill="#ff6700"/>
        </g>
        <g id="Grupo_22810" data-name="Grupo 22810" transform="translate(13.576 14.354)">
          <path id="Trazado_24998" data-name="Trazado 24998" d="M-128.3,1510.546a.893.893,0,0,0,.519-.067.47.47,0,0,0,.27-.374c.081-1.252-5.492-3.862-6.772-3.945-.162-.01-.255.019-.26.1C-134.566,1506.542-129.538,1510.466-128.3,1510.546Z" transform="translate(134.548 -1506.158)" fill="#003aad"/>
        </g>
        <g id="Grupo_22811" data-name="Grupo 22811" transform="translate(12.403 18.748)">
          <path id="Trazado_24999" data-name="Trazado 24999" d="M-139.6,1483.154c.04-.607-1.982-1.934-2.064-.677C-141.705,1483.151-139.662,1484.141-139.6,1483.154Z" transform="translate(141.662 -1481.954)" fill="#ff6700"/>
        </g>
        <g id="Grupo_22812" data-name="Grupo 22812" transform="translate(14.468 8.514)">
          <path id="Trazado_25000" data-name="Trazado 25000" d="M-115.563,1459.362c.5-.285.083-.547.1-.856.1-1.593-7.818-.919-8.615-.309-.229.175-.23.744,0,.759.046,0,.1.067.111.135C-123.947,1459.2-115.736,1459.461-115.563,1459.362Z" transform="translate(124.248 -1457.52)" fill="#ffd527"/>
        </g>
        <g id="Grupo_22813" data-name="Grupo 22813" transform="translate(13.576 0)">
          <path id="Trazado_25001" data-name="Trazado 25001" d="M-126.241,1435.1a4.246,4.246,0,0,0,1.809-.586c.47-.5-.356-1.315-.558-1.1a.71.71,0,0,1-.324.042C-126,1433.445-127.616,1434.83-126.241,1435.1Z" transform="translate(126.779 -1433.385)" fill="#003aad"/>
        </g>
      </g>
    </g>
    <g id="Grupo_27834" data-name="Grupo 27834" transform="translate(205.403 13.609)">
      <g id="Grupo_27800" data-name="Grupo 27800" transform="translate(0 10.596) rotate(-8)">
        <g id="ticket" transform="translate(0 0)">
          <path id="Trazado_34572" data-name="Trazado 34572" d="M76.132,35.233a4.26,4.26,0,0,1,0-8.144v-2.3a4.26,4.26,0,0,1,0-8.144V14.518a4.26,4.26,0,0,1,0-8.144V4.6a4.687,4.687,0,0,1-4.6-4.6H4.6A4.687,4.687,0,0,1,0,4.6V6.2a4.2,4.2,0,0,1,3.01,4.072A4.859,4.859,0,0,1,0,14.518v2.3a4.2,4.2,0,0,1,3.01,4.072A4.2,4.2,0,0,1,0,24.964v2.3a4.2,4.2,0,0,1,3.01,4.072A4.2,4.2,0,0,1,0,35.41V37a4.687,4.687,0,0,1,4.6,4.6H71.529a4.687,4.687,0,0,1,4.6-4.6V35.233Z" transform="translate(0 0)" fill="#ffd527"/>
          <rect id="Rectángulo_7235" data-name="Rectángulo 7235" width="58.22" height="28.14" rx="5" transform="translate(8.724 6.87)" fill="rgba(255,255,255,0.42)"/>
        </g>
        <g id="Grupo_27821" data-name="Grupo 27821" transform="translate(19.495 17.911)">
          <text id="S_50" data-name="S/ 50" transform="translate(-1.252 -3.388)" fill="#003aad" font-size="15" font-family="SegoeUIBlack-Italic, Segoe UI" font-style="italic"><tspan x="0" y="16">S/ 50</tspan></text>
        </g>
      </g>
      <g id="Grupo_27818" data-name="Grupo 27818" transform="translate(11.942 10.399)">
        <text id="Vale_virtual" data-name="Vale virtual" transform="translate(-1 6.967) rotate(-8)" fill="#003aad" font-size="9" font-family="SegoeUI-SemiboldItalic, Segoe UI" font-weight="600" font-style="italic" letter-spacing="-0.007em"><tspan x="-23.209" y="10">Vale virtual</tspan></text>
      </g>
    </g>
  </g>
</svg>
