<svg xmlns="http://www.w3.org/2000/svg" xmlns:xlink="http://www.w3.org/1999/xlink" width="208.751" height="66.324" viewBox="0 0 208.751 66.324"><defs><style>.a{fill:none;}.b{fill:#fff;}.c{fill:#f86fb4;}.d{fill:#fac800;}.e{fill:#64caec;}.f{fill:#e569f6;}.g{clip-path:url(#a);}.h{fill:#f6db4b;}.i{fill:#f6db4a;}.j{fill:#f6da49;}.k{fill:#f6da48;}.l{fill:#f6da47;}.m{fill:#f6da46;}.n{fill:#f6d945;}.o{fill:#f6d944;}.p{fill:#f6d943;}.q{fill:#f6d942;}.r{fill:#f7d841;}.s{fill:#f7d840;}.t{fill:#f7d83f;}.u{fill:#f7d83e;}.v{fill:#f7d73d;}.w{fill:#f7d73c;}.x{fill:#f7d73b;}.y{fill:#f7d73a;}.z{fill:#f7d639;}.aa{fill:#f7d638;}.ab{fill:#f7d636;}.ac{fill:#f7d535;}.ad{fill:#f7d534;}.ae{fill:#f7d533;}.af{fill:#f7d532;}.ag{fill:#f7d431;}.ah{fill:#f7d430;}.ai{fill:#f7d42f;}.aj{fill:#f7d42e;}.ak{fill:#f8d32d;}.al{fill:#f8d32c;}.am{fill:#f8d32b;}.an{fill:#f8d32a;}.ao{fill:#f8d229;}.ap{fill:#f8d228;}.aq{fill:#f8d227;}.ar{fill:#f8d226;}.as{fill:#f8d125;}.at{fill:#f8d124;}.au{fill:#f8d123;}.av{fill:#f8d022;}.aw{fill:#f8d021;}.ax{fill:#f8d020;}.ay{fill:#f8d01f;}.az{fill:#f8cf1e;}.ba{fill:#f8cf1d;}.bb{fill:#f8cf1c;}.bc{fill:#f9cf1b;}.bd{fill:#f9ce1a;}.be{fill:#f9ce19;}.bf{fill:#f9ce18;}.bg{fill:#f9ce17;}.bh{fill:#f9cd16;}.bi{fill:#f9cd15;}.bj{fill:#f9cd14;}.bk{fill:#f9cd13;}.bl{fill:#f9cc11;}.bm{fill:#f9cc10;}.bn{fill:#f9cc0f;}.bo{fill:#f9cc0e;}.bp{fill:#f9cb0d;}.bq{fill:#f9cb0c;}.br{fill:#f9cb0b;}.bs{fill:#f9cb0a;}.bt{fill:#f9ca09;}.bu{fill:#faca08;}.bv{fill:#faca07;}.bw{fill:#faca06;}.bx{fill:#fac905;}.by{fill:#fac904;}.bz{fill:#fac903;}.ca{fill:#fac902;}.cb{fill:#fac801;}</style><clipPath id="a"><path class="a" d="M2151.621-1.722c0,.144.139.278.38.393a4.194,4.194,0,0,1,1.882,1.755c.123.225.267.355.421.355s.3-.13.422-.355a4.192,4.192,0,0,1,1.882-1.755c.241-.115.38-.249.38-.393s-.139-.278-.38-.393a4.192,4.192,0,0,1-1.882-1.755c-.123-.225-.267-.355-.422-.355s-.3.13-.421.355A4.2,4.2,0,0,1,2152-2.115C2151.76-2,2151.621-1.865,2151.621-1.722Z" transform="translate(-2151.621 4.224)"/></clipPath></defs><g transform="translate(5573.164 -22106.053)"><g transform="translate(-5458.043 22142.607)"><path class="b" d="M2113.948,49.042v5.317h5.431V58.9h-5.431v5.284h-5.057V58.9h-5.431V54.36h5.431V49.042Z" transform="translate(-2103.46 -49.042)"/></g><g transform="translate(-5520.683 22119.617)"><path class="c" d="M1925.164-19.264h12.823a3.922,3.922,0,0,1,3.932,5.015l-1.613,7.471a6.565,6.565,0,0,1-6.1,5.015h-12.823a3.922,3.922,0,0,1-3.932-5.015l1.614-7.471A6.564,6.564,0,0,1,1925.164-19.264Z" transform="translate(-1917.336 19.264)"/></g><g transform="translate(-5524.482 22140.234)"><path class="c" d="M1910.638,53.481a6.8,6.8,0,0,0,6.2-3.938h-3.021a3.194,3.194,0,0,1-2.673,1.447c-1.688,0-2.573-1.254-2.143-3.247a3.746,3.746,0,0,1,3.545-3.246,1.922,1.922,0,0,1,2.05,1.447h3.022c-.116-2.443-1.814-3.954-4.5-3.954a7.136,7.136,0,0,0-6.915,5.755C1905.475,51.119,1907.309,53.481,1910.638,53.481Z" transform="translate(-1906.047 -41.991)"/></g><g transform="translate(-5512.051 22140.361)"><path class="c" d="M1949.828,49.12a2.389,2.389,0,0,1-2.447,2.105c-1.3,0-1.794-.772-1.507-2.105l1.458-6.75h-2.748l-1.454,6.734c-.673,3.118,1.034,4.663,3.656,4.663a5.743,5.743,0,0,0,5.8-4.663l1.454-6.734h-2.75Z" transform="translate(-1942.984 -42.37)"/></g><g transform="translate(-5500.908 22140.201)"><path class="c" d="M1980.808,53.445a7.564,7.564,0,0,0,7.007-5.8,4.519,4.519,0,0,0-4.559-5.755,7.568,7.568,0,0,0-7,5.769c-.749,3.119,1.158,5.71,4.26,5.786Q1980.658,53.451,1980.808,53.445Zm1.958-9.065c1.8,0,2.7,1.269,2.266,3.279a3.834,3.834,0,0,1-3.681,3.279c-1.832,0-2.709-1.3-2.281-3.279a3.8,3.8,0,0,1,3.7-3.279Z" transform="translate(-1976.093 -41.888)"/></g><g transform="translate(-5487.521 22140.361)"><path class="c" d="M2016.9,53.653h2.748l1.961-9.081h2.992l.475-2.2h-8.726l-.476,2.2h2.992Z" transform="translate(-2015.87 -42.37)"/></g><g transform="translate(-5480.118 22140.361)"><path class="c" d="M2046.065,51.659l.245,1.993h2.908l-1.646-11.282h-3.182l-6.523,11.283h2.877l1.1-1.993Zm-.755-6.252.5,4.131h-2.779Z" transform="translate(-2037.867 -42.37)"/></g><g transform="translate(-5527.745 22155.342)"><path class="c" d="M1901.43,93.95h3.489a3.515,3.515,0,0,1-3.164,1.993c-1.977,0-2.9-1.221-2.45-3.311a3.764,3.764,0,0,1,3.635-3.214,1.848,1.848,0,0,1,1.968,1.157h3.037c-.095-2.314-1.757-3.7-4.456-3.7a7.165,7.165,0,0,0-6.98,5.755c-.729,3.375,1.141,5.738,4.515,5.738a7.2,7.2,0,0,0,6.273-3.888l.552-2.555h-5.98Z" transform="translate(-1896.352 -86.879)"/></g><g transform="translate(-5516.1 22155.469)"><path class="c" d="M1941.384,90.807c.423-1.96-.615-3.552-3.379-3.552h-4.614l-2.437,11.282h2.749l.92-4.259h.659l1.428,4.259h3.1l-1.64-4.469A4.348,4.348,0,0,0,1941.384,90.807Zm-4.637,1.528h-1.707l.606-2.8h1.7c1.028,0,1.393.545,1.212,1.382a1.681,1.681,0,0,1-1.815,1.413Z" transform="translate(-1930.954 -87.255)"/></g><g transform="translate(-5506.36 22155.469)"><path class="c" d="M1966.414,87.252l-6.52,11.284h2.877l1.1-1.993h4.211l.245,1.993h2.908l-1.649-11.282Zm-1.355,7.168,2.275-4.131.5,4.129Z" transform="translate(-1959.894 -87.252)"/></g><g transform="translate(-5492.423 22155.469)"><path class="c" d="M2001.3,89.456h2.989l-1.961,9.082h2.748l1.96-9.082h2.992l.475-2.2h-8.727Z" transform="translate(-2001.304 -87.254)"/></g><g transform="translate(-5484.276 22155.469)"><path class="c" d="M2027.949,87.259h2.748l-2.437,11.282h-2.748Z" transform="translate(-2025.513 -87.259)"/></g><g transform="translate(-5479.194 22155.311)"><path class="c" d="M2044.667,90.011a1.286,1.286,0,0,1,1.38-1.029.955.955,0,0,1,1.055,1.137h0l-.008.036h2.974c.352-2.154-1.041-3.375-3.5-3.375-2.364,0-4.372,1.189-4.833,3.327-.9,4,4.988,2.877,4.536,4.966a1.447,1.447,0,0,1-1.548,1.061,1.009,1.009,0,0,1-1.141-1.182v0c0-.036.011-.067.018-.1h-2.925c-.412,2.281,1.224,3.487,3.65,3.487a4.7,4.7,0,0,0,4.865-3.472C2050.012,91.086,2044.244,91.971,2044.667,90.011Z" transform="translate(-2040.614 -86.779)"/></g><g transform="translate(-5568.398 22120.457)"><path class="c" d="M1777.29,21.623c11.517-8.072,23.652-16.08,25.327-23.836.721-3.342-.329-5.486-3.608-5.486-3.215,0-5.652,2.524-6.594,6.875h-10.4c2.726-11.163,11.014-15.952,19.4-15.952,10.467,0,13.813,6.117,12.138,13.873-2.179,10.091-12.941,18.161-21.467,23.774h17.024l-1.893,8.764h-31.656Z" transform="translate(-1775.557 16.777)"/></g><g transform="translate(-5565.25 22120.457)"><path class="b" d="M1786.644,21.623c11.518-8.072,23.652-16.08,25.328-23.836.721-3.342-.328-5.486-3.608-5.486-3.216,0-5.654,2.524-6.594,6.875h-10.406c2.726-11.163,11.014-15.952,19.4-15.952,10.467,0,13.813,6.117,12.138,13.873-2.179,10.091-12.941,18.161-21.467,23.774h17.027l-1.893,8.765h-31.655Z" transform="translate(-1784.913 16.777)"/></g><g transform="translate(-5522.979 22140.234)"><path class="b" d="M1915.1,53.48a6.8,6.8,0,0,0,6.2-3.938h-3.022a3.2,3.2,0,0,1-2.673,1.447c-1.688,0-2.574-1.254-2.143-3.247a3.746,3.746,0,0,1,3.545-3.246,1.923,1.923,0,0,1,2.05,1.447h3.019c-.115-2.443-1.815-3.954-4.5-3.954a7.135,7.135,0,0,0-6.915,5.755C1909.943,51.118,1911.779,53.48,1915.1,53.48Z" transform="translate(-1910.512 -41.99)"/></g><g transform="translate(-5510.543 22140.361)"><path class="b" d="M1954.309,49.12a2.39,2.39,0,0,1-2.447,2.105c-1.3,0-1.794-.772-1.506-2.105l1.458-6.75h-2.749l-1.454,6.734c-.673,3.118,1.034,4.663,3.656,4.663a5.743,5.743,0,0,0,5.8-4.663l1.454-6.734h-2.749Z" transform="translate(-1947.464 -42.37)"/></g><g transform="translate(-5499.404 22140.201)"><path class="b" d="M1985.28,53.445a7.564,7.564,0,0,0,7.006-5.8,4.519,4.519,0,0,0-4.559-5.755,7.567,7.567,0,0,0-7,5.769c-.748,3.119,1.158,5.71,4.26,5.786C1985.084,53.448,1985.181,53.448,1985.28,53.445Zm1.957-9.065c1.8,0,2.7,1.269,2.266,3.279a3.834,3.834,0,0,1-3.682,3.279c-1.832,0-2.709-1.3-2.281-3.279a3.8,3.8,0,0,1,3.7-3.279Z" transform="translate(-1980.564 -41.888)"/></g><g transform="translate(-5486.018 22140.361)"><path class="b" d="M2021.365,53.653h2.749l1.96-9.081h2.989l.476-2.2h-8.729l-.476,2.2h2.989Z" transform="translate(-2020.335 -42.37)"/></g><g transform="translate(-5478.607 22140.361)"><path class="b" d="M2050.55,51.659l.244,1.993h2.911l-1.645-11.282h-3.182l-6.521,11.283h2.877l1.1-1.993Zm-.755-6.252.5,4.131h-2.78Z" transform="translate(-2042.357 -42.37)"/></g><g transform="translate(-5526.238 22155.342)"><path class="b" d="M1905.905,93.95h3.488a3.516,3.516,0,0,1-3.164,1.993c-1.977,0-2.9-1.221-2.45-3.311a3.764,3.764,0,0,1,3.635-3.214,1.848,1.848,0,0,1,1.968,1.157h3.038c-.1-2.314-1.757-3.7-4.455-3.7a7.165,7.165,0,0,0-6.98,5.755c-.729,3.375,1.141,5.738,4.515,5.738a7.2,7.2,0,0,0,6.271-3.889l.552-2.556h-5.982Z" transform="translate(-1900.828 -86.879)"/></g><g transform="translate(-5514.594 22155.469)"><path class="b" d="M1945.859,90.807c.423-1.96-.615-3.552-3.38-3.552h-4.614l-2.437,11.282h2.749l.92-4.259h.658l1.429,4.259h3.1l-1.64-4.469A4.351,4.351,0,0,0,1945.859,90.807Zm-4.638,1.528h-1.7l.606-2.8h1.7c1.029,0,1.393.545,1.212,1.382a1.683,1.683,0,0,1-1.817,1.413Z" transform="translate(-1935.429 -87.255)"/></g><g transform="translate(-5504.853 22155.469)"><path class="b" d="M1970.892,87.252l-6.519,11.283h2.878l1.1-1.993h4.211l.245,1.993h2.909l-1.646-11.283Zm-1.354,7.168,2.274-4.131.5,4.129Z" transform="translate(-1964.373 -87.252)"/></g><g transform="translate(-5490.917 22155.469)"><path class="b" d="M2005.78,89.456h2.991l-1.96,9.082h2.749l1.961-9.082h2.991l.475-2.2h-8.731Z" transform="translate(-2005.78 -87.254)"/></g><g transform="translate(-5482.771 22155.469)"><path class="b" d="M2032.424,87.259h2.748l-2.437,11.282h-2.749Z" transform="translate(-2029.986 -87.259)"/></g><g transform="translate(-5477.685 22155.309)"><path class="b" d="M2049.146,90.009a1.286,1.286,0,0,1,1.38-1.029.953.953,0,0,1,1.054,1.136h0c0,.012,0,.025-.005.036h2.974c.352-2.154-1.039-3.375-3.5-3.375-2.363,0-4.371,1.189-4.833,3.327-.9,4,4.988,2.877,4.536,4.966a1.447,1.447,0,0,1-1.548,1.061,1.01,1.01,0,0,1-1.141-1.182v0c0-.034.01-.067.018-.1h-2.923c-.412,2.281,1.225,3.487,3.65,3.487a4.7,4.7,0,0,0,4.866-3.472C2054.491,91.085,2048.724,91.968,2049.146,90.009Z" transform="translate(-2045.096 -86.776)"/></g><g transform="translate(-5514.631 22122.234)"><path class="b" d="M1938.715-9.624a1.727,1.727,0,0,1,1.649.912l.6-2.78h1.834l-1.716,7.939h-1.833l.186-.859a2.612,2.612,0,0,1-2.049.945c-1.47,0-2.381-1.2-1.973-3.09A3.591,3.591,0,0,1,1938.715-9.624Zm.191,1.6a1.736,1.736,0,0,0-1.625,1.47c-.206.954.3,1.491.987,1.491a1.741,1.741,0,0,0,1.629-1.481C1940.1-7.5,1939.6-8.025,1938.906-8.025Z" transform="translate(-1935.316 11.493)"/></g><g transform="translate(-5507.348 22124.092)"><path class="b" d="M1960.361-5.963a1.636,1.636,0,0,1,1.644.934l.183-.847h1.833L1962.728.11h-1.834l.183-.848a2.675,2.675,0,0,1-2.058.934c-1.459,0-2.369-1.2-1.96-3.09A3.592,3.592,0,0,1,1960.361-5.963Zm.191,1.6a1.736,1.736,0,0,0-1.626,1.47c-.206.954.3,1.491.987,1.491a1.742,1.742,0,0,0,1.629-1.481c.206-.955-.293-1.481-.99-1.481Z" transform="translate(-1956.961 5.971)"/></g><g transform="translate(-5515.984 22132.088)"><path class="b" d="M1931.687,17.783h13.605l-.39,1.8h-13.6Z" transform="translate(-1931.298 -17.783)"/></g><g transform="translate(-5373.423 22161.035)"><g transform="translate(0 0)"><path class="d" d="M2362.4,105.305c-.307-.466-6.633-1.859-7.3-1.422-.186.123.044.281-.12.388-.774.51,4,1.786,5.2,2.289C2362.164,107.39,2363.029,106.266,2362.4,105.305Z" transform="translate(-2354.896 -103.8)"/></g></g><g transform="translate(-5373.185 22152.336)"><path class="e" d="M2356.033,78.852c.093.023,1.2.161,1.239.009C2357.728,77.034,2354.465,78.46,2356.033,78.852Z" transform="translate(-2355.603 -77.952)"/></g><g transform="translate(-5372.189 22142.881)"><g transform="translate(0 0)"><path class="f" d="M2365.87,51.176a.857.857,0,0,0,.392-.321.453.453,0,0,0,.031-.443c-.57-1.068-6.467-.37-7.559.214-.137.074-.2.145-.164.211C2358.7,51.082,2364.82,51.738,2365.87,51.176Z" transform="translate(-2358.561 -49.856)"/></g></g><g transform="translate(-5378.458 22137.637)"><path class="c" d="M2342.059,34.635c-.277-.517-2.609-.575-2.036.5C2340.33,35.706,2342.509,35.476,2342.059,34.635Z" transform="translate(-2339.933 -34.276)"/></g><g transform="translate(-5377.522 22123.957)"><path class="b" d="M2350.3-5.368c.264-.488-.211-.49-.352-.754-.726-1.358-6.875,3.228-7.217,4.134-.1.261.19.727.384.623a.157.157,0,0,1,.16.054C2343.347-1.236,2350.211-5.2,2350.3-5.368Z" transform="translate(-2342.714 6.372)"/></g><g transform="translate(-5382.48 22120.354)"><path class="b" d="M2328.724-14.948a4.1,4.1,0,0,0,1.184-1.4c.129-.651-.962-.9-1.017-.616a.675.675,0,0,1-.245.2C2328.076-16.429,2327.458-14.473,2328.724-14.948Z" transform="translate(-2327.982 17.079)"/></g><g transform="translate(-5435.569 22122.01)"><ellipse class="c" cx="26.571" cy="25.178" rx="26.571" ry="25.178"/></g><g transform="translate(-5432.912 22122.021)"><ellipse class="b" cx="26.571" cy="25.178" rx="26.571" ry="25.178"/></g><g transform="translate(-5429.397 22141.631)"><path class="c" d="M2192.722,48.513h-1.747V47.97a1.088,1.088,0,0,0-.066-.484.247.247,0,0,0-.224-.1.284.284,0,0,0-.257.14.821.821,0,0,0-.086.425,1.212,1.212,0,0,0,.1.551,1.424,1.424,0,0,0,.531.447,5.4,5.4,0,0,1,1.582,1.237,2.859,2.859,0,0,1,.326,1.559,2.755,2.755,0,0,1-.181,1.152,1.421,1.421,0,0,1-.7.621,2.739,2.739,0,0,1-1.205.251,2.671,2.671,0,0,1-1.289-.29,1.41,1.41,0,0,1-.7-.737,3.814,3.814,0,0,1-.165-1.269v-.479h1.747v.89a1.185,1.185,0,0,0,.074.529.284.284,0,0,0,.261.118.305.305,0,0,0,.279-.149.856.856,0,0,0,.091-.443,1.384,1.384,0,0,0-.174-.845,5.619,5.619,0,0,0-.88-.664,8.628,8.628,0,0,1-.929-.682,1.6,1.6,0,0,1-.377-.587,2.61,2.61,0,0,1-.149-.957,2.672,2.672,0,0,1,.212-1.228,1.429,1.429,0,0,1,.685-.608,2.708,2.708,0,0,1,1.143-.219,2.946,2.946,0,0,1,1.249.239,1.308,1.308,0,0,1,.683.6,3.22,3.22,0,0,1,.168,1.235Z" transform="translate(-2188.578 -46.143)"/><g transform="translate(4.57 0.017)"><path class="c" d="M2205.665,46.193l-2.139,7.594h-1.367l2.154-7.594Z" transform="translate(-2202.158 -46.193)"/></g></g><g transform="translate(-5422.981 22109.807)"><g transform="translate(0 0.165)"><path class="b" d="M2207.64-47.927h3.389v1.564h-1.355v1.481h1.27v1.488h-1.27v1.719h1.492v1.564h-3.526Z" transform="translate(-2207.64 47.927)"/></g><g transform="translate(4.109 0.165)"><path class="b" d="M2224.387-47.927v7.817h-1.782l-1.057-3.554v3.554h-1.7v-7.817h1.7l1.139,3.52v-3.52Z" transform="translate(-2219.848 47.927)"/></g><g transform="translate(10.743 0.165)"><path class="b" d="M2244.857-47.927l-1.034,7.817h-3.088l-1.175-7.817h2.144q.373,3.231.533,5.466.158-2.26.335-4.012l.141-1.454Z" transform="translate(-2239.56 47.927)"/></g><g transform="translate(15.791 0.165)"><path class="b" d="M2258.536-47.927l1.162,7.817h-2.077l-.109-1.4h-.727l-.122,1.4h-2.1l1.037-7.817Zm-1.077,5.026q-.155-1.328-.309-3.283-.311,2.245-.391,3.283Z" transform="translate(-2254.561 47.927)"/></g><g transform="translate(21.273 0.165)"><path class="b" d="M2272.881-47.927v6.253h1.236v1.564h-3.269v-7.817Z" transform="translate(-2270.848 47.927)"/></g><g transform="translate(25.034 0.165)"><path class="b" d="M2282.025-47.927h3.389v1.564h-1.357v1.481h1.27v1.488h-1.27v1.719h1.492v1.564h-3.525Z" transform="translate(-2282.025 47.927)"/></g><g transform="translate(28.969)"><path class="b" d="M2298.2-45.887h-1.888v-.58a1.153,1.153,0,0,0-.072-.517.267.267,0,0,0-.242-.111.307.307,0,0,0-.278.15.867.867,0,0,0-.094.454,1.283,1.283,0,0,0,.106.589,1.534,1.534,0,0,0,.574.478,5.787,5.787,0,0,1,1.71,1.322,3.032,3.032,0,0,1,.352,1.666,2.914,2.914,0,0,1-.2,1.231,1.531,1.531,0,0,1-.756.664,2.994,2.994,0,0,1-1.3.269,2.917,2.917,0,0,1-1.393-.309,1.514,1.514,0,0,1-.755-.787,4.03,4.03,0,0,1-.179-1.357v-.512h1.888v.951a1.25,1.25,0,0,0,.079.565.308.308,0,0,0,.282.126.332.332,0,0,0,.3-.159.909.909,0,0,0,.1-.473,1.466,1.466,0,0,0-.188-.9,5.966,5.966,0,0,0-.951-.71,9.244,9.244,0,0,1-1-.729,1.691,1.691,0,0,1-.408-.627,2.761,2.761,0,0,1-.162-1.023,2.838,2.838,0,0,1,.229-1.313,1.542,1.542,0,0,1,.74-.65,2.956,2.956,0,0,1,1.236-.236,3.226,3.226,0,0,1,1.35.255,1.416,1.416,0,0,1,.74.645,3.4,3.4,0,0,1,.181,1.321Z" transform="translate(-2293.717 48.418)"/></g></g><g transform="translate(-5483.443 22127.115)"><ellipse class="b" cx="1.404" cy="1.254" rx="1.404" ry="1.254"/></g><g transform="translate(-5457.877 22168.633)"><ellipse class="b" cx="2.007" cy="1.871" rx="2.007" ry="1.871"/></g><g transform="translate(-5527.212 22106.053)"><path class="f" d="M1897.935-57.436c0,.122.119.237.325.337a3.58,3.58,0,0,1,1.606,1.5c.1.192.228.3.36.3s.255-.11.36-.3a3.576,3.576,0,0,1,1.606-1.5c.206-.1.324-.213.324-.337s-.119-.237-.324-.337a3.574,3.574,0,0,1-1.606-1.5c-.105-.192-.229-.3-.36-.3s-.254.11-.36.3a3.578,3.578,0,0,1-1.606,1.5C1898.055-57.673,1897.935-57.558,1897.935-57.436Z" transform="translate(-1897.935 59.573)"/></g><g transform="translate(-5441.834 22124.682)"><g class="g"><rect class="h" width="0.074" height="5.004" transform="translate(0 0)"/><rect class="i" width="0.074" height="5.004" transform="translate(0.074 0)"/><rect class="j" width="0.074" height="5.004" transform="translate(0.147 0)"/><rect class="k" width="0.074" height="5.004" transform="translate(0.221 0)"/><rect class="l" width="0.074" height="5.004" transform="translate(0.294 0)"/><rect class="m" width="0.074" height="5.004" transform="translate(0.368 0)"/><rect class="n" width="0.074" height="5.004" transform="translate(0.442 0)"/><rect class="o" width="0.074" height="5.004" transform="translate(0.515 0)"/><rect class="p" width="0.074" height="5.004" transform="translate(0.589 0)"/><rect class="q" width="0.074" height="5.004" transform="translate(0.662 0)"/><rect class="r" width="0.074" height="5.004" transform="translate(0.736 0)"/><rect class="s" width="0.074" height="5.004" transform="translate(0.81 0)"/><rect class="t" width="0.074" height="5.004" transform="translate(0.883 0)"/><rect class="u" width="0.074" height="5.004" transform="translate(0.957 0)"/><rect class="v" width="0.074" height="5.004" transform="translate(1.031 0)"/><rect class="w" width="0.074" height="5.004" transform="translate(1.104 0)"/><rect class="x" width="0.074" height="5.004" transform="translate(1.178 0)"/><rect class="y" width="0.074" height="5.004" transform="translate(1.251 0)"/><rect class="z" width="0.074" height="5.004" transform="translate(1.325 0)"/><rect class="aa" width="0.074" height="5.004" transform="translate(1.399 0)"/><rect class="ab" width="0.074" height="5.004" transform="translate(1.472 0)"/><rect class="ac" width="0.074" height="5.004" transform="translate(1.546 0)"/><rect class="ad" width="0.074" height="5.004" transform="translate(1.619 0)"/><rect class="ae" width="0.074" height="5.004" transform="translate(1.693 0)"/><rect class="af" width="0.074" height="5.004" transform="translate(1.767 0)"/><rect class="ag" width="0.074" height="5.004" transform="translate(1.84 0)"/><rect class="ah" width="0.074" height="5.004" transform="translate(1.914 0)"/><rect class="ai" width="0.074" height="5.004" transform="translate(1.988 0)"/><rect class="aj" width="0.074" height="5.004" transform="translate(2.061 0)"/><rect class="ak" width="0.074" height="5.004" transform="translate(2.135 0)"/><rect class="al" width="0.074" height="5.004" transform="translate(2.208 0)"/><rect class="am" width="0.074" height="5.004" transform="translate(2.282 0)"/><rect class="an" width="0.074" height="5.004" transform="translate(2.356 0)"/><rect class="ao" width="0.074" height="5.004" transform="translate(2.429 0)"/><rect class="ap" width="0.074" height="5.004" transform="translate(2.503 0)"/><rect class="aq" width="0.074" height="5.004" transform="translate(2.576 0)"/><rect class="ar" width="0.074" height="5.004" transform="translate(2.65 0)"/><rect class="as" width="0.074" height="5.004" transform="translate(2.724 0)"/><rect class="at" width="0.074" height="5.004" transform="translate(2.797 0)"/><rect class="at" width="0.069" height="5.004" transform="translate(2.871 0)"/><rect class="au" width="0.069" height="5.004" transform="translate(2.94 0)"/><rect class="av" width="0.069" height="5.004" transform="translate(3.01 0)"/><rect class="aw" width="0.069" height="5.004" transform="translate(3.079 0)"/><rect class="ax" width="0.069" height="5.004" transform="translate(3.148 0)"/><rect class="ay" width="0.069" height="5.004" transform="translate(3.218 0)"/><rect class="az" width="0.069" height="5.004" transform="translate(3.287 0)"/><rect class="ba" width="0.069" height="5.004" transform="translate(3.356 0)"/><rect class="bb" width="0.069" height="5.004" transform="translate(3.425 0)"/><rect class="bc" width="0.069" height="5.004" transform="translate(3.495 0)"/><rect class="bd" width="0.069" height="5.004" transform="translate(3.564 0)"/><rect class="be" width="0.069" height="5.004" transform="translate(3.633 0)"/><rect class="bf" width="0.069" height="5.004" transform="translate(3.703 0)"/><rect class="bg" width="0.069" height="5.004" transform="translate(3.772 0)"/><rect class="bh" width="0.069" height="5.004" transform="translate(3.841 0)"/><rect class="bi" width="0.069" height="5.004" transform="translate(3.911 0)"/><rect class="bj" width="0.069" height="5.004" transform="translate(3.98 0)"/><rect class="bk" width="0.069" height="5.004" transform="translate(4.049 0)"/><rect class="bl" width="0.069" height="5.004" transform="translate(4.119 0)"/><rect class="bm" width="0.069" height="5.004" transform="translate(4.188 0)"/><rect class="bn" width="0.069" height="5.004" transform="translate(4.257 0)"/><rect class="bo" width="0.069" height="5.004" transform="translate(4.326 0)"/><rect class="bp" width="0.069" height="5.004" transform="translate(4.396 0)"/><rect class="bq" width="0.069" height="5.004" transform="translate(4.465 0)"/><rect class="br" width="0.069" height="5.004" transform="translate(4.534 0)"/><rect class="bs" width="0.069" height="5.004" transform="translate(4.604 0)"/><rect class="bt" width="0.069" height="5.004" transform="translate(4.673 0)"/><rect class="bu" width="0.069" height="5.004" transform="translate(4.742 0)"/><rect class="bv" width="0.069" height="5.004" transform="translate(4.812 0)"/><rect class="bw" width="0.069" height="5.004" transform="translate(4.881 0)"/><rect class="bx" width="0.069" height="5.004" transform="translate(4.95 0)"/><rect class="by" width="0.069" height="5.004" transform="translate(5.02 0)"/><rect class="bz" width="0.069" height="5.004" transform="translate(5.089 0)"/><rect class="ca" width="0.069" height="5.004" transform="translate(5.158 0)"/><rect class="cb" width="0.069" height="5.004" transform="translate(5.228 0)"/><rect class="d" width="0.069" height="5.004" transform="translate(5.297 0)"/><path class="d" d="M2167.566.78v0Z" transform="translate(-2162.2 4.224)"/></g></g><g transform="translate(-5573.164 22140.576)"><path class="d" d="M1761.4,48.4c0,.31.246.6.675.847a8.269,8.269,0,0,1,3.342,3.784c.219.485.475.765.748.765s.53-.279.748-.765a8.276,8.276,0,0,1,3.342-3.784c.429-.248.675-.538.675-.847s-.246-.6-.675-.847a8.273,8.273,0,0,1-3.342-3.784c-.219-.485-.475-.765-.748-.765s-.53.279-.748.765a8.268,8.268,0,0,1-3.342,3.784C1761.643,47.8,1761.4,48.091,1761.4,48.4Z" transform="translate(-1761.396 -43.005)"/></g><g transform="translate(-5419.42 22139.23)"><path class="c" d="M2223.779,39.005h2.432c.47,0,.758.443.68,1.013l-2.327,15.949a1.089,1.089,0,0,1-.968,1.013h-1.8c-.5,0-.785-.443-.706-1.013l1.726-11.772-3.87,2.753c-.5,0-.784-.443-.706-1.013l.419-2.816a1.2,1.2,0,0,1,.261-.664Z" transform="translate(-2218.222 -39.005)"/></g><g transform="translate(-5410.73 22139.104)"><path class="c" d="M2244.283,47.87c1.1-7.5,4-9.24,7.531-9.24s5.962,1.74,4.863,9.24c-1.02,7.025-3.948,9.019-7.531,9.019C2245.616,56.889,2243.263,54.9,2244.283,47.87Zm8.917,0c.732-5.126-.889-5.38-1.935-5.38s-2.772.253-3.5,5.38c-.68,4.715.941,5.19,1.987,5.19C2250.741,53.06,2252.52,52.585,2253.2,47.87Z" transform="translate(-2244.043 -38.63)"/></g><g transform="translate(-5396.898 22139.104)"><path class="c" d="M2285.382,47.87c1.1-7.5,4-9.24,7.531-9.24s5.962,1.74,4.864,9.24c-1.02,7.025-3.948,9.019-7.531,9.019C2286.715,56.889,2284.362,54.9,2285.382,47.87Zm8.917,0c.732-5.126-.889-5.38-1.935-5.38s-2.772.253-3.5,5.38c-.679,4.715.942,5.19,1.987,5.19C2291.841,53.06,2293.619,52.585,2294.3,47.87Z" transform="translate(-2285.143 -38.63)"/></g></g></svg>