<svg xmlns="http://www.w3.org/2000/svg" width="96.15" height="32.332" viewBox="0 0 96.15 32.332"><defs><style>.a,.b{fill:#fff;}.b{fill-rule:evenodd;}.c{fill:#ffd508;}.d{fill:#ea0c90;}</style></defs><g transform="translate(-1095.731 -1670.03)"><g transform="translate(1104.467 1670.183)"><g transform="translate(0 2.061)"><g transform="translate(0.207 21.834)"><g transform="translate(0 0)"><g transform="translate(9.658 1.208)"><path class="a" d="M1165.208,1747.322a2.312,2.312,0,0,0-.042,4.614h.051a2.078,2.078,0,0,0,1.306-.3v-.754a2.529,2.529,0,0,1-1.1.22,1.225,1.225,0,0,1-1.322-.969l-.008-.053h.8a3.862,3.862,0,0,0,1.61-.232.818.818,0,0,0,.477-.82,1.707,1.707,0,0,0-1.706-1.708l-.07,0m.519,1.953a3.616,3.616,0,0,1-1.076.1h-.555l0-.048.009-.152a1.016,1.016,0,0,1,1-1.007,1.084,1.084,0,0,1,.655.18.651.651,0,0,1,.252.545.37.37,0,0,1-.287.382m1.805-.234v2.815h1.046v-2.613a1.153,1.153,0,0,1,.213-.771.773.773,0,0,1,.618-.241,1.668,1.668,0,0,1,.284.023v-.829a1.154,1.154,0,0,0-.529-.11,1.557,1.557,0,0,0-1.632,1.722m-13.75,2.816h1.044v-5.672h-1.044Zm3.858-4.535a1.844,1.844,0,0,0-2,1.89v2.644h1.038v-2.57a1.187,1.187,0,0,1,.241-.78.8.8,0,0,1,.633-.281.9.9,0,0,1,.713.278,1.278,1.278,0,0,1,.254.865v2.486h1.037v-2.585a1.829,1.829,0,0,0-1.7-1.948,1.734,1.734,0,0,0-.208,0m3.745-1.138h-1.033l0,4.093a1.486,1.486,0,0,0,1.658,1.657c.479,0,.768-.157.886-.406v-.645a1.9,1.9,0,0,1-.751.119.742.742,0,0,1-.564-.2.931.931,0,0,1-.2-.658v-1.915h.9c.441,0,.627-.282.629-.491v-.414h-1.534Z" transform="translate(-1153.78 -1746.178)"/><g transform="translate(20.062 1.143)"><path class="a" d="M1211.9,1751.818a.817.817,0,0,0,.477-.82,1.706,1.706,0,0,0-1.706-1.707h-.069a2.312,2.312,0,0,0-.042,4.614h.05a2.078,2.078,0,0,0,1.307-.3v-.754a2.533,2.533,0,0,1-1.1.22,1.225,1.225,0,0,1-1.322-.97l-.007-.053h.8a3.863,3.863,0,0,0,1.609-.232m-2.41-.472,0-.048.007-.152a1.015,1.015,0,0,1,1-1.007,1.077,1.077,0,0,1,.655.18.646.646,0,0,1,.253.545.372.372,0,0,1-.287.382,3.609,3.609,0,0,1-1.076.1Z" transform="translate(-1208.42 -1749.291)"/></g><g transform="translate(33.629 1.138)"><path class="a" d="M1245.37,1751v2.815h1.047v-2.613a1.151,1.151,0,0,1,.213-.771.772.772,0,0,1,.618-.241,1.752,1.752,0,0,1,.285.023v-.828a1.169,1.169,0,0,0-.529-.11,1.558,1.558,0,0,0-1.632,1.722" transform="translate(-1245.37 -1749.278)"/></g><g transform="translate(16.365 1.125)"><path class="a" d="M1199.807,1753.856c-.763,0-1.332-.417-1.332-.866v-.5h.037a1.994,1.994,0,0,0,1.246.417c.508,0,.754-.156.754-.484,0-.253-.147-.375-.863-.482-.875-.131-1.3-.5-1.3-1.17a1.614,1.614,0,0,1,1.76-1.53c.94,0,1.322.514,1.322.941v.417h-.037a1.749,1.749,0,0,0-1.184-.408c-.632,0-.831.2-.831.49,0,.22.123.312.831.434.86.147,1.322.548,1.322,1.252,0,.933-.615,1.488-1.729,1.488" transform="translate(-1198.351 -1749.242)"/></g><g transform="translate(24.486 1.136)"><path class="a" d="M1224.286,1752.556c.008.179.016.417.016.564a1.962,1.962,0,0,1-2.031,2.093c-.854,0-1.439-.44-1.439-.965v-.5h.046a1.77,1.77,0,0,0,1.316.474c.745,0,1.083-.376,1.083-1.014,0-.065,0-.155-.007-.23s-.007-.18-.007-.22v-.106a1.057,1.057,0,0,1-1.069.654,1.689,1.689,0,0,1-1.725-1.651c0-.044,0-.088,0-.133a2.075,2.075,0,0,1,2.106-2.25,1.728,1.728,0,0,1,1.692,1.931v.753c0,.147.007.4.015.6m-2.761-1.17a.9.9,0,0,0,.832,1.008c.52,0,.893-.413.893-1.124,0-.694-.327-1.033-.784-1.033a1.029,1.029,0,0,0-.941,1.148" transform="translate(-1220.47 -1749.273)"/></g><g transform="translate(36.027 1.125)"><path class="a" d="M1254,1749.241a2.062,2.062,0,0,1,2.005,2.234,2.122,2.122,0,0,1-2.1,2.38,2.054,2.054,0,0,1-2.005-2.225,2.129,2.129,0,0,1,2.1-2.389m-.1.926c-.63,0-.951.546-.951,1.3,0,.912.321,1.458,1.048,1.458.639,0,.951-.546.951-1.3,0-.921-.328-1.466-1.048-1.466" transform="translate(-1251.903 -1749.241)"/></g><g transform="translate(29.009 1.219)"><path class="a" d="M1234.7,1754.048a1.844,1.844,0,0,0,2-1.9V1749.5h-1.033v2.578a1.2,1.2,0,0,1-.241.781.8.8,0,0,1-.63.283.9.9,0,0,1-.711-.28,1.289,1.289,0,0,1-.252-.869V1749.5h-1.033v2.595a1.828,1.828,0,0,0,1.693,1.954,1.8,1.8,0,0,0,.211,0" transform="translate(-1232.787 -1749.497)"/></g></g><path class="b" d="M1128.558,1742.889a1.082,1.082,0,0,0-1.082,1.082h0v7.017h7.018a1.082,1.082,0,0,0,1.083-1.082v-7.016Zm5.127,5.845-4.316.78v-4.357l4.316-.78Z" transform="translate(-1127.476 -1742.889)"/></g></g><g transform="translate(0 0)"><path class="a" d="M1135.648,1695.325v2.478c0,2.983-1.491,4.687-4.367,4.687s-4.369-1.7-4.369-4.687v-9.693c0-2.983,1.491-4.687,4.369-4.687s4.367,1.7,4.367,4.687v1.811h-2.769v-2c0-1.332-.587-1.836-1.519-1.836s-1.518.506-1.518,1.836v10.067c0,1.332.587,1.81,1.518,1.81s1.519-.478,1.519-1.81v-2.663Z" transform="translate(-1126.911 -1683.422)"/><g transform="translate(9.27 0.212)"><path class="a" d="M1155.86,1696.463l-3.7-12.464h3.063l2.237,8.5,2.237-8.5h2.8l-3.7,12.464v6.179h-2.929Z" transform="translate(-1152.158 -1683.999)"/></g><g transform="translate(20.775 0.213)"><path class="a" d="M1192.256,1688.289v.666c0,1.917-.588,3.143-1.891,3.755,1.571.613,2.184,2.024,2.184,3.995v1.518c0,2.876-1.518,4.421-4.448,4.421h-4.607V1684h4.421C1190.95,1684,1192.256,1685.412,1192.256,1688.289Zm-5.833-1.625v4.927h1.145c1.092,0,1.758-.479,1.758-1.971v-1.04c0-1.331-.453-1.917-1.491-1.917Zm0,7.591v5.725h1.678c.985,0,1.518-.453,1.518-1.836v-1.624c0-1.731-.559-2.264-1.891-2.264Z" transform="translate(-1183.494 -1684.001)"/></g><g transform="translate(31.588 0.212)"><path class="a" d="M1215.871,1691.856h4.021v2.663h-4.021v5.459h5.061v2.663h-7.989V1684h7.989v2.663h-5.06Z" transform="translate(-1212.943 -1683.999)"/></g><g transform="translate(41.385 0.212)"><path class="a" d="M1245.754,1702.642a5.737,5.737,0,0,1-.266-2.291v-2.929c0-1.731-.587-2.37-1.918-2.37h-1.013v7.59h-2.929V1684h4.421c3.036,0,4.341,1.411,4.341,4.288v1.465c0,1.917-.613,3.169-1.918,3.782,1.464.612,1.946,2.024,1.946,3.968v2.876a5.491,5.491,0,0,0,.319,2.264Zm-3.195-15.979v5.726h1.145c1.092,0,1.758-.479,1.758-1.97v-1.836c0-1.331-.453-1.917-1.491-1.917Z" transform="translate(-1239.627 -1684)"/></g></g></g><g transform="translate(55.832 0)"><circle class="c" cx="15.792" cy="15.792" r="15.792"/><g transform="translate(2.065 9.012)"><path class="d" d="M1305.193,1707.855h-1.065l-.017.106a1.764,1.764,0,0,1-1.77,1.565,1.952,1.952,0,0,1-1.282-.464l-.021-.013c-.065-.032-.148-.015-.261.055a1.909,1.909,0,0,0-.789,1.617,1.99,1.99,0,0,0,2.132,1.974,2.283,2.283,0,0,0,1.143-.3v8.793a1.432,1.432,0,0,0,1.529,1.64h.4a1.556,1.556,0,0,0,1.174-.42,1.708,1.708,0,0,0,.4-1.22V1709.5A1.438,1.438,0,0,0,1305.193,1707.855Z" transform="translate(-1299.987 -1707.855)"/><g transform="translate(8.781 0.157)"><path class="d" d="M1334.438,1713.732a7.5,7.5,0,0,0-2.5.437v-2.882h5.689c1.119,0,1.662-.456,1.662-1.4v-.112c0-.94-.559-1.417-1.662-1.417h-6.995c-1.1,0-1.707.693-1.707,1.952v4.767c0,1.324.673,1.992,2.059,2.041h.045l.036-.027a4.637,4.637,0,0,1,2.909-.865c1.772,0,2.749.778,2.749,2.191,0,1.365-1.1,2.214-2.859,2.214a4.657,4.657,0,0,1-3.89-1.891c-.078-.1-.224-.047-.271-.031a2.073,2.073,0,0,0-1.288,1.668,2.531,2.531,0,0,0,1.477,2,7.859,7.859,0,0,0,4.016.927c3.691,0,5.984-1.875,5.984-4.892C1339.887,1715.574,1337.748,1713.732,1334.438,1713.732Z" transform="translate(-1328.412 -1708.364)"/></g></g><g transform="translate(23.023 9.388)"><path class="d" d="M1367.833,1710.326v-.06a1.151,1.151,0,0,1,1.13-1.17c.03,0,.061,0,.091,0a1.137,1.137,0,0,1,1.2,1.065c0,.032,0,.064,0,.1v.06a1.149,1.149,0,0,1-1.127,1.17c-.029,0-.058,0-.087,0a1.143,1.143,0,0,1-1.211-1.071C1367.833,1710.386,1367.833,1710.356,1367.833,1710.326Zm.384,3.46a.539.539,0,0,1,.2-.385l3.792-4.319c.038-.045.452.068.452.34a.662.662,0,0,1-.2.4l-3.791,4.311c-.038.045-.453-.085-.453-.347Zm1.334-3.429v-.121a.511.511,0,0,0-.447-.569.493.493,0,0,0-.058,0,.5.5,0,0,0-.51.5.523.523,0,0,0,0,.076v.121a.507.507,0,0,0,.455.555.447.447,0,0,0,.057,0,.5.5,0,0,0,.5-.492.442.442,0,0,0,0-.066Zm1.093,2.6v-.062a1.155,1.155,0,0,1,1.139-1.17c.027,0,.055,0,.082,0a1.133,1.133,0,0,1,1.2,1.057c0,.035,0,.069,0,.1v.06a1.147,1.147,0,0,1-1.123,1.17c-.027,0-.055,0-.082,0a1.144,1.144,0,0,1-1.219-1.066c0-.031,0-.063,0-.094Zm1.726.022v-.12a.516.516,0,0,0-.455-.57l-.05,0a.5.5,0,0,0-.51.5.474.474,0,0,0,0,.075v.12a.5.5,0,0,0,.44.562.48.48,0,0,0,.065,0,.511.511,0,0,0,.505-.566Z" transform="translate(-1367.833 -1709.073)"/></g><g transform="translate(23.174 15.626)"><g transform="translate(0 0.024)"><path class="d" d="M1368.322,1729.511a.147.147,0,0,1,.133-.161h.343a.61.61,0,0,1,.682.528.6.6,0,0,1,0,.106.621.621,0,0,1-.7.644h-.3a.161.161,0,0,1-.162-.16Zm.871.474a.362.362,0,0,0-.333-.388.43.43,0,0,0-.069,0h-.18v.781h.176a.366.366,0,0,0,.4-.325.382.382,0,0,0,0-.069Z" transform="translate(-1368.321 -1729.344)"/></g><g transform="translate(1.281)"><path class="d" d="M1372.468,1730.343c0-.081.1-.155.111-.144a.521.521,0,0,0,.379.172c.152,0,.233-.055.233-.155,0-.115-.129-.138-.278-.172-.2-.045-.413-.12-.413-.383,0-.237.189-.393.5-.393a.63.63,0,0,1,.368.095.177.177,0,0,1,.089.14.191.191,0,0,1-.115.152.458.458,0,0,0-.34-.156c-.138,0-.221.057-.221.15,0,.111.114.126.273.162.231.052.432.146.432.387s-.187.4-.524.4a.642.642,0,0,1-.413-.116A.183.183,0,0,1,1372.468,1730.343Z" transform="translate(-1372.468 -1729.266)"/></g><g transform="translate(2.422 0.001)"><path class="d" d="M1376.823,1729.27a.623.623,0,0,1,.374.107.254.254,0,0,1,.116.184c0,.128-.164.158-.168.148a.349.349,0,0,0-.312-.174.368.368,0,0,0-.369.366c0,.012,0,.024,0,.036a.373.373,0,0,0,.343.4h.028a.326.326,0,0,0,.316-.192c0-.012.174.018.174.146a.275.275,0,0,1-.124.2.623.623,0,0,1-.385.115.631.631,0,0,1-.655-.606c0-.02,0-.04,0-.06a.636.636,0,0,1,.6-.667Z" transform="translate(-1376.162 -1729.27)"/></g><g transform="translate(3.662 0.03)"><path class="d" d="M1380.6,1729.617h-.289c-.087,0-.134-.044-.134-.124v-.01c0-.079.047-.121.134-.121h.865c.089,0,.135.042.135.121v.01c0,.081-.046.124-.135.124h-.283v.9a.119.119,0,0,1-.1.132h-.069c-.079,0-.12-.045-.12-.132Z" transform="translate(-1380.176 -1729.362)"/></g><g transform="translate(4.831 0.001)"><path class="d" d="M1383.961,1729.939a.64.64,0,0,1,.612-.668h.048a.633.633,0,0,1,.656.609c0,.019,0,.038,0,.057a.637.637,0,0,1-.6.668h-.054a.634.634,0,0,1-.659-.608C1383.96,1729.978,1383.96,1729.959,1383.961,1729.939Zm1.027,0a.374.374,0,0,0-.337-.407l-.034,0a.367.367,0,0,0-.37.365.323.323,0,0,0,0,.042.371.371,0,0,0,.33.407l.04,0a.371.371,0,0,0,.371-.371.326.326,0,0,0,0-.036Z" transform="translate(-1383.961 -1729.271)"/></g><g transform="translate(6.301 1.03)"><path class="d" d="M1388.72,1732.733a.117.117,0,0,1,.1-.132.115.115,0,0,1,.033,0h.033a.118.118,0,0,1,.134.1.117.117,0,0,1,0,.033v.028a.119.119,0,0,1-.1.133.132.132,0,0,1-.032,0h-.033a.118.118,0,0,1-.133-.1.144.144,0,0,1,0-.031Z" transform="translate(-1388.719 -1732.6)"/></g></g></g></g><g transform="translate(1095.731 1670.03)"><g transform="translate(0 0)"><g transform="translate(0 0)"><g transform="translate(1.676 0.702)"><path class="a" d="M1116.278,1665.336a1.325,1.325,0,1,1,1.325-1.325A1.327,1.327,0,0,1,1116.278,1665.336Zm0-1.7a.376.376,0,1,0,.376.377A.377.377,0,0,0,1116.278,1663.634Z" transform="translate(-1114.953 -1662.685)"/></g><g transform="translate(0 27.015)"><path class="a" d="M1121.846,1791.368a1.676,1.676,0,1,1,1.676-1.676A1.677,1.677,0,0,1,1121.846,1791.368Zm0-2.4a.727.727,0,1,0,.727.727A.728.728,0,0,0,1121.846,1788.964Z" transform="translate(-1120.17 -1788.015)"/></g><g transform="translate(61.838)"><path class="a" d="M1121.846,1791.368a1.676,1.676,0,1,1,1.676-1.676A1.677,1.677,0,0,1,1121.846,1791.368Zm0-2.4a.727.727,0,1,0,.727.727A.728.728,0,0,0,1121.846,1788.964Z" transform="translate(-1120.17 -1788.015)"/></g><g transform="translate(64.308 29.485)"><g transform="translate(0 0)"><circle class="a" cx="0.441" cy="0.441" r="0.441"/></g></g></g></g></g></g></svg>