<svg xmlns="http://www.w3.org/2000/svg" width="86" height="86" viewBox="0 0 86 86"><defs><style>.a{fill:#fff;}.b{fill:#0854c4;}</style></defs><g transform="translate(-556 -744)"><circle class="a" cx="43" cy="43" r="43" transform="translate(556 744)"/><g transform="translate(-1609.753 198.721)"><g transform="translate(2202.007 579.272)"><rect class="b" width="1.435" height="12.707" transform="translate(0 0)"/></g><g transform="translate(2198.036 579.272)"><rect class="b" width="1.435" height="12.707" transform="translate(0 0)"/></g><g transform="translate(2196.448 591.185)"><path class="b" d="M2223.308,660.583h-8.582V658.9l.794-1.588V647.043l.794-2.382v-.678h1.435v.911l-.794,2.382v10.377l-.748,1.5h5.62l-.748-1.5V647.275l-.594-1.781h-1.865v-1.435h2.9l.995,2.984v10.271l.794,1.588Z" transform="translate(-2214.726 -643.982)"/></g><g transform="translate(2189.092 570.613)"><path class="b" d="M2203.442,581.669h-5.322l-.078-.628c0-.024-.365-2.549-1.671-2.549-2.824,0-3.2.366-4.122,1.249l-.625.6-.494-.438a18.328,18.328,0,0,1-1.673-1.677l-.365-.457.374-.45c2.643-3.182,4.88-5.024,8.493-5.024h3.971a3.447,3.447,0,0,1,2.082.965,2.391,2.391,0,0,0,1.095.623c.41,0,.683-.224,1.131-.62a3,3,0,0,1,2.046-.968h2.306v7.788h-3.1a1.76,1.76,0,0,1-1.232-.785c-.338-.376-.722-.8-1.151-.8-.463,0-1.665.442-1.665,2.46Zm-4.089-1.435h2.7a3.262,3.262,0,0,1,3.058-3.177,3.051,3.051,0,0,1,2.219,1.28c.093.1.213.237.291.308h1.538v-4.919h-.871c-.389,0-.656.22-1.095.608a3.036,3.036,0,0,1-2.082.981,3.31,3.31,0,0,1-1.979-.928,2.424,2.424,0,0,0-1.2-.66h-3.971c-2.595,0-4.409,1.03-6.992,4.035.206.215.435.436.631.621.984-.894,1.849-1.325,4.772-1.325C2198.155,577.058,2199.032,578.838,2199.353,580.235Z" transform="translate(-2189.092 -572.293)"/></g><g transform="translate(2212.685 569.937)"><path class="b" d="M2279.175,607.785a3.1,3.1,0,0,1-3.1-3.1V584.912c-3.12-1.253-4.765-3.469-4.765-6.434V576.89a7.332,7.332,0,0,1,5.243-6.614l.957-.339v6.235h3.33v-6.235l.956.339a7.331,7.331,0,0,1,5.243,6.614v1.588c0,2.965-1.645,5.181-4.765,6.434v19.773A3.1,3.1,0,0,1,2279.175,607.785Zm-3.1-35.734a5.77,5.77,0,0,0-3.33,4.839v1.588c0,2.484,1.442,4.255,4.287,5.262l.478.169v20.776a1.665,1.665,0,1,0,3.33,0V583.909l.478-.169c2.844-1.007,4.287-2.778,4.287-5.262V576.89a5.77,5.77,0,0,0-3.33-4.839v5.556h-6.2Z" transform="translate(-2271.31 -569.937)"/></g></g></g></svg>