<svg xmlns="http://www.w3.org/2000/svg" width="86" height="86" viewBox="0 0 86 86"><defs><style>.a{fill:#fff;}.b{fill:#0854c4;}.c{opacity:0.17;}</style></defs><g transform="translate(-203 -744)"><circle class="a" cx="43" cy="43" r="43" transform="translate(203 744)"/><g transform="translate(-554.432 -994.409)"><g transform="translate(778.775 1783.088)"><path class="b" d="M786.451,1857.476a10.187,10.187,0,0,1,2.152-7.615c2.263-2.719,6.046-4.151,11.245-4.256a4.223,4.223,0,0,0,2.763-1.2,4.756,4.756,0,0,0,1.048-3.637l1.406-.074a6.076,6.076,0,0,1-1.443,4.69,5.6,5.6,0,0,1-3.76,1.627c-4.758.1-8.187,1.358-10.178,3.749a8.844,8.844,0,0,0-1.845,6.487Z" transform="translate(-786.372 -1840.695)"/></g><g transform="translate(789.256 1788.557)"><path class="b" d="M832.309,1866.673a13.784,13.784,0,0,1-12.425-7.893l1.274-.6a12.323,12.323,0,0,0,17.428,5.367l.718,1.21A13.7,13.7,0,0,1,832.309,1866.673Z" transform="translate(-819.884 -1858.182)"/></g><g transform="translate(812.449 1790.764)"><path class="b" d="M898.959,1876.418a.832.832,0,0,1-.251-.039,6.774,6.774,0,0,1-4.67-6.516v-1.914a1.322,1.322,0,0,1,.978-1.289l3.942-1.423,3.942,1.423a1.322,1.322,0,0,1,.978,1.289v1.914a6.773,6.773,0,0,1-4.668,6.515h0A.831.831,0,0,1,898.959,1876.418Zm0-9.85-3.619,1.3a.08.08,0,0,0-.051.08v1.914a3.915,3.915,0,1,0,7.339,0v-1.914a.08.08,0,0,0-.051-.08l-.072-.021Z" transform="translate(-894.038 -1865.238)"/></g><g class="c" transform="translate(813.075 1791.429)"><path class="b" d="M900.4,1877.244h0a.208.208,0,0,1-.124,0h0a6.179,6.179,0,0,1-4.233-5.919v-1.914a.7.7,0,0,1,.536-.69l3.759-1.357,3.759,1.357a.7.7,0,0,1,.536.69v1.914A6.179,6.179,0,0,1,900.4,1877.244Z" transform="translate(-896.038 -1867.364)"/></g><g transform="translate(814.846 1794.018)"><path class="b" d="M903.508,1879.634l-1.807-2.065,1.059-.927.852.974,2.128-1.976.958,1.031Z" transform="translate(-901.701 -1875.641)"/></g><g transform="translate(803.59 1783.088)"><path class="b" d="M873.85,1847.242a23.95,23.95,0,0,0-2.934-.231h0a5.6,5.6,0,0,1-3.745-1.627,6.078,6.078,0,0,1-1.443-4.69l1.406.074a4.753,4.753,0,0,0,1.048,3.637,4.222,4.222,0,0,0,2.752,1.2,25.381,25.381,0,0,1,3.119.245Z" transform="translate(-865.713 -1840.695)"/></g><g transform="translate(790.796 1770.296)"><path class="b" d="M834.421,1814.6c-4.585,0-7.836-4.318-9.4-12.488a11.913,11.913,0,0,1-.215-2.2l1.407,0a10.484,10.484,0,0,0,.19,1.942c.811,4.237,2.93,11.345,8.016,11.345,3.081,0,7.028-2.958,8.008-11.295a15.215,15.215,0,0,0,.106-2.075l1.408-.027a16.678,16.678,0,0,1-.116,2.267C842.931,1809.68,839.239,1814.6,834.421,1814.6Z" transform="translate(-824.807 -1799.797)"/></g><g transform="translate(793.199 1764.935)"><path class="b" d="M832.969,1787.714l-.478-1.324.239.662-.24-.662c.033-.012,3.261-1.213,4.391-3.735l1.284.575C836.787,1786.306,833.125,1787.658,832.969,1787.714Z" transform="translate(-832.49 -1782.656)"/></g><g transform="translate(798.14 1763.814)"><path class="b" d="M861.355,1787.211c-3.092-1.083-6-4.053-7.273-5.494-1.688,2.347-5.432,2.863-5.61,2.886l-.183-1.4c.041-.006,4.1-.57,5.01-2.976l.44-1.159.77.972c.036.045,3.64,4.553,7.311,5.838Z" transform="translate(-848.289 -1779.073)"/></g><g transform="translate(786.561 1756.87)"><path class="b" d="M835.052,1789.312l-.7-1.22c.233-.135,5.681-3.42,4.064-12.076l-.012-.124a28.972,28.972,0,0,0-1.644-8.648c-2.08-5.632-5.69-8.643-10.73-8.948a12.569,12.569,0,0,0-8.637,3.028c-2.994,2.692-4.576,6.984-4.7,12.756,0,.111-.362,9.587,4.751,14.094l-.931,1.056c-5.623-4.956-5.246-14.781-5.227-15.2.136-6.17,1.882-10.809,5.186-13.77a13.773,13.773,0,0,1,9.665-3.37c5.561.337,9.7,3.76,11.959,9.9a29.985,29.985,0,0,1,1.718,9.027C841.578,1785.445,835.32,1789.158,835.052,1789.312Z" transform="translate(-811.268 -1756.87)"/></g><g transform="translate(797.759 1778.225)"><path class="b" d="M850.02,1827.4a4.913,4.913,0,0,1-2.951-1.21l.947-1.042-.474.521.472-.522a3.374,3.374,0,0,0,2.123.842,2.013,2.013,0,0,0,1.417-.78l1.064.922a3.391,3.391,0,0,1-2.4,1.264C850.149,1827.4,850.084,1827.4,850.02,1827.4Z" transform="translate(-847.069 -1825.147)"/></g><g transform="translate(802.207 1770.445)"><path class="b" d="M864.389,1802.275a1.864,1.864,0,0,0-1.193-.595c-.1.007-.4.026-.768.529l-1.138-.828a2.415,2.415,0,0,1,1.828-1.105,3.242,3.242,0,0,1,2.3,1.042l-1.034.955.517-.477Z" transform="translate(-861.29 -1800.272)"/></g><g transform="translate(794.178 1770.445)"><path class="b" d="M838.718,1802.275a1.862,1.862,0,0,0-1.193-.595c-.1.007-.4.026-.769.529l-1.138-.828a2.415,2.415,0,0,1,1.828-1.105,3.237,3.237,0,0,1,2.3,1.042l-1.034.955.517-.477Z" transform="translate(-835.619 -1800.272)"/></g><g transform="translate(807.357 1786.155)"><path class="b" d="M887.653,1870.3a9.9,9.9,0,1,1,9.9-9.9A9.908,9.908,0,0,1,887.653,1870.3Zm0-18.386a8.489,8.489,0,1,0,8.489,8.489A8.5,8.5,0,0,0,887.653,1851.909Z" transform="translate(-877.757 -1850.502)"/></g><g transform="translate(799.663 1772.734)"><rect class="b" width="3.782" height="1.408" transform="translate(0 3.775) rotate(-86.467)"/></g></g></g></svg>