<svg xmlns="http://www.w3.org/2000/svg" width="86" height="86" viewBox="0 0 86 86"><defs><style>.a{fill:#fff;}.b{fill:#0854c4;}</style></defs><g transform="translate(-899 -744)"><circle class="a" cx="43" cy="43" r="43" transform="translate(899 744)"/><g transform="translate(-1453.016 613.949)"><g transform="translate(2375.465 189.303)"><rect class="b" width="39.862" height="1.266" transform="translate(0 0)"/></g><g transform="translate(2374.832 154.533)"><path class="b" d="M2418.3,188.98h-32.216a4.483,4.483,0,0,1-4.478-4.478V165.2a4.483,4.483,0,0,1,4.478-4.478h31.869a4.483,4.483,0,0,1,4.478,4.478v16.269h-1.266V165.2a3.216,3.216,0,0,0-3.212-3.212h-31.869a3.216,3.216,0,0,0-3.213,3.212v19.3a3.216,3.216,0,0,0,3.213,3.212H2418.3Z" transform="translate(-2381.609 -160.725)"/></g><g transform="translate(2375.465 176.441)"><rect class="b" width="34.224" height="1.266" transform="translate(0 0)"/></g><g transform="translate(2388.851 181.523)"><path class="b" d="M2438.369,255.058h-12.458v-9.046h12.458Zm-11.192-1.266h9.926v-6.515h-9.926Z" transform="translate(-2425.911 -246.012)"/></g><g transform="translate(2408.454 171.798)"><path class="b" d="M2497.906,230.687a1.492,1.492,0,0,1-1.129-.512l-2.006-2.3-2.272,1.981a.836.836,0,0,1-1.362-.431l-3.262-13.309a.673.673,0,0,1,.9-.785l12.741,5.042a.837.837,0,0,1,.241,1.408l-2.272,1.981,2.006,2.3a1.5,1.5,0,0,1-.144,2.111l-2.461,2.146A1.49,1.49,0,0,1,2497.906,230.687Zm-3.013-4.6,2.838,3.254a.231.231,0,0,0,.325.022l2.461-2.146a.23.23,0,0,0,.022-.325l-2.837-3.254,2.694-2.35-11.017-4.36,2.82,11.509Zm-6.583-9.581h0Zm.795-.694v0Z" transform="translate(-2487.856 -215.282)"/></g><g transform="translate(2382.721 159.599)"><path class="b" d="M2431.942,186.538a6.625,6.625,0,0,0-1.4-3.47c-1.406-1.763-4.459-2.3-5.79-2.447-1.776-2.544-4.776-3.887-8.7-3.887a11.216,11.216,0,0,0-1.536.1,6.508,6.508,0,0,0-5.288,3.765,2.931,2.931,0,0,0-2.685,2.879v3.134a1.771,1.771,0,0,0,1.734,1.8h1.385a2.833,2.833,0,0,0,5.242,0h8.327a2.833,2.833,0,0,0,5.242,0h1.461a1.772,1.772,0,0,0,2.015-1.8Zm-17.234-8.292a9.806,9.806,0,0,1,1.339-.087c2.972,0,5.315.851,6.865,2.471h-12.075A5.091,5.091,0,0,1,2414.708,178.245Zm-2.43,10.5a1.411,1.411,0,1,1,1.411-1.411A1.413,1.413,0,0,1,2412.278,188.748Zm13.568,0a1.411,1.411,0,1,1,1.411-1.411A1.413,1.413,0,0,1,2425.847,188.748Zm4.083-1.758h-1.271a2.832,2.832,0,0,0-5.623,0h-7.946a2.832,2.832,0,0,0-5.623,0h-1.2a.354.354,0,0,1-.31-.378v-3.134a1.559,1.559,0,0,1,1.662-1.477h.065v.052h14.653v-.041c1.774.165,4.145.768,5.081,1.944a5.184,5.184,0,0,1,1.1,2.657C2430.52,186.807,2430.52,186.991,2429.929,186.991Z" transform="translate(-2406.538 -176.734)"/></g></g></g></svg>