<svg xmlns="http://www.w3.org/2000/svg" width="86.9" height="86.9" viewBox="0 0 86.9 86.9"><defs><style>.a{fill:#00b3ff;stroke:#007dd8;stroke-miterlimit:10;stroke-width:2px;}.b{fill:#fff;}</style></defs><g transform="translate(-2325.094 -928.989)"><path class="a" d="M2386.128,1014.889h-35.167l-24.867-24.867V954.856l24.867-24.867h35.167l24.866,24.867v35.167Z" transform="translate(0 0)"/><g transform="translate(2340.725 963.953)"><path class="b" d="M2350.877,974.489a10.323,10.323,0,0,1,4.613.974l-.64,2.179a11.862,11.862,0,0,0-1.986-.756,7.092,7.092,0,0,0-1.833-.243,3.586,3.586,0,0,0-2.178.59,1.927,1.927,0,0,0-.794,1.64,1.84,1.84,0,0,0,.615,1.461,5.675,5.675,0,0,0,2,.974l1.589.513a6.323,6.323,0,0,1,3.076,1.858,4.227,4.227,0,0,1,.974,2.756,4.454,4.454,0,0,1-.41,1.922,4.217,4.217,0,0,1-1.166,1.487,5.587,5.587,0,0,1-1.833.962,7.787,7.787,0,0,1-2.384.345,14.077,14.077,0,0,1-2.6-.243,10.2,10.2,0,0,1-2.526-.833l.641-2.152a11.354,11.354,0,0,0,2.153.807,8.854,8.854,0,0,0,2.2.269,3.956,3.956,0,0,0,2.255-.589,1.97,1.97,0,0,0,.871-1.744,2.075,2.075,0,0,0-.6-1.46A5.768,5.768,0,0,0,2350.57,984l-1.513-.487a7.152,7.152,0,0,1-2.78-1.576,3.67,3.67,0,0,1-1.012-2.755,4.35,4.35,0,0,1,1.435-3.409A6.086,6.086,0,0,1,2350.877,974.489Z" transform="translate(-2345.264 -974.489)"/><path class="b" d="M2371.223,974.489a8.542,8.542,0,0,1,3.076.539,6.689,6.689,0,0,1,2.435,1.589,7.312,7.312,0,0,1,1.6,2.614,10.326,10.326,0,0,1,.576,3.588,9.933,9.933,0,0,1-.59,3.55,7.4,7.4,0,0,1-1.64,2.615,6.99,6.99,0,0,1-2.473,1.615,9,9,0,0,1-6.165.012,6.685,6.685,0,0,1-2.435-1.588,7.319,7.319,0,0,1-1.6-2.6,10.321,10.321,0,0,1-.576-3.6,9.919,9.919,0,0,1,.59-3.549,7.407,7.407,0,0,1,1.64-2.615,6.989,6.989,0,0,1,2.474-1.614A8.466,8.466,0,0,1,2371.223,974.489Zm-4.843,8.33a8.75,8.75,0,0,0,.384,2.73,5.7,5.7,0,0,0,1.039,1.935,4.068,4.068,0,0,0,1.537,1.141,4.806,4.806,0,0,0,1.884.372,4.719,4.719,0,0,0,1.872-.372,3.884,3.884,0,0,0,1.5-1.141,5.832,5.832,0,0,0,1-1.935,9.038,9.038,0,0,0,.372-2.73,8.921,8.921,0,0,0-.385-2.78,5.569,5.569,0,0,0-1.037-1.922A4.01,4.01,0,0,0,2373,977a4.953,4.953,0,0,0-1.884-.359,4.727,4.727,0,0,0-1.871.372,3.869,3.869,0,0,0-1.5,1.14,5.792,5.792,0,0,0-1,1.935A9.038,9.038,0,0,0,2366.38,982.819Z" transform="translate(-2349.566 -974.489)"/><path class="b" d="M2391.817,974.826h2.614l6.279,16.147h-2.87l-1.615-4.23h-6.33l-1.589,4.23h-2.845Zm-1.23,9.817h4.9l-.949-2.615q-.2-.538-.385-1.039c-.119-.333-.24-.661-.358-.987s-.235-.657-.346-1-.227-.717-.346-1.127h-.052q-.383,1.128-.717,2.089t-.77,2.089Z" transform="translate(-2354.781 -974.569)"/><path class="b" d="M2417.208,974.826v2.255h-4.87v13.892H2409.6V977.081H2404.8v-2.255Z" transform="translate(-2359.361 -974.569)"/></g></g></svg>