<svg xmlns="http://www.w3.org/2000/svg" width="226.924" height="113.234" viewBox="0 0 226.924 113.234"><defs><style>.a{fill:#244395;}.b{fill:#007dd8;}.c{fill:none;stroke:#c6e4ff;}.d{fill:#00b3ff;}.e{fill:#dbeeff;}.f{fill:#cdf0ff;}.g{fill:#0854c4;}.h{fill:#9cbfef;opacity:0.269;}.i{fill:#fff;}</style></defs><g transform="translate(-422.576 -243.266)"><g transform="translate(-4783.51 -1168)"><g transform="translate(5279.143 1497.05)"><g transform="translate(11.188)"><path class="a" d="M80.274-2771.578c0,7.581-5.007,13.726-11.184,13.726H61.9V-2785.3H69.09C75.268-2785.3,80.274-2779.152,80.274-2771.578Z" transform="translate(-61.904 2785.297)"/></g><g transform="translate(0 0)"><ellipse class="a" cx="11.184" cy="13.725" rx="11.184" ry="13.725"/></g></g><g transform="translate(5361.263 1497.05)"><g transform="translate(11.188)"><path class="a" d="M1067.171-2771.578c0,7.581-5.008,13.726-11.183,13.726H1048.8V-2785.3h7.186C1062.166-2785.3,1067.171-2779.152,1067.171-2771.578Z" transform="translate(-1048.802 2785.297)"/></g><g transform="translate(0 0)"><ellipse class="a" cx="11.184" cy="13.725" rx="11.184" ry="13.725"/></g></g><g transform="translate(5234.539 1492.943)"><rect class="a" width="114.16" height="24.691"/></g><g transform="translate(5321.978 1498.28)"><ellipse class="b" cx="10.181" cy="12.495" rx="10.181" ry="12.495"/></g><g transform="translate(5240 1498.28)"><ellipse class="b" cx="10.181" cy="12.495" rx="10.181" ry="12.495"/></g><g transform="translate(5326.616 1503.977)"><path class="c" d="M497-2696.5c-3.06,0-5.543-3.052-5.543-6.8s2.486-6.8,5.543-6.8,5.542,3.052,5.542,6.8S500.055-2696.5,497-2696.5Z" transform="translate(-491.457 2710.097)"/></g><g transform="translate(5244.639 1503.977)"><path class="c" d="M497-2696.5c-3.06,0-5.543-3.052-5.543-6.8s2.486-6.8,5.543-6.8,5.542,3.052,5.542,6.8S500.055-2696.5,497-2696.5Z" transform="translate(-491.457 2710.097)"/></g><g transform="translate(5277.171 1457.177)"><path class="d" d="M28.007-3218.318a3.767,3.767,0,0,0-1.813-3.037l-.981-.595s-.547-10.617-12.74-17.124c-9.4-5.02-22.464-6-22.464-6s-10.07-14.14-24.081-17.766a56.469,56.469,0,0,0-11.658-1.653H-93.843l-2.4,23.256,71.11,12.574-.124,24.624H21.124a7.15,7.15,0,0,0,6.1-3.909C28.236-3210.03,28.147-3215.383,28.007-3218.318Z" transform="translate(96.247 3264.491)"/></g><g transform="translate(5221.985 1457.172)"><path class="d" d="M-627.076-3221.407l-.981-.6s-.547-10.617-12.741-17.123c-9.4-5.019-22.464-6-22.464-6s-10.07-14.139-24.081-17.766-35.266-.858-43.177,4.1a63.812,63.812,0,0,0-13.535,11.725s-9.675,2.4-11.151,3.876c-3.671,3.67-2.383,15.949-2.383,15.949l-1.167,3.058a10.728,10.728,0,0,0-.661,4.836c.268,2.836.939,7.3,2.591,10.121,2.574,4.383,8.261,5.145,8.261,5.145h1.652a.763.763,0,0,0,.762-.762h0v-5.728a15.49,15.49,0,0,1,14.691-15.605,15.249,15.249,0,0,1,15.8,14.684v.006c.007.185.01.374.01.556v5.319a1.524,1.524,0,0,0,1.525,1.525h48.046a1.525,1.525,0,0,0,1.525-1.525h0v-4.969a15.491,15.491,0,0,1,14.691-15.606,15.252,15.252,0,0,1,15.8,14.688v0c.007.184.01.374.01.555v6.1a.762.762,0,0,0,.763.763h1.144a7.146,7.146,0,0,0,6.1-3.908C-625.034-3210.082-626-3220.759-627.076-3221.407Z" transform="translate(759.463 3264.545)"/></g><g transform="translate(5249.985 1458.703)"><path class="e" d="M-359.288-3230c-3.019-3.658-10.832-12.048-20.828-14.63a43.027,43.027,0,0,0-11.674-1.519c-10.316.042-20.889,2.2-25.823,5.294a13.686,13.686,0,0,0-4.919,5.012,4.169,4.169,0,0,0-.354,2.6,5.968,5.968,0,0,0,5.827,4.952l53.509,1.325a10.846,10.846,0,0,0,3.611-.657,1.51,1.51,0,0,0,.9-1.937,1.506,1.506,0,0,0-.254-.444Z" transform="translate(422.957 3246.151)"/></g><g transform="translate(5301.394 1458.704)"><path class="e" d="M214.6-3228.247h37.429a.752.752,0,0,0,.743-.76.769.769,0,0,0-.17-.484c-3.285-3.995-11.193-12.437-21.033-15.042a52.6,52.6,0,0,0-11.018-1.6H195.6a.75.75,0,0,0-.74.762.763.763,0,0,0,.409.676,46.343,46.343,0,0,1,16.856,15.089A2.949,2.949,0,0,0,214.6-3228.247Z" transform="translate(-194.858 3246.135)"/></g><g transform="translate(5347.685 1490.392)"><path class="e" d="M756.881-2855.991h11.724s0-7.595-4.193-8.483a67.323,67.323,0,0,0-11.205-.839,21.888,21.888,0,0,0-2.034,7.573C751.169-2856.132,754.562-2855.991,756.881-2855.991Z" transform="translate(-751.173 2865.316)"/></g><g transform="translate(5388.245 1490.803)"><path class="e" d="M1245.62-2860.377c-1,.117-1.952.249-2.8.431-4.193.89-4.193,8.482-4.193,8.482h10.388A19.425,19.425,0,0,0,1245.62-2860.377Z" transform="translate(-1238.628 2860.377)"/></g><g transform="translate(5223.655 1486.75)"><path class="f" d="M-739.3-2909.081a51.224,51.224,0,0,0,.125,7.727h3.431C-735.754-2905.316-736.962-2907.88-739.3-2909.081Z" transform="translate(739.394 2909.081)"/></g><g transform="translate(5252.044 1495.613)"><path class="d" d="M-386.2-2780.541h54.523a1.525,1.525,0,0,0,1.525-1.525h0v-4.968c0-5.13-.747-9.78,3.112-12.647l-71.172-2.881c7.719.748,10.493,7.244,10.493,15.163v5.332a1.525,1.525,0,0,0,1.523,1.527h0Z" transform="translate(398.216 2802.563)"/></g><g transform="translate(5348.15 1514.246)"><g transform="translate(0)"><path class="d" d="M756.786-2578.637l-.017,3.39h46.385a7.223,7.223,0,0,0,5.811-3.39Z" transform="translate(-756.769 2578.637)"/></g></g><g transform="translate(5221.996 1494.472)"><path class="d" d="M-756.7-2798.267c2.573,4.384,8.261,5.146,8.261,5.146h4.338a.764.764,0,0,0,.763-.764h0v-5.727c0-8.27,3.745-15.314,12.009-15.605h.184l-26.311-1.065-1.167,3.058a10.728,10.728,0,0,0-.661,4.836C-759.019-2805.551-758.349-2801.083-756.7-2798.267Z" transform="translate(759.328 2816.282)"/></g><g transform="translate(5342.109 1499.266)"><path class="d" d="M686.717-2747.157v6.1a.763.763,0,0,0,.762.763h3.881a7.153,7.153,0,0,0,6.1-3.908c1.02-2.086.928-7.44.789-10.38a3.767,3.767,0,0,0-1.813-3.037l-.981-.6-11.286-.457C687.393-2755.883,686.717-2751.768,686.717-2747.157Z" transform="translate(-684.17 2758.672)"/></g><g transform="translate(5235.11 1480.03)"><path class="d" d="M-518.654-2983.321h-.061l-80.787-1.945a2.287,2.287,0,0,1-2.232-2.341,2.288,2.288,0,0,1,2.341-2.232h0l80.787,1.944a2.289,2.289,0,0,1,2.19,2.382,2.288,2.288,0,0,1-2.244,2.192Z" transform="translate(601.735 2989.839)"/></g><g transform="translate(5358.413 1507.022)"><path class="b" d="M917.365-2659.617H883.648a3.545,3.545,0,0,1-3.545-3.543h0a2.3,2.3,0,0,1,2.3-2.3h36.208a2.3,2.3,0,0,1,2.3,2.3h0A3.545,3.545,0,0,1,917.365-2659.617Z" transform="translate(-880.103 2665.46)"/></g><g transform="translate(5253.043 1458.702)"><g transform="translate(23.319)"><path class="d" d="M-105.78-3246.118l-.178,18.368,3.049.072.179-18.482Q-104.252-3246.176-105.78-3246.118Z" transform="translate(105.958 3246.163)"/></g><g transform="translate(0 2.698)"><path class="d" d="M-381.958-3213.12a129.451,129.451,0,0,0-4.244,14.506c.182.021.366.035.552.038l1,.025a120.374,120.374,0,0,1,4.563-15.189C-380.738-3213.54-381.37-3213.333-381.958-3213.12Z" transform="translate(386.202 3213.74)"/></g></g><g transform="translate(5254.496 1482.433)"><path class="d" d="M-362.026-2960.2h-6.349a.381.381,0,0,1-.381-.381.381.381,0,0,1,.381-.38h6.349a.381.381,0,0,1,.381.38A.381.381,0,0,1-362.026-2960.2Z" transform="translate(368.756 2960.957)"/></g><g transform="translate(5280.278 1483.054)"><path class="d" d="M-52.171-2952.741h-6.35a.381.381,0,0,1-.381-.381.38.38,0,0,1,.381-.38h6.35a.38.38,0,0,1,.381.38A.381.381,0,0,1-52.171-2952.741Z" transform="translate(58.902 2953.503)"/></g><g transform="translate(5304.22 1473.322)"><g transform="translate(-0.653 -1.419)"><path class="g" d="M143.52-3093.961c0,1.641.283,2.971-2.713,2.971-6.674,0-8.132-.451-8.132-2.1s2.22-4.864,7.277-4.864C142.944-3097.943,143.52-3095.6,143.52-3093.961Z" transform="translate(-132.675 3097.95)"/></g></g><g transform="translate(5224.399 1493.329)"><path class="d" d="M-607.915-2808.8v-3.683c0-9.669-4.6-17.537-14.268-17.537s-14.853,7.869-14.853,17.537v3.611l-53-2.336v-1.275c0-9.67-4.6-17.538-14.269-17.538s-14.848,7.865-14.848,17.538v1.171h-11.3c.077.149.148.311.232.453,2.573,4.385,8.261,5.147,8.261,5.147h4.338a.763.763,0,0,0,.763-.763h0v-5.728c0-8.268,3.745-15.313,12.01-15.6,8.675-.308,12.536,6.633,12.536,15.241v5.333a1.525,1.525,0,0,0,1.525,1.524h55.364a.683.683,0,0,0,.684-.684h0v-.077h0v-5.727c0-8.269,3.745-15.314,12.009-15.605,8.675-.307,12.537,6.634,12.537,15.24v6.1a.763.763,0,0,0,.762.763h3.873a7.223,7.223,0,0,0,5.81-3.388S-604.21-2808.88-607.915-2808.8Z" transform="translate(730.454 2830.019)"/></g><rect class="f" width="10" height="3" rx="1" transform="translate(5280.944 1482.401)"/><path class="c" d="M5277.771,1478.932v33.346h36.5v-31.5"/></g><g transform="translate(102.36 -1730.804)"><path class="h" d="M585.863,2073.319c0-55.366-46.931-100.25-104.824-100.25s-104.823,44.883-104.823,100.25a96.9,96.9,0,0,0,.874,12.984h207.9A96.792,96.792,0,0,0,585.863,2073.319Z" transform="translate(-56 1)"/><g transform="translate(526.019 2007.996)"><path class="i" d="M622.977,2048.777a81.079,81.079,0,0,0-13.635-19.5,3.425,3.425,0,0,1,.025-4.752l.034-.035a3.421,3.421,0,0,1,4.927.026,87.908,87.908,0,0,1,14.834,21.213,3.422,3.422,0,0,1-1.67,4.636l-.045.02A3.426,3.426,0,0,1,622.977,2048.777Z" transform="translate(-608.397 -2023.459)"/></g><g transform="translate(514.924 1998.117)"><path class="i" d="M596.34,2017.409q-1.3-1.05-2.633-2.046a3.435,3.435,0,0,1-.809-4.7l.028-.041a3.413,3.413,0,0,1,4.843-.834q1.506,1.12,2.966,2.3a3.413,3.413,0,0,1,.388,4.9l-.032.036A3.434,3.434,0,0,1,596.34,2017.409Z" transform="translate(-592.305 -2009.129)"/></g><g transform="translate(360.328 1989.744)"><path class="i" d="M437.568,2014.746l-.034-.035a3.421,3.421,0,0,1,.141-4.927,88.7,88.7,0,0,1,29.493-17.62,3.421,3.421,0,0,1,4.4,2.218l.014.046a3.426,3.426,0,0,1-2.136,4.241,81.794,81.794,0,0,0-27.135,16.213A3.424,3.424,0,0,1,437.568,2014.746Z" transform="translate(-436.555 -1991.967)"/></g></g></g></svg>