<svg xmlns="http://www.w3.org/2000/svg" width="108.094" height="108.094" viewBox="0 0 108.094 108.094"><defs><style>.a{fill:#454a6c;}.b{fill:#0855c4;}</style></defs><g transform="translate(0)"><g transform="translate(0 12.921)"><path class="a" d="M-1250.931,3171.961a54.109,54.109,0,0,1-54.048-54.048A54,54,0,0,1-1286,3076.788l.453.53a53.3,53.3,0,0,0-18.735,40.595,53.411,53.411,0,0,0,53.35,53.35,53.41,53.41,0,0,0,53.349-53.35,53.2,53.2,0,0,0-14.005-36.03l.515-.472a53.9,53.9,0,0,1,14.188,36.5A54.108,54.108,0,0,1-1250.931,3171.961Z" transform="translate(1304.978 -3076.788)"/></g><g transform="translate(28.399 0)"><path class="a" d="M-1263.944,3065.344l-.332-.613a54.132,54.132,0,0,1,25.65-6.462,53.448,53.448,0,0,1,24.779,6l-.32.62a52.767,52.767,0,0,0-24.459-5.924A53.434,53.434,0,0,0-1263.944,3065.344Z" transform="translate(1264.276 -3058.269)"/></g><g transform="translate(36.091 20.166)"><path class="b" d="M-1253.249,3136.055V3094.6l40.215-7.426v41.457Zm1.744-40.006v37.91l36.727-6.781v-37.91Z" transform="translate(1253.249 -3087.172)"/></g><g transform="translate(19.227 6.784)"><path class="b" d="M-1276.548,3143.517h-.872v-64.74a10.567,10.567,0,0,1,3.017-7.568,10.572,10.572,0,0,1,7.483-3.217l63.442.014v64.732a10.661,10.661,0,0,1-10.509,10.779Zm.872-1.744H-1214a8.914,8.914,0,0,0,8.776-9.021v-63l-61.679-.013a8.834,8.834,0,0,0-6.251,2.688,8.835,8.835,0,0,0-2.523,6.324Z" transform="translate(1277.421 -3067.992)"/></g></g></svg>