<svg xmlns="http://www.w3.org/2000/svg" width="108.095" height="111.138" viewBox="0 0 108.095 111.138"><defs><style>.a{fill:#3256bf;}.b{fill:#484b6b;}.c{opacity:0.17;}</style></defs><g transform="translate(0)"><g transform="translate(0 0)"><g transform="translate(44.255 79.332)"><g transform="translate(0 0)"><rect class="a" width="37.683" height="1.744" transform="translate(0 30.166) rotate(-53.179)"/></g></g><g transform="translate(80.141 37.993)"><path class="a" d="M4435.5,1829.32l-1.079-1.372,6.318-4.969a3.571,3.571,0,0,0-4.619-5.448l-.6.5-1.123-1.333.6-.5a5.315,5.315,0,0,1,6.843,8.134Z" transform="translate(-4434.401 -1814.953)"/></g><g transform="translate(80.569 27.551)"><path class="a" d="M4435.907,1817.191l-1.078-1.371,4.18-3.287a3.587,3.587,0,0,0,.412-5.013,3.57,3.57,0,0,0-3.812-1.1l-.521-1.666a5.316,5.316,0,0,1,5.021,9.134Z" transform="translate(-4434.829 -1804.505)"/></g><g transform="translate(80.153 54.4)"><path class="a" d="M4435.515,1845.362l-1.1-1.354,5.6-4.558a3.57,3.57,0,1,0-4.5-5.543l-1.1-1.355a5.314,5.314,0,1,1,6.7,8.253Z" transform="translate(-4434.413 -1831.367)"/></g><g transform="translate(0 7.795)"><path class="b" d="M4408.27,1888.083a54.056,54.056,0,0,1-22.192-103.343l.287.637a53.353,53.353,0,1,0,48.389,2.336l.347-.6a54.05,54.05,0,0,1-26.83,100.97Z" transform="translate(-4354.222 -1784.74)"/></g><g transform="translate(50.468 29.43)"><path class="a" d="M4408.791,1814.745l-4.077-4.658,1.313-1.148,2.893,3.305,6.312-5.859,1.186,1.278Z" transform="translate(-4404.714 -1806.385)"/></g><g transform="translate(31.126)"><path class="a" d="M4427.207,1857.665h-33.238v-1.745h33.238a6.867,6.867,0,0,0,6.861-6.861v-63.515a6.867,6.867,0,0,0-6.861-6.861h-33.238a6.87,6.87,0,0,0-6.861,6.861v33.267h-1.744v-33.267a8.615,8.615,0,0,1,8.6-8.6h33.238a8.615,8.615,0,0,1,8.606,8.6v63.515A8.615,8.615,0,0,1,4427.207,1857.665Z" transform="translate(-4385.363 -1776.941)"/></g><g transform="translate(31.999 9.873)"><rect class="a" width="48.706" height="1.744"/></g><g transform="translate(35.906 68.451)"><rect class="a" width="44.798" height="1.744"/></g><g transform="translate(54.047 73.757)"><rect class="a" width="4.607" height="1.744"/></g><g transform="translate(22.177 40.999)"><path class="a" d="M4378.154,1877.908h-1.744v-29.324a3.63,3.63,0,0,1,.036-.51l2.375-16.822a6.878,6.878,0,0,1,.616-2.03l4.442-9.2a3.648,3.648,0,0,1,4.97-1.646c5.45,2.836,3.671,8.8,2.716,12l-.149.5a27.493,27.493,0,0,0-.977,4.851l-.794,7.641a1.838,1.838,0,0,0,.243,1.146c3.473,5.67,5.073,13.679,5.14,14.017l-1.711.336c-.015-.08-1.608-8.044-4.916-13.443a3.588,3.588,0,0,1-.491-2.238l.793-7.641a29.2,29.2,0,0,1,1.038-5.161l.152-.511c1.175-3.94,2-7.954-1.85-9.959a1.9,1.9,0,0,0-1.48-.117,1.88,1.88,0,0,0-1.112.976l-4.442,9.2a5.1,5.1,0,0,0-.46,1.514l-2.375,16.822a1.95,1.95,0,0,0-.018.267Z" transform="translate(-4376.41 -1817.959)"/></g><g transform="translate(47.355 57.324)"><rect class="a" width="17.78" height="1.744"/></g><g class="c" transform="translate(41.614 19.251)"><ellipse class="a" cx="14.736" cy="14.736" rx="14.736" ry="14.736"/></g></g><g transform="translate(38.619 79.573)"><rect class="a" width="1.999" height="9.578" transform="matrix(0.98, -0.197, 0.197, 0.98, 0, 0.393)"/></g><g transform="translate(54.794 4.334)"><ellipse class="a" cx="1.558" cy="1.558" rx="1.558" ry="1.558"/></g></g></svg>