<svg xmlns="http://www.w3.org/2000/svg" width="108.094" height="116.191" viewBox="0 0 108.094 116.191"><defs><style>.a,.d{fill:#3256bf;}.b{fill:#d6dff2;}.c{fill:#484b6b;}.d{stroke:#3256bf;stroke-miterlimit:10;stroke-width:2.5px;}.e{fill:#0855c4;}</style></defs><g transform="translate(0)"><g transform="translate(20.791 92.913)"><rect class="a" width="12.262" height="1.998" transform="matrix(0.223, -0.975, 0.975, 0.223, 0, 11.954)"/></g><g transform="translate(83.143 92.451)"><rect class="a" width="1.998" height="12.262" transform="translate(0 0.445) rotate(-12.865)"/></g><g transform="translate(0 0)"><g transform="translate(8.486 57.806)"><path class="a" d="M4394.809,1915.239l-1.743-.082c.3-6.453,3.768-21.515,29.347-22.034a10.125,10.125,0,0,0,6.646-2.881c1.882-1.993,2.736-4.9,2.539-8.64l1.741-.091c.223,4.246-.8,7.6-3.027,9.945a11.741,11.741,0,0,1-7.881,3.41C4399.208,1895.337,4395.155,1907.832,4394.809,1915.239Z" transform="translate(-4393.066 -1881.511)"/></g><g transform="translate(73.463 27.236)"><path class="b" d="M4458.076,1851.991c.168.619,0,14.107,0,14.107h1.66s6.081.511,6.028-8.745S4457.908,1851.374,4458.076,1851.991Z" transform="translate(-4458.074 -1850.926)"/></g><g transform="translate(63.812 57.806)"><path class="a" d="M4486.142,1910.189c-1.993-6.783-8.261-14.948-26.8-15.323h0a11.733,11.733,0,0,1-7.862-3.41c-2.233-2.354-3.252-5.7-3.027-9.945l1.741.091c-.2,3.74.658,6.647,2.538,8.64a10.119,10.119,0,0,0,6.631,2.881c19.613.4,26.3,9.233,28.457,16.575Z" transform="translate(-4448.419 -1881.511)"/></g><g transform="translate(0 12.344)"><path class="c" d="M4438.624,1939.874a54.056,54.056,0,0,1-21.038-103.846l.272.644a53.353,53.353,0,1,0,47.547,3.005l.351-.6a54.051,54.051,0,0,1-27.132,100.8Z" transform="translate(-4384.576 -1836.028)"/></g><g transform="translate(31.769 70.264)"><path class="a" d="M4443.447,1911.923a30.046,30.046,0,0,1-27.087-17.206l1.58-.743a28.18,28.18,0,0,0,39.86,12.276l.891,1.5A29.864,29.864,0,0,1,4443.447,1911.923Z" transform="translate(-4416.36 -1893.975)"/></g><g transform="translate(35.272 29.483)"><path class="a" d="M4440.613,1885.252c-6.87,0-15.964-4.735-20.28-27.287a25.887,25.887,0,0,1-.467-4.785l1.744,0a24.178,24.178,0,0,0,.437,4.462c1.849,9.663,6.72,25.875,18.568,25.875,6.735,0,12.353-5.04,15.814-14.193l1.632.618C4454.377,1879.669,4448.018,1885.252,4440.613,1885.252Z" transform="translate(-4419.865 -1853.175)"/></g><g transform="translate(40.173 17.56)"><path class="a" d="M4425.36,1851.588l-.592-1.64c.075-.027,7.546-2.8,10.194-8.7l1.592.715C4433.6,1848.551,4425.7,1851.467,4425.36,1851.588Z" transform="translate(-4424.769 -1841.246)"/></g><g transform="translate(80.621 31.446)"><path class="d" d="M4465.236,1855.139" transform="translate(-4465.236 -1855.139)"/></g><g transform="translate(51.048 16.17)"><path class="a" d="M4458.378,1852.443a58.189,58.189,0,0,1-9.979-9.237c-3.266,5.627-12.124,6.847-12.525,6.9l-.226-1.73c.1-.013,9.551-1.322,11.737-7.081l.544-1.437.954,1.2a58.277,58.277,0,0,0,10.5,9.954Z" transform="translate(-4435.649 -1839.855)"/></g><g transform="translate(25.833)"><path class="a" d="M4462.423,1894.723l-.87-1.511a20.486,20.486,0,0,0,6.116-6.314c2.569-4.014,5.224-10.979,3.286-21.357l-.015-.153c0-.383-.607-38.268-28.26-39.942-.132-.011-11.1-.853-19.759,6.92-6.835,6.138-10.449,15.885-10.739,28.971-.01.235-.829,21.7,10.834,31.979l-1.153,1.308c-6.449-5.685-9.211-14.464-10.4-20.828a60.387,60.387,0,0,1-1.031-12.517c.3-13.579,4.114-23.757,11.336-30.229a29.962,29.962,0,0,1,21.033-7.342c12.127.734,21.154,8.214,26.087,21.626a66.062,66.062,0,0,1,3.791,19.965c2.026,10.95-.835,18.346-3.6,22.625A21.779,21.779,0,0,1,4462.423,1894.723Z" transform="translate(-4410.421 -1823.678)"/></g><g transform="translate(50.576 47.439)"><path class="a" d="M4441.284,1874.947a10.2,10.2,0,0,1-6.108-2.517l1.173-1.29-.587.646.586-.646c.024.023,2.493,2.215,5.238,2.056a5.217,5.217,0,0,0,3.651-1.98l1.318,1.141a6.889,6.889,0,0,1-4.875,2.58C4441.549,1874.944,4441.415,1874.947,4441.284,1874.947Z" transform="translate(-4435.176 -1871.139)"/></g><g transform="translate(60.591 30.263)"><path class="a" d="M4452.055,1857.247c-.015-.016-1.556-1.658-3.208-1.544a3.032,3.032,0,0,0-2.24,1.464l-1.411-1.027a4.715,4.715,0,0,1,3.556-2.179c2.484-.146,4.5,2.009,4.583,2.1l-1.281,1.184.64-.593Z" transform="translate(-4445.196 -1853.955)"/></g><g transform="translate(42.681 30.263)"><path class="a" d="M4434.136,1857.247c-.015-.016-1.554-1.658-3.208-1.544a3.033,3.033,0,0,0-2.24,1.464l-1.411-1.027a4.715,4.715,0,0,1,3.556-2.179c2.478-.146,4.5,2.009,4.583,2.1l-1.281,1.184.64-.593Z" transform="translate(-4427.278 -1853.955)"/></g><g transform="translate(55.048 34.716)"><g transform="translate(0 0)"><rect class="a" width="8.436" height="1.744" transform="translate(0 8.42) rotate(-86.445)"/></g></g><g transform="translate(72.607 26.566)"><path class="a" d="M4459.659,1867.138a5.541,5.541,0,0,1-1.86-.329l-.581-.206v-15.811l.581-.206a5.561,5.561,0,0,1,1.86-.33c3.735,0,6.772,3.787,6.772,8.441S4463.395,1867.138,4459.659,1867.138Zm-.7-1.813a3.567,3.567,0,0,0,.7.07c2.772,0,5.028-3,5.028-6.7s-2.257-6.7-5.028-6.7a3.558,3.558,0,0,0-.7.071Z" transform="translate(-4457.218 -1850.256)"/></g><g transform="translate(64.216 42.732)"><path class="a" d="M4450.282,1874.42a9.5,9.5,0,0,1-1.458-.113l.267-1.723a7.681,7.681,0,0,0,1.192.093c3.822,0,6.932-2.8,6.932-6.247h1.745C4458.957,1870.834,4455.065,1874.42,4450.282,1874.42Z" transform="translate(-4448.823 -1866.43)"/></g></g><g transform="translate(57.856 88.213)"><rect class="e" width="1.999" height="15.065"/></g><g transform="translate(36.594 78.92)"><path class="e" d="M4433.379,1918.691a12.2,12.2,0,0,1-11.566-16.056l1.9.635a10.2,10.2,0,0,0,18.646,8.066l1.759.951A12.191,12.191,0,0,1,4433.379,1918.691Z" transform="translate(-4421.188 -1902.635)"/></g><g transform="translate(57.777 79.806)"><path class="e" d="M4453.888,1920.461a12.209,12.209,0,0,1-11.507-8.154l1.886-.663a10.2,10.2,0,1,0,19.013-7.343l1.841-.78a12.2,12.2,0,0,1-11.233,16.939Z" transform="translate(-4442.381 -1903.522)"/></g><g transform="translate(62.804 7.084)"><rect class="a" width="12.41" height="1.998" transform="matrix(0.033, -0.999, 0.999, 0.033, 0, 12.403)"/></g></g></svg>