<svg xmlns="http://www.w3.org/2000/svg" width="108.094" height="130.658" viewBox="0 0 108.094 130.658"><defs><style>.a{fill:#3256bf;}.b{fill:#484b6b;}.c{opacity:0.17;}</style></defs><g transform="translate(0 0)"><g transform="translate(41.045 2.102)"><g transform="translate(0 0)"><rect class="a" width="1.744" height="13.025" transform="translate(0 0.734) rotate(-24.879)"/></g></g><g transform="translate(57.371 0)"><g transform="translate(0 0)"><rect class="a" width="1.744" height="13.025" transform="matrix(1, -0.011, 0.011, 1, 0, 0.02)"/></g></g><g transform="translate(68.619 4.794)"><g transform="translate(0 0)"><rect class="a" width="13.025" height="1.744" transform="matrix(0.561, -0.828, 0.828, 0.561, 0, 10.782)"/></g></g><g transform="translate(65.033 40.48)"><path class="a" d="M4795.9,1893.059a5.241,5.241,0,0,0-2.366-1.435,11.509,11.509,0,0,0-1.634-.294c-.184-.025-.371-.049-.559-.077-2.975-.437-5.089-1.553-6.281-3.319a5.916,5.916,0,0,1-.958-4l1.73.216a4.159,4.159,0,0,0,.672,2.8c1.13,1.672,3.392,2.321,5.089,2.57.177.027.357.051.535.073a12.963,12.963,0,0,1,1.883.347,6.989,6.989,0,0,1,3.153,1.912Z" transform="translate(-4784.06 -1883.935)"/></g><g transform="translate(43.362 40.167)"><path class="a" d="M4762.7,1891.612h-.327l.019-1.744a28.042,28.042,0,0,0,6.389-.651,9.816,9.816,0,0,0,3.349-1.245,11.865,11.865,0,0,0,3.417-4.35l1.523.85a13.194,13.194,0,0,1-3.977,4.953,11.4,11.4,0,0,1-3.942,1.5A30.4,30.4,0,0,1,4762.7,1891.612Z" transform="translate(-4762.378 -1883.622)"/></g><g transform="translate(29.028 38.09)"><path class="a" d="M4754.405,1928.571a6.517,6.517,0,0,1-4.408-1.443c-1.533-1.352-2.172-3.563-1.9-6.575l3.032-31.374a8.785,8.785,0,0,1,8.836-7.635l.192.021.2.045a76.835,76.835,0,0,0,33.667-.045l.194-.022a8.812,8.812,0,0,1,8.818,7.5l3.575,26.872-1.729.23-3.574-26.872a7.057,7.057,0,0,0-7-5.977,78.584,78.584,0,0,1-34.339.023l-.1-.023a7.033,7.033,0,0,0-7.006,6.075l-3.03,31.35c-.216,2.421.227,4.14,1.32,5.1,1.552,1.367,4.228,1.041,5.685.721l.371,1.705A13.312,13.312,0,0,1,4754.405,1928.571Z" transform="translate(-4748.037 -1881.543)"/></g><g transform="translate(6.47 85.778)"><path class="a" d="M4750.792,1969.3l-1.228-1.239,15.751-15.586a4.205,4.205,0,0,0-.208-5.822l-15.068-14.482a4.19,4.19,0,0,0-5.749-.05l-17.715,14.576-1.108-1.346,17.675-14.542a5.922,5.922,0,0,1,8.107.1l15.066,14.482a5.966,5.966,0,0,1,.255,8.291Z" transform="translate(-4725.468 -1929.255)"/></g><g transform="translate(31.169 78.315)"><path class="a" d="M4792.659,1932.416h-6v-1.744h6a3.57,3.57,0,1,0,0-7.14h-24.11a13.246,13.246,0,0,0-7.226,2.136l-10.2,6.608-.948-1.463,10.194-6.608a15,15,0,0,1,8.174-2.417h24.111a5.314,5.314,0,1,1,0,10.628Z" transform="translate(-4750.179 -1921.788)"/></g><g transform="translate(46.06 70.902)"><path class="a" d="M4766.383,1946.6l-1.306-1.156,3.4-3.847h17.764a16.459,16.459,0,0,0,11.644-4.785l13.776-13.628a4.129,4.129,0,0,0-2.9-7.065h-.008a4.1,4.1,0,0,0-2.945,1.244l-8.071,8.259-1.248-1.219,8.071-8.259a5.831,5.831,0,0,1,4.19-1.769h.01a5.875,5.875,0,0,1,4.131,10.051l-13.777,13.629a18.185,18.185,0,0,1-12.869,5.289h-16.977Z" transform="translate(-4765.077 -1914.371)"/></g><g transform="translate(0 26.812)"><path class="b" d="M4773.042,1974.106A54.056,54.056,0,0,1,4752,1870.26l.272.644a53.353,53.353,0,1,0,47.4,2.922l.349-.6a54.051,54.051,0,0,1-26.986,100.881Z" transform="translate(-4718.995 -1870.26)"/></g><g transform="translate(32.1 19.495)"><path class="a" d="M4761.815,1883.807l-10.7-12,.3-.542c1.812-3.243,5.15-4.968,9.66-4.986a20.534,20.534,0,0,1,5.64.769c2.984-2.842,6.14-4.209,9.379-4.1a12.957,12.957,0,0,1,8.257,3.806,17.589,17.589,0,0,1,13.014.271,16.035,16.035,0,0,1,5.061,3.352l.5.538-9.783,12.839-1.388-1.058,8.864-11.632c-1.736-1.524-7.587-5.746-16.193-2.48l-.572.217-.4-.463a11.544,11.544,0,0,0-7.441-3.647c-2.858-.118-5.706,1.226-8.438,3.95l-.38.379-.51-.169c-.1-.031-9.562-3.062-13.426,2.735l9.862,11.06Z" transform="translate(-4751.111 -1862.94)"/></g><g class="c" transform="translate(45.382 49.004)"><ellipse class="a" cx="14.458" cy="14.458" rx="14.458" ry="14.458"/></g><g transform="translate(50.938 56.05)"><path class="a" d="M4769.957,1909.875a1.247,1.247,0,0,1,.9-1.046,4.469,4.469,0,0,0,3.711,1.884c1.713,0,2.684-.7,2.684-1.923,0-1.389-1.446-1.713-3.083-2.093-1.9-.439-3.883-1.1-3.883-3.6,0-2.1,1.809-3.579,4.436-3.579a5.576,5.576,0,0,1,3.482,1.01,1.631,1.631,0,0,1,.743,1.18,1.3,1.3,0,0,1-.914,1.085,4.034,4.034,0,0,0-3.294-1.656c-1.542,0-2.551.741-2.551,1.884,0,1.351,1.2,1.562,2.913,1.96,2.1.477,4.112,1.3,4.112,3.674,0,2.265-1.751,3.673-4.625,3.673a5.884,5.884,0,0,1-4-1.275A1.74,1.74,0,0,1,4769.957,1909.875Z" transform="translate(-4769.957 -1899.512)"/><g transform="translate(10.011 0.121)"><path class="a" d="M4779.973,1915.053a3,3,0,0,1,.153-.761l4.53-14.581a.737.737,0,0,1,.381-.076c.4,0,1.046.1,1.046.875a3.061,3.061,0,0,1-.151.762l-4.511,14.581c0,.038-.19.076-.38.076C4780.621,1915.927,4779.973,1915.813,4779.973,1915.053Z" transform="translate(-4779.973 -1899.633)"/></g></g><g transform="translate(19.681 91.98)"><rect class="a" width="1.998" height="19.429" transform="matrix(0.727, -0.687, 0.687, 0.727, 0, 1.372)"/></g><g transform="translate(46.793 23.178)"><rect class="a" width="1.999" height="15.076" transform="translate(0 0.842) rotate(-24.899)"/></g><g transform="translate(63.015 23.155)"><rect class="a" width="8.765" height="1.999" transform="matrix(0.152, -0.988, 0.988, 0.152, 0, 8.662)"/></g><g transform="translate(57.287 86.854)"><rect class="a" width="7.746" height="1.999"/></g></g></svg>