<svg xmlns="http://www.w3.org/2000/svg" width="316" height="49" viewBox="0 0 316 49"><defs><style>.a{fill:#fff;}.b{fill:#8f93af;}.c{isolation:isolate;}.d{fill:#383c58;}.e{fill:#0855c4;}</style></defs><g transform="translate(-279.87 -512.953)"><rect class="a" width="316" height="49" transform="translate(279.87 512.953)"/><rect class="a" width="89" height="31" transform="translate(279.87 512.953)"/><path class="b" d="M368.87,543.953h-89v-31h89Zm-88-1h87v-29h-87Z"/><rect class="a" width="89" height="31" transform="translate(395.87 512.953)"/><path class="b" d="M484.87,543.953h-89v-31h89Zm-88-1h87v-29h-87Z"/><rect class="a" width="89" height="31" transform="translate(506.87 512.953)"/><path class="b" d="M595.87,543.953h-89v-31h89Zm-88-1h87v-29h-87Z"/><g class="c"><g class="c"><path class="d" d="M298.624,557.134v-6.7c0-.61.3-.948.832-.948h.234a1.061,1.061,0,0,1,.975.546l3.627,5.005v-4.68c0-.572.26-.871.819-.871h.182c.52,0,.793.3.793.871v6.7c0,.624-.312.949-.819.949h-.156a.931.931,0,0,1-.91-.481l-3.77-5.187v4.8a.76.76,0,0,1-.832.871h-.182C298.884,558.005,298.624,557.706,298.624,557.134Z"/><path class="d" d="M310.6,551.466a3.335,3.335,0,1,1-3.393,3.315A3.193,3.193,0,0,1,310.6,551.466Zm-.014,1.43a1.9,1.9,0,1,0,1.755,1.911A1.768,1.768,0,0,0,310.583,552.9Z"/><path class="d" d="M320.958,554.17h.208a.8.8,0,0,0-.013-.182,1.123,1.123,0,0,0-1.287-1.144,1.588,1.588,0,0,0-1.56.923c-.014.026-1.183.117-1.183-.728a1.159,1.159,0,0,1,.389-.832,3.419,3.419,0,0,1,2.47-.741c2.016,0,2.991.923,2.991,2.626v3.744c0,.091-.338.208-.689.208a.947.947,0,0,1-.962-.61,2.64,2.64,0,0,1-.1-.43,2.536,2.536,0,0,1-2.2,1.092c-1.327,0-2.133-.728-2.133-1.82C316.888,554.859,318.267,554.209,320.958,554.17Zm.208.923h-.352c-1.442.052-2.21.325-2.21,1.04,0,.481.377.78.988.78a1.431,1.431,0,0,0,1.574-1.365Z"/><path class="d" d="M331.084,554.781c0,1.976-1.2,3.354-2.938,3.354a2.246,2.246,0,0,1-2.028-1.156V559.6c0,.664-.338.884-.806.884h-.2c-.494,0-.832-.208-.832-.884v-7.852c0-.065.325-.208.7-.208a1.027,1.027,0,0,1,1.054.884c.012.051.025.182.038.286a2.225,2.225,0,0,1,2.08-1.248C329.875,551.466,331.084,552.753,331.084,554.781Zm-1.754.013a1.673,1.673,0,0,0-3.212-.819v1.2a1.505,1.505,0,0,0,1.573,1.495A1.669,1.669,0,0,0,329.33,554.794Z"/><path class="d" d="M332.176,557.134v-8.008a1.016,1.016,0,0,1,.689-.208c.546,0,1.144.286,1.144,1.469v6.747c0,.663-.338.871-.806.871h-.2C332.527,558.005,332.176,557.811,332.176,557.134Z"/><path class="d" d="M336.4,548.71a.951.951,0,1,1-1.027.949A.917.917,0,0,1,336.4,548.71Zm-.923,3.718c0-.663.351-.884.819-.884h.2c.481,0,.819.208.819.884v4.706c0,.663-.338.871-.819.871h-.182c-.494,0-.832-.194-.832-.871Z"/><path class="d" d="M341.718,551.466a3.214,3.214,0,0,1,2.08.637,1.53,1.53,0,0,1,.624,1.092c0,.741-.988.884-1.027.806a1.563,1.563,0,0,0-1.6-1.053,1.858,1.858,0,0,0,0,3.705,1.586,1.586,0,0,0,1.6-1.053c.039-.078,1.027.026,1.027.819a1.466,1.466,0,0,1-.637,1.066,3.146,3.146,0,0,1-2.067.65,3.335,3.335,0,0,1,0-6.669Z"/><path class="d" d="M349.154,554.17h.208a.8.8,0,0,0-.013-.182,1.122,1.122,0,0,0-1.287-1.144,1.589,1.589,0,0,0-1.56.923c-.013.026-1.183.117-1.183-.728a1.163,1.163,0,0,1,.389-.832,3.424,3.424,0,0,1,2.471-.741c2.015,0,2.99.923,2.99,2.626v3.744c0,.091-.338.208-.689.208a.947.947,0,0,1-.962-.61,2.64,2.64,0,0,1-.1-.43,2.535,2.535,0,0,1-2.2,1.092c-1.326,0-2.133-.728-2.133-1.82C345.084,554.859,346.463,554.209,349.154,554.17Zm.208.923h-.351c-1.443.052-2.21.325-2.21,1.04,0,.481.377.78.988.78a1.43,1.43,0,0,0,1.573-1.365Z"/></g></g><g class="c"><g class="c"><path class="d" d="M401.9,558.5a1.659,1.659,0,0,1-.844-1.287.948.948,0,0,1,1.131-.91,2,2,0,0,0,2.08,1.339c1.014,0,1.651-.454,1.651-1.2,0-.767-.507-1.157-1.495-1.157h-.442c-.637,0-.884-.234-.884-.65v-.1c0-.455.286-.65.858-.65h.624c.78,0,1.2-.377,1.2-.988,0-.65-.572-1.053-1.534-1.053a1.848,1.848,0,0,0-1.872,1.209.935.935,0,0,1-1.1-.9,1.55,1.55,0,0,1,.819-1.222,4.049,4.049,0,0,1,2.2-.573c2.119,0,3.3.832,3.3,2.315a1.764,1.764,0,0,1-1.469,1.755,2.165,2.165,0,0,1,1.638,2.132c0,1.626-1.261,2.574-3.471,2.574A4.186,4.186,0,0,1,401.9,558.5Z"/><path class="d" d="M410.243,553.077c-.026-.1.455-.546,1-.546.442,0,.806.208,1.04.948l1.274,3.732,1.326-3.732c.234-.74.611-.948,1-.948.559,0,1.027.442.988.546L414.6,558.55a1.032,1.032,0,0,1-1.027.481c-.429,0-.871-.091-1.027-.468Z"/><path class="d" d="M420.487,552.466a3.02,3.02,0,0,1,3.159,3.172v.117c-.013.312-.1.481-.442.481H418.81l.039.208a1.761,1.761,0,0,0,1.82,1.365,1.891,1.891,0,0,0,1.781-.923c.013-.026.9.052.9.78a1.238,1.238,0,0,1-.7.988,3.883,3.883,0,0,1-2.028.481,3.151,3.151,0,0,1-3.419-3.3A3.224,3.224,0,0,1,420.487,552.466Zm-.013,1.261a1.641,1.641,0,0,0-1.638,1.508h3.12A1.441,1.441,0,0,0,420.474,553.727Z"/><path class="d" d="M427.663,552.466a3.216,3.216,0,0,1,2.08.637,1.533,1.533,0,0,1,.624,1.092c0,.741-.989.884-1.028.806a1.561,1.561,0,0,0-1.6-1.053,1.858,1.858,0,0,0,0,3.705,1.583,1.583,0,0,0,1.6-1.053c.039-.078,1.028.026,1.028.819a1.467,1.467,0,0,1-.638,1.066,3.141,3.141,0,0,1-2.066.65,3.335,3.335,0,0,1,0-6.669Z"/><path class="d" d="M434.319,552.466a3.02,3.02,0,0,1,3.159,3.172v.117c-.013.312-.1.481-.442.481h-4.394l.039.208a1.759,1.759,0,0,0,1.819,1.365,1.892,1.892,0,0,0,1.782-.923c.013-.026.9.052.9.78a1.238,1.238,0,0,1-.7.988,3.883,3.883,0,0,1-2.028.481,3.15,3.15,0,0,1-3.419-3.3A3.224,3.224,0,0,1,434.319,552.466Zm-.013,1.261a1.642,1.642,0,0,0-1.639,1.508h3.121A1.441,1.441,0,0,0,434.306,553.727Z"/><path class="d" d="M438.088,557.705a.806.806,0,0,1,.559-.728,2.777,2.777,0,0,0,2.094.858c.715,0,1.105-.247,1.105-.649,0-.495-.508-.586-1.352-.768-.871-.182-2.223-.468-2.223-1.9,0-1.235,1-2.054,2.639-2.054a2.782,2.782,0,0,1,2.4.845.936.936,0,0,1,.157.52.91.91,0,0,1-.585.767,2.52,2.52,0,0,0-1.86-.858c-.7,0-1.078.26-1.078.663,0,.455.493.546,1.351.741.9.2,2.327.481,2.327,1.911,0,1.274-1.013,2.041-2.794,2.041a4.181,4.181,0,0,1-2.185-.481A1.109,1.109,0,0,1,438.088,557.705Z"/><path class="d" d="M450.646,555.17h.208a.8.8,0,0,0-.013-.182,1.122,1.122,0,0,0-1.286-1.144,1.588,1.588,0,0,0-1.56.923c-.014.026-1.183.117-1.183-.728a1.157,1.157,0,0,1,.39-.832,3.416,3.416,0,0,1,2.469-.741c2.016,0,2.991.923,2.991,2.626v3.744c0,.091-.338.208-.689.208a.947.947,0,0,1-.962-.61,2.64,2.64,0,0,1-.1-.43,2.537,2.537,0,0,1-2.2,1.092c-1.326,0-2.131-.728-2.131-1.82C446.578,555.859,447.956,555.209,450.646,555.17Zm.208.923H450.5c-1.442.052-2.21.325-2.21,1.04,0,.481.377.78.989.78a1.43,1.43,0,0,0,1.572-1.365Z"/><path class="d" d="M454.013,558.134v-8.008a1.016,1.016,0,0,1,.689-.208c.546,0,1.144.286,1.144,1.469v6.747c0,.663-.338.871-.806.871h-.2C454.364,559.005,454.013,558.811,454.013,558.134Z"/><path class="d" d="M463.23,555.17h.208a.8.8,0,0,0-.013-.182,1.122,1.122,0,0,0-1.286-1.144,1.588,1.588,0,0,0-1.56.923c-.014.026-1.183.117-1.183-.728a1.157,1.157,0,0,1,.39-.832,3.416,3.416,0,0,1,2.469-.741c2.016,0,2.991.923,2.991,2.626v3.744c0,.091-.338.208-.689.208a.947.947,0,0,1-.962-.61,2.64,2.64,0,0,1-.1-.43,2.537,2.537,0,0,1-2.2,1.092c-1.326,0-2.131-.728-2.131-1.82C459.162,555.859,460.54,555.209,463.23,555.17Zm.208.923h-.351c-1.442.052-2.21.325-2.21,1.04,0,.481.377.78.989.78a1.43,1.43,0,0,0,1.572-1.365Z"/><path class="d" d="M472.786,555.079v3.055c0,.663-.351.871-.82.871h-.2c-.48,0-.819-.194-.819-.871v-2.769c0-.845-.429-1.365-1.17-1.365a1.533,1.533,0,0,0-1.391.832v3.3c0,.663-.338.871-.806.871h-.195c-.494,0-.832-.194-.832-.871v-5.382c0-.065.325-.208.689-.208a1.052,1.052,0,0,1,1.092,1.066,2.407,2.407,0,0,1,2.093-1.144C472.083,552.466,472.786,553.636,472.786,555.079Zm-5.1-3.614a.666.666,0,0,1-.2-.507,1.278,1.278,0,0,1,1.209-1.365,1.82,1.82,0,0,1,.858.26,3.491,3.491,0,0,1,.858.7c.143-.455.468-.91.806-.91a.68.68,0,0,1,.455.168.658.658,0,0,1,.2.521,1.275,1.275,0,0,1-1.208,1.352,1.606,1.606,0,0,1-.885-.273,3.676,3.676,0,0,1-.832-.7c-.156.455-.455.91-.806.91A.672.672,0,0,1,467.689,551.465Z"/><path class="d" d="M477.166,552.466a3.335,3.335,0,1,1-3.393,3.315A3.194,3.194,0,0,1,477.166,552.466Zm-.013,1.43a1.9,1.9,0,1,0,1.755,1.911A1.768,1.768,0,0,0,477.153,553.9Z"/></g></g><g class="c"><g class="c"><path class="d" d="M526.728,551.361c0-.586.286-.871.819-.871h.26a.758.758,0,0,1,.845.871v6.773a.764.764,0,0,1-.845.871h-.26c-.533,0-.819-.3-.819-.871Z"/><path class="d" d="M530.238,558.134v-8.008a1.017,1.017,0,0,1,.689-.208c.546,0,1.144.286,1.144,1.469v6.747c0,.663-.338.871-.806.871h-.2C530.589,559.005,530.238,558.811,530.238,558.134Z"/><path class="d" d="M534.462,549.71a.951.951,0,1,1-1.026.949A.917.917,0,0,1,534.462,549.71Zm-.922,3.718c0-.663.351-.884.818-.884h.2c.481,0,.819.208.819.884v4.706c0,.663-.338.871-.819.871h-.182c-.495,0-.832-.194-.832-.871Z"/><path class="d" d="M546.982,554.988v3.146c0,.663-.338.871-.806.871h-.2c-.494,0-.832-.194-.832-.871v-2.86c0-.832-.364-1.274-1.1-1.274a1.477,1.477,0,0,0-1.248.78v3.354c0,.663-.338.871-.806.871h-.2c-.481,0-.832-.194-.832-.871v-2.821c0-.871-.364-1.313-1.092-1.313a1.477,1.477,0,0,0-1.248.78v3.354c0,.663-.338.871-.806.871h-.2c-.495,0-.832-.194-.832-.871v-5.382c0-.065.325-.208.689-.208.455,0,.949.2,1.092,1.04a2.279,2.279,0,0,1,1.963-1.118,2.007,2.007,0,0,1,2.028,1.3,2.37,2.37,0,0,1,2.132-1.3C546.306,552.466,546.982,553.493,546.982,554.988Z"/><path class="d" d="M549.256,549.71a.951.951,0,1,1-1.027.949A.917.917,0,0,1,549.256,549.71Zm-.923,3.718c0-.663.352-.884.819-.884h.2c.481,0,.819.208.819.884v4.706c0,.663-.338.871-.819.871h-.182c-.495,0-.833-.194-.833-.871Z"/><path class="d" d="M552.142,556.951v-2.912h-.325c-.52,0-.754-.234-.754-.65v-.1c0-.43.234-.676.741-.676h.338V551.8c0-.6.3-.884.819-.884h.169c.481,0,.806.208.806.884v.806h1.105c.52,0,.741.221.741.637v.117c0,.442-.234.676-.754.676H553.91v2.7c0,.624.2.936.7.936a.931.931,0,0,0,.793-.429.72.72,0,0,1,.455.715.929.929,0,0,1-.312.7,1.9,1.9,0,0,1-1.365.468C552.792,559.135,552.142,558.4,552.142,556.951Z"/><path class="d" d="M560.514,555.17h.208a.8.8,0,0,0-.013-.182,1.122,1.122,0,0,0-1.287-1.144,1.589,1.589,0,0,0-1.56.923c-.013.026-1.183.117-1.183-.728a1.161,1.161,0,0,1,.39-.832,3.419,3.419,0,0,1,2.47-.741c2.015,0,2.99.923,2.99,2.626v3.744c0,.091-.338.208-.689.208a.947.947,0,0,1-.962-.61,2.64,2.64,0,0,1-.1-.43,2.535,2.535,0,0,1-2.2,1.092c-1.326,0-2.132-.728-2.132-1.82C556.445,555.859,557.823,555.209,560.514,555.17Zm.208.923h-.351c-1.443.052-2.21.325-2.21,1.04,0,.481.377.78.988.78a1.43,1.43,0,0,0,1.573-1.365Z"/><path class="d" d="M563.517,555.794c0-2.015,1.2-3.328,2.951-3.328a2.379,2.379,0,0,1,2,.962v-3.3a1.017,1.017,0,0,1,.689-.208c.546,0,1.144.286,1.144,1.469v6.747c0,.663-.325.871-.806.871h-.182c-.416,0-.728-.143-.793-.637-.013-.143-.026-.286-.026-.442a2.3,2.3,0,0,1-2.067,1.209C564.713,559.135,563.517,557.783,563.517,555.794Zm4.966-.845a1.609,1.609,0,0,0-1.573-1.014,1.653,1.653,0,0,0-1.651,1.859,1.688,1.688,0,0,0,1.625,1.872,1.525,1.525,0,0,0,1.6-1.521Z"/><path class="d" d="M574.762,552.466a3.335,3.335,0,1,1-3.393,3.315A3.194,3.194,0,0,1,574.762,552.466Zm-.013,1.43a1.9,1.9,0,1,0,1.755,1.911A1.768,1.768,0,0,0,574.749,553.9Z"/></g></g><g class="c"><g class="c"><path class="e" d="M302.682,531.8v-6.766a1.021,1.021,0,0,1,1.079-1.148h3.081c2.045,0,3.152.812,3.152,2.325a1.891,1.891,0,0,1-1.611,1.919,2.221,2.221,0,0,1,1.961,2.241c0,1.751-1.12,2.577-3.67,2.577h-2.913A1.021,1.021,0,0,1,302.682,531.8Zm3.712-4.049c.953,0,1.5-.462,1.5-1.218s-.5-1.149-1.5-1.149h-1.681v2.367Zm.112,3.7c1.233,0,1.737-.364,1.737-1.274,0-.826-.546-1.219-1.737-1.219h-1.793v2.493Z"/><path class="e" d="M315.55,528.877h.224a.862.862,0,0,0-.014-.2,1.209,1.209,0,0,0-1.386-1.233,1.716,1.716,0,0,0-1.682.994c-.014.029-1.274.126-1.274-.784a1.25,1.25,0,0,1,.42-.9,3.681,3.681,0,0,1,2.662-.8c2.17,0,3.221.995,3.221,2.83v4.034c0,.1-.364.224-.742.224a1.021,1.021,0,0,1-1.037-.658,2.825,2.825,0,0,1-.112-.462,2.732,2.732,0,0,1-2.367,1.176c-1.429,0-2.3-.784-2.3-1.961C311.166,529.619,312.65,528.919,315.55,528.877Zm.224.994H315.4c-1.555.057-2.381.351-2.381,1.121,0,.519.406.84,1.064.84a1.541,1.541,0,0,0,1.695-1.471Zm-2.465-4.8c0-.433.952-2.394,2.115-2.394a.771.771,0,0,1,.8.826c0,1.065-2.045,1.765-2.633,1.765C313.407,525.263,313.309,525.221,313.309,525.066Z"/><path class="e" d="M318.683,531.608a.868.868,0,0,1,.6-.784,2.987,2.987,0,0,0,2.255.924c.77,0,1.19-.266,1.19-.7,0-.532-.546-.63-1.456-.826-.939-.2-2.4-.5-2.4-2.045,0-1.331,1.079-2.214,2.844-2.214a3,3,0,0,1,2.591.911,1.01,1.01,0,0,1,.168.561.982.982,0,0,1-.63.826,2.716,2.716,0,0,0-2-.925c-.756,0-1.162.28-1.162.715,0,.49.532.588,1.456.8.967.21,2.507.518,2.507,2.059,0,1.373-1.092,2.2-3.011,2.2a4.5,4.5,0,0,1-2.353-.518A1.194,1.194,0,0,1,318.683,531.608Z"/><path class="e" d="M326.832,522.994a1.026,1.026,0,1,1-1.106,1.023A.988.988,0,0,1,326.832,522.994ZM325.837,527c0-.715.379-.952.883-.952h.21c.519,0,.882.223.882.952v5.07c0,.715-.363.939-.882.939h-.2c-.532,0-.9-.21-.9-.939Z"/><path class="e" d="M332.56,525.963a3.466,3.466,0,0,1,2.241.686,1.651,1.651,0,0,1,.672,1.177c0,.8-1.065.953-1.107.869a1.683,1.683,0,0,0-1.722-1.134,2,2,0,0,0,0,3.992,1.708,1.708,0,0,0,1.722-1.135c.042-.084,1.107.027,1.107.882a1.58,1.58,0,0,1-.686,1.149,3.4,3.4,0,0,1-2.227.7,3.593,3.593,0,0,1,0-7.186Z"/><path class="e" d="M339.839,525.963a3.593,3.593,0,1,1-3.656,3.572A3.441,3.441,0,0,1,339.839,525.963Zm-.014,1.541a2.052,2.052,0,1,0,1.891,2.059A1.9,1.9,0,0,0,339.825,527.5Z"/></g></g><g class="c"><g class="c"><path class="e" d="M405.661,524.949c0-.54.264-.8.756-.8h.24a.7.7,0,0,1,.779.8V531.2a.7.7,0,0,1-.779.8h-.24c-.492,0-.756-.275-.756-.8Z"/><path class="e" d="M408.925,531.2v-6.176c0-.564.276-.875.768-.875h.216a.98.98,0,0,1,.9.5l3.346,4.618v-4.318c0-.528.24-.8.756-.8h.168c.48,0,.731.275.731.8v6.177c0,.575-.288.875-.755.875h-.144a.86.86,0,0,1-.84-.443l-3.478-4.787V531.2a.7.7,0,0,1-.767.8h-.168C409.165,532,408.925,531.726,408.925,531.2Z"/><path class="e" d="M419.256,525.74h-1.751c-.528,0-.816-.263-.816-.755v-.06c0-.48.288-.732.816-.732h5.241c.54,0,.816.252.816.732v.06c0,.492-.276.755-.816.755h-1.715V531.2a.718.718,0,0,1-.792.8h-.252c-.479,0-.731-.275-.731-.8Z"/><path class="e" d="M424.441,530.981v-5.8a.875.875,0,0,1,.924-.984h4.317c.552,0,.816.241.816.708v.06c0,.479-.264.708-.816.708H426.2v1.643h2.543c.576,0,.815.215.815.66v.035c0,.468-.251.684-.815.684H426.2V530.5h3.538c.552,0,.8.2.8.659v.061c0,.491-.252.731-.8.731h-4.377A.866.866,0,0,1,424.441,530.981Z"/><path class="e" d="M431.593,531.029v-5.852a.875.875,0,0,1,.924-.984H434.8c2.015,0,3.047.84,3.047,2.423a2.107,2.107,0,0,1-1.643,2.195,1.978,1.978,0,0,1-.384.072l2.039,2.471c.072.084-.264.647-1.02.647-.516,0-.792-.216-1.163-.72l-1.7-2.123h-.612V531.2a.715.715,0,0,1-.779.8h-.241C431.857,532,431.593,531.653,431.593,531.029Zm3.082-3.13c.948,0,1.4-.443,1.4-1.163,0-.767-.48-1.164-1.44-1.164h-1.307V527.9Z"/><path class="e" d="M438.973,525.033a.8.8,0,0,1,.876-.887h.479a.826.826,0,0,1,.923.635l1.572,3.658,1.583-3.658c.2-.492.4-.635.9-.635h.467a.811.811,0,0,1,.9.887V531.2c0,.529-.2.8-.708.8H445.7c-.492,0-.695-.275-.695-.8v-4.629l-1.3,3.155c-.131.3-.2.551-.9.551s-.744-.252-.888-.551l-1.283-3.1V531.2c0,.529-.192.8-.7.8h-.287c-.48,0-.684-.275-.684-.8Z"/><path class="e" d="M448.069,530.981v-5.8a.875.875,0,0,1,.923-.984h4.318c.551,0,.815.241.815.708v.06c0,.479-.264.708-.815.708h-3.478v1.643h2.543c.575,0,.815.215.815.66v.035c0,.468-.252.684-.815.684h-2.543V530.5h3.538c.551,0,.8.2.8.659v.061c0,.491-.252.731-.8.731h-4.378A.866.866,0,0,1,448.069,530.981Z"/><path class="e" d="M455.221,525.177a.9.9,0,0,1,.923-.984h1.967c2.591,0,4.161,1.452,4.161,3.85s-1.606,3.91-4.221,3.91H456.2a.977.977,0,0,1-.983-.972Zm5.289,2.879a2.2,2.2,0,0,0-2.447-2.352h-1.091v4.738h1.067A2.225,2.225,0,0,0,460.51,528.056Z"/><path class="e" d="M463.5,524.949c0-.54.264-.8.756-.8h.24a.7.7,0,0,1,.779.8V531.2a.7.7,0,0,1-.779.8h-.24c-.492,0-.756-.275-.756-.8Z"/><path class="e" d="M466.489,528.079a3.887,3.887,0,0,1,4.006-4.054,4.048,4.048,0,1,1-4.006,4.054Zm6.236,0a2.268,2.268,0,0,0-2.243-2.482,2.23,2.23,0,0,0-2.231,2.47,2.249,2.249,0,1,0,4.474.012Z"/></g></g><g class="c"><g class="c"><path class="e" d="M536.682,525.039a1.021,1.021,0,0,1,1.079-1.148h4.65c.658,0,.966.265.966.812v.084c0,.56-.308.84-.966.84h-3.7V527.9h2.662c.672,0,.966.281.966.785v.056c0,.546-.308.812-.966.812h-2.592v2.508c0,.63-.308.952-.91.952h-.323c-.56,0-.868-.42-.868-1.149Z"/><path class="e" d="M544.368,524.772a.825.825,0,0,1,.9-.938h.267c.588,0,.9.309.9.938v4.357c0,1.443.616,2.185,1.835,2.185,1.247,0,1.835-.714,1.835-2.2v-4.343a.819.819,0,0,1,.9-.938h.279c.589,0,.883.309.883.938v4.357c0,2.6-1.344,3.978-3.908,3.978-2.549,0-3.88-1.344-3.88-3.964Z"/><path class="e" d="M553.706,531.818v-7.046c0-.629.308-.938.868-.938h.294c.6,0,.9.309.9.938v6.36h3.389c.631,0,.953.295.953.869v.056a.83.83,0,0,1-.953.9h-4.37A1.011,1.011,0,0,1,553.706,531.818Z"/><path class="e" d="M561.209,531.818v-7.046c0-.629.309-.938.869-.938h.294c.6,0,.9.309.9.938v6.36h3.389c.631,0,.953.295.953.869v.056a.83.83,0,0,1-.953.9h-4.37A1.011,1.011,0,0,1,561.209,531.818Z"/></g></g></g></svg>