<svg xmlns="http://www.w3.org/2000/svg" width="316" height="49" viewBox="0 0 316 49"><defs><style>.a{fill:#fff;}.b{fill:#8f93af;}.c{isolation:isolate;}.d{fill:#383c58;}.e{fill:#0855c4;}</style></defs><g transform="translate(-278.199 -121)"><rect class="a" width="316" height="49" transform="translate(278.199 121)"/><rect class="a" width="89" height="31" transform="translate(278.199 121)"/><path class="b" d="M367.2,152h-89V121h89Zm-88-1h87V122h-87Z"/><rect class="a" width="89" height="31" transform="translate(394.199 121)"/><path class="b" d="M483.2,152h-89V121h89Zm-88-1h87V122h-87Z"/><rect class="a" width="89" height="31" transform="translate(505.199 121)"/><path class="b" d="M594.2,152h-89V121h89Zm-88-1h87V122h-87Z"/><g class="c"><g class="c"><path class="d" d="M304.344,165.207V159.9a1.159,1.159,0,0,1-.754.274,1.273,1.273,0,0,1-.832-.3,1.048,1.048,0,0,1-.325-.78.919.919,0,0,1,.507-.91,1.21,1.21,0,0,0,.793.286,1.129,1.129,0,0,0,1.105-.975h.559c.546,0,.832.3.832.884v6.825a.77.77,0,0,1-.832.884h-.247C304.617,166.091,304.344,165.779,304.344,165.207Z"/><path class="d" d="M313.912,162.217h.208a.8.8,0,0,0-.013-.182,1.122,1.122,0,0,0-1.287-1.144,1.589,1.589,0,0,0-1.56.922c-.013.027-1.183.118-1.183-.727a1.163,1.163,0,0,1,.389-.832,3.422,3.422,0,0,1,2.471-.741c2.015,0,2.99.923,2.99,2.626v3.744c0,.091-.338.208-.689.208a.947.947,0,0,1-.962-.611,2.6,2.6,0,0,1-.1-.429,2.536,2.536,0,0,1-2.2,1.092c-1.327,0-2.133-.728-2.133-1.82C309.842,162.906,311.221,162.256,313.912,162.217Zm.208.923h-.351c-1.443.051-2.21.325-2.21,1.04,0,.481.377.78.987.78a1.431,1.431,0,0,0,1.574-1.365Z"/><path class="d" d="M317.279,165.181v-8.008a1.016,1.016,0,0,1,.689-.208c.546,0,1.144.286,1.144,1.469v6.747c0,.663-.338.871-.806.871h-.2C317.63,166.052,317.279,165.857,317.279,165.181Z"/><path class="d" d="M326.5,162.217h.208a.8.8,0,0,0-.013-.182,1.123,1.123,0,0,0-1.287-1.144,1.589,1.589,0,0,0-1.56.922c-.013.027-1.183.118-1.183-.727a1.163,1.163,0,0,1,.389-.832,3.42,3.42,0,0,1,2.471-.741c2.015,0,2.99.923,2.99,2.626v3.744c0,.091-.338.208-.689.208a.947.947,0,0,1-.962-.611,2.6,2.6,0,0,1-.1-.429,2.536,2.536,0,0,1-2.2,1.092c-1.327,0-2.133-.728-2.133-1.82C322.426,162.906,323.8,162.256,326.5,162.217Zm.208.923h-.351c-1.443.051-2.21.325-2.21,1.04,0,.481.377.78.987.78A1.431,1.431,0,0,0,326.7,163.6Z"/><path class="d" d="M336.05,162.126v3.055c0,.663-.35.871-.819.871h-.194c-.481,0-.82-.2-.82-.871v-2.769c0-.846-.428-1.365-1.17-1.365a1.535,1.535,0,0,0-1.391.832v3.3c0,.663-.338.871-.806.871h-.2c-.494,0-.832-.2-.832-.871V159.8c0-.066.325-.208.689-.208a1.052,1.052,0,0,1,1.092,1.066,2.4,2.4,0,0,1,2.093-1.144C335.349,159.513,336.05,160.683,336.05,162.126Zm-5.1-3.614a.663.663,0,0,1-.2-.507,1.278,1.278,0,0,1,1.209-1.365,1.834,1.834,0,0,1,.859.259,3.539,3.539,0,0,1,.858.7c.143-.456.467-.911.806-.911a.678.678,0,0,1,.454.169.657.657,0,0,1,.2.521,1.275,1.275,0,0,1-1.209,1.351,1.6,1.6,0,0,1-.885-.272,3.677,3.677,0,0,1-.832-.7c-.155.455-.455.91-.806.91A.669.669,0,0,1,330.955,158.512Z"/><path class="d" d="M340.432,159.513a3.335,3.335,0,1,1-3.393,3.315A3.193,3.193,0,0,1,340.432,159.513Zm-.014,1.429a1.9,1.9,0,1,0,1.755,1.912A1.769,1.769,0,0,0,340.418,160.942Z"/></g></g><g class="c"><g class="c"><path class="d" d="M414.641,166.025v-.4c0-1.612,1.378-2.393,2.574-2.977,1.053-.5,1.924-.832,1.924-1.56s-.507-1.118-1.417-1.118a1.779,1.779,0,0,0-1.807,1.469c0,.026-1.248.078-1.248-.884a1.871,1.871,0,0,1,.819-1.456,3.889,3.889,0,0,1,2.353-.69c2.015,0,3.159.989,3.159,2.6,0,1.559-1.157,2.119-2.379,2.652-.975.4-1.82.767-2.132,1.469a1.192,1.192,0,0,0-.117.3H420.2c.65,0,.91.26.91.715v.091c0,.494-.26.767-.91.767H415.8C414.927,167,414.641,166.8,414.641,166.025Z"/><path class="d" d="M428.031,163.217h.208a.8.8,0,0,0-.013-.182,1.122,1.122,0,0,0-1.287-1.144,1.59,1.59,0,0,0-1.56.922c-.013.027-1.183.118-1.183-.727a1.163,1.163,0,0,1,.389-.832,3.422,3.422,0,0,1,2.471-.741c2.015,0,2.99.923,2.99,2.626v3.744c0,.091-.338.208-.689.208a.947.947,0,0,1-.962-.611,2.6,2.6,0,0,1-.1-.429,2.535,2.535,0,0,1-2.2,1.092c-1.326,0-2.133-.728-2.133-1.82C423.961,163.906,425.34,163.256,428.031,163.217Zm.208.923h-.351c-1.443.051-2.21.325-2.21,1.04,0,.481.377.78.988.78a1.43,1.43,0,0,0,1.573-1.365Z"/><path class="d" d="M431.4,166.181v-8.008a1.019,1.019,0,0,1,.689-.208c.546,0,1.144.286,1.144,1.469v6.747c0,.663-.337.871-.806.871h-.2C431.749,167.052,431.4,166.857,431.4,166.181Z"/><path class="d" d="M440.615,163.217h.208a.8.8,0,0,0-.013-.182,1.122,1.122,0,0,0-1.287-1.144,1.592,1.592,0,0,0-1.561.922c-.012.027-1.182.118-1.182-.727a1.163,1.163,0,0,1,.389-.832,3.422,3.422,0,0,1,2.471-.741c2.015,0,2.99.923,2.99,2.626v3.744c0,.091-.338.208-.689.208a.948.948,0,0,1-.962-.611,2.6,2.6,0,0,1-.1-.429,2.537,2.537,0,0,1-2.2,1.092c-1.326,0-2.132-.728-2.132-1.82C436.545,163.906,437.923,163.256,440.615,163.217Zm.208.923h-.351c-1.443.051-2.211.325-2.211,1.04,0,.481.377.78.989.78a1.43,1.43,0,0,0,1.573-1.365Z"/><path class="d" d="M450.169,163.126v3.055c0,.663-.35.871-.818.871h-.2c-.481,0-.82-.2-.82-.871v-2.769c0-.846-.428-1.365-1.169-1.365a1.535,1.535,0,0,0-1.392.832v3.3c0,.663-.338.871-.806.871h-.194c-.494,0-.832-.2-.832-.871V160.8c0-.066.324-.208.688-.208a1.053,1.053,0,0,1,1.093,1.066,2.4,2.4,0,0,1,2.092-1.144C449.468,160.513,450.169,161.683,450.169,163.126Zm-5.1-3.614a.663.663,0,0,1-.2-.507,1.278,1.278,0,0,1,1.209-1.365,1.83,1.83,0,0,1,.859.259,3.52,3.52,0,0,1,.858.7c.143-.456.467-.911.806-.911a.676.676,0,0,1,.454.169.657.657,0,0,1,.2.521,1.274,1.274,0,0,1-1.209,1.351,1.6,1.6,0,0,1-.883-.272,3.659,3.659,0,0,1-.833-.7c-.155.455-.455.91-.805.91A.672.672,0,0,1,445.074,159.512Z"/><path class="d" d="M454.55,160.513a3.335,3.335,0,1,1-3.393,3.315A3.194,3.194,0,0,1,454.55,160.513Zm-.013,1.429a1.9,1.9,0,1,0,1.755,1.912A1.769,1.769,0,0,0,454.537,161.942Z"/></g></g><g class="c"><g class="c"><path class="d" d="M527.693,163.217v-.754c0-2.509,1.443-4.057,3.769-4.057a3.933,3.933,0,0,1,2.133.508,1.35,1.35,0,0,1,.728,1.131c0,.741-.9.884-.936.857a1.981,1.981,0,0,0-1.781-.962c-1.209,0-1.886.69-2,2a3.542,3.542,0,0,0-.026.624,3.256,3.256,0,0,1,2.275-.883c1.677,0,2.809.91,2.809,2.483v.064a3.023,3.023,0,0,1-3.329,2.952C529.032,167.182,527.693,165.609,527.693,163.217Zm5.135,1.131v-.065c0-.885-.546-1.365-1.521-1.365a2.434,2.434,0,0,0-1.69.754v.156c.091,1.222.689,1.924,1.677,1.924A1.41,1.41,0,0,0,532.828,164.348Z"/><path class="d" d="M541.655,163.217h.208a.8.8,0,0,0-.013-.182,1.122,1.122,0,0,0-1.287-1.144,1.59,1.59,0,0,0-1.56.922c-.013.027-1.183.118-1.183-.727a1.163,1.163,0,0,1,.389-.832,3.421,3.421,0,0,1,2.47-.741c2.016,0,2.99.923,2.99,2.626v3.744c0,.091-.337.208-.688.208a.947.947,0,0,1-.962-.611,2.5,2.5,0,0,1-.1-.429,2.539,2.539,0,0,1-2.2,1.092c-1.326,0-2.133-.728-2.133-1.82C537.585,163.906,538.964,163.256,541.655,163.217Zm.208.923h-.352c-1.442.051-2.209.325-2.209,1.04,0,.481.377.78.988.78a1.43,1.43,0,0,0,1.573-1.365Z"/><path class="d" d="M545.021,166.181v-8.008a1.019,1.019,0,0,1,.689-.208c.546,0,1.145.286,1.145,1.469v6.747c0,.663-.338.871-.807.871h-.195C545.373,167.052,545.021,166.857,545.021,166.181Z"/><path class="d" d="M554.239,163.217h.208a.8.8,0,0,0-.013-.182,1.122,1.122,0,0,0-1.287-1.144,1.59,1.59,0,0,0-1.56.922c-.013.027-1.183.118-1.183-.727a1.163,1.163,0,0,1,.389-.832,3.421,3.421,0,0,1,2.47-.741c2.016,0,2.99.923,2.99,2.626v3.744c0,.091-.337.208-.688.208a.947.947,0,0,1-.962-.611,2.51,2.51,0,0,1-.1-.429,2.539,2.539,0,0,1-2.2,1.092c-1.326,0-2.133-.728-2.133-1.82C550.169,163.906,551.548,163.256,554.239,163.217Zm.208.923h-.352c-1.442.051-2.209.325-2.209,1.04,0,.481.377.78.988.78a1.43,1.43,0,0,0,1.573-1.365Z"/><path class="d" d="M563.793,163.126v3.055c0,.663-.35.871-.819.871h-.194c-.482,0-.82-.2-.82-.871v-2.769c0-.846-.428-1.365-1.169-1.365a1.533,1.533,0,0,0-1.391.832v3.3c0,.663-.338.871-.807.871h-.2c-.494,0-.832-.2-.832-.871V160.8c0-.066.326-.208.689-.208a1.051,1.051,0,0,1,1.092,1.066,2.4,2.4,0,0,1,2.094-1.144C563.091,160.513,563.793,161.683,563.793,163.126Zm-5.1-3.614a.666.666,0,0,1-.2-.507,1.279,1.279,0,0,1,1.209-1.365,1.83,1.83,0,0,1,.859.259,3.5,3.5,0,0,1,.857.7c.144-.456.469-.911.807-.911a.68.68,0,0,1,.455.169.66.66,0,0,1,.195.521,1.274,1.274,0,0,1-1.209,1.351,1.6,1.6,0,0,1-.884-.272,3.681,3.681,0,0,1-.833-.7c-.156.455-.455.91-.806.91A.667.667,0,0,1,558.7,159.512Z"/><path class="d" d="M568.174,160.513a3.335,3.335,0,1,1-3.393,3.315A3.194,3.194,0,0,1,568.174,160.513Zm-.012,1.429a1.9,1.9,0,1,0,1.754,1.912A1.769,1.769,0,0,0,568.162,161.942Z"/></g></g><g class="c"><g class="c"><path class="e" d="M301.011,139.852v-6.766a1.021,1.021,0,0,1,1.079-1.148h3.081c2.045,0,3.152.812,3.152,2.325a1.891,1.891,0,0,1-1.611,1.919,2.22,2.22,0,0,1,1.961,2.241c0,1.751-1.12,2.577-3.67,2.577H302.09A1.021,1.021,0,0,1,301.011,139.852Zm3.712-4.049c.953,0,1.5-.462,1.5-1.218,0-.771-.5-1.149-1.5-1.149h-1.681V135.8Zm.112,3.7c1.233,0,1.737-.364,1.737-1.274,0-.827-.546-1.219-1.737-1.219h-1.793V139.5Z"/><path class="e" d="M313.879,136.924h.224a.861.861,0,0,0-.014-.2,1.209,1.209,0,0,0-1.386-1.233,1.716,1.716,0,0,0-1.682.994c-.014.029-1.274.126-1.274-.784a1.248,1.248,0,0,1,.42-.9,3.681,3.681,0,0,1,2.662-.8c2.171,0,3.221,1,3.221,2.83v4.034c0,.1-.364.224-.742.224a1.021,1.021,0,0,1-1.037-.659,2.811,2.811,0,0,1-.112-.461,2.732,2.732,0,0,1-2.367,1.176c-1.429,0-2.3-.784-2.3-1.961C309.495,137.666,310.979,136.966,313.879,136.924Zm.224.994h-.378c-1.555.057-2.381.351-2.381,1.121,0,.519.406.84,1.064.84a1.541,1.541,0,0,0,1.7-1.471Zm-2.465-4.8c0-.433.952-2.394,2.115-2.394a.771.771,0,0,1,.8.826c0,1.064-2.045,1.765-2.633,1.765C311.736,133.31,311.638,133.268,311.638,133.113Z"/><path class="e" d="M317.012,139.655a.869.869,0,0,1,.6-.784,2.987,2.987,0,0,0,2.255.924c.77,0,1.191-.266,1.191-.7,0-.532-.547-.63-1.457-.826-.938-.2-2.4-.5-2.4-2.045,0-1.331,1.079-2.214,2.844-2.214a3.007,3.007,0,0,1,2.592.911,1.018,1.018,0,0,1,.168.56.983.983,0,0,1-.631.827,2.711,2.711,0,0,0-2-.925c-.756,0-1.162.28-1.162.715,0,.49.532.588,1.456.8.967.209,2.507.518,2.507,2.059,0,1.373-1.092,2.2-3.011,2.2a4.5,4.5,0,0,1-2.353-.518A1.194,1.194,0,0,1,317.012,139.655Z"/><path class="e" d="M325.161,131.041a1.026,1.026,0,1,1-1.106,1.022A.988.988,0,0,1,325.161,131.041Zm-.994,4.006c0-.715.378-.952.882-.952h.21c.519,0,.883.223.883.952v5.07c0,.715-.364.939-.883.939h-.2c-.532,0-.9-.21-.9-.939Z"/><path class="e" d="M330.889,134.01a3.466,3.466,0,0,1,2.241.686,1.651,1.651,0,0,1,.672,1.177c0,.8-1.065.953-1.107.869a1.683,1.683,0,0,0-1.722-1.135,2,2,0,0,0,0,3.993,1.708,1.708,0,0,0,1.722-1.135c.042-.084,1.107.027,1.107.882a1.58,1.58,0,0,1-.686,1.149,3.4,3.4,0,0,1-2.227.7,3.593,3.593,0,0,1,0-7.186Z"/><path class="e" d="M338.168,134.01a3.593,3.593,0,1,1-3.656,3.572A3.441,3.441,0,0,1,338.168,134.01Zm-.014,1.541a2.052,2.052,0,1,0,1.891,2.059A1.9,1.9,0,0,0,338.154,135.551Z"/></g></g><g class="c"><g class="c"><path class="e" d="M403.99,133c0-.54.264-.8.756-.8h.24a.7.7,0,0,1,.779.8v6.248a.7.7,0,0,1-.779.8h-.24c-.492,0-.756-.276-.756-.8Z"/><path class="e" d="M407.254,139.244v-6.177c0-.563.276-.875.768-.875h.216a.98.98,0,0,1,.9.5l3.346,4.617V133c0-.528.24-.8.756-.8h.168c.48,0,.731.276.731.8v6.177c0,.575-.287.875-.755.875h-.144a.859.859,0,0,1-.84-.444l-3.478-4.786v4.426a.7.7,0,0,1-.767.8h-.168C407.494,140.048,407.254,139.772,407.254,139.244Z"/><path class="e" d="M417.585,133.787h-1.751c-.528,0-.816-.264-.816-.755v-.06c0-.48.288-.732.816-.732h5.241c.54,0,.816.252.816.732v.06c0,.491-.276.755-.816.755H419.36v5.457a.719.719,0,0,1-.792.8h-.252c-.479,0-.731-.276-.731-.8Z"/><path class="e" d="M422.771,139.028v-5.8a.875.875,0,0,1,.923-.984h4.317c.552,0,.816.24.816.708v.06c0,.479-.264.708-.816.708h-3.478v1.642h2.543c.576,0,.816.216.816.661v.035c0,.467-.252.684-.816.684h-2.543v1.811h3.538c.552,0,.8.2.8.659v.061c0,.491-.252.731-.8.731h-4.377A.865.865,0,0,1,422.771,139.028Z"/><path class="e" d="M429.922,139.076v-5.852a.875.875,0,0,1,.924-.984h2.279c2.014,0,3.046.84,3.046,2.423a2.1,2.1,0,0,1-1.643,2.194,1.9,1.9,0,0,1-.384.073l2.039,2.47c.072.084-.264.648-1.02.648-.516,0-.791-.216-1.163-.72l-1.7-2.123h-.612v2.039a.715.715,0,0,1-.779.8h-.24C430.186,140.048,429.922,139.7,429.922,139.076Zm3.082-3.13c.948,0,1.4-.443,1.4-1.163,0-.767-.48-1.164-1.44-1.164h-1.307v2.327Z"/><path class="e" d="M437.3,133.08a.8.8,0,0,1,.875-.888h.481c.55,0,.718.168.923.636l1.571,3.658,1.583-3.658c.2-.492.4-.636.9-.636h.469a.811.811,0,0,1,.9.888v6.164c0,.528-.2.8-.707.8h-.263c-.492,0-.7-.276-.7-.8v-4.629l-1.295,3.155c-.132.3-.205.551-.9.551s-.744-.252-.888-.551l-1.283-3.1v4.569c0,.528-.192.8-.7.8h-.287c-.481,0-.684-.276-.684-.8Z"/><path class="e" d="M446.4,139.028v-5.8a.875.875,0,0,1,.924-.984h4.316c.553,0,.817.24.817.708v.06c0,.479-.264.708-.817.708h-3.477v1.642H450.7c.575,0,.815.216.815.661v.035c0,.467-.252.684-.815.684h-2.543v1.811H451.7c.551,0,.8.2.8.659v.061c0,.491-.252.731-.8.731h-4.377A.866.866,0,0,1,446.4,139.028Z"/><path class="e" d="M453.55,133.224a.9.9,0,0,1,.923-.984h1.967c2.591,0,4.161,1.451,4.161,3.85S458.995,140,456.38,140h-1.847a.977.977,0,0,1-.983-.972Zm5.289,2.879a2.2,2.2,0,0,0-2.447-2.352H455.3v4.738h1.069A2.224,2.224,0,0,0,458.839,136.1Z"/><path class="e" d="M461.83,133c0-.54.263-.8.755-.8h.241a.7.7,0,0,1,.779.8v6.248a.7.7,0,0,1-.779.8h-.241c-.492,0-.755-.276-.755-.8Z"/><path class="e" d="M464.818,136.126a3.887,3.887,0,0,1,4.006-4.054,4.048,4.048,0,1,1-4.006,4.054Zm6.236,0a2.268,2.268,0,0,0-2.242-2.482,2.23,2.23,0,0,0-2.231,2.47,2.248,2.248,0,1,0,4.473.012Z"/></g></g><g class="c"><g class="c"><path class="e" d="M535.011,133.086a1.021,1.021,0,0,1,1.078-1.148h4.651c.658,0,.967.265.967.812v.084c0,.56-.309.84-.967.84h-3.7v2.269H539.7c.672,0,.966.281.966.785v.056c0,.546-.308.812-.966.812h-2.591V140.1a.828.828,0,0,1-.911.952h-.323c-.559,0-.868-.42-.868-1.149Z"/><path class="e" d="M542.7,132.819a.825.825,0,0,1,.9-.938h.267c.588,0,.9.308.9.938v4.357c0,1.443.617,2.185,1.835,2.185,1.246,0,1.835-.715,1.835-2.2v-4.343a.819.819,0,0,1,.9-.938h.28c.588,0,.883.308.883.938v4.357c0,2.605-1.346,3.978-3.908,3.978s-3.881-1.344-3.881-3.965Z"/><path class="e" d="M552.035,139.865v-7.046c0-.63.308-.938.868-.938h.294c.6,0,.9.308.9.938v6.36h3.391c.63,0,.952.295.952.869v.056a.829.829,0,0,1-.952.9h-4.371A1.011,1.011,0,0,1,552.035,139.865Z"/><path class="e" d="M559.539,139.865v-7.046c0-.63.308-.938.868-.938h.294c.6,0,.9.308.9.938v6.36h3.391c.63,0,.952.295.952.869v.056a.829.829,0,0,1-.952.9h-4.371A1.011,1.011,0,0,1,559.539,139.865Z"/></g></g></g></svg>