<svg xmlns="http://www.w3.org/2000/svg" width="316" height="49" viewBox="0 0 316 49"><defs><style>.a{fill:#fff;}.b{fill:#8f93af;}.c{isolation:isolate;}.d{fill:#383c58;}.e{fill:#0855c4;}</style></defs><g transform="translate(-280.261 -380.453)"><rect class="a" width="316" height="49" transform="translate(280.261 380.453)"/><rect class="a" width="89" height="31" transform="translate(280.261 380.453)"/><path class="b" d="M369.261,411.453h-89v-31h89Zm-88-1h87v-29h-87Z"/><rect class="a" width="89" height="31" transform="translate(396.261 380.453)"/><path class="b" d="M485.261,411.453h-89v-31h89Zm-88-1h87v-29h-87Z"/><rect class="a" width="89" height="31" transform="translate(507.261 380.453)"/><path class="b" d="M596.261,411.453h-89v-31h89Zm-88-1h87v-29h-87Z"/><g class="c"><g class="c"><path class="d" d="M298.406,424.66v-5.3a1.159,1.159,0,0,1-.754.274,1.273,1.273,0,0,1-.832-.3,1.048,1.048,0,0,1-.325-.78.919.919,0,0,1,.507-.91,1.21,1.21,0,0,0,.793.286,1.129,1.129,0,0,0,1.1-.975h.559c.546,0,.833.3.833.884v6.825a.771.771,0,0,1-.833.884h-.247C298.679,425.544,298.406,425.232,298.406,424.66Z"/><path class="d" d="M303.4,419.577c-.026-.1.455-.546,1-.546.442,0,.806.208,1.04.948l1.274,3.732,1.326-3.732c.234-.74.611-.948,1-.948.558,0,1.026.442.987.546l-2.275,5.473a1.032,1.032,0,0,1-1.027.481c-.429,0-.871-.091-1.027-.468Z"/><path class="d" d="M313.643,418.966a3.019,3.019,0,0,1,3.158,3.172v.117c-.012.312-.1.481-.442.481h-4.394l.039.208a1.761,1.761,0,0,0,1.82,1.365,1.891,1.891,0,0,0,1.781-.923c.014-.026.9.052.9.78a1.238,1.238,0,0,1-.7.988,3.881,3.881,0,0,1-2.028.481,3.151,3.151,0,0,1-3.419-3.3A3.225,3.225,0,0,1,313.643,418.966Zm-.014,1.261a1.641,1.641,0,0,0-1.638,1.508h3.12A1.44,1.44,0,0,0,313.629,420.227Z"/><path class="d" d="M317.516,424.7a1.086,1.086,0,0,1,.4-.871l2.834-3.3H318.3c-.494,0-.728-.208-.728-.663v-.092c0-.428.234-.662.728-.662h4.069a.619.619,0,0,1,.7.637v.091a1.083,1.083,0,0,1-.39.858l-2.912,3.341h2.692c.493,0,.728.208.728.663v.078c0,.442-.235.676-.728.676h-4.239a.628.628,0,0,1-.7-.65Z"/><path class="d" d="M330.178,421.67h.208a.865.865,0,0,0-.012-.182,1.123,1.123,0,0,0-1.288-1.144,1.589,1.589,0,0,0-1.56.923c-.013.026-1.183.117-1.183-.728a1.16,1.16,0,0,1,.39-.832,3.419,3.419,0,0,1,2.47-.741c2.015,0,2.99.923,2.99,2.626v3.744c0,.091-.338.208-.689.208a.947.947,0,0,1-.962-.61,2.637,2.637,0,0,1-.1-.43,2.535,2.535,0,0,1-2.2,1.092c-1.326,0-2.132-.728-2.132-1.82C326.109,422.359,327.487,421.709,330.178,421.67Zm.208.923h-.351c-1.443.052-2.21.325-2.21,1.04,0,.481.377.78.988.78a1.43,1.43,0,0,0,1.573-1.365Z"/><path class="d" d="M333.545,424.634v-8.008a1.016,1.016,0,0,1,.689-.208c.546,0,1.144.286,1.144,1.469v6.747c0,.663-.338.871-.806.871h-.195C333.9,425.505,333.545,425.311,333.545,424.634Z"/><path class="d" d="M342.762,421.67h.208a.865.865,0,0,0-.012-.182,1.123,1.123,0,0,0-1.288-1.144,1.589,1.589,0,0,0-1.56.923c-.013.026-1.183.117-1.183-.728a1.16,1.16,0,0,1,.39-.832,3.419,3.419,0,0,1,2.47-.741c2.015,0,2.99.923,2.99,2.626v3.744c0,.091-.338.208-.689.208a.947.947,0,0,1-.962-.61,2.637,2.637,0,0,1-.1-.43,2.535,2.535,0,0,1-2.2,1.092c-1.326,0-2.132-.728-2.132-1.82C338.693,422.359,340.071,421.709,342.762,421.67Zm.208.923h-.351c-1.443.052-2.21.325-2.21,1.04,0,.481.377.78.988.78a1.43,1.43,0,0,0,1.573-1.365Z"/><path class="d" d="M352.317,421.579v3.055c0,.663-.351.871-.819.871H351.3c-.481,0-.819-.194-.819-.871v-2.769c0-.845-.429-1.365-1.17-1.365a1.533,1.533,0,0,0-1.391.832v3.3c0,.663-.338.871-.806.871h-.2c-.494,0-.832-.194-.832-.871v-5.382c0-.065.325-.208.689-.208a1.052,1.052,0,0,1,1.092,1.066,2.4,2.4,0,0,1,2.093-1.144C351.615,418.966,352.317,420.136,352.317,421.579Zm-5.1-3.614a.666.666,0,0,1-.2-.507,1.278,1.278,0,0,1,1.209-1.365,1.82,1.82,0,0,1,.858.26,3.492,3.492,0,0,1,.858.7c.143-.455.468-.91.806-.91a.68.68,0,0,1,.455.168.661.661,0,0,1,.2.521,1.275,1.275,0,0,1-1.209,1.352,1.6,1.6,0,0,1-.884-.273,3.678,3.678,0,0,1-.832-.7c-.156.455-.455.91-.806.91A.672.672,0,0,1,347.221,417.965Z"/><path class="d" d="M356.7,418.966a3.335,3.335,0,1,1-3.394,3.315A3.194,3.194,0,0,1,356.7,418.966Zm-.013,1.43a1.9,1.9,0,1,0,1.754,1.911A1.768,1.768,0,0,0,356.685,420.4Z"/></g></g><g class="c"><g class="c"><path class="d" d="M402.288,426a1.658,1.658,0,0,1-.845-1.287.948.948,0,0,1,1.131-.91,2,2,0,0,0,2.08,1.339c1.014,0,1.651-.454,1.651-1.2,0-.767-.507-1.157-1.494-1.157h-.443c-.637,0-.884-.234-.884-.65v-.1c0-.455.287-.65.858-.65h.624c.781,0,1.2-.377,1.2-.988,0-.65-.573-1.053-1.535-1.053a1.848,1.848,0,0,0-1.872,1.209.935.935,0,0,1-1.105-.9,1.55,1.55,0,0,1,.819-1.222,4.049,4.049,0,0,1,2.2-.573c2.12,0,3.3.832,3.3,2.315a1.764,1.764,0,0,1-1.469,1.755,2.166,2.166,0,0,1,1.639,2.132c0,1.626-1.262,2.574-3.472,2.574A4.18,4.18,0,0,1,402.288,426Z"/><path class="d" d="M410.634,420.577c-.026-.1.455-.546,1-.546.443,0,.806.208,1.04.948l1.275,3.732,1.325-3.732c.235-.74.612-.948,1-.948.558,0,1.027.442.988.546l-2.275,5.473a1.034,1.034,0,0,1-1.028.481c-.428,0-.871-.091-1.026-.468Z"/><path class="d" d="M420.879,419.966a3.02,3.02,0,0,1,3.159,3.172v.117c-.013.312-.1.481-.442.481H419.2l.039.208a1.761,1.761,0,0,0,1.82,1.365,1.891,1.891,0,0,0,1.781-.923c.013-.026.9.052.9.78a1.238,1.238,0,0,1-.7.988,3.883,3.883,0,0,1-2.028.481,3.152,3.152,0,0,1-3.42-3.3A3.225,3.225,0,0,1,420.879,419.966Zm-.013,1.261a1.641,1.641,0,0,0-1.638,1.508h3.12A1.441,1.441,0,0,0,420.866,421.227Z"/><path class="d" d="M428.054,419.966a3.214,3.214,0,0,1,2.08.637,1.53,1.53,0,0,1,.624,1.092c0,.741-.988.884-1.027.806a1.563,1.563,0,0,0-1.6-1.053,1.858,1.858,0,0,0,0,3.705,1.586,1.586,0,0,0,1.6-1.053c.039-.078,1.027.026,1.027.819a1.466,1.466,0,0,1-.637,1.066,3.146,3.146,0,0,1-2.067.65,3.335,3.335,0,0,1,0-6.669Z"/><path class="d" d="M434.71,419.966a3.02,3.02,0,0,1,3.16,3.172v.117c-.014.312-.1.481-.443.481h-4.394l.039.208a1.761,1.761,0,0,0,1.82,1.365,1.891,1.891,0,0,0,1.781-.923c.014-.026.9.052.9.78a1.238,1.238,0,0,1-.7.988,3.884,3.884,0,0,1-2.028.481,3.151,3.151,0,0,1-3.419-3.3A3.224,3.224,0,0,1,434.71,419.966Zm-.013,1.261a1.641,1.641,0,0,0-1.638,1.508h3.12A1.44,1.44,0,0,0,434.7,421.227Z"/><path class="d" d="M438.48,425.2a.806.806,0,0,1,.559-.728,2.773,2.773,0,0,0,2.093.858c.715,0,1.105-.247,1.105-.649,0-.495-.507-.586-1.352-.768-.871-.182-2.223-.468-2.223-1.9,0-1.235,1-2.054,2.639-2.054a2.786,2.786,0,0,1,2.4.845.935.935,0,0,1,.156.52.91.91,0,0,1-.585.767,2.519,2.519,0,0,0-1.859-.858c-.7,0-1.079.26-1.079.663,0,.455.494.546,1.352.741.9.195,2.327.481,2.327,1.911,0,1.274-1.014,2.041-2.8,2.041a4.175,4.175,0,0,1-2.184-.481A1.106,1.106,0,0,1,438.48,425.2Z"/><path class="d" d="M451.038,422.67h.208a.8.8,0,0,0-.013-.182,1.122,1.122,0,0,0-1.287-1.144,1.589,1.589,0,0,0-1.56.923c-.013.026-1.183.117-1.183-.728a1.16,1.16,0,0,1,.39-.832,3.419,3.419,0,0,1,2.47-.741c2.015,0,2.99.923,2.99,2.626v3.744c0,.091-.338.208-.689.208a.947.947,0,0,1-.962-.61,2.637,2.637,0,0,1-.1-.43,2.535,2.535,0,0,1-2.2,1.092c-1.326,0-2.132-.728-2.132-1.82C446.969,423.359,448.347,422.709,451.038,422.67Zm.208.923h-.351c-1.443.052-2.21.325-2.21,1.04,0,.481.377.78.988.78a1.43,1.43,0,0,0,1.573-1.365Z"/><path class="d" d="M454.4,425.634v-8.008a1.016,1.016,0,0,1,.689-.208c.546,0,1.144.286,1.144,1.469v6.747c0,.663-.338.871-.806.871h-.2C454.756,426.505,454.4,426.311,454.4,425.634Z"/><path class="d" d="M463.622,422.67h.208a.8.8,0,0,0-.013-.182,1.122,1.122,0,0,0-1.287-1.144,1.589,1.589,0,0,0-1.56.923c-.013.026-1.183.117-1.183-.728a1.16,1.16,0,0,1,.39-.832,3.419,3.419,0,0,1,2.47-.741c2.015,0,2.99.923,2.99,2.626v3.744c0,.091-.338.208-.689.208a.947.947,0,0,1-.962-.61,2.637,2.637,0,0,1-.1-.43,2.535,2.535,0,0,1-2.2,1.092c-1.326,0-2.132-.728-2.132-1.82C459.553,423.359,460.931,422.709,463.622,422.67Zm.208.923h-.351c-1.443.052-2.21.325-2.21,1.04,0,.481.377.78.988.78a1.43,1.43,0,0,0,1.573-1.365Z"/><path class="d" d="M473.177,422.579v3.055c0,.663-.351.871-.819.871h-.2c-.481,0-.819-.194-.819-.871v-2.769c0-.845-.429-1.365-1.17-1.365a1.533,1.533,0,0,0-1.391.832v3.3c0,.663-.338.871-.806.871h-.195c-.494,0-.832-.194-.832-.871v-5.382c0-.065.325-.208.689-.208a1.052,1.052,0,0,1,1.092,1.066,2.4,2.4,0,0,1,2.093-1.144C472.475,419.966,473.177,421.136,473.177,422.579Zm-5.1-3.614a.666.666,0,0,1-.2-.507,1.278,1.278,0,0,1,1.209-1.365,1.82,1.82,0,0,1,.858.26,3.492,3.492,0,0,1,.858.7c.143-.455.468-.91.806-.91a.68.68,0,0,1,.455.168.661.661,0,0,1,.2.521,1.275,1.275,0,0,1-1.209,1.352,1.6,1.6,0,0,1-.884-.273,3.676,3.676,0,0,1-.832-.7c-.156.455-.455.91-.806.91A.672.672,0,0,1,468.081,418.965Z"/><path class="d" d="M477.558,419.966a3.335,3.335,0,1,1-3.393,3.315A3.193,3.193,0,0,1,477.558,419.966Zm-.014,1.43a1.9,1.9,0,1,0,1.755,1.911A1.768,1.768,0,0,0,477.544,421.4Z"/></g></g><g class="c"><g class="c"><path class="d" d="M530.119,418.861c0-.586.286-.871.819-.871h.26a.758.758,0,0,1,.845.871v6.773a.764.764,0,0,1-.845.871h-.26c-.533,0-.819-.3-.819-.871Z"/><path class="d" d="M533.629,425.634v-8.008a1.019,1.019,0,0,1,.689-.208c.546,0,1.144.286,1.144,1.469v6.747c0,.663-.337.871-.806.871h-.2C533.98,426.505,533.629,426.311,533.629,425.634Z"/><path class="d" d="M537.854,417.21a.951.951,0,1,1-1.027.949A.917.917,0,0,1,537.854,417.21Zm-.923,3.718c0-.663.351-.884.819-.884h.2c.481,0,.819.208.819.884v4.706c0,.663-.338.871-.819.871h-.182c-.494,0-.832-.194-.832-.871Z"/><path class="d" d="M550.374,422.488v3.146c0,.663-.338.871-.807.871h-.194c-.495,0-.832-.194-.832-.871v-2.86c0-.832-.365-1.274-1.105-1.274a1.478,1.478,0,0,0-1.249.78v3.354c0,.663-.337.871-.806.871h-.194c-.481,0-.833-.194-.833-.871v-2.821c0-.871-.364-1.313-1.092-1.313a1.477,1.477,0,0,0-1.248.78v3.354c0,.663-.338.871-.806.871h-.2c-.494,0-.832-.194-.832-.871v-5.382c0-.065.325-.208.689-.208.455,0,.949.2,1.092,1.04a2.279,2.279,0,0,1,1.963-1.118,2.007,2.007,0,0,1,2.029,1.3,2.368,2.368,0,0,1,2.131-1.3C549.7,419.966,550.374,420.993,550.374,422.488Z"/><path class="d" d="M552.648,417.21a.952.952,0,1,1-1.027.949A.917.917,0,0,1,552.648,417.21Zm-.923,3.718c0-.663.351-.884.819-.884h.2c.481,0,.819.208.819.884v4.706c0,.663-.338.871-.819.871h-.182c-.494,0-.832-.194-.832-.871Z"/><path class="d" d="M555.534,424.451v-2.912h-.326c-.52,0-.753-.234-.753-.65v-.1c0-.43.233-.676.741-.676h.338V419.3c0-.6.3-.884.819-.884h.169c.481,0,.806.208.806.884v.806h1.1c.52,0,.741.221.741.637v.117c0,.442-.234.676-.754.676H557.3v2.7c0,.624.2.936.7.936a.931.931,0,0,0,.793-.429.72.72,0,0,1,.455.715.929.929,0,0,1-.312.7,1.9,1.9,0,0,1-1.365.468C556.184,426.635,555.534,425.895,555.534,424.451Z"/><path class="d" d="M563.906,422.67h.208a.8.8,0,0,0-.013-.182,1.122,1.122,0,0,0-1.287-1.144,1.589,1.589,0,0,0-1.56.923c-.013.026-1.183.117-1.183-.728a1.163,1.163,0,0,1,.389-.832,3.422,3.422,0,0,1,2.471-.741c2.015,0,2.99.923,2.99,2.626v3.744c0,.091-.338.208-.689.208a.947.947,0,0,1-.962-.61,2.637,2.637,0,0,1-.1-.43,2.535,2.535,0,0,1-2.2,1.092c-1.326,0-2.133-.728-2.133-1.82C559.836,423.359,561.215,422.709,563.906,422.67Zm.208.923h-.351c-1.443.052-2.21.325-2.21,1.04,0,.481.377.78.988.78a1.43,1.43,0,0,0,1.573-1.365Z"/><path class="d" d="M566.909,423.294c0-2.015,1.2-3.328,2.95-3.328a2.379,2.379,0,0,1,2,.962v-3.3a1.016,1.016,0,0,1,.689-.208c.546,0,1.144.286,1.144,1.469v6.747c0,.663-.325.871-.806.871h-.182c-.416,0-.728-.143-.793-.637-.013-.143-.026-.286-.026-.442a2.3,2.3,0,0,1-2.067,1.209C568.1,426.635,566.909,425.283,566.909,423.294Zm4.966-.845a1.609,1.609,0,0,0-1.573-1.014,1.653,1.653,0,0,0-1.652,1.859,1.688,1.688,0,0,0,1.625,1.872,1.526,1.526,0,0,0,1.6-1.521Z"/><path class="d" d="M578.154,419.966a3.335,3.335,0,1,1-3.394,3.315A3.194,3.194,0,0,1,578.154,419.966Zm-.013,1.43a1.9,1.9,0,1,0,1.755,1.911A1.768,1.768,0,0,0,578.141,421.4Z"/></g></g><g class="c"><g class="c"><path class="e" d="M303.074,399.3v-6.766a1.021,1.021,0,0,1,1.078-1.148h3.082c2.045,0,3.152.812,3.152,2.325a1.892,1.892,0,0,1-1.611,1.919,2.22,2.22,0,0,1,1.961,2.241c0,1.751-1.121,2.577-3.67,2.577h-2.914A1.021,1.021,0,0,1,303.074,399.3Zm3.712-4.049c.952,0,1.5-.462,1.5-1.218s-.505-1.149-1.5-1.149h-1.681v2.367Zm.112,3.7c1.232,0,1.737-.364,1.737-1.274,0-.826-.547-1.219-1.737-1.219h-1.793v2.493Z"/><path class="e" d="M315.941,396.377h.225a.862.862,0,0,0-.014-.2,1.21,1.21,0,0,0-1.387-1.233,1.714,1.714,0,0,0-1.681.994c-.014.029-1.274.126-1.274-.784a1.252,1.252,0,0,1,.419-.9,3.683,3.683,0,0,1,2.662-.8c2.171,0,3.222.995,3.222,2.83v4.034c0,.1-.364.224-.742.224a1.02,1.02,0,0,1-1.037-.658,2.822,2.822,0,0,1-.112-.462,2.732,2.732,0,0,1-2.368,1.176c-1.428,0-2.3-.784-2.3-1.961C311.557,397.119,313.042,396.419,315.941,396.377Zm.225.994h-.378c-1.555.057-2.382.351-2.382,1.121,0,.519.406.84,1.065.84a1.541,1.541,0,0,0,1.695-1.471Zm-2.466-4.8c0-.433.953-2.394,2.115-2.394a.771.771,0,0,1,.8.826c0,1.065-2.045,1.765-2.634,1.765C313.8,392.763,313.7,392.721,313.7,392.566Z"/><path class="e" d="M319.075,399.108a.869.869,0,0,1,.6-.784,2.992,2.992,0,0,0,2.256.924c.77,0,1.19-.266,1.19-.7,0-.532-.546-.63-1.456-.826-.939-.2-2.4-.5-2.4-2.045,0-1.331,1.079-2.214,2.844-2.214a3.005,3.005,0,0,1,2.591.911,1.01,1.01,0,0,1,.168.561.982.982,0,0,1-.63.826,2.718,2.718,0,0,0-2-.925c-.757,0-1.163.28-1.163.715,0,.49.532.588,1.457.8.966.21,2.507.518,2.507,2.059,0,1.373-1.092,2.2-3.011,2.2a4.5,4.5,0,0,1-2.354-.518A1.193,1.193,0,0,1,319.075,399.108Z"/><path class="e" d="M327.224,390.494a1.026,1.026,0,1,1-1.107,1.023A.989.989,0,0,1,327.224,390.494Zm-.995,4.006c0-.715.378-.952.883-.952h.21c.518,0,.882.223.882.952v5.07c0,.715-.364.939-.882.939h-.2c-.532,0-.9-.21-.9-.939Z"/><path class="e" d="M332.951,393.463a3.464,3.464,0,0,1,2.241.686,1.653,1.653,0,0,1,.673,1.177c0,.8-1.065.953-1.107.869a1.684,1.684,0,0,0-1.723-1.134,2,2,0,0,0,0,3.992,1.709,1.709,0,0,0,1.723-1.135c.042-.084,1.107.027,1.107.882a1.582,1.582,0,0,1-.687,1.149,3.4,3.4,0,0,1-2.227.7,3.593,3.593,0,0,1,0-7.186Z"/><path class="e" d="M340.231,393.463a3.593,3.593,0,1,1-3.656,3.572A3.442,3.442,0,0,1,340.231,393.463ZM340.217,395a2.052,2.052,0,1,0,1.891,2.059A1.9,1.9,0,0,0,340.217,395Z"/></g></g><g class="c"><g class="c"><path class="e" d="M406.053,392.449c0-.54.264-.8.756-.8h.239a.7.7,0,0,1,.78.8V398.7a.7.7,0,0,1-.78.8h-.239c-.492,0-.756-.275-.756-.8Z"/><path class="e" d="M409.317,398.7v-6.176c0-.564.276-.875.767-.875h.216a.98.98,0,0,1,.9.5l3.346,4.618v-4.318c0-.528.24-.8.755-.8h.168c.48,0,.732.275.732.8v6.177c0,.575-.288.875-.756.875H415.3a.86.86,0,0,1-.839-.443l-3.478-4.787V398.7a.7.7,0,0,1-.768.8h-.168C409.557,399.5,409.317,399.226,409.317,398.7Z"/><path class="e" d="M419.647,393.24H417.9c-.527,0-.815-.263-.815-.755v-.06c0-.48.288-.732.815-.732h5.241c.54,0,.816.252.816.732v.06c0,.492-.276.755-.816.755h-1.715V398.7a.717.717,0,0,1-.791.8h-.252c-.48,0-.732-.275-.732-.8Z"/><path class="e" d="M424.833,398.481v-5.8a.875.875,0,0,1,.923-.984h4.318c.551,0,.816.241.816.708v.06c0,.479-.265.708-.816.708H426.6v1.643h2.543c.575,0,.815.215.815.66v.035c0,.468-.252.684-.815.684H426.6V398h3.538c.552,0,.8.2.8.659v.061c0,.491-.251.731-.8.731h-4.378A.866.866,0,0,1,424.833,398.481Z"/><path class="e" d="M431.985,398.529v-5.852a.875.875,0,0,1,.923-.984h2.279c2.015,0,3.046.84,3.046,2.423a2.107,2.107,0,0,1-1.643,2.2,1.981,1.981,0,0,1-.383.072l2.038,2.471c.072.084-.264.647-1.019.647-.516,0-.792-.216-1.164-.72l-1.7-2.123h-.611V398.7a.715.715,0,0,1-.78.8h-.24C432.249,399.5,431.985,399.153,431.985,398.529Zm3.082-3.13c.948,0,1.4-.443,1.4-1.163,0-.767-.479-1.164-1.439-1.164h-1.307V395.4Z"/><path class="e" d="M439.365,392.533a.8.8,0,0,1,.875-.887h.48a.828.828,0,0,1,.923.635l1.571,3.658,1.583-3.658c.2-.492.4-.635.9-.635h.468a.811.811,0,0,1,.9.887V398.7c0,.529-.2.8-.707.8h-.264c-.492,0-.7-.275-.7-.8v-4.629l-1.3,3.155c-.132.3-.2.551-.9.551s-.744-.252-.888-.551l-1.283-3.1V398.7c0,.529-.192.8-.7.8h-.288c-.48,0-.683-.275-.683-.8Z"/><path class="e" d="M448.46,398.481v-5.8a.875.875,0,0,1,.924-.984H453.7c.552,0,.816.241.816.708v.06c0,.479-.264.708-.816.708h-3.478v1.643h2.543c.576,0,.816.215.816.66v.035c0,.468-.252.684-.816.684h-2.543V398h3.538c.552,0,.8.2.8.659v.061c0,.491-.252.731-.8.731h-4.377A.866.866,0,0,1,448.46,398.481Z"/><path class="e" d="M455.612,392.677a.9.9,0,0,1,.924-.984H458.5c2.591,0,4.162,1.452,4.162,3.85s-1.607,3.91-4.222,3.91H456.6a.978.978,0,0,1-.984-.972Zm5.289,2.879a2.2,2.2,0,0,0-2.446-2.352h-1.092v4.738h1.068A2.224,2.224,0,0,0,460.9,395.556Z"/><path class="e" d="M463.892,392.449c0-.54.264-.8.756-.8h.24a.7.7,0,0,1,.779.8V398.7a.7.7,0,0,1-.779.8h-.24c-.492,0-.756-.275-.756-.8Z"/><path class="e" d="M466.88,395.579a3.887,3.887,0,0,1,4.006-4.054,4.048,4.048,0,1,1-4.006,4.054Zm6.237,0a2.269,2.269,0,0,0-2.243-2.482,2.23,2.23,0,0,0-2.231,2.47,2.249,2.249,0,1,0,4.474.012Z"/></g></g><g class="c"><g class="c"><path class="e" d="M537.074,392.539a1.021,1.021,0,0,1,1.078-1.148H542.8c.658,0,.966.265.966.812v.084c0,.56-.308.84-.966.84h-3.7V395.4h2.661c.672,0,.967.281.967.785v.056c0,.546-.309.812-.967.812h-2.591v2.508c0,.63-.308.952-.911.952h-.322c-.56,0-.868-.42-.868-1.149Z"/><path class="e" d="M544.759,392.272a.826.826,0,0,1,.9-.938h.266c.588,0,.9.309.9.938v4.357c0,1.443.616,2.185,1.835,2.185,1.246,0,1.835-.714,1.835-2.2v-4.343a.819.819,0,0,1,.9-.938h.28c.588,0,.883.309.883.938v4.357c0,2.605-1.345,3.978-3.908,3.978s-3.881-1.344-3.881-3.964Z"/><path class="e" d="M554.1,399.318v-7.046c0-.629.308-.938.868-.938h.295c.6,0,.9.309.9.938v6.36h3.39c.63,0,.953.3.953.869v.056a.83.83,0,0,1-.953.9h-4.37A1.011,1.011,0,0,1,554.1,399.318Z"/><path class="e" d="M561.6,399.318v-7.046c0-.629.308-.938.868-.938h.295c.6,0,.9.309.9.938v6.36h3.39c.63,0,.952.3.952.869v.056a.829.829,0,0,1-.952.9h-4.37A1.011,1.011,0,0,1,561.6,399.318Z"/></g></g></g></svg>