<svg xmlns="http://www.w3.org/2000/svg" width="316" height="49" viewBox="0 0 316 49"><defs><style>.a{fill:#fff;}.b{fill:#8f93af;}.c{isolation:isolate;}.d{fill:#383c58;}.e{fill:#0855c4;}</style></defs><g transform="translate(-287.278 -617)"><rect class="a" width="316" height="49" transform="translate(287.278 617)"/><rect class="a" width="89" height="31" transform="translate(287.278 617)"/><path class="b" d="M376.278,648h-89V617h89Zm-88-1h87V618h-87Z"/><rect class="a" width="89" height="31" transform="translate(403.278 617)"/><path class="b" d="M492.278,648h-89V617h89Zm-88-1h87V618h-87Z"/><rect class="a" width="89" height="31" transform="translate(514.278 617)"/><path class="b" d="M603.278,648h-89V617h89Zm-88-1h87V618h-87Z"/><g class="c"><g class="c"><path class="d" d="M306.032,661.181v-6.7c0-.61.3-.948.832-.948h.234a1.061,1.061,0,0,1,.975.546l3.627,5.005v-4.68c0-.572.26-.871.819-.871h.182c.52,0,.793.3.793.871v6.7c0,.624-.312.949-.819.949h-.156a.931.931,0,0,1-.91-.481l-3.77-5.187v4.8a.76.76,0,0,1-.832.871h-.182C306.292,662.052,306.032,661.753,306.032,661.181Z"/><path class="d" d="M318.005,655.513a3.335,3.335,0,1,1-3.393,3.315A3.194,3.194,0,0,1,318.005,655.513Zm-.013,1.429a1.9,1.9,0,1,0,1.755,1.912A1.769,1.769,0,0,0,317.992,656.942Z"/><path class="d" d="M328.366,658.217h.208a.8.8,0,0,0-.013-.182,1.122,1.122,0,0,0-1.287-1.144,1.59,1.59,0,0,0-1.56.922c-.013.027-1.183.118-1.183-.727a1.163,1.163,0,0,1,.389-.832,3.422,3.422,0,0,1,2.471-.741c2.015,0,2.99.923,2.99,2.626v3.744c0,.091-.338.208-.689.208a.947.947,0,0,1-.962-.611,2.6,2.6,0,0,1-.1-.429,2.535,2.535,0,0,1-2.2,1.092c-1.326,0-2.133-.728-2.133-1.82C324.3,658.906,325.675,658.256,328.366,658.217Zm.208.923h-.351c-1.443.051-2.21.325-2.21,1.04,0,.481.377.78.987.78a1.431,1.431,0,0,0,1.574-1.365Z"/><path class="d" d="M338.493,658.828c0,1.976-1.2,3.354-2.938,3.354a2.247,2.247,0,0,1-2.029-1.157v2.626c0,.663-.338.884-.806.884h-.2c-.494,0-.832-.208-.832-.884V655.8c0-.066.326-.208.7-.208a1.026,1.026,0,0,1,1.053.884c.012.051.026.182.038.286a2.225,2.225,0,0,1,2.08-1.248C337.284,655.513,338.493,656.8,338.493,658.828Zm-1.755.013a1.673,1.673,0,0,0-3.212-.82v1.2a1.506,1.506,0,0,0,1.574,1.495A1.669,1.669,0,0,0,336.738,658.841Z"/><path class="d" d="M339.584,661.181v-8.008a1.019,1.019,0,0,1,.689-.208c.546,0,1.144.286,1.144,1.469v6.747c0,.663-.337.871-.806.871h-.194C339.936,662.052,339.584,661.857,339.584,661.181Z"/><path class="d" d="M343.809,652.757a.951.951,0,1,1-1.027.949A.917.917,0,0,1,343.809,652.757Zm-.923,3.718c0-.663.351-.884.819-.884h.2c.481,0,.819.208.819.884v4.706c0,.663-.338.871-.819.871h-.182c-.494,0-.832-.2-.832-.871Z"/><path class="d" d="M349.126,655.513a3.223,3.223,0,0,1,2.081.636,1.537,1.537,0,0,1,.624,1.093c0,.74-.989.884-1.028.806a1.561,1.561,0,0,0-1.6-1.053,1.858,1.858,0,0,0,0,3.705,1.583,1.583,0,0,0,1.6-1.054c.039-.077,1.028.027,1.028.82a1.467,1.467,0,0,1-.638,1.066,3.148,3.148,0,0,1-2.067.65,3.335,3.335,0,0,1,0-6.669Z"/><path class="d" d="M356.562,658.217h.208a.8.8,0,0,0-.013-.182,1.122,1.122,0,0,0-1.287-1.144,1.59,1.59,0,0,0-1.56.922c-.013.027-1.183.118-1.183-.727a1.16,1.16,0,0,1,.39-.832,3.419,3.419,0,0,1,2.47-.741c2.015,0,2.99.923,2.99,2.626v3.744c0,.091-.338.208-.689.208a.947.947,0,0,1-.962-.611,2.6,2.6,0,0,1-.1-.429,2.535,2.535,0,0,1-2.2,1.092c-1.326,0-2.132-.728-2.132-1.82C352.493,658.906,353.871,658.256,356.562,658.217Zm.208.923h-.351c-1.443.051-2.21.325-2.21,1.04,0,.481.377.78.988.78a1.43,1.43,0,0,0,1.573-1.365Z"/></g></g><g class="c"><g class="c"><path class="d" d="M422.032,662.181v-6.7c0-.61.3-.948.832-.948h.234a1.061,1.061,0,0,1,.975.546l3.627,5.005v-4.68c0-.572.26-.871.819-.871h.182c.52,0,.793.3.793.871v6.7c0,.624-.312.949-.819.949h-.156a.931.931,0,0,1-.91-.481l-3.77-5.187v4.8a.76.76,0,0,1-.832.871h-.182C422.292,663.052,422.032,662.753,422.032,662.181Z"/><path class="d" d="M434.005,656.513a3.335,3.335,0,1,1-3.393,3.315A3.194,3.194,0,0,1,434.005,656.513Zm-.013,1.429a1.9,1.9,0,1,0,1.755,1.912A1.769,1.769,0,0,0,433.992,657.942Z"/><path class="d" d="M444.366,659.217h.208a.8.8,0,0,0-.013-.182,1.122,1.122,0,0,0-1.287-1.144,1.59,1.59,0,0,0-1.56.922c-.013.027-1.183.118-1.183-.727a1.163,1.163,0,0,1,.389-.832,3.422,3.422,0,0,1,2.471-.741c2.015,0,2.99.923,2.99,2.626v3.744c0,.091-.338.208-.689.208a.947.947,0,0,1-.962-.611,2.6,2.6,0,0,1-.1-.429,2.535,2.535,0,0,1-2.2,1.092c-1.326,0-2.133-.728-2.133-1.82C440.3,659.906,441.675,659.256,444.366,659.217Zm.208.923h-.351c-1.443.051-2.21.325-2.21,1.04,0,.481.377.78.987.78a1.431,1.431,0,0,0,1.574-1.365Z"/><path class="d" d="M454.493,659.828c0,1.976-1.2,3.354-2.938,3.354a2.247,2.247,0,0,1-2.029-1.157v2.626c0,.663-.338.884-.806.884h-.2c-.494,0-.832-.208-.832-.884V656.8c0-.066.326-.208.7-.208a1.026,1.026,0,0,1,1.053.884c.012.051.026.182.038.286a2.225,2.225,0,0,1,2.08-1.248C453.284,656.513,454.493,657.8,454.493,659.828Zm-1.755.013a1.673,1.673,0,0,0-3.212-.82v1.2a1.506,1.506,0,0,0,1.574,1.495A1.669,1.669,0,0,0,452.738,659.841Z"/><path class="d" d="M455.584,662.181v-8.008a1.019,1.019,0,0,1,.689-.208c.546,0,1.144.286,1.144,1.469v6.747c0,.663-.337.871-.806.871h-.194C455.936,663.052,455.584,662.857,455.584,662.181Z"/><path class="d" d="M459.809,653.757a.951.951,0,1,1-1.027.949A.917.917,0,0,1,459.809,653.757Zm-.923,3.718c0-.663.351-.884.819-.884h.2c.481,0,.819.208.819.884v4.706c0,.663-.338.871-.819.871h-.182c-.494,0-.832-.2-.832-.871Z"/><path class="d" d="M465.126,656.513a3.223,3.223,0,0,1,2.081.636,1.537,1.537,0,0,1,.624,1.093c0,.74-.989.884-1.028.806a1.561,1.561,0,0,0-1.6-1.053,1.858,1.858,0,0,0,0,3.705,1.583,1.583,0,0,0,1.6-1.054c.039-.077,1.028.027,1.028.82a1.467,1.467,0,0,1-.638,1.066,3.148,3.148,0,0,1-2.067.65,3.335,3.335,0,0,1,0-6.669Z"/><path class="d" d="M472.562,659.217h.208a.8.8,0,0,0-.013-.182,1.122,1.122,0,0,0-1.287-1.144,1.59,1.59,0,0,0-1.56.922c-.013.027-1.183.118-1.183-.727a1.16,1.16,0,0,1,.39-.832,3.419,3.419,0,0,1,2.47-.741c2.015,0,2.99.923,2.99,2.626v3.744c0,.091-.338.208-.689.208a.947.947,0,0,1-.962-.611,2.6,2.6,0,0,1-.1-.429,2.535,2.535,0,0,1-2.2,1.092c-1.326,0-2.132-.728-2.132-1.82C468.493,659.906,469.871,659.256,472.562,659.217Zm.208.923h-.351c-1.443.051-2.21.325-2.21,1.04,0,.481.377.78.988.78a1.43,1.43,0,0,0,1.573-1.365Z"/></g></g><g class="c"><g class="c"><path class="d" d="M520.3,662.545a1.658,1.658,0,0,1-.845-1.287.948.948,0,0,1,1.131-.91,2,2,0,0,0,2.08,1.339c1.014,0,1.651-.455,1.651-1.2,0-.767-.507-1.157-1.495-1.157h-.442c-.637,0-.884-.234-.884-.65v-.1c0-.455.286-.65.858-.65h.624c.78,0,1.2-.377,1.2-.989,0-.649-.572-1.052-1.534-1.052a1.848,1.848,0,0,0-1.872,1.209.935.935,0,0,1-1.1-.9,1.549,1.549,0,0,1,.819-1.222,4.049,4.049,0,0,1,2.2-.573c2.119,0,3.3.832,3.3,2.315a1.765,1.765,0,0,1-1.469,1.755,2.165,2.165,0,0,1,1.638,2.131c0,1.626-1.261,2.575-3.471,2.575A4.18,4.18,0,0,1,520.3,662.545Z"/><path class="d" d="M528.651,657.124c-.026-.1.455-.546,1-.546.442,0,.806.208,1.04.948l1.274,3.732,1.326-3.732c.234-.74.611-.948,1-.948.559,0,1.027.442.988.546l-2.275,5.473a1.032,1.032,0,0,1-1.027.481c-.429,0-.871-.091-1.027-.468Z"/><path class="d" d="M538.9,656.513a3.019,3.019,0,0,1,3.158,3.172v.117c-.012.312-.1.481-.442.481h-4.394l.039.208a1.76,1.76,0,0,0,1.82,1.364,1.892,1.892,0,0,0,1.781-.922c.014-.026.9.052.9.78a1.239,1.239,0,0,1-.7.988,3.883,3.883,0,0,1-2.028.481,3.151,3.151,0,0,1-3.419-3.3A3.224,3.224,0,0,1,538.9,656.513Zm-.014,1.26a1.641,1.641,0,0,0-1.638,1.509h3.12A1.441,1.441,0,0,0,538.882,657.773Z"/><path class="d" d="M546.071,656.513a3.22,3.22,0,0,1,2.08.636,1.533,1.533,0,0,1,.624,1.093c0,.74-.988.884-1.027.806a1.563,1.563,0,0,0-1.6-1.053,1.858,1.858,0,0,0,0,3.705,1.585,1.585,0,0,0,1.6-1.054c.039-.077,1.027.027,1.027.82a1.465,1.465,0,0,1-.637,1.066,3.152,3.152,0,0,1-2.067.65,3.335,3.335,0,0,1,0-6.669Z"/><path class="d" d="M552.727,656.513a3.02,3.02,0,0,1,3.159,3.172v.117c-.013.312-.1.481-.442.481H551.05l.039.208a1.76,1.76,0,0,0,1.82,1.364,1.892,1.892,0,0,0,1.781-.922c.013-.026.9.052.9.78a1.239,1.239,0,0,1-.7.988,3.884,3.884,0,0,1-2.028.481,3.151,3.151,0,0,1-3.419-3.3A3.224,3.224,0,0,1,552.727,656.513Zm-.013,1.26a1.641,1.641,0,0,0-1.638,1.509h3.12A1.441,1.441,0,0,0,552.714,657.773Z"/><path class="d" d="M556.5,661.752a.808.808,0,0,1,.559-.729,2.77,2.77,0,0,0,2.093.859c.715,0,1.105-.247,1.105-.65,0-.494-.507-.586-1.352-.767-.871-.182-2.223-.468-2.223-1.9,0-1.234,1-2.053,2.639-2.053a2.789,2.789,0,0,1,2.405.844.941.941,0,0,1,.156.521.912.912,0,0,1-.585.767,2.516,2.516,0,0,0-1.859-.858c-.7,0-1.079.26-1.079.663,0,.455.494.546,1.352.74.9.2,2.327.482,2.327,1.912,0,1.274-1.014,2.041-2.795,2.041a4.175,4.175,0,0,1-2.184-.481A1.106,1.106,0,0,1,556.5,661.752Z"/><path class="d" d="M569.055,659.217h.208a.8.8,0,0,0-.013-.182,1.122,1.122,0,0,0-1.287-1.144,1.59,1.59,0,0,0-1.56.922c-.013.027-1.183.118-1.183-.727a1.16,1.16,0,0,1,.39-.832,3.419,3.419,0,0,1,2.47-.741c2.015,0,2.99.923,2.99,2.626v3.744c0,.091-.338.208-.689.208a.947.947,0,0,1-.962-.611,2.6,2.6,0,0,1-.1-.429,2.535,2.535,0,0,1-2.2,1.092c-1.326,0-2.132-.728-2.132-1.82C564.986,659.906,566.364,659.256,569.055,659.217Zm.208.923h-.351c-1.443.051-2.21.325-2.21,1.04,0,.481.377.78.988.78a1.43,1.43,0,0,0,1.573-1.365Z"/><path class="d" d="M572.421,662.181v-8.008a1.019,1.019,0,0,1,.689-.208c.546,0,1.144.286,1.144,1.469v6.747c0,.663-.337.871-.806.871h-.2C572.772,663.052,572.421,662.857,572.421,662.181Z"/><path class="d" d="M581.639,659.217h.208a.745.745,0,0,0-.014-.182,1.121,1.121,0,0,0-1.286-1.144,1.59,1.59,0,0,0-1.56.922c-.013.027-1.183.118-1.183-.727a1.16,1.16,0,0,1,.39-.832,3.419,3.419,0,0,1,2.47-.741c2.015,0,2.99.923,2.99,2.626v3.744c0,.091-.338.208-.689.208a.947.947,0,0,1-.962-.611,2.6,2.6,0,0,1-.1-.429,2.535,2.535,0,0,1-2.2,1.092c-1.327,0-2.132-.728-2.132-1.82C577.57,659.906,578.948,659.256,581.639,659.217Zm.208.923H581.5c-1.443.051-2.21.325-2.21,1.04,0,.481.377.78.988.78a1.431,1.431,0,0,0,1.573-1.365Z"/><path class="d" d="M591.194,659.126v3.055c0,.663-.351.871-.819.871h-.2c-.481,0-.82-.2-.82-.871v-2.769c0-.846-.428-1.365-1.17-1.365a1.534,1.534,0,0,0-1.391.832v3.3c0,.663-.338.871-.8.871h-.2c-.494,0-.832-.2-.832-.871V656.8c0-.066.326-.208.689-.208a1.053,1.053,0,0,1,1.093,1.066,2.4,2.4,0,0,1,2.092-1.144C590.492,656.513,591.194,657.683,591.194,659.126Zm-5.1-3.614a.666.666,0,0,1-.2-.507,1.278,1.278,0,0,1,1.209-1.365,1.827,1.827,0,0,1,.858.259,3.506,3.506,0,0,1,.859.7c.143-.456.467-.911.8-.911a.679.679,0,0,1,.455.169.657.657,0,0,1,.2.521,1.274,1.274,0,0,1-1.209,1.351,1.6,1.6,0,0,1-.885-.272,3.677,3.677,0,0,1-.832-.7c-.155.455-.455.91-.806.91A.674.674,0,0,1,586.1,655.512Z"/><path class="d" d="M595.574,656.513a3.335,3.335,0,1,1-3.393,3.315A3.194,3.194,0,0,1,595.574,656.513Zm-.013,1.429a1.9,1.9,0,1,0,1.755,1.912A1.769,1.769,0,0,0,595.561,657.942Z"/></g></g><g class="c"><g class="c"><path class="e" d="M310.09,635.852v-6.766a1.021,1.021,0,0,1,1.079-1.148h3.081c2.045,0,3.152.812,3.152,2.325a1.891,1.891,0,0,1-1.61,1.919,2.22,2.22,0,0,1,1.96,2.241c0,1.751-1.12,2.577-3.669,2.577h-2.914A1.022,1.022,0,0,1,310.09,635.852ZM313.8,631.8c.953,0,1.5-.462,1.5-1.218,0-.771-.5-1.149-1.5-1.149h-1.68V631.8Zm.113,3.7c1.232,0,1.736-.364,1.736-1.274,0-.827-.546-1.219-1.736-1.219h-1.793V635.5Z"/><path class="e" d="M322.958,632.924h.224a.86.86,0,0,0-.014-.2,1.209,1.209,0,0,0-1.386-1.233,1.713,1.713,0,0,0-1.681.994c-.015.029-1.275.126-1.275-.784a1.248,1.248,0,0,1,.42-.9,3.681,3.681,0,0,1,2.662-.8c2.171,0,3.221.995,3.221,2.83v4.034c0,.1-.364.224-.742.224a1.019,1.019,0,0,1-1.036-.659,2.9,2.9,0,0,1-.113-.461,2.731,2.731,0,0,1-2.367,1.176c-1.429,0-2.3-.784-2.3-1.961C318.574,633.666,320.059,632.966,322.958,632.924Zm.224.994H322.8c-1.554.057-2.381.351-2.381,1.121,0,.519.406.84,1.064.84a1.541,1.541,0,0,0,1.7-1.471Zm-2.465-4.805c0-.433.952-2.394,2.115-2.394a.771.771,0,0,1,.8.826c0,1.064-2.045,1.765-2.633,1.765C320.815,629.31,320.717,629.268,320.717,629.113Z"/><path class="e" d="M326.091,635.655a.869.869,0,0,1,.6-.784,2.988,2.988,0,0,0,2.255.924c.77,0,1.191-.266,1.191-.7,0-.532-.547-.63-1.457-.826-.938-.2-2.4-.5-2.4-2.045,0-1.331,1.078-2.214,2.843-2.214a3.006,3.006,0,0,1,2.592.911,1.017,1.017,0,0,1,.168.56.981.981,0,0,1-.631.827,2.711,2.711,0,0,0-2-.925c-.756,0-1.162.28-1.162.715,0,.49.532.588,1.456.8.967.209,2.508.518,2.508,2.059,0,1.373-1.093,2.2-3.012,2.2a4.5,4.5,0,0,1-2.353-.518A1.194,1.194,0,0,1,326.091,635.655Z"/><path class="e" d="M334.24,627.041a1.026,1.026,0,1,1-1.106,1.022A.988.988,0,0,1,334.24,627.041Zm-.994,4.006c0-.715.378-.952.882-.952h.21c.519,0,.883.223.883.952v5.07c0,.715-.364.939-.883.939h-.2c-.532,0-.9-.21-.9-.939Z"/><path class="e" d="M339.968,630.01a3.464,3.464,0,0,1,2.241.686,1.651,1.651,0,0,1,.672,1.177c0,.8-1.065.953-1.107.869a1.683,1.683,0,0,0-1.722-1.135,2,2,0,0,0,0,3.993,1.708,1.708,0,0,0,1.722-1.135c.042-.084,1.107.027,1.107.882a1.58,1.58,0,0,1-.686,1.149,3.4,3.4,0,0,1-2.227.7,3.593,3.593,0,0,1,0-7.186Z"/><path class="e" d="M347.248,630.01a3.593,3.593,0,1,1-3.657,3.572A3.441,3.441,0,0,1,347.248,630.01Zm-.015,1.541a2.052,2.052,0,1,0,1.892,2.059A1.9,1.9,0,0,0,347.233,631.551Z"/></g></g><g class="c"><g class="c"><path class="e" d="M413.069,629c0-.54.264-.8.756-.8h.24a.7.7,0,0,1,.779.8v6.248a.7.7,0,0,1-.779.8h-.24c-.492,0-.756-.276-.756-.8Z"/><path class="e" d="M416.333,635.244v-6.177c0-.563.276-.875.768-.875h.216a.98.98,0,0,1,.9.5l3.346,4.617V629c0-.528.24-.8.756-.8h.168c.48,0,.731.276.731.8v6.177c0,.575-.287.875-.755.875h-.144a.857.857,0,0,1-.839-.444L418,630.818v4.426a.7.7,0,0,1-.767.8h-.168C416.573,636.048,416.333,635.772,416.333,635.244Z"/><path class="e" d="M426.664,629.787h-1.751c-.528,0-.816-.264-.816-.755v-.06c0-.48.288-.732.816-.732h5.241c.54,0,.816.252.816.732v.06c0,.491-.276.755-.816.755h-1.715v5.457a.719.719,0,0,1-.792.8H427.4c-.48,0-.732-.276-.732-.8Z"/><path class="e" d="M431.85,635.028v-5.8a.875.875,0,0,1,.923-.984h4.317c.552,0,.816.24.816.708v.06c0,.479-.264.708-.816.708h-3.478v1.642h2.543c.576,0,.816.216.816.661v.035c0,.467-.252.684-.816.684h-2.543v1.811h3.538c.552,0,.8.2.8.659v.061c0,.491-.252.731-.8.731h-4.377A.865.865,0,0,1,431.85,635.028Z"/><path class="e" d="M439,635.076v-5.852a.875.875,0,0,1,.924-.984H442.2c2.014,0,3.046.84,3.046,2.423a2.1,2.1,0,0,1-1.643,2.194,1.9,1.9,0,0,1-.384.073l2.039,2.47c.072.084-.264.648-1.02.648-.515,0-.791-.216-1.163-.72l-1.7-2.123h-.612v2.039a.715.715,0,0,1-.779.8h-.24C439.265,636.048,439,635.7,439,635.076Zm3.082-3.13c.948,0,1.4-.443,1.4-1.163,0-.767-.48-1.164-1.44-1.164H440.74v2.327Z"/><path class="e" d="M446.381,629.08a.8.8,0,0,1,.876-.888h.479a.829.829,0,0,1,.924.636l1.571,3.658,1.583-3.658c.2-.492.4-.636.9-.636h.468a.812.812,0,0,1,.9.888v6.164c0,.528-.2.8-.707.8h-.265c-.491,0-.7-.276-.7-.8v-4.629l-1.3,3.155c-.132.3-.2.551-.9.551s-.743-.252-.887-.551l-1.284-3.1v4.569c0,.528-.192.8-.7.8h-.288c-.48,0-.684-.276-.684-.8Z"/><path class="e" d="M455.477,635.028v-5.8a.875.875,0,0,1,.923-.984h4.318c.552,0,.816.24.816.708v.06c0,.479-.264.708-.816.708H457.24v1.642h2.543c.575,0,.815.216.815.661v.035c0,.467-.252.684-.815.684H457.24v1.811h3.538c.552,0,.8.2.8.659v.061c0,.491-.252.731-.8.731H456.4A.866.866,0,0,1,455.477,635.028Z"/><path class="e" d="M462.629,629.224a.9.9,0,0,1,.923-.984h1.967c2.591,0,4.162,1.451,4.162,3.85s-1.607,3.91-4.222,3.91h-1.847a.977.977,0,0,1-.983-.972Zm5.289,2.879a2.2,2.2,0,0,0-2.447-2.352H464.38v4.738h1.067A2.225,2.225,0,0,0,467.918,632.1Z"/><path class="e" d="M470.909,629c0-.54.263-.8.756-.8h.239a.7.7,0,0,1,.78.8v6.248a.705.705,0,0,1-.78.8h-.239c-.493,0-.756-.276-.756-.8Z"/><path class="e" d="M473.9,632.126a3.887,3.887,0,0,1,4.006-4.054,4.048,4.048,0,1,1-4.006,4.054Zm6.236,0a2.268,2.268,0,0,0-2.242-2.482,2.23,2.23,0,0,0-2.231,2.47,2.248,2.248,0,1,0,4.473.012Z"/></g></g><g class="c"><g class="c"><path class="e" d="M544.09,629.086a1.021,1.021,0,0,1,1.079-1.148h4.65c.659,0,.967.265.967.812v.084c0,.56-.308.84-.967.84h-3.7v2.269h2.661c.672,0,.967.281.967.785v.056c0,.546-.309.812-.967.812h-2.592V636.1c0,.629-.308.952-.91.952h-.323c-.56,0-.868-.42-.868-1.149Z"/><path class="e" d="M551.776,628.819a.825.825,0,0,1,.9-.938h.267c.588,0,.9.308.9.938v4.357c0,1.443.617,2.185,1.835,2.185,1.247,0,1.835-.715,1.835-2.2v-4.343a.819.819,0,0,1,.9-.938h.28c.588,0,.882.308.882.938v4.357c0,2.6-1.344,3.978-3.908,3.978s-3.88-1.344-3.88-3.965Z"/><path class="e" d="M561.114,635.865v-7.046c0-.63.308-.938.868-.938h.294c.6,0,.9.308.9.938v6.36h3.389c.631,0,.953.295.953.869v.056a.83.83,0,0,1-.953.9h-4.37A1.011,1.011,0,0,1,561.114,635.865Z"/><path class="e" d="M568.618,635.865v-7.046c0-.63.308-.938.868-.938h.294c.6,0,.9.308.9.938v6.36h3.389c.631,0,.953.295.953.869v.056a.83.83,0,0,1-.953.9H569.7A1.011,1.011,0,0,1,568.618,635.865Z"/></g></g></g></svg>