<svg xmlns="http://www.w3.org/2000/svg" width="316" height="49" viewBox="0 0 316 49"><defs><style>.a{fill:#fff;}.b{fill:#8f93af;}.c{isolation:isolate;}.d{fill:#383c58;}.e{fill:#0855c4;}</style></defs><g transform="translate(-276.408 -253.642)"><rect class="a" width="316" height="49" transform="translate(276.408 253.642)"/><rect class="a" width="89" height="31" transform="translate(276.408 253.642)"/><path class="b" d="M365.408,284.642h-89v-31h89Zm-88-1h87v-29h-87Z"/><rect class="a" width="89" height="31" transform="translate(392.408 253.642)"/><path class="b" d="M481.408,284.642h-89v-31h89Zm-88-1h87v-29h-87Z"/><rect class="a" width="89" height="31" transform="translate(503.408 253.642)"/><path class="b" d="M592.408,284.642h-89v-31h89Zm-88-1h87v-29h-87Z"/><g class="c"><g class="c"><path class="d" d="M302.553,297.849v-5.3a1.158,1.158,0,0,1-.754.273,1.278,1.278,0,0,1-.832-.3,1.05,1.05,0,0,1-.325-.781.922.922,0,0,1,.507-.91,1.2,1.2,0,0,0,.793.286,1.128,1.128,0,0,0,1.105-.974h.559c.546,0,.832.3.832.883v6.826a.769.769,0,0,1-.832.883h-.247C302.826,298.732,302.553,298.421,302.553,297.849Z"/><path class="d" d="M312.121,294.858h.208a.8.8,0,0,0-.013-.181,1.123,1.123,0,0,0-1.287-1.145,1.59,1.59,0,0,0-1.56.923c-.013.026-1.183.117-1.183-.727a1.161,1.161,0,0,1,.389-.832,3.415,3.415,0,0,1,2.471-.742c2.015,0,2.99.923,2.99,2.626v3.744c0,.091-.338.208-.689.208a.946.946,0,0,1-.962-.61,2.616,2.616,0,0,1-.1-.43,2.534,2.534,0,0,1-2.2,1.092c-1.327,0-2.133-.727-2.133-1.819C308.051,295.548,309.43,294.9,312.121,294.858Zm.208.923h-.351c-1.443.052-2.21.325-2.21,1.04,0,.482.377.781.987.781a1.431,1.431,0,0,0,1.574-1.366Z"/><path class="d" d="M315.488,297.822v-8.008a1.022,1.022,0,0,1,.689-.208c.546,0,1.144.287,1.144,1.469v6.747c0,.663-.338.871-.806.871h-.2C315.839,298.693,315.488,298.5,315.488,297.822Z"/><path class="d" d="M324.7,294.858h.208a.8.8,0,0,0-.013-.181,1.123,1.123,0,0,0-1.287-1.145,1.59,1.59,0,0,0-1.56.923c-.013.026-1.183.117-1.183-.727a1.161,1.161,0,0,1,.389-.832,3.414,3.414,0,0,1,2.47-.742c2.016,0,2.991.923,2.991,2.626v3.744c0,.091-.338.208-.689.208a.946.946,0,0,1-.962-.61,2.612,2.612,0,0,1-.1-.43,2.534,2.534,0,0,1-2.2,1.092c-1.327,0-2.133-.727-2.133-1.819C320.635,295.548,322.014,294.9,324.7,294.858Zm.208.923h-.351c-1.443.052-2.21.325-2.21,1.04,0,.482.377.781.987.781a1.431,1.431,0,0,0,1.574-1.366Z"/><path class="d" d="M334.259,294.768v3.054c0,.663-.35.871-.819.871h-.194c-.481,0-.82-.194-.82-.871v-2.768c0-.846-.428-1.366-1.17-1.366a1.533,1.533,0,0,0-1.391.833v3.3c0,.663-.338.871-.806.871h-.195c-.494,0-.832-.194-.832-.871V292.44c0-.065.325-.208.689-.208a1.052,1.052,0,0,1,1.092,1.067,2.4,2.4,0,0,1,2.093-1.145C333.558,292.154,334.259,293.324,334.259,294.768Zm-5.1-3.615a.663.663,0,0,1-.2-.507,1.279,1.279,0,0,1,1.209-1.365,1.835,1.835,0,0,1,.859.26,3.534,3.534,0,0,1,.858.7c.143-.455.467-.91.806-.91a.673.673,0,0,1,.454.169.655.655,0,0,1,.2.52,1.276,1.276,0,0,1-1.209,1.352,1.612,1.612,0,0,1-.885-.272,3.682,3.682,0,0,1-.832-.7c-.155.455-.455.911-.806.911A.665.665,0,0,1,329.164,291.153Z"/><path class="d" d="M338.641,292.154a3.335,3.335,0,1,1-3.393,3.316A3.193,3.193,0,0,1,338.641,292.154Zm-.014,1.43a1.9,1.9,0,1,0,1.755,1.911A1.769,1.769,0,0,0,338.627,293.584Z"/></g></g><g class="c"><g class="c"><path class="d" d="M412.85,298.667v-.4c0-1.613,1.378-2.393,2.574-2.978,1.053-.494,1.924-.832,1.924-1.559s-.507-1.119-1.417-1.119a1.78,1.78,0,0,0-1.807,1.469c0,.027-1.249.078-1.249-.884a1.875,1.875,0,0,1,.82-1.456,3.9,3.9,0,0,1,2.353-.689c2.015,0,3.159.988,3.159,2.6,0,1.56-1.157,2.12-2.379,2.653-.975.4-1.82.766-2.132,1.469a1.185,1.185,0,0,0-.117.3h3.835c.65,0,.91.26.91.715v.092c0,.493-.26.767-.91.767h-4.407C413.136,299.642,412.85,299.446,412.85,298.667Z"/><path class="d" d="M426.24,295.858h.208a.8.8,0,0,0-.013-.181,1.123,1.123,0,0,0-1.287-1.145,1.591,1.591,0,0,0-1.56.923c-.013.026-1.183.117-1.183-.727a1.161,1.161,0,0,1,.389-.832,3.417,3.417,0,0,1,2.471-.742c2.015,0,2.99.923,2.99,2.626v3.744c0,.091-.338.208-.689.208a.946.946,0,0,1-.962-.61,2.612,2.612,0,0,1-.1-.43,2.532,2.532,0,0,1-2.2,1.092c-1.326,0-2.133-.727-2.133-1.819C422.17,296.548,423.549,295.9,426.24,295.858Zm.208.923H426.1c-1.443.052-2.21.325-2.21,1.04,0,.482.377.781.988.781a1.43,1.43,0,0,0,1.573-1.366Z"/><path class="d" d="M429.606,298.822v-8.008a1.025,1.025,0,0,1,.689-.208c.546,0,1.144.287,1.144,1.469v6.747c0,.663-.337.871-.806.871h-.2C429.958,299.693,429.606,299.5,429.606,298.822Z"/><path class="d" d="M438.824,295.858h.208a.8.8,0,0,0-.013-.181,1.123,1.123,0,0,0-1.287-1.145,1.592,1.592,0,0,0-1.561.923c-.012.026-1.182.117-1.182-.727a1.161,1.161,0,0,1,.389-.832,3.417,3.417,0,0,1,2.471-.742c2.015,0,2.99.923,2.99,2.626v3.744c0,.091-.338.208-.689.208a.946.946,0,0,1-.962-.61,2.707,2.707,0,0,1-.1-.43,2.531,2.531,0,0,1-2.2,1.092c-1.326,0-2.132-.727-2.132-1.819C434.754,296.548,436.132,295.9,438.824,295.858Zm.208.923h-.351c-1.443.052-2.211.325-2.211,1.04,0,.482.377.781.988.781a1.431,1.431,0,0,0,1.574-1.366Z"/><path class="d" d="M448.378,295.768v3.054c0,.663-.35.871-.818.871h-.2c-.481,0-.82-.194-.82-.871v-2.768c0-.846-.428-1.366-1.17-1.366a1.534,1.534,0,0,0-1.391.833v3.3c0,.663-.338.871-.806.871h-.194c-.494,0-.832-.194-.832-.871V293.44c0-.065.324-.208.688-.208a1.053,1.053,0,0,1,1.093,1.067,2.4,2.4,0,0,1,2.092-1.145C447.677,293.154,448.378,294.324,448.378,295.768Zm-5.1-3.615a.663.663,0,0,1-.2-.507,1.279,1.279,0,0,1,1.209-1.365,1.832,1.832,0,0,1,.859.26,3.515,3.515,0,0,1,.858.7c.143-.455.467-.91.806-.91a.673.673,0,0,1,.454.169.654.654,0,0,1,.195.52,1.275,1.275,0,0,1-1.209,1.352,1.612,1.612,0,0,1-.884-.272,3.682,3.682,0,0,1-.832-.7c-.155.455-.455.911-.8.911A.668.668,0,0,1,443.283,292.153Z"/><path class="d" d="M452.759,293.154a3.335,3.335,0,1,1-3.393,3.316A3.194,3.194,0,0,1,452.759,293.154Zm-.013,1.43a1.9,1.9,0,1,0,1.755,1.911A1.769,1.769,0,0,0,452.746,294.584Z"/></g></g><g class="c"><g class="c"><path class="d" d="M526.5,299.277a1.448,1.448,0,0,1-.833-1.118,1.059,1.059,0,0,1,.793-.9,2.8,2.8,0,0,0,2.315,1.131c1.079,0,1.742-.534,1.742-1.378s-.6-1.339-1.678-1.339a2.7,2.7,0,0,0-1.728.519c-.754-.025-1.131-.35-1.131-1.118V292.3c0-.676.285-1.066.923-1.066h4.069c.6,0,.9.248.9.754v.066c0,.507-.286.74-.9.74h-3.393v1.886a4.064,4.064,0,0,1,1.534-.313c1.872,0,3.107,1.015,3.107,2.665,0,1.7-1.313,2.795-3.42,2.795A4.5,4.5,0,0,1,526.5,299.277Z"/><path class="d" d="M539.187,295.858h.209a.741.741,0,0,0-.014-.181,1.122,1.122,0,0,0-1.287-1.145,1.588,1.588,0,0,0-1.559.923c-.013.026-1.183.117-1.183-.727a1.155,1.155,0,0,1,.39-.832,3.411,3.411,0,0,1,2.469-.742c2.016,0,2.991.923,2.991,2.626v3.744c0,.091-.338.208-.69.208a.945.945,0,0,1-.961-.61,2.612,2.612,0,0,1-.1-.43,2.534,2.534,0,0,1-2.2,1.092c-1.326,0-2.131-.727-2.131-1.819C535.119,296.548,536.5,295.9,539.187,295.858Zm.209.923h-.352c-1.443.052-2.21.325-2.21,1.04,0,.482.377.781.989.781a1.431,1.431,0,0,0,1.573-1.366Z"/><path class="d" d="M542.554,298.822v-8.008a1.026,1.026,0,0,1,.69-.208c.546,0,1.144.287,1.144,1.469v6.747c0,.663-.338.871-.806.871h-.2C542.906,299.693,542.554,299.5,542.554,298.822Z"/><path class="d" d="M551.771,295.858h.209a.741.741,0,0,0-.014-.181,1.122,1.122,0,0,0-1.287-1.145,1.588,1.588,0,0,0-1.559.923c-.013.026-1.183.117-1.183-.727a1.155,1.155,0,0,1,.39-.832,3.411,3.411,0,0,1,2.469-.742c2.016,0,2.991.923,2.991,2.626v3.744c0,.091-.338.208-.69.208a.945.945,0,0,1-.961-.61,2.612,2.612,0,0,1-.1-.43,2.534,2.534,0,0,1-2.2,1.092c-1.326,0-2.131-.727-2.131-1.819C547.7,296.548,549.081,295.9,551.771,295.858Zm.209.923h-.352c-1.443.052-2.21.325-2.21,1.04,0,.482.377.781.989.781a1.431,1.431,0,0,0,1.573-1.366Z"/><path class="d" d="M561.327,295.768v3.054c0,.663-.351.871-.82.871h-.2c-.48,0-.818-.194-.818-.871v-2.768c0-.846-.43-1.366-1.17-1.366a1.533,1.533,0,0,0-1.392.833v3.3c0,.663-.338.871-.806.871h-.195c-.494,0-.832-.194-.832-.871V293.44c0-.065.325-.208.69-.208a1.051,1.051,0,0,1,1.091,1.067,2.4,2.4,0,0,1,2.093-1.145C560.625,293.154,561.327,294.324,561.327,295.768Zm-5.1-3.615a.666.666,0,0,1-.2-.507,1.279,1.279,0,0,1,1.209-1.365,1.828,1.828,0,0,1,.858.26,3.5,3.5,0,0,1,.858.7c.143-.455.468-.91.806-.91a.672.672,0,0,1,.455.169.658.658,0,0,1,.2.52,1.276,1.276,0,0,1-1.209,1.352,1.607,1.607,0,0,1-.884-.272,3.639,3.639,0,0,1-.832-.7c-.157.455-.455.911-.807.911A.668.668,0,0,1,556.23,292.153Z"/><path class="d" d="M565.708,293.154a3.335,3.335,0,1,1-3.394,3.316A3.195,3.195,0,0,1,565.708,293.154Zm-.013,1.43a1.9,1.9,0,1,0,1.754,1.911A1.769,1.769,0,0,0,565.7,294.584Z"/></g></g><g class="c"><g class="c"><path class="e" d="M299.22,272.493v-6.765a1.022,1.022,0,0,1,1.079-1.149h3.081c2.045,0,3.152.813,3.152,2.325a1.891,1.891,0,0,1-1.611,1.919,2.221,2.221,0,0,1,1.961,2.241c0,1.751-1.12,2.578-3.67,2.578H300.3A1.022,1.022,0,0,1,299.22,272.493Zm3.712-4.049c.953,0,1.5-.462,1.5-1.217,0-.771-.5-1.15-1.5-1.15h-1.681v2.367Zm.112,3.7c1.233,0,1.737-.365,1.737-1.275,0-.826-.546-1.219-1.737-1.219h-1.793v2.494Z"/><path class="e" d="M312.088,269.565h.224a.865.865,0,0,0-.014-.2,1.208,1.208,0,0,0-1.386-1.232,1.715,1.715,0,0,0-1.682.994c-.014.028-1.274.126-1.274-.784a1.252,1.252,0,0,1,.42-.9,3.686,3.686,0,0,1,2.662-.8c2.17,0,3.221.995,3.221,2.83v4.035c0,.1-.364.223-.742.223a1.02,1.02,0,0,1-1.037-.658,2.794,2.794,0,0,1-.112-.462A2.732,2.732,0,0,1,310,273.8c-1.429,0-2.3-.784-2.3-1.961C307.7,270.308,309.188,269.607,312.088,269.565Zm.224.995h-.378c-1.555.056-2.381.35-2.381,1.121,0,.518.406.84,1.064.84a1.541,1.541,0,0,0,1.7-1.471Zm-2.465-4.8c0-.434.952-2.4,2.115-2.4a.772.772,0,0,1,.8.827c0,1.064-2.045,1.764-2.633,1.764C309.945,265.951,309.847,265.909,309.847,265.755Z"/><path class="e" d="M315.221,272.3a.869.869,0,0,1,.6-.784,2.991,2.991,0,0,0,2.255.924c.77,0,1.191-.266,1.191-.7,0-.532-.547-.63-1.457-.826-.938-.2-2.4-.5-2.4-2.045,0-1.331,1.079-2.214,2.844-2.214a3,3,0,0,1,2.592.912,1.015,1.015,0,0,1,.168.56.981.981,0,0,1-.631.826,2.714,2.714,0,0,0-2-.925c-.756,0-1.162.281-1.162.715,0,.49.532.588,1.456.8.967.21,2.507.519,2.507,2.06,0,1.373-1.092,2.2-3.011,2.2a4.489,4.489,0,0,1-2.353-.519A1.192,1.192,0,0,1,315.221,272.3Z"/><path class="e" d="M323.37,263.683a1.026,1.026,0,1,1-1.106,1.022A.987.987,0,0,1,323.37,263.683Zm-.995,4c0-.714.379-.952.883-.952h.21c.519,0,.883.224.883.952v5.071c0,.715-.364.938-.883.938h-.2c-.532,0-.9-.21-.9-.938Z"/><path class="e" d="M329.1,266.651a3.466,3.466,0,0,1,2.241.687,1.651,1.651,0,0,1,.672,1.177c0,.8-1.065.953-1.107.869a1.683,1.683,0,0,0-1.722-1.135,2,2,0,0,0,0,3.992,1.707,1.707,0,0,0,1.722-1.135c.042-.084,1.107.028,1.107.882a1.581,1.581,0,0,1-.686,1.15,3.65,3.65,0,0,1-5.8-2.914A3.452,3.452,0,0,1,329.1,266.651Z"/><path class="e" d="M336.377,266.651a3.594,3.594,0,1,1-3.656,3.573A3.442,3.442,0,0,1,336.377,266.651Zm-.014,1.541a2.052,2.052,0,1,0,1.891,2.06A1.906,1.906,0,0,0,336.363,268.192Z"/></g></g><g class="c"><g class="c"><path class="e" d="M402.2,265.638c0-.54.264-.8.756-.8h.24a.7.7,0,0,1,.779.8v6.248a.7.7,0,0,1-.779.8h-.24c-.492,0-.756-.275-.756-.8Z"/><path class="e" d="M405.463,271.886v-6.177c0-.563.276-.875.768-.875h.216a.979.979,0,0,1,.9.5l3.346,4.617v-4.317c0-.529.24-.8.756-.8h.168c.48,0,.731.275.731.8v6.176c0,.576-.287.875-.755.875h-.144a.86.86,0,0,1-.84-.443l-3.478-4.786v4.426a.7.7,0,0,1-.767.8H406.2C405.7,272.689,405.463,272.414,405.463,271.886Z"/><path class="e" d="M415.794,266.429h-1.751c-.528,0-.816-.264-.816-.755v-.061c0-.479.288-.731.816-.731h5.241c.54,0,.816.252.816.731v.061c0,.491-.276.755-.816.755h-1.715v5.457a.718.718,0,0,1-.792.8h-.252c-.479,0-.731-.275-.731-.8Z"/><path class="e" d="M420.979,271.67v-5.805a.875.875,0,0,1,.924-.983h4.317c.552,0,.816.24.816.708v.059c0,.48-.264.708-.816.708h-3.478V268h2.543c.576,0,.816.216.816.66v.035c0,.468-.252.685-.816.685h-2.543v1.81h3.538c.552,0,.8.2.8.66v.06c0,.491-.252.732-.8.732H421.9A.866.866,0,0,1,420.979,271.67Z"/><path class="e" d="M428.131,271.718v-5.853a.875.875,0,0,1,.924-.983h2.278c2.015,0,3.047.84,3.047,2.423a2.106,2.106,0,0,1-1.643,2.194,1.9,1.9,0,0,1-.384.072l2.039,2.471c.072.084-.264.647-1.02.647-.516,0-.791-.215-1.163-.719l-1.7-2.123h-.612v2.039a.714.714,0,0,1-.779.8h-.24C428.395,272.689,428.131,272.342,428.131,271.718Zm3.082-3.13c.948,0,1.4-.443,1.4-1.163,0-.768-.48-1.164-1.44-1.164H429.87v2.327Z"/><path class="e" d="M435.511,265.722a.8.8,0,0,1,.875-.888h.481c.55,0,.718.168.923.636l1.571,3.658,1.583-3.658c.2-.492.395-.636.9-.636h.469a.811.811,0,0,1,.9.888v6.164c0,.528-.2.8-.707.8h-.263c-.492,0-.7-.275-.7-.8v-4.629l-1.3,3.154c-.132.3-.2.552-.9.552s-.744-.252-.888-.552l-1.283-3.1v4.57c0,.528-.192.8-.7.8H436.2c-.481,0-.684-.275-.684-.8Z"/><path class="e" d="M444.607,271.67v-5.805a.875.875,0,0,1,.924-.983h4.316c.553,0,.817.24.817.708v.059c0,.48-.264.708-.817.708H446.37V268h2.543c.575,0,.815.216.815.66v.035c0,.468-.252.685-.815.685H446.37v1.81h3.538c.551,0,.8.2.8.66v.06c0,.491-.252.732-.8.732h-4.377A.866.866,0,0,1,444.607,271.67Z"/><path class="e" d="M451.759,265.865a.9.9,0,0,1,.923-.983h1.967c2.591,0,4.161,1.451,4.161,3.849s-1.606,3.911-4.221,3.911h-1.847a.978.978,0,0,1-.983-.972Zm5.289,2.879a2.2,2.2,0,0,0-2.447-2.351h-1.092v4.738h1.069A2.224,2.224,0,0,0,457.048,268.744Z"/><path class="e" d="M460.039,265.638c0-.54.263-.8.755-.8h.241a.7.7,0,0,1,.779.8v6.248a.7.7,0,0,1-.779.8h-.241c-.492,0-.755-.275-.755-.8Z"/><path class="e" d="M463.027,268.768a3.887,3.887,0,0,1,4.006-4.054,4.048,4.048,0,1,1-4.006,4.054Zm6.236,0a2.269,2.269,0,0,0-2.242-2.483,2.23,2.23,0,0,0-2.231,2.471,2.248,2.248,0,1,0,4.473.012Z"/></g></g><g class="c"><g class="c"><path class="e" d="M533.22,265.728a1.022,1.022,0,0,1,1.078-1.149h4.651c.658,0,.967.266.967.813v.084c0,.559-.309.839-.967.839h-3.7v2.27h2.662c.672,0,.966.28.966.784v.057c0,.546-.308.811-.966.811h-2.591v2.508a.828.828,0,0,1-.911.952h-.323c-.559,0-.868-.42-.868-1.148Z"/><path class="e" d="M540.906,265.461a.825.825,0,0,1,.9-.939h.267c.588,0,.9.309.9.939v4.356c0,1.444.617,2.186,1.835,2.186,1.246,0,1.835-.715,1.835-2.2v-4.343a.82.82,0,0,1,.9-.939h.28c.588,0,.883.309.883.939v4.356c0,2.606-1.346,3.979-3.908,3.979s-3.881-1.345-3.881-3.965Z"/><path class="e" d="M550.244,272.507v-7.046c0-.63.308-.939.868-.939h.294c.6,0,.9.309.9.939v6.359h3.391c.63,0,.952.295.952.869v.056a.83.83,0,0,1-.952.9h-4.371A1.011,1.011,0,0,1,550.244,272.507Z"/><path class="e" d="M557.748,272.507v-7.046c0-.63.308-.939.868-.939h.294c.6,0,.9.309.9.939v6.359H563.2c.63,0,.952.295.952.869v.056a.83.83,0,0,1-.952.9h-4.371A1.011,1.011,0,0,1,557.748,272.507Z"/></g></g></g></svg>