<?xml version="1.0" encoding="UTF-8"?>
<svg width="17px" height="18px" viewBox="0 0 17 18" version="1.1" xmlns="http://www.w3.org/2000/svg" xmlns:xlink="http://www.w3.org/1999/xlink">
    <!-- Generator: sketchtool 55.2 (78181) - https://sketchapp.com -->
    <title>50B758E5-979E-4337-A4C8-B601E8C1A0F6</title>
    <desc>Created with sketchtool.</desc>
    <defs>
        <polygon id="path-1" points="0 0.27999 16.7208421 0.27999 16.7208421 17.1 0 17.1"></polygon>
    </defs>
    <g id="Web" stroke="none" stroke-width="1" fill="none" fill-rule="evenodd">
        <g id="Actualizar-tarjeta-Copy" transform="translate(-883.000000, -440.000000)">
            <g id="Group-6" transform="translate(883.000000, 440.000000)">
                <g id="Group-3" transform="translate(0.000000, 0.620100)">
                    <mask id="mask-2" fill="white">
                        <use xlink:href="#path-1"></use>
                    </mask>
                    <g id="Clip-2"></g>
                    <path d="M8.36006316,1.64439 C4.49837895,1.64439 1.35606316,4.80519 1.35606316,8.68959 C1.35606316,12.57579 4.49837895,15.73569 8.36006316,15.73569 C12.2217474,15.73569 15.3649579,12.57579 15.3649579,8.68959 C15.3649579,4.80519 12.2217474,1.64439 8.36006316,1.64439 M8.36006316,17.10009 C3.75037895,17.10009 -0.000357894731,13.32729 -0.000357894731,8.68959 C-0.000357894731,4.05279 3.75037895,0.27999 8.36006316,0.27999 C12.9706421,0.27999 16.7213789,4.05279 16.7213789,8.68959 C16.7213789,13.32729 12.9706421,17.10009 8.36006316,17.10009" id="Fill-1" fill="#EA0C90" mask="url(#mask-2)"></path>
                </g>
                <path d="M6.69424211,13.932 L6.69424211,13.6899 C6.69424211,12.9303 7.07182105,12.5505 7.82787368,12.5505 L8.13745263,12.5505 C8.92661053,12.5505 9.30418947,12.9303 9.30418947,13.6899 L9.30418947,13.932 C9.30418947,14.6934 8.91050526,15.0732 8.13745263,15.0732 L7.82787368,15.0732 C7.07182105,15.0732 6.69424211,14.6934 6.69424211,13.932" id="Path" fill="#EA0C90"></path>
                <path d="M6.95103158,10.7361 C7.01992632,7.8498 9.94034737,8.2818 9.94034737,6.813 C9.94034737,6.0354 9.35697895,5.5512 8.34234737,5.5512 C6.90092632,5.5512 6.24776842,6.5538 6.10997895,7.5384 C6.09387368,7.5744 4.46008421,7.6248 4.46008421,6.3297 C4.46008421,5.1021 5.7664,3.5478 8.37813684,3.5478 C10.8001895,3.5478 12.2604,4.7916 12.2604,6.6402 C12.2604,9.4914 9.11629474,9.1125 8.9624,11.1159 C8.87650526,11.4264 8.53203158,11.583 7.98176842,11.583 C7.3644,11.583 6.93492632,11.3058 6.95103158,10.7361" id="Path" fill="#EA0C90"></path>
            </g>
        </g>
    </g>
</svg>