<?xml version="1.0" encoding="UTF-8"?>
<svg width="13px" height="12px" viewBox="0 0 13 12" version="1.1" xmlns="http://www.w3.org/2000/svg" xmlns:xlink="http://www.w3.org/1999/xlink">
    <!-- Generator: sketchtool 53.2 (72643) - https://sketchapp.com -->
    <title>39B7EE83-5508-44B0-B526-736D39972A13</title>
    <desc>Created with sketchtool.</desc>
    <defs>
        <polygon id="path-1" points="0 -4.24365433e-05 12.96425 -4.24365433e-05 12.96425 11.518 0 11.518"></polygon>
    </defs>
    <g id="Web" stroke="none" stroke-width="1" fill="none" fill-rule="evenodd">
        <g id="Tu-Información" transform="translate(-552.000000, -87.000000)">
            <g id="Indicador-proceso" transform="translate(538.000000, 83.000000)">
                <g id="Group-3" transform="translate(14.000000, 4.000000)">
                    <mask id="mask-2" fill="white">
                        <use xlink:href="#path-1"></use>
                    </mask>
                    <g id="Clip-2"></g>
                    <path d="M12.5307,0.24304 C12.2893875,0.05344 11.98795,-0.02976 11.687325,0.00944 C11.3940125,0.04704 11.1275125,0.19504 10.930075,0.43904 L4.527575,8.74304 L1.9097,6.16464 C1.49045,5.75344 0.7323875,5.75344 0.3131375,6.16464 C-0.1044875,6.57584 -0.1044875,7.32464 0.3131375,7.73584 L3.8402,11.20784 C4.0408875,11.40544 4.33095,11.51824 4.63645,11.51824 C4.9460125,11.51824 5.1735125,11.39744 5.327075,11.31664 L5.4513875,11.25504 L12.717575,1.80944 C12.906075,1.57744 12.990575,1.29024 12.9572625,0.99904 C12.92395,0.70144 12.7720125,0.43264 12.5307,0.24304" id="Fill-1" fill="#FFFFFF" mask="url(#mask-2)"></path>
                </g>
            </g>
        </g>
    </g>
</svg>