<svg xmlns="http://www.w3.org/2000/svg" xmlns:xlink="http://www.w3.org/1999/xlink" width="96" height="96" viewBox="0 0 96 96"><defs><style>.a{fill:#fff;}.ad,.b{fill:none;}.c{clip-path:url(#a);}.d{fill:#dce3ed;}.e{fill:#c1cde0;}.f{fill:#dbdbdb;}.g{fill:#c5e300;}.h{fill:#0854c4;opacity:0.162;}.i{fill:#63d9f7;}.j{fill:#e3e3e3;}.k{fill:#f7f7f7;}.l{fill:#f2f2f2;}.m,.p{mix-blend-mode:multiply;isolation:isolate;}.m{fill:url(#b);}.n{fill:#73799b;}.o{fill:#d5d7e3;}.p{fill:url(#c);}.q{fill:url(#d);}.r{fill:url(#e);}.s{fill:url(#f);}.t{fill:#0133a1;}.u{fill:#c6e4ff;}.v{fill:#00b3ff;}.w{clip-path:url(#g);}.x{fill:#0855c4;}.y{fill:#237bf9;}.z{fill:#41a9a3;}.aa{clip-path:url(#h);}.ab{fill:#2786ff;}.ac{fill:#83baff;}.ad{stroke:#83baff;stroke-linejoin:round;stroke-miterlimit:10;stroke-width:0.5px;}.ae{fill:#10a1ff;}.af{fill:#00c450;}.ag{fill:#039b41;}</style><clipPath id="a"><circle class="a" cx="48" cy="48" r="48"/></clipPath><linearGradient id="b" x1="0.216" y1="1.63" x2="0.617" y2="-0.092" gradientUnits="objectBoundingBox"><stop offset="0" stop-color="#fff"/><stop offset="1" stop-color="#bdbdbd"/></linearGradient><linearGradient id="c" y1="0.5" x2="1" y2="0.5" gradientUnits="objectBoundingBox"><stop offset="0" stop-color="#bdbdbd"/><stop offset="1" stop-color="#fff"/></linearGradient><linearGradient id="d" x1="0.5" y1="1" x2="0.5" gradientUnits="objectBoundingBox"><stop offset="0" stop-color="#c7180e"/><stop offset="0.506" stop-color="#e34a41"/><stop offset="1" stop-color="#ffaba6"/></linearGradient><linearGradient id="e" x1="0.5" y1="1" x2="0.5" gradientUnits="objectBoundingBox"><stop offset="0" stop-color="#f51e11"/><stop offset="0.506" stop-color="#fa5148"/><stop offset="1" stop-color="#ffaba6"/></linearGradient><linearGradient id="f" x1="0.5" y1="1" x2="0.5" gradientUnits="objectBoundingBox"><stop offset="0" stop-color="#ffaba6"/><stop offset="0.494" stop-color="#e34a41"/><stop offset="1" stop-color="#c7180e"/></linearGradient><clipPath id="g"><path class="b" d="M0,0H12.434V12.434H0Z"/></clipPath><clipPath id="h"><path class="b" d="M0,59.014H65.559V0H0Z"/></clipPath></defs><g transform="translate(-298 -282)"><circle class="a" cx="48" cy="48" r="48" transform="translate(298 282)"/><g class="c" transform="translate(298 282)"><g transform="translate(-242.407 -7.527)"><path class="d" d="M229.353,105.178l-114.255.54L101,102.088l1.948-5.482,2.329-6.554L101,77.027,79.92,73.49,68.94,94.913H0V151.1H229.353Z" transform="translate(120.466 -47.234)"/><g transform="translate(120.464 26.034)"><g transform="translate(110.74 60.168)"><path class="e" d="M127.962,150.3c0,1.178-2.076,2.134-4.636,2.134s-4.635-.955-4.635-2.134,2.075-2.135,4.635-2.135S127.962,149.124,127.962,150.3Z" transform="translate(-118.691 -148.169)"/><path class="e" d="M140.75,150.3c0,1.178-2.076,2.134-4.636,2.134s-4.634-.955-4.634-2.134,2.075-2.135,4.634-2.135S140.75,149.124,140.75,150.3Z" transform="translate(-119.548 -148.169)"/><path class="e" d="M153.538,150.3c0,1.178-2.076,2.134-4.635,2.134s-4.635-.955-4.635-2.134,2.075-2.135,4.635-2.135S153.538,149.124,153.538,150.3Z" transform="translate(-120.405 -148.169)"/><path class="e" d="M166.327,150.3c0,1.178-2.076,2.134-4.636,2.134s-4.634-.955-4.634-2.134,2.074-2.135,4.634-2.135S166.327,149.124,166.327,150.3Z" transform="translate(-121.262 -148.169)"/><path class="e" d="M189.34,150.3c0,1.178-2.076,2.134-4.635,2.134s-4.636-.955-4.636-2.134,2.076-2.135,4.636-2.135S189.34,149.124,189.34,150.3Z" transform="translate(-122.803 -148.169)"/><path class="e" d="M202.129,150.3c0,1.178-2.076,2.134-4.636,2.134s-4.634-.955-4.634-2.134,2.074-2.135,4.634-2.135S202.129,149.124,202.129,150.3Z" transform="translate(-123.66 -148.169)"/><path class="e" d="M214.917,150.3c0,1.178-2.076,2.134-4.635,2.134s-4.635-.955-4.635-2.134,2.075-2.135,4.635-2.135S214.917,149.124,214.917,150.3Z" transform="translate(-124.517 -148.169)"/><path class="e" d="M227.706,150.3c0,1.178-2.076,2.134-4.636,2.134s-4.634-.955-4.634-2.134,2.074-2.135,4.634-2.135S227.706,149.124,227.706,150.3Z" transform="translate(-125.374 -148.169)"/><path class="e" d="M249.306,150.3c0,1.178-2.076,2.134-4.636,2.134s-4.635-.955-4.635-2.134,2.076-2.135,4.635-2.135S249.306,149.124,249.306,150.3Z" transform="translate(-126.821 -148.169)"/><path class="e" d="M262.1,150.3c0,1.178-2.077,2.134-4.637,2.134s-4.634-.955-4.634-2.134,2.075-2.135,4.634-2.135S262.1,149.124,262.1,150.3Z" transform="translate(-127.678 -148.169)"/><path class="e" d="M274.883,150.3c0,1.178-2.076,2.134-4.635,2.134s-4.636-.955-4.636-2.134,2.076-2.135,4.636-2.135S274.883,149.124,274.883,150.3Z" transform="translate(-128.535 -148.169)"/><path class="e" d="M287.671,150.3c0,1.178-2.076,2.134-4.635,2.134s-4.635-.955-4.635-2.134,2.075-2.135,4.635-2.135S287.671,149.124,287.671,150.3Z" transform="translate(-129.392 -148.169)"/></g><path class="e" d="M166.427,170.175H113.658l1.65-6.9h50.163Z" transform="translate(-8.83 -92.662)"/><path class="e" d="M207.509,170.175H184.141l-1.214-6.9h22.142Z" transform="translate(-24.416 -92.662)"/><path class="e" d="M238.052,170.175H214.6l-2.89-6.9h22.218Z" transform="translate(-27.561 -92.662)"/><path class="f" d="M274.7,169.823H252.676l-3.669-6.549h20.867Z" transform="translate(-16.682 -89.013)"/><path class="f" d="M298.4,169.823H281.38l-5.248-6.549h20.938l1.328,1.357Z" transform="translate(-18.5 -89.013)"/><path class="f" d="M251.794,138.545H234.912l-5.492-7.718h9.173l2.947,4.141h6.671Z" transform="translate(-15.37 -86.84)"/><path class="f" d="M299.047,138.43h-6.489l-6.776-7.6h9.173l3.636,4.08h.456Z" transform="translate(-19.146 -86.84)"/><path class="f" d="M197.347,138.545H178.555l-1.96-7.718h9.081l1.463,4.141h8.7Z" transform="translate(-11.83 -86.84)"/><path class="f" d="M139.595,138.4H122.679l2.578-9.762h7.437l-1.167,6.185h8.7Z" transform="translate(-8.218 -86.693)"/><path class="f" d="M147.45,138.4h16.916l-1.424-9.762H155.59l-.072,6.185h-7.534Z" transform="translate(-9.878 -86.693)"/><path class="f" d="M219.627,138.545H203.2l-1.473-3.451h8.457l-2.255-4.267h7.322Z" transform="translate(-13.514 -86.84)"/><path class="f" d="M276.737,138.371H259.474L255.824,135h9.767l-3.294-4.171h7.87Z" transform="translate(-17.139 -86.84)"/><path class="f" d="M133.5,124.781h-7.013l2-7.631h6.541Z" transform="translate(-8.473 -85.923)"/><path class="e" d="M139.512,132.626c0,.6-1.056,1.086-2.358,1.086s-2.358-.486-2.358-1.086,1.055-1.085,2.358-1.085S139.512,132.027,139.512,132.626Z" transform="translate(-9.03 -86.887)"/><path class="e" d="M153.4,132.626c0,.6-1.057,1.086-2.359,1.086s-2.357-.486-2.357-1.086,1.055-1.085,2.357-1.085S153.4,132.027,153.4,132.626Z" transform="translate(-9.96 -86.887)"/><path class="g" d="M64.718,118.558c0,.6-1.056,1.086-2.359,1.086S60,119.158,60,118.558s1.056-1.086,2.358-1.086S64.718,117.958,64.718,118.558Z" transform="translate(-4.018 -85.945)"/><path class="g" d="M68.42,109.706c0,.517-.911.936-2.032.936s-2.032-.419-2.032-.936.91-.936,2.032-.936S68.42,109.189,68.42,109.706Z" transform="translate(-4.31 -85.362)"/><path class="e" d="M114.432,98.208c0,.517-.911.936-2.032.936s-2.032-.419-2.032-.936.91-.935,2.032-.935S114.432,97.691,114.432,98.208Z" transform="translate(-7.393 -84.591)"/><path class="e" d="M115.875,94.057c0,.517-.911.936-2.032.936s-2.032-.419-2.032-.936.91-.936,2.032-.936S115.875,93.54,115.875,94.057Z" transform="translate(-7.49 -84.313)"/><path class="g" d="M60.988,122.724c0,.6-1.056,1.086-2.359,1.086s-2.358-.486-2.358-1.086,1.056-1.085,2.358-1.085S60.988,122.125,60.988,122.724Z" transform="translate(-3.768 -86.224)"/><path class="g" d="M73.428,136.27c0,.6-1.056,1.086-2.359,1.086s-2.358-.486-2.358-1.086,1.056-1.085,2.358-1.085S73.428,135.671,73.428,136.27Z" transform="translate(-4.602 -87.132)"/><path class="g" d="M70.113,141.2c0,.6-1.056,1.086-2.358,1.086S65.4,141.8,65.4,141.2s1.055-1.085,2.358-1.085S70.113,140.6,70.113,141.2Z" transform="translate(-4.38 -87.462)"/><path class="g" d="M67.586,146.538c0,.6-1.056,1.086-2.358,1.086s-2.358-.486-2.358-1.086,1.055-1.085,2.358-1.085S67.586,145.938,67.586,146.538Z" transform="translate(-4.211 -87.819)"/><path class="g" d="M64.718,151.542c0,.6-1.056,1.085-2.359,1.085S60,152.141,60,151.542s1.056-1.086,2.358-1.086S64.718,150.942,64.718,151.542Z" transform="translate(-4.018 -88.155)"/><path class="e" d="M192.963,133.092c0,.474-.835.858-1.863.858s-1.864-.384-1.864-.858.834-.858,1.864-.858S192.963,132.618,192.963,133.092Z" transform="translate(-12.677 -86.934)"/><path class="e" d="M207.376,133.092c0,.474-.835.858-1.863.858s-1.864-.384-1.864-.858.834-.858,1.864-.858S207.376,132.618,207.376,133.092Z" transform="translate(-13.643 -86.934)"/><path class="e" d="M247.4,133.092c0,.474-.834.858-1.863.858s-1.864-.384-1.864-.858.834-.858,1.864-.858S247.4,132.618,247.4,133.092Z" transform="translate(-16.325 -86.934)"/><path class="e" d="M260.525,133.092c0,.474-.834.858-1.863.858s-1.863-.384-1.863-.858.834-.858,1.863-.858S260.525,132.618,260.525,133.092Z" transform="translate(-17.204 -86.934)"/><path class="e" d="M67.925,173.355s7.193-16.075,8.416-19.02c1.248-3.006,2.525-3.879,5.386-3.879H97.592c2.483,0,3.717.962,2.353,4.553S93.2,173.355,93.2,173.355Z" transform="translate(-4.549 -88.155)"/><path class="h" d="M86.336,140.209c-1.944,0-2.89-1.441-2.089-3.529,1.866-4.86,5.089-13.23,5.876-15.128,1.149-2.767,2.325-3.572,4.96-3.572h14.608c2.286,0,3.281.835,2.166,4.192-.982,2.953-3.616,11.8-4.762,14.829-.707,1.87-1.658,3.207-4.1,3.207Z" transform="translate(-5.624 -85.979)"/><path class="g" d="M0,173.374l0-22.135a7.534,7.534,0,0,1,2.994-.511H18.857c2.482,0,3.37.952.712,4.5S6.213,173.374,6.213,173.374Z" transform="translate(0.002 -88.173)"/><path class="g" d="M11.15,140.592c-1.944,0-2.372-1.425-.818-3.489,3.616-4.807,9.854-13.083,11.325-14.961,2.146-2.737,3.612-3.532,6.246-3.532H42.511c2.286,0,2.98.827.656,4.145-2.045,2.92-7.865,11.668-10.1,14.666-1.381,1.849-2.813,3.171-5.251,3.171Z" transform="translate(-0.627 -86.021)"/><path class="i" d="M78.976,106.189s1.658,7.215-5.2,15.015-13.117,15.78-17.75,26.286a82.42,82.42,0,0,0-6.094,22.9H26s9.174-22.9,29.016-41.213c4.938-4.558,10.431-10.269,13.129-14.22,2.47-3.615-.168-8.767-.168-8.767Z" transform="translate(-1.74 -85.189)"/><g transform="translate(62.692 24.344)"><path class="j" d="M67.192,115.048h2.083l3.323-1.8h6.188l2.918,1.8h2.254l-4.66-2.356-6.7-.112Z" transform="translate(-67.192 -109.961)"/><path class="k" d="M72.986,112.391l1.645-2.618,6.371.1L79.686,112.5Z" transform="translate(-67.58 -109.773)"/><path class="l" d="M67.192,114.86l5.406-2.469,1.645-2.618-5.14,2.276Z" transform="translate(-67.192 -109.773)"/><path class="a" d="M80.168,112.511l1.316-2.627,4.431,2.172-1.087,2.811Z" transform="translate(-68.061 -109.78)"/><path class="m" d="M69.275,115.1l3.323-1.8h6.188l2.918,1.8h2.254l-6.4,2.571H67.876l-.684-2.571Z" transform="translate(-67.192 -110.009)"/></g><path class="f" d="M117.8,93.926h5.259l-4.785,14.785h-5.734Z" transform="translate(-7.539 -84.367)"/><path class="f" d="M133.357,93.926h5.259L135.3,108.711h-5.734Z" transform="translate(-8.679 -84.367)"/><path class="f" d="M104.654,101.318l3.564-7.392h-5.734l-7.129,14.785h12.894l3.143-7.393Z" transform="translate(-6.387 -84.367)"/><path class="f" d="M113.51,83.681h12.109l-.889,3.386H113.51Z" transform="translate(-7.604 -83.681)"/><path class="f" d="M42.1,107.617h13.03l-2.369,3.052H39.167Z" transform="translate(-2.622 -85.284)"/><path class="f" d="M22.5,107.617H36.447l-3.229,3.052H19.628Z" transform="translate(-1.313 -85.284)"/><path class="f" d="M0,117.367H14.5L3.791,130.709H0Z" transform="translate(0.002 -85.938)"/><path class="f" d="M3.988,107.617H17.194l-3.229,3.052H.375Z" transform="translate(-0.023 -85.284)"/></g><g transform="translate(0 0)"><path class="n" d="M349.36,138.987h0V118.624H186.487l-1.117-11.391H230.1a16.032,16.032,0,0,0,4.577-.609,8.186,8.186,0,0,0,3.115-1.632,4.042,4.042,0,0,0,1.373-2.345,35.526,35.526,0,0,0,.047-3.8l-11.5-18.891a5.734,5.734,0,0,0-1.764-1.841,12.823,12.823,0,0,0-2.824-1.454,19.743,19.743,0,0,0-3.491-.957,21.582,21.582,0,0,0-3.827-.346H129.221a21.611,21.611,0,0,0-3.827.346,19.862,19.862,0,0,0-3.5.957,12.929,12.929,0,0,0-2.833,1.454,5.79,5.79,0,0,0-1.778,1.841l-9.9,17.886H0v15.081H112.118a22.711,22.711,0,0,0,5.369-.664,22.329,22.329,0,0,0,4.825-1.779A15.573,15.573,0,0,0,126,107.929a7.983,7.983,0,0,0,2.06-2.993l7.115-19.918h74.62l2.916,8.326H172.846a19.212,19.212,0,0,0-4.361.489,14.612,14.612,0,0,0-3.655,1.353,8.819,8.819,0,0,0-2.617,2.067,4.884,4.884,0,0,0-1.165,2.638L158.2,126.24l-.094,2.289a9.314,9.314,0,0,0,.9,4.247,10.616,10.616,0,0,0,2.966,3.653,15.35,15.35,0,0,0,4.79,2.563,19.3,19.3,0,0,0,6.085.961H349.36Z" transform="translate(0 -58.628)"/><path class="o" d="M349.36,136.278h0V115.915H186.487l-1.117-11.393H230.1a16.034,16.034,0,0,0,4.577-.608,8.171,8.171,0,0,0,3.115-1.633,4.039,4.039,0,0,0,1.373-2.344,4.257,4.257,0,0,0-.558-2.756L227.712,77.248a5.719,5.719,0,0,0-1.764-1.84,12.875,12.875,0,0,0-2.824-1.456,19.845,19.845,0,0,0-3.491-.957,21.692,21.692,0,0,0-3.827-.346H129.221a21.722,21.722,0,0,0-3.827.346,19.965,19.965,0,0,0-3.5.957,12.982,12.982,0,0,0-2.833,1.456,5.775,5.775,0,0,0-1.778,1.84l-9.9,17.887H0v15.08H112.118a22.651,22.651,0,0,0,5.369-.664,22.332,22.332,0,0,0,4.825-1.779A15.572,15.572,0,0,0,126,105.22a7.987,7.987,0,0,0,2.06-2.994l7.115-19.918h74.62l2.916,8.328H172.846a19.212,19.212,0,0,0-4.361.488,14.611,14.611,0,0,0-3.655,1.353,8.821,8.821,0,0,0-2.617,2.068,4.881,4.881,0,0,0-1.165,2.637l-2.809,28.639a7.991,7.991,0,0,0,.764,4.247,10.623,10.623,0,0,0,2.966,3.652,15.3,15.3,0,0,0,4.79,2.563,19.269,19.269,0,0,0,6.085.961H349.36Z" transform="translate(0 -59.074)"/><g transform="translate(1.865 18.001)"><path class="a" d="M168.25,76.45l.076.344h-4.21l-.062-.344Z" transform="translate(25.128 -76.45)"/><path class="a" d="M117.852,76.45l-.125.344H113.51l.139-.344Z" transform="translate(16.811 -76.45)"/><path class="a" d="M125.054,76.45l-.1.344h-4.21l.11-.344Z" transform="translate(18.002 -76.45)"/><path class="a" d="M132.256,76.45l-.067.344h-4.21l.081-.344Z" transform="translate(19.192 -76.45)"/><path class="a" d="M139.453,76.45l-.038.344H135.2l.053-.344Z" transform="translate(20.381 -76.45)"/><path class="a" d="M146.65,76.45l-.009.344H142.43l.024-.344Z" transform="translate(21.57 -76.45)"/><path class="a" d="M153.847,76.45l.019.344h-4.2l0-.344Z" transform="translate(22.759 -76.45)"/><path class="a" d="M161.049,76.45l.048.344h-4.211l-.034-.344Z" transform="translate(23.943 -76.45)"/><path class="a" d="M175.452,76.45l.105.344h-4.21l-.091-.344Z" transform="translate(26.313 -76.45)"/><path class="a" d="M185.8,76.54a6.493,6.493,0,0,1,.864.176,3.911,3.911,0,0,1,.688.263,2.141,2.141,0,0,1,.5.345,1.344,1.344,0,0,1,.311.425l.3.673h-.715l-.3-.673a1,1,0,0,0-.22-.314,1.433,1.433,0,0,0-.356-.249,2.644,2.644,0,0,0-.5-.186,5.366,5.366,0,0,0-.647-.13Z" transform="translate(28.695 -76.435)"/><path class="a" d="M188.292,80.02l.733,0,1.015,2.265h-.746Z" transform="translate(29.116 -75.862)"/><path class="a" d="M107.935,80.557l-1.039,2.3h-.751l1.054-2.3Z" transform="translate(15.6 -75.774)"/><path class="a" d="M106.13,84.592,105,87.1h-.785l1.149-2.5Z" transform="translate(15.282 -75.11)"/><path class="a" d="M192.767,88.344q.171.37.333.728l.319.7q.156.342.3.663c.1.214.191.422.279.62h-.818c-.087-.2-.181-.405-.276-.62l-.3-.663c-.1-.227-.206-.46-.313-.7s-.214-.481-.325-.728Z" transform="translate(29.721 -74.492)"/><path class="a" d="M169.815,93.5l.1.494h-5.041L164.8,93.5Z" transform="translate(25.25 -73.644)"/><path class="a" d="M178.429,93.5l.14.494h-5.032l-.12-.494Z" transform="translate(26.668 -73.644)"/><path class="a" d="M194.567,93.036l.863.158a.718.718,0,0,1-.363.507,2.293,2.293,0,0,1-.773.261,7.173,7.173,0,0,1-.985.1c-.342.014-.687.014-1,.014h-1.445l-.2-.494H192.1c.337,0,.654,0,.943-.014a6.237,6.237,0,0,0,.767-.07,1.62,1.62,0,0,0,.529-.163A.414.414,0,0,0,194.567,93.036Z" transform="translate(29.505 -73.72)"/><path class="a" d="M152.483,93.5,152.5,94H151.23a7.724,7.724,0,0,0-.969.051,2.643,2.643,0,0,0-.675.164,1.113,1.113,0,0,0-.425.3,1.047,1.047,0,0,0-.215.444l-.843-.073a1.41,1.41,0,0,1,.43-.732,2.051,2.051,0,0,1,.752-.415,4.493,4.493,0,0,1,.94-.185,9.875,9.875,0,0,1,1-.043Z" transform="translate(22.503 -73.644)"/><path class="a" d="M102,93.841l-.833,1.843c-.05.111-.1.219-.148.324s-.1.21-.146.311-.1.2-.15.3-.1.191-.16.283l-.845-.043c.052-.087.1-.177.153-.268s.1-.186.146-.283.1-.195.143-.3.094-.2.142-.305l.854-1.862Z" transform="translate(14.543 -73.588)"/><path class="a" d="M97.3,97.815l-.227.536H91.8l.282-.536H97.3Z" transform="translate(13.239 -72.934)"/><path class="a" d="M52.461,97.815l-.483.536H46.726l.506-.536Z" transform="translate(5.823 -72.934)"/><path class="a" d="M61.43,97.815l-.438.536H55.74l.46-.536Z" transform="translate(7.306 -72.934)"/><path class="a" d="M70.4,97.815l-.393.536H64.753l.416-.536Z" transform="translate(8.789 -72.934)"/><path class="a" d="M88.328,97.815l-.3.536H82.78l.326-.536Z" transform="translate(11.755 -72.934)"/><path class="a" d="M79.36,97.815l-.348.536H73.767l.371-.536Z" transform="translate(10.272 -72.934)"/><path class="a" d="M7.337,97.815l-.483.536H1.6l.506-.536Z" transform="translate(-1.601 -72.934)"/><path class="a" d="M16.305,97.815l-.438.536H10.615l.46-.536Z" transform="translate(-0.118 -72.934)"/><path class="a" d="M25.274,97.815l-.393.536H19.628l.416-.536Z" transform="translate(1.365 -72.934)"/><path class="a" d="M43.2,97.815l-.3.536H37.655l.326-.536Z" transform="translate(4.331 -72.934)"/><path class="a" d="M34.235,97.815l-.348.536H28.642l.371-.536Z" transform="translate(2.848 -72.934)"/><path class="a" d="M148.927,97.367l.011,3.244h-.9l.012-3.244Z" transform="translate(22.493 -73.008)"/><path class="a" d="M148.954,103.093l.013,3.606h-.945l.013-3.606Z" transform="translate(22.49 -72.066)"/><path class="a" d="M148.984,109.46l.014,4.032h-1l.014-4.032Z" transform="translate(22.486 -71.018)"/><path class="a" d="M164.025,117.98l.088.764H157.86l-.056-.764Z" transform="translate(24.099 -69.616)"/><path class="a" d="M174.7,117.98l.152.764H168.6l-.121-.764Z" transform="translate(25.856 -69.616)"/><path class="a" d="M196.034,117.98l.28.764H190.07l-.248-.764Z" transform="translate(29.367 -69.616)"/><path class="a" d="M149.022,116.586a1.452,1.452,0,0,0,.334.847,1.861,1.861,0,0,0,.706.494,3.622,3.622,0,0,0,.869.228,5.91,5.91,0,0,0,.823.055h1.425l.023.764h-1.431a6.772,6.772,0,0,1-1.536-.165,3.93,3.93,0,0,1-1.172-.469,2.353,2.353,0,0,1-.759-.738,2.072,2.072,0,0,1-.311-.975Z" transform="translate(22.485 -69.846)"/><path class="a" d="M200.489,117.981H206.7l.343.763H200.8Z" transform="translate(31.122 -69.616)"/><path class="a" d="M168.479,117.981H174.7l.152.763H168.6Z" transform="translate(25.856 -69.616)"/><path class="a" d="M164.025,117.981l.088.763h-6.252l-.057-.763Z" transform="translate(24.099 -69.616)"/><path class="a" d="M182.67,76.45l.135.344h-4.217l-.12-.344Z" transform="translate(27.499 -76.45)"/><path class="a" d="M110.153,76.886l.388.245a5.455,5.455,0,0,0-.579.275,3.805,3.805,0,0,0-.477.311,2.434,2.434,0,0,0-.363.337,1.447,1.447,0,0,0-.232.351l-.253.559h-.719l.256-.559a1.723,1.723,0,0,1,.278-.419,2.92,2.92,0,0,1,.434-.4,4.529,4.529,0,0,1,.572-.37A6.307,6.307,0,0,1,110.153,76.886Z" transform="translate(15.891 -76.378)"/><path class="a" d="M190.814,84l1.11,2.473h-.78L190.044,84Z" transform="translate(29.404 -75.207)"/><path class="a" d="M104.162,89l-1.245,2.755h-.823L103.358,89Z" transform="translate(14.933 -74.385)"/><path class="a" d="M187.052,93.5l.181.494h-5.041l-.161-.494Z" transform="translate(28.085 -73.644)"/><path class="a" d="M161.195,93.5l.058.494h-5.041l-.037-.494Z" transform="translate(23.831 -73.644)"/><path class="a" d="M179.155,117.981h6.212l.216.763h-6.244Z" transform="translate(27.612 -69.616)"/><path class="a" d="M185.366,117.98l.216.764h-6.244l-.184-.764Z" transform="translate(27.612 -69.616)"/><path class="a" d="M206.7,117.98l.343.764H200.8l-.311-.764Z" transform="translate(31.123 -69.616)"/><path class="a" d="M217.369,117.98l.408.764h-6.253l-.375-.764Z" transform="translate(32.876 -69.616)"/><path class="a" d="M221.825,117.981h6.211l.471.763h-6.243Z" transform="translate(34.633 -69.616)"/><path class="a" d="M228.035,117.98l.471.764h-6.243l-.439-.764Z" transform="translate(34.633 -69.616)"/><path class="a" d="M232.491,117.981H238.7l.535.763h-6.244Z" transform="translate(36.388 -69.616)"/><path class="a" d="M238.7,117.98l.535.764h-6.244l-.5-.764Z" transform="translate(36.388 -69.616)"/><path class="a" d="M249.371,117.98l.6.764h-6.243l-.567-.764Z" transform="translate(38.143 -69.616)"/><path class="a" d="M243.159,117.981h6.212l.6.763h-6.243Z" transform="translate(38.143 -69.616)"/><path class="a" d="M189.822,117.981h6.212l.28.763h-6.245Z" transform="translate(29.367 -69.616)"/><path class="a" d="M211.149,117.981h6.22l.408.763h-6.253Z" transform="translate(32.876 -69.616)"/><path class="a" d="M253.285,117.981h5.787l.5.763h-5.661Z" transform="translate(39.809 -69.616)"/><path class="a" d="M262.761,117.981h6.211l.471.763H263.2Z" transform="translate(41.368 -69.616)"/><path class="a" d="M268.972,117.98l.471.764H263.2l-.439-.764Z" transform="translate(41.368 -69.616)"/><path class="a" d="M273.428,117.981h6.212l.535.763h-6.244Z" transform="translate(43.123 -69.616)"/><path class="a" d="M279.639,117.98l.535.764h-6.244l-.5-.764Z" transform="translate(43.123 -69.616)"/><path class="a" d="M290.307,117.98l.6.764h-6.243l-.567-.764Z" transform="translate(44.878 -69.616)"/><path class="a" d="M284.1,117.981h6.212l.6.763h-6.243Z" transform="translate(44.878 -69.616)"/><path class="a" d="M294.221,117.981h5.787v.763h-5.157Z" transform="translate(46.545 -69.616)"/></g><g transform="translate(73.845)"><path class="p" d="M77.633,100.048c3.732-1.011,13.137-4.042,18.46-5.833,2.93-.986,5.6-1.919,7.809-2.795H76.224c-.214.623-.376,1.237-.525,1.814-.543,2.123-1.443,5.689-1.187,6.81C74.594,100.417,76.5,100.355,77.633,100.048Z" transform="translate(-61.593 -55.986)"/><path class="q" d="M78.061,60.992A14.647,14.647,0,0,0,63.412,75.644c0,4.439,2.957,10.069,5.338,14.649,2.369,4.542,6.325,12.112,7.982,14.471a1.736,1.736,0,0,0,2.521,0c1.758-2.234,5.86-9.441,8.289-14.092,2.859-5.484,5.166-10.682,5.166-15.027A14.65,14.65,0,0,0,78.061,60.992Zm0,21.936a7.287,7.287,0,1,1,7.286-7.284A7.287,7.287,0,0,1,78.061,82.928Z" transform="translate(-63.412 -60.992)"/><path class="r" d="M83.277,75.644a7.285,7.285,0,0,1-7.286,7.284V105.3a1.673,1.673,0,0,0,1.192-.533c1.758-2.234,5.86-9.441,8.289-14.092,2.859-5.484,5.166-10.682,5.166-15.027A14.65,14.65,0,0,0,75.991,60.992v7.362A7.288,7.288,0,0,1,83.277,75.644Z" transform="translate(-61.342 -60.992)"/><path class="s" d="M77.536,64.184A10.933,10.933,0,1,0,88.474,75.119,10.933,10.933,0,0,0,77.536,64.184Zm0,18.219a7.287,7.287,0,1,1,7.286-7.284A7.287,7.287,0,0,1,77.536,82.4Z" transform="translate(-62.887 -60.467)"/></g><g transform="translate(258.001 15.662)"><path class="t" d="M48.241,8.3,35.78.752s-8.125-1.1-13.4-.64A31.2,31.2,0,0,0,11.661,2.671C7.352,4.568,4.174,5.921,0,6.456l45.586,4.583L48.241,8.3" transform="translate(4.661 33.752)"/><path class="u" d="M12.492,0A27.346,27.346,0,0,0,2.45,1.5c-.2.083-.574.255-.652.291l-.677.333L1.1,2.156s-3.026,2.472.973,2.992c4.259.151,9.012.342,13.273.568l.787-5.6C14.972.046,13.747,0,12.492,0" transform="translate(17.316 35.443)"/><path class="u" d="M13.3,5.4,4.887.414S1.946.124.577,0L0,5.4c6.8.373,13.3,0,13.3,0" transform="translate(34.812 35.709)"/><path class="t" d="M65.023,14.622V9.473s-.67-3.885-3.393-5.536c0,0-4.108-1.964-17.01-2.634L4.663.008S.83-.333.6,3.491L0,12.782l10.5,1.845,54.526-.006" transform="translate(0 39.56)"/><path class="v" d="M.652,2.935C1.414,4.045,2.54,4.6,3.166,4.166s.516-1.678-.246-2.788S1.033-.284.406.146-.11,1.825.652,2.935" transform="translate(60.139 44.279)"/><g transform="translate(47.994 46.58)"><path class="b" d="M0,0H12.434V12.434H0Z" transform="translate(0 0)"/><g class="w" transform="translate(0 0)"><path class="x" d="M7.446.124A6.216,6.216,0,1,1,.124,4.989,6.214,6.214,0,0,1,7.446.124" transform="translate(0 0)"/></g></g><path class="y" d="M2.009,4.961A2.505,2.505,0,1,0,.05,2.009a2.508,2.508,0,0,0,1.96,2.953" transform="translate(51.706 50.291)"/><path class="z" d="M.5,0V0Z" transform="translate(34.312 40.664)"/><path class="b" d="M0,59.014H65.559V0H0Z" transform="translate(0 0)"/><g class="aa" transform="translate(0 0)"><path class="ab" d="M.275,13.541H.543V0H.275Z" transform="translate(34.403 40.664)"/><path class="z" d="M.5,0V0Z" transform="translate(17.2 39.997)"/><path class="ab" d="M.275,14.208H.543V0H.275Z" transform="translate(17.291 39.997)"/><path class="x" d="M4.987,12.31A6.216,6.216,0,1,1,12.31,7.446,6.214,6.214,0,0,1,4.987,12.31" transform="translate(10.105 46.58)"/><path class="y" d="M3,.05A2.505,2.505,0,1,0,4.96,3,2.5,2.5,0,0,0,3,.05" transform="translate(13.817 50.291)"/><path class="ac" d="M0,.833H3.512V0H0Z" transform="translate(35.945 42.71)"/><path class="ad" d="M0,.833H3.512V0H0Z" transform="translate(35.945 42.71)"/><path class="ac" d="M0,.833H3.512V0H0Z" transform="translate(18.801 42.71)"/><path class="ad" d="M0,.833H3.512V0H0Z" transform="translate(18.801 42.71)"/><path class="ae" d="M3.75,0H0A5.153,5.153,0,0,1,.227.615,7.246,7.246,0,0,1,0,4.018H3.75a.535.535,0,0,0,.536-.535V.536A.536.536,0,0,0,3.75,0" transform="translate(61.273 50.359)"/><path class="af" d="M10.948,28.123a.786.786,0,0,1-.479-.164,37.049,37.049,0,0,1-5.2-5.114C1.771,18.676,0,14.67,0,10.939a10.948,10.948,0,0,1,21.9,0c0,3.731-1.772,7.737-5.266,11.906a37.477,37.477,0,0,1-5.2,5.114A.777.777,0,0,1,10.948,28.123Zm0-21.236A4.051,4.051,0,1,0,15,10.939,4.057,4.057,0,0,0,10.947,6.887Z" transform="translate(21.45 0)"/><path class="ag" d="M1.413,0A11.062,11.062,0,0,0,0,.09,10.959,10.959,0,0,1,9.536,10.939c0,3.731-1.772,7.737-5.265,11.906A39.047,39.047,0,0,1,0,27.185c.548.474.9.745.933.774a.783.783,0,0,0,.958,0,37.434,37.434,0,0,0,5.2-5.115c3.494-4.169,5.265-8.175,5.265-11.906A10.956,10.956,0,0,0,1.413,0" transform="translate(31.031 0)"/></g></g></g></g></g></g></svg>