<svg xmlns="http://www.w3.org/2000/svg" width="120" height="120" viewBox="0 0 120 120"><defs><style>.a{fill:#63b2e9;}.b{fill:#0033a1;}.c{fill:#00c450;}.d{fill:#fff;}.e{fill:#001f5e;}.f{fill:#0133a1;}</style></defs><g transform="translate(-1000 -735)"><circle class="a" cx="60" cy="60" r="60" transform="translate(1000 735)"/><g transform="translate(1028.673 774.714)"><g transform="translate(0 0)"><path class="b" d="M265.82,249.721l-5.361-37.262a3.1,3.1,0,0,0-1.38-2.158L243.1,199.921a3.1,3.1,0,0,0-4.04.581l-12.409,14.464a3.1,3.1,0,0,0-.715,2.459l5.361,37.262a3.1,3.1,0,0,0,3.509,2.626l14.2-2.043,14.2-2.042A3.1,3.1,0,0,0,265.82,249.721ZM243.149,214.63a3.634,3.634,0,1,1,3.079-4.114A3.634,3.634,0,0,1,243.149,214.63Z" transform="translate(-225.898 -199.421)"/></g></g><g transform="translate(1035.948 774.722)"><path class="c" d="M278.622,212.478a3.1,3.1,0,0,0-1.38-2.158l-15.984-10.38a3.087,3.087,0,0,0-2.495-.383l-6.9,11.613a3.724,3.724,0,0,0-.339,3.059L265.027,255.6l2.133-.307,14.2-2.042a3.1,3.1,0,0,0,2.626-3.509Z" transform="translate(-251.337 -199.448)"/></g><g transform="translate(1037.518 761.324)"><g transform="translate(0 0)"><path class="d" d="M317.656,208.2l-18.669-45.17a4.025,4.025,0,0,0-2.427-2.274l-23.433-7.945a4.024,4.024,0,0,0-4.9,2.024l-10.986,22.171a4.024,4.024,0,0,0-.113,3.323L275.8,225.5a4.024,4.024,0,0,0,5.256,2.182l17.209-7.113,17.209-7.113A4.024,4.024,0,0,0,317.656,208.2ZM277.9,171.3a4.718,4.718,0,1,1,2.558-6.162A4.717,4.717,0,0,1,277.9,171.3Z" transform="translate(-256.826 -152.597)"/></g></g><g transform="translate(1032.458 755.937)"><path class="e" d="M251.164,150.33l1.32-2.664c-5.617-2.886-9.763-6.447-10.32-8.864A1.639,1.639,0,0,1,244,136.735c4.506.225,13.526,8.713,17.477,15.246a1.487,1.487,0,0,0,2.544-1.539c-3.987-6.594-13.711-16.369-19.872-16.677a4.6,4.6,0,0,0-4.88,5.706c1.153,5,9.385,9.571,11.879,10.852Z" transform="translate(-239.132 -133.759)"/></g><g transform="translate(1060.559 788.417)"><path class="f" d="M339.813,281.095a2.418,2.418,0,0,1-2.239-3.326l11.734-28.922a2.417,2.417,0,1,1,4.48,1.817l-11.734,28.923A2.418,2.418,0,0,1,339.813,281.095Z" transform="translate(-337.396 -247.336)"/></g><g transform="translate(1051.505 794.278)"><path class="f" d="M312.46,281.27a6.719,6.719,0,1,1,6.187-9.337h0a6.726,6.726,0,0,1-6.187,9.337Zm0-8.6a1.883,1.883,0,1,0,1.737,1.15A1.871,1.871,0,0,0,312.457,272.666Z" transform="translate(-305.739 -267.831)"/></g><g transform="translate(1072.74 802.878)"><path class="f" d="M386.719,311.343a6.717,6.717,0,1,1,2.607-.53A6.728,6.728,0,0,1,386.719,311.343Zm-.01-8.6a1.883,1.883,0,1,0,1.734,1.151h0a1.887,1.887,0,0,0-1.734-1.151Z" transform="translate(-379.992 -297.904)"/></g><g transform="translate(1059.497 749)"><path class="d" d="M334.6,120.474a.915.915,0,0,1-.915-.915v-9.14a.915.915,0,1,1,1.83,0v9.14A.915.915,0,0,1,334.6,120.474Z" transform="translate(-333.684 -109.504)"/></g><g transform="translate(1083.976 758.394)"><path class="d" d="M420.194,149.159a.915.915,0,0,1-.647-1.561l4.978-4.979a.915.915,0,0,1,1.294,1.293l-4.978,4.979A.913.913,0,0,1,420.194,149.159Z" transform="translate(-419.279 -142.35)"/></g><g transform="translate(1090.972 787.85)"><path class="d" d="M453.8,247.182h-9.14a.915.915,0,1,1,0-1.83h9.14a.915.915,0,1,1,0,1.83Z" transform="translate(-443.746 -245.352)"/></g><g transform="translate(1094.178 799.1)"><path class="d" d="M461.086,288.27a.649.649,0,0,1-.25-.05l-5.478-2.27a.654.654,0,0,1,.5-1.208l5.479,2.27a.654.654,0,0,1-.25,1.258Z" transform="translate(-454.955 -284.692)"/></g><g transform="translate(1070.916 755.697)"><path class="d" d="M374.264,139.708a.654.654,0,0,1-.6-.9l2.27-5.478a.653.653,0,1,1,1.207.5l-2.27,5.478A.653.653,0,0,1,374.264,139.708Z" transform="translate(-373.611 -132.921)"/></g><g transform="translate(1047.199 751.986)"><path class="d" d="M293.455,126.379a.655.655,0,0,1-.6-.4l-2.122-5.125a.654.654,0,1,1,1.207-.5l2.122,5.125a.655.655,0,0,1-.6.9Z" transform="translate(-290.678 -119.945)"/></g><g transform="translate(1086.694 774.684)"><path class="d" d="M429.441,202.893a.654.654,0,0,1-.251-1.258l5.478-2.27a.654.654,0,0,1,.5,1.208l-5.478,2.27A.646.646,0,0,1,429.441,202.893Z" transform="translate(-428.787 -199.315)"/></g><g transform="translate(1028.027 770.939)"><path class="d" d="M229.534,193.03a.912.912,0,0,1-.647-.269l-4.979-4.979a.915.915,0,0,1,1.294-1.293l4.979,4.979a.915.915,0,0,1-.647,1.561Z" transform="translate(-223.641 -186.221)"/></g><g transform="translate(1023.193 821.973)"><path class="d" d="M207.649,371.482a.915.915,0,0,1-.647-1.561l4.978-4.979a.915.915,0,0,1,1.294,1.293l-4.978,4.979A.914.914,0,0,1,207.649,371.482Z" transform="translate(-206.734 -364.674)"/></g><g transform="translate(1013 797.495)"><path class="d" d="M181.149,280.909h-9.14a.915.915,0,1,1,0-1.83h9.14a.915.915,0,0,1,0,1.83Z" transform="translate(-171.093 -279.079)"/></g><g transform="translate(1021.463 784.33)"><path class="d" d="M206.818,236.621a.648.648,0,0,1-.25-.05l-5.478-2.27a.654.654,0,0,1,.5-1.208l5.478,2.27a.654.654,0,0,1-.251,1.258Z" transform="translate(-200.687 -233.044)"/></g><g transform="translate(1018.814 810.679)"><path class="d" d="M192.077,328.757a.654.654,0,0,1-.251-1.258l5.479-2.269a.654.654,0,1,1,.5,1.208l-5.478,2.269A.649.649,0,0,1,192.077,328.757Z" transform="translate(-191.423 -325.18)"/></g></g></svg>