<svg xmlns="http://www.w3.org/2000/svg" xmlns:xlink="http://www.w3.org/1999/xlink" width="77.555" height="77.555" viewBox="0 0 77.555 77.555"><defs><style>.a{fill:none;}.b{fill:#0133a1;}.c{fill:#eaeaf2;}.d{clip-path:url(#a);}.e{clip-path:url(#b);}.f{fill:#63b2e9;}.g{clip-path:url(#c);}.h{clip-path:url(#d);}.i{fill:#9ab3e3;}.j{clip-path:url(#e);}.k{fill:#869dcd;}.l{clip-path:url(#g);}.m{clip-path:url(#h);}.n{clip-path:url(#i);}.o{fill:#17419e;}.p{clip-path:url(#k);}.q{fill:#fff;}.r{clip-path:url(#m);}.s{clip-path:url(#o);}.t{clip-path:url(#p);}.u{clip-path:url(#q);}</style><clipPath id="a"><path class="a" d="M655.777-202.445a38.777,38.777,0,0,0,38.777-38.777A38.777,38.777,0,0,0,655.777-280,38.777,38.777,0,0,0,617-241.223,38.777,38.777,0,0,0,655.777-202.445Z" transform="translate(-617 280)"/></clipPath><clipPath id="b"><path class="a" d="M447-141.815H1716.094V-935H447Z" transform="translate(-447 935)"/></clipPath><clipPath id="c"><path class="a" d="M652.222-226.3l-3.381-3.381,4.033-4.033,3.381,3.381Z" transform="translate(-648.84 233.719)"/></clipPath><clipPath id="d"><path class="a" d="M447-259.57H1527.688V-935H447Z" transform="translate(-447 935)"/></clipPath><clipPath id="e"><path class="a" d="M652.783-225.743l-1.691-1.691,4.033-4.033,1.691,1.691Z" transform="translate(-651.093 231.467)"/></clipPath><clipPath id="g"><path class="b" d="M633.734-211.757l-3.135-3.135a2.847,2.847,0,0,1,0-4.015l9.714-9.714a2.847,2.847,0,0,1,4.015,0l3.135,3.135a2.848,2.848,0,0,1,0,4.015l-9.714,9.714A2.848,2.848,0,0,1,633.734-211.757Z" transform="translate(-629.771 229.449)"/></clipPath><clipPath id="h"><path class="b" d="M447-259.57H1527.688V-935H447Z" transform="translate(-447 935)"/></clipPath><clipPath id="i"><path class="a" d="M634.53-210.96a2.847,2.847,0,0,0,4.015,0l9.714-9.714a2.848,2.848,0,0,0,0-4.015l-1.567-1.567-13.729,13.729Z" transform="translate(-632.963 226.257)"/></clipPath><clipPath id="k"><path class="a" d="M666.25-235.473a17.239,17.239,0,0,0,17.239-17.239,17.239,17.239,0,0,0-17.239-17.239,17.24,17.24,0,0,0-17.24,17.239A17.239,17.239,0,0,0,666.25-235.473Z" transform="translate(-649.01 269.952)"/></clipPath><clipPath id="m"><path class="a" d="M680.119-238.845a17.239,17.239,0,0,0,0-24.38l-24.38,24.38A17.239,17.239,0,0,0,680.119-238.845Z" transform="translate(-655.739 263.224)"/></clipPath><clipPath id="o"><path class="c" d="M667.684-238.353a12.925,12.925,0,0,0,12.925-12.925A12.925,12.925,0,0,0,667.684-264.2a12.925,12.925,0,0,0-12.925,12.925A12.925,12.925,0,0,0,667.684-238.353Z" transform="translate(-654.759 264.203)"/></clipPath><clipPath id="p"><path class="c" d="M447-259.57H1527.688V-935H447Z" transform="translate(-447 935)"/></clipPath><clipPath id="q"><path class="a" d="M678.082-259.16l-18.28,18.28a12.926,12.926,0,0,0,18.279,0A12.926,12.926,0,0,0,678.082-259.16Z" transform="translate(-659.803 259.16)"/></clipPath></defs><g transform="translate(-181 -755.443)"><g class="d" transform="translate(181 755.443)"><g class="e" transform="translate(-149.824 -577.262)"><path class="f" d="M612-198.632h86.368V-285H612Z" transform="translate(-466.583 857.856)"/></g></g><g class="g" transform="translate(209.566 796.49)"><g class="h" transform="translate(-151.477 -526.296)"><path class="i" d="M650.457-222.763l-8.688-8.688,9.34-9.34L659.8-232.1Z" transform="translate(-495.599 761.779)"/></g></g><g class="j" transform="translate(211.257 798.181)"><g class="h" transform="translate(-153.167 -527.986)"><path class="k" d="M651.019-222.2l-7-7,9.34-9.34,7,7Z" transform="translate(-496.161 761.217)"/></g></g><g class="l" transform="translate(195.255 799.696)"><g class="m" transform="translate(-137.166 -529.501)"><path class="b" d="M624.771-208.424H650.8v-26.025H624.771Z" transform="translate(-491.358 760.197)"/></g></g><g class="n" transform="translate(197.65 802.091)"><g class="h" transform="translate(-139.561 -531.896)"><path class="o" d="M627.963-207.627h23.629v-23.629H627.963Z" transform="translate(-492.154 759.401)"/></g></g><g class="p" transform="translate(209.694 769.298)"><g class="h" transform="translate(-151.604 -499.104)"><path class="q" d="M644.01-232.968h41.984v-41.984H644.01Z" transform="translate(-496.158 770.304)"/></g></g><g class="r" transform="translate(214.744 774.347)"><g class="h" transform="translate(-156.654 -504.153)"><path class="q" d="M650.739-231.291h36.934v-36.934H650.739Z" transform="translate(-497.837 768.625)"/></g></g><g class="s" transform="translate(214.008 773.613)"><g class="t" transform="translate(-155.918 -503.418)"><path class="c" d="M649.759-235.848h33.355V-269.2H649.759Z" transform="translate(-497.593 768.869)"/></g></g><g class="u" transform="translate(217.793 777.398)"><g class="h" transform="translate(-159.704 -507.203)"><path class="c" d="M654.8-234.59h29.57v-29.57H654.8Z" transform="translate(-498.851 767.611)"/></g></g></g></svg>