<svg xmlns="http://www.w3.org/2000/svg" width="524.439" height="277.075" viewBox="0 0 524.439 277.075"><defs><style>.a{fill:#0133a1;}.b{fill:#fff;}.c{fill:#63b2e9;}.d{fill:#02339e;}</style></defs><g transform="translate(-5622.126 -230.118)"><path class="a" d="M5892.508,327.524a13.382,13.382,0,0,0-11.388-4.328,14.569,14.569,0,0,0-5.368,1.517,14.1,14.1,0,0,0-4.148,3.166,13.63,13.63,0,0,0-3.412,9.692,12.96,12.96,0,0,0,1.239,5.142,11.936,11.936,0,0,0,2.984,3.906,12.514,12.514,0,0,0,4.329,2.41,13.368,13.368,0,0,0,5.283.576q6.182-.5,10.988-5.95l.457,14.573-1.3.538a41.415,41.415,0,0,1-5.47,1.885,28.537,28.537,0,0,1-5.019.85,26.035,26.035,0,0,1-9.8-1.078,24.189,24.189,0,0,1-14.4-11.919,23.009,23.009,0,0,1-2.629-9.85,24.269,24.269,0,0,1,1.614-10.25,26.936,26.936,0,0,1,5.315-8.49,28.28,28.28,0,0,1,8.116-6.061,28.385,28.385,0,0,1,15.926-2.818,35.319,35.319,0,0,1,6.216,1.338Z"/><path class="a" d="M5910.323,309.46l.6,26.629q.047,2.112.265,4.305a10.773,10.773,0,0,0,1.1,3.9,6.171,6.171,0,0,0,2.72,2.676,9.543,9.543,0,0,0,5.145.7,10.2,10.2,0,0,0,5.092-1.527,7.8,7.8,0,0,0,2.641-3.127,11.4,11.4,0,0,0,1-4.1q.14-2.235.112-4.365l-.367-26.828,13.58-1.292.207,28.735q.081,11.373-5.383,16.964-5.423,5.57-16.682,6.423-11.191.855-16.694-3.809c-3.682-3.11-5.632-8.367-5.845-15.81l-.815-28.2Z"/><path class="a" d="M5947.515,330.822a25.768,25.768,0,0,1,2.118-10.453,29.258,29.258,0,0,1,6.016-8.936,31.925,31.925,0,0,1,9.32-6.532,36.159,36.159,0,0,1,12.062-3.2,33.112,33.112,0,0,1,12.093.915,25.332,25.332,0,0,1,9.513,4.833,22.307,22.307,0,0,1,6.11,7.981,23.136,23.136,0,0,1,2.009,10.312,26.057,26.057,0,0,1-2.483,10.588,29.406,29.406,0,0,1-6.379,8.816,32.533,32.533,0,0,1-9.511,6.237,36.2,36.2,0,0,1-11.849,2.879,32.816,32.816,0,0,1-11.743-1.058,24.939,24.939,0,0,1-9.113-4.716,22.49,22.49,0,0,1-5.97-7.675A23.026,23.026,0,0,1,5947.515,330.822Zm14.308-1.229a11.738,11.738,0,0,0,1.178,5.332,12.075,12.075,0,0,0,3.206,4.035,13.177,13.177,0,0,0,4.718,2.445,15.7,15.7,0,0,0,5.724.544,17.573,17.573,0,0,0,10.632-4.724,15.644,15.644,0,0,0,3.382-4.622,13.283,13.283,0,0,0,1.308-5.6,11.787,11.787,0,0,0-1.132-5.418,11.922,11.922,0,0,0-3.274-4.116,13.631,13.631,0,0,0-4.84-2.473,15.75,15.75,0,0,0-5.82-.508,17.331,17.331,0,0,0-5.815,1.562,16.973,16.973,0,0,0-4.806,3.324,15.812,15.812,0,0,0-3.262,4.655A13.188,13.188,0,0,0,5961.823,329.593Z"/><path class="a" d="M6033.031,309.176l-1.436,39.49-14.222,1.094,1.156-39.264-11.8,1.077.269-11.3,38.543-3.666-.483,11.483Z"/><path class="a" d="M6078.454,336.272l-21.042,1.684-3.764,9.013-15.4,1.185,23.76-53.123,16.43-1.563,18.768,50.148-15.879,1.222Zm-3.359-9.8-5.736-16.669-7.558,17.78Z"/><path class="a" d="M5878.531,391.179l25.189-1.645a60.7,60.7,0,0,1-.15,6.611,22.237,22.237,0,0,1-4.661,12,21.769,21.769,0,0,1-5.3,4.814,27.208,27.208,0,0,1-6.715,3.12,31.573,31.573,0,0,1-7.712,1.367,28.839,28.839,0,0,1-10.2-1.13,22.66,22.66,0,0,1-8.035-4.315,21.272,21.272,0,0,1-5.443-7.08,24.416,24.416,0,0,1-2.313-9.472,25.318,25.318,0,0,1,1.3-9.737,21.844,21.844,0,0,1,4.762-7.907,24.608,24.608,0,0,1,7.862-5.5,30.971,30.971,0,0,1,10.572-2.551,27.341,27.341,0,0,1,13.587,2.151,20.954,20.954,0,0,1,9.521,9.034l-11.972,5.505a11.089,11.089,0,0,0-4.56-5.1,11.241,11.241,0,0,0-6.167-1.217,13.114,13.114,0,0,0-5.108,1.36,11.5,11.5,0,0,0-3.819,3.109,13.741,13.741,0,0,0-2.354,4.586,18.18,18.18,0,0,0,.365,11.026,11.415,11.415,0,0,0,2.562,4.054,10.436,10.436,0,0,0,4.046,2.509,14.1,14.1,0,0,0,5.5.649,16.471,16.471,0,0,0,3.555-.592,10.094,10.094,0,0,0,3.054-1.429,7.647,7.647,0,0,0,2.2-2.366,8.753,8.753,0,0,0,1.107-3.416l-10.322.638Z"/><path class="a" d="M5950.437,412.238l-16.205.9-12.6-16.737.311,17.423-12.76.712-1.11-45.707,20.365-1.485a21.125,21.125,0,0,1,7.434.619,13.461,13.461,0,0,1,5.276,2.785,12.1,12.1,0,0,1,3.15,4.4,14.37,14.37,0,0,1,1.085,5.528,13.538,13.538,0,0,1-2.741,8.8,15.282,15.282,0,0,1-8.161,4.96Zm-28.944-23.56,2.454-.16a10.538,10.538,0,0,0,5.9-1.857,5.189,5.189,0,0,0,2.016-4.384,4.631,4.631,0,0,0-2.132-4.122,9.8,9.8,0,0,0-5.972-1.074l-2.467.172Z"/><path class="a" d="M5983.958,402.347l-19.116,1.122-3.067,8.137-14.009.784,19.506-47.874,14.9-1.086,19.183,45.969-14.421.8Zm-3.463-8.988-5.915-15.27-6.158,16.022Z"/><path class="a" d="M6022.743,371.172l-1.2,37.1-13.723.765.941-36.9-11.382.787.211-10.62,37.16-2.71-.41,10.776Z"/><path class="a" d="M6051.792,358.352l-2.247,48.359-14,.784,1.893-48.093Z"/><path class="a" d="M6089.9,368.3a16.069,16.069,0,0,0-4.641-2.205,13.463,13.463,0,0,0-4.592-.5,9.118,9.118,0,0,0-4.7,1.5,4.14,4.14,0,0,0-1.965,3.2,2.522,2.522,0,0,0,.766,2.1,6.6,6.6,0,0,0,2.253,1.311,19.431,19.431,0,0,0,3.207.858q1.8.336,3.554.739,7.036,1.618,10.138,4.894t2.709,8.85a16.838,16.838,0,0,1-1.922,6.858,17.064,17.064,0,0,1-4.58,5.4,23.508,23.508,0,0,1-7,3.689,35.912,35.912,0,0,1-28.074-2.6l6.6-10.375a21.932,21.932,0,0,0,6.153,3.315,16.278,16.278,0,0,0,6.155.839,9.047,9.047,0,0,0,5.341-1.717,4.706,4.706,0,0,0,1.932-3.31,3.207,3.207,0,0,0-1.713-3.261,10.911,10.911,0,0,0-2.622-1.088q-1.627-.477-3.945-1.037-2.758-.6-5.385-1.361a15.484,15.484,0,0,1-4.637-2.175,9.969,9.969,0,0,1-3.17-3.684,11.665,11.665,0,0,1-.98-5.907,16.882,16.882,0,0,1,1.7-6.708,17.624,17.624,0,0,1,4.11-5.391,20.816,20.816,0,0,1,6.282-3.776,27.733,27.733,0,0,1,8.185-1.794,38.905,38.905,0,0,1,8.745.388,37.621,37.621,0,0,1,8.655,2.391Z"/><path class="a" d="M5910.324,309.459l7.521,1.288-9.6,6.772Z"/><path class="a" d="M5942.21,306.424l7.521,1.288s-6.64,8.932-8.12,7.219S5942.21,306.424,5942.21,306.424Z"/><path class="a" d="M6045.54,296.6l7.522,1.289-6.718,5.033-4.714-2.884Z"/><path class="a" d="M6006.729,311.57l7.521,1.288,3.461-4.22-7.5-2.235Z"/><path class="a" d="M6038.249,348.155l7.521,1.288,3.821-2.162-.376-1.544Z"/><path class="a" d="M6081.33,344.839l7.521,1.289,1.811-1.348.206-2.924-2.849-1.284Z"/><path class="a" d="M6078.444,293.471l7.522,1.288-4.242,6.2-9-1.689Z"/><path class="a" d="M6051.791,358.352l7.521,1.288-9.742,7.71Z"/><path class="a" d="M6034.748,359.6l6,3.306.992,1.985-8.965,1.284-1.177-1.823Z"/><path class="a" d="M6017.374,349.759l7.522,1.289,5.129-2.713-3.62-4.2Z"/><path class="a" d="M6061.666,392.016l7.522,1.288-1.517,3.929-5.971-2.16Z"/><path class="a" d="M5986.936,410.2l7.522,1.288,1.973-1.817-2.8-3.433Z"/><path class="a" d="M6007.818,409.039l7.931,1.354,2.3-3.37-2.589-2.252Z"/><path class="a" d="M6035.544,407.491l7.522,1.288,2.114-2.366L6044,404.1Z"/><path class="a" d="M5997.376,372.925l7.522,1.288,2.457-2.776-.7-1.618Z"/><path class="a" d="M5909.182,414.542l7.522,1.288,3.626-2.855-1.4-2.142Z"/><path class="a" d="M5934.232,413.143l7.522,1.289,3.358-3.981-5.289-.817Z"/><path class="a" d="M5982.172,363.429l7.522,1.288-3.322,6.421-10.72-3.5Z"/><path class="a" d="M5888.828,386.45l7.522,1.288,2.23-4.5-5.762-4.344Z"/><path class="a" d="M5878.889,400.262l7.521,1.289,2.452-3.872-6.087-1.344Z"/><path class="b" d="M6027.488,464.6l-.221-2.306,76.275-7.329a31.651,31.651,0,0,0,18.364-7.4,23.925,23.925,0,0,0,8.463-15.7l13.787-144.168a21.882,21.882,0,0,0-6.441-17.559c-5.933-6.07-14.666-9.165-23.958-8.491l-86.053,6.248-.167-2.311,86.052-6.248c9.974-.724,19.372,2.623,25.784,9.183a24.165,24.165,0,0,1,7.092,19.4l-13.787,144.168a26.23,26.23,0,0,1-9.254,17.236,33.982,33.982,0,0,1-19.7,7.96Z"/><path class="b" d="M5675.951,487.925a31.631,31.631,0,0,1-19.9-9.047,24.206,24.206,0,0,1-7.207-19.27l12.388-144.123a26.157,26.157,0,0,1,9.184-17.382,33.946,33.946,0,0,1,19.808-8.04l61.485-4.465.168,2.311-61.485,4.465a31.622,31.622,0,0,0-18.453,7.474,23.858,23.858,0,0,0-8.4,15.835l-12.389,144.124a21.925,21.925,0,0,0,6.548,17.443c5.933,6.012,14.636,9.075,23.876,8.4l79.607-5.379.156,2.311-79.6,5.379A36.233,36.233,0,0,1,5675.951,487.925Z"/><path class="a" d="M6017.029,237.61l-.168-2.31,70.094-5.088c11.24-.817,22,3.735,28.093,11.878l-1.855,1.387c-5.622-7.516-15.61-11.714-26.071-10.954Z"/><path class="a" d="M5632.906,452.761c-7.537-5.516-11.433-13.633-10.69-22.27L5634.6,286.367a26.157,26.157,0,0,1,9.184-17.382,33.944,33.944,0,0,1,19.807-8.039l92.285-6.7.168,2.31-92.284,6.7a31.624,31.624,0,0,0-18.452,7.475,23.855,23.855,0,0,0-8.4,15.835l-12.388,144.124c-.673,7.811,2.882,15.175,9.751,20.2Z"/><path class="a" d="M6005.23,494.163l-229.543,13.012a5.643,5.643,0,0,1-6.075-5.175c-.012-.142-.017-.285-.018-.429l.892-34.6a5.5,5.5,0,0,1,5.327-5.243l229.573-12.6a5.642,5.642,0,0,1,6.065,5.184c.011.142.017.284.017.426l-.921,34.185A5.505,5.505,0,0,1,6005.23,494.163Z"/><path class="a" d="M5780.546,454.825l-8.6,8.661,4.384,6.2s11.948.466,12.4-.422,4.843-5.188,4.843-5.188Z"/><path class="a" d="M6018.439,482.748l-9.42,9.726-6.529-7.363,8.367-7.69Z"/><path class="c" d="M6015.369,483.62l-231.547,14.788a5.565,5.565,0,0,1-6.073-5.007c-.018-.181-.026-.362-.026-.544l1.183-34.6a5.638,5.638,0,0,1,5.415-5.284L6015.894,438.6a5.565,5.565,0,0,1,6.063,5.017c.017.181.025.363.024.545l-1.209,34.187A5.638,5.638,0,0,1,6015.369,483.62Z"/><path class="a" d="M5780.091,404.46l-1.48,27.913-92.3,7.319.349-6.977c52.224-59.274,59.611-68.908,60.133-78.95.33-6.347-3.923-10.136-10.313-9.468-6.981.729-11.449,5.578-11.808,12.58l-.115,2.247-32.42,3.265.107-2.131c1.171-23.318,18.156-40.565,45.257-43.6,26.65-2.986,44.463,10.363,43.288,32.556-.787,14.857-7.316,26.815-35.8,58.3Z"/><path class="a" d="M5692.132,362.387l8.441,3.942,2-4.333.151-2.142Z"/><path class="a" d="M5780.091,404.46l8.441,3.941-7.68,5.928-6.678-2.219Z"/><path class="a" d="M5686.307,439.689l8.44,3.942,2.9-5.531s1.136-1.443.132-1.879-4.491-1.96-4.491-1.96l-2.392,1.111Z"/><path class="b" d="M5788.531,408.4l-1.479,27.912-92.3,7.32.35-6.978c52.224-59.274,59.612-68.907,60.133-78.949.33-6.347-3.922-10.136-10.313-9.469-6.981.729-11.449,5.578-11.808,12.581l-.114,2.247-32.42,3.265.107-2.132c1.172-23.317,18.156-40.565,45.257-43.6,26.65-2.985,44.463,10.362,43.287,32.555-.787,14.858-7.316,26.816-35.795,58.3Z"/><path class="b" d="M5791.86,485.631l1.619-9.249,2.512-.157-1.121,9.218Zm3.286-14.121a1.964,1.964,0,0,1,.719.077,1.623,1.623,0,0,1,.557.3,1.428,1.428,0,0,1,.37.472,1.519,1.519,0,0,1,.154.594,1.786,1.786,0,0,1-.075.666,1.493,1.493,0,0,1-.306.542,1.572,1.572,0,0,1-.514.382,1.875,1.875,0,0,1-.7.171,1.956,1.956,0,0,1-.718-.077,1.614,1.614,0,0,1-.557-.3,1.421,1.421,0,0,1-.37-.477,1.576,1.576,0,0,1-.156-.6,1.831,1.831,0,0,1,.077-.661,1.465,1.465,0,0,1,.306-.544,1.661,1.661,0,0,1,.514-.376,1.893,1.893,0,0,1,.7-.172Z"/><path class="b" d="M5804.959,468.147a5.578,5.578,0,0,1,1.842.168,4.072,4.072,0,0,1,1.451.716,3.606,3.606,0,0,1,.982,1.19,4.047,4.047,0,0,1,.423,1.612,5.644,5.644,0,0,1-.291,2.275,4.882,4.882,0,0,1-1.1,1.772,5.335,5.335,0,0,1-1.786,1.188,7.237,7.237,0,0,1-2.353.52l-2.652.17-.648,4.27-2.849.178L5800,468.457Zm-3.169,7.28,2.153-.135a3.607,3.607,0,0,0,1.229-.279,2.772,2.772,0,0,0,.918-.63,2.5,2.5,0,0,0,.556-.923,2.977,2.977,0,0,0,.145-1.169,1.738,1.738,0,0,0-.682-1.388,2.534,2.534,0,0,0-1.673-.38l-1.9.119Z"/><path class="b" d="M5816.519,481.395a6.423,6.423,0,0,1-2.444-.286,5.471,5.471,0,0,1-1.924-1.092,5.37,5.37,0,0,1-1.3-1.754,6.193,6.193,0,0,1-.562-2.264,10.427,10.427,0,0,1,.108-2.382,9.4,9.4,0,0,1,.6-2.105,7.689,7.689,0,0,1,1.036-1.769,7.4,7.4,0,0,1,1.416-1.382,6.813,6.813,0,0,1,1.736-.925,7.154,7.154,0,0,1,2-.409,6.46,6.46,0,0,1,2.463.285,5.231,5.231,0,0,1,3.195,2.849,6.312,6.312,0,0,1,.553,2.264,10.739,10.739,0,0,1-.108,2.385,9.056,9.056,0,0,1-.6,2.11,7.9,7.9,0,0,1-1.036,1.769,7.078,7.078,0,0,1-1.41,1.372,6.915,6.915,0,0,1-1.732.921A7.122,7.122,0,0,1,5816.519,481.395Zm3.976-8.567a4.264,4.264,0,0,0-.31-1.392,3.222,3.222,0,0,0-.688-1.046,2.737,2.737,0,0,0-1-.636,3.106,3.106,0,0,0-1.261-.166,3.533,3.533,0,0,0-1.7.554,4.456,4.456,0,0,0-1.318,1.3,6.134,6.134,0,0,0-.822,1.883,7.261,7.261,0,0,0-.2,2.283,4.292,4.292,0,0,0,.309,1.4,3.256,3.256,0,0,0,.689,1.043,2.712,2.712,0,0,0,1.007.634,3.142,3.142,0,0,0,1.276.166,3.532,3.532,0,0,0,1.694-.545,4.436,4.436,0,0,0,1.318-1.3,5.927,5.927,0,0,0,.816-1.878,7.375,7.375,0,0,0,.191-2.306Z"/><path class="b" d="M5826.147,466.819l5.368-.334a5,5,0,0,1,1.739.175,4,4,0,0,1,1.4.709,3.579,3.579,0,0,1,.951,1.163,3.815,3.815,0,0,1,.408,1.532,4.5,4.5,0,0,1-.145,1.463,4.681,4.681,0,0,1-.587,1.326,4.774,4.774,0,0,1-.992,1.105,5.133,5.133,0,0,1-1.353.793l2.191,5.13-3.056.192-1.926-4.817-2.422.153-.744,4.984-2.859.179Zm1.872,6.377,2.482-.155a3.542,3.542,0,0,0,1.126-.245,2.658,2.658,0,0,0,.85-.544,2.171,2.171,0,0,0,.517-.783,2.285,2.285,0,0,0,.136-.972,1.692,1.692,0,0,0-.61-1.3,2.141,2.141,0,0,0-1.506-.378l-2.332.147Z"/><path class="b" d="M5843.757,479.338l1.689-11.293-4.062.255.346-2.457,10.983-.689-.346,2.458-4.062.254-1.69,11.293Z"/><path class="b" d="M5852.207,478.813l2.036-13.75,2.859-.179-2.036,13.75Z"/><path class="b" d="M5866.383,477.918l-9,.564,2.036-13.75,8.99-.563-.346,2.457-6.131.385-.507,3.213,5.791-.363-.328,2.28-5.782.362-.528,3.347,6.141-.385Z"/><path class="b" d="M5868.391,477.793l2.036-13.75,3.263-.2,2.339,9.011.169-.011,5.144-9.481,3.46-.216-2.036,13.75-2.643.165,1.377-9.2-.149.009-4.727,8.62-1.89.117-2.166-8.19-.15.009-1.378,9.2Z"/><path class="b" d="M5892.089,462.685a5.58,5.58,0,0,1,1.842.168,4.045,4.045,0,0,1,1.451.716,3.607,3.607,0,0,1,.982,1.19,4.037,4.037,0,0,1,.422,1.611,5.6,5.6,0,0,1-.291,2.275,4.889,4.889,0,0,1-1.1,1.774,5.331,5.331,0,0,1-1.785,1.188,7.269,7.269,0,0,1-2.354.52l-2.651.169-.648,4.27-2.849.179,2.026-13.75Zm-3.169,7.28,2.155-.135a3.634,3.634,0,0,0,1.223-.28,2.744,2.744,0,0,0,.918-.629,2.508,2.508,0,0,0,.556-.922,2.987,2.987,0,0,0,.145-1.171,1.731,1.731,0,0,0-.682-1.387,2.534,2.534,0,0,0-1.673-.381l-1.9.119Z"/><path class="b" d="M5903.653,475.934a6.4,6.4,0,0,1-2.444-.285,5.456,5.456,0,0,1-1.924-1.093,5.361,5.361,0,0,1-1.3-1.754,6.188,6.188,0,0,1-.562-2.264,10.458,10.458,0,0,1,.108-2.382,9.428,9.428,0,0,1,.6-2.105,7.707,7.707,0,0,1,1.036-1.769,7.38,7.38,0,0,1,1.415-1.382,6.813,6.813,0,0,1,1.736-.925,7.16,7.16,0,0,1,2-.409,6.46,6.46,0,0,1,2.463.285,5.232,5.232,0,0,1,3.2,2.849,6.34,6.34,0,0,1,.552,2.265,10.686,10.686,0,0,1-.108,2.385,9.025,9.025,0,0,1-.6,2.109,7.794,7.794,0,0,1-1.036,1.769,7.093,7.093,0,0,1-1.41,1.372,6.921,6.921,0,0,1-1.732.921A7.044,7.044,0,0,1,5903.653,475.934Zm3.976-8.566a4.257,4.257,0,0,0-.309-1.392,3.239,3.239,0,0,0-.688-1.048,2.729,2.729,0,0,0-1-.636,3.087,3.087,0,0,0-1.261-.166,3.54,3.54,0,0,0-1.7.554,4.461,4.461,0,0,0-1.319,1.306,6.13,6.13,0,0,0-.82,1.883,7.219,7.219,0,0,0-.2,2.283,4.219,4.219,0,0,0,.31,1.4,3.229,3.229,0,0,0,.688,1.043,2.717,2.717,0,0,0,1.007.635,3.16,3.16,0,0,0,1.276.165,3.535,3.535,0,0,0,1.694-.545,4.417,4.417,0,0,0,1.318-1.3,5.951,5.951,0,0,0,.817-1.878,7.417,7.417,0,0,0,.188-2.306Z"/><path class="b" d="M5924.121,474.3l-8.88.556,2.036-13.75,2.849-.179-1.685,11.245,6.028-.377Z"/><path class="b" d="M5925.744,474.2l2.036-13.75,2.859-.179-2.037,13.75Z"/><path class="b" d="M5930.922,473.875l2.036-13.75,3.263-.2,2.34,9.01.169-.01,5.143-9.48,3.461-.217-2.036,13.751-2.642.166,1.377-9.2-.151.009-4.727,8.619-1.89.118-2.165-8.19-.15.009-1.377,9.2Z"/><path class="b" d="M5947.628,472.827l2.037-13.75,2.859-.178-2.037,13.75Z"/><path class="b" d="M5956.082,472.3l1.689-11.293-4.061.254.346-2.457,10.983-.689-.346,2.458-4.062.254-1.689,11.293Z"/><path class="b" d="M5972.853,468l-4.786.3-1.547,3.345-2.962.186,6.86-14.054,3.282-.206,2.609,13.459-2.927.183ZM5969,466.04l3.583-.225-.878-5.279-.179.012Z"/><path class="b" d="M5984.522,456.891a6.778,6.778,0,0,1,2.35.231,4.78,4.78,0,0,1,1.822.977,4.7,4.7,0,0,1,1.209,1.666,6.673,6.673,0,0,1,.527,2.3,9.929,9.929,0,0,1-.1,2.229,8.81,8.81,0,0,1-.561,1.984,7.458,7.458,0,0,1-.97,1.68,6.677,6.677,0,0,1-1.344,1.316,6.607,6.607,0,0,1-1.667.888,6.883,6.883,0,0,1-1.935.395l-6.155.386,2.027-13.749Zm-3.617,11.426,2.539-.159a4.043,4.043,0,0,0,3.073-1.661,5.15,5.15,0,0,0,.812-1.735,6.785,6.785,0,0,0,.191-2.191,4.36,4.36,0,0,0-.311-1.417,2.945,2.945,0,0,0-.707-1.041,2.8,2.8,0,0,0-1.067-.617,3.724,3.724,0,0,0-1.392-.154l-1.8.112Z"/><path class="b" d="M5997.8,470.033a6.429,6.429,0,0,1-2.445-.286,5.472,5.472,0,0,1-1.924-1.093,5.344,5.344,0,0,1-1.3-1.754,6.192,6.192,0,0,1-.562-2.263,10.421,10.421,0,0,1,.108-2.381,9.323,9.323,0,0,1,.6-2.105,7.657,7.657,0,0,1,1.036-1.77,7.332,7.332,0,0,1,1.415-1.381,6.826,6.826,0,0,1,1.735-.926,7.157,7.157,0,0,1,2-.408,6.448,6.448,0,0,1,2.464.284,5.23,5.23,0,0,1,3.195,2.85,6.3,6.3,0,0,1,.553,2.264,10.715,10.715,0,0,1-.108,2.385,9.019,9.019,0,0,1-.6,2.11,7.891,7.891,0,0,1-1.035,1.769,7.141,7.141,0,0,1-1.411,1.372,6.881,6.881,0,0,1-1.731.921A7.149,7.149,0,0,1,5997.8,470.033Zm3.975-8.567a4.239,4.239,0,0,0-.31-1.392,3.185,3.185,0,0,0-.688-1.047,2.714,2.714,0,0,0-1-.635,3.085,3.085,0,0,0-1.261-.167,3.554,3.554,0,0,0-1.7.554,4.461,4.461,0,0,0-1.319,1.306,6.113,6.113,0,0,0-.82,1.884,7.216,7.216,0,0,0-.2,2.283,4.273,4.273,0,0,0,.31,1.4,3.224,3.224,0,0,0,.689,1.042,2.7,2.7,0,0,0,1.007.635,3.156,3.156,0,0,0,1.275.166,3.538,3.538,0,0,0,1.7-.546,4.423,4.423,0,0,0,1.318-1.3,5.976,5.976,0,0,0,.816-1.877,7.408,7.408,0,0,0,.19-2.3Z"/><path class="b" d="M6007.46,469.361a1.98,1.98,0,0,1-.718-.078,1.6,1.6,0,0,1-.557-.3,1.448,1.448,0,0,1-.37-.472,1.582,1.582,0,0,1-.155-.6,1.828,1.828,0,0,1,.076-.666,1.52,1.52,0,0,1,.306-.543,1.592,1.592,0,0,1,.514-.382,1.884,1.884,0,0,1,.7-.171,1.962,1.962,0,0,1,.718.077,1.6,1.6,0,0,1,.557.3,1.429,1.429,0,0,1,.37.478,1.559,1.559,0,0,1,.156.6,1.784,1.784,0,0,1-.076.665,1.473,1.473,0,0,1-.306.539,1.631,1.631,0,0,1-.514.376A1.885,1.885,0,0,1,6007.46,469.361Zm3.288-14.113-1.62,9.24-2.511.157,1.123-9.208Z"/><path class="d" d="M5782.05,253.542a3.174,3.174,0,0,0-.4-1.2,2.879,2.879,0,0,0-.794-.888,3.29,3.29,0,0,0-1.131-.528,4.341,4.341,0,0,0-1.4-.116,4.243,4.243,0,0,0-2.043.675,5.251,5.251,0,0,0-1.566,1.579,7.243,7.243,0,0,0-.951,2.289,8.959,8.959,0,0,0-.194,2.8,5.261,5.261,0,0,0,.382,1.662,3.641,3.641,0,0,0,.821,1.221,3.2,3.2,0,0,0,1.2.726,3.813,3.813,0,0,0,1.522.176,4.84,4.84,0,0,0,1.329-.279,4.2,4.2,0,0,0,1.131-.617,3.961,3.961,0,0,0,.847-.9,3.532,3.532,0,0,0,.507-1.121l3.416-.238a6.641,6.641,0,0,1-2.308,4.287,7.667,7.667,0,0,1-2.215,1.3,9.38,9.38,0,0,1-2.762.6,7.9,7.9,0,0,1-2.865-.287,6.044,6.044,0,0,1-3.815-3.277,7.757,7.757,0,0,1-.7-2.771,12.126,12.126,0,0,1,.359-4.168,9.6,9.6,0,0,1,1.633-3.355,8.466,8.466,0,0,1,2.694-2.3,8.6,8.6,0,0,1,3.559-1,7.879,7.879,0,0,1,2.657.248,6.694,6.694,0,0,1,2.2,1.04,5.67,5.67,0,0,1,1.544,1.691,5.053,5.053,0,0,1,.692,2.191c.007.082.014.162.021.241a1.335,1.335,0,0,1,0,.242l-3.351.233Z"/><path class="d" d="M5794.124,263.8a7.942,7.942,0,0,1-2.983-.317,6.781,6.781,0,0,1-2.372-1.291,6.542,6.542,0,0,1-1.624-2.087,7.359,7.359,0,0,1-.739-2.7,12.219,12.219,0,0,1,.077-2.839,10.845,10.845,0,0,1,.676-2.509,8.885,8.885,0,0,1,1.213-2.108,8.6,8.6,0,0,1,1.677-1.645,8.189,8.189,0,0,1,2.076-1.11,8.728,8.728,0,0,1,2.407-.5,8.025,8.025,0,0,1,2.983.313,6.663,6.663,0,0,1,2.348,1.274,6.459,6.459,0,0,1,1.6,2.067,7.472,7.472,0,0,1,.743,2.682,12.491,12.491,0,0,1-.047,2.839,10.572,10.572,0,0,1-.659,2.521,9.149,9.149,0,0,1-1.2,2.124,8.365,8.365,0,0,1-1.673,1.661,8.279,8.279,0,0,1-2.08,1.123A8.7,8.7,0,0,1,5794.124,263.8Zm4.579-10.27a5.014,5.014,0,0,0-.418-1.65,3.9,3.9,0,0,0-.865-1.236,3.4,3.4,0,0,0-1.233-.744,3.827,3.827,0,0,0-1.531-.185,4.291,4.291,0,0,0-2.041.668,5.22,5.22,0,0,0-1.564,1.561,7.105,7.105,0,0,0-.947,2.246,8.448,8.448,0,0,0-.186,2.722,5.032,5.032,0,0,0,.413,1.663,3.911,3.911,0,0,0,.865,1.239,3.372,3.372,0,0,0,1.239.75,3.915,3.915,0,0,0,1.557.185,4.3,4.3,0,0,0,2.044-.67,5.214,5.214,0,0,0,1.561-1.561,6.941,6.941,0,0,0,.936-2.248,8.659,8.659,0,0,0,.174-2.736Z"/><path class="d" d="M5803.346,262.734l2-16.375,3.933-.272,3.166,10.662.2-.014,5.846-11.285,4.164-.288-1.871,16.347-3.2.222,1.29-10.964-.182.012-5.384,10.312-2.293.161-2.927-9.737-.182.013-1.347,10.976Z"/><path class="d" d="M5831.42,244.557a6.945,6.945,0,0,1,2.225.181,5.145,5.145,0,0,1,1.784.83,4.505,4.505,0,0,1,1.243,1.4,4.815,4.815,0,0,1,.591,1.9,6.415,6.415,0,0,1-.235,2.694,5.5,5.5,0,0,1-1.242,2.114,6.129,6.129,0,0,1-2.1,1.429,8.7,8.7,0,0,1-2.82.642l-3.2.222-.588,5.1-3.45.241,1.838-16.342Zm-3.48,8.635,2.6-.18a4.359,4.359,0,0,0,1.466-.344,3.176,3.176,0,0,0,1.079-.754,2.848,2.848,0,0,0,.626-1.1,3.459,3.459,0,0,0,.121-1.385,2.125,2.125,0,0,0-.891-1.634,3.177,3.177,0,0,0-2.04-.434l-2.285.159Z"/><path class="d" d="M5839.758,243.981l6.439-.441a6.274,6.274,0,0,1,2.1.189,5.1,5.1,0,0,1,1.718.823,4.527,4.527,0,0,1,1.212,1.36,4.617,4.617,0,0,1,.581,1.8,5.183,5.183,0,0,1-.088,1.729,5.268,5.268,0,0,1-.629,1.574,5.38,5.38,0,0,1-1.134,1.319,5.9,5.9,0,0,1-1.588.953l2.949,6.078-3.689.259-2.6-5.714-2.928.2-.632,5.941-3.455.243Zm2.6,7.512,2.988-.209a4.174,4.174,0,0,0,1.34-.3,3.013,3.013,0,0,0,.994-.652,2.417,2.417,0,0,0,.583-.931,2.634,2.634,0,0,0,.109-1.149,2.082,2.082,0,0,0-.81-1.531,2.692,2.692,0,0,0-1.834-.431l-2.8.194Z"/><path class="d" d="M5862.789,254.684l-5.755.4-1.664,3.995-3.574.251,7.409-16.7,3.927-.271,4.037,15.887-3.523.247Zm-4.773-2.286,4.307-.3-1.4-6.226-.215.016Z"/><path class="d" d="M5877.571,257.524l1.2-13.369-4.857.337.241-2.889,13.106-.906-.223,2.884-4.847.336-1.182,13.363Z"/><path class="d" d="M5895.415,256.689a8.815,8.815,0,0,1-2.738-.2,6.3,6.3,0,0,1-2.147-.953,5.3,5.3,0,0,1-1.476-1.573,5.225,5.225,0,0,1-.713-2.062c-.029-.223-.049-.453-.056-.691a5.7,5.7,0,0,1,.019-.719l.82-9.917,3.417-.237-.8,9.836a4.875,4.875,0,0,0,.026,1.141,2.559,2.559,0,0,0,1.089,1.82,3.621,3.621,0,0,0,2.363.521,3.947,3.947,0,0,0,1.29-.3,3.148,3.148,0,0,0,1.006-.677,3.208,3.208,0,0,0,.68-1.03,4.491,4.491,0,0,0,.319-1.356l.827-10.427,3.4-.235-.853,11.177a6.7,6.7,0,0,1-.574,2.324,5.554,5.554,0,0,1-1.3,1.793,6.29,6.29,0,0,1-1.982,1.208A8.807,8.807,0,0,1,5895.415,256.689Z"/><path class="d" d="M5911.723,250.5a2.505,2.505,0,0,0,.515.911,3.054,3.054,0,0,0,.836.659,3.862,3.862,0,0,0,1.083.385,4.7,4.7,0,0,0,1.259.074,4.784,4.784,0,0,0,1.231-.238,2.822,2.822,0,0,0,.91-.5,1.839,1.839,0,0,0,.534-.71,1.616,1.616,0,0,0,.1-.87,1.556,1.556,0,0,0-.226-.622,1.836,1.836,0,0,0-.5-.508,3.534,3.534,0,0,0-.819-.413,9.2,9.2,0,0,0-1.175-.337l-1.757-.4a7.622,7.622,0,0,1-1.7-.591,5.407,5.407,0,0,1-1.316-.9,4.49,4.49,0,0,1-.9-1.175,4.336,4.336,0,0,1-.456-1.429,4.172,4.172,0,0,1,.2-2.049,4.4,4.4,0,0,1,1.107-1.682,5.984,5.984,0,0,1,1.864-1.182,7.822,7.822,0,0,1,2.47-.553,8.067,8.067,0,0,1,2.492.194,6.544,6.544,0,0,1,2.061.877,5.468,5.468,0,0,1,1.5,1.461,4.916,4.916,0,0,1,.795,1.957l-3.188.224a2.651,2.651,0,0,0-.467-.886,2.806,2.806,0,0,0-.761-.659,3.352,3.352,0,0,0-1-.388,4.1,4.1,0,0,0-1.179-.079,3.968,3.968,0,0,0-1.083.219,2.715,2.715,0,0,0-.826.463,1.782,1.782,0,0,0-.5.659,1.443,1.443,0,0,0-.1.794,1.709,1.709,0,0,0,.675,1.122,4.5,4.5,0,0,0,1.784.734l1.731.392a10.436,10.436,0,0,1,1.888.61,5.535,5.535,0,0,1,1.381.858,3.874,3.874,0,0,1,.9,1.139,4.948,4.948,0,0,1,.277,3.644,4.4,4.4,0,0,1-1.133,1.769,5.931,5.931,0,0,1-1.976,1.224,9.154,9.154,0,0,1-2.7.567,9.028,9.028,0,0,1-2.582-.168,6.718,6.718,0,0,1-2.126-.846,5.27,5.27,0,0,1-1.547-1.476,5.547,5.547,0,0,1-.862-2.055Z"/><path class="d" d="M5933.931,253.569l-10.75.754,1.093-16.181,10.655-.736-.158,2.87-7.276.5-.285,3.769,6.886-.48-.158,2.676-6.884.48-.3,3.949,7.323-.512Z"/><path class="d" d="M5950.967,245.93a9.68,9.68,0,0,1-.541,2.993,6.516,6.516,0,0,1-1.346,2.245,6.119,6.119,0,0,1-2.114,1.46,8.773,8.773,0,0,1-2.839.643,8.056,8.056,0,0,1-2.872-.287,6.748,6.748,0,0,1-2.365-1.225,6.976,6.976,0,0,1-1.706-2.043,8.043,8.043,0,0,1-.911-2.738,12.568,12.568,0,0,1-.129-2.8,10.048,10.048,0,0,1,.479-2.476,8.165,8.165,0,0,1,1.034-2.081,7.252,7.252,0,0,1,3.507-2.719,8.456,8.456,0,0,1,2.379-.495,8.083,8.083,0,0,1,2.565.224,7.446,7.446,0,0,1,2.214.948,6.234,6.234,0,0,1,1.651,1.542,4.871,4.871,0,0,1,.876,1.993.862.862,0,0,1,.032.17c.006.063.014.127.025.193l-3.275.228a2.623,2.623,0,0,0-.467-1.024,3.035,3.035,0,0,0-.847-.762,3.712,3.712,0,0,0-1.153-.452,4.789,4.789,0,0,0-1.372-.094,3.96,3.96,0,0,0-1.963.653,4.537,4.537,0,0,0-1.414,1.524,6.312,6.312,0,0,0-.751,2.221,8.936,8.936,0,0,0,.029,2.74,5.421,5.421,0,0,0,.515,1.651,4.093,4.093,0,0,0,.928,1.216,3.522,3.522,0,0,0,1.278.723,4.152,4.152,0,0,0,1.559.17,4.743,4.743,0,0,0,1.445-.319,3.627,3.627,0,0,0,1.132-.7,3.348,3.348,0,0,0,1.068-2.328l.011-.28-3.433.239.136-2.529,6.717-.468Z"/><path class="d" d="M5960.361,252.129a8.76,8.76,0,0,1-2.725-.2,6.484,6.484,0,0,1-2.161-.947,5.486,5.486,0,0,1-1.513-1.564,5.334,5.334,0,0,1-.769-2.048c-.035-.221-.061-.45-.077-.687a5.806,5.806,0,0,1,0-.714l.519-9.854,3.388-.234-.5,9.772a4.911,4.911,0,0,0,.06,1.135,2.646,2.646,0,0,0,1.136,1.8,3.665,3.665,0,0,0,2.363.517,3.833,3.833,0,0,0,1.274-.3,2.994,2.994,0,0,0,.979-.672,3.052,3.052,0,0,0,.644-1.022,4.384,4.384,0,0,0,.28-1.348l.51-10.359,3.372-.233-.516,11.1a6.575,6.575,0,0,1-.5,2.308,5.3,5.3,0,0,1-1.241,1.783,5.99,5.99,0,0,1-1.933,1.2A8.622,8.622,0,0,1,5960.361,252.129Z"/><path class="d" d="M5969.82,234.995l6.328-.437a6.3,6.3,0,0,1,2.083.187,5.4,5.4,0,0,1,1.744.813,4.859,4.859,0,0,1,1.276,1.343,4.8,4.8,0,0,1,.681,1.779,5.078,5.078,0,0,1,.016,1.708,4.8,4.8,0,0,1-1.567,2.854,5.336,5.336,0,0,1-1.508.94l3.27,6.006-3.624.254-2.907-5.64-2.873.2-.269,5.864-3.4.239Zm3.01,7.415,2.935-.205a3.984,3.984,0,0,0,1.3-.3,2.722,2.722,0,0,0,.94-.644,2.216,2.216,0,0,0,.516-.918,2.553,2.553,0,0,0,.039-1.135,2.218,2.218,0,0,0-.889-1.511,2.77,2.77,0,0,0-1.836-.426l-2.752.19Z"/><path class="d" d="M5991.682,249.929a8,8,0,0,1-2.955-.313,7.433,7.433,0,0,1-2.438-1.266,7.333,7.333,0,0,1-1.78-2.048,7.8,7.8,0,0,1-.963-2.646,12.062,12.062,0,0,1-.177-2.784,10.022,10.022,0,0,1,.441-2.459,7.787,7.787,0,0,1,1-2.067,7.369,7.369,0,0,1,1.5-1.611,7.128,7.128,0,0,1,1.934-1.087,8.55,8.55,0,0,1,5.267-.183,7.177,7.177,0,0,1,4.17,3.275,7.964,7.964,0,0,1,.965,2.629,12.407,12.407,0,0,1,.2,2.784,9.744,9.744,0,0,1-.423,2.472,8.083,8.083,0,0,1-.99,2.082,7.124,7.124,0,0,1-3.43,2.722A8.067,8.067,0,0,1,5991.682,249.929Zm3.573-10.068a5.334,5.334,0,0,0-.555-1.618,4.374,4.374,0,0,0-.958-1.212,3.764,3.764,0,0,0-1.274-.729,4.057,4.057,0,0,0-3.453.472,4.463,4.463,0,0,0-1.394,1.53,6.354,6.354,0,0,0-.729,2.2,8.2,8.2,0,0,0,.061,2.667,5.287,5.287,0,0,0,.552,1.632,4.342,4.342,0,0,0,.958,1.216,3.7,3.7,0,0,0,1.284.737,3.946,3.946,0,0,0,1.541.182,3.877,3.877,0,0,0,1.943-.655,4.483,4.483,0,0,0,1.391-1.53,6.229,6.229,0,0,0,.716-2.2,8.431,8.431,0,0,0-.083-2.69Z"/><path class="d" d="M5766.283,293.292l-3.327-16.462,3.705-.263,2.114,12.565.208-.015,5.44-13.1,3.918-.279-7.816,17.247Z"/><path class="d" d="M5788.873,291.663l-11.1.8L5780,275.621l11.008-.78-.362,2.987-7.514.535-.551,3.923,7.113-.508-.344,2.785-7.111.509-.574,4.111,7.563-.544Z"/><path class="d" d="M5802.363,290.693l.862-7.05-7.473.535-.887,7.058-3.512.253,2.121-16.819,3.494-.249-.854,6.75,7.473-.533.831-6.752,3.49-.247-2.009,16.8Z"/><path class="d" d="M5808.743,290.232l1.986-16.788,3.487-.247-1.959,16.784Z"/><path class="d" d="M5827.378,277.957a3.352,3.352,0,0,0-.424-1.222,3.049,3.049,0,0,0-.824-.906,3.365,3.365,0,0,0-1.151-.537,4.313,4.313,0,0,0-1.409-.118,4.183,4.183,0,0,0-2.046.69,5.183,5.183,0,0,0-1.546,1.615,7.308,7.308,0,0,0-.907,2.337,9.293,9.293,0,0,0-.137,2.857,5.5,5.5,0,0,0,.421,1.7,3.82,3.82,0,0,0,.853,1.246,3.325,3.325,0,0,0,1.223.74,3.849,3.849,0,0,0,1.537.178,4.741,4.741,0,0,0,1.336-.285,4.074,4.074,0,0,0,1.126-.631,3.922,3.922,0,0,0,.835-.916,3.508,3.508,0,0,0,.487-1.144l3.44-.247a6.813,6.813,0,0,1-.715,2.44,6.623,6.623,0,0,1-1.52,1.941,7.554,7.554,0,0,1-2.206,1.33,9.251,9.251,0,0,1-2.775.613,7.907,7.907,0,0,1-2.894-.291,6.369,6.369,0,0,1-2.313-1.25,6.484,6.484,0,0,1-1.6-2.093,8.133,8.133,0,0,1-.765-2.83,12.476,12.476,0,0,1,.271-4.257,9.655,9.655,0,0,1,1.575-3.427,8.318,8.318,0,0,1,2.668-2.349,8.45,8.45,0,0,1,3.567-1.026,7.91,7.91,0,0,1,2.688.251,6.862,6.862,0,0,1,2.236,1.061A5.934,5.934,0,0,1,5830,275.15a5.3,5.3,0,0,1,.745,2.237c.009.084.017.166.025.245a1.49,1.49,0,0,1,0,.247l-3.374.24Z"/><path class="d" d="M5839.436,288.449a8.78,8.78,0,0,1-2.784-.207,6.206,6.206,0,0,1-2.164-.98,5.2,5.2,0,0,1-2.136-3.747c-.024-.23-.038-.467-.039-.714a6.165,6.165,0,0,1,.039-.741l1.095-10.231,3.488-.248-1.073,10.143a5.056,5.056,0,0,0,0,1.178,2.56,2.56,0,0,0,1.061,1.877,3.592,3.592,0,0,0,2.392.534,4.04,4.04,0,0,0,1.322-.309,3.317,3.317,0,0,0,1.043-.7,3.463,3.463,0,0,0,.719-1.063,4.8,4.8,0,0,0,.364-1.4l1.112-10.756,3.47-.246-1.158,11.529a7.18,7.18,0,0,1-.646,2.4,5.94,5.94,0,0,1-1.373,1.852,6.625,6.625,0,0,1-2.051,1.249A9.093,9.093,0,0,1,5839.436,288.449Z"/><path class="d" d="M5859.279,286.588l-10.847.779,1.678-16.725,3.457-.245-1.372,13.654,7.355-.529Z"/><path class="d" d="M5871.188,281.754l-5.827.418-1.662,4.1-3.616.262,7.431-17.115,3.972-.281,4.15,16.279-3.564.257Zm-4.838-2.337,4.355-.312-1.44-6.379-.216.015Z"/><path class="d" d="M5878.757,268.613l6.487-.46a6.268,6.268,0,0,1,2.121.191,5.222,5.222,0,0,1,1.748.839,4.683,4.683,0,0,1,1.246,1.389,4.8,4.8,0,0,1,.619,1.841,5.277,5.277,0,0,1-1.78,4.723,5.766,5.766,0,0,1-1.584.976l3.087,6.211-3.718.268-2.729-5.835-2.946.211-.531,6.076-3.481.25Zm2.758,7.667,3.01-.214a4.16,4.16,0,0,0,1.345-.309,2.976,2.976,0,0,0,.99-.668,2.415,2.415,0,0,0,.567-.954,2.676,2.676,0,0,0,.089-1.174,2.179,2.179,0,0,0-.845-1.563,2.726,2.726,0,0,0-1.858-.44l-2.821.2Z"/><path class="d" d="M5901.788,283.524l.48-6.152-4.913-10.078,3.582-.254,3.158,6.7.2-.014,4.123-7.221,3.737-.265-6.458,11.022-.444,6.009Z"/><path class="d" d="M5928.208,281.618l-10.747.775,1.15-16.609,3.424-.242-.937,13.56,7.285-.524Z"/><path class="d" d="M5940.9,280.7l-10.728.769,1.047-16.587,3.42-.244-.859,13.543,7.272-.523Z"/><path class="d" d="M5953.718,279.78l-10.857.783.953-16.567,10.763-.765-.133,2.938-7.349.524-.253,3.859,6.956-.5-.139,2.739-6.952.5-.264,4.043,7.4-.532Z"/><path class="d" d="M5960.512,279.29l-4.679-16.146,3.609-.257,3.156,12.325.2-.015,4.2-12.847,3.818-.269-6.178,16.913Z"/><path class="d" d="M5981.283,273.848l-5.742.412-1.443,4.051-3.562.257,6.5-16.93,3.913-.277,4.91,16.1-3.512.253Zm-4.9-2.314,4.292-.308-1.74-6.31-.213.016Z"/><path class="d" d="M5991.426,277.061l.5-13.558-4.848.345.09-2.93,13.07-.928-.072,2.925-4.837.345-.481,13.552Z"/><path class="d" d="M6012.326,275.554l-10.772.776.507-16.469,10.679-.757-.054,2.922-7.292.519-.148,3.836,6.9-.493-.062,2.723-6.9.494-.15,4.02,7.338-.527Z"/><path class="a" d="M5811.786,305.365l4.724-.379-.168,32.583-4.767.486.013-1.991a10.441,10.441,0,0,1-6.415,3.189,8.671,8.671,0,0,1-7.088-2.154,9.122,9.122,0,0,1-2.743-7.04,10.784,10.784,0,0,1,2.891-7.39,10.339,10.339,0,0,1,7-3.486,8.358,8.358,0,0,1,6.449,2.133Zm-11.5,24.222a5.7,5.7,0,0,0,1.564,4.311,4.93,4.93,0,0,0,4.125,1.335,6.382,6.382,0,0,0,4.3-2.1,6.778,6.778,0,0,0,1.656-4.555,5.6,5.6,0,0,0-1.595-4.235,5.143,5.143,0,0,0-4.22-1.3,6.145,6.145,0,0,0-4.144,2.093,6.64,6.64,0,0,0-1.684,4.454Z"/><path class="a" d="M5837.121,316.863l4.588-.408.036,18.542-4.612.467v-1.957a10.222,10.222,0,0,1-6.144,3.119,8.413,8.413,0,0,1-6.916-2.122,9.105,9.105,0,0,1-2.707-6.923,10.616,10.616,0,0,1,2.743-7.277,9.955,9.955,0,0,1,6.771-3.4,8.05,8.05,0,0,1,6.239,2.107Zm-10.975,10.263a5.7,5.7,0,0,0,1.544,4.239,4.763,4.763,0,0,0,4,1.319,6.087,6.087,0,0,0,4.148-2.06,6.68,6.68,0,0,0,1.572-4.48,5.6,5.6,0,0,0-1.574-4.165,4.967,4.967,0,0,0-4.095-1.284,5.86,5.86,0,0,0-3.992,2.051,6.526,6.526,0,0,0-1.6,4.382Z"/><path class="a" d="M5816.511,304.987l2.236,1.733-1.113,1.39-2.212-.665Z"/><path class="a" d="M5841.713,316.456l2.235,1.734-1.431,2.274-2.287-.493.027-.308Z"/><path class="b" d="M5814.023,307.1l4.723-.38-.169,32.584-4.767.486.012-1.991a10.43,10.43,0,0,1-6.414,3.188,8.665,8.665,0,0,1-7.087-2.153,9.12,9.12,0,0,1-2.744-7.04,10.779,10.779,0,0,1,2.891-7.389,10.335,10.335,0,0,1,7-3.486,8.358,8.358,0,0,1,6.448,2.132Zm-11.5,24.221a5.7,5.7,0,0,0,1.565,4.312,4.931,4.931,0,0,0,4.125,1.335,6.388,6.388,0,0,0,4.3-2.1,6.782,6.782,0,0,0,1.656-4.555,5.6,5.6,0,0,0-1.6-4.235,5.138,5.138,0,0,0-4.221-1.3,6.14,6.14,0,0,0-4.143,2.093,6.629,6.629,0,0,0-1.685,4.451Z"/><path class="b" d="M5839.354,318.6l4.588-.409.036,18.541-4.612.468v-1.958a10.225,10.225,0,0,1-6.144,3.12,8.413,8.413,0,0,1-6.917-2.123,9.105,9.105,0,0,1-2.707-6.922,10.618,10.618,0,0,1,2.743-7.278,9.955,9.955,0,0,1,6.771-3.4,8.047,8.047,0,0,1,6.239,2.107Zm-10.975,10.262a5.7,5.7,0,0,0,1.544,4.24,4.763,4.763,0,0,0,4,1.318,6.088,6.088,0,0,0,4.149-2.06,6.68,6.68,0,0,0,1.572-4.48,5.586,5.586,0,0,0-1.574-4.164,4.963,4.963,0,0,0-4.095-1.285,5.858,5.858,0,0,0-3.992,2.052,6.526,6.526,0,0,0-1.6,4.379Z"/><path class="a" d="M5846.009,342.856l1.749,1.942-1.079,1.941-3.6-.657.558-1.948Z"/><rect class="a" width="44.422" height="3.604" transform="matrix(0.998, -0.067, 0.067, 0.998, 5801.69, 345.877)"/><path class="a" d="M5801.948,349.471l1.485,2.15.464-.991.5-2.2-1.089-.167Z"/><rect class="b" width="44.422" height="3.604" transform="matrix(0.998, -0.067, 0.067, 0.998, 5803.171, 347.998)"/><path class="b" d="M5900.029,328.812a13.383,13.383,0,0,0-11.387-4.328,14.584,14.584,0,0,0-5.368,1.518,14.111,14.111,0,0,0-4.147,3.165,13.634,13.634,0,0,0-3.413,9.694,12.953,12.953,0,0,0,1.24,5.141,11.914,11.914,0,0,0,2.983,3.907,12.512,12.512,0,0,0,4.329,2.409,13.349,13.349,0,0,0,5.283.576q6.182-.5,10.987-5.95l.458,14.573-1.3.538a41.27,41.27,0,0,1-5.47,1.885,28.449,28.449,0,0,1-5.019.851,26.055,26.055,0,0,1-9.8-1.077,24.2,24.2,0,0,1-14.4-11.92,23.025,23.025,0,0,1-2.628-9.85,24.266,24.266,0,0,1,1.614-10.25,26.907,26.907,0,0,1,5.316-8.49,28.279,28.279,0,0,1,8.115-6.062,27.959,27.959,0,0,1,9.975-2.871,28.252,28.252,0,0,1,5.951.052,35.5,35.5,0,0,1,6.217,1.338Z"/><path class="b" d="M5917.845,310.747l.6,26.63q.048,2.11.265,4.3a10.767,10.767,0,0,0,1.1,3.9,6.169,6.169,0,0,0,2.719,2.676,9.558,9.558,0,0,0,5.146.7,10.2,10.2,0,0,0,5.092-1.528,7.8,7.8,0,0,0,2.641-3.127,11.433,11.433,0,0,0,1-4.1q.139-2.234.111-4.365l-.366-26.828,13.58-1.292.207,28.736q.081,11.371-5.383,16.964-5.424,5.57-16.683,6.423-11.19.856-16.693-3.808c-3.683-3.11-5.632-8.367-5.845-15.81l-.816-28.2Z"/><path class="b" d="M5955.037,332.111a25.756,25.756,0,0,1,2.118-10.454,29.27,29.27,0,0,1,6.016-8.936,31.922,31.922,0,0,1,9.32-6.531,36.136,36.136,0,0,1,12.062-3.206,33.117,33.117,0,0,1,12.094.915,25.332,25.332,0,0,1,9.513,4.833,22.291,22.291,0,0,1,6.109,7.983,23.137,23.137,0,0,1,2.01,10.312,26.064,26.064,0,0,1-2.482,10.589,29.415,29.415,0,0,1-6.379,8.816,32.547,32.547,0,0,1-9.511,6.236,36.2,36.2,0,0,1-11.848,2.88,32.815,32.815,0,0,1-11.743-1.058,24.962,24.962,0,0,1-9.113-4.716,22.5,22.5,0,0,1-5.971-7.676A23.046,23.046,0,0,1,5955.037,332.111Zm14.307-1.23a11.748,11.748,0,0,0,1.179,5.332,12.079,12.079,0,0,0,3.206,4.036,13.2,13.2,0,0,0,4.718,2.444,15.673,15.673,0,0,0,5.724.543,17.569,17.569,0,0,0,10.632-4.723,15.685,15.685,0,0,0,3.382-4.623,13.282,13.282,0,0,0,1.307-5.6,11.79,11.79,0,0,0-1.133-5.418,11.917,11.917,0,0,0-3.273-4.116,13.639,13.639,0,0,0-4.84-2.473,15.751,15.751,0,0,0-5.82-.508,17.354,17.354,0,0,0-5.815,1.562,16.958,16.958,0,0,0-4.806,3.324,15.819,15.819,0,0,0-3.263,4.656A13.2,13.2,0,0,0,5969.344,330.881Z"/><path class="b" d="M6040.553,310.464l-1.436,39.49-14.223,1.094,1.156-39.265-11.8,1.077.269-11.3,38.543-3.665-.483,11.482Z"/><path class="b" d="M6085.978,337.558l-21.042,1.684-3.764,9.012-15.4,1.185,23.761-53.122,16.43-1.563,18.768,50.147-15.878,1.223Zm-3.359-9.8-5.736-16.669-7.557,17.78Z"/><path class="b" d="M5886.053,392.467l25.19-1.645a60.7,60.7,0,0,1-.15,6.611,22.256,22.256,0,0,1-4.661,12,21.828,21.828,0,0,1-5.3,4.814,27.185,27.185,0,0,1-6.714,3.12,31.634,31.634,0,0,1-7.713,1.366,28.835,28.835,0,0,1-10.2-1.13,22.654,22.654,0,0,1-8.036-4.315,21.284,21.284,0,0,1-5.443-7.08,24.431,24.431,0,0,1-2.314-9.472,25.33,25.33,0,0,1,1.3-9.736,21.844,21.844,0,0,1,4.762-7.907,24.611,24.611,0,0,1,7.862-5.5,30.971,30.971,0,0,1,10.572-2.551,27.357,27.357,0,0,1,13.586,2.15,20.961,20.961,0,0,1,9.522,9.036l-11.972,5.5a11.086,11.086,0,0,0-4.56-5.1,11.25,11.25,0,0,0-6.167-1.217,13.114,13.114,0,0,0-5.108,1.36,11.523,11.523,0,0,0-3.82,3.108,13.746,13.746,0,0,0-2.354,4.587,17.061,17.061,0,0,0-.662,5.794,16.88,16.88,0,0,0,1.032,5.236,11.423,11.423,0,0,0,2.562,4.055,10.451,10.451,0,0,0,4.047,2.509,14.083,14.083,0,0,0,5.5.649,16.458,16.458,0,0,0,3.554-.593,10.077,10.077,0,0,0,3.055-1.429,7.629,7.629,0,0,0,2.2-2.365,8.738,8.738,0,0,0,1.108-3.416l-10.322.638Z"/><path class="b" d="M5957.958,413.529l-16.2.9-12.6-16.738.311,17.423-12.761.712-1.109-45.708,20.365-1.486a21.149,21.149,0,0,1,7.434.62,13.449,13.449,0,0,1,5.276,2.785,12.1,12.1,0,0,1,3.15,4.4,14.37,14.37,0,0,1,1.085,5.528,13.538,13.538,0,0,1-2.741,8.8,15.3,15.3,0,0,1-8.161,4.96Zm-28.943-23.561,2.454-.16a10.524,10.524,0,0,0,5.9-1.857,5.186,5.186,0,0,0,2.016-4.383,4.629,4.629,0,0,0-2.132-4.121,9.784,9.784,0,0,0-5.972-1.074l-2.466.171Z"/><path class="b" d="M5991.481,403.636l-19.118,1.122L5969.3,412.9l-14.01.783,19.507-47.874,14.9-1.086,19.183,45.97-14.421.8Zm-3.463-8.988-5.917-15.269-6.156,16.021Z"/><path class="b" d="M6030.266,372.46l-1.2,37.1-13.723.765.94-36.9-11.382.786.212-10.619,37.161-2.711-.412,10.776Z"/><path class="b" d="M6059.312,359.64,6057.066,408l-14,.784,1.893-48.092Z"/><path class="b" d="M6097.424,369.593a16.1,16.1,0,0,0-4.642-2.206,13.49,13.49,0,0,0-4.592-.5,9.109,9.109,0,0,0-4.7,1.5,4.136,4.136,0,0,0-1.965,3.2,2.52,2.52,0,0,0,.766,2.1,6.617,6.617,0,0,0,2.254,1.311,19.534,19.534,0,0,0,3.207.859q1.8.336,3.549.738,7.038,1.619,10.139,4.894t2.709,8.851a16.854,16.854,0,0,1-1.923,6.857,17.06,17.06,0,0,1-4.578,5.4,23.548,23.548,0,0,1-7,3.689,35.912,35.912,0,0,1-28.074-2.605l6.6-10.375a21.924,21.924,0,0,0,6.151,3.316,16.265,16.265,0,0,0,6.156.838,9.051,9.051,0,0,0,5.342-1.717,4.7,4.7,0,0,0,1.931-3.31,3.2,3.2,0,0,0-1.715-3.261,10.912,10.912,0,0,0-2.621-1.088q-1.627-.476-3.945-1.037-2.758-.6-5.386-1.361a15.5,15.5,0,0,1-4.637-2.175,9.947,9.947,0,0,1-3.17-3.684,11.648,11.648,0,0,1-.981-5.906,16.9,16.9,0,0,1,1.7-6.709,17.617,17.617,0,0,1,4.111-5.39,20.76,20.76,0,0,1,6.28-3.775,27.677,27.677,0,0,1,8.186-1.794,38.855,38.855,0,0,1,8.746.387,37.628,37.628,0,0,1,8.654,2.391Z"/><path class="d" d="M5947.246,261.543l2.33-4.986h3.529l-2.23,4.826Z"/></g></svg>