<svg xmlns="http://www.w3.org/2000/svg" width="55" height="55" viewBox="0 0 55 55"><defs><style>.a{fill:none;}.b{fill:#00c450;}.c{isolation:isolate;}</style></defs><g transform="translate(-2924.932 -4383.458)"><circle class="a" cx="27.5" cy="27.5" r="27.5" transform="translate(2924.932 4383.458)"/><path class="b" d="M2952.432,4438.458a27.5,27.5,0,1,1,27.5-27.5A27.532,27.532,0,0,1,2952.432,4438.458Zm0-53a25.5,25.5,0,1,0,25.5,25.5A25.529,25.529,0,0,0,2952.432,4385.458Z"/><g class="c"><g class="c"><path class="b" d="M2957.732,4415.718v1.74h-10.06v-1.36l5.7-5.5a6.82,6.82,0,0,0,1.4-1.73,3.293,3.293,0,0,0,.36-1.47,2.06,2.06,0,0,0-.77-1.71,3.485,3.485,0,0,0-2.21-.61,4.389,4.389,0,0,0-3.58,1.52l-1.36-1.18a5.454,5.454,0,0,1,2.15-1.56,7.59,7.59,0,0,1,2.97-.56,5.408,5.408,0,0,1,3.5,1.05,3.468,3.468,0,0,1,1.3,2.85,4.84,4.84,0,0,1-.48,2.12,8.474,8.474,0,0,1-1.82,2.28l-4.28,4.12Z"/></g></g></g></svg>