<svg xmlns="http://www.w3.org/2000/svg" xmlns:xlink="http://www.w3.org/1999/xlink" width="80.245" height="80.245" viewBox="0 0 80.245 80.245"><defs><style>.a{fill:none;}.b{fill:#fff;}.c{fill:#0133a1;}.d{fill:#3d62af;}.e{clip-path:url(#a);}.f{clip-path:url(#b);}.g{fill:#63b2e9;}.h{clip-path:url(#c);}.i{clip-path:url(#d);}.j{clip-path:url(#e);}.k{clip-path:url(#g);}.l{clip-path:url(#h);}.m{clip-path:url(#i);}.n{clip-path:url(#j);}.o{clip-path:url(#k);}.p{clip-path:url(#m);}</style><clipPath id="a"><path class="a" d="M1063.122-199.755a40.123,40.123,0,0,0,40.123-40.123A40.123,40.123,0,0,0,1063.122-280,40.122,40.122,0,0,0,1023-239.877,40.122,40.122,0,0,0,1063.122-199.755Z" transform="translate(-1023 280)"/></clipPath><clipPath id="b"><path class="a" d="M447-114.3H1760.124V-935H447Z" transform="translate(-447 935)"/></clipPath><clipPath id="c"><path class="b" d="M1079.595-244.452h-4.7v-11.812a10.165,10.165,0,0,0-10.153-10.154H1060.1a10.165,10.165,0,0,0-10.154,10.154v11.812h-4.7v-11.812A14.872,14.872,0,0,1,1060.1-271.12h4.641a14.873,14.873,0,0,1,14.855,14.855Z" transform="translate(-1045.243 271.12)"/></clipPath><clipPath id="d"><path class="b" d="M447-114.3H1760.124V-935H447Z" transform="translate(-447 935)"/></clipPath><clipPath id="e"><path class="b" d="M1081.254-256.264v11.813h-4.7v-11.813a10.165,10.165,0,0,0-10.155-10.153h-2.32v-4.7h2.32A14.872,14.872,0,0,1,1081.254-256.264Z" transform="translate(-1064.078 271.119)"/></clipPath><clipPath id="g"><path class="c" d="M1074.27-208.48h-24.927a11.049,11.049,0,0,1-11.049-11.049v-23.456h47.026v23.456A11.049,11.049,0,0,1,1074.27-208.48Z" transform="translate(-1038.293 242.985)"/></clipPath><clipPath id="h"><path class="c" d="M447-114.3H1760.124V-935H447Z" transform="translate(-447 935)"/></clipPath><clipPath id="i"><path class="d" d="M1087.591-242.985v23.456a11.05,11.05,0,0,1-11.049,11.05h-12.464v-34.506Z" transform="translate(-1064.078 242.985)"/></clipPath><clipPath id="j"><path class="d" d="M447-114.3H1760.124V-935H447Z" transform="translate(-447 935)"/></clipPath><clipPath id="k"><path class="a" d="M1069.128-228.033a5.59,5.59,0,0,0-5.59-5.59,5.59,5.59,0,0,0-5.59,5.59,5.586,5.586,0,0,0,2.788,4.837v4.2a2.8,2.8,0,0,0,2.8,2.8,2.8,2.8,0,0,0,2.8-2.8v-4.2a5.588,5.588,0,0,0,2.788-4.837Z" transform="translate(-1057.948 233.623)"/></clipPath><clipPath id="m"><path class="a" d="M1069.669-228.032a5.59,5.59,0,0,1-2.789,4.837v4.2a2.8,2.8,0,0,1-2.8,2.8v-17.432a5.591,5.591,0,0,1,5.591,5.591Z" transform="translate(-1064.078 233.623)"/></clipPath></defs><g transform="translate(-553 -748.753)"><g class="e" transform="translate(553 748.753)"><g class="f" transform="translate(-525.25 -597.289)"><path class="g" d="M1018-195.636h89.364V-285H1018Z" transform="translate(-497.31 877.729)"/></g></g><g class="h" transform="translate(575.984 756.851)"><g class="i" transform="translate(-545.533 -605.387)"><path class="b" d="M1040.243-240.333h43.471V-276.12h-43.471Z" transform="translate(-499.27 876.947)"/></g></g><g class="j" transform="translate(593.159 756.852)"><g class="i" transform="translate(-562.708 -605.387)"><path class="b" d="M1059.078-240.332h26.3v-35.787h-26.3Z" transform="translate(-500.929 876.947)"/></g></g><g class="k" transform="translate(569.646 782.507)"><g class="l" transform="translate(-539.195 -631.043)"><path class="c" d="M1033.293-204.361h56.145v-43.624h-56.145Z" transform="translate(-498.657 874.468)"/></g></g><g class="m" transform="translate(593.159 782.507)"><g class="n" transform="translate(-562.708 -631.043)"><path class="d" d="M1059.078-204.36h32.632v-43.625h-32.632Z" transform="translate(-500.929 874.468)"/></g></g><g class="o" transform="translate(587.57 791.044)"><g class="f" transform="translate(-557.118 -639.58)"><path class="b" d="M1052.948-212.073h20.3v-26.55h-20.3Z" transform="translate(-500.389 873.643)"/></g></g><g class="p" transform="translate(593.159 791.044)"><g class="f" transform="translate(-562.708 -639.58)"><path class="b" d="M1059.078-212.072h14.709v-26.551h-14.709Z" transform="translate(-500.929 873.643)"/></g></g></g></svg>