<svg xmlns="http://www.w3.org/2000/svg" width="28.929" height="30.446" viewBox="0 0 28.929 30.446"><defs><style>.a{fill:#00c450;}</style></defs><g transform="translate(-687.497 -91.352)"><rect class="a" width="1.286" height="3.324" transform="translate(708.141 100.769)"/><rect class="a" width="1.286" height="3.324" transform="translate(708.141 107.533)"/><rect class="a" width="1.286" height="3.324" transform="translate(703.593 100.769)"/><rect class="a" width="1.286" height="3.324" transform="translate(703.593 107.533)"/><rect class="a" width="1.286" height="3.324" transform="translate(699.044 100.769)"/><rect class="a" width="1.286" height="3.324" transform="translate(699.044 107.533)"/><rect class="a" width="1.286" height="3.324" transform="translate(694.496 100.769)"/><rect class="a" width="1.286" height="3.324" transform="translate(694.496 107.533)"/><path class="a" d="M712.89,120.513V98.182l-21.858-6.83v29.161H687.5V121.8h28.929v-1.286Zm-12.214,0V115.37h2.571v5.143Zm3.857,0v-6.429H699.39v6.429h-7.072V93.1L711.6,99.128v21.385Z" transform="translate(0 0)"/></g></svg>