<svg xmlns="http://www.w3.org/2000/svg" xmlns:xlink="http://www.w3.org/1999/xlink" width="77.772" height="107.247" viewBox="0 0 77.772 107.247"><defs><style>.a{fill:#fdd4a6;}.b{fill:#f3bd89;}.c{fill:#1b1464;}.d{fill:#cb655c;fill-rule:evenodd;}.e{fill:#c9c9c9;}.f,.m,.z{fill:#fff;}.g{fill:#395c70;}.h{opacity:0.7;}.i{fill:#0854c4;}.j{fill:none;stroke:#0d369b;stroke-miterlimit:10;stroke-width:0.5px;stroke-dasharray:5;}.k{fill:#d60b8e;}.l{fill:#00c450;}.m{opacity:0.23;}.n{fill:#242424;}.o{fill:url(#a);}.p{fill:#e6e6e6;}.q{fill:#666;}.r{fill:#999;}.s{fill:url(#b);}.t{fill:#3d62af;}.u{fill:#b2dde0;}.v{opacity:0.552;}.w,.x{fill:#4fdbff;}.x,.z{opacity:0.203;}.y{opacity:0.69;}.aa{fill:#bddcf2;}.ab{fill:#264291;}.ac{fill:#bfbfbf;}.ad{fill:#e50312;}</style><linearGradient id="a" x1="-185.685" y1="22.16" x2="-185.685" y2="23.15" gradientUnits="objectBoundingBox"><stop offset="0.405" stop-color="#4d4d4d"/><stop offset="0.579" stop-color="#1a1a1a"/></linearGradient><linearGradient id="b" x1="-185.686" y1="22.143" x2="-185.686" y2="23.133" xlink:href="#a"/></defs><g transform="translate(-137.824 -692)"><g transform="translate(137.824 715.854)"><path class="a" d="M-477.34,299.069l5.789-23.5a43.192,43.192,0,0,0,8.76-5.635,43.444,43.444,0,0,0,9.764-11.539c-11.757-9.107-23.326-17.913-35.084-27.021-.977-1.866-3.234-2.822-4.588-2.115a2.557,2.557,0,0,0-1.088,1.153,3.436,3.436,0,0,0-.294,2.182c.182.965.385,2.145.572,3.5.489,3.521.6,6.2.617,6.715a58.182,58.182,0,0,1-.791,11.674,15.658,15.658,0,0,0,.559,4.843,15.662,15.662,0,0,0,1.988,4.38l-1.158,2.74-14.684,32.629Z" transform="translate(506.978 -215.676)"/><path class="b" d="M-436.744,355.2l8.374-24.6a43.1,43.1,0,0,0,6.5-3.145A43.846,43.846,0,0,0-410.2,317.362a43.859,43.859,0,0,1-8.23,8.9,43.83,43.83,0,0,1-8.49,5.441l-5.789,23.5Z" transform="translate(462.349 -271.809)"/><path class="a" d="M-362.711,198.314l-3.6,4.065a3.548,3.548,0,0,1-5.008.3h0a3.547,3.547,0,0,1-.3-5.008l3.6-4.065a3.548,3.548,0,0,1,5.008-.3h0A3.548,3.548,0,0,1-362.711,198.314Z" transform="translate(421.536 -192.414)"/></g><path class="c" d="M-441.959,190.014h0Z" transform="translate(620.761 559.418)"/><path class="d" d="M-315.463,324.022" transform="translate(531.059 439.815)"/><rect class="e" width="35.795" height="67.014" rx="4" transform="translate(156.689 696.833)"/><path class="f" d="M3.374,0H32.916a0,0,0,0,1,0,0V62.331a1.694,1.694,0,0,1-1.694,1.694H1.7a1.7,1.7,0,0,1-1.7-1.7V3.374A3.374,3.374,0,0,1,3.374,0Z" transform="translate(158.128 698.328)"/><path class="e" d="M0,0H16.126a0,0,0,0,1,0,0V0a3.432,3.432,0,0,1-3.432,3.432H3.432A3.432,3.432,0,0,1,0,0V0A0,0,0,0,1,0,0Z" transform="translate(166.523 698.125)"/><rect class="g" width="6.72" height="1.144" rx="0.572" transform="translate(171.278 698.827)"/><g transform="translate(190.399 692)"><g class="h" transform="translate(0 0)"><path class="i" d="M-362.375,130.132a.392.392,0,0,1-.392-.392v-2.368a.392.392,0,0,1,.392-.392.392.392,0,0,1,.392.392v2.368A.392.392,0,0,1-362.375,130.132Z" transform="translate(362.767 -126.98)"/><path class="i" d="M-355.361,134.535a.391.391,0,0,1-.277-.115.392.392,0,0,1,0-.555l1.674-1.674a.392.392,0,0,1,.555,0,.392.392,0,0,1,0,.555l-1.674,1.675A.391.391,0,0,1-355.361,134.535Z" transform="translate(358.31 -130.218)"/><path class="i" d="M-350,144.344h-2.368a.392.392,0,0,1-.392-.392.392.392,0,0,1,.392-.392H-350a.392.392,0,0,1,.392.392A.392.392,0,0,1-350,144.344Z" transform="translate(356.408 -137.515)"/></g></g><path class="j" d="M-440.957,189.211v-8.968h26.094v8.452" transform="translate(602.851 531.175)"/><rect class="k" width="29.837" height="4.485" rx="1.611" transform="translate(160.5 742.931)"/><rect class="l" width="29.837" height="4.796" rx="1.611" transform="translate(160.332 742.287)"/><g transform="translate(186.112 726.559)"><path class="a" d="M-362.711,227.671l-3.6,4.065a3.548,3.548,0,0,1-5.008.3h0a3.547,3.547,0,0,1-.3-5.008l3.6-4.065a3.548,3.548,0,0,1,5.008-.3h0A3.548,3.548,0,0,1-362.711,227.671Z" transform="translate(373.248 -221.771)"/><path class="a" d="M-362.711,255.965l-3.6,4.065a3.548,3.548,0,0,1-5.008.3h0a3.547,3.547,0,0,1-.3-5.008l3.6-4.065a3.548,3.548,0,0,1,5.008-.3h0A3.548,3.548,0,0,1-362.711,255.965Z" transform="translate(373.248 -239.75)"/><rect class="a" width="9.33" height="7.074" rx="3.537" transform="matrix(0.663, -0.749, 0.749, 0.663, 0, 27.025)"/></g><path class="c" d="M-441.85,190.014h0Z" transform="translate(603.715 524.966)"/><path class="i" d="M-418.7,143.918h-8.067a3.431,3.431,0,0,1-3.43,3.382h-9.262a3.431,3.431,0,0,1-3.43-3.382h-7.834a.561.561,0,0,0-.562.561v5.88a.561.561,0,0,0,.562.561H-418.7a.561.561,0,0,0,.561-.561v-5.88A.561.561,0,0,0-418.7,143.918Z" transform="translate(609.41 554.258)"/><path class="m" d="M-421.75,140.239h-29.882a3.39,3.39,0,0,0-3.6,3.136v60.741a3.39,3.39,0,0,0,3.6,3.137h2.411Z" transform="translate(611.919 556.596)"/><g transform="translate(161.739 721.964)"><path class="n" d="M-574.954,138.568l-20.961.01-1.055,3.247,22.858.095s.93-1.167.125-2.025C-574.248,139.616-574.954,138.568-574.954,138.568Z" transform="translate(598.009 -134.268)"/><g transform="translate(1.751 4.593)"><ellipse class="o" cx="2.123" cy="2.123" rx="2.123" ry="2.123" transform="matrix(0.262, -0.965, 0.965, 0.262, 0, 4.097)"/><ellipse class="n" cx="1.818" cy="1.818" rx="1.818" ry="1.818" transform="translate(0.194 1.709) rotate(-24.628)"/><circle class="p" cx="1.211" cy="1.211" r="1.211" transform="translate(0.891 2.604) rotate(-45)"/><ellipse class="n" cx="1.024" cy="1.024" rx="1.024" ry="1.024" transform="matrix(0.854, -0.52, 0.52, 0.854, 1.196, 2.261)"/><path class="p" d="M-552.915,175.764a.484.484,0,0,1-.486.482.484.484,0,0,1-.482-.486.484.484,0,0,1,.486-.482A.484.484,0,0,1-552.915,175.764Z" transform="translate(556.002 -173.158)"/><path class="p" d="M-561.233,167.064l-.775-.241.761-.244-.092-.288-.78.25.479-.678-.094-.066-.468.663,0-.8h-.3l0,.819-.5-.665-.092.069.485.65-.759-.25-.094.287.778.256-.785.267.037.109.768-.261-.473.645.244.178.484-.661.011.829.115,0-.011-.811.467.649.245-.176-.479-.665.792.246Z" transform="translate(564.959 -164.172)"/><g transform="translate(2.222 2.268)"><g transform="translate(0 0.361)"><path class="q" d="M-552.285,183.014a.074.074,0,0,1,.093.048.074.074,0,0,1-.048.093.074.074,0,0,1-.093-.048A.074.074,0,0,1-552.285,183.014Z" transform="translate(552.336 -183.011)"/><path class="r" d="M-551.955,183.359a.051.051,0,0,1,.064.033.051.051,0,0,1-.033.064.051.051,0,0,1-.065-.033A.051.051,0,0,1-551.955,183.359Z" transform="translate(552.013 -183.334)"/></g><g transform="translate(0.307 0.586)"><path class="q" d="M-547.67,186.506a.074.074,0,0,1,.074-.074.074.074,0,0,1,.074.074.074.074,0,0,1-.074.074A.074.074,0,0,1-547.67,186.506Z" transform="translate(547.67 -186.432)"/><path class="r" d="M-547.324,186.828a.051.051,0,0,1,.052-.051.051.051,0,0,1,.051.051.051.051,0,0,1-.051.051A.051.051,0,0,1-547.324,186.828Z" transform="translate(547.347 -186.754)"/></g><g transform="translate(0.615 0.364)"><path class="q" d="M-542.924,183.195a.074.074,0,0,1-.047-.093.074.074,0,0,1,.093-.047.074.074,0,0,1,.047.093A.074.074,0,0,1-542.924,183.195Z" transform="translate(542.975 -183.05)"/><path class="r" d="M-542.595,183.5a.051.051,0,0,1-.032-.065.051.051,0,0,1,.065-.033.051.051,0,0,1,.033.065A.052.052,0,0,1-542.595,183.5Z" transform="translate(542.653 -183.373)"/></g><g transform="translate(0.499 0.002)"><path class="q" d="M-544.606,177.659a.074.074,0,0,1-.1.016.074.074,0,0,1-.016-.1.074.074,0,0,1,.1-.016A.074.074,0,0,1-544.606,177.659Z" transform="translate(544.74 -177.541)"/><path class="r" d="M-544.3,177.968a.051.051,0,0,1-.072.011.051.051,0,0,1-.011-.072.051.051,0,0,1,.072-.011A.052.052,0,0,1-544.3,177.968Z" transform="translate(544.417 -177.864)"/></g><g transform="translate(0.119)"><path class="q" d="M-550.391,177.547a.074.074,0,0,1-.017.1.074.074,0,0,1-.1-.017.074.074,0,0,1,.017-.1A.074.074,0,0,1-550.391,177.547Z" transform="translate(550.525 -177.517)"/><path class="r" d="M-550.086,177.883a.051.051,0,0,1-.012.072.051.051,0,0,1-.071-.012.051.051,0,0,1,.012-.072A.051.051,0,0,1-550.086,177.883Z" transform="translate(550.202 -177.839)"/></g></g></g><g transform="translate(18.491 4.438)"><ellipse class="s" cx="2.123" cy="2.123" rx="2.123" ry="2.123" transform="translate(0 1.831) rotate(-25.551)"/><ellipse class="n" cx="1.818" cy="1.818" rx="1.818" ry="1.818" transform="translate(0.287 3.209) rotate(-53.46)"/><ellipse class="p" cx="1.211" cy="1.211" rx="1.211" ry="1.211" transform="translate(1.118 2.798) rotate(-43.914)"/><path class="n" d="M-301.944,169.171a1.024,1.024,0,0,1-1.029,1.02,1.024,1.024,0,0,1-1.02-1.029,1.024,1.024,0,0,1,1.029-1.02A1.024,1.024,0,0,1-301.944,169.171Z" transform="translate(305.799 -166.336)"/><path class="p" d="M-294.8,176.856a.484.484,0,0,1-.486.482.484.484,0,0,1-.482-.486.484.484,0,0,1,.486-.482A.484.484,0,0,1-294.8,176.856Z" transform="translate(298.113 -174.023)"/><path class="p" d="M-303.118,168.157l-.775-.24.761-.244-.092-.288-.78.25.479-.677-.094-.066-.468.663,0-.8h-.3l0,.819-.5-.665-.092.069.486.65-.759-.25-.095.287.778.256-.785.267.037.109.768-.261-.473.645.244.178.484-.661.011.829.115,0-.011-.811.467.649.245-.176-.479-.665.792.246Z" transform="translate(307.07 -165.038)"/><g transform="translate(2.448 2.494)"><g transform="translate(0 0.361)"><path class="q" d="M-294.169,184.107a.074.074,0,0,1,.093.048.074.074,0,0,1-.048.093.074.074,0,0,1-.093-.048A.074.074,0,0,1-294.169,184.107Z" transform="translate(294.22 -184.103)"/><path class="r" d="M-293.84,184.451a.051.051,0,0,1,.065.033.051.051,0,0,1-.033.064.051.051,0,0,1-.065-.033A.051.051,0,0,1-293.84,184.451Z" transform="translate(293.898 -184.426)"/></g><g transform="translate(0.307 0.586)"><path class="q" d="M-289.554,187.6a.074.074,0,0,1,.074-.074.074.074,0,0,1,.074.074.074.074,0,0,1-.074.074A.074.074,0,0,1-289.554,187.6Z" transform="translate(289.554 -187.524)"/><path class="r" d="M-289.209,187.92a.051.051,0,0,1,.051-.051.051.051,0,0,1,.051.051.051.051,0,0,1-.051.051A.051.051,0,0,1-289.209,187.92Z" transform="translate(289.232 -187.846)"/></g><g transform="translate(0.615 0.364)"><path class="q" d="M-284.809,184.287a.074.074,0,0,1-.047-.093.074.074,0,0,1,.093-.047.074.074,0,0,1,.047.093A.074.074,0,0,1-284.809,184.287Z" transform="translate(284.86 -184.143)"/><path class="r" d="M-284.479,184.588a.051.051,0,0,1-.033-.065.051.051,0,0,1,.065-.033.051.051,0,0,1,.033.065A.051.051,0,0,1-284.479,184.588Z" transform="translate(284.537 -184.465)"/></g><g transform="translate(0.499 0.002)"><path class="q" d="M-286.49,178.751a.074.074,0,0,1-.1.016.074.074,0,0,1-.016-.1.074.074,0,0,1,.1-.016A.074.074,0,0,1-286.49,178.751Z" transform="translate(286.624 -178.633)"/><path class="r" d="M-286.186,179.06a.051.051,0,0,1-.072.011.051.051,0,0,1-.011-.072.051.051,0,0,1,.072-.011A.051.051,0,0,1-286.186,179.06Z" transform="translate(286.301 -178.956)"/></g><g transform="translate(0.119)"><path class="q" d="M-292.275,178.64a.074.074,0,0,1-.017.1.074.074,0,0,1-.1-.017.074.074,0,0,1,.017-.1A.074.074,0,0,1-292.275,178.64Z" transform="translate(292.409 -178.609)"/><path class="r" d="M-291.971,178.976a.051.051,0,0,1-.012.072.051.051,0,0,1-.072-.012.051.051,0,0,1,.012-.072A.051.051,0,0,1-291.971,178.976Z" transform="translate(292.086 -178.932)"/></g></g></g><path class="t" d="M-587.265,80.087a1.688,1.688,0,0,0,.983-1.791l-.3-2a.447.447,0,0,0-.327-.366,15.485,15.485,0,0,1-1.98-.682,23.624,23.624,0,0,0-8.929-2.09,10.6,10.6,0,0,0-4.958,1c-1.13.529-3.028,1.6-3.028,1.6l-5.326,1.454a1.959,1.959,0,0,0-1.424,1.491,6.563,6.563,0,0,0-.22,1.313c0,.514.27.913.784.916l1.038,0a2.592,2.592,0,0,1-.063-.578,2.6,2.6,0,0,1,2.607-2.585,2.6,2.6,0,0,1,2.585,2.607,2.6,2.6,0,0,1-.068.578l11.911.05a2.6,2.6,0,0,1-.063-.578,2.6,2.6,0,0,1,2.607-2.585,2.6,2.6,0,0,1,2.585,2.607,2.643,2.643,0,0,1-.026.351Z" transform="translate(612.771 -73.15)"/><g transform="translate(0.606)"><path class="u" d="M-327.839,185.794a2.616,2.616,0,0,0,.02.328h.044a2.609,2.609,0,0,1-.06-.462Q-327.839,185.727-327.839,185.794Z" transform="translate(345.963 -178.265)"/><path class="t" d="M-602.52,77.461l5.326-1.454s1.9-1.074,3.028-1.6a10.6,10.6,0,0,1,4.958-1,23.444,23.444,0,0,1,9.033,2.344,15.5,15.5,0,0,0,1.979.682.445.445,0,0,1,.277.218l-.053-.356a.447.447,0,0,0-.327-.366,15.472,15.472,0,0,1-1.98-.682,23.624,23.624,0,0,0-8.929-2.09,10.6,10.6,0,0,0-4.958,1c-1.13.529-3.028,1.6-3.028,1.6l-5.326,1.454a1.7,1.7,0,0,0-1.038.7A3.178,3.178,0,0,1-602.52,77.461Z" transform="translate(603.557 -73.15)"/><path class="u" d="M-249.206,186.048q-.006.117-.022.231l.023-.01q0-.045,0-.091Q-249.2,186.112-249.206,186.048Z" transform="translate(272.519 -178.627)"/><path class="u" d="M-508,184.9a2.621,2.621,0,0,1-.064.461h.044a2.592,2.592,0,0,0,.023-.328C-508,184.991-508,184.946-508,184.9Z" transform="translate(514.341 -177.556)"/><path class="u" d="M-586.035,184.7a2.564,2.564,0,0,0,.02.328h.044a2.605,2.605,0,0,1-.06-.462Q-586.035,184.634-586.035,184.7Z" transform="translate(587.187 -177.244)"/></g><g class="v" transform="translate(7.67 0.389)"><path class="w" d="M-495.853,81.8a.229.229,0,0,1-.228-.162.229.229,0,0,1,.1-.262,14.625,14.625,0,0,1,6.076-2.283,13.686,13.686,0,0,1,5.172.582,16.211,16.211,0,0,1,3.659,1.48c-.023.1-.572.1-.671.106Z" transform="translate(496.091 -79.062)"/><path class="x" d="M-493.642,83.866a.072.072,0,0,1-.069-.052.073.073,0,0,1,.031-.083,14.36,14.36,0,0,1,6-2.26c.444-.023.842-.034,1.218-.032a12.515,12.515,0,0,1,3.553.519l.355.091a20.21,20.21,0,0,1,3.307,1.267c-.066,0-.148.009-.247.011h-.039Z" transform="translate(493.871 -81.282)"/><path class="w" d="M-482.552,82.54l-.355-.091a13.467,13.467,0,0,0-2.61-.484l.5.128.355.091a20.206,20.206,0,0,1,3.307,1.267c-.066,0-.148.008-.247.011h-.039l-11.5.439c-.2.113-.376.221-.537.321a.073.073,0,0,0-.031.083.072.072,0,0,0,.069.052l14.11-.538h.039c.1,0,.181-.007.247-.011A20.211,20.211,0,0,0-482.552,82.54Z" transform="translate(493.871 -81.774)"/><path class="w" d="M-493.581,105.138l.411.876a14.055,14.055,0,0,1-1.734.054c-.146-.067-.1-.228.141-.351S-493.581,105.138-493.581,105.138Z" transform="translate(495.06 -103.424)"/><path class="w" d="M-288.873,104.119l-.175.507a11.615,11.615,0,0,0,1.185-.06C-287.889,104.527-288.687,104.2-288.873,104.119Z" transform="translate(302.658 -102.472)"/><path class="w" d="M-407.257,80.347l-.651,2.294,1.594-.087.127-2.28Z" transform="translate(413.704 -80.195)"/></g><g class="y" transform="translate(7.835 0.389)"><path class="f" d="M-495.853,81.8a.229.229,0,0,1-.228-.162.229.229,0,0,1,.1-.262,14.625,14.625,0,0,1,6.076-2.283,13.686,13.686,0,0,1,5.172.582,16.211,16.211,0,0,1,3.659,1.48c-.023.1-.572.1-.671.106Z" transform="translate(496.091 -79.062)"/><path class="z" d="M-493.642,83.866a.072.072,0,0,1-.069-.052.073.073,0,0,1,.031-.083,14.36,14.36,0,0,1,6-2.26c.444-.023.842-.034,1.218-.032a12.515,12.515,0,0,1,3.553.519l.355.091a20.21,20.21,0,0,1,3.307,1.267c-.066,0-.148.009-.247.011h-.039Z" transform="translate(493.871 -81.282)"/><path class="f" d="M-482.552,82.54l-.355-.091a13.467,13.467,0,0,0-2.61-.484l.5.128.355.091a20.206,20.206,0,0,1,3.307,1.267c-.066,0-.148.008-.247.011h-.039l-11.5.439c-.2.113-.376.221-.537.321a.073.073,0,0,0-.031.083.072.072,0,0,0,.069.052l14.11-.538h.039c.1,0,.181-.007.247-.011A20.211,20.211,0,0,0-482.552,82.54Z" transform="translate(493.871 -81.774)"/><path class="f" d="M-493.581,105.138l.411.876a14.055,14.055,0,0,1-1.734.054c-.146-.067-.1-.228.141-.351S-493.581,105.138-493.581,105.138Z" transform="translate(495.06 -103.424)"/><path class="f" d="M-288.873,104.119l-.175.507a11.615,11.615,0,0,0,1.185-.06C-287.889,104.527-288.687,104.2-288.873,104.119Z" transform="translate(302.658 -102.472)"/><path class="f" d="M-407.257,80.347l-.651,2.294,1.594-.087.127-2.28Z" transform="translate(413.704 -80.195)"/></g><g transform="translate(7.981 1.478)"><path class="aa" d="M-481.837,101.561a.523.523,0,0,1-.112.011l-8.9-.069a.515.515,0,0,1-.509-.51c-.006-.964-.012-2.611.018-2.817a14.782,14.782,0,0,1,.684-1.831l.054.023a15.225,15.225,0,0,0-.68,1.816c-.03.21-.022,2.034-.017,2.808a.456.456,0,0,0,.451.451l8.9.069a.452.452,0,0,0,.445-.348,7.7,7.7,0,0,1,2.269-3.85,13.144,13.144,0,0,0,.363-1.68l.058.01a12.1,12.1,0,0,1-.382,1.714,7.635,7.635,0,0,0-2.251,3.82A.51.51,0,0,1-481.837,101.561Z" transform="translate(491.361 -95.636)"/></g><path class="ab" d="M-475.109,107.5a.226.226,0,0,1-.227.225l-.513,0a.226.226,0,0,1-.183-.095.226.226,0,0,1-.03-.2,1.105,1.105,0,0,1,.294-.46c.453-.421.662-.248.662-.248Z" transform="translate(485.059 -104.475)"/><g transform="translate(13.756 0.386)"><path class="ac" d="M-403.436,86.012h-.058s.014-3.285.015-3.455a8.558,8.558,0,0,1,.457-1.2l.425-2.331.058.01-.428,2.338a8.333,8.333,0,0,0-.454,1.182C-403.423,82.727-403.436,86.012-403.436,86.012Z" transform="translate(403.495 -79.027)"/></g><g transform="translate(24.172 3.557)"><path class="ad" d="M-242.956,127.267s-2.111-.069-2.081.2,2.278,1.113,2.278,1.113A1.786,1.786,0,0,0-242.956,127.267Z" transform="translate(245.038 -127.259)"/><path class="ad" d="M-244.309,127.562c-.018-.168.78-.206,1.393-.21-.013-.028-.026-.056-.04-.085,0,0-2.111-.069-2.081.2s2.278,1.113,2.278,1.113a.9.9,0,0,0,.037-.179C-243.386,128.132-244.29,127.734-244.309,127.562Z" transform="translate(245.038 -127.259)"/><path class="ad" d="M-244.7,127.56c-.023-.208,1.2-.216,1.783-.209-.013-.028-.026-.056-.04-.084,0,0-2.111-.069-2.081.2s2.278,1.113,2.278,1.113,0-.012.011-.036C-243.374,128.3-244.677,127.767-244.7,127.56Z" transform="translate(245.038 -127.259)"/></g></g></g></svg>