<svg xmlns="http://www.w3.org/2000/svg" width="67.5" height="63.078" viewBox="0 0 67.5 63.078"><defs><style>.a,.b,.c{fill:#00c450;}.b{stroke:#3256bf;}.b,.c{stroke-miterlimit:10;stroke-width:5px;}.c{stroke:#00adee;}</style></defs><g transform="translate(-540.499 -227.603)"><g transform="translate(540.499 247.869)"><path class="a" d="M603.755,309.227H544.744a4.25,4.25,0,0,1-4.245-4.245V270.66a4.25,4.25,0,0,1,4.245-4.245h2.782v2.611h-2.782a1.635,1.635,0,0,0-1.634,1.634v34.323a1.636,1.636,0,0,0,1.634,1.634h59.011a1.636,1.636,0,0,0,1.634-1.634V271.617a2.594,2.594,0,0,0-2.591-2.591h-1.223v-2.611H602.8a5.208,5.208,0,0,1,5.2,5.2v33.365A4.25,4.25,0,0,1,603.755,309.227Z" transform="translate(-540.499 -266.415)"/></g><g transform="translate(574.672 249.174)"><path class="b" d="M605.947,268.915" transform="translate(-605.947 -268.915)"/></g><g transform="translate(576.058 249.174)"><path class="b" d="M608.6,268.915" transform="translate(-608.6 -268.915)"/></g><g transform="translate(568.205 259.398)"><path class="c" d="M593.56,288.5" transform="translate(-593.56 -288.496)"/></g><g transform="translate(546.22 227.603)"><path class="a" d="M608.115,256.622H605.5v-23.8a2.611,2.611,0,0,0-2.608-2.608H556.674a2.61,2.61,0,0,0-2.608,2.608v22.614h-2.611V232.821a5.224,5.224,0,0,1,5.218-5.218H602.9a5.225,5.225,0,0,1,5.219,5.218Z" transform="translate(-551.456 -227.603)"/></g><g transform="translate(540.572 250.364)"><path class="a" d="M603.987,311.511h-59.13a4.088,4.088,0,0,1-4.078-4.053l-.141-36.264,28.23,14.619-1.2,2.319-24.4-12.637.124,31.95a1.47,1.47,0,0,0,1.467,1.455h59.13a1.469,1.469,0,0,0,1.467-1.467V277.124l-24.216,11.213-1.1-2.369,27.923-12.93v34.395A4.083,4.083,0,0,1,603.987,311.511Z" transform="translate(-540.638 -271.194)"/></g><g transform="translate(543.736 262.01)"><path class="a" d="M548.213,322.169a1.514,1.514,0,0,1-1.066-2.589l23.65-23.418a9.332,9.332,0,0,1,12.969-.085l24.342,23.479a1.514,1.514,0,0,1-1.051,2.6ZM577.326,296.1a6.649,6.649,0,0,0-4.691,1.914L550.88,319.557l53.46-.008-22.387-21.594A6.648,6.648,0,0,0,577.326,296.1Z" transform="translate(-546.698 -293.498)"/></g><g transform="translate(560.594 237.206)"><rect class="a" width="28.383" height="2.611" transform="translate(0)"/></g><g transform="translate(560.594 246.827)"><rect class="a" width="28.383" height="2.611" transform="translate(0)"/></g></g></svg>