<svg xmlns="http://www.w3.org/2000/svg" width="95" height="111.758" viewBox="0 0 95 111.758"><defs><style>.a{fill:#00c450;}.b{opacity:0.25;}.c{fill:#3256bf;}.d{fill:#00adee;}</style></defs><g transform="translate(-370.232 -1106.22)"><g transform="translate(370.232 1127.627)"><path class="a" d="M447.089,1236.834,417.732,1221.4l-29.356,15.433,5.606-32.689-23.75-23.151,32.822-4.769,14.678-29.741,14.678,29.741,32.822,4.769-23.75,23.151Zm-71.144-53.983,20.893,20.366-4.932,28.758,25.826-13.577,25.826,13.577-4.932-28.758,20.893-20.366-28.874-4.2-12.913-26.165-12.913,26.165Z" transform="translate(-370.232 -1146.484)"/></g><g class="b" transform="translate(403.223 1179.607)"><line class="c" x1="2.366" y1="2.306" transform="translate(0)"/></g><g transform="translate(401.82 1173.878)"><path class="d" d="M445.167,1244.345a18.253,18.253,0,0,1-15.522-8.171l2.254-1.409a15.577,15.577,0,0,0,13.267,6.922c6.123,0,11.609-3.224,13.974-8.212l2.4,1.139C458.739,1240.525,452.311,1244.345,445.167,1244.345Z" transform="translate(-429.645 -1233.475)"/></g><g transform="translate(454.843 1133.552)"><g transform="translate(1.601 0)"><rect class="c" width="2.127" height="10.115" transform="matrix(0.855, -0.518, 0.518, 0.855, 0, 1.103)"/></g><g transform="translate(0 1.501)"><rect class="c" width="10.115" height="2.126" transform="matrix(0.855, -0.518, 0.518, 0.855, 0, 5.244)"/></g></g><g transform="translate(382.717 1137.877)"><g transform="translate(1.601 0)"><rect class="c" width="2.127" height="10.115" transform="matrix(0.855, -0.518, 0.518, 0.855, 0, 1.103)"/></g><g transform="translate(0 1.501)"><rect class="c" width="10.115" height="2.126" transform="matrix(0.855, -0.518, 0.518, 0.855, 0, 5.244)"/></g></g><g transform="translate(413.241 1106.22)"><g transform="translate(1.184 0)"><rect class="d" width="2.658" height="8.423" transform="translate(0 1.378) rotate(-31.224)"/></g><g transform="translate(0 1.1)"><rect class="d" width="8.423" height="2.658" transform="translate(0 4.366) rotate(-31.225)"/></g></g><g class="b" transform="translate(440.085 1122.809)"><circle class="c" cx="2.6" cy="2.6" r="2.6" transform="translate(0 0)"/></g><g class="b" transform="translate(381.471 1187.903)"><circle class="c" cx="2.257" cy="2.257" r="2.257"/></g><g class="b" transform="translate(389.317 1118.567)"><circle class="c" cx="2.6" cy="2.6" r="2.6" transform="translate(0)"/></g></g></svg>