<svg xmlns="http://www.w3.org/2000/svg" xmlns:xlink="http://www.w3.org/1999/xlink" width="83.999" height="83.999" viewBox="0 0 83.999 83.999"><defs><style>.a{fill:none;}.b{fill:#fff;}.c{fill:#0133a1;}.d{clip-path:url(#a);}.e{clip-path:url(#b);}.f{fill:#63b2e9;}.g{clip-path:url(#c);}.h{clip-path:url(#d);}.i{clip-path:url(#e);}.j{clip-path:url(#g);}.k{clip-path:url(#h);}.l{clip-path:url(#i);}.m{clip-path:url(#k);}.n{clip-path:url(#m);}.o{clip-path:url(#o);}.p{clip-path:url(#q);}</style><clipPath id="a"><path class="a" d="M1470-196a42,42,0,0,0,42-42,42,42,0,0,0-42-42,42,42,0,0,0-42,42A42,42,0,0,0,1470-196Z" transform="translate(-1428 280)"/></clipPath><clipPath id="b"><path class="a" d="M447-75.909H1821.545V-935H447Z" transform="translate(-447 935)"/></clipPath><clipPath id="c"><path class="b" d="M1485.33-225.268l7.99,11.988-4.1,2.733-4.1,2.736-7.991-11.988-8.066,11-7.64-43.449,37.165,23.768Z" transform="translate(-1461.418 252.251)"/></clipPath><clipPath id="d"><path class="b" d="M447-75.909H1821.545V-935H447Z" transform="translate(-447 935)"/></clipPath><clipPath id="e"><path class="b" d="M1485.33-225.268l7.99,11.988-4.1,2.733-27.8-41.7,37.165,23.768Z" transform="translate(-1461.418 252.251)"/></clipPath><clipPath id="g"><path class="c" d="M1460.083-259.766a1.191,1.191,0,0,1-1.362-.989l-1.489-9.4a1.19,1.19,0,0,1,.989-1.362,1.191,1.191,0,0,1,1.362.989l1.489,9.4A1.189,1.189,0,0,1,1460.083-259.766Z" transform="translate(-1457.217 271.534)"/></clipPath><clipPath id="h"><path class="c" d="M447-75.909H1821.545V-935H447Z" transform="translate(-447 935)"/></clipPath><clipPath id="i"><path class="c" d="M1451.415-247.907l-9.4,1.489a1.191,1.191,0,0,1-1.362-.989,1.191,1.191,0,0,1,.99-1.361l9.4-1.489a1.191,1.191,0,0,1,1.362.989A1.191,1.191,0,0,1,1451.415-247.907Z" transform="translate(-1440.636 250.273)"/></clipPath><clipPath id="k"><path class="c" d="M1480.967-252.588l-9.4,1.489a1.19,1.19,0,0,1-1.361-.989,1.19,1.19,0,0,1,.989-1.362l9.4-1.489a1.19,1.19,0,0,1,1.361.989A1.19,1.19,0,0,1,1480.967-252.588Z" transform="translate(-1470.188 254.953)"/></clipPath><clipPath id="m"><path class="c" d="M1453.279-255.6a1.19,1.19,0,0,1-.886-.211l-7.7-5.59a1.2,1.2,0,0,1-.266-1.671,1.2,1.2,0,0,1,1.671-.265l7.695,5.6a1.19,1.19,0,0,1,.265,1.662,1.191,1.191,0,0,1-.78.477h0Z" transform="translate(-1444.197 263.561)"/></clipPath><clipPath id="o"><path class="c" d="M1449.989-233.7a1.19,1.19,0,0,1-1.363-.987,1.19,1.19,0,0,1,.213-.889l5.6-7.7a1.19,1.19,0,0,1,1.667-.234,1.191,1.191,0,0,1,.259,1.633l-5.588,7.7A1.188,1.188,0,0,1,1449.989-233.7Z" transform="translate(-1448.61 243.749)"/></clipPath><clipPath id="q"><path class="c" d="M1467.575-257.9a1.189,1.189,0,0,1-1.363-.987,1.188,1.188,0,0,1,.213-.889l5.59-7.7a1.19,1.19,0,0,1,1.667-.234,1.19,1.19,0,0,1,.259,1.633l-5.588,7.7A1.187,1.187,0,0,1,1467.575-257.9Z" transform="translate(-1466.196 267.953)"/></clipPath></defs><g transform="translate(-936 -749)"><g class="d" transform="translate(936 749)"><g class="e" transform="translate(-936.409 -625.227)"><path class="f" d="M1423-191.456h93.544V-285H1423Z" transform="translate(-491.364 905.454)"/></g></g><g class="g" transform="translate(967.899 775.487)"><g class="h" transform="translate(-968.308 -651.714)"><path class="b" d="M1455.6-256.651l41.4-7.3,9.972,56.553-41.4,7.3Z" transform="translate(-492.846 904.497)"/></g></g><g class="i" transform="translate(967.899 775.487)"><g class="h" transform="translate(-968.308 -651.714)"><path class="b" d="M1455.626-256.654l41.38-7.3,9.628,54.6-41.38,7.3Z" transform="translate(-492.847 904.497)"/></g></g><g class="j" transform="translate(963.888 757.082)"><g class="k" transform="translate(-964.297 -633.308)"><path class="c" d="M1451.316-275.568l11.779-1.866,3.355,21.181-11.779,1.866Z" transform="translate(-492.652 905.11)"/></g></g><g class="l" transform="translate(948.061 777.376)"><g class="k" transform="translate(-948.47 -653.603)"><path class="c" d="M1434.736-252.818l21.182-3.355,1.865,11.779-21.182,3.355Z" transform="translate(-491.898 904.144)"/></g></g><g class="m" transform="translate(976.27 772.908)"><g class="k" transform="translate(-976.678 -649.135)"><path class="c" d="M1464.287-257.5l21.181-3.355,1.866,11.779-21.182,3.355Z" transform="translate(-493.241 904.357)"/></g></g><g class="n" transform="translate(951.461 764.691)"><g class="k" transform="translate(-951.869 -640.919)"><path class="c" d="M1438.3-267.645l18.431-2.919,2.919,18.432-18.431,2.919Z" transform="translate(-492.059 904.798)"/></g></g><g class="o" transform="translate(955.674 783.604)"><g class="k" transform="translate(-956.082 -659.83)"><path class="c" d="M1441.609-246.732l18.415-2.917,2.917,18.416-18.416,2.917Z" transform="translate(-492.21 903.847)"/></g></g><g class="p" transform="translate(972.46 760.5)"><g class="k" transform="translate(-972.869 -636.727)"><path class="c" d="M1459.2-270.937l18.407-2.916,2.917,18.416-18.408,2.916Z" transform="translate(-493.01 904.948)"/></g></g></g></svg>