<svg xmlns="http://www.w3.org/2000/svg" xmlns:xlink="http://www.w3.org/1999/xlink" width="637" height="339" viewBox="0 0 637 339"><defs><style>.a,.q{fill:#fff;}.ab,.ac,.ad,.ae,.af,.ag,.ak,.al,.am,.an,.ao,.ap,.aq,.b,.u,.v,.w,.x{fill:none;}.c{clip-path:url(#a);}.d,.k{fill:#f5fcf7;}.e,.s{fill:#00c450;}.f{fill:#90e8b0;}.g{fill:#8cdd9f;opacity:0.997;}.h,.p{fill:#3ac772;}.h{opacity:0.997;}.h,.l,.n{mix-blend-mode:multiply;isolation:isolate;}.i{fill:#a2e5b2;}.j{fill:#e5f9ea;}.k{opacity:0.63;}.l{fill:#dcf6e2;opacity:0.987;}.m{fill:#d0f3d8;}.n{fill:#c3efcc;}.o{fill:#b9e2c1;}.q{font-size:18px;font-family:Montserrat-Regular, Montserrat;}.r{clip-path:url(#b);}.s{font-size:13px;font-family:Geometria-Medium, Geometria;font-weight:500;}.t{fill:#131a3f;}.al,.u,.w{stroke:#262d61;}.ab,.ac,.ad,.ae,.af,.ag,.ak,.al,.am,.an,.ao,.ap,.aq,.u,.v,.x{stroke-linecap:round;}.ab,.ac,.ad,.af,.an,.ao,.ap,.u,.v,.x{stroke-linejoin:round;}.u{stroke-width:45.136px;}.an,.v{stroke:#f8bf68;}.v{stroke-width:25.126px;}.ae,.ag,.ak,.al,.am,.aq,.w{stroke-miterlimit:10;}.w{stroke-width:1.101px;}.ab,.ac,.ad,.af,.ao,.ap,.x{stroke:#f9c067;}.x{stroke-width:14.904px;}.y{fill:#f9c067;}.z{fill:#00a94f;}.aa{fill:#3c4b9b;}.ab{stroke-width:6.146px;}.ac{stroke-width:7.439px;}.ad{stroke-width:7.999px;}.ae,.ak{stroke:#fd9500;}.ae{stroke-width:1.416px;}.af{stroke-width:6.095px;}.ag{stroke:#131a3f;stroke-width:70.234px;}.ah{fill:#f8bf68;}.ai{fill:#262d61;}.aj{fill:#fd9500;}.ak{stroke-width:2.693px;}.al{stroke-width:4.418px;}.am{stroke:#427acc;stroke-width:3.314px;}.an{stroke-width:27.884px;}.ao{stroke-width:17.061px;}.ap{stroke-width:13.353px;}.aq{stroke:#26b160;stroke-width:1.096px;}</style><clipPath id="a"><rect class="a" width="637" height="339" transform="translate(0 1637.312)"/></clipPath><clipPath id="b"><path class="b" d="M447-170.328h904.831V-935H447Z" transform="translate(-447 935)"/></clipPath></defs><g transform="translate(-193 -2072)"><g class="c" transform="translate(193 434.688)"><path class="d" d="M0,0H545.256V339.312H0Z" transform="translate(-0.095 1637)"/><path class="e" d="M40,0H545a0,0,0,0,1,0,0V340a0,0,0,0,1,0,0H0a0,0,0,0,1,0,0V40A40,40,0,0,1,40,0Z" transform="translate(485 1637.312)"/><rect class="f" width="492" height="45" transform="translate(0 1932.312)"/><g transform="translate(77.594 1742.236)"><g transform="translate(0 0)"><g transform="translate(0 56.753)"><rect class="f" width="215.701" height="132.997"/><g transform="translate(0 29.137)"><rect class="f" width="13.546" height="7.017" transform="translate(0 73.63)"/><rect class="f" width="15.409" height="7.01" transform="translate(15.023 73.632)"/><rect class="f" width="15.409" height="7.01" transform="translate(6.79 65.4)"/><rect class="f" width="15.41" height="7.011" transform="translate(186.275 12.349)"/><rect class="f" width="12.538" height="7.01" transform="translate(203.163 12.348)"/><rect class="f" width="15.409" height="7.011" transform="translate(194.929 4.116)"/><rect class="f" width="15.409" height="7.01" transform="translate(193.307 71.327)"/><rect class="f" width="13.742" height="7.01" transform="translate(201.96 63.092)"/><rect class="f" width="15.409" height="7.011" transform="translate(16.112 8.232)"/><rect class="f" width="15.409" height="7.011" transform="translate(7.879)"/></g></g><g transform="translate(35.186 80.135)"><rect class="g" width="124.306" height="70.261" transform="translate(10.67 39.796)"/><path class="h" d="M252.758,225.007v90.015l-5.265-29.657H134.124l-5.673,29.657V225.007Z" transform="translate(-117.782 -205.159)"/><g transform="translate(28.278 37.826)"><path class="d" d="M166.767,276.588a11.954,11.954,0,0,0-.626,1.261c-.223.7-.313,1.041-.39,1.229a2.408,2.408,0,0,0-1.2-.152c-.358.135-.416.484-.822.593a6.626,6.626,0,0,1-1.708-.24c-1.042-.182-2.127-.327-3.167-.563-1.676-.381-2.254-1.935-2.161-3.5.111-1.465,1.6-1.944,2.788-2.116,1.172-.217,2.774-.743,3.883-.074C164.983,274,164.338,277.039,166.767,276.588Z" transform="translate(-156.414 -260.473)"/><path class="d" d="M245.454,281.125c-.086-1.462-3.5-4.609-4.472-5.561a35.756,35.756,0,0,0-3.663-3.051c-.448-.279-.539-.279-.655-.566-.072-.2-.164-.544-.389-1.238a11.049,11.049,0,0,0-.617-1.263c-1.963-3.536-7.668-12.349-8.148-12.842a7.121,7.121,0,0,0-3.584-1.981c-1.771-.306-19.48-1.228-22.8-1.228-3.339,0-21.046.967-22.818,1.276a6.89,6.89,0,0,0-3.572,1.981c-.483.488-6.164,9.329-8.127,12.847a13.7,13.7,0,0,0-.621,1.272c-.223.7-.305,1.041-.387,1.238a2.038,2.038,0,0,1-.7.594.128.128,0,0,1-.064.038,27.1,27.1,0,0,0-3.541,2.814c-1.612,1.7-4.387,4.278-4.461,5.741s-.69,2.5-.552,5.426c.064,1.422.459,5.706.852,9.786.389,4.287.79,8.358.836,8.674.074.616-.136,1.322.132,1.865.289.566.976.7,2.085.7.344,0,4.039.049,9.1.11,12.078.146,31.876.4,31.876.4s20.435-.292,32.449-.462c4.756-.065,8.218-.13,8.536-.13,1.1,0,1.805-.136,2.085-.69s.06-1.256.136-1.876c.047-.431.761-7.773,1.232-13.2.2-2.372.377-4.388.417-5.266C246.14,283.618,245.523,282.574,245.454,281.125Zm-44.323-10.857c-10.317-.214-33.311,1.125-33.964,1.135-.695-.01,8.46-14.331,8.46-14.331l25.519-.878,25.453.838s9.189,14.29,8.495,14.29C234.434,271.34,211.461,270.042,201.131,270.268Z" transform="translate(-156.258 -253.395)"/><path class="i" d="M241.414,272.944c-.659.011-23.648-1.281-33.967-1.049-10.32-.22-33.3,1.113-33.961,1.119-.695-.006,8.465-14.311,8.465-14.311l25.505-.888,25.456.832S242.112,272.944,241.414,272.944Z" transform="translate(-162.562 -255.016)"/><path class="j" d="M169.787,332.67l.008,6.556a.85.85,0,0,1-.83.836l-10.487.006a.853.853,0,0,1-.835-.834l-.013-17.918c.392,4.287.8,8.358.838,8.668.068.622-.139,1.329.132,1.875.289.562.976.7,2.085.7C161.024,332.56,164.719,332.6,169.787,332.67Z" transform="translate(-156.761 -278.304)"/><path class="j" d="M290.545,314.547l.018,21.938a.833.833,0,0,1-.838.841l-10.487.008a.838.838,0,0,1-.827-.826l-.006-6.568c4.769-.061,8.218-.119,8.533-.119,1.105,0,1.808-.136,2.087-.69s.063-1.256.136-1.876c.047-.431.757-7.766,1.232-13.19A.791.791,0,0,1,290.545,314.547Z" transform="translate(-201.054 -275.645)"/><path class="d" d="M289.555,278.6c-1.049.248-2.133.388-3.169.564a5.691,5.691,0,0,1-1.7.246c-.416-.11-.483-.455-.833-.59a2.3,2.3,0,0,0-1.205.163c-.067-.2-.166-.554-.391-1.238a8.7,8.7,0,0,0-.621-1.258c2.422.439,1.779-2.577,3.4-3.573,1.1-.667,2.708-.139,3.883.067,1.18.178,2.676.655,2.777,2.11C291.8,276.662,291.217,278.216,289.555,278.6Z" transform="translate(-202.238 -260.435)"/><path class="k" d="M236.381,297.815h-46.45a1.087,1.087,0,0,0-.913,1.191v10.55a1.08,1.08,0,0,0,.913,1.182h46.45a1.066,1.066,0,0,0,.907-1.182v-10.55C237.289,298.353,236.894,297.815,236.381,297.815Zm-.108,11.741a.365.365,0,0,1-.035.167H190.072a.746.746,0,0,1-.029-.167v-10.55a.733.733,0,0,1,.029-.165h46.167a.357.357,0,0,1,.035.165Z" transform="translate(-168.272 -269.686)"/><path class="l" d="M236.867,299.6v10.55a.365.365,0,0,1-.035.167H190.665a.746.746,0,0,1-.029-.167V299.6a.734.734,0,0,1,.029-.165h46.167A.358.358,0,0,1,236.867,299.6Z" transform="translate(-168.865 -270.28)"/><path class="m" d="M174.865,300.149c.027,1.212-.546,5.6-1.474,6.527-1.363,1.455-4.684,1.278-6.551,1.278-2.39,0-4.713-.173-7.068-.249-.21-2.167-.361-3.958-.4-4.787a19.893,19.893,0,0,1,.52-5.035c2.84,0,5.721-.11,8.51,0C170.3,297.96,174.783,297.29,174.865,300.149Z" transform="translate(-157.394 -269.693)"/><path class="m" d="M270.7,300.149c-.03,1.212.547,5.6,1.467,6.527,1.368,1.455,4.686,1.278,6.553,1.278,2.393,0,4.718-.173,7.076-.249.2-2.167.357-3.958.39-4.787a19.62,19.62,0,0,0-.531-5.035c-2.826,0-5.71-.11-8.495,0C275.257,297.96,270.774,297.29,270.7,300.149Z" transform="translate(-198.226 -269.693)"/><path class="i" d="M172.591,328.372a1.026,1.026,0,0,1-1.021,1.022H161.492a1.029,1.029,0,0,1-1.018-1.022v-2.627a1.027,1.027,0,0,1,1.018-1.027h10.078a1.024,1.024,0,0,1,1.021,1.027Z" transform="translate(-157.804 -279.552)"/><path class="i" d="M286.8,328.372a1.027,1.027,0,0,1-1.024,1.022H275.7a1.028,1.028,0,0,1-1.021-1.022v-2.627a1.026,1.026,0,0,1,1.021-1.027h10.078a1.025,1.025,0,0,1,1.024,1.027Z" transform="translate(-199.687 -279.552)"/><rect class="d" width="46.23" height="0.931" transform="translate(21.771 30.297)"/><rect class="d" width="46.23" height="0.934" transform="translate(21.771 32.266)"/><rect class="d" width="46.23" height="0.929" transform="translate(21.771 34.237)"/><rect class="d" width="46.23" height="0.936" transform="translate(21.771 36.209)"/><rect class="d" width="46.23" height="0.935" transform="translate(21.771 38.177)"/></g><path class="d" d="M254.8,218.018v94.446h-5.127V222.447h-124.3v90.017h-5.342V218.018Z" transform="translate(-114.696 -202.595)"/><path class="d" d="M257.93,193.664V205l-6.2,4.081H116.955L111.632,205V193.664Z" transform="translate(-111.613 -193.664)"/><path class="n" d="M257.919,211.564l-6.2,4.081H116.944l-5.341-4.081Z" transform="translate(-111.602 -200.228)"/><rect class="o" width="124.306" height="21.456" transform="translate(10.67 19.849)"/><rect class="d" width="124.306" height="2.623" transform="translate(10.67 21.164)"/><rect class="d" width="124.306" height="2.637" transform="translate(10.67 24.67)"/><rect class="d" width="124.306" height="2.636" transform="translate(10.67 28.172)"/><rect class="d" width="124.306" height="2.628" transform="translate(10.67 31.686)"/><rect class="d" width="124.306" height="2.626" transform="translate(10.67 35.199)"/><rect class="d" width="124.306" height="2.629" transform="translate(10.67 38.706)"/></g><g transform="translate(4.163)"><rect class="f" width="207.921" height="50.614" transform="translate(0)"/><g transform="translate(160.643 4.578)"><path class="j" d="M355.724,77.65a11.32,11.32,0,0,0-11.805.218,17.076,17.076,0,0,0-5.009,4.8,29.491,29.491,0,0,0-4.929,15.65v.006a.642.642,0,0,0,.015.17c0,.249.021.493.039.731.027.271.056.536.075.8.011.087.016.177.031.27.032.326.072.641.12.966v.01c.042.3.093.6.141.9.029.154.055.3.082.44.05.27.1.525.162.788.047.236.1.464.159.695.05.189.088.38.143.562a1,1,0,0,0,.034.139c.106.405.234.814.362,1.208a.328.328,0,0,0,.034.1c.093.315.2.607.3.9s.216.587.335.883c.158.39.32.764.491,1.133.122.274.254.533.383.8.1.18.192.377.3.554s.2.364.307.541c.165.27.321.541.488.809s.348.512.517.759c.353.5.722.971,1.109,1.424.283.326.567.631.867.918.206.2.409.4.626.581s.425.372.647.539a6.391,6.391,0,0,0,.657.488,6.219,6.219,0,0,0,.679.446c.218.13.432.26.654.374a5.831,5.831,0,0,0,.655.31c.2.1.381.162.58.255.191.061.369.124.56.177a2.865,2.865,0,0,0,.621.18,4.8,4.8,0,0,0,.812.18c.032,0,.042.015.072.015.1.019.212.032.326.043a3.3,3.3,0,0,0,.515.055,1.16,1.16,0,0,0,.222.019c.194.01.377.016.565.016,8.124,0,14.72-9.741,14.72-21.761C363.383,88.51,360.284,81.347,355.724,77.65ZM340.668,96.74a22.053,22.053,0,0,1,3.124-11.764,9.083,9.083,0,0,1,4.074-3.687A4.238,4.238,0,0,1,349.38,81c1.692,0,3.469,1.142,4.968,3.1a21.251,21.251,0,0,1,3.736,12.634c0,9.021-4.591,15.747-8.7,15.747a4.462,4.462,0,0,1-1.514-.281,9.075,9.075,0,0,1-4.074-3.692,18.616,18.616,0,0,1-2.32-5.45A24.641,24.641,0,0,1,340.668,96.74Z" transform="translate(-322.779 -74.99)"/><path class="p" d="M363.74,101.676c-.305,8.521-4.715,14.77-8.678,14.77a4.462,4.462,0,0,1-1.514-.281,8.116,8.116,0,0,1-3.437-2.815,10.41,10.41,0,0,1-.637-.877,21.591,21.591,0,0,0,3.117-10.8c.008-.316.013-.637.013-.976A22.811,22.811,0,0,0,350.11,90a8,8,0,0,1,3.437-2.805,4.187,4.187,0,0,1,1.514-.3C359.024,86.893,363.439,93.15,363.74,101.676Z" transform="translate(-328.46 -78.95)"/><path class="p" d="M341.611,117.845c.194.01.377.016.565.016H331.014a10.58,10.58,0,0,1-5.206-1.4,13.528,13.528,0,0,1-1.835-1.236,17.257,17.257,0,0,1-3.064-3.294c-.3-.424-.581-.849-.868-1.3a24.644,24.644,0,0,1-2.05-4.368c-.146-.414-.289-.844-.424-1.273a27.536,27.536,0,0,1-.878-3.888c-.072-.408-.13-.819-.177-1.243a31.336,31.336,0,0,1-.221-3.757c0-.2,0-.389.009-.591.007-.414.013-.835.053-1.239a27.209,27.209,0,0,1,.358-3.31c.061-.408.139-.819.223-1.23a26.709,26.709,0,0,1,.995-3.588c.129-.4.279-.788.429-1.165a23.222,23.222,0,0,1,1.971-3.841c.223-.347.453-.69.7-1a15.563,15.563,0,0,1,4.216-4.053c.378-.229.757-.44,1.142-.623a10.472,10.472,0,0,1,4.249-1.1c.12-.005.255-.005.377-.005h11.162c-.188,0-.371.005-.565.018a1.492,1.492,0,0,0-.222.016,4.7,4.7,0,0,0-.515.05l-.326.048c-.03,0-.04.013-.072.013a4.462,4.462,0,0,0-.812.183,4.078,4.078,0,0,0-.621.18c-.191.056-.369.109-.56.178-.2.091-.379.159-.58.25a6.639,6.639,0,0,0-.655.318c-.221.109-.436.241-.654.366a3.54,3.54,0,0,0-.347.236c-.255.159-.506.329-.753.517-.119.093-.236.18-.358.282s-.241.2-.361.3c0,.011-.021.016-.034.021-.238.212-.47.419-.692.642-.238.228-.459.456-.679.711a.944.944,0,0,1-.069.072,5.614,5.614,0,0,0-.509.607,10.582,10.582,0,0,0-.783,1.006v.005c-.135.2-.281.4-.416.621-.127.2-.268.4-.4.631s-.286.477-.419.721-.26.472-.379.708c-.015.045-.039.091-.058.133-.125.228-.234.458-.338.7-.118.257-.236.517-.35.8-.1.2-.183.414-.26.621-.082.223-.164.44-.238.647-.1.292-.2.583-.291.873-.078.228-.152.458-.218.7-.053.182-.111.369-.152.562-.137.471-.262.976-.363,1.477-.056.291-.119.581-.169.864-.027.156-.053.308-.077.459-.046.281-.1.552-.132.838-.041.324-.085.65-.12.976-.024.254-.051.509-.066.764-.027.281-.044.57-.058.849-.027.427-.048.846-.048,1.275-.006.167-.006.35-.006.514,0,.339.006.66.018.987.008.2.008.392.021.586v.006a.641.641,0,0,0,.015.17c0,.25.021.493.039.731.027.271.056.536.075.8.011.087.016.177.031.27.032.326.067.655.12.966v.01c.042.3.093.6.141.9.028.154.055.3.082.44.05.27.1.525.162.788.047.236.1.464.159.695.05.189.088.38.143.562a1.011,1.011,0,0,0,.034.139c.106.405.234.814.362,1.208a.328.328,0,0,0,.034.1c.093.315.2.607.3.9s.216.587.335.883c.158.39.32.764.491,1.133.122.274.254.533.383.8.1.18.192.377.3.554.251.462.514.913.8,1.35.175.257.348.512.517.759.353.5.722.971,1.109,1.424.283.326.567.631.867.918.206.2.409.4.626.581s.425.372.647.539a6.381,6.381,0,0,0,.657.488,6.217,6.217,0,0,0,.679.446c.218.13.433.26.654.374a5.835,5.835,0,0,0,.655.31c.2.1.381.162.58.255.191.061.369.124.56.177a2.865,2.865,0,0,0,.621.18,4.8,4.8,0,0,0,.812.18c.032,0,.042.015.072.015.1.019.212.032.326.043a3.3,3.3,0,0,0,.515.055A1.16,1.16,0,0,0,341.611,117.845Z" transform="translate(-316.291 -74.35)"/></g><rect class="m" width="8.856" height="6.137" transform="translate(14.717 50.614)"/><rect class="m" width="8.856" height="6.137" transform="translate(99.259 50.614)"/><rect class="m" width="8.853" height="6.137" transform="translate(183.807 50.614)"/><path class="a" d="M9.187-27.228H5.326q-1.568,0-2.262-.015t-.845-.015a1.616,1.616,0,0,0-1.78,1.84q0,1.9,1.689,1.9,3.589,0,4.735-.03,0,.814.015,2.066t.015,2.006L6.834-8.619a1.717,1.717,0,0,0,1.96,1.96,2.53,2.53,0,0,0,1.689-.513,1.87,1.87,0,0,0,.573-1.568q-.121-10.707-.09-13.633v-1.206l4.524.03q1.78,0,1.78-2.021a1.546,1.546,0,0,0-1.749-1.749q-.935,0-3.529.045T9.187-27.228ZM15.723-8.649a1.684,1.684,0,0,0,.724,1.508,3.027,3.027,0,0,0,1.719.483,1.951,1.951,0,0,0,1.81-1.418l1.3-3.438h2.8q4.132,0,4.705.03L30.17-7.925a1.929,1.929,0,0,0,1.96,1.3,2.549,2.549,0,0,0,1.644-.543,1.545,1.545,0,0,0,.679-1.206,3.5,3.5,0,0,0-.332-1.3q-.6-1.357-2.262-5.489a4.384,4.384,0,0,1-.241-.513,4.385,4.385,0,0,0-.241-.513q-3.619-9.078-3.861-9.652a2.441,2.441,0,0,0-2.534-1.508,2.743,2.743,0,0,0-1.4.377,2.1,2.1,0,0,0-.92,1.041L19.04-17.064q-.875,2.262-2.8,6.515A5.076,5.076,0,0,0,15.723-8.649Zm9.32-13.663q.332.965,1.387,4.026t1.176,3.423q-2.232.06-5.188.06Q24.741-21.377,25.042-22.312Zm11.9-3.227q0,1.206.015,4.072t.015,4.223q0,1.387-.09,3.861t-.09,3.318q0,.543.06,1.146a2.189,2.189,0,0,0,.86,1.825,5.3,5.3,0,0,0,2.7.347q1.267-.06,3.981-.06l3.378.03q1.84,0,1.84-2.081a1.947,1.947,0,0,0-.422-1.327,1.6,1.6,0,0,0-1.327-.452l-4.042.151q-.633.03-2.775.03v-3.619q0-3.619.03-5.4.06-5.1.06-6.093,0-1.779-1.96-1.779a2.568,2.568,0,0,0-1.568.467A1.643,1.643,0,0,0,36.947-25.539Zm15.041,0q0,1.206.015,4.072t.015,4.223q0,1.387-.09,3.861t-.09,3.318q0,.543.06,1.146a2.189,2.189,0,0,0,.86,1.825,5.3,5.3,0,0,0,2.7.347q1.267-.06,3.981-.06l3.378.03q1.84,0,1.84-2.081a1.947,1.947,0,0,0-.422-1.327,1.6,1.6,0,0,0-1.327-.452l-4.042.151q-.633.03-2.775.03v-3.619q0-3.619.03-5.4.06-5.1.06-6.093,0-1.779-1.96-1.779a2.568,2.568,0,0,0-1.568.467A1.643,1.643,0,0,0,51.988-25.539Zm15.162.121q0,1.146-.015,3.453t-.015,3.484q0,1.84-.03,4.011t-.06,3.423Q67-9.8,67-9.7a5.842,5.842,0,0,0,.03,1,1.864,1.864,0,0,0,.769,1.6,5.461,5.461,0,0,0,2.488.392h8.264a1.727,1.727,0,0,0,1.87-1.96q0-1.81-1.629-1.81-.271,0-.86.015t-.98.015q-2.172.06-5.791.06v-3.076q0-1.176.03-1.689h5.851a1.621,1.621,0,0,0,1.84-1.749q.03-1.116-.5-1.463a3.2,3.2,0,0,0-1.7-.347q-1.93.06-4.464.06h-.965v-.211l.06-2.745V-23.7h1.056q6.062,0,6.7-.09,1.116-.332,1.056-1.87a1.734,1.734,0,0,0-.483-1.206,1.8,1.8,0,0,0-1.327-.452q-.211,0-2.564.03t-5.1.03H69.442a2.672,2.672,0,0,0-1.629.467A1.673,1.673,0,0,0,67.15-25.419Zm16.127.483q0,.452.03,1.433t.03,1.463q.03,7.631-.03,13.241a2.139,2.139,0,0,0,.558,1.7,2.7,2.7,0,0,0,1.855.407q1.749-.121,1.749-2.021,0-.664-.03-2.579t-.03-2.7q.392,0,1.508.015t1.508.015q.9,1.237,2.518,3.634t1.734,2.579q.332.392.5.573a1.93,1.93,0,0,0,.5.362,1.549,1.549,0,0,0,.754.181A2.5,2.5,0,0,0,98-7.216a1.7,1.7,0,0,0,.664-1.342,2.167,2.167,0,0,0-.513-1.327q-3.378-4.494-3.861-5.158A5.411,5.411,0,0,0,96.94-17.2a6.225,6.225,0,0,0,1-3.484,6.046,6.046,0,0,0-2.021-4.826,8.06,8.06,0,0,0-5.308-1.81H88.224q-1.056.03-2.262.09a3.374,3.374,0,0,0-1.945.633A1.973,1.973,0,0,0,83.277-24.936Zm6.877,1.206a4.12,4.12,0,0,1,2.745.8,2.827,2.827,0,0,1,.9,2.337,2.728,2.728,0,0,1-1.131,2.337,4.759,4.759,0,0,1-2.79.769H87.44l-.03-6.213Q88.073-23.73,90.154-23.73Zm11.482-1.689q0,1.146-.015,3.453t-.015,3.484q0,1.84-.03,4.011t-.06,3.423q-.03,1.252-.03,1.342a5.842,5.842,0,0,0,.03,1,1.864,1.864,0,0,0,.769,1.6,5.461,5.461,0,0,0,2.488.392h8.264a1.727,1.727,0,0,0,1.87-1.96q0-1.81-1.629-1.81-.271,0-.86.015t-.98.015q-2.172.06-5.791.06v-3.076q0-1.176.03-1.689h5.851a1.621,1.621,0,0,0,1.84-1.749q.03-1.116-.5-1.463a3.2,3.2,0,0,0-1.7-.347q-1.93.06-4.464.06h-.965v-.211l.06-2.745V-23.7h1.056q6.062,0,6.7-.09,1.116-.332,1.056-1.87a1.734,1.734,0,0,0-.483-1.206,1.8,1.8,0,0,0-1.327-.452q-.211,0-2.564.03t-5.1.03h-1.206a2.672,2.672,0,0,0-1.629.467A1.673,1.673,0,0,0,101.636-25.419Zm28.222-1.056a11.873,11.873,0,0,0-5.248-1.086,7.748,7.748,0,0,0-5.233,1.885,5.883,5.883,0,0,0-2.187,4.63,4.208,4.208,0,0,0,1.764,3.665,12.552,12.552,0,0,0,4.871,1.855,8.274,8.274,0,0,1,2.639.9,1.8,1.8,0,0,1,.95,1.629,2.18,2.18,0,0,1-.935,1.84,3.841,3.841,0,0,1-2.353.694,9.756,9.756,0,0,1-3.74-.935,4.544,4.544,0,0,0-1.659-.392,1.571,1.571,0,0,0-1.267.633,2.322,2.322,0,0,0-.513,1.508,2.051,2.051,0,0,0,1.387,1.93,12.831,12.831,0,0,0,5.851,1.176,8.371,8.371,0,0,0,5.384-1.81,5.845,5.845,0,0,0,2.1-4.735,4.745,4.745,0,0,0-1.689-4,11.913,11.913,0,0,0-4.886-1.976,11.149,11.149,0,0,1-2.76-.829,1.541,1.541,0,0,1-.92-1.463,2.122,2.122,0,0,1,.92-1.734,3.524,3.524,0,0,1,2.217-.709,8.049,8.049,0,0,1,2.926.573,4.453,4.453,0,0,0,1.719.452,1.584,1.584,0,0,0,1.267-.618,1.957,1.957,0,0,0,.513-1.252A1.853,1.853,0,0,0,129.858-26.474Z" transform="translate(14.649 42.792)"/></g></g></g><text class="q" transform="translate(787 1753.312)"><tspan x="-83.331" y="0">Repara tu auto en </tspan><tspan x="-100.692" y="22">nuestra red de talleres</tspan></text><g transform="translate(560.666 1510.128)"><g class="r" transform="translate(0)"><path class="a" d="M629-533.172H869.929V-585H629Z" transform="translate(-518.552 882.372)"/></g></g><text class="s" transform="translate(745.079 1839.12)"><tspan x="0" y="0">VER TALLERES </tspan></text><g transform="translate(279.494 1672.046)"><path class="t" d="M149.185,260.508c-1.68.561-9.213-17.633-13.644-13.155-4.009,4.052-9.336,9.377-13.019,11.381l-7.288,2.361L97.46,256.207s-20.536,37.009-17.446,52.332c4.024,19.956,31.657,41.27,57.044,5.463S149.185,260.508,149.185,260.508Z" transform="translate(0 -59.558)"/><path class="u" d="M118.556,266.039c.754-3.64,3.812-12.343,4.729-15.577" transform="translate(-10.689 -60.608)"/><path class="v" d="M384.754,217.112c1.013-5.587.431-8.8,1.343-15.243" transform="translate(-83.915 -47.241)"/><path class="w" d="M139.02,282.643s5.7,15.475,7.222,22.5,1.609,20.154,1.609,20.154" transform="translate(-16.318 -69.46)"/><path class="v" d="M384.754,215.937c1.013-5.587.7-11.9,1.615-18.338" transform="translate(-83.915 -46.067)"/><g transform="translate(291.222 100.543)"><path class="x" d="M380.131,195.2c-12.406-5.862-4.145-14.085-6.353-25.945" transform="translate(-371.93 -138.814)"/><path class="y" d="M375.36,192.492c1.947-.215,4.9.14,6.657-.8.857-.461,1.579-1.138,2.437-1.6a3.18,3.18,0,0,1,3.092-.012.69.69,0,0,0,.357.061c.236-.045.352-.31.421-.541a13.833,13.833,0,0,0,.458-5.122c-.043-.55-.083-1.116-.149-1.676l-.21-1.6-.078-.6a4.093,4.093,0,0,1,3.527-4.591c3.829-.5,11.4-8.087,12.588-5.3,1.575,3.71,1.091,14.444,1.091,14.444-3.187,5.68-15.555,20.143-15.876,20.494.017.256-1.6,5.861-1.825,7.112L373.9,210.139C374.216,209.228,375,192.532,375.36,192.492Z" transform="translate(-372.15 -139.045)"/><g transform="translate(0 0)"><rect class="t" width="25.998" height="47.966" rx="3.462" transform="matrix(0.946, 0.323, -0.323, 0.946, 15.487, 0)"/><rect class="a" width="22.058" height="36.824" transform="matrix(0.946, 0.323, -0.323, 0.946, 16.152, 4.151)"/><rect class="z" width="22.058" height="3.424" transform="matrix(0.946, 0.323, -0.323, 0.946, 16.152, 4.151)"/><circle class="aa" cx="1.857" cy="1.857" r="1.857" transform="translate(11.511 44.616)"/></g><path class="ab" d="M412.475,187.6c1.235-3.087-.341-5.306-2.154-6.714" transform="translate(-382.169 -142.013)"/><path class="ac" d="M413.929,184.669c3.027-6.152.457-8.118-2.8-10.065" transform="translate(-382.39 -140.284)"/><path class="ad" d="M415.742,179.536c4.169-7.288,1.93-10.4-1.28-14.055" transform="translate(-383.308 -137.775)"/><path class="ae" d="M413.487,180.2a12.439,12.439,0,0,1,3.417,4.777" transform="translate(-383.04 -141.824)"/><path class="ae" d="M415.687,173.756a9.028,9.028,0,0,1,4.206,4.972" transform="translate(-383.645 -140.051)"/><path class="af" d="M420.365,167.2c1.717-3.635,1.676-9.631,2.6-10.94" transform="translate(-384.932 -135.239)"/><path class="ae" d="M418.561,165.33s2.452,2.49,2.635,4.994" transform="translate(-384.436 -137.733)"/></g><path class="ag" d="M279,265.422s25.066,30.069,33.752,34.358c8.289,4.094,20.136,0,24.191-9.16,4.619-10.435,12.415-39.013,12.415-39.013" transform="translate(-54.824 -60.923)"/><path class="ah" d="M273.619,116.252a6.516,6.516,0,0,1,7.295-5.729,6.773,6.773,0,0,1,5.891,7.436,6.967,6.967,0,0,1-6.977,5.757l-6.621-.995S273.551,116.775,273.619,116.252Z" transform="translate(-53.231 -22.099)"/><path class="ai" d="M181.638,220.464s4.012-38.112,43.915-32.555,31.241,39.27,31.241,39.27Z" transform="translate(-28.042 -43.249)"/><path class="aa" d="M265.8,76.755c2.409-19.933-4.851-37.237-26.45-40.033-21.7-2.81-41.236,11.183-43.832,31.227-.181,1.4-1.008,18.861-1.009,20.272-.014,23.283,32.846,41.154,32.846,41.154s18.44-6.74,32.238-26.38a17.572,17.572,0,0,0,2.93-7.132Z" transform="translate(-31.582 -1.714)"/><path class="ah" d="M264.262,90.9c3.332-25.738-6.386-34.174-24.742-36.551A33.675,33.675,0,0,0,201.8,83.422c-.167,1.287,1.833,17.389,1.807,18.688-.4,19.854,6.127,37.435,24.573,39.823,17.465,2.261,29.4-10.221,32.479-27.234C261.936,107.648,264.262,90.9,264.262,90.9Z" transform="translate(-33.585 -6.583)"/><path class="ah" d="M242.795,189.632c-6.3-17.974,3.979-27.6,9.44-38.2l-26.666-3.449-24.686-5.4c1.094,9.023,6.7,32.582,1.63,45.064-3.129,7.7-15.935,23.354-15.935,23.354h68.787S245.542,197.476,242.795,189.632Z" transform="translate(-29.401 -30.933)"/><path class="aa" d="M221.351,61.411c-2.543,4.561-.965,8.434-2.645,12.752-2.829,7.271-7.562,5.04-10.421,16.983l-8.663-2.452,1.706-21.05,13.812-15.3,5.383-.38Z" transform="translate(-32.989 -6.005)"/><path class="aa" d="M284.851,71.9c3.783,9.172-.9,8.121,2.629,21.247l2.154-.973S295.04,69.668,284.851,71.9Z" transform="translate(-56.433 -11.447)"/><path class="ah" d="M209.743,106.053a6.517,6.517,0,0,0-5.6-7.4,6.773,6.773,0,0,0-7.591,5.691,6.967,6.967,0,0,0,5.28,7.344l6.656.724S209.676,106.575,209.743,106.053Z" transform="translate(-32.132 -18.834)"/><circle class="aj" cx="2.101" cy="2.101" r="2.101" transform="translate(169.185 84.293)"/><path class="aa" d="M217.207,88.039l-2.266,21.039s-3.2-.236-3.369-6.18a127.984,127.984,0,0,1,.64-13.819Z" transform="translate(-36.269 -15.929)"/><path class="ak" d="M264.466,87.05c-4.751,2.623-6.313,10.8-4.893,17.3.469,2.144,1.838,3.841,1.606,6.477-.188,2.144-1.757,4.387-5.738,3.823-3.195-.452-4.795-2.84-4.508-4.866" transform="translate(-47.094 -15.657)"/><path class="al" d="M278.222,88.559A6.327,6.327,0,0,0,274.073,86a6.991,6.991,0,0,0-4.46.737" transform="translate(-52.242 -15.344)"/><path class="al" d="M247.994,82.233a10.586,10.586,0,0,0-5.191-2.386,11.858,11.858,0,0,0-5.853.928" transform="translate(-43.257 -13.66)"/><rect class="ai" width="4.153" height="6.044" rx="2.076" transform="matrix(0.99, 0.14, -0.14, 0.99, 215.529, 79.694)"/><rect class="ai" width="4.694" height="6.611" rx="2.347" transform="translate(195.777 76.08) rotate(8.066)"/><g transform="translate(199.259 119.387)"><path class="ak" d="M252.216,153.792a8.242,8.242,0,0,0-3.814-.484,8.353,8.353,0,0,0-3.775,1.463" transform="translate(-244.628 -153.256)"/></g><path class="a" d="M236.92,208.376l-3.188-9.554s1.783,7.941-6.242,8.416c-16.29.963-31.723-10.124-31.723-10.124l-2.984,9.087c-3.653,5.256-29.329,37.567-33.515,43.7,0,0-.472,87.167,1.151,134.129H266.074c.954-38.955-2.085-134.129-2.085-134.129C260.169,244.625,240.2,214,236.92,208.376Z" transform="translate(-21.87 -45.933)"/><path class="t" d="M300.162,309.794c.715-9.665-3.524-70.259-3.524-70.259-2.038-4.529-8.161-11.513-13.932-17.5-4.075-4.226-8.051,3.623-7.309,11.523,4.186,44.555,2.341,111.191.425,178.1h24.34Z" transform="translate(-53.808 -52.463)"/><path class="t" d="M188.205,204.512c-3.654,5.257-28.134,25.121-32.321,31.251,0,0-2.209,68.612-2.233,69.536V407.162h51.361l-1.472-96.882Z" transform="translate(-20.343 -47.968)"/><path class="ai" d="M266.41,210.926l3.476-4.544,10.452,12.1,4.439,25.5-10,30.294C275.5,242.545,270.851,220.127,266.41,210.926Z" transform="translate(-51.361 -48.483)"/><path class="ai" d="M276.959,261.542l11.18,12.492a7.356,7.356,0,0,1,1.619,6.821l-11.394,42.2Z" transform="translate(-54.262 -63.656)"/><path class="am" d="M235.479,445.261" transform="translate(-42.852 -114.193)"/><path class="ai" d="M263.559,62.011c-3.046-11.655-25.994-17.044-40.664-6.605-1.654-1.387-9.237-6.15-16.706-6.827,0,0-2.681-3.777.941-8.246,6.293-7.763,20.945-10.04,28.125-10.189C261.335,29.6,274.224,48.741,263.559,62.011Z" transform="translate(-34.532 0)"/><path class="ai" d="M209.588,229.227c-4.829-22.536-11.043-29.757-11.043-29.757l-14.277,16.359,27.695,70.846C211.962,277.92,212.216,241.489,209.588,229.227Z" transform="translate(-28.765 -46.581)"/><path class="ai" d="M215.412,286.418l-5.529-23.026-10.811,10.581a7.536,7.536,0,0,0-1.707,8.229l18.047,44.274Z" transform="translate(-32.215 -64.165)"/><g transform="translate(188.441 98.764)"><path class="ai" d="M229.705,124.807c3.994,3.433,24.387,8.254,29.225,7.071,0,0-6.632,11.691-17.424,9.213C230.494,138.563,229.705,124.807,229.705,124.807Z" transform="translate(-229.705 -124.807)"/><path class="a" d="M257.279,132.538c-2.984,3.032-7.815,6.3-14.03,4.877-6.387-1.467-9.332-6.707-10.682-10.852C237.929,128.935,250.914,132.162,257.279,132.538Z" transform="translate(-230.492 -125.29)"/><path class="a" d="M243.037,145.594a13.223,13.223,0,0,1-7.514-5.024,95.068,95.068,0,0,0,16.2,3.91A13.228,13.228,0,0,1,243.037,145.594Z" transform="translate(-231.305 -129.143)"/></g><path class="an" d="M119.856,247.861c-.3-6.294.963-13.19.9-20.41" transform="translate(-11.034 -54.278)"/><path class="ao" d="M125.188,221.187c16.672,1.382,6.368-16.447,13.946-25.347" transform="translate(-12.514 -45.583)"/><path class="y" d="M126.314,225.875c-.056-.982-3.048.388-3.652-.285a8.6,8.6,0,0,0,.834-1.147l.3-.5L124,223.5c.289-.6,2.684-5.225,2.792-5.621,1.24-4.571-3.285-16.589-3.285-16.589.958-2.4-6.31-5.789-8.714-6.748-4.107-1.638-7.325,3.172-9.427,5.933-2.8,3.671-4.666,4.635-4.459,9.365.2,4.64,2.915,12.977,4.671,17.267a16.872,16.872,0,0,0,.729,1.547c-.091.279-.816,7.525-.921,8.977l17.715-2.082C125.35,227.144,126.314,225.875,126.314,225.875Z" transform="translate(-5.83 -45.134)"/><path class="ap" d="M126.979,188.508c-.9-13.484,3.212-18.32-1.58-29.85" transform="translate(-12.572 -35.355)"/><g transform="translate(105.087 143.915)"><rect class="y" width="10.519" height="19.102" rx="5.26" transform="translate(16.733 17.8) rotate(158.726)"/><g transform="translate(4.301 1.608)"><path class="aj" d="M124.275,207.609a5.14,5.14,0,0,1-2.154-2.695l-1.417-4.066a.865.865,0,1,1,1.634-.57l1.417,4.067a3.45,3.45,0,0,0,6.515-2.27l-4.258-11.615a.866.866,0,1,1,1.635-.57l4.258,11.615a5.18,5.18,0,0,1-7.146,6.369A5.358,5.358,0,0,1,124.275,207.609Z" transform="translate(-120.655 -189.31)"/></g></g><g transform="translate(100.297 148.652)"><rect class="y" width="10.519" height="19.102" rx="5.26" transform="translate(16.733 17.8) rotate(158.726)"/><g transform="translate(4.302 1.609)"><path class="aj" d="M117.667,214.144a5.142,5.142,0,0,1-2.154-2.695l-1.417-4.067a.865.865,0,1,1,1.634-.569l1.417,4.066a3.45,3.45,0,1,0,6.515-2.27L119.4,196.995a.865.865,0,1,1,1.634-.569L125.3,208.04a5.18,5.18,0,0,1-7.145,6.369A5.363,5.363,0,0,1,117.667,214.144Z" transform="translate(-114.047 -195.844)"/></g></g><g transform="translate(96.352 154.388)"><rect class="y" width="10.519" height="19.102" rx="5.26" transform="matrix(-0.932, 0.363, -0.363, -0.932, 16.733, 17.8)"/><g transform="translate(4.301 1.609)"><path class="aj" d="M112.225,222.056a5.141,5.141,0,0,1-2.154-2.694l-1.417-4.067a.865.865,0,0,1,1.634-.57l1.417,4.067a3.45,3.45,0,0,0,6.515-2.27l-4.258-11.615a.866.866,0,0,1,1.635-.57l4.258,11.615a5.181,5.181,0,0,1-7.146,6.37A5.467,5.467,0,0,1,112.225,222.056Z" transform="translate(-108.605 -203.757)"/></g></g><path class="t" d="M339.875,254.022s-6.272,16.887-12.786,16.646-19.058-19.062-19.058-19.062l23.883,48.173Z" transform="translate(-62.81 -60.923)"/><path class="aq" d="M250.257,213.229s-.291,3.281-5.125,3.888-17.835.9-33.584-8.089" transform="translate(-36.269 -49.211)"/><path class="ai" d="M364.745,217.608l19.935,7.2a7.131,7.131,0,0,1,4.664,7.507l-1.825,16.16a7.131,7.131,0,0,1-9.807,5.791l-24.317-10.039a7.132,7.132,0,0,1-3.743-9.6l6.206-13.321A7.132,7.132,0,0,1,364.745,217.608Z" transform="translate(-74.075 -51.454)"/><path class="ai" d="M287.237,46.167s-6.081,8.788-14.438-2.855L244.567,54.274c9.648-1.928,20.923,5.293,25.932,9.649,3.027,2.725,7.839,2.125,11.53.4C286.386,62.293,289.813,57.188,287.237,46.167Z" transform="translate(-45.352 -3.626)"/></g></g></g></svg>