<svg xmlns="http://www.w3.org/2000/svg" width="224.521" height="22.82" viewBox="0 0 224.521 22.82"><defs><style>.a{opacity:0.878;}.b{fill:#bcbbbb;}.c{fill:#888989;}.d{fill:#aaa;}.e{fill:#fff;}</style></defs><g transform="translate(-74.824 -506)"><g class="a" transform="translate(74.824 510.752)"><g transform="translate(0 0)"><path class="b" d="M56.23,63.819H53.2l1.893-11.633h3.029Z" transform="translate(-40.141 -51.979)"/><path class="b" d="M21.74,52.187l-2.888,8-.341-1.723h0l-1.019-5.231a1.3,1.3,0,0,0-1.437-1.048H11.283l-.056.2a11.313,11.313,0,0,1,3.168,1.33L17.026,63.82h3.155L25,52.187Z" transform="translate(-11.227 -51.979)"/><path class="b" d="M103.874,63.82h2.781L104.23,52.187H101.8a1.392,1.392,0,0,0-1.4.867L95.881,63.82h3.156l.632-1.728h3.85ZM100.542,59.7l1.592-4.353.9,4.353Z" transform="translate(-69.54 -51.979)"/><path class="b" d="M77.554,54.524l.432-2.5a8.742,8.742,0,0,0-2.724-.507c-1.5,0-5.072.657-5.072,3.851,0,3.006,4.189,3.043,4.189,4.621s-3.757,1.3-5,.3L68.932,62.9a8.482,8.482,0,0,0,3.419.657c2.066,0,5.185-1.071,5.185-3.983,0-3.025-4.227-3.306-4.227-4.621S76.258,53.809,77.554,54.524Z" transform="translate(-50.976 -51.518)"/></g><path class="c" d="M18.512,58.465l-1.019-5.231a1.3,1.3,0,0,0-1.437-1.048H11.283l-.056.2a11.742,11.742,0,0,1,4.5,2.257A9.073,9.073,0,0,1,18.512,58.465Z" transform="translate(-11.227 -51.979)"/></g><g class="a" transform="translate(135.945 506.489)"><path class="c" d="M168.867,118.931v-1.482a.869.869,0,0,0-.939-.939.974.974,0,0,0-.84.42.864.864,0,0,0-.79-.42.8.8,0,0,0-.692.346v-.3h-.519v2.372h.519v-1.309c0-.42.222-.617.568-.617s.519.222.519.617v1.309h.519v-1.309a.546.546,0,0,1,.568-.617c.346,0,.519.222.519.617v1.309Zm7.683-2.372h-.84v-.716h-.519v.716h-.469v.469h.469v1.087c0,.544.222.865.815.865a1.38,1.38,0,0,0,.642-.173l-.148-.445a.812.812,0,0,1-.445.124c-.247,0-.346-.148-.346-.4v-1.062h.84v-.469Zm4.4-.049a.7.7,0,0,0-.618.346v-.3h-.519v2.372h.519V117.6c0-.4.173-.617.494-.617a1.449,1.449,0,0,1,.321.049l.148-.494a1.632,1.632,0,0,0-.346-.025Zm-6.645.247a1.7,1.7,0,0,0-.963-.247c-.593,0-.988.3-.988.766,0,.4.3.618.815.692l.247.025c.272.049.42.123.42.247,0,.173-.2.3-.543.3a1.363,1.363,0,0,1-.79-.247l-.247.4a1.747,1.747,0,0,0,1.013.3c.692,0,1.087-.321,1.087-.766,0-.42-.321-.642-.815-.716l-.247-.025c-.222-.025-.4-.074-.4-.222,0-.173.173-.272.444-.272a1.777,1.777,0,0,1,.741.2l.222-.42Zm13.784-.247a.7.7,0,0,0-.618.346v-.3h-.519v2.372h.519V117.6c0-.4.173-.617.494-.617a1.447,1.447,0,0,1,.321.049l.148-.494a1.632,1.632,0,0,0-.346-.025Zm-6.62,1.235a1.187,1.187,0,0,0,1.26,1.235,1.229,1.229,0,0,0,.84-.272l-.247-.42a1,1,0,0,1-.617.222.7.7,0,0,1-.716-.766.729.729,0,0,1,.716-.766,1,1,0,0,1,.617.222l.247-.42a1.229,1.229,0,0,0-.84-.272,1.187,1.187,0,0,0-1.26,1.235Zm4.792,0V116.56h-.519v.3a.892.892,0,0,0-.741-.346,1.236,1.236,0,0,0,0,2.47.831.831,0,0,0,.741-.346v.3h.519Zm-1.9,0a.718.718,0,1,1,1.433,0,.718.718,0,1,1-1.433,0Zm-6.2-1.235a1.236,1.236,0,0,0,.025,2.47,1.511,1.511,0,0,0,.963-.321l-.247-.371a1.18,1.18,0,0,1-.692.247.667.667,0,0,1-.716-.568h1.754v-.2a1.091,1.091,0,0,0-1.087-1.26Zm0,.445a.578.578,0,0,1,.593.568h-1.235a.625.625,0,0,1,.642-.568Zm12.87.79v-2.125h-.519v1.235a.892.892,0,0,0-.741-.346,1.236,1.236,0,0,0,0,2.47.832.832,0,0,0,.741-.346v.3h.519Zm-1.9,0a.718.718,0,1,1,1.433,0,.718.718,0,1,1-1.433,0Zm-17.341,0V116.56h-.519v.3a.892.892,0,0,0-.741-.346,1.236,1.236,0,0,0,0,2.47.832.832,0,0,0,.741-.346v.3h.519Zm-1.927,0a.718.718,0,1,1,1.433,0,.718.718,0,1,1-1.433,0Z" transform="translate(-163.631 -96.649)"/><rect class="d" width="7.781" height="13.982" transform="translate(10.498 1.902)"/><path class="c" d="M169.644,40.726a8.916,8.916,0,0,1,3.384-6.991,8.893,8.893,0,1,0,0,13.982A8.88,8.88,0,0,1,169.644,40.726Z" transform="translate(-158.651 -31.833)"/><path class="b" d="M236.633,40.726a8.883,8.883,0,0,1-14.377,6.991,8.913,8.913,0,0,0,0-13.982,8.883,8.883,0,0,1,14.377,6.991Z" transform="translate(-207.855 -31.833)"/></g><g class="a" transform="translate(188.611 507.489)"><path class="c" d="M-3.079-39.965c4.725.023,9.038-3.845,9.038-8.551a8.82,8.82,0,0,0-9.038-8.7H-7.145a8.518,8.518,0,0,0-8.718,8.7,8.652,8.652,0,0,0,8.718,8.551h4.066" transform="translate(15.864 57.217)"/><path class="e" d="M-3.561-42.405v-9.344A5.01,5.01,0,0,1-.34-47.077a5.012,5.012,0,0,1-3.221,4.672m-6.809-4.672a5.014,5.014,0,0,1,3.219-4.671v9.342a5.012,5.012,0,0,1-3.219-4.67m5.015-7.9a7.906,7.906,0,0,0-7.911,7.9,7.9,7.9,0,0,0,7.911,7.9,7.905,7.905,0,0,0,7.913-7.9,7.906,7.906,0,0,0-7.913-7.9" transform="translate(14.093 55.688)"/><path class="c" d="M59.652-48.991c0-.816-.427-.762-.835-.771V-50c.354.017.718.017,1.073.017.382,0,.9-.017,1.573-.017A3.309,3.309,0,0,1,65.1-46.822c0,.9-.527,3.157-3.745,3.157-.463,0-.891-.018-1.318-.018-.409,0-.809.009-1.218.018V-43.9c.545-.055.809-.073.835-.69Zm.891,4.256c0,.7.5.78.946.78A2.53,2.53,0,0,0,64.1-46.786a2.729,2.729,0,0,0-2.845-2.921c-.373,0-.545.026-.709.036Zm4.874.835h.173c.254,0,.436,0,.436-.3v-2.458c0-.4-.136-.454-.473-.635v-.145c.427-.128.937-.3.973-.326a.323.323,0,0,1,.164-.046c.045,0,.064.055.064.128V-44.2c0,.3.2.3.455.3h.154v.236c-.309,0-.628-.018-.954-.018s-.655.009-.991.018Zm.973-5.308a.466.466,0,0,1-.446-.454.464.464,0,0,1,.446-.436.445.445,0,0,1,.445.436A.454.454,0,0,1,66.39-49.208Zm1.836,2.6c0-.336-.1-.426-.527-.6v-.172a12.3,12.3,0,0,0,1.2-.436c.027,0,.054.019.054.091v.59a2.668,2.668,0,0,1,1.574-.681c.772,0,1.045.563,1.045,1.271v2.34c0,.3.2.3.454.3h.164v.236c-.319,0-.637-.018-.963-.018s-.655.009-.982.018V-43.9h.163c.255,0,.436,0,.436-.3V-46.55c0-.518-.317-.771-.836-.771a2.43,2.43,0,0,0-1.055.435V-44.2c0,.3.2.3.456.3h.163v.236c-.318,0-.637-.018-.964-.018s-.655.009-.981.018V-43.9h.164c.254,0,.436,0,.436-.3Zm4.655.436a2.207,2.207,0,0,0,0,.526,1.516,1.516,0,0,0,1.335,1.569,1.744,1.744,0,0,0,1.228-.607l.127.127a2.132,2.132,0,0,1-1.681,1.025,1.823,1.823,0,0,1-1.737-1.978c0-1.779,1.2-2.305,1.836-2.305a1.443,1.443,0,0,1,1.537,1.425,1.085,1.085,0,0,1-.008.164l-.082.055Zm1.609-.291c.227,0,.253-.118.253-.227a.769.769,0,0,0-.791-.835c-.554,0-.936.407-1.045,1.061ZM75.735-43.9h.246c.253,0,.435,0,.435-.3v-2.549c0-.281-.336-.336-.472-.408v-.136c.663-.281,1.027-.518,1.11-.518.053,0,.08.027.08.119v.816h.019c.226-.354.609-.935,1.163-.935a.5.5,0,0,1,.518.481.441.441,0,0,1-.427.463c-.283,0-.283-.218-.6-.218a.767.767,0,0,0-.664.753V-44.2c0,.3.181.3.436.3h.509v.236c-.5-.01-.881-.018-1.272-.018-.373,0-.755.009-1.082.018Zm3.5-1.025a1.2,1.2,0,0,0,1.146,1.107.642.642,0,0,0,.736-.644c0-1.071-1.981-.726-1.981-2.187a1.249,1.249,0,0,1,1.409-1.162,2.393,2.393,0,0,1,1.036.264l.064.925h-.209a.933.933,0,0,0-.991-.9.638.638,0,0,0-.709.6c0,1.063,2.109.735,2.109,2.159,0,.6-.482,1.235-1.564,1.235a2.4,2.4,0,0,1-1.109-.308l-.1-1.044Zm10.818-3.43h-.227a1.729,1.729,0,0,0-1.945-1.488,2.589,2.589,0,0,0-2.565,2.876,2.958,2.958,0,0,0,2.71,3.149,1.848,1.848,0,0,0,1.828-1.57l.209.054-.209,1.325a5.1,5.1,0,0,1-2.01.481,3.232,3.232,0,0,1-3.472-3.412,3.339,3.339,0,0,1,3.445-3.194,6.565,6.565,0,0,1,2.145.482Zm.328,4.455h.172c.255,0,.437,0,.437-.3v-5.053c0-.59-.136-.608-.482-.708v-.145a5.79,5.79,0,0,0,.936-.39.954.954,0,0,1,.2-.1c.055,0,.073.055.073.128V-44.2c0,.3.2.3.455.3h.153v.236c-.308,0-.627-.018-.954-.018s-.654.009-.991.018Zm5.837-.263c0,.164.1.172.254.172.109,0,.245-.009.364-.009v.191a9.291,9.291,0,0,0-1.31.281l-.046-.028v-.734a2.455,2.455,0,0,1-1.61.762.98.98,0,0,1-1-1.079v-2.323c0-.236-.036-.463-.544-.508v-.173c.328-.009,1.054-.063,1.172-.063.1,0,.1.063.1.263v2.34c0,.273,0,1.053.79,1.053a2.031,2.031,0,0,0,1.1-.553v-2.442c0-.181-.436-.281-.763-.371v-.163c.817-.055,1.327-.127,1.418-.127.073,0,.073.063.073.163Zm1.809-2.994a2.3,2.3,0,0,1,1.355-.654,1.768,1.768,0,0,1,1.69,1.906A2.293,2.293,0,0,1,98.9-43.528a2.685,2.685,0,0,1-1.263-.318l-.273.208-.19-.1a10.731,10.731,0,0,0,.127-1.615v-3.9c0-.59-.137-.608-.482-.708v-.145a5.78,5.78,0,0,0,.937-.39.938.938,0,0,1,.2-.1c.054,0,.073.055.073.128Zm0,2.468a.977.977,0,0,0,.936.926c.973,0,1.382-.953,1.382-1.761a1.731,1.731,0,0,0-1.454-1.8,1.4,1.4,0,0,0-.864.427Zm-39.221,6.3h.07c.178,0,.366-.024.366-.281v-2.586c0-.257-.188-.282-.366-.282h-.07v-.148c.193,0,.49.019.733.019s.544-.019.776-.019v.148h-.07c-.177,0-.366.024-.366.282v2.586c0,.257.188.281.366.281h.07v.149c-.238,0-.535-.019-.781-.019s-.535.019-.728.019Zm4.908-.824.01-.01v-1.851a.408.408,0,0,0-.431-.464h-.109v-.148c.232,0,.46.02.692.02.2,0,.406-.02.609-.02v.148h-.074c-.208,0-.441.039-.441.627v2.247a3.286,3.286,0,0,0,.029.5h-.188L61.265-41v2.035c0,.429.083.577.465.577h.084v.149c-.212,0-.425-.019-.638-.019s-.45.019-.673.019v-.149h.069c.341,0,.445-.232.445-.626v-2.08a.443.443,0,0,0-.45-.444H60.5v-.148c.188,0,.381.02.568.02.149,0,.292-.02.441-.02Zm1.512-2.226c-.371,0-.385.089-.46.449h-.148c.019-.138.045-.276.059-.419a2.9,2.9,0,0,0,.03-.419h.119c.04.149.163.143.3.143h2.552c.134,0,.257,0,.267-.153l.118.02c-.019.133-.039.266-.054.4s-.009.267-.009.4l-.149.055c-.01-.182-.035-.474-.366-.474h-.811v2.627c0,.381.173.424.41.424h.094v.149c-.193,0-.539-.019-.806-.019-.3,0-.643.019-.836.019v-.149h.094c.273,0,.411-.024.411-.414V-41.44Zm2.992,3.051h.07c.178,0,.366-.024.366-.281v-2.586c0-.257-.188-.282-.366-.282h-.07v-.148c.3,0,.817.019,1.231.019s.93-.019,1.266-.019c-.009.212,0,.538.011.755l-.149.04c-.024-.321-.083-.577-.6-.577h-.687v1.293h.588c.3,0,.362-.167.391-.434h.148q-.015.29-.015.578c0,.188.005.376.015.563l-.148.029c-.029-.3-.044-.489-.386-.489h-.593v1.15c0,.321.286.321.6.321.594,0,.856-.04,1-.6l.138.034c-.065.262-.124.523-.168.785-.317,0-.886-.019-1.331-.019s-1.034.019-1.316.019ZM71.7-41.163c0-.36-.2-.375-.351-.375H71.26v-.149c.158,0,.465.02.767.02s.534-.02.8-.02c.623,0,1.177.168,1.177.87a.933.933,0,0,1-.687.869l.845,1.263a.55.55,0,0,0,.48.3v.149c-.163,0-.322-.019-.485-.019s-.312.019-.465.019a13.71,13.71,0,0,1-1.029-1.6h-.326v1.057c0,.381.177.394.4.394h.089v.149c-.283,0-.569-.019-.851-.019-.238,0-.47.019-.718.019v-.149h.089c.184,0,.351-.083.351-.266Zm.634,1.145h.242c.495,0,.761-.187.761-.77a.674.674,0,0,0-.722-.72,2.523,2.523,0,0,0-.281.02Zm5.663.8.009-.01v-1.851a.407.407,0,0,0-.43-.464h-.108v-.148c.232,0,.459.02.692.02.2,0,.4-.02.609-.02v.148h-.075c-.208,0-.44.039-.44.627v2.247a3.247,3.247,0,0,0,.029.5H78.1L75.549-41v2.035c0,.429.084.577.465.577H76.1v.149c-.212,0-.425-.019-.638-.019s-.451.019-.673.019v-.149h.069c.342,0,.446-.232.446-.626v-2.08a.443.443,0,0,0-.45-.444h-.064v-.148c.187,0,.381.02.569.02.147,0,.291-.02.44-.02Zm1.568.267a1.96,1.96,0,0,0-.11.385c0,.149.208.172.371.172h.055v.149c-.2-.011-.4-.019-.6-.019-.178,0-.355.008-.534.019v-.149h.03a.447.447,0,0,0,.43-.321L80-40.975a4.208,4.208,0,0,0,.184-.613,2.551,2.551,0,0,0,.45-.211.106.106,0,0,1,.039-.01.034.034,0,0,1,.035.015c.015.039.029.084.045.123l.91,2.582c.059.173.118.355.182.5a.314.314,0,0,0,.327.2h.03v.149c-.223-.011-.446-.019-.683-.019s-.49.008-.743.019v-.149h.055c.113,0,.307-.019.307-.143a1.573,1.573,0,0,0-.1-.356l-.192-.572H79.723Zm.722-2.187h-.01l-.46,1.4h.925Zm2.132-.306c-.371,0-.386.089-.46.449H81.81c.019-.138.045-.276.06-.419a2.942,2.942,0,0,0,.029-.419h.119c.039.149.163.143.3.143h2.553c.133,0,.257,0,.267-.153l.118.02c-.019.133-.039.266-.054.4s-.011.267-.011.4l-.148.055c-.009-.182-.034-.474-.366-.474h-.811v2.627c0,.381.174.424.411.424h.094v.149c-.193,0-.539-.019-.807-.019-.3,0-.643.019-.836.019v-.149h.094c.273,0,.411-.024.411-.414V-41.44Zm3.016,3.051H85.5c.179,0,.366-.024.366-.281v-2.586c0-.257-.187-.282-.366-.282h-.069v-.148c.193,0,.489.019.731.019s.545-.019.778-.019v.148h-.069c-.178,0-.367.024-.367.282v2.586c0,.257.189.281.367.281h.069v.149c-.238,0-.535-.019-.781-.019s-.534.019-.728.019Zm3.482-3.371a1.734,1.734,0,0,1,1.895,1.7,1.812,1.812,0,0,1-1.869,1.89,1.746,1.746,0,0,1-1.85-1.772A1.8,1.8,0,0,1,88.917-41.76Zm.075,3.377c.96,0,1.127-.845,1.127-1.565s-.39-1.6-1.211-1.6c-.866,0-1.123.77-1.123,1.431C87.785-39.228,88.19-38.383,88.991-38.383Zm5.153-.83.01-.01v-1.851a.408.408,0,0,0-.431-.464h-.107v-.148c.232,0,.46.02.691.02.2,0,.406-.02.61-.02v.148h-.075c-.207,0-.44.039-.44.627v2.247a3.167,3.167,0,0,0,.03.5h-.188L91.7-41v2.035c0,.429.084.577.465.577h.085v.149c-.213,0-.425-.019-.638-.019s-.451.019-.673.019v-.149H91c.342,0,.445-.232.445-.626v-2.08a.442.442,0,0,0-.45-.444h-.065v-.148c.188,0,.381.02.569.02.148,0,.291-.02.44-.02Zm1.567.267a2.053,2.053,0,0,0-.108.385c0,.149.208.172.37.172h.055v.149c-.2-.011-.4-.019-.6-.019-.179,0-.356.008-.533.019v-.149h.028a.447.447,0,0,0,.431-.321l.793-2.265a3.974,3.974,0,0,0,.182-.613,2.546,2.546,0,0,0,.451-.211.1.1,0,0,1,.039-.01c.015,0,.024,0,.034.015.015.039.03.084.045.123l.91,2.582c.059.173.118.355.184.5a.313.313,0,0,0,.326.2h.03v.149c-.223-.011-.446-.019-.683-.019s-.489.008-.742.019v-.149h.055c.113,0,.307-.019.307-.143a1.58,1.58,0,0,0-.1-.356l-.192-.572H95.871Zm.723-2.187h-.01l-.461,1.4h.926ZM99.6-38.724c0,.2.137.257.3.277a3.6,3.6,0,0,0,.654-.01.708.708,0,0,0,.474-.267,1.125,1.125,0,0,0,.153-.356h.143c-.054.281-.124.558-.184.84-.434,0-.871-.019-1.3-.019s-.871.019-1.306.019v-.149h.068c.179,0,.372-.024.372-.33v-2.537c0-.257-.193-.282-.372-.282h-.068v-.148c.261,0,.519.02.781.02s.5-.02.752-.02v.148h-.124c-.188,0-.335.005-.335.267Z" transform="translate(-35.058 52.702)"/></g><g class="a" transform="translate(279.068 506)"><path class="c" d="M54.843,130.459H34.686v20.23H54.843v-6.676a.765.765,0,0,0,.12-.445.693.693,0,0,0-.12-.444" transform="translate(-34.686 -130.459)"/><path class="e" d="M36.5,162.314l-.388-.945-.386.945m9.316-.376a.526.526,0,0,1-.28.049h-.688v-.526h.7a.585.585,0,0,1,.269.043.217.217,0,0,1,.119.21A.242.242,0,0,1,45.045,161.938Zm4.91.376-.392-.945-.39.945ZM40.8,163.337h-.581l0-1.856-.822,1.856h-.5l-.824-1.858v1.858H36.925l-.218-.529h-1.18l-.22.529h-.615l1.014-2.37h.842l.964,2.244v-2.244h.925l.741,1.608.681-1.608H40.8v2.37Zm2.315,0H41.225v-2.37h1.893v.493H41.792v.427h1.294v.486H41.792v.473h1.326Zm2.668-1.732a.667.667,0,0,1-.4.632.657.657,0,0,1,.28.2.68.68,0,0,1,.094.435v.466H45.19l0-.3a.711.711,0,0,0-.089-.462c-.083-.083-.209-.1-.413-.1h-.608v.862H43.51v-2.37h1.3a1.336,1.336,0,0,1,.686.113A.553.553,0,0,1,45.786,161.605Zm.907,1.732h-.578v-2.37h.578Zm6.706,0h-.8l-1.074-1.779v1.779H50.369l-.221-.529H48.971l-.214.529h-.663a1,1,0,0,1-1.124-1.167,1.261,1.261,0,0,1,.305-.927,1.15,1.15,0,0,1,.86-.276h.549v.508h-.537a.546.546,0,0,0-.436.14.783.783,0,0,0-.163.537.821.821,0,0,0,.156.557.546.546,0,0,0,.395.122h.254l.8-1.864H50l.959,2.242v-2.242h.863l1,1.651v-1.651h.58v2.37Zm-18.713.466h.968l.218-.526h.489l.218.526h1.9v-.4l.17.4h.989l.17-.41v.408h4.733l0-.864h.091c.064,0,.083.008.083.114v.75h2.448v-.2a1.94,1.94,0,0,0,.909.2H49.1l.22-.526h.489l.216.526h1.985v-.5l.3.5H53.9V160.5H52.33v.39l-.22-.39H50.5v.39l-.2-.39H48.111a1.959,1.959,0,0,0-.945.193V160.5H45.66v.193a.933.933,0,0,0-.64-.193h-5.5l-.369.854-.379-.854H37.04v.39l-.19-.39H35.372l-.686,1.572V163.8Z" transform="translate(-34.686 -153.561)"/><path class="e" d="M68.193,179.132H67.161a.392.392,0,0,0-.229.043.184.184,0,0,0-.083.171.179.179,0,0,0,.124.177.648.648,0,0,0,.218.027l.307.008a.9.9,0,0,1,.643.191.311.311,0,0,1,.053.059m0,.888a.883.883,0,0,1-.769.3H66.33v-.508h1.09a.323.323,0,0,0,.229-.059.209.209,0,0,0,.067-.155.2.2,0,0,0-.069-.157.288.288,0,0,0-.2-.053c-.532-.018-1.2.017-1.2-.734,0-.344.218-.706.813-.706h1.128v-.472H67.145a1.183,1.183,0,0,0-.709.194v-.194H64.885a1.072,1.072,0,0,0-.677.194v-.194H61.438v.194a1.474,1.474,0,0,0-.764-.194H58.848v.194a1.292,1.292,0,0,0-.8-.194H56l-.468.506-.438-.506H52.045v3.308h3l.482-.514.454.514,1.847,0v-.778h.182a1.921,1.921,0,0,0,.789-.116v.893h1.523V180.6h.073c.094,0,.1,0,.1.1v.764h4.628a1.319,1.319,0,0,0,.771-.212v.212h1.468a1.967,1.967,0,0,0,.831-.152V180.7Zm-2.26-.947a.659.659,0,0,1,.17.5c0,.51-.319.748-.89.748h-1.1v-.508h1.1a.333.333,0,0,0,.231-.059.21.21,0,0,0,.067-.155.2.2,0,0,0-.069-.157.3.3,0,0,0-.2-.053c-.53-.018-1.193.017-1.193-.734,0-.344.216-.706.81-.706h1.136v.5H64.949a.383.383,0,0,0-.227.043.2.2,0,0,0,.039.347.651.651,0,0,0,.22.027l.305.008A.914.914,0,0,1,65.933,179.748Zm-5.112-.146a.544.544,0,0,1-.28.049h-.688v-.532h.7a.558.558,0,0,1,.27.043.225.225,0,0,1,.117.213A.256.256,0,0,1,60.821,179.6Zm.342.295a.617.617,0,0,1,.278.2.69.69,0,0,1,.094.433V181h-.569v-.3c0-.143.014-.354-.091-.464a.55.55,0,0,0-.416-.105h-.605V181h-.569v-2.371h1.308a1.4,1.4,0,0,1,.682.112.556.556,0,0,1,.291.526A.664.664,0,0,1,61.163,179.9Zm.716-1.269H63.77v.49H62.443v.431h1.294v.484H62.443v.472l1.327,0V181H61.879Zm-3.822,1.094h-.732v-.6h.739c.2,0,.346.083.346.291S58.274,179.722,58.056,179.722Zm-1.3,1.061-.87-.966.87-.935Zm-2.246-.279H53.121v-.472h1.244v-.484H53.121v-.431h1.42l.62.691Zm4.5-1.1c0,.659-.491.795-.986.795h-.707v.8h-1.1l-.7-.785L54.8,181H52.556v-2.371h2.279l.7.777.721-.777h1.81C58.513,178.628,59.018,178.752,59.018,179.409Z" transform="translate(-48.036 -167.142)"/></g></g></svg>