<?xml version="1.0" encoding="utf-8"?>
<!-- Generator: Adobe Illustrator 23.0.1, SVG Export Plug-In . SVG Version: 6.00 Build 0)  -->
<svg version="1.1" xmlns="http://www.w3.org/2000/svg" xmlns:xlink="http://www.w3.org/1999/xlink" x="0px" y="0px"
	 viewBox="0 0 281 48" style="enable-background:new 0 0 281 48;" xml:space="preserve">
<style type="text/css">
	.st0{fill:#ECF9FF;}
	.st1{fill:#FFFFFF;}
	.st2{fill:#535D66;}
	.st3{fill-rule:evenodd;clip-rule:evenodd;fill:#ECF9FF;}
	.st4{fill-rule:evenodd;clip-rule:evenodd;fill:#FFFFFF;}
	.st5{fill-rule:evenodd;clip-rule:evenodd;fill:#00ADEE;}
	.st6{fill-rule:evenodd;clip-rule:evenodd;}
	.st7{fill:#00ADEE;}
	.st8{fill:#808099;}
	.st9{fill:#FFC037;}
	.st10{fill:#FF7108;}
	.st11{fill:#AEFFCF;}
	.st12{fill:#0BD360;}
	.st13{fill:#343434;}
	.st14{fill-rule:evenodd;clip-rule:evenodd;fill:#104EFF;}
	.st15{fill:#002E75;}
	.st16{fill:#0855C4;}
	.st17{fill:#99E2FF;}
	.st18{fill:#AED3FF;}
	.st19{fill:#231F20;}
	.st20{fill:#EFF1F4;}
	.st21{clip-path:url(#SVGID_2_);}
	.st22{fill:#8EEA00;}
	.st23{fill-rule:evenodd;clip-rule:evenodd;fill:#8EEA00;}
	.st24{fill:#0021CE;}
	.st25{fill:#104EFF;}
	.st26{fill:#303030;}
	.st27{fill:#00E1CF;}
	.st28{fill-rule:evenodd;clip-rule:evenodd;fill:#0BD360;}
	.st29{fill-rule:evenodd;clip-rule:evenodd;fill:#00E1CF;}
	.st30{fill:none;stroke:#5C006A;stroke-width:1.29;stroke-linecap:round;stroke-linejoin:round;}
	.st31{fill:#B6FFD3;}
	.st32{clip-path:url(#SVGID_4_);}
	.st33{fill:#DFE6E8;}
	.st34{fill:#B3B3B3;}
	.st35{fill:#96E0FD;}
	.st36{fill:#0ED160;}
	.st37{fill:#08A8FD;}
	.st38{fill:#6EEE89;}
	.st39{fill:#DFF8F5;}
	.st40{clip-path:url(#SVGID_6_);fill:#96E0FD;}
	.st41{fill:#F5F5F6;}
	.st42{fill:none;stroke:#002E75;stroke-width:1.5207;stroke-linecap:round;stroke-linejoin:round;}
	.st43{fill:#E9EAEB;}
	.st44{clip-path:url(#SVGID_8_);fill:#FFFFFF;}
	.st45{clip-path:url(#SVGID_8_);fill:#FFCF9B;}
	.st46{clip-path:url(#SVGID_8_);fill:#002E75;}
	.st47{clip-path:url(#SVGID_8_);fill:#F9BC90;}
	.st48{clip-path:url(#SVGID_8_);fill:#0ED160;}
	.st49{fill-rule:evenodd;clip-rule:evenodd;fill:#002E75;}
	.st50{fill-rule:evenodd;clip-rule:evenodd;fill:#0ED160;}
	.st51{fill-rule:evenodd;clip-rule:evenodd;fill:#DFE6E8;}
	.st52{fill-rule:evenodd;clip-rule:evenodd;fill:#DCE6E8;}
	.st53{fill-rule:evenodd;clip-rule:evenodd;fill:#6EEE89;}
	.st54{fill-rule:evenodd;clip-rule:evenodd;fill:#FFC037;}
	.st55{fill:#F4F4F5;}
	.st56{fill:#606060;}
	.st57{fill-rule:evenodd;clip-rule:evenodd;fill:#005EA1;}
	.st58{fill-rule:evenodd;clip-rule:evenodd;fill:#00A5D8;}
	.st59{fill:#444444;}
	.st60{clip-path:url(#SVGID_10_);}
	.st61{clip-path:url(#SVGID_12_);}
	.st62{clip-path:url(#SVGID_14_);}
	.st63{clip-path:url(#SVGID_16_);}
	.st64{clip-path:url(#SVGID_18_);}
	.st65{clip-path:url(#SVGID_20_);}
</style>
<g id="Layer_3">
</g>
<g id="Layer_1">
</g>
<g id="Layer_2">
</g>
<g id="Layer_4">
</g>
<g id="Layer_5">
</g>
<g id="Isolation_Mode">
</g>
<g id="Art">
</g>
<g id="Capa_8">
	<path class="st4" d="M34.8,33.5L11,37.9V13.3l23.8-4.4V33.5z M6.5,0.5c-3.3,0-6,2.7-6,6.1v39.6h38.8c3.3,0,6-2.7,6-6.1l0-39.6H6.5z
		"/>
	<path class="st4" d="M115.7,25.3l0-0.3l0-0.9c0.1-3,2.3-5.7,5.5-5.7c1.5,0,2.7,0.3,3.6,1c0.9,0.7,1.4,1.7,1.4,3.1
		c0,1-0.4,1.8-1.6,2.1c-1.2,0.4-3,0.6-6,0.6H115.7z M129,28c1.8-0.9,2.6-2.3,2.6-4.6c0-5.9-4.7-9.6-9.8-9.6c-7,0-12,5.2-12,13.6
		c0,7.7,6,12.4,12.1,12.4c3.6,0,5.9-0.6,7.2-1.7v-4.2c-1.9,0.9-4.1,1.2-6.1,1.2c-3.8,0-6.8-2.1-7.3-5.5l0-0.3h4.4
		C124.3,29.3,127.2,29,129,28z"/>
	<path class="st4" d="M134.7,23.5l0,15.9h5.8V24.6c0-2,0.4-3.4,1.2-4.3c0.8-0.9,2-1.4,3.4-1.4c0.6,0,1.1,0,1.6,0.1v-4.7
		c-0.7-0.4-1.7-0.6-2.9-0.6C137.2,13.8,134.7,18.4,134.7,23.5"/>
	<polygon class="st4" points="58.7,39.4 64.5,39.4 64.5,7.4 58.7,7.4 	"/>
	<path class="st4" d="M80,13.8c-7.7,0-11.1,5.4-11.1,10.7v14.9h5.7V24.9c0-1.9,0.5-3.4,1.3-4.4c0.9-1,2.1-1.6,3.5-1.6
		c1.7,0,3,0.5,3.9,1.6c0.9,1.1,1.4,2.7,1.4,4.9l0,14h5.7V24.8C90.6,17.7,85.9,13.8,80,13.8"/>
	<path class="st4" d="M100.7,7.4H95l0,23.1c0,5.9,2.9,9.3,9.2,9.3c2.6,0,4.2-0.9,4.9-2.3v-3.6c-1,0.5-2.4,0.7-4.1,0.7
		c-1.3,0-2.4-0.3-3.1-1.1c-0.7-0.8-1.1-2-1.1-3.7V18.9h5c2.4,0,3.5-1.6,3.5-2.8v-2.3h-8.5V7.4z"/>
	<path class="st4" d="M175.5,25.4l0-0.3l0-0.9c0.1-3,2.3-5.7,5.5-5.7c1.5,0,2.7,0.3,3.6,1c0.9,0.7,1.4,1.7,1.4,3.1
		c0,1-0.4,1.8-1.6,2.2c-1.1,0.4-3,0.6-5.9,0.6H175.5z M188.8,28c1.8-0.9,2.6-2.3,2.6-4.6c0-5.9-4.7-9.6-9.8-9.6
		c-7,0-12,5.2-12.1,13.6c0,7.6,6,12.4,12.1,12.4c3.6,0,5.9-0.6,7.2-1.7v-4.3c-1.9,0.9-4.1,1.2-6.1,1.2c-3.8,0-6.8-2.1-7.3-5.5l0-0.3
		h4.4C184,29.3,186.9,28.9,188.8,28z"/>
	<path class="st4" d="M244.5,23.5v15.9h5.8V24.6c0-2,0.4-3.4,1.2-4.3c0.8-0.9,2-1.4,3.4-1.4c0.6,0,1.1,0,1.6,0.1v-4.7
		c-0.7-0.4-1.7-0.6-2.9-0.6C247,13.8,244.5,18.4,244.5,23.5"/>
	<path class="st4" d="M157.2,39.7c-4.2,0-7.4-2.4-7.4-4.9V32h0.2c1.2,1.2,4.2,2.4,6.9,2.4c2.8,0,4.2-0.9,4.2-2.7
		c0-1.4-0.8-2.1-4.8-2.7c-4.8-0.7-7.2-2.8-7.2-6.6c0-4.7,3.9-8.6,9.7-8.6c5.2,0,7.3,2.9,7.3,5.3v2.4H166c-1.2-1.3-3.8-2.3-6.5-2.3
		c-3.5,0-4.6,1.1-4.6,2.8c0,1.2,0.7,1.8,4.6,2.4c4.7,0.8,7.3,3.1,7.3,7.1C166.7,36.6,163.3,39.7,157.2,39.7"/>
	<path class="st4" d="M199.8,25.6c0,3.3,1.8,5.7,4.6,5.7c2.9,0,4.9-2.3,4.9-6.3c0-3.9-1.8-5.8-4.3-5.8
		C202.1,19.2,199.8,21.9,199.8,25.6 M215.1,32.2c0,1,0.1,2.4,0.1,3.2c0,6.2-3.8,11.8-11.2,11.8c-4.7,0-7.9-2.5-7.9-5.4V39h0.3
		c1.4,1.6,4,2.7,7.3,2.7c4.1,0,6-2.1,6-5.7c0-0.4,0-0.9,0-1.3c0-0.4,0-1,0-1.2v-0.6c-0.5,1.8-2.6,3.7-5.9,3.7
		c-5.6,0-9.5-4.2-9.5-10.1c0-7,4.2-12.7,11.6-12.7c5.7,0,9.3,4.5,9.3,10.9v4.2C215,29.7,215,31.1,215.1,32.2"/>
	<path class="st4" d="M268.8,18.9c-3.5,0-5.3,3.1-5.3,7.4c0,5.1,1.8,8.2,5.8,8.2c3.5,0,5.3-3.1,5.3-7.3
		C274.6,22,272.8,18.9,268.8,18.9 M269.3,13.7c7,0,11.1,6,11.1,12.6c0,7.5-4,13.4-11.6,13.4c-7,0-11.1-6-11.1-12.6
		C257.7,19.7,261.8,13.7,269.3,13.7"/>
	<path class="st4" d="M229.5,39.9c7.7,0,11-5.4,11-10.7v-15h-5.7v14.5c0,1.9-0.5,3.4-1.3,4.4c-0.9,1-2.1,1.6-3.5,1.6
		c-1.7,0-3-0.5-3.9-1.6c-0.9-1.1-1.4-2.7-1.4-4.9l0-14.1H219v14.6C219,36,223.7,39.8,229.5,39.9"/>
</g>
</svg>
