<svg xmlns="http://www.w3.org/2000/svg" xmlns:xlink="http://www.w3.org/1999/xlink" width="32.93" height="23.332" viewBox="0 0 32.93 23.332"><defs><style>.a{fill:none;}.b{clip-path:url(#a);}.c{fill:#0855c4;}.d{clip-path:url(#b);}.e{clip-path:url(#c);}.f{clip-path:url(#d);}.g{fill:#0854c4;}.h{clip-path:url(#e);}.i{fill:#ea0f90;}</style><clipPath id="a"><path class="a" d="M1.38-20H30.221v-2.11H1.38Zm1.584-6.621H28.635a1.606,1.606,0,0,1,1.585,1.584v1.543H1.38v-1.543a1.606,1.606,0,0,1,1.584-1.584Zm0-1.381A3,3,0,0,0,0-25.035V-8.421A2.968,2.968,0,0,0,2.964-5.456H21.6a.69.69,0,0,0,.488-.2.69.69,0,0,0,.2-.489.69.69,0,0,0-.2-.489.69.69,0,0,0-.488-.2H2.964A1.586,1.586,0,0,1,1.38-8.421v-10.2H30.221v2.855a.69.69,0,0,0,.69.69.69.69,0,0,0,.69-.69v-9.273A3,3,0,0,0,28.635-28Z" transform="translate(0 28)"/></clipPath><clipPath id="b"><path class="a" d="M11-15.641H3.242a.69.69,0,0,1-.69-.69.69.69,0,0,1,.2-.489.69.69,0,0,1,.488-.2H11a.689.689,0,0,1,.489.2.689.689,0,0,1,.2.489.689.689,0,0,1-.2.488.689.689,0,0,1-.488.2" transform="translate(-2.552 17.022)"/></clipPath><clipPath id="c"><path class="a" d="M7.1-13.365H3.242a.69.69,0,0,1-.488-.2.69.69,0,0,1-.2-.489.69.69,0,0,1,.69-.69H7.1a.689.689,0,0,1,.488.2.689.689,0,0,1,.2.488.689.689,0,0,1-.2.489.689.689,0,0,1-.489.2" transform="translate(-2.552 14.746)"/></clipPath><clipPath id="d"><path class="a" d="M20.548-15.012a.69.69,0,0,0-.488.2.69.69,0,0,0-.2.489v1.543a.689.689,0,0,0,.2.489.689.689,0,0,0,.489.2.69.69,0,0,0,.488-.2.69.69,0,0,0,.2-.489v-1.543a.69.69,0,0,0-.2-.489.69.69,0,0,0-.488-.2" transform="translate(-19.858 15.012)"/></clipPath><clipPath id="e"><path class="a" d="M26.471-8.81a.764.764,0,0,1-.224.548.764.764,0,0,1-.548.224H17.981a.764.764,0,0,1-.548-.224.764.764,0,0,1-.224-.548v-5.159a.762.762,0,0,1,.772-.73H25.7a.753.753,0,0,1,.772.73Zm-7.434-9.464a2.182,2.182,0,0,1,2.152-2.153h1.667a2.182,2.182,0,0,1,2.152,2.153v2.194H19.037Zm7.351,2.307v-2.307a3.581,3.581,0,0,0-3.532-3.534H21.19a3.58,3.58,0,0,0-3.532,3.534v2.22a2.127,2.127,0,0,0-1.829,2.085V-8.81a2.155,2.155,0,0,0,2.152,2.153H25.7A2.155,2.155,0,0,0,27.851-8.81v-5.159a2.118,2.118,0,0,0-1.462-2Z" transform="translate(-15.829 21.808)"/></clipPath></defs><g transform="translate(-8472 -5322.998)"><g class="b" transform="translate(8472 5323)"><path class="c" d="M-5,2.753H39.81V-33H-5Z" transform="translate(-1.605 26.395)"/></g><g class="d" transform="translate(8475.371 5337.501)"><path class="c" d="M-2.448-7.432H19.9v-14.59H-2.448Z" transform="translate(-4.157 15.417)"/></g><g class="e" transform="translate(8475.371 5340.507)"><path class="c" d="M-2.448-5.156H16v-14.59H-2.448Z" transform="translate(-4.157 13.142)"/></g><g class="f" transform="translate(8498.23 5340.155)"><path class="g" d="M14.858-3.879H29.446V-20.012H14.858Z" transform="translate(-21.462 13.408)"/></g><g class="h" transform="translate(8492.908 5331.179)"><path class="i" d="M10.829,1.552H36.06v-28.36H10.829Z" transform="translate(-17.433 20.204)"/></g></g></svg>