<svg xmlns="http://www.w3.org/2000/svg" width="723.429" height="255.849" viewBox="0 0 723.429 255.849"><defs><style>.a{fill:#fff;}.b{fill:#0033a1;}.c{fill:#fefffe;}</style></defs><g transform="translate(-645.457 -167.152)"><g transform="translate(-1727.793 5336)"><path class="a" d="M5906.83,1190.013v19.964h19.405v17.062H5906.83v19.846h-18.065v-19.847h-19.4v-17.061h19.4v-19.964Z" transform="translate(-3263.161 -6257.226)"/><ellipse class="b" cx="104.639" cy="104.681" rx="104.639" ry="104.681" transform="translate(2373.251 -5144.958)"/><path class="a" d="M5708.42,1155.177c4.245,0,7.417,2.594,7.417,7.555s-3.172,7.554-7.417,7.554-7.462-2.592-7.462-7.554S5704.17,1155.177,5708.42,1155.177Zm-2.19,7.555c0,2.1.806,3.039,2.146,3.039s2.19-.938,2.19-3.039c0-2.146-.852-3.084-2.19-3.084s-2.15.938-2.15,3.084Zm17.7-7.062h7.373l-17.2,31.472h-7.374Zm5.72,16.853c4.246,0,7.418,2.548,7.418,7.556,0,4.958-3.172,7.554-7.418,7.554s-7.417-2.594-7.417-7.554c0-5.007,3.171-7.556,7.416-7.556Zm-2.19,7.556c0,2.1.8,3.039,2.145,3.039s2.19-.939,2.19-3.039-.852-3.085-2.19-3.085-2.149.981-2.149,3.084Z" transform="translate(-3178.605 -6239.735)"/><path class="a" d="M5707.571,1249.558c0,3.1-2.146,5.233-5.483,5.233h-3.918v-10.466h3.918C5705.423,1244.326,5707.571,1246.443,5707.571,1249.558Zm-5.647,3.03a3.04,3.04,0,1,0,0-6.081h-1.205v6.072Z" transform="translate(-3177.206 -6284.497)"/><path class="a" d="M5723.409,1254.744c-2.25,0-4.007-1.117-4.083-3.234h2.713a1.2,1.2,0,0,0,1.2,1.193h.092c.744,0,1.221-.367,1.221-.984,0-1.938-5.233-.894-5.2-4.606,0-1.982,1.625-3.085,3.815-3.085,2.279,0,3.814,1.137,3.919,3.122h-2.754a1.137,1.137,0,0,0-1.183-1.089h-.024a.929.929,0,0,0-1.062.769,1.05,1.05,0,0,0-.01.184c0,1.819,5.169,1,5.169,4.5C5727.219,1253.286,5725.851,1254.744,5723.409,1254.744Z" transform="translate(-3187.828 -6284.347)"/><path class="a" d="M5742.64,1244.081a4.857,4.857,0,0,1,4.958,3.667h-2.8a2.3,2.3,0,0,0-2.189-1.341c-1.561,0-2.637,1.162-2.637,3.01s1.073,3.011,2.637,3.011a2.3,2.3,0,0,0,2.19-1.341h2.8a4.844,4.844,0,0,1-4.958,3.651,5.328,5.328,0,1,1,0-10.656Z" transform="translate(-3196.859 -6284.371)"/><path class="a" d="M5759.979,1244.327h8.09v2.04H5765.3v8.424h-2.547v-8.424h-2.772Z" transform="translate(-3208.239 -6284.498)"/><path class="a" d="M5783.314,1254.745a5.358,5.358,0,1,1,5.349-5.367h0a5.262,5.262,0,0,1-5.156,5.365Zm0-2.325a2.737,2.737,0,0,0,2.772-2.7,2.691,2.691,0,0,0-.017-.338,2.776,2.776,0,1,0-2.755,3.042Z" transform="translate(-3217.262 -6284.347)"/><g transform="translate(2767.891 -5215.405) rotate(9)"><path class="b" d="M0,12.833l.482-10.4A1.72,1.72,0,0,1,2.07.616L5.041.128c3.089-.506,5.013.487,5.413,2.919.495,3.009-1.032,5.307-4.9,5.942l-2.452.4L2.967,12.43c-.052.93-.4,1.436-1.256,1.577l-.419.069C.5,14.2-.047,13.784,0,12.833ZM5.431,6.743A2.364,2.364,0,0,0,7.612,3.826c-.179-1.1-1-1.6-2.494-1.352l-1.753.288L3.178,7.113Z" transform="translate(0 50.518)"/><path class="b" d="M.116,6.77A5.586,5.586,0,0,1,4.675.126a4.392,4.392,0,0,1,5.4,3.7,5.586,5.586,0,0,1-4.559,6.644,4.392,4.392,0,0,1-5.4-3.7ZM7.641,4.347a2.339,2.339,0,0,0-2.7-2.075,3.318,3.318,0,0,0-2.393,4,2.333,2.333,0,0,0,2.69,2.056,3.312,3.312,0,0,0,2.4-3.981Z" transform="translate(11.133 51.764)"/><path class="b" d="M2.981,2.375A3.008,3.008,0,0,1,5.308.068a1.556,1.556,0,0,1,1.96,1.091A1.8,1.8,0,0,1,6.3,3.139a1.754,1.754,0,0,0-1.45-.355c-1.257.2-1.821,1.733-1.922,3.858L2.816,9.424c-.056,1.033-.358,1.43-1.075,1.548l-.3.049C.679,11.145-.047,10.958,0,9.887L.4,1.224a1.253,1.253,0,0,1,.748-.3A1.5,1.5,0,0,1,2.981,2.375Z" transform="translate(22.666 49.818)"/><path class="b" d="M.007,12.007.5,1.65C.548.6.851.2,1.57.082l.3-.05C2.631-.092,3.36.115,3.311,1.188l-.495,10.44c-.042,1.113.2,1.5,1.043,1.487.023.017.025,1.019-1.471,1.265C.573,14.678-.074,13.636.007,12.007Z" transform="translate(34.449 44.491)"/><path class="b" d="M7.606,8.586A4.132,4.132,0,0,1,4.432,11.2C2.34,11.54.5,10.327.09,7.815-.421,4.707,1.28,1.234,4.409.72A3.464,3.464,0,0,1,7.827,1.959,2,2,0,0,1,9.618.027C10.176-.065,10.653.1,10.671.2l-.355,7.3c-.063,1.113.2,1.482.982,1.5.023.017.043,1.012-1.391,1.252a1.763,1.763,0,0,1-2.3-1.668Zm.023-2.972.056-1.4A2.25,2.25,0,0,0,5.147,2.848c-1.854.3-2.684,2.345-2.393,4.12A1.993,1.993,0,0,0,5.081,8.8,3.252,3.252,0,0,0,7.626,5.612Z" transform="translate(39.246 46.594)"/><path class="b" d="M.086,6.778A5.768,5.768,0,0,1,4.7.123,4.748,4.748,0,0,1,8.371.77a2.311,2.311,0,0,1,1,1.454,1.451,1.451,0,0,1-1.575,1.63,2.232,2.232,0,0,0-2.66-1.487A3.2,3.2,0,0,0,2.64,6.133,2.327,2.327,0,0,0,5.493,8.162,2.722,2.722,0,0,0,7.639,6.4a1.284,1.284,0,0,1,1.5.92,1.879,1.879,0,0,1-.446,1.4,4.687,4.687,0,0,1-3.071,1.733C2.808,10.916.551,9.611.086,6.778Z" transform="translate(54.719 44.599)"/><path class="b" d="M.116,6.77A5.586,5.586,0,0,1,4.669.126a4.393,4.393,0,0,1,5.4,3.7A5.586,5.586,0,0,1,5.51,10.468,4.392,4.392,0,0,1,.116,6.77ZM7.64,4.342a2.339,2.339,0,0,0-2.7-2.075c-1.734.284-2.694,2.163-2.393,4A2.335,2.335,0,0,0,5.243,8.319a3.313,3.313,0,0,0,2.4-3.967Z" transform="translate(64.971 42.913)"/><path class="b" d="M12.9,8.619a9.446,9.446,0,0,1,.085-2.471,10.8,10.8,0,0,0,.075-2.161,1.438,1.438,0,0,0-1.7-1.359,2.416,2.416,0,0,0-1.879,1.64L9.237,9.507c-.052,1.052-.419,1.44-1.137,1.558l-.3.049c-.737.121-1.423-.073-1.376-1.145l.2-4.291c.063-1.362-.643-2.166-1.68-2A2.436,2.436,0,0,0,3.059,5.3l-.241,5.261C2.769,11.633,2.4,12,1.682,12.118l-.3.049C.621,12.291-.046,12.094,0,11.021L.4,2.359a1.259,1.259,0,0,1,.747-.3,1.5,1.5,0,0,1,1.822,1.4A3.92,3.92,0,0,1,5.921,1.106,2.809,2.809,0,0,1,9.1,2.755a4.212,4.212,0,0,1,3.238-2.7,2.988,2.988,0,0,1,3.528,2.655,12.935,12.935,0,0,1-.09,2.942,10.7,10.7,0,0,0-.125,2.231c.091.559.4.732.938.725.06-.01.03,1.183-1.506,1.435A1.658,1.658,0,0,1,12.9,8.619Z" transform="translate(76.493 39.838)"/><path class="b" d="M0,13.9.6,1.316a1.247,1.247,0,0,1,.747-.3,1.508,1.508,0,0,1,1.842,1.5A3.8,3.8,0,0,1,6.16.057C8.254-.287,10.233.924,10.672,3.6c.506,3.069-1.021,6.374-4.09,6.874A3.552,3.552,0,0,1,3.029,9.157l-.215,4.294C2.78,14.5,2.458,14.9,1.74,15.019l-.3.049C.681,15.175-.048,14.973,0,13.9ZM3.229,4.384,3.158,5.827A2.226,2.226,0,0,0,5.82,8.318C7.595,8.026,8.289,6.151,8,4.4a2.112,2.112,0,0,0-2.45-1.951A3.209,3.209,0,0,0,3.23,4.38Z" transform="translate(94.079 37.964)"/><path class="b" d="M2.986,2.374A3.007,3.007,0,0,1,5.308.068,1.557,1.557,0,0,1,7.269,1.159,1.8,1.8,0,0,1,6.3,3.139a1.758,1.758,0,0,0-1.45-.356c-1.255.2-1.821,1.733-1.923,3.858L2.816,9.423c-.056,1.033-.358,1.43-1.074,1.547l-.3.05C.68,11.144-.047,10.957,0,9.885L.4,1.222a1.255,1.255,0,0,1,.748-.3A1.5,1.5,0,0,1,2.986,2.374Z" transform="translate(106.288 36.076)"/><path class="b" d="M7.6,8.587A4.133,4.133,0,0,1,4.431,11.2C2.337,11.539.5,10.326.088,7.815c-.506-3.109,1.191-6.582,4.32-7.1A3.467,3.467,0,0,1,7.826,1.959,2,2,0,0,1,9.617.026C10.176-.065,10.653.1,10.67.2l-.355,7.305c-.063,1.113.2,1.482.981,1.5.024.016.045,1.012-1.391,1.252A1.762,1.762,0,0,1,7.6,8.587Zm.022-2.972.055-1.4A2.249,2.249,0,0,0,5.145,2.849c-1.854.3-2.684,2.346-2.394,4.12A1.993,1.993,0,0,0,5.078,8.8,3.25,3.25,0,0,0,7.625,5.612Z" transform="translate(114.267 34.268)"/><path class="b" d="M7.6,12.806A3.776,3.776,0,0,1,4.61,15.283C2.517,15.627.534,14.4.1,11.726c-.506-3.05,1.024-6.351,4.094-6.855A3.773,3.773,0,0,1,7.765,6.086L7.978,1.65C8.01.6,8.334.2,9.051.082l.3-.05c.758-.125,1.488.083,1.439,1.155l-.495,10.44c-.082,1.119.2,1.483.982,1.5.022.016.044,1.012-1.391,1.252A1.759,1.759,0,0,1,7.6,12.806ZM7.584,9.84l.06-1.5A2.316,2.316,0,0,0,5.006,6.988c-1.833.3-2.521,2.215-2.233,3.97A2.092,2.092,0,0,0,5.2,12.893a3.035,3.035,0,0,0,2.39-3.051Z" transform="translate(129.871 27.588)"/><path class="b" d="M.1,7.16A6.042,6.042,0,0,1,5.222.094c2.472-.4,4.037.524,4.314,2.219.327,1.992-.751,3.4-5.076,4.109-.6.1-1.263.167-2.007.248l.009.06a2.113,2.113,0,0,0,2.732,1.8A3.506,3.506,0,0,0,7.832,6.644c.031-.066,1.22-.057,1.37.86A1.544,1.544,0,0,1,8.86,8.789a4.992,4.992,0,0,1-3.377,1.742C2.3,11.055.492,9.547.1,7.16ZM2.525,4.9c.525-.046.987-.1,1.406-.169C6.641,4.283,7.3,3.54,7.168,2.783c-.085-.518-.708-.948-1.764-.774A3.713,3.713,0,0,0,2.536,4.893Z" transform="translate(141.952 30.21)"/><path class="b" d="M.007,12.006.5,1.649C.548.6.851.2,1.568.081l.3-.049C2.629-.092,3.358.115,3.31,1.188l-.5,10.44c-.041,1.113.2,1.5,1.043,1.486.023.017.023,1.019-1.471,1.266C.573,14.677-.074,13.634.007,12.006Z" transform="translate(153.002 25.019)"/><path class="b" d="M0,13.9.594,1.316a1.26,1.26,0,0,1,.749-.3,1.507,1.507,0,0,1,1.842,1.5A3.8,3.8,0,0,1,6.159.058C8.253-.288,10.232.923,10.671,3.6c.506,3.069-1.02,6.374-4.09,6.874A3.552,3.552,0,0,1,3.027,9.157l-.215,4.294C2.78,14.5,2.456,14.9,1.739,15.02l-.3.049C.69,15.186-.039,14.973,0,13.9ZM3.228,4.385l-.07,1.444A2.226,2.226,0,0,0,5.82,8.319C7.594,8.027,8.288,6.152,8,4.4A2.112,2.112,0,0,0,5.551,2.447,3.209,3.209,0,0,0,3.229,4.38Z" transform="translate(161.265 26.923)"/><path class="b" d="M.007,12.007.5,1.65C.548.6.852.2,1.57.081l.3-.049C2.63-.092,3.36.115,3.312,1.187l-.5,10.44c-.041,1.113.2,1.5,1.043,1.487.024.016.024,1.019-1.471,1.265C.573,14.688-.074,13.646.007,12.007Z" transform="translate(173.63 21.62)"/><path class="b" d="M7.606,8.586A4.133,4.133,0,0,1,4.432,11.2C2.339,11.539.5,10.326.088,7.815-.418,4.706,1.28,1.233,4.409.719a3.467,3.467,0,0,1,3.418,1.24A2,2,0,0,1,9.617.026C10.176-.065,10.653.1,10.67.2l-.356,7.305c-.062,1.113.2,1.482.983,1.5.022.017.044,1.012-1.392,1.252a1.763,1.763,0,0,1-2.3-1.668Zm.023-2.973.057-1.4A2.25,2.25,0,0,0,5.148,2.848c-1.854.3-2.685,2.345-2.394,4.12A1.995,1.995,0,0,0,5.081,8.8,3.251,3.251,0,0,0,7.626,5.611Z" transform="translate(178.429 23.724)"/><path class="b" d="M2.991,2.526A3.969,3.969,0,0,1,6.027.083,2.98,2.98,0,0,1,9.694,2.714a12.108,12.108,0,0,1-.109,2.945,11.8,11.8,0,0,0-.1,2.226c.091.558.387.736.938.726.04-.007.031,1.182-1.5,1.434C7.6,10.261,6.872,9.686,6.7,8.628a10.34,10.34,0,0,1,.086-2.471,9.9,9.9,0,0,0,.1-2.165A1.462,1.462,0,0,0,5.041,2.657a2.541,2.541,0,0,0-2,1.782L2.816,9.552c-.054,1.033-.358,1.43-1.074,1.548l-.3.049C.681,11.273-.047,11.086,0,10.014L.4,1.351a1.246,1.246,0,0,1,.747-.3A1.508,1.508,0,0,1,2.991,2.526Z" transform="translate(190.899 22.045)"/><path class="b" d="M.005,12.429l.45-9.838A1.72,1.72,0,0,1,2.041.771L5.987.122C8.7-.323,10.3.457,10.608,2.331c.262,1.6-.282,2.893-2.2,3.781a2.732,2.732,0,0,1,2.724,2.255c.383,2.332-.77,4.283-4.936,4.967l-4.4.723C.572,14.271-.065,13.735.005,12.429Zm5.767-1.275c1.913-.314,2.586-1.08,2.357-2.475-.145-.877-.944-1.258-2.4-1.018L3.079,8.1l-.158,3.526ZM5.562,5.764C7.1,5.512,7.872,4.626,7.677,3.437c-.164-.874-.91-1.182-2.226-.965l-2.133.35L3.15,6.16Z" transform="translate(206.022 16.509)"/><path class="b" d="M.005,11.776.473,1.668C.542.715.877.232,1.709.094L2.128.025c.816-.135,1.353.268,1.305,1.214L2.98,10.567,7.7,9.791c.8-.132,1.315.132,1.4.671a2.363,2.363,0,0,1-.272,1.457c-.163.252-.426.4-1.084.506l-5.96.979C.572,13.608-.065,13.071.005,11.776Z" transform="translate(218.721 15.086)"/><path class="b" d="M.012,13.253a2.932,2.932,0,0,1,.372-1.72l4.1-10.314C4.731.6,5.084.259,6.24.07,7.576-.15,8,.171,8.185.691l4.026,10.927c.079.232-.644,1.068-1.518,1.214-.758.125-1.288-.238-1.581-1.153L8.4,9.709l-4.7.773L2.33,14.226C2.3,14.295.255,14.689.012,13.253ZM7.876,7.539l-1.6-4.527L4.351,8.119Z" transform="translate(228.891 12.645)"/><path class="b" d="M.141,9.069A7.589,7.589,0,0,1,6.189.153a5.6,5.6,0,0,1,4.338.742,2.6,2.6,0,0,1,1.087,1.5c.252,1.534-1.548,2.034-1.668,1.933a2.972,2.972,0,0,0-3.3-1.545A4.58,4.58,0,0,0,3.135,8.231a3.2,3.2,0,0,0,3.827,2.851A3.757,3.757,0,0,0,9.9,8.9a1.593,1.593,0,0,1,1.688,1.177,2.03,2.03,0,0,1-.476,1.47,6.07,6.07,0,0,1-3.9,2.2C3.46,14.361.708,12.56.141,9.069Z" transform="translate(241.878 10.296)"/><path class="b" d="M6.118,11.678l-2.934-3.3L2.966,13.16c-.048.949-.4,1.437-1.256,1.577l-.419.069c-.8.132-1.335-.272-1.289-1.241L.5,2.9C.548,1.93.9,1.462,1.738,1.324l.419-.069c.817-.135,1.358.289,1.309,1.239L3.256,6.946,8.585.011c.032-.047,1.761,0,1.944,1.113a2.112,2.112,0,0,1-.681,1.709L5.909,7.514l2.773,2.921c.947,1.032,1.416,1.282,2.181,1.2.1-.016.361,1.578-1.532,1.889C8.02,13.742,7.281,13.125,6.118,11.678Z" transform="translate(255.047 7.883)"/><path class="b" d="M.007,12.006.5,1.649C.548.6.851.2,1.569.081l.3-.049c.757-.124,1.486.083,1.439,1.156l-.5,10.439c-.042,1.113.2,1.5,1.043,1.487.022.016.024,1.019-1.472,1.265C.563,14.677-.074,13.634.007,12.006Z" transform="translate(270.6 5.699)"/><path class="b" d="M.007,12.007.5,1.65C.548.6.851.2,1.569.081l.3-.049c.757-.124,1.486.083,1.439,1.155l-.5,10.44c-.041,1.113.2,1.5,1.043,1.487.023.016.023,1.019-1.471,1.265C.573,14.678-.074,13.636.007,12.007Z" transform="translate(275.821 4.835)"/><path class="b" d="M.1,11.9A6.039,6.039,0,0,1,5.221,4.833c2.472-.4,4.037.524,4.315,2.219.327,1.992-.752,3.4-5.077,4.109-.6.1-1.263.166-2.005.248l.009.06a2.116,2.116,0,0,0,2.732,1.8,3.513,3.513,0,0,0,2.637-1.888c.03-.066,1.214-.057,1.369.86a1.548,1.548,0,0,1-.342,1.284,4.994,4.994,0,0,1-3.377,1.742C2.293,15.794.492,14.286.1,11.9ZM2.526,9.635c.525-.046.986-.1,1.4-.169C6.642,9.021,7.3,8.28,7.168,7.521,7.083,7,6.46,6.573,5.4,6.747A3.713,3.713,0,0,0,2.526,9.632ZM5.814.5A2.132,2.132,0,0,1,6.841.021a1.178,1.178,0,0,1,1.391,1,1.778,1.778,0,0,1-.809,1.565C5.939,3.772,3.959,4.055,3.78,3.84,3.629,3.592,4.59,1.477,5.814.5Z" transform="translate(280.522 2.708)"/><path class="b" d="M3.49,9.965,1.782,4.554C1.334,3.072.81,2.749,0,2.82A1.632,1.632,0,0,1,1.52,1.1,1.828,1.828,0,0,1,3,1.408,4.282,4.282,0,0,1,4.333,4.015l.955,3.57L8.1.039C8.115,0,10.046-.219,10.262,1.1A2.541,2.541,0,0,1,9.9,2.632L6.833,9.624A1.989,1.989,0,0,1,5.213,10.75C4.492,10.865,3.713,10.734,3.49,9.965Z" transform="translate(290.295 5.519)"/><path class="b" d="M7.606,8.587A4.136,4.136,0,0,1,4.432,11.2C2.34,11.54.5,10.327.09,7.816-.421,4.706,1.28,1.233,4.409.719a3.466,3.466,0,0,1,3.418,1.24A2,2,0,0,1,9.618.027C10.176-.065,10.654.1,10.671.2l-.355,7.3c-.063,1.113.2,1.483.982,1.5.023.016.043,1.012-1.391,1.252a1.764,1.764,0,0,1-2.3-1.668ZM7.63,5.614l.055-1.4A2.25,2.25,0,0,0,5.147,2.849c-1.854.3-2.684,2.345-2.393,4.119A1.995,1.995,0,0,0,5.081,8.8,3.252,3.252,0,0,0,7.627,5.622Z" transform="translate(301.385 3.519)"/><path class="b" d="M1.457,9.506l.183-4.25-.48.078C.523,5.435.1,5.222.023,4.764a2.043,2.043,0,0,1,.2-1.242,1.276,1.276,0,0,1,.929-.439l.579-.1.028-.578C1.8.927,2.285.235,3.521.031c.6-.1,1.1.065,1.092.169L4.5,2.528l1.635-.268c.678-.111,1.107.125,1.179.564a1.913,1.913,0,0,1-.225,1.245,1.232,1.232,0,0,1-.91.437l-1.814.3-.2,4.127c-.065,1.214.415,1.651,1.192,1.523A1.866,1.866,0,0,0,6.47,9.764c.07-.073.506.184.6.781a1.516,1.516,0,0,1-.3,1.175A2.88,2.88,0,0,1,4.8,12.737C2.581,13.108,1.336,11.934,1.457,9.506Z" transform="translate(313.168 0)"/><path class="b" d="M.1,7.159A6.039,6.039,0,0,1,5.221.094c2.472-.4,4.037.524,4.315,2.219.327,1.992-.752,3.4-5.077,4.109-.6.1-1.263.167-2.005.248l.009.06a2.115,2.115,0,0,0,2.732,1.8A3.511,3.511,0,0,0,7.833,6.645c.031-.065,1.22-.057,1.37.861A1.543,1.543,0,0,1,8.861,8.79a4.987,4.987,0,0,1-3.377,1.742C2.293,11.055.492,9.547.1,7.159ZM2.526,4.9c.525-.046.986-.1,1.405-.169C6.641,4.283,7.3,3.541,7.169,2.783c-.085-.518-.708-.948-1.764-.774A3.713,3.713,0,0,0,2.536,4.893Z" transform="translate(321.199 0.762)"/></g><g transform="translate(2770.081 -5214.235) rotate(9)"><path class="a" d="M0,12.834l.482-10.4A1.72,1.72,0,0,1,2.069.616L5.04.128c3.089-.506,5.014.487,5.413,2.919.495,3.009-1.032,5.308-4.9,5.943L3.1,9.4l-.136,3.035c-.052.93-.4,1.436-1.256,1.578l-.418.068C.5,14.21-.038,13.785,0,12.834ZM5.429,6.743A2.364,2.364,0,0,0,7.611,3.825c-.179-1.1-1-1.6-2.494-1.352l-1.754.289L3.176,7.113Z" transform="translate(0 50.504)"/><path class="a" d="M.116,6.77A5.586,5.586,0,0,1,4.674.126a4.391,4.391,0,0,1,5.4,3.7,5.586,5.586,0,0,1-4.559,6.644,4.391,4.391,0,0,1-5.4-3.7ZM7.64,4.347a2.339,2.339,0,0,0-2.7-2.075,3.318,3.318,0,0,0-2.393,4,2.333,2.333,0,0,0,2.69,2.055,3.311,3.311,0,0,0,2.4-3.971Z" transform="translate(11.132 51.751)"/><path class="a" d="M2.981,2.375A3.008,3.008,0,0,1,5.308.068a1.557,1.557,0,0,1,1.96,1.091A1.8,1.8,0,0,1,6.3,3.139a1.759,1.759,0,0,0-1.45-.355c-1.257.2-1.821,1.733-1.922,3.858L2.816,9.424c-.056,1.032-.358,1.43-1.076,1.548l-.3.049C.679,11.145-.047,10.957,0,9.885L.4,1.222a1.263,1.263,0,0,1,.749-.3A1.5,1.5,0,0,1,2.981,2.375Z" transform="translate(22.665 49.816)"/><path class="a" d="M.007,12.006.5,1.649C.548.6.851.2,1.57.081l.3-.049C2.631-.093,3.36.115,3.311,1.188l-.495,10.44c-.042,1.113.2,1.5,1.042,1.487.024.016.025,1.019-1.47,1.265C.573,14.677-.074,13.635.007,12.006Z" transform="translate(34.448 44.489)"/><path class="a" d="M7.606,8.587A4.135,4.135,0,0,1,4.432,11.2C2.339,11.54.5,10.327.09,7.815-.421,4.706,1.28,1.233,4.41.719A3.465,3.465,0,0,1,7.827,1.958,2,2,0,0,1,9.618.027C10.176-.065,10.654.1,10.671.2l-.356,7.305c-.062,1.113.2,1.483.983,1.5.023.016.043,1.012-1.391,1.252a1.763,1.763,0,0,1-2.3-1.668ZM7.63,5.615l.056-1.4A2.25,2.25,0,0,0,5.147,2.85c-1.854.3-2.684,2.344-2.394,4.119A1.994,1.994,0,0,0,5.081,8.8,3.252,3.252,0,0,0,7.626,5.622Z" transform="translate(39.246 46.582)"/><path class="a" d="M.086,6.778A5.767,5.767,0,0,1,4.7.123,4.749,4.749,0,0,1,8.371.77a2.314,2.314,0,0,1,1,1.454A1.451,1.451,0,0,1,7.794,3.855a2.233,2.233,0,0,0-2.66-1.487A3.2,3.2,0,0,0,2.64,6.135,2.327,2.327,0,0,0,5.492,8.164,2.723,2.723,0,0,0,7.639,6.4a1.286,1.286,0,0,1,1.5.92,1.877,1.877,0,0,1-.446,1.4,4.684,4.684,0,0,1-3.071,1.733C2.808,10.916.551,9.611.086,6.778Z" transform="translate(54.718 44.586)"/><path class="a" d="M.116,6.77A5.587,5.587,0,0,1,4.669.125a4.394,4.394,0,0,1,5.4,3.7,5.587,5.587,0,0,1-4.559,6.645A4.392,4.392,0,0,1,.116,6.77ZM7.64,4.341a2.34,2.34,0,0,0-2.7-2.075,3.319,3.319,0,0,0-2.393,4A2.333,2.333,0,0,0,5.243,8.318a3.312,3.312,0,0,0,2.4-3.977Z" transform="translate(64.97 42.91)"/><path class="a" d="M12.9,8.616a9.393,9.393,0,0,1,.085-2.471,10.859,10.859,0,0,0,.074-2.161,1.437,1.437,0,0,0-1.7-1.359,2.414,2.414,0,0,0-1.88,1.639L9.242,9.5c-.053,1.052-.419,1.439-1.137,1.557l-.3.049c-.738.121-1.424-.072-1.376-1.145l.2-4.291c.063-1.361-.642-2.166-1.68-2A2.437,2.437,0,0,0,3.059,5.3l-.241,5.261C2.769,11.63,2.4,12,1.682,12.115l-.3.05C.621,12.289-.046,12.092,0,11.02L.4,2.358a1.255,1.255,0,0,1,.747-.3,1.5,1.5,0,0,1,1.822,1.4A3.919,3.919,0,0,1,5.921,1.106,2.808,2.808,0,0,1,9.1,2.754a4.212,4.212,0,0,1,3.238-2.7,2.988,2.988,0,0,1,3.529,2.655,12.915,12.915,0,0,1-.091,2.942,10.691,10.691,0,0,0-.125,2.231c.091.558.4.73.938.725.06-.01.03,1.182-1.5,1.434A1.661,1.661,0,0,1,12.9,8.616Z" transform="translate(76.484 39.838)"/><path class="a" d="M0,13.9.6,1.316a1.249,1.249,0,0,1,.748-.3,1.509,1.509,0,0,1,1.843,1.5A3.8,3.8,0,0,1,6.161.058C8.254-.288,10.234.923,10.671,3.6c.506,3.07-1.02,6.374-4.089,6.874A3.55,3.55,0,0,1,3.029,9.157l-.217,4.294C2.779,14.5,2.457,14.9,1.738,15.02l-.3.049C.68,15.186-.048,14.973,0,13.9ZM3.229,4.384,3.158,5.829A2.226,2.226,0,0,0,5.82,8.319C7.595,8.027,8.289,6.152,8,4.4a2.112,2.112,0,0,0-2.45-1.951A3.212,3.212,0,0,0,3.23,4.39Z" transform="translate(94.079 37.951)"/><path class="a" d="M2.981,2.374A3.008,3.008,0,0,1,5.308.068,1.557,1.557,0,0,1,7.269,1.159,1.806,1.806,0,0,1,6.305,3.14a1.755,1.755,0,0,0-1.45-.356c-1.255.2-1.821,1.733-1.922,3.858L2.816,9.424c-.056,1.033-.358,1.431-1.075,1.548l-.3.049C.68,11.145-.047,10.958,0,9.885L.4,1.224a1.241,1.241,0,0,1,.748-.3A1.5,1.5,0,0,1,2.981,2.374Z" transform="translate(106.292 36.074)"/><path class="a" d="M7.606,8.587A4.135,4.135,0,0,1,4.432,11.2C2.338,11.54.5,10.327.088,7.816c-.506-3.109,1.191-6.583,4.32-7.1A3.468,3.468,0,0,1,7.826,1.959,2,2,0,0,1,9.617.026C10.176-.065,10.653.1,10.67.2l-.355,7.3c-.063,1.113.2,1.482.982,1.5.024.017.045,1.012-1.391,1.253a1.764,1.764,0,0,1-2.3-1.668Zm.022-2.972.057-1.4A2.248,2.248,0,0,0,5.147,2.85c-1.855.3-2.684,2.345-2.394,4.119A1.993,1.993,0,0,0,5.08,8.8,3.25,3.25,0,0,0,7.626,5.623Z" transform="translate(114.265 34.256)"/><path class="a" d="M7.6,12.806a3.777,3.777,0,0,1-2.992,2.477C2.516,15.626.533,14.4.094,11.726c-.5-3.051,1.024-6.35,4.094-6.855A3.774,3.774,0,0,1,7.764,6.085l.213-4.436C8.01.6,8.334.2,9.051.081l.3-.049c.758-.124,1.487.083,1.439,1.156l-.5,10.439c-.082,1.119.2,1.482.982,1.5.022.017.044,1.012-1.391,1.252A1.758,1.758,0,0,1,7.6,12.806ZM7.582,9.841l.06-1.5A2.317,2.317,0,0,0,5,6.988c-1.833.3-2.521,2.216-2.233,3.97A2.092,2.092,0,0,0,5.2,12.893,3.035,3.035,0,0,0,7.59,9.842Z" transform="translate(129.872 27.575)"/><path class="a" d="M.1,7.159A6.041,6.041,0,0,1,5.222.094c2.472-.4,4.037.525,4.314,2.219.327,1.993-.751,3.4-5.076,4.11-.6.1-1.264.167-2.006.248l.009.06a2.114,2.114,0,0,0,2.732,1.8A3.509,3.509,0,0,0,7.832,6.646c.031-.066,1.219-.057,1.37.86a1.546,1.546,0,0,1-.343,1.285,4.989,4.989,0,0,1-3.377,1.743C2.3,11.065.492,9.557.1,7.159ZM2.526,4.9c.525-.046.986-.1,1.4-.169C6.641,4.283,7.3,3.54,7.173,2.782c-.085-.518-.708-.948-1.764-.774A3.715,3.715,0,0,0,2.536,4.9Z" transform="translate(141.951 30.197)"/><path class="a" d="M.007,12.007.5,1.65C.547.6.85.2,1.568.082l.3-.05C2.629-.092,3.358.115,3.31,1.187l-.5,10.44c-.042,1.113.2,1.5,1.043,1.487.023.017.023,1.019-1.471,1.265C.573,14.678-.074,13.635.007,12.007Z" transform="translate(153.001 25.005)"/><path class="a" d="M0,13.9.595,1.316a1.255,1.255,0,0,1,.748-.3,1.508,1.508,0,0,1,1.842,1.5A3.808,3.808,0,0,1,6.159.057C8.253-.287,10.232.924,10.671,3.6c.506,3.069-1.02,6.374-4.09,6.874A3.552,3.552,0,0,1,3.027,9.157L2.81,13.451C2.778,14.5,2.455,14.9,1.738,15.02l-.3.049C.69,15.174-.039,14.972,0,13.9ZM3.228,4.383l-.07,1.445A2.226,2.226,0,0,0,5.821,8.317C7.594,8.025,8.288,6.15,8,4.4a2.113,2.113,0,0,0-2.45-1.952A3.211,3.211,0,0,0,3.229,4.379Z" transform="translate(161.262 26.921)"/><path class="a" d="M.007,12.006.5,1.65C.547.6.851.2,1.569.082l.3-.05c.757-.124,1.486.084,1.439,1.156l-.5,10.44c-.042,1.113.2,1.5,1.043,1.487.024.016.024,1.019-1.471,1.266C.573,14.678-.074,13.635.007,12.006Z" transform="translate(173.629 21.618)"/><path class="a" d="M7.6,8.587A4.133,4.133,0,0,1,4.431,11.2C2.338,11.54.5,10.327.088,7.815-.418,4.707,1.28,1.233,4.409.719A3.466,3.466,0,0,1,7.826,1.959,2,2,0,0,1,9.618.026C10.176-.065,10.654.1,10.67.2l-.355,7.305c-.063,1.113.2,1.482.983,1.5.022.017.044,1.012-1.392,1.253A1.763,1.763,0,0,1,7.6,8.587Zm.023-2.972.056-1.4A2.25,2.25,0,0,0,5.146,2.85c-1.854.3-2.685,2.345-2.394,4.119A1.993,1.993,0,0,0,5.079,8.8,3.252,3.252,0,0,0,7.625,5.612Z" transform="translate(178.429 23.721)"/><path class="a" d="M2.99,2.527A3.967,3.967,0,0,1,6.025.083,2.981,2.981,0,0,1,9.692,2.714a12.072,12.072,0,0,1-.108,2.945,11.732,11.732,0,0,0-.1,2.226c.091.558.386.735.938.725.04-.006.03,1.182-1.5,1.434C7.6,10.26,6.871,9.685,6.7,8.627a10.35,10.35,0,0,1,.085-2.471,9.864,9.864,0,0,0,.1-2.166A1.463,1.463,0,0,0,5.041,2.655a2.542,2.542,0,0,0-2,1.782L2.816,9.551c-.055,1.033-.358,1.43-1.075,1.548l-.3.049C.681,11.272-.047,11.085,0,10.013L.4,1.35a1.26,1.26,0,0,1,.748-.3A1.509,1.509,0,0,1,2.99,2.528Z" transform="translate(190.899 22.041)"/><path class="a" d="M.005,12.43l.45-9.837A1.72,1.72,0,0,1,2.041.771L5.987.122C8.7-.323,10.3.457,10.607,2.331c.262,1.595-.282,2.893-2.2,3.78a2.738,2.738,0,0,1,2.725,2.255c.384,2.333-.77,4.283-4.936,4.967l-4.4.724C.572,14.261-.066,13.735.005,12.43Zm5.767-1.275c1.914-.315,2.586-1.081,2.358-2.476-.145-.876-.944-1.257-2.4-1.017L3.08,8.1l-.159,3.526Zm-.21-5.391C7.1,5.511,7.872,4.627,7.676,3.431c-.163-.874-.911-1.182-2.226-.965l-2.133.35L3.149,6.154Z" transform="translate(206.021 16.506)"/><path class="a" d="M.005,11.777.473,1.669C.542.716.877.233,1.709.094L2.128.025c.817-.135,1.353.269,1.305,1.214L2.98,10.567,7.7,9.791c.8-.13,1.315.132,1.4.67a2.363,2.363,0,0,1-.272,1.458c-.163.251-.426.4-1.084.506L1.788,13.4C.572,13.609-.066,13.082.005,11.777Z" transform="translate(218.72 15.073)"/><path class="a" d="M.012,13.253a2.932,2.932,0,0,1,.372-1.72l4.1-10.314C4.731.6,5.084.26,6.24.07,7.575-.15,8,.171,8.185.691l4.026,10.927c.079.232-.644,1.068-1.518,1.214-.758.124-1.288-.239-1.581-1.153L8.4,9.708l-4.7.773L2.33,14.225C2.3,14.285.255,14.689.012,13.253ZM7.876,7.54l-1.6-4.527L4.351,8.12Z" transform="translate(228.89 12.643)"/><path class="a" d="M.142,9.069A7.588,7.588,0,0,1,6.189.153a5.608,5.608,0,0,1,4.338.742,2.6,2.6,0,0,1,1.087,1.5c.252,1.535-1.548,2.035-1.668,1.933a2.972,2.972,0,0,0-3.3-1.545A4.58,4.58,0,0,0,3.135,8.231a3.2,3.2,0,0,0,3.827,2.851A3.758,3.758,0,0,0,9.9,8.9a1.594,1.594,0,0,1,1.689,1.177,2.023,2.023,0,0,1-.475,1.47,6.072,6.072,0,0,1-3.9,2.2C3.46,14.35.708,12.559.142,9.069Z" transform="translate(241.877 10.294)"/><path class="a" d="M6.117,11.68l-2.934-3.3-.218,4.786c-.048.949-.4,1.436-1.255,1.577l-.419.069c-.8.13-1.335-.272-1.289-1.242L.5,2.9C.548,1.93.9,1.463,1.738,1.325l.419-.069c.818-.134,1.359.29,1.309,1.239L3.256,6.947,8.586.011c.032-.046,1.76,0,1.943,1.113a2.108,2.108,0,0,1-.681,1.709L5.908,7.513l2.773,2.922c.947,1.031,1.417,1.281,2.182,1.2.1-.016.361,1.578-1.532,1.889C8.019,13.744,7.28,13.127,6.117,11.68Z" transform="translate(255.047 7.869)"/><path class="a" d="M.007,12.007.5,1.65C.547.6.85.2,1.568.082l.3-.05C2.628-.092,3.358.115,3.31,1.188l-.5,10.44c-.042,1.113.2,1.5,1.043,1.487.022.016.024,1.019-1.472,1.265C.573,14.678-.074,13.636.007,12.007Z" transform="translate(270.599 5.685)"/><path class="a" d="M.007,12.006.5,1.649C.548.6.851.2,1.569.081l.3-.049c.757-.124,1.486.083,1.439,1.155l-.5,10.441c-.042,1.113.2,1.5,1.043,1.486.023.017.023,1.019-1.471,1.266C.563,14.677-.074,13.635.007,12.006Z" transform="translate(275.82 4.833)"/><path class="a" d="M.1,11.9A6.04,6.04,0,0,1,5.221,4.833c2.472-.4,4.037.525,4.315,2.219.327,1.993-.752,3.4-5.077,4.109-.6.1-1.263.167-2.005.248l.009.06a2.116,2.116,0,0,0,2.732,1.8,3.511,3.511,0,0,0,2.637-1.887c.031-.066,1.214-.057,1.369.86a1.548,1.548,0,0,1-.342,1.285A4.991,4.991,0,0,1,5.482,15.27C2.293,15.794.492,14.286.1,11.9ZM2.526,9.636c.525-.046.986-.1,1.4-.169C6.641,9.021,7.3,8.279,7.167,7.521,7.083,7,6.459,6.573,5.4,6.747A3.713,3.713,0,0,0,2.526,9.642ZM5.814.5A2.112,2.112,0,0,1,6.841.022a1.176,1.176,0,0,1,1.391,1,1.776,1.776,0,0,1-.809,1.566C5.938,3.772,3.959,4.056,3.78,3.839,3.629,3.6,4.59,1.477,5.814.5Z" transform="translate(280.521 2.696)"/><path class="a" d="M3.49,9.966,1.782,4.554C1.334,3.073.81,2.749,0,2.821A1.632,1.632,0,0,1,1.52,1.1,1.821,1.821,0,0,1,3,1.409,4.276,4.276,0,0,1,4.333,4.016l.955,3.57L8.1.039C8.115,0,10.046-.219,10.262,1.1A2.542,2.542,0,0,1,9.9,2.631L6.832,9.624a1.989,1.989,0,0,1-1.619,1.125C4.492,10.866,3.713,10.725,3.49,9.966Z" transform="translate(290.293 5.515)"/><path class="a" d="M7.606,8.586A4.131,4.131,0,0,1,4.432,11.2C2.339,11.54.5,10.327.09,7.815-.421,4.707,1.28,1.233,4.41.719A3.465,3.465,0,0,1,7.827,1.959,2,2,0,0,1,9.618.026C10.176-.065,10.654.1,10.671.2l-.356,7.305c-.062,1.113.2,1.482.982,1.5.023.017.043,1.012-1.391,1.252a1.764,1.764,0,0,1-2.3-1.668Zm.023-2.972.057-1.4A2.25,2.25,0,0,0,5.148,2.849c-1.854.3-2.685,2.344-2.394,4.119A1.994,1.994,0,0,0,5.081,8.8,3.251,3.251,0,0,0,7.627,5.611Z" transform="translate(301.384 3.518)"/><path class="a" d="M1.457,9.5l.183-4.25-.479.079C.523,5.434.1,5.221.023,4.762a2.039,2.039,0,0,1,.2-1.241,1.279,1.279,0,0,1,.929-.439l.58-.095.028-.578C1.805.928,2.286.235,3.521.031c.6-.1,1.1.066,1.092.169L4.5,2.527l1.635-.269c.677-.111,1.106.125,1.179.564a1.912,1.912,0,0,1-.226,1.244,1.227,1.227,0,0,1-.91.437l-1.814.3-.2,4.127c-.065,1.214.415,1.651,1.192,1.523A1.866,1.866,0,0,0,6.47,9.757c.07-.073.506.183.6.78a1.516,1.516,0,0,1-.3,1.176A2.888,2.888,0,0,1,4.8,12.73C2.581,13.1,1.336,11.932,1.457,9.5Z" transform="translate(313.167 0)"/><path class="a" d="M.1,7.159A6.039,6.039,0,0,1,5.221.094c2.472-.4,4.037.524,4.315,2.219.327,1.993-.751,3.4-5.077,4.11-.6.1-1.263.167-2.006.248l.009.06a2.114,2.114,0,0,0,2.732,1.8A3.508,3.508,0,0,0,7.833,6.647c.03-.066,1.219-.057,1.37.86a1.543,1.543,0,0,1-.343,1.284,5,5,0,0,1-3.377,1.742C2.293,11.054.492,9.556.1,7.159ZM2.526,4.9c.525-.045.986-.1,1.4-.169C6.642,4.281,7.3,3.538,7.168,2.78c-.085-.518-.708-.948-1.764-.774A3.713,3.713,0,0,0,2.536,4.892Z" transform="translate(321.198 0.751)"/></g><g transform="translate(2708.425 -5147.294) rotate(9)"><g transform="translate(152.57 20.906)"><path class="b" d="M66.571,0V121.483l-37.2,9.788L28.4,62.764c-.144-9.666-.523-15.474-1.136-17.376s-2.251-3.213-4.914-3.92-8.632-.526-17.941.558l-4.02.469L0,27.419C19.516,21.964,34.021,13.567,43.785,2.182Z" transform="translate(0 0)"/><g transform="translate(60.636 0)"><path class="b" d="M5.933,0l6.008,3.44L5.934,9.273,0,6.823Z"/></g><g transform="translate(29.365 126.958)"><path class="b" d="M0,4.312l6.007,3.44L8.663,3.2,7.063,0H5.406Z"/></g><g transform="translate(0.384 38.582)"><path class="b" d="M0,3.92,6.007,7.36,8.461,3.92,6.7,0H5Z" transform="translate(0 0)"/></g></g><g transform="translate(0 52.202)"><path class="b" d="M68.791,33.331l-23.6,8.645L39.768,38l.066-8.723q.047-6.107-1.052-7.6t-3.7-1.075A5.827,5.827,0,0,0,30.8,23.547a14.257,14.257,0,0,0-1.505,7.07q-.05,5.892,1.554,8.612Q32.385,41.961,39.634,45q20.805,8.772,26.2,15.683t5.323,24.207q-.044,12.577-3.087,19.022T56.35,115.779a53.687,53.687,0,0,1-20.184,7.259q-12.631,2.024-21.529-1.206t-11.6-9.976Q.336,105.1.455,91.871l.071-7.707,29.139-4.67,5.421,3.975L29.564,93.815q-.044,6.616,1.175,8.308t4.351,1.193a6.3,6.3,0,0,0,4.678-3.147A14.9,14.9,0,0,0,41.338,92.8q.064-10.394-2.823-13.128-2.959-2.72-14.593-8.333Q12.3,65.656,8.533,62.847a20.228,20.228,0,0,1-6.2-8.442Q-.092,48.771,0,39.395.147,25.872,3.738,19.058A30.275,30.275,0,0,1,15.222,7.448a52.307,52.307,0,0,1,19-6.583q12.141-1.958,20.667.515T66.153,9.258q2.744,5.405,2.665,19.433Z" transform="translate(0 0)"/></g><g transform="translate(72.507 37.635)"><path class="b" d="M58.574,0,64,3.975,22.834,127.919,5.421,135.548,0,131.572,36.191,3.619Z"/></g><g transform="translate(235.98 14.413)"><path class="b" d="M70.389,37l.5,39.257q.177,13.376-1.221,19.724a31.9,31.9,0,0,1-6,12.4,32.753,32.753,0,0,1-11.182,9.449,48.987,48.987,0,0,1-14.752,4.7q-10.774,1.731-17.934.442A20.3,20.3,0,0,1,8.352,117.21a26.579,26.579,0,0,1-6.112-9.9Q.409,101.89.308,89.458L0,48.387q-.11-16.209,2.68-24.739T13.878,8.881A46.005,46.005,0,0,1,34.281.7a41.234,41.234,0,0,1,17.555.537Q59.6,3.358,63.482,7.608A22.726,22.726,0,0,1,68.8,17.739Q70.227,23.622,70.389,37ZM40.466,31.939q-.09-9.378-1.035-11.589T35.1,18.686A5.159,5.159,0,0,0,30.733,21.9q-1.048,2.681-.969,11.768L30.319,91.1q.107,10.249,1.132,12.2t4.363,1.409a5.094,5.094,0,0,0,4.351-3.176q1.012-2.638.91-11.288Z" transform="translate(0 0)"/></g><g transform="translate(5.421 56.18)"><path class="a" d="M68.8,33.335,39.775,38l.066-8.723q.048-6.106-1.052-7.6t-3.7-1.075a5.833,5.833,0,0,0-4.284,2.942,14.29,14.29,0,0,0-1.5,7.07q-.051,5.892,1.553,8.612,1.536,2.732,8.781,5.774,20.806,8.771,26.2,15.678t5.323,24.207q-.046,12.578-3.086,19.022T56.355,115.78a53.671,53.671,0,0,1-20.184,7.259q-12.629,2.023-21.528-1.207t-11.6-9.976Q.341,105.1.46,91.871l.07-7.707,29.139-4.669-.1,14.321q-.044,6.617,1.174,8.308t4.35,1.192a6.292,6.292,0,0,0,4.676-3.147A14.879,14.879,0,0,0,41.339,92.8q.063-10.394-2.823-13.128-2.96-2.721-14.593-8.333Q12.3,65.656,8.534,62.848a20.215,20.215,0,0,1-6.2-8.442Q-.091,48.774,0,39.4.147,25.875,3.738,19.059A30.251,30.251,0,0,1,15.222,7.449a52.324,52.324,0,0,1,19-6.583q12.141-1.959,20.667.516T66.154,9.258Q68.9,14.663,68.819,28.69Z" transform="translate(0 0)"/></g><g transform="translate(77.933 41.616)"><path class="a" d="M58.574,0,22.834,127.917,0,131.57,36.189,3.617Z" transform="translate(0 0)"/></g><g transform="translate(241.393 18.386)"><path class="a" d="M70.393,37l.495,39.257q.178,13.376-1.221,19.724a31.928,31.928,0,0,1-6,12.4,32.753,32.753,0,0,1-11.183,9.448,49.011,49.011,0,0,1-14.752,4.7q-10.774,1.731-17.934.442a20.3,20.3,0,0,1-11.444-5.767,26.548,26.548,0,0,1-6.112-9.9Q.41,101.89.308,89.458L0,48.387q-.11-16.209,2.678-24.739T13.876,8.881A46,46,0,0,1,34.28.7a41.226,41.226,0,0,1,17.554.537Q59.6,3.358,63.48,7.608A22.734,22.734,0,0,1,68.8,17.742Q70.231,23.632,70.393,37ZM40.47,31.939q-.09-9.378-1.034-11.589T35.1,18.686A5.16,5.16,0,0,0,30.737,21.9q-1.048,2.68-.968,11.767L30.323,91.1q.107,10.25,1.132,12.2t4.364,1.409a5.09,5.09,0,0,0,4.351-3.176q1.011-2.638.91-11.288Z" transform="translate(0 0)"/></g><g transform="translate(316.891 0)"><path class="b" d="M70.39,37l.5,39.257q.176,13.376-1.221,19.724a31.91,31.91,0,0,1-6,12.4,32.759,32.759,0,0,1-11.183,9.448,48.961,48.961,0,0,1-14.751,4.7q-10.774,1.732-17.934.442A20.3,20.3,0,0,1,8.352,117.21a26.559,26.559,0,0,1-6.112-9.9Q.41,101.89.308,89.459L0,48.387q-.11-16.209,2.679-24.739T13.878,8.881A46,46,0,0,1,34.281.7a41.247,41.247,0,0,1,17.556.537Q59.6,3.358,63.483,7.607A22.738,22.738,0,0,1,68.8,17.738Q70.229,23.623,70.39,37ZM40.468,31.94q-.091-9.377-1.035-11.588T35.1,18.687A5.16,5.16,0,0,0,30.732,21.9q-1.047,2.681-.967,11.768L30.32,91.1q.106,10.25,1.131,12.2t4.364,1.408a5.091,5.091,0,0,0,4.351-3.176q1.012-2.639.911-11.288Z" transform="translate(0)"/></g><g transform="translate(322.308 3.971)"><path class="a" d="M70.39,37l.5,39.257q.177,13.376-1.221,19.723a31.916,31.916,0,0,1-6,12.4,32.758,32.758,0,0,1-11.182,9.449,48.99,48.99,0,0,1-14.752,4.7q-10.775,1.731-17.934.442A20.308,20.308,0,0,1,8.352,117.21a26.563,26.563,0,0,1-6.113-9.9Q.409,101.889.308,89.459L0,48.386q-.11-16.208,2.679-24.739T13.877,8.88A46.005,46.005,0,0,1,34.282.7a41.223,41.223,0,0,1,17.553.537Q59.6,3.358,63.482,7.608A22.749,22.749,0,0,1,68.8,17.742Q70.228,23.623,70.39,37ZM40.467,31.94q-.09-9.377-1.034-11.589T35.1,18.685A5.16,5.16,0,0,0,30.733,21.9q-1.045,2.681-.968,11.768L30.32,91.1q.106,10.249,1.131,12.2t4.364,1.409a5.1,5.1,0,0,0,4.351-3.176q1.011-2.639.91-11.289Z" transform="translate(0 0)"/></g><g transform="translate(158.581 25.294)"><path class="a" d="M66.571,0V123.883l-37.314,6.436L28.4,62.764c-.144-9.665-.523-15.473-1.136-17.376s-2.251-3.213-4.914-3.919-8.631-.526-17.941.558l-4.02.468L0,27.419C19.515,21.963,34.021,13.568,43.784,2.183Z" transform="translate(0 0)"/></g></g><g transform="translate(2799.836 -5188.373) rotate(9)"><g transform="translate(0 2.919)"><g transform="translate(0 45.501)"><path class="b" d="M19.6,1.391A12.006,12.006,0,0,1,18.574,3.9a.878.878,0,0,1-.642.5.763.763,0,0,1-.4-.062,14.346,14.346,0,0,0-5.422-.2C9.872,4.52,5.03,5.565,4.718,14.029c-.254,6.946,4.53,7.55,6.771,7.17a7.38,7.38,0,0,0,3.662-1.531l.178-4.863-2.957.506a.714.714,0,0,1-.882-.491.7.7,0,0,1-.024-.26l.078-2.171a1.22,1.22,0,0,1,1.02-1.078l6.585-1.126a.743.743,0,0,1,.922.506.723.723,0,0,1,.03.241l-.427,11.721a1.22,1.22,0,0,1-1.019,1.082l-.94.158a1.43,1.43,0,0,1-1.189-.358l-.474-.436a12,12,0,0,1-5.11,2.167c-6,1.03-11.261-1.138-10.927-10.428C.388,4.547,5.855,1.241,11.853.218A15.6,15.6,0,0,1,19.089.7.784.784,0,0,1,19.6,1.391Z" transform="translate(0 0)"/></g><g transform="translate(21.95 49.362)"><path class="b" d="M4.707,17.6a1.168,1.168,0,0,1-.974,1.075l-2.822.481a.708.708,0,0,1-.883-.49A.722.722,0,0,1,0,18.4L.531,3.991c.01-.3.284-.567.607-.884C3.074,1.266,5.995.552,8.145.184a8.259,8.259,0,0,1,4.532.3.791.791,0,0,1,.595.809,12.264,12.264,0,0,1-.886,2.349,1.187,1.187,0,0,1-.783.741,2.14,2.14,0,0,1-.532-.039,6.493,6.493,0,0,0-2.888-.2c-.9.153-2.779.562-3.048,1.815Z" transform="translate(0 0)"/></g><g transform="translate(33.854 46.962)"><path class="b" d="M12.7,17.5a.917.917,0,0,1-.967-.353l-.64-.753a7.168,7.168,0,0,1-4.131,2.3c-4.7.809-7.147-1.713-6.946-7.225A11.291,11.291,0,0,1,9.769.271,18.511,18.511,0,0,1,15.957.25a.657.657,0,0,1,.374.668l-.551,15.146a1.169,1.169,0,0,1-.974,1.073ZM11.546,3.934c-5.33.911-6.7,3.173-6.837,6.779-.137,3.735,1.676,4.114,3.556,3.793a5.712,5.712,0,0,0,2.968-1.973Z" transform="translate(0 0)"/></g><g transform="translate(51.064 37.878)"><path class="b" d="M4.5,1.445A1.309,1.309,0,0,1,5.52.365L7.491.027A.716.716,0,0,1,8.375.52.737.737,0,0,1,8.4.778L8.172,6.943l4.663-.8a.713.713,0,0,1,.907.751l-.08,2.171a1.168,1.168,0,0,1-.973,1.073l-4.654.792-.2,5.427c-.053,1.518-.07,4.37,3.154,3.818.672-.114,1.214-.423,1.892-.537a.685.685,0,0,1,.786.428l.541,2.237a.99.99,0,0,1-.476.857,13.4,13.4,0,0,1-3.6,1.132C4.215,25.308,2.96,21.855,3.17,16.123l.16-4.383-2.418.412A.715.715,0,0,1,0,11.4L.083,9.23a1.169,1.169,0,0,1,.973-1.072l2.419-.414Z" transform="translate(0 0)"/></g><g transform="translate(66.199 36.912)"><path class="b" d="M.58,7.53a1.169,1.169,0,0,1,.976-1.072l2.821-.482a.711.711,0,0,1,.908.75L4.706,22.482a1.169,1.169,0,0,1-.973,1.074l-2.822.483a.715.715,0,0,1-.883-.492A.726.726,0,0,1,0,23.287ZM.57,2.959a1.934,1.934,0,0,0,2.415,2A3.245,3.245,0,0,0,5.628,2.094,1.994,1.994,0,0,0,3.165.056a3.238,3.238,0,0,0-2.6,2.9Z" transform="translate(0 0)"/></g><g transform="translate(73.071 40.58)"><path class="b" d="M1.771,14.61A19.228,19.228,0,0,0,6.5,14.494c.985-.169,3.448-.59,3.5-1.979C10.111,9.3-.268,14.355.005,6.888.113,4.022,2.13,1.261,7.9.275A29.046,29.046,0,0,1,12.72.012a.762.762,0,0,1,.773.751V.786c-.01.26-.078.878-.3,2.341a.994.994,0,0,1-.867.669c-1.113.061-2.766.169-3.126.23-2.732.469-4.4.882-4.436,2.011-.11,3.035,10.252-1.578,9.991,5.54-.131,3.559-3.158,6.019-8.3,6.9a17.114,17.114,0,0,1-5.786,0c-.3-.077-.615-.24-.6-.631a23.808,23.808,0,0,1,.72-2.668.849.849,0,0,1,.734-.557Z" transform="translate(0 0)"/></g><g transform="translate(94.727 35.874)"><path class="b" d="M6.692,19.219a1.473,1.473,0,0,1-1.613-.934L0,3.8A1.168,1.168,0,0,1,.974,2.723L3.8,2.242a.9.9,0,0,1,1.08.686l.007.032L8.425,13.312l4.344-11.7a1.519,1.519,0,0,1,1.153-1.1L16.745.028a.713.713,0,0,1,.908.75L11.443,17.2a2.448,2.448,0,0,1-1.7,1.5Z" transform="translate(0 0)"/></g><g transform="translate(111.646 33.664)"><path class="b" d="M12.7,17.5a.917.917,0,0,1-.967-.352l-.639-.753a7.173,7.173,0,0,1-4.136,2.3c-4.7.8-7.148-1.712-6.945-7.224A11.29,11.29,0,0,1,9.774.271,18.551,18.551,0,0,1,15.962.249a.658.658,0,0,1,.373.669l-.554,15.151a1.169,1.169,0,0,1-.975,1.074ZM11.548,3.935c-5.33.91-6.7,3.174-6.836,6.779-.135,3.735,1.675,4.115,3.556,3.792a5.707,5.707,0,0,0,2.969-1.972Z" transform="translate(0 0)"/></g><g transform="translate(130.029 24.89)"><path class="b" d="M4.761,19.4a1.8,1.8,0,0,0,1,1.857.467.467,0,0,1,.3.468L5.994,23.5a1.159,1.159,0,0,1-.745.862,8.8,8.8,0,0,1-2.383.666C0,25.522-.04,22.983.01,21.639L.742,1.583A1.17,1.17,0,0,1,1.717.511L4.539.028a.714.714,0,0,1,.883.49.725.725,0,0,1,.024.261Z" transform="translate(0 0)"/></g><g transform="translate(137.47 29.511)"><path class="b" d="M14.148,12.211a.506.506,0,0,1,.613.284l.661,1.4a.807.807,0,0,1,.072.462,1.543,1.543,0,0,1-.62,1.141,13.827,13.827,0,0,1-6.688,2.738c-6,1.03-8.382-2.018-8.173-7.748C.208,5.146,2.846,1.2,8.846.175c4.793-.817,7.386,1.326,7.272,4.409-.143,3.906-2.819,6.521-6.762,7.195a13.832,13.832,0,0,1-4.717-.009c-.03,1.988,1.184,2.9,3.693,2.476a14.888,14.888,0,0,0,5.452-1.882A1.067,1.067,0,0,1,14.148,12.211ZM4.787,7.729a5.564,5.564,0,0,0,3.365.46c2.106-.36,3.2-1.108,3.247-2.411.063-1.694-1.221-1.862-2.7-1.61A4.476,4.476,0,0,0,4.788,7.731Z" transform="translate(0 0)"/></g><g transform="translate(160.786 24.586)"><path class="b" d="M6.692,19.218a1.472,1.472,0,0,1-1.613-.933L0,3.8A1.17,1.17,0,0,1,.974,2.724L3.8,2.24a.91.91,0,0,1,1.081.689l.007.031L8.426,13.313l4.345-11.7a1.511,1.511,0,0,1,1.153-1.1L16.746.028a.713.713,0,0,1,.908.75L11.447,17.2a2.449,2.449,0,0,1-1.7,1.5Z" transform="translate(0 0)"/></g><g transform="translate(178.794 17.67)"><path class="b" d="M.578,7.531A1.169,1.169,0,0,1,1.553,6.46l2.822-.484a.715.715,0,0,1,.909.752L4.706,22.486a1.168,1.168,0,0,1-.974,1.072L.91,24.039a.715.715,0,0,1-.883-.492A.727.727,0,0,1,0,23.289ZM.567,2.959a1.941,1.941,0,0,0,2.419,2A3.244,3.244,0,0,0,5.627,2.1,1.993,1.993,0,0,0,3.166.056a3.237,3.237,0,0,0-2.6,2.9Z" transform="translate(0 0)"/></g><g transform="translate(186 21.328)"><path class="b" d="M4.707,17.6a1.17,1.17,0,0,1-.975,1.073L.91,19.156A.714.714,0,0,1,0,18.4L.531,3.992c.011-.3.284-.568.607-.885C3.076,1.266,5.995.551,8.144.182a8.308,8.308,0,0,1,4.532.3.792.792,0,0,1,.594.809,12.377,12.377,0,0,1-.886,2.353,1.186,1.186,0,0,1-.784.742,2.18,2.18,0,0,1-.533-.04,6.489,6.489,0,0,0-2.887-.2c-.9.153-2.781.562-3.048,1.816Z" transform="translate(0 0)"/></g><g transform="translate(199.056 12.591)"><path class="b" d="M4.5,1.447A1.3,1.3,0,0,1,5.517.367L7.488.028A.713.713,0,0,1,8.4.78L8.171,6.944l4.663-.793a.713.713,0,0,1,.906.75l-.079,2.171a1.167,1.167,0,0,1-.974,1.072l-4.655.8-.2,5.426c-.054,1.518-.072,4.369,3.155,3.818.671-.115,1.214-.423,1.892-.536a.683.683,0,0,1,.785.428l.542,2.237a1,1,0,0,1-.477.858,13.446,13.446,0,0,1-3.6,1.132c-5.913,1.012-7.166-2.442-6.956-8.173l.16-4.384L.91,12.16a.714.714,0,0,1-.883-.491A.7.7,0,0,1,0,11.409l.079-2.17a1.168,1.168,0,0,1,.973-1.071l2.419-.414Z" transform="translate(0 0)"/></g><g transform="translate(213.973 15.708)"><path class="b" d="M8.232,18.952C2.274,19.97-.2,18.193.012,12.462L.338,3.519a1.168,1.168,0,0,1,.975-1.072l2.82-.482a.708.708,0,0,1,.882.489.7.7,0,0,1,.025.261l-.322,8.726c-.136,3.69.52,4.052,3.565,3.53a5.221,5.221,0,0,0,2.942-1.365l.44-12.025A1.169,1.169,0,0,1,12.64.509L15.462.028a.715.715,0,0,1,.883.491.706.706,0,0,1,.024.26l-.5,13.589a1.621,1.621,0,0,1-.478.945,12.35,12.35,0,0,1-7.162,3.639Z" transform="translate(0 0)"/></g><g transform="translate(231.414 13.207)"><path class="b" d="M12.7,17.5a.919.919,0,0,1-.968-.353L11.09,16.4a7.165,7.165,0,0,1-4.132,2.3c-4.7.81-7.147-1.712-6.946-7.224A11.287,11.287,0,0,1,9.768.271,18.531,18.531,0,0,1,15.956.249a.658.658,0,0,1,.374.669l-.555,15.151a1.168,1.168,0,0,1-.973,1.074ZM11.545,3.934c-5.329.911-6.7,3.175-6.836,6.779-.135,3.734,1.676,4.114,3.556,3.792a5.7,5.7,0,0,0,2.968-1.974Z" transform="translate(0 0)"/></g><g transform="translate(249.798 4.42)"><path class="b" d="M4.76,19.4a1.8,1.8,0,0,0,1,1.857.467.467,0,0,1,.3.466L6,23.508a1.165,1.165,0,0,1-.745.861,8.759,8.759,0,0,1-2.384.665C0,25.524-.04,22.986.009,21.641L.743,1.584A1.167,1.167,0,0,1,1.717.51L4.539.028a.713.713,0,0,1,.883.49.7.7,0,0,1,.025.261Z" transform="translate(0 0)"/></g><g transform="translate(263.92 0)"><path class="b" d="M12.5,1.582A1.169,1.169,0,0,1,13.472.509L16.294.027A.713.713,0,0,1,17.2.778l-.809,22.27a1.013,1.013,0,0,1-.475.814A27.87,27.87,0,0,1,8.8,26.026c-6,1.027-9-2.04-8.793-7.768s3.858-9.331,8.335-10.1a8.056,8.056,0,0,1,3.91.2ZM8.812,22.057a7.9,7.9,0,0,0,2.975-1.027l.318-8.683a4.663,4.663,0,0,0-2.744-.393c-2.465.421-4.521,1.9-4.654,5.5s1.012,5.133,4.1,4.6Z" transform="translate(0)"/></g><g transform="translate(282.408 4.743)"><path class="b" d="M14.147,12.21a.506.506,0,0,1,.613.283l.661,1.4a.806.806,0,0,1,.072.462,1.55,1.55,0,0,1-.62,1.141,13.836,13.836,0,0,1-6.687,2.739C2.184,19.26-.2,16.211.013,10.486.206,5.147,2.846,1.2,8.845.176c4.794-.82,7.386,1.327,7.273,4.409-.143,3.906-2.821,6.521-6.764,7.195a13.807,13.807,0,0,1-4.716-.01c-.029,1.989,1.184,2.906,3.693,2.476a14.886,14.886,0,0,0,5.451-1.881,1.048,1.048,0,0,1,.364-.155ZM4.788,7.727a5.565,5.565,0,0,0,3.365.459c2.1-.359,3.2-1.108,3.249-2.411.062-1.692-1.223-1.861-2.7-1.608A4.472,4.472,0,0,0,4.788,7.727Z" transform="translate(0 0)"/></g></g><g transform="translate(2.128 0)"><g transform="translate(0 45.505)"><path class="a" d="M19.6,1.389a12.007,12.007,0,0,1-1.028,2.505.874.874,0,0,1-.642.5.757.757,0,0,1-.4-.062,14.352,14.352,0,0,0-5.422-.2c-2.242.383-7.083,1.427-7.4,9.892-.254,6.946,4.53,7.552,6.771,7.17a7.383,7.383,0,0,0,3.661-1.532L15.33,14.8l-2.957.506a.715.715,0,0,1-.908-.752l.079-2.17a1.215,1.215,0,0,1,1.02-1.079l6.584-1.126a.743.743,0,0,1,.923.506.776.776,0,0,1,.03.241l-.427,11.721a1.221,1.221,0,0,1-1.019,1.08l-.94.159a1.43,1.43,0,0,1-1.189-.358l-.474-.437a11.992,11.992,0,0,1-5.109,2.166C4.942,26.287-.32,24.12.015,14.836.392,4.546,5.855,1.242,11.853.218a15.6,15.6,0,0,1,7.235.488.784.784,0,0,1,.517.683Z" transform="translate(0 0)"/></g><g transform="translate(21.955 49.352)"><path class="a" d="M4.707,17.6a1.169,1.169,0,0,1-.973,1.075L.91,19.156a.714.714,0,0,1-.883-.493A.705.705,0,0,1,0,18.4L.531,3.99c.011-.3.284-.567.607-.884C3.076,1.266,5.995.55,8.145.184a8.264,8.264,0,0,1,4.532.3.791.791,0,0,1,.594.81,12.14,12.14,0,0,1-.886,2.348,1.183,1.183,0,0,1-.783.741,2.163,2.163,0,0,1-.533-.039,6.5,6.5,0,0,0-2.886-.2c-.9.154-2.78.562-3.049,1.821Z" transform="translate(0 0)"/></g><g transform="translate(33.858 46.965)"><path class="a" d="M12.7,17.5a.918.918,0,0,1-.967-.352l-.639-.753a7.176,7.176,0,0,1-4.132,2.3c-4.7.81-7.147-1.713-6.946-7.225A11.29,11.29,0,0,1,9.768.271,18.533,18.533,0,0,1,15.956.25a.657.657,0,0,1,.374.668l-.552,15.146a1.168,1.168,0,0,1-.973,1.073ZM11.545,3.932c-5.329.911-6.7,3.173-6.837,6.779-.137,3.734,1.675,4.115,3.555,3.793a5.7,5.7,0,0,0,2.968-1.973Z" transform="translate(0 0)"/></g><g transform="translate(51.079 37.88)"><path class="a" d="M4.5,1.445A1.307,1.307,0,0,1,5.517.366L7.489.028a.714.714,0,0,1,.883.492A.706.706,0,0,1,8.4.78L8.172,6.945l4.662-.8a.712.712,0,0,1,.907.75L13.662,9.07a1.169,1.169,0,0,1-.973,1.073l-4.654.793-.2,5.426c-.053,1.518-.07,4.37,3.155,3.818.673-.115,1.214-.424,1.891-.537a.683.683,0,0,1,.785.427l.541,2.238a.993.993,0,0,1-.475.857,13.412,13.412,0,0,1-3.6,1.133c-5.914,1.012-7.168-2.442-6.958-8.174l.16-4.384L.91,12.153A.714.714,0,0,1,0,11.4l.08-2.17A1.169,1.169,0,0,1,1.057,8.16l2.417-.414Z" transform="translate(0 0)"/></g><g transform="translate(66.201 36.911)"><path class="a" d="M.581,7.531a1.168,1.168,0,0,1,.974-1.073l2.822-.481a.714.714,0,0,1,.907.75L4.707,22.483a1.168,1.168,0,0,1-.974,1.073l-2.822.483A.713.713,0,0,1,0,23.288ZM.57,2.96a1.939,1.939,0,0,0,2.417,2A3.246,3.246,0,0,0,5.628,2.095,2,2,0,0,0,3.166.056a3.237,3.237,0,0,0-2.6,2.9Z" transform="translate(0 0)"/></g><g transform="translate(73.075 40.57)"><path class="a" d="M1.771,14.61a19.252,19.252,0,0,0,4.723-.116c.985-.169,3.449-.59,3.5-1.98C10.111,9.3-.268,14.354.005,6.887.113,4.022,2.13,1.261,7.9.274A29.1,29.1,0,0,1,12.72.012a.761.761,0,0,1,.772.75.227.227,0,0,1,0,.024c-.009.26-.077.877-.3,2.34a.994.994,0,0,1-.868.669c-1.113.06-2.767.169-3.125.231-2.732.467-4.4.881-4.437,2.009C4.647,9.07,15.011,4.457,14.75,11.576c-.131,3.559-3.158,6.019-8.306,6.9a17.111,17.111,0,0,1-5.786,0c-.3-.078-.614-.24-.6-.631a24.092,24.092,0,0,1,.721-2.668.853.853,0,0,1,.734-.557Z" transform="translate(0 0)"/></g><g transform="translate(94.731 35.866)"><path class="a" d="M6.692,19.217a1.472,1.472,0,0,1-1.613-.933L0,3.794A1.168,1.168,0,0,1,.974,2.721L3.8,2.24a.911.911,0,0,1,1.08.687l.006.032L8.423,13.313l4.344-11.7A1.518,1.518,0,0,1,13.921.51L16.743.028a.713.713,0,0,1,.884.489.706.706,0,0,1,.024.261L11.445,17.2a2.449,2.449,0,0,1-1.7,1.5Z" transform="translate(0 0)"/></g><g transform="translate(111.661 33.665)"><path class="a" d="M12.7,17.5a.919.919,0,0,1-.967-.353l-.64-.753a7.161,7.161,0,0,1-4.131,2.3c-4.7.809-7.148-1.712-6.946-7.224A11.29,11.29,0,0,1,9.769.271,18.544,18.544,0,0,1,15.957.249a.657.657,0,0,1,.373.669l-.554,15.15a1.168,1.168,0,0,1-.974,1.074ZM11.544,3.934c-5.329.911-6.7,3.175-6.834,6.779-.137,3.734,1.675,4.115,3.556,3.793a5.712,5.712,0,0,0,2.969-1.973Z" transform="translate(0 0)"/></g><g transform="translate(130.037 24.89)"><path class="a" d="M4.758,19.4a1.8,1.8,0,0,0,1,1.856.469.469,0,0,1,.3.467l-.067,1.781a1.159,1.159,0,0,1-.744.862,8.794,8.794,0,0,1-2.383.665C0,25.523-.04,22.985.01,21.64L.743,1.584A1.167,1.167,0,0,1,1.717.512L4.54.029a.708.708,0,0,1,.882.49A.721.721,0,0,1,5.448.78Z" transform="translate(0 0)"/></g><g transform="translate(137.469 29.501)"><path class="a" d="M14.153,12.211a.506.506,0,0,1,.607.284l.662,1.4a.808.808,0,0,1,.071.462,1.542,1.542,0,0,1-.62,1.141,13.818,13.818,0,0,1-6.688,2.738c-6,1.03-8.383-2.024-8.173-7.748C.208,5.147,2.846,1.2,8.846.175,13.64-.643,16.233,1.5,16.119,4.584c-.143,3.908-2.82,6.521-6.762,7.195A13.815,13.815,0,0,1,4.64,11.77c-.03,1.989,1.185,2.906,3.694,2.476a14.887,14.887,0,0,0,5.452-1.882,1.052,1.052,0,0,1,.367-.153ZM4.792,7.729a5.565,5.565,0,0,0,3.365.459c2.1-.36,3.2-1.108,3.248-2.41.063-1.693-1.222-1.862-2.7-1.61A4.476,4.476,0,0,0,4.791,7.731Z" transform="translate(0 0)"/></g><g transform="translate(160.79 24.576)"><path class="a" d="M6.692,19.219a1.472,1.472,0,0,1-1.613-.933L0,3.8A1.169,1.169,0,0,1,.974,2.724L3.8,2.24a.91.91,0,0,1,1.08.689l.007.03L8.424,13.314l4.344-11.7A1.517,1.517,0,0,1,13.922.51L16.745.028a.712.712,0,0,1,.907.751L11.446,17.2a2.45,2.45,0,0,1-1.7,1.5Z" transform="translate(0 0)"/></g><g transform="translate(178.795 17.661)"><path class="a" d="M.581,7.531A1.168,1.168,0,0,1,1.554,6.46l2.822-.484a.713.713,0,0,1,.908.751L4.707,22.485a1.169,1.169,0,0,1-.973,1.073L.91,24.039A.715.715,0,0,1,0,23.289ZM.57,2.959a1.937,1.937,0,0,0,2.417,2A3.237,3.237,0,0,0,5.628,2.095,1.993,1.993,0,0,0,3.167.056a3.237,3.237,0,0,0-2.6,2.9Z" transform="translate(0 0)"/></g><g transform="translate(186.014 21.319)"><path class="a" d="M4.707,17.6a1.168,1.168,0,0,1-.974,1.072l-2.821.482a.715.715,0,0,1-.884-.492A.706.706,0,0,1,0,18.4L.531,3.991c.01-.3.284-.567.607-.884C3.075,1.266,5.995.55,8.144.183a8.3,8.3,0,0,1,4.532.3.793.793,0,0,1,.595.81,12.386,12.386,0,0,1-.887,2.352,1.185,1.185,0,0,1-.783.742,2.211,2.211,0,0,1-.533-.038,6.466,6.466,0,0,0-2.886-.2c-.9.152-2.781.562-3.048,1.815Z" transform="translate(0 0)"/></g><g transform="translate(199.056 12.582)"><path class="a" d="M4.5,1.446A1.307,1.307,0,0,1,5.52.367L7.491.029A.714.714,0,0,1,8.4.78L8.17,6.945l4.662-.792a.708.708,0,0,1,.882.489.694.694,0,0,1,.025.261l-.078,2.171a1.169,1.169,0,0,1-.975,1.073l-4.654.8-.2,5.427c-.052,1.518-.072,4.369,3.155,3.818.672-.115,1.214-.423,1.891-.536a.684.684,0,0,1,.786.427l.541,2.237a1,1,0,0,1-.476.858,13.449,13.449,0,0,1-3.6,1.133c-5.913,1.012-7.167-2.443-6.956-8.174l.161-4.383-2.418.412A.714.714,0,0,1,0,11.41L.082,9.239a1.168,1.168,0,0,1,.974-1.071l2.418-.414Z" transform="translate(0 0)"/></g><g transform="translate(213.975 15.707)"><path class="a" d="M8.233,18.953C2.275,19.972-.2,18.194.012,12.464L.339,3.521a1.168,1.168,0,0,1,.974-1.073l2.822-.482a.713.713,0,0,1,.882.489.737.737,0,0,1,.025.261l-.322,8.727c-.134,3.69.52,4.047,3.566,3.53a5.225,5.225,0,0,0,2.944-1.366l.439-12.025A1.169,1.169,0,0,1,12.642.51L15.464.029a.708.708,0,0,1,.882.49.719.719,0,0,1,.025.26l-.5,13.589a1.62,1.62,0,0,1-.478.946A12.355,12.355,0,0,1,8.233,18.953Z" transform="translate(0 0)"/></g><g transform="translate(231.417 13.199)"><path class="a" d="M12.7,17.5a.919.919,0,0,1-.967-.352l-.64-.754a7.17,7.17,0,0,1-4.132,2.3c-4.7.8-7.147-1.712-6.946-7.224A11.288,11.288,0,0,1,9.767.272,18.523,18.523,0,0,1,15.955.249a.659.659,0,0,1,.375.669l-.555,15.151a1.168,1.168,0,0,1-.974,1.073ZM11.545,3.934c-5.329.911-6.7,3.174-6.835,6.779-.136,3.735,1.676,4.115,3.556,3.792a5.7,5.7,0,0,0,2.968-1.973Z" transform="translate(0 0)"/></g><g transform="translate(249.798 4.423)"><path class="a" d="M4.765,19.4a1.8,1.8,0,0,0,1,1.857.467.467,0,0,1,.3.468l-.066,1.781a1.159,1.159,0,0,1-.744.862,8.727,8.727,0,0,1-2.384.665C0,25.524-.039,22.986.009,21.64L.744,1.584A1.167,1.167,0,0,1,1.717.51L4.539.027A.714.714,0,0,1,5.446.78Z" transform="translate(0 0)"/></g><g transform="translate(263.923 0)"><path class="a" d="M12.5,1.582A1.167,1.167,0,0,1,13.473.51L16.3.028a.714.714,0,0,1,.884.489A.733.733,0,0,1,17.2.778l-.809,22.27a1.012,1.012,0,0,1-.475.816A27.912,27.912,0,0,1,8.8,26.027C2.8,27.057-.2,23.986.01,18.257s3.858-9.331,8.336-10.1a8.053,8.053,0,0,1,3.91.2ZM8.813,22.057a7.9,7.9,0,0,0,2.974-1.027l.317-8.682a4.655,4.655,0,0,0-2.745-.393c-2.464.421-4.52,1.894-4.654,5.5s1.012,5.133,4.1,4.6Z" transform="translate(0)"/></g><g transform="translate(282.411 4.734)"><path class="a" d="M14.148,12.21a.506.506,0,0,1,.613.284l.661,1.4a.82.82,0,0,1,.071.462,1.545,1.545,0,0,1-.62,1.14,13.837,13.837,0,0,1-6.687,2.739c-6,1.026-8.383-2.023-8.173-7.748C.208,5.146,2.846,1.2,8.848.175,13.642-.643,16.234,1.5,16.12,4.585c-.144,3.906-2.822,6.521-6.764,7.195a13.814,13.814,0,0,1-4.717-.009c-.028,1.989,1.185,2.9,3.693,2.475a14.854,14.854,0,0,0,5.451-1.881A1.076,1.076,0,0,1,14.148,12.21ZM4.788,7.728a5.565,5.565,0,0,0,3.365.46c2.105-.36,3.2-1.108,3.249-2.411.063-1.693-1.223-1.862-2.7-1.609A4.472,4.472,0,0,0,4.788,7.727Z" transform="translate(0 0)"/></g></g></g><g transform="translate(2464.102 -5095.113) rotate(9)"><path class="c" d="M57.688,30.321l.406,32.172q.146,10.962-1,16.164a26.166,26.166,0,0,1-4.918,10.166,26.843,26.843,0,0,1-9.165,7.743,40.168,40.168,0,0,1-12.09,3.854,44.832,44.832,0,0,1-14.7.362,16.639,16.639,0,0,1-9.379-4.726,21.758,21.758,0,0,1-5.009-8.114Q.336,83.5.252,73.313L0,39.654Q-.087,26.37,2.2,19.38a24.561,24.561,0,0,1,9.173-12.1A37.7,37.7,0,0,1,28.093.571a33.785,33.785,0,0,1,14.386.44q6.363,1.741,9.544,5.224a18.632,18.632,0,0,1,4.357,8.3Q57.556,19.367,57.688,30.321ZM33.166,26.175q-.074-7.686-.847-9.5t-3.552-1.364a4.229,4.229,0,0,0-3.577,2.637q-.858,2.2-.794,9.643l.455,47.063q.088,8.4.928,9.995t3.576,1.155a4.172,4.172,0,0,0,3.566-2.6q.829-2.162.746-9.251Z"/></g><g transform="translate(2396.185 -5100.138) rotate(9)"><path class="c" d="M54.557,0V101.525L23.977,106.8l-.7-55.363c-.118-7.92-.429-12.681-.931-14.24s-1.845-2.633-4.027-3.211-7.074-.431-14.7.457l-3.294.384L0,22.471C15.993,18,27.881,11.119,35.882,1.789Z"/></g></g><g transform="translate(43.667 5192)"><path class="a" d="M2961.14,840.227l2.326-10.96c.246-1.028.693-1.5,1.632-1.5h.47c.917,0,1.433.537,1.207,1.564l-2.168,10.107h5.3c.9,0,1.411.38,1.411.984a2.634,2.634,0,0,1-.559,1.542c-.224.246-.536.358-1.275.358H2962.8C2961.43,842.332,2960.83,841.632,2961.14,840.227Z" transform="translate(-1869.887 -5611.63)"/><path class="a" d="M2980.75,840.318a4.575,4.575,0,0,1-3.935,2.277c-2.348,0-4.136-1.654-4.136-4.469,0-3.488,2.481-6.977,5.992-6.977a3.837,3.837,0,0,1,3.511,1.967,2.215,2.215,0,0,1,2.3-1.789c.626,0,1.118.269,1.118.38l-1.7,7.915c-.267,1.207-.045,1.654.8,1.811.021.022-.136,1.118-1.745,1.118a1.96,1.96,0,0,1-2.215-2.235Zm.559-3.243.313-1.517a2.488,2.488,0,0,0-2.53-1.945c-2.079,0-3.354,2.079-3.354,4.069a2.208,2.208,0,0,0,1.99,2.4c.074.007.149.01.223.01a3.6,3.6,0,0,0,3.36-3.022Z" transform="translate(-1869.887 -5611.63)"/><path class="a" d="M2990.16,837.589a6.185,6.185,0,0,1,5.923-6.435h0c.083,0,.166-.005.249-.005a4.861,4.861,0,0,1,5.22,4.474h0a4.829,4.829,0,0,1,.011.535,6.181,6.181,0,0,1-5.919,6.434h0c-.084,0-.167.006-.251.006a4.861,4.861,0,0,1-5.22-4.473,4.789,4.789,0,0,1-.013-.536Zm8.653-1.3a2.59,2.59,0,0,0-2.424-2.746h-.147c-1.945,0-3.333,1.879-3.333,3.936a2.584,2.584,0,0,0,2.436,2.723h.136c1.947,0,3.333-1.874,3.333-3.91Z" transform="translate(-1869.887 -5611.63)"/><path class="a" d="M3003.49,840.92l1.5-7.043h-.849c-.715,0-1.14-.313-1.14-.827a2.3,2.3,0,0,1,.447-1.319,1.422,1.422,0,0,1,1.1-.313h.961l.179-.739c.626-2.972,2.236-4.024,4.271-4.024a3.218,3.218,0,0,1,2.3.738,1.369,1.369,0,0,1,.4.962,1.607,1.607,0,0,1-.849,1.387,1.95,1.95,0,0,0-1.517-.675c-.806,0-1.342.447-1.611,1.677l-.157.675H3010c.782,0,1.207.337,1.207.827a2.275,2.275,0,0,1-.469,1.319,1.418,1.418,0,0,1-1.1.313h-1.5l-1.5,7.044c-.224,1.118-.648,1.5-1.453,1.5h-.338C3004,842.419,3003.24,842.086,3003.49,840.92Z" transform="translate(-1869.887 -5611.63)"/><path class="a" d="M3010.97,837.949a6.685,6.685,0,0,1,6.567-6.8h.3c2.771,0,4.314,1.3,4.314,3.2,0,2.235-1.433,3.577-6.282,3.577-.676,0-1.41-.045-2.235-.089v.068a2.34,2.34,0,0,0,2.2,2.478h0a2.384,2.384,0,0,0,.463-.018,3.888,3.888,0,0,0,3.219-1.588c.046-.067,1.34.157,1.34,1.185a1.71,1.71,0,0,1-.6,1.342,5.528,5.528,0,0,1-4,1.3C3012.67,842.6,3010.97,840.632,3010.97,837.949Zm3.063-2.035c.582.045,1.1.068,1.565.068,3.041,0,3.891-.693,3.891-1.543,0-.581-.6-1.163-1.789-1.163a4.11,4.11,0,0,0-3.66,2.638Z" transform="translate(-1869.887 -5611.63)"/><path class="a" d="M3027.21,833.251a3.335,3.335,0,0,1,2.952-2.1c1.1,0,1.944.626,1.944,1.544a2,2,0,0,1-1.409,1.99,1.944,1.944,0,0,0-1.517-.648c-1.408,0-2.3,1.565-2.8,3.868l-.626,3.019c-.246,1.118-.649,1.5-1.453,1.5h-.337c-.85,0-1.611-.337-1.364-1.5l1.99-9.392a1.4,1.4,0,0,1,.871-.2,1.661,1.661,0,0,1,1.763,1.553h0a1.579,1.579,0,0,1-.018.367Z" transform="translate(-1869.887 -5611.63)"/><path class="a" d="M3033.49,838.483l.961-4.607h-.536c-.716,0-1.141-.313-1.141-.827a2.3,2.3,0,0,1,.447-1.319,1.419,1.419,0,0,1,1.1-.313h.648l.134-.626c.314-1.61.962-2.276,2.348-2.276.674,0,1.185.268,1.162.38l-.536,2.53h1.834c.758,0,1.185.337,1.185.827a2.109,2.109,0,0,1-.47,1.318,1.346,1.346,0,0,1-1.073.313h-2.034l-.961,4.469c-.29,1.319.157,1.877,1.028,1.877a2.062,2.062,0,0,0,1.343-.558c.088-.069.513.29.513.961a1.678,1.678,0,0,1-.536,1.23,3.2,3.2,0,0,1-2.325.759C3034.07,842.62,3032.93,841.121,3033.49,838.483Z" transform="translate(-1869.887 -5611.63)"/><path class="a" d="M3049.2,840.318a4.572,4.572,0,0,1-3.936,2.277c-2.347,0-4.136-1.654-4.136-4.469,0-3.488,2.482-6.977,5.992-6.977a3.837,3.837,0,0,1,3.511,1.967,2.214,2.214,0,0,1,2.3-1.789c.625,0,1.119.269,1.119.38l-1.7,7.915c-.268,1.207-.045,1.654.8,1.811.023.022-.134,1.118-1.743,1.118a1.96,1.96,0,0,1-2.215-2.235Zm.559-3.243.313-1.517a2.49,2.49,0,0,0-2.53-1.945c-2.079,0-3.353,2.079-3.353,4.069a2.207,2.207,0,0,0,1.99,2.4c.074.007.149.01.223.01a3.6,3.6,0,0,0,3.357-3.022Z" transform="translate(-1869.887 -5611.63)"/><path class="a" d="M3059.76,838.483l.962-4.607h-.537c-.715,0-1.14-.313-1.14-.827a2.274,2.274,0,0,1,.447-1.319,1.412,1.412,0,0,1,1.1-.313h.65l.134-.626c.313-1.61.963-2.276,2.349-2.276.675,0,1.186.268,1.162.38l-.536,2.53h1.834c.758,0,1.181.337,1.181.827a2.126,2.126,0,0,1-.469,1.318,1.355,1.355,0,0,1-1.073.313h-2.046l-.961,4.469c-.291,1.319.157,1.877,1.028,1.877a2.067,2.067,0,0,0,1.342-.558c.089-.069.513.29.513.961a1.676,1.676,0,0,1-.536,1.23,3.189,3.189,0,0,1-2.326.759C3060.34,842.62,3059.2,841.121,3059.76,838.483Z" transform="translate(-1869.887 -5611.63)"/><path class="a" d="M3067.33,837.949a6.685,6.685,0,0,1,6.566-6.8h.3c2.771,0,4.314,1.3,4.314,3.2,0,2.235-1.433,3.577-6.283,3.577-.675,0-1.409-.045-2.235-.089v.068a2.342,2.342,0,0,0,2.2,2.478h0a2.379,2.379,0,0,0,.463-.018,3.883,3.883,0,0,0,3.219-1.588c.046-.067,1.343.157,1.343,1.185a1.717,1.717,0,0,1-.6,1.342,5.525,5.525,0,0,1-4,1.3C3069.03,842.6,3067.33,840.632,3067.33,837.949Zm3.063-2.035c.581.045,1.1.068,1.565.068,3.041,0,3.891-.693,3.891-1.543,0-.581-.6-1.163-1.789-1.163a4.11,4.11,0,0,0-3.66,2.638Z" transform="translate(-1869.887 -5611.63)"/><path class="a" d="M3083.56,833.251a3.335,3.335,0,0,1,2.951-2.1c1.1,0,1.945.626,1.945,1.544a2,2,0,0,1-1.409,1.99,1.944,1.944,0,0,0-1.517-.648c-1.409,0-2.3,1.565-2.8,3.868l-.626,3.019c-.246,1.118-.649,1.5-1.453,1.5h-.338c-.85,0-1.61-.337-1.363-1.5l1.99-9.392a1.394,1.394,0,0,1,.873-.2,1.661,1.661,0,0,1,1.761,1.554,1.588,1.588,0,0,1-.018.368Z" transform="translate(-1869.887 -5611.63)"/><path class="a" d="M3102.73,840.607a10.511,10.511,0,0,1,.537-2.682,12.042,12.042,0,0,0,.469-2.348,1.589,1.589,0,0,0-1.378-1.776h0a1.459,1.459,0,0,0-.229-.012,2.678,2.678,0,0,0-2.348,1.454l-1.208,5.68c-.247,1.14-.715,1.5-1.518,1.5h-.338c-.827,0-1.543-.338-1.3-1.5l.984-4.652c.313-1.475-.313-2.482-1.476-2.482a2.7,2.7,0,0,0-2.348,1.434l-1.207,5.7c-.246,1.162-.715,1.5-1.517,1.5h-.338c-.85,0-1.543-.337-1.3-1.5l1.99-9.392a1.394,1.394,0,0,1,.873-.2,1.656,1.656,0,0,1,1.753,1.553h0a1.521,1.521,0,0,1-.009.3,4.339,4.339,0,0,1,3.645-2.036,3.109,3.109,0,0,1,3.175,2.37,4.665,4.665,0,0,1,4.025-2.37,3.3,3.3,0,0,1,3.379,3.22v.011c0,.1,0,.2-.006.3a14.362,14.362,0,0,1-.625,3.2,11.677,11.677,0,0,0-.537,2.414c0,.627.313.873.9.963.066,0-.179,1.3-1.9,1.3C3103.4,842.553,3102.73,841.793,3102.73,840.607Z" transform="translate(-1869.887 -5611.63)"/><path class="a" d="M3108.56,839.532l1.433-6.685c.246-1.141.649-1.517,1.453-1.517h.337c.849,0,1.61.337,1.364,1.517l-1.452,6.775c-.246,1.208-.045,1.677.871,1.811.023.022-.156,1.118-1.834,1.118C3108.69,842.553,3108.18,841.3,3108.56,839.532Zm2.258-11.291a1.749,1.749,0,0,1,1.658-1.834h0a1.728,1.728,0,0,1,.176,0c1.119,0,1.744.559,1.744,1.364a1.762,1.762,0,0,1-1.686,1.832h-.149C3111.444,829.6,3110.818,829.045,3110.818,828.241Z" transform="translate(-1869.887 -5611.63)"/><path class="a" d="M3118.62,833.275a4.394,4.394,0,0,1,3.756-2.125,3.3,3.3,0,0,1,3.533,3.05,3.254,3.254,0,0,1,0,.483,13.284,13.284,0,0,1-.649,3.2,13.181,13.181,0,0,0-.513,2.415c0,.626.29.873.894.962.045,0-.179,1.3-1.9,1.3-1.475,0-2.168-.759-2.168-1.946a11.587,11.587,0,0,1,.536-2.683,10.881,10.881,0,0,0,.492-2.348,1.617,1.617,0,0,0-1.429-1.786h0a1.7,1.7,0,0,0-.336,0,2.817,2.817,0,0,0-2.5,1.589l-1.162,5.545c-.246,1.118-.649,1.5-1.454,1.5h-.337c-.849,0-1.609-.337-1.363-1.5l1.99-9.391a1.388,1.388,0,0,1,.873-.2,1.67,1.67,0,0,1,1.767,1.567A1.553,1.553,0,0,1,3118.62,833.275Z" transform="translate(-1869.887 -5611.63)"/><path class="a" d="M3135.34,840.318a4.572,4.572,0,0,1-3.936,2.277c-2.347,0-4.136-1.654-4.136-4.469,0-3.488,2.483-6.977,5.992-6.977a3.837,3.837,0,0,1,3.511,1.967,2.214,2.214,0,0,1,2.3-1.789c.625,0,1.119.269,1.119.38l-1.7,7.915c-.268,1.207-.045,1.654.8,1.811.023.022-.134,1.118-1.744,1.118a1.952,1.952,0,0,1-2.215-1.647h0a1.98,1.98,0,0,1,0-.587Zm.559-3.243.313-1.517a2.489,2.489,0,0,0-2.529-1.945c-2.079,0-3.353,2.079-3.353,4.069a2.207,2.207,0,0,0,1.99,2.4c.074.007.149.01.223.01a3.6,3.6,0,0,0,3.356-3.022Z" transform="translate(-1869.887 -5611.63)"/><path class="a" d="M3144.68,837.949a6.685,6.685,0,0,1,6.567-6.8h.3c2.773,0,4.318,1.3,4.318,3.2,0,2.235-1.434,3.577-6.283,3.577-.674,0-1.41-.045-2.236-.089v.068a2.342,2.342,0,0,0,2.2,2.478h0a2.373,2.373,0,0,0,.462-.018,3.887,3.887,0,0,0,3.22-1.588c.045-.067,1.34.157,1.34,1.185a1.714,1.714,0,0,1-.6,1.342,5.536,5.536,0,0,1-4,1.3C3146.38,842.6,3144.68,840.632,3144.68,837.949Zm3.063-2.035c.582.045,1.1.068,1.565.068,3.041,0,3.891-.693,3.891-1.543,0-.581-.6-1.163-1.789-1.163a4.113,4.113,0,0,0-3.666,2.638Z" transform="translate(-1869.887 -5611.63)"/><path class="a" d="M3160.92,833.274a4.391,4.391,0,0,1,3.757-2.125,3.3,3.3,0,0,1,3.533,3.05,3.221,3.221,0,0,1,0,.483,13.382,13.382,0,0,1-.649,3.2,13.138,13.138,0,0,0-.514,2.415c0,.626.291.873.9.962.045,0-.179,1.3-1.9,1.3-1.476,0-2.168-.759-2.168-1.946a11.575,11.575,0,0,1,.536-2.683,10.91,10.91,0,0,0,.491-2.348,1.613,1.613,0,0,0-1.771-1.787,2.817,2.817,0,0,0-2.5,1.589l-1.162,5.545c-.246,1.118-.649,1.5-1.454,1.5h-.338c-.849,0-1.61-.337-1.364-1.5l1.99-9.391a1.394,1.394,0,0,1,.873-.2,1.67,1.67,0,0,1,1.77,1.563h0A1.569,1.569,0,0,1,3160.92,833.274Z" transform="translate(-1869.887 -5611.63)"/><path class="a" d="M3169.25,841.345a2.521,2.521,0,0,1,.581-1.722,1.708,1.708,0,0,1,1.411-.421c1.027,0,1.516.38,1.516,1.162a2.509,2.509,0,0,1-.582,1.722c-.291.29-.6.4-1.409.4C3169.75,842.486,3169.25,842.132,3169.25,841.345Zm1.433-6.82a2.524,2.524,0,0,1,.582-1.722,1.7,1.7,0,0,1,1.41-.422c1.027,0,1.542.38,1.542,1.162a2.5,2.5,0,0,1-.581,1.722c-.291.29-.6.4-1.409.4-1.032,0-1.547-.361-1.547-1.143Z" transform="translate(-1869.887 -5611.63)"/></g></g></svg>