<svg xmlns="http://www.w3.org/2000/svg" xmlns:xlink="http://www.w3.org/1999/xlink" width="332.924" height="174.428" viewBox="0 0 332.924 174.428"><defs><style>.a{fill:none;}.b{fill:#fff;}.c{clip-path:url(#a);}.d{fill:#ffde6e;}.e{fill:#40e262;}.f{fill:#0133a1;}.g{opacity:0.5;}.h{clip-path:url(#b);}.i{fill:#ffdd6e;}.j{fill:#ffdc6d;}.k{fill:#ffdb6d;}.l{fill:#ffda6d;}.m{fill:#ffd96c;}.n{fill:#ffd86c;}.o{fill:#ffd76c;}.p{fill:#ffd66c;}.q{fill:#ffd56b;}.r{fill:#ffd46b;}.s{fill:#ffd36b;}.t{fill:#ffd26a;}.u{fill:#ffd16a;}.v{fill:#ffd06a;}.w{fill:#ffcf69;}.x{fill:#ffce69;}.y{fill:#ffcd69;}.z{fill:#ffcc68;}.aa{fill:#ffcb68;}.ab{fill:#ffca68;}.ac{fill:#ffc967;}.ad{fill:#ffc867;}.ae{fill:#ffc767;}.af{fill:#ffc667;}.ag{fill:#ffc566;}.ah{fill:#ffc466;}.ai{fill:#ffc366;}.aj{fill:#ffc265;}.ak{fill:#ffc165;}.al{fill:#ffc065;}.am{fill:#ffbf64;}.an{fill:#ffbe64;}.ao{fill:#ffbd64;}.ap{fill:#ffbc63;}.aq{fill:#ffbb63;}.ar{fill:#ffba63;}.as{fill:#ffb963;}.at{fill:#ffb862;}.au{fill:#ffb762;}.av{fill:#ffb662;}.aw{fill:#ffb561;}.ax{fill:#ffb461;}.ay{fill:#ffb361;}.az{fill:#ffb260;}.ba{fill:#ffb160;}.bb{fill:#ffb060;}.bc{fill:#ffaf5f;}.bd{fill:#ffae5f;}.be{fill:#ffad5f;}.bf{fill:#ffac5e;}.bg{fill:#ffab5e;}.bh{fill:#ffaa5e;}.bi{fill:#ffa95e;}.bj{fill:#ffa85d;}.bk{fill:#ffa75d;}.bl{fill:#ffa65d;}.bm{fill:#ffa55c;}.bn{fill:#ffa45c;}.bo{fill:#ffa35c;}.bp{fill:#ffa25b;}.bq{fill:#ffa15b;}.br{fill:#ffa05b;}.bs{fill:#ff9f5a;}.bt{fill:#ff9e5a;}.bu{fill:#ff9c5a;}.bv{fill:#ff9b59;}.bw{fill:#ff9a59;}.bx{fill:#ff9959;}.by{fill:#ff9859;}.bz{fill:#ff9758;}.ca{fill:#ff9658;}.cb{fill:#ff9558;}.cc{fill:#ff9457;}.cd{fill:#ff9357;}.ce{fill:#ff9257;}.cf{fill:#ff9156;}.cg{fill:#ff9056;}.ch{fill:#ff8f56;}.ci{fill:#ff8e55;}.cj{fill:#ff8d55;}.ck{fill:#ff8c55;}.cl{fill:#ff8b55;}.cm{fill:#ff8a54;}.cn{fill:#ff8954;}.co{fill:#ff8854;}.cp{fill:#ff8753;}.cq{fill:#ff8653;}.cr{fill:#ff8553;}.cs{fill:#ff8452;}.ct{fill:#ff8352;}.cu{fill:#ff8252;}.cv{fill:#ff8151;}.cw{fill:#ff8051;}.cx{fill:#ff7f51;}.cy{fill:#ff7e50;}.cz{fill:#ff7d50;}.da{fill:#ff7c50;}.db{fill:#ff7b50;}.dc{fill:#ff7a4f;}.dd{fill:#ff794f;}.de{fill:#ff784f;}.df{fill:#ff774e;}.dg{fill:#ff764e;}.dh{fill:#ff754e;}.di{fill:#ff744d;}.dj{fill:#ff734d;}.dk{fill:#ff724d;}.dl{fill:#ff714c;}.dm{fill:#ff704c;}.dn{fill:#ff6f4c;}.do{fill:#ff6e4c;}.dp{fill:#ff6d4b;}.dq{fill:#ff6c4b;}.dr{fill:#ff6b4b;}.ds{fill:#ff6a4a;}.dt{fill:#ff694a;}.du{fill:#ff684a;}.dv{fill:#ff6749;}.dw{fill:#ff6649;}.dx{fill:#ff6549;}.dy{fill:#ff6448;}.dz{fill:#ff6348;}.ea{fill:#ff6248;}.eb{fill:#ff6148;}.ec{fill:#ff6047;}.ed{fill:#ff5f47;}.ee{fill:#ff5e47;}.ef{fill:#ff5d46;}.eg{fill:#ff5c46;}.eh{fill:#ff5b46;}.ei{fill:#ff5a45;}.ej{fill:#ff5945;}.ek{fill:#ff5845;}.el{fill:#ff5744;}.em{fill:#ff5644;}.en{fill:#f54;}.eo{fill:#ff5443;}.ep{fill:#ff5343;}.eq{fill:#ff5243;}.er{fill:#ff5143;}.es{fill:#ff5042;}.et{fill:#ff4f42;}.eu{fill:#ff4e42;}.ev{fill:#ff4d41;}.ew{fill:#ff4c41;}.ex{fill:#102236;}</style><clipPath id="a"><circle class="a" cx="10.514" cy="10.514" r="10.514"/></clipPath><clipPath id="b"><circle class="a" cx="2.466" cy="2.466" r="2.466"/></clipPath></defs><g transform="translate(-4239.227 -1432.387)"><g transform="translate(4239.227 1432.387)"><g transform="translate(231.801 39.806)"><path class="b" d="M4512.891,1485.848h-62.61c-4.256,0-7.717-3.909-7.717-8.712s3.461-8.713,7.717-8.713h62.61c4.254,0,7.716,3.909,7.716,8.713S4517.145,1485.848,4512.891,1485.848Zm-62.61-16.577c-3.841,0-6.966,3.528-6.966,7.865s3.125,7.864,6.966,7.864h62.61c3.841,0,6.965-3.528,6.965-7.864s-3.125-7.865-6.965-7.865Z" transform="translate(-4442.563 -1468.422)"/><g transform="translate(6.217 4.381)"><g transform="translate(0 0.034)"><path class="b" d="M4449.493,1480.334c-.242,0-.4-.2-.438-.488l-.864-6.786c.047-.362.289-.641.554-.641h.8c.206,0,.391.238.414.5l.554,4.361,1.821-4.361c.115-.264.368-.5.575-.5h.8c.265,0,.415.279.369.641l-2.848,6.786a.688.688,0,0,1-.576.488Z" transform="translate(-4448.19 -1472.419)"/></g><g transform="translate(4.783 0.034)"><path class="b" d="M4457.441,1480.4c-.68,0-.773-.613-.843-1.072l-.1-.67H4454.8l-.507,1.157c-.1.278-.324.516-.554.516h-.829c-.266,0-.438-.237-.381-.572l2.95-6.854a.717.717,0,0,1,.577-.488h.968c.218,0,.38.2.426.488l.783,5.489c.034.181.046.335.081.348a.527.527,0,0,1,.2.5l-.068.459C4458.374,1480.235,4457.811,1480.4,4457.441,1480.4Zm-1.9-3.512h.7l-.162-1.268Z" transform="translate(-4452.52 -1472.419)"/></g><g transform="translate(11.684 0.034)"><path class="b" d="M4459.16,1480.334c-.276,0-.438-.237-.381-.572l.98-6.771a.611.611,0,0,1,.553-.571h.75c.265,0,.438.238.38.571l-.795,5.462h2.154c.266,0,.438.236.393.557l-.1.752a.622.622,0,0,1-.554.572Z" transform="translate(-4458.768 -1472.419)"/></g><g transform="translate(17.099 0.034)"><path class="b" d="M4464.062,1480.334c-.276,0-.437-.237-.379-.572l.98-6.771a.612.612,0,0,1,.553-.571h3.539c.276,0,.426.238.367.571l-.1.766a.59.59,0,0,1-.543.558h-2.316l-.172,1.128h1.648c.265,0,.415.251.368.571l-.1.753a.614.614,0,0,1-.542.571h-1.648l-.161,1.115h2.317c.276,0,.426.236.38.557l-.1.752c-.058.335-.265.572-.542.572Z" transform="translate(-4463.67 -1472.419)"/></g><g transform="translate(27.955)"><path class="b" d="M4474.8,1480.3c-.242,0-.4-.2-.438-.487l-.864-6.786c.046-.362.288-.641.553-.641h.8c.206,0,.391.237.414.5l.553,4.362,1.822-4.362c.114-.264.368-.5.575-.5h.795c.266,0,.416.279.369.641l-2.846,6.786a.691.691,0,0,1-.577.487Z" transform="translate(-4473.499 -1472.388)"/></g><g transform="translate(33.889)"><path class="b" d="M4480.564,1479.73a.619.619,0,0,1-.553.571h-.761c-.265,0-.426-.236-.368-.571l.979-6.771a.61.61,0,0,1,.542-.571h.761c.264,0,.437.237.38.571Z" transform="translate(-4478.871 -1472.388)"/></g><g transform="translate(37.024)"><path class="b" d="M4485.222,1472.388c1.59,0,2.269.835,1.994,2.745a3.2,3.2,0,0,1-1.025,2.187,10.3,10.3,0,0,0,.266,1.393.492.492,0,0,1,.161.5l-.07.459a.907.907,0,0,1-.979.7c-.622,0-.726-.473-.819-.99l-.265-1.532h-.807l-.276,1.881c-.058.335-.265.571-.553.571h-.739c-.264,0-.449-.236-.391-.571l.979-6.771a.631.631,0,0,1,.566-.571Zm.311,2.745c.068-.516-.127-.851-.483-.851h-.853l-.254,1.686h.852C4485.164,1475.968,4485.453,1475.662,4485.533,1475.133Z" transform="translate(-4481.708 -1472.388)"/></g><g transform="translate(43.605)"><path class="b" d="M4492.285,1472.388c.265,0,.415.237.356.571l-.1.766a.587.587,0,0,1-.53.558h-1.141l-.795,5.448a.62.62,0,0,1-.554.571h-.76c-.266,0-.426-.236-.369-.571l.8-5.448h-1.141c-.266,0-.416-.236-.369-.558l.1-.766a.612.612,0,0,1,.542-.571Z" transform="translate(-4487.667 -1472.388)"/></g><g transform="translate(49.021)"><path class="b" d="M4492.681,1476.749l.553-3.79a.631.631,0,0,1,.565-.571h.749c.265,0,.426.237.369.571l-.565,3.887c-.219,1.532.3,1.644.691,1.644s.957-.112,1.176-1.644l.564-3.887a.621.621,0,0,1,.553-.571h.75c.265,0,.437.237.381.571l-.553,3.79c-.45,3.12-1.534,3.622-3.135,3.622S4492.231,1479.87,4492.681,1476.749Z" transform="translate(-4492.569 -1472.388)"/></g><g transform="translate(54.801)"><path class="b" d="M4502.723,1480.371c-.68,0-.772-.613-.841-1.073l-.1-.668h-1.694l-.505,1.155c-.1.28-.324.516-.554.516h-.83c-.265,0-.439-.236-.381-.571l2.95-6.855a.718.718,0,0,1,.577-.487h.968c.219,0,.381.195.426.487l.784,5.49c.034.181.046.335.08.348a.529.529,0,0,1,.2.5l-.069.459C4503.657,1480.2,4503.092,1480.371,4502.723,1480.371Zm-1.9-3.51h.7l-.161-1.268Z" transform="translate(-4497.802 -1472.388)"/></g><g transform="translate(61.702)"><path class="b" d="M4504.44,1480.3c-.276,0-.437-.236-.379-.571l.98-6.771a.61.61,0,0,1,.554-.571h.749c.265,0,.437.237.38.571l-.8,5.461h2.155c.265,0,.438.236.393.558l-.1.752a.619.619,0,0,1-.554.571Z" transform="translate(-4504.049 -1472.388)"/></g></g></g><g transform="translate(197.255 127.066)"><path class="b" d="M4413,1557.2a.566.566,0,0,1-.576-.53l-1.137-7.384a.789.789,0,0,1,.728-.7h1.046a.6.6,0,0,1,.546.546l.728,4.746,2.4-4.746a1.007,1.007,0,0,1,.758-.546h1.047c.349,0,.546.3.485.7l-3.746,7.384a.885.885,0,0,1-.758.53Z" transform="translate(-4411.289 -1547.296)"/><path class="b" d="M4422.485,1552.059l-.834,4.67a.686.686,0,0,1-.682.591h-.713c-.273,0-.47-.061-.546-.288l-.045-.12a2.426,2.426,0,0,1-1.379.485c-1.713,0-2.017-1.441-1.744-2.987a3.77,3.77,0,0,1,3.761-3.322,5.405,5.405,0,0,1,1.9.365A.54.54,0,0,1,4422.485,1552.059Zm-2.411,1.107a1.4,1.4,0,0,0-1.3,1.244c-.135.8.167.94.485.94a1.112,1.112,0,0,0,.47-.182Zm.667-5.52a.922.922,0,0,1,.562-.228.448.448,0,0,1,.408.167l.471.683a.6.6,0,0,1,.12.5.836.836,0,0,1-.424.516l-1.517,1.076a1.16,1.16,0,0,1-.576.182.588.588,0,0,1-.438-.242l-.214-.274a.627.627,0,0,1-.166-.515,1.249,1.249,0,0,1,.151-.333Z" transform="translate(-4410.749 -1547.418)"/><path class="b" d="M4423.168,1549.192a.726.726,0,0,1,.7-.607h1.016a.484.484,0,0,1,.5.607l-1.077,6.036c-.03.181,0,.273.046.288a.479.479,0,0,1,.227.53l-.091.485a.721.721,0,0,1-.591.592,3.045,3.045,0,0,1-.849.151c-1.213,0-1.122-1.077-1.031-1.607Z" transform="translate(-4410.172 -1547.296)"/><path class="b" d="M4426.972,1556.61a.742.742,0,0,1-.713.606h-1.017a.469.469,0,0,1-.485-.606l.865-4.928a.712.712,0,0,1,.7-.606h1.016a.484.484,0,0,1,.5.606Zm.333-8.2a.939.939,0,0,1,.956,1.168,1.423,1.423,0,0,1-1.365,1.167.955.955,0,0,1-.97-1.167A1.452,1.452,0,0,1,4427.3,1548.407Z" transform="translate(-4409.882 -1547.315)"/><path class="b" d="M4432.98,1556.334a.823.823,0,0,1-.517.606,7.643,7.643,0,0,1-2.259.334c-2.062,0-2.881-1.258-2.517-3.261a3.341,3.341,0,0,1,3.291-3.048,2.455,2.455,0,0,1,.713.092l.333-1.88a.7.7,0,0,1,.7-.592h1.031a.464.464,0,0,1,.486.592Zm-2.473-1.107c.061,0,.3-.016.455-.031l.365-2.092a.972.972,0,0,0-.365-.076c-.485,0-.879.243-1,.985C4429.811,1554.817,4429.933,1555.227,4430.508,1555.227Z" transform="translate(-4409.582 -1547.296)"/><path class="b" d="M4433.33,1553.834a3.384,3.384,0,0,1,3.549-3.094c2.062,0,2.79,1.228,2.456,3.094-.348,2-1.5,3.215-3.563,3.215S4432.982,1555.836,4433.33,1553.834Zm3.791.016c.077-.441.031-1.047-.605-1.047s-.9.606-.971,1.047-.137,1.152.576,1.152S4437.046,1554.3,4437.121,1553.85Z" transform="translate(-4408.992 -1547.07)"/><path class="b" d="M4441.977,1551.681a.938.938,0,0,1,.605-.653,8.235,8.235,0,0,1,2.169-.288c2.062,0,2.866,1.259,2.518,3.261a3.332,3.332,0,0,1-3.625,3.048h-.393l-.411,2.29a.715.715,0,0,1-.7.606h-1.031a.475.475,0,0,1-.485-.606ZM4443.6,1555h.288a1.123,1.123,0,0,0,1.167-1c.137-.8-.045-1.2-.622-1.2a2.584,2.584,0,0,0-.438.031Z" transform="translate(-4408.221 -1547.07)"/><path class="b" d="M4452.77,1551.711l-.835,4.67a.684.684,0,0,1-.682.591h-.712c-.273,0-.47-.061-.545-.288l-.045-.12a2.43,2.43,0,0,1-1.381.485c-1.713,0-2.017-1.44-1.743-2.987a3.77,3.77,0,0,1,3.76-3.322,5.391,5.391,0,0,1,1.9.365A.539.539,0,0,1,4452.77,1551.711Zm-2.41,1.107a1.4,1.4,0,0,0-1.3,1.244c-.138.8.166.94.484.94a1.118,1.118,0,0,0,.471-.182Z" transform="translate(-4407.58 -1547.07)"/><path class="b" d="M4457.331,1551.24a.6.6,0,0,1,.2.546.548.548,0,0,1-.09.213l-.41.7a.765.765,0,0,1-.606.379.466.466,0,0,1-.243-.075,1.833,1.833,0,0,0-.727-.2.882.882,0,0,0-.486.137l-.606,3.442a.685.685,0,0,1-.683.591h-1.03a.472.472,0,0,1-.5-.591l.788-4.458a.823.823,0,0,1,.409-.561,4.083,4.083,0,0,1,2.411-.622A2.136,2.136,0,0,1,4457.331,1551.24Z" transform="translate(-4407.016 -1547.07)"/><path class="b" d="M4462.27,1551.711l-.834,4.67a.685.685,0,0,1-.682.591h-.713c-.273,0-.47-.061-.546-.288l-.046-.12a2.426,2.426,0,0,1-1.379.485c-1.714,0-2.018-1.44-1.745-2.987a3.77,3.77,0,0,1,3.76-3.322,5.4,5.4,0,0,1,1.9.365A.538.538,0,0,1,4462.27,1551.711Zm-2.411,1.107a1.4,1.4,0,0,0-1.3,1.244c-.136.8.167.94.485.94a1.112,1.112,0,0,0,.47-.182Z" transform="translate(-4406.587 -1547.07)"/><path class="b" d="M4469.932,1551.938c-.016.091-.029.122-.484.819a.669.669,0,0,1-.607.349.9.9,0,0,1-.3-.106,2.123,2.123,0,0,0-1.031-.2,1.2,1.2,0,0,0-1.2,1.077c-.136.789.3,1.122.8,1.122a2.18,2.18,0,0,0,1.137-.228.712.712,0,0,1,.319-.076.522.522,0,0,1,.469.349,7.379,7.379,0,0,1,.213.789.954.954,0,0,1-.439.606,3.92,3.92,0,0,1-2.169.606c-2.031,0-2.9-1.168-2.547-3.169a3.471,3.471,0,0,1,3.654-3.139,2.852,2.852,0,0,1,1.956.622A.6.6,0,0,1,4469.932,1551.938Z" transform="translate(-4405.772 -1547.07)"/><path class="b" d="M4469.257,1553.834a3.382,3.382,0,0,1,3.548-3.094c2.063,0,2.79,1.228,2.457,3.094-.349,2-1.5,3.215-3.563,3.215S4468.908,1555.836,4469.257,1553.834Zm3.791.016c.075-.441.03-1.047-.606-1.047s-.895.606-.971,1.047-.136,1.152.577,1.152S4472.972,1554.3,4473.048,1553.85Z" transform="translate(-4405.233 -1547.07)"/><path class="b" d="M4475.6,1551.681a.881.881,0,0,1,.606-.653,5.163,5.163,0,0,1,1.864-.288,2.358,2.358,0,0,1,1.729.531,2.891,2.891,0,0,1,1.562-.516c1.76,0,1.834,1.2,1.547,2.79l-.5,2.835a.7.7,0,0,1-.683.591h-1.03a.472.472,0,0,1-.5-.591l.5-2.775c.137-.773.045-.8-.212-.8a1.2,1.2,0,0,0-.243.016c-.03.243-.09.561-.136.879l-.485,2.684a.686.686,0,0,1-.683.591h-.85a.472.472,0,0,1-.5-.591l.471-2.669c.136-.773.165-.91-.229-.91a1.594,1.594,0,0,0-.227.045l-.622,3.534a.685.685,0,0,1-.683.591h-1.031a.472.472,0,0,1-.5-.591Z" transform="translate(-4404.648 -1547.07)"/><path class="b" d="M4483.133,1551.681a.938.938,0,0,1,.606-.653,8.225,8.225,0,0,1,2.168-.288c2.063,0,2.867,1.259,2.518,3.261a3.331,3.331,0,0,1-3.624,3.048h-.395l-.408,2.29a.717.717,0,0,1-.7.606h-1.03a.475.475,0,0,1-.485-.606Zm1.623,3.321h.288a1.124,1.124,0,0,0,1.167-1c.136-.8-.045-1.2-.622-1.2a2.586,2.586,0,0,0-.439.031Z" transform="translate(-4403.914 -1547.07)"/><path class="b" d="M4493.023,1551.24a.6.6,0,0,1,.2.546.536.536,0,0,1-.092.213l-.408.7a.767.767,0,0,1-.606.379.466.466,0,0,1-.243-.075,1.835,1.835,0,0,0-.728-.2.881.881,0,0,0-.485.137l-.606,3.442a.685.685,0,0,1-.683.591h-1.03a.472.472,0,0,1-.5-.591l.788-4.458a.824.824,0,0,1,.409-.561,4.085,4.085,0,0,1,2.412-.622A2.131,2.131,0,0,1,4493.023,1551.24Z" transform="translate(-4403.282 -1547.07)"/><path class="b" d="M4497.963,1551.711l-.834,4.67a.686.686,0,0,1-.683.591h-.713c-.272,0-.469-.061-.546-.288l-.045-.12a2.433,2.433,0,0,1-1.381.485c-1.712,0-2.016-1.44-1.744-2.987a3.771,3.771,0,0,1,3.761-3.322,5.391,5.391,0,0,1,1.9.365A.54.54,0,0,1,4497.963,1551.711Zm-2.41,1.107a1.4,1.4,0,0,0-1.306,1.244c-.137.8.168.94.485.94a1.125,1.125,0,0,0,.471-.182Z" transform="translate(-4402.853 -1547.07)"/><path class="b" d="M4499.726,1555.137c.166,0,.606,0,.636-.151.061-.364-2.973-.257-2.638-2.214.2-1.077,1.06-2.032,3.032-2.032a13,13,0,0,1,1.456.182.539.539,0,0,1,.485.606l-.031.121a3.252,3.252,0,0,1-.2.683c-.136.363-.3.485-.562.485-.5-.031-.773-.076-1.075-.076-.547,0-.881,0-.895.092-.076.363,2.956.318,2.637,2.122-.227,1.32-1.409,2.093-3.153,2.093a5.643,5.643,0,0,1-1.819-.349.575.575,0,0,1-.333-.636,3.4,3.4,0,0,1,.363-.789.684.684,0,0,1,.637-.365.891.891,0,0,1,.212.031A5.242,5.242,0,0,0,4499.726,1555.137Z" transform="translate(-4402.295 -1547.07)"/><path class="b" d="M4447.278,1568.81a6.189,6.189,0,0,1-.758-.045c.182.44.667.471,1.062.471a3,3,0,0,0,1.47-.319.409.409,0,0,1,.183-.045.4.4,0,0,1,.364.3l.182.622a.63.63,0,0,1,.015.226.957.957,0,0,1-.409.577,3.711,3.711,0,0,1-2.274.607c-2.047,0-2.789-1.213-2.441-3.215a3.312,3.312,0,0,1,3.473-3.093c1.638,0,2.441.864,2.229,2.047C4450.113,1568.415,4448.673,1568.81,4447.278,1568.81Zm-.257-1.653c.061.151.348.257.637.257.227,0,.439-.075.47-.318.046-.212-.243-.257-.455-.257A.9.9,0,0,0,4447.021,1567.157Z" transform="translate(-4407.805 -1545.589)"/><path class="b" d="M4450.6,1565.838a.881.881,0,0,1,.607-.652,6.929,6.929,0,0,1,2.168-.288c2.047,0,2.668.925,2.32,2.956l-.486,2.684a.689.689,0,0,1-.7.592H4453.5a.473.473,0,0,1-.5-.592l.47-2.669c.137-.773.121-.909-.409-.909a2.59,2.59,0,0,0-.44.03l-.637,3.548a.7.7,0,0,1-.7.592h-1.016a.473.473,0,0,1-.5-.592Z" transform="translate(-4407.264 -1545.589)"/><path class="b" d="M4461.969,1562.742c2.093,0,3.034.91,2.669,2.988s-1.621,2.957-3.714,2.957h-.818l-.365,2.047a.746.746,0,0,1-.728.622h-.97a.489.489,0,0,1-.517-.622l1.289-7.37a.761.761,0,0,1,.742-.622Zm.456,2.973c.106-.561-.151-.91-.636-.91h-1l-.334,1.835h1A1.006,1.006,0,0,0,4462.424,1565.715Z" transform="translate(-4406.454 -1545.815)"/><path class="b" d="M4464.75,1563.349a.727.727,0,0,1,.7-.607h1.017a.484.484,0,0,1,.5.607l-1.076,6.036c-.031.182,0,.273.045.288a.48.48,0,0,1,.228.53l-.091.486a.723.723,0,0,1-.592.591,3.048,3.048,0,0,1-.85.151c-1.213,0-1.121-1.076-1.031-1.607Z" transform="translate(-4405.821 -1545.815)"/><path class="b" d="M4472.29,1565.868l-.833,4.67a.687.687,0,0,1-.682.592h-.713c-.272,0-.47-.061-.546-.288l-.045-.122a2.425,2.425,0,0,1-1.38.485c-1.713,0-2.017-1.441-1.745-2.987a3.771,3.771,0,0,1,3.762-3.321,5.423,5.423,0,0,1,1.9.363A.538.538,0,0,1,4472.29,1565.868Zm-2.41,1.107a1.4,1.4,0,0,0-1.3,1.244c-.137.8.166.94.485.94a1.118,1.118,0,0,0,.47-.182Z" transform="translate(-4405.538 -1545.589)"/><path class="b" d="M4472.5,1565.838a.88.88,0,0,1,.606-.652,6.928,6.928,0,0,1,2.168-.288c2.047,0,2.669.925,2.32,2.956l-.485,2.684a.69.69,0,0,1-.7.592H4475.4a.473.473,0,0,1-.5-.592l.471-2.669c.137-.773.121-.909-.41-.909a2.575,2.575,0,0,0-.438.03l-.638,3.548a.7.7,0,0,1-.7.592h-1.016a.472.472,0,0,1-.5-.592Z" transform="translate(-4404.973 -1545.589)"/><path class="b" d="M4483.652,1562.742c2.094,0,3.048.592,2.669,2.7a1.877,1.877,0,0,1-.864,1.456,1.72,1.72,0,0,1,.683,1.774c-.379,2.092-1.532,2.684-3.624,2.684h-2.579a.517.517,0,0,1-.516-.637l1.289-7.355a.775.775,0,0,1,.744-.622Zm.273,5.914c.09-.485-.334-.561-.834-.561h-1l-.212,1.213h1C4483.38,1569.308,4483.835,1569.2,4483.926,1568.656Zm-1.243-3.852-.213,1.214h.622c.484,0,.924-.061,1.031-.637.091-.516-.333-.577-.819-.577Z" transform="translate(-4404.162 -1545.815)"/><path class="b" d="M4486.893,1563.349a.729.729,0,0,1,.7-.607h1.017a.484.484,0,0,1,.5.607l-1.076,6.036c-.031.182,0,.273.045.288a.48.48,0,0,1,.228.53l-.091.486a.723.723,0,0,1-.592.591,3.051,3.051,0,0,1-.85.151c-1.213,0-1.122-1.076-1.031-1.607Z" transform="translate(-4403.505 -1545.815)"/><path class="b" d="M4494.434,1565.868l-.833,4.67a.686.686,0,0,1-.683.592h-.713c-.272,0-.47-.061-.546-.288l-.045-.122a2.429,2.429,0,0,1-1.381.485c-1.713,0-2.016-1.441-1.743-2.987a3.769,3.769,0,0,1,3.761-3.321,5.419,5.419,0,0,1,1.9.363A.539.539,0,0,1,4494.434,1565.868Zm-2.41,1.107a1.4,1.4,0,0,0-1.3,1.244c-.137.8.167.94.485.94a1.118,1.118,0,0,0,.471-.182Z" transform="translate(-4403.221 -1545.589)"/><path class="b" d="M4499.846,1566.1c-.015.091-.031.121-.485.818a.668.668,0,0,1-.607.349.883.883,0,0,1-.3-.106,2.136,2.136,0,0,0-1.032-.2,1.2,1.2,0,0,0-1.2,1.076c-.137.789.3,1.122.8,1.122a2.183,2.183,0,0,0,1.138-.228.7.7,0,0,1,.318-.076.523.523,0,0,1,.47.349,8.02,8.02,0,0,1,.212.789.947.947,0,0,1-.439.606,3.917,3.917,0,0,1-2.168.607c-2.032,0-2.9-1.168-2.548-3.169a3.471,3.471,0,0,1,3.655-3.138,2.863,2.863,0,0,1,1.957.621A.6.6,0,0,1,4499.846,1566.1Z" transform="translate(-4402.643 -1545.589)"/><path class="b" d="M4502.06,1570.1a2.986,2.986,0,0,0-.349-.834l-.213.076-.258,1.425a.686.686,0,0,1-.682.592h-1.032a.473.473,0,0,1-.5-.592l1.319-7.43a.7.7,0,0,1,.7-.592h1.03a.465.465,0,0,1,.486.592l-.653,3.654a2.919,2.919,0,0,0,1.244-1.228.738.738,0,0,1,.7-.546h1.016a.486.486,0,0,1,.485.622,4.989,4.989,0,0,1-1.637,2.335,4.071,4.071,0,0,1,.545,1.062l.532,1.44a.761.761,0,0,1-.7.683h-1.106a.814.814,0,0,1-.667-.5Z" transform="translate(-4402.111 -1545.815)"/></g><g transform="translate(221.593 10.903)"><g class="c"><g transform="translate(-18.839 -19.455)"><g transform="translate(0 0)"><g transform="translate(19.404)"><rect class="b" width="0.454" height="53.046" transform="matrix(0.769, -0.64, 0.64, 0.769, 0, 0.291)"/></g><g transform="translate(18.56 0.702)"><rect class="b" width="0.454" height="53.046" transform="matrix(0.769, -0.64, 0.64, 0.769, 0, 0.291)"/></g><g transform="translate(17.717 1.404)"><rect class="b" width="0.454" height="53.046" transform="matrix(0.769, -0.64, 0.64, 0.769, 0, 0.291)"/></g><g transform="translate(16.873 2.106)"><rect class="b" width="0.454" height="53.046" transform="matrix(0.769, -0.64, 0.64, 0.769, 0, 0.291)"/></g><g transform="translate(16.029 2.808)"><rect class="b" width="0.454" height="53.046" transform="matrix(0.769, -0.64, 0.64, 0.769, 0, 0.291)"/></g><g transform="translate(15.185 3.511)"><rect class="b" width="0.454" height="53.02" transform="matrix(0.769, -0.64, 0.64, 0.769, 0, 0.29)"/></g><g transform="translate(14.342 4.212)"><rect class="b" width="0.454" height="53.046" transform="matrix(0.769, -0.64, 0.64, 0.769, 0, 0.291)"/></g><g transform="translate(13.498 4.913)"><rect class="b" width="0.454" height="53.046" transform="matrix(0.769, -0.64, 0.64, 0.769, 0, 0.291)"/></g><g transform="translate(12.655 5.616)"><rect class="b" width="0.454" height="53.046" transform="matrix(0.769, -0.64, 0.64, 0.769, 0, 0.291)"/></g><g transform="translate(11.812 6.317)"><rect class="b" width="0.454" height="53.046" transform="matrix(0.769, -0.64, 0.64, 0.769, 0, 0.291)"/></g><g transform="translate(10.967 7.02)"><rect class="b" width="0.454" height="53.02" transform="matrix(0.769, -0.64, 0.64, 0.769, 0, 0.29)"/></g><g transform="translate(10.124 7.721)"><rect class="b" width="0.454" height="53.046" transform="matrix(0.769, -0.64, 0.64, 0.769, 0, 0.291)"/></g><g transform="translate(9.28 8.424)"><rect class="b" width="0.454" height="53.02" transform="matrix(0.769, -0.64, 0.64, 0.769, 0, 0.29)"/></g><g transform="translate(8.437 9.125)"><rect class="b" width="0.454" height="53.046" transform="matrix(0.769, -0.64, 0.64, 0.769, 0, 0.291)"/></g><g transform="translate(7.593 9.828)"><rect class="b" width="0.454" height="53.046" transform="matrix(0.769, -0.64, 0.64, 0.769, 0, 0.291)"/></g><g transform="translate(6.749 10.529)"><rect class="b" width="0.454" height="53.046" transform="matrix(0.769, -0.64, 0.64, 0.769, 0, 0.291)"/></g><g transform="translate(5.905 11.232)"><rect class="b" width="0.454" height="53.046" transform="matrix(0.769, -0.64, 0.64, 0.769, 0, 0.291)"/></g><g transform="translate(5.062 11.934)"><rect class="b" width="0.454" height="53.02" transform="matrix(0.769, -0.64, 0.64, 0.769, 0, 0.29)"/></g><g transform="translate(4.218 12.636)"><rect class="b" width="0.454" height="53.046" transform="matrix(0.769, -0.64, 0.64, 0.769, 0, 0.291)"/></g><g transform="translate(3.374 13.337)"><rect class="b" width="0.454" height="53.046" transform="matrix(0.769, -0.64, 0.64, 0.769, 0, 0.291)"/></g><g transform="translate(2.531 14.04)"><rect class="b" width="0.454" height="53.046" transform="matrix(0.769, -0.64, 0.64, 0.769, 0, 0.291)"/></g><g transform="translate(1.688 14.741)"><rect class="b" width="0.454" height="53.046" transform="matrix(0.769, -0.64, 0.64, 0.769, 0, 0.291)"/></g><g transform="translate(0.844 15.444)"><rect class="b" width="0.454" height="53.046" transform="matrix(0.769, -0.64, 0.64, 0.769, 0, 0.291)"/></g><g transform="translate(0 16.145)"><rect class="b" width="0.454" height="53.046" transform="matrix(0.769, -0.64, 0.64, 0.769, 0, 0.291)"/></g></g></g></g></g><g transform="translate(252.045)"><circle class="d" cx="3.195" cy="3.195" r="3.195"/></g><g transform="translate(172.385 128.077)"><path class="e" d="M4389.179,1549.445l2.771,1.164,1.964-2.277-.25,3,2.77,1.163-2.926.688-.251,2.995-1.558-2.571-2.925.687,1.963-2.276Z" transform="translate(-4388.774 -1548.333)"/></g><g transform="translate(0 2.844)"><g transform="translate(26.08)"><path class="d" d="M4256.329,1435.831c-.13.578,3.476,6.438,4.308,6.628.231.052.184-.241.386-.194.962.221-1.589-4.375-2.09-5.662C4258.093,1434.473,4256.6,1434.641,4256.329,1435.831Z" transform="translate(-4256.325 -1434.961)"/></g><g transform="translate(22.625 12.002)"><path class="d" d="M4254.6,1446.783c-.052-.087-.764-1.035-.908-.952C4251.956,1446.832,4255.452,1448.273,4254.6,1446.783Z" transform="translate(-4253.199 -1445.826)"/></g><g transform="translate(10.389 13.537)"><path class="d" d="M4243.038,1447.3a.9.9,0,0,0-.532-.064.481.481,0,0,0-.361.3c-.395,1.224,4.492,5.212,5.744,5.616.157.051.259.045.283-.032C4248.261,1452.841,4244.242,1447.683,4243.038,1447.3Z" transform="translate(-4242.122 -1447.216)"/></g><g transform="translate(15.006 26.628)"><path class="d" d="M4246.317,1459.382c-.191.593,1.485,2.418,1.878,1.189C4248.409,1459.912,4246.628,1458.419,4246.317,1459.382Z" transform="translate(-4246.302 -1459.067)"/></g><g transform="translate(0 31.677)"><path class="d" d="M4233.055,1463.639c-.567.161-.221.524-.316.825-.5,1.558,7.54,2.872,8.484,2.461.271-.118.414-.68.192-.753a.169.169,0,0,1-.076-.162C4241.347,1465.9,4233.252,1463.584,4233.055,1463.639Z" transform="translate(-4232.717 -1463.638)"/></g><g transform="translate(4.97 42.47)"><path class="d" d="M4239.41,1473.464a4.355,4.355,0,0,0-1.944.128c-.594.382.024,1.4.28,1.232a.739.739,0,0,1,.332.039C4238.757,1475.053,4240.708,1474.081,4239.41,1473.464Z" transform="translate(-4237.216 -1473.409)"/></g></g><g transform="translate(309.157 68.191)"><g transform="translate(0 45.363)"><path class="b" d="M4520.642,1539.84c-.1-.611-6.535-4.805-7.527-4.649-.276.045-.1.307-.344.346-1.152.183,3.59,3.581,4.683,4.62C4519.265,1541.871,4520.845,1541.1,4520.642,1539.84Z" transform="translate(-4512.591 -1535.186)"/></g><g transform="translate(4.91 36.721)"><path class="b" d="M4517.376,1528.132c.094.064,1.276.69,1.4.552C4520.269,1527.01,4515.806,1527.043,4517.376,1528.132Z" transform="translate(-4517.036 -1527.362)"/></g><g transform="translate(10.894 27.984)"><path class="b" d="M4530.561,1523.143a1.2,1.2,0,0,0,.615-.156.516.516,0,0,0,.271-.442c-.08-1.342-7.144-3.2-8.695-3.088-.2.016-.3.062-.3.146C4522.473,1519.912,4529.073,1523.26,4530.561,1523.143Z" transform="translate(-4522.454 -1519.453)"/></g><g transform="translate(6.731 19.279)"><path class="b" d="M4521.263,1512.6c-.038-.651-2.651-1.731-2.575-.381C4518.73,1512.943,4521.327,1513.655,4521.263,1512.6Z" transform="translate(-4518.686 -1511.572)"/></g><g transform="translate(12.972 8.151)"><path class="b" d="M4534.879,1503.1c.558-.386.022-.593,0-.927-.1-1.71-9.521.3-10.392,1.078-.25.221-.172.828.1.806a.181.181,0,0,1,.152.126C4524.784,1504.288,4534.689,1503.232,4534.879,1503.1Z" transform="translate(-4524.336 -1501.498)"/></g><g transform="translate(10.723)"><path class="b" d="M4523.013,1496.166a5.64,5.64,0,0,0,2.091-.916c.494-.611-.613-1.34-.827-1.075a.981.981,0,0,1-.383.1C4523.064,1494.365,4521.318,1496.1,4523.013,1496.166Z" transform="translate(-4522.299 -1494.119)"/></g></g><g transform="translate(51.063 10.347)"><path class="b" d="M4290.813,1456.517v3.071c0,3.7-2.027,5.813-5.934,5.813s-5.936-2.114-5.936-5.812v-12.021c0-3.7,2.026-5.813,5.936-5.813s5.934,2.114,5.934,5.813v2.245h-3.764v-2.476c0-1.651-.795-2.28-2.062-2.28s-2.063.628-2.063,2.28v12.48c0,1.651.8,2.247,2.063,2.247s2.063-.594,2.063-2.247v-3.3Z" transform="translate(-4278.942 -1441.754)"/><g transform="translate(12.594 0.266)"><path class="b" d="M4295.375,1457.45l-5.03-15.455h4.161l3.04,10.536,3.04-10.536h3.8l-5.029,15.455v7.662h-3.98Z" transform="translate(-4290.345 -1441.995)"/></g><g transform="translate(28.227 0.263)"><path class="b" d="M4316.4,1447.311v.826c0,2.378-.8,3.9-2.569,4.656,2.135.76,2.968,2.51,2.968,4.953v1.882c0,3.567-2.063,5.482-6.043,5.482H4304.5v-23.119h6.007C4314.629,1441.994,4316.4,1443.744,4316.4,1447.311Zm-7.926-2.015v6.105h1.554c1.485,0,2.389-.594,2.389-2.442v-1.285c0-1.652-.615-2.378-2.026-2.378Zm0,9.412v7.1h2.281c1.34,0,2.062-.562,2.062-2.279v-2.015c0-2.146-.76-2.807-2.569-2.807Z" transform="translate(-4304.496 -1441.992)"/></g><g transform="translate(42.922 0.265)"><path class="b" d="M4321.778,1451.736h5.466v3.3h-5.466v6.772h6.875v3.3H4317.8v-23.117h10.853v3.3h-6.875Z" transform="translate(-4317.8 -1441.994)"/></g><g transform="translate(56.237 0.263)"><path class="b" d="M4338.177,1465.112a6.557,6.557,0,0,1-.362-2.84v-3.633c0-2.146-.8-2.94-2.605-2.94h-1.376v9.412h-3.98v-23.119h6.008c4.126,0,5.9,1.751,5.9,5.319v1.816c0,2.378-.833,3.934-2.606,4.69,1.99.76,2.642,2.51,2.642,4.92v3.567a6.267,6.267,0,0,0,.435,2.807Zm-4.342-19.815v7.1h1.555c1.484,0,2.388-.594,2.388-2.441v-2.277c0-1.651-.614-2.378-2.027-2.378Z" transform="translate(-4329.853 -1441.992)"/></g></g><g transform="translate(151.633 79.046)"><path class="b" d="M4374.222,1514.4h6.162v-6.219a4.234,4.234,0,0,1,4.233-4.234h.3a4.234,4.234,0,0,1,4.234,4.234h0v6.219h6.218a4.234,4.234,0,0,1,4.233,4.234h0v.3a4.235,4.235,0,0,1-4.233,4.234h-6.218v6.161a4.235,4.235,0,0,1-4.233,4.235h-.3a4.236,4.236,0,0,1-4.235-4.235v-6.161h-6.162a4.235,4.235,0,0,1-4.234-4.234h0v-.3A4.235,4.235,0,0,1,4374.222,1514.4Z" transform="translate(-4369.987 -1503.946)"/></g><g transform="translate(153.4 80.141)"><path class="f" d="M4375.821,1515.39h6.161v-6.218a4.235,4.235,0,0,1,4.234-4.235h.3a4.234,4.234,0,0,1,4.234,4.235v6.218h6.218a4.234,4.234,0,0,1,4.234,4.234h0v.3a4.236,4.236,0,0,1-4.234,4.235h-6.218v6.161a4.234,4.234,0,0,1-4.234,4.234h-.3a4.234,4.234,0,0,1-4.234-4.234h0v-6.161h-6.161a4.236,4.236,0,0,1-4.234-4.235v-.3A4.236,4.236,0,0,1,4375.821,1515.39Z" transform="translate(-4371.587 -1504.937)"/></g><g transform="translate(190.599 63.886)"><g transform="translate(29.098 0.868)"><g transform="translate(0 0.35)"><path class="f" d="M4452.427,1510.371c17.367,0,15.8,11.339,15.1,15.678-1.746,9.921-10.123,16.034-21.992,16.034a55.993,55.993,0,0,1-11.082-1.326c-1.657-.353-3.143-1.594-2.793-3.542.174-.709.524-2.125,1.222-4.783.7-2.745,2.442-3.277,4.538-3.277l3.49.442a61.54,61.54,0,0,0,7.5.531c4.1,0,5.847-1.151,6.371-4.34.349-1.767-.7-3.366-4.1-3.366h-13a2.781,2.781,0,0,1-2.879-3.544l4.1-23.915a4.307,4.307,0,0,1,4.188-3.632h25.568a2.819,2.819,0,0,1,3,2.63,2.851,2.851,0,0,1-.116,1l-.786,4.871a4.308,4.308,0,0,1-4.188,3.544h-16.319l-1.221,7Z" transform="translate(-4431.605 -1491.324)"/></g><g transform="translate(39.787)"><path class="f" d="M4468.466,1516.872c3.667-20.988,12.742-25.864,24.61-25.864s19.286,4.871,15.622,25.864c-3.4,19.662-12.482,25.244-24.348,25.244C4472.307,1542.115,4465.063,1536.535,4468.466,1516.872Zm27.49,0c2.269-13.02-2.007-13.819-4.971-13.819s-7.5.8-9.773,13.819c-2.1,11.957,2.1,13.285,5.148,13.285,2.877,0,7.5-1.329,9.6-13.285Z" transform="translate(-4467.625 -1491.008)"/></g></g><g transform="translate(0 0.433)"><path class="f" d="M4418.029,1497.043l-4.018.875-.762-.816.246-1.486a2.83,2.83,0,0,0,.038-1.325.55.55,0,0,0-.563-.277.946.946,0,0,0-.767.393,2.581,2.581,0,0,0-.433,1.169,3.13,3.13,0,0,0,.017,1.509,2.987,2.987,0,0,0,1.251,1.208,11.425,11.425,0,0,1,3.777,3.343,7.324,7.324,0,0,1,.2,4.267,8.51,8.51,0,0,1-1.01,3.167,5.005,5.005,0,0,1-2.2,1.728,8.374,8.374,0,0,1-3.433.726,6.586,6.586,0,0,1-3.425-.753,3.013,3.013,0,0,1-1.589-2,10.118,10.118,0,0,1,.127-3.476l.221-1.314,4.8-.056.761.816-1.165,1.625a3.1,3.1,0,0,0-.036,1.448.646.646,0,0,0,.663.314,1.021,1.021,0,0,0,.835-.419,2.709,2.709,0,0,0,.451-1.215,3.534,3.534,0,0,0-.1-2.312,11.848,11.848,0,0,0-2.116-1.793,18.1,18.1,0,0,1-2.237-1.841,3.485,3.485,0,0,1-.767-1.6,6.862,6.862,0,0,1,.033-2.621,8.4,8.4,0,0,1,1.149-3.376,5.1,5.1,0,0,1,2.155-1.691,8.18,8.18,0,0,1,3.225-.641,7.27,7.27,0,0,1,3.3.614,2.787,2.787,0,0,1,1.594,1.63,8.587,8.587,0,0,1-.1,3.385Z" transform="translate(-4405.263 -1490.614)"/></g><g transform="translate(11.487)"><path class="f" d="M4428.615,1490.222l1.089,1.087-10.282,19.837-3,.858-.761-.816,9.267-20.918Z" transform="translate(-4415.662 -1490.222)"/></g><g transform="translate(1.474 1.251)"><path class="b" d="M4419.368,1497.781l-4.781.058.247-1.486a2.836,2.836,0,0,0,.036-1.325.549.549,0,0,0-.562-.277.947.947,0,0,0-.768.393,2.6,2.6,0,0,0-.432,1.169,3.154,3.154,0,0,0,.015,1.509,3,3,0,0,0,1.253,1.207,11.371,11.371,0,0,1,3.777,3.343,7.331,7.331,0,0,1,.2,4.267,8.546,8.546,0,0,1-1.009,3.168,5.024,5.024,0,0,1-2.2,1.728,8.412,8.412,0,0,1-3.433.726,6.606,6.606,0,0,1-3.425-.753,3.017,3.017,0,0,1-1.59-2,10.092,10.092,0,0,1,.125-3.476l.221-1.314,4.8-.056-.4,2.441a3.1,3.1,0,0,0-.037,1.448.652.652,0,0,0,.663.314,1.022,1.022,0,0,0,.835-.419,2.708,2.708,0,0,0,.452-1.215,3.514,3.514,0,0,0-.1-2.312,11.716,11.716,0,0,0-2.114-1.792,18.328,18.328,0,0,1-2.238-1.841,3.49,3.49,0,0,1-.766-1.6,6.87,6.87,0,0,1,.032-2.621,8.422,8.422,0,0,1,1.15-3.376,5.075,5.075,0,0,1,2.155-1.69,8.144,8.144,0,0,1,3.224-.641,7.247,7.247,0,0,1,3.3.613,2.789,2.789,0,0,1,1.592,1.631,8.588,8.588,0,0,1-.1,3.384Z" transform="translate(-4406.598 -1491.355)"/></g><g transform="translate(12.578 1.086)"><path class="b" d="M4429.6,1491.205l-9.194,20.924-3.755.043,9.265-20.918Z" transform="translate(-4416.65 -1491.205)"/></g><g transform="translate(32.199 3.207)"><g transform="translate(0 0.351)"><path class="b" d="M4455.234,1512.489c17.365,0,15.8,11.339,15.1,15.678-1.745,9.921-10.123,16.034-21.992,16.034a56.037,56.037,0,0,1-11.083-1.325c-1.657-.355-3.141-1.594-2.792-3.543.175-.709.523-2.125,1.222-4.783.7-2.746,2.443-3.277,4.538-3.277l3.491.442a61.807,61.807,0,0,0,7.5.531c4.1,0,5.847-1.151,6.371-4.34.349-1.767-.7-3.366-4.1-3.366h-13a2.781,2.781,0,0,1-2.88-3.543l4.1-23.916a4.308,4.308,0,0,1,4.188-3.632h25.569a2.818,2.818,0,0,1,2.879,3.632l-.785,4.871a4.31,4.31,0,0,1-4.188,3.543h-16.319l-1.221,7Z" transform="translate(-4434.413 -1493.442)"/></g><g transform="translate(39.789)"><path class="b" d="M4471.273,1518.989c3.666-20.988,12.742-25.864,24.61-25.864s19.285,4.873,15.621,25.864c-3.4,19.662-12.482,25.244-24.348,25.244C4475.114,1544.233,4467.871,1538.653,4471.273,1518.989Zm27.49,0c2.269-13.02-2.006-13.818-4.971-13.818s-7.5.8-9.773,13.818c-2.1,11.958,2.1,13.286,5.149,13.286C4492.044,1532.275,4496.669,1530.947,4498.763,1518.989Z" transform="translate(-4470.432 -1493.125)"/></g></g></g><g transform="translate(36.204 47.89)"><ellipse class="f" cx="46.318" cy="46.337" rx="46.318" ry="46.337"/></g><g transform="translate(40.834 47.909)"><ellipse class="b" cx="46.318" cy="46.337" rx="46.318" ry="46.337"/></g><g transform="translate(50.872 74.766)"><g transform="translate(0 0.062)"><path class="f" d="M4284.589,1509.474h-5.819v-9.347h16.284v42.932h-10.465Z" transform="translate(-4278.77 -1500.127)"/></g><g transform="translate(22.513)"><path class="f" d="M4327.073,1500.071v8.824h-18.342v8.116a10.757,10.757,0,0,1,7.876-2.941c9.348,0,12.933,7.116,12.933,14.055,0,9.058-5.291,14.938-14.814,14.938-9.642,0-15.227-5.352-15.575-12.76h9.816a5.083,5.083,0,0,0,5.413,4.234c3.819,0,5.467-2.762,5.467-6.469,0-3.882-1.94-5.94-5.523-5.94a4.75,4.75,0,0,0-5,3.528h-9.7v-25.584Z" transform="translate(-4299.151 -1500.071)"/></g></g><g transform="translate(106.82 74.635)"><path class="f" d="M4332.734,1499.962a3.345,3.345,0,1,1-3.3,3.386v-.043a3.08,3.08,0,0,1,2.794-3.34A3.127,3.127,0,0,1,4332.734,1499.962Zm-.969,3.343c0,.931.357,1.347.95,1.347s.969-.416.969-1.347c0-.949-.376-1.364-.969-1.364s-.952.416-.952,1.364Zm7.836-3.125h3.257l-7.616,13.931h-3.264Zm2.532,7.46a3.345,3.345,0,1,1-3.282,3.406v-.061a3.071,3.071,0,0,1,2.773-3.34A3.012,3.012,0,0,1,4342.133,1507.639Zm-.97,3.345c0,.928.356,1.345.949,1.345s.969-.415.969-1.345-.377-1.365-.969-1.365-.951.434-.951,1.365Z" transform="translate(-4329.419 -1499.953)"/></g><g transform="translate(106.212 94.221)"><g transform="translate(0 0.064)"><path class="f" d="M4333.032,1520.064a2.238,2.238,0,0,1-2.151,2.325,2.149,2.149,0,0,1-.279-.005h-1.734v-4.633h1.734a2.238,2.238,0,0,1,2.423,2.036A1.946,1.946,0,0,1,4333.032,1520.064Zm-2.5,1.341a1.345,1.345,0,0,0,0-2.691H4330v2.688Z" transform="translate(-4328.868 -1517.742)"/></g><g transform="translate(4.667)"><path class="f" d="M4334.9,1522.433c-.994,0-1.774-.495-1.807-1.436h1.2a.532.532,0,0,0,.532.528h.041c.331,0,.541-.162.541-.436,0-.858-2.32-.4-2.3-2.039,0-.877.719-1.365,1.689-1.365,1.01,0,1.688.5,1.735,1.382h-1.216a.5.5,0,0,0-.522-.482h-.011a.412.412,0,0,0-.471.34.444.444,0,0,0,0,.081c0,.805,2.288.442,2.288,1.988a1.5,1.5,0,0,1-1.7,1.439Z" transform="translate(-4333.093 -1517.684)"/></g><g transform="translate(8.637 0.016)"><path class="f" d="M4339.043,1517.7a2.148,2.148,0,0,1,2.2,1.623H4340a1.018,1.018,0,0,0-.969-.594,1.344,1.344,0,0,0,0,2.666,1.022,1.022,0,0,0,.97-.593h1.24a2.144,2.144,0,0,1-2.2,1.616,2.358,2.358,0,0,1,0-4.717h0Z" transform="translate(-4336.687 -1517.698)"/></g><g transform="translate(13.627 0.074)"><path class="f" d="M4341.205,1517.751h3.582v.9h-1.227v3.728h-1.128v-3.728H4341.2Z" transform="translate(-4341.204 -1517.751)"/></g><g transform="translate(17.59 0.004)"><path class="f" d="M4347.168,1522.431a2.372,2.372,0,1,1,2.367-2.376h0a2.329,2.329,0,0,1-2.282,2.375h-.085Zm0-1.03a1.216,1.216,0,0,0,1.228-1.2h0a1.275,1.275,0,0,0-.008-.15,1.228,1.228,0,1,0-1.215,1.346Z" transform="translate(-4344.792 -1517.688)"/></g></g><g transform="translate(12.318 167.836)"><g transform="translate(0 0.555)"><path class="b" d="M4226.962,1594.279l.946-4.454c.1-.417.281-.61.663-.61h.191c.372,0,.583.221.49.635l-.884,4.108h2.154c.366,0,.573.154.573.4a1.057,1.057,0,0,1-.228.625c-.091.1-.221.147-.519.147h-2.717C4227.08,1595.135,4226.833,1594.85,4226.962,1594.279Z" transform="translate(-4226.928 -1589.215)"/></g><g transform="translate(4.715 1.926)"><path class="b" d="M4234.484,1594.183a1.858,1.858,0,0,1-1.6.926,1.656,1.656,0,0,1-1.688-1.624c0-.064,0-.128.007-.192a2.7,2.7,0,0,1,2.43-2.835,1.559,1.559,0,0,1,1.427.8.9.9,0,0,1,.935-.727c.254,0,.454.112.454.155l-.69,3.217c-.11.492-.018.673.325.737.008.009-.056.453-.709.453a.8.8,0,0,1-.9-.675h0a.77.77,0,0,1,0-.232Zm.227-1.318.127-.616a1.011,1.011,0,0,0-1.028-.79,1.53,1.53,0,0,0-1.363,1.657.9.9,0,0,0,.809.975h.091a1.459,1.459,0,0,0,1.365-1.228Z" transform="translate(-4231.196 -1590.456)"/></g><g transform="translate(11.823 1.924)"><path class="b" d="M4237.634,1593.075a2.516,2.516,0,0,1,2.407-2.615h.1a1.976,1.976,0,0,1,2.123,1.817h0a1.857,1.857,0,0,1,0,.221,2.512,2.512,0,0,1-2.405,2.615h-.1a1.975,1.975,0,0,1-2.122-1.818C4237.632,1593.223,4237.632,1593.149,4237.634,1593.075Zm3.517-.528a1.052,1.052,0,0,0-.986-1.116h-.059a1.494,1.494,0,0,0-1.354,1.6,1.05,1.05,0,0,0,.993,1.1h.057a1.487,1.487,0,0,0,1.354-1.588Z" transform="translate(-4237.632 -1590.454)"/></g><g transform="translate(17.04 0.105)"><path class="b" d="M4242.553,1594.6l.61-2.863h-.345c-.291,0-.463-.127-.463-.331a.947.947,0,0,1,.182-.536.584.584,0,0,1,.447-.127h.391l.073-.3c.253-1.208.908-1.635,1.735-1.635a1.311,1.311,0,0,1,.936.3.556.556,0,0,1,.163.391.649.649,0,0,1-.345.563.8.8,0,0,0-.617-.274c-.331,0-.545.182-.654.682l-.064.274h.6c.318,0,.49.137.49.332a.92.92,0,0,1-.19.536.571.571,0,0,1-.442.127h-.61l-.61,2.864c-.09.453-.263.61-.59.61h-.137C4242.764,1595.213,4242.453,1595.077,4242.553,1594.6Z" transform="translate(-4242.355 -1588.808)"/></g><g transform="translate(20.284 1.931)"><path class="b" d="M4245.293,1593.223a2.716,2.716,0,0,1,2.668-2.761h.122c1.126,0,1.753.528,1.753,1.3,0,.908-.583,1.453-2.553,1.453-.275,0-.572-.019-.908-.036v.027a.951.951,0,0,0,.892,1.008h0a.888.888,0,0,0,.188-.008,1.58,1.58,0,0,0,1.309-.645c.019-.027.544.065.544.482a.692.692,0,0,1-.243.546,2.244,2.244,0,0,1-1.627.528C4245.983,1595.112,4245.293,1594.313,4245.293,1593.223Zm1.244-.827c.236.019.448.026.637.026,1.236,0,1.582-.28,1.582-.627,0-.236-.244-.473-.726-.473A1.672,1.672,0,0,0,4246.537,1592.4Z" transform="translate(-4245.292 -1590.461)"/></g><g transform="translate(24.99 1.925)"><path class="b" d="M4251.442,1591.309a1.356,1.356,0,0,1,1.2-.854c.442,0,.79.254.79.627a.811.811,0,0,1-.572.809.788.788,0,0,0-.617-.264c-.572,0-.934.636-1.138,1.572l-.254,1.227c-.1.454-.265.61-.59.61h-.137c-.346,0-.655-.137-.552-.61l.809-3.817a.569.569,0,0,1,.354-.081.673.673,0,0,1,.717.63h0a.611.611,0,0,1-.007.149Z" transform="translate(-4249.552 -1590.455)"/></g><g transform="translate(29.139 0.859)"><path class="b" d="M4253.6,1593.541l.39-1.878h-.221c-.291,0-.464-.127-.464-.331a.947.947,0,0,1,.181-.537.581.581,0,0,1,.442-.127h.263l.054-.254c.127-.654.391-.924.954-.924.274,0,.482.11.472.154l-.221,1.029h.746c.308,0,.481.137.481.331a.869.869,0,0,1-.191.537.554.554,0,0,1-.436.127h-.827l-.391,1.816c-.118.536.064.762.417.762a.844.844,0,0,0,.546-.228c.035-.027.209.118.209.391a.676.676,0,0,1-.221.5,1.3,1.3,0,0,1-.944.308C4253.838,1595.222,4253.377,1594.613,4253.6,1593.541Z" transform="translate(-4253.308 -1589.49)"/></g><g transform="translate(32.531 1.926)"><path class="b" d="M4259.666,1594.183a1.856,1.856,0,0,1-1.6.926,1.656,1.656,0,0,1-1.688-1.624c0-.064,0-.128.006-.192a2.7,2.7,0,0,1,2.431-2.835,1.558,1.558,0,0,1,1.427.8.9.9,0,0,1,.935-.727c.254,0,.455.112.455.155l-.69,3.217c-.11.492-.017.673.325.737.01.009-.055.453-.708.453a.8.8,0,0,1-.9-.675h0a.8.8,0,0,1,0-.232Zm.228-1.318.126-.616a1.01,1.01,0,0,0-1.028-.79,1.529,1.529,0,0,0-1.362,1.657.9.9,0,0,0,.808.975h.091a1.462,1.462,0,0,0,1.364-1.228Z" transform="translate(-4256.379 -1590.456)"/></g><g transform="translate(39.818 0.859)"><path class="b" d="M4263.268,1593.541l.391-1.878h-.221c-.291,0-.463-.127-.463-.331a.927.927,0,0,1,.182-.537.576.576,0,0,1,.442-.127h.263l.055-.254c.126-.654.391-.924.955-.924.274,0,.482.11.472.154l-.221,1.029h.746c.307,0,.479.137.479.331a.871.871,0,0,1-.19.537.555.555,0,0,1-.437.127h-.832l-.391,1.816c-.118.536.064.762.417.762a.845.845,0,0,0,.545-.228c.036-.027.209.118.209.391a.685.685,0,0,1-.221.5,1.3,1.3,0,0,1-.946.308C4263.5,1595.222,4263.041,1594.613,4263.268,1593.541Z" transform="translate(-4262.975 -1589.49)"/></g><g transform="translate(43.187 1.931)"><path class="b" d="M4266.026,1593.223a2.718,2.718,0,0,1,2.669-2.761h.122c1.127,0,1.754.528,1.754,1.3,0,.908-.583,1.453-2.554,1.453-.274,0-.572-.019-.909-.036v.027a.953.953,0,0,0,.894,1.008h0a.9.9,0,0,0,.188-.008,1.572,1.572,0,0,0,1.308-.645c.02-.027.546.065.546.482a.7.7,0,0,1-.245.546,2.239,2.239,0,0,1-1.625.528C4266.716,1595.112,4266.026,1594.313,4266.026,1593.223Zm1.246-.827c.236.019.442.026.636.026,1.236,0,1.582-.28,1.582-.627,0-.236-.244-.473-.727-.473a1.673,1.673,0,0,0-1.489,1.072Z" transform="translate(-4266.025 -1590.461)"/></g><g transform="translate(47.894 1.925)"><path class="b" d="M4272.177,1591.309a1.354,1.354,0,0,1,1.2-.854c.441,0,.79.254.79.627a.811.811,0,0,1-.573.809.786.786,0,0,0-.616-.264c-.573,0-.935.636-1.138,1.572l-.254,1.227c-.1.454-.264.61-.591.61h-.137c-.346,0-.655-.137-.552-.61l.808-3.817a.562.562,0,0,1,.355-.081.674.674,0,0,1,.715.632.638.638,0,0,1-.008.149Z" transform="translate(-4270.287 -1590.455)"/></g><g transform="translate(51.657 1.936)"><path class="b" d="M4279.607,1594.3a4.237,4.237,0,0,1,.221-1.09,4.866,4.866,0,0,0,.191-.954.644.644,0,0,0-.559-.722h0a.619.619,0,0,0-.093,0,1.087,1.087,0,0,0-.955.591l-.491,2.309c-.1.464-.291.61-.616.61h-.137c-.331,0-.627-.138-.528-.61l.4-1.89c.127-.6-.127-1.009-.6-1.009a1.094,1.094,0,0,0-.955.582l-.49,2.32c-.1.472-.291.61-.617.61h-.137c-.346,0-.627-.137-.528-.61l.809-3.816a.562.562,0,0,1,.355-.082.673.673,0,0,1,.712.632h0a.63.63,0,0,1,0,.121,1.766,1.766,0,0,1,1.481-.827,1.263,1.263,0,0,1,1.29.963,1.9,1.9,0,0,1,1.635-.963,1.343,1.343,0,0,1,1.374,1.308h0v.121a5.861,5.861,0,0,1-.255,1.3,4.787,4.787,0,0,0-.221.981c0,.255.127.354.366.391.026,0-.073.528-.774.528C4279.88,1595.094,4279.607,1594.785,4279.607,1594.3Z" transform="translate(-4273.692 -1590.466)"/></g><g transform="translate(59.894)"><path class="b" d="M4281.2,1594.048l.583-2.716c.1-.464.264-.616.59-.616h.137c.345,0,.654.137.552.616l-.589,2.753c-.1.491-.02.681.354.737.009.009-.062.454-.746.454C4281.252,1595.277,4281.042,1594.768,4281.2,1594.048Zm.918-4.588a.711.711,0,0,1,.674-.746h0a.42.42,0,0,1,.072,0c.453,0,.709.228.709.552a.716.716,0,0,1-.686.744h-.061c-.454,0-.709-.224-.709-.551Z" transform="translate(-4281.15 -1588.713)"/></g><g transform="translate(62.144 1.926)"><path class="b" d="M4285.073,1591.323a1.786,1.786,0,0,1,1.526-.863,1.341,1.341,0,0,1,1.437,1.239h0a1.2,1.2,0,0,1,0,.2,5.439,5.439,0,0,1-.265,1.3,5.416,5.416,0,0,0-.208.981c0,.254.118.356.364.391.018,0-.072.528-.773.528-.6,0-.884-.308-.884-.791a4.706,4.706,0,0,1,.22-1.09,4.3,4.3,0,0,0,.2-.954.662.662,0,0,0-.579-.726h0a.7.7,0,0,0-.138,0,1.144,1.144,0,0,0-1.015.646l-.473,2.254c-.1.454-.265.61-.591.61h-.137c-.345,0-.652-.137-.552-.61l.809-3.816a.565.565,0,0,1,.354-.082.678.678,0,0,1,.718.637h0A.633.633,0,0,1,4285.073,1591.323Z" transform="translate(-4283.187 -1590.456)"/></g><g transform="translate(67.539 1.926)"><path class="b" d="M4291.358,1594.183a1.857,1.857,0,0,1-1.6.926,1.661,1.661,0,0,1-1.68-1.816,2.7,2.7,0,0,1,2.43-2.835,1.559,1.559,0,0,1,1.427.8.9.9,0,0,1,.935-.727c.254,0,.456.112.456.155l-.69,3.217c-.111.492-.019.673.325.737.01.009-.054.453-.709.453a.793.793,0,0,1-.9-.668h0a.752.752,0,0,1,0-.239Zm.228-1.318.127-.616a1.012,1.012,0,0,0-1.027-.79,1.53,1.53,0,0,0-1.362,1.657.9.9,0,0,0,.807.975h.091a1.462,1.462,0,0,0,1.365-1.228Z" transform="translate(-4288.072 -1590.456)"/></g><g transform="translate(74.622 1.931)"><path class="b" d="M4294.484,1593.223a2.716,2.716,0,0,1,2.669-2.761h.121c1.127,0,1.757.528,1.757,1.3,0,.908-.584,1.453-2.554,1.453-.275,0-.575-.019-.91-.036v.027a.952.952,0,0,0,.894,1.008h0a.9.9,0,0,0,.188-.008,1.578,1.578,0,0,0,1.309-.645c.018-.027.545.065.545.482a.7.7,0,0,1-.244.546,2.245,2.245,0,0,1-1.625.528C4295.176,1595.112,4294.484,1594.313,4294.484,1593.223Zm1.245-.827c.236.019.447.026.636.026,1.236,0,1.582-.28,1.582-.627,0-.236-.245-.473-.728-.473a1.673,1.673,0,0,0-1.49,1.072Z" transform="translate(-4294.484 -1590.461)"/></g><g transform="translate(79.328 1.926)"><path class="b" d="M4300.631,1591.322a1.79,1.79,0,0,1,1.526-.863,1.341,1.341,0,0,1,1.436,1.24h0a1.008,1.008,0,0,1,0,.2,5.483,5.483,0,0,1-.262,1.3,5.378,5.378,0,0,0-.209.981c0,.254.118.356.366.391.019,0-.071.528-.773.528-.6,0-.884-.308-.884-.791a4.674,4.674,0,0,1,.22-1.09,4.359,4.359,0,0,0,.2-.954.655.655,0,0,0-.576-.726h0a.773.773,0,0,0-.143,0,1.144,1.144,0,0,0-1.016.645l-.472,2.254c-.1.454-.264.61-.591.61h-.137c-.345,0-.654-.137-.552-.61l.809-3.817a.569.569,0,0,1,.354-.081.679.679,0,0,1,.719.635h0A.657.657,0,0,1,4300.631,1591.322Z" transform="translate(-4298.744 -1590.456)"/></g><g transform="translate(84.607 2.422)"><path class="b" d="M4303.523,1594.557a1.025,1.025,0,0,1,.236-.7.69.69,0,0,1,.573-.171c.417,0,.617.155.617.472a1.017,1.017,0,0,1-.237.7c-.117.117-.243.162-.574.162C4303.725,1595.02,4303.523,1594.876,4303.523,1594.557Zm.582-2.771a1.029,1.029,0,0,1,.238-.7.688.688,0,0,1,.573-.171c.417,0,.625.155.625.473a1.015,1.015,0,0,1-.236.7c-.119.118-.245.162-.572.162-.421,0-.629-.147-.629-.465Z" transform="translate(-4303.522 -1590.905)"/></g></g><path class="b" d="M4260.705,1584.223a17.442,17.442,0,0,1-12.362-4.844,11.844,11.844,0,0,1-3.623-9.6l10.3-103.542c.693-6.96,7.544-12.225,15.937-12.247v-.746c-8.815.023-16.017,5.578-16.745,12.924l-10.294,103.544a12.558,12.558,0,0,0,3.833,10.175,18.3,18.3,0,0,0,12.964,5.081h195.144v-.743Z" transform="translate(-4231.549 -1430.205)"/><g transform="translate(209.656 22.328)"><path class="b" d="M4519.318,1463.422c-2.171-5.991-8.295-10.009-15.243-10.009h-.051l-81.509.229v-.813l81.509-.23c7.313,0,13.771,4.217,16.064,10.545Z" transform="translate(-4422.516 -1452.6)"/></g><g transform="translate(59.011 148.159)"><circle class="d" cx="6.605" cy="6.605" r="6.605"/><g class="g" transform="translate(7.329 2.268)"><g class="h"><rect class="d" width="4.93" height="4.93"/><g transform="translate(0.391 0.391)"><circle class="d" cx="2.073" cy="2.073" r="2.073"/></g><g transform="translate(0.405 0.405)"><circle class="i" cx="2.06" cy="2.06" r="2.06"/></g><g transform="translate(0.42 0.42)"><circle class="j" cx="2.046" cy="2.046" r="2.046"/></g><g transform="translate(0.434 0.434)"><circle class="k" cx="2.031" cy="2.031" r="2.031"/></g><g transform="translate(0.448 0.448)"><circle class="l" cx="2.017" cy="2.017" r="2.017"/></g><g transform="translate(0.463 0.463)"><circle class="m" cx="2.003" cy="2.003" r="2.003"/></g><g transform="translate(0.476 0.476)"><circle class="n" cx="1.988" cy="1.988" r="1.988"/></g><g transform="translate(0.49 0.49)"><circle class="o" cx="1.974" cy="1.974" r="1.974"/></g><g transform="translate(0.505 0.505)"><circle class="p" cx="1.961" cy="1.961" r="1.961"/></g><g transform="translate(0.519 0.519)"><circle class="q" cx="1.946" cy="1.946" r="1.946"/></g><g transform="translate(0.533 0.533)"><circle class="r" cx="1.932" cy="1.932" r="1.932"/></g><g transform="translate(0.547 0.548)"><circle class="s" cx="1.918" cy="1.918" r="1.918"/></g><g transform="translate(0.562 0.562)"><circle class="t" cx="1.903" cy="1.903" r="1.903"/></g><g transform="translate(0.576 0.576)"><circle class="u" cx="1.889" cy="1.889" r="1.889"/></g><g transform="translate(0.59 0.59)"><circle class="v" cx="1.875" cy="1.875" r="1.875"/></g><g transform="translate(0.604 0.604)"><circle class="w" cx="1.861" cy="1.861" r="1.861"/></g><g transform="translate(0.619 0.619)"><circle class="x" cx="1.847" cy="1.847" r="1.847"/></g><g transform="translate(0.633 0.633)"><circle class="y" cx="1.833" cy="1.833" r="1.833"/></g><g transform="translate(0.647 0.647)"><circle class="z" cx="1.818" cy="1.818" r="1.818"/></g><g transform="translate(0.661 0.662)"><circle class="aa" cx="1.804" cy="1.804" r="1.804"/></g><g transform="translate(0.675 0.675)"><circle class="ab" cx="1.789" cy="1.789" r="1.789"/></g><g transform="translate(0.689 0.689)"><circle class="ac" cx="1.775" cy="1.775" r="1.775"/></g><g transform="translate(0.703 0.704)"><circle class="ad" cx="1.762" cy="1.762" r="1.762"/></g><g transform="translate(0.718 0.718)"><circle class="ae" cx="1.748" cy="1.748" r="1.748"/></g><g transform="translate(0.732 0.732)"><circle class="af" cx="1.733" cy="1.733" r="1.733"/></g><g transform="translate(0.746 0.747)"><circle class="ag" cx="1.719" cy="1.719" r="1.719"/></g><g transform="translate(0.761 0.761)"><circle class="ah" cx="1.704" cy="1.704" r="1.704"/></g><g transform="translate(0.774 0.774)"><circle class="ai" cx="1.69" cy="1.69" r="1.69"/></g><g transform="translate(0.789 0.789)"><circle class="aj" cx="1.676" cy="1.676" r="1.676"/></g><g transform="translate(0.803 0.803)"><circle class="ak" cx="1.662" cy="1.662" r="1.662"/></g><g transform="translate(0.817 0.817)"><circle class="al" cx="1.648" cy="1.648" r="1.648"/></g><g transform="translate(0.832 0.832)"><circle class="am" cx="1.634" cy="1.634" r="1.634"/></g><g transform="translate(0.846 0.846)"><circle class="an" cx="1.619" cy="1.619" r="1.619"/></g><g transform="translate(0.86 0.86)"><circle class="ao" cx="1.605" cy="1.605" r="1.605"/></g><g transform="translate(0.874 0.874)"><circle class="ap" cx="1.591" cy="1.591" r="1.591"/></g><g transform="translate(0.888 0.888)"><circle class="aq" cx="1.576" cy="1.576" r="1.576"/></g><g transform="translate(0.902 0.902)"><circle class="ar" cx="1.563" cy="1.563" r="1.563"/></g><g transform="translate(0.916 0.917)"><circle class="as" cx="1.549" cy="1.549" r="1.549"/></g><g transform="translate(0.931 0.931)"><circle class="at" cx="1.534" cy="1.534" r="1.534"/></g><g transform="translate(0.946 0.946)"><circle class="au" cx="1.52" cy="1.52" r="1.52"/></g><g transform="translate(0.96 0.96)"><circle class="av" cx="1.506" cy="1.506" r="1.506"/></g><g transform="translate(0.973 0.973)"><circle class="aw" cx="1.491" cy="1.491" r="1.491"/></g><g transform="translate(0.988 0.987)"><circle class="ax" cx="1.477" cy="1.477" r="1.477"/></g><g transform="translate(1.002 1.002)"><circle class="ay" cx="1.464" cy="1.464" r="1.464"/></g><g transform="translate(1.016 1.016)"><circle class="az" cx="1.449" cy="1.449" r="1.449"/></g><g transform="translate(1.03 1.031)"><circle class="ba" cx="1.435" cy="1.435" r="1.435"/></g><g transform="translate(1.045 1.045)"><circle class="bb" cx="1.421" cy="1.421" r="1.421"/></g><g transform="translate(1.059 1.059)"><circle class="bc" cx="1.406" cy="1.406" r="1.406"/></g><g transform="translate(1.072 1.073)"><circle class="bd" cx="1.392" cy="1.392" r="1.392"/></g><g transform="translate(1.087 1.087)"><circle class="be" cx="1.377" cy="1.377" r="1.377"/></g><g transform="translate(1.101 1.101)"><circle class="bf" cx="1.363" cy="1.363" r="1.363"/></g><g transform="translate(1.115 1.116)"><circle class="bg" cx="1.35" cy="1.35" r="1.35"/></g><g transform="translate(1.13 1.13)"><circle class="bh" cx="1.335" cy="1.335" r="1.335"/></g><g transform="translate(1.144 1.144)"><circle class="bi" cx="1.321" cy="1.321" r="1.321"/></g><g transform="translate(1.159 1.159)"><circle class="bj" cx="1.307" cy="1.307" r="1.307"/></g><g transform="translate(1.172 1.172)"><circle class="bk" cx="1.292" cy="1.292" r="1.292"/></g><g transform="translate(1.186 1.186)"><circle class="bl" cx="1.278" cy="1.278" r="1.278"/></g><g transform="translate(1.201 1.201)"><circle class="bm" cx="1.264" cy="1.264" r="1.264"/></g><g transform="translate(1.215 1.215)"><circle class="bn" cx="1.25" cy="1.25" r="1.25"/></g><g transform="translate(1.229 1.229)"><circle class="bo" cx="1.236" cy="1.236" r="1.236"/></g><g transform="translate(1.244 1.244)"><circle class="bp" cx="1.222" cy="1.222" r="1.222"/></g><g transform="translate(1.258 1.258)"><circle class="bq" cx="1.207" cy="1.207" r="1.207"/></g><g transform="translate(1.271 1.271)"><circle class="br" cx="1.193" cy="1.193" r="1.193"/></g><g transform="translate(1.286 1.286)"><circle class="bs" cx="1.179" cy="1.179" r="1.179"/></g><g transform="translate(1.3 1.3)"><circle class="bt" cx="1.164" cy="1.164" r="1.164"/></g><g transform="translate(1.314 1.314)"><circle class="bu" cx="1.151" cy="1.151" r="1.151"/></g><g transform="translate(1.328 1.329)"><circle class="bv" cx="1.137" cy="1.137" r="1.137"/></g><g transform="translate(1.343 1.343)"><circle class="bw" cx="1.122" cy="1.122" r="1.122"/></g><g transform="translate(1.358 1.358)"><circle class="bx" cx="1.108" cy="1.108" r="1.108"/></g><g transform="translate(1.371 1.371)"><circle class="by" cx="1.094" cy="1.094" r="1.094"/></g><g transform="translate(1.385 1.385)"><circle class="bz" cx="1.079" cy="1.079" r="1.079"/></g><g transform="translate(1.399 1.4)"><circle class="ca" cx="1.065" cy="1.065" r="1.065"/></g><g transform="translate(1.414 1.414)"><circle class="cb" cx="1.052" cy="1.052" r="1.052"/></g><g transform="translate(1.428 1.428)"><circle class="cc" cx="1.037" cy="1.037" r="1.037"/></g><g transform="translate(1.442 1.443)"><circle class="cd" cx="1.023" cy="1.023" r="1.023"/></g><g transform="translate(1.457 1.457)"><circle class="ce" cx="1.009" cy="1.009" r="1.009"/></g><g transform="translate(1.471 1.471)"><circle class="cf" cx="0.994" cy="0.994" r="0.994"/></g><g transform="translate(1.484 1.485)"><circle class="cg" cx="0.98" cy="0.98" r="0.98"/></g><g transform="translate(1.499 1.499)"><circle class="ch" cx="0.965" cy="0.965" r="0.965"/></g><g transform="translate(1.513 1.513)"><circle class="ci" cx="0.952" cy="0.952" r="0.952"/></g><g transform="translate(1.527 1.528)"><circle class="cj" cx="0.938" cy="0.938" r="0.938"/></g><g transform="translate(1.542 1.542)"><circle class="ck" cx="0.923" cy="0.923" r="0.923"/></g><g transform="translate(1.556 1.556)"><circle class="cl" cx="0.909" cy="0.909" r="0.909"/></g><g transform="translate(1.571 1.571)"><circle class="cm" cx="0.895" cy="0.895" r="0.895"/></g><g transform="translate(1.584 1.584)"><circle class="cn" cx="0.88" cy="0.88" r="0.88"/></g><g transform="translate(1.598 1.598)"><circle class="co" cx="0.866" cy="0.866" r="0.866"/></g><g transform="translate(1.613 1.613)"><circle class="cp" cx="0.853" cy="0.853" r="0.853"/></g><g transform="translate(1.627 1.627)"><circle class="cq" cx="0.838" cy="0.838" r="0.838"/></g><g transform="translate(1.641 1.641)"><circle class="cr" cx="0.824" cy="0.824" r="0.824"/></g><g transform="translate(1.656 1.656)"><circle class="cs" cx="0.81" cy="0.81" r="0.81"/></g><g transform="translate(1.67 1.67)"><circle class="ct" cx="0.795" cy="0.795" r="0.795"/></g><g transform="translate(1.683 1.683)"><circle class="cu" cx="0.781" cy="0.781" r="0.781"/></g><g transform="translate(1.697 1.698)"><circle class="cv" cx="0.767" cy="0.767" r="0.767"/></g><g transform="translate(1.712 1.712)"><circle class="cw" cx="0.753" cy="0.753" r="0.753"/></g><g transform="translate(1.727 1.727)"><circle class="cx" cx="0.739" cy="0.739" r="0.739"/></g><g transform="translate(1.741 1.741)"><circle class="cy" cx="0.725" cy="0.725" r="0.725"/></g><g transform="translate(1.755 1.755)"><circle class="cz" cx="0.71" cy="0.71" r="0.71"/></g><g transform="translate(1.77 1.77)"><circle class="da" cx="0.696" cy="0.696" r="0.696"/></g><g transform="translate(1.783 1.783)"><circle class="db" cx="0.682" cy="0.682" r="0.682"/></g><g transform="translate(1.797 1.797)"><circle class="dc" cx="0.667" cy="0.667" r="0.667"/></g><g transform="translate(1.811 1.812)"><circle class="dd" cx="0.654" cy="0.654" r="0.654"/></g><g transform="translate(1.826 1.826)"><circle class="de" cx="0.64" cy="0.64" r="0.64"/></g><g transform="translate(1.84 1.84)"><circle class="df" cx="0.625" cy="0.625" r="0.625"/></g><g transform="translate(1.854 1.855)"><circle class="dg" cx="0.611" cy="0.611" r="0.611"/></g><g transform="translate(1.869 1.869)"><circle class="dh" cx="0.596" cy="0.596" r="0.596"/></g><g transform="translate(1.882 1.882)"><circle class="di" cx="0.582" cy="0.582" r="0.582"/></g><g transform="translate(1.896 1.897)"><circle class="dj" cx="0.568" cy="0.568" r="0.568"/></g><g transform="translate(1.911 1.911)"><circle class="dk" cx="0.555" cy="0.555" r="0.555"/></g><g transform="translate(1.925 1.925)"><circle class="dl" cx="0.54" cy="0.54" r="0.54"/></g><g transform="translate(1.94 1.94)"><circle class="dm" cx="0.526" cy="0.526" r="0.526"/></g><g transform="translate(1.954 1.954)"><circle class="dn" cx="0.511" cy="0.511" r="0.511"/></g><g transform="translate(1.968 1.968)"><circle class="do" cx="0.497" cy="0.497" r="0.497"/></g><g transform="translate(1.982 1.983)"><circle class="dp" cx="0.483" cy="0.483" r="0.483"/></g><g transform="translate(1.996 1.996)"><circle class="dq" cx="0.468" cy="0.468" r="0.468"/></g><g transform="translate(2.01 2.01)"><circle class="dr" cx="0.454" cy="0.454" r="0.454"/></g><g transform="translate(2.025 2.025)"><circle class="ds" cx="0.441" cy="0.441" r="0.441"/></g><g transform="translate(2.039 2.039)"><circle class="dt" cx="0.426" cy="0.426" r="0.426"/></g><g transform="translate(2.053 2.054)"><circle class="du" cx="0.412" cy="0.412" r="0.412"/></g><g transform="translate(2.067 2.068)"><circle class="dv" cx="0.398" cy="0.398" r="0.398"/></g><g transform="translate(2.081 2.082)"><circle class="dw" cx="0.383" cy="0.383" r="0.383"/></g><g transform="translate(2.095 2.095)"><circle class="dx" cx="0.369" cy="0.369" r="0.369"/></g><g transform="translate(2.109 2.11)"><circle class="dy" cx="0.355" cy="0.355" r="0.355"/></g><g transform="translate(2.124 2.124)"><circle class="dz" cx="0.341" cy="0.341" r="0.341"/></g><g transform="translate(2.139 2.138)"><circle class="ea" cx="0.327" cy="0.327" r="0.327"/></g><g transform="translate(2.153 2.153)"><circle class="eb" cx="0.313" cy="0.313" r="0.313"/></g><g transform="translate(2.167 2.167)"><circle class="ec" cx="0.298" cy="0.298" r="0.298"/></g><g transform="translate(2.18 2.182)"><circle class="ed" cx="0.284" cy="0.284" r="0.284"/></g><g transform="translate(2.195 2.195)"><circle class="ee" cx="0.27" cy="0.27" r="0.27"/></g><g transform="translate(2.209 2.209)"><circle class="ef" cx="0.255" cy="0.255" r="0.255"/></g><g transform="translate(2.223 2.224)"><circle class="eg" cx="0.242" cy="0.242" r="0.242"/></g><g transform="translate(2.238 2.238)"><circle class="eh" cx="0.228" cy="0.228" r="0.228"/></g><g transform="translate(2.252 2.252)"><circle class="ei" cx="0.213" cy="0.213" r="0.213"/></g><g transform="translate(2.266 2.267)"><circle class="ej" cx="0.199" cy="0.199" r="0.199"/></g><g transform="translate(2.281 2.281)"><circle class="ek" cx="0.184" cy="0.184" r="0.184"/></g><g transform="translate(2.294 2.294)"><circle class="el" cx="0.17" cy="0.17" r="0.17"/></g><g transform="translate(2.308 2.309)"><circle class="em" cx="0.156" cy="0.156" r="0.156"/></g><g transform="translate(2.323 2.323)"><circle class="en" cx="0.142" cy="0.142" r="0.142"/></g><g transform="translate(2.337 2.337)"><circle class="eo" cx="0.128" cy="0.128" r="0.128"/></g><g transform="translate(2.352 2.352)"><circle class="ep" cx="0.114" cy="0.114" r="0.114"/></g><g transform="translate(2.366 2.366)"><circle class="eq" cx="0.099" cy="0.099" r="0.099"/></g><g transform="translate(2.38 2.38)"><circle class="er" cx="0.085" cy="0.085" r="0.085"/></g><g transform="translate(2.394 2.394)"><circle class="es" cx="0.071" cy="0.071" r="0.071"/></g><g transform="translate(2.408 2.408)"><circle class="et" cx="0.056" cy="0.056" r="0.056"/></g><g transform="translate(2.422 2.422)"><circle class="eu" cx="0.043" cy="0.043" r="0.043"/></g><g transform="translate(2.437 2.437)"><circle class="ev" cx="0.029" cy="0.029" r="0.029"/></g><g transform="translate(2.451 2.451)"><circle class="ew" cx="0.014" cy="0.014" r="0.014"/></g></g></g><g class="g" transform="translate(0.171 4.101)"><g class="h"><g transform="translate(0.001 0.001)"><rect class="d" width="4.93" height="4.93"/><g transform="translate(0.391 0.391)"><circle class="d" cx="2.073" cy="2.073" r="2.073"/></g><g transform="translate(0.405 0.405)"><circle class="i" cx="2.06" cy="2.06" r="2.06"/></g><g transform="translate(0.42 0.42)"><circle class="j" cx="2.046" cy="2.046" r="2.046"/></g><g transform="translate(0.434 0.434)"><circle class="k" cx="2.031" cy="2.031" r="2.031"/></g><g transform="translate(0.447 0.448)"><circle class="l" cx="2.017" cy="2.017" r="2.017"/></g><g transform="translate(0.462 0.462)"><circle class="m" cx="2.003" cy="2.003" r="2.003"/></g><g transform="translate(0.476 0.476)"><circle class="n" cx="1.988" cy="1.988" r="1.988"/></g><g transform="translate(0.49 0.491)"><circle class="o" cx="1.974" cy="1.974" r="1.974"/></g><g transform="translate(0.505 0.505)"><circle class="p" cx="1.961" cy="1.961" r="1.961"/></g><g transform="translate(0.519 0.519)"><circle class="q" cx="1.946" cy="1.946" r="1.946"/></g><g transform="translate(0.533 0.534)"><circle class="r" cx="1.932" cy="1.932" r="1.932"/></g><g transform="translate(0.546 0.548)"><circle class="s" cx="1.918" cy="1.918" r="1.918"/></g><g transform="translate(0.561 0.561)"><circle class="t" cx="1.903" cy="1.903" r="1.903"/></g><g transform="translate(0.576 0.576)"><circle class="u" cx="1.889" cy="1.889" r="1.889"/></g><g transform="translate(0.59 0.59)"><circle class="v" cx="1.875" cy="1.875" r="1.875"/></g><g transform="translate(0.604 0.604)"><circle class="w" cx="1.861" cy="1.861" r="1.861"/></g><g transform="translate(0.618 0.619)"><circle class="x" cx="1.847" cy="1.847" r="1.847"/></g><g transform="translate(0.633 0.633)"><circle class="y" cx="1.833" cy="1.833" r="1.833"/></g><g transform="translate(0.646 0.647)"><circle class="z" cx="1.818" cy="1.818" r="1.818"/></g><g transform="translate(0.66 0.661)"><circle class="aa" cx="1.804" cy="1.804" r="1.804"/></g><g transform="translate(0.675 0.675)"><circle class="ab" cx="1.789" cy="1.789" r="1.789"/></g><g transform="translate(0.689 0.689)"><circle class="ac" cx="1.775" cy="1.775" r="1.775"/></g><g transform="translate(0.703 0.704)"><circle class="ad" cx="1.762" cy="1.762" r="1.762"/></g><g transform="translate(0.718 0.718)"><circle class="ae" cx="1.748" cy="1.748" r="1.748"/></g><g transform="translate(0.732 0.732)"><circle class="af" cx="1.733" cy="1.733" r="1.733"/></g><g transform="translate(0.745 0.747)"><circle class="ag" cx="1.719" cy="1.719" r="1.719"/></g><g transform="translate(0.76 0.76)"><circle class="ah" cx="1.704" cy="1.704" r="1.704"/></g><g transform="translate(0.774 0.774)"><circle class="ai" cx="1.69" cy="1.69" r="1.69"/></g><g transform="translate(0.789 0.789)"><circle class="aj" cx="1.676" cy="1.676" r="1.676"/></g><g transform="translate(0.803 0.803)"><circle class="ak" cx="1.662" cy="1.662" r="1.662"/></g><g transform="translate(0.817 0.818)"><circle class="al" cx="1.648" cy="1.648" r="1.648"/></g><g transform="translate(0.832 0.832)"><circle class="am" cx="1.634" cy="1.634" r="1.634"/></g><g transform="translate(0.846 0.846)"><circle class="an" cx="1.619" cy="1.619" r="1.619"/></g><g transform="translate(0.859 0.859)"><circle class="ao" cx="1.605" cy="1.605" r="1.605"/></g><g transform="translate(0.874 0.874)"><circle class="ap" cx="1.591" cy="1.591" r="1.591"/></g><g transform="translate(0.888 0.888)"><circle class="aq" cx="1.576" cy="1.576" r="1.576"/></g><g transform="translate(0.902 0.902)"><circle class="ar" cx="1.563" cy="1.563" r="1.563"/></g><g transform="translate(0.916 0.917)"><circle class="as" cx="1.549" cy="1.549" r="1.549"/></g><g transform="translate(0.931 0.931)"><circle class="at" cx="1.534" cy="1.534" r="1.534"/></g><g transform="translate(0.946 0.946)"><circle class="au" cx="1.52" cy="1.52" r="1.52"/></g><g transform="translate(0.958 0.959)"><circle class="av" cx="1.506" cy="1.506" r="1.506"/></g><g transform="translate(0.973 0.973)"><circle class="aw" cx="1.491" cy="1.491" r="1.491"/></g><g transform="translate(0.988 0.988)"><circle class="ax" cx="1.477" cy="1.477" r="1.477"/></g><g transform="translate(1.002 1.002)"><circle class="ay" cx="1.464" cy="1.464" r="1.464"/></g><g transform="translate(1.016 1.016)"><circle class="az" cx="1.449" cy="1.449" r="1.449"/></g><g transform="translate(1.03 1.031)"><circle class="ba" cx="1.435" cy="1.435" r="1.435"/></g><g transform="translate(1.045 1.045)"><circle class="bb" cx="1.421" cy="1.421" r="1.421"/></g><g transform="translate(1.058 1.058)"><circle class="bc" cx="1.406" cy="1.406" r="1.406"/></g><g transform="translate(1.072 1.073)"><circle class="bd" cx="1.392" cy="1.392" r="1.392"/></g><g transform="translate(1.087 1.087)"><circle class="be" cx="1.377" cy="1.377" r="1.377"/></g><g transform="translate(1.101 1.101)"><circle class="bf" cx="1.363" cy="1.363" r="1.363"/></g><g transform="translate(1.115 1.116)"><circle class="bg" cx="1.35" cy="1.35" r="1.35"/></g><g transform="translate(1.13 1.13)"><circle class="bh" cx="1.335" cy="1.335" r="1.335"/></g><g transform="translate(1.144 1.144)"><circle class="bi" cx="1.321" cy="1.321" r="1.321"/></g><g transform="translate(1.157 1.158)"><circle class="bj" cx="1.307" cy="1.307" r="1.307"/></g><g transform="translate(1.172 1.172)"><circle class="bk" cx="1.292" cy="1.292" r="1.292"/></g><g transform="translate(1.186 1.186)"><circle class="bl" cx="1.278" cy="1.278" r="1.278"/></g><g transform="translate(1.201 1.201)"><circle class="bm" cx="1.264" cy="1.264" r="1.264"/></g><g transform="translate(1.215 1.215)"><circle class="bn" cx="1.25" cy="1.25" r="1.25"/></g><g transform="translate(1.229 1.229)"><circle class="bo" cx="1.236" cy="1.236" r="1.236"/></g><g transform="translate(1.244 1.244)"><circle class="bp" cx="1.222" cy="1.222" r="1.222"/></g><g transform="translate(1.257 1.257)"><circle class="bq" cx="1.207" cy="1.207" r="1.207"/></g><g transform="translate(1.271 1.271)"><circle class="br" cx="1.193" cy="1.193" r="1.193"/></g><g transform="translate(1.285 1.286)"><circle class="bs" cx="1.179" cy="1.179" r="1.179"/></g><g transform="translate(1.3 1.3)"><circle class="bt" cx="1.164" cy="1.164" r="1.164"/></g><g transform="translate(1.314 1.315)"><circle class="bu" cx="1.151" cy="1.151" r="1.151"/></g><g transform="translate(1.328 1.329)"><circle class="bv" cx="1.137" cy="1.137" r="1.137"/></g><g transform="translate(1.343 1.343)"><circle class="bw" cx="1.122" cy="1.122" r="1.122"/></g><g transform="translate(1.357 1.357)"><circle class="bx" cx="1.108" cy="1.108" r="1.108"/></g><g transform="translate(1.371 1.371)"><circle class="by" cx="1.094" cy="1.094" r="1.094"/></g><g transform="translate(1.385 1.385)"><circle class="bz" cx="1.079" cy="1.079" r="1.079"/></g><g transform="translate(1.399 1.4)"><circle class="ca" cx="1.065" cy="1.065" r="1.065"/></g><g transform="translate(1.414 1.414)"><circle class="cb" cx="1.052" cy="1.052" r="1.052"/></g><g transform="translate(1.428 1.428)"><circle class="cc" cx="1.037" cy="1.037" r="1.037"/></g><g transform="translate(1.442 1.443)"><circle class="cd" cx="1.023" cy="1.023" r="1.023"/></g><g transform="translate(1.456 1.457)"><circle class="ce" cx="1.009" cy="1.009" r="1.009"/></g><g transform="translate(1.47 1.47)"><circle class="cf" cx="0.994" cy="0.994" r="0.994"/></g><g transform="translate(1.484 1.485)"><circle class="cg" cx="0.98" cy="0.98" r="0.98"/></g><g transform="translate(1.499 1.499)"><circle class="ch" cx="0.965" cy="0.965" r="0.965"/></g><g transform="translate(1.513 1.513)"><circle class="ci" cx="0.952" cy="0.952" r="0.952"/></g><g transform="translate(1.527 1.528)"><circle class="cj" cx="0.938" cy="0.938" r="0.938"/></g><g transform="translate(1.542 1.542)"><circle class="ck" cx="0.923" cy="0.923" r="0.923"/></g><g transform="translate(1.555 1.556)"><circle class="cl" cx="0.909" cy="0.909" r="0.909"/></g><g transform="translate(1.57 1.57)"><circle class="cm" cx="0.895" cy="0.895" r="0.895"/></g><g transform="translate(1.584 1.584)"><circle class="cn" cx="0.88" cy="0.88" r="0.88"/></g><g transform="translate(1.598 1.598)"><circle class="co" cx="0.866" cy="0.866" r="0.866"/></g><g transform="translate(1.613 1.613)"><circle class="cp" cx="0.853" cy="0.853" r="0.853"/></g><g transform="translate(1.627 1.627)"><circle class="cq" cx="0.838" cy="0.838" r="0.838"/></g><g transform="translate(1.641 1.642)"><circle class="cr" cx="0.824" cy="0.824" r="0.824"/></g><g transform="translate(1.654 1.656)"><circle class="cs" cx="0.81" cy="0.81" r="0.81"/></g><g transform="translate(1.669 1.669)"><circle class="ct" cx="0.795" cy="0.795" r="0.795"/></g><g transform="translate(1.683 1.683)"><circle class="cu" cx="0.781" cy="0.781" r="0.781"/></g><g transform="translate(1.697 1.698)"><circle class="cv" cx="0.767" cy="0.767" r="0.767"/></g><g transform="translate(1.712 1.712)"><circle class="cw" cx="0.753" cy="0.753" r="0.753"/></g><g transform="translate(1.727 1.727)"><circle class="cx" cx="0.739" cy="0.739" r="0.739"/></g><g transform="translate(1.741 1.741)"><circle class="cy" cx="0.725" cy="0.725" r="0.725"/></g><g transform="translate(1.754 1.755)"><circle class="cz" cx="0.71" cy="0.71" r="0.71"/></g><g transform="translate(1.768 1.769)"><circle class="da" cx="0.696" cy="0.696" r="0.696"/></g><g transform="translate(1.783 1.783)"><circle class="db" cx="0.682" cy="0.682" r="0.682"/></g><g transform="translate(1.797 1.797)"><circle class="dc" cx="0.667" cy="0.667" r="0.667"/></g><g transform="translate(1.811 1.812)"><circle class="dd" cx="0.654" cy="0.654" r="0.654"/></g><g transform="translate(1.826 1.826)"><circle class="de" cx="0.64" cy="0.64" r="0.64"/></g><g transform="translate(1.84 1.84)"><circle class="df" cx="0.625" cy="0.625" r="0.625"/></g><g transform="translate(1.854 1.855)"><circle class="dg" cx="0.611" cy="0.611" r="0.611"/></g><g transform="translate(1.868 1.868)"><circle class="dh" cx="0.596" cy="0.596" r="0.596"/></g><g transform="translate(1.882 1.882)"><circle class="di" cx="0.582" cy="0.582" r="0.582"/></g><g transform="translate(1.896 1.897)"><circle class="dj" cx="0.568" cy="0.568" r="0.568"/></g><g transform="translate(1.911 1.911)"><circle class="dk" cx="0.555" cy="0.555" r="0.555"/></g><g transform="translate(1.925 1.925)"><circle class="dl" cx="0.54" cy="0.54" r="0.54"/></g><g transform="translate(1.94 1.94)"><circle class="dm" cx="0.526" cy="0.526" r="0.526"/></g><g transform="translate(1.954 1.954)"><circle class="dn" cx="0.511" cy="0.511" r="0.511"/></g><g transform="translate(1.967 1.967)"><circle class="do" cx="0.497" cy="0.497" r="0.497"/></g><g transform="translate(1.982 1.982)"><circle class="dp" cx="0.483" cy="0.483" r="0.483"/></g><g transform="translate(1.996 1.996)"><circle class="dq" cx="0.468" cy="0.468" r="0.468"/></g><g transform="translate(2.01 2.01)"><circle class="dr" cx="0.454" cy="0.454" r="0.454"/></g><g transform="translate(2.025 2.025)"><circle class="ds" cx="0.441" cy="0.441" r="0.441"/></g><g transform="translate(2.039 2.039)"><circle class="dt" cx="0.426" cy="0.426" r="0.426"/></g><g transform="translate(2.053 2.054)"><circle class="du" cx="0.412" cy="0.412" r="0.412"/></g><g transform="translate(2.066 2.067)"><circle class="dv" cx="0.398" cy="0.398" r="0.398"/></g><g transform="translate(2.081 2.081)"><circle class="dw" cx="0.383" cy="0.383" r="0.383"/></g><g transform="translate(2.095 2.096)"><circle class="dx" cx="0.369" cy="0.369" r="0.369"/></g><g transform="translate(2.109 2.11)"><circle class="dy" cx="0.355" cy="0.355" r="0.355"/></g><g transform="translate(2.124 2.124)"><circle class="dz" cx="0.341" cy="0.341" r="0.341"/></g><g transform="translate(2.139 2.139)"><circle class="ea" cx="0.327" cy="0.327" r="0.327"/></g><g transform="translate(2.153 2.153)"><circle class="eb" cx="0.313" cy="0.313" r="0.313"/></g><g transform="translate(2.166 2.166)"><circle class="ec" cx="0.298" cy="0.298" r="0.298"/></g><g transform="translate(2.18 2.181)"><circle class="ed" cx="0.284" cy="0.284" r="0.284"/></g><g transform="translate(2.195 2.195)"><circle class="ee" cx="0.27" cy="0.27" r="0.27"/></g><g transform="translate(2.209 2.209)"><circle class="ef" cx="0.255" cy="0.255" r="0.255"/></g><g transform="translate(2.223 2.224)"><circle class="eg" cx="0.242" cy="0.242" r="0.242"/></g><g transform="translate(2.238 2.238)"><circle class="eh" cx="0.228" cy="0.228" r="0.228"/></g><g transform="translate(2.252 2.252)"><circle class="ei" cx="0.213" cy="0.213" r="0.213"/></g><g transform="translate(2.265 2.266)"><circle class="ej" cx="0.199" cy="0.199" r="0.199"/></g><g transform="translate(2.28 2.28)"><circle class="ek" cx="0.184" cy="0.184" r="0.184"/></g><g transform="translate(2.294 2.294)"><circle class="el" cx="0.17" cy="0.17" r="0.17"/></g><g transform="translate(2.308 2.309)"><circle class="em" cx="0.156" cy="0.156" r="0.156"/></g><g transform="translate(2.323 2.323)"><circle class="en" cx="0.142" cy="0.142" r="0.142"/></g><g transform="translate(2.337 2.337)"><circle class="eo" cx="0.128" cy="0.128" r="0.128"/></g><g transform="translate(2.352 2.352)"><circle class="ep" cx="0.114" cy="0.114" r="0.114"/></g><g transform="translate(2.365 2.365)"><circle class="eq" cx="0.099" cy="0.099" r="0.099"/></g><g transform="translate(2.379 2.379)"><circle class="er" cx="0.085" cy="0.085" r="0.085"/></g><g transform="translate(2.394 2.394)"><circle class="es" cx="0.071" cy="0.071" r="0.071"/></g><g transform="translate(2.408 2.408)"><circle class="et" cx="0.056" cy="0.056" r="0.056"/></g><g transform="translate(2.422 2.423)"><circle class="eu" cx="0.043" cy="0.043" r="0.043"/></g><g transform="translate(2.436 2.437)"><circle class="ev" cx="0.029" cy="0.029" r="0.029"/></g><g transform="translate(2.451 2.451)"><circle class="ew" cx="0.014" cy="0.014" r="0.014"/></g></g></g></g><g transform="translate(6.411 1.548)"><path class="ex" d="M4292.313,1570.31a.317.317,0,0,1-.3-.23,1.7,1.7,0,1,1,3.257-.941h0a.317.317,0,1,1-.608.176,1.062,1.062,0,0,0-2.04.59.316.316,0,0,1-.215.392.35.35,0,0,1-.089.012Z" transform="translate(-4291.943 -1567.915)"/></g><g transform="translate(1.532 2.878)"><path class="ex" d="M4287.9,1571.514a.318.318,0,0,1-.3-.229,1.695,1.695,0,1,1,3.256-.942h0a.316.316,0,1,1-.608.176,1.062,1.062,0,0,0-2.04.59.316.316,0,0,1-.217.391h0A.339.339,0,0,1,4287.9,1571.514Z" transform="translate(-4287.525 -1569.119)"/></g><g transform="translate(3.555 5.085)"><path class="ex" d="M4291.595,1573.9a3.338,3.338,0,0,1-2.139-.767.317.317,0,0,1,.406-.486,2.7,2.7,0,0,0,1.733.621,2.623,2.623,0,0,0,2.562-1.9.317.317,0,1,1,.61.164A3.256,3.256,0,0,1,4291.595,1573.9Z" transform="translate(-4289.357 -1571.116)"/></g></g></g><rect class="b" width="84.832" height="0.788" transform="translate(4366.869 1454.961)"/></g></svg>