<svg xmlns="http://www.w3.org/2000/svg" xmlns:xlink="http://www.w3.org/1999/xlink" width="640.426" height="377.856" viewBox="0 0 640.426 377.856"><defs><style>.a{fill:none;}.b{fill:#fff;}.c{clip-path:url(#a);}.d{fill:#ffde6e;}.e{fill:#40e262;}.f{fill:#0133a1;}.g{opacity:0.5;}.h{clip-path:url(#b);}.i{fill:#ffdd6e;}.j{fill:#ffdc6d;}.k{fill:#ffdb6d;}.l{fill:#ffda6d;}.m{fill:#ffd96c;}.n{fill:#ffd86c;}.o{fill:#ffd76c;}.p{fill:#ffd66c;}.q{fill:#ffd56b;}.r{fill:#ffd46b;}.s{fill:#ffd36b;}.t{fill:#ffd26a;}.u{fill:#ffd16a;}.v{fill:#ffd06a;}.w{fill:#ffcf69;}.x{fill:#ffce69;}.y{fill:#ffcd69;}.z{fill:#ffcc68;}.aa{fill:#ffcb68;}.ab{fill:#ffca68;}.ac{fill:#ffc967;}.ad{fill:#ffc867;}.ae{fill:#ffc767;}.af{fill:#ffc667;}.ag{fill:#ffc566;}.ah{fill:#ffc466;}.ai{fill:#ffc366;}.aj{fill:#ffc265;}.ak{fill:#ffc165;}.al{fill:#ffc065;}.am{fill:#ffbf64;}.an{fill:#ffbe64;}.ao{fill:#ffbd64;}.ap{fill:#ffbc63;}.aq{fill:#ffbb63;}.ar{fill:#ffba63;}.as{fill:#ffb963;}.at{fill:#ffb862;}.au{fill:#ffb762;}.av{fill:#ffb662;}.aw{fill:#ffb561;}.ax{fill:#ffb461;}.ay{fill:#ffb361;}.az{fill:#ffb260;}.ba{fill:#ffb160;}.bb{fill:#ffb060;}.bc{fill:#ffaf5f;}.bd{fill:#ffae5f;}.be{fill:#ffad5f;}.bf{fill:#ffac5e;}.bg{fill:#ffab5e;}.bh{fill:#ffaa5e;}.bi{fill:#ffa95e;}.bj{fill:#ffa85d;}.bk{fill:#ffa75d;}.bl{fill:#ffa65d;}.bm{fill:#ffa55c;}.bn{fill:#ffa45c;}.bo{fill:#ffa35c;}.bp{fill:#ffa25b;}.bq{fill:#ffa15b;}.br{fill:#ffa05b;}.bs{fill:#ff9f5a;}.bt{fill:#ff9e5a;}.bu{fill:#ff9c5a;}.bv{fill:#ff9b59;}.bw{fill:#ff9a59;}.bx{fill:#ff9959;}.by{fill:#ff9859;}.bz{fill:#ff9758;}.ca{fill:#ff9658;}.cb{fill:#ff9558;}.cc{fill:#ff9457;}.cd{fill:#ff9357;}.ce{fill:#ff9257;}.cf{fill:#ff9156;}.cg{fill:#ff9056;}.ch{fill:#ff8f56;}.ci{fill:#ff8e55;}.cj{fill:#ff8d55;}.ck{fill:#ff8c55;}.cl{fill:#ff8b55;}.cm{fill:#ff8a54;}.cn{fill:#ff8954;}.co{fill:#ff8854;}.cp{fill:#ff8753;}.cq{fill:#ff8653;}.cr{fill:#ff8553;}.cs{fill:#ff8452;}.ct{fill:#ff8352;}.cu{fill:#ff8252;}.cv{fill:#ff8151;}.cw{fill:#ff8051;}.cx{fill:#ff7f51;}.cy{fill:#ff7e50;}.cz{fill:#ff7d50;}.da{fill:#ff7c50;}.db{fill:#ff7b50;}.dc{fill:#ff7a4f;}.dd{fill:#ff794f;}.de{fill:#ff784f;}.df{fill:#ff774e;}.dg{fill:#ff764e;}.dh{fill:#ff754e;}.di{fill:#ff744d;}.dj{fill:#ff734d;}.dk{fill:#ff724d;}.dl{fill:#ff714c;}.dm{fill:#ff704c;}.dn{fill:#ff6f4c;}.do{fill:#ff6e4c;}.dp{fill:#ff6d4b;}.dq{fill:#ff6c4b;}.dr{fill:#ff6b4b;}.ds{fill:#ff6a4a;}.dt{fill:#ff694a;}.du{fill:#ff684a;}.dv{fill:#ff6749;}.dw{fill:#ff6649;}.dx{fill:#ff6549;}.dy{fill:#ff6448;}.dz{fill:#ff6348;}.ea{fill:#ff6248;}.eb{fill:#ff6148;}.ec{fill:#ff6047;}.ed{fill:#ff5f47;}.ee{fill:#ff5e47;}.ef{fill:#ff5d46;}.eg{fill:#ff5c46;}.eh{fill:#ff5b46;}.ei{fill:#ff5a45;}.ej{fill:#ff5945;}.ek{fill:#ff5845;}.el{fill:#ff5744;}.em{fill:#ff5644;}.en{fill:#f54;}.eo{fill:#ff5443;}.ep{fill:#ff5343;}.eq{fill:#ff5243;}.er{fill:#ff5143;}.es{fill:#ff5042;}.et{fill:#ff4f42;}.eu{fill:#ff4e42;}.ev{fill:#ff4d41;}.ew{fill:#ff4c41;}.ex{fill:#102236;}</style><clipPath id="a"><circle class="a" cx="20.225" cy="20.225" r="20.225"/></clipPath><clipPath id="b"><circle class="a" cx="4.743" cy="4.743" r="4.743"/></clipPath></defs><g transform="translate(-4239.227 -1432.387)"><g transform="translate(4226.929 1432.387)"><g transform="translate(458.199 76.571)"><path class="b" d="M4577.847,1501.942H4457.407c-8.186,0-14.844-7.52-14.844-16.759s6.658-16.761,14.844-16.761h120.439c8.185,0,14.844,7.52,14.844,16.761S4586.031,1501.942,4577.847,1501.942Zm-120.439-31.888c-7.389,0-13.4,6.787-13.4,15.129s6.01,15.127,13.4,15.127h120.439c7.389,0,13.4-6.787,13.4-15.127s-6.011-15.129-13.4-15.129Z" transform="translate(-4442.563 -1468.422)"/><g transform="translate(11.959 8.427)"><g transform="translate(0 0.066)"><path class="b" d="M4450.7,1487.644c-.466,0-.776-.376-.844-.939l-1.662-13.053c.09-.7.556-1.232,1.064-1.232h1.531c.4,0,.752.457.8.965l1.064,8.389,3.5-8.389c.222-.508.708-.965,1.107-.965h1.53c.51,0,.8.536.71,1.232l-5.477,13.053a1.326,1.326,0,0,1-1.108.939Z" transform="translate(-4448.191 -1472.419)"/></g><g transform="translate(9.2 0.066)"><path class="b" d="M4461.986,1487.778c-1.308,0-1.486-1.179-1.62-2.063l-.2-1.288h-3.258l-.975,2.225c-.2.536-.623.992-1.065.992h-1.6c-.51,0-.843-.457-.731-1.1l5.675-13.185a1.38,1.38,0,0,1,1.109-.939h1.863c.42,0,.73.376.819.939l1.507,10.559c.066.349.089.644.155.669a1.014,1.014,0,0,1,.376.967l-.132.884C4463.781,1487.455,4462.7,1487.778,4461.986,1487.778Zm-3.659-6.755h1.354l-.311-2.439Z" transform="translate(-4452.521 -1472.419)"/></g><g transform="translate(22.475 0.066)"><path class="b" d="M4459.523,1487.644c-.531,0-.844-.457-.732-1.1l1.886-13.026a1.175,1.175,0,0,1,1.063-1.1h1.443c.509,0,.841.457.73,1.1l-1.529,10.508h4.145c.511,0,.842.455.755,1.071l-.2,1.447a1.2,1.2,0,0,1-1.065,1.1Z" transform="translate(-4458.768 -1472.419)"/></g><g transform="translate(32.892 0.066)"><path class="b" d="M4464.423,1487.644c-.531,0-.841-.457-.73-1.1l1.885-13.026a1.178,1.178,0,0,1,1.064-1.1h6.807c.531,0,.82.457.707,1.1l-.2,1.475a1.135,1.135,0,0,1-1.044,1.073h-4.456l-.331,2.169h3.17c.511,0,.8.482.708,1.1l-.2,1.449a1.183,1.183,0,0,1-1.044,1.1h-3.17l-.31,2.144h4.458c.531,0,.819.455.73,1.071l-.2,1.447c-.111.644-.511,1.1-1.044,1.1Z" transform="translate(-4463.67 -1472.419)"/></g><g transform="translate(53.775)"><path class="b" d="M4476,1487.611c-.465,0-.775-.376-.844-.937l-1.661-13.053c.089-.7.554-1.233,1.064-1.233h1.53c.4,0,.752.455.8.963l1.064,8.391,3.5-8.391c.221-.508.708-.963,1.107-.963h1.529c.51,0,.8.536.709,1.233l-5.475,13.053a1.329,1.329,0,0,1-1.109.937Z" transform="translate(-4473.499 -1472.388)"/></g><g transform="translate(65.19)"><path class="b" d="M4482.129,1486.512a1.192,1.192,0,0,1-1.064,1.1H4479.6c-.51,0-.819-.455-.708-1.1l1.884-13.026a1.173,1.173,0,0,1,1.042-1.1h1.465c.508,0,.841.455.731,1.1Z" transform="translate(-4478.871 -1472.388)"/></g><g transform="translate(71.22)"><path class="b" d="M4488.468,1472.388c3.06,0,4.365,1.607,3.835,5.281a6.158,6.158,0,0,1-1.972,4.207,20.152,20.152,0,0,0,.51,2.679.946.946,0,0,1,.31.965l-.134.884a1.746,1.746,0,0,1-1.884,1.341c-1.2,0-1.4-.909-1.575-1.9l-.51-2.947H4485.5l-.531,3.619c-.111.644-.511,1.1-1.064,1.1h-1.421c-.509,0-.864-.455-.752-1.1l1.883-13.026a1.214,1.214,0,0,1,1.089-1.1Zm.6,5.281c.132-.992-.244-1.636-.931-1.636H4486.5l-.488,3.243h1.64C4488.357,1479.275,4488.912,1478.686,4489.067,1477.669Z" transform="translate(-4481.708 -1472.388)"/></g><g transform="translate(83.88)"><path class="b" d="M4496.551,1472.388c.509,0,.8.455.686,1.1l-.2,1.473a1.13,1.13,0,0,1-1.021,1.073h-2.193l-1.529,10.48a1.194,1.194,0,0,1-1.065,1.1h-1.462c-.511,0-.819-.455-.709-1.1l1.53-10.48h-2.2c-.512,0-.8-.455-.71-1.073l.2-1.473a1.176,1.176,0,0,1,1.043-1.1Z" transform="translate(-4487.667 -1472.388)"/></g><g transform="translate(94.298)"><path class="b" d="M4492.784,1480.777l1.064-7.291a1.213,1.213,0,0,1,1.086-1.1h1.44c.511,0,.82.455.71,1.1l-1.086,7.477c-.421,2.948.576,3.162,1.33,3.162s1.84-.215,2.261-3.162l1.086-7.477a1.2,1.2,0,0,1,1.064-1.1h1.441c.51,0,.841.455.733,1.1l-1.064,7.291c-.865,6-2.95,6.967-6.031,6.967S4491.92,1486.78,4492.784,1480.777Z" transform="translate(-4492.569 -1472.388)"/></g><g transform="translate(105.418)"><path class="b" d="M4507.269,1487.745c-1.309,0-1.485-1.179-1.619-2.063l-.2-1.286h-3.259l-.973,2.223c-.2.538-.623.992-1.064.992h-1.6c-.511,0-.845-.455-.734-1.1l5.676-13.187a1.38,1.38,0,0,1,1.109-.937h1.861c.421,0,.733.374.82.937l1.509,10.561c.065.349.089.644.154.669a1.021,1.021,0,0,1,.377.965l-.134.884C4509.064,1487.424,4507.979,1487.745,4507.269,1487.745Zm-3.658-6.753h1.353l-.311-2.439Z" transform="translate(-4497.802 -1472.388)"/></g><g transform="translate(118.693)"><path class="b" d="M4504.8,1487.611c-.531,0-.841-.455-.73-1.1l1.885-13.026a1.174,1.174,0,0,1,1.065-1.1h1.44c.51,0,.841.455.731,1.1l-1.53,10.505h4.146c.51,0,.844.455.755,1.073l-.2,1.447a1.191,1.191,0,0,1-1.064,1.1Z" transform="translate(-4504.049 -1472.388)"/></g></g></g><g transform="translate(391.746 244.429)"><path class="b" d="M4414.584,1565.153a1.09,1.09,0,0,1-1.108-1.02l-2.187-14.2a1.52,1.52,0,0,1,1.4-1.343h2.012a1.153,1.153,0,0,1,1.051,1.05l1.4,9.131,4.608-9.131a1.939,1.939,0,0,1,1.458-1.05h2.015c.67,0,1.05.584.933,1.343l-7.205,14.2a1.7,1.7,0,0,1-1.458,1.02Z" transform="translate(-4411.289 -1546.105)"/><path class="b" d="M4428.057,1556.345l-1.6,8.984a1.318,1.318,0,0,1-1.312,1.137h-1.372c-.525,0-.9-.117-1.05-.555l-.088-.232a4.666,4.666,0,0,1-2.653.933c-3.3,0-3.88-2.771-3.354-5.746.671-3.733,3.384-6.39,7.234-6.39a10.4,10.4,0,0,1,3.646.7A1.037,1.037,0,0,1,4428.057,1556.345Zm-4.637,2.129a2.686,2.686,0,0,0-2.51,2.393c-.261,1.545.321,1.808.934,1.808a2.142,2.142,0,0,0,.9-.351Zm1.283-10.618a1.777,1.777,0,0,1,1.08-.438.862.862,0,0,1,.785.321l.906,1.313a1.165,1.165,0,0,1,.231.963,1.611,1.611,0,0,1-.815.992l-2.918,2.07a2.228,2.228,0,0,1-1.107.351,1.133,1.133,0,0,1-.845-.465l-.411-.527a1.2,1.2,0,0,1-.318-.99,2.352,2.352,0,0,1,.291-.642Z" transform="translate(-4405.479 -1547.418)"/><path class="b" d="M4424.277,1549.752a1.4,1.4,0,0,1,1.34-1.167h1.955a.931.931,0,0,1,.963,1.167l-2.072,11.61c-.057.348,0,.525.09.554a.922.922,0,0,1,.436,1.02l-.175.933a1.389,1.389,0,0,1-1.137,1.139,5.854,5.854,0,0,1-1.634.291c-2.333,0-2.158-2.072-1.982-3.092Z" transform="translate(-4399.278 -1546.105)"/><path class="b" d="M4429.03,1564.187a1.427,1.427,0,0,1-1.37,1.167H4425.7a.9.9,0,0,1-.933-1.167l1.664-9.479a1.371,1.371,0,0,1,1.341-1.167h1.953a.932.932,0,0,1,.965,1.167Zm.642-15.78a1.806,1.806,0,0,1,1.838,2.246,2.738,2.738,0,0,1-2.626,2.246,1.838,1.838,0,0,1-1.865-2.246A2.794,2.794,0,0,1,4429.672,1548.407Z" transform="translate(-4396.157 -1546.306)"/><path class="b" d="M4437.946,1563.491a1.582,1.582,0,0,1-.993,1.167,14.711,14.711,0,0,1-4.345.642c-3.968,0-5.542-2.42-4.843-6.273.672-3.85,3.325-5.863,6.33-5.863a4.714,4.714,0,0,1,1.371.177l.641-3.617a1.351,1.351,0,0,1,1.343-1.139h1.983a.894.894,0,0,1,.935,1.139Zm-4.756-2.129c.117,0,.584-.03.875-.06l.7-4.024a1.866,1.866,0,0,0-.7-.147c-.933,0-1.69.468-1.925,1.9C4431.849,1560.574,4432.083,1561.362,4433.19,1561.362Z" transform="translate(-4392.936 -1546.105)"/><path class="b" d="M4433.407,1556.692c.642-3.589,2.86-5.952,6.826-5.952s5.367,2.363,4.725,5.952c-.669,3.85-2.886,6.184-6.854,6.184S4432.738,1560.542,4433.407,1556.692Zm7.293.03c.147-.848.06-2.014-1.166-2.014s-1.722,1.167-1.866,2.014c-.147.873-.264,2.216,1.107,2.216S4440.556,1557.595,4440.7,1556.722Z" transform="translate(-4386.591 -1543.681)"/><path class="b" d="M4443.234,1552.551a1.8,1.8,0,0,1,1.164-1.256,15.836,15.836,0,0,1,4.173-.555c3.966,0,5.513,2.423,4.842,6.273s-3,5.863-6.973,5.863h-.756l-.789,4.4a1.376,1.376,0,0,1-1.343,1.167h-1.982a.914.914,0,0,1-.933-1.167Zm3.119,6.387h.555a2.16,2.16,0,0,0,2.245-1.925c.264-1.547-.087-2.305-1.2-2.305a4.972,4.972,0,0,0-.845.06Z" transform="translate(-4378.299 -1543.681)"/><path class="b" d="M4458.341,1552.608l-1.605,8.984a1.317,1.317,0,0,1-1.312,1.137h-1.37c-.525,0-.9-.117-1.05-.555l-.088-.232a4.671,4.671,0,0,1-2.655.933c-3.3,0-3.879-2.771-3.354-5.746.671-3.733,3.383-6.39,7.233-6.39a10.377,10.377,0,0,1,3.646.7A1.038,1.038,0,0,1,4458.341,1552.608Zm-4.637,2.129a2.686,2.686,0,0,0-2.51,2.393c-.264,1.545.32,1.808.933,1.808a2.154,2.154,0,0,0,.905-.351Z" transform="translate(-4371.414 -1543.681)"/><path class="b" d="M4462.13,1551.7a1.154,1.154,0,0,1,.379,1.05,1.052,1.052,0,0,1-.174.41l-.789,1.341a1.472,1.472,0,0,1-1.166.729.892.892,0,0,1-.468-.145,3.529,3.529,0,0,0-1.4-.38,1.7,1.7,0,0,0-.935.263l-1.166,6.621a1.318,1.318,0,0,1-1.313,1.137h-1.981a.908.908,0,0,1-.963-1.137l1.517-8.576a1.58,1.58,0,0,1,.787-1.08,7.856,7.856,0,0,1,4.639-1.2A4.108,4.108,0,0,1,4462.13,1551.7Z" transform="translate(-4365.342 -1543.681)"/><path class="b" d="M4467.842,1552.608l-1.605,8.984a1.316,1.316,0,0,1-1.311,1.137h-1.372c-.525,0-.9-.117-1.05-.555l-.088-.232a4.666,4.666,0,0,1-2.653.933c-3.3,0-3.881-2.771-3.355-5.746.671-3.733,3.383-6.39,7.233-6.39a10.377,10.377,0,0,1,3.646.7A1.035,1.035,0,0,1,4467.842,1552.608Zm-4.637,2.129a2.686,2.686,0,0,0-2.51,2.393c-.262,1.545.32,1.808.933,1.808a2.142,2.142,0,0,0,.905-.351Z" transform="translate(-4360.728 -1543.681)"/><path class="b" d="M4475.394,1553.045c-.03.174-.057.234-.933,1.575a1.286,1.286,0,0,1-1.167.671,1.738,1.738,0,0,1-.584-.2,4.079,4.079,0,0,0-1.983-.38,2.309,2.309,0,0,0-2.3,2.072c-.262,1.517.585,2.159,1.547,2.159a4.192,4.192,0,0,0,2.187-.438,1.37,1.37,0,0,1,.614-.147,1.006,1.006,0,0,1,.9.672,14.558,14.558,0,0,1,.409,1.517,1.835,1.835,0,0,1-.846,1.167,7.537,7.537,0,0,1-4.173,1.167c-3.907,0-5.571-2.246-4.9-6.1.672-3.793,3.122-6.039,7.029-6.039a5.489,5.489,0,0,1,3.764,1.2A1.154,1.154,0,0,1,4475.394,1553.045Z" transform="translate(-4351.974 -1543.681)"/><path class="b" d="M4469.335,1556.692c.641-3.589,2.858-5.952,6.824-5.952s5.367,2.363,4.727,5.952c-.672,3.85-2.888,6.184-6.855,6.184S4468.663,1560.542,4469.335,1556.692Zm7.292.03c.145-.848.058-2.014-1.167-2.014s-1.721,1.167-1.867,2.014c-.146.873-.262,2.216,1.109,2.216S4476.48,1557.595,4476.627,1556.722Z" transform="translate(-4346.175 -1543.681)"/><path class="b" d="M4476.383,1552.551a1.7,1.7,0,0,1,1.166-1.256,9.937,9.937,0,0,1,3.587-.555,4.534,4.534,0,0,1,3.326,1.022,5.562,5.562,0,0,1,3-.992c3.386,0,3.529,2.305,2.976,5.367l-.963,5.455a1.338,1.338,0,0,1-1.313,1.137h-1.982a.908.908,0,0,1-.962-1.137l.962-5.338c.264-1.487.087-1.547-.408-1.547a2.305,2.305,0,0,0-.467.03c-.058.467-.174,1.079-.262,1.691l-.933,5.164a1.321,1.321,0,0,1-1.313,1.137h-1.634a.909.909,0,0,1-.963-1.137l.905-5.134c.262-1.488.318-1.751-.439-1.751a3.113,3.113,0,0,0-.436.087l-1.2,6.8a1.319,1.319,0,0,1-1.313,1.137h-1.982a.908.908,0,0,1-.963-1.137Z" transform="translate(-4339.892 -1543.681)"/><path class="b" d="M4484.389,1552.551a1.805,1.805,0,0,1,1.167-1.256,15.817,15.817,0,0,1,4.171-.555c3.967,0,5.514,2.423,4.842,6.273s-3,5.863-6.971,5.863h-.759l-.786,4.4a1.377,1.377,0,0,1-1.344,1.167h-1.981a.913.913,0,0,1-.934-1.167Zm3.122,6.387h.554a2.164,2.164,0,0,0,2.246-1.925c.262-1.547-.087-2.305-1.2-2.305a4.959,4.959,0,0,0-.846.06Z" transform="translate(-4332.001 -1543.681)"/><path class="b" d="M4497.821,1551.7a1.153,1.153,0,0,1,.381,1.05,1.043,1.043,0,0,1-.177.41l-.786,1.341a1.475,1.475,0,0,1-1.166.729.9.9,0,0,1-.468-.145,3.529,3.529,0,0,0-1.4-.38,1.692,1.692,0,0,0-.933.263l-1.167,6.621a1.318,1.318,0,0,1-1.312,1.137h-1.982a.909.909,0,0,1-.963-1.137l1.515-8.576a1.587,1.587,0,0,1,.788-1.08,7.859,7.859,0,0,1,4.64-1.2A4.1,4.1,0,0,1,4497.821,1551.7Z" transform="translate(-4325.192 -1543.681)"/><path class="b" d="M4503.535,1552.608l-1.6,8.984a1.319,1.319,0,0,1-1.313,1.137h-1.371c-.524,0-.9-.117-1.05-.555l-.087-.232a4.675,4.675,0,0,1-2.656.933c-3.293,0-3.877-2.771-3.354-5.746.673-3.733,3.384-6.39,7.234-6.39a10.377,10.377,0,0,1,3.646.7A1.038,1.038,0,0,1,4503.535,1552.608Zm-4.637,2.129a2.686,2.686,0,0,0-2.511,2.393c-.263,1.545.322,1.808.934,1.808a2.161,2.161,0,0,0,.905-.351Z" transform="translate(-4320.577 -1543.681)"/><path class="b" d="M4502.005,1559.2c.318,0,1.166,0,1.224-.291.117-.7-5.718-.5-5.073-4.258.377-2.072,2.039-3.91,5.832-3.91a24.989,24.989,0,0,1,2.8.351,1.036,1.036,0,0,1,.933,1.167l-.06.234a6.361,6.361,0,0,1-.378,1.313c-.262.7-.582.933-1.08.933-.962-.06-1.487-.147-2.069-.147-1.052,0-1.694,0-1.721.177-.146.7,5.688.612,5.073,4.082-.437,2.539-2.711,4.027-6.066,4.027a10.856,10.856,0,0,1-3.5-.672,1.106,1.106,0,0,1-.641-1.224,6.594,6.594,0,0,1,.7-1.517,1.316,1.316,0,0,1,1.226-.7,1.713,1.713,0,0,1,.408.06A10.1,10.1,0,0,0,4502.005,1559.2Z" transform="translate(-4314.584 -1543.681)"/><path class="b" d="M4449.763,1572.422a11.921,11.921,0,0,1-1.458-.087c.351.846,1.284.905,2.042.905a5.762,5.762,0,0,0,2.828-.614.792.792,0,0,1,.352-.087.776.776,0,0,1,.7.584l.349,1.2a1.2,1.2,0,0,1,.028.436,1.84,1.84,0,0,1-.787,1.109,7.136,7.136,0,0,1-4.375,1.167c-3.937,0-5.365-2.333-4.7-6.184.642-3.587,2.713-5.95,6.681-5.95,3.149,0,4.7,1.662,4.288,3.938C4455.217,1571.664,4452.447,1572.422,4449.763,1572.422Zm-.5-3.179c.117.291.67.5,1.225.5.437,0,.846-.144.9-.612.088-.408-.468-.495-.875-.495A1.724,1.724,0,0,0,4449.268,1569.244Z" transform="translate(-4373.833 -1527.755)"/><path class="b" d="M4451.384,1566.706a1.693,1.693,0,0,1,1.167-1.253,13.326,13.326,0,0,1,4.171-.555c3.938,0,5.134,1.779,4.463,5.686l-.935,5.164a1.326,1.326,0,0,1-1.34,1.139h-1.955a.911.911,0,0,1-.963-1.139l.9-5.134c.263-1.488.233-1.749-.787-1.749a4.969,4.969,0,0,0-.846.057l-1.226,6.825a1.349,1.349,0,0,1-1.341,1.139h-1.955a.91.91,0,0,1-.963-1.139Z" transform="translate(-4368.013 -1527.755)"/><path class="b" d="M4466.086,1562.742c4.025,0,5.836,1.751,5.134,5.748s-3.118,5.688-7.146,5.688H4462.5l-.7,3.938a1.433,1.433,0,0,1-1.4,1.2h-1.865a.94.94,0,0,1-.993-1.2l2.479-14.177a1.464,1.464,0,0,1,1.428-1.2Zm.876,5.718c.2-1.079-.291-1.751-1.224-1.751h-1.927l-.643,3.53h1.928A1.935,1.935,0,0,0,4466.962,1568.46Z" transform="translate(-4359.294 -1530.18)"/><path class="b" d="M4465.859,1563.909a1.4,1.4,0,0,1,1.342-1.167h1.955a.932.932,0,0,1,.961,1.167l-2.07,11.61c-.059.351,0,.525.088.555a.923.923,0,0,1,.438,1.02l-.175.935a1.391,1.391,0,0,1-1.139,1.137,5.849,5.849,0,0,1-1.635.291c-2.332,0-2.155-2.07-1.982-3.092Z" transform="translate(-4352.501 -1530.18)"/><path class="b" d="M4477.862,1566.764l-1.6,8.984a1.321,1.321,0,0,1-1.312,1.139h-1.371c-.524,0-.905-.117-1.052-.554l-.087-.234a4.664,4.664,0,0,1-2.654.933c-3.295,0-3.88-2.771-3.355-5.746.672-3.734,3.386-6.388,7.236-6.388a10.428,10.428,0,0,1,3.646.7A1.036,1.036,0,0,1,4477.862,1566.764Zm-4.637,2.129a2.686,2.686,0,0,0-2.508,2.393c-.263,1.545.319,1.808.934,1.808a2.148,2.148,0,0,0,.9-.351Z" transform="translate(-4349.455 -1527.755)"/><path class="b" d="M4473.28,1566.706a1.693,1.693,0,0,1,1.167-1.253,13.326,13.326,0,0,1,4.171-.555c3.938,0,5.134,1.779,4.463,5.686l-.934,5.164a1.328,1.328,0,0,1-1.343,1.139h-1.953a.911.911,0,0,1-.963-1.139l.906-5.134c.262-1.488.231-1.749-.789-1.749a4.959,4.959,0,0,0-.845.057l-1.227,6.825a1.351,1.351,0,0,1-1.343,1.139h-1.953a.91.91,0,0,1-.963-1.139Z" transform="translate(-4343.383 -1527.755)"/><path class="b" d="M4487.569,1562.742c4.027,0,5.862,1.139,5.134,5.193a3.613,3.613,0,0,1-1.662,2.8,3.31,3.31,0,0,1,1.313,3.412c-.73,4.025-2.946,5.164-6.971,5.164h-4.96a1,1,0,0,1-.993-1.226l2.48-14.147a1.49,1.49,0,0,1,1.431-1.2Zm.525,11.377c.174-.933-.643-1.079-1.6-1.079h-1.926l-.407,2.333h1.925C4487.045,1575.373,4487.92,1575.169,4488.095,1574.119Zm-2.391-7.409-.41,2.335h1.2c.933,0,1.778-.117,1.984-1.226.174-.992-.642-1.109-1.576-1.109Z" transform="translate(-4334.658 -1530.18)"/><path class="b" d="M4488,1563.909a1.4,1.4,0,0,1,1.344-1.167h1.955a.932.932,0,0,1,.961,1.167l-2.07,11.61c-.06.351,0,.525.087.555a.923.923,0,0,1,.438,1.02l-.175.935a1.391,1.391,0,0,1-1.139,1.137,5.854,5.854,0,0,1-1.635.291c-2.333,0-2.157-2.07-1.982-3.092Z" transform="translate(-4327.594 -1530.18)"/><path class="b" d="M4500,1566.764l-1.6,8.984a1.319,1.319,0,0,1-1.312,1.139h-1.371c-.524,0-.9-.117-1.05-.554l-.087-.234a4.673,4.673,0,0,1-2.656.933c-3.3,0-3.878-2.771-3.354-5.746.672-3.734,3.384-6.388,7.234-6.388a10.42,10.42,0,0,1,3.646.7A1.038,1.038,0,0,1,4500,1566.764Zm-4.636,2.129a2.688,2.688,0,0,0-2.51,2.393c-.264,1.545.321,1.808.933,1.808a2.161,2.161,0,0,0,.906-.351Z" transform="translate(-4324.545 -1527.755)"/><path class="b" d="M4505.307,1567.2c-.028.176-.059.234-.933,1.574a1.285,1.285,0,0,1-1.168.671,1.708,1.708,0,0,1-.582-.2,4.1,4.1,0,0,0-1.984-.378,2.306,2.306,0,0,0-2.3,2.07c-.264,1.517.582,2.159,1.545,2.159a4.2,4.2,0,0,0,2.189-.438,1.358,1.358,0,0,1,.611-.147,1.008,1.008,0,0,1,.905.672,15.607,15.607,0,0,1,.408,1.517,1.826,1.826,0,0,1-.846,1.167,7.533,7.533,0,0,1-4.171,1.167c-3.91,0-5.571-2.246-4.9-6.1.671-3.791,3.122-6.037,7.031-6.037a5.506,5.506,0,0,1,3.764,1.194A1.153,1.153,0,0,1,4505.307,1567.2Z" transform="translate(-4318.325 -1527.755)"/><path class="b" d="M4504.871,1576.89a5.73,5.73,0,0,0-.672-1.6l-.409.146-.5,2.741a1.319,1.319,0,0,1-1.311,1.139H4500a.91.91,0,0,1-.962-1.139l2.537-14.292a1.35,1.35,0,0,1,1.343-1.139h1.982a.894.894,0,0,1,.936,1.139l-1.257,7.03a5.615,5.615,0,0,0,2.393-2.363,1.419,1.419,0,0,1,1.342-1.05h1.954a.935.935,0,0,1,.934,1.2,9.594,9.594,0,0,1-3.149,4.492,7.84,7.84,0,0,1,1.05,2.042l1.022,2.771a1.464,1.464,0,0,1-1.344,1.313h-2.129a1.568,1.568,0,0,1-1.284-.965Z" transform="translate(-4312.607 -1530.18)"/></g><g transform="translate(438.562 20.974)"><g class="c"><g transform="translate(-36.239 -37.425)"><g transform="translate(37.326)"><rect class="b" width="0.874" height="102.042" transform="matrix(0.769, -0.64, 0.64, 0.769, 0, 0.559)"/></g><g transform="translate(35.702 1.35)"><rect class="b" width="0.874" height="102.042" transform="matrix(0.769, -0.64, 0.64, 0.769, 0, 0.559)"/></g><g transform="translate(34.081 2.7)"><rect class="b" width="0.874" height="102.042" transform="matrix(0.769, -0.64, 0.64, 0.769, 0, 0.559)"/></g><g transform="translate(32.458 4.052)"><rect class="b" width="0.874" height="102.042" transform="matrix(0.769, -0.64, 0.64, 0.769, 0, 0.559)"/></g><g transform="translate(30.834 5.402)"><rect class="b" width="0.874" height="102.042" transform="matrix(0.769, -0.64, 0.64, 0.769, 0, 0.559)"/></g><g transform="translate(29.21 6.753)"><rect class="b" width="0.873" height="101.991" transform="matrix(0.769, -0.64, 0.64, 0.769, 0, 0.559)"/></g><g transform="translate(27.589 8.102)"><rect class="b" width="0.874" height="102.042" transform="matrix(0.769, -0.64, 0.64, 0.769, 0, 0.559)"/></g><g transform="translate(25.966 9.452)"><rect class="b" width="0.874" height="102.042" transform="matrix(0.769, -0.64, 0.64, 0.769, 0, 0.559)"/></g><g transform="translate(24.343 10.803)"><rect class="b" width="0.874" height="102.042" transform="matrix(0.769, -0.64, 0.64, 0.769, 0, 0.559)"/></g><g transform="translate(22.721 12.152)"><rect class="b" width="0.874" height="102.042" transform="matrix(0.769, -0.64, 0.64, 0.769, 0, 0.559)"/></g><g transform="translate(21.097 13.504)"><rect class="b" width="0.873" height="101.991" transform="matrix(0.769, -0.64, 0.64, 0.769, 0, 0.559)"/></g><g transform="translate(19.475 14.853)"><rect class="b" width="0.874" height="102.042" transform="matrix(0.769, -0.64, 0.64, 0.769, 0, 0.559)"/></g><g transform="translate(17.851 16.205)"><rect class="b" width="0.873" height="101.991" transform="matrix(0.769, -0.64, 0.64, 0.769, 0, 0.559)"/></g><g transform="translate(16.229 17.554)"><rect class="b" width="0.874" height="102.042" transform="matrix(0.769, -0.64, 0.64, 0.769, 0, 0.559)"/></g><g transform="translate(14.607 18.905)"><rect class="b" width="0.874" height="102.042" transform="matrix(0.769, -0.64, 0.64, 0.769, 0, 0.559)"/></g><g transform="translate(12.983 20.254)"><rect class="b" width="0.874" height="102.042" transform="matrix(0.769, -0.64, 0.64, 0.769, 0, 0.559)"/></g><g transform="translate(11.359 21.606)"><rect class="b" width="0.874" height="102.042" transform="matrix(0.769, -0.64, 0.64, 0.769, 0, 0.559)"/></g><g transform="translate(9.737 22.956)"><rect class="b" width="0.873" height="101.991" transform="matrix(0.769, -0.64, 0.64, 0.769, 0, 0.559)"/></g><g transform="translate(8.115 24.307)"><rect class="b" width="0.874" height="102.042" transform="matrix(0.769, -0.64, 0.64, 0.769, 0, 0.559)"/></g><g transform="translate(6.491 25.656)"><rect class="b" width="0.874" height="102.042" transform="matrix(0.769, -0.64, 0.64, 0.769, 0, 0.559)"/></g><g transform="translate(4.868 27.007)"><rect class="b" width="0.874" height="102.042" transform="matrix(0.769, -0.64, 0.64, 0.769, 0, 0.559)"/></g><g transform="translate(3.246 28.357)"><rect class="b" width="0.874" height="102.042" transform="matrix(0.769, -0.64, 0.64, 0.769, 0, 0.559)"/></g><g transform="translate(1.623 29.708)"><rect class="b" width="0.874" height="102.042" transform="matrix(0.769, -0.64, 0.64, 0.769, 0, 0.559)"/></g><g transform="translate(0 31.057)"><rect class="b" width="0.874" height="102.042" transform="matrix(0.769, -0.64, 0.64, 0.769, 0, 0.559)"/></g></g></g></g><g transform="translate(497.141)"><circle class="d" cx="6.145" cy="6.145" r="6.145"/></g><g transform="translate(343.904 246.374)"><path class="e" d="M4389.552,1550.473l5.331,2.24,3.778-4.379-.481,5.763,5.328,2.238-5.628,1.324-.482,5.761-3-4.945-5.626,1.322,3.775-4.377Z" transform="translate(-4388.774 -1548.333)"/></g><g transform="translate(12.298 5.471)"><g transform="translate(50.168)"><path class="d" d="M4256.332,1436.635c-.251,1.111,6.686,12.384,8.287,12.749.444.1.353-.463.742-.374,1.851.425-3.058-8.417-4.021-10.892C4259.726,1434.021,4256.848,1434.344,4256.332,1436.635Z" transform="translate(-4256.325 -1434.961)"/></g><g transform="translate(43.523 23.087)"><path class="d" d="M4255.885,1447.668c-.1-.168-1.469-1.991-1.746-1.832C4250.807,1447.761,4257.534,1450.532,4255.885,1447.668Z" transform="translate(-4253.199 -1445.826)"/></g><g transform="translate(19.985 26.041)"><path class="d" d="M4243.884,1447.369a1.729,1.729,0,0,0-1.023-.123.926.926,0,0,0-.7.584c-.759,2.354,8.642,10.025,11.049,10.8.3.1.5.087.545-.062C4253.931,1458.036,4246.2,1448.114,4243.884,1447.369Z" transform="translate(-4242.122 -1447.216)"/></g><g transform="translate(28.867 51.222)"><path class="d" d="M4246.331,1459.673c-.367,1.141,2.858,4.651,3.612,2.286C4250.355,1460.693,4246.929,1457.82,4246.331,1459.673Z" transform="translate(-4246.302 -1459.067)"/></g><g transform="translate(0 60.935)"><path class="d" d="M4233.368,1463.64c-1.091.31-.425,1.007-.608,1.587-.964,3,14.5,5.525,16.321,4.734.521-.228.8-1.309.37-1.449a.323.323,0,0,1-.146-.312C4249.317,1467.99,4233.747,1463.534,4233.368,1463.64Z" transform="translate(-4232.717 -1463.638)"/></g><g transform="translate(9.561 81.696)"><path class="d" d="M4241.437,1473.516a8.379,8.379,0,0,0-3.74.246c-1.142.735.047,2.688.539,2.369a1.42,1.42,0,0,1,.639.074C4240.18,1476.571,4243.933,1474.7,4241.437,1473.516Z" transform="translate(-4237.216 -1473.409)"/></g></g><g transform="translate(607.003 131.175)"><g transform="translate(0 87.262)"><path class="b" d="M4528.077,1544.138c-.189-1.175-12.571-9.244-14.479-8.944-.531.087-.193.591-.661.665-2.216.353,6.906,6.889,9.008,8.886C4525.428,1548.046,4528.467,1546.56,4528.077,1544.138Z" transform="translate(-4512.592 -1535.186)"/></g><g transform="translate(9.445 70.638)"><path class="b" d="M4517.69,1528.843c.181.123,2.456,1.328,2.693,1.062C4523.254,1526.684,4514.67,1526.747,4517.69,1528.843Z" transform="translate(-4517.036 -1527.362)"/></g><g transform="translate(20.956 53.832)"><path class="b" d="M4538.048,1526.552a2.3,2.3,0,0,0,1.183-.3.994.994,0,0,0,.522-.85c-.153-2.582-13.742-6.162-16.726-5.939-.376.03-.582.119-.573.28C4522.491,1520.335,4535.186,1526.775,4538.048,1526.552Z" transform="translate(-4522.454 -1519.453)"/></g><g transform="translate(12.949 37.086)"><path class="b" d="M4523.642,1513.55c-.072-1.252-5.1-3.33-4.953-.733C4518.772,1514.209,4523.766,1515.579,4523.642,1513.55Z" transform="translate(-4518.686 -1511.572)"/></g><g transform="translate(24.954 15.679)"><path class="b" d="M4544.617,1504.57c1.073-.742.043-1.141,0-1.783-.193-3.289-18.316.576-19.99,2.074-.48.425-.33,1.594.2,1.551a.349.349,0,0,1,.294.242C4525.2,1506.865,4544.251,1504.834,4544.617,1504.57Z" transform="translate(-4524.336 -1501.498)"/></g><g transform="translate(20.626)"><path class="b" d="M4523.672,1498.056a10.846,10.846,0,0,0,4.022-1.762c.95-1.175-1.179-2.577-1.592-2.067a1.885,1.885,0,0,1-.736.189C4523.772,1494.593,4520.412,1497.931,4523.672,1498.056Z" transform="translate(-4522.299 -1494.119)"/></g></g><g transform="translate(110.524 19.905)"><path class="b" d="M4301.776,1470.153v5.907c0,7.114-3.9,11.181-11.415,11.181s-11.418-4.067-11.418-11.181v-23.123c0-7.116,3.9-11.183,11.418-11.183s11.415,4.067,11.415,11.183v4.318h-7.24v-4.764c0-3.177-1.529-4.386-3.967-4.386s-3.97,1.209-3.97,4.386V1476.5c0,3.177,1.532,4.322,3.97,4.322s3.967-1.143,3.967-4.322v-6.351Z" transform="translate(-4278.943 -1441.754)"/><g transform="translate(24.227 0.512)"><path class="b" d="M4300.021,1471.724l-9.676-29.729h8l5.848,20.267,5.849-20.267h7.308l-9.675,29.729v14.738h-7.656Z" transform="translate(-4290.345 -1441.995)"/></g><g transform="translate(54.298 0.506)"><path class="b" d="M4327.4,1452.224v1.589c0,4.575-1.531,7.495-4.942,8.957,4.106,1.462,5.709,4.828,5.709,9.528v3.621c0,6.861-3.969,10.546-11.625,10.546H4304.5v-44.472h11.556C4323.987,1442,4327.4,1445.362,4327.4,1452.224Zm-15.246-3.876v11.744h2.989c2.856,0,4.595-1.143,4.595-4.7v-2.471c0-3.179-1.183-4.575-3.9-4.575Zm0,18.106v13.659h4.388c2.577,0,3.965-1.082,3.965-4.384v-3.876c0-4.129-1.462-5.4-4.942-5.4Z" transform="translate(-4304.496 -1441.992)"/></g><g transform="translate(82.567 0.51)"><path class="b" d="M4325.452,1460.733h10.515v6.351h-10.515v13.028h13.226v6.351H4317.8v-44.469h20.877v6.353h-13.226Z" transform="translate(-4317.8 -1441.994)"/></g><g transform="translate(108.179 0.506)"><path class="b" d="M4345.865,1486.466a12.632,12.632,0,0,1-.7-5.463v-6.989c0-4.129-1.532-5.656-5.011-5.656h-2.647v18.106h-7.656v-44.472h11.556c7.938,0,11.347,3.368,11.347,10.231v3.493c0,4.575-1.6,7.569-5.013,9.022,3.827,1.462,5.083,4.828,5.083,9.464v6.861a12.06,12.06,0,0,0,.835,5.4Zm-8.352-38.116v13.659h2.99c2.855,0,4.594-1.143,4.594-4.7v-4.379c0-3.177-1.183-4.575-3.9-4.575Z" transform="translate(-4329.853 -1441.992)"/></g></g><g transform="translate(303.985 152.056)"><path class="b" d="M4378.132,1524.054h11.854v-11.963a8.146,8.146,0,0,1,8.145-8.145h.576a8.146,8.146,0,0,1,8.145,8.145h0v11.963h11.961a8.144,8.144,0,0,1,8.145,8.145v.576a8.146,8.146,0,0,1-8.145,8.145h-11.961v11.853a8.146,8.146,0,0,1-8.143,8.147h-.576a8.148,8.148,0,0,1-8.146-8.147v-11.853h-11.854a8.147,8.147,0,0,1-8.145-8.145h0v-.573A8.146,8.146,0,0,1,4378.132,1524.054Z" transform="translate(-4369.988 -1503.946)"/></g><g transform="translate(307.383 154.162)"><path class="f" d="M4379.732,1525.045h11.853v-11.961a8.146,8.146,0,0,1,8.145-8.147h.576a8.146,8.146,0,0,1,8.145,8.147v11.961h11.961a8.144,8.144,0,0,1,8.145,8.145h0v.574a8.147,8.147,0,0,1-8.145,8.147H4408.45v11.853a8.144,8.144,0,0,1-8.145,8.145h-.576a8.145,8.145,0,0,1-8.145-8.145h0V1541.91h-11.853a8.148,8.148,0,0,1-8.145-8.147v-.574A8.147,8.147,0,0,1,4379.732,1525.045Z" transform="translate(-4371.587 -1504.937)"/></g><g transform="translate(378.941 122.894)"><g transform="translate(55.975 1.67)"><g transform="translate(0 0.672)"><path class="f" d="M4471.659,1527.963c33.407,0,30.386,21.812,29.041,30.159-3.357,19.083-19.473,30.843-42.3,30.843a107.745,107.745,0,0,1-21.318-2.55c-3.187-.68-6.044-3.066-5.373-6.814.336-1.365,1.008-4.088,2.351-9.2,1.341-5.28,4.7-6.3,8.729-6.3l6.714.85a118.411,118.411,0,0,0,14.437,1.022c7.891,0,11.247-2.214,12.255-8.349.671-3.4-1.343-6.475-7.89-6.475h-25.013a5.35,5.35,0,0,1-5.539-6.817l7.89-46a8.286,8.286,0,0,1,8.058-6.987h49.185a5.42,5.42,0,0,1,5.539,6.987l-1.511,9.371a8.287,8.287,0,0,1-8.057,6.817H4467.46l-2.35,13.461Z" transform="translate(-4431.605 -1491.325)"/></g><g transform="translate(76.537)"><path class="f" d="M4469.243,1540.76c7.053-40.373,24.51-49.752,47.34-49.752s37.1,9.371,30.051,49.752c-6.547,37.823-24.012,48.56-46.837,48.56C4476.631,1589.32,4462.7,1578.585,4469.243,1540.76Zm52.88,0c4.364-25.046-3.861-26.583-9.562-26.583s-14.437,1.536-18.8,26.583c-4.037,23,4.038,25.556,9.9,25.556,5.533,0,14.432-2.556,18.461-25.556Z" transform="translate(-4467.625 -1491.008)"/></g></g><g transform="translate(0 0.833)"><path class="f" d="M4429.82,1502.981l-7.729,1.683-1.466-1.57.473-2.858a5.439,5.439,0,0,0,.073-2.55,1.059,1.059,0,0,0-1.084-.533,1.819,1.819,0,0,0-1.475.756,4.968,4.968,0,0,0-.833,2.248,6.03,6.03,0,0,0,.032,2.9,5.746,5.746,0,0,0,2.406,2.324,21.97,21.97,0,0,1,7.267,6.43,14.094,14.094,0,0,1,.382,8.208,16.378,16.378,0,0,1-1.942,6.092,9.634,9.634,0,0,1-4.23,3.323,16.107,16.107,0,0,1-6.6,1.4,12.668,12.668,0,0,1-6.588-1.449,5.8,5.8,0,0,1-3.058-3.842,19.455,19.455,0,0,1,.244-6.687l.426-2.527,9.229-.108,1.464,1.57-2.241,3.126a5.971,5.971,0,0,0-.068,2.786,1.243,1.243,0,0,0,1.275.6,1.966,1.966,0,0,0,1.606-.805,5.206,5.206,0,0,0,.867-2.337,6.794,6.794,0,0,0-.187-4.448,22.814,22.814,0,0,0-4.069-3.448,34.772,34.772,0,0,1-4.3-3.542,6.7,6.7,0,0,1-1.474-3.073,13.194,13.194,0,0,1,.063-5.042,16.166,16.166,0,0,1,2.21-6.494,9.8,9.8,0,0,1,4.146-3.253,15.732,15.732,0,0,1,6.2-1.232,13.989,13.989,0,0,1,6.348,1.181,5.366,5.366,0,0,1,3.065,3.136,16.534,16.534,0,0,1-.19,6.51Z" transform="translate(-4405.263 -1490.614)"/></g><g transform="translate(22.097)"><path class="f" d="M4440.579,1490.222l2.095,2.091-19.778,38.159-5.77,1.651-1.464-1.57,17.825-40.239Z" transform="translate(-4415.662 -1490.222)"/></g><g transform="translate(2.836 2.407)"><path class="b" d="M4431.163,1503.716l-9.2.113.475-2.858a5.463,5.463,0,0,0,.069-2.55,1.057,1.057,0,0,0-1.083-.534,1.819,1.819,0,0,0-1.476.757,4.99,4.99,0,0,0-.832,2.248,6.067,6.067,0,0,0,.028,2.9,5.775,5.775,0,0,0,2.41,2.323,21.873,21.873,0,0,1,7.266,6.43,14.109,14.109,0,0,1,.382,8.208,16.431,16.431,0,0,1-1.941,6.094,9.667,9.667,0,0,1-4.233,3.323,16.18,16.18,0,0,1-6.6,1.4,12.7,12.7,0,0,1-6.588-1.449,5.806,5.806,0,0,1-3.06-3.84,19.428,19.428,0,0,1,.242-6.687l.425-2.527,9.23-.108-.775,4.7a5.958,5.958,0,0,0-.07,2.786,1.252,1.252,0,0,0,1.275.6,1.963,1.963,0,0,0,1.605-.805,5.193,5.193,0,0,0,.87-2.337,6.761,6.761,0,0,0-.187-4.448,22.542,22.542,0,0,0-4.067-3.446,35.287,35.287,0,0,1-4.3-3.542,6.717,6.717,0,0,1-1.473-3.073,13.211,13.211,0,0,1,.062-5.042,16.192,16.192,0,0,1,2.213-6.494,9.761,9.761,0,0,1,4.145-3.251,15.664,15.664,0,0,1,6.2-1.232,13.935,13.935,0,0,1,6.351,1.179,5.367,5.367,0,0,1,3.063,3.136,16.536,16.536,0,0,1-.188,6.51Z" transform="translate(-4406.598 -1491.355)"/></g><g transform="translate(24.196 2.089)"><path class="b" d="M4441.561,1491.205l-17.687,40.25-7.224.083,17.823-40.239Z" transform="translate(-4416.65 -1491.205)"/></g><g transform="translate(61.939 6.168)"><g transform="translate(0 0.675)"><path class="b" d="M4474.466,1530.081c33.4,0,30.386,21.812,29.041,30.158-3.357,19.084-19.473,30.843-42.3,30.843a107.781,107.781,0,0,1-21.319-2.55c-3.187-.682-6.043-3.066-5.372-6.815.336-1.364,1.008-4.088,2.351-9.2,1.342-5.282,4.7-6.3,8.729-6.3l6.715.85a118.83,118.83,0,0,0,14.437,1.022c7.89,0,11.247-2.214,12.255-8.349.671-3.4-1.343-6.474-7.89-6.474h-25.013a5.348,5.348,0,0,1-5.539-6.815l7.89-46.006a8.286,8.286,0,0,1,8.058-6.987h49.185a5.42,5.42,0,0,1,5.539,6.987l-1.511,9.371a8.29,8.29,0,0,1-8.057,6.815h-31.392l-2.35,13.461Z" transform="translate(-4434.413 -1493.443)"/></g><g transform="translate(76.539)"><path class="b" d="M4472.05,1542.877c7.052-40.373,24.511-49.752,47.342-49.752s37.1,9.373,30.05,49.752c-6.547,37.823-24.012,48.56-46.837,48.56C4479.439,1591.437,4465.505,1580.7,4472.05,1542.877Zm52.881,0c4.364-25.046-3.86-26.58-9.562-26.58s-14.436,1.534-18.8,26.58c-4.037,23,4.037,25.558,9.9,25.558C4512.005,1568.436,4520.9,1565.881,4524.931,1542.877Z" transform="translate(-4470.432 -1493.125)"/></g></g></g><g transform="translate(81.941 92.123)"><ellipse class="f" cx="89.099" cy="89.135" rx="89.099" ry="89.135"/></g><g transform="translate(90.848 92.159)"><ellipse class="b" cx="89.099" cy="89.135" rx="89.099" ry="89.135"/></g><g transform="translate(110.157 143.822)"><g transform="translate(0 0.119)"><path class="f" d="M4289.964,1518.108H4278.77v-17.981h31.324v82.586h-20.13Z" transform="translate(-4278.77 -1500.127)"/></g><g transform="translate(43.307)"><path class="f" d="M4352.862,1500.071v16.974h-35.283v15.612a20.693,20.693,0,0,1,15.152-5.656c17.98,0,24.878,13.689,24.878,27.037,0,17.424-10.178,28.735-28.5,28.735-18.546,0-29.29-10.295-29.961-24.547h18.884a9.778,9.778,0,0,0,10.412,8.145c7.348,0,10.517-5.312,10.517-12.443,0-7.467-3.732-11.426-10.624-11.426a9.139,9.139,0,0,0-9.616,6.787h-18.658v-49.215Z" transform="translate(-4299.151 -1500.071)"/></g></g><g transform="translate(217.781 143.57)"><path class="f" d="M4335.8,1499.971a6.433,6.433,0,1,1-6.352,6.513l0-.083a5.914,5.914,0,0,1,6.354-6.43Zm-1.864,6.43c0,1.791.688,2.59,1.827,2.59s1.864-.8,1.864-2.59c0-1.825-.725-2.625-1.864-2.625s-1.831.8-1.831,2.625Zm15.073-6.011h6.266l-14.649,26.8h-6.279Zm4.87,14.349a6.434,6.434,0,1,1-6.313,6.551l0-.117a5.906,5.906,0,0,1,5.335-6.426A5.818,5.818,0,0,1,4353.875,1514.739Zm-1.865,6.434c0,1.785.686,2.588,1.826,2.588s1.864-.8,1.864-2.588-.726-2.626-1.864-2.626-1.83.835-1.83,2.626Z" transform="translate(-4329.419 -1499.953)"/></g><g transform="translate(216.61 181.248)"><g transform="translate(0 0.124)"><path class="f" d="M4336.879,1522.208a4.3,4.3,0,0,1-4.138,4.473,4.113,4.113,0,0,1-.537-.01h-3.336v-8.912h3.336a4.3,4.3,0,0,1,4.662,3.916A3.881,3.881,0,0,1,4336.879,1522.208Zm-4.809,2.58a2.588,2.588,0,0,0,0-5.176h-1.024v5.17Z" transform="translate(-4328.868 -1517.742)"/></g><g transform="translate(8.977)"><path class="f" d="M4336.57,1526.819c-1.912,0-3.413-.952-3.477-2.763h2.311a1.023,1.023,0,0,0,1.023,1.016h.079c.637,0,1.039-.312,1.039-.839,0-1.651-4.463-.761-4.427-3.922,0-1.687,1.383-2.627,3.249-2.627,1.942,0,3.247.967,3.337,2.658h-2.338a.966.966,0,0,0-1.006-.927h-.021a.792.792,0,0,0-.905.655.822.822,0,0,0,0,.155c0,1.549,4.4.85,4.4,3.825a2.881,2.881,0,0,1-3.266,2.769Z" transform="translate(-4333.093 -1517.684)"/></g><g transform="translate(16.614 0.031)"><path class="f" d="M4341.219,1517.7a4.132,4.132,0,0,1,4.223,3.122h-2.384a1.958,1.958,0,0,0-1.863-1.144,2.586,2.586,0,0,0,0,5.128,1.966,1.966,0,0,0,1.865-1.141h2.386a4.124,4.124,0,0,1-4.223,3.108,4.536,4.536,0,0,1,0-9.073h0Z" transform="translate(-4336.687 -1517.698)"/></g><g transform="translate(26.213 0.142)"><path class="f" d="M4341.207,1517.751h6.889v1.736h-2.36v7.171h-2.17v-7.171h-2.36Z" transform="translate(-4341.205 -1517.751)"/></g><g transform="translate(33.836 0.009)"><path class="f" d="M4349.363,1526.813a4.562,4.562,0,1,1,4.554-4.571h0a4.481,4.481,0,0,1-4.39,4.568h-.164Zm0-1.98a2.339,2.339,0,0,0,2.361-2.3h0a2.573,2.573,0,0,0-.016-.289,2.362,2.362,0,1,0-2.338,2.59Z" transform="translate(-4344.792 -1517.688)"/></g></g><g transform="translate(87.72 365.176)"><g transform="translate(0 1.068)"><path class="b" d="M4226.993,1598.955l1.819-8.567c.192-.8.541-1.173,1.274-1.173h.368c.716,0,1.122.425.943,1.222l-1.7,7.9h4.144c.7,0,1.1.3,1.1.769a2.037,2.037,0,0,1-.438,1.2c-.174.193-.425.282-1,.282h-5.227C4227.221,1600.6,4226.744,1600.054,4226.993,1598.955Z" transform="translate(-4226.928 -1589.215)"/></g><g transform="translate(9.069 3.704)"><path class="b" d="M4237.521,1597.625a3.571,3.571,0,0,1-3.076,1.781,3.186,3.186,0,0,1-3.248-3.124,3.6,3.6,0,0,1,.014-.37,5.187,5.187,0,0,1,4.674-5.455,3,3,0,0,1,2.746,1.538,1.736,1.736,0,0,1,1.8-1.4c.488,0,.873.215.873.3l-1.328,6.188c-.212.946-.034,1.294.625,1.417.017.017-.106.871-1.364.871a1.531,1.531,0,0,1-1.733-1.3v0a1.488,1.488,0,0,1,0-.447Zm.438-2.535.245-1.186a1.945,1.945,0,0,0-1.979-1.519,2.943,2.943,0,0,0-2.622,3.187,1.727,1.727,0,0,0,1.556,1.876h.174a2.807,2.807,0,0,0,2.626-2.363Z" transform="translate(-4231.196 -1590.456)"/></g><g transform="translate(22.743 3.702)"><path class="b" d="M4237.636,1595.5a4.839,4.839,0,0,1,4.631-5.03h.2a3.8,3.8,0,0,1,4.083,3.5v0h0a3.862,3.862,0,0,1,0,.425,4.832,4.832,0,0,1-4.627,5.03h-.2a3.8,3.8,0,0,1-4.081-3.5C4237.632,1595.781,4237.632,1595.638,4237.636,1595.5Zm6.765-1.016a2.023,2.023,0,0,0-1.9-2.146h-.113a2.873,2.873,0,0,0-2.6,3.077,2.019,2.019,0,0,0,1.91,2.125h.108a2.862,2.862,0,0,0,2.6-3.055Z" transform="translate(-4237.632 -1590.454)"/></g><g transform="translate(32.779 0.202)"><path class="b" d="M4242.736,1599.958l1.173-5.508h-.663c-.559,0-.891-.244-.891-.637a1.826,1.826,0,0,1,.351-1.031,1.123,1.123,0,0,1,.86-.244h.752l.14-.578c.488-2.325,1.748-3.145,3.338-3.145a2.524,2.524,0,0,1,1.8.576,1.073,1.073,0,0,1,.313.752,1.251,1.251,0,0,1-.663,1.083,1.531,1.531,0,0,0-1.187-.527c-.638,0-1.05.351-1.26,1.311l-.123.527h1.156c.612,0,.943.264.943.638a1.765,1.765,0,0,1-.365,1.031,1.1,1.1,0,0,1-.851.244h-1.173l-1.173,5.51c-.174.871-.506,1.173-1.135,1.173h-.264C4243.142,1601.128,4242.544,1600.867,4242.736,1599.958Z" transform="translate(-4242.355 -1588.808)"/></g><g transform="translate(39.019 3.715)"><path class="b" d="M4245.293,1595.773a5.226,5.226,0,0,1,5.134-5.312h.233c2.167,0,3.372,1.015,3.372,2.5,0,1.747-1.12,2.794-4.91,2.794-.529,0-1.1-.036-1.747-.07v.053a1.829,1.829,0,0,0,1.715,1.938h0a1.715,1.715,0,0,0,.361-.015,3.038,3.038,0,0,0,2.517-1.241c.036-.051,1.047.125,1.047.927a1.331,1.331,0,0,1-.468,1.05,4.318,4.318,0,0,1-3.13,1.015C4246.621,1599.407,4245.293,1597.871,4245.293,1595.773Zm2.395-1.592c.454.036.861.051,1.225.051,2.377,0,3.042-.54,3.042-1.207,0-.455-.469-.909-1.4-.909A3.215,3.215,0,0,0,4247.688,1594.182Z" transform="translate(-4245.292 -1590.461)"/></g><g transform="translate(48.072 3.702)"><path class="b" d="M4253.188,1592.1a2.61,2.61,0,0,1,2.308-1.643c.851,0,1.52.489,1.52,1.207a1.559,1.559,0,0,1-1.1,1.556,1.516,1.516,0,0,0-1.187-.508c-1.1,0-1.8,1.224-2.188,3.024l-.488,2.361c-.19.873-.509,1.173-1.135,1.173h-.264c-.665,0-1.26-.263-1.062-1.173l1.556-7.342a1.1,1.1,0,0,1,.68-.155,1.3,1.3,0,0,1,1.379,1.211v0h0a1.179,1.179,0,0,1-.014.287Z" transform="translate(-4249.552 -1590.455)"/></g><g transform="translate(56.053 1.652)"><path class="b" d="M4253.875,1597.282l.75-3.612h-.425c-.56,0-.893-.244-.893-.637a1.825,1.825,0,0,1,.349-1.033,1.117,1.117,0,0,1,.85-.244h.506l.1-.489c.244-1.258.752-1.777,1.835-1.777.527,0,.927.212.908.3l-.426,1.979h1.435c.593,0,.926.263.926.637a1.663,1.663,0,0,1-.367,1.033,1.064,1.064,0,0,1-.839.244H4257l-.752,3.493c-.228,1.031.123,1.466.8,1.466a1.622,1.622,0,0,0,1.05-.438c.068-.051.4.228.4.752a1.3,1.3,0,0,1-.426.96,2.491,2.491,0,0,1-1.816.593C4254.328,1600.516,4253.442,1599.345,4253.875,1597.282Z" transform="translate(-4253.308 -1589.49)"/></g><g transform="translate(62.578 3.704)"><path class="b" d="M4262.7,1597.625a3.57,3.57,0,0,1-3.076,1.781,3.185,3.185,0,0,1-3.247-3.124q0-.185.012-.37a5.191,5.191,0,0,1,4.676-5.455,3,3,0,0,1,2.745,1.538,1.736,1.736,0,0,1,1.8-1.4c.489,0,.875.215.875.3l-1.328,6.188c-.212.946-.033,1.294.626,1.417.019.017-.105.871-1.362.871a1.532,1.532,0,0,1-1.734-1.3v0a1.555,1.555,0,0,1,0-.447Zm.438-2.535.243-1.186a1.942,1.942,0,0,0-1.978-1.519,2.941,2.941,0,0,0-2.619,3.187,1.725,1.725,0,0,0,1.555,1.876h.175a2.813,2.813,0,0,0,2.624-2.363Z" transform="translate(-4256.379 -1590.456)"/></g><g transform="translate(76.595 1.652)"><path class="b" d="M4263.539,1597.282l.752-3.612h-.425c-.56,0-.891-.244-.891-.637a1.785,1.785,0,0,1,.351-1.033,1.107,1.107,0,0,1,.851-.244h.507l.1-.489c.244-1.258.753-1.777,1.838-1.777.527,0,.927.212.908.3l-.426,1.979h1.435c.591,0,.922.263.922.637a1.673,1.673,0,0,1-.365,1.033,1.066,1.066,0,0,1-.84.244h-1.6l-.752,3.493c-.228,1.031.123,1.466.8,1.466a1.628,1.628,0,0,0,1.05-.438c.069-.051.4.228.4.752a1.317,1.317,0,0,1-.425.96,2.49,2.49,0,0,1-1.819.593C4263.989,1600.516,4263.1,1599.345,4263.539,1597.282Z" transform="translate(-4262.975 -1589.49)"/></g><g transform="translate(83.076 3.715)"><path class="b" d="M4266.026,1595.773a5.227,5.227,0,0,1,5.134-5.312h.233c2.168,0,3.374,1.015,3.374,2.5,0,1.747-1.121,2.794-4.913,2.794-.527,0-1.1-.036-1.747-.07v.053a1.832,1.832,0,0,0,1.719,1.938h0a1.715,1.715,0,0,0,.361-.015,3.023,3.023,0,0,0,2.516-1.241c.039-.051,1.051.125,1.051.927a1.343,1.343,0,0,1-.471,1.05,4.308,4.308,0,0,1-3.127,1.015C4267.354,1599.407,4266.026,1597.871,4266.026,1595.773Zm2.4-1.592c.455.036.851.051,1.224.051,2.378,0,3.043-.54,3.043-1.207,0-.455-.47-.909-1.4-.909a3.219,3.219,0,0,0-2.864,2.061Z" transform="translate(-4266.026 -1590.461)"/></g><g transform="translate(92.13 3.702)"><path class="b" d="M4273.924,1592.1a2.6,2.6,0,0,1,2.308-1.643c.85,0,1.52.489,1.52,1.207a1.56,1.56,0,0,1-1.1,1.556,1.511,1.511,0,0,0-1.185-.508c-1.1,0-1.8,1.224-2.189,3.024l-.488,2.361c-.193.873-.508,1.173-1.137,1.173h-.263c-.665,0-1.261-.263-1.062-1.173l1.555-7.342a1.081,1.081,0,0,1,.684-.155,1.3,1.3,0,0,1,1.375,1.216,1.23,1.23,0,0,1-.015.287Z" transform="translate(-4270.287 -1590.455)"/></g><g transform="translate(99.369 3.725)"><path class="b" d="M4285.07,1597.848a8.214,8.214,0,0,1,.425-2.1,9.428,9.428,0,0,0,.367-1.836,1.24,1.24,0,0,0-1.074-1.39h0a1.213,1.213,0,0,0-.179,0,2.091,2.091,0,0,0-1.837,1.137l-.945,4.441c-.192.892-.559,1.173-1.186,1.173h-.264c-.637,0-1.206-.266-1.016-1.173l.77-3.636c.244-1.154-.244-1.94-1.153-1.94a2.106,2.106,0,0,0-1.837,1.12l-.942,4.462c-.194.907-.56,1.173-1.187,1.173h-.264c-.665,0-1.206-.264-1.016-1.173l1.556-7.342a1.082,1.082,0,0,1,.683-.157,1.3,1.3,0,0,1,1.37,1.215h0a1.333,1.333,0,0,1,0,.234,3.4,3.4,0,0,1,2.85-1.591,2.431,2.431,0,0,1,2.481,1.853,3.645,3.645,0,0,1,3.146-1.853,2.583,2.583,0,0,1,2.642,2.516h0v.234a11.289,11.289,0,0,1-.489,2.5,9.124,9.124,0,0,0-.425,1.887c0,.491.244.682.7.752.051,0-.141,1.016-1.488,1.016C4285.6,1599.37,4285.07,1598.775,4285.07,1597.848Z" transform="translate(-4273.692 -1590.466)"/></g><g transform="translate(115.214)"><path class="b" d="M4281.241,1598.977l1.121-5.225c.192-.893.507-1.186,1.136-1.186h.264c.663,0,1.259.264,1.063,1.186l-1.134,5.3c-.192.946-.037,1.311.682,1.417.019.017-.12.873-1.435.873C4281.346,1601.34,4280.941,1600.36,4281.241,1598.977Zm1.766-8.826a1.367,1.367,0,0,1,1.3-1.435h0a.785.785,0,0,1,.14,0c.872,0,1.363.438,1.363,1.063a1.378,1.378,0,0,1-1.319,1.432h-.117c-.873.006-1.364-.431-1.364-1.06Z" transform="translate(-4281.15 -1588.713)"/></g><g transform="translate(119.542 3.706)"><path class="b" d="M4286.815,1592.123a3.434,3.434,0,0,1,2.936-1.66,2.579,2.579,0,0,1,2.764,2.382v0h0a2.444,2.444,0,0,1,0,.378,10.45,10.45,0,0,1-.509,2.5,10.358,10.358,0,0,0-.4,1.887c0,.489.228.684.7.752.034,0-.14,1.016-1.487,1.016-1.152,0-1.7-.593-1.7-1.521a9.062,9.062,0,0,1,.424-2.1,8.347,8.347,0,0,0,.384-1.836,1.276,1.276,0,0,0-1.115-1.4h0a1.359,1.359,0,0,0-.264,0,2.2,2.2,0,0,0-1.953,1.243l-.909,4.335c-.193.873-.508,1.173-1.137,1.173h-.264c-.663,0-1.256-.263-1.062-1.173l1.556-7.341a1.091,1.091,0,0,1,.682-.157,1.305,1.305,0,0,1,1.382,1.226h0A1.221,1.221,0,0,1,4286.815,1592.123Z" transform="translate(-4283.187 -1590.457)"/></g><g transform="translate(129.921 3.704)"><path class="b" d="M4294.394,1597.625a3.573,3.573,0,0,1-3.076,1.781,3.184,3.184,0,0,1-3.245-3.125,3.068,3.068,0,0,1,.014-.368,5.188,5.188,0,0,1,4.674-5.455,3,3,0,0,1,2.745,1.538,1.736,1.736,0,0,1,1.8-1.4c.489,0,.876.215.876.3l-1.328,6.188c-.213.946-.036,1.294.625,1.417.019.017-.1.871-1.364.871a1.525,1.525,0,0,1-1.731-1.286v0h0a1.449,1.449,0,0,1,0-.459Zm.438-2.535.244-1.186a1.947,1.947,0,0,0-1.976-1.519,2.942,2.942,0,0,0-2.62,3.187,1.722,1.722,0,0,0,1.553,1.876h.175a2.815,2.815,0,0,0,2.626-2.363Z" transform="translate(-4288.072 -1590.456)"/></g><g transform="translate(143.546 3.715)"><path class="b" d="M4294.485,1595.773a5.224,5.224,0,0,1,5.134-5.312h.233c2.167,0,3.379,1.015,3.379,2.5,0,1.747-1.124,2.794-4.912,2.794-.529,0-1.105-.036-1.75-.07v.053a1.83,1.83,0,0,0,1.718,1.938h0a1.729,1.729,0,0,0,.361-.015,3.035,3.035,0,0,0,2.518-1.241c.034-.051,1.048.125,1.048.927a1.342,1.342,0,0,1-.47,1.05,4.318,4.318,0,0,1-3.125,1.015C4295.815,1599.407,4294.485,1597.871,4294.485,1595.773Zm2.395-1.592c.455.036.861.051,1.225.051,2.378,0,3.043-.54,3.043-1.207,0-.455-.47-.909-1.4-.909a3.219,3.219,0,0,0-2.867,2.061Z" transform="translate(-4294.484 -1590.461)"/></g><g transform="translate(152.598 3.704)"><path class="b" d="M4302.375,1592.122a3.441,3.441,0,0,1,2.937-1.659,2.579,2.579,0,0,1,2.762,2.384v0h0a2.017,2.017,0,0,1,0,.376,10.489,10.489,0,0,1-.5,2.5,10.362,10.362,0,0,0-.4,1.887c0,.489.227.684.705.752.036,0-.138,1.016-1.487,1.016-1.154,0-1.7-.593-1.7-1.521a9.053,9.053,0,0,1,.423-2.1,8.352,8.352,0,0,0,.383-1.836,1.26,1.26,0,0,0-1.107-1.4h0a1.472,1.472,0,0,0-.274,0,2.2,2.2,0,0,0-1.954,1.241l-.908,4.335c-.192.873-.507,1.173-1.137,1.173h-.263c-.663,0-1.259-.263-1.062-1.173l1.556-7.342a1.1,1.1,0,0,1,.682-.155,1.307,1.307,0,0,1,1.383,1.222h0A1.266,1.266,0,0,1,4302.375,1592.122Z" transform="translate(-4298.744 -1590.456)"/></g><g transform="translate(162.752 4.659)"><path class="b" d="M4303.524,1597.93a1.978,1.978,0,0,1,.454-1.347,1.328,1.328,0,0,1,1.1-.329c.8,0,1.188.3,1.188.907a1.963,1.963,0,0,1-.456,1.347c-.226.225-.468.313-1.1.313C4303.911,1598.82,4303.524,1598.544,4303.524,1597.93Zm1.119-5.331a1.983,1.983,0,0,1,.458-1.347,1.324,1.324,0,0,1,1.1-.329c.8,0,1.2.3,1.2.909a1.949,1.949,0,0,1-.455,1.345c-.228.228-.47.312-1.1.312-.809,0-1.21-.282-1.21-.895Z" transform="translate(-4303.522 -1590.905)"/></g></g><path class="b" d="M4276.258,1705.2a33.552,33.552,0,0,1-23.781-9.318,22.786,22.786,0,0,1-6.97-18.472l19.808-199.177c1.333-13.389,14.512-23.516,30.657-23.559v-1.434c-16.957.044-30.812,10.731-32.21,24.861l-19.8,199.181a24.153,24.153,0,0,0,7.373,19.573,35.2,35.2,0,0,0,24.938,9.774h375.387v-1.43Z" transform="translate(-4207.874 -1408.927)"/><g transform="translate(415.6 42.951)"><path class="b" d="M4608.729,1473.418c-4.177-11.525-15.957-19.253-29.323-19.253h-.1l-156.794.442v-1.564l156.794-.442c14.067,0,26.49,8.111,30.9,20.284Z" transform="translate(-4422.516 -1452.6)"/></g><g transform="translate(125.814 285.003)"><circle class="d" cx="12.705" cy="12.705" r="12.705"/><g class="g" transform="translate(14.099 4.362)"><g class="h"><rect class="d" width="9.483" height="9.483"/><g transform="translate(0.752 0.752)"><circle class="d" cx="3.988" cy="3.988" r="3.988"/></g><g transform="translate(0.779 0.78)"><circle class="i" cx="3.963" cy="3.963" r="3.963"/></g><g transform="translate(0.807 0.807)"><circle class="j" cx="3.935" cy="3.935" r="3.935"/></g><g transform="translate(0.834 0.835)"><circle class="k" cx="3.908" cy="3.908" r="3.908"/></g><g transform="translate(0.862 0.863)"><circle class="l" cx="3.88" cy="3.88" r="3.88"/></g><g transform="translate(0.89 0.89)"><circle class="m" cx="3.852" cy="3.852" r="3.852"/></g><g transform="translate(0.915 0.916)"><circle class="n" cx="3.825" cy="3.825" r="3.825"/></g><g transform="translate(0.943 0.943)"><circle class="o" cx="3.797" cy="3.797" r="3.797"/></g><g transform="translate(0.971 0.971)"><circle class="p" cx="3.772" cy="3.772" r="3.772"/></g><g transform="translate(0.998 0.999)"><circle class="q" cx="3.744" cy="3.744" r="3.744"/></g><g transform="translate(1.026 1.026)"><circle class="r" cx="3.716" cy="3.716" r="3.716"/></g><g transform="translate(1.053 1.054)"><circle class="s" cx="3.689" cy="3.689" r="3.689"/></g><g transform="translate(1.081 1.081)"><circle class="t" cx="3.661" cy="3.661" r="3.661"/></g><g transform="translate(1.107 1.107)"><circle class="u" cx="3.634" cy="3.634" r="3.634"/></g><g transform="translate(1.134 1.135)"><circle class="v" cx="3.606" cy="3.606" r="3.606"/></g><g transform="translate(1.162 1.162)"><circle class="w" cx="3.58" cy="3.58" r="3.58"/></g><g transform="translate(1.19 1.19)"><circle class="x" cx="3.553" cy="3.553" r="3.553"/></g><g transform="translate(1.217 1.218)"><circle class="y" cx="3.525" cy="3.525" r="3.525"/></g><g transform="translate(1.245 1.245)"><circle class="z" cx="3.498" cy="3.498" r="3.498"/></g><g transform="translate(1.272 1.273)"><circle class="aa" cx="3.47" cy="3.47" r="3.47"/></g><g transform="translate(1.298 1.298)"><circle class="ab" cx="3.442" cy="3.442" r="3.442"/></g><g transform="translate(1.326 1.326)"><circle class="ac" cx="3.415" cy="3.415" r="3.415"/></g><g transform="translate(1.353 1.353)"><circle class="ad" cx="3.389" cy="3.389" r="3.389"/></g><g transform="translate(1.381 1.381)"><circle class="ae" cx="3.362" cy="3.362" r="3.362"/></g><g transform="translate(1.408 1.409)"><circle class="af" cx="3.334" cy="3.334" r="3.334"/></g><g transform="translate(1.436 1.436)"><circle class="ag" cx="3.306" cy="3.306" r="3.306"/></g><g transform="translate(1.464 1.464)"><circle class="ah" cx="3.279" cy="3.279" r="3.279"/></g><g transform="translate(1.489 1.489)"><circle class="ai" cx="3.251" cy="3.251" r="3.251"/></g><g transform="translate(1.517 1.517)"><circle class="aj" cx="3.223" cy="3.223" r="3.223"/></g><g transform="translate(1.545 1.545)"><circle class="ak" cx="3.198" cy="3.198" r="3.198"/></g><g transform="translate(1.572 1.572)"><circle class="al" cx="3.17" cy="3.17" r="3.17"/></g><g transform="translate(1.6 1.6)"><circle class="am" cx="3.143" cy="3.143" r="3.143"/></g><g transform="translate(1.627 1.628)"><circle class="an" cx="3.115" cy="3.115" r="3.115"/></g><g transform="translate(1.655 1.655)"><circle class="ao" cx="3.087" cy="3.087" r="3.087"/></g><g transform="translate(1.681 1.681)"><circle class="ap" cx="3.06" cy="3.06" r="3.06"/></g><g transform="translate(1.708 1.708)"><circle class="aq" cx="3.032" cy="3.032" r="3.032"/></g><g transform="translate(1.736 1.736)"><circle class="ar" cx="3.007" cy="3.007" r="3.007"/></g><g transform="translate(1.763 1.764)"><circle class="as" cx="2.979" cy="2.979" r="2.979"/></g><g transform="translate(1.791 1.791)"><circle class="at" cx="2.951" cy="2.951" r="2.951"/></g><g transform="translate(1.819 1.819)"><circle class="au" cx="2.924" cy="2.924" r="2.924"/></g><g transform="translate(1.846 1.847)"><circle class="av" cx="2.896" cy="2.896" r="2.896"/></g><g transform="translate(1.872 1.872)"><circle class="aw" cx="2.869" cy="2.869" r="2.869"/></g><g transform="translate(1.9 1.899)"><circle class="ax" cx="2.841" cy="2.841" r="2.841"/></g><g transform="translate(1.927 1.927)"><circle class="ay" cx="2.815" cy="2.815" r="2.815"/></g><g transform="translate(1.955 1.955)"><circle class="az" cx="2.788" cy="2.788" r="2.788"/></g><g transform="translate(1.982 1.982)"><circle class="ba" cx="2.76" cy="2.76" r="2.76"/></g><g transform="translate(2.01 2.01)"><circle class="bb" cx="2.733" cy="2.733" r="2.733"/></g><g transform="translate(2.038 2.038)"><circle class="bc" cx="2.705" cy="2.705" r="2.705"/></g><g transform="translate(2.063 2.063)"><circle class="bd" cx="2.677" cy="2.677" r="2.677"/></g><g transform="translate(2.091 2.091)"><circle class="be" cx="2.65" cy="2.65" r="2.65"/></g><g transform="translate(2.118 2.118)"><circle class="bf" cx="2.622" cy="2.622" r="2.622"/></g><g transform="translate(2.146 2.146)"><circle class="bg" cx="2.597" cy="2.597" r="2.597"/></g><g transform="translate(2.174 2.174)"><circle class="bh" cx="2.569" cy="2.569" r="2.569"/></g><g transform="translate(2.201 2.201)"><circle class="bi" cx="2.541" cy="2.541" r="2.541"/></g><g transform="translate(2.229 2.229)"><circle class="bj" cx="2.514" cy="2.514" r="2.514"/></g><g transform="translate(2.255 2.254)"><circle class="bk" cx="2.486" cy="2.486" r="2.486"/></g><g transform="translate(2.282 2.282)"><circle class="bl" cx="2.458" cy="2.458" r="2.458"/></g><g transform="translate(2.31 2.31)"><circle class="bm" cx="2.431" cy="2.431" r="2.431"/></g><g transform="translate(2.337 2.337)"><circle class="bn" cx="2.405" cy="2.405" r="2.405"/></g><g transform="translate(2.365 2.365)"><circle class="bo" cx="2.378" cy="2.378" r="2.378"/></g><g transform="translate(2.393 2.393)"><circle class="bp" cx="2.35" cy="2.35" r="2.35"/></g><g transform="translate(2.42 2.42)"><circle class="bq" cx="2.323" cy="2.323" r="2.323"/></g><g transform="translate(2.445 2.446)"><circle class="br" cx="2.295" cy="2.295" r="2.295"/></g><g transform="translate(2.474 2.473)"><circle class="bs" cx="2.267" cy="2.267" r="2.267"/></g><g transform="translate(2.5 2.501)"><circle class="bt" cx="2.24" cy="2.24" r="2.24"/></g><g transform="translate(2.528 2.528)"><circle class="bu" cx="2.214" cy="2.214" r="2.214"/></g><g transform="translate(2.555 2.556)"><circle class="bv" cx="2.187" cy="2.187" r="2.187"/></g><g transform="translate(2.583 2.584)"><circle class="bw" cx="2.159" cy="2.159" r="2.159"/></g><g transform="translate(2.612 2.612)"><circle class="bx" cx="2.131" cy="2.131" r="2.131"/></g><g transform="translate(2.636 2.637)"><circle class="by" cx="2.104" cy="2.104" r="2.104"/></g><g transform="translate(2.664 2.665)"><circle class="bz" cx="2.076" cy="2.076" r="2.076"/></g><g transform="translate(2.691 2.692)"><circle class="ca" cx="2.048" cy="2.048" r="2.048"/></g><g transform="translate(2.719 2.72)"><circle class="cb" cx="2.023" cy="2.023" r="2.023"/></g><g transform="translate(2.747 2.747)"><circle class="cc" cx="1.995" cy="1.995" r="1.995"/></g><g transform="translate(2.774 2.775)"><circle class="cd" cx="1.968" cy="1.968" r="1.968"/></g><g transform="translate(2.802 2.803)"><circle class="ce" cx="1.94" cy="1.94" r="1.94"/></g><g transform="translate(2.83 2.83)"><circle class="cf" cx="1.912" cy="1.912" r="1.912"/></g><g transform="translate(2.855 2.856)"><circle class="cg" cx="1.885" cy="1.885" r="1.885"/></g><g transform="translate(2.883 2.883)"><circle class="ch" cx="1.857" cy="1.857" r="1.857"/></g><g transform="translate(2.91 2.911)"><circle class="ci" cx="1.832" cy="1.832" r="1.832"/></g><g transform="translate(2.938 2.939)"><circle class="cj" cx="1.804" cy="1.804" r="1.804"/></g><g transform="translate(2.966 2.966)"><circle class="ck" cx="1.776" cy="1.776" r="1.776"/></g><g transform="translate(2.993 2.994)"><circle class="cl" cx="1.749" cy="1.749" r="1.749"/></g><g transform="translate(3.021 3.022)"><circle class="cm" cx="1.721" cy="1.721" r="1.721"/></g><g transform="translate(3.046 3.047)"><circle class="cn" cx="1.694" cy="1.694" r="1.694"/></g><g transform="translate(3.074 3.075)"><circle class="co" cx="1.666" cy="1.666" r="1.666"/></g><g transform="translate(3.102 3.102)"><circle class="cp" cx="1.64" cy="1.64" r="1.64"/></g><g transform="translate(3.129 3.13)"><circle class="cq" cx="1.613" cy="1.613" r="1.613"/></g><g transform="translate(3.157 3.158)"><circle class="cr" cx="1.585" cy="1.585" r="1.585"/></g><g transform="translate(3.185 3.185)"><circle class="cs" cx="1.558" cy="1.558" r="1.558"/></g><g transform="translate(3.212 3.213)"><circle class="ct" cx="1.53" cy="1.53" r="1.53"/></g><g transform="translate(3.238 3.238)"><circle class="cu" cx="1.502" cy="1.502" r="1.502"/></g><g transform="translate(3.265 3.266)"><circle class="cv" cx="1.475" cy="1.475" r="1.475"/></g><g transform="translate(3.293 3.293)"><circle class="cw" cx="1.449" cy="1.449" r="1.449"/></g><g transform="translate(3.321 3.321)"><circle class="cx" cx="1.422" cy="1.422" r="1.422"/></g><g transform="translate(3.348 3.349)"><circle class="cy" cx="1.394" cy="1.394" r="1.394"/></g><g transform="translate(3.376 3.376)"><circle class="cz" cx="1.366" cy="1.366" r="1.366"/></g><g transform="translate(3.404 3.404)"><circle class="da" cx="1.339" cy="1.339" r="1.339"/></g><g transform="translate(3.429 3.43)"><circle class="db" cx="1.311" cy="1.311" r="1.311"/></g><g transform="translate(3.457 3.457)"><circle class="dc" cx="1.283" cy="1.283" r="1.283"/></g><g transform="translate(3.484 3.485)"><circle class="dd" cx="1.258" cy="1.258" r="1.258"/></g><g transform="translate(3.512 3.512)"><circle class="de" cx="1.23" cy="1.23" r="1.23"/></g><g transform="translate(3.54 3.54)"><circle class="df" cx="1.203" cy="1.203" r="1.203"/></g><g transform="translate(3.567 3.568)"><circle class="dg" cx="1.175" cy="1.175" r="1.175"/></g><g transform="translate(3.595 3.595)"><circle class="dh" cx="1.147" cy="1.147" r="1.147"/></g><g transform="translate(3.62 3.621)"><circle class="di" cx="1.12" cy="1.12" r="1.12"/></g><g transform="translate(3.648 3.648)"><circle class="dj" cx="1.092" cy="1.092" r="1.092"/></g><g transform="translate(3.676 3.676)"><circle class="dk" cx="1.067" cy="1.067" r="1.067"/></g><g transform="translate(3.703 3.704)"><circle class="dl" cx="1.039" cy="1.039" r="1.039"/></g><g transform="translate(3.731 3.731)"><circle class="dm" cx="1.011" cy="1.011" r="1.011"/></g><g transform="translate(3.759 3.759)"><circle class="dn" cx="0.984" cy="0.984" r="0.984"/></g><g transform="translate(3.786 3.787)"><circle class="do" cx="0.956" cy="0.956" r="0.956"/></g><g transform="translate(3.812 3.814)"><circle class="dp" cx="0.929" cy="0.929" r="0.929"/></g><g transform="translate(3.839 3.84)"><circle class="dq" cx="0.901" cy="0.901" r="0.901"/></g><g transform="translate(3.867 3.867)"><circle class="dr" cx="0.873" cy="0.873" r="0.873"/></g><g transform="translate(3.895 3.895)"><circle class="ds" cx="0.848" cy="0.848" r="0.848"/></g><g transform="translate(3.922 3.922)"><circle class="dt" cx="0.82" cy="0.82" r="0.82"/></g><g transform="translate(3.95 3.95)"><circle class="du" cx="0.793" cy="0.793" r="0.793"/></g><g transform="translate(3.977 3.978)"><circle class="dv" cx="0.765" cy="0.765" r="0.765"/></g><g transform="translate(4.003 4.005)"><circle class="dw" cx="0.737" cy="0.737" r="0.737"/></g><g transform="translate(4.031 4.031)"><circle class="dx" cx="0.71" cy="0.71" r="0.71"/></g><g transform="translate(4.058 4.058)"><circle class="dy" cx="0.682" cy="0.682" r="0.682"/></g><g transform="translate(4.086 4.086)"><circle class="dz" cx="0.657" cy="0.657" r="0.657"/></g><g transform="translate(4.114 4.114)"><circle class="ea" cx="0.629" cy="0.629" r="0.629"/></g><g transform="translate(4.141 4.141)"><circle class="eb" cx="0.601" cy="0.601" r="0.601"/></g><g transform="translate(4.169 4.169)"><circle class="ec" cx="0.574" cy="0.574" r="0.574"/></g><g transform="translate(4.194 4.197)"><circle class="ed" cx="0.546" cy="0.546" r="0.546"/></g><g transform="translate(4.222 4.222)"><circle class="ee" cx="0.518" cy="0.518" r="0.518"/></g><g transform="translate(4.25 4.25)"><circle class="ef" cx="0.491" cy="0.491" r="0.491"/></g><g transform="translate(4.277 4.277)"><circle class="eg" cx="0.465" cy="0.465" r="0.465"/></g><g transform="translate(4.305 4.305)"><circle class="eh" cx="0.438" cy="0.438" r="0.438"/></g><g transform="translate(4.333 4.333)"><circle class="ei" cx="0.41" cy="0.41" r="0.41"/></g><g transform="translate(4.36 4.36)"><circle class="ej" cx="0.382" cy="0.382" r="0.382"/></g><g transform="translate(4.388 4.388)"><circle class="ek" cx="0.355" cy="0.355" r="0.355"/></g><g transform="translate(4.413 4.413)"><circle class="el" cx="0.327" cy="0.327" r="0.327"/></g><g transform="translate(4.441 4.441)"><circle class="em" cx="0.3" cy="0.3" r="0.3"/></g><g transform="translate(4.469 4.469)"><circle class="en" cx="0.274" cy="0.274" r="0.274"/></g><g transform="translate(4.496 4.496)"><circle class="eo" cx="0.246" cy="0.246" r="0.246"/></g><g transform="translate(4.524 4.524)"><circle class="ep" cx="0.219" cy="0.219" r="0.219"/></g><g transform="translate(4.551 4.551)"><circle class="eq" cx="0.191" cy="0.191" r="0.191"/></g><g transform="translate(4.579 4.579)"><circle class="er" cx="0.164" cy="0.164" r="0.164"/></g><g transform="translate(4.605 4.605)"><circle class="es" cx="0.136" cy="0.136" r="0.136"/></g><g transform="translate(4.632 4.632)"><circle class="et" cx="0.108" cy="0.108" r="0.108"/></g><g transform="translate(4.66 4.66)"><circle class="eu" cx="0.083" cy="0.083" r="0.083"/></g><g transform="translate(4.688 4.687)"><circle class="ev" cx="0.055" cy="0.055" r="0.055"/></g><g transform="translate(4.715 4.715)"><circle class="ew" cx="0.028" cy="0.028" r="0.028"/></g></g></g><g class="g" transform="translate(0.329 7.888)"><g class="h"><g transform="translate(0.001 0.001)"><rect class="d" width="9.483" height="9.483"/><g transform="translate(0.752 0.752)"><circle class="d" cx="3.988" cy="3.988" r="3.988"/></g><g transform="translate(0.779 0.78)"><circle class="i" cx="3.963" cy="3.963" r="3.963"/></g><g transform="translate(0.807 0.807)"><circle class="j" cx="3.935" cy="3.935" r="3.935"/></g><g transform="translate(0.834 0.835)"><circle class="k" cx="3.908" cy="3.908" r="3.908"/></g><g transform="translate(0.86 0.863)"><circle class="l" cx="3.88" cy="3.88" r="3.88"/></g><g transform="translate(0.888 0.888)"><circle class="m" cx="3.852" cy="3.852" r="3.852"/></g><g transform="translate(0.915 0.916)"><circle class="n" cx="3.825" cy="3.825" r="3.825"/></g><g transform="translate(0.943 0.944)"><circle class="o" cx="3.797" cy="3.797" r="3.797"/></g><g transform="translate(0.971 0.971)"><circle class="p" cx="3.772" cy="3.772" r="3.772"/></g><g transform="translate(0.998 0.999)"><circle class="q" cx="3.744" cy="3.744" r="3.744"/></g><g transform="translate(1.026 1.026)"><circle class="r" cx="3.716" cy="3.716" r="3.716"/></g><g transform="translate(1.051 1.054)"><circle class="s" cx="3.689" cy="3.689" r="3.689"/></g><g transform="translate(1.079 1.08)"><circle class="t" cx="3.661" cy="3.661" r="3.661"/></g><g transform="translate(1.107 1.107)"><circle class="u" cx="3.634" cy="3.634" r="3.634"/></g><g transform="translate(1.134 1.135)"><circle class="v" cx="3.606" cy="3.606" r="3.606"/></g><g transform="translate(1.162 1.162)"><circle class="w" cx="3.58" cy="3.58" r="3.58"/></g><g transform="translate(1.189 1.19)"><circle class="x" cx="3.553" cy="3.553" r="3.553"/></g><g transform="translate(1.217 1.218)"><circle class="y" cx="3.525" cy="3.525" r="3.525"/></g><g transform="translate(1.243 1.245)"><circle class="z" cx="3.498" cy="3.498" r="3.498"/></g><g transform="translate(1.27 1.271)"><circle class="aa" cx="3.47" cy="3.47" r="3.47"/></g><g transform="translate(1.298 1.298)"><circle class="ab" cx="3.442" cy="3.442" r="3.442"/></g><g transform="translate(1.326 1.326)"><circle class="ac" cx="3.415" cy="3.415" r="3.415"/></g><g transform="translate(1.353 1.354)"><circle class="ad" cx="3.389" cy="3.389" r="3.389"/></g><g transform="translate(1.381 1.381)"><circle class="ae" cx="3.362" cy="3.362" r="3.362"/></g><g transform="translate(1.408 1.409)"><circle class="af" cx="3.334" cy="3.334" r="3.334"/></g><g transform="translate(1.434 1.436)"><circle class="ag" cx="3.306" cy="3.306" r="3.306"/></g><g transform="translate(1.462 1.462)"><circle class="ah" cx="3.279" cy="3.279" r="3.279"/></g><g transform="translate(1.489 1.49)"><circle class="ai" cx="3.251" cy="3.251" r="3.251"/></g><g transform="translate(1.517 1.517)"><circle class="aj" cx="3.223" cy="3.223" r="3.223"/></g><g transform="translate(1.544 1.545)"><circle class="ak" cx="3.198" cy="3.198" r="3.198"/></g><g transform="translate(1.572 1.573)"><circle class="al" cx="3.17" cy="3.17" r="3.17"/></g><g transform="translate(1.6 1.6)"><circle class="am" cx="3.143" cy="3.143" r="3.143"/></g><g transform="translate(1.627 1.628)"><circle class="an" cx="3.115" cy="3.115" r="3.115"/></g><g transform="translate(1.653 1.653)"><circle class="ao" cx="3.087" cy="3.087" r="3.087"/></g><g transform="translate(1.681 1.681)"><circle class="ap" cx="3.06" cy="3.06" r="3.06"/></g><g transform="translate(1.708 1.709)"><circle class="aq" cx="3.032" cy="3.032" r="3.032"/></g><g transform="translate(1.736 1.736)"><circle class="ar" cx="3.007" cy="3.007" r="3.007"/></g><g transform="translate(1.763 1.764)"><circle class="as" cx="2.979" cy="2.979" r="2.979"/></g><g transform="translate(1.791 1.791)"><circle class="at" cx="2.951" cy="2.951" r="2.951"/></g><g transform="translate(1.819 1.819)"><circle class="au" cx="2.924" cy="2.924" r="2.924"/></g><g transform="translate(1.844 1.844)"><circle class="av" cx="2.896" cy="2.896" r="2.896"/></g><g transform="translate(1.872 1.872)"><circle class="aw" cx="2.869" cy="2.869" r="2.869"/></g><g transform="translate(1.9 1.9)"><circle class="ax" cx="2.841" cy="2.841" r="2.841"/></g><g transform="translate(1.927 1.927)"><circle class="ay" cx="2.815" cy="2.815" r="2.815"/></g><g transform="translate(1.955 1.955)"><circle class="az" cx="2.788" cy="2.788" r="2.788"/></g><g transform="translate(1.982 1.983)"><circle class="ba" cx="2.76" cy="2.76" r="2.76"/></g><g transform="translate(2.01 2.01)"><circle class="bb" cx="2.733" cy="2.733" r="2.733"/></g><g transform="translate(2.036 2.036)"><circle class="bc" cx="2.705" cy="2.705" r="2.705"/></g><g transform="translate(2.063 2.063)"><circle class="bd" cx="2.677" cy="2.677" r="2.677"/></g><g transform="translate(2.091 2.091)"><circle class="be" cx="2.65" cy="2.65" r="2.65"/></g><g transform="translate(2.118 2.119)"><circle class="bf" cx="2.622" cy="2.622" r="2.622"/></g><g transform="translate(2.146 2.146)"><circle class="bg" cx="2.597" cy="2.597" r="2.597"/></g><g transform="translate(2.174 2.174)"><circle class="bh" cx="2.569" cy="2.569" r="2.569"/></g><g transform="translate(2.201 2.201)"><circle class="bi" cx="2.541" cy="2.541" r="2.541"/></g><g transform="translate(2.227 2.227)"><circle class="bj" cx="2.514" cy="2.514" r="2.514"/></g><g transform="translate(2.255 2.255)"><circle class="bk" cx="2.486" cy="2.486" r="2.486"/></g><g transform="translate(2.282 2.282)"><circle class="bl" cx="2.458" cy="2.458" r="2.458"/></g><g transform="translate(2.31 2.31)"><circle class="bm" cx="2.431" cy="2.431" r="2.431"/></g><g transform="translate(2.337 2.338)"><circle class="bn" cx="2.405" cy="2.405" r="2.405"/></g><g transform="translate(2.365 2.365)"><circle class="bo" cx="2.378" cy="2.378" r="2.378"/></g><g transform="translate(2.393 2.393)"><circle class="bp" cx="2.35" cy="2.35" r="2.35"/></g><g transform="translate(2.417 2.418)"><circle class="bq" cx="2.323" cy="2.323" r="2.323"/></g><g transform="translate(2.445 2.446)"><circle class="br" cx="2.295" cy="2.295" r="2.295"/></g><g transform="translate(2.472 2.474)"><circle class="bs" cx="2.267" cy="2.267" r="2.267"/></g><g transform="translate(2.5 2.501)"><circle class="bt" cx="2.24" cy="2.24" r="2.24"/></g><g transform="translate(2.528 2.529)"><circle class="bu" cx="2.214" cy="2.214" r="2.214"/></g><g transform="translate(2.555 2.556)"><circle class="bv" cx="2.187" cy="2.187" r="2.187"/></g><g transform="translate(2.583 2.584)"><circle class="bw" cx="2.159" cy="2.159" r="2.159"/></g><g transform="translate(2.609 2.609)"><circle class="bx" cx="2.131" cy="2.131" r="2.131"/></g><g transform="translate(2.636 2.637)"><circle class="by" cx="2.104" cy="2.104" r="2.104"/></g><g transform="translate(2.664 2.665)"><circle class="bz" cx="2.076" cy="2.076" r="2.076"/></g><g transform="translate(2.691 2.692)"><circle class="ca" cx="2.048" cy="2.048" r="2.048"/></g><g transform="translate(2.719 2.72)"><circle class="cb" cx="2.023" cy="2.023" r="2.023"/></g><g transform="translate(2.747 2.748)"><circle class="cc" cx="1.995" cy="1.995" r="1.995"/></g><g transform="translate(2.774 2.775)"><circle class="cd" cx="1.968" cy="1.968" r="1.968"/></g><g transform="translate(2.8 2.803)"><circle class="ce" cx="1.94" cy="1.94" r="1.94"/></g><g transform="translate(2.827 2.828)"><circle class="cf" cx="1.912" cy="1.912" r="1.912"/></g><g transform="translate(2.855 2.856)"><circle class="cg" cx="1.885" cy="1.885" r="1.885"/></g><g transform="translate(2.883 2.884)"><circle class="ch" cx="1.857" cy="1.857" r="1.857"/></g><g transform="translate(2.91 2.911)"><circle class="ci" cx="1.832" cy="1.832" r="1.832"/></g><g transform="translate(2.938 2.939)"><circle class="cj" cx="1.804" cy="1.804" r="1.804"/></g><g transform="translate(2.966 2.966)"><circle class="ck" cx="1.776" cy="1.776" r="1.776"/></g><g transform="translate(2.991 2.994)"><circle class="cl" cx="1.749" cy="1.749" r="1.749"/></g><g transform="translate(3.019 3.02)"><circle class="cm" cx="1.721" cy="1.721" r="1.721"/></g><g transform="translate(3.046 3.047)"><circle class="cn" cx="1.694" cy="1.694" r="1.694"/></g><g transform="translate(3.074 3.075)"><circle class="co" cx="1.666" cy="1.666" r="1.666"/></g><g transform="translate(3.102 3.103)"><circle class="cp" cx="1.64" cy="1.64" r="1.64"/></g><g transform="translate(3.129 3.13)"><circle class="cq" cx="1.613" cy="1.613" r="1.613"/></g><g transform="translate(3.157 3.158)"><circle class="cr" cx="1.585" cy="1.585" r="1.585"/></g><g transform="translate(3.182 3.185)"><circle class="cs" cx="1.558" cy="1.558" r="1.558"/></g><g transform="translate(3.21 3.211)"><circle class="ct" cx="1.53" cy="1.53" r="1.53"/></g><g transform="translate(3.238 3.238)"><circle class="cu" cx="1.502" cy="1.502" r="1.502"/></g><g transform="translate(3.265 3.266)"><circle class="cv" cx="1.475" cy="1.475" r="1.475"/></g><g transform="translate(3.293 3.294)"><circle class="cw" cx="1.449" cy="1.449" r="1.449"/></g><g transform="translate(3.321 3.321)"><circle class="cx" cx="1.422" cy="1.422" r="1.422"/></g><g transform="translate(3.348 3.349)"><circle class="cy" cx="1.394" cy="1.394" r="1.394"/></g><g transform="translate(3.374 3.377)"><circle class="cz" cx="1.366" cy="1.366" r="1.366"/></g><g transform="translate(3.401 3.402)"><circle class="da" cx="1.339" cy="1.339" r="1.339"/></g><g transform="translate(3.429 3.43)"><circle class="db" cx="1.311" cy="1.311" r="1.311"/></g><g transform="translate(3.457 3.457)"><circle class="dc" cx="1.283" cy="1.283" r="1.283"/></g><g transform="translate(3.484 3.485)"><circle class="dd" cx="1.258" cy="1.258" r="1.258"/></g><g transform="translate(3.512 3.513)"><circle class="de" cx="1.23" cy="1.23" r="1.23"/></g><g transform="translate(3.54 3.54)"><circle class="df" cx="1.203" cy="1.203" r="1.203"/></g><g transform="translate(3.567 3.568)"><circle class="dg" cx="1.175" cy="1.175" r="1.175"/></g><g transform="translate(3.593 3.593)"><circle class="dh" cx="1.147" cy="1.147" r="1.147"/></g><g transform="translate(3.62 3.621)"><circle class="di" cx="1.12" cy="1.12" r="1.12"/></g><g transform="translate(3.648 3.649)"><circle class="dj" cx="1.092" cy="1.092" r="1.092"/></g><g transform="translate(3.676 3.676)"><circle class="dk" cx="1.067" cy="1.067" r="1.067"/></g><g transform="translate(3.703 3.704)"><circle class="dl" cx="1.039" cy="1.039" r="1.039"/></g><g transform="translate(3.731 3.732)"><circle class="dm" cx="1.011" cy="1.011" r="1.011"/></g><g transform="translate(3.759 3.759)"><circle class="dn" cx="0.984" cy="0.984" r="0.984"/></g><g transform="translate(3.784 3.784)"><circle class="do" cx="0.956" cy="0.956" r="0.956"/></g><g transform="translate(3.812 3.812)"><circle class="dp" cx="0.929" cy="0.929" r="0.929"/></g><g transform="translate(3.839 3.84)"><circle class="dq" cx="0.901" cy="0.901" r="0.901"/></g><g transform="translate(3.867 3.867)"><circle class="dr" cx="0.873" cy="0.873" r="0.873"/></g><g transform="translate(3.895 3.895)"><circle class="ds" cx="0.848" cy="0.848" r="0.848"/></g><g transform="translate(3.922 3.923)"><circle class="dt" cx="0.82" cy="0.82" r="0.82"/></g><g transform="translate(3.95 3.95)"><circle class="du" cx="0.793" cy="0.793" r="0.793"/></g><g transform="translate(3.975 3.976)"><circle class="dv" cx="0.765" cy="0.765" r="0.765"/></g><g transform="translate(4.003 4.003)"><circle class="dw" cx="0.737" cy="0.737" r="0.737"/></g><g transform="translate(4.031 4.031)"><circle class="dx" cx="0.71" cy="0.71" r="0.71"/></g><g transform="translate(4.058 4.059)"><circle class="dy" cx="0.682" cy="0.682" r="0.682"/></g><g transform="translate(4.086 4.086)"><circle class="dz" cx="0.657" cy="0.657" r="0.657"/></g><g transform="translate(4.114 4.114)"><circle class="ea" cx="0.629" cy="0.629" r="0.629"/></g><g transform="translate(4.141 4.142)"><circle class="eb" cx="0.601" cy="0.601" r="0.601"/></g><g transform="translate(4.167 4.167)"><circle class="ec" cx="0.574" cy="0.574" r="0.574"/></g><g transform="translate(4.194 4.195)"><circle class="ed" cx="0.546" cy="0.546" r="0.546"/></g><g transform="translate(4.222 4.222)"><circle class="ee" cx="0.518" cy="0.518" r="0.518"/></g><g transform="translate(4.25 4.25)"><circle class="ef" cx="0.491" cy="0.491" r="0.491"/></g><g transform="translate(4.277 4.278)"><circle class="eg" cx="0.465" cy="0.465" r="0.465"/></g><g transform="translate(4.305 4.305)"><circle class="eh" cx="0.438" cy="0.438" r="0.438"/></g><g transform="translate(4.332 4.333)"><circle class="ei" cx="0.41" cy="0.41" r="0.41"/></g><g transform="translate(4.358 4.358)"><circle class="ej" cx="0.382" cy="0.382" r="0.382"/></g><g transform="translate(4.386 4.386)"><circle class="ek" cx="0.355" cy="0.355" r="0.355"/></g><g transform="translate(4.413 4.413)"><circle class="el" cx="0.327" cy="0.327" r="0.327"/></g><g transform="translate(4.441 4.441)"><circle class="em" cx="0.3" cy="0.3" r="0.3"/></g><g transform="translate(4.469 4.469)"><circle class="en" cx="0.274" cy="0.274" r="0.274"/></g><g transform="translate(4.496 4.496)"><circle class="eo" cx="0.246" cy="0.246" r="0.246"/></g><g transform="translate(4.524 4.524)"><circle class="ep" cx="0.219" cy="0.219" r="0.219"/></g><g transform="translate(4.549 4.55)"><circle class="eq" cx="0.191" cy="0.191" r="0.191"/></g><g transform="translate(4.577 4.577)"><circle class="er" cx="0.164" cy="0.164" r="0.164"/></g><g transform="translate(4.605 4.605)"><circle class="es" cx="0.136" cy="0.136" r="0.136"/></g><g transform="translate(4.632 4.632)"><circle class="et" cx="0.108" cy="0.108" r="0.108"/></g><g transform="translate(4.66 4.66)"><circle class="eu" cx="0.083" cy="0.083" r="0.083"/></g><g transform="translate(4.687 4.688)"><circle class="ev" cx="0.055" cy="0.055" r="0.055"/></g><g transform="translate(4.715 4.715)"><circle class="ew" cx="0.028" cy="0.028" r="0.028"/></g></g></g></g><g transform="translate(12.333 2.979)"><path class="ex" d="M4292.656,1572.523a.611.611,0,0,1-.584-.442,3.261,3.261,0,0,1,6.265-1.811h0a.609.609,0,1,1-1.17.338,2.042,2.042,0,0,0-3.924,1.135.608.608,0,0,1-.413.754.676.676,0,0,1-.172.023Z" transform="translate(-4291.943 -1567.915)"/></g><g transform="translate(2.948 5.537)"><path class="ex" d="M4288.238,1573.727a.611.611,0,0,1-.584-.44,3.261,3.261,0,1,1,6.265-1.812h0a.609.609,0,1,1-1.17.338,2.042,2.042,0,0,0-3.924,1.135.607.607,0,0,1-.417.752l-.008,0A.665.665,0,0,1,4288.238,1573.727Z" transform="translate(-4287.525 -1569.119)"/></g><g transform="translate(6.838 9.782)"><path class="ex" d="M4293.662,1576.472a6.422,6.422,0,0,1-4.115-1.475.61.61,0,0,1,.78-.935,5.206,5.206,0,0,0,3.335,1.194,5.043,5.043,0,0,0,4.927-3.65.61.61,0,0,1,1.2.238.588.588,0,0,1-.021.079A6.263,6.263,0,0,1,4293.662,1576.472Z" transform="translate(-4289.356 -1571.117)"/></g></g></g><rect class="b" width="163.187" height="1.516" transform="translate(4484.765 1475.811)"/></g></svg>