<svg xmlns="http://www.w3.org/2000/svg" width="347.244" height="138.256" viewBox="0 0 347.244 138.256"><defs><style>.a{fill:#fff;}.b{fill:#0033a1;}.c{fill:#fefffe;}</style></defs><g transform="translate(-645.457 -145.584)"><g transform="translate(645.457 128.389)"><path class="a" d="M5887.358,1190.013v9.59h9.321v8.2h-9.321v9.533h-8.678V1207.8h-9.32V1199.6h9.32v-9.59Z" transform="translate(-5757.467 -1118.831)"/><ellipse class="b" cx="50.261" cy="50.282" rx="50.261" ry="50.282" transform="translate(0 33.838)"/><path class="a" d="M5704.542,1155.177a3.629,3.629,0,1,1-3.584,3.629A3.342,3.342,0,0,1,5704.542,1155.177Zm-1.052,3.629c0,1.01.387,1.46,1.031,1.46s1.052-.451,1.052-1.46c0-1.031-.409-1.481-1.052-1.481s-1.033.451-1.033,1.481Zm8.5-3.392h3.541l-8.264,15.117h-3.542Zm2.747,8.095a3.63,3.63,0,1,1-3.562,3.629,3.332,3.332,0,0,1,3.563-3.629Zm-1.052,3.629c0,1.009.387,1.46,1.03,1.46s1.052-.451,1.052-1.46-.409-1.482-1.052-1.482-1.032.471-1.032,1.481Z" transform="translate(-5629.339 -1092.327)"/><path class="a" d="M5702.686,1246.839a2.431,2.431,0,0,1-2.634,2.514h-1.882v-5.027h1.882A2.429,2.429,0,0,1,5702.686,1246.839Zm-2.712,1.455a1.46,1.46,0,1,0,0-2.921h-.579v2.917Z" transform="translate(-5627.218 -1160.155)"/><path class="a" d="M5721.287,1249.176c-1.081,0-1.925-.537-1.961-1.554h1.3a.576.576,0,0,0,.577.573h.045c.357,0,.586-.176.586-.473,0-.931-2.514-.429-2.5-2.212,0-.952.78-1.482,1.832-1.482,1.095,0,1.832.546,1.883,1.5h-1.323a.546.546,0,0,0-.568-.523h-.011a.446.446,0,0,0-.51.37.485.485,0,0,0,0,.088c0,.874,2.483.479,2.483,2.161A1.621,1.621,0,0,1,5721.287,1249.176Z" transform="translate(-5643.314 -1159.929)"/><path class="a" d="M5739.871,1244.078a2.333,2.333,0,0,1,2.382,1.761h-1.346a1.107,1.107,0,0,0-1.052-.644,1.459,1.459,0,0,0,0,2.892,1.1,1.1,0,0,0,1.052-.644h1.346a2.327,2.327,0,0,1-2.381,1.754,2.559,2.559,0,0,1,0-5.119Z" transform="translate(-5657 -1159.964)"/><path class="a" d="M5759.979,1244.327h3.886v.98h-1.332v4.046h-1.224v-4.046h-1.332Z" transform="translate(-5674.244 -1160.156)"/><path class="a" d="M5780.525,1249.176a2.574,2.574,0,1,1,2.569-2.578h0a2.528,2.528,0,0,1-2.477,2.577Zm0-1.117a1.314,1.314,0,0,0,1.331-1.3,1.284,1.284,0,0,0-.008-.162,1.333,1.333,0,1,0-1.323,1.461Z" transform="translate(-5687.917 -1159.929)"/><g transform="translate(161.488 -9) rotate(9)"><path class="b" d="M0,7.221.273,1.371A.968.968,0,0,1,1.165.347L2.836.072C4.574-.212,5.657.346,5.882,1.715,6.16,3.408,5.3,4.7,3.125,5.058l-1.38.228L1.669,6.993c-.029.523-.224.808-.706.887L.727,7.92C.281,7.989-.027,7.756,0,7.221ZM3.055,3.794A1.33,1.33,0,0,0,4.283,2.152c-.1-.617-.562-.9-1.4-.761l-.986.162L1.788,4Z" transform="translate(0 28.423)"/><path class="b" d="M.065,3.809A3.143,3.143,0,0,1,2.63.071,2.471,2.471,0,0,1,5.668,2.151,3.143,3.143,0,0,1,3.1,5.89,2.471,2.471,0,0,1,.065,3.809ZM4.3,2.446A1.316,1.316,0,0,0,2.782,1.278,1.867,1.867,0,0,0,1.436,3.526,1.313,1.313,0,0,0,2.95,4.683,1.863,1.863,0,0,0,4.3,2.443Z" transform="translate(6.264 29.124)"/><path class="b" d="M1.677,1.336A1.692,1.692,0,0,1,2.987.038a.876.876,0,0,1,1.1.614,1.015,1.015,0,0,1-.542,1.114.987.987,0,0,0-.816-.2c-.707.114-1.025.975-1.082,2.171L1.584,5.3c-.031.581-.2.8-.605.871L.809,6.2c-.427.07-.835-.035-.807-.638L.225.688A.7.7,0,0,1,.646.518a.845.845,0,0,1,1.031.819Z" transform="translate(12.753 28.029)"/><path class="b" d="M0,6.755.279.928c.029-.592.2-.816.6-.882L1.054.018c.426-.07.836.047.809.65L1.585,6.542c-.024.626.114.845.587.837.013.01.014.573-.828.712C.323,8.258-.042,7.672,0,6.755Z" transform="translate(19.382 25.032)"/><path class="b" d="M4.28,4.831A2.325,2.325,0,0,1,2.494,6.3,2.071,2.071,0,0,1,.051,4.4C-.237,2.648.72.694,2.481.4A1.949,1.949,0,0,1,4.4,1.1,1.125,1.125,0,0,1,5.411.015c.314-.052.583.042.593.1l-.2,4.11c-.035.626.114.834.553.842.013.01.024.569-.783.7A.992.992,0,0,1,4.28,4.831Zm.013-1.672.031-.789A1.266,1.266,0,0,0,2.9,1.6,1.914,1.914,0,0,0,1.549,3.921,1.121,1.121,0,0,0,2.859,4.949,1.829,1.829,0,0,0,4.291,3.157Z" transform="translate(22.081 26.216)"/><path class="b" d="M.048,3.814A3.245,3.245,0,0,1,2.646.069,2.671,2.671,0,0,1,4.71.433a1.3,1.3,0,0,1,.561.818.816.816,0,0,1-.886.917,1.256,1.256,0,0,0-1.5-.837,1.8,1.8,0,0,0-1.4,2.119A1.309,1.309,0,0,0,3.091,4.592,1.532,1.532,0,0,0,4.3,3.6a.722.722,0,0,1,.845.517,1.057,1.057,0,0,1-.251.79,2.637,2.637,0,0,1-1.728.975A2.475,2.475,0,0,1,.048,3.814Z" transform="translate(30.787 25.093)"/><path class="b" d="M.065,3.809A3.143,3.143,0,0,1,2.627.071,2.472,2.472,0,0,1,5.665,2.151,3.143,3.143,0,0,1,3.1,5.89,2.471,2.471,0,0,1,.065,3.809ZM4.3,2.443A1.316,1.316,0,0,0,2.782,1.275,1.866,1.866,0,0,0,1.436,3.524,1.314,1.314,0,0,0,2.95,4.681,1.864,1.864,0,0,0,4.3,2.449Z" transform="translate(36.555 24.144)"/><path class="b" d="M7.257,4.849A5.314,5.314,0,0,1,7.3,3.459a6.074,6.074,0,0,0,.042-1.216.809.809,0,0,0-.955-.765A1.359,1.359,0,0,0,5.335,2.4L5.2,5.349c-.029.592-.236.81-.64.877l-.168.027c-.415.068-.8-.041-.774-.644l.111-2.414c.035-.766-.362-1.219-.945-1.123a1.371,1.371,0,0,0-1.059.911l-.135,2.96c-.028.6-.236.809-.639.876l-.171.027C.349,6.916-.026,6.8,0,6.2L.226,1.327a.708.708,0,0,1,.421-.171.843.843,0,0,1,1.025.787A2.206,2.206,0,0,1,3.331.622,1.581,1.581,0,0,1,5.12,1.55,2.37,2.37,0,0,1,6.941.029,1.681,1.681,0,0,1,8.927,1.523a7.278,7.278,0,0,1-.051,1.655,6.02,6.02,0,0,0-.07,1.255c.051.314.228.412.528.408.034-.006.017.665-.847.807A.933.933,0,0,1,7.257,4.849Z" transform="translate(43.038 22.414)"/><path class="b" d="M0,7.821.336.74A.7.7,0,0,1,.756.57a.849.849,0,0,1,1.037.843A2.14,2.14,0,0,1,3.466.032,2.168,2.168,0,0,1,6,2.025c.285,1.727-.575,3.586-2.3,3.868a2,2,0,0,1-2-.74L1.583,7.568c-.019.59-.2.816-.6.882l-.171.027C.383,8.538-.027,8.424,0,7.821ZM1.817,2.466l-.04.812a1.252,1.252,0,0,0,1.5,1.4A1.765,1.765,0,0,0,4.5,2.474a1.188,1.188,0,0,0-1.378-1.1A1.805,1.805,0,0,0,1.817,2.464Z" transform="translate(52.933 21.36)"/><path class="b" d="M1.68,1.336A1.692,1.692,0,0,1,2.987.038a.876.876,0,0,1,1.1.614,1.014,1.014,0,0,1-.542,1.114.989.989,0,0,0-.816-.2c-.706.114-1.025.975-1.082,2.171L1.584,5.3c-.031.581-.2.8-.6.87L.809,6.2C.383,6.27-.027,6.165,0,5.561L.226.687A.706.706,0,0,1,.646.516a.845.845,0,0,1,1.034.819Z" transform="translate(59.802 20.298)"/><path class="b" d="M4.279,4.831A2.325,2.325,0,0,1,2.493,6.3,2.071,2.071,0,0,1,.05,4.4C-.235,2.648.72.694,2.48.4A1.95,1.95,0,0,1,4.4,1.1,1.124,1.124,0,0,1,5.411.015c.314-.051.583.042.592.1l-.2,4.11c-.035.626.114.834.552.842.014.009.026.569-.783.7a.991.991,0,0,1-1.294-.938Zm.013-1.672.031-.789A1.265,1.265,0,0,0,2.895,1.6,1.915,1.915,0,0,0,1.548,3.921,1.121,1.121,0,0,0,2.857,4.949,1.829,1.829,0,0,0,4.29,3.158Z" transform="translate(64.291 19.281)"/><path class="b" d="M4.277,7.205A2.125,2.125,0,0,1,2.594,8.6a2.178,2.178,0,0,1-2.54-2c-.285-1.716.576-3.573,2.3-3.857a2.123,2.123,0,0,1,2.012.683l.12-2.5c.018-.59.2-.816.6-.882L5.261.018c.426-.07.837.047.81.65L5.792,6.542c-.046.63.114.834.553.843.013.009.025.569-.783.7a.99.99,0,0,1-1.285-.883Zm-.01-1.669L4.3,4.69a1.3,1.3,0,0,0-1.484-.758A1.788,1.788,0,0,0,1.56,6.166,1.177,1.177,0,0,0,2.927,7.254,1.708,1.708,0,0,0,4.271,5.537Z" transform="translate(73.071 15.522)"/><path class="b" d="M.055,4.028A3.4,3.4,0,0,1,2.938.053C4.329-.175,5.21.348,5.365,1.3c.184,1.121-.422,1.912-2.856,2.312-.336.057-.711.094-1.129.139l.005.034A1.189,1.189,0,0,0,2.923,4.8,1.973,1.973,0,0,0,4.407,3.738c.017-.037.687-.032.771.484a.869.869,0,0,1-.192.722,2.809,2.809,0,0,1-1.9.98C1.3,6.22.277,5.372.055,4.028ZM1.421,2.755c.3-.026.555-.057.791-.1,1.525-.25,1.894-.668,1.822-1.095-.048-.291-.4-.533-.993-.435A2.089,2.089,0,0,0,1.427,2.753Z" transform="translate(79.868 16.997)"/><path class="b" d="M0,6.755.279.928c.03-.592.2-.816.6-.882L1.053.018c.426-.07.836.047.81.65L1.583,6.542c-.023.626.114.845.587.836.013.01.013.573-.828.712C.323,8.258-.042,7.671,0,6.755Z" transform="translate(86.085 14.077)"/><path class="b" d="M0,7.821.334.741A.709.709,0,0,1,.756.57a.848.848,0,0,1,1.036.842A2.14,2.14,0,0,1,3.465.032,2.167,2.167,0,0,1,6,2.025c.285,1.727-.574,3.586-2.3,3.867a2,2,0,0,1-2-.74L1.582,7.568c-.018.59-.2.816-.6.882l-.171.027C.388,8.544-.022,8.424,0,7.821ZM1.816,2.467l-.039.812a1.253,1.253,0,0,0,1.5,1.4A1.765,1.765,0,0,0,4.5,2.474a1.188,1.188,0,0,0-1.378-1.1A1.806,1.806,0,0,0,1.817,2.464Z" transform="translate(90.734 15.148)"/><path class="b" d="M0,6.755.279.928c.029-.593.2-.816.6-.883L1.054.018c.426-.07.836.047.81.65L1.585,6.542c-.023.626.114.845.587.837.014.009.014.573-.828.712C.323,8.264-.042,7.678,0,6.755Z" transform="translate(97.691 12.164)"/><path class="b" d="M4.279,4.831A2.325,2.325,0,0,1,2.494,6.3,2.072,2.072,0,0,1,.05,4.4C-.235,2.648.72.693,2.48.4A1.951,1.951,0,0,1,4.4,1.1,1.124,1.124,0,0,1,5.411.015c.314-.051.583.042.592.1l-.2,4.11c-.035.626.114.834.553.842.013.01.025.569-.783.7a.992.992,0,0,1-1.293-.939Zm.013-1.673.032-.788A1.266,1.266,0,0,0,2.9,1.6,1.914,1.914,0,0,0,1.549,3.921a1.122,1.122,0,0,0,1.31,1.028A1.829,1.829,0,0,0,4.291,3.157Z" transform="translate(100.391 13.348)"/><path class="b" d="M1.683,1.421A2.233,2.233,0,0,1,3.391.047a1.677,1.677,0,0,1,2.063,1.48,6.812,6.812,0,0,1-.061,1.657,6.64,6.64,0,0,0-.057,1.252c.051.314.218.414.528.409.023,0,.017.665-.846.807-.74.122-1.15-.2-1.248-.8a5.817,5.817,0,0,1,.048-1.39A5.572,5.572,0,0,0,3.87,2.246a.823.823,0,0,0-1.034-.751,1.43,1.43,0,0,0-1.126,1L1.585,5.374c-.031.581-.2.8-.6.871l-.171.027c-.426.07-.836-.035-.808-.639L.226.76A.7.7,0,0,1,.646.589a.849.849,0,0,1,1.037.832Z" transform="translate(107.407 12.403)"/><path class="b" d="M0,6.993.256,1.458A.968.968,0,0,1,1.148.434L3.368.069c1.525-.25,2.426.188,2.6,1.243A1.83,1.83,0,0,1,4.729,3.439,1.537,1.537,0,0,1,6.261,4.708C6.477,6.02,5.828,7.117,3.484,7.5l-2.478.407C.322,8.029-.037,7.728,0,6.993Zm3.245-.717C4.324,6.1,4.7,5.669,4.574,4.884c-.081-.493-.531-.708-1.35-.573l-1.492.245L1.644,6.54ZM3.129,3.243c.864-.142,1.3-.64,1.19-1.309-.092-.492-.512-.665-1.252-.543l-1.2.2L1.772,3.466Z" transform="translate(115.916 9.288)"/><path class="b" d="M0,6.626.266.939C.3.4.494.13.962.053L1.2.014c.459-.076.761.151.734.683L1.677,5.945l2.658-.437c.449-.074.74.075.788.377a1.33,1.33,0,0,1-.153.82c-.091.142-.24.224-.61.285l-3.354.551C.322,7.656-.037,7.354,0,6.626Z" transform="translate(123.061 8.488)"/><path class="b" d="M.007,7.456a1.65,1.65,0,0,1,.209-.968L2.523.686c.139-.346.337-.54.988-.646C4.262-.084,4.5.1,4.6.389L6.87,6.537c.044.13-.362.6-.854.683-.426.071-.725-.134-.89-.649l-.4-1.109L2.082,5.9,1.311,8C1.294,8.043.144,8.265.007,7.456ZM4.431,4.242l-.9-2.547L2.448,4.568Z" transform="translate(128.783 7.115)"/><path class="b" d="M.079,5.1A4.27,4.27,0,0,1,3.482.086,3.152,3.152,0,0,1,5.923.5a1.463,1.463,0,0,1,.612.844c.142.863-.871,1.144-.939,1.087a1.672,1.672,0,0,0-1.859-.869A2.577,2.577,0,0,0,1.764,4.631a1.8,1.8,0,0,0,2.153,1.6A2.114,2.114,0,0,0,5.568,5.008a.9.9,0,0,1,.95.662A1.142,1.142,0,0,1,6.25,6.5,3.415,3.415,0,0,1,4.057,7.732C1.947,8.08.4,7.066.079,5.1Z" transform="translate(136.09 5.793)"/><path class="b" d="M3.442,6.571,1.791,4.711,1.669,7.4c-.027.534-.224.808-.706.887L.727,8.33C.278,8.4-.024,8.177,0,7.632l.281-6c.026-.545.224-.808.7-.886L1.213.706c.46-.076.764.163.736.7l-.118,2.5,3-3.9c.018-.026.991,0,1.094.626a1.188,1.188,0,0,1-.383.962L3.325,4.227l1.56,1.643c.533.581.8.721,1.227.674.057-.009.2.888-.862,1.063C4.512,7.732,4.1,7.385,3.442,6.571Z" transform="translate(143.499 4.435)"/><path class="b" d="M0,6.755.279.928c.029-.592.2-.816.6-.882L1.053.018c.426-.07.836.047.81.65l-.28,5.874c-.024.626.114.845.587.837.013.009.014.573-.828.712C.317,8.258-.042,7.671,0,6.755Z" transform="translate(152.25 3.206)"/><path class="b" d="M0,6.755.279.928c.03-.592.2-.816.6-.883L1.053.018c.426-.07.836.047.81.65l-.28,5.874c-.023.626.114.845.587.837.013.009.013.573-.828.712C.322,8.258-.042,7.672,0,6.755Z" transform="translate(155.188 2.72)"/><path class="b" d="M.055,6.695A3.4,3.4,0,0,1,2.938,2.719c1.391-.228,2.271.295,2.428,1.248C5.549,5.089,4.943,5.88,2.509,6.28c-.337.057-.71.093-1.128.14l.005.034A1.19,1.19,0,0,0,2.923,7.468,1.977,1.977,0,0,0,4.407,6.406c.017-.037.683-.032.77.484a.871.871,0,0,1-.192.722,2.81,2.81,0,0,1-1.9.98C1.29,8.886.277,8.038.055,6.695ZM1.421,5.421c.3-.026.555-.057.79-.1,1.526-.25,1.894-.668,1.822-1.095-.048-.291-.4-.533-.993-.435A2.089,2.089,0,0,0,1.421,5.42ZM3.271.28A1.2,1.2,0,0,1,3.849.012a.663.663,0,0,1,.782.563,1,1,0,0,1-.455.881,2.873,2.873,0,0,1-2.049.705A3.477,3.477,0,0,1,3.271.279Z" transform="translate(157.832 1.523)"/><path class="b" d="M1.964,5.607,1,2.562C.751,1.728.456,1.547,0,1.587A.918.918,0,0,1,.855.619a1.029,1.029,0,0,1,.835.174,2.409,2.409,0,0,1,.747,1.466l.537,2.008L4.559.022C4.566,0,5.652-.123,5.774.618a1.429,1.429,0,0,1-.2.863L3.844,5.415a1.119,1.119,0,0,1-.911.634C2.527,6.113,2.089,6.039,1.964,5.607Z" transform="translate(163.332 3.105)"/><path class="b" d="M4.28,4.831A2.327,2.327,0,0,1,2.494,6.3,2.072,2.072,0,0,1,.05,4.4C-.237,2.648.72.694,2.481.4A1.95,1.95,0,0,1,4.4,1.1,1.125,1.125,0,0,1,5.411.015c.314-.052.583.042.593.1l-.2,4.11c-.035.626.114.834.553.842.013.009.024.569-.783.7A.993.993,0,0,1,4.28,4.831Zm.013-1.673.031-.788A1.266,1.266,0,0,0,2.9,1.6,1.914,1.914,0,0,0,1.549,3.92a1.122,1.122,0,0,0,1.31,1.029A1.83,1.83,0,0,0,4.291,3.163Z" transform="translate(169.571 1.98)"/><path class="b" d="M.82,5.348l.1-2.391L.653,3c-.358.057-.6-.063-.64-.321a1.15,1.15,0,0,1,.114-.7A.718.718,0,0,1,.65,1.734L.975,1.68l.016-.325c.024-.833.294-1.223.99-1.337.336-.057.616.036.614.1L2.534,1.422l.92-.151c.381-.063.623.07.663.317a1.076,1.076,0,0,1-.127.7.693.693,0,0,1-.512.246l-1.021.171L2.343,5.027c-.036.683.233.929.671.857a1.05,1.05,0,0,0,.626-.391c.039-.041.285.1.338.439a.853.853,0,0,1-.171.661,1.62,1.62,0,0,1-1.1.573C1.452,7.375.752,6.715.82,5.348Z" transform="translate(176.201 0)"/><path class="b" d="M.055,4.028A3.4,3.4,0,0,1,2.938.053C4.329-.175,5.209.348,5.366,1.3c.184,1.121-.423,1.912-2.857,2.312-.337.057-.71.094-1.128.139l.005.034A1.19,1.19,0,0,0,2.923,4.8,1.975,1.975,0,0,0,4.407,3.739c.017-.036.686-.032.771.484a.868.868,0,0,1-.192.722,2.806,2.806,0,0,1-1.9.98C1.29,6.22.277,5.372.055,4.028ZM1.421,2.755c.3-.026.555-.057.791-.1,1.525-.25,1.894-.668,1.822-1.095-.048-.291-.4-.533-.993-.435A2.089,2.089,0,0,0,1.427,2.753Z" transform="translate(180.719 0.429)"/></g><g transform="translate(162.719 -8.341) rotate(9)"><path class="a" d="M0,7.221.272,1.371A.968.968,0,0,1,1.164.347L2.836.072C4.574-.212,5.656.346,5.881,1.715,6.16,3.408,5.3,4.7,3.125,5.058l-1.38.228L1.669,6.994c-.029.523-.224.808-.706.888L.727,7.92C.28,7.995-.022,7.756,0,7.221ZM3.055,3.794A1.33,1.33,0,0,0,4.282,2.152c-.1-.616-.562-.9-1.4-.761l-.987.162L1.787,4Z" transform="translate(0 28.416)"/><path class="a" d="M.065,3.809A3.143,3.143,0,0,1,2.63.071,2.471,2.471,0,0,1,5.667,2.151,3.143,3.143,0,0,1,3.1,5.89,2.471,2.471,0,0,1,.065,3.809ZM4.3,2.446A1.316,1.316,0,0,0,2.782,1.278,1.867,1.867,0,0,0,1.436,3.527,1.313,1.313,0,0,0,2.949,4.683,1.863,1.863,0,0,0,4.3,2.448Z" transform="translate(6.263 29.117)"/><path class="a" d="M1.677,1.336A1.692,1.692,0,0,1,2.987.038a.876.876,0,0,1,1.1.614,1.015,1.015,0,0,1-.542,1.114.989.989,0,0,0-.816-.2c-.707.114-1.025.975-1.082,2.171L1.585,5.3c-.031.581-.2.8-.605.871L.809,6.2c-.426.07-.835-.036-.807-.639L.225.688A.711.711,0,0,1,.646.517a.846.846,0,0,1,1.031.819Z" transform="translate(12.752 28.028)"/><path class="a" d="M0,6.755.279.928c.029-.592.2-.816.6-.882L1.054.018c.427-.071.836.047.809.65L1.585,6.542c-.024.626.114.845.586.837.014.009.014.573-.827.712C.323,8.258-.042,7.671,0,6.755Z" transform="translate(19.382 25.031)"/><path class="a" d="M4.28,4.831A2.326,2.326,0,0,1,2.494,6.3,2.071,2.071,0,0,1,.051,4.4C-.237,2.648.72.694,2.481.4A1.95,1.95,0,0,1,4.4,1.1,1.124,1.124,0,0,1,5.411.015c.314-.052.583.042.592.1l-.2,4.11c-.035.626.114.835.553.842.013.009.024.569-.783.7A.992.992,0,0,1,4.28,4.831Zm.013-1.672.032-.789A1.266,1.266,0,0,0,2.9,1.6,1.914,1.914,0,0,0,1.549,3.921,1.122,1.122,0,0,0,2.859,4.949,1.83,1.83,0,0,0,4.291,3.163Z" transform="translate(22.081 26.209)"/><path class="a" d="M.048,3.814A3.245,3.245,0,0,1,2.647.069,2.672,2.672,0,0,1,4.71.433a1.3,1.3,0,0,1,.561.818.816.816,0,0,1-.886.918,1.256,1.256,0,0,0-1.5-.837,1.8,1.8,0,0,0-1.4,2.119,1.309,1.309,0,0,0,1.6,1.142A1.532,1.532,0,0,0,4.3,3.6a.723.723,0,0,1,.845.518,1.056,1.056,0,0,1-.251.789,2.636,2.636,0,0,1-1.728.975A2.476,2.476,0,0,1,.048,3.814Z" transform="translate(30.786 25.086)"/><path class="a" d="M.065,3.809A3.143,3.143,0,0,1,2.627.07,2.472,2.472,0,0,1,5.665,2.151,3.143,3.143,0,0,1,3.1,5.89,2.471,2.471,0,0,1,.065,3.809ZM4.3,2.443A1.317,1.317,0,0,0,2.782,1.275,1.867,1.867,0,0,0,1.436,3.524,1.313,1.313,0,0,0,2.95,4.68,1.863,1.863,0,0,0,4.3,2.442Z" transform="translate(36.555 24.143)"/><path class="a" d="M7.261,4.848a5.285,5.285,0,0,1,.048-1.39A6.109,6.109,0,0,0,7.35,2.242.808.808,0,0,0,6.4,1.477,1.358,1.358,0,0,0,5.338,2.4L5.2,5.347c-.03.592-.236.81-.64.876l-.171.027c-.415.068-.8-.04-.774-.644l.111-2.414c.035-.766-.361-1.219-.945-1.123a1.371,1.371,0,0,0-1.059.911L1.586,5.94c-.028.6-.236.81-.639.876l-.171.028C.349,6.914-.026,6.8,0,6.2L.226,1.326a.706.706,0,0,1,.421-.171.843.843,0,0,1,1.025.787A2.2,2.2,0,0,1,3.332.622,1.58,1.58,0,0,1,5.12,1.55,2.37,2.37,0,0,1,6.942.029,1.681,1.681,0,0,1,8.927,1.523a7.267,7.267,0,0,1-.051,1.655,6.015,6.015,0,0,0-.07,1.255c.051.314.228.411.528.408.034-.006.017.665-.847.807A.935.935,0,0,1,7.261,4.848Z" transform="translate(43.033 22.415)"/><path class="a" d="M0,7.821.335.741A.7.7,0,0,1,.756.57a.849.849,0,0,1,1.037.843A2.138,2.138,0,0,1,3.466.032,2.167,2.167,0,0,1,6,2.025c.285,1.727-.574,3.586-2.3,3.868a2,2,0,0,1-2-.74L1.582,7.568c-.018.59-.2.816-.6.882l-.171.028C.383,8.544-.027,8.425,0,7.821ZM1.817,2.467l-.04.813a1.252,1.252,0,0,0,1.5,1.4A1.765,1.765,0,0,0,4.5,2.475a1.188,1.188,0,0,0-1.378-1.1A1.807,1.807,0,0,0,1.817,2.47Z" transform="translate(52.933 21.353)"/><path class="a" d="M1.677,1.336A1.693,1.693,0,0,1,2.986.038a.876.876,0,0,1,1.1.614,1.016,1.016,0,0,1-.542,1.115.987.987,0,0,0-.816-.2c-.706.114-1.025.975-1.082,2.171L1.585,5.3c-.031.581-.2.8-.6.871L.809,6.2c-.426.07-.836-.035-.808-.639L.226.689A.7.7,0,0,1,.646.518a.845.845,0,0,1,1.031.818Z" transform="translate(59.804 20.296)"/><path class="a" d="M4.279,4.831A2.326,2.326,0,0,1,2.494,6.3,2.072,2.072,0,0,1,.05,4.4C-.235,2.648.72.694,2.481.4A1.951,1.951,0,0,1,4.4,1.1,1.125,1.125,0,0,1,5.411.015c.314-.051.583.043.592.1l-.2,4.11c-.035.626.114.834.553.842.014.01.026.569-.783.7a.992.992,0,0,1-1.294-.939Zm.013-1.672.032-.788A1.265,1.265,0,0,0,2.9,1.6,1.914,1.914,0,0,0,1.549,3.921,1.121,1.121,0,0,0,2.858,4.95,1.829,1.829,0,0,0,4.29,3.164Z" transform="translate(64.29 19.274)"/><path class="a" d="M4.276,7.205A2.125,2.125,0,0,1,2.593,8.6a2.178,2.178,0,0,1-2.54-2c-.282-1.716.576-3.573,2.3-3.857a2.124,2.124,0,0,1,2.012.683l.12-2.5c.018-.59.2-.816.6-.882L5.263.018c.426-.07.837.047.81.65L5.794,6.542c-.046.63.114.834.553.842.012.01.025.569-.783.7a.989.989,0,0,1-1.288-.883Zm-.01-1.668L4.3,4.69a1.3,1.3,0,0,0-1.484-.758A1.789,1.789,0,0,0,1.559,6.166,1.177,1.177,0,0,0,2.925,7.254,1.708,1.708,0,0,0,4.271,5.537Z" transform="translate(73.071 15.515)"/><path class="a" d="M.055,4.028A3.4,3.4,0,0,1,2.938.053C4.329-.175,5.209.348,5.365,1.3c.184,1.121-.422,1.912-2.856,2.312-.336.057-.711.094-1.129.139l.005.034A1.189,1.189,0,0,0,2.923,4.8,1.975,1.975,0,0,0,4.407,3.739c.018-.037.686-.032.771.484a.87.87,0,0,1-.193.723,2.807,2.807,0,0,1-1.9.98C1.3,6.225.277,5.377.055,4.028ZM1.421,2.755c.3-.026.555-.057.79-.1,1.526-.25,1.9-.668,1.825-1.094-.048-.291-.4-.533-.993-.435A2.09,2.09,0,0,0,1.427,2.759Z" transform="translate(79.867 16.99)"/><path class="a" d="M0,6.755.279.928c.029-.592.2-.816.6-.882L1.053.018c.426-.07.836.047.809.65L1.583,6.542c-.023.626.114.845.587.837.013.01.013.573-.828.712C.322,8.258-.042,7.672,0,6.755Z" transform="translate(86.085 14.069)"/><path class="a" d="M0,7.821.335.74A.706.706,0,0,1,.756.57a.849.849,0,0,1,1.036.843A2.142,2.142,0,0,1,3.466.032,2.168,2.168,0,0,1,6,2.025c.285,1.727-.574,3.586-2.3,3.868a2,2,0,0,1-2-.74L1.581,7.568c-.018.59-.2.816-.6.882l-.171.027C.388,8.538-.022,8.424,0,7.821ZM1.816,2.466l-.039.813a1.253,1.253,0,0,0,1.5,1.4A1.765,1.765,0,0,0,4.5,2.473a1.189,1.189,0,0,0-1.378-1.1A1.807,1.807,0,0,0,1.817,2.464Z" transform="translate(90.732 15.147)"/><path class="a" d="M0,6.755.279.928c.029-.592.2-.816.6-.882L1.053.018c.426-.07.836.047.809.651L1.584,6.542c-.024.626.114.845.587.837.014.009.014.573-.828.712C.322,8.258-.042,7.672,0,6.755Z" transform="translate(97.69 12.163)"/><path class="a" d="M4.279,4.831A2.326,2.326,0,0,1,2.493,6.3,2.072,2.072,0,0,1,.05,4.4C-.235,2.648.72.694,2.48.4A1.95,1.95,0,0,1,4.4,1.1,1.125,1.125,0,0,1,5.412.015c.314-.051.583.043.592.1l-.2,4.11c-.035.626.114.834.553.842.013.01.025.569-.783.7a.992.992,0,0,1-1.3-.939Zm.013-1.672.031-.789A1.266,1.266,0,0,0,2.9,1.6,1.914,1.914,0,0,0,1.549,3.921,1.121,1.121,0,0,0,2.858,4.95,1.83,1.83,0,0,0,4.29,3.158Z" transform="translate(100.391 13.346)"/><path class="a" d="M1.682,1.422A2.232,2.232,0,0,1,3.39.047a1.677,1.677,0,0,1,2.063,1.48,6.792,6.792,0,0,1-.061,1.657,6.6,6.6,0,0,0-.057,1.252c.051.314.217.413.528.408.023,0,.017.665-.847.807-.74.122-1.151-.2-1.248-.8a5.823,5.823,0,0,1,.048-1.39A5.55,5.55,0,0,0,3.87,2.245a.823.823,0,0,0-1.034-.751,1.43,1.43,0,0,0-1.125,1L1.585,5.374c-.031.581-.2.8-.6.871l-.171.027c-.426.07-.836-.035-.808-.639L.226.759A.709.709,0,0,1,.646.589a.849.849,0,0,1,1.036.834Z" transform="translate(107.407 12.401)"/><path class="a" d="M0,6.993.256,1.458A.968.968,0,0,1,1.148.434L3.368.069c1.525-.25,2.426.188,2.6,1.243A1.829,1.829,0,0,1,4.729,3.438,1.54,1.54,0,0,1,6.262,4.707C6.478,6.02,5.829,7.117,3.485,7.5l-2.478.407C.322,8.024-.037,7.728,0,6.993Zm3.245-.717C4.325,6.1,4.7,5.668,4.574,4.883c-.082-.493-.531-.707-1.35-.572l-1.491.245L1.644,6.54ZM3.129,3.243c.864-.142,1.3-.64,1.189-1.313-.092-.492-.512-.665-1.252-.543l-1.2.2L1.772,3.463Z" transform="translate(115.916 9.287)"/><path class="a" d="M0,6.626.266.939C.3.4.494.131.961.053L1.2.014c.46-.076.761.151.734.683L1.677,5.945l2.658-.437c.449-.073.74.074.788.377a1.329,1.329,0,0,1-.153.82c-.092.141-.24.223-.61.285l-3.354.551C.322,7.657-.037,7.361,0,6.626Z" transform="translate(123.06 8.48)"/><path class="a" d="M.007,7.456a1.649,1.649,0,0,1,.209-.968L2.523.686c.139-.346.338-.539.988-.646C4.262-.084,4.5.1,4.6.389L6.87,6.537c.044.13-.362.6-.854.683-.426.07-.725-.134-.89-.648l-.4-1.11L2.081,5.9,1.311,8C1.294,8.037.144,8.265.007,7.456ZM4.431,4.242,3.53,1.7,2.448,4.568Z" transform="translate(128.782 7.113)"/><path class="a" d="M.08,5.1A4.269,4.269,0,0,1,3.482.086,3.156,3.156,0,0,1,5.923.5a1.465,1.465,0,0,1,.611.844c.142.864-.871,1.145-.939,1.087a1.672,1.672,0,0,0-1.859-.869A2.577,2.577,0,0,0,1.764,4.631a1.8,1.8,0,0,0,2.153,1.6A2.114,2.114,0,0,0,5.568,5.008a.9.9,0,0,1,.95.662A1.138,1.138,0,0,1,6.25,6.5,3.416,3.416,0,0,1,4.057,7.732C1.947,8.074.4,7.066.08,5.1Z" transform="translate(136.09 5.792)"/><path class="a" d="M3.442,6.572,1.791,4.712,1.668,7.405c-.027.534-.224.808-.706.887l-.236.039C.278,8.4-.024,8.178,0,7.633l.281-6c.026-.545.224-.808.7-.886L1.213.707c.46-.076.764.163.737.7l-.118,2.5,3-3.9c.018-.026.99,0,1.093.626a1.186,1.186,0,0,1-.383.961L3.324,4.227l1.56,1.644c.533.58.8.721,1.227.674.057-.009.2.888-.862,1.063C4.512,7.733,4.1,7.386,3.442,6.572Z" transform="translate(143.499 4.427)"/><path class="a" d="M0,6.755.279.928c.029-.592.2-.816.6-.882L1.053.018c.426-.07.836.047.809.65L1.583,6.542c-.024.626.114.845.587.837.013.009.014.573-.828.712C.323,8.258-.042,7.672,0,6.755Z" transform="translate(152.249 3.199)"/><path class="a" d="M0,6.755.279.928c.03-.592.2-.816.6-.882L1.053.018c.426-.07.836.047.81.65L1.584,6.542c-.023.626.114.845.587.836.013.01.013.573-.828.712C.317,8.258-.042,7.671,0,6.755Z" transform="translate(155.187 2.719)"/><path class="a" d="M.055,6.694A3.4,3.4,0,0,1,2.938,2.719c1.391-.228,2.271.3,2.428,1.248.184,1.122-.423,1.912-2.857,2.312-.337.057-.71.094-1.128.14l.005.034A1.191,1.191,0,0,0,2.923,7.467,1.975,1.975,0,0,0,4.407,6.405c.017-.037.683-.032.77.484a.871.871,0,0,1-.192.723,2.808,2.808,0,0,1-1.9.98C1.29,8.886.277,8.038.055,6.694ZM1.421,5.422c.3-.026.555-.057.79-.1,1.526-.251,1.894-.668,1.822-1.095-.048-.291-.4-.533-.993-.435A2.089,2.089,0,0,0,1.421,5.425ZM3.271.28A1.188,1.188,0,0,1,3.849.012a.662.662,0,0,1,.783.562,1,1,0,0,1-.455.881,2.872,2.872,0,0,1-2.05.7A3.494,3.494,0,0,1,3.271.279Z" transform="translate(157.832 1.517)"/><path class="a" d="M1.964,5.607,1,2.562C.751,1.729.456,1.547,0,1.587A.918.918,0,0,1,.855.619a1.024,1.024,0,0,1,.835.174,2.406,2.406,0,0,1,.747,1.466l.537,2.008L4.559.022C4.566,0,5.652-.123,5.774.618a1.43,1.43,0,0,1-.2.863L3.844,5.415a1.119,1.119,0,0,1-.911.633C2.527,6.114,2.089,6.034,1.964,5.607Z" transform="translate(163.33 3.103)"/><path class="a" d="M4.28,4.831A2.325,2.325,0,0,1,2.494,6.3,2.071,2.071,0,0,1,.051,4.4C-.237,2.648.72.694,2.481.4A1.95,1.95,0,0,1,4.4,1.1,1.125,1.125,0,0,1,5.411.015c.314-.051.583.042.593.1l-.2,4.11c-.035.626.114.834.553.842.013.01.024.569-.783.7a.992.992,0,0,1-1.294-.939Zm.013-1.672.032-.788A1.266,1.266,0,0,0,2.9,1.6,1.914,1.914,0,0,0,1.549,3.921,1.122,1.122,0,0,0,2.859,4.949,1.829,1.829,0,0,0,4.291,3.157Z" transform="translate(169.57 1.979)"/><path class="a" d="M.82,5.347l.1-2.391L.653,3c-.359.057-.6-.063-.64-.321a1.147,1.147,0,0,1,.114-.7A.719.719,0,0,1,.65,1.734L.976,1.68l.016-.325c.024-.833.294-1.223.99-1.338.336-.057.617.037.614.1L2.534,1.422l.92-.151c.381-.063.622.071.663.317a1.076,1.076,0,0,1-.127.7.69.69,0,0,1-.512.246L2.457,2.7,2.343,5.023c-.036.683.233.929.671.857a1.05,1.05,0,0,0,.626-.39c.039-.041.285.1.338.439a.853.853,0,0,1-.171.661,1.625,1.625,0,0,1-1.1.573C1.452,7.368.752,6.713.82,5.347Z" transform="translate(176.2 0)"/><path class="a" d="M.055,4.028A3.4,3.4,0,0,1,2.938.053C4.328-.175,5.209.348,5.365,1.3c.184,1.121-.423,1.912-2.857,2.312-.337.057-.71.094-1.129.139l0,.034A1.19,1.19,0,0,0,2.922,4.8,1.974,1.974,0,0,0,4.407,3.74c.017-.037.686-.032.771.484a.868.868,0,0,1-.193.722,2.81,2.81,0,0,1-1.9.98C1.29,6.219.277,5.377.055,4.028ZM1.421,2.754c.3-.025.555-.057.79-.1,1.526-.25,1.894-.668,1.822-1.095-.048-.291-.4-.533-.993-.435A2.089,2.089,0,0,0,1.427,2.753Z" transform="translate(180.719 0.422)"/></g><g transform="translate(160.995 32.716) rotate(9)"><g transform="translate(73.284 10.042)"><path class="b" d="M31.976,0V58.352l-17.87,4.7L13.64,30.148c-.069-4.643-.251-7.433-.546-8.346a3.033,3.033,0,0,0-2.361-1.883c-1.279-.34-4.146-.253-8.617.268l-1.931.225L0,13.17C9.374,10.55,16.342,6.517,21.031,1.048Z" transform="translate(0 0)"/><g transform="translate(29.126 0)"><path class="b" d="M2.85,0,5.736,1.652,2.85,4.454,0,3.277Z" transform="translate(0 0)"/></g><g transform="translate(14.105 60.982)"><path class="b" d="M0,2.071,2.885,3.724,4.161,1.537,3.393,0H2.6Z" transform="translate(0 0)"/></g><g transform="translate(0.184 18.532)"><path class="b" d="M0,1.883,2.885,3.535,4.064,1.883,3.218,0H2.4Z" transform="translate(0 0)"/></g></g><g transform="translate(0 25.074)"><path class="b" d="M33.043,16.01,21.706,20.162l-2.6-1.909.032-4.19q.023-2.933-.506-3.65A1.7,1.7,0,0,0,16.853,9.9,2.8,2.8,0,0,0,14.8,11.31a6.848,6.848,0,0,0-.723,3.4,8.315,8.315,0,0,0,.746,4.137q.737,1.312,4.218,2.773,9.993,4.213,12.584,7.533t2.557,11.627q-.021,6.041-1.483,9.137a14.288,14.288,0,0,1-5.628,5.7A25.788,25.788,0,0,1,17.372,59.1,20.676,20.676,0,0,1,7.031,58.52Q2.757,56.968,1.46,53.728t-1.241-9.6l.034-3.7,14-2.243,2.6,1.91L14.2,45.063q-.021,3.178.564,3.99a1.993,1.993,0,0,0,2.09.573A3.024,3.024,0,0,0,19.1,48.114a7.154,7.154,0,0,0,.754-3.539q.031-4.993-1.356-6.306-1.421-1.306-7.009-4A54.76,54.76,0,0,1,4.1,30.187a9.716,9.716,0,0,1-2.976-4.055A18.033,18.033,0,0,1,0,18.923q.069-6.5,1.794-9.768A14.542,14.542,0,0,1,7.311,3.578,25.125,25.125,0,0,1,16.437.416a22.822,22.822,0,0,1,9.927.247q4.1,1.188,5.411,3.784t1.28,9.334Z" transform="translate(0 0)"/></g><g transform="translate(34.828 18.077)"><path class="b" d="M28.135,0l2.6,1.909L10.968,61.443,2.6,65.108,0,63.2,17.383,1.738Z" transform="translate(0 0)"/></g><g transform="translate(113.349 6.923)"><path class="b" d="M33.81,17.771l.238,18.857a45.417,45.417,0,0,1-.587,9.474,15.324,15.324,0,0,1-2.882,5.958A15.732,15.732,0,0,1,25.208,56.6a23.53,23.53,0,0,1-7.086,2.259,26.276,26.276,0,0,1-8.614.212,9.751,9.751,0,0,1-5.5-2.77,12.767,12.767,0,0,1-2.936-4.755A30.353,30.353,0,0,1,.148,42.97L0,23.242q-.053-7.786,1.287-11.883A14.4,14.4,0,0,1,6.666,4.266a22.1,22.1,0,0,1,9.8-3.931A19.806,19.806,0,0,1,24.9.592a11.489,11.489,0,0,1,5.594,3.062A10.916,10.916,0,0,1,33.046,8.52,46.145,46.145,0,0,1,33.81,17.771Zm-14.373-2.43q-.043-4.5-.5-5.567t-2.083-.8a2.478,2.478,0,0,0-2.1,1.546,18.97,18.97,0,0,0-.465,5.653l.266,27.584q.051,4.923.544,5.858t2.1.677a2.447,2.447,0,0,0,2.09-1.526,18.138,18.138,0,0,0,.437-5.422Z" transform="translate(0 0)"/></g><g transform="translate(2.604 26.985)"><path class="a" d="M33.046,16.012,19.105,18.255l.031-4.19q.023-2.933-.505-3.649A1.7,1.7,0,0,0,16.856,9.9,2.8,2.8,0,0,0,14.8,11.313a6.864,6.864,0,0,0-.722,3.4,8.312,8.312,0,0,0,.746,4.137q.738,1.312,4.218,2.774,9.994,4.213,12.583,7.53T34.18,40.777q-.022,6.041-1.482,9.137a14.279,14.279,0,0,1-5.628,5.7,25.78,25.78,0,0,1-9.7,3.487,20.672,20.672,0,0,1-10.341-.58q-4.274-1.552-5.571-4.792t-1.241-9.6l.033-3.7,14-2.243L14.2,45.063q-.021,3.178.564,3.99a1.993,1.993,0,0,0,2.09.573A3.022,3.022,0,0,0,19.1,48.114a7.147,7.147,0,0,0,.755-3.539q.03-4.993-1.356-6.306-1.422-1.307-7.01-4A54.817,54.817,0,0,1,4.1,30.188a9.71,9.71,0,0,1-2.976-4.055A18.035,18.035,0,0,1,0,18.923Q.071,12.428,1.8,9.155A14.53,14.53,0,0,1,7.312,3.578,25.133,25.133,0,0,1,16.438.416a22.808,22.808,0,0,1,9.927.248q4.095,1.189,5.411,3.783t1.28,9.334Z" transform="translate(0 0)"/></g><g transform="translate(37.434 19.99)"><path class="a" d="M28.135,0,10.968,61.442,0,63.2,17.383,1.737Z" transform="translate(0 0)"/></g><g transform="translate(115.949 8.831)"><path class="a" d="M33.812,17.771l.238,18.857a45.391,45.391,0,0,1-.587,9.474,15.336,15.336,0,0,1-2.882,5.958A15.732,15.732,0,0,1,25.209,56.6a23.541,23.541,0,0,1-7.086,2.259,26.276,26.276,0,0,1-8.614.212,9.752,9.752,0,0,1-5.5-2.77,12.752,12.752,0,0,1-2.936-4.755A30.347,30.347,0,0,1,.148,42.97L0,23.242q-.053-7.786,1.286-11.883A14.4,14.4,0,0,1,6.665,4.266a22.1,22.1,0,0,1,9.8-3.931A19.8,19.8,0,0,1,24.9.593a11.491,11.491,0,0,1,5.594,3.062,10.92,10.92,0,0,1,2.554,4.868A45.976,45.976,0,0,1,33.812,17.771Zm-14.373-2.43q-.043-4.5-.5-5.567t-2.082-.8a2.479,2.479,0,0,0-2.1,1.546,18.984,18.984,0,0,0-.465,5.652l.266,27.584q.051,4.924.544,5.858t2.1.677a2.445,2.445,0,0,0,2.09-1.526,18.147,18.147,0,0,0,.437-5.422Z" transform="translate(0 0)"/></g><g transform="translate(152.213 0)"><path class="b" d="M33.811,17.772l.238,18.857a45.488,45.488,0,0,1-.587,9.474A15.327,15.327,0,0,1,30.58,52.06,15.735,15.735,0,0,1,25.208,56.6a23.517,23.517,0,0,1-7.085,2.259,26.264,26.264,0,0,1-8.614.212,9.749,9.749,0,0,1-5.5-2.77,12.757,12.757,0,0,1-2.936-4.755A30.348,30.348,0,0,1,.148,42.97L0,23.242q-.053-7.786,1.287-11.883A14.4,14.4,0,0,1,6.666,4.266a22.093,22.093,0,0,1,9.8-3.932A19.813,19.813,0,0,1,24.9.592a11.491,11.491,0,0,1,5.594,3.062A10.922,10.922,0,0,1,33.046,8.52,46.1,46.1,0,0,1,33.811,17.772Zm-14.373-2.43a19.96,19.96,0,0,0-.5-5.566q-.453-1.062-2.082-.8a2.479,2.479,0,0,0-2.1,1.545,19,19,0,0,0-.465,5.653l.267,27.584q.051,4.924.543,5.859t2.1.676a2.445,2.445,0,0,0,2.09-1.526,18.136,18.136,0,0,0,.437-5.422Z" transform="translate(0)"/></g><g transform="translate(154.815 1.907)"><path class="a" d="M33.811,17.772l.238,18.857a45.435,45.435,0,0,1-.587,9.473A15.33,15.33,0,0,1,30.58,52.06,15.735,15.735,0,0,1,25.209,56.6a23.532,23.532,0,0,1-7.086,2.259,26.28,26.28,0,0,1-8.614.212,9.755,9.755,0,0,1-5.5-2.77,12.759,12.759,0,0,1-2.936-4.755A30.354,30.354,0,0,1,.148,42.97L0,23.242q-.053-7.785,1.287-11.883A14.4,14.4,0,0,1,6.665,4.266a22.1,22.1,0,0,1,9.8-3.931A19.8,19.8,0,0,1,24.9.592a11.492,11.492,0,0,1,5.594,3.062,10.927,10.927,0,0,1,2.554,4.868A46.037,46.037,0,0,1,33.811,17.772Zm-14.373-2.43a19.954,19.954,0,0,0-.5-5.567q-.453-1.062-2.082-.8a2.478,2.478,0,0,0-2.1,1.546,19.037,19.037,0,0,0-.465,5.652l.266,27.584q.051,4.923.543,5.858t2.1.677a2.447,2.447,0,0,0,2.09-1.526,18.143,18.143,0,0,0,.437-5.422Z" transform="translate(0 0)"/></g><g transform="translate(76.171 12.15)"><path class="a" d="M31.976,0V59.5L14.053,62.6,13.64,30.148c-.069-4.642-.251-7.432-.546-8.346a3.031,3.031,0,0,0-2.361-1.882c-1.279-.339-4.146-.253-8.618.268l-1.931.225L0,13.17C9.374,10.549,16.341,6.517,21.031,1.048Z" transform="translate(0 0)"/></g></g><g transform="translate(179.461 6.21) rotate(9)"><g transform="translate(0 1.643)"><g transform="translate(0 25.601)"><path class="b" d="M11.028.783a6.755,6.755,0,0,1-.578,1.409.494.494,0,0,1-.361.28.429.429,0,0,1-.224-.035,8.072,8.072,0,0,0-3.05-.11c-1.261.216-3.985.8-4.16,5.566C2.512,11.8,5.2,12.141,6.464,11.927a4.152,4.152,0,0,0,2.06-.861l.1-2.736-1.663.285a.4.4,0,0,1-.5-.276.4.4,0,0,1-.014-.146l.044-1.222a.686.686,0,0,1,.574-.607l3.7-.634a.418.418,0,0,1,.519.285.407.407,0,0,1,.017.135l-.24,6.594a.687.687,0,0,1-.573.609l-.529.089a.8.8,0,0,1-.669-.2L9.031,13a6.749,6.749,0,0,1-2.875,1.219c-3.377.579-6.336-.64-6.148-5.867C.219,2.558,3.294.7,6.669.123A8.779,8.779,0,0,1,10.74.4.441.441,0,0,1,11.028.783Z" transform="translate(0 0)"/></g><g transform="translate(12.35 27.773)"><path class="b" d="M2.649,9.9a.657.657,0,0,1-.548.6l-1.588.271a.4.4,0,0,1-.5-.276A.406.406,0,0,1,0,10.355L.3,2.245c.006-.171.16-.319.342-.5A7.638,7.638,0,0,1,4.582.1a4.647,4.647,0,0,1,2.55.171A.445.445,0,0,1,7.467.73a6.9,6.9,0,0,1-.5,1.322.668.668,0,0,1-.44.417,1.2,1.2,0,0,1-.3-.022A3.653,3.653,0,0,0,4.6,2.336c-.5.086-1.564.316-1.715,1.021Z" transform="translate(0 0)"/></g><g transform="translate(19.048 26.423)"><path class="b" d="M7.144,9.847a.516.516,0,0,1-.544-.2l-.36-.424a4.033,4.033,0,0,1-2.324,1.3C1.269,10.975-.107,9.556.006,6.455A6.353,6.353,0,0,1,5.5.153,10.415,10.415,0,0,1,8.978.141a.37.37,0,0,1,.211.376l-.31,8.522a.658.658,0,0,1-.548.6ZM6.5,2.213C3.5,2.726,2.724,4,2.65,6.027c-.077,2.1.943,2.315,2,2.134a3.214,3.214,0,0,0,1.67-1.11Z" transform="translate(0 0)"/></g><g transform="translate(28.73 21.312)"><path class="b" d="M2.532.813A.737.737,0,0,1,3.106.206L4.215.015a.4.4,0,0,1,.5.277.415.415,0,0,1,.014.145L4.6,3.906l2.624-.448a.4.4,0,0,1,.51.422L7.687,5.1a.657.657,0,0,1-.548.6L4.52,6.152,4.406,9.205c-.03.854-.039,2.459,1.774,2.148.378-.064.683-.238,1.065-.3a.385.385,0,0,1,.442.241l.3,1.259a.557.557,0,0,1-.268.482A7.541,7.541,0,0,1,5.7,13.67c-3.327.569-4.032-1.374-3.915-4.6l.09-2.466-1.36.232A.4.4,0,0,1,0,6.415L.047,5.193a.658.658,0,0,1,.548-.6l1.361-.233Z" transform="translate(0 0)"/></g><g transform="translate(37.246 20.768)"><path class="b" d="M.326,4.237a.658.658,0,0,1,.549-.6l1.587-.271a.4.4,0,0,1,.511.422l-.325,8.865a.657.657,0,0,1-.548.6l-1.588.272a.4.4,0,0,1-.5-.277A.408.408,0,0,1,0,13.1ZM.321,1.665A1.088,1.088,0,0,0,1.679,2.791,1.826,1.826,0,0,0,3.166,1.178,1.122,1.122,0,0,0,1.781.032,1.822,1.822,0,0,0,.318,1.665Z" transform="translate(0 0)"/></g><g transform="translate(41.113 22.832)"><path class="b" d="M1,8.22a10.818,10.818,0,0,0,2.658-.066c.554-.1,1.94-.332,1.968-1.114C5.689,5.233-.151,8.077,0,3.875.064,2.263,1.2.71,4.447.155A16.342,16.342,0,0,1,7.157.007a.429.429,0,0,1,.435.422V.442c-.006.146-.044.494-.171,1.317a.559.559,0,0,1-.488.376c-.626.034-1.556.1-1.759.129-1.537.264-2.473.5-2.5,1.131C2.616,5.1,8.446,2.508,8.3,6.513c-.073,2-1.777,3.387-4.673,3.881a9.629,9.629,0,0,1-3.256,0C.2,10.351.026,10.26.033,10.039a13.4,13.4,0,0,1,.405-1.5.477.477,0,0,1,.413-.313Z" transform="translate(0 0)"/></g><g transform="translate(53.297 20.184)"><path class="b" d="M3.765,10.813a.829.829,0,0,1-.908-.525L0,2.136a.657.657,0,0,1,.548-.6l1.588-.271a.509.509,0,0,1,.607.386l0,.018L4.74,7.49,7.185.907A.855.855,0,0,1,7.833.287L9.421.016a.4.4,0,0,1,.511.422L6.438,9.676a1.378,1.378,0,0,1-.957.843Z" transform="translate(0 0)"/></g><g transform="translate(62.816 18.941)"><path class="b" d="M7.145,9.847a.516.516,0,0,1-.544-.2l-.36-.424a4.036,4.036,0,0,1-2.327,1.3C1.268,10.973-.107,9.557.007,6.456A6.352,6.352,0,0,1,5.5.153,10.437,10.437,0,0,1,8.981.14a.37.37,0,0,1,.21.376L8.88,9.041a.658.658,0,0,1-.548.6ZM6.5,2.214C3.5,2.726,2.725,4,2.651,6.028c-.076,2.1.942,2.315,2,2.134a3.211,3.211,0,0,0,1.67-1.11Z" transform="translate(0 0)"/></g><g transform="translate(73.16 14.004)"><path class="b" d="M2.679,10.916a1.015,1.015,0,0,0,.563,1.045.263.263,0,0,1,.167.263l-.036,1a.652.652,0,0,1-.419.485,4.953,4.953,0,0,1-1.341.375C0,14.36-.023,12.931.005,12.175L.418.891a.658.658,0,0,1,.548-.6L2.554.016a.4.4,0,0,1,.5.275.408.408,0,0,1,.014.147Z" transform="translate(0 0)"/></g><g transform="translate(77.346 16.604)"><path class="b" d="M7.96,6.87a.285.285,0,0,1,.345.16l.372.787a.454.454,0,0,1,.04.26.868.868,0,0,1-.349.642,7.78,7.78,0,0,1-3.763,1.541C1.229,10.839-.111,9.124.007,5.9.117,2.9,1.6.675,4.977.1c2.7-.46,4.156.746,4.091,2.481a4.194,4.194,0,0,1-3.8,4.048A7.782,7.782,0,0,1,2.61,6.622c-.017,1.118.666,1.634,2.078,1.393A8.377,8.377,0,0,0,7.755,6.957.6.6,0,0,1,7.96,6.87ZM2.694,4.349a3.13,3.13,0,0,0,1.893.259c1.185-.2,1.8-.623,1.827-1.357C6.449,2.3,5.727,2.2,4.9,2.345a2.518,2.518,0,0,0-2.2,2Z" transform="translate(0 0)"/></g><g transform="translate(90.464 13.833)"><path class="b" d="M3.765,10.813a.828.828,0,0,1-.907-.525L0,2.135a.658.658,0,0,1,.548-.6l1.588-.272a.512.512,0,0,1,.608.388l0,.017L4.741,7.491,7.185.908A.85.85,0,0,1,7.834.287L9.422.016a.4.4,0,0,1,.511.422L6.441,9.676a1.378,1.378,0,0,1-.957.844Z" transform="translate(0 0)"/></g><g transform="translate(100.597 9.942)"><path class="b" d="M.325,4.237a.658.658,0,0,1,.548-.6l1.588-.272a.4.4,0,0,1,.511.423l-.325,8.866a.657.657,0,0,1-.548.6l-1.588.271a.4.4,0,0,1-.5-.277A.409.409,0,0,1,0,13.1ZM.319,1.665A1.092,1.092,0,0,0,1.68,2.792,1.825,1.825,0,0,0,3.166,1.179,1.122,1.122,0,0,0,1.781.032,1.821,1.821,0,0,0,.318,1.664Z" transform="translate(0 0)"/></g><g transform="translate(104.651 12)"><path class="b" d="M2.648,9.9a.658.658,0,0,1-.548.6l-1.588.271A.4.4,0,0,1,0,10.355L.3,2.246c.006-.171.16-.319.342-.5A7.648,7.648,0,0,1,4.582.1a4.675,4.675,0,0,1,2.55.171.446.446,0,0,1,.334.455,6.964,6.964,0,0,1-.5,1.324.667.667,0,0,1-.441.418,1.227,1.227,0,0,1-.3-.022A3.651,3.651,0,0,0,4.6,2.338c-.5.086-1.564.316-1.715,1.022Z" transform="translate(0 0)"/></g><g transform="translate(111.997 7.084)"><path class="b" d="M2.531.814A.734.734,0,0,1,3.1.206L4.213.016a.4.4,0,0,1,.511.423L4.6,3.907l2.624-.446a.4.4,0,0,1,.51.422L7.686,5.1a.657.657,0,0,1-.548.6l-2.619.448L4.406,9.209c-.03.854-.04,2.458,1.775,2.148.378-.065.683-.238,1.065-.3a.384.384,0,0,1,.441.241l.3,1.259a.561.561,0,0,1-.268.483,7.565,7.565,0,0,1-2.026.637c-3.327.569-4.032-1.374-3.914-4.6l.09-2.467-1.36.232a.4.4,0,0,1-.5-.276A.394.394,0,0,1,0,6.419L.046,5.2a.657.657,0,0,1,.548-.6l1.361-.233Z" transform="translate(0 0)"/></g><g transform="translate(120.39 8.838)"><path class="b" d="M4.632,10.663c-3.352.573-4.743-.427-4.625-3.651L.19,1.98a.657.657,0,0,1,.549-.6l1.587-.271a.4.4,0,0,1,.5.275.4.4,0,0,1,.014.147l-.181,4.91c-.076,2.076.293,2.28,2.006,1.986a2.937,2.937,0,0,0,1.655-.768L6.564.89a.657.657,0,0,1,.547-.6L8.7.015a.4.4,0,0,1,.5.276A.4.4,0,0,1,9.21.438L8.931,8.084a.912.912,0,0,1-.269.532,6.949,6.949,0,0,1-4.03,2.048Z" transform="translate(0 0)"/></g><g transform="translate(130.202 7.431)"><path class="b" d="M7.144,9.847a.517.517,0,0,1-.545-.2l-.36-.424a4.031,4.031,0,0,1-2.325,1.3C1.268,10.975-.107,9.557.006,6.455A6.35,6.35,0,0,1,5.5.153,10.426,10.426,0,0,1,8.978.14a.37.37,0,0,1,.211.376L8.876,9.041a.657.657,0,0,1-.548.6ZM6.5,2.213C3.5,2.726,2.724,4,2.65,6.028c-.076,2.1.943,2.315,2,2.134A3.209,3.209,0,0,0,6.32,7.051Z" transform="translate(0 0)"/></g><g transform="translate(140.546 2.487)"><path class="b" d="M2.678,10.918a1.015,1.015,0,0,0,.562,1.045.263.263,0,0,1,.171.262l-.036,1a.656.656,0,0,1-.419.484,4.928,4.928,0,0,1-1.341.374C0,14.361-.023,12.933.005,12.176L.418.891a.657.657,0,0,1,.548-.6L2.554.016a.4.4,0,0,1,.5.276.4.4,0,0,1,.014.147Z" transform="translate(0 0)"/></g><g transform="translate(148.492 0)"><path class="b" d="M7.032.89a.658.658,0,0,1,.548-.6L9.168.015a.4.4,0,0,1,.511.422l-.455,12.53a.57.57,0,0,1-.267.458,15.681,15.681,0,0,1-4,1.217C1.577,15.221-.113,13.5.006,10.273A5.65,5.65,0,0,1,4.7,4.592a4.533,4.533,0,0,1,2.2.11ZM4.958,12.41a4.446,4.446,0,0,0,1.674-.578L6.81,6.947a2.624,2.624,0,0,0-1.544-.221A2.925,2.925,0,0,0,2.648,9.819c-.075,2.027.569,2.888,2.309,2.591Z" transform="translate(0 0)"/></g><g transform="translate(158.894 2.669)"><path class="b" d="M7.96,6.87a.285.285,0,0,1,.345.159l.372.787a.453.453,0,0,1,.04.26.872.872,0,0,1-.349.642A7.785,7.785,0,0,1,4.606,10.26C1.229,10.836-.111,9.121.007,5.9.116,2.9,1.6.676,4.977.1c2.7-.461,4.156.746,4.092,2.481A4.2,4.2,0,0,1,5.263,6.628,7.768,7.768,0,0,1,2.61,6.622c-.016,1.119.666,1.635,2.078,1.393A8.376,8.376,0,0,0,7.755,6.957a.59.59,0,0,1,.2-.087ZM2.694,4.348a3.131,3.131,0,0,0,1.893.258c1.184-.2,1.8-.623,1.828-1.357C6.45,2.3,5.727,2.2,4.9,2.345a2.516,2.516,0,0,0-2.2,2Z" transform="translate(0 0)"/></g></g><g transform="translate(1.197 0)"><g transform="translate(0 25.603)"><path class="a" d="M11.03.781a6.755,6.755,0,0,1-.578,1.409.492.492,0,0,1-.361.28.426.426,0,0,1-.224-.035,8.075,8.075,0,0,0-3.051-.11c-1.262.216-3.985.8-4.162,5.566C2.512,11.8,5.2,12.141,6.465,11.926a4.154,4.154,0,0,0,2.06-.862l.1-2.736-1.664.285a.4.4,0,0,1-.511-.423l.044-1.221a.683.683,0,0,1,.574-.607l3.7-.634a.418.418,0,0,1,.519.285.437.437,0,0,1,.017.136l-.24,6.594a.687.687,0,0,1-.573.607l-.529.089a.8.8,0,0,1-.669-.2l-.267-.246a6.747,6.747,0,0,1-2.875,1.219C2.78,14.79-.18,13.571.009,8.347.22,2.558,3.294.7,6.669.122A8.775,8.775,0,0,1,10.74.4a.441.441,0,0,1,.291.384Z" transform="translate(0 0)"/></g><g transform="translate(12.353 27.767)"><path class="a" d="M2.648,9.9a.658.658,0,0,1-.548.6l-1.588.271a.4.4,0,0,1-.5-.277A.4.4,0,0,1,0,10.354L.3,2.245c.006-.171.16-.319.342-.5A7.636,7.636,0,0,1,4.582.1a4.65,4.65,0,0,1,2.55.171A.445.445,0,0,1,7.466.73a6.83,6.83,0,0,1-.5,1.321.666.666,0,0,1-.441.417,1.217,1.217,0,0,1-.3-.022A3.654,3.654,0,0,0,4.6,2.335c-.5.086-1.564.316-1.715,1.025Z" transform="translate(0 0)"/></g><g transform="translate(19.05 26.424)"><path class="a" d="M7.143,9.846a.517.517,0,0,1-.544-.2l-.36-.424a4.038,4.038,0,0,1-2.325,1.3C1.269,10.975-.107,9.556.006,6.455A6.352,6.352,0,0,1,5.5.152,10.427,10.427,0,0,1,8.978.14a.37.37,0,0,1,.21.376L8.878,9.038a.657.657,0,0,1-.547.6ZM6.5,2.213C3.5,2.725,2.724,4,2.649,6.027c-.077,2.1.942,2.315,2,2.134a3.207,3.207,0,0,0,1.67-1.11Z" transform="translate(0 0)"/></g><g transform="translate(28.739 21.312)"><path class="a" d="M2.531.813A.735.735,0,0,1,3.1.206L4.214.015a.4.4,0,0,1,.5.277.4.4,0,0,1,.014.147L4.6,3.908,7.221,3.46a.4.4,0,0,1,.51.422L7.687,5.1a.657.657,0,0,1-.548.6l-2.619.446L4.407,9.206c-.03.854-.039,2.459,1.775,2.148.379-.065.683-.238,1.064-.3a.384.384,0,0,1,.442.24l.3,1.259a.559.559,0,0,1-.267.482,7.546,7.546,0,0,1-2.027.637c-3.327.569-4.033-1.374-3.915-4.6l.09-2.467L.512,6.838A.4.4,0,0,1,0,6.415L.047,5.194a.658.658,0,0,1,.548-.6l1.36-.233Z" transform="translate(0 0)"/></g><g transform="translate(37.248 20.768)"><path class="a" d="M.327,4.237a.657.657,0,0,1,.548-.6l1.588-.271a.4.4,0,0,1,.511.422L2.648,12.65a.657.657,0,0,1-.548.6l-1.588.272A.4.4,0,0,1,0,13.1ZM.321,1.665A1.091,1.091,0,0,0,1.68,2.792,1.826,1.826,0,0,0,3.166,1.179,1.123,1.123,0,0,0,1.781.031,1.821,1.821,0,0,0,.321,1.664Z" transform="translate(0 0)"/></g><g transform="translate(41.115 22.826)"><path class="a" d="M1,8.22a10.832,10.832,0,0,0,2.658-.065c.554-.1,1.94-.332,1.969-1.114C5.689,5.232-.151,8.076,0,3.875.063,2.263,1.2.709,4.447.154A16.374,16.374,0,0,1,7.157.007a.428.428,0,0,1,.434.422.128.128,0,0,1,0,.014c-.005.146-.043.494-.171,1.317a.559.559,0,0,1-.488.376c-.626.034-1.557.095-1.758.13-1.537.263-2.473.5-2.5,1.13C2.615,5.1,8.446,2.507,8.3,6.513c-.073,2-1.777,3.387-4.673,3.881a9.627,9.627,0,0,1-3.256,0C.2,10.35.025,10.259.031,10.038a13.555,13.555,0,0,1,.406-1.5A.48.48,0,0,1,.85,8.224Z" transform="translate(0 0)"/></g><g transform="translate(53.299 20.179)"><path class="a" d="M3.765,10.813a.828.828,0,0,1-.908-.525L0,2.135a.657.657,0,0,1,.548-.6L2.136,1.26a.512.512,0,0,1,.607.387l0,.018L4.739,7.49,7.183.907a.854.854,0,0,1,.649-.62L9.42.016a.4.4,0,0,1,.5.275.4.4,0,0,1,.013.147L6.439,9.676a1.378,1.378,0,0,1-.957.844Z" transform="translate(0 0)"/></g><g transform="translate(62.825 18.941)"><path class="a" d="M7.143,9.847a.517.517,0,0,1-.544-.2l-.36-.423a4.029,4.029,0,0,1-2.324,1.3C1.269,10.976-.107,9.557.007,6.456A6.352,6.352,0,0,1,5.5.153,10.434,10.434,0,0,1,8.978.14a.37.37,0,0,1,.21.376L8.876,9.041a.657.657,0,0,1-.548.6ZM6.5,2.213C3.5,2.726,2.724,4,2.65,6.027c-.077,2.1.943,2.315,2,2.134a3.214,3.214,0,0,0,1.67-1.11Z" transform="translate(0 0)"/></g><g transform="translate(73.164 14.004)"><path class="a" d="M2.677,10.917a1.015,1.015,0,0,0,.563,1.045.264.264,0,0,1,.171.263l-.038,1a.652.652,0,0,1-.418.485,4.948,4.948,0,0,1-1.341.374C0,14.36-.023,12.932.005,12.175L.418.891a.656.656,0,0,1,.548-.6L2.555.016a.4.4,0,0,1,.5.275.406.406,0,0,1,.014.147Z" transform="translate(0 0)"/></g><g transform="translate(77.346 16.599)"><path class="a" d="M7.963,6.87a.284.284,0,0,1,.342.16l.372.787a.454.454,0,0,1,.04.26.867.867,0,0,1-.349.642,7.774,7.774,0,0,1-3.763,1.54C1.229,10.839-.111,9.121.007,5.9.117,2.9,1.6.676,4.977.1c2.7-.46,4.156.746,4.092,2.481a4.194,4.194,0,0,1-3.8,4.048,7.773,7.773,0,0,1-2.654-.005c-.017,1.119.667,1.635,2.078,1.393A8.376,8.376,0,0,0,7.757,6.956a.592.592,0,0,1,.207-.086ZM2.7,4.348a3.131,3.131,0,0,0,1.893.258c1.184-.2,1.8-.623,1.827-1.356C6.452,2.3,5.729,2.2,4.9,2.345a2.518,2.518,0,0,0-2.2,2Z" transform="translate(0 0)"/></g><g transform="translate(90.467 13.827)"><path class="a" d="M3.765,10.813a.828.828,0,0,1-.907-.525L0,2.136a.658.658,0,0,1,.548-.6l1.588-.272a.512.512,0,0,1,.607.388l0,.017L4.74,7.491,7.184.908A.854.854,0,0,1,7.833.287L9.421.016a.4.4,0,0,1,.511.422L6.44,9.676a1.378,1.378,0,0,1-.957.843Z" transform="translate(0 0)"/></g><g transform="translate(100.597 9.937)"><path class="a" d="M.327,4.237a.657.657,0,0,1,.548-.6l1.588-.272a.4.4,0,0,1,.511.422l-.325,8.866a.658.658,0,0,1-.548.6l-1.588.271A.4.4,0,0,1,0,13.1ZM.321,1.665A1.09,1.09,0,0,0,1.68,2.792,1.821,1.821,0,0,0,3.166,1.179,1.121,1.121,0,0,0,1.782.032,1.822,1.822,0,0,0,.319,1.664Z" transform="translate(0 0)"/></g><g transform="translate(104.659 11.995)"><path class="a" d="M2.648,9.9a.657.657,0,0,1-.548.6l-1.587.271a.4.4,0,0,1-.5-.277A.4.4,0,0,1,0,10.355L.3,2.246c.006-.171.16-.319.342-.5A7.637,7.637,0,0,1,4.582.1a4.668,4.668,0,0,1,2.55.171.446.446,0,0,1,.335.456,6.969,6.969,0,0,1-.5,1.324.667.667,0,0,1-.441.417,1.244,1.244,0,0,1-.3-.022A3.638,3.638,0,0,0,4.6,2.338c-.5.085-1.565.316-1.715,1.021Z" transform="translate(0 0)"/></g><g transform="translate(111.997 7.079)"><path class="a" d="M2.532.814A.735.735,0,0,1,3.106.206L4.215.016a.4.4,0,0,1,.51.423L4.6,3.908,7.22,3.462a.4.4,0,0,1,.5.275.39.39,0,0,1,.014.147L7.686,5.105a.658.658,0,0,1-.548.6L4.52,6.157,4.406,9.21c-.029.854-.04,2.458,1.775,2.148.378-.064.683-.238,1.064-.3a.385.385,0,0,1,.442.24l.3,1.259a.562.562,0,0,1-.268.483,7.567,7.567,0,0,1-2.027.638c-3.327.569-4.032-1.375-3.914-4.6l.09-2.466L.512,6.842A.4.4,0,0,1,0,6.42L.046,5.2a.657.657,0,0,1,.548-.6l1.361-.233Z" transform="translate(0 0)"/></g><g transform="translate(120.391 8.838)"><path class="a" d="M4.632,10.664C1.28,11.237-.111,10.237.007,7.012L.191,1.981a.657.657,0,0,1,.548-.6l1.588-.271a.4.4,0,0,1,.5.275.415.415,0,0,1,.014.147l-.181,4.91c-.076,2.076.293,2.277,2.006,1.986a2.94,2.94,0,0,0,1.656-.769L6.565.891a.658.658,0,0,1,.547-.6L8.7.016a.4.4,0,0,1,.5.276.4.4,0,0,1,.014.146l-.28,7.646a.912.912,0,0,1-.269.532A6.952,6.952,0,0,1,4.632,10.664Z" transform="translate(0 0)"/></g><g transform="translate(130.204 7.426)"><path class="a" d="M7.144,9.847a.517.517,0,0,1-.544-.2l-.36-.424a4.034,4.034,0,0,1-2.325,1.3C1.268,10.972-.107,9.557.006,6.455A6.351,6.351,0,0,1,5.5.153,10.422,10.422,0,0,1,8.977.14a.371.371,0,0,1,.211.376L8.876,9.041a.657.657,0,0,1-.548.6ZM6.5,2.214C3.5,2.726,2.724,4,2.65,6.028c-.076,2.1.943,2.315,2,2.134a3.206,3.206,0,0,0,1.67-1.11Z" transform="translate(0 0)"/></g><g transform="translate(140.546 2.489)"><path class="a" d="M2.681,10.916a1.014,1.014,0,0,0,.562,1.045.263.263,0,0,1,.167.263l-.037,1a.652.652,0,0,1-.418.485,4.91,4.91,0,0,1-1.341.374C0,14.361-.022,12.933.005,12.176L.419.891a.657.657,0,0,1,.548-.6L2.554.015a.4.4,0,0,1,.51.424Z" transform="translate(0 0)"/></g><g transform="translate(148.493 0)"><path class="a" d="M7.032.89a.657.657,0,0,1,.548-.6L9.168.016a.4.4,0,0,1,.5.275.412.412,0,0,1,.014.147l-.455,12.53a.569.569,0,0,1-.267.459,15.7,15.7,0,0,1-4,1.217C1.577,15.223-.113,13.5.006,10.272A5.649,5.649,0,0,1,4.7,4.592a4.531,4.531,0,0,1,2.2.11ZM4.958,12.41a4.444,4.444,0,0,0,1.673-.578L6.81,6.947a2.619,2.619,0,0,0-1.544-.221A2.925,2.925,0,0,0,2.647,9.818c-.075,2.027.569,2.888,2.309,2.591Z" transform="translate(0 0)"/></g><g transform="translate(158.896 2.663)"><path class="a" d="M7.96,6.87a.285.285,0,0,1,.345.16l.372.787a.462.462,0,0,1,.04.26.869.869,0,0,1-.349.642,7.785,7.785,0,0,1-3.763,1.541C1.229,10.837-.111,9.121.007,5.9.117,2.9,1.6.676,4.978.1c2.7-.461,4.156.746,4.092,2.481A4.2,4.2,0,0,1,5.264,6.628,7.772,7.772,0,0,1,2.61,6.622c-.016,1.119.666,1.634,2.078,1.392A8.357,8.357,0,0,0,7.755,6.957.605.605,0,0,1,7.96,6.87ZM2.694,4.348a3.131,3.131,0,0,0,1.893.259c1.185-.2,1.8-.623,1.828-1.357C6.451,2.3,5.728,2.2,4.9,2.345a2.516,2.516,0,0,0-2.2,2Z" transform="translate(0 0)"/></g></g></g><g transform="translate(43.639 57.78) rotate(9)"><path class="c" d="M27.71,14.564,27.9,30.017a37.2,37.2,0,0,1-.481,7.764,12.568,12.568,0,0,1-2.362,4.883,12.893,12.893,0,0,1-4.4,3.719,19.294,19.294,0,0,1-5.807,1.851,21.534,21.534,0,0,1-7.059.174,7.992,7.992,0,0,1-4.5-2.27,10.451,10.451,0,0,1-2.406-3.9,24.871,24.871,0,0,1-.761-7.027L0,19.047A32.346,32.346,0,0,1,1.056,9.309,11.8,11.8,0,0,1,5.462,3.5,18.108,18.108,0,0,1,13.494.274,16.228,16.228,0,0,1,20.4.486a9.417,9.417,0,0,1,4.584,2.509,8.949,8.949,0,0,1,2.093,3.989A37.684,37.684,0,0,1,27.71,14.564ZM15.931,12.573a16.349,16.349,0,0,0-.407-4.562q-.372-.87-1.706-.655A2.031,2.031,0,0,0,12.1,8.622a15.56,15.56,0,0,0-.381,4.632l.218,22.606q.042,4.035.446,4.8t1.718.555a2,2,0,0,0,1.713-1.25,14.872,14.872,0,0,0,.358-4.444Z" transform="translate(0 0)"/></g><g transform="translate(11.016 55.367) rotate(9)"><path class="c" d="M26.205,0V48.766L11.517,51.3l-.339-26.592a36.414,36.414,0,0,0-.447-6.84A2.484,2.484,0,0,0,8.8,16.324c-1.048-.278-3.4-.207-7.062.219l-1.582.184L0,10.793C7.682,8.646,13.392,5.341,17.235.859Z"/></g></g><g transform="translate(657.524 276.046)"><path class="a" d="M2961.1,833.752l1.117-5.264c.118-.494.333-.721.784-.721h.226c.441,0,.688.258.58.751l-1.042,4.855h2.546c.432,0,.678.183.678.473a1.265,1.265,0,0,1-.269.741c-.108.118-.257.172-.612.172h-3.21C2961.238,834.763,2960.95,834.427,2961.1,833.752Z" transform="translate(-2961.06 -827.113)"/><path class="a" d="M2976.556,835.551a2.2,2.2,0,0,1-1.89,1.094,1.957,1.957,0,0,1-1.986-2.147,3.186,3.186,0,0,1,2.878-3.351,1.843,1.843,0,0,1,1.687.945,1.064,1.064,0,0,1,1.1-.859c.3,0,.537.129.537.182l-.816,3.8c-.128.58-.021.794.384.87.01.01-.065.537-.838.537a.942.942,0,0,1-1.064-1.074Zm.269-1.558.15-.729a1.2,1.2,0,0,0-1.215-.934,1.809,1.809,0,0,0-1.611,1.954,1.061,1.061,0,0,0,.956,1.153c.035,0,.072,0,.107,0a1.729,1.729,0,0,0,1.614-1.452Z" transform="translate(-2967.098 -828.869)"/><path class="a" d="M2990.157,834.235a2.971,2.971,0,0,1,2.845-3.091h0l.12,0a2.335,2.335,0,0,1,2.507,2.149h0a2.375,2.375,0,0,1,.005.257,2.969,2.969,0,0,1-2.843,3.09h0l-.121,0a2.335,2.335,0,0,1-2.507-2.149A2.21,2.21,0,0,1,2990.157,834.235Zm4.156-.624a1.244,1.244,0,0,0-1.164-1.319h-.071a1.765,1.765,0,0,0-1.6,1.891,1.241,1.241,0,0,0,1.17,1.308h.065a1.759,1.759,0,0,0,1.6-1.878Z" transform="translate(-2976.179 -828.863)"/><path class="a" d="M3003.236,833.5l.721-3.383h-.408c-.344,0-.548-.15-.548-.4a1.106,1.106,0,0,1,.215-.634.683.683,0,0,1,.528-.15h.461l.086-.355c.3-1.428,1.074-1.933,2.052-1.933a1.545,1.545,0,0,1,1.1.354.658.658,0,0,1,.192.462.772.772,0,0,1-.408.666.936.936,0,0,0-.729-.324c-.387,0-.645.215-.774.806l-.075.324h.708c.376,0,.58.162.58.4a1.092,1.092,0,0,1-.225.634.681.681,0,0,1-.528.15h-.72l-.72,3.383c-.108.537-.311.72-.7.72h-.162C3003.481,834.222,3003.116,834.062,3003.236,833.5Z" transform="translate(-2982.855 -826.53)"/><path class="a" d="M3010.969,834.415a3.211,3.211,0,0,1,3.154-3.266h.145c1.331,0,2.072.624,2.072,1.537,0,1.074-.688,1.718-3.017,1.718-.325,0-.677-.022-1.074-.043v.033a1.124,1.124,0,0,0,1.057,1.19h0a1.145,1.145,0,0,0,.222-.009,1.868,1.868,0,0,0,1.546-.763c.022-.032.644.075.644.569a.821.821,0,0,1-.288.645,2.655,2.655,0,0,1-1.921.624C3011.786,836.649,3010.969,835.7,3010.969,834.415Zm1.471-.977c.279.022.528.033.751.033,1.461,0,1.869-.333,1.869-.741,0-.279-.288-.559-.859-.559a1.974,1.974,0,0,0-1.758,1.267Z" transform="translate(-2986.996 -828.87)"/><path class="a" d="M3024.79,832.16a1.6,1.6,0,0,1,1.418-1.009c.529,0,.934.3.934.742a.961.961,0,0,1-.677.956.934.934,0,0,0-.729-.311c-.676,0-1.1.752-1.345,1.858l-.3,1.45c-.118.537-.312.721-.7.721h-.162c-.408,0-.774-.162-.655-.721l.956-4.511a.674.674,0,0,1,.418-.1.8.8,0,0,1,.847.746h0a.748.748,0,0,1-.009.176Z" transform="translate(-2993.016 -828.871)"/><path class="a" d="M3033.118,833.3l.462-2.213h-.258c-.344,0-.548-.15-.548-.4a1.106,1.106,0,0,1,.215-.634.681.681,0,0,1,.528-.15h.311l.064-.3c.151-.773.462-1.093,1.128-1.093.324,0,.569.129.558.182l-.257,1.215h.881c.364,0,.569.162.569.4a1.013,1.013,0,0,1-.226.633.647.647,0,0,1-.516.15h-.977l-.461,2.147c-.139.634.075.9.494.9a.99.99,0,0,0,.645-.268c.042-.033.247.139.247.461a.807.807,0,0,1-.257.591,1.537,1.537,0,0,1-1.117.365C3033.4,835.29,3032.849,834.57,3033.118,833.3Z" transform="translate(-2998.327 -827.501)"/><path class="a" d="M3045.005,835.551a2.2,2.2,0,0,1-1.891,1.094,1.957,1.957,0,0,1-1.987-2.147,3.187,3.187,0,0,1,2.878-3.351,1.843,1.843,0,0,1,1.687.945,1.064,1.064,0,0,1,1.1-.859c.3,0,.537.129.537.182l-.817,3.8c-.129.58-.021.794.384.87.011.01-.064.537-.837.537A.941.941,0,0,1,3045,835.55Zm.269-1.558.15-.729a1.2,1.2,0,0,0-1.215-.934,1.808,1.808,0,0,0-1.611,1.954,1.06,1.06,0,0,0,.956,1.153c.036,0,.071,0,.107,0a1.729,1.729,0,0,0,1.613-1.451Z" transform="translate(-3002.669 -828.869)"/><path class="a" d="M3059.388,833.3l.462-2.213h-.258c-.344,0-.548-.15-.548-.4a1.09,1.09,0,0,1,.215-.634.678.678,0,0,1,.528-.15h.312l.064-.3c.15-.773.463-1.093,1.128-1.093.324,0,.57.129.558.182l-.257,1.215h.881c.364,0,.567.162.567.4a1.021,1.021,0,0,1-.225.633.651.651,0,0,1-.515.15h-.983l-.462,2.147c-.14.634.075.9.494.9a.993.993,0,0,0,.645-.268c.043-.033.246.139.246.462a.8.8,0,0,1-.257.591,1.532,1.532,0,0,1-1.117.365C3059.667,835.29,3059.12,834.57,3059.388,833.3Z" transform="translate(-3011.98 -827.501)"/><path class="a" d="M3067.33,834.415a3.211,3.211,0,0,1,3.154-3.266h.144c1.331,0,2.072.624,2.072,1.537,0,1.074-.688,1.718-3.018,1.718-.324,0-.677-.022-1.073-.043v.033a1.125,1.125,0,0,0,1.057,1.19h0a1.144,1.144,0,0,0,.222-.009,1.865,1.865,0,0,0,1.546-.763c.022-.032.646.075.646.569a.825.825,0,0,1-.289.645,2.653,2.653,0,0,1-1.921.624C3068.146,836.649,3067.33,835.7,3067.33,834.415Zm1.471-.977c.279.022.528.033.752.033,1.461,0,1.869-.333,1.869-.741,0-.279-.288-.559-.859-.559a1.974,1.974,0,0,0-1.758,1.267Z" transform="translate(-3016.285 -828.87)"/><path class="a" d="M3081.14,832.16a1.6,1.6,0,0,1,1.417-1.009c.529,0,.935.3.935.742a.961.961,0,0,1-.677.956.934.934,0,0,0-.729-.311c-.677,0-1.1.752-1.345,1.858l-.3,1.45c-.118.537-.312.721-.7.721h-.162c-.408,0-.773-.162-.655-.721l.956-4.511a.669.669,0,0,1,.419-.1.8.8,0,0,1,.846.746.752.752,0,0,1-.009.177Z" transform="translate(-3022.299 -828.871)"/><path class="a" d="M3095.162,835.689a5.045,5.045,0,0,1,.258-1.288,5.8,5.8,0,0,0,.225-1.128.764.764,0,0,0-.662-.853h0a.7.7,0,0,0-.11-.006,1.286,1.286,0,0,0-1.128.7l-.58,2.728c-.119.548-.344.721-.729.721h-.162c-.4,0-.741-.162-.625-.721l.473-2.234c.15-.708-.15-1.192-.709-1.192a1.3,1.3,0,0,0-1.128.689l-.58,2.738c-.118.558-.343.72-.729.72h-.163c-.408,0-.741-.162-.624-.72l.956-4.511a.67.67,0,0,1,.419-.1.8.8,0,0,1,.842.746h0a.71.71,0,0,1,0,.144,2.085,2.085,0,0,1,1.751-.978,1.493,1.493,0,0,1,1.525,1.138,2.24,2.24,0,0,1,1.933-1.138,1.585,1.585,0,0,1,1.623,1.547v.005c0,.048,0,.1,0,.144a6.912,6.912,0,0,1-.3,1.537,5.582,5.582,0,0,0-.258,1.16c0,.3.15.419.432.463.031,0-.086.624-.913.624C3095.483,836.624,3095.162,836.259,3095.162,835.689Z" transform="translate(-3027.113 -828.868)"/><path class="a" d="M3108.5,832.71l.688-3.211c.118-.548.312-.729.7-.729h.162c.408,0,.773.162.655.729l-.7,3.254c-.118.58-.022.806.418.87.011.011-.075.537-.881.537C3108.562,834.161,3108.317,833.559,3108.5,832.71Zm1.085-5.423a.84.84,0,0,1,.8-.881h0c.028,0,.056,0,.084,0,.537,0,.838.268.838.655a.846.846,0,0,1-.81.88h-.072C3109.885,827.941,3109.584,827.673,3109.584,827.287Z" transform="translate(-3037.651 -826.405)"/><path class="a" d="M3116.206,832.166a2.11,2.11,0,0,1,1.8-1.021,1.585,1.585,0,0,1,1.7,1.465,1.566,1.566,0,0,1,0,.232,6.391,6.391,0,0,1-.312,1.537,6.316,6.316,0,0,0-.247,1.16c0,.3.139.419.43.462.021,0-.086.624-.913.624-.709,0-1.042-.365-1.042-.935a5.578,5.578,0,0,1,.257-1.289,5.219,5.219,0,0,0,.236-1.128.777.777,0,0,0-.686-.858h0a.824.824,0,0,0-.161,0,1.353,1.353,0,0,0-1.2.763l-.558,2.663c-.118.537-.312.72-.7.72h-.162c-.408,0-.773-.162-.655-.72l.956-4.511a.667.667,0,0,1,.419-.1.8.8,0,0,1,.849.753A.754.754,0,0,1,3116.206,832.166Z" transform="translate(-3040.524 -828.866)"/><path class="a" d="M3131.146,835.551a2.2,2.2,0,0,1-1.891,1.094,1.957,1.957,0,0,1-1.987-2.147,3.187,3.187,0,0,1,2.878-3.351,1.843,1.843,0,0,1,1.687.945,1.064,1.064,0,0,1,1.1-.859c.3,0,.538.129.538.182l-.817,3.8c-.129.58-.022.794.384.87.011.01-.064.537-.838.537a.938.938,0,0,1-1.064-.791h0a.941.941,0,0,1,0-.282Zm.269-1.558.15-.729a1.2,1.2,0,0,0-1.215-.934,1.808,1.808,0,0,0-1.611,1.954,1.06,1.06,0,0,0,.956,1.153c.036,0,.072,0,.107,0a1.729,1.729,0,0,0,1.612-1.452Z" transform="translate(-3047.433 -828.869)"/><path class="a" d="M3144.679,834.415a3.211,3.211,0,0,1,3.154-3.266h.144c1.332,0,2.074.624,2.074,1.537,0,1.074-.689,1.718-3.018,1.718-.324,0-.677-.022-1.074-.043v.033a1.125,1.125,0,0,0,1.057,1.19h0a1.143,1.143,0,0,0,.222-.009,1.867,1.867,0,0,0,1.547-.763c.022-.032.644.075.644.569a.824.824,0,0,1-.288.645,2.659,2.659,0,0,1-1.922.624C3145.5,836.649,3144.679,835.7,3144.679,834.415Zm1.471-.977c.279.022.528.033.751.033,1.461,0,1.869-.333,1.869-.741,0-.279-.288-.559-.859-.559a1.975,1.975,0,0,0-1.761,1.267Z" transform="translate(-3056.481 -828.87)"/><path class="a" d="M3158.5,832.165a2.109,2.109,0,0,1,1.8-1.021,1.585,1.585,0,0,1,1.7,1.465,1.532,1.532,0,0,1,0,.232,6.439,6.439,0,0,1-.312,1.537,6.276,6.276,0,0,0-.247,1.16c0,.3.14.419.432.462.021,0-.086.624-.913.624-.709,0-1.041-.365-1.041-.935a5.539,5.539,0,0,1,.258-1.289,5.234,5.234,0,0,0,.236-1.128.774.774,0,0,0-.85-.858,1.354,1.354,0,0,0-1.2.763l-.558,2.663c-.118.537-.312.721-.7.721h-.162c-.408,0-.773-.162-.655-.721l.956-4.511a.669.669,0,0,1,.419-.1.8.8,0,0,1,.85.751h0A.762.762,0,0,1,3158.5,832.165Z" transform="translate(-3062.505 -828.866)"/><path class="a" d="M3169.249,836.676a1.21,1.21,0,0,1,.279-.827.82.82,0,0,1,.678-.2c.493,0,.728.183.728.558a1.2,1.2,0,0,1-.279.827c-.14.139-.288.192-.677.192C3169.489,837.224,3169.249,837.054,3169.249,836.676Zm.688-3.276a1.212,1.212,0,0,1,.28-.827.816.816,0,0,1,.677-.2c.493,0,.741.182.741.558a1.2,1.2,0,0,1-.279.827c-.14.139-.288.192-.677.192-.5,0-.743-.173-.743-.549Z" transform="translate(-3069.248 -829.5)"/></g></g></svg>