<svg xmlns="http://www.w3.org/2000/svg" xmlns:xlink="http://www.w3.org/1999/xlink" width="401.455" height="194.584" viewBox="0 0 401.455 194.584"><defs><style>.a{fill:none;}.b{fill:#fff;}.c{clip-path:url(#a);}.d{fill:#ffde6e;}.e{fill:#40e262;}.f{fill:#0133a1;}.g{opacity:0.5;}.h{clip-path:url(#b);}.i{fill:#ffdd6e;}.j{fill:#ffdc6d;}.k{fill:#ffdb6d;}.l{fill:#ffda6d;}.m{fill:#ffd96c;}.n{fill:#ffd86c;}.o{fill:#ffd76c;}.p{fill:#ffd66c;}.q{fill:#ffd56b;}.r{fill:#ffd46b;}.s{fill:#ffd36b;}.t{fill:#ffd26a;}.u{fill:#ffd16a;}.v{fill:#ffd06a;}.w{fill:#ffcf69;}.x{fill:#ffce69;}.y{fill:#ffcd69;}.z{fill:#ffcc68;}.aa{fill:#ffcb68;}.ab{fill:#ffca68;}.ac{fill:#ffc967;}.ad{fill:#ffc867;}.ae{fill:#ffc767;}.af{fill:#ffc667;}.ag{fill:#ffc566;}.ah{fill:#ffc466;}.ai{fill:#ffc366;}.aj{fill:#ffc265;}.ak{fill:#ffc165;}.al{fill:#ffc065;}.am{fill:#ffbf64;}.an{fill:#ffbe64;}.ao{fill:#ffbd64;}.ap{fill:#ffbc63;}.aq{fill:#ffbb63;}.ar{fill:#ffba63;}.as{fill:#ffb963;}.at{fill:#ffb862;}.au{fill:#ffb762;}.av{fill:#ffb662;}.aw{fill:#ffb561;}.ax{fill:#ffb461;}.ay{fill:#ffb361;}.az{fill:#ffb260;}.ba{fill:#ffb160;}.bb{fill:#ffb060;}.bc{fill:#ffaf5f;}.bd{fill:#ffae5f;}.be{fill:#ffad5f;}.bf{fill:#ffac5e;}.bg{fill:#ffab5e;}.bh{fill:#ffaa5e;}.bi{fill:#ffa95e;}.bj{fill:#ffa85d;}.bk{fill:#ffa75d;}.bl{fill:#ffa65d;}.bm{fill:#ffa55c;}.bn{fill:#ffa45c;}.bo{fill:#ffa35c;}.bp{fill:#ffa25b;}.bq{fill:#ffa15b;}.br{fill:#ffa05b;}.bs{fill:#ff9f5a;}.bt{fill:#ff9e5a;}.bu{fill:#ff9c5a;}.bv{fill:#ff9b59;}.bw{fill:#ff9a59;}.bx{fill:#ff9959;}.by{fill:#ff9859;}.bz{fill:#ff9758;}.ca{fill:#ff9658;}.cb{fill:#ff9558;}.cc{fill:#ff9457;}.cd{fill:#ff9357;}.ce{fill:#ff9257;}.cf{fill:#ff9156;}.cg{fill:#ff9056;}.ch{fill:#ff8f56;}.ci{fill:#ff8e55;}.cj{fill:#ff8d55;}.ck{fill:#ff8c55;}.cl{fill:#ff8b55;}.cm{fill:#ff8a54;}.cn{fill:#ff8954;}.co{fill:#ff8854;}.cp{fill:#ff8753;}.cq{fill:#ff8653;}.cr{fill:#ff8553;}.cs{fill:#ff8452;}.ct{fill:#ff8352;}.cu{fill:#ff8252;}.cv{fill:#ff8151;}.cw{fill:#ff8051;}.cx{fill:#ff7f51;}.cy{fill:#ff7e50;}.cz{fill:#ff7d50;}.da{fill:#ff7c50;}.db{fill:#ff7b50;}.dc{fill:#ff7a4f;}.dd{fill:#ff794f;}.de{fill:#ff784f;}.df{fill:#ff774e;}.dg{fill:#ff764e;}.dh{fill:#ff754e;}.di{fill:#ff744d;}.dj{fill:#ff734d;}.dk{fill:#ff724d;}.dl{fill:#ff714c;}.dm{fill:#ff704c;}.dn{fill:#ff6f4c;}.do{fill:#ff6e4c;}.dp{fill:#ff6d4b;}.dq{fill:#ff6c4b;}.dr{fill:#ff6b4b;}.ds{fill:#ff6a4a;}.dt{fill:#ff694a;}.du{fill:#ff684a;}.dv{fill:#ff6749;}.dw{fill:#ff6649;}.dx{fill:#ff6549;}.dy{fill:#ff6448;}.dz{fill:#ff6348;}.ea{fill:#ff6248;}.eb{fill:#ff6148;}.ec{fill:#ff6047;}.ed{fill:#ff5f47;}.ee{fill:#ff5e47;}.ef{fill:#ff5d46;}.eg{fill:#ff5c46;}.eh{fill:#ff5b46;}.ei{fill:#ff5a45;}.ej{fill:#ff5945;}.ek{fill:#ff5845;}.el{fill:#ff5744;}.em{fill:#ff5644;}.en{fill:#f54;}.eo{fill:#ff5443;}.ep{fill:#ff5343;}.eq{fill:#ff5243;}.er{fill:#ff5143;}.es{fill:#ff5042;}.et{fill:#ff4f42;}.eu{fill:#ff4e42;}.ev{fill:#ff4d41;}.ew{fill:#ff4c41;}.ex{fill:#102236;}</style><clipPath id="a"><circle class="a" cx="12.678" cy="12.678" r="12.678"/></clipPath><clipPath id="b"><circle class="a" cx="2.973" cy="2.973" r="2.973"/></clipPath></defs><g transform="translate(-4239.227 -1432.387)"><g transform="translate(4239.227 1432.387)"><g transform="translate(279.516 47.999)"><path class="b" d="M4527.367,1489.435h-75.5c-5.131,0-9.3-4.714-9.3-10.506s4.174-10.507,9.3-10.507h75.5c5.13,0,9.3,4.714,9.3,10.507S4532.5,1489.435,4527.367,1489.435Zm-75.5-19.99c-4.631,0-8.4,4.255-8.4,9.484s3.768,9.482,8.4,9.482h75.5c4.631,0,8.4-4.254,8.4-9.482s-3.768-9.484-8.4-9.484Z" transform="translate(-4442.563 -1468.422)"/><g transform="translate(7.496 5.283)"><g transform="translate(0 0.041)"><path class="b" d="M4449.762,1481.963c-.292,0-.487-.236-.529-.589l-1.042-8.182c.056-.437.348-.773.667-.773h.959c.249,0,.472.287.5.6l.667,5.259,2.2-5.259c.139-.318.444-.6.694-.6h.959c.32,0,.5.336.445.773l-3.433,8.182a.832.832,0,0,1-.695.589Z" transform="translate(-4448.191 -1472.419)"/></g><g transform="translate(5.767 0.041)"><path class="b" d="M4458.454,1482.047c-.819,0-.932-.739-1.016-1.293l-.125-.807h-2.042l-.611,1.395c-.125.336-.391.622-.668.622h-1c-.319,0-.528-.286-.458-.69l3.557-8.265a.865.865,0,0,1,.7-.589h1.168c.263,0,.458.236.513.589l.945,6.619c.042.219.056.4.1.42a.636.636,0,0,1,.236.606l-.083.554C4459.579,1481.844,4458.9,1482.047,4458.454,1482.047Zm-2.294-4.234h.849l-.194-1.529Z" transform="translate(-4452.521 -1472.419)"/></g><g transform="translate(14.089 0.041)"><path class="b" d="M4459.241,1481.963c-.333,0-.529-.286-.459-.69l1.182-8.165a.736.736,0,0,1,.666-.689h.9c.319,0,.527.287.458.689l-.958,6.587h2.6c.32,0,.528.285.473.671l-.125.907a.75.75,0,0,1-.667.69Z" transform="translate(-4458.768 -1472.419)"/></g><g transform="translate(20.619 0.041)"><path class="b" d="M4464.143,1481.963c-.333,0-.527-.286-.458-.69l1.182-8.165a.738.738,0,0,1,.667-.689h4.267c.333,0,.515.287.443.689l-.124.924a.711.711,0,0,1-.654.673h-2.793l-.208,1.36h1.987c.32,0,.5.3.444.689l-.124.908a.742.742,0,0,1-.654.689h-1.987l-.194,1.344h2.794c.333,0,.514.285.458.671l-.125.907c-.07.4-.32.69-.654.69Z" transform="translate(-4463.67 -1472.419)"/></g><g transform="translate(33.709)"><path class="b" d="M4475.069,1481.931c-.292,0-.486-.236-.529-.588l-1.042-8.182c.056-.437.347-.773.667-.773h.959c.249,0,.471.285.5.6l.667,5.26,2.2-5.26c.138-.318.444-.6.694-.6h.958c.319,0,.5.336.444.773l-3.432,8.182a.834.834,0,0,1-.7.588Z" transform="translate(-4473.499 -1472.388)"/></g><g transform="translate(40.865)"><path class="b" d="M4480.913,1481.242a.746.746,0,0,1-.667.689h-.918c-.319,0-.513-.285-.443-.689l1.181-8.165a.735.735,0,0,1,.653-.689h.918c.318,0,.527.285.459.689Z" transform="translate(-4478.871 -1472.388)"/></g><g transform="translate(44.645)"><path class="b" d="M4485.946,1472.388c1.918,0,2.736,1.007,2.4,3.31a3.859,3.859,0,0,1-1.236,2.637,12.553,12.553,0,0,0,.32,1.68.594.594,0,0,1,.194.6l-.084.554a1.094,1.094,0,0,1-1.181.84c-.75,0-.875-.57-.987-1.193l-.319-1.847h-.972l-.333,2.268c-.07.4-.32.689-.667.689h-.891c-.319,0-.542-.285-.471-.689l1.18-8.165a.761.761,0,0,1,.683-.689Zm.375,3.31c.082-.622-.153-1.026-.584-1.026h-1.028l-.306,2.033h1.027C4485.876,1476.705,4486.224,1476.336,4486.321,1475.7Z" transform="translate(-4481.708 -1472.388)"/></g><g transform="translate(52.581)"><path class="b" d="M4493.236,1472.388c.319,0,.5.285.43.689l-.125.923a.709.709,0,0,1-.64.673h-1.375l-.958,6.569a.749.749,0,0,1-.668.689h-.917c-.32,0-.514-.285-.444-.689l.959-6.569h-1.376c-.321,0-.5-.285-.445-.673l.124-.923a.737.737,0,0,1,.654-.689Z" transform="translate(-4487.667 -1472.388)"/></g><g transform="translate(59.112)"><path class="b" d="M4492.7,1477.647l.667-4.57a.76.76,0,0,1,.681-.689h.9c.32,0,.514.285.445.689l-.681,4.687c-.264,1.848.361,1.982.833,1.982s1.153-.135,1.417-1.982l.681-4.687a.749.749,0,0,1,.667-.689h.9c.319,0,.527.285.459.689l-.667,4.57c-.542,3.763-1.85,4.368-3.781,4.368S4492.162,1481.41,4492.7,1477.647Z" transform="translate(-4492.569 -1472.388)"/></g><g transform="translate(66.082)"><path class="b" d="M4503.736,1482.015c-.82,0-.931-.739-1.015-1.293l-.125-.806h-2.043l-.609,1.393c-.126.337-.391.622-.667.622h-1c-.32,0-.529-.285-.46-.689l3.558-8.266a.865.865,0,0,1,.7-.587h1.167c.264,0,.46.234.515.587l.945,6.62c.041.219.056.4.1.42a.64.64,0,0,1,.236.6l-.084.554C4504.862,1481.813,4504.181,1482.015,4503.736,1482.015Zm-2.293-4.233h.848l-.195-1.529Z" transform="translate(-4497.802 -1472.388)"/></g><g transform="translate(74.404)"><path class="b" d="M4504.521,1481.931c-.333,0-.527-.285-.458-.689l1.182-8.165a.736.736,0,0,1,.667-.689h.9c.32,0,.527.285.459.689l-.959,6.585h2.6c.32,0,.529.285.473.673l-.126.907a.746.746,0,0,1-.667.689Z" transform="translate(-4504.049 -1472.388)"/></g></g></g><g transform="translate(237.859 153.222)"><path class="b" d="M4413.354,1558.971a.683.683,0,0,1-.695-.639l-1.371-8.9a.953.953,0,0,1,.878-.842h1.261a.723.723,0,0,1,.659.658l.877,5.724,2.889-5.724a1.216,1.216,0,0,1,.914-.658h1.263c.42,0,.658.366.585.842l-4.517,8.9a1.067,1.067,0,0,1-.914.639Z" transform="translate(-4411.289 -1547.031)"/><path class="b" d="M4423.727,1553.014l-1.006,5.632a.826.826,0,0,1-.822.712h-.86c-.33,0-.566-.073-.658-.348l-.055-.145a2.924,2.924,0,0,1-1.663.585c-2.066,0-2.432-1.737-2.1-3.6a4.546,4.546,0,0,1,4.535-4.005,6.516,6.516,0,0,1,2.286.439A.65.65,0,0,1,4423.727,1553.014Zm-2.907,1.335a1.684,1.684,0,0,0-1.573,1.5c-.163.968.2,1.134.585,1.134a1.342,1.342,0,0,0,.567-.22Zm.8-6.656a1.112,1.112,0,0,1,.677-.274.54.54,0,0,1,.492.2l.568.823a.732.732,0,0,1,.145.6,1.011,1.011,0,0,1-.511.622l-1.829,1.3a1.4,1.4,0,0,1-.694.22.709.709,0,0,1-.529-.292l-.258-.33a.754.754,0,0,1-.2-.621,1.486,1.486,0,0,1,.183-.4Z" transform="translate(-4409.574 -1547.418)"/><path class="b" d="M4423.416,1549.316a.875.875,0,0,1,.84-.731h1.226a.584.584,0,0,1,.6.731l-1.3,7.278c-.035.218,0,.329.057.348a.577.577,0,0,1,.273.639l-.109.585a.871.871,0,0,1-.712.714,3.674,3.674,0,0,1-1.024.183c-1.462,0-1.353-1.3-1.243-1.938Z" transform="translate(-4407.745 -1547.031)"/><path class="b" d="M4427.43,1558.3a.894.894,0,0,1-.859.731h-1.226a.565.565,0,0,1-.584-.731l1.043-5.942a.859.859,0,0,1,.84-.731h1.225a.584.584,0,0,1,.6.731Zm.4-9.891a1.132,1.132,0,0,1,1.152,1.408,1.717,1.717,0,0,1-1.646,1.408,1.152,1.152,0,0,1-1.169-1.408A1.752,1.752,0,0,1,4427.833,1548.407Z" transform="translate(-4406.823 -1547.09)"/><path class="b" d="M4434.087,1557.929a.991.991,0,0,1-.623.731,9.221,9.221,0,0,1-2.724.4c-2.487,0-3.474-1.517-3.036-3.932a4.029,4.029,0,0,1,3.968-3.675,2.956,2.956,0,0,1,.859.111l.4-2.267a.846.846,0,0,1,.841-.714h1.244a.56.56,0,0,1,.585.714Zm-2.981-1.334c.073,0,.366-.019.548-.037l.44-2.523a1.169,1.169,0,0,0-.44-.092c-.584,0-1.06.293-1.207,1.188C4430.265,1556.1,4430.412,1556.594,4431.106,1556.594Z" transform="translate(-4405.873 -1547.031)"/><path class="b" d="M4433.348,1554.471a4.079,4.079,0,0,1,4.279-3.731c2.486,0,3.364,1.481,2.962,3.731-.419,2.414-1.809,3.876-4.3,3.876S4432.928,1556.885,4433.348,1554.471Zm4.571.019c.093-.531.038-1.263-.731-1.263s-1.079.731-1.169,1.263c-.093.547-.166,1.389.694,1.389S4437.829,1555.037,4437.919,1554.49Z" transform="translate(-4404 -1546.315)"/><path class="b" d="M4442.257,1551.875a1.127,1.127,0,0,1,.729-.787,9.928,9.928,0,0,1,2.616-.348c2.486,0,3.456,1.519,3.035,3.932a4.018,4.018,0,0,1-4.371,3.675h-.474l-.495,2.761a.862.862,0,0,1-.842.731h-1.243a.573.573,0,0,1-.584-.731Zm1.955,4h.348a1.354,1.354,0,0,0,1.407-1.207c.166-.97-.054-1.445-.75-1.445a3.118,3.118,0,0,0-.53.037Z" transform="translate(-4401.552 -1546.315)"/><path class="b" d="M4454.011,1551.911l-1.006,5.632a.825.825,0,0,1-.823.712h-.859c-.329,0-.567-.073-.658-.348l-.055-.145a2.927,2.927,0,0,1-1.664.585c-2.066,0-2.432-1.737-2.1-3.6a4.546,4.546,0,0,1,4.535-4.005,6.508,6.508,0,0,1,2.285.439A.652.652,0,0,1,4454.011,1551.911Zm-2.907,1.335a1.684,1.684,0,0,0-1.573,1.5c-.165.968.2,1.134.585,1.134a1.351,1.351,0,0,0,.567-.22Z" transform="translate(-4399.52 -1546.315)"/><path class="b" d="M4458.4,1551.343a.723.723,0,0,1,.237.658.657.657,0,0,1-.108.257l-.5.84a.922.922,0,0,1-.73.457.56.56,0,0,1-.293-.091,2.207,2.207,0,0,0-.877-.239,1.066,1.066,0,0,0-.586.165l-.73,4.151a.826.826,0,0,1-.823.712h-1.242a.569.569,0,0,1-.6-.712l.95-5.376a.993.993,0,0,1,.494-.677,4.924,4.924,0,0,1,2.908-.75A2.575,2.575,0,0,1,4458.4,1551.343Z" transform="translate(-4397.729 -1546.315)"/><path class="b" d="M4463.512,1551.911l-1.006,5.632a.825.825,0,0,1-.822.712h-.86c-.33,0-.567-.073-.658-.348l-.056-.145a2.924,2.924,0,0,1-1.663.585c-2.066,0-2.433-1.737-2.1-3.6a4.546,4.546,0,0,1,4.534-4.005,6.5,6.5,0,0,1,2.285.439A.649.649,0,0,1,4463.512,1551.911Zm-2.906,1.335a1.683,1.683,0,0,0-1.573,1.5c-.164.968.2,1.134.584,1.134a1.342,1.342,0,0,0,.568-.22Z" transform="translate(-4396.367 -1546.315)"/><path class="b" d="M4471.149,1552.185c-.019.109-.036.147-.584.987a.806.806,0,0,1-.732.421,1.087,1.087,0,0,1-.366-.128,2.558,2.558,0,0,0-1.244-.239,1.447,1.447,0,0,0-1.444,1.3c-.164.951.367,1.353.97,1.353a2.628,2.628,0,0,0,1.371-.274.857.857,0,0,1,.385-.092.631.631,0,0,1,.566.421,9.15,9.15,0,0,1,.256.951,1.149,1.149,0,0,1-.53.731,4.723,4.723,0,0,1-2.616.731c-2.449,0-3.492-1.408-3.072-3.822a4.186,4.186,0,0,1,4.406-3.786,3.44,3.44,0,0,1,2.359.75A.724.724,0,0,1,4471.149,1552.185Z" transform="translate(-4393.783 -1546.315)"/><path class="b" d="M4469.274,1554.471a4.078,4.078,0,0,1,4.278-3.731c2.487,0,3.364,1.481,2.963,3.731-.421,2.414-1.811,3.876-4.3,3.876S4468.854,1556.885,4469.274,1554.471Zm4.571.019c.091-.531.036-1.263-.731-1.263s-1.079.731-1.171,1.263c-.092.547-.164,1.389.7,1.389S4473.754,1555.037,4473.846,1554.49Z" transform="translate(-4392.071 -1546.315)"/><path class="b" d="M4475.776,1551.875a1.064,1.064,0,0,1,.731-.787,6.229,6.229,0,0,1,2.248-.348,2.841,2.841,0,0,1,2.085.641,3.489,3.489,0,0,1,1.883-.622c2.123,0,2.212,1.445,1.865,3.365l-.6,3.419a.839.839,0,0,1-.824.712h-1.242a.569.569,0,0,1-.6-.712l.6-3.346c.165-.932.054-.97-.256-.97a1.441,1.441,0,0,0-.293.019c-.036.293-.109.677-.164,1.06l-.584,3.237a.828.828,0,0,1-.824.712h-1.024a.569.569,0,0,1-.6-.712l.568-3.218c.164-.932.2-1.1-.276-1.1a1.946,1.946,0,0,0-.273.055l-.75,4.261a.826.826,0,0,1-.823.712h-1.243a.57.57,0,0,1-.6-.712Z" transform="translate(-4390.216 -1546.315)"/><path class="b" d="M4483.413,1551.875a1.131,1.131,0,0,1,.731-.787,9.915,9.915,0,0,1,2.615-.348c2.486,0,3.456,1.519,3.035,3.932a4.017,4.017,0,0,1-4.37,3.675h-.476l-.492,2.761a.864.864,0,0,1-.843.731h-1.242a.572.572,0,0,1-.585-.731Zm1.957,4h.347a1.356,1.356,0,0,0,1.408-1.207c.164-.97-.055-1.445-.75-1.445a3.112,3.112,0,0,0-.53.037Z" transform="translate(-4387.888 -1546.315)"/><path class="b" d="M4494.092,1551.343a.722.722,0,0,1,.239.658.654.654,0,0,1-.111.257l-.493.84a.925.925,0,0,1-.731.457.563.563,0,0,1-.293-.091,2.207,2.207,0,0,0-.877-.239,1.061,1.061,0,0,0-.585.165l-.731,4.151a.826.826,0,0,1-.823.712h-1.243a.569.569,0,0,1-.6-.712l.949-5.376a1,1,0,0,1,.494-.677,4.926,4.926,0,0,1,2.909-.75A2.571,2.571,0,0,1,4494.092,1551.343Z" transform="translate(-4385.878 -1546.315)"/><path class="b" d="M4499.2,1551.911l-1.005,5.632a.828.828,0,0,1-.824.712h-.859c-.329,0-.566-.073-.658-.348l-.054-.145a2.93,2.93,0,0,1-1.665.585c-2.064,0-2.431-1.737-2.1-3.6a4.547,4.547,0,0,1,4.535-4.005,6.506,6.506,0,0,1,2.285.439A.651.651,0,0,1,4499.2,1551.911Zm-2.907,1.335a1.684,1.684,0,0,0-1.574,1.5c-.165.968.2,1.134.585,1.134a1.355,1.355,0,0,0,.567-.22Z" transform="translate(-4384.517 -1546.315)"/><path class="b" d="M4500.234,1556.043c.2,0,.731,0,.767-.182.073-.438-3.584-.31-3.18-2.669.236-1.3,1.278-2.451,3.656-2.451a15.639,15.639,0,0,1,1.756.22.649.649,0,0,1,.584.731l-.037.146a3.983,3.983,0,0,1-.237.823c-.164.438-.365.585-.677.585-.6-.037-.933-.092-1.3-.092-.659,0-1.062,0-1.079.111-.092.438,3.565.384,3.18,2.559-.273,1.592-1.7,2.524-3.8,2.524a6.8,6.8,0,0,1-2.194-.421.693.693,0,0,1-.4-.767,4.159,4.159,0,0,1,.438-.951.825.825,0,0,1,.768-.439,1.076,1.076,0,0,1,.256.037A6.332,6.332,0,0,0,4500.234,1556.043Z" transform="translate(-4382.747 -1546.315)"/><path class="b" d="M4447.832,1569.615a7.5,7.5,0,0,1-.914-.055c.22.53.8.567,1.28.567a3.612,3.612,0,0,0,1.773-.385.5.5,0,0,1,.22-.055.487.487,0,0,1,.439.366l.219.75a.757.757,0,0,1,.018.273,1.154,1.154,0,0,1-.493.7,4.474,4.474,0,0,1-2.743.731c-2.468,0-3.363-1.463-2.944-3.876.4-2.248,1.7-3.73,4.188-3.73,1.974,0,2.944,1.042,2.688,2.468C4451.25,1569.139,4449.515,1569.615,4447.832,1569.615Zm-.31-1.993c.073.182.42.31.768.31.273,0,.53-.09.567-.384.055-.256-.293-.31-.549-.31A1.08,1.08,0,0,0,4447.521,1567.622Z" transform="translate(-4400.234 -1541.615)"/><path class="b" d="M4450.777,1566.032a1.062,1.062,0,0,1,.732-.786,8.355,8.355,0,0,1,2.614-.348c2.468,0,3.218,1.115,2.8,3.564l-.586,3.237a.831.831,0,0,1-.84.714h-1.226a.571.571,0,0,1-.6-.714l.567-3.218c.165-.932.146-1.1-.494-1.1a3.124,3.124,0,0,0-.53.036l-.768,4.278a.846.846,0,0,1-.84.714h-1.226a.57.57,0,0,1-.6-.714Z" transform="translate(-4398.516 -1541.615)"/><path class="b" d="M4462.887,1562.742c2.523,0,3.658,1.1,3.218,3.6s-1.954,3.566-4.479,3.566h-.987l-.44,2.468a.9.9,0,0,1-.877.75h-1.169a.59.59,0,0,1-.623-.75l1.555-8.887a.918.918,0,0,1,.895-.75Zm.549,3.585c.128-.677-.182-1.1-.767-1.1h-1.208l-.4,2.212h1.208A1.213,1.213,0,0,0,4463.436,1566.327Z" transform="translate(-4395.943 -1542.33)"/><path class="b" d="M4465,1563.473a.878.878,0,0,1,.841-.731h1.226a.584.584,0,0,1,.6.731l-1.3,7.278c-.036.22,0,.329.056.348a.578.578,0,0,1,.274.639l-.109.586a.872.872,0,0,1-.714.713,3.669,3.669,0,0,1-1.025.183c-1.462,0-1.351-1.3-1.243-1.938Z" transform="translate(-4393.938 -1542.33)"/><path class="b" d="M4473.532,1566.068l-1,5.632a.828.828,0,0,1-.823.714h-.859c-.329,0-.567-.073-.659-.348l-.055-.147a2.923,2.923,0,0,1-1.664.585c-2.065,0-2.432-1.737-2.1-3.6a4.546,4.546,0,0,1,4.536-4,6.536,6.536,0,0,1,2.285.438A.65.65,0,0,1,4473.532,1566.068Zm-2.907,1.335a1.683,1.683,0,0,0-1.572,1.5c-.165.968.2,1.133.585,1.133a1.348,1.348,0,0,0,.566-.22Z" transform="translate(-4393.039 -1541.615)"/><path class="b" d="M4472.674,1566.032a1.061,1.061,0,0,1,.731-.786,8.357,8.357,0,0,1,2.614-.348c2.468,0,3.218,1.115,2.8,3.564l-.585,3.237a.832.832,0,0,1-.842.714h-1.224a.571.571,0,0,1-.6-.714l.568-3.218c.164-.932.145-1.1-.495-1.1a3.114,3.114,0,0,0-.529.036l-.769,4.278a.847.847,0,0,1-.842.714h-1.224a.57.57,0,0,1-.6-.714Z" transform="translate(-4391.247 -1541.615)"/><path class="b" d="M4484.525,1562.742c2.524,0,3.675.714,3.218,3.255a2.265,2.265,0,0,1-1.042,1.756,2.074,2.074,0,0,1,.823,2.139c-.458,2.523-1.847,3.237-4.37,3.237h-3.109a.624.624,0,0,1-.623-.769l1.555-8.868a.934.934,0,0,1,.9-.75Zm.33,7.131c.109-.585-.4-.677-1.006-.677h-1.208l-.255,1.463h1.207C4484.2,1570.66,4484.745,1570.532,4484.855,1569.874Zm-1.5-4.645-.257,1.464h.75c.584,0,1.115-.073,1.244-.769.109-.622-.4-.7-.988-.7Z" transform="translate(-4388.672 -1542.33)"/><path class="b" d="M4487.14,1563.473a.879.879,0,0,1,.842-.731h1.226a.584.584,0,0,1,.6.731l-1.3,7.278c-.038.22,0,.329.054.348a.58.58,0,0,1,.275.639l-.11.586a.872.872,0,0,1-.714.713,3.671,3.671,0,0,1-1.025.183c-1.462,0-1.352-1.3-1.242-1.938Z" transform="translate(-4386.587 -1542.33)"/><path class="b" d="M4495.675,1566.068l-1,5.632a.827.827,0,0,1-.823.714h-.859c-.329,0-.566-.073-.658-.348l-.055-.147a2.928,2.928,0,0,1-1.665.585c-2.066,0-2.431-1.737-2.1-3.6a4.545,4.545,0,0,1,4.535-4,6.532,6.532,0,0,1,2.286.438A.65.65,0,0,1,4495.675,1566.068Zm-2.906,1.335a1.685,1.685,0,0,0-1.573,1.5c-.166.968.2,1.133.584,1.133a1.355,1.355,0,0,0,.568-.22Z" transform="translate(-4385.687 -1541.615)"/><path class="b" d="M4501.063,1566.342c-.018.11-.036.146-.584.987a.806.806,0,0,1-.732.421,1.077,1.077,0,0,1-.365-.128,2.571,2.571,0,0,0-1.244-.237,1.445,1.445,0,0,0-1.444,1.3c-.166.951.365,1.353.968,1.353a2.632,2.632,0,0,0,1.373-.274.85.85,0,0,1,.383-.092.632.632,0,0,1,.568.421,9.8,9.8,0,0,1,.256.951,1.142,1.142,0,0,1-.53.731,4.722,4.722,0,0,1-2.615.731c-2.451,0-3.492-1.408-3.073-3.822a4.185,4.185,0,0,1,4.408-3.784,3.452,3.452,0,0,1,2.359.749A.723.723,0,0,1,4501.063,1566.342Z" transform="translate(-4383.852 -1541.615)"/><path class="b" d="M4502.687,1571.611a3.605,3.605,0,0,0-.421-1.006l-.257.092-.311,1.718a.826.826,0,0,1-.822.714h-1.244a.57.57,0,0,1-.6-.714l1.59-8.959a.846.846,0,0,1,.842-.714h1.243a.561.561,0,0,1,.586.714l-.788,4.406a3.52,3.52,0,0,0,1.5-1.481.89.89,0,0,1,.841-.658h1.226a.586.586,0,0,1,.585.75,6.013,6.013,0,0,1-1.975,2.816,4.895,4.895,0,0,1,.658,1.28l.641,1.737a.918.918,0,0,1-.842.823H4503.8a.983.983,0,0,1-.805-.6Z" transform="translate(-4382.165 -1542.33)"/></g><g transform="translate(267.206 13.148)"><g class="c"><g transform="translate(-22.717 -23.46)"><g transform="translate(0 0)"><g transform="translate(23.398)"><rect class="b" width="0.548" height="63.966" transform="matrix(0.769, -0.64, 0.64, 0.769, 0, 0.35)"/></g><g transform="translate(22.38 0.846)"><rect class="b" width="0.548" height="63.966" transform="matrix(0.769, -0.64, 0.64, 0.769, 0, 0.35)"/></g><g transform="translate(21.364 1.693)"><rect class="b" width="0.548" height="63.966" transform="matrix(0.769, -0.64, 0.64, 0.769, 0, 0.35)"/></g><g transform="translate(20.346 2.54)"><rect class="b" width="0.548" height="63.966" transform="matrix(0.769, -0.64, 0.64, 0.769, 0, 0.35)"/></g><g transform="translate(19.328 3.386)"><rect class="b" width="0.548" height="63.966" transform="matrix(0.769, -0.64, 0.64, 0.769, 0, 0.35)"/></g><g transform="translate(18.31 4.233)"><rect class="b" width="0.547" height="63.933" transform="matrix(0.769, -0.64, 0.64, 0.769, 0, 0.35)"/></g><g transform="translate(17.295 5.079)"><rect class="b" width="0.548" height="63.966" transform="matrix(0.769, -0.64, 0.64, 0.769, 0, 0.35)"/></g><g transform="translate(16.277 5.925)"><rect class="b" width="0.548" height="63.966" transform="matrix(0.769, -0.64, 0.64, 0.769, 0, 0.35)"/></g><g transform="translate(15.259 6.772)"><rect class="b" width="0.548" height="63.966" transform="matrix(0.769, -0.64, 0.64, 0.769, 0, 0.35)"/></g><g transform="translate(14.243 7.618)"><rect class="b" width="0.548" height="63.966" transform="matrix(0.769, -0.64, 0.64, 0.769, 0, 0.35)"/></g><g transform="translate(13.225 8.465)"><rect class="b" width="0.547" height="63.933" transform="matrix(0.769, -0.64, 0.64, 0.769, 0, 0.35)"/></g><g transform="translate(12.208 9.311)"><rect class="b" width="0.548" height="63.966" transform="matrix(0.769, -0.64, 0.64, 0.769, 0, 0.35)"/></g><g transform="translate(11.19 10.158)"><rect class="b" width="0.547" height="63.933" transform="matrix(0.769, -0.64, 0.64, 0.769, 0, 0.35)"/></g><g transform="translate(10.173 11.004)"><rect class="b" width="0.548" height="63.966" transform="matrix(0.769, -0.64, 0.64, 0.769, 0, 0.35)"/></g><g transform="translate(9.156 11.851)"><rect class="b" width="0.548" height="63.966" transform="matrix(0.769, -0.64, 0.64, 0.769, 0, 0.35)"/></g><g transform="translate(8.138 12.697)"><rect class="b" width="0.548" height="63.966" transform="matrix(0.769, -0.64, 0.64, 0.769, 0, 0.35)"/></g><g transform="translate(7.12 13.544)"><rect class="b" width="0.548" height="63.966" transform="matrix(0.769, -0.64, 0.64, 0.769, 0, 0.35)"/></g><g transform="translate(6.104 14.39)"><rect class="b" width="0.547" height="63.933" transform="matrix(0.769, -0.64, 0.64, 0.769, 0, 0.35)"/></g><g transform="translate(5.087 15.237)"><rect class="b" width="0.548" height="63.966" transform="matrix(0.769, -0.64, 0.64, 0.769, 0, 0.35)"/></g><g transform="translate(4.069 16.083)"><rect class="b" width="0.548" height="63.966" transform="matrix(0.769, -0.64, 0.64, 0.769, 0, 0.35)"/></g><g transform="translate(3.052 16.93)"><rect class="b" width="0.548" height="63.966" transform="matrix(0.769, -0.64, 0.64, 0.769, 0, 0.35)"/></g><g transform="translate(2.035 17.776)"><rect class="b" width="0.548" height="63.966" transform="matrix(0.769, -0.64, 0.64, 0.769, 0, 0.35)"/></g><g transform="translate(1.017 18.623)"><rect class="b" width="0.548" height="63.966" transform="matrix(0.769, -0.64, 0.64, 0.769, 0, 0.35)"/></g><g transform="translate(0 19.469)"><rect class="b" width="0.548" height="63.966" transform="matrix(0.769, -0.64, 0.64, 0.769, 0, 0.35)"/></g></g></g></g></g><g transform="translate(303.927)"><circle class="d" cx="3.852" cy="3.852" r="3.852"/></g><g transform="translate(207.869 154.441)"><path class="e" d="M4389.262,1549.674l3.342,1.4,2.368-2.745-.3,3.612,3.34,1.4-3.528.83-.3,3.611-1.878-3.1-3.527.828,2.367-2.744Z" transform="translate(-4388.774 -1548.333)"/></g><g transform="translate(0 3.43)"><g transform="translate(31.448)"><path class="d" d="M4256.329,1436.01c-.157.7,4.191,7.763,5.2,7.992.278.063.221-.29.465-.234,1.16.266-1.917-5.276-2.52-6.828C4258.457,1434.372,4256.652,1434.574,4256.329,1436.01Z" transform="translate(-4256.325 -1434.961)"/></g><g transform="translate(27.283 14.472)"><path class="d" d="M4254.883,1446.981c-.062-.105-.921-1.248-1.095-1.148C4251.7,1447.039,4255.916,1448.776,4254.883,1446.981Z" transform="translate(-4253.199 -1445.826)"/></g><g transform="translate(12.528 16.324)"><path class="d" d="M4243.227,1447.312a1.084,1.084,0,0,0-.642-.077.579.579,0,0,0-.436.366c-.476,1.476,5.417,6.284,6.926,6.772.19.061.313.055.342-.039C4249.524,1454,4244.679,1447.779,4243.227,1447.312Z" transform="translate(-4242.122 -1447.216)"/></g><g transform="translate(18.095 32.109)"><path class="d" d="M4246.32,1459.447c-.23.715,1.792,2.916,2.265,1.433C4248.843,1460.086,4246.695,1458.285,4246.32,1459.447Z" transform="translate(-4246.302 -1459.067)"/></g><g transform="translate(0 38.198)"><path class="d" d="M4233.125,1463.639c-.684.194-.266.631-.381.995-.6,1.878,9.092,3.463,10.231,2.968.327-.143.5-.821.232-.908a.2.2,0,0,1-.092-.2C4243.123,1466.366,4233.362,1463.573,4233.125,1463.639Z" transform="translate(-4232.717 -1463.638)"/></g><g transform="translate(5.993 51.212)"><path class="d" d="M4239.862,1473.476a5.252,5.252,0,0,0-2.345.154c-.715.461.03,1.685.338,1.485a.888.888,0,0,1,.4.047C4239.074,1475.391,4241.427,1474.219,4239.862,1473.476Z" transform="translate(-4237.216 -1473.409)"/></g></g><g transform="translate(372.795 82.228)"><g transform="translate(0 54.701)"><path class="b" d="M4522.3,1540.8c-.119-.737-7.881-5.794-9.077-5.607-.333.055-.122.37-.415.417-1.389.221,4.329,4.318,5.646,5.57C4520.638,1543.247,4522.543,1542.316,4522.3,1540.8Z" transform="translate(-4512.592 -1535.186)"/></g><g transform="translate(5.921 44.28)"><path class="b" d="M4517.446,1528.29c.113.077,1.539.832,1.688.666C4520.934,1526.937,4515.553,1526.977,4517.446,1528.29Z" transform="translate(-4517.037 -1527.362)"/></g><g transform="translate(13.137 33.745)"><path class="b" d="M4532.229,1523.9a1.441,1.441,0,0,0,.741-.188.624.624,0,0,0,.328-.533c-.1-1.619-8.615-3.863-10.485-3.723-.235.019-.364.074-.359.176C4522.477,1520.006,4530.436,1524.043,4532.229,1523.9Z" transform="translate(-4522.454 -1519.453)"/></g><g transform="translate(8.117 23.247)"><path class="b" d="M4521.793,1512.812c-.045-.785-3.2-2.087-3.1-.46C4518.74,1513.225,4521.871,1514.084,4521.793,1512.812Z" transform="translate(-4518.686 -1511.572)"/></g><g transform="translate(15.643 9.829)"><path class="b" d="M4537.049,1503.424c.672-.465.027-.715,0-1.118-.122-2.062-11.482.361-12.531,1.3-.3.266-.207,1,.125.972a.218.218,0,0,1,.184.152C4524.876,1504.863,4536.82,1503.589,4537.049,1503.424Z" transform="translate(-4524.336 -1501.498)"/></g><g transform="translate(12.93)"><path class="b" d="M4523.16,1496.587a6.8,6.8,0,0,0,2.521-1.1c.6-.737-.739-1.615-1-1.3a1.184,1.184,0,0,1-.461.118C4523.223,1494.416,4521.116,1496.508,4523.16,1496.587Z" transform="translate(-4522.299 -1494.119)"/></g></g><g transform="translate(61.574 12.477)"><path class="b" d="M4293.256,1459.556v3.7c0,4.459-2.444,7.009-7.156,7.009s-7.157-2.55-7.157-7.009v-14.495c0-4.461,2.443-7.01,7.157-7.01s7.156,2.549,7.156,7.01v2.707h-4.539v-2.986c0-1.991-.958-2.749-2.487-2.749s-2.488.758-2.488,2.749v15.049c0,1.991.96,2.709,2.488,2.709s2.487-.717,2.487-2.709v-3.981Z" transform="translate(-4278.943 -1441.754)"/><g transform="translate(15.187 0.321)"><path class="b" d="M4296.41,1460.631l-6.065-18.636h5.018l3.666,12.7,3.666-12.7h4.581l-6.065,18.636v9.239h-4.8Z" transform="translate(-4290.345 -1441.995)"/></g><g transform="translate(34.037 0.317)"><path class="b" d="M4318.853,1448.406v1c0,2.868-.96,4.7-3.1,5.614,2.574.916,3.579,3.026,3.579,5.973v2.27c0,4.3-2.488,6.611-7.287,6.611h-7.55v-27.878h7.244C4316.714,1441.995,4318.853,1444.1,4318.853,1448.406Zm-9.557-2.43v7.362h1.874c1.791,0,2.881-.717,2.881-2.945v-1.549c0-1.993-.742-2.868-2.443-2.868Zm0,11.35v8.562h2.75c1.615,0,2.485-.678,2.485-2.748v-2.429c0-2.588-.917-3.385-3.1-3.385Z" transform="translate(-4304.496 -1441.992)"/></g><g transform="translate(51.758 0.32)"><path class="b" d="M4322.6,1453.741h6.591v3.981H4322.6v8.166h8.29v3.981H4317.8v-27.876h13.086v3.983h-8.29Z" transform="translate(-4317.8 -1441.994)"/></g><g transform="translate(67.812 0.317)"><path class="b" d="M4339.89,1469.871a7.917,7.917,0,0,1-.437-3.425v-4.381c0-2.588-.96-3.546-3.141-3.546h-1.66v11.35h-4.8v-27.878h7.244c4.977,0,7.113,2.111,7.113,6.414v2.19c0,2.868-1,4.745-3.142,5.656,2.4.917,3.186,3.026,3.186,5.933v4.3a7.564,7.564,0,0,0,.523,3.385Zm-5.235-23.893v8.562h1.875c1.79,0,2.879-.717,2.879-2.944v-2.745c0-1.991-.741-2.868-2.444-2.868Z" transform="translate(-4329.853 -1441.992)"/></g></g><g transform="translate(182.846 95.317)"><path class="b" d="M4375.093,1516.551h7.43v-7.5a5.106,5.106,0,0,1,5.105-5.105h.361a5.106,5.106,0,0,1,5.105,5.105h0v7.5h7.5a5.106,5.106,0,0,1,5.105,5.105h0v.36a5.106,5.106,0,0,1-5.105,5.105h-7.5v7.43a5.107,5.107,0,0,1-5.1,5.107h-.361a5.108,5.108,0,0,1-5.107-5.107v-7.43h-7.43a5.107,5.107,0,0,1-5.105-5.105h0v-.36A5.106,5.106,0,0,1,4375.093,1516.551Z" transform="translate(-4369.988 -1503.946)"/></g><g transform="translate(184.976 96.637)"><path class="f" d="M4376.693,1517.542h7.43v-7.5a5.106,5.106,0,0,1,5.105-5.107h.361a5.106,5.106,0,0,1,5.105,5.107v7.5h7.5a5.105,5.105,0,0,1,5.105,5.106h0v.36a5.107,5.107,0,0,1-5.105,5.107h-7.5v7.43a5.105,5.105,0,0,1-5.105,5.106h-.361a5.105,5.105,0,0,1-5.105-5.106h0v-7.43h-7.43a5.107,5.107,0,0,1-5.105-5.107v-.36A5.107,5.107,0,0,1,4376.693,1517.542Z" transform="translate(-4371.587 -1504.937)"/></g><g transform="translate(229.833 77.037)"><g transform="translate(35.088 1.047)"><g transform="translate(0 0.421)"><path class="f" d="M4456.713,1514.292c20.941,0,19.047,13.673,18.2,18.905-2.1,11.963-12.207,19.334-26.519,19.334a67.536,67.536,0,0,1-13.363-1.6c-2-.426-3.789-1.922-3.368-4.272.21-.855.631-2.563,1.473-5.768.841-3.31,2.945-3.952,5.472-3.952l4.209.533a74.208,74.208,0,0,0,9.049.641c4.946,0,7.05-1.388,7.682-5.234.42-2.131-.842-4.059-4.946-4.059h-15.679a3.353,3.353,0,0,1-3.472-4.273l4.946-28.838a5.194,5.194,0,0,1,5.051-4.38h30.832a3.4,3.4,0,0,1,3.472,4.38l-.947,5.874a5.2,5.2,0,0,1-5.05,4.273h-19.678l-1.473,8.438Z" transform="translate(-4431.605 -1491.325)"/></g><g transform="translate(47.977)"><path class="f" d="M4468.639,1522.2c4.421-25.308,15.364-31.187,29.675-31.187s23.256,5.874,18.838,31.188c-4.1,23.71-15.052,30.44-29.36,30.44C4473.271,1552.636,4464.537,1545.906,4468.639,1522.2Zm33.148,0c2.736-15.7-2.42-16.663-5.995-16.663s-9.049.963-11.785,16.663c-2.531,14.418,2.531,16.02,6.208,16.02,3.469,0,9.046-1.6,11.572-16.02Z" transform="translate(-4467.625 -1491.008)"/></g></g><g transform="translate(0 0.522)"><path class="f" d="M4420.657,1498.366l-4.845,1.055-.919-.984.3-1.792a3.4,3.4,0,0,0,.046-1.6.663.663,0,0,0-.679-.334,1.14,1.14,0,0,0-.924.474,3.116,3.116,0,0,0-.522,1.409,3.779,3.779,0,0,0,.021,1.82,3.6,3.6,0,0,0,1.508,1.457,13.772,13.772,0,0,1,4.555,4.031,8.834,8.834,0,0,1,.239,5.146,10.265,10.265,0,0,1-1.218,3.819,6.035,6.035,0,0,1-2.651,2.083,10.1,10.1,0,0,1-4.14.875,7.941,7.941,0,0,1-4.13-.908,3.635,3.635,0,0,1-1.917-2.408,12.191,12.191,0,0,1,.153-4.192l.267-1.584,5.786-.068.917.984-1.4,1.959a3.744,3.744,0,0,0-.043,1.746.78.78,0,0,0,.8.378,1.232,1.232,0,0,0,1.007-.5,3.264,3.264,0,0,0,.543-1.465,4.257,4.257,0,0,0-.117-2.788,14.3,14.3,0,0,0-2.551-2.162,21.778,21.778,0,0,1-2.7-2.22,4.2,4.2,0,0,1-.924-1.926,8.275,8.275,0,0,1,.04-3.161,10.129,10.129,0,0,1,1.385-4.071,6.142,6.142,0,0,1,2.6-2.039,9.859,9.859,0,0,1,3.889-.773,8.768,8.768,0,0,1,3.979.741,3.364,3.364,0,0,1,1.922,1.966,10.367,10.367,0,0,1-.119,4.081Z" transform="translate(-4405.263 -1490.614)"/></g><g transform="translate(13.851)"><path class="f" d="M4431.281,1490.222l1.313,1.311-12.4,23.92-3.617,1.035-.917-.984,11.174-25.224Z" transform="translate(-4415.662 -1490.222)"/></g><g transform="translate(1.778 1.509)"><path class="b" d="M4422,1499.1l-5.765.071.3-1.792a3.428,3.428,0,0,0,.043-1.6.663.663,0,0,0-.679-.335,1.141,1.141,0,0,0-.925.474,3.131,3.131,0,0,0-.521,1.409,3.8,3.8,0,0,0,.018,1.82,3.622,3.622,0,0,0,1.511,1.456,13.71,13.71,0,0,1,4.554,4.031,8.841,8.841,0,0,1,.239,5.146,10.3,10.3,0,0,1-1.217,3.82,6.059,6.059,0,0,1-2.654,2.083,10.141,10.141,0,0,1-4.139.875,7.96,7.96,0,0,1-4.13-.908,3.639,3.639,0,0,1-1.918-2.407,12.177,12.177,0,0,1,.152-4.192l.266-1.584,5.786-.068-.486,2.944a3.737,3.737,0,0,0-.044,1.746.784.784,0,0,0,.8.378,1.23,1.23,0,0,0,1.006-.5,3.255,3.255,0,0,0,.545-1.465,4.238,4.238,0,0,0-.117-2.788,14.143,14.143,0,0,0-2.55-2.16,22.131,22.131,0,0,1-2.7-2.22,4.212,4.212,0,0,1-.923-1.926,8.283,8.283,0,0,1,.039-3.161,10.148,10.148,0,0,1,1.387-4.071,6.117,6.117,0,0,1,2.6-2.038,9.82,9.82,0,0,1,3.888-.772,8.735,8.735,0,0,1,3.981.739,3.366,3.366,0,0,1,1.92,1.966,10.369,10.369,0,0,1-.118,4.081Z" transform="translate(-4406.598 -1491.355)"/></g><g transform="translate(15.167 1.309)"><path class="b" d="M4432.266,1491.205l-11.087,25.231-4.528.052,11.173-25.224Z" transform="translate(-4416.65 -1491.205)"/></g><g transform="translate(38.827 3.867)"><g transform="translate(0 0.423)"><path class="b" d="M4459.521,1516.41c20.939,0,19.047,13.673,18.2,18.905-2.1,11.963-12.207,19.334-26.519,19.334a67.545,67.545,0,0,1-13.364-1.6c-2-.427-3.788-1.922-3.368-4.272.211-.855.632-2.563,1.474-5.768.841-3.311,2.946-3.952,5.472-3.952l4.209.533a74.513,74.513,0,0,0,9.05.641c4.946,0,7.05-1.388,7.682-5.233.42-2.131-.842-4.059-4.946-4.059h-15.679a3.352,3.352,0,0,1-3.472-4.272l4.945-28.839a5.194,5.194,0,0,1,5.051-4.38h30.832a3.4,3.4,0,0,1,3.472,4.38l-.947,5.874a5.2,5.2,0,0,1-5.05,4.272h-19.678l-1.473,8.438Z" transform="translate(-4434.412 -1493.443)"/></g><g transform="translate(47.979)"><path class="b" d="M4471.446,1524.313c4.421-25.308,15.365-31.187,29.677-31.187s23.255,5.875,18.837,31.188c-4.1,23.71-15.052,30.44-29.36,30.44C4476.078,1554.753,4467.344,1548.025,4471.446,1524.313Zm33.149,0c2.736-15.7-2.42-16.662-5.995-16.662s-9.049.962-11.785,16.662c-2.53,14.419,2.531,16.021,6.209,16.021C4496.493,1540.334,4502.069,1538.733,4504.6,1524.313Z" transform="translate(-4470.432 -1493.125)"/></g></g></g><g transform="translate(43.656 57.748)"><ellipse class="f" cx="55.852" cy="55.875" rx="55.852" ry="55.875"/></g><g transform="translate(49.24 57.77)"><ellipse class="b" cx="55.852" cy="55.875" rx="55.852" ry="55.875"/></g><g transform="translate(61.344 90.156)"><g transform="translate(0 0.074)"><path class="f" d="M4285.787,1511.4h-7.017v-11.271h19.636v51.77h-12.619Z" transform="translate(-4278.77 -1500.127)"/></g><g transform="translate(27.147)"><path class="f" d="M4332.82,1500.071v10.64H4310.7v9.786a12.97,12.97,0,0,1,9.5-3.546c11.271,0,15.595,8.581,15.595,16.948,0,10.922-6.38,18.013-17.863,18.013-11.626,0-18.361-6.453-18.781-15.387h11.837a6.129,6.129,0,0,0,6.527,5.105c4.606,0,6.592-3.33,6.592-7.8,0-4.681-2.339-7.162-6.66-7.162a5.729,5.729,0,0,0-6.028,4.254h-11.7v-30.85Z" transform="translate(-4299.151 -1500.071)"/></g></g><g transform="translate(128.808 89.998)"><path class="f" d="M4333.417,1499.964a4.033,4.033,0,1,1-3.981,4.083v-.052a3.708,3.708,0,0,1,3.983-4.031Zm-1.169,4.031c0,1.123.431,1.624,1.146,1.624s1.169-.5,1.169-1.624c0-1.144-.455-1.645-1.169-1.645s-1.147.5-1.147,1.645Zm9.449-3.768h3.928l-9.184,16.8h-3.936Zm3.053,8.995a4.033,4.033,0,1,1-3.958,4.107v-.073a3.7,3.7,0,0,1,3.344-4.028A3.665,3.665,0,0,1,4344.75,1509.221Zm-1.169,4.033c0,1.119.43,1.622,1.145,1.622s1.168-.5,1.168-1.622-.455-1.646-1.168-1.646-1.147.523-1.147,1.646Z" transform="translate(-4329.419 -1499.953)"/></g><g transform="translate(128.075 113.616)"><g transform="translate(0 0.078)"><path class="f" d="M4333.89,1520.542a2.7,2.7,0,0,1-2.594,2.8,2.591,2.591,0,0,1-.337-.007h-2.091v-5.586h2.091a2.7,2.7,0,0,1,2.923,2.455A2.384,2.384,0,0,1,4333.89,1520.542Zm-3.015,1.617a1.622,1.622,0,1,0,0-3.245h-.642v3.241Z" transform="translate(-4328.868 -1517.742)"/></g><g transform="translate(5.627)"><path class="f" d="M4335.272,1523.41c-1.2,0-2.14-.6-2.179-1.732h1.449a.641.641,0,0,0,.641.637h.049c.4,0,.651-.2.651-.526,0-1.035-2.8-.477-2.774-2.459,0-1.058.867-1.647,2.036-1.647,1.218,0,2.036.606,2.092,1.666h-1.465a.606.606,0,0,0-.631-.581h-.013a.5.5,0,0,0-.567.41.462.462,0,0,0,0,.1c0,.971,2.758.533,2.758,2.4a1.8,1.8,0,0,1-1.842,1.752A1.751,1.751,0,0,1,4335.272,1523.41Z" transform="translate(-4333.093 -1517.684)"/></g><g transform="translate(10.415 0.019)"><path class="f" d="M4339.528,1517.7a2.589,2.589,0,0,1,2.647,1.957h-1.494a1.227,1.227,0,0,0-1.168-.717,1.621,1.621,0,0,0,0,3.214,1.233,1.233,0,0,0,1.169-.715h1.5a2.585,2.585,0,0,1-2.647,1.948,2.844,2.844,0,0,1,0-5.687h0Z" transform="translate(-4336.687 -1517.698)"/></g><g transform="translate(16.432 0.089)"><path class="f" d="M4341.206,1517.751h4.318v1.088h-1.479v4.5h-1.36v-4.5H4341.2Z" transform="translate(-4341.205 -1517.751)"/></g><g transform="translate(21.211 0.005)"><path class="f" d="M4347.657,1523.408a2.86,2.86,0,1,1,2.854-2.865h0a2.809,2.809,0,0,1-2.751,2.864h-.1Zm0-1.241a1.466,1.466,0,0,0,1.48-1.443h0a1.591,1.591,0,0,0-.01-.181,1.481,1.481,0,1,0-1.466,1.624Z" transform="translate(-4344.792 -1517.688)"/></g></g><path class="b" d="M4264.171,1611.184a21.034,21.034,0,0,1-14.908-5.841,14.283,14.283,0,0,1-4.369-11.579l12.417-124.855c.835-8.393,9.1-14.741,19.218-14.768v-.9c-10.63.028-19.314,6.727-20.191,15.584l-12.413,124.858a15.141,15.141,0,0,0,4.622,12.269,22.063,22.063,0,0,0,15.633,6.127h235.314v-.9Z" transform="translate(-4229.013 -1425.463)"/><g transform="translate(252.813 26.924)"><path class="b" d="M4539.245,1465.65c-2.618-7.225-10-12.069-18.381-12.069h-.061l-98.287.277v-.98l98.287-.277c8.818,0,16.606,5.084,19.371,12.715Z" transform="translate(-4422.516 -1452.6)"/></g><g transform="translate(71.158 178.656)"><circle class="d" cx="7.964" cy="7.964" r="7.964"/><g class="g" transform="translate(8.838 2.735)"><g class="h"><rect class="d" width="5.945" height="5.945"/><g transform="translate(0.472 0.472)"><circle class="d" cx="2.5" cy="2.5" r="2.5"/></g><g transform="translate(0.488 0.489)"><circle class="i" cx="2.484" cy="2.484" r="2.484"/></g><g transform="translate(0.506 0.506)"><circle class="j" cx="2.467" cy="2.467" r="2.467"/></g><g transform="translate(0.523 0.523)"><circle class="k" cx="2.45" cy="2.45" r="2.45"/></g><g transform="translate(0.54 0.541)"><circle class="l" cx="2.432" cy="2.432" r="2.432"/></g><g transform="translate(0.558 0.558)"><circle class="m" cx="2.415" cy="2.415" r="2.415"/></g><g transform="translate(0.574 0.574)"><circle class="n" cx="2.398" cy="2.398" r="2.398"/></g><g transform="translate(0.591 0.591)"><circle class="o" cx="2.38" cy="2.38" r="2.38"/></g><g transform="translate(0.609 0.609)"><circle class="p" cx="2.364" cy="2.364" r="2.364"/></g><g transform="translate(0.626 0.626)"><circle class="q" cx="2.347" cy="2.347" r="2.347"/></g><g transform="translate(0.643 0.643)"><circle class="r" cx="2.33" cy="2.33" r="2.33"/></g><g transform="translate(0.66 0.661)"><circle class="s" cx="2.312" cy="2.312" r="2.312"/></g><g transform="translate(0.678 0.678)"><circle class="t" cx="2.295" cy="2.295" r="2.295"/></g><g transform="translate(0.694 0.694)"><circle class="u" cx="2.278" cy="2.278" r="2.278"/></g><g transform="translate(0.711 0.711)"><circle class="v" cx="2.26" cy="2.26" r="2.26"/></g><g transform="translate(0.728 0.729)"><circle class="w" cx="2.244" cy="2.244" r="2.244"/></g><g transform="translate(0.746 0.746)"><circle class="x" cx="2.227" cy="2.227" r="2.227"/></g><g transform="translate(0.763 0.763)"><circle class="y" cx="2.21" cy="2.21" r="2.21"/></g><g transform="translate(0.78 0.78)"><circle class="z" cx="2.192" cy="2.192" r="2.192"/></g><g transform="translate(0.797 0.798)"><circle class="aa" cx="2.175" cy="2.175" r="2.175"/></g><g transform="translate(0.814 0.814)"><circle class="ab" cx="2.158" cy="2.158" r="2.158"/></g><g transform="translate(0.831 0.831)"><circle class="ac" cx="2.141" cy="2.141" r="2.141"/></g><g transform="translate(0.848 0.848)"><circle class="ad" cx="2.125" cy="2.125" r="2.125"/></g><g transform="translate(0.866 0.866)"><circle class="ae" cx="2.107" cy="2.107" r="2.107"/></g><g transform="translate(0.883 0.883)"><circle class="af" cx="2.09" cy="2.09" r="2.09"/></g><g transform="translate(0.9 0.9)"><circle class="ag" cx="2.073" cy="2.073" r="2.073"/></g><g transform="translate(0.918 0.918)"><circle class="ah" cx="2.055" cy="2.055" r="2.055"/></g><g transform="translate(0.933 0.934)"><circle class="ai" cx="2.038" cy="2.038" r="2.038"/></g><g transform="translate(0.951 0.951)"><circle class="aj" cx="2.021" cy="2.021" r="2.021"/></g><g transform="translate(0.968 0.968)"><circle class="ak" cx="2.005" cy="2.005" r="2.005"/></g><g transform="translate(0.985 0.986)"><circle class="al" cx="1.987" cy="1.987" r="1.987"/></g><g transform="translate(1.003 1.003)"><circle class="am" cx="1.97" cy="1.97" r="1.97"/></g><g transform="translate(1.02 1.02)"><circle class="an" cx="1.953" cy="1.953" r="1.953"/></g><g transform="translate(1.037 1.038)"><circle class="ao" cx="1.935" cy="1.935" r="1.935"/></g><g transform="translate(1.054 1.054)"><circle class="ap" cx="1.918" cy="1.918" r="1.918"/></g><g transform="translate(1.071 1.071)"><circle class="aq" cx="1.901" cy="1.901" r="1.901"/></g><g transform="translate(1.088 1.088)"><circle class="ar" cx="1.885" cy="1.885" r="1.885"/></g><g transform="translate(1.105 1.106)"><circle class="as" cx="1.867" cy="1.867" r="1.867"/></g><g transform="translate(1.123 1.123)"><circle class="at" cx="1.85" cy="1.85" r="1.85"/></g><g transform="translate(1.14 1.14)"><circle class="au" cx="1.833" cy="1.833" r="1.833"/></g><g transform="translate(1.157 1.158)"><circle class="av" cx="1.816" cy="1.816" r="1.816"/></g><g transform="translate(1.173 1.173)"><circle class="aw" cx="1.798" cy="1.798" r="1.798"/></g><g transform="translate(1.191 1.191)"><circle class="ax" cx="1.781" cy="1.781" r="1.781"/></g><g transform="translate(1.208 1.208)"><circle class="ay" cx="1.765" cy="1.765" r="1.765"/></g><g transform="translate(1.225 1.225)"><circle class="az" cx="1.748" cy="1.748" r="1.748"/></g><g transform="translate(1.242 1.243)"><circle class="ba" cx="1.73" cy="1.73" r="1.73"/></g><g transform="translate(1.26 1.26)"><circle class="bb" cx="1.713" cy="1.713" r="1.713"/></g><g transform="translate(1.277 1.277)"><circle class="bc" cx="1.696" cy="1.696" r="1.696"/></g><g transform="translate(1.293 1.293)"><circle class="bd" cx="1.678" cy="1.678" r="1.678"/></g><g transform="translate(1.311 1.311)"><circle class="be" cx="1.661" cy="1.661" r="1.661"/></g><g transform="translate(1.327 1.328)"><circle class="bf" cx="1.644" cy="1.644" r="1.644"/></g><g transform="translate(1.345 1.345)"><circle class="bg" cx="1.628" cy="1.628" r="1.628"/></g><g transform="translate(1.363 1.363)"><circle class="bh" cx="1.61" cy="1.61" r="1.61"/></g><g transform="translate(1.379 1.38)"><circle class="bi" cx="1.593" cy="1.593" r="1.593"/></g><g transform="translate(1.397 1.397)"><circle class="bj" cx="1.576" cy="1.576" r="1.576"/></g><g transform="translate(1.413 1.413)"><circle class="bk" cx="1.558" cy="1.558" r="1.558"/></g><g transform="translate(1.43 1.431)"><circle class="bl" cx="1.541" cy="1.541" r="1.541"/></g><g transform="translate(1.448 1.448)"><circle class="bm" cx="1.524" cy="1.524" r="1.524"/></g><g transform="translate(1.465 1.465)"><circle class="bn" cx="1.508" cy="1.508" r="1.508"/></g><g transform="translate(1.482 1.482)"><circle class="bo" cx="1.491" cy="1.491" r="1.491"/></g><g transform="translate(1.5 1.5)"><circle class="bp" cx="1.473" cy="1.473" r="1.473"/></g><g transform="translate(1.517 1.517)"><circle class="bq" cx="1.456" cy="1.456" r="1.456"/></g><g transform="translate(1.533 1.533)"><circle class="br" cx="1.439" cy="1.439" r="1.439"/></g><g transform="translate(1.551 1.55)"><circle class="bs" cx="1.421" cy="1.421" r="1.421"/></g><g transform="translate(1.567 1.568)"><circle class="bt" cx="1.404" cy="1.404" r="1.404"/></g><g transform="translate(1.585 1.585)"><circle class="bu" cx="1.388" cy="1.388" r="1.388"/></g><g transform="translate(1.602 1.602)"><circle class="bv" cx="1.371" cy="1.371" r="1.371"/></g><g transform="translate(1.619 1.62)"><circle class="bw" cx="1.353" cy="1.353" r="1.353"/></g><g transform="translate(1.637 1.637)"><circle class="bx" cx="1.336" cy="1.336" r="1.336"/></g><g transform="translate(1.653 1.653)"><circle class="by" cx="1.319" cy="1.319" r="1.319"/></g><g transform="translate(1.67 1.67)"><circle class="bz" cx="1.301" cy="1.301" r="1.301"/></g><g transform="translate(1.687 1.688)"><circle class="ca" cx="1.284" cy="1.284" r="1.284"/></g><g transform="translate(1.705 1.705)"><circle class="cb" cx="1.268" cy="1.268" r="1.268"/></g><g transform="translate(1.722 1.722)"><circle class="cc" cx="1.251" cy="1.251" r="1.251"/></g><g transform="translate(1.739 1.739)"><circle class="cd" cx="1.233" cy="1.233" r="1.233"/></g><g transform="translate(1.757 1.757)"><circle class="ce" cx="1.216" cy="1.216" r="1.216"/></g><g transform="translate(1.774 1.774)"><circle class="cf" cx="1.199" cy="1.199" r="1.199"/></g><g transform="translate(1.79 1.79)"><circle class="cg" cx="1.181" cy="1.181" r="1.181"/></g><g transform="translate(1.807 1.807)"><circle class="ch" cx="1.164" cy="1.164" r="1.164"/></g><g transform="translate(1.824 1.825)"><circle class="ci" cx="1.148" cy="1.148" r="1.148"/></g><g transform="translate(1.842 1.842)"><circle class="cj" cx="1.131" cy="1.131" r="1.131"/></g><g transform="translate(1.859 1.859)"><circle class="ck" cx="1.114" cy="1.114" r="1.114"/></g><g transform="translate(1.876 1.877)"><circle class="cl" cx="1.096" cy="1.096" r="1.096"/></g><g transform="translate(1.894 1.894)"><circle class="cm" cx="1.079" cy="1.079" r="1.079"/></g><g transform="translate(1.91 1.91)"><circle class="cn" cx="1.062" cy="1.062" r="1.062"/></g><g transform="translate(1.927 1.927)"><circle class="co" cx="1.044" cy="1.044" r="1.044"/></g><g transform="translate(1.945 1.945)"><circle class="cp" cx="1.028" cy="1.028" r="1.028"/></g><g transform="translate(1.962 1.962)"><circle class="cq" cx="1.011" cy="1.011" r="1.011"/></g><g transform="translate(1.979 1.979)"><circle class="cr" cx="0.994" cy="0.994" r="0.994"/></g><g transform="translate(1.997 1.997)"><circle class="cs" cx="0.976" cy="0.976" r="0.976"/></g><g transform="translate(2.014 2.014)"><circle class="ct" cx="0.959" cy="0.959" r="0.959"/></g><g transform="translate(2.03 2.03)"><circle class="cu" cx="0.942" cy="0.942" r="0.942"/></g><g transform="translate(2.047 2.047)"><circle class="cv" cx="0.924" cy="0.924" r="0.924"/></g><g transform="translate(2.064 2.065)"><circle class="cw" cx="0.908" cy="0.908" r="0.908"/></g><g transform="translate(2.082 2.082)"><circle class="cx" cx="0.891" cy="0.891" r="0.891"/></g><g transform="translate(2.099 2.099)"><circle class="cy" cx="0.874" cy="0.874" r="0.874"/></g><g transform="translate(2.116 2.117)"><circle class="cz" cx="0.856" cy="0.856" r="0.856"/></g><g transform="translate(2.134 2.134)"><circle class="da" cx="0.839" cy="0.839" r="0.839"/></g><g transform="translate(2.15 2.15)"><circle class="db" cx="0.822" cy="0.822" r="0.822"/></g><g transform="translate(2.167 2.167)"><circle class="dc" cx="0.805" cy="0.805" r="0.805"/></g><g transform="translate(2.184 2.185)"><circle class="dd" cx="0.789" cy="0.789" r="0.789"/></g><g transform="translate(2.202 2.202)"><circle class="de" cx="0.771" cy="0.771" r="0.771"/></g><g transform="translate(2.219 2.219)"><circle class="df" cx="0.754" cy="0.754" r="0.754"/></g><g transform="translate(2.236 2.236)"><circle class="dg" cx="0.737" cy="0.737" r="0.737"/></g><g transform="translate(2.254 2.254)"><circle class="dh" cx="0.719" cy="0.719" r="0.719"/></g><g transform="translate(2.269 2.27)"><circle class="di" cx="0.702" cy="0.702" r="0.702"/></g><g transform="translate(2.287 2.287)"><circle class="dj" cx="0.685" cy="0.685" r="0.685"/></g><g transform="translate(2.304 2.304)"><circle class="dk" cx="0.669" cy="0.669" r="0.669"/></g><g transform="translate(2.321 2.322)"><circle class="dl" cx="0.651" cy="0.651" r="0.651"/></g><g transform="translate(2.339 2.339)"><circle class="dm" cx="0.634" cy="0.634" r="0.634"/></g><g transform="translate(2.356 2.356)"><circle class="dn" cx="0.617" cy="0.617" r="0.617"/></g><g transform="translate(2.373 2.374)"><circle class="do" cx="0.599" cy="0.599" r="0.599"/></g><g transform="translate(2.39 2.391)"><circle class="dp" cx="0.582" cy="0.582" r="0.582"/></g><g transform="translate(2.406 2.407)"><circle class="dq" cx="0.565" cy="0.565" r="0.565"/></g><g transform="translate(2.424 2.424)"><circle class="dr" cx="0.547" cy="0.547" r="0.547"/></g><g transform="translate(2.442 2.442)"><circle class="ds" cx="0.531" cy="0.531" r="0.531"/></g><g transform="translate(2.458 2.459)"><circle class="dt" cx="0.514" cy="0.514" r="0.514"/></g><g transform="translate(2.476 2.476)"><circle class="du" cx="0.497" cy="0.497" r="0.497"/></g><g transform="translate(2.493 2.493)"><circle class="dv" cx="0.48" cy="0.48" r="0.48"/></g><g transform="translate(2.509 2.511)"><circle class="dw" cx="0.462" cy="0.462" r="0.462"/></g><g transform="translate(2.527 2.527)"><circle class="dx" cx="0.445" cy="0.445" r="0.445"/></g><g transform="translate(2.544 2.544)"><circle class="dy" cx="0.428" cy="0.428" r="0.428"/></g><g transform="translate(2.561 2.561)"><circle class="dz" cx="0.412" cy="0.412" r="0.412"/></g><g transform="translate(2.579 2.579)"><circle class="ea" cx="0.394" cy="0.394" r="0.394"/></g><g transform="translate(2.596 2.596)"><circle class="eb" cx="0.377" cy="0.377" r="0.377"/></g><g transform="translate(2.613 2.613)"><circle class="ec" cx="0.36" cy="0.36" r="0.36"/></g><g transform="translate(2.629 2.631)"><circle class="ed" cx="0.342" cy="0.342" r="0.342"/></g><g transform="translate(2.646 2.647)"><circle class="ee" cx="0.325" cy="0.325" r="0.325"/></g><g transform="translate(2.664 2.664)"><circle class="ef" cx="0.308" cy="0.308" r="0.308"/></g><g transform="translate(2.681 2.681)"><circle class="eg" cx="0.292" cy="0.292" r="0.292"/></g><g transform="translate(2.698 2.699)"><circle class="eh" cx="0.274" cy="0.274" r="0.274"/></g><g transform="translate(2.716 2.716)"><circle class="ei" cx="0.257" cy="0.257" r="0.257"/></g><g transform="translate(2.733 2.733)"><circle class="ej" cx="0.24" cy="0.24" r="0.24"/></g><g transform="translate(2.751 2.751)"><circle class="ek" cx="0.222" cy="0.222" r="0.222"/></g><g transform="translate(2.766 2.767)"><circle class="el" cx="0.205" cy="0.205" r="0.205"/></g><g transform="translate(2.784 2.784)"><circle class="em" cx="0.188" cy="0.188" r="0.188"/></g><g transform="translate(2.801 2.801)"><circle class="en" cx="0.172" cy="0.172" r="0.172"/></g><g transform="translate(2.818 2.818)"><circle class="eo" cx="0.155" cy="0.155" r="0.155"/></g><g transform="translate(2.836 2.836)"><circle class="ep" cx="0.137" cy="0.137" r="0.137"/></g><g transform="translate(2.853 2.853)"><circle class="eq" cx="0.12" cy="0.12" r="0.12"/></g><g transform="translate(2.87 2.871)"><circle class="er" cx="0.103" cy="0.103" r="0.103"/></g><g transform="translate(2.886 2.886)"><circle class="es" cx="0.085" cy="0.085" r="0.085"/></g><g transform="translate(2.903 2.904)"><circle class="et" cx="0.068" cy="0.068" r="0.068"/></g><g transform="translate(2.921 2.921)"><circle class="eu" cx="0.052" cy="0.052" r="0.052"/></g><g transform="translate(2.938 2.938)"><circle class="ev" cx="0.035" cy="0.035" r="0.035"/></g><g transform="translate(2.955 2.956)"><circle class="ew" cx="0.017" cy="0.017" r="0.017"/></g></g></g><g class="g" transform="translate(0.206 4.945)"><g class="h"><g transform="translate(0.001 0.001)"><rect class="d" width="5.945" height="5.945"/><g transform="translate(0.472 0.472)"><circle class="d" cx="2.5" cy="2.5" r="2.5"/></g><g transform="translate(0.488 0.489)"><circle class="i" cx="2.484" cy="2.484" r="2.484"/></g><g transform="translate(0.506 0.506)"><circle class="j" cx="2.467" cy="2.467" r="2.467"/></g><g transform="translate(0.523 0.524)"><circle class="k" cx="2.45" cy="2.45" r="2.45"/></g><g transform="translate(0.539 0.541)"><circle class="l" cx="2.432" cy="2.432" r="2.432"/></g><g transform="translate(0.557 0.557)"><circle class="m" cx="2.415" cy="2.415" r="2.415"/></g><g transform="translate(0.574 0.574)"><circle class="n" cx="2.398" cy="2.398" r="2.398"/></g><g transform="translate(0.591 0.592)"><circle class="o" cx="2.38" cy="2.38" r="2.38"/></g><g transform="translate(0.609 0.609)"><circle class="p" cx="2.364" cy="2.364" r="2.364"/></g><g transform="translate(0.626 0.626)"><circle class="q" cx="2.347" cy="2.347" r="2.347"/></g><g transform="translate(0.643 0.643)"><circle class="r" cx="2.33" cy="2.33" r="2.33"/></g><g transform="translate(0.659 0.661)"><circle class="s" cx="2.312" cy="2.312" r="2.312"/></g><g transform="translate(0.676 0.677)"><circle class="t" cx="2.295" cy="2.295" r="2.295"/></g><g transform="translate(0.694 0.694)"><circle class="u" cx="2.278" cy="2.278" r="2.278"/></g><g transform="translate(0.711 0.711)"><circle class="v" cx="2.26" cy="2.26" r="2.26"/></g><g transform="translate(0.728 0.729)"><circle class="w" cx="2.244" cy="2.244" r="2.244"/></g><g transform="translate(0.745 0.746)"><circle class="x" cx="2.227" cy="2.227" r="2.227"/></g><g transform="translate(0.763 0.763)"><circle class="y" cx="2.21" cy="2.21" r="2.21"/></g><g transform="translate(0.779 0.781)"><circle class="z" cx="2.192" cy="2.192" r="2.192"/></g><g transform="translate(0.796 0.797)"><circle class="aa" cx="2.175" cy="2.175" r="2.175"/></g><g transform="translate(0.814 0.814)"><circle class="ab" cx="2.158" cy="2.158" r="2.158"/></g><g transform="translate(0.831 0.831)"><circle class="ac" cx="2.141" cy="2.141" r="2.141"/></g><g transform="translate(0.848 0.849)"><circle class="ad" cx="2.125" cy="2.125" r="2.125"/></g><g transform="translate(0.866 0.866)"><circle class="ae" cx="2.107" cy="2.107" r="2.107"/></g><g transform="translate(0.883 0.883)"><circle class="af" cx="2.09" cy="2.09" r="2.09"/></g><g transform="translate(0.899 0.9)"><circle class="ag" cx="2.073" cy="2.073" r="2.073"/></g><g transform="translate(0.916 0.917)"><circle class="ah" cx="2.055" cy="2.055" r="2.055"/></g><g transform="translate(0.933 0.934)"><circle class="ai" cx="2.038" cy="2.038" r="2.038"/></g><g transform="translate(0.951 0.951)"><circle class="aj" cx="2.021" cy="2.021" r="2.021"/></g><g transform="translate(0.968 0.968)"><circle class="ak" cx="2.005" cy="2.005" r="2.005"/></g><g transform="translate(0.985 0.986)"><circle class="al" cx="1.987" cy="1.987" r="1.987"/></g><g transform="translate(1.003 1.003)"><circle class="am" cx="1.97" cy="1.97" r="1.97"/></g><g transform="translate(1.02 1.02)"><circle class="an" cx="1.953" cy="1.953" r="1.953"/></g><g transform="translate(1.036 1.036)"><circle class="ao" cx="1.935" cy="1.935" r="1.935"/></g><g transform="translate(1.054 1.054)"><circle class="ap" cx="1.918" cy="1.918" r="1.918"/></g><g transform="translate(1.071 1.071)"><circle class="aq" cx="1.901" cy="1.901" r="1.901"/></g><g transform="translate(1.088 1.088)"><circle class="ar" cx="1.885" cy="1.885" r="1.885"/></g><g transform="translate(1.105 1.106)"><circle class="as" cx="1.867" cy="1.867" r="1.867"/></g><g transform="translate(1.123 1.123)"><circle class="at" cx="1.85" cy="1.85" r="1.85"/></g><g transform="translate(1.14 1.14)"><circle class="au" cx="1.833" cy="1.833" r="1.833"/></g><g transform="translate(1.156 1.156)"><circle class="av" cx="1.816" cy="1.816" r="1.816"/></g><g transform="translate(1.173 1.174)"><circle class="aw" cx="1.798" cy="1.798" r="1.798"/></g><g transform="translate(1.191 1.191)"><circle class="ax" cx="1.781" cy="1.781" r="1.781"/></g><g transform="translate(1.208 1.208)"><circle class="ay" cx="1.765" cy="1.765" r="1.765"/></g><g transform="translate(1.225 1.226)"><circle class="az" cx="1.748" cy="1.748" r="1.748"/></g><g transform="translate(1.242 1.243)"><circle class="ba" cx="1.73" cy="1.73" r="1.73"/></g><g transform="translate(1.26 1.26)"><circle class="bb" cx="1.713" cy="1.713" r="1.713"/></g><g transform="translate(1.276 1.276)"><circle class="bc" cx="1.696" cy="1.696" r="1.696"/></g><g transform="translate(1.293 1.293)"><circle class="bd" cx="1.678" cy="1.678" r="1.678"/></g><g transform="translate(1.311 1.311)"><circle class="be" cx="1.661" cy="1.661" r="1.661"/></g><g transform="translate(1.327 1.328)"><circle class="bf" cx="1.644" cy="1.644" r="1.644"/></g><g transform="translate(1.345 1.345)"><circle class="bg" cx="1.628" cy="1.628" r="1.628"/></g><g transform="translate(1.363 1.363)"><circle class="bh" cx="1.61" cy="1.61" r="1.61"/></g><g transform="translate(1.379 1.38)"><circle class="bi" cx="1.593" cy="1.593" r="1.593"/></g><g transform="translate(1.396 1.396)"><circle class="bj" cx="1.576" cy="1.576" r="1.576"/></g><g transform="translate(1.413 1.413)"><circle class="bk" cx="1.558" cy="1.558" r="1.558"/></g><g transform="translate(1.43 1.431)"><circle class="bl" cx="1.541" cy="1.541" r="1.541"/></g><g transform="translate(1.448 1.448)"><circle class="bm" cx="1.524" cy="1.524" r="1.524"/></g><g transform="translate(1.465 1.465)"><circle class="bn" cx="1.508" cy="1.508" r="1.508"/></g><g transform="translate(1.482 1.483)"><circle class="bo" cx="1.491" cy="1.491" r="1.491"/></g><g transform="translate(1.5 1.5)"><circle class="bp" cx="1.473" cy="1.473" r="1.473"/></g><g transform="translate(1.515 1.516)"><circle class="bq" cx="1.456" cy="1.456" r="1.456"/></g><g transform="translate(1.533 1.533)"><circle class="br" cx="1.439" cy="1.439" r="1.439"/></g><g transform="translate(1.55 1.551)"><circle class="bs" cx="1.421" cy="1.421" r="1.421"/></g><g transform="translate(1.567 1.568)"><circle class="bt" cx="1.404" cy="1.404" r="1.404"/></g><g transform="translate(1.585 1.585)"><circle class="bu" cx="1.388" cy="1.388" r="1.388"/></g><g transform="translate(1.602 1.602)"><circle class="bv" cx="1.371" cy="1.371" r="1.371"/></g><g transform="translate(1.619 1.62)"><circle class="bw" cx="1.353" cy="1.353" r="1.353"/></g><g transform="translate(1.636 1.636)"><circle class="bx" cx="1.336" cy="1.336" r="1.336"/></g><g transform="translate(1.653 1.653)"><circle class="by" cx="1.319" cy="1.319" r="1.319"/></g><g transform="translate(1.67 1.67)"><circle class="bz" cx="1.301" cy="1.301" r="1.301"/></g><g transform="translate(1.687 1.688)"><circle class="ca" cx="1.284" cy="1.284" r="1.284"/></g><g transform="translate(1.705 1.705)"><circle class="cb" cx="1.268" cy="1.268" r="1.268"/></g><g transform="translate(1.722 1.722)"><circle class="cc" cx="1.251" cy="1.251" r="1.251"/></g><g transform="translate(1.739 1.74)"><circle class="cd" cx="1.233" cy="1.233" r="1.233"/></g><g transform="translate(1.755 1.757)"><circle class="ce" cx="1.216" cy="1.216" r="1.216"/></g><g transform="translate(1.772 1.773)"><circle class="cf" cx="1.199" cy="1.199" r="1.199"/></g><g transform="translate(1.79 1.79)"><circle class="cg" cx="1.181" cy="1.181" r="1.181"/></g><g transform="translate(1.807 1.808)"><circle class="ch" cx="1.164" cy="1.164" r="1.164"/></g><g transform="translate(1.824 1.825)"><circle class="ci" cx="1.148" cy="1.148" r="1.148"/></g><g transform="translate(1.842 1.842)"><circle class="cj" cx="1.131" cy="1.131" r="1.131"/></g><g transform="translate(1.859 1.859)"><circle class="ck" cx="1.114" cy="1.114" r="1.114"/></g><g transform="translate(1.875 1.877)"><circle class="cl" cx="1.096" cy="1.096" r="1.096"/></g><g transform="translate(1.893 1.893)"><circle class="cm" cx="1.079" cy="1.079" r="1.079"/></g><g transform="translate(1.91 1.91)"><circle class="cn" cx="1.062" cy="1.062" r="1.062"/></g><g transform="translate(1.927 1.927)"><circle class="co" cx="1.044" cy="1.044" r="1.044"/></g><g transform="translate(1.945 1.945)"><circle class="cp" cx="1.028" cy="1.028" r="1.028"/></g><g transform="translate(1.962 1.962)"><circle class="cq" cx="1.011" cy="1.011" r="1.011"/></g><g transform="translate(1.979 1.979)"><circle class="cr" cx="0.994" cy="0.994" r="0.994"/></g><g transform="translate(1.995 1.997)"><circle class="cs" cx="0.976" cy="0.976" r="0.976"/></g><g transform="translate(2.012 2.013)"><circle class="ct" cx="0.959" cy="0.959" r="0.959"/></g><g transform="translate(2.03 2.03)"><circle class="cu" cx="0.942" cy="0.942" r="0.942"/></g><g transform="translate(2.047 2.047)"><circle class="cv" cx="0.924" cy="0.924" r="0.924"/></g><g transform="translate(2.064 2.065)"><circle class="cw" cx="0.908" cy="0.908" r="0.908"/></g><g transform="translate(2.082 2.082)"><circle class="cx" cx="0.891" cy="0.891" r="0.891"/></g><g transform="translate(2.099 2.099)"><circle class="cy" cx="0.874" cy="0.874" r="0.874"/></g><g transform="translate(2.115 2.117)"><circle class="cz" cx="0.856" cy="0.856" r="0.856"/></g><g transform="translate(2.132 2.133)"><circle class="da" cx="0.839" cy="0.839" r="0.839"/></g><g transform="translate(2.15 2.15)"><circle class="db" cx="0.822" cy="0.822" r="0.822"/></g><g transform="translate(2.167 2.167)"><circle class="dc" cx="0.805" cy="0.805" r="0.805"/></g><g transform="translate(2.184 2.185)"><circle class="dd" cx="0.789" cy="0.789" r="0.789"/></g><g transform="translate(2.202 2.202)"><circle class="de" cx="0.771" cy="0.771" r="0.771"/></g><g transform="translate(2.219 2.219)"><circle class="df" cx="0.754" cy="0.754" r="0.754"/></g><g transform="translate(2.236 2.237)"><circle class="dg" cx="0.737" cy="0.737" r="0.737"/></g><g transform="translate(2.252 2.252)"><circle class="dh" cx="0.719" cy="0.719" r="0.719"/></g><g transform="translate(2.269 2.27)"><circle class="di" cx="0.702" cy="0.702" r="0.702"/></g><g transform="translate(2.287 2.287)"><circle class="dj" cx="0.685" cy="0.685" r="0.685"/></g><g transform="translate(2.304 2.305)"><circle class="dk" cx="0.669" cy="0.669" r="0.669"/></g><g transform="translate(2.321 2.322)"><circle class="dl" cx="0.651" cy="0.651" r="0.651"/></g><g transform="translate(2.339 2.339)"><circle class="dm" cx="0.634" cy="0.634" r="0.634"/></g><g transform="translate(2.356 2.356)"><circle class="dn" cx="0.617" cy="0.617" r="0.617"/></g><g transform="translate(2.372 2.372)"><circle class="do" cx="0.599" cy="0.599" r="0.599"/></g><g transform="translate(2.39 2.39)"><circle class="dp" cx="0.582" cy="0.582" r="0.582"/></g><g transform="translate(2.406 2.407)"><circle class="dq" cx="0.565" cy="0.565" r="0.565"/></g><g transform="translate(2.424 2.424)"><circle class="dr" cx="0.547" cy="0.547" r="0.547"/></g><g transform="translate(2.442 2.442)"><circle class="ds" cx="0.531" cy="0.531" r="0.531"/></g><g transform="translate(2.458 2.459)"><circle class="dt" cx="0.514" cy="0.514" r="0.514"/></g><g transform="translate(2.476 2.476)"><circle class="du" cx="0.497" cy="0.497" r="0.497"/></g><g transform="translate(2.492 2.492)"><circle class="dv" cx="0.48" cy="0.48" r="0.48"/></g><g transform="translate(2.509 2.51)"><circle class="dw" cx="0.462" cy="0.462" r="0.462"/></g><g transform="translate(2.527 2.527)"><circle class="dx" cx="0.445" cy="0.445" r="0.445"/></g><g transform="translate(2.544 2.544)"><circle class="dy" cx="0.428" cy="0.428" r="0.428"/></g><g transform="translate(2.561 2.562)"><circle class="dz" cx="0.412" cy="0.412" r="0.412"/></g><g transform="translate(2.579 2.579)"><circle class="ea" cx="0.394" cy="0.394" r="0.394"/></g><g transform="translate(2.596 2.596)"><circle class="eb" cx="0.377" cy="0.377" r="0.377"/></g><g transform="translate(2.612 2.612)"><circle class="ec" cx="0.36" cy="0.36" r="0.36"/></g><g transform="translate(2.629 2.629)"><circle class="ed" cx="0.342" cy="0.342" r="0.342"/></g><g transform="translate(2.646 2.647)"><circle class="ee" cx="0.325" cy="0.325" r="0.325"/></g><g transform="translate(2.664 2.664)"><circle class="ef" cx="0.308" cy="0.308" r="0.308"/></g><g transform="translate(2.681 2.681)"><circle class="eg" cx="0.292" cy="0.292" r="0.292"/></g><g transform="translate(2.698 2.699)"><circle class="eh" cx="0.274" cy="0.274" r="0.274"/></g><g transform="translate(2.715 2.716)"><circle class="ei" cx="0.257" cy="0.257" r="0.257"/></g><g transform="translate(2.732 2.732)"><circle class="ej" cx="0.24" cy="0.24" r="0.24"/></g><g transform="translate(2.749 2.749)"><circle class="ek" cx="0.222" cy="0.222" r="0.222"/></g><g transform="translate(2.766 2.767)"><circle class="el" cx="0.205" cy="0.205" r="0.205"/></g><g transform="translate(2.784 2.784)"><circle class="em" cx="0.188" cy="0.188" r="0.188"/></g><g transform="translate(2.801 2.801)"><circle class="en" cx="0.172" cy="0.172" r="0.172"/></g><g transform="translate(2.818 2.819)"><circle class="eo" cx="0.155" cy="0.155" r="0.155"/></g><g transform="translate(2.836 2.836)"><circle class="ep" cx="0.137" cy="0.137" r="0.137"/></g><g transform="translate(2.851 2.852)"><circle class="eq" cx="0.12" cy="0.12" r="0.12"/></g><g transform="translate(2.869 2.869)"><circle class="er" cx="0.103" cy="0.103" r="0.103"/></g><g transform="translate(2.886 2.887)"><circle class="es" cx="0.085" cy="0.085" r="0.085"/></g><g transform="translate(2.903 2.904)"><circle class="et" cx="0.068" cy="0.068" r="0.068"/></g><g transform="translate(2.921 2.921)"><circle class="eu" cx="0.052" cy="0.052" r="0.052"/></g><g transform="translate(2.938 2.938)"><circle class="ev" cx="0.035" cy="0.035" r="0.035"/></g><g transform="translate(2.955 2.956)"><circle class="ew" cx="0.017" cy="0.017" r="0.017"/></g></g></g></g><g transform="translate(7.731 1.867)"><path class="ex" d="M4292.39,1570.8a.383.383,0,0,1-.366-.277,2.044,2.044,0,0,1,3.927-1.135h0a.382.382,0,1,1-.733.212,1.28,1.28,0,0,0-2.459.711.381.381,0,0,1-.259.473.43.43,0,0,1-.108.015Z" transform="translate(-4291.943 -1567.915)"/></g><g transform="translate(1.848 3.471)"><path class="ex" d="M4287.972,1572.007a.382.382,0,0,1-.366-.276,2.044,2.044,0,1,1,3.927-1.136h0a.382.382,0,1,1-.733.212,1.28,1.28,0,0,0-2.46.712.38.38,0,0,1-.261.472h0A.42.42,0,0,1,4287.972,1572.007Z" transform="translate(-4287.525 -1569.119)"/></g><g transform="translate(4.287 6.132)"><path class="ex" d="M4292.055,1574.474a4.026,4.026,0,0,1-2.58-.924.383.383,0,0,1,.489-.586,3.263,3.263,0,0,0,2.09.749,3.161,3.161,0,0,0,3.088-2.288.382.382,0,0,1,.75.149.364.364,0,0,1-.013.049A3.926,3.926,0,0,1,4292.055,1574.474Z" transform="translate(-4289.356 -1571.117)"/></g></g></g><rect class="b" width="102.295" height="0.95" transform="translate(4393.144 1459.608)"/></g></svg>