<svg xmlns="http://www.w3.org/2000/svg" width="173.363" height="59.143" viewBox="0 0 173.363 59.143"><defs><style>.a{fill:#fff;}.b{fill:#0133a1;}</style></defs><g transform="translate(-4430.702 -1687.418)"><g transform="translate(4549.906 1687.418)"><path class="a" d="M4663.384,1699.738h-43.449c-2.952,0-5.354-2.763-5.354-6.16s2.4-6.16,5.354-6.16h43.449c2.953,0,5.355,2.764,5.355,6.16S4666.336,1699.738,4663.384,1699.738Zm-43.449-11.72c-2.665,0-4.833,2.494-4.833,5.56s2.169,5.561,4.833,5.561h43.449c2.666,0,4.834-2.495,4.834-5.561s-2.168-5.56-4.834-5.56Z" transform="translate(-4614.58 -1687.418)"/><g transform="translate(4.314 3.097)"><g transform="translate(0 0.025)"><path class="a" d="M4622.139,1697.829c-.168,0-.28-.138-.3-.345l-.6-4.8c.032-.256.2-.453.384-.453h.552c.144,0,.272.168.288.355l.383,3.084,1.265-3.084c.08-.187.255-.355.4-.355h.552c.185,0,.288.2.255.453l-1.975,4.8c-.088.207-.232.345-.4.345Z" transform="translate(-4621.235 -1692.233)"/></g><g transform="translate(3.319 0.025)"><path class="a" d="M4629.769,1697.878c-.471,0-.536-.434-.583-.759l-.073-.473h-1.175l-.352.818c-.072.2-.223.365-.384.365h-.576c-.184,0-.3-.167-.264-.4l2.047-4.847a.5.5,0,0,1,.4-.345h.671c.152,0,.264.138.3.345l.544,3.881c.023.128.032.237.056.246a.377.377,0,0,1,.136.355l-.048.326C4630.416,1697.76,4630.024,1697.878,4629.769,1697.878Zm-1.32-2.483h.488l-.112-.9Z" transform="translate(-4626.354 -1692.233)"/></g><g transform="translate(8.108 0.025)"><path class="a" d="M4634.014,1697.829c-.192,0-.3-.167-.264-.4l.68-4.788a.427.427,0,0,1,.384-.4h.52c.185,0,.3.168.264.4l-.552,3.862h1.5c.184,0,.3.167.271.394l-.072.532a.434.434,0,0,1-.384.4Z" transform="translate(-4633.741 -1692.233)"/></g><g transform="translate(11.866 0.025)"><path class="a" d="M4639.811,1697.829c-.192,0-.3-.167-.264-.4l.68-4.788a.429.429,0,0,1,.384-.4h2.456c.192,0,.3.168.256.4l-.072.542a.413.413,0,0,1-.376.394h-1.608l-.12.8h1.144c.184,0,.288.177.256.4l-.072.532a.429.429,0,0,1-.376.4h-1.144l-.112.788h1.607c.192,0,.3.167.264.394l-.072.532c-.04.237-.184.4-.376.4Z" transform="translate(-4639.538 -1692.233)"/></g><g transform="translate(19.399)"><path class="a" d="M4652.063,1697.791c-.168,0-.28-.138-.3-.345l-.6-4.8c.032-.256.2-.453.384-.453h.552c.144,0,.271.168.288.355l.384,3.084,1.263-3.084c.08-.187.255-.355.4-.355h.552c.184,0,.288.2.256.453l-1.976,4.8c-.087.207-.231.345-.4.345Z" transform="translate(-4651.159 -1692.195)"/></g><g transform="translate(23.517)"><path class="a" d="M4658.687,1697.386a.435.435,0,0,1-.384.4h-.528c-.184,0-.3-.167-.255-.4l.679-4.787c.041-.236.192-.4.376-.4h.528c.184,0,.3.168.265.4Z" transform="translate(-4657.511 -1692.195)"/></g><g transform="translate(25.692)"><path class="a" d="M4663.305,1692.195c1.1,0,1.576.591,1.384,1.941a2.283,2.283,0,0,1-.712,1.547,7.341,7.341,0,0,0,.184.985.351.351,0,0,1,.111.355l-.048.325a.632.632,0,0,1-.68.493c-.432,0-.5-.335-.568-.7l-.184-1.084h-.56l-.191,1.33c-.041.237-.185.4-.385.4h-.512c-.183,0-.312-.167-.271-.4l.68-4.787a.443.443,0,0,1,.392-.4Zm.216,1.941c.049-.365-.087-.6-.335-.6h-.592l-.176,1.192h.592C4663.266,1694.727,4663.465,1694.51,4663.521,1694.136Z" transform="translate(-4660.867 -1692.195)"/></g><g transform="translate(30.26)"><path class="a" d="M4671.117,1692.195c.184,0,.288.168.248.4l-.072.542a.412.412,0,0,1-.368.394h-.792l-.552,3.851a.434.434,0,0,1-.383.4h-.528c-.184,0-.3-.167-.256-.4l.552-3.851h-.792c-.184,0-.288-.167-.256-.394l.072-.542c.04-.236.191-.4.375-.4Z" transform="translate(-4667.912 -1692.195)"/></g><g transform="translate(34.018)"><path class="a" d="M4673.787,1695.279l.384-2.68a.442.442,0,0,1,.392-.4h.52c.184,0,.3.168.256.4l-.392,2.749c-.152,1.084.208,1.162.479,1.162s.664-.078.816-1.162l.392-2.749a.435.435,0,0,1,.384-.4h.52c.184,0,.3.168.264.4l-.384,2.68c-.312,2.207-1.064,2.561-2.175,2.561S4673.475,1697.486,4673.787,1695.279Z" transform="translate(-4673.709 -1692.195)"/></g><g transform="translate(38.03)"><path class="a" d="M4683.313,1697.84c-.472,0-.536-.434-.584-.759l-.072-.473h-1.176l-.352.817c-.072.2-.224.365-.384.365h-.576c-.184,0-.3-.167-.264-.4l2.047-4.846a.5.5,0,0,1,.4-.345h.672c.151,0,.264.138.295.345l.544,3.881c.024.128.032.237.056.246a.377.377,0,0,1,.136.355l-.048.325C4683.96,1697.722,4683.568,1697.84,4683.313,1697.84Zm-1.32-2.483h.488l-.112-.9Z" transform="translate(-4679.897 -1692.195)"/></g><g transform="translate(42.818)"><path class="a" d="M4687.557,1697.791c-.192,0-.3-.167-.264-.4l.68-4.787a.428.428,0,0,1,.384-.4h.52c.184,0,.3.168.264.4l-.552,3.862h1.5c.184,0,.3.167.271.394l-.072.531a.434.434,0,0,1-.384.4Z" transform="translate(-4687.284 -1692.195)"/></g></g></g><g transform="translate(4498.445 1710.447)"><g transform="translate(0)"><path class="a" d="M4537.684,1729.076h3.616v-3.649a2.485,2.485,0,0,1,2.485-2.485h.175a2.485,2.485,0,0,1,2.485,2.485h0v3.649h3.649a2.485,2.485,0,0,1,2.484,2.485h0v.175a2.484,2.484,0,0,1-2.484,2.485h-3.649v3.616a2.484,2.484,0,0,1-2.484,2.486h-.176a2.486,2.486,0,0,1-2.485-2.486v-3.616h-3.616a2.485,2.485,0,0,1-2.485-2.485h0v-.175A2.486,2.486,0,0,1,4537.684,1729.076Z" transform="translate(-4535.199 -1722.942)"/></g></g><g transform="translate(4499.481 1711.089)"><g transform="translate(0)"><path class="b" d="M4539.283,1730.067h3.616v-3.649a2.485,2.485,0,0,1,2.485-2.485h.176a2.485,2.485,0,0,1,2.484,2.485v3.649h3.649a2.485,2.485,0,0,1,2.485,2.485h0v.175a2.485,2.485,0,0,1-2.485,2.486h-3.649v3.616a2.485,2.485,0,0,1-2.484,2.485h-.176a2.485,2.485,0,0,1-2.485-2.485h0v-3.616h-3.616a2.486,2.486,0,0,1-2.485-2.486v-.175A2.487,2.487,0,0,1,4539.283,1730.067Z" transform="translate(-4536.798 -1723.932)"/></g></g><g transform="translate(4521.313 1704.444)"><g transform="translate(20.193 0.613)"><g transform="translate(0 0.247)"><path class="b" d="M4616.073,1728.476c12.051,0,10.961,8.017,10.476,11.085-1.211,7.014-7.025,11.336-15.262,11.336a38.17,38.17,0,0,1-7.69-.937,2.2,2.2,0,0,1-1.937-2.5c.121-.5.363-1.5.848-3.382.483-1.941,1.694-2.318,3.148-2.318l2.423.313a41.8,41.8,0,0,0,5.207.376c2.847,0,4.058-.814,4.421-3.069.243-1.249-.484-2.379-2.846-2.379h-9.022a1.943,1.943,0,0,1-2.069-1.815,2,2,0,0,1,.07-.69l2.846-16.909a3.008,3.008,0,0,1,2.907-2.568h17.743a1.97,1.97,0,0,1,2.079,1.86,2.04,2.04,0,0,1-.08.708l-.546,3.444a3.006,3.006,0,0,1-2.906,2.506h-11.324l-.848,4.948Z" transform="translate(-4601.624 -1715.009)"/></g><g transform="translate(27.61)"><path class="b" d="M4644.8,1732.915c2.545-14.84,8.843-18.287,17.079-18.287s13.384,3.444,10.841,18.287c-2.362,13.9-8.663,17.848-16.9,17.848C4647.463,1750.763,4642.437,1746.818,4644.8,1732.915Zm19.077,0c1.575-9.206-1.393-9.77-3.449-9.77s-5.208.564-6.782,9.77c-1.457,8.454,1.456,9.394,3.572,9.394,2,0,5.207-.939,6.66-9.394Z" transform="translate(-4644.213 -1714.628)"/></g></g><g transform="translate(0 0.306)"><path class="b" d="M4579.333,1718.7l-2.789.619-.529-.577.171-1.052a2.047,2.047,0,0,0,.026-.937.381.381,0,0,0-.391-.2.656.656,0,0,0-.533.278,1.849,1.849,0,0,0-.3.827,2.272,2.272,0,0,0,.011,1.067,2.1,2.1,0,0,0,.868.854,7.961,7.961,0,0,1,2.621,2.364,5.264,5.264,0,0,1,.138,3.017,6.106,6.106,0,0,1-.7,2.239,3.488,3.488,0,0,1-1.526,1.221,5.742,5.742,0,0,1-2.383.513,4.511,4.511,0,0,1-2.376-.533,2.125,2.125,0,0,1-1.1-1.412,7.281,7.281,0,0,1,.088-2.458l.153-.928,3.33-.04.528.577-.809,1.149a2.238,2.238,0,0,0-.024,1.024.447.447,0,0,0,.46.222.707.707,0,0,0,.58-.3,1.948,1.948,0,0,0,.313-.859,2.536,2.536,0,0,0-.067-1.635,8.221,8.221,0,0,0-1.468-1.267,12.755,12.755,0,0,1-1.553-1.3,2.488,2.488,0,0,1-.531-1.13,4.926,4.926,0,0,1,.022-1.853,6.025,6.025,0,0,1,.8-2.387,3.556,3.556,0,0,1,1.5-1.2,5.565,5.565,0,0,1,2.238-.453,4.957,4.957,0,0,1,2.29.434,1.95,1.95,0,0,1,1.106,1.153,6.177,6.177,0,0,1-.068,2.393Z" transform="translate(-4570.474 -1714.154)"/></g><g transform="translate(7.972)"><path class="b" d="M4591.76,1713.682l.755.768-7.135,14.026-2.082.607-.528-.577,6.43-14.79Z" transform="translate(-4582.771 -1713.682)"/></g><g transform="translate(1.023 0.884)"><path class="a" d="M4580.914,1719.59l-3.317.042.171-1.052a2.038,2.038,0,0,0,.025-.937.382.382,0,0,0-.391-.2.657.657,0,0,0-.532.278,1.861,1.861,0,0,0-.3.826,2.276,2.276,0,0,0,.01,1.066,2.108,2.108,0,0,0,.87.854,7.946,7.946,0,0,1,2.621,2.363,5.272,5.272,0,0,1,.138,3.017,6.117,6.117,0,0,1-.7,2.24,3.487,3.487,0,0,1-1.527,1.221,5.718,5.718,0,0,1-2.382.513,4.505,4.505,0,0,1-2.376-.533,2.125,2.125,0,0,1-1.1-1.411,7.277,7.277,0,0,1,.087-2.458l.153-.929,3.331-.04-.28,1.726a2.248,2.248,0,0,0-.025,1.024.449.449,0,0,0,.46.222.7.7,0,0,0,.58-.3,1.934,1.934,0,0,0,.313-.859,2.527,2.527,0,0,0-.067-1.634,8.178,8.178,0,0,0-1.467-1.267,12.722,12.722,0,0,1-1.553-1.3,2.49,2.49,0,0,1-.532-1.129,4.939,4.939,0,0,1,.023-1.853,6.013,6.013,0,0,1,.8-2.387,3.535,3.535,0,0,1,1.5-1.195,5.571,5.571,0,0,1,2.238-.453,4.959,4.959,0,0,1,2.29.434,1.953,1.953,0,0,1,1.105,1.153,6.181,6.181,0,0,1-.068,2.394Z" transform="translate(-4572.052 -1715.046)"/></g><g transform="translate(8.729 0.768)"><path class="a" d="M4592.925,1714.866l-6.38,14.794-2.606.03,6.43-14.79Z" transform="translate(-4583.939 -1714.866)"/></g><g transform="translate(22.345 2.267)"><g transform="translate(0 0.247)"><path class="a" d="M4619.392,1731.028c12.051,0,10.962,8.016,10.477,11.085-1.212,7.014-7.025,11.336-15.262,11.336a38.218,38.218,0,0,1-7.69-.937,2.2,2.2,0,0,1-1.938-2.5c.121-.5.364-1.5.848-3.381.484-1.942,1.7-2.318,3.149-2.318l2.422.313a42.008,42.008,0,0,0,5.208.376c2.846,0,4.057-.814,4.42-3.069.242-1.249-.484-2.38-2.846-2.38h-9.023a1.941,1.941,0,0,1-2.068-1.813,2.023,2.023,0,0,1,.07-.691l2.847-16.91a3.008,3.008,0,0,1,2.906-2.568h17.744a1.969,1.969,0,0,1,2.079,1.861,2,2,0,0,1-.081.707l-.544,3.444a3.006,3.006,0,0,1-2.907,2.5h-11.324l-.848,4.948Z" transform="translate(-4604.942 -1717.561)"/></g><g transform="translate(27.612)"><path class="a" d="M4648.118,1735.466c2.543-14.839,8.842-18.287,17.078-18.287s13.383,3.444,10.841,18.287c-2.362,13.9-8.662,17.848-16.9,17.848C4650.783,1753.314,4645.757,1749.369,4648.118,1735.466Zm19.076,0c1.575-9.205-1.393-9.77-3.449-9.77s-5.208.564-6.782,9.77c-1.457,8.455,1.456,9.394,3.572,9.394C4662.532,1744.86,4665.741,1743.921,4667.194,1735.466Z" transform="translate(-4647.535 -1717.179)"/></g></g></g><g transform="translate(4430.702 1692.162)"><ellipse class="b" cx="27.183" cy="27.194" rx="27.183" ry="27.194"/></g><g transform="translate(4433.42 1692.173)"><g transform="translate(0)"><ellipse class="a" cx="27.183" cy="27.194" rx="27.183" ry="27.194"/></g></g><g transform="translate(4439.311 1707.935)"><g transform="translate(0 0.036)"><path class="b" d="M4447.4,1724.608h-3.416v-5.486h9.556v25.2H4447.4Z" transform="translate(-4443.981 -1719.122)"/></g><g transform="translate(13.212)"><path class="b" d="M4480.749,1719.067v5.178h-10.764v4.763a6.318,6.318,0,0,1,4.623-1.726c5.486,0,7.59,4.176,7.59,8.249,0,5.316-3.105,8.767-8.694,8.767-5.658,0-8.936-3.141-9.141-7.489h5.761a2.983,2.983,0,0,0,3.177,2.485c2.242,0,3.208-1.621,3.208-3.8,0-2.278-1.139-3.486-3.242-3.486a2.788,2.788,0,0,0-2.933,2.071h-5.693v-15.015Z" transform="translate(-4464.362 -1719.067)"/></g></g><g transform="translate(4472.145 1707.859)"><path class="b" d="M4496.575,1718.953a1.963,1.963,0,1,1-1.937,1.988v-.025a1.808,1.808,0,0,1,1.64-1.96A1.926,1.926,0,0,1,4496.575,1718.953Zm-.568,1.962c0,.546.209.79.558.79s.569-.244.569-.79-.221-.8-.569-.8-.559.244-.559.8Zm4.6-1.835h1.912l-4.469,8.176h-1.916Zm1.486,4.378a1.963,1.963,0,1,1-1.926,2v-.036a1.8,1.8,0,0,1,1.628-1.96A1.77,1.77,0,0,1,4502.091,1723.459Zm-.569,1.963c0,.545.209.79.557.79s.568-.244.568-.79-.221-.8-.568-.8-.559.255-.559.8Z" transform="translate(-4494.63 -1718.948)"/></g><g transform="translate(4471.788 1719.353)"><g transform="translate(0 0.038)"><path class="b" d="M4496.523,1738.1a1.315,1.315,0,0,1-1.263,1.365,1.118,1.118,0,0,1-.163,0h-1.019v-2.719h1.019a1.314,1.314,0,0,1,1.421,1.195A1.4,1.4,0,0,1,4496.523,1738.1Zm-1.467.787a.79.79,0,1,0,0-1.579h-.313v1.577Z" transform="translate(-4494.079 -1736.737)"/></g><g transform="translate(2.739)"><path class="b" d="M4499.365,1739.466c-.583,0-1.042-.291-1.061-.843h.7a.312.312,0,0,0,.313.31h.024c.194,0,.316-.1.316-.256,0-.5-1.361-.232-1.351-1.2,0-.515.422-.8.992-.8.592,0,.991.3,1.018.811h-.714a.294.294,0,0,0-.307-.283h-.006a.243.243,0,0,0-.276.2.256.256,0,0,0,0,.047c0,.473,1.343.259,1.343,1.167a.875.875,0,0,1-.9.853A.9.9,0,0,1,4499.365,1739.466Z" transform="translate(-4498.304 -1736.679)"/></g><g transform="translate(5.069 0.009)"><path class="b" d="M4503.281,1736.7a1.26,1.26,0,0,1,1.288.952h-.727a.6.6,0,0,0-.569-.349.789.789,0,0,0,0,1.564.6.6,0,0,0,.569-.348h.728a1.257,1.257,0,0,1-1.288.948,1.384,1.384,0,1,1,0-2.768h0Z" transform="translate(-4501.898 -1736.693)"/></g><g transform="translate(7.997 0.044)"><path class="b" d="M4506.416,1736.747h2.1v.53h-.721v2.188h-.662v-2.188h-.72Z" transform="translate(-4506.415 -1736.747)"/></g><g transform="translate(10.323 0.003)"><path class="b" d="M4511.4,1739.467a1.392,1.392,0,1,1,1.389-1.395h0a1.367,1.367,0,0,1-1.339,1.394h-.05Zm0-.6a.714.714,0,0,0,.721-.7h0a.872.872,0,0,0,0-.087.721.721,0,1,0-.713.79Z" transform="translate(-4510.003 -1736.683)"/></g></g></g></svg>