<svg xmlns="http://www.w3.org/2000/svg" width="162.28" height="39.662" viewBox="0 0 162.28 39.662"><defs><style>.a{fill:#fff;}.b{fill:#0033a1;}</style></defs><g transform="translate(-4434.978 6565.992)"><path class="a" d="M5876.458,1190.013v3.782h3.676v3.232h-3.676v3.76h-3.422v-3.76h-3.676v-3.232h3.676v-3.782Z" transform="translate(-1389.116 -7741.277)"/><ellipse class="b" cx="19.823" cy="19.831" rx="19.823" ry="19.831" transform="translate(4434.978 -6565.992)"/><path class="a" d="M5702.372,1155.177a1.431,1.431,0,1,1-1.414,1.431A1.318,1.318,0,0,1,5702.372,1155.177Zm-.415,1.431c0,.4.153.576.406.576s.415-.178.415-.576-.162-.584-.415-.584-.407.178-.407.584Zm3.353-1.338h1.4l-3.259,5.962h-1.4Zm1.083,3.193a1.432,1.432,0,1,1-1.405,1.432A1.314,1.314,0,0,1,5706.393,1158.463Zm-.415,1.432c0,.4.153.576.407.576s.415-.178.415-.576-.161-.584-.415-.584-.407.186-.407.584Z" transform="translate(-1237.734 -7709.727)"/><path class="a" d="M5699.951,1245.317a.959.959,0,0,1-1.039.991h-.742v-1.983h.742A.958.958,0,0,1,5699.951,1245.317Zm-1.07.574a.576.576,0,1,0,0-1.152h-.228v1.15Z" transform="translate(-1235.209 -7790.466)"/><path class="a" d="M5720.1,1246.058c-.426,0-.759-.212-.773-.613h.514a.228.228,0,0,0,.228.226h.018c.141,0,.231-.07.231-.186,0-.367-.991-.169-.985-.873,0-.375.308-.584.723-.584.432,0,.723.215.743.591h-.522a.216.216,0,0,0-.224-.206h0a.176.176,0,0,0-.2.146.166.166,0,0,0,0,.035c0,.345.979.189.979.852A.639.639,0,0,1,5720.1,1246.058Z" transform="translate(-1254.369 -7790.197)"/><path class="a" d="M5738.321,1244.076a.921.921,0,0,1,.939.695h-.531a.436.436,0,0,0-.414-.254.575.575,0,0,0,0,1.141.436.436,0,0,0,.415-.254h.531a.918.918,0,0,1-.939.692,1.009,1.009,0,0,1,0-2.019Z" transform="translate(-1270.659 -7790.239)"/><path class="a" d="M5759.978,1244.327h1.533v.386h-.525v1.6h-.482v-1.6h-.525Z" transform="translate(-1291.187 -7790.468)"/><path class="a" d="M5778.964,1246.058a1.015,1.015,0,1,1,1.013-1.017h0a1,1,0,0,1-.977,1.017Zm0-.44a.518.518,0,0,0,.525-.512.468.468,0,0,0,0-.064.526.526,0,1,0-.521.576Z" transform="translate(-1307.462 -7790.197)"/><g transform="translate(4502.57 -6575.435) rotate(9)"><g transform="translate(37.257 5.105)"><path class="b" d="M16.256,0V29.666l-9.085,2.39L6.935,15.327a22.586,22.586,0,0,0-.277-4.243,1.542,1.542,0,0,0-1.2-.957,15.342,15.342,0,0,0-4.381.136l-.982.114L0,6.7C4.766,5.363,8.308,3.313,10.692.533Z" transform="translate(0 0)"/><g transform="translate(14.807 0)"><path class="b" d="M1.449,0,2.916.84,1.449,2.264,0,1.666Z" transform="translate(0 0)"/></g><g transform="translate(7.171 31.002)"><path class="b" d="M0,1.053l1.467.84L2.115.781,1.725,0h-.4Z" transform="translate(0 0)"/></g><g transform="translate(0.094 9.422)"><path class="b" d="M0,.957l1.467.84.6-.84L1.636,0H1.22Z" transform="translate(0 0)"/></g></g><g transform="translate(0 12.747)"><path class="b" d="M16.8,8.139,11.035,10.25,9.711,9.279l.016-2.13A3.788,3.788,0,0,0,9.47,5.294a.863.863,0,0,0-.9-.262,1.423,1.423,0,0,0-1.046.718,3.482,3.482,0,0,0-.368,1.727,4.227,4.227,0,0,0,.379,2.1,4.521,4.521,0,0,0,2.145,1.41q5.081,2.142,6.4,3.83t1.3,5.911a11.388,11.388,0,0,1-.754,4.645,7.264,7.264,0,0,1-2.861,2.9,13.11,13.11,0,0,1-4.929,1.773,10.511,10.511,0,0,1-5.257-.295A4.442,4.442,0,0,1,.742,27.315a13.472,13.472,0,0,1-.631-4.88l.017-1.882,7.116-1.14,1.324.971L7.219,22.909a4.155,4.155,0,0,0,.287,2.029,1.013,1.013,0,0,0,1.062.291,1.537,1.537,0,0,0,1.142-.769,3.637,3.637,0,0,0,.384-1.8q.016-2.538-.689-3.206a17.963,17.963,0,0,0-3.564-2.035,27.839,27.839,0,0,1-3.758-2.074A4.94,4.94,0,0,1,.571,13.285,9.168,9.168,0,0,1,0,9.62,11.252,11.252,0,0,1,.913,4.654a7.393,7.393,0,0,1,2.8-2.835A12.773,12.773,0,0,1,8.357.211,11.6,11.6,0,0,1,13.4.337a4.164,4.164,0,0,1,2.751,1.924,11.459,11.459,0,0,1,.651,4.746Z" transform="translate(0 0)"/></g><g transform="translate(17.706 9.19)"><path class="b" d="M14.3,0l1.324.971L5.576,31.237,1.324,33.1,0,32.129,8.838.884Z" transform="translate(0 0)"/></g><g transform="translate(57.625 3.52)"><path class="b" d="M17.189,9.035l.121,9.586a23.089,23.089,0,0,1-.3,4.816,7.79,7.79,0,0,1-1.465,3.029,8,8,0,0,1-2.731,2.307,11.963,11.963,0,0,1-3.6,1.148,13.358,13.358,0,0,1-4.379.108,4.957,4.957,0,0,1-2.794-1.408A6.49,6.49,0,0,1,.547,26.2a15.431,15.431,0,0,1-.472-4.359L0,11.816A20.053,20.053,0,0,1,.655,5.775,7.323,7.323,0,0,1,3.389,2.169a11.234,11.234,0,0,1,4.983-2A10.069,10.069,0,0,1,12.658.3,5.841,5.841,0,0,1,15.5,1.858a5.55,5.55,0,0,1,1.3,2.474A23.459,23.459,0,0,1,17.189,9.035ZM9.882,7.8a10.134,10.134,0,0,0-.253-2.83Q9.4,4.43,8.57,4.563A1.26,1.26,0,0,0,7.5,5.349a9.644,9.644,0,0,0-.237,2.874L7.4,22.246a9.741,9.741,0,0,0,.276,2.978q.25.475,1.065.344a1.244,1.244,0,0,0,1.063-.776,9.221,9.221,0,0,0,.222-2.757Z" transform="translate(0)"/></g><g transform="translate(1.324 13.719)"><path class="a" d="M16.8,8.14,9.713,9.28l.016-2.13A3.785,3.785,0,0,0,9.472,5.3a.863.863,0,0,0-.9-.262,1.424,1.424,0,0,0-1.046.718,3.49,3.49,0,0,0-.367,1.726,4.226,4.226,0,0,0,.379,2.1,4.526,4.526,0,0,0,2.144,1.41q5.081,2.142,6.4,3.828t1.3,5.911a11.4,11.4,0,0,1-.754,4.645,7.259,7.259,0,0,1-2.861,2.9,13.106,13.106,0,0,1-4.929,1.773,10.509,10.509,0,0,1-5.257-.295A4.442,4.442,0,0,1,.743,27.315a13.472,13.472,0,0,1-.631-4.88l.017-1.882,7.116-1.14-.025,3.5a4.153,4.153,0,0,0,.287,2.029,1.013,1.013,0,0,0,1.062.291,1.536,1.536,0,0,0,1.142-.768,3.633,3.633,0,0,0,.384-1.8q.015-2.538-.689-3.206a17.957,17.957,0,0,0-3.564-2.035,27.869,27.869,0,0,1-3.758-2.074A4.936,4.936,0,0,1,.571,13.286,9.169,9.169,0,0,1,0,9.62,11.253,11.253,0,0,1,.913,4.654a7.387,7.387,0,0,1,2.8-2.835A12.777,12.777,0,0,1,8.357.211,11.6,11.6,0,0,1,13.4.337a4.167,4.167,0,0,1,2.751,1.923,11.464,11.464,0,0,1,.651,4.745Z"/></g><g transform="translate(19.031 10.162)"><path class="a" d="M14.3,0,5.576,31.237,0,32.129,8.837.883Z" transform="translate(0 0)"/></g><g transform="translate(58.947 4.49)"><path class="a" d="M17.19,9.035l.121,9.586a23.077,23.077,0,0,1-.3,4.816,7.8,7.8,0,0,1-1.465,3.029,8,8,0,0,1-2.731,2.307,11.968,11.968,0,0,1-3.6,1.148,13.359,13.359,0,0,1-4.379.108A4.958,4.958,0,0,1,2.04,28.622,6.483,6.483,0,0,1,.547,26.2a15.428,15.428,0,0,1-.472-4.359L0,11.816A20.066,20.066,0,0,1,.655,5.775,7.319,7.319,0,0,1,3.388,2.169a11.234,11.234,0,0,1,4.983-2A10.067,10.067,0,0,1,12.658.3,5.842,5.842,0,0,1,15.5,1.858a5.551,5.551,0,0,1,1.3,2.475A23.374,23.374,0,0,1,17.19,9.035ZM9.882,7.8a10.144,10.144,0,0,0-.252-2.83q-.23-.54-1.058-.406a1.26,1.26,0,0,0-1.066.786,9.651,9.651,0,0,0-.236,2.873L7.4,22.246a9.742,9.742,0,0,0,.276,2.978q.25.475,1.066.344a1.243,1.243,0,0,0,1.063-.776,9.226,9.226,0,0,0,.222-2.757Z" transform="translate(0)"/></g><g transform="translate(77.383 0)"><path class="b" d="M17.189,9.035l.121,9.586a23.126,23.126,0,0,1-.3,4.816,7.792,7.792,0,0,1-1.465,3.029,8,8,0,0,1-2.731,2.307,11.956,11.956,0,0,1-3.6,1.148,13.352,13.352,0,0,1-4.379.108A4.956,4.956,0,0,1,2.04,28.622,6.486,6.486,0,0,1,.547,26.2a15.429,15.429,0,0,1-.472-4.359L0,11.816A20.057,20.057,0,0,1,.655,5.775,7.32,7.32,0,0,1,3.389,2.169a11.232,11.232,0,0,1,4.982-2A10.072,10.072,0,0,1,12.658.3,5.842,5.842,0,0,1,15.5,1.858a5.553,5.553,0,0,1,1.3,2.474A23.438,23.438,0,0,1,17.189,9.035ZM9.882,7.8a10.147,10.147,0,0,0-.253-2.83q-.23-.54-1.059-.406A1.26,1.26,0,0,0,7.5,5.349a9.66,9.66,0,0,0-.236,2.874L7.4,22.246a9.744,9.744,0,0,0,.276,2.978q.25.475,1.066.344a1.243,1.243,0,0,0,1.062-.776,9.22,9.22,0,0,0,.222-2.757Z" transform="translate(0 0)"/></g><g transform="translate(78.706 0.97)"><path class="a" d="M17.189,9.035l.121,9.586a23.1,23.1,0,0,1-.3,4.816,7.794,7.794,0,0,1-1.465,3.029,8,8,0,0,1-2.731,2.307,11.963,11.963,0,0,1-3.6,1.148,13.36,13.36,0,0,1-4.379.108,4.959,4.959,0,0,1-2.795-1.408A6.487,6.487,0,0,1,.547,26.2a15.431,15.431,0,0,1-.472-4.359L0,11.816A20.062,20.062,0,0,1,.655,5.775,7.32,7.32,0,0,1,3.389,2.169a11.234,11.234,0,0,1,4.983-2A10.067,10.067,0,0,1,12.658.3,5.843,5.843,0,0,1,15.5,1.858a5.555,5.555,0,0,1,1.3,2.475A23.4,23.4,0,0,1,17.189,9.035ZM9.882,7.8a10.144,10.144,0,0,0-.253-2.83q-.23-.54-1.058-.407A1.26,1.26,0,0,0,7.5,5.349a9.678,9.678,0,0,0-.236,2.874L7.4,22.246a9.744,9.744,0,0,0,.276,2.978q.25.475,1.066.344a1.244,1.244,0,0,0,1.063-.776,9.224,9.224,0,0,0,.222-2.757Z" transform="translate(0 0)"/></g><g transform="translate(38.725 6.177)"><path class="a" d="M16.256,0V30.252L7.145,31.823l-.21-16.5a22.59,22.59,0,0,0-.277-4.243,1.541,1.541,0,0,0-1.2-.957,15.358,15.358,0,0,0-4.381.136l-.982.114L0,6.7C4.766,5.363,8.308,3.313,10.692.533Z" transform="translate(0 0)"/></g></g><g transform="translate(4452.188 -6556.549) rotate(9)"><path class="a" d="M10.929,5.744l.077,6.095a14.671,14.671,0,0,1-.19,3.062,4.957,4.957,0,0,1-.932,1.926,5.085,5.085,0,0,1-1.736,1.467,7.609,7.609,0,0,1-2.29.73,8.493,8.493,0,0,1-2.784.069A3.152,3.152,0,0,1,1.3,18.2,4.122,4.122,0,0,1,.348,16.66a9.809,9.809,0,0,1-.3-2.771L0,7.512A12.757,12.757,0,0,1,.416,3.671,4.653,4.653,0,0,1,2.154,1.379,7.142,7.142,0,0,1,5.322.108,6.4,6.4,0,0,1,8.047.192a3.714,3.714,0,0,1,1.808.99,3.53,3.53,0,0,1,.825,1.573A14.862,14.862,0,0,1,10.929,5.744ZM6.283,4.959a6.448,6.448,0,0,0-.161-1.8q-.147-.343-.673-.258a.8.8,0,0,0-.678.5,6.137,6.137,0,0,0-.15,1.827l.086,8.916a6.193,6.193,0,0,0,.176,1.893q.159.3.677.219a.79.79,0,0,0,.676-.493,5.865,5.865,0,0,0,.141-1.753Z" transform="translate(0 0)"/></g><g transform="translate(4439.323 -6557.501) rotate(9)"><path class="a" d="M10.335,0V19.233l-5.793,1L4.409,9.744a14.362,14.362,0,0,0-.176-2.7.98.98,0,0,0-.763-.608,9.764,9.764,0,0,0-2.785.087L.06,6.6,0,4.257A13.414,13.414,0,0,0,6.8.339Z" transform="translate(0 0)"/></g></g></svg>