<svg xmlns="http://www.w3.org/2000/svg" width="27" height="26" viewBox="0 0 27 26">
    <g fill="none" fill-rule="evenodd">
        <path fill="#E02229" d="M26.602 12.92c0 7.136-5.94 12.92-13.266 12.92S.07 20.057.07 12.92C.07 5.785 6.01 0 13.336 0c7.327 0 13.266 5.785 13.266 12.92"/>
        <path fill="#FFF" d="M19.72 18.78c.35 0 .652-.112.91-.334l-4.404-4.289-.305.214c-.33.236-.597.42-.802.553a5.007 5.007 0 0 1-.82.406c-.341.138-.66.206-.954.206h-.017c-.296 0-.613-.068-.955-.206a4.98 4.98 0 0 1-.82-.406 20.602 20.602 0 0 1-.802-.553 33.11 33.11 0 0 0-.304-.215l-4.404 4.29c.257.222.56.335.91.335H19.72zM6.62 11.456a4.56 4.56 0 0 1-.876-.735v6.526l3.88-3.78a299.542 299.542 0 0 0-3.004-2.01M20.062 11.456a261.15 261.15 0 0 0-3.013 2.012l3.88 3.779V10.72c-.249.27-.538.516-.867.735"/>
        <path fill="#FFF" d="M19.72 7.06H6.952c-.445 0-.787.147-1.028.44-.24.292-.359.659-.359 1.098 0 .354.159.739.476 1.153.318.414.657.739 1.015.976.197.135.79.536 1.779 1.203a536.508 536.508 0 0 1 2.272 1.542l.13.09.239.168c.188.132.344.24.468.32.124.083.275.174.451.276.177.1.343.177.5.228.155.05.3.076.433.076h.017c.133 0 .278-.026.434-.076a2.68 2.68 0 0 0 .499-.228 8.91 8.91 0 0 0 .45-.275c.125-.082.281-.189.469-.321l.24-.168.129-.09.878-.594 3.181-2.151a4.078 4.078 0 0 0 1.058-1.04c.283-.405.425-.83.425-1.275 0-.371-.138-.69-.412-.955a1.36 1.36 0 0 0-.976-.397"/>
    </g>
</svg>
