<svg xmlns="http://www.w3.org/2000/svg" width="27" height="26" viewBox="0 0 27 26">
    <g fill="none" fill-rule="evenodd">
        <path fill="#00ACE4" d="M26.766 12.92c0 7.136-5.94 12.92-13.266 12.92S.234 20.057.234 12.92C.234 5.785 6.174 0 13.5 0c7.327 0 13.266 5.785 13.266 12.92"/>
        <path fill="#FFF" d="M21.876 9.19a6.413 6.413 0 0 1-1.785.47 3.018 3.018 0 0 0 1.367-1.65c-.6.341-1.267.59-1.976.724a3.166 3.166 0 0 0-2.269-.942c-1.717 0-3.11 1.335-3.11 2.981 0 .234.028.46.08.68-2.584-.125-4.875-1.312-6.409-3.116a2.88 2.88 0 0 0-.421 1.5c0 1.033.55 1.946 1.384 2.48-.51-.016-.99-.15-1.409-.372v.037c0 .382.077.746.213 1.08.38.935 1.235 1.642 2.282 1.844a3.256 3.256 0 0 1-1.405.05c.396 1.185 1.544 2.047 2.905 2.072a6.413 6.413 0 0 1-3.863 1.276 6.6 6.6 0 0 1-.742-.042 9.085 9.085 0 0 0 4.767 1.34c4.861 0 7.848-3.28 8.637-6.684a7.99 7.99 0 0 0 .203-2.185 6.174 6.174 0 0 0 1.551-1.543"/>
    </g>
</svg>
