<svg xmlns="http://www.w3.org/2000/svg" xmlns:xlink="http://www.w3.org/1999/xlink" width="75" height="75" viewBox="0 0 75 75"><defs><style>.a{fill:#fff;}.ad,.b{fill:none;}.c{clip-path:url(#a);}.d{fill:#dce3ed;}.e{fill:#c1cde0;}.f{fill:#dbdbdb;}.g{fill:#c5e300;}.h{fill:#0854c4;opacity:0.162;}.i{fill:#63d9f7;}.j{fill:#e3e3e3;}.k{fill:#f7f7f7;}.l{fill:#f2f2f2;}.m,.p{mix-blend-mode:multiply;isolation:isolate;}.m{fill:url(#b);}.n{fill:#73799b;}.o{fill:#d5d7e3;}.p{fill:url(#c);}.q{fill:url(#d);}.r{fill:url(#e);}.s{fill:url(#f);}.t{fill:#2786ff;}.u{fill:#c6e4ff;}.v{fill:#00b3ff;}.w{clip-path:url(#g);}.x{fill:#0855c4;}.y{fill:#237bf9;}.z{fill:#10a1ff;}.aa{fill:#41a9a3;}.ab{clip-path:url(#h);}.ac{fill:#83baff;}.ad{stroke:#83baff;stroke-linejoin:round;stroke-miterlimit:10;stroke-width:0.5px;}.ae{fill:#e80b8e;}.af{fill:#c80779;}</style><clipPath id="a"><circle class="a" cx="37.5" cy="37.5" r="37.5"/></clipPath><linearGradient id="b" x1="0.216" y1="1.63" x2="0.617" y2="-0.092" gradientUnits="objectBoundingBox"><stop offset="0" stop-color="#fff"/><stop offset="1" stop-color="#bdbdbd"/></linearGradient><linearGradient id="c" y1="0.5" x2="1" y2="0.5" gradientUnits="objectBoundingBox"><stop offset="0" stop-color="#bdbdbd"/><stop offset="1" stop-color="#fff"/></linearGradient><linearGradient id="d" x1="0.5" y1="1" x2="0.5" gradientUnits="objectBoundingBox"><stop offset="0" stop-color="#c7180e"/><stop offset="0.506" stop-color="#e34a41"/><stop offset="1" stop-color="#ffaba6"/></linearGradient><linearGradient id="e" x1="0.5" y1="1" x2="0.5" gradientUnits="objectBoundingBox"><stop offset="0" stop-color="#f51e11"/><stop offset="0.506" stop-color="#fa5148"/><stop offset="1" stop-color="#ffaba6"/></linearGradient><linearGradient id="f" x1="0.5" y1="1" x2="0.5" gradientUnits="objectBoundingBox"><stop offset="0" stop-color="#ffaba6"/><stop offset="0.494" stop-color="#e34a41"/><stop offset="1" stop-color="#c7180e"/></linearGradient><clipPath id="g"><path class="b" d="M0,0H9.721V9.721H0Z"/></clipPath><clipPath id="h"><path class="b" d="M0,46.138H51.255V0H0Z"/></clipPath></defs><g transform="translate(-298 -282)"><circle class="a" cx="37.5" cy="37.5" r="37.5" transform="translate(298 282)"/><g class="c" transform="translate(298 282)"><g transform="translate(-189.519 -5.885)"><path class="d" d="M179.313,98.265l-89.327.423-11.02-2.839,1.523-4.286,1.821-5.124L78.966,76.255,62.483,73.49,53.9,90.239H0v43.925H179.313Z" transform="translate(94.183 -52.963)"/><g transform="translate(94.181 20.354)"><g transform="translate(86.579 47.04)"><path class="e" d="M125.939,149.838c0,.921-1.623,1.668-3.625,1.668s-3.624-.747-3.624-1.668,1.622-1.669,3.624-1.669S125.939,148.916,125.939,149.838Z" transform="translate(-118.691 -148.169)"/><path class="e" d="M138.728,149.838c0,.921-1.623,1.668-3.625,1.668s-3.623-.747-3.623-1.668,1.622-1.669,3.623-1.669S138.728,148.916,138.728,149.838Z" transform="translate(-122.151 -148.169)"/><path class="e" d="M151.516,149.838c0,.921-1.623,1.668-3.624,1.668s-3.624-.747-3.624-1.668,1.622-1.669,3.624-1.669S151.516,148.916,151.516,149.838Z" transform="translate(-125.611 -148.169)"/><path class="e" d="M164.3,149.838c0,.921-1.623,1.668-3.625,1.668s-3.623-.747-3.623-1.668,1.622-1.669,3.623-1.669S164.3,148.916,164.3,149.838Z" transform="translate(-129.071 -148.169)"/><path class="e" d="M187.317,149.838c0,.921-1.623,1.668-3.624,1.668s-3.625-.747-3.625-1.668,1.623-1.669,3.625-1.669S187.317,148.916,187.317,149.838Z" transform="translate(-135.298 -148.169)"/><path class="e" d="M200.107,149.838c0,.921-1.623,1.668-3.625,1.668s-3.623-.747-3.623-1.668,1.622-1.669,3.623-1.669S200.107,148.916,200.107,149.838Z" transform="translate(-138.758 -148.169)"/><path class="e" d="M212.895,149.838c0,.921-1.623,1.668-3.624,1.668s-3.624-.747-3.624-1.668,1.622-1.669,3.624-1.669S212.895,148.916,212.895,149.838Z" transform="translate(-142.218 -148.169)"/><path class="e" d="M225.684,149.838c0,.921-1.623,1.668-3.625,1.668s-3.623-.747-3.623-1.668,1.622-1.669,3.623-1.669S225.684,148.916,225.684,149.838Z" transform="translate(-145.678 -148.169)"/><path class="e" d="M247.283,149.838c0,.921-1.623,1.668-3.625,1.668s-3.624-.747-3.624-1.668,1.623-1.669,3.624-1.669S247.283,148.916,247.283,149.838Z" transform="translate(-151.522 -148.169)"/><path class="e" d="M260.072,149.838c0,.921-1.624,1.668-3.625,1.668s-3.623-.747-3.623-1.668,1.622-1.669,3.623-1.669S260.072,148.916,260.072,149.838Z" transform="translate(-154.983 -148.169)"/><path class="e" d="M272.86,149.838c0,.921-1.623,1.668-3.624,1.668s-3.625-.747-3.625-1.668,1.623-1.669,3.625-1.669S272.86,148.916,272.86,149.838Z" transform="translate(-158.443 -148.169)"/><path class="e" d="M285.649,149.838c0,.921-1.623,1.668-3.624,1.668s-3.624-.747-3.624-1.668,1.622-1.669,3.624-1.669S285.649,148.916,285.649,149.838Z" transform="translate(-161.903 -148.169)"/></g><path class="e" d="M154.914,168.669H113.658l1.29-5.4h39.218Z" transform="translate(-31.701 -108.068)"/><path class="e" d="M202.146,168.669h-18.27l-.949-5.4h17.311Z" transform="translate(-59 -108.068)"/><path class="e" d="M232.3,168.669H213.969l-2.259-5.4h17.371Z" transform="translate(-67.739 -108.068)"/><path class="f" d="M269.093,168.394H251.875l-2.868-5.12h16.314Z" transform="translate(-67.371 -105.216)"/><path class="f" d="M293.542,168.394H280.235l-4.1-5.12H292.5l1.039,1.061Z" transform="translate(-74.71 -105.216)"/><path class="f" d="M246.912,136.861h-13.2l-4.294-6.034h7.172l2.3,3.237h5.216Z" transform="translate(-62.071 -96.437)"/><path class="f" d="M296.153,136.771h-5.074l-5.3-5.945h7.172l2.843,3.19h.357Z" transform="translate(-77.321 -96.437)"/><path class="f" d="M192.819,136.861H178.127l-1.532-6.034h7.1l1.144,3.237h6.8Z" transform="translate(-47.779 -96.437)"/><path class="f" d="M135.9,136.268H122.679l2.016-7.632h5.814l-.912,4.836h6.8Z" transform="translate(-33.191 -95.844)"/><path class="f" d="M147.45,136.268h13.225l-1.113-7.632h-5.747l-.057,4.836h-5.89Z" transform="translate(-39.893 -95.844)"/><path class="f" d="M215.721,136.861H202.877l-1.151-2.7h6.612l-1.763-3.336H212.3Z" transform="translate(-54.578 -96.437)"/><path class="f" d="M272.174,136.725h-13.5l-2.854-2.637h7.636l-2.576-3.261h6.153Z" transform="translate(-69.215 -96.437)"/><path class="f" d="M131.972,123.116h-5.483l1.561-5.966h5.113Z" transform="translate(-34.222 -92.736)"/><path class="e" d="M138.484,132.389c0,.469-.826.849-1.843.849s-1.843-.38-1.843-.849.825-.848,1.843-.848S138.484,131.921,138.484,132.389Z" transform="translate(-36.47 -96.63)"/><path class="e" d="M152.373,132.389c0,.469-.826.849-1.844.849s-1.843-.38-1.843-.849.825-.848,1.843-.848S152.373,131.921,152.373,132.389Z" transform="translate(-40.228 -96.63)"/><path class="g" d="M63.689,118.321c0,.469-.826.849-1.844.849S60,118.79,60,118.321s.826-.849,1.843-.849S63.689,117.852,63.689,118.321Z" transform="translate(-16.233 -92.823)"/><path class="g" d="M67.533,109.5c0,.4-.712.732-1.589.732s-1.589-.328-1.589-.732.711-.732,1.589-.732S67.533,109.1,67.533,109.5Z" transform="translate(-17.411 -90.469)"/><path class="e" d="M113.545,98c0,.4-.712.732-1.589.732s-1.589-.328-1.589-.732.711-.731,1.589-.731S113.545,97.6,113.545,98Z" transform="translate(-29.86 -87.358)"/><path class="e" d="M114.988,93.853c0,.4-.712.732-1.589.732s-1.589-.328-1.589-.732.711-.732,1.589-.732S114.988,93.449,114.988,93.853Z" transform="translate(-30.251 -86.235)"/><path class="g" d="M59.959,122.487c0,.469-.826.849-1.844.849s-1.843-.38-1.843-.849.826-.848,1.843-.848S59.959,122.019,59.959,122.487Z" transform="translate(-15.224 -93.951)"/><path class="g" d="M72.4,136.033c0,.469-.826.849-1.844.849s-1.843-.38-1.843-.849.826-.848,1.843-.848S72.4,135.565,72.4,136.033Z" transform="translate(-18.59 -97.616)"/><path class="g" d="M69.085,140.964c0,.469-.826.849-1.843.849s-1.843-.38-1.843-.849.825-.848,1.843-.848S69.085,140.5,69.085,140.964Z" transform="translate(-17.693 -98.95)"/><path class="g" d="M66.558,146.3c0,.469-.826.849-1.843.849s-1.843-.38-1.843-.849.825-.848,1.843-.848S66.558,145.832,66.558,146.3Z" transform="translate(-17.009 -100.394)"/><path class="g" d="M63.689,151.305c0,.468-.826.848-1.844.848S60,151.773,60,151.305s.826-.849,1.843-.849S63.689,150.836,63.689,151.305Z" transform="translate(-16.233 -101.748)"/><path class="e" d="M192.15,132.905c0,.371-.653.671-1.457.671s-1.457-.3-1.457-.671.652-.671,1.457-.671S192.15,132.535,192.15,132.905Z" transform="translate(-51.199 -96.817)"/><path class="e" d="M206.563,132.905c0,.371-.653.671-1.457.671s-1.457-.3-1.457-.671.652-.671,1.457-.671S206.563,132.535,206.563,132.905Z" transform="translate(-55.099 -96.817)"/><path class="e" d="M246.583,132.905c0,.371-.652.671-1.457.671s-1.457-.3-1.457-.671.652-.671,1.457-.671S246.583,132.535,246.583,132.905Z" transform="translate(-65.927 -96.817)"/><path class="e" d="M259.712,132.905c0,.371-.652.671-1.457.671s-1.457-.3-1.457-.671.652-.671,1.457-.671S259.712,132.535,259.712,132.905Z" transform="translate(-69.479 -96.817)"/><path class="e" d="M67.925,168.359s5.624-12.567,6.579-14.87c.976-2.35,1.974-3.033,4.211-3.033h12.4c1.941,0,2.906.752,1.84,3.56s-5.276,14.344-5.276,14.344Z" transform="translate(-18.377 -101.748)"/><path class="h" d="M85.818,135.359c-1.52,0-2.26-1.126-1.633-2.759,1.459-3.8,3.979-10.343,4.594-11.827.9-2.163,1.818-2.792,3.878-2.792h11.421c1.787,0,2.565.653,1.694,3.277-.767,2.309-2.827,9.224-3.723,11.594-.553,1.462-1.3,2.507-3.2,2.507Z" transform="translate(-22.716 -92.961)"/><path class="g" d="M0,168.433V151.127a5.89,5.89,0,0,1,2.341-.4h12.4c1.94,0,2.635.744.557,3.52S4.857,168.433,4.857,168.433Z" transform="translate(0.002 -101.821)"/><path class="g" d="M10.766,135.8c-1.52,0-1.854-1.114-.64-2.728,2.827-3.758,7.7-10.229,8.854-11.7,1.678-2.14,2.824-2.762,4.884-2.762H35.285c1.787,0,2.33.646.513,3.241-1.6,2.283-6.149,9.122-7.9,11.466-1.08,1.446-2.2,2.479-4.105,2.479Z" transform="translate(-2.539 -93.131)"/><path class="i" d="M67.417,106.189s1.3,5.641-4.064,11.739S53.1,130.265,49.475,138.479a64.438,64.438,0,0,0-4.765,17.9H26a99.686,99.686,0,0,1,22.685-32.221A78.8,78.8,0,0,0,58.95,113.043c1.931-2.827-.131-6.855-.131-6.855Z" transform="translate(-7.033 -89.771)"/><g transform="translate(49.014 19.033)"><path class="j" d="M67.192,114.509h1.629l2.6-1.4h4.838l2.281,1.4H80.3l-3.643-1.842-5.238-.088Z" transform="translate(-67.192 -110.532)"/><path class="k" d="M72.986,111.82l1.286-2.047,4.981.081-1.029,2.054Z" transform="translate(-68.76 -109.773)"/><path class="l" d="M67.192,113.75l4.226-1.93,1.286-2.047-4.019,1.779Z" transform="translate(-67.192 -109.773)"/><path class="a" d="M80.168,111.938l1.029-2.054,3.464,1.7-.85,2.2Z" transform="translate(-70.703 -109.803)"/><path class="m" d="M68.821,114.7l2.6-1.4h4.838l2.281,1.4H80.3l-5.007,2.01H67.727l-.535-2.01Z" transform="translate(-67.192 -110.727)"/></g><path class="f" d="M116.657,93.926h4.112l-3.741,11.559h-4.483Z" transform="translate(-30.449 -86.453)"/><path class="f" d="M132.53,93.926h4.112l-2.592,11.559h-4.483Z" transform="translate(-35.055 -86.453)"/><path class="f" d="M102.626,99.705l2.787-5.779H100.93l-5.573,11.559h10.081l2.457-5.78Z" transform="translate(-25.799 -86.453)"/><path class="f" d="M113.51,83.681h9.467l-.7,2.647H113.51Z" transform="translate(-30.71 -83.681)"/><path class="f" d="M41.457,107.617H51.644L49.792,110H39.167Z" transform="translate(-10.596 -90.157)"/><path class="f" d="M21.874,107.617h10.9L30.253,110H19.628Z" transform="translate(-5.309 -90.157)"/><path class="f" d="M0,117.367H11.335L2.964,127.8H0Z" transform="translate(0.002 -92.795)"/><path class="f" d="M3.2,107.617H13.525L11,110H.375Z" transform="translate(-0.1 -90.157)"/></g><g transform="translate(0 0)"><path class="n" d="M273.137,125.1h0v-15.92H145.8l-.873-8.906h34.967a12.534,12.534,0,0,0,3.578-.476,6.4,6.4,0,0,0,2.435-1.276,3.16,3.16,0,0,0,1.073-1.834,27.776,27.776,0,0,0,.036-2.969L178.03,78.954a4.483,4.483,0,0,0-1.379-1.439,10.025,10.025,0,0,0-2.208-1.137,15.435,15.435,0,0,0-2.73-.748,16.873,16.873,0,0,0-2.992-.27H101.028a16.9,16.9,0,0,0-2.992.27,15.529,15.529,0,0,0-2.736.748,10.108,10.108,0,0,0-2.215,1.137,4.526,4.526,0,0,0-1.39,1.439L83.958,92.938H0v11.79H87.656a17.756,17.756,0,0,0,4.2-.519,17.457,17.457,0,0,0,3.772-1.391,12.175,12.175,0,0,0,2.881-2,6.242,6.242,0,0,0,1.611-2.34l5.563-15.572h58.339l2.28,6.51H135.134a15.02,15.02,0,0,0-3.41.382,11.424,11.424,0,0,0-2.858,1.058,6.9,6.9,0,0,0-2.046,1.616,3.819,3.819,0,0,0-.91,2.062l-2.225,20.6-.074,1.79a7.282,7.282,0,0,0,.7,3.32,8.3,8.3,0,0,0,2.319,2.856,12,12,0,0,0,3.745,2,15.091,15.091,0,0,0,4.757.751h138Z" transform="translate(0 -62.278)"/><path class="o" d="M273.137,122.4h0v-15.92H145.8l-.873-8.907h34.967a12.536,12.536,0,0,0,3.578-.475,6.388,6.388,0,0,0,2.435-1.276,3.158,3.158,0,0,0,1.073-1.833,3.328,3.328,0,0,0-.436-2.155L178.03,76.244a4.471,4.471,0,0,0-1.379-1.439,10.066,10.066,0,0,0-2.208-1.138,15.516,15.516,0,0,0-2.73-.748,16.959,16.959,0,0,0-2.992-.27H101.028a16.983,16.983,0,0,0-2.992.27,15.61,15.61,0,0,0-2.736.748,10.15,10.15,0,0,0-2.215,1.138,4.515,4.515,0,0,0-1.39,1.439L83.958,90.229H0v11.789H87.656a17.709,17.709,0,0,0,4.2-.519,17.458,17.458,0,0,0,3.772-1.391,12.174,12.174,0,0,0,2.881-1.995,6.244,6.244,0,0,0,1.611-2.341L105.679,80.2h58.339l2.28,6.511H135.134a15.021,15.021,0,0,0-3.41.381,11.423,11.423,0,0,0-2.858,1.058,6.9,6.9,0,0,0-2.046,1.617,3.816,3.816,0,0,0-.91,2.061l-2.2,22.391a6.248,6.248,0,0,0,.6,3.32,8.3,8.3,0,0,0,2.319,2.855,11.962,11.962,0,0,0,3.745,2,15.065,15.065,0,0,0,4.757.751h138Z" transform="translate(0 -62.036)"/><g transform="translate(1.458 14.073)"><path class="a" d="M167.335,76.45l.06.269H164.1l-.049-.269Z" transform="translate(-16.148 -76.45)"/><path class="a" d="M116.9,76.45l-.1.269h-3.3l.109-.269Z" transform="translate(-11.622 -76.45)"/><path class="a" d="M124.114,76.45l-.075.269h-3.292l.086-.269Z" transform="translate(-12.27 -76.45)"/><path class="a" d="M131.323,76.45l-.053.269h-3.292l.064-.269Z" transform="translate(-12.918 -76.45)"/><path class="a" d="M138.526,76.45l-.03.269H135.2l.041-.269Z" transform="translate(-13.565 -76.45)"/><path class="a" d="M145.729,76.45l-.007.269H142.43l.019-.269Z" transform="translate(-14.212 -76.45)"/><path class="a" d="M152.933,76.45l.015.269h-3.286l0-.269Z" transform="translate(-14.859 -76.45)"/><path class="a" d="M160.134,76.45l.037.269h-3.292l-.026-.269Z" transform="translate(-15.503 -76.45)"/><path class="a" d="M174.536,76.45l.082.269h-3.292l-.071-.269Z" transform="translate(-16.793 -76.45)"/><path class="a" d="M185.79,76.54a5.076,5.076,0,0,1,.676.137,3.058,3.058,0,0,1,.538.206,1.674,1.674,0,0,1,.394.269,1.051,1.051,0,0,1,.243.332l.238.526h-.559l-.235-.526a.781.781,0,0,0-.172-.246,1.121,1.121,0,0,0-.279-.195,2.067,2.067,0,0,0-.39-.146,4.2,4.2,0,0,0-.506-.1Z" transform="translate(-18.09 -76.458)"/><path class="a" d="M188.292,80.02l.573,0,.794,1.771h-.583Z" transform="translate(-18.318 -76.769)"/><path class="a" d="M107.544,80.557l-.812,1.8h-.587l.824-1.8Z" transform="translate(-10.963 -76.817)"/><path class="a" d="M105.712,84.592l-.884,1.958h-.614l.9-1.958Z" transform="translate(-10.79 -77.179)"/><path class="a" d="M192.593,88.344q.134.29.26.569l.249.547q.122.268.234.518c.076.168.149.33.218.484h-.639c-.068-.155-.141-.317-.216-.484l-.232-.518c-.08-.178-.161-.36-.245-.547s-.168-.376-.254-.569Z" transform="translate(-18.648 -77.515)"/><path class="a" d="M168.72,93.5l.078.386h-3.941L164.8,93.5Z" transform="translate(-16.215 -77.976)"/><path class="a" d="M177.335,93.5l.11.386h-3.934l-.094-.386Z" transform="translate(-16.986 -77.976)"/><path class="a" d="M193.715,93.036l.675.124a.561.561,0,0,1-.284.4,1.793,1.793,0,0,1-.6.2,5.609,5.609,0,0,1-.77.076c-.268.011-.537.011-.783.011h-1.13l-.158-.386h1.125c.263,0,.512,0,.737-.011a4.876,4.876,0,0,0,.6-.055,1.266,1.266,0,0,0,.413-.127A.324.324,0,0,0,193.715,93.036Z" transform="translate(-18.53 -77.935)"/><path class="a" d="M151.527,93.5l.013.386h-.992a6.04,6.04,0,0,0-.757.04,2.066,2.066,0,0,0-.528.128.871.871,0,0,0-.332.231.819.819,0,0,0-.168.347l-.659-.057a1.1,1.1,0,0,1,.336-.573,1.6,1.6,0,0,1,.588-.324,3.513,3.513,0,0,1,.735-.145,7.721,7.721,0,0,1,.778-.034Z" transform="translate(-14.72 -77.976)"/><path class="a" d="M101.506,93.841l-.651,1.441c-.039.086-.077.171-.116.253s-.076.164-.114.243-.077.157-.117.231-.081.149-.125.221l-.661-.034c.041-.068.08-.138.119-.209s.076-.146.114-.221.075-.152.112-.231.074-.158.111-.239l.667-1.456Z" transform="translate(-10.388 -78.007)"/><path class="a" d="M96.1,97.815l-.178.419H91.8l.22-.419H96.1Z" transform="translate(-9.678 -78.363)"/><path class="a" d="M51.21,97.815l-.378.419H46.726l.4-.419Z" transform="translate(-5.642 -78.363)"/><path class="a" d="M60.189,97.815l-.343.419H55.74l.36-.419Z" transform="translate(-6.449 -78.363)"/><path class="a" d="M69.167,97.815l-.307.419H64.753l.325-.419Z" transform="translate(-7.256 -78.363)"/><path class="a" d="M87.118,97.815l-.238.419h-4.1l.255-.419Z" transform="translate(-8.87 -78.363)"/><path class="a" d="M78.139,97.815l-.272.419h-4.1l.29-.419Z" transform="translate(-8.063 -78.363)"/><path class="a" d="M6.085,97.815l-.378.419H1.6l.4-.419Z" transform="translate(-1.601 -78.363)"/><path class="a" d="M15.064,97.815l-.343.419H10.615l.36-.419Z" transform="translate(-2.408 -78.363)"/><path class="a" d="M24.042,97.815l-.307.419H19.628l.325-.419Z" transform="translate(-3.216 -78.363)"/><path class="a" d="M41.993,97.815l-.238.419h-4.1l.255-.419Z" transform="translate(-4.83 -78.363)"/><path class="a" d="M33.014,97.815l-.272.419h-4.1l.29-.419Z" transform="translate(-4.023 -78.363)"/><path class="a" d="M148.735,97.367l.009,2.536h-.7l.009-2.536Z" transform="translate(-14.714 -78.323)"/><path class="a" d="M148.751,103.093l.01,2.819h-.738l.01-2.819Z" transform="translate(-14.713 -78.835)"/><path class="a" d="M148.769,109.46l.011,3.152H148l.011-3.152Z" transform="translate(-14.71 -79.405)"/><path class="a" d="M162.667,117.98l.069.6h-4.888l-.044-.6Z" transform="translate(-15.588 -80.168)"/><path class="a" d="M173.343,117.98l.119.6h-4.888l-.094-.6Z" transform="translate(-16.544 -80.168)"/><path class="a" d="M194.678,117.98l.219.6h-4.881l-.194-.6Z" transform="translate(-18.455 -80.168)"/><path class="a" d="M148.8,116.586a1.136,1.136,0,0,0,.261.662,1.455,1.455,0,0,0,.552.386,2.832,2.832,0,0,0,.679.178,4.62,4.62,0,0,0,.644.043h1.114l.018.6h-1.119a5.3,5.3,0,0,1-1.2-.129,3.073,3.073,0,0,1-.916-.367,1.839,1.839,0,0,1-.594-.577,1.62,1.62,0,0,1-.243-.762Z" transform="translate(-14.71 -80.044)"/><path class="a" d="M200.489,117.981h4.856l.268.6h-4.881Z" transform="translate(-19.411 -80.168)"/><path class="a" d="M168.479,117.981h4.864l.119.6h-4.889Z" transform="translate(-16.544 -80.168)"/><path class="a" d="M162.667,117.981l.069.6h-4.888l-.044-.6Z" transform="translate(-15.588 -80.168)"/><path class="a" d="M181.753,76.45l.105.269h-3.3l-.094-.269Z" transform="translate(-17.439 -76.45)"/><path class="a" d="M109.665,76.886l.3.191a4.266,4.266,0,0,0-.453.215,2.976,2.976,0,0,0-.373.243,1.9,1.9,0,0,0-.284.263,1.132,1.132,0,0,0-.181.274l-.2.437h-.562l.2-.437a1.347,1.347,0,0,1,.218-.328,2.283,2.283,0,0,1,.34-.314,3.542,3.542,0,0,1,.447-.29A4.931,4.931,0,0,1,109.665,76.886Z" transform="translate(-11.121 -76.489)"/><path class="a" d="M190.646,84l.867,1.933h-.61L190.044,84Z" transform="translate(-18.475 -77.125)"/><path class="a" d="M103.71,89l-.973,2.154h-.644L103.082,89Z" transform="translate(-10.6 -77.573)"/><path class="a" d="M185.957,93.5l.142.386h-3.941l-.126-.386Z" transform="translate(-17.758 -77.976)"/><path class="a" d="M160.1,93.5l.046.386H156.2l-.029-.386Z" transform="translate(-15.443 -77.976)"/><path class="a" d="M179.155,117.981h4.856l.169.6H179.3Z" transform="translate(-17.5 -80.168)"/><path class="a" d="M184.011,117.98l.169.6H179.3l-.144-.6Z" transform="translate(-17.5 -80.168)"/><path class="a" d="M205.346,117.98l.268.6h-4.881l-.243-.6Z" transform="translate(-19.411 -80.168)"/><path class="a" d="M216.012,117.98l.319.6h-4.889l-.293-.6Z" transform="translate(-20.365 -80.168)"/><path class="a" d="M221.825,117.981h4.856l.368.6h-4.881Z" transform="translate(-21.321 -80.168)"/><path class="a" d="M226.68,117.98l.368.6h-4.881l-.343-.6Z" transform="translate(-21.321 -80.168)"/><path class="a" d="M232.491,117.981h4.856l.418.6h-4.881Z" transform="translate(-22.276 -80.168)"/><path class="a" d="M237.348,117.98l.418.6h-4.881l-.393-.6Z" transform="translate(-22.276 -80.168)"/><path class="a" d="M248.016,117.98l.468.6H243.6l-.443-.6Z" transform="translate(-23.231 -80.168)"/><path class="a" d="M243.159,117.981h4.856l.468.6H243.6Z" transform="translate(-23.231 -80.168)"/><path class="a" d="M189.822,117.981h4.856l.219.6h-4.882Z" transform="translate(-18.455 -80.168)"/><path class="a" d="M211.149,117.981h4.863l.319.6h-4.889Z" transform="translate(-20.365 -80.168)"/><path class="a" d="M253.285,117.981h4.525l.394.6h-4.426Z" transform="translate(-24.138 -80.168)"/><path class="a" d="M262.761,117.981h4.856l.368.6H263.1Z" transform="translate(-24.987 -80.168)"/><path class="a" d="M267.617,117.98l.368.6H263.1l-.343-.6Z" transform="translate(-24.987 -80.168)"/><path class="a" d="M273.428,117.981h4.856l.418.6h-4.881Z" transform="translate(-25.942 -80.168)"/><path class="a" d="M278.284,117.98l.418.6h-4.881l-.393-.6Z" transform="translate(-25.942 -80.168)"/><path class="a" d="M288.952,117.98l.468.6h-4.881l-.443-.6Z" transform="translate(-26.897 -80.168)"/><path class="a" d="M284.1,117.981h4.856l.468.6h-4.881Z" transform="translate(-26.897 -80.168)"/><path class="a" d="M294.221,117.981h4.525v.6h-4.032Z" transform="translate(-27.804 -80.168)"/></g><g transform="translate(57.734)"><path class="p" d="M76.943,98.166c2.918-.79,10.271-3.16,14.433-4.56,2.291-.771,4.376-1.5,6.106-2.185H75.841c-.168.487-.294.967-.411,1.419-.424,1.66-1.128,4.448-.928,5.324C74.566,98.454,76.057,98.406,76.943,98.166Z" transform="translate(-64.402 -63.717)"/><path class="q" d="M74.865,60.992A11.451,11.451,0,0,0,63.412,72.447c0,3.471,2.312,7.872,4.174,11.453,1.852,3.551,4.945,9.47,6.24,11.313a1.357,1.357,0,0,0,1.971,0A106.345,106.345,0,0,0,82.278,84.2c2.235-4.287,4.039-8.352,4.039-11.749A11.454,11.454,0,0,0,74.865,60.992Zm0,17.15a5.7,5.7,0,1,1,5.7-5.695A5.7,5.7,0,0,1,74.865,78.142Z" transform="translate(-63.412 -60.992)"/><path class="r" d="M81.688,72.447a5.7,5.7,0,0,1-5.7,5.695V95.63a1.308,1.308,0,0,0,.932-.417A106.334,106.334,0,0,0,83.4,84.2c2.235-4.287,4.039-8.352,4.039-11.749A11.454,11.454,0,0,0,75.991,60.992v5.756A5.7,5.7,0,0,1,81.688,72.447Z" transform="translate(-64.538 -60.992)"/><path class="s" d="M75.15,64.184A8.548,8.548,0,1,0,83.7,72.733,8.548,8.548,0,0,0,75.15,64.184Zm0,14.244a5.7,5.7,0,1,1,5.7-5.695A5.7,5.7,0,0,1,75.15,78.428Z" transform="translate(-63.698 -61.278)"/></g><g transform="translate(201.711 12.245)"><path class="t" d="M37.716,6.488,27.973.588A60.48,60.48,0,0,0,17.5.088a24.392,24.392,0,0,0-8.382,2C5.748,3.572,3.263,4.629,0,5.047L35.64,8.63l2.076-2.143" transform="translate(3.644 26.388)"/><path class="u" d="M9.766,0A21.38,21.38,0,0,0,1.915,1.175c-.159.065-.449.2-.51.228l-.529.261-.019.023s-2.366,1.933.761,2.34c3.33.118,7.046.268,10.377.444L12.611.091C11.705.036,10.748,0,9.766,0" transform="translate(13.538 27.71)"/><path class="u" d="M10.4,4.225,3.821.324S1.521.1.451,0L0,4.225c5.317.291,10.4,0,10.4,0" transform="translate(27.216 27.918)"/><path class="t" d="M50.837,11.431V7.406s-.524-3.037-2.653-4.328c0,0-3.212-1.536-13.3-2.059L3.646.006A2.846,2.846,0,0,0,.47,2.729L0,9.993l8.207,1.443,42.629,0" transform="translate(0 30.929)"/><path class="v" d="M.51,2.295c.6.868,1.476,1.3,1.965.962s.4-1.312-.192-2.18S.807-.222.317.114s-.4,1.312.193,2.18" transform="translate(47.018 34.618)"/><g transform="translate(37.523 36.417)"><path class="b" d="M0,0H9.721V9.721H0Z" transform="translate(0 0)"/><g class="w" transform="translate(0 0)"><path class="x" d="M5.821.1A4.86,4.86,0,1,1,.1,3.9,4.858,4.858,0,0,1,5.821.1" transform="translate(0 0)"/></g></g><path class="y" d="M1.571,3.879A1.959,1.959,0,1,0,.039,1.57,1.96,1.96,0,0,0,1.571,3.879" transform="translate(40.425 39.319)"/><path class="z" d="M3.856,0,0,3.856l2.709.508s0-.141-.006-.211A6.358,6.358,0,0,1,3.856,0" transform="translate(3.205 37.574)"/><path class="aa" d="M.5,0V0Z" transform="translate(26.716 31.792)"/><path class="b" d="M0,46.138H51.255V0H0Z" transform="translate(0 0)"/><g class="ab" transform="translate(0 0)"><path class="t" d="M.275,10.587H.484V0H.275Z" transform="translate(26.837 31.792)"/><path class="aa" d="M.5,0V0Z" transform="translate(13.338 31.27)"/><path class="t" d="M.275,11.108H.484V0H.275Z" transform="translate(13.458 31.271)"/><path class="x" d="M3.9,9.624a4.86,4.86,0,1,1,5.726-3.8A4.858,4.858,0,0,1,3.9,9.624" transform="translate(7.9 36.417)"/><path class="y" d="M2.347.039A1.959,1.959,0,1,0,3.878,2.345,1.956,1.956,0,0,0,2.347.039" transform="translate(10.803 39.319)"/><path class="ac" d="M0,.652H2.746V0H0Z" transform="translate(28.102 33.392)"/><path class="ad" d="M0,.652H2.746V0H0Z" transform="translate(28.102 33.392)"/><path class="ac" d="M0,.652H2.746V0H0Z" transform="translate(14.699 33.392)"/><path class="ad" d="M0,.652H2.746V0H0Z" transform="translate(14.699 33.392)"/><path class="z" d="M2.932,0H0A4.029,4.029,0,0,1,.178.481,5.665,5.665,0,0,1,0,3.141H2.932a.418.418,0,0,0,.419-.418V.419A.419.419,0,0,0,2.932,0" transform="translate(47.905 39.372)"/><path class="ae" d="M8.56,21.987a.615.615,0,0,1-.375-.128,28.966,28.966,0,0,1-4.068-4C1.385,14.6,0,11.469,0,8.552a8.559,8.559,0,0,1,17.119,0c0,2.917-1.385,6.049-4.117,9.309a29.3,29.3,0,0,1-4.068,4A.607.607,0,0,1,8.56,21.987Zm0-16.6a3.167,3.167,0,1,0,3.17,3.167A3.172,3.172,0,0,0,8.559,5.385Z" transform="translate(16.77 0)"/><path class="af" d="M1.1,0A8.648,8.648,0,0,0,0,.071,8.568,8.568,0,0,1,7.456,8.552c0,2.917-1.385,6.049-4.116,9.308A30.527,30.527,0,0,1,0,21.254c.428.371.7.583.73.605a.612.612,0,0,0,.749,0,29.267,29.267,0,0,0,4.068-4C8.279,14.6,9.664,11.47,9.664,8.552A8.566,8.566,0,0,0,1.1,0" transform="translate(24.261 0)"/></g></g></g></g></g></g></svg>