<svg xmlns="http://www.w3.org/2000/svg" xmlns:xlink="http://www.w3.org/1999/xlink" width="61" height="61" viewBox="0 0 61 61"><defs><style>.a{fill:#fff;}.b{fill:#0855c4;}.c{filter:url(#a);}</style><filter id="a" x="0" y="0" width="61" height="61" filterUnits="userSpaceOnUse"><feOffset dy="3" input="SourceAlpha"/><feGaussianBlur stdDeviation="3" result="b"/><feFlood flood-opacity="0.161"/><feComposite operator="in" in2="b"/><feComposite in="SourceGraphic"/></filter></defs><g transform="translate(-232 -356)"><g transform="translate(-17 7)"><g transform="translate(258 355)"><g class="c" transform="matrix(1, 0, 0, 1, -9, -6)"><circle class="a" cx="21.5" cy="21.5" r="21.5" transform="translate(9 6)"/></g></g></g><rect class="b" width="4.078" height="1.373" transform="translate(264.904 387.521)"/><rect class="b" width="4.078" height="1.373" transform="translate(257.499 387.521)"/><rect class="b" width="4.078" height="1.373" transform="translate(257.499 383.293)"/><rect class="b" width="4.078" height="1.373" transform="translate(264.904 383.293)"/><path class="b" d="M94.665,2007.6H91.788v-2.24h-1.6v2.24H80.65v-2.24h-1.6v2.24H76.281a2.7,2.7,0,0,0-2.692,2.692v13.075a2.7,2.7,0,0,0,2.692,2.693H94.665a2.7,2.7,0,0,0,2.693-2.693v-13.075A2.7,2.7,0,0,0,94.665,2007.6Zm-18.383,1.6H94.665a1.091,1.091,0,0,1,1.09,1.09v1.505H75.191v-1.505A1.091,1.091,0,0,1,76.281,2009.2Zm18.383,15.256H76.281a1.092,1.092,0,0,1-1.09-1.09V2013.4H95.755v9.968A1.092,1.092,0,0,1,94.665,2024.46Z" transform="translate(177.027 -1632.212)"/></g></svg>