<svg xmlns="http://www.w3.org/2000/svg" xmlns:xlink="http://www.w3.org/1999/xlink" width="61" height="61" viewBox="0 0 61 61"><defs><style>.a{fill:#fff;}.b{fill:#0855c4;}.c{filter:url(#a);}</style><filter id="a" x="0" y="0" width="61" height="61" filterUnits="userSpaceOnUse"><feOffset dy="3" input="SourceAlpha"/><feGaussianBlur stdDeviation="3" result="b"/><feFlood flood-opacity="0.161"/><feComposite operator="in" in2="b"/><feComposite in="SourceGraphic"/></filter></defs><g transform="translate(-296 -356)"><g transform="translate(-3.941 7)"><g class="c" transform="matrix(1, 0, 0, 1, 299.94, 349)"><circle class="a" cx="21.5" cy="21.5" r="21.5" transform="translate(9 6)"/></g></g><path class="b" d="M319.849,2008.638a1.69,1.69,0,0,0-1.492-.88H297.632a1.7,1.7,0,0,0-1.6,1.1,1.729,1.729,0,0,0,.45,1.916l7.524,6.833a.132.132,0,0,1,.04.071l1.96,9.489a1.713,1.713,0,0,0,1.383,1.351,1.737,1.737,0,0,0,.3.026,1.7,1.7,0,0,0,1.451-.817l10.671-17.325A1.745,1.745,0,0,0,319.849,2008.638Zm-22.286.951h0a.126.126,0,0,1-.033-.153.1.1,0,0,1,.1-.076h19.344l-12.095,6.875Zm10.214,17.3a.094.094,0,0,1-.107.053.109.109,0,0,1-.092-.1l-1.9-9.217,12.011-6.826Z" transform="translate(18.507 -1632.545)"/></g></svg>