<svg xmlns="http://www.w3.org/2000/svg" xmlns:xlink="http://www.w3.org/1999/xlink" width="54" height="54" viewBox="0 0 54 54"><defs><style>.a,.o,.p{fill:none;}.a{stroke:#707070;}.b{fill:#dce0ea;}.c{clip-path:url(#a);}.d{fill:#fff;}.e{fill:#030643;}.f{fill:#ffcebf;}.g{fill:#0854c4;}.h{fill:#ffb09e;}.i{fill:#7a6d79;}.j{fill:#020761;}.k{fill:#efedef;}.l{fill:#e5e1e5;}.m{fill:#c9bfc8;}.n{fill:#2ed35a;}.o,.p{stroke:#020761;stroke-linecap:round;}.o{stroke-width:0.5px;}.q{fill:#685e68;}</style><clipPath id="a"><path class="a" d="M27,0A27,27,0,1,1,0,27,27,27,0,0,1,27,0Z"/></clipPath></defs><g transform="translate(-2327.185 -2181.541)"><path class="b" d="M27,0A27,27,0,1,1,0,27,27,27,0,0,1,27,0Z" transform="translate(2327.185 2181.541)"/><g class="c" transform="translate(2327.185 2181.541)"><g transform="translate(2.814 12.854)"><g transform="translate(0 0)"><path class="d" d="M3.806,6.552A6.694,6.694,0,0,1,10.725,0a6.707,6.707,0,0,1,6.718,6.508,6.429,6.429,0,0,1-2.337,4.98.278.278,0,0,0,.044.459l1.285.73a.227.227,0,0,1-.121.424H10.5a6.683,6.683,0,0,1-6.69-6.55Z" transform="translate(-3.806 0)"/></g><path class="e" d="M179.8,23.78H164.336a4.37,4.37,0,0,1-3.51-7.182l.137-.159a6.845,6.845,0,0,0,1.682-4.477V9.1a9.474,9.474,0,0,1,18.934,0v2.963a6.848,6.848,0,0,0,1.715,4.516A4.369,4.369,0,0,1,179.8,23.78Z" transform="translate(-146.58 0)"/><path class="d" d="M149.381,251.807v9.825H117.65v-9.752a5.487,5.487,0,0,1,3.494-5.056l5.123-2.14,1.725-.72a3.442,3.442,0,0,0,2.155-3.158v-.636h6.737v.6a3.443,3.443,0,0,0,2.173,3.165l6.928,2.854A5.48,5.48,0,0,1,149.381,251.807Z" transform="translate(-108.025 -220.661)"/><path class="f" d="M215.943,247.029a25.5,25.5,0,0,0,14.5-.131l.835-1.911-2.544-1.047a3.443,3.443,0,0,1-2.172-3.165v-.6h-6.737v.636a3.442,3.442,0,0,1-2.155,3.158l-2.06.861Z" transform="translate(-197.701 -220.663)"/><path class="g" d="M396.273,297.375l-5.219-2.149h0v16.99h8.617v-9.825A5.481,5.481,0,0,0,396.273,297.375Z" transform="translate(-358.314 -271.245)"/><path class="g" d="M126.267,295.75V312.7H117.65v-9.752a5.487,5.487,0,0,1,3.494-5.056Z" transform="translate(-108.025 -271.727)"/><path class="h" d="M267.77,243.726a5.867,5.867,0,0,0,2.187-.419,3.383,3.383,0,0,1-1.154-2.53v-.6h-6.737v.636a3.324,3.324,0,0,1-.314,1.408,5.789,5.789,0,0,0,3.921,1.509h2.1Z" transform="translate(-239.944 -220.664)"/><path class="f" d="M239.129,80.1v5.355a5.577,5.577,0,0,1-5.685,5.462h-2.1a5.577,5.577,0,0,1-5.685-5.462V80.1a3.628,3.628,0,0,1,3.7-3.554h6.07A3.628,3.628,0,0,1,239.129,80.1Z" transform="translate(-206.905 -70.327)"/><path class="i" d="M335.208,154.593c0,.007-.006.015-.008.022a5.747,5.747,0,0,1-2.048,2.936,5.828,5.828,0,0,1-2.058.966.616.616,0,0,0-.459.755.64.64,0,0,0,.622.462.669.669,0,0,0,.164-.02,7.133,7.133,0,0,0,2.517-1.183,6.759,6.759,0,0,0,1.267-1.224c0-.048,0-.1,0-.144v-2.569Z" transform="translate(-302.984 -142.036)"/><path class="j" d="M321.1,19.37c.144-1.75,1.888-2.911,3.556-3.512a9.026,9.026,0,0,1,4.608,7.807v.625c-.153.031-.3.058-.455.079a7.974,7.974,0,0,1-2.237,0C323.123,23.929,320.922,21.483,321.1,19.37Z" transform="translate(-294.263 -14.57)"/><path class="j" d="M203.295,0a9.678,9.678,0,0,1,5.695,1.83A16.522,16.522,0,0,1,202.98,7.7,17.227,17.227,0,0,1,196.6,9.8h-2.775V9.1A9.286,9.286,0,0,1,203.295,0Z" transform="translate(-177.763 0)"/><path class="k" d="M195.535,372.45h-20.6l-1.136-10.3a1.256,1.256,0,0,1,1.28-1.367h20.312a1.256,1.256,0,0,1,1.28,1.367Z" transform="translate(-159.42 -331.479)"/><path class="l" d="M401.4,360.785h-2.574a1.256,1.256,0,0,1,1.28,1.367l-1.136,10.3h2.574l1.136-10.3A1.256,1.256,0,0,0,401.4,360.785Z" transform="translate(-365.429 -331.479)"/><ellipse class="m" cx="1.802" cy="1.731" rx="1.802" ry="1.731" transform="translate(24.013 33.407)"/><g transform="translate(3.601 5.933)"><ellipse class="n" cx="0.643" cy="0.618" rx="0.643" ry="0.618"/><ellipse class="n" cx="0.643" cy="0.618" rx="0.643" ry="0.618" transform="translate(2.574)"/><ellipse class="n" cx="0.643" cy="0.618" rx="0.643" ry="0.618" transform="translate(5.148)"/></g><path class="j" d="M.59-.017a.566.566,0,0,1,.583.581.623.623,0,0,1-.607.6A.566.566,0,0,1-.017.588.623.623,0,0,1,.59-.017Z" transform="translate(22.69 12.553) rotate(-137)"/><path class="j" d="M.013.5a.6.6,0,0,0,.512.668A.592.592,0,0,0,1.21.681.6.6,0,0,0,.7.014.592.592,0,0,0,.013.5Z" transform="translate(27.254 11.083) rotate(-11)"/><path class="o" d="M.587.006C-.855,1.56.868,1.729.868,1.729" transform="translate(23.918 12.616) rotate(-11)"/><path class="p" d="M2052.436,2455.058a4.628,4.628,0,0,0,2.138.582" transform="translate(-2028.571 -2438.704)"/><path class="q" d="M298.162,196.925h-1.508a1.2,1.2,0,1,1,0-2.388h1.508a1.2,1.2,0,1,1,0,2.388Z" transform="translate(-270.758 -178.735)"/></g></g></g></svg>