<svg xmlns="http://www.w3.org/2000/svg" width="14.612" height="13.364" viewBox="0 0 14.612 13.364"><defs><style>.a{fill:#fff;}</style></defs><path class="a" d="M351.95,238.782l1.858,3.605a.514.514,0,0,0,.389.271l4.153.578a.49.49,0,0,1,.287.845l-3.005,2.807a.482.482,0,0,0-.148.439l.709,3.963a.513.513,0,0,1-.75.522l-3.715-1.871a.537.537,0,0,0-.481,0l-3.715,1.871a.513.513,0,0,1-.75-.522l.709-3.963a.483.483,0,0,0-.149-.439l-3-2.807a.49.49,0,0,1,.286-.845l4.153-.578a.516.516,0,0,0,.389-.271l1.857-3.605A.527.527,0,0,1,351.95,238.782Z" transform="translate(-344.181 -238.505)"/></svg>