<?xml version="1.0" encoding="utf-8"?>
<!-- Generator: Adobe Illustrator 23.0.1, SVG Export Plug-In . SVG Version: 6.00 Build 0)  -->
<svg version="1.1" id="Capa_1" xmlns="http://www.w3.org/2000/svg" xmlns:xlink="http://www.w3.org/1999/xlink" x="0px" y="0px"
	 viewBox="0 0 41 28.6" style="enable-background:new 0 0 41 28.6;" xml:space="preserve">
<style type="text/css">
	.st0{fill:none;stroke:#8C8C8C;stroke-width:2.15;stroke-miterlimit:10;}
</style>
<title>Recurso 31</title>
<g id="f3e9d2be-342b-4071-921b-8cf524d0b735">
	<g id="ae692d21-5b2e-4128-a749-7113bfb401f7">
		<path class="st0" d="M35.7,22.6h0.3c2.2,0,4-1.8,4-4v-4.8c0-2.2-1.8-4-4-4h-3.6L31,4.1c-0.5-1.8-2.1-3-3.9-3H13.9
			c-1.8,0-3.5,1.2-3.9,3L8.6,9.8H5.1c-2.2,0-4,1.8-4,4v4.7c0,2.2,1.8,4,4,4l0,0"/>
		<line class="st0" x1="18.8" y1="22.6" x2="22.1" y2="22.6"/>
		<line class="st0" x1="36.7" y1="16.7" x2="40.1" y2="16.7"/>
		<path class="st0" d="M26.8,10.2h-4.7c-0.6,0-1.1-0.5-1.1-1.1c0,0,0,0,0,0V5.4c0-0.6,0.5-1.1,1.1-1.1h4c0.5,0,1,0.4,1.1,0.9
			l0.7,3.7c0.1,0.6-0.3,1.2-0.9,1.3C26.9,10.2,26.9,10.2,26.8,10.2z"/>
		<circle class="st0" cx="29.2" cy="22.6" r="5"/>
		<circle class="st0" cx="11.8" cy="22.6" r="5"/>
	</g>
</g>
</svg>
