<svg xmlns="http://www.w3.org/2000/svg" viewBox="0 0 91.75 83.57"><defs><style>.b1bf928d-d796-4a5c-ae3f-76dec50b62c5{fill:#0055c8;}</style></defs><title>Recurso 1</title><g id="a822997f-8de2-44fa-ad9d-3ca9443e20b4" data-name="Capa 2"><g id="b14fc68e-222a-41a3-93ca-0d78d7fb541e" data-name="Capa 1"><path class="b1bf928d-d796-4a5c-ae3f-76dec50b62c5" d="M70.2,19.7c0,2.78-2,4.47-3.51,5.71-.55.47-1.6,1.33-1.59,1.65a2.24,2.24,0,0,1-2.26,2.26h0a2.24,2.24,0,0,1-2.27-2.22c0-2.47,1.77-3.94,3.22-5.15,1.13-1,1.88-1.63,1.88-2.24a2.26,2.26,0,0,0-4.51,0,2.27,2.27,0,0,1-4.54,0,6.8,6.8,0,0,1,13.6,0ZM62.88,31.42a2.23,2.23,0,0,0-2.22,2.27v0A2.23,2.23,0,0,0,62.88,36a2.28,2.28,0,1,0,0-4.56ZM17,47.26a2.28,2.28,0,0,0,0,4.55h.19a2.28,2.28,0,1,0,0-4.55Zm7.91,0a2.28,2.28,0,1,0,0,4.55h.19a2.28,2.28,0,0,0,0-4.55ZM91.75,10.93V36.54a10.93,10.93,0,0,1-10.92,11H49.88c-.42,0-.89,0-1.07,0s-.66.56-1.11,1l-.6.54-8.34,7.61A2.33,2.33,0,0,1,34.88,55V30.84H11.05a6.52,6.52,0,0,0-6.5,6.46V62.9a6.42,6.42,0,0,0,6.5,6.35H44a2.26,2.26,0,0,1,1.52.65l6.8,6.27V54.55a2.28,2.28,0,1,1,4.55,0V81.32a2.25,2.25,0,0,1-1.34,2.07,2.19,2.19,0,0,1-.9.18A2.32,2.32,0,0,1,53.09,83l-10-9.15H11.05A11,11,0,0,1,0,62.9V37.3a11.07,11.07,0,0,1,11.05-11H34.88V10.93A11,11,0,0,1,46,0H80.83A10.89,10.89,0,0,1,91.75,10.93Zm-4.55,0a6.34,6.34,0,0,0-6.37-6.38H46a6.48,6.48,0,0,0-6.54,6.38V49.8L44,45.66c.21-.19.45-.37.62-.53C46.71,43.21,47.25,42.9,50,43H80.83a6.38,6.38,0,0,0,6.37-6.43Z"/></g></g></svg>