<?xml version="1.0" encoding="UTF-8"?>
<svg width="27px" height="25px" viewBox="0 0 27 25" version="1.1" xmlns="http://www.w3.org/2000/svg" xmlns:xlink="http://www.w3.org/1999/xlink">
    <!-- Generator: sketchtool 54.1 (76490) - https://sketchapp.com -->
    <title>E6535F2A-3954-4EAF-91CA-3334991BEE5B</title>
    <desc>Created with sketchtool.</desc>
    <g id="Web" stroke="none" stroke-width="1" fill="none" fill-rule="evenodd">
        <g id="Home-Web-Nueva-Menu" transform="translate(-1006.000000, -367.000000)">
            <g id="Group-14" transform="translate(1006.000000, 368.000000)">
                <g id="Group-5">
                    <path d="M12.9308458,12.7963636 L12.6143874,12.7963636 C11.8408221,12.7963636 11.4562372,13.1803636 11.4562372,13.9461818 L11.4562372,14.1905455 C11.4562372,14.9585455 11.8408221,15.3425455 12.6143874,15.3425455 L12.9308458,15.3425455 C13.7219921,15.3425455 14.1263557,14.9585455 14.1263557,14.1905455 L14.1263557,13.9461818 C14.1263557,13.1803636 13.7395731,12.7963636 12.9308458,12.7963636 M13.1769802,3.70909091 C10.5068617,3.70909091 9.17290119,5.28 9.17290119,6.51709091 C9.17290119,7.59709091 10.3112727,7.74981818 10.717834,7.74981818 C10.8013439,7.74981818 10.8562846,7.74327273 10.8584822,7.73890909 C10.9991304,6.744 11.6672095,5.73163636 13.1418182,5.73163636 C14.1769012,5.73163636 14.7746561,6.22036364 14.7746561,7.00581818 C14.7746561,8.48509091 11.7880791,8.05090909 11.7199526,10.9636364 C11.7001739,11.5396364 12.1418972,11.8189091 12.7726166,11.8189091 C13.3352095,11.8189091 13.68683,11.6618182 13.7747352,11.3476364 C13.9329644,9.32509091 17.1458972,9.70909091 17.1458972,6.83127273 C17.1458972,4.96363636 15.6537075,3.70909091 13.1769802,3.70909091" id="Fill-1" fill="#00AAFF"></path>
                    <path d="M22.9768648,17.9589818 L7.58027984,17.9589818 L5.57384506,22.4600727 L3.34105455,17.9589818 C2.10159209,17.9589818 1.09947352,16.9618909 1.09947352,15.7313455 L1.09947352,3.3168 C1.09947352,2.08843636 2.10159209,1.09134545 3.34105455,1.09134545 L22.9768648,1.09134545 C24.2141296,1.09134545 25.2206435,2.08843636 25.2206435,3.3168 L25.2206435,15.7313455 C25.2206435,16.9618909 24.2141296,17.9589818 22.9768648,17.9589818 Z" id="Stroke-3" stroke="#00AAFF" stroke-width="2.20000005" stroke-linejoin="round"></path>
                </g>
            </g>
        </g>
    </g>
</svg>