<?xml version="1.0" encoding="UTF-8"?>
<svg width="133px" height="128px" viewBox="0 0 133 128" version="1.1" xmlns="http://www.w3.org/2000/svg" xmlns:xlink="http://www.w3.org/1999/xlink">
    <!-- Generator: sketchtool 53.2 (72643) - https://sketchapp.com -->
    <title>946BE930-AAB9-4CEE-AE64-FFF6BD733972</title>
    <desc>Created with sketchtool.</desc>
    <g id="Web" stroke="none" stroke-width="1" fill="none" fill-rule="evenodd">
        <g id="Tu-carro-GPS-Manual" transform="translate(-655.000000, -174.000000)" fill-rule="nonzero">
            <g id="Group-2" transform="translate(636.000000, 174.000000)">
                <g id="Recurso-58" transform="translate(19.475000, 0.000000)">
                    <ellipse id="Oval" fill="#0055C7" opacity="0.2" cx="65.9880431" cy="63.5964889" rx="64.0037395" ry="63.5964889"></ellipse>
                    <ellipse id="Oval" fill="#96BAE2" cx="24.0006916" cy="41.7076482" rx="17.5318052" ry="17.3685642"></ellipse>
                    <rect id="Rectangle" fill="#739ED7" x="23.4136448" y="39.4123053" width="1.17267223" height="67.7295144"></rect>
                    <polygon id="Rectangle" fill="#739ED7" transform="translate(27.340243, 49.100968) rotate(45.000000) translate(-27.340243, -49.100968) " points="26.7793748 44.2424338 27.9465876 44.2369743 27.901112 53.959503 26.7338992 53.9649625"></polygon>
                    <polygon id="Rectangle" fill="#739ED7" transform="translate(21.998982, 44.180184) rotate(135.000000) translate(-21.998982, -44.180184) " points="21.4022761 41.376851 22.5694889 41.3823105 22.5956877 46.983517 21.4284749 46.9780576"></polygon>
                    <path d="M25.5756259,25.9247013 C29.7496876,25.9198043 33.7874026,27.3965562 36.9569429,30.0872987 C32.5804551,25.2809174 25.8690139,23.2846503 19.5439523,24.9079371 C13.2188907,26.5312239 8.32995895,31.5046529 6.85950489,37.8116146 C5.38905083,44.1185763 7.58112105,50.7123244 12.5468821,54.9192478 C7.91087957,49.8216799 6.73861383,42.4980217 9.55531934,36.2296431 C12.3720249,29.9612645 18.6496991,25.9231977 25.5756259,25.9247013 Z" id="Path" fill="#739ED7"></path>
                    <rect id="Rectangle" fill="#739ED7" x="91.7186039" y="15.3097965" width="35.4758224" height="92.474156"></rect>
                    <polygon id="Path" fill="#FF876E" opacity="0.08" style="mix-blend-mode: screen;" points="91.7186039 15.3097965 127.195848 107.783952 91.7186039 107.783952"></polygon>
                    <rect id="Rectangle" fill="#608BBA" x="96.6949984" y="19.3456571" width="2.85279171" height="7.09444027"></rect>
                    <rect id="Rectangle" fill="#608BBA" x="105.682643" y="19.3456571" width="2.85279171" height="7.09444027"></rect>
                    <rect id="Rectangle" fill="#608BBA" x="96.6949984" y="27.3145808" width="2.85279171" height="7.09444027"></rect>
                    <rect id="Rectangle" fill="#608BBA" x="101.102825" y="27.3145808" width="2.85279171" height="7.09444027"></rect>
                    <rect id="Rectangle" fill="#608BBA" x="114.671708" y="35.3510973" width="2.85279171" height="7.09444027"></rect>
                    <rect id="Rectangle" fill="#608BBA" x="110.09189" y="43.320021" width="2.85279171" height="7.09444027"></rect>
                    <rect id="Rectangle" fill="#608BBA" x="114.671708" y="55.1797622" width="2.85279171" height="7.09444027"></rect>
                    <rect id="Rectangle" fill="#608BBA" x="110.09189" y="64.3597257" width="2.85279171" height="7.09444027"></rect>
                    <rect id="Rectangle" fill="#608BBA" x="96.6949984" y="55.6867091" width="2.85279171" height="7.09444027"></rect>
                    <rect id="Rectangle" fill="#739ED7" x="96.6949984" y="11.0275033" width="11.8418574" height="4.28229314"></rect>
                    <polygon id="Path" fill="#FF876E" opacity="0.08" style="mix-blend-mode: screen;" points="96.6949984 11.0275033 96.6949984 15.3097965 108.535434 15.3097965"></polygon>
                    <ellipse id="Oval" fill="#628BB7" cx="65.9880431" cy="108.288083" rx="65.9880431" ry="3.42189159"></ellipse>
                    <ellipse id="Oval" fill="#96BAE2" cx="62.0848213" cy="30.9927622" rx="17.2844779" ry="17.1235398"></ellipse>
                    <rect id="Rectangle" fill="#739ED7" x="61.5077244" y="28.7298075" width="1.1570366" height="64.7920387"></rect>
                    <polygon id="Rectangle" fill="#739ED7" transform="translate(66.932965, 39.310274) rotate(45.000000) translate(-66.932965, -39.310274) " points="66.3898037 32.3294979 67.5414537 32.3241112 67.4761255 46.29105 66.3244756 46.2964367"></polygon>
                    <polygon id="Rectangle" fill="#739ED7" transform="translate(63.326103, 54.244993) rotate(45.000000) translate(-63.326103, -54.244993) " points="62.7592049 52.3391161 63.9108548 52.3337295 63.8930008 56.150869 62.7413508 56.1562556"></polygon>
                    <polygon id="Rectangle" fill="#739ED7" transform="translate(59.346761, 34.690020) rotate(135.000000) translate(-59.346761, -34.690020) " points="58.7529832 30.8489651 59.9046331 30.8543518 59.9405398 38.5310748 58.7888898 38.5256881"></polygon>
                    <polygon id="Rectangle" fill="#739ED7" transform="translate(68.272466, 35.298497) rotate(135.000000) translate(-68.272466, -35.298497) " points="67.6892663 33.7190051 68.8409162 33.7243918 68.8556667 36.8779885 67.7040167 36.8726018"></polygon>
                    <path d="M63.6796555,15.4238595 C67.827203,15.4192854 71.83696,16.8984424 74.971423,19.5892732 C70.6799391,14.8336852 64.0754558,12.8363331 57.8347147,14.4067269 C51.5939735,15.9771206 46.7521588,20.8547707 45.2716173,27.0628068 C43.7910758,33.2708428 45.9173926,39.7795054 50.7887896,43.9508883 C46.247946,38.9172457 45.1171306,31.709874 47.9014676,25.5482352 C50.6858045,19.3865963 56.8653084,15.4213997 63.6796555,15.4238595 L63.6796555,15.4238595 Z" id="Path" fill="#739ED7"></path>
                    <ellipse id="Oval" fill="#4D4D4D" transform="translate(27.451871, 98.530297) rotate(-13.160000) translate(-27.451871, -98.530297) " cx="27.4518713" cy="98.5302971" rx="8.65797708" ry="8.58568419"></ellipse>
                    <ellipse id="Oval" fill="#4D4D4D" transform="translate(87.946539, 98.529335) rotate(-13.160000) translate(-87.946539, -98.529335) " cx="87.9465389" cy="98.529335" rx="8.65797708" ry="8.58568419"></ellipse>
                    <path d="M12.1574128,85.7275376 L24.1968477,80.0652223 L24.1968477,80.0652223 L37.4160619,59.5578119 C37.6713579,59.1266833 38.1382104,58.861935 38.6427481,58.8621681 L104.883804,58.8621681 C105.668833,58.8621681 106.305225,59.4926344 106.305225,60.270354 L109.456515,81.9099458 L109.456515,97.8759569 C109.456515,98.6536764 108.820123,99.2841427 108.035094,99.2841427 L8.80001668,99.2841427 C8.40750215,99.2841427 8.08930624,98.9689096 8.08930624,98.5800498 L7.52073789,92.59526 C7.51773384,89.5863952 9.34922715,86.8736349 12.1574128,85.7275376 L12.1574128,85.7275376 Z" id="Path" fill="#666666"></path>
                    <path d="M27.5187083,85.7275376 L39.5581432,80.0652223 L39.5581432,80.0652223 L52.7773574,59.5578119 C53.0326534,59.1266833 53.4995059,58.861935 54.0040436,58.8621681 L120.252207,58.8621681 C121.037236,58.8621681 121.673628,59.4926344 121.673628,60.270354 L124.823496,81.9099458 L124.823496,97.8759569 C124.823496,98.6536764 124.187104,99.2841427 123.402075,99.2841427 L24.164155,99.2841427 C23.7716405,99.2841427 23.4534446,98.9689096 23.4534446,98.5800498 L22.8848762,92.59526 C22.8810115,89.5869661 24.7113822,86.8742055 27.5187083,85.7275376 Z" id="Path" fill="#333333"></path>
                    <polygon id="Path" fill="#C3D3E2" points="63.2248009 62.3840409 53.0118918 62.3840409 42.2773213 79.0724513 63.2248009 79.0724513"></polygon>
                    <polygon id="Path" fill="#333333" points="14.7060205 100.889475 122.448302 100.889475 122.904578 99.6080254 14.2497443 99.6080254"></polygon>
                    <polygon id="Path" fill="#DDEBFA" points="49.0091706 62.3840409 37.4117976 62.3840409 26.6772271 79.0724513 38.5347201 79.0724513"></polygon>
                    <rect id="Rectangle" fill="#1A1A1A" transform="translate(65.988043, 96.814185) rotate(180.000000) translate(-65.988043, -96.814185) " x="6.04103875" y="93.9203628" width="119.894009" height="5.78764381" rx="2.17854019"></rect>
                    <rect id="Rectangle" fill="#4D4D4D" transform="translate(15.707411, 96.814185) rotate(180.000000) translate(-15.707411, -96.814185) " x="6.04103875" y="93.9203628" width="19.3327454" height="5.78764381" rx="2.17854019"></rect>
                    <path d="M20.4599322,92.2868673 C20.1182983,92.2872599 19.7957627,92.1308014 19.5865786,91.8632129 C19.3773945,91.5956245 19.3051747,91.2471116 19.3910237,90.9195188 L19.7492217,89.5437212 C19.8754935,89.0612145 20.314986,88.7242424 20.8181302,88.7241571 L23.9637347,88.7241571 C23.2999983,89.8004547 22.9242764,91.0266597 22.8720834,92.2868673 L20.4599322,92.2868673 Z" id="Path" fill="#FFFFFF"></path>
                    <path d="M27.3282379,90.0915055 L26.9700398,91.4673031 C26.843327,91.9495216 26.4041045,92.2862867 25.9011313,92.2868673 L22.8720834,92.2868673 C22.9242764,91.0266597 23.2999983,89.8004547 23.9637347,88.7241571 L26.2593294,88.7241571 C26.6007581,88.7243275 26.9229122,88.8809303 27.1319706,89.1483579 C27.341029,89.4157856 27.4134853,89.7639686 27.3282379,90.0915055 L27.3282379,90.0915055 Z" id="Path" fill="#FBB03B"></path>
                    <path d="M11.256232,90.9195188 L11.61443,89.5437212 C11.7407018,89.0612145 12.1801943,88.7242424 12.6833385,88.7241571 L18.1245377,88.7241571 C18.4659664,88.7243275 18.7881205,88.8809303 18.9971789,89.1483579 C19.2062373,89.4157856 19.2786936,89.7639686 19.1934462,90.0915055 L18.8352481,91.4673031 C18.7085353,91.9495216 18.2693128,92.2862867 17.7663396,92.2868673 L12.3251405,92.2868673 C11.9837118,92.2866968 11.6615576,92.130094 11.4524992,91.8626664 C11.2434408,91.5952388 11.1709846,91.2470557 11.256232,90.9195188 L11.256232,90.9195188 Z" id="Path" fill="#333333"></path>
                    <rect id="Rectangle" fill="#1A1A1A" transform="translate(58.961960, 82.264105) rotate(-180.000000) translate(-58.961960, -82.264105) " x="56.6279865" y="81.510021" width="4.66794618" height="1.50816704" rx="0.754083518"></rect>
                    <rect id="Rectangle" fill="#333333" transform="translate(69.056891, 58.308047) rotate(180.000000) translate(-69.056891, -58.308047) " x="42.0584225" y="57.7553341" width="53.9969365" height="1.10542588"></rect>
                    <rect id="Rectangle" fill="#1A1A1A" transform="translate(86.168666, 58.308047) rotate(180.000000) translate(-86.168666, -58.308047) " x="56.9776561" y="57.7553341" width="58.3820199" height="1.10542588"></rect>
                    <circle id="Oval" fill="#4D4D4D" transform="translate(105.888014, 99.283641) rotate(-45.000000) translate(-105.888014, -99.283641) " cx="105.888014" cy="99.2836413" r="8.62190803"></circle>
                    <ellipse id="Oval" fill="#EEEEEE" transform="translate(105.895072, 99.275217) rotate(-9.250000) translate(-105.895072, -99.275217) " cx="105.895072" cy="99.2752168" rx="3.9278665" ry="3.89317529"></ellipse>
                    <circle id="Oval" fill="#4D4D4D" transform="translate(45.392097, 99.285291) rotate(-45.000000) translate(-45.392097, -99.285291) " cx="45.3920973" cy="99.2852913" r="8.62190803"></circle>
                    <ellipse id="Oval" fill="#EEEEEE" cx="45.3916545" cy="99.2841427" rx="3.92880732" ry="3.89222566"></ellipse>
                    <path d="M10.1162524,88.7241571 C10.4576811,88.7243275 10.7798353,88.8809303 10.9888937,89.1483579 C11.1979521,89.4157856 11.2704083,89.7639686 11.1851609,90.0915055 L10.8255414,91.4673031 C10.6992697,91.9498099 10.2597772,92.286782 9.75663294,92.2868673 L7.51078794,92.2868673 C7.56366466,91.0267745 7.93933563,89.8007358 8.60243918,88.7241571 L10.1162524,88.7241571 Z" id="Path" fill="#FFFFFF"></path>
                    <path d="M119.450525,81.5114292 L68.540915,81.5114292 C67.8616349,81.5106521 67.3113854,80.9648959 67.3113859,80.2919403 L67.3113859,80.2919403 C67.3113854,79.6189847 67.8616349,79.0732284 68.540915,79.0724513 L119.450525,79.0724513 C120.129805,79.0732284 120.680055,79.6189847 120.680054,80.2919403 L120.680054,80.2919403 C120.680055,80.9648959 120.129805,81.5106521 119.450525,81.5114292 L119.450525,81.5114292 Z" id="Path" fill="#1A1A1A"></path>
                    <path d="M119.450525,85.4571659 L68.540915,85.4571659 C67.8616349,85.4563888 67.3113854,84.9106326 67.3113859,84.237677 L67.3113859,84.237677 C67.3113854,83.5647214 67.8616349,83.0189651 68.540915,83.0181881 L119.450525,83.0181881 C120.12925,83.019741 120.678635,83.5652702 120.678633,84.237677 L120.678633,84.237677 C120.678635,84.9100838 120.12925,85.455613 119.450525,85.4571659 Z" id="Path" fill="#1A1A1A"></path>
                    <path d="M119.450525,89.2620841 L68.540915,89.2620841 C67.8618648,89.2620841 67.3113859,88.7167307 67.3113859,88.0440033 L67.3113859,88.0440033 C67.3113854,87.3710477 67.8616349,86.8252915 68.540915,86.8245144 L119.450525,86.8245144 C120.129805,86.8252915 120.680055,87.3710477 120.680054,88.0440033 L120.680054,88.0440033 C120.680054,88.7167307 120.129575,89.2620841 119.450525,89.2620841 L119.450525,89.2620841 Z" id="Path" fill="#1A1A1A"></path>
                    <rect id="Rectangle" fill="#1A1A1A" x="8.99048708" y="95.239833" width="12.468704" height="3.14870354"></rect>
                    <path d="M123.674988,94.1245498 L114.650387,94.1245498 C114.583376,94.1305055 114.518718,94.098453 114.483355,94.0417489 C114.447993,93.9850447 114.447993,93.9134166 114.483355,93.8567124 C114.518718,93.8000083 114.583376,93.7679558 114.650387,93.7739115 L123.674988,93.7739115 C123.741999,93.7679558 123.806657,93.8000083 123.84202,93.8567124 C123.877382,93.9134166 123.877382,93.9850447 123.84202,94.0417489 C123.806657,94.098453 123.741999,94.1305055 123.674988,94.1245498 L123.674988,94.1245498 Z" id="Path" fill="#FFFFFF"></path>
                    <path d="M97.3261093,94.1245498 L54.5257051,94.1245498 C54.4586942,94.1305055 54.3940357,94.098453 54.3586732,94.0417489 C54.3233108,93.9850447 54.3233108,93.9134166 54.3586732,93.8567124 C54.3940357,93.8000083 54.4586942,93.7679558 54.5257051,93.7739115 L97.3261093,93.7739115 C97.3931201,93.7679558 97.4577786,93.8000083 97.4931411,93.8567124 C97.5285036,93.9134166 97.5285036,93.9850447 97.4931411,94.0417489 C97.4577786,94.098453 97.3931201,94.1305055 97.3261093,94.1245498 Z" id="Path" fill="#FFFFFF"></path>
                    <path d="M40.4721168,79.009083 C40.4378977,79.0086727 40.4044546,78.998928 40.3754602,78.9809192 C40.2931602,78.9280647 40.269081,78.8194619 40.3214462,78.7373031 L52.2883886,60.16474 C52.3226668,60.1109087 52.3833297,60.0792834 52.4475262,60.0817771 C52.5117227,60.0842708 52.5696999,60.1205047 52.5996183,60.1768297 C52.6295366,60.2331547 52.6268508,60.3010138 52.5925727,60.3548451 L40.621366,78.9274082 C40.5887277,78.9778525 40.5325955,79.0085701 40.4721168,79.009083 L40.4721168,79.009083 Z" id="Path" fill="#FFFFFF"></path>
                    <path d="M57.0771555,57.9609292 L42.1593434,57.9609292 C42.0923326,57.9668849 42.0276741,57.9348324 41.9923116,57.8781283 C41.9569491,57.8214241 41.9569491,57.749796 41.9923116,57.6930918 C42.0276741,57.6363877 42.0923326,57.6043352 42.1593434,57.6102909 L57.0842626,57.6102909 C57.1512735,57.6043352 57.215932,57.6363877 57.2512945,57.6930918 C57.2866569,57.749796 57.2866569,57.8214241 57.2512945,57.8781283 C57.215932,57.9348324 57.1512735,57.9668849 57.0842626,57.9609292 L57.0771555,57.9609292 Z" id="Path" fill="#FFFFFF"></path>
                    <path d="M36.4864526,68.977167 C36.4088902,68.977626 36.3399907,68.9281876 36.3162449,68.8550356 C36.2924991,68.7818835 36.3193955,68.7019253 36.3826889,68.6575088 L45.1016846,62.5121858 C45.1796546,62.4726493 45.2750763,62.4953034 45.3264887,62.5655568 C45.3779011,62.6358102 45.3699644,62.7327014 45.3077906,62.793823 L36.5887949,68.9377378 C36.5598927,68.9615167 36.5239773,68.9753538 36.4864526,68.977167 Z" id="Path" fill="#FFFFFF"></path>
                    <path d="M33.1844919,71.3020819 C33.1069295,71.3025409 33.03803,71.2531024 33.0142842,71.1799504 C32.9905384,71.1067983 33.0174348,71.0268402 33.0807282,70.9824237 L35.3308375,69.3925819 C35.4088075,69.3530453 35.5042291,69.3756994 35.5556415,69.4459528 C35.6070539,69.5162062 35.5991172,69.6130974 35.5369435,69.674219 L33.2868342,71.2682854 C33.2572147,71.2900439 33.2213654,71.3018824 33.1844919,71.3020819 Z" id="Path" fill="#FFFFFF"></path>
                    <path d="M31.009718,74.8422611 C30.9324443,74.8430955 30.8634874,74.794352 30.8391472,74.7216899 C30.8148071,74.6490278 30.840666,74.5691119 30.9031114,74.5240111 L45.3873902,63.9626173 C45.4658269,63.9161157 45.5670791,63.9361605 45.6214529,64.0089545 C45.6758267,64.0817484 45.6655777,64.1835358 45.5977605,64.2442544 L31.1149031,74.8056482 C31.0844825,74.82829 31.0477484,74.8410764 31.009718,74.8422611 L31.009718,74.8422611 Z" id="Path" fill="#FFFFFF"></path>
                    <path d="M48.0084903,78.5640962 C47.9522585,78.5639907 47.8994524,78.5373104 47.8663482,78.4922788 C47.8085947,78.4139381 47.8250565,78.304169 47.9033052,78.2458462 L62.387584,67.6844524 C62.4660206,67.6379509 62.5672728,67.6579957 62.6216466,67.7307896 C62.6760205,67.8035836 62.6657715,67.905371 62.5979543,67.9660896 L48.1150969,78.5274834 C48.0845206,78.5508384 48.0470973,78.563691 48.0084903,78.5640962 Z" id="Path" fill="#FFFFFF"></path>
                    <path d="M34.7693762,76.6433308 C34.6926275,76.6429381 34.6248083,76.5937687 34.6012176,76.5214145 C34.5776269,76.4490602 34.6035977,76.3698779 34.6656125,76.3250808 L39.6576426,72.7243496 C39.7359399,72.6805377 39.8349336,72.7015854 39.8881895,72.7733677 C39.9414453,72.84515 39.9321715,72.9450334 39.8665915,73.0059867 L34.8745614,76.6053097 C34.8448169,76.6293478 34.8077575,76.6427436 34.7693762,76.6433308 L34.7693762,76.6433308 Z" id="Path" fill="#FFFFFF"></path>
                    <path d="M55.2506297,76.6433308 C55.1942561,76.6424478 55.141593,76.615318 55.1084876,76.5701051 C55.0805644,76.5320196 55.069345,76.4843786 55.0773732,76.4379835 C55.0854014,76.3915885 55.1119971,76.3503697 55.1511302,76.3236726 L60.1261033,72.7243496 C60.2057386,72.6682282 60.3159937,72.6850806 60.374852,72.7623706 C60.4026793,72.8002378 60.4141248,72.8475311 60.4066551,72.8937823 C60.3991853,72.9400335 60.3734164,72.9814279 60.3350522,73.0088031 L55.3558149,76.6053097 C55.3259612,76.629157 55.2889705,76.642528 55.2506297,76.6433308 Z" id="Path" fill="#FFFFFF"></path>
                    <path d="M22.2452368,94.1245498 L8.5285253,94.1245498 C8.46151448,94.1305055 8.39685597,94.098453 8.36149348,94.0417489 C8.32613099,93.9850447 8.32613099,93.9134166 8.36149348,93.8567124 C8.39685597,93.8000083 8.46151448,93.7679558 8.5285253,93.7739115 L22.2452368,93.7739115 C22.3122476,93.7679558 22.3769061,93.8000083 22.4122686,93.8567124 C22.4476311,93.9134166 22.4476311,93.9850447 22.4122686,94.0417489 C22.3769061,94.098453 22.3122476,94.1305055 22.2452368,94.1245498 Z" id="Path" fill="#FFFFFF"></path>
                    <path d="M105.277538,67.2901604 C105.074274,67.6098186 104.896597,67.9449668 104.708969,68.2758905 C104.362143,68.8687367 104.035216,69.4728485 103.662804,70.0502046 C103.528557,70.2710729 103.355777,70.4665614 103.152513,70.6275608 C103.023767,70.7225248 102.866656,70.7720944 102.706187,70.7683794 C102.460281,70.7683794 102.214376,70.7683794 101.96847,70.7683794 C101.854756,70.7683794 101.853335,70.7683794 101.905927,70.6726228 C102.369311,69.8192622 102.832694,68.9668403 103.296077,68.1153573 C103.607368,67.545042 103.914395,66.9719104 104.227108,66.4015951 C104.423925,66.036041 104.712204,65.7266861 105.064325,65.5031726 C105.233273,65.3938484 105.431108,65.3365204 105.632893,65.3384148 C106.039419,65.3384148 106.445946,65.3384148 106.851051,65.3384148 C106.943443,65.3384148 106.953393,65.3595376 106.929229,65.4412124 C106.71033,66.200694 106.492853,66.9601755 106.276797,67.7196571 C106.259385,67.753605 106.255332,67.7927529 106.265425,67.8294956 C106.346446,67.7168407 106.424624,67.612635 106.49996,67.5056128 C106.808408,67.0690752 107.105485,66.6226803 107.43099,66.1988164 C107.687782,65.8762794 108.018038,65.618588 108.394714,65.4468451 C108.546166,65.3742504 108.712607,65.337608 108.88084,65.339823 C109.270309,65.339823 109.659778,65.339823 110.049248,65.339823 C110.167226,65.339823 110.167226,65.339823 110.123161,65.4510697 C109.554593,66.870521 108.986025,68.2904417 108.417456,69.7108319 C108.399378,69.738892 108.390904,69.7719755 108.393292,69.8051803 C108.438778,69.8051803 108.447306,69.7699757 108.464363,69.7460365 C109.549381,68.3106257 110.632504,66.8700516 111.713731,65.4243142 C111.750362,65.36595 111.816509,65.3323718 111.885723,65.3370066 C112.49883,65.3370066 113.110988,65.3370066 113.722199,65.3370066 C113.80322,65.3370066 113.82312,65.3539049 113.801799,65.4341715 C113.432229,66.9296648 113.064081,68.4251582 112.697355,69.9206515 C112.697355,69.9431825 112.688826,69.9657135 112.680298,70.015 C112.81249,69.8910796 112.926203,69.7854657 113.038496,69.6770354 C113.700878,69.0419436 114.361839,68.4096681 115.028485,67.7745763 C115.070654,67.7333117 115.08255,67.6704554 115.058335,67.6168595 C114.855072,66.8916438 114.654651,66.1650199 114.448545,65.4398042 C114.425802,65.3581294 114.435752,65.3313739 114.528145,65.3370066 C114.667334,65.3447527 114.806853,65.3447527 114.946043,65.3370066 C115.280275,65.3234848 115.604295,65.4527065 115.835852,65.6918695 C116.03018,65.8770829 116.195897,66.0896554 116.327664,66.3227367 C116.38452,66.4184934 116.385942,66.4184934 116.469806,66.3354104 C116.775885,66.0227931 117.081017,65.7097065 117.385201,65.3961504 C117.417426,65.3585322 117.464747,65.336895 117.51455,65.3370066 C118.095911,65.3370066 118.678694,65.3370066 119.261476,65.3370066 L119.312647,65.3370066 C119.312647,65.3792522 119.278533,65.3961504 119.257212,65.4172732 C118.465007,66.2171228 117.672328,67.0150948 116.879175,67.8111892 C116.823039,67.8567098 116.802452,67.9326239 116.828004,67.9998861 C117.06396,68.8804716 117.300863,69.7615265 117.538714,70.6430509 C117.569985,70.7571139 117.569985,70.7585221 117.449165,70.7571139 C117.21141,70.7701945 116.972925,70.7560187 116.738454,70.7148684 C116.298464,70.6089853 115.928707,70.314902 115.729245,69.9122024 C115.612118,69.6983767 115.525532,69.4694725 115.471968,69.2320487 C115.439276,69.2320487 115.429326,69.2489469 115.41369,69.2644369 C114.949359,69.7450977 114.484555,70.2257585 114.019276,70.7064192 C113.987954,70.7411791 113.942612,70.7602829 113.895612,70.7585221 L110.946164,70.7585221 C110.873672,70.7585221 110.8623,70.7373993 110.880779,70.6712146 C110.933371,70.4782931 110.978857,70.2825553 111.032871,70.0896338 C111.051349,70.0248573 111.044242,70.0023263 110.970328,70.0037345 C110.67183,70.0037345 110.372384,70.0037345 110.07199,70.0037345 C110.025932,70.0024689 109.983068,70.0269677 109.961119,70.0671029 C109.825566,70.2677711 109.652906,70.4412131 109.452251,70.5782743 C109.275081,70.6977107 109.065277,70.7606065 108.85099,70.7585221 L106.535495,70.7585221 C106.428889,70.7585221 106.428889,70.7585221 106.472953,70.6585409 C106.94676,69.5704827 107.420567,68.481955 107.894374,67.392958 C107.905745,67.3690188 107.93133,67.3436715 107.907166,67.3028341 L107.698217,67.6070022 C107.004564,68.6293451 106.310911,69.6516881 105.617257,70.674031 C105.586466,70.7326353 105.523072,70.7670937 105.456637,70.7613385 C105.111231,70.7613385 104.765826,70.7613385 104.418999,70.7613385 C104.301022,70.7613385 104.2996,70.7613385 104.330871,70.6529082 C104.590518,69.7488529 104.851111,68.8443282 105.112653,67.9393341 C105.173774,67.7238816 105.246266,67.5168783 105.29033,67.2929768 C105.301702,67.2831195 105.308809,67.2648131 105.29033,67.2605885 C105.271852,67.2563639 105.281802,67.2803031 105.277538,67.2901604 Z M111.899938,67.249323 L111.881459,67.2408739 C111.510468,67.7788009 111.140899,68.3167279 110.761379,68.8701449 C110.954693,68.8701449 111.123842,68.8701449 111.292991,68.8701449 C111.368326,68.8701449 111.395333,68.8447976 111.416654,68.7772046 C111.54174,68.3716471 111.673932,67.968906 111.803281,67.5633485 C111.835974,67.4605509 111.865823,67.3549369 111.899938,67.249323 Z" id="Shape" fill="#FFFFFF"></path>
                    <path d="M100.494456,65.339823 L100.083666,66.1706527 C100.014016,66.3114712 99.9415237,66.4522898 99.8761383,66.5931084 C99.857282,66.6534706 99.7972216,66.6915513 99.7339962,66.6832323 C99.4497121,66.6832323 99.1554779,66.6832323 98.8655081,66.6832323 C98.793198,66.6742773 98.7246377,66.7173929 98.7020447,66.7860299 C98.2234996,67.7558005 97.7411642,68.7246324 97.2550382,69.6925254 C97.1116285,70.0055606 96.9028219,70.2848968 96.6424058,70.5120896 C96.4357691,70.6824141 96.1749081,70.7747112 95.9061098,70.772604 L95.2181421,70.772604 C95.1101141,70.772604 95.1086927,70.772604 95.1584424,70.6726228 L96.9295328,67.1113208 C96.997761,66.9705022 97.0716749,66.8296836 97.1384817,66.688865 L95.8478315,66.688865 C95.8066103,66.688865 95.7810248,66.688865 95.7781819,66.7451925 C95.7255893,67.7238816 95.2622061,68.522323 94.6410452,69.2461305 C94.1355487,69.8585552 93.493859,70.346788 92.7661911,70.6726228 C92.32099,70.8740601 91.8336627,70.9672385 91.3447702,70.9444027 C90.7709099,70.9340313 90.2948103,70.50162 90.2346405,69.9361416 C90.1633924,69.3641584 90.2529134,68.7837912 90.4933391,68.2589923 C90.9726174,67.1377497 91.8255313,66.2132506 92.9097546,65.6397666 C93.2884003,65.4253311 93.7038048,65.2821049 94.1350194,65.2173108 C94.351881,65.1806963 94.5734328,65.1806963 94.7902944,65.2173108 C95.2977417,65.3116593 95.5933972,65.6228684 95.7227465,66.1058761 L95.7525963,66.2297965 C95.7995032,66.2297965 95.8151389,66.1875509 95.839303,66.1636117 C96.0596116,65.9205567 96.3143262,65.710429 96.5954989,65.5397854 C96.8156639,65.4086312 97.0677855,65.339493 97.3246878,65.339823 C98.3395823,65.339823 99.3544769,65.339823 100.369371,65.339823 L100.494456,65.339823 Z M91.9815667,69.1250265 C91.9815667,69.1616394 91.9815667,69.2081095 91.9815667,69.2531715 C92.0085737,69.4883385 92.1336588,69.5643805 92.353979,69.4728485 C92.5328506,69.3912112 92.6937013,69.2754051 92.8273122,69.1320675 C93.2234597,68.7239191 93.5396393,68.2464257 93.7597643,67.7238816 C93.899517,67.4346501 93.9755871,67.1192825 93.9829273,66.7987035 C93.9829273,66.5438219 93.8407853,66.4565144 93.603408,66.5508628 C93.5354027,66.5777341 93.4709623,66.6127281 93.4115161,66.6550686 C93.2848513,66.7460333 93.1677092,66.8493473 93.0618466,66.9634613 C92.6944259,67.3769936 92.3955315,67.8456385 92.1763014,68.3519325 C92.0582272,68.5917004 91.9909857,68.8528902 91.9787239,69.1193938 L91.9815667,69.1250265 Z" id="Shape" fill="#FFFFFF"></path>
                    <path d="M89.919085,70.7528894 C89.5253515,70.7402157 89.1301964,70.795135 88.7393057,70.7148684 C88.4590531,70.6624657 88.2200103,70.4825056 88.0939806,70.2290442 C87.8936266,69.8278507 87.7396125,69.4055392 87.6348617,68.9701261 C87.6249117,68.9321051 87.6348617,68.8814104 87.5737406,68.8729613 C87.5126195,68.8645122 87.4827696,68.9053496 87.4586055,68.9546361 C87.1657928,69.5179104 86.8701372,70.091042 86.5801674,70.6613573 C86.5574044,70.7234229 86.4941649,70.7614818 86.4280753,70.7528894 C85.9462137,70.7458485 85.464352,70.7444403 84.9824903,70.7402157 C84.9554833,70.7402157 84.9298977,70.7402157 84.890098,70.7331748 L85.0492971,70.3980265 L87.1999069,65.9115465 C87.2354424,65.8369126 87.2695565,65.7622788 87.3065135,65.6876449 C87.4073084,65.4678595 87.6315219,65.3295862 87.8750818,65.3370066 C88.5857922,65.3370066 89.2851313,65.3257412 89.9901561,65.3370066 C90.6042099,65.3482721 90.9851507,65.7439723 91.0093149,66.3523086 C91.002428,66.7513724 90.8854364,67.1409597 90.6710167,67.4788573 C90.3653323,68.0174509 89.8893433,68.4415058 89.3164026,68.6856726 C89.2652314,68.7082035 89.2495958,68.7279181 89.2595457,68.7870619 C89.3734599,69.4295217 89.5817784,70.0519794 89.8778638,70.6346018 C89.9031915,70.6690826 89.9175454,70.7102725 89.919085,70.7528894 L89.919085,70.7528894 Z M88.230437,67.7464126 C88.5331997,67.7464126 88.6668132,67.7097998 88.8316981,67.5464502 C89.0380267,67.3480966 89.1796253,67.0930418 89.2382244,66.8141936 C89.2626683,66.7348559 89.246841,66.648704 89.1957485,66.5829861 C89.144656,66.5172682 89.0646174,66.4801122 88.9809473,66.4832699 C88.8913977,66.476229 88.8004268,66.4832699 88.7122987,66.4832699 C88.6557186,66.4735133 88.6005333,66.5065565 88.5829494,66.5607201 C88.4237503,66.8902356 88.2588654,67.2155265 88.0968235,67.5464502 C87.9930597,67.7464126 87.9930597,67.7464126 88.230437,67.7464126 Z" id="Shape" fill="#FFFFFF"></path>
                    <path d="M74.5350468,70.3248009 L74.7823741,69.3545608 C74.8434952,69.1151692 74.9060377,68.8771858 74.9671588,68.6377942 C74.9927443,68.5349967 74.9884801,68.5307721 74.8818735,68.5589358 C74.3459978,68.6997544 73.8101222,68.840573 73.2756679,68.9884325 C73.1989112,69.0081471 73.1676399,68.9884325 73.1335258,68.9222478 C72.9657982,68.567385 72.7923848,68.2181549 72.6175501,67.8647002 C72.5847927,67.8115606 72.5911509,67.7434165 72.6331857,67.6971261 C72.7909634,67.4802655 72.941634,67.2591803 73.0951475,67.0395033 C73.1230556,67.0109865 73.1375096,66.9721195 73.1349473,66.9324812 C73.1008332,66.7057633 73.0681405,66.4790454 73.032605,66.2382456 C72.843556,66.3677987 72.6658784,66.4874945 72.4910436,66.612823 C72.4366969,66.6559781 72.3643128,66.6696874 72.2977304,66.6494358 C71.8158687,66.536781 71.3311642,66.438208 70.8521453,66.3156958 C70.5678611,66.2424701 70.283577,66.1382644 69.9992928,66.0340586 C69.8809041,65.9915528 69.755622,65.971026 69.6297234,65.9735066 C69.4506243,65.9735066 69.2715253,65.9735066 69.0895834,65.9735066 C69.1052191,65.9397102 69.1379117,65.9411184 69.1649187,65.9340774 L72.2707234,64.9905929 C72.3169633,64.9760264 72.3666255,64.9760264 72.4128654,64.9905929 L75.1675791,65.8256471 C75.5741055,65.9481593 75.9792104,66.0734878 76.3871582,66.1931836 C76.4174711,66.1973433 76.4448122,66.2134315 76.463002,66.237812 C76.4811917,66.2621926 76.4886946,66.2928073 76.4838149,66.3227367 C76.4838149,67.3948355 76.4838149,68.4659956 76.4838149,69.5362168 C76.4933528,69.5954752 76.4537323,69.6515489 76.3942653,69.6629535 C75.8072185,69.8657323 75.2230145,70.0741438 74.6373891,70.2797389 C74.613225,70.3022699 74.5833751,70.310719 74.5350468,70.3248009 Z" id="Path" fill="#FFFFFF"></path>
                    <path d="M76.4852363,70.3952102 L76.4852363,70.9824237 C76.4925722,71.2225198 76.4849769,71.4628355 76.4624935,71.7020066 C76.3881545,72.206764 76.1818559,72.6834835 75.8640753,73.0848451 C75.4143029,73.6542565 74.8696451,74.1433609 74.2536055,74.531052 C73.6644942,74.9149557 73.044015,75.2493912 72.3986512,75.5308639 C72.3608519,75.5506427 72.3156298,75.5506427 72.2778305,75.5308639 C71.3196921,75.124664 70.424717,74.5855667 69.6197734,73.9297566 C69.0817177,73.5048634 68.655879,72.9568627 68.378873,72.3328739 C68.2367309,71.9751947 68.2367309,71.9751947 68.4399941,71.6499038 C68.5551292,71.469656 68.6731071,71.2894082 68.7825565,71.1049358 C68.8237777,71.0345265 68.8536276,71.0415675 68.909063,71.0838131 C69.1720258,71.2851836 69.4449386,71.4752887 69.7022158,71.6851084 C70.0723419,71.9585609 70.4656455,72.1997901 70.8777309,72.4060996 C71.3993924,72.697594 71.9238967,72.9834558 72.4412939,73.273542 C72.6829354,73.4143606 72.9544268,73.4481571 73.211704,73.5368728 C73.319732,73.5748938 73.4320242,73.6030575 73.5556878,73.6382622 C73.5599877,73.5636891 73.5599877,73.4889337 73.5556878,73.4143606 C73.5443165,73.3256449 73.5812734,73.296073 73.6665587,73.2862157 C73.8087008,73.2721338 73.9508428,73.2425619 74.0929849,73.2284801 C74.1457604,73.2233528 74.1923157,73.1920747 74.2166485,73.1453971 C74.4668186,72.7496969 74.721253,72.3554049 74.9685802,71.9568883 C75.0576973,71.8262765 75.1611442,71.7058464 75.2770285,71.5978009 C75.6622336,71.2006925 76.0502815,70.8064004 76.436908,70.4121084 C76.4468579,70.409292 76.453965,70.3881692 76.4852363,70.3952102 Z" id="Path" fill="#FFFFFF"></path>
                    <path d="M80.7765059,70.7458485 C80.6144639,70.7458485 80.4510005,70.7458485 80.2875371,70.7458485 C80.172402,70.7458485 80.172402,70.7388075 80.2207304,70.6402345 C80.5689785,69.9291007 80.9158052,69.2179668 81.2668961,68.5082412 C81.6506798,67.7309226 82.0316206,66.9507876 82.4267756,66.1791018 C82.6483409,65.7405601 83.0664377,65.431866 83.5539623,65.3468639 C83.5932499,65.3389488 83.6332723,65.3351727 83.6733617,65.3355985 C84.1921803,65.3355985 84.7109989,65.3355985 85.2369247,65.3355985 C85.5058816,65.3291934 85.768035,65.4197675 85.9746421,65.5904801 C86.1751381,65.7717982 86.2930599,66.0257631 86.3015689,66.294573 C86.3137476,66.6453234 86.2297493,66.9927871 86.0585059,67.3000177 C85.7340376,67.9825724 85.1467068,68.5076179 84.4281362,68.75749 C84.1634624,68.8371049 83.8872162,68.8723256 83.6108192,68.8616958 C83.3653872,68.8673285 83.1194813,68.8673285 82.8731017,68.8616958 C82.8200043,68.8563152 82.7698744,68.8869215 82.7508595,68.9363296 C82.5843461,69.303247 82.3944399,69.6592982 82.1822912,70.0023263 C82.0433033,70.2239227 81.8673972,70.4205696 81.6620511,70.5839071 C81.5257343,70.6920532 81.3547085,70.7480312 81.1801895,70.7416239 C81.0479973,70.7416239 80.9143837,70.7416239 80.7807702,70.7416239 L80.7765059,70.7458485 Z M83.2782067,67.7450044 C83.4203488,67.7450044 83.5539623,67.7450044 83.6833116,67.7450044 C83.8138903,67.7419431 83.9396024,67.695302 84.0400883,67.612635 C84.288766,67.4106263 84.4590566,67.1294513 84.5219499,66.81701 C84.5473448,66.7361164 84.5309856,66.6480246 84.4781922,66.581382 C84.4253988,66.5147393 84.3429155,66.4780592 84.2575657,66.4832699 C84.1580662,66.4832699 84.0585667,66.4832699 83.9590673,66.4832699 C83.9288858,66.4774852 83.8987126,66.4933104 83.8865748,66.5212909 C83.6875759,66.9226239 83.4871555,67.325365 83.2782067,67.7450044 Z" id="Shape" fill="#FFFFFF"></path>
                    <path d="M100.505828,69.5883197 L102.004005,69.5883197 L101.773735,70.0473883 C101.667129,70.2642489 101.556258,70.4782931 101.452494,70.6951538 C101.434354,70.7444639 101.384247,70.7748322 101.331673,70.7683794 L98.3424252,70.7683794 C98.2343972,70.7683794 98.2343972,70.7683794 98.2855684,70.6641737 C98.8749842,69.4737872 99.4658215,68.2834008 100.05808,67.0930144 C100.333836,66.5381892 100.611013,65.9833639 100.883926,65.4271305 C100.904268,65.3680568 100.9635,65.3310879 101.026068,65.3384148 C101.984105,65.3384148 102.942143,65.3384148 103.900181,65.3384148 C104.022423,65.3384148 104.022423,65.3384148 103.968409,65.4482533 C103.802103,65.7862179 103.631532,66.1213662 103.468069,66.4593308 C103.448035,66.512193 103.393784,66.5443237 103.337298,66.536781 C102.932193,66.536781 102.525667,66.536781 102.120562,66.536781 C102.058645,66.5285422 101.99936,66.5643697 101.97842,66.6226803 C101.87892,66.8381327 101.772314,67.0451361 101.664286,67.2619967 C101.630172,67.3295896 101.644386,67.3422633 101.715457,67.3408551 L102.792894,67.3408551 C102.902343,67.3408551 102.902343,67.3408551 102.854015,67.4408363 C102.687709,67.7745763 102.521403,68.1069082 102.359361,68.4434646 C102.339878,68.4961093 102.286117,68.5282996 102.230011,68.5209148 C101.864706,68.5209148 101.49798,68.5209148 101.132674,68.5209148 C101.070674,68.5101193 101.010094,68.5461286 100.990532,68.605406 C100.84839,68.9067577 100.692034,69.2081095 100.541363,69.5094613 C100.534256,69.5263595 100.524306,69.5502987 100.505828,69.5883197 Z" id="Path" fill="#FFFFFF"></path>
                    <path d="M98.8711938,71.8019878 L117.427843,71.8019878 C117.558614,71.8019878 117.558614,71.8019878 117.558614,71.9329491 C117.558614,72.1343197 117.558614,72.1343197 117.356772,72.1343197 L80.3358654,72.1343197 C80.1738235,72.1343197 80.1937234,72.1568507 80.1937234,71.9935011 C80.1937234,71.803396 80.1937234,71.803396 80.3856152,71.803396 L98.8711938,71.8019878 Z" id="Path" fill="#FFFFFF"></path>
                    <path d="M77.5441948,69.2700697 C77.5488189,69.295705 77.5521398,69.3215544 77.5541448,69.3475199 C77.5541448,70.0769602 77.5626733,70.8049923 77.5541448,71.5330243 C77.5307492,72.2217963 77.3082491,72.8894352 76.913084,73.4566062 C76.4447655,74.1390844 75.8523793,74.7292974 75.1661577,75.1971239 C74.3074504,75.7976783 73.38167,76.2980764 72.4071798,76.6883927 C72.3460587,76.71374 72.3346873,76.6968418 72.3361087,76.637698 C72.3361087,76.5194104 72.3432158,76.4011228 72.3361087,76.2828352 C72.3244741,76.2190767 72.3649622,76.1573673 72.4285011,76.1420166 C73.0992836,75.8619997 73.7458176,75.5280847 74.3616335,75.1436128 C74.949491,74.7871539 75.487998,74.3563833 75.9635748,73.8621637 C76.4764961,73.3483557 76.8360881,72.7040954 77.0026335,72.000542 C77.046882,71.7708375 77.0678338,71.5373252 77.065176,71.30349 C77.065176,70.8237681 77.065176,70.3426379 77.065176,69.8600996 C77.0625504,69.8009784 77.086493,69.7437416 77.1305614,69.7037909 C77.244275,69.5939524 77.3537244,69.4798894 77.4645953,69.3658263 C77.4901808,69.340479 77.5228735,69.3193562 77.5214521,69.2771106 L77.5441948,69.2700697 Z" id="Path" fill="#FFFFFF"></path>
                    <path d="M77.5441948,69.2700697 L77.5200307,69.2700697 C77.38926,69.317948 77.2584892,69.36301 77.1291399,69.4108883 C77.0765474,69.4306029 77.0623332,69.4108883 77.065176,69.36301 C77.065176,69.3390708 77.065176,69.3165398 77.065176,69.2940088 C77.065176,68.1674602 77.065176,67.0409115 77.065176,65.9228119 C77.065176,65.8355044 77.0410118,65.801708 76.9528837,65.7749524 C75.4419133,65.3201084 73.9309429,64.8596316 72.4199726,64.4047876 C72.3503229,64.3836648 72.330423,64.3540929 72.3346873,64.2879082 C72.3346873,64.1822942 72.3346873,64.0766803 72.3346873,63.9724746 C72.3346873,63.8936162 72.3446372,63.8682688 72.4327653,63.8950243 C72.8762487,64.0358429 73.3211534,64.165396 73.7660581,64.2991737 C74.9979562,64.6746899 76.2298543,65.0473897 77.4617524,65.4172732 C77.531402,65.438396 77.5555662,65.4651515 77.5555662,65.5383772 C77.5555662,66.7512946 77.5555662,67.9637426 77.5555662,69.1757212 C77.5611264,69.2075968 77.5571744,69.2403872 77.5441948,69.2700697 L77.5441948,69.2700697 Z" id="Path" fill="#FFFFFF"></path>
                    <path d="M116.653169,74.0888816 L116.653169,74.5395011 C116.653169,74.7366471 116.653169,74.9352013 116.653169,75.1323473 C116.653169,75.2196549 116.614791,75.2266958 116.546562,75.2252876 C116.478334,75.2238794 116.437113,75.2252876 116.437113,75.1351637 C116.437113,74.6803197 116.437113,74.2254757 116.437113,73.7706316 C116.437113,73.7297942 116.407263,73.6607931 116.472649,73.6551604 C116.538034,73.6495277 116.636112,73.6086903 116.692969,73.7086715 C116.835111,73.9565122 116.977253,74.2015365 117.119395,74.4465608 C117.188707,74.5712378 117.265606,74.691625 117.349665,74.8070564 L117.349665,74.3085586 C117.349665,74.1269027 117.349665,73.9452467 117.349665,73.7649989 C117.349665,73.6678341 117.376672,73.6396704 117.471907,73.6467113 C117.535871,73.6467113 117.557193,73.6636095 117.557193,73.7312024 C117.557193,74.2015365 117.557193,74.6732788 117.557193,75.1393883 C117.557193,75.2083894 117.531607,75.2168385 117.470486,75.2210631 C117.384925,75.2349625 117.300893,75.1889718 117.267223,75.1098164 C117.076752,74.7634027 116.873489,74.4226217 116.675912,74.0804325 L116.653169,74.0888816 Z" id="Path" fill="#FFFFFF"></path>
                    <path d="M105.043003,74.4226217 C105.043003,74.1916792 105.043003,73.9607367 105.043003,73.7312024 C105.043003,73.6678341 105.058639,73.6424867 105.126867,73.6453031 C105.296016,73.6537522 105.466587,73.6382622 105.634314,73.659385 C105.811445,73.6634048 105.967614,73.7755166 106.026626,73.9410221 C106.102181,74.1187889 106.070298,74.3235519 105.944184,74.4705 C105.901541,74.5197865 105.90012,74.5409093 105.944184,74.5859712 C106.0173,74.6617225 106.057603,74.7628046 106.056476,74.8676084 C106.056476,74.9661814 106.056476,75.0647544 106.056476,75.1633274 C106.056476,75.2619004 105.98967,75.2154303 105.948448,75.2182467 C105.907227,75.2210631 105.85037,75.2421858 105.853213,75.1605111 C105.856056,75.0788363 105.853213,75.0027942 105.853213,74.9239358 C105.86449,74.8452508 105.838694,74.7657909 105.78323,74.7083715 C105.727767,74.650952 105.648773,74.621925 105.568929,74.629625 C105.485065,74.629625 105.402623,74.629625 105.318759,74.629625 C105.264745,74.629625 105.250531,74.6493396 105.251952,74.6986261 C105.251952,74.8478938 105.251952,74.9957533 105.251952,75.1436128 C105.251952,75.2365531 105.202202,75.2252876 105.145346,75.2252876 C105.088489,75.2252876 105.034475,75.2393695 105.037318,75.145021 C105.05011,74.9042212 105.043003,74.6634215 105.043003,74.4226217 Z M105.254795,74.1409845 C105.254795,74.2170265 105.254795,74.2930686 105.254795,74.3677024 C105.254795,74.4113562 105.264745,74.4352954 105.315916,74.4338872 C105.421787,74.4383398 105.527849,74.4336279 105.632893,74.4198053 C105.731528,74.4096432 105.813559,74.3401459 105.838999,74.2451903 C105.883335,74.1349512 105.85579,74.009089 105.769349,73.9269403 C105.712492,73.8748374 105.325866,73.81851 105.280381,73.8677965 C105.234895,73.917083 105.267588,74.0297378 105.256216,74.1114126 C105.255759,74.1194199 105.256236,74.1274528 105.257638,74.1353518 L105.254795,74.1409845 Z" id="Shape" fill="#FFFFFF"></path>
                    <path d="M102.403425,74.4282544 C102.394076,74.2629441 102.429404,74.098155 102.505767,73.9508794 C102.607847,73.7446575 102.821212,73.6156341 103.053014,73.6199558 C103.29605,73.5930084 103.530309,73.718881 103.640061,73.9353894 C103.809584,74.2533814 103.805842,74.6346165 103.630111,74.9492832 C103.519688,75.1552733 103.296203,75.2764918 103.061543,75.2576759 C102.825258,75.259049 102.609139,75.1259852 102.505767,74.9154867 C102.428775,74.764895 102.393461,74.5967725 102.403425,74.4282544 Z M103.54909,74.4282544 C103.556684,74.2916606 103.528788,74.1554198 103.468069,74.0325542 C103.398822,73.8970859 103.257433,73.8128234 103.104185,73.8156936 C102.944337,73.7918951 102.786339,73.8687556 102.707609,74.008615 C102.555261,74.2700316 102.555261,74.59211 102.707609,74.8535265 C102.789839,74.9823821 102.934141,75.0592074 103.087988,75.0560381 C103.241835,75.0528688 103.382788,74.9701672 103.45954,74.8380365 C103.525632,74.7137851 103.556574,74.5741389 103.54909,74.4338872 L103.54909,74.4282544 Z" id="Shape" fill="#FFFFFF"></path>
                    <path d="M96.5571206,74.4381117 C96.5646689,74.5884775 96.5364284,74.7384953 96.4746781,74.8760575 C96.3789291,75.1137525 96.142967,75.2664038 95.8847885,75.2576759 C95.6302271,75.2727414 95.3939958,75.1263302 95.2963202,74.8929558 C95.1650011,74.6104985 95.1603543,74.2862022 95.2835274,74.0001659 C95.3958197,73.7185288 95.633197,73.6002412 95.9601238,73.6213639 C96.2269442,73.6449881 96.4491232,73.8339774 96.5130565,74.091698 C96.5471471,74.2039257 96.5620407,74.3210138 96.5571206,74.4381117 Z M95.4100339,74.4254381 C95.4039747,74.5485611 95.4248235,74.6715286 95.471155,74.7859336 C95.5325454,74.9478959 95.6902892,75.0539598 95.8648886,75.0506726 C96.0434375,75.0703481 96.2132763,74.9695089 96.2799435,74.80424 C96.3885883,74.5636137 96.3859933,74.2880289 96.2728364,74.0494524 C96.2052859,73.900201 96.0509163,73.8085541 95.8862099,73.8199181 C95.7189509,73.8065346 95.5606767,73.8966949 95.4882121,74.0466361 C95.4312763,74.1646698 95.4044327,74.294737 95.4100339,74.4254381 L95.4100339,74.4254381 Z" id="Shape" fill="#FFFFFF"></path>
                    <path d="M114.476974,73.6199558 C114.749921,73.6035249 114.999537,73.7720543 115.08392,74.0297378 C115.186309,74.2901097 115.186309,74.5790729 115.08392,74.8394447 C114.995857,75.1035399 114.740272,75.2765728 114.459917,75.2619004 C114.180657,75.260326 113.935329,75.0779003 113.855813,74.8126892 C113.771231,74.5675879 113.771231,74.3015947 113.855813,74.0564934 C113.935329,73.7856703 114.192686,73.6048051 114.476974,73.6199558 Z M114.946043,74.4254381 C114.951835,74.3031641 114.928968,74.1812222 114.879236,74.069167 C114.814858,73.9110987 114.655839,73.8113621 114.484081,73.8213263 C114.30915,73.8026694 114.14284,73.9008373 114.076133,74.0621261 C113.973012,74.2974812 113.973012,74.5646604 114.076133,74.8000155 C114.134707,74.9528445 114.283551,75.0530261 114.448545,75.0506726 C114.624881,75.0746517 114.796837,74.9837957 114.874971,74.8253628 C114.933118,74.7003694 114.957603,74.5625895 114.946043,74.4254381 Z" id="Shape" fill="#FFFFFF"></path>
                    <path d="M97.852035,74.4296626 C97.852035,74.1987201 97.852035,73.9677777 97.852035,73.7382434 C97.852035,73.6622013 97.8747777,73.6410785 97.9472702,73.6453031 C98.1093122,73.6551604 98.2727756,73.6382622 98.4348175,73.659385 C98.6135215,73.661658 98.7718358,73.7740883 98.831394,73.9410221 C98.9058517,74.1193168 98.8716881,74.3240276 98.7432659,74.4690918 C98.7034661,74.5127456 98.696359,74.5324602 98.7432659,74.5747058 C98.8272187,74.6615215 98.8718683,74.7784616 98.8669295,74.8985885 C98.8669295,74.9802633 98.8669295,75.0633462 98.8669295,75.145021 C98.8669295,75.2266958 98.8228654,75.2266958 98.76743,75.2210631 C98.7119946,75.2154303 98.6466093,75.2478186 98.6537164,75.1492456 C98.6608235,75.0506726 98.6537164,74.9915288 98.6537164,74.9126704 C98.6624506,74.8374083 98.6367464,74.7622211 98.5836456,74.7077067 C98.5305447,74.6531923 98.4556145,74.625066 98.3793821,74.6310332 C98.2926755,74.6310332 98.2059688,74.6310332 98.1192621,74.6310332 C98.0666695,74.6310332 98.0510339,74.6479314 98.0524553,74.6986261 C98.0524553,74.8507102 98.0524553,75.0027942 98.0524553,75.1534701 C98.0524553,75.243594 97.9998628,75.2252876 97.950113,75.2252876 C97.9003633,75.2252876 97.8449279,75.2421858 97.8463493,75.1534701 C97.8548778,74.9154867 97.852035,74.6690542 97.852035,74.4296626 Z M98.0538767,74.1170454 C98.0538767,74.212802 98.0538767,74.2916604 98.0538767,74.3705188 C98.0538767,74.4127644 98.068091,74.4296626 98.112155,74.4282544 C98.2218091,74.4334066 98.3317088,74.4286934 98.4405032,74.4141726 C98.5603808,74.3964848 98.6502182,74.2962105 98.6537164,74.1761892 C98.6741472,74.0917973 98.6508168,74.0028674 98.5914937,73.9390107 C98.5321706,73.8751541 98.4446451,73.8447563 98.3580608,73.8579392 C98.2599828,73.8579392 98.1377406,73.8142854 98.0737766,73.8762456 C98.0098127,73.9382058 98.0609839,74.0452279 98.0538767,74.1170454 L98.0538767,74.1170454 Z" id="Shape" fill="#FFFFFF"></path>
                    <path d="M107.253313,75.2238794 C107.367026,74.9183031 107.475054,74.6254004 107.584504,74.3324978 C107.659839,74.1311272 107.739439,73.932573 107.809088,73.7312024 C107.814823,73.7024448 107.832212,73.6772761 107.857198,73.6615729 C107.882183,73.6458698 107.912576,73.6410068 107.94128,73.6481195 C108.003823,73.6481195 108.056416,73.6396704 108.083422,73.7255697 C108.252572,74.1959038 108.430249,74.6648296 108.607927,75.1337555 C108.634934,75.2069812 108.626405,75.2238794 108.542541,75.228104 C108.504128,75.2354185 108.464371,75.2267274 108.432632,75.2040774 C108.400893,75.1814275 108.379978,75.1468209 108.374814,75.1084082 C108.3208,74.9436504 108.252572,74.7817091 108.194293,74.6169513 C108.184967,74.5707349 108.140298,74.5401941 108.093372,74.5479502 C107.993873,74.5479502 107.894374,74.5479502 107.794874,74.5479502 C107.732332,74.5479502 107.708167,74.5704812 107.689689,74.6254004 C107.632832,74.7873418 107.564604,74.9450586 107.514854,75.1084082 C107.485004,75.2041648 107.435255,75.2421858 107.337177,75.2252876 C107.309291,75.2228569 107.281266,75.2223863 107.253313,75.2238794 Z M107.946966,73.9480631 C107.901481,74.0705752 107.864524,74.1691482 107.828988,74.2691294 C107.828988,74.2832113 107.813353,74.3085586 107.819038,74.3141914 C107.874474,74.3648861 107.942702,74.3310896 108.005244,74.3381305 C108.029409,74.3381305 108.069208,74.3536206 108.077737,74.3099668 C108.078849,74.2968912 108.076395,74.2837597 108.07063,74.2719458 C108.027987,74.1705564 107.993873,74.0705752 107.946966,73.9480631 L107.946966,73.9480631 Z" id="Shape" fill="#FFFFFF"></path>
                    <path d="M100.468871,73.6481195 C100.594739,73.6402689 100.721094,73.6502262 100.844126,73.6776914 C101.064529,73.7403212 101.206589,73.9520231 101.179581,74.1775973 C101.173248,74.4048806 100.995992,74.5913852 100.767369,74.6113186 C100.664989,74.6228024 100.561877,74.6265683 100.458921,74.6225841 C100.402064,74.6225841 100.383586,74.6422987 100.385007,74.6972179 C100.385007,74.849302 100.385007,75.0013861 100.385007,75.1520619 C100.385007,75.2337367 100.339522,75.228104 100.289772,75.2224712 C100.240022,75.2168385 100.171794,75.2562677 100.171794,75.1548783 C100.171794,74.6775033 100.171794,74.2001283 100.171794,73.7227533 C100.171794,73.6678341 100.190272,73.6453031 100.247129,73.6481195 C100.303986,73.6509358 100.396378,73.6481195 100.468871,73.6481195 Z M100.386428,74.1311272 C100.386428,74.2057611 100.386428,74.2818031 100.386428,74.3578451 C100.386428,74.3986825 100.400643,74.4169889 100.444707,74.4155808 C100.537099,74.4155808 100.630913,74.4155808 100.728991,74.4155808 C100.798439,74.4170446 100.865237,74.3891726 100.912701,74.3389262 C100.960165,74.2886799 100.983813,74.2208033 100.97774,74.15225 C100.986174,74.0816526 100.964125,74.0108091 100.917025,73.9571756 C100.869925,73.9035421 100.802155,73.8721058 100.730412,73.8706128 C100.63802,73.8621637 100.544206,73.8706128 100.446128,73.8706128 C100.402064,73.8706128 100.386428,73.8861029 100.386428,73.9283485 C100.38785,73.9860841 100.386428,74.0579015 100.386428,74.1311272 Z" id="Shape" fill="#FFFFFF"></path>
                    <path d="M92.7804053,74.4268462 C92.7736268,74.2818257 92.8008731,74.1372224 92.8600048,74.0043905 C93.0575823,73.553771 93.6247293,73.5650365 93.8763208,73.7692235 C93.9146991,73.8002035 93.944549,73.8354082 93.890535,73.8692046 C93.836521,73.9030011 93.8507352,74.0100232 93.7483929,73.932573 C93.6284585,73.8362133 93.4673681,73.8067161 93.3205899,73.854238 C93.1738118,73.90176 93.0613945,74.01981 93.0220468,74.16774 C92.9582059,74.3608943 92.9667849,74.5703743 93.046211,74.7577699 C93.0998285,74.886142 93.2110583,74.9822127 93.3467359,75.0173374 C93.4824135,75.0524621 93.6268653,75.0225833 93.7370215,74.9366095 C93.8336781,74.8619757 93.8450495,74.9535077 93.8876921,74.9887124 C93.9303348,75.023917 93.9061706,75.0717954 93.863528,75.1027754 C93.698339,75.2256535 93.4848224,75.2653413 93.2859078,75.2101417 C93.0869931,75.1549422 92.9253552,75.0111475 92.8486335,74.8211383 C92.7978306,74.6960143 92.7745697,74.5615892 92.7804053,74.4268462 Z" id="Path" fill="#FFFFFF"></path>
                    <path d="M109.81187,74.4395199 C109.804493,74.2896211 109.832731,74.1400993 109.894313,74.0029823 C110.090469,73.5636283 110.65193,73.5692611 110.904943,73.7720398 C110.949007,73.8058363 110.973171,73.8410409 110.917736,73.8790619 C110.8623,73.917083 110.876515,74.0198805 110.775594,73.9382058 C110.653354,73.8392729 110.488184,73.8099578 110.338879,73.860696 C110.189574,73.9114343 110.077344,74.0350182 110.04214,74.1874546 C109.991708,74.3561 109.991708,74.5356134 110.04214,74.7042588 C110.0816,74.850362 110.192835,74.9668609 110.337893,75.0140059 C110.48295,75.0611508 110.642228,75.0325709 110.761379,74.9380177 C110.853772,74.8676084 110.863722,74.9591405 110.903522,74.9901206 C110.964643,75.0379989 110.927686,75.0717954 110.885043,75.1055918 C110.697679,75.2435994 110.451367,75.2751835 110.23471,75.1889827 C110.018052,75.102782 109.86221,74.911194 109.823242,74.6831361 C109.808239,74.6028262 109.804413,74.5208587 109.81187,74.4395199 Z" id="Path" fill="#FFFFFF"></path>
                    <path d="M73.0098622,70.7768285 L72.725578,70.6867046 C72.5621146,70.6331936 72.4000727,70.575458 72.2351878,70.5247633 C72.1811738,70.507865 72.161274,70.4895586 72.1698025,70.4290066 C72.2010737,70.2318606 72.222395,70.0333064 72.249402,69.8094049 L73.0212336,70.7571139 L73.0098622,70.7768285 Z" id="Path" fill="#FFFFFF"></path>
                    <path d="M112.506884,74.4536018 C112.506884,74.6831361 112.506884,74.9140785 112.506884,75.1436128 C112.506884,75.2238794 112.469927,75.228104 112.410228,75.2238794 C112.350528,75.2196549 112.299357,75.2407777 112.300778,75.1464292 C112.300778,74.6770339 112.300778,74.2076386 112.300778,73.7382434 C112.300778,73.6481195 112.350528,73.6579768 112.407385,73.6565686 C112.464242,73.6551604 112.508306,73.6565686 112.506884,73.735427 C112.50262,73.9734104 112.506884,74.2113938 112.506884,74.4536018 Z" id="Path" fill="#FFFFFF"></path>
                </g>
            </g>
        </g>
    </g>
</svg>