<?xml version="1.0" encoding="utf-8"?>
<!-- Generator: Adobe Illustrator 23.0.1, SVG Export Plug-In . SVG Version: 6.00 Build 0)  -->
<svg version="1.1" xmlns="http://www.w3.org/2000/svg" xmlns:xlink="http://www.w3.org/1999/xlink" x="0px" y="0px"
	 viewBox="0 0 60 60" style="enable-background:new 0 0 60 60;" xml:space="preserve">
<style type="text/css">
	.st0{fill:#ECF9FF;}
	.st1{fill:#FFFFFF;}
	.st2{fill:#535D66;}
	.st3{fill-rule:evenodd;clip-rule:evenodd;fill:#ECF9FF;}
	.st4{fill-rule:evenodd;clip-rule:evenodd;fill:#FFFFFF;}
	.st5{fill-rule:evenodd;clip-rule:evenodd;fill:#00AAFF;}
	.st6{fill-rule:evenodd;clip-rule:evenodd;}
	.st7{fill:#00AAFF;}
	.st8{fill:#808099;}
	.st9{fill:#FFC037;}
	.st10{fill:#FF7108;}
	.st11{fill:#AEFFCF;}
	.st12{fill:#0BD360;}
	.st13{fill:#343434;}
	.st14{fill-rule:evenodd;clip-rule:evenodd;fill:#104EFF;}
	.st15{fill:#002E75;}
	.st16{fill:#0855C4;}
	.st17{fill:#99E2FF;}
	.st18{fill:#AED3FF;}
	.st19{fill:#231F20;}
	.st20{fill:#EFF1F4;}
	.st21{clip-path:url(#SVGID_2_);}
	.st22{fill:#8EEA00;}
	.st23{fill-rule:evenodd;clip-rule:evenodd;fill:#8EEA00;}
	.st24{fill:#0021CE;}
	.st25{fill:#104EFF;}
	.st26{fill:#303030;}
	.st27{fill:#00E1CF;}
	.st28{fill-rule:evenodd;clip-rule:evenodd;fill:#0BD360;}
	.st29{fill-rule:evenodd;clip-rule:evenodd;fill:#00E1CF;}
	.st30{fill:none;stroke:#5C006A;stroke-width:1.29;stroke-linecap:round;stroke-linejoin:round;}
	.st31{fill:#B6FFD3;}
	.st32{clip-path:url(#SVGID_4_);}
	.st33{fill:#DFE6E8;}
	.st34{fill:#B3B3B3;}
	.st35{fill:#96E0FD;}
	.st36{fill:#0ED160;}
	.st37{fill:#08A8FD;}
	.st38{fill:#6EEE89;}
	.st39{fill:#DFF8F5;}
	.st40{clip-path:url(#SVGID_6_);fill:#96E0FD;}
	.st41{fill:#F5F5F6;}
	.st42{fill:none;stroke:#002E75;stroke-width:1.5207;stroke-linecap:round;stroke-linejoin:round;}
	.st43{fill:#E9EAEB;}
	.st44{clip-path:url(#SVGID_8_);fill:#FFFFFF;}
	.st45{clip-path:url(#SVGID_8_);fill:#FFCF9B;}
	.st46{clip-path:url(#SVGID_8_);fill:#002E75;}
	.st47{clip-path:url(#SVGID_8_);fill:#F9BC90;}
	.st48{clip-path:url(#SVGID_8_);fill:#0ED160;}
	.st49{fill-rule:evenodd;clip-rule:evenodd;fill:#002E75;}
	.st50{fill-rule:evenodd;clip-rule:evenodd;fill:#0ED160;}
	.st51{fill-rule:evenodd;clip-rule:evenodd;fill:#DFE6E8;}
	.st52{fill-rule:evenodd;clip-rule:evenodd;fill:#DCE6E8;}
	.st53{fill-rule:evenodd;clip-rule:evenodd;fill:#6EEE89;}
	.st54{fill-rule:evenodd;clip-rule:evenodd;fill:#FFC037;}
	.st55{fill:#F4F4F5;}
	.st56{fill:#606060;}
	.st57{fill-rule:evenodd;clip-rule:evenodd;fill:#005EA1;}
	.st58{fill-rule:evenodd;clip-rule:evenodd;fill:#00A5D8;}
	.st59{fill:#444444;}
	.st60{clip-path:url(#SVGID_10_);}
	.st61{clip-path:url(#SVGID_12_);}
	.st62{clip-path:url(#SVGID_14_);}
	.st63{clip-path:url(#SVGID_16_);}
	.st64{clip-path:url(#SVGID_18_);}
	.st65{clip-path:url(#SVGID_20_);}
</style>
<g id="Layer_3">
</g>
<g id="Layer_1">
</g>
<g id="Layer_2">
</g>
<g id="Layer_4">
</g>
<g id="Layer_5">
</g>
<g id="Isolation_Mode">
</g>
<g id="Art">
</g>
<g id="Capa_8">
	<path class="st15" d="M50.9,38.3h-2.6c-0.7-2.2-2.8-3.9-5.2-3.9c-2.5,0-4.5,1.6-5.2,3.9H22.1c-0.7-2.2-2.8-3.9-5.2-3.9
		s-4.5,1.6-5.2,3.9H9.1c-0.1,0-0.1,0-0.1-0.1v-4h42L50.9,38.3C51,38.3,51,38.3,50.9,38.3z M43.1,43.3c-1.9,0-3.4-1.5-3.4-3.4
		s1.5-3.4,3.4-3.4s3.4,1.5,3.4,3.4S45,43.3,43.1,43.3z M16.9,43.3c-1.9,0-3.4-1.5-3.4-3.4c0-0.1,0-0.3,0-0.4c0.2-1.7,1.7-3,3.4-3
		c1.9,0,3.4,1.5,3.4,3.4S18.8,43.3,16.9,43.3z M12.8,29.3L12.8,29.3h12.7c1.3,0,2.3-1,2.3-2.3v-8.8h0.7h5.4H51c0.1,0,0.1,0,0.1,0.1
		v13.9H9v-0.9C10.1,30.3,11.4,29.7,12.8,29.3z M25,18.3h0.7v8.8c0,0.1-0.1,0.2-0.2,0.2h-9.6C17.9,24.3,21.5,20.2,25,18.3z M30.5,14
		c0-0.3,0.3-0.6,0.6-0.6c0.3,0,0.6,0.3,0.6,0.6v2.2h-1.2V14z M55,35.8h-1.9V18.3c0-1.2-1-2.2-2.2-2.2H33.8v-2.2
		c0-1.5-1.2-2.7-2.7-2.7s-2.7,1.2-2.7,2.7v2.2H25c-0.4,0-0.7,0.1-1.1,0.3c-4.3,2.4-8.6,7.7-10.3,10.6l0,0c-2.3,0.3-4.3,1.3-5.9,2.7
		c-0.5,0.4-0.7,1-0.7,1.6v4.5H5v2.7h1.9C7,39.6,8,40.4,9.1,40.4h2.4c0.2,2.8,2.6,5,5.5,5s5.2-2.2,5.4-5h15.3c0.2,2.8,2.6,5,5.4,5
		c2.9,0,5.2-2.2,5.5-5H51c1.1,0,2-0.8,2.2-1.9H55V35.8z"/>
	<polygon class="st15" points="37.6,27.7 39.7,27.7 39.7,25.6 41.8,25.6 41.8,23.5 39.7,23.5 39.7,21.4 37.6,21.4 37.6,23.5 
		35.5,23.5 35.5,25.6 37.6,25.6 	"/>
</g>
</svg>
