<?xml version="1.0" encoding="UTF-8"?>
<svg width="13px" height="13px" viewBox="0 0 13 13" version="1.1" xmlns="http://www.w3.org/2000/svg" xmlns:xlink="http://www.w3.org/1999/xlink">
    <!-- Generator: sketchtool 54.1 (76490) - https://sketchapp.com -->
    <title>70325EFA-2073-4F7F-9E6F-4CBDBDA83241</title>
    <desc>Created with sketchtool.</desc>
    <g id="Web" stroke="none" stroke-width="1" fill="none" fill-rule="evenodd">
        <g id="Home-Web-Nueva" transform="translate(-331.000000, -2740.000000)" fill="#EEE017" stroke="#A9A479" stroke-width="0.5">
            <g id="Group-19" transform="translate(171.000000, 2634.000000)">
                <g id="Group-12" transform="translate(147.000000, 107.000000)">
                    <path d="M19.6875053,0.213713718 L21.2415127,3.31130578 C21.2877328,3.40343574 21.377065,3.46729134 21.4804044,3.4820639 L24.9552741,3.97881119 C25.21552,4.01598087 25.3194246,4.33061264 25.1311127,4.51117942 L22.6166539,6.92232383 C22.5418943,6.99404224 22.5077842,7.09733105 22.5254246,7.19859458 L23.1190209,10.6031939 C23.163465,10.8581794 22.8914319,11.0526054 22.6586356,10.9322408 L19.5506209,9.32481119 C19.4581806,9.27699892 19.3477769,9.27699892 19.2553365,9.32481119 L16.1473218,10.9322408 C15.9145659,11.0526054 15.6425328,10.8581794 15.6869769,10.6031939 L16.2805732,7.19859458 C16.2982136,7.09733105 16.2640631,6.99404224 16.1893035,6.92232383 L13.6748851,4.51117942 C13.4865732,4.33061264 13.5904778,4.01598087 13.8507237,3.97881119 L17.3255934,3.4820639 C17.4289328,3.46729134 17.518265,3.40343574 17.5644851,3.31130578 L19.1184925,0.213713718 C19.2348705,-0.0182790614 19.5711273,-0.0182790614 19.6875053,0.213713718" id="Fill-3"></path>
                </g>
            </g>
        </g>
    </g>
</svg>