<?xml version="1.0" encoding="UTF-8"?>
<svg width="35px" height="35px" viewBox="0 0 35 35" version="1.1" xmlns="http://www.w3.org/2000/svg" xmlns:xlink="http://www.w3.org/1999/xlink">
    <!-- Generator: sketchtool 54.1 (76490) - https://sketchapp.com -->
    <title>6629DDBD-5CCF-4B43-A493-497870F201D3</title>
    <desc>Created with sketchtool.</desc>
    <defs>
        <polygon id="path-1" points="0 0.23387464 34.4024664 0.23387464 34.4024664 34.2120674 0 34.2120674"></polygon>
    </defs>
    <g id="Web" stroke="none" stroke-width="1" fill="none" fill-rule="evenodd">
        <g id="Home-Web-Nueva-Menu" transform="translate(-1005.000000, -525.000000)">
            <g id="Group-2" transform="translate(1005.000000, 525.000000)">
                <g id="Whatssapp-Icon" transform="translate(0.200000, 0.000000)">
                    <g id="Group-10">
                        <mask id="mask-2" fill="white">
                            <use xlink:href="#path-1"></use>
                        </mask>
                        <g id="Clip-9"></g>
                        <path d="M8.28024104,29.9934304 C8.38577731,29.9934304 8.59746344,29.9934304 8.70238614,30.0976475 C15.8856022,34.7910512 25.6023023,32.7054979 30.2501934,25.612678 C34.897471,18.5198581 32.890441,8.92401078 25.7078386,4.33421829 C18.5258497,-0.254968274 8.80792241,1.7269738 4.16064487,8.81979371 C0.7804162,13.9306715 0.7804162,20.5011943 4.16064487,25.612678 C4.26618115,25.8211122 4.372331,26.0295463 4.26618115,26.3428034 L2.15422851,32.1838067 L8.06855491,30.0976475 C8.06855491,29.9934304 8.17470477,29.9934304 8.28024104,29.9934304 M0.7804162,34.1657487 C0.569957236,34.1657487 0.358271106,34.0609257 0.252734832,33.9573146 C0.0410487018,33.7482745 -0.0644875719,33.4356233 0.0410487018,33.1223662 L2.5763736,26.1337634 C-2.38812634,18.206601 0.147198558,7.67219411 8.17470477,2.76975041 C16.202211,-2.13269328 26.8699648,0.266117077 31.8344647,8.29810244 C36.7989647,16.3294819 34.3697896,26.7596717 26.2367471,31.6621154 C20.7433387,35.0000912 13.6668861,35.0000912 8.17470477,31.6621154 L0.99210233,34.1657487 C0.99210233,34.1657487 0.886566057,34.2699658 0.7804162,34.1657487" id="Fill-8" fill="#0055C8" mask="url(#mask-2)"></path>
                    </g>
                    <path d="M10.8930782,9.88046051 C10.0471705,9.88046051 9.09629161,11.0235492 8.77953661,11.854612 C8.46216775,12.7894823 8.46216775,13.9319675 8.77953661,14.8674413 C9.3074616,16.2175412 9.94158546,17.4644373 10.8930782,18.607526 C11.6321732,19.5423963 12.371882,20.4778701 13.3233748,21.4127404 C14.1686686,22.2438033 15.1201613,23.0748661 16.0710402,23.6983142 C17.233089,24.6331845 18.5013367,25.2566325 19.8751695,25.7762731 C20.8260483,26.0876954 21.9880972,26.0876954 22.9395899,25.7762731 C23.8904687,25.4642473 25.0525176,24.5293771 25.0525176,23.5945068 C24.7363765,22.6590329 24.1022526,21.932381 23.1507599,21.5165478 C22.8340049,21.308933 22.5172499,21.308933 22.199881,21.308933 C21.9880972,21.4127404 21.671956,21.6203552 21.5657572,21.8279701 C21.3545872,22.1399958 21.0372183,22.3476107 20.8260483,22.5552255 C19.7695845,23.1786736 18.3957517,23.1786736 17.338674,22.3476107 C15.2257463,21.1007146 13.4289597,19.3347814 12.160712,17.2568225 C11.4210032,16.3219522 11.4210032,14.9712487 12.0557409,13.9319675 C12.266297,13.6205452 12.4780809,13.4129304 12.7948359,13.204712 C13.0060059,12.9970972 13.2177898,12.7894823 13.3233748,12.5818675 C13.4289597,12.2698417 13.3233748,11.9584195 13.1115909,11.6463937 C12.6892509,10.7115234 11.949542,10.0880753 10.9986632,9.77665309 L10.8930782,9.88046051 Z M21.3545872,27.5422063 C20.7204633,27.5422063 20.0863395,27.4383989 19.3466306,27.230784 C17.8672129,26.7111434 16.3877952,25.983888 15.1201613,24.9452103 C14.0630836,24.2179548 13.1115909,23.3862884 12.160712,22.4514181 C11.2098332,21.5165478 10.3645393,20.581074 9.62483047,19.4385889 C8.56775275,18.1916928 7.82865776,16.7371819 7.29950503,15.282671 C6.87716504,13.9319675 6.87716504,12.5818675 7.40509003,11.231164 C7.72245889,10.0880753 9.20187661,8.11392381 11.2098332,8.32153865 C12.6892509,8.63356443 13.9574986,9.67284567 14.5910086,11.0235492 C14.9083775,11.6463937 15.0139625,12.3736491 14.8027925,13.1009046 C14.5910086,13.6205452 14.1686686,14.0363784 13.7457147,14.3478007 C13.5345447,14.4516081 13.4289597,14.6592229 13.2177898,14.8674413 C12.9010348,15.3870819 13.0060059,16.0099264 13.3233748,16.4257596 C13.8512997,17.3606299 14.5910086,18.1916928 15.3307175,19.0227557 C16.0710402,19.7506146 17.021919,20.4778701 17.9727979,20.9969072 C18.3957517,21.308933 19.0298756,21.4127404 19.5578006,21.1007146 C19.7695845,20.9969072 19.8751695,20.7892924 20.0869533,20.581074 C20.4030945,20.1658443 20.9322472,19.7506146 21.3545872,19.5423963 C22.094296,19.3347814 22.8340049,19.4385889 23.4675149,19.7506146 C24.8419615,20.3734591 25.8984253,21.6203552 26.2151803,23.0748661 C26.4269642,24.9452103 24.4190076,26.3997212 23.1513738,26.9187583 C22.727806,27.3345915 21.9880972,27.4383989 21.3545872,27.5422063 L21.3545872,27.5422063 Z" id="Fill-11" fill="#0055C8"></path>
                    <path d="M12.713389,14.42687 C12.5102153,14.42687 12.3070416,14.3190177 12.2054547,14.2111654 L11.5947523,13.5634248 C11.2905823,13.239241 11.2905823,12.6999797 11.5947523,12.4836482 C11.9001035,12.1600914 12.4086284,12.1600914 12.713389,12.4836482 L13.3235008,13.1320158 C13.628852,13.4555726 13.628852,13.9954609 13.3235008,14.3190177 C13.1203271,14.3190177 12.9171534,14.42687 12.713389,14.42687" id="Fill-13" fill="#0055C8"></path>
                    <path d="M21.4569466,23.1704275 C21.2537728,23.1704275 21.0505991,23.0676465 20.9490123,22.9648655 L20.3383098,22.3475818 C20.0341399,22.0386412 20.0341399,21.5247361 20.3383098,21.2157954 C20.6436611,20.9074524 21.152186,20.9074524 21.4569466,21.2157954 L22.0670584,21.8330791 C22.3724096,22.1420197 22.3724096,22.6559248 22.0670584,22.9648655 C21.863294,23.0676465 21.6607109,23.1704275 21.4569466,23.1704275" id="Fill-15" fill="#0055C8"></path>
                </g>
            </g>
        </g>
    </g>
</svg>