<?xml version="1.0" encoding="utf-8"?>
<!-- Generator: Adobe Illustrator 23.0.1, SVG Export Plug-In . SVG Version: 6.00 Build 0)  -->
<svg version="1.1" xmlns="http://www.w3.org/2000/svg" xmlns:xlink="http://www.w3.org/1999/xlink" x="0px" y="0px"
	 viewBox="0 0 100 100" style="enable-background:new 0 0 100 100;" xml:space="preserve">
<style type="text/css">
	.st0{fill:#ECF9FF;}
	.st1{fill:#FFFFFF;}
	.st2{fill:#535D66;}
	.st3{fill-rule:evenodd;clip-rule:evenodd;fill:#ECF9FF;}
	.st4{fill-rule:evenodd;clip-rule:evenodd;fill:#FFFFFF;}
	.st5{fill-rule:evenodd;clip-rule:evenodd;fill:#00AAFF;}
	.st6{fill-rule:evenodd;clip-rule:evenodd;}
	.st7{fill:#00AAFF;}
	.st8{fill:#808099;}
	.st9{fill:#FFC037;}
	.st10{fill:#FF7108;}
	.st11{fill:#AEFFCF;}
	.st12{fill:#0BD360;}
	.st13{fill:#343434;}
	.st14{fill-rule:evenodd;clip-rule:evenodd;fill:#104EFF;}
	.st15{fill:#002E75;}
	.st16{fill:#0855C4;}
	.st17{fill:#99E2FF;}
	.st18{fill:#AED3FF;}
	.st19{fill:#231F20;}
	.st20{fill:#EFF1F4;}
	.st21{clip-path:url(#SVGID_2_);}
	.st22{fill:#8EEA00;}
	.st23{fill-rule:evenodd;clip-rule:evenodd;fill:#8EEA00;}
	.st24{fill:#0021CE;}
	.st25{fill:#104EFF;}
	.st26{fill:#303030;}
	.st27{fill:#00E1CF;}
	.st28{fill-rule:evenodd;clip-rule:evenodd;fill:#0BD360;}
	.st29{fill-rule:evenodd;clip-rule:evenodd;fill:#00E1CF;}
	.st30{fill:none;stroke:#5C006A;stroke-width:1.29;stroke-linecap:round;stroke-linejoin:round;}
	.st31{fill:#B6FFD3;}
	.st32{clip-path:url(#SVGID_4_);}
	.st33{fill:#DFE6E8;}
	.st34{fill:#B3B3B3;}
	.st35{fill:#96E0FD;}
	.st36{fill:#0ED160;}
	.st37{fill:#08A8FD;}
	.st38{fill:#6EEE89;}
	.st39{fill:#DFF8F5;}
	.st40{clip-path:url(#SVGID_6_);fill:#96E0FD;}
	.st41{fill:#F5F5F6;}
	.st42{fill:none;stroke:#002E75;stroke-width:1.5207;stroke-linecap:round;stroke-linejoin:round;}
	.st43{fill:#E9EAEB;}
	.st44{clip-path:url(#SVGID_8_);fill:#FFFFFF;}
	.st45{clip-path:url(#SVGID_8_);fill:#FFCF9B;}
	.st46{clip-path:url(#SVGID_8_);fill:#002E75;}
	.st47{clip-path:url(#SVGID_8_);fill:#F9BC90;}
	.st48{clip-path:url(#SVGID_8_);fill:#0ED160;}
	.st49{fill-rule:evenodd;clip-rule:evenodd;fill:#002E75;}
	.st50{fill-rule:evenodd;clip-rule:evenodd;fill:#0ED160;}
	.st51{fill-rule:evenodd;clip-rule:evenodd;fill:#DFE6E8;}
	.st52{fill-rule:evenodd;clip-rule:evenodd;fill:#DCE6E8;}
	.st53{fill-rule:evenodd;clip-rule:evenodd;fill:#6EEE89;}
	.st54{fill-rule:evenodd;clip-rule:evenodd;fill:#FFC037;}
	.st55{fill:#F4F4F5;}
	.st56{fill:#606060;}
	.st57{fill-rule:evenodd;clip-rule:evenodd;fill:#005EA1;}
	.st58{fill-rule:evenodd;clip-rule:evenodd;fill:#00A5D8;}
	.st59{fill:#444444;}
	.st60{clip-path:url(#SVGID_10_);}
	.st61{clip-path:url(#SVGID_12_);}
	.st62{clip-path:url(#SVGID_14_);}
	.st63{clip-path:url(#SVGID_16_);}
	.st64{clip-path:url(#SVGID_18_);}
	.st65{clip-path:url(#SVGID_20_);}
</style>
<g id="Layer_3">
</g>
<g id="Layer_1">
</g>
<g id="Layer_2">
</g>
<g id="Layer_4">
</g>
<g id="Layer_5">
</g>
<g id="Isolation_Mode">
</g>
<g id="Art">
</g>
<g id="Capa_8">
	<path class="st15" d="M53.2,48.3h-3.8l2.1-4.7c0.4-0.8,0-1.8-0.8-2.2c-0.4-0.2-0.9-0.2-1.3,0c-0.4,0.2-0.8,0.5-0.9,0.9l-3.2,7
		c-0.2,0.5-0.2,1.1,0.1,1.6s0.8,0.8,1.4,0.8h3.8l-2.1,4.7c-0.2,0.4-0.2,0.9,0,1.3c0.2,0.4,0.5,0.8,0.9,0.9c0.2,0.1,0.5,0.2,0.7,0.2
		c0.7,0,1.3-0.4,1.5-1l3.2-7c0.2-0.5,0.2-1.1-0.1-1.6C54.3,48.6,53.8,48.3,53.2,48.3z"/>
	<path class="st15" d="M50,28.3c0.9,0,1.7-0.8,1.7-1.7l0,0V19c0-0.9-0.8-1.7-1.7-1.7s-1.7,0.8-1.7,1.7l0,0v7.6
		C48.3,27.6,49.1,28.3,50,28.3z"/>
	<path class="st15" d="M37.8,22.7c-0.6-0.7-1.6-0.9-2.4-0.3c-0.7,0.5-0.9,1.4-0.4,2.2l4,6.1c0.3,0.5,0.8,0.8,1.4,0.8
		c0.3,0,0.7-0.1,0.9-0.3c0.8-0.5,1-1.6,0.5-2.3L37.8,22.7z"/>
	<path class="st15" d="M58.6,31.1L58.6,31.1c0.3,0.2,0.6,0.3,0.9,0.3c0.6,0,1.1-0.3,1.4-0.8l4-6.1c0.5-0.8,0.3-1.8-0.5-2.3l0,0
		c-0.8-0.5-1.8-0.3-2.3,0.5l0,0l-4,6.1C57.6,29.5,57.9,30.6,58.6,31.1z"/>
	<path class="st15" d="M50,71.7c-0.9,0-1.7,0.8-1.7,1.7l0,0V81c0,0.9,0.8,1.7,1.7,1.7s1.7-0.8,1.7-1.7v-7.6
		C51.7,72.4,50.9,71.7,50,71.7L50,71.7z"/>
	<path class="st15" d="M61,69.4c-0.5-0.8-1.6-1-2.3-0.5c-0.8,0.5-1,1.6-0.5,2.3l4,6.1c0.3,0.5,0.8,0.8,1.4,0.8
		c0.3,0,0.7-0.1,0.9-0.3c0.8-0.5,0.9-1.6,0.4-2.3L61,69.4z"/>
	<path class="st15" d="M41.4,68.9L41.4,68.9c-0.4-0.2-0.8-0.3-1.3-0.2c-0.4,0.1-0.8,0.3-1.1,0.7l-4,6.1c-0.5,0.8-0.3,1.8,0.5,2.3
		l0,0c0.3,0.2,0.6,0.3,0.9,0.3c0.6,0,1.1-0.3,1.4-0.8l4-6.1C42.4,70.5,42.2,69.4,41.4,68.9z"/>
	<path class="st15" d="M36.6,58.7V55h3.6c0.9-0.1,1.6-0.9,1.6-1.8c-0.1-0.8-0.7-1.5-1.6-1.6h-3.6v-5.3h3.6c0.9-0.1,1.6-0.9,1.6-1.8
		c-0.1-0.8-0.7-1.5-1.6-1.6h-3.6v-3.6c0-0.9-0.8-1.7-1.7-1.7l0,0H16.4c-0.9,0-1.7,0.8-1.7,1.7s0.8,1.7,1.7,1.7h16.8v16H16.4
		c-0.9,0-1.7,0.8-1.7,1.7s0.8,1.7,1.7,1.7h18.5C35.8,60.4,36.6,59.6,36.6,58.7L36.6,58.7z"/>
	<path class="st15" d="M83.6,57H66.8V41h16.8c0.9,0,1.7-0.8,1.7-1.7s-0.8-1.7-1.7-1.7H65.1c-0.9,0-1.7,0.8-1.7,1.7l0,0V43h-3.6
		c-0.9,0.1-1.6,0.9-1.6,1.8c0.1,0.8,0.7,1.5,1.6,1.6h3.6v5.3h-3.6c-0.9,0.1-1.6,0.9-1.6,1.8c0.1,0.8,0.7,1.5,1.6,1.6h3.6v3.6
		c0,0.9,0.8,1.7,1.7,1.7h18.5c0.9,0,1.7-0.8,1.7-1.7S84.5,57,83.6,57L83.6,57z"/>
</g>
</svg>
