<svg xmlns="http://www.w3.org/2000/svg" viewBox="0 0 41.03 28.62"><defs><style>.bd3b6a55-995d-4d35-bd46-42ab9aa5b292{fill:none;stroke:#0af;stroke-miterlimit:10;stroke-width:2.15px;}</style></defs><title>Recurso 29</title><g id="f5276481-3fa2-4e07-b08f-387214bd5565" data-name="Capa 2"><g id="bde1620c-1605-493b-b58e-ea115ae8178d" data-name="Capa 1"><path class="bd3b6a55-995d-4d35-bd46-42ab9aa5b292" d="M35.67,22.58h.26a4,4,0,0,0,4-4V13.83a4,4,0,0,0-4-4H32.37L31,4.13a4,4,0,0,0-3.91-3H13.93A4,4,0,0,0,10,4.13L8.63,9.81H5.1a4,4,0,0,0-4,4v4.73a4,4,0,0,0,4,4h0"/><line class="bd3b6a55-995d-4d35-bd46-42ab9aa5b292" x1="18.77" y1="22.58" x2="22.15" y2="22.58"/><line class="bd3b6a55-995d-4d35-bd46-42ab9aa5b292" x1="36.7" y1="16.72" x2="40.08" y2="16.72"/><path class="bd3b6a55-995d-4d35-bd46-42ab9aa5b292" d="M26.83,10.19h-4.7A1.11,1.11,0,0,1,21,9.08V5.43a1.11,1.11,0,0,1,1.11-1.1h4a1.11,1.11,0,0,1,1.09.9l.67,3.65A1.11,1.11,0,0,1,26.83,10.19Z"/><circle class="bd3b6a55-995d-4d35-bd46-42ab9aa5b292" cx="29.21" cy="22.58" r="4.96"/><circle class="bd3b6a55-995d-4d35-bd46-42ab9aa5b292" cx="11.82" cy="22.58" r="4.96"/></g></g></svg>