<?xml version="1.0" encoding="UTF-8"?>
<svg width="31px" height="31px" viewBox="0 0 31 31" version="1.1" xmlns="http://www.w3.org/2000/svg" xmlns:xlink="http://www.w3.org/1999/xlink">
    <!-- Generator: sketchtool 54.1 (76490) - https://sketchapp.com -->
    <title>F0191B0A-8F2B-40E8-8928-9BB8E7BC59BF</title>
    <desc>Created with sketchtool.</desc>
    <defs>
        <polygon id="path-1" points="3.76279292e-05 0.0250240964 30.8319489 0.0250240964 30.8319489 30.626506 3.76279292e-05 30.626506"></polygon>
    </defs>
    <g id="Web" stroke="none" stroke-width="1" fill="none" fill-rule="evenodd">
        <g id="Home-Web-Nueva-Menu" transform="translate(-1004.000000, -223.000000)">
            <g id="Group-9" transform="translate(1004.000000, 223.000000)">
                <g id="Group-6">
                    <path d="M15.4153348,9.21465663 C11.8263829,9.21465663 8.90683187,12.1122229 8.90683187,15.6749819 C8.90683187,19.2366205 11.8263829,22.1341867 15.4153348,22.1341867 C19.0039104,22.1341867 21.9234614,19.2366205 21.9234614,15.6749819 C21.9234614,12.1122229 19.0039104,9.21465663 15.4153348,9.21465663 M15.4153348,10.7086325 C18.1738383,10.7086325 20.4183443,12.9365241 20.4183443,15.6749819 C20.4183443,18.4126928 18.1738383,20.6402108 15.4153348,20.6402108 C12.656455,20.6402108 10.411949,18.4126928 10.411949,15.6749819 C10.411949,12.9365241 12.656455,10.7086325 15.4153348,10.7086325" id="Fill-1" fill="#00AAFF"></path>
                    <g id="Group-5" transform="translate(0.000000, 0.348433)">
                        <mask id="mask-2" fill="white">
                            <use xlink:href="#path-1"></use>
                        </mask>
                        <g id="Clip-4"></g>
                        <path d="M17.6053932,0.0249493976 L13.2217394,0.0249493976 C13.1099844,0.0249493976 13.0189249,0.114587952 13.0189249,0.224395181 L13.0189249,4.25514217 L12.6264656,4.35000964 C11.5412761,4.61182892 10.5019927,5.0282747 9.53646001,5.58963614 L9.19404585,5.78870843 L6.35087952,2.96621446 C6.3004581,2.91653976 6.23874829,2.90906988 6.20714083,2.90906988 C6.17478081,2.90906988 6.11382357,2.91653976 6.06114447,2.96808193 L2.96549473,6.0449253 C2.91319191,6.09721446 2.90529004,6.1566 2.90529004,6.1876 C2.90529004,6.21785301 2.91281563,6.27611807 2.96323705,6.32579277 L5.7589922,9.10010602 L5.54300788,9.44409398 C4.93305915,10.4162988 4.47587981,11.4676843 4.18313452,12.5687446 L4.08229167,12.948588 L0.200594491,12.948588 C0.0899683788,12.9493349 3.76279292e-05,13.039347 3.76279292e-05,13.1510217 L3.76279292e-05,17.501853 C3.76279292e-05,17.6127807 0.0899683788,17.7027928 0.200594491,17.7027928 L4.01042232,17.7027928 L4.10261075,18.0983229 C4.36826393,19.2445759 4.80963954,20.3381663 5.41319153,21.349588 L5.61675862,21.6902145 L2.96587101,24.3222265 C2.91394447,24.3737687 2.9060426,24.4335277 2.9060426,24.4641542 C2.9060426,24.4951542 2.91356819,24.5552867 2.96549473,24.6060819 L6.0641547,27.6829253 C6.11608124,27.7344675 6.17628593,27.7423108 6.20789339,27.7423108 C6.23912457,27.7423108 6.29970554,27.734841 6.35163208,27.6829253 L8.97467503,25.0792988 L9.32009942,25.2899494 C10.3443316,25.9144313 11.4566132,26.3738289 12.6264656,26.6561904 L13.0193011,26.7506843 L13.0193011,30.4254916 C13.0193011,30.5360458 13.1103607,30.6268048 13.2221157,30.6268048 L17.6057694,30.6268048 C17.7194058,30.6268048 17.8089602,30.5379133 17.8089602,30.4254916 L17.8089602,26.7338771 L18.1976568,26.6367687 C19.3520816,26.3488048 20.4534511,25.8841783 21.4720392,25.2552145 L21.8189687,25.0412024 L24.4796395,27.6832988 C24.5311898,27.734841 24.5910182,27.7426843 24.6222494,27.7426843 C24.6531043,27.7426843 24.713309,27.7352145 24.7629778,27.6847928 L27.8657769,24.6068289 C27.944043,24.5287687 27.9444193,24.4002867 27.8646481,24.3214795 L25.1580711,21.6334434 L25.358628,21.2935639 C25.9456237,20.3000699 26.3764635,19.2251542 26.6383538,18.0983229 L26.7309185,17.7031663 L30.6261618,17.7031663 C30.7397981,17.7031663 30.8319866,17.6131542 30.8319866,17.5022265 L30.8319866,13.1510217 C30.8319866,13.0397205 30.7397981,12.9493349 30.6261618,12.9493349 L26.6564152,12.9493349 L26.5555724,12.5694916 C26.2677187,11.4867325 25.8218278,10.4536482 25.2295642,9.4982506 L25.0169664,9.15500964 L27.8646481,6.32840723 C27.9432904,6.25034699 27.9429141,6.12335904 27.8635192,6.04455181 L24.7637304,2.96696145 C24.7136853,2.91728675 24.652728,2.90981687 24.6214968,2.90981687 C24.5895131,2.90981687 24.5281796,2.91691325 24.4781344,2.96733494 L21.6003504,5.82344337 L21.2571837,5.62138313 C20.3003054,5.0592747 19.2708053,4.6376 18.1961516,4.36980482 L17.8078314,4.27269639 L17.8078314,0.224395181 C17.8082077,0.112720482 17.7194058,0.0249493976 17.6053932,0.0249493976 M16.3027142,1.5189253 L16.3027142,4.27269639 L16.3027142,5.4376241 L17.4409591,5.72147952 L17.8296556,5.81858795 C18.7616994,6.0512747 19.6572441,6.4172988 20.4895739,6.9069494 L20.8327406,7.10863614 L21.8381589,7.7006241 L22.6644682,6.88005783 L24.6211206,4.93826265 L25.8786459,6.18685301 L23.9524723,8.09876867 L23.1122406,8.93352771 L23.7349828,9.93785301 L23.9475806,10.281094 C24.4623307,11.1117446 24.8502746,12.0099976 25.1001241,12.9508289 L25.2013432,13.3306723 L25.497475,14.4433108 L26.6564152,14.4433108 L29.3268694,14.4433108 L29.3268694,16.2091904 L26.7309185,16.2091904 L25.5354792,16.2091904 L25.2645581,17.3651542 L25.1716172,17.7621783 C24.9439682,18.741106 24.5703229,19.674841 24.0600881,20.538359 L23.8595313,20.8782386 L23.271783,21.8736 L24.093577,22.6896843 L25.8805273,24.4641542 L24.6226257,25.7116241 L22.8830865,23.984588 L22.0383395,23.1457205 L21.0235142,23.7724434 L20.676961,23.9868289 C19.7915758,24.5336241 18.833945,24.9377446 17.831537,25.187612 L17.4424642,25.2847205 L16.3038431,25.5682024 L16.3038431,26.7338771 L16.3038431,29.1328289 L14.5244183,29.1328289 L14.5244183,26.7506843 L14.5244183,25.5752988 L13.3737562,25.2985398 L12.9820495,25.2044193 C11.9645903,24.9590337 10.9975525,24.5593952 10.1072757,24.0163349 L9.76147503,23.8060578 L8.74966001,23.1894193 L7.91018091,24.0230578 L6.20789339,25.7127446 L4.95074428,24.4645277 L6.68125274,22.7464554 L7.50718579,21.9262627 L6.91153567,20.9286602 L6.70796857,20.5880337 C6.18343524,19.7084554 5.80000664,18.7579133 5.56897115,17.7610578 L5.47678273,17.3659012 L5.20699047,16.2088169 L4.01042232,16.2088169 L1.5051548,16.2088169 L1.5051548,14.4425639 L4.08229167,14.4425639 L5.24236073,14.4425639 L5.53773997,13.3288048 L5.63820654,12.9497084 C5.89294762,11.9924434 6.29105111,11.0785036 6.82085236,10.2336602 L7.03646039,9.8892988 L7.66823332,8.88235904 L6.82311003,8.04349157 L4.95112055,6.18573253 L6.20751711,4.93676867 L8.12955174,6.8449494 L8.95134571,7.66028675 L9.9545063,7.07800964 L10.2965442,6.87931084 C11.135647,6.3919012 12.0387173,6.02923855 12.9824258,5.80140723 L13.3748851,5.70653976 L14.524042,5.42903373 L14.524042,4.25514217 L14.524042,1.5189253 L16.3027142,1.5189253" id="Fill-3" fill="#00AAFF" mask="url(#mask-2)"></path>
                    </g>
                </g>
            </g>
        </g>
    </g>
</svg>