<?xml version="1.0" encoding="utf-8"?>
<!-- Generator: Adobe Illustrator 23.0.1, SVG Export Plug-In . SVG Version: 6.00 Build 0)  -->
<svg version="1.1" xmlns="http://www.w3.org/2000/svg" xmlns:xlink="http://www.w3.org/1999/xlink" x="0px" y="0px"
	 viewBox="0 0 160 155" style="enable-background:new 0 0 160 155;" xml:space="preserve">
<style type="text/css">
	.st0{fill:#5FA7FB;}
	.st1{fill:#599DD6;}
	.st2{fill:#77D168;}
	.st3{fill:#3256BF;}
	.st4{fill:#1C3272;}
	.st5{fill:#AFE0FD;}
	.st6{fill:#EEF8FF;}
	.st7{fill:#C7FFCF;}
	.st8{fill:#B7D1FC;}
	.st9{fill:#575D66;}
	.st10{fill:#272425;}
	.st11{fill:#EEF0F3;}
	.st12{fill:none;}
	.st13{fill:#F5F6FA;}
	.st14{fill:#FFFFFF;}
	.st15{fill:#9EEC8D;}
	.st16{fill:#76CF68;}
	.st17{clip-path:url(#SVGID_4_);fill:#C7FFCF;}
	.st18{clip-path:url(#SVGID_6_);fill:#C7FFCF;}
	.st19{fill:#ADDEFB;}
	.st20{fill:#74C9F7;}
	.st21{clip-path:url(#SVGID_8_);fill:#ADDEFB;}
	.st22{fill:#038EED;}
	.st23{clip-path:url(#SVGID_10_);fill:#ADDEFB;}
	.st24{fill:#A7ACB5;}
	.st25{clip-path:url(#SVGID_12_);fill:#EEF0F3;}
	.st26{clip-path:url(#SVGID_14_);fill:#EEF0F3;}
	.st27{fill:#8FDB7D;}
	.st28{fill:#5FA5F9;}
	.st29{clip-path:url(#SVGID_16_);fill:#ADDEFB;}
	.st30{fill:#E0E5E7;}
	.st31{fill:#B0B0B0;}
	.st32{fill:#FFFFFF;stroke:#1C3272;stroke-width:1.65;stroke-linecap:round;stroke-linejoin:round;}
	.st33{fill:#19306D;}
	.st34{fill:none;stroke:#704EFB;stroke-width:1.65;stroke-linejoin:round;}
	.st35{fill:none;stroke:#704EFB;stroke-width:1.65;stroke-linejoin:round;stroke-dasharray:2.24,2.24;}
	.st36{fill:none;stroke:#704EFB;stroke-width:1.65;stroke-linejoin:round;stroke-dasharray:2.28,2.28;}
	.st37{fill:none;stroke:#1C3272;stroke-width:1.65;stroke-linejoin:round;}
	.st38{fill:none;stroke:#704EFB;stroke-width:1.65;stroke-linejoin:round;stroke-dasharray:2.16,2.16;}
	.st39{fill:none;stroke:#74C9F7;stroke-width:1.68;stroke-linecap:round;stroke-linejoin:round;}
	.st40{fill:none;stroke:#19306D;stroke-width:1.65;stroke-linejoin:round;stroke-dasharray:2.28,2.28;}
	.st41{fill:none;stroke:#1C3272;stroke-width:1.65;stroke-linejoin:round;stroke-dasharray:2.16,2.16;}
	.st42{fill:none;stroke:#19306D;stroke-width:1.65;stroke-linejoin:round;stroke-dasharray:2.1,2.1;}
	.st43{fill:none;stroke:#19306D;stroke-width:1.65;stroke-linejoin:round;stroke-dasharray:2.11,2.11;}
	.st44{fill:none;stroke:#19306D;stroke-width:1.65;stroke-linejoin:round;}
	.st45{fill:none;stroke:#19306D;stroke-width:1.65;stroke-linejoin:round;stroke-dasharray:2.01,2.01;}
	.st46{fill:none;stroke:#19306D;stroke-width:1.65;stroke-linejoin:round;stroke-dasharray:2.24,2.24;}
	.st47{fill:none;stroke:#19306D;stroke-width:1.65;stroke-linejoin:round;stroke-dasharray:2.22,2.22;}
	.st48{fill:none;stroke:#19306D;stroke-width:1.65;stroke-miterlimit:10;stroke-dasharray:2.16,2.16;}
</style>
<g id="Capa_1">
</g>
<g id="Capa_2">
</g>
<g id="Capa_3">
	<path class="st30" d="M57.3,105.6c-2.1,0-3.9,1.7-3.9,3.9v6.6c0,2.1,1.7,3.9,3.9,3.9h4.2c3-3.5,2.5-8.1,3.8-13.4
		c-0.7-0.6-1.6-1-2.6-1H57.3z"/>
	<path class="st24" d="M60.1,120c2.1,0,3.9-1.7,3.9-3.9v-6.6c0-1.1-0.5-2.2-1.3-2.9c-1.3,5.2-0.8,9.8-3.8,13.4H60.1z"/>
	<path class="st30" d="M126.2,108.5h-3.6c-2.1,0-3.9,1.7-3.9,3.9v6.6c0,1.2,0.5,2.2,1.3,2.9C128.3,122.4,127.4,114.7,126.2,108.5z"
		/>
	<path class="st24" d="M128.1,108.5h-1.8c1.2,6.2,2,13.9-6.2,13.4c0.7,0.6,1.6,1,2.6,1h5.5c2.1,0,3.9-1.7,3.9-3.9v-6.6
		C131.9,110.2,130.2,108.5,128.1,108.5z"/>
	<path class="st11" d="M122.3,74.7L118,64.2c-0.8-2.3-2.5-4.2-4.6-5.4c-3.5-1.8-10.4-3.7-23.5-3.7h-0.1c-13,0-19.9,1.9-23.5,3.7
		c-2.2,1.1-3.8,3-4.6,5.4l-4.2,10.6c0,0,0.4,9.8,35.4,9.8S122.3,74.7,122.3,74.7z"/>
	<path class="st4" d="M92.8,85.3c-14.7,0-25.2-1.7-31.2-5c-4.7-2.6-5-5.3-5-5.5c0-0.1,0-0.2,0.1-0.3l4.2-10.6c0.8-2.5,2.6-4.5,5-5.8
		c3.5-1.7,10.4-3.8,23.8-3.8h0.1c13.5,0,20.4,2.1,23.8,3.8c2.4,1.2,4.2,3.3,5,5.8l4.2,10.5c0.2,0.3,0.9,2-0.2,4.1
		C120.1,83,110,85.3,92.8,85.3z M58.2,74.8c0.3,1.1,3.3,9,34.6,9c21.8,0,27.3-3.8,28.6-6.1c0.8-1.4,0.2-2.6,0.2-2.6c0,0,0-0.1,0-0.1
		l-4.2-10.6c-0.7-2.2-2.3-3.9-4.3-5c-3.3-1.7-10-3.6-23.1-3.6h-0.1c-13.1,0-19.8,2-23.1,3.6c-2,1-3.5,2.8-4.3,4.9L58.2,74.8z"/>
	<path class="st14" d="M118.4,76.2l-3.7-9.3c-0.7-2-2.2-3.7-4.1-4.7c-3.1-1.6-9.1-3.3-20.6-3.3h-0.1c-11.5,0-17.5,1.7-20.6,3.3
		c-1.9,1-3.4,2.7-4.1,4.7l-3.7,9.3c0,0-2.9,7.5,28.4,7.5S118.4,76.2,118.4,76.2z"/>
	<path class="st20" d="M121.1,80.2l-3.7-9.3c-0.7-2-2.2-3.7-4.1-4.7c-3.1-1.6-9.1-3.3-20.6-3.3h-0.1c-11.5,0-17.5,1.7-20.6,3.3
		c-1.9,1-3.4,2.7-4.1,4.7l-3.7,9.3c0,0-2.9,7.5,28.4,7.5S121.1,80.2,121.1,80.2z"/>
	<path class="st4" d="M90,84.5c-16.2,0-26.1-2-28.6-5.8c-1-1.4-0.6-2.6-0.5-2.7l3.7-9.3c0.7-2.2,2.3-4,4.4-5.1c3-1.5,9.1-3.3,21-3.3
		H90c9.5,0,16.5,1.1,20.9,3.3c2.1,1.1,3.7,2.9,4.4,5.1l3.7,9.2c0.1,0.1,0.5,1.3-0.5,2.7C116,82.5,106.1,84.5,90,84.5z M89.9,59.8
		c-11.6,0-17.4,1.7-20.3,3.2c-1.7,0.9-3.1,2.4-3.7,4.3l-3.7,9.3c0,0-0.2,0.6,0.4,1.4c1.4,1.9,6.8,5.1,27.3,5.1
		c21.5,0,26.3-3.6,27.3-5.1c0.5-0.8,0.3-1.3,0.3-1.3c0,0,0,0,0,0l-3.7-9.3c-0.7-1.9-2-3.4-3.7-4.3c-2.9-1.4-8.7-3.2-20.3-3.2H89.9z"
		/>
	<path class="st22" d="M113.5,81.3c0-4.6-3.8-8.4-8.4-8.4c-4.6,0-8.4,3.8-8.4,8.4"/>
	<path class="st4" d="M112.8,78.9c0-4.2-3.4-7.6-7.7-7.6c0,0,0,0,0,0c-4.2,0-7.6,3.4-7.6,7.6l-1.5,0c0-5,4.1-9.2,9.2-9.2
		c0,0,0,0,0,0c5.1,0,9.2,4.1,9.2,9.2L112.8,78.9z"/>
	<path class="st4" d="M60.1,119.4h-5.5c-2.6,0-4.6-2.1-4.6-4.6v-3.9c0-0.4,0.3-0.8,0.8-0.8s0.8,0.3,0.8,0.8v3.9
		c0,1.7,1.4,3.1,3.1,3.1h5.5c1.7,0,3.1-1.4,3.1-3.1c0-0.4,0.3-0.8,0.8-0.8c0.4,0,0.8,0.3,0.8,0.8C64.7,117.3,62.6,119.4,60.1,119.4z
		"/>
	<path class="st4" d="M125.4,121.8h-5.5c-2.6,0-4.6-2.1-4.6-4.6c0-0.4,0.3-0.8,0.8-0.8s0.8,0.3,0.8,0.8c0,1.7,1.4,3.1,3.1,3.1h5.5
		c1.7,0,3.1-1.4,3.1-3.1v-3.9c0-0.4,0.3-0.8,0.8-0.8s0.8,0.3,0.8,0.8v3.9C130,119.7,128,121.8,125.4,121.8z"/>
	<rect x="54.2" y="73" class="st19" width="3.6" height="2.9"/>
	<path class="st4" d="M57.9,76.7h-3.6c-0.4,0-0.8-0.3-0.8-0.8V73c0-0.4,0.3-0.8,0.8-0.8h3.6c0.4,0,0.8,0.3,0.8,0.8v2.9
		C58.6,76.3,58.3,76.7,57.9,76.7z M55,75.2h2.1v-1.4H55V75.2z"/>
	<rect x="121.9" y="75.4" class="st19" width="3.7" height="2.9"/>
	<path class="st4" d="M125.6,79.1h-3.7c-0.4,0-0.8-0.3-0.8-0.8v-2.9c0-0.4,0.3-0.8,0.8-0.8h3.7c0.4,0,0.8,0.3,0.8,0.8v2.9
		C126.4,78.7,126,79.1,125.6,79.1z M122.7,77.5h2.2v-1.4h-2.2V77.5z"/>
	<path class="st24" d="M46.9,75c0.3,0.8,0.8,1.2,1.3,1.5c0.7,0.4,7.4,0.7,7.4,0.7s0.3-2.8,0.2-4.7C52.8,72.2,48.8,72.8,46.9,75z"/>
	<path class="st11" d="M55.2,71c-1.1-0.3-8.6-0.3-8.6,2c0,0.9,0.1,1.5,0.3,2c1.9-2.2,5.9-2.9,8.9-2.5C55.7,71.7,55.5,71.1,55.2,71z"
		/>
	<path class="st11" d="M135.5,75.9c-1.6-1.5-7.3-1.5-8.2-1.2c-0.5,0.2-0.6,1.6-0.6,3C129.7,77.1,133.7,78.5,135.5,75.9z"/>
	<path class="st24" d="M135.5,75.9c-1.8,2.6-5.9,1.3-8.8,1.9c0,1.6,0.2,3.2,0.2,3.2s6.7-0.4,7.4-0.7c0.7-0.4,1.6-1.2,1.6-3.5
		C135.9,76.4,135.8,76.1,135.5,75.9z"/>
	<path class="st4" d="M54.2,76.7C54.2,76.7,54.2,76.7,54.2,76.7c-2.6-0.1-7-0.4-7.8-0.8c-1.3-0.8-2-2.1-2-4.2c0-0.4,0.2-1.1,0.9-1.6
		c2.1-1.5,7.7-1.4,8.7-1.1c0.4,0.1,1.7,0.5,0.9,7.1C54.9,76.4,54.6,76.7,54.2,76.7z M51.9,70.3c-1.8,0-4.5,0.2-5.6,1
		c-0.2,0.1-0.3,0.3-0.3,0.4c0,2.1,0.8,2.6,1.2,2.8c0.5,0.2,3.5,0.4,6.4,0.6c0.2-2.1,0.2-4.2,0-4.7C53.2,70.3,52.6,70.3,51.9,70.3z"
		/>
	<path class="st4" d="M125.7,79.1c-0.4,0-0.7-0.3-0.8-0.7c-0.8-6.5,0.5-6.9,0.9-7.1c1-0.3,6.6-0.4,8.7,1.1c0.8,0.5,0.9,1.2,0.9,1.6
		c0,2-0.6,3.4-1.9,4.2C132.8,78.6,128.9,78.9,125.7,79.1C125.7,79.1,125.7,79.1,125.7,79.1z M126.4,72.8c-0.2,0.6-0.2,2.6,0,4.7
		c2.9-0.2,5.9-0.4,6.4-0.6c0.3-0.2,1.2-0.7,1.1-2.8c0,0,0-0.2-0.3-0.4C132.1,72.6,127.4,72.6,126.4,72.8z"/>
	<path class="st14" d="M89.9,111.5c-17.2,0-27.2-0.8-33-1.8c-8.7-1.5-7.9-6.5-7.9-10.4V87.4c0-6.4,8.4-12.6,8.4-12.6
		c10.7,1.8,21.6,2.9,32.5,3.1c10.9-0.2,21.8-1.3,32.5-3.1c0,0,8.4,6.2,8.4,12.6v11.9c0,3.9,0.8,9-7.9,10.4
		C117.1,110.7,107.1,111.5,89.9,111.5z"/>
	<path class="st11" d="M92.6,114.1c-17.2,0-27.2-0.8-33-1.8c-8.7-1.5-7.9-6.5-7.9-10.4V90c0-6.4,8.4-12.6,8.4-12.6
		c10.7,1.8,21.6,2.9,32.5,3.1c10.9-0.2,21.8-1.3,32.5-3.1c0,0,8.4,6.2,8.4,12.6v11.9c0,3.9,0.8,9-7.9,10.4
		C119.7,113.3,109.8,114.1,92.6,114.1z"/>
	<path class="st24" d="M130.6,91.2c-11-5.4-26.2-2-38.3-0.7c-9.4,1-19.3,1-28.7-1.9c-3.3-1.3-7.1-0.6-10.4,0.9
		c-0.1,0.5-0.2,1.1-0.2,1.6v10.2c0,3.4-0.7,7.7,7.5,9c5.5,0.8,15,1.5,31.3,1.5s25.8-0.7,31.3-1.5c8.3-1.3,7.5-5.6,7.5-9L130.6,91.2z
		"/>
	<path class="st14" d="M125.5,91.2h-9.3c0,0,0,0,0,0c-1,0-1.8,0.8-1.8,1.8v4.7c1.3,1.7,9-3.4,12.5-5.7
		C126.5,91.5,126,91.2,125.5,91.2z"/>
	<path class="st14" d="M64.8,88.8C64.8,88.8,64.8,88.8,64.8,88.8h-9.3c-1,0-1.8,1-1.8,2.8c0,0.5,0.1,0.9,0.2,1.3
		c4.2-1,9.5,2.2,12.7,0.2v-2.6C66.6,89.6,65.8,88.8,64.8,88.8z"/>
	<path class="st20" d="M126.6,91.9h-9.3c0,0,0,0,0,0c-1,0-1.8,0.8-1.8,1.8v3.5c4.6-1.6,9-2.2,12.5-4.5
		C127.6,92.2,127.1,91.9,126.6,91.9z"/>
	<path class="st22" d="M115.4,97.8c0,1,0.8,1.8,1.8,1.8c0,0,11.1,1.1,11.1-4.9c0-0.8-0.2-1.5-0.5-2c-3.5,2.3-7.9,2.9-12.5,4.5V97.8z
		"/>
	<path class="st22" d="M55.2,93.7c1.6,4.5,10.9,3.6,10.9,3.6c1,0,1.8-0.8,1.8-1.8v-1.5C64.8,95.8,59.4,92.7,55.2,93.7z"/>
	<path class="st20" d="M66.1,89.5C66.1,89.5,66.1,89.5,66.1,89.5h-9.3c-1,0-1.8,1-1.8,2.8c0,0.5,0.1,0.9,0.2,1.3
		c4.2-1,9.5,2.2,12.7,0.2v-2.6C67.9,90.3,67.1,89.5,66.1,89.5z"/>
	<path class="st4" d="M108.7,90.4H71.1c-0.4,0-0.8-0.3-0.8-0.8s0.3-0.8,0.8-0.8h37.6c0.4,0,0.8,0.3,0.8,0.8S109.2,90.4,108.7,90.4z"
		/>
	<path class="st4" d="M108.7,94.4H71.1c-0.4,0-0.8-0.3-0.8-0.8s0.3-0.8,0.8-0.8h37.6c0.4,0,0.8,0.3,0.8,0.8S109.2,94.4,108.7,94.4z"
		/>
	<rect x="78.1" y="99" class="st14" width="22.3" height="6.6"/>
	<path class="st4" d="M100.4,106.4H78.1c-0.4,0-0.8-0.3-0.8-0.8V99c0-0.4,0.3-0.8,0.8-0.8h3.2c0.4,0,0.8,0.3,0.8,0.8
		s-0.3,0.8-0.8,0.8h-2.4v5.1h20.8v-5.1H85.2c-0.4,0-0.8-0.3-0.8-0.8s0.3-0.8,0.8-0.8h15.2c0.4,0,0.8,0.3,0.8,0.8v6.6
		C101.2,106.1,100.9,106.4,100.4,106.4z"/>
	<path class="st4" d="M89.9,112.2c-14.9,0-26.1-0.6-33.1-1.8c-8.7-1.5-8.6-6.6-8.6-10.3c0-0.3,0-0.6,0-0.9V87.4
		c0-6.7,8.3-13,8.7-13.3c0.2-0.1,0.4-0.2,0.6-0.1c10.7,1.8,21.6,2.9,32.4,3.1c10.8-0.2,21.7-1.3,32.4-3.1c0.2,0,0.4,0,0.6,0.1
		c0.4,0.3,8.7,6.5,8.7,13.3v11.9c0,0.3,0,0.6,0,0.9c0.1,3.7,0.1,8.9-8.6,10.3c-5,0.8-10.6,1.5-21.6,1.7c0,0,0,0,0,0
		c-0.4,0-0.8-0.3-0.8-0.7c0-0.4,0.3-0.8,0.7-0.8c10.9-0.2,16.4-0.8,21.4-1.7c7.4-1.2,7.4-5.1,7.3-8.8c0-0.3,0-0.6,0-0.9V87.4
		c0-5.4-6.5-10.8-7.8-11.8c-10.6,1.8-21.5,2.8-32.3,3.1c-10.8-0.2-21.7-1.3-32.3-3.1c-1.4,1.1-7.8,6.5-7.8,11.8v11.9
		c0,0.3,0,0.6,0,0.9c-0.1,3.7-0.1,7.5,7.3,8.8c6.9,1.2,18,1.8,32.8,1.8c1.5,0,2.9,0,4.2,0c0,0,0,0,0,0c0.4,0,0.8,0.3,0.8,0.8
		c0,0.4-0.3,0.8-0.8,0.8C92.8,112.2,91.4,112.2,89.9,112.2z"/>
	<path class="st4" d="M117.8,99.1c-1,0-1.8-0.1-1.9-0.1c-1.4,0-2.5-1.2-2.5-2.6v-4.1c0-1.4,1.1-2.6,2.6-2.6h9.3
		c1.3,0,2.6,1.1,2.6,3.6c0,1.4-0.5,2.5-1.5,3.4C124.2,98.8,120.2,99.1,117.8,99.1z M115.9,91.4c-0.6,0-1.1,0.5-1.1,1v4.1
		c0,0.6,0.5,1.1,1.1,1.1c0,0,0,0,0.1,0c0.1,0,6.7,0.6,9.3-1.8c0.7-0.6,1-1.4,1-2.3c0-1.2-0.4-2.1-1.1-2.1H115.9z"/>
	<path class="st4" d="M62.9,96.8c-2.4,0-6.3-0.3-8.5-2.3c-1-0.9-1.5-2.1-1.6-3.5c0-2.5,1.3-3.6,2.6-3.6h9.3c1.4,0,2.6,1.1,2.6,2.6
		v4.1c0,1.4-1.1,2.6-2.5,2.6C64.7,96.7,63.9,96.8,62.9,96.8z M55.5,89c-0.6,0-1.1,0.9-1.1,2.1c0,0.9,0.4,1.7,1,2.3
		c2.7,2.4,9.2,1.8,9.3,1.8c0,0,0,0,0.1,0c0.6,0,1.1-0.5,1.1-1.1V90c0-0.6-0.5-1-1-1H55.5z"/>
	<path class="st4" d="M58.4,84.5c-0.1,0-0.2,0-0.3-0.1c-0.4-0.2-0.6-0.6-0.4-1c0-0.1,0.9-2.1,2.3-3.9c0.3-0.3,0.7-0.4,1.1-0.1
		c0.3,0.3,0.4,0.7,0.1,1.1c-1.3,1.7-2.1,3.5-2.1,3.6C58.9,84.3,58.7,84.5,58.4,84.5z"/>
	<path class="st4" d="M80.5,74.5c-0.1,0-0.1,0-0.2,0l-3.7-1c-0.4-0.1-0.6-0.5-0.5-0.9c0.1-0.4,0.5-0.6,0.9-0.5l3.1,0.8l1.8-3
		c0.1-0.2,0.4-0.4,0.7-0.4l6.4,0.2l0.6-2.1l-5.5-0.1c-0.3,0-0.5-0.1-0.6-0.4s-0.2-0.5,0-0.7l3.6-7.6c0.2-0.4,0.6-0.5,1-0.4
		c0.4,0.2,0.5,0.6,0.4,1l-3.1,6.6l5.3,0.1c0.2,0,0.5,0.1,0.6,0.3c0.1,0.2,0.2,0.4,0.1,0.7l-1,3.6c-0.1,0.3-0.4,0.6-0.8,0.6L83,71
		l-1.9,3.1C81,74.3,80.8,74.5,80.5,74.5z"/>
	<path class="st20" d="M68.1,52.7c-0.2,0-0.3-0.1-0.5-0.2l-5.3-4.3c-0.2-0.2-0.3-0.5-0.2-0.8c0.1-0.3,0.3-0.5,0.6-0.5l5.6-0.7
		l0.8-5.4c0-0.3,0.2-0.5,0.5-0.6c0.3-0.1,0.6,0,0.8,0.2l4.2,4l4.7-4.1c0.2-0.2,0.6-0.2,0.8-0.1c0.3,0.1,0.4,0.4,0.4,0.7l-0.7,8
		c0,0.4-0.4,0.7-0.8,0.7c-0.4,0-0.7-0.4-0.7-0.8l0.6-6.2L75,46c-0.3,0.3-0.7,0.2-1,0l-3.7-3.5L69.7,47c0,0.3-0.3,0.6-0.7,0.7
		l-4.4,0.5l3.9,3.2c0.3,0.3,0.4,0.7,0.1,1.1C68.5,52.6,68.3,52.7,68.1,52.7z"/>
	<path class="st4" d="M64,72.9c-0.1,0-0.3,0-0.4-0.1c-0.2-0.1-0.3-0.3-0.4-0.5l-5-18.6c-0.1-0.2,0-0.5,0.1-0.7l1-1.3
		c0.2-0.2,0.5-0.3,0.7-0.3c0.3,0.1,0.5,0.3,0.6,0.5l5.3,19.5c0.1,0.4-0.1,0.8-0.5,0.9l-1.3,0.4C64.1,72.9,64.1,72.9,64,72.9z"/>
	<path class="st14" d="M46.5,66.6l6.6-0.5c1.4,0,2.6,0.5,2.8,1.9c0.4-0.1,0.7-0.3,1.1-0.4c1.3-0.6,1.8-2,1.3-3.3
		c-0.6-1.3-2-1.8-3.3-1.3c-1.3,0.6-2.7,1-4.1,1c-1.4,0-2.7-0.4-3.8-1.2c-0.9-0.6-1.6-1.3-2.3-2.1c-1.8,0.6-3.5,1-5.4,1.3l0,0H39l0,0
		c-1.7,0-3.1-1.3-3.1-3c0-1.6,1.2-2.9,2.7-3.1h0.1h0.2l0.8-0.2c0.9-0.2,1.8-0.4,2.6-0.7c-0.5-0.7-1.2-1.2-2.1-1.4
		c-2.7-0.6-6.4,0.9-7.9,5.5c-1.9,5.5-2.4,11.4-1.4,17.2c0.6,2.8,1.9,4.1,3.5,4.8c0,9.1-1.6,18.1-4.7,26.7c-0.8,2,0.2,4.2,2.2,5
		c0,0,0,0,0,0c0.4,0.2,0.9,0.2,1.3,0.2c1.6,0,3.1-1,3.6-2.5c3.4-9.5,5.2-19.4,5.2-29.5c0-2.7-0.1-4.3-0.1-4.4c0-0.3-0.1-0.6-0.2-0.8
		c-0.2-3.4,0-6.8,0.7-10.2c0.5,0.5,1.1,2,1.7,2.4C44.7,67.1,45.6,66.6,46.5,66.6z"/>
	<path class="st4" d="M33.4,113.7C33.4,113.7,33.4,113.7,33.4,113.7c-0.6,0-1.1-0.1-1.6-0.3c-2.5-0.9-3.7-3.6-2.8-6
		c3-8.3,4.5-17,4.6-25.9c-1.8-0.9-2.9-2.6-3.5-5.1c-1-5.9-0.5-12,1.4-17.6c1.5-4.8,5.7-6.7,8.8-6c1,0.2,1.9,0.8,2.5,1.7
		c0.2,0.2,0.2,0.5,0.1,0.7c-0.1,0.2-0.3,0.4-0.5,0.5c-0.9,0.3-1.8,0.5-2.7,0.7L39,56.7c0,0-0.1,0-0.1,0h-0.2c-1.1,0.1-2,1.1-2,2.3
		c0,0.6,0.2,1.2,0.7,1.6c0.4,0.4,1,0.6,1.6,0.6h0.3c1.8-0.3,3.5-0.7,5.2-1.2c0.3-0.1,0.7,0,0.9,0.3c0.6,0.8,1.3,1.4,2.1,1.9
		c1,0.7,2.2,1,3.4,1c1.3,0,2.6-0.4,3.8-0.9c1.7-0.7,3.6,0,4.4,1.7c0.4,0.8,0.4,1.7,0.1,2.5c-0.3,0.8-0.9,1.5-1.7,1.8
		c-0.4,0.2-0.8,0.3-1.1,0.5c-0.2,0.1-0.5,0.1-0.7-0.1c-0.2-0.1-0.4-0.3-0.4-0.6c0-0.3-0.2-1.2-2-1.2l-6.5,0.5c0,0,0,0-0.1,0
		c-0.7,0-1.3,0.3-1.7,0.9c-0.1,0.2-0.3,0.3-0.5,0.3c-0.2,0-0.4,0-0.6-0.1c-0.3-0.2-0.5-0.5-0.8-0.9c-0.4,2.6-0.5,5.2-0.3,7.8
		c0.1,0.3,0.2,0.6,0.2,0.9l0,0.2c0,0.5,0.1,2,0.1,4.3c0,10.2-1.7,20.2-5.2,29.8C37.1,112.5,35.3,113.7,33.4,113.7z M39,54.3
		c-2.2,0-4.9,1.6-6,5c-1.9,5.4-2.4,11.2-1.4,16.8c0.5,2.2,1.5,3.5,3,4.2c0.3,0.1,0.5,0.4,0.5,0.8c0,9.2-1.6,18.3-4.7,27
		c-0.6,1.6,0.2,3.4,1.8,4c0.4,0.1,0.8,0.2,1.1,0.2c1.3,0,2.4-0.8,2.9-2c3.4-9.4,5.1-19.2,5.1-29.2c0-2.3-0.1-3.7-0.1-4.2
		c0-0.1,0-0.2,0-0.2c0-0.1-0.1-0.4-0.1-0.6c0-0.1,0-0.1,0-0.2c-0.2-3.5,0-7,0.7-10.4c0.1-0.3,0.3-0.5,0.5-0.6c0.3-0.1,0.6,0,0.8,0.2
		c0.3,0.3,0.6,0.8,0.9,1.3c0.1,0.2,0.2,0.3,0.3,0.5c0.6-0.5,1.4-0.8,2.2-0.8l6.6-0.5c0,0,0,0,0,0c1.7,0,2.8,0.6,3.4,1.6
		c0.1,0,0.2-0.1,0.3-0.1c0.4-0.2,0.7-0.5,0.9-0.9c0.2-0.4,0.1-0.9,0-1.3c-0.2-0.4-0.5-0.7-0.9-0.9c-0.4-0.2-0.9-0.1-1.3,0
		c-1.4,0.7-2.9,1-4.4,1.1c-1.6,0-3-0.4-4.3-1.3c-0.8-0.5-1.5-1.1-2.1-1.8c-1.6,0.5-3.3,0.9-5,1.1c0,0-0.1,0-0.1,0H39c0,0,0,0,0,0
		c-1,0-2-0.4-2.7-1.1C35.5,61,35.1,60,35.1,59c0-2,1.5-3.7,3.4-3.9c0,0,0.1,0,0.2,0h0.1l0.7-0.1c0.4-0.1,0.8-0.2,1.1-0.3
		c-0.2-0.1-0.4-0.2-0.6-0.2C39.7,54.3,39.4,54.3,39,54.3z M46.5,66.6L46.5,66.6L46.5,66.6z"/>
	<path class="st14" d="M53.8,47.2c-0.5-3.8-4-6.5-7.8-5.9c-3.8,0.5-6.5,4-5.9,7.8c0.3,2.3,1.8,4.4,3.9,5.3c2.3-0.8,4.5-2,6.5-3.5
		C51.8,49.9,52.9,48.7,53.8,47.2z"/>
	<path class="st4" d="M44,55.3c-0.1,0-0.2,0-0.3-0.1c-2.4-1.1-4-3.4-4.4-6c-0.6-4.2,2.4-8.1,6.6-8.7c2.1-0.3,4.1,0.3,5.7,1.5
		s2.7,3.1,3,5.1c0,0.2,0,0.4-0.1,0.5c-1,1.5-2.1,2.9-3.6,4c-2,1.5-4.3,2.8-6.7,3.6C44.2,55.2,44.1,55.3,44,55.3z M47,42
		c-0.3,0-0.6,0-0.8,0.1c-3.3,0.5-5.7,3.6-5.2,6.9c0.3,2,1.4,3.7,3.2,4.6c2.1-0.8,4.1-1.8,5.9-3.2c1.2-0.9,2.2-2,3-3.3
		c-0.3-1.5-1.1-2.8-2.3-3.8C49.6,42.5,48.3,42,47,42z"/>
	<path class="st14" d="M55.1,38.8l-1.3,0.4l1.1,3.8c0.4-0.2,0.9-0.3,1.4-0.3L55.1,38.8z"/>
	<path class="st4" d="M54.8,43.8c-0.1,0-0.2,0-0.3-0.1c-0.2-0.1-0.4-0.3-0.5-0.5l-1.1-3.8c-0.1-0.2,0-0.4,0.1-0.6s0.3-0.3,0.5-0.4
		l1.3-0.4c0.4-0.1,0.9,0.1,1,0.6l1.1,3.9c0.1,0.2,0,0.5-0.1,0.7s-0.4,0.3-0.6,0.3c0,0,0,0,0,0c-0.3,0-0.7,0.1-1,0.2
		C55.1,43.8,54.9,43.8,54.8,43.8z"/>
	<path class="st14" d="M39.7,56.3l-0.8,0.2h-0.2l0,0c-1.4,0.1-2.4,1.3-2.3,2.6c0.1,1.3,1.2,2.3,2.6,2.3c0.1,0,0.2,0,0.3,0l0,0
		c2.7-0.4,5.4-1.2,8-2.2c2.4-1,4.6-2.3,6.7-3.9c2.3-1.8,4.2-4.2,5.6-6.8c0.6-1.3,0.1-2.7-1.2-3.3s-2.7-0.1-3.3,1.2
		c-1,2-2.4,3.7-4.2,5.1c-2.4,1.9-5.2,3.2-8.1,4.1C41.7,55.8,40.7,56.1,39.7,56.3z"/>
	<path class="st4" d="M39.1,62.2c-0.1,0-0.1,0-0.2,0c-1.7,0-3.3-1.3-3.4-3c-0.1-0.9,0.2-1.7,0.8-2.4s1.4-1.1,2.2-1.1l0.2,0l0.8-0.1
		c1-0.2,1.9-0.5,2.9-0.8c2.9-0.8,5.5-2.2,7.9-4c1.7-1.3,3-3,4-4.8c0.4-0.8,1-1.4,1.9-1.7c0.8-0.3,1.7-0.3,2.5,0.1
		c0.8,0.4,1.4,1,1.7,1.9c0.3,0.8,0.3,1.7-0.1,2.5c-1.4,2.8-3.4,5.2-5.8,7.1c-2.1,1.6-4.4,3-6.9,4c-2.6,1.1-5.4,1.9-8.2,2.3
		C39.3,62.2,39.2,62.2,39.1,62.2z M39,60.6C39,60.6,39,60.6,39,60.6c0.1,0,0.2,0,0.2,0c2.6-0.4,5.3-1.1,7.8-2.2
		c2.3-1,4.5-2.2,6.5-3.8c2.2-1.7,4.1-4,5.3-6.6c0.2-0.4,0.2-0.9,0.1-1.3c-0.2-0.4-0.5-0.8-0.9-1c-0.4-0.2-0.9-0.2-1.3-0.1
		c-0.4,0.2-0.8,0.5-1,0.9c-1.1,2.1-2.6,4-4.4,5.4c-2.5,1.9-5.3,3.4-8.4,4.2c-1,0.3-2,0.6-3,0.8c0,0,0,0,0,0L39,57.3c0,0-0.1,0-0.1,0
		h-0.2c-0.4,0-0.8,0.2-1.1,0.6c-0.3,0.3-0.4,0.8-0.4,1.2C37.3,59.9,38.1,60.6,39,60.6C39,60.6,39,60.6,39,60.6z M39.7,56.3
		L39.7,56.3L39.7,56.3z"/>
</g>
</svg>
