<?xml version="1.0" encoding="UTF-8"?>
<svg width="103px" height="103px" viewBox="0 0 103 103" version="1.1" xmlns="http://www.w3.org/2000/svg" xmlns:xlink="http://www.w3.org/1999/xlink">
    <!-- Generator: sketchtool 53.2 (72643) - https://sketchapp.com -->
    <title>C65C91DB-D735-4EA7-983F-847558437662</title>
    <desc>Created with sketchtool.</desc>
    <defs>
        <polygon id="path-1" points="1.20654132e-05 0.30995814 102.688593 0.30995814 102.688593 102.520865 1.20654132e-05 102.520865"></polygon>
    </defs>
    <g id="Web" stroke="none" stroke-width="1" fill="none" fill-rule="evenodd">
        <g id="Tu-carro-Cotización----Sin-Gps" transform="translate(-844.000000, -163.000000)">
            <g id="Group-26" transform="translate(844.000000, 163.000000)">
                <g id="Group-3" transform="translate(0.000000, 0.169112)">
                    <mask id="mask-2" fill="white">
                        <use xlink:href="#path-1"></use>
                    </mask>
                    <g id="Clip-2"></g>
                    <path d="M100.000534,102.058628 L0.464510748,2.98556279 C-0.531797664,1.99388837 0.181501402,0.298460465 1.59077243,0.30995814 L43.6927444,0.651534884 C44.5345528,0.65872093 45.3397818,0.994548837 45.9351603,1.58667907 L101.405473,56.7994698 C102.000852,57.3920791 102.338249,58.1935628 102.345469,59.0314558 L102.688642,100.937605 C102.700193,102.339842 100.996843,103.050302 100.000534,102.058628" id="Fill-1" fill="#F3A530" mask="url(#mask-2)"></path>
                </g>
                <path d="M32.0070093,18.4457191 L37.1324626,13.3441051 C36.7989159,13.2233795 36.4952103,13.0422912 36.2526308,12.80084 C35.3732804,11.9255795 35.3578785,10.6426307 36.2377103,9.76689116 C37.2537523,8.75557488 38.3607617,9.01235628 38.4214065,9.16326326 C38.5272944,9.66149581 38.709229,10.053854 39.0735794,10.4160307 C39.725271,11.0651702 40.6806682,11.200747 41.5450981,10.6728121 L42.3334813,11.4575284 C43.1979112,12.3179377 43.1979112,13.2535609 42.2574346,14.1891842 L34.9944907,21.4193051 C34.0694159,22.3395981 33.1140187,22.3549284 32.2495888,21.4945191 L31.8703178,21.1170121 C31.0362103,20.2872633 31.0819346,19.3664912 32.0070093,18.4457191" id="Fill-4" fill="#FFFFFF"></path>
                <path d="M45.2288883,25.84064 L46.7151687,24.3612726 C48.0190332,23.0634726 48.1860472,21.9012493 47.2003276,20.9201144 C46.1842855,19.9087981 45.0623556,20.0597051 43.7276874,21.3881656 L42.2568089,22.8522028 C40.9375425,24.165333 40.8013322,25.2973749 41.8019724,26.2933609 C42.7876921,27.2744958 43.9399444,27.1235888 45.2288883,25.84064 M39.466664,19.5619516 L40.4066593,18.6258493 C43.2425285,15.8036493 46.7454911,15.6977749 49.5962808,18.5353051 C52.4470706,21.3733144 52.3407014,24.8293237 49.490393,27.666854 L48.5499164,28.6029563 C45.6991266,31.4404865 42.196164,31.5458819 39.3607762,28.7236819 C36.4945846,25.8708214 36.6009537,22.414333 39.466664,19.5619516" id="Fill-6" fill="#FFFFFF"></path>
                <path d="M55.9638467,40.570646 L56.2064262,40.3291949 C56.8133561,39.725567 56.7676318,39.1066088 56.3431178,38.6840693 C55.8882813,38.2313484 55.3116738,38.2006879 54.6903047,38.819646 L54.4472439,39.0610972 C53.8407953,39.6647251 53.8865196,40.2535019 54.3264355,40.6913716 C54.7504682,41.1139112 55.3573981,41.174274 55.9638467,40.570646 M52.6124963,37.1141577 L52.7188654,37.0082833 C54.1897439,35.5447251 56.1761037,35.6803019 57.768272,37.2650647 C59.3604402,38.8498274 59.4817299,40.7819158 58.0108514,42.245953 L57.9049636,42.3518274 C56.434085,43.8153856 54.4780477,43.7099902 52.8853981,42.1252274 C51.2783093,40.5251344 51.1416178,38.5781949 52.6124963,37.1141577 M55.4026411,29.5371902 L55.6452206,29.2957391 C56.2521505,28.6921112 56.2064262,28.073153 55.7819121,27.6506135 C55.3270757,27.1978926 54.7504682,27.1677112 54.1286178,27.7861902 L53.8865196,28.0281205 C53.2949916,28.6164181 53.325314,29.2205251 53.7652299,29.6579158 C54.1897439,30.0809344 54.7961925,30.1412972 55.4026411,29.5371902 M46.2438234,33.6428181 C46.4710009,33.4162181 46.7896271,33.3108228 47.3657533,33.2806414 L63.4852533,32.4504135 C63.7129121,32.4350833 64.4709729,34.0049949 63.8188,34.6541344 C63.606543,34.8654042 63.2426738,35.0163112 62.6963888,35.0464926 L46.5624495,35.8613902 C46.3501925,35.8915716 45.5916505,34.2919577 46.2438234,33.6428181 M52.0666925,26.0960321 L52.1730617,25.9906367 C53.6439402,24.5265995 55.6148981,24.646846 57.2070664,26.2320879 C58.7997159,27.8168507 58.9210056,29.74846 57.4496458,31.2124972 L57.3437579,31.3183716 C55.8728794,32.7824088 53.9168421,32.6765344 52.3241925,31.0917716 C50.7171037,29.4921577 50.595814,27.5600693 52.0666925,26.0960321" id="Fill-8" fill="#FFFFFF"></path>
                <path d="M66.1916505,50.5480884 L67.2798888,49.4653907 C67.6634916,48.5518047 67.5460523,47.6281581 66.7567065,46.8424837 C65.7969776,45.8872186 64.4315056,45.972014 63.3331598,47.0657302 C62.2660991,48.1273488 62.1703187,49.5396465 63.0876925,50.4527535 C63.9410523,51.3016651 65.3171131,51.4185581 66.1916505,50.5480884 M62.3089355,46.0462698 C63.9304636,44.4327628 66.0212673,44.3690465 67.4396832,45.7808651 C68.2713841,46.6091767 68.5168514,47.6176186 68.357057,48.3716744 L71.1515336,45.5897163 C71.1837813,45.5580977 71.4504262,45.6534326 71.653057,45.8551209 C71.9837159,46.1842419 72.1540991,46.6939721 71.4181785,47.4264698 L65.4557299,53.3616651 C65.0716458,53.7434837 64.7621645,53.6692279 64.4849308,53.3932837 L64.3780804,53.2874093 C64.1008467,53.010986 64.0262439,52.7034233 64.410328,52.3211256 L64.8050009,51.9282884 C63.7812579,52.1405163 62.8210477,51.9282884 62.010043,51.1215349 C60.6344636,49.7518744 60.6874075,47.6602558 62.3089355,46.0462698" id="Fill-10" fill="#FFFFFF"></path>
                <path d="M69.978922,52.8100642 L73.0511136,55.8679665 C73.8832958,54.9337805 73.9150621,53.818506 73.0617023,52.9695944 C72.2189313,52.1307433 70.9607911,52.088106 69.978922,52.8100642 M68.5282584,52.2792549 C70.0857724,50.7289851 72.3575481,50.6758084 73.8722257,52.18392 C75.3551369,53.6594549 75.2911229,55.6768177 73.7547864,57.2055293 L73.6695949,57.2903247 C73.4457864,57.5135712 73.2859921,57.5241107 73.0405248,57.2797851 L69.2535902,53.5109433 C68.3790528,54.5304037 68.4430668,55.8679665 69.4138659,56.8337712 C70.3095808,57.7257991 71.1523519,57.7789758 71.8776836,57.587827 C71.9205201,57.587827 72.3575481,58.2144502 71.9099313,58.6599851 C71.4618332,59.1059991 69.9577444,59.0317433 68.5605061,57.6410037 C66.938978,56.0270177 66.9283893,53.8716828 68.5282584,52.2792549" id="Fill-12" fill="#FFFFFF"></path>
                <path d="M77.1477701,64.0225005 C78.8333121,65.7002028 80.7315925,65.7639191 82.3213542,64.1820307 C83.8889757,62.6212214 83.825443,60.7102121 82.1615598,59.0540679 L80.9982374,57.8966353 L75.9959991,62.8760865 L77.1477701,64.0225005 Z M74.5665131,62.1325702 L80.2411393,56.4843377 C80.6146346,56.1130586 81.1156766,56.1235981 81.4463355,56.4527191 L83.1318776,58.1299423 C85.4787374,60.4658865 85.5956953,63.1309516 83.4413589,65.2752679 C81.2865411,67.4200633 78.5450084,67.3031702 76.176971,64.946147 L74.5665131,63.3431795 C74.2252654,63.0035191 74.2358542,62.4616912 74.5665131,62.1325702 L74.5665131,62.1325702 Z" id="Fill-14" fill="#FFFFFF"></path>
                <path d="M85.3088355,64.7560521 L85.3834383,64.6817963 C85.6394944,64.4269312 85.9061393,64.4163916 86.2367981,64.7455126 L86.6102935,65.1167916 L87.3991579,64.3311172 C87.7620645,63.9703777 88.0821346,64.0125358 88.369957,64.2994986 L88.4768075,64.405373 C88.7540411,64.6817963 88.8286439,64.96828 88.433971,65.3611172 L87.6446252,66.1467916 L88.8074664,67.3042242 C89.1381252,67.6333451 89.1275364,67.8771916 88.8714804,68.1320567 L88.7968776,68.2063126 C88.5302327,68.4721963 88.2631065,68.4827358 87.932929,68.1536149 L86.7700879,66.9961823 L84.1777607,69.575973 C83.5381019,70.2131358 83.4100738,70.7013079 83.9111159,71.2004986 C84.2422561,71.5296195 84.6258589,71.6144149 84.9993542,71.5617172 C85.0633682,71.5612381 85.1808075,71.9756335 84.8501486,72.3047544 C84.4554757,72.6975916 83.6343636,72.6444149 82.8767841,71.8908381 C81.8207935,70.8397591 81.9271626,69.7776614 83.0365785,68.6734056 L85.7458636,65.9767219 L85.3728495,65.6054428 C85.0421907,65.2763219 85.0527794,65.0109172 85.3088355,64.7560521" id="Fill-16" fill="#FFFFFF"></path>
                <path d="M91.6131093,75.2354637 C92.6796888,74.1738451 92.7441841,72.6872916 91.7517262,71.6999288 C90.7708196,70.7231056 89.2667308,70.7552033 88.2107402,71.8062823 C87.1542682,72.8573614 87.100843,74.3755335 88.0827121,75.3523567 C89.0636187,76.3287009 90.5677075,76.2760033 91.6131093,75.2354637 M87.2399411,70.8399986 C88.8075626,69.2791893 91.0374645,69.2686498 92.6262636,70.8505381 C94.1943664,72.4113474 94.1731888,74.6409381 92.5944972,76.212287 C91.0263944,77.7726172 88.7969738,77.7836358 87.2182822,76.212287 C85.6290019,74.6303986 85.6506607,72.421887 87.2399411,70.8399986" id="Fill-18" fill="#FFFFFF"></path>
                <path d="M91.2086178,78.9097851 L91.3366458,78.7823526 C91.7101411,78.4105944 92.1154028,78.3895153 92.4994869,78.771813 L92.6381037,78.9097851 C93.0327766,79.3026223 93.0115991,79.7059991 92.6381037,80.0777572 L92.5100757,80.2051898 C92.1365804,80.5764688 91.7313187,80.5764688 91.3472346,80.1946502 L91.2086178,80.0566781 C90.8356037,79.68492 90.8351224,79.2815433 91.2086178,78.9097851" id="Fill-20" fill="#FFFFFF"></path>
                <polygon id="Fill-22" fill="#FFFFFF" points="102.379545 63.382607 39.491307 0.786872093 40.6127556 0.795974419 102.3704 62.2658953"></polygon>
                <polygon id="Fill-24" fill="#FFFFFF" points="102.684117 100.561727 2.13830888 0.483573023 3.26023879 0.492675349 102.674972 99.4450149"></polygon>
            </g>
        </g>
    </g>
</svg>