<svg xmlns="http://www.w3.org/2000/svg" width="27" height="26" viewBox="0 0 27 26">
    <g fill="none" fill-rule="evenodd">
        <path fill="gray" d="M26.837 12.92c0 7.136-5.94 12.92-13.266 12.92C6.244 25.84.305 20.057.305 12.92.305 5.785 6.245 0 13.57 0s13.266 5.785 13.266 12.92"/>
        <path fill="#FFF" d="M8.915 14.067L6.092 12.48c-1.375-.772-1.846-2.49-1.053-3.828l.47-.793C6.304 6.52 8.067 6.06 9.44 6.834l2.822 1.586a2.77 2.77 0 0 1 1.31 3.234l-1.486-.836a1.227 1.227 0 0 0-.629-1.04L8.634 8.19a1.287 1.287 0 0 0-1.73.452l-.47.793c-.35.59-.142 1.346.462 1.686l2.822 1.586c.397.223.864.21 1.24.01l1.485.836a2.928 2.928 0 0 1-3.528.513"/>
        <path fill="#FFF" d="M17.179 14.045a.773.773 0 0 1 .294 1.07.817.817 0 0 1-1.1.287l-6.41-3.605a.774.774 0 0 1-.295-1.071.818.818 0 0 1 1.1-.288l6.41 3.607z"/>
        <path fill="#FFF" d="M22.101 17.189l-.47.793c-.793 1.338-2.557 1.799-3.929 1.025l-2.822-1.586a2.771 2.771 0 0 1-1.31-3.234l1.486.835c.011.417.233.818.63 1.042l2.822 1.585a1.286 1.286 0 0 0 1.73-.45l.47-.794c.35-.59.142-1.346-.463-1.687l-2.822-1.586a1.295 1.295 0 0 0-1.24-.01l-1.484-.836a2.932 2.932 0 0 1 3.53-.512l2.821 1.587c1.374.773 1.846 2.49 1.051 3.828"/>
    </g>
</svg>
