<svg xmlns="http://www.w3.org/2000/svg" viewBox="0 0 598.89 197.59"><defs><style>.cls-1{fill:#00aef0;opacity:0.24;isolation:isolate;}.cls-2{fill:#00c3ff;}.cls-10,.cls-3,.cls-4,.cls-5,.cls-6{fill:none;stroke-miterlimit:10;}.cls-3,.cls-6{stroke:#00aef0;}.cls-3{stroke-width:1.48px;}.cls-4,.cls-5{stroke:#afebfb;}.cls-10,.cls-4,.cls-5{stroke-linecap:round;}.cls-4{stroke-width:2.87px;}.cls-5{stroke-width:2.12px;}.cls-6{stroke-width:1.46px;}.cls-7{fill:#ddebfa;}.cls-8{fill:#719cd5;}.cls-9{fill:#3056c4;}.cls-10{stroke:#3056c4;stroke-width:4.7px;}</style></defs><title>Recurso 42</title><g id="Capa_2" data-name="Capa 2"><g id="Capa_1-2" data-name="Capa 1"><path class="cls-1" d="M570,18.22a15.1,15.1,0,1,0,15.1,15.1A15.1,15.1,0,0,0,570,18.22Z"/><path class="cls-2" d="M582.32,32.25a15,15,0,0,1-14.8,14.8c-8.17.12-14.68-6.83-14.81-14.8-.12-8.16,6.83-14.68,14.81-14.8,8.16-.13,14.68,6.82,14.8,14.8a.88.88,0,0,0,1.75,0,16.55,16.55,0,1,0-27.43,12.47,16.55,16.55,0,0,0,27.43-12.47A.88.88,0,0,0,582.32,32.25Z"/><path class="cls-2" d="M542.33,13.44q4.06,3.29,8.15,6.55c1,.8,2.43-.61,1.42-1.42L543.75,12c-1-.81-2.43.6-1.42,1.41Z"/><path class="cls-2" d="M559.46,12.8l-4.7-9.25c-.58-1.15-2.32-.14-1.73,1q2.34,4.64,4.7,9.25c.58,1.16,2.32.14,1.73-1Z"/><path class="cls-2" d="M537.27,40.12l10.33-2.36c1.26-.28.73-2.22-.53-1.93l-10.33,2.36c-1.27.28-.73,2.22.53,1.93Z"/><path class="cls-2" d="M547.56,26.64l-10.29-2.35c-1.26-.29-1.8,1.65-.53,1.93L547,28.57c1.26.29,1.8-1.65.54-1.93Z"/><path class="cls-2" d="M566.45,1V11.85a1,1,0,0,0,2,0V1a1,1,0,0,0-2,0Z"/><path class="cls-2" d="M577.42,13.81q2.22-4.62,4.45-9.25c.56-1.16-1.17-2.17-1.73-1l-4.45,9.25c-.56,1.16,1.17,2.18,1.73,1Z"/><path class="cls-2" d="M543.75,52.38l8.15-6.5c1-.8-.42-2.21-1.42-1.42L542.33,51c-1,.81.41,2.22,1.42,1.42Z"/><path class="cls-2" d="M598.17,38.19l-10.34-2.36c-1.26-.29-1.79,1.65-.53,1.93l10.33,2.36c1.26.29,1.8-1.65.54-1.93Z"/><path class="cls-2" d="M582.56,45.53l8.6,6.85c1,.8,2.43-.61,1.41-1.42L584,44.11c-1-.8-2.43.61-1.42,1.42Z"/><path class="cls-2" d="M587.83,28.58l10.34-2.36c1.26-.28.72-2.22-.54-1.93L587.3,26.65c-1.26.28-.73,2.22.53,1.93Z"/><path class="cls-2" d="M591.16,12,583,18.57c-1,.81.41,2.22,1.42,1.42l8.2-6.55c1-.8-.41-2.21-1.41-1.41Z"/><path class="cls-2" d="M581.87,59.85q-2.34-4.89-4.7-9.76c-.56-1.17-2.29-.15-1.73,1q2.35,4.88,4.7,9.76c.56,1.16,2.29.15,1.73-1Z"/><path class="cls-2" d="M566.45,52.68V63.44a1,1,0,0,0,2,0V52.68a1,1,0,0,0-2,0Z"/><path class="cls-2" d="M554.76,60.86l4.7-9.3c.58-1.15-1.15-2.17-1.73-1q-2.36,4.65-4.7,9.3c-.58,1.15,1.15,2.16,1.73,1Z"/><path class="cls-3" d="M65.9,154.12a11.13,11.13,0,0,0-5.25,1.36,14.73,14.73,0,0,0-28.81-4.2,11.12,11.12,0,0,0-4.25-.76,12.24,12.24,0,0,0-10.8,6.55,10.72,10.72,0,0,0-16,9.32H76.4a13.14,13.14,0,0,0,.12-1.53A10.6,10.6,0,0,0,65.9,154.12Z"/><path class="cls-1" d="M67.85,157a11.2,11.2,0,0,0-5.26,1.36,14.73,14.73,0,0,0-28.8-4.19,11.12,11.12,0,0,0-4.25-.77,12.26,12.26,0,0,0-10.8,6.55,10.73,10.73,0,0,0-16,9.33H78.35a13.31,13.31,0,0,0,.12-1.54A10.6,10.6,0,0,0,67.85,157Z"/><path class="cls-4" d="M124.65,32c-4.57-3.23-10.49-2.79-13.52.92a.25.25,0,0,1-.44-.1c-1.13-4.65-6.28-7.6-11.8-6.66"/><path class="cls-5" d="M140.06,48.43c-3.82-1.58-8-.29-9.59,2.87a.18.18,0,0,1-.34,0c-1.57-3.16-5.77-4.45-9.59-2.87"/><path class="cls-4" d="M188,23.65c-5.57-.61-10.52,2.66-11.37,7.37a.25.25,0,0,1-.43.13c-3.25-3.52-9.19-3.6-13.55-.09"/><path class="cls-6" d="M450.57,148.09a12.8,12.8,0,0,0,.12,1.52h74.77a10.6,10.6,0,0,0-15.86-9.22,12.12,12.12,0,0,0-10.67-6.47,10.86,10.86,0,0,0-4.2.76,14.56,14.56,0,0,0-28.47,4.14,11,11,0,0,0-5.19-1.34A10.48,10.48,0,0,0,450.57,148.09Z"/><path class="cls-1" d="M448.65,150.89a13,13,0,0,0,.12,1.52h74.77a10.62,10.62,0,0,0-10.62-10.62,10.77,10.77,0,0,0-5.25,1.4A12.09,12.09,0,0,0,497,136.72a10.86,10.86,0,0,0-4.2.76,14.55,14.55,0,0,0-28.46,4.14,11.06,11.06,0,0,0-5.19-1.34A10.48,10.48,0,0,0,448.65,150.89Z"/><polygon class="cls-7" points="394.06 48.13 275.45 113.19 323.29 144.64 394.07 48.13 394.06 48.13"/><polygon class="cls-7" points="393.93 48.17 222.49 78.36 256.57 100.78 393.93 48.17"/><polygon class="cls-2" points="393.82 48.26 275.11 113.1 275.45 153.8 257.08 101.25 393.82 48.26"/><polygon class="cls-8" points="275.81 153.5 301.77 131.33 275.45 113.61 275.81 153.5"/><path class="cls-9" d="M322.52,135.27a1.29,1.29,0,0,1-1.74.32l-26.32-17.16a1,1,0,1,1,1.13-1.73l24.68,16.1a1.29,1.29,0,0,0,1.74-.32l24.9-34.07a1,1,0,1,1,1.66,1.22Z"/><path class="cls-9" d="M243.17,83.18a1,1,0,0,1-.18-2l10.85-1.92a1,1,0,0,1,1.2.84,1,1,0,0,1-.84,1.19l-10.85,1.92Z"/><path class="cls-9" d="M261.77,79.9a1,1,0,0,1-.17-2l38-6.71a1,1,0,1,1,.36,2L262,79.89Z"/><path class="cls-9" d="M323.28,146.36a1.72,1.72,0,0,1-.94-.28l-47.83-31.46,1.88-2.87,46.47,30.56,67.3-91.75L227,79.3l30.48,20-1.89,2.87L221.54,79.79a1.71,1.71,0,0,1,.65-3.12L393.77,46.44a1.71,1.71,0,0,1,1.68,2.7l-70.78,96.52A1.72,1.72,0,0,1,323.28,146.36Z"/><path class="cls-9" d="M275.45,155.51a1.72,1.72,0,0,1-1.62-1.14l-18.87-53a1.71,1.71,0,0,1,1-2.18L393.45,46.52a1.72,1.72,0,0,1,1.44,3.11L277.17,114.2v39.6a1.72,1.72,0,0,1-1.43,1.69Zm-16.69-53.73,15,42.07V113.19a1.74,1.74,0,0,1,.89-1.51l96.51-52.93Z"/><rect class="cls-9" x="271.32" y="140.85" width="34.59" height="3.43" transform="translate(-23.44 221.58) rotate(-40.5)"/><line class="cls-10" x1="182.66" y1="195.24" x2="257" y2="146.31"/><line class="cls-10" x1="193.95" y1="141.61" x2="241" y2="117.14"/><line class="cls-10" x1="258.88" y1="183.01" x2="298.75" y2="150.96"/></g></g></svg>