<?xml version="1.0" encoding="UTF-8"?>
<svg width="39px" height="39px" viewBox="0 0 39 39" version="1.1" xmlns="http://www.w3.org/2000/svg" xmlns:xlink="http://www.w3.org/1999/xlink">
    <!-- Generator: sketchtool 54.1 (76490) - https://sketchapp.com -->
    <title>CF5F9445-D69A-42C1-AAE3-98CC89C3B725</title>
    <desc>Created with sketchtool.</desc>
    <g id="Symbols" stroke="none" stroke-width="1" fill="none" fill-rule="evenodd">
        <g id="Foother-Mobile" transform="translate(-198.000000, -454.000000)">
            <g id="Group-5-Copy" transform="translate(198.000000, 454.000000)">
                <path d="M19.5,0 C30.2700517,0 39,8.73062069 39,19.5 C39,30.2700517 30.2700517,39 19.5,39 C8.73062069,39 0,30.2700517 0,19.5 C0,8.73062069 8.73062069,0 19.5,0" id="Fill-1" fill="#F3F3F3"></path>
                <path d="M20.595581,14.3042457 L20.595581,12.6189591 C20.5263599,12.1320681 20.8731646,11.6821561 21.3702979,11.6143612 C21.4276325,11.6068284 21.4863655,11.604774 21.5437002,11.6075132 L23.9538526,11.6075132 L23.9538526,8.01848953 L20.6424276,8 C16.9590267,8 16.1311705,10.6878302 16.1311705,12.4005087 L16.1311705,14.2953434 L14,14.2953434 L14,18.4952064 L16.1486505,18.4952064 L16.1486505,29 L20.4277723,29 L20.4277723,18.4952064 L23.6091456,18.4952064 L24,14.2953434 L20.595581,14.2953434 L20.595581,14.3042457 Z" id="Fill-3" fill="#0054C9"></path>
            </g>
        </g>
    </g>
</svg>