<?xml version="1.0" encoding="utf-8"?>
<!-- Generator: Adobe Illustrator 23.0.1, SVG Export Plug-In . SVG Version: 6.00 Build 0)  -->
<svg version="1.1" xmlns="http://www.w3.org/2000/svg" xmlns:xlink="http://www.w3.org/1999/xlink" x="0px" y="0px"
	 viewBox="0 0 160 155" style="enable-background:new 0 0 160 155;" xml:space="preserve">
<style type="text/css">
	.st0{fill:#5FA7FB;}
	.st1{fill:#599DD6;}
	.st2{fill:#77D168;}
	.st3{fill:#3256BF;}
	.st4{fill:#1C3272;}
	.st5{fill:#AFE0FD;}
	.st6{fill:#EEF8FF;}
	.st7{fill:#C7FFCF;}
	.st8{fill:#B7D1FC;}
	.st9{fill:#575D66;}
	.st10{fill:#272425;}
	.st11{fill:#EEF0F3;}
	.st12{fill:none;}
	.st13{fill:#F5F6FA;}
	.st14{fill:#FFFFFF;}
	.st15{fill:#9EEC8D;}
	.st16{fill:#76CF68;}
	.st17{clip-path:url(#SVGID_4_);fill:#C7FFCF;}
	.st18{clip-path:url(#SVGID_6_);fill:#C7FFCF;}
	.st19{fill:#ADDEFB;}
	.st20{fill:#74C9F7;}
	.st21{clip-path:url(#SVGID_8_);fill:#ADDEFB;}
	.st22{fill:#038EED;}
	.st23{clip-path:url(#SVGID_10_);fill:#ADDEFB;}
	.st24{fill:#A7ACB5;}
	.st25{clip-path:url(#SVGID_12_);fill:#EEF0F3;}
	.st26{clip-path:url(#SVGID_14_);fill:#EEF0F3;}
	.st27{fill:#8FDB7D;}
	.st28{fill:#5FA5F9;}
	.st29{clip-path:url(#SVGID_16_);fill:#ADDEFB;}
	.st30{fill:#E0E5E7;}
	.st31{fill:#B0B0B0;}
	.st32{fill:#FFFFFF;stroke:#1C3272;stroke-width:1.65;stroke-linecap:round;stroke-linejoin:round;}
	.st33{fill:#19306D;}
	.st34{fill:none;stroke:#704EFB;stroke-width:1.65;stroke-linejoin:round;}
	.st35{fill:none;stroke:#704EFB;stroke-width:1.65;stroke-linejoin:round;stroke-dasharray:2.24,2.24;}
	.st36{fill:none;stroke:#704EFB;stroke-width:1.65;stroke-linejoin:round;stroke-dasharray:2.28,2.28;}
	.st37{fill:none;stroke:#1C3272;stroke-width:1.65;stroke-linejoin:round;}
	.st38{fill:none;stroke:#704EFB;stroke-width:1.65;stroke-linejoin:round;stroke-dasharray:2.16,2.16;}
	.st39{fill:none;stroke:#74C9F7;stroke-width:1.68;stroke-linecap:round;stroke-linejoin:round;}
	.st40{fill:none;stroke:#19306D;stroke-width:1.65;stroke-linejoin:round;stroke-dasharray:2.28,2.28;}
	.st41{fill:none;stroke:#1C3272;stroke-width:1.65;stroke-linejoin:round;stroke-dasharray:2.16,2.16;}
	.st42{fill:none;stroke:#19306D;stroke-width:1.65;stroke-linejoin:round;stroke-dasharray:2.1,2.1;}
	.st43{fill:none;stroke:#19306D;stroke-width:1.65;stroke-linejoin:round;stroke-dasharray:2.11,2.11;}
	.st44{fill:none;stroke:#19306D;stroke-width:1.65;stroke-linejoin:round;}
	.st45{fill:none;stroke:#19306D;stroke-width:1.65;stroke-linejoin:round;stroke-dasharray:2.01,2.01;}
	.st46{fill:none;stroke:#19306D;stroke-width:1.65;stroke-linejoin:round;stroke-dasharray:2.24,2.24;}
	.st47{fill:none;stroke:#19306D;stroke-width:1.65;stroke-linejoin:round;stroke-dasharray:2.22,2.22;}
	.st48{fill:none;stroke:#19306D;stroke-width:1.65;stroke-miterlimit:10;stroke-dasharray:2.16,2.16;}
</style>
<g id="Capa_1">
</g>
<g id="Capa_2">
</g>
<g id="Capa_3">
	<path class="st32" d="M117.2,76.3c0.7,0.5,1.5,0.7,2.3,0.7l0,0c0.9,0,1.7-0.3,2.5-0.7l0.2-0.1c0.9,3.7,0.6,6.9-2.7,12
		c0,0.1-0.1,0.2-0.2,0.3c-1.5,1.5-2.8,3.2-3.8,5c-2.8,4.6-5.3,11.9-5.4,22.5c0,1.9,1.5,3.4,3.4,3.4c0,0,0,0,0,0l0,0
		c1.9,0,3.4-1.5,3.4-3.4c0.1-9.6,2.3-15.5,4.4-19c0.8-1.3,1.7-2.6,2.8-3.7c0.4-0.3,0.6-0.6,0.8-0.7c0.1,0,0.1-0.1,0.2-0.1l0,0
		l0.1-0.1h0.1c-0.1,1.2-0.2,2.7-0.2,4.3c0,7.1,1.3,14.1,3.8,20.7c0.5,1.3,1.8,2.2,3.2,2.2c0.4,0,0.8-0.1,1.2-0.2
		c1.8-0.7,2.7-2.7,2-4.4c0,0,0,0,0,0c-2.8-7.5-3.8-15.5-3-23.5c0.1-0.6,0.1-1.1,0.2-1.4l0,0c2.2-4.3,3.8-7.6,4.5-11.9
		c0.3,0.2,0.6,0.5,0.9,0.7c0.6,0.4,1.4,0.6,2.1,0.6l0,0c0.5,0,1-0.1,1.5-0.3c0.8-0.4,1.4-1,1.7-1.8c0.6-1.3,1-2.6,1.1-4
		c0.2-2.2,0.4-4.3,0.3-6.5c0-0.9,0-1.8,0-2.8c0-1.2-0.9-2.2-2.1-2.3s-2.2,0.9-2.3,2.1c0,0.1,0,0.2,0,0.3c0,1,0,1.9,0,2.7
		c0.1,2.6-0.1,5.1-0.6,7.7v0.1l-0.1-0.2c-0.5-0.5-1.1-1.3-1.7-2c-0.3-0.4-0.6-0.7-0.9-1c-0.2-0.2-0.4-0.3-0.6-0.5
		c-0.1-0.1-0.2-0.1-0.3-0.2c-0.5-0.4-1.1-0.7-1.7-0.7L124,70h-0.1c-0.7,0-1.4,0.2-1.8,0.8l0,0c-0.4,0.4-0.7,0.8-1.2,1.1
		c-0.3,0.2-0.6,0.5-0.9,0.6l-0.3,0.1c-0.2-0.4-0.3-0.8-0.4-1.2c-0.2-1.1-0.3-2.3-0.3-3.4c0-1.8,0.1-3.5,0.3-5.3
		c0.2-1.2-0.6-2.3-1.8-2.5c-1.2-0.2-2.3,0.6-2.5,1.8c0,0.1,0,0.1,0,0.2c-0.2,1.9-0.3,3.8-0.3,5.7c-0.1,2.2,0.2,4.3,1,6.3
		C116,75.2,116.5,75.9,117.2,76.3z"/>
	<path class="st32" d="M129,67.5c3.3,0.8,6.7-1.3,7.4-4.6c0.8-3.3-1.3-6.7-4.6-7.4c-3.3-0.8-6.7,1.3-7.4,4.6
		C123.6,63.4,125.7,66.7,129,67.5z"/>
	<path class="st33" d="M123.2,52.4L123.2,52.4c0.2,0,0.3-0.1,0.3-0.2l0,0c0-0.1,0-0.1,0.1-0.2c0.3-0.7,0.9-1.1,1.6-1.1l0,0
		c0.2,0,0.3-0.1,0.3-0.3c0-0.2-0.1-0.3-0.3-0.3l0,0c-0.7,0-1.3,0.3-1.8,0.9c-0.2,0.3-0.4,0.5-0.5,0.8
		C123,52.2,123.1,52.3,123.2,52.4z"/>
	<path class="st33" d="M125.1,49.6c0.1,0,0.3-0.1,0.3-0.2c0,0,0,0,0,0c0-0.2-0.1-0.3-0.3-0.3H125c-1.1-0.1-2.2,0.5-2.8,1.4
		c-0.3,0.4-0.4,0.9-0.5,1.4c0,0.1,0.1,0.3,0.2,0.3c0,0,0,0,0,0l0,0c0.1,0,0.3-0.1,0.3-0.2c0-0.1,0-0.2,0.1-0.3
		c0.3-1.2,1.4-2,2.6-1.9L125.1,49.6z"/>
	<path class="st33" d="M113.3,78.7c0.3,0.2,0.5,0.4,0.8,0.5h0.1c0.1,0,0.2-0.1,0.3-0.2c0-0.1,0-0.3-0.2-0.3c0,0,0,0,0,0
		c-0.1,0-0.1-0.1-0.2-0.1c-0.7-0.3-1.1-0.9-1.1-1.6l0,0c0-0.2-0.2-0.3-0.3-0.2c-0.1,0-0.2,0.1-0.2,0.2l0,0
		C112.5,77.7,112.8,78.3,113.3,78.7z"/>
	<path class="st33" d="M112.6,80c0.4,0.3,0.9,0.4,1.4,0.5l0,0c0.1,0,0.3-0.1,0.3-0.3c0-0.2-0.1-0.3-0.3-0.3l0,0
		c-0.1,0-0.2,0-0.3-0.1c-1.2-0.3-2-1.4-1.9-2.6c0-0.1,0-0.1,0-0.2c0-0.2-0.1-0.3-0.3-0.3c-0.2,0-0.3,0.1-0.3,0.3c0,0,0,0,0,0
		c0,0.1,0,0.1,0,0.2C111.1,78.4,111.6,79.4,112.6,80z"/>
	<path class="st33" d="M143.3,83.4h0.3c0.8,0,1.6-0.3,2-1c0.2-0.3,0.3-0.6,0.4-1c0-0.1-0.1-0.3-0.2-0.3c0,0,0,0,0,0
		c-0.1,0-0.3,0.1-0.3,0.2c0,0.1,0,0.2,0,0.2c-0.2,0.8-1,1.4-1.8,1.3h-0.2c-0.1,0-0.3,0.1-0.3,0.2c0,0,0,0,0,0
		C143.1,83.3,143.2,83.4,143.3,83.4z"/>
	<path class="st33" d="M142.9,84.7c0,0.1,0.1,0.3,0.3,0.3l0,0l0,0c1.9-0.1,3.5-1.2,4.2-2.9c0-0.1,0-0.3-0.2-0.3
		c-0.1,0-0.3,0-0.3,0.1l0,0c0,0.1-0.1,0.3-0.2,0.4c-0.7,1.3-2,2.1-3.5,2.2C143,84.4,142.9,84.5,142.9,84.7
		C142.9,84.6,142.9,84.7,142.9,84.7z"/>
	<path class="st14" d="M88.6,77.2c-1-2.4-3-7.6-3.4-8.5c-0.7-2.2-2.3-4-4.3-5c-3.3-1.7-9.6-3.4-21.7-3.4h-0.1
		c-12,0-18.4,1.8-21.7,3.4c-2,1-3.6,2.8-4.3,5c-0.4,0.9-2.4,6-3.4,8.5c9.7,1.6,19.6,2.4,29.4,2.6C69.1,79.6,78.9,78.7,88.6,77.2z"/>
	<path class="st34" d="M87.6,77.3l1.1-0.2l-0.4-1"/>
	<path class="st35" d="M87.4,74.1c-0.9-2.3-1.9-4.8-2.2-5.4c-0.7-2.2-2.3-4-4.3-5c-3.3-1.7-9.6-3.4-21.7-3.4h-0.1
		c-12,0-18.4,1.8-21.7,3.4c-2,1-3.6,2.8-4.3,5c-0.3,0.7-1.5,3.9-2.6,6.4"/>
	<path class="st34" d="M30.2,76.1l-0.4,1l1.1,0.2"/>
	<path class="st36" d="M33.1,77.7c8.6,1.3,17.3,2,26.1,2.1c9.1-0.1,18.2-0.9,27.2-2.3"/>
	<path class="st14" d="M20.3,108.9c-0.1,0.4-0.2,0.7-0.2,1.1v6.6c0,2.1,1.7,3.9,3.9,3.9c0,0,0,0,0,0h5.5c2.1,0,3.9-1.7,3.9-3.9v-4.2
		"/>
	<path class="st34" d="M20.3,108.9c-0.1,0.3-0.2,0.7-0.2,1.1"/>
	<line class="st34" x1="33.3" y1="113.5" x2="33.3" y2="112.4"/>
	<path class="st14" d="M85.3,112.4v4.2c0,2.1,1.7,3.9,3.9,3.9c0,0,0,0,0,0h5.4c2.1,0,3.9-1.7,3.9-3.9v0V110c0-0.4-0.1-0.8-0.2-1.2"
		/>
	<line class="st34" x1="85.3" y1="112.4" x2="85.3" y2="113.5"/>
	<path class="st34" d="M98.5,109.9c0-0.4-0.1-0.7-0.2-1.1"/>
	<path class="st37" d="M25.9,77.3c0.5-0.4,0.9-0.7,0.9-0.7l0.4,0.1v-1.8h-1.1"/>
	<path class="st37" d="M22.5,77.8l1.1,0.1c0,0,0-0.1,0-0.2v0.2h1.1"/>
	<path class="st37" d="M92.2,74.9h-1.1v1.8l0.5-0.1c0,0,0.3,0.2,0.9,0.7"/>
	<path class="st37" d="M93.7,77.9h1.1v-0.2c0,0.1,0,0.2,0,0.2l1.1-0.1"/>
	<path class="st38" d="M81.9,92v5.1c0,1,0.8,1.8,1.8,1.8c0,0,0,0,0,0c0,0,14.2-1,14.2-6.9c0-1.8-0.8-1.8-1.8-1.8H83.7
		C82.7,90.2,81.9,91,81.9,92C81.9,92,81.9,92,81.9,92z"/>
	<path class="st14" d="M34.8,90.2H22.4c-1,0-1.8,0-1.8,1.8c0,5.9,14.2,6.9,14.2,6.9c1,0,1.8-0.8,1.8-1.8l0,0V92
		C36.5,91,35.7,90.2,34.8,90.2z"/>
	<path class="st38" d="M34.8,90.2H22.4c-1,0-1.8,0-1.8,1.8c0,5.9,14.2,6.9,14.2,6.9c1,0,1.8-0.8,1.8-1.8l0,0V92
		C36.5,91,35.7,90.2,34.8,90.2z"/>
	<polyline class="st39" points="107.2,60.3 110,54.7 101.3,52 108.5,48 107.4,39.8 115.1,44.2 119,35.1 122.1,45.4 129,43.6 	"/>
	<path class="st14" d="M91.1,76.8v-0.9c-0.9-2.3-3.5-8.7-3.9-9.7c-0.8-2.3-2.4-4.2-4.6-5.3c-3.5-1.8-10.4-3.7-23.4-3.7h-0.1
		c-13,0-19.9,1.9-23.4,3.7c-2.2,1.1-3.8,3-4.6,5.3l-3.8,9.5v1.1l-0.4-0.1c0,0-0.6,0.4-1.4,1.2c-2.4,2.1-6.9,6.7-6.9,11.4v11.9
		c0,2.6-0.3,5.6,1.9,7.8c1.2,1.2,3,2.1,6.1,2.6c1.9,0.3,4.1,0.6,7,0.9c6,0.5,14.3,0.9,25.9,0.9s20.1-0.4,26.1-0.9
		c2.8-0.2,5-0.5,6.8-0.8c3.1-0.5,5-1.5,6.2-2.7c2-2.2,1.7-5.1,1.7-7.7V89.3c0-4.7-4.5-9.3-6.9-11.4c-0.9-0.8-1.4-1.2-1.4-1.2
		L91.1,76.8z M33.2,68.7c0.7-2.2,2.3-4,4.3-5c3.3-1.7,9.6-3.4,21.7-3.4h0.1c12,0,18.4,1.8,21.7,3.4c2,1,3.6,2.8,4.3,5
		c0.4,0.9,2.4,6,3.4,8.5c-9.7,1.6-19.6,2.4-29.4,2.6c-9.9-0.2-19.7-1-29.4-2.6C30.8,74.7,32.8,69.6,33.2,68.7z M96.1,90.2
		c1,0,1.8,0,1.8,1.8c0,5.9-14.2,6.9-14.2,6.9c-1,0-1.8-0.8-1.8-1.8c0,0,0,0,0,0V92c0-1,0.8-1.8,1.8-1.8c0,0,0,0,0,0L96.1,90.2z"/>
	<path class="st37" d="M92.5,77.3c-0.5-0.4-0.9-0.7-0.9-0.7l-0.5,0.1v-0.9l-0.1-0.2"/>
	<path class="st37" d="M27.2,75.6v1.1l-0.4-0.1c0,0-0.3,0.2-0.9,0.7"/>
	<path class="st37" d="M88.2,76.1l0.4,1l-1.1,0.2"/>
	<path class="st40" d="M85.3,77.7c-8.6,1.3-17.3,2-26.1,2.1C50.1,79.6,41,78.9,32,77.5"/>
	<path class="st37" d="M30.9,77.3l-1.1-0.2l0.4-1"/>
	<path class="st41" d="M96.1,90.2c1,0,1.8,0,1.8,1.8c0,5.9-14.2,6.9-14.2,6.9c-1,0-1.8-0.8-1.8-1.8c0,0,0,0,0,0V92
		c0-1,0.8-1.8,1.8-1.8c0,0,0,0,0,0L96.1,90.2z"/>
	<path class="st14" d="M36.5,97.1c0,1-0.8,1.8-1.8,1.8h0c0,0-14.2-1-14.2-6.9c0-1.8,0.8-1.8,1.8-1.8h12.4c1,0,1.8,0.8,1.8,1.8V97.1z
		"/>
	<g>
		<path class="st42" d="M20.1,112.1v4.5c0,2.1,1.7,3.9,3.9,3.9c0,0,0,0,0,0h5.5c2.1,0,3.9-1.7,3.9-3.9v-2.1"/>
		<path class="st43" d="M85.3,115.6v1c0,2.1,1.7,3.9,3.9,3.9c0,0,0,0,0,0h5.4c2.1,0,3.9-1.7,3.9-3.9c0,0,0,0,0,0V111"/>
		<path class="st44" d="M24.9,74.9h-1.1c0-0.4,0-0.7,0-1.1"/>
		<path class="st45" d="M23.5,71.9c-0.1-0.1-0.1-0.2-0.2-0.2c-1.1-0.3-8.6-0.3-8.6,2s0.9,3.1,1.6,3.5c1.7,0.4,3.5,0.6,5.3,0.6"/>
		<path class="st44" d="M94.6,73.8c0,0.3,0,0.7,0,1.1h-1.1"/>
		<path class="st45" d="M98,77.7c1.4,0,2.9-0.2,4.3-0.5c0.7-0.4,1.6-1.2,1.6-3.5s-7.6-2.3-8.6-2c-0.3,0.1-0.4,0.6-0.5,1.2"/>
		<path class="st46" d="M90.2,73.6c-1.1-2.8-2.7-6.7-3-7.5c-0.8-2.3-2.4-4.2-4.6-5.3c-3.6-1.8-10.4-3.7-23.4-3.7h-0.1
			c-13,0-19.9,1.9-23.4,3.7c-2.2,1.1-3.8,3-4.6,5.3c-0.4,0.9-2.3,5.7-3.4,8.5"/>
		<path class="st47" d="M24.3,78.8c-2.5,2.4-5.9,6.4-5.9,10.5v11.9c0,2.6-0.3,5.6,1.9,7.8c1.2,1.2,3,2.1,6.1,2.6
			c1.9,0.3,4.1,0.6,7,0.9c6,0.5,14.3,0.9,25.9,0.9s20.1-0.4,26.1-0.9c2.8-0.2,5-0.5,6.8-0.8c3.1-0.5,5-1.5,6.2-2.7
			c2-2.2,1.7-5.1,1.7-7.7V89.3c0-4.6-4.2-9-6.7-11.2"/>
		<path class="st46" d="M31,74.1c1-2.3,2-4.8,2.2-5.4c0.7-2.2,2.3-4,4.3-5c3.3-1.7,9.6-3.4,21.7-3.4h0.1c12,0,18.4,1.8,21.7,3.4
			c2,1,3.6,2.8,4.3,5c0.3,0.7,1.6,3.9,2.6,6.4"/>
		<path class="st48" d="M36.5,97.1c0,1-0.8,1.8-1.8,1.8h0c0,0-14.2-1-14.2-6.9c0-1.8,0.8-1.8,1.8-1.8h12.4c1,0,1.8,0.8,1.8,1.8V97.1
			z"/>
	</g>
</g>
</svg>
