<?xml version="1.0" encoding="UTF-8"?>
<svg width="173px" height="134px" viewBox="0 0 173 134" version="1.1" xmlns="http://www.w3.org/2000/svg" xmlns:xlink="http://www.w3.org/1999/xlink">
    <!-- Generator: sketchtool 53.2 (72643) - https://sketchapp.com -->
    <title>C0AEB0B2-BC1D-4B03-996A-E2DB2E82E2EA</title>
    <desc>Created with sketchtool.</desc>
    <g id="Web" stroke="none" stroke-width="1" fill="none" fill-rule="evenodd">
        <g id="Tu-carro-Endoso-Manual" transform="translate(-351.000000, -212.000000)">
            <g id="Group-2" transform="translate(265.000000, 95.000000)">
                <g id="Paso-1" transform="translate(79.000000, 117.000000)">
                    <g id="Recurso-53" transform="translate(7.000000, 0.000000)">
                        <ellipse id="Oval" fill="#3056C4" fill-rule="nonzero" opacity="0.2" cx="84.0145667" cy="71.3922222" rx="62.8220667" ry="62.3844444"></ellipse>
                        <rect id="Rectangle" fill="#739ED7" fill-rule="nonzero" x="78.0460667" y="117.341624" width="43.7863" height="1"></rect>
                        <rect id="Rectangle" fill="#739ED7" fill-rule="nonzero" x="111.2563" y="120.788974" width="19.0530667" height="1"></rect>
                        <rect id="Rectangle" fill="#739ED7" fill-rule="nonzero" x="70.5494" y="120.788974" width="34.8479667" height="1"></rect>
                        <rect id="Rectangle" fill="#739ED7" fill-rule="nonzero" x="44.3341333" y="120.788974" width="5.17846667" height="1"></rect>
                        <rect id="Rectangle" fill="#739ED7" fill-rule="nonzero" x="51.0407667" y="120.788974" width="1.56276667" height="1"></rect>
                        <rect id="Rectangle" fill="#739ED7" fill-rule="nonzero" x="127.155" y="117.393162" width="8.90373333" height="1"></rect>
                        <rect id="Rectangle" fill="#739ED7" fill-rule="nonzero" x="61.0459333" y="117.341624" width="13.4997667" height="1"></rect>
                        <rect id="Rectangle" fill="#739ED7" fill-rule="nonzero" x="34.5423333" y="117.341624" width="23.6029667" height="1"></rect>
                        <rect id="Rectangle" fill="#739ED7" fill-rule="nonzero" x="27.6108" y="117.341624" width="4.12316667" height="1"></rect>
                        <rect id="Rectangle" fill="#739ED7" fill-rule="nonzero" x="17.6633" y="113.951538" width="135.724267" height="1"></rect>
                        <rect id="Rectangle" fill="#3056C4" fill-rule="nonzero" x="28.8794667" y="113.951538" width="14.2206" height="1"></rect>
                        <rect id="Rectangle" fill="#3056C4" fill-rule="nonzero" x="92.3358667" y="113.951538" width="1.44166667" height="1"></rect>
                        <rect id="Rectangle" fill="#3056C4" fill-rule="nonzero" x="46.5716" y="113.951538" width="43.9766" height="1"></rect>
                        <rect id="Rectangle" fill="#3056C4" fill-rule="nonzero" x="98.7599333" y="113.951538" width="21.0944667" height="1"></rect>
                        <rect id="Rectangle" fill="#3056C4" fill-rule="nonzero" x="25.5348" y="113.951538" width="1.11296667" height="1"></rect>
                        <rect id="Rectangle" fill="#3056C4" fill-rule="nonzero" x="139.691733" y="113.951538" width="2.9929" height="1"></rect>
                        <rect id="Rectangle" fill="#86AEDB" fill-rule="nonzero" x="40.4993" y="6.92905983" width="83.6685667" height="107.022479"></rect>
                        <polygon id="Path" fill="#739ED7" fill-rule="nonzero" points="124.167867 73.7057265 124.167867 113.951538 40.4993 113.951538 40.4993 86.6533333"></polygon>
                        <polygon id="Rectangle" fill="#FFFFFF" fill-rule="nonzero" transform="translate(82.330700, 60.440299) rotate(90.000000) translate(-82.330700, -60.440299) " points="33.3433923 23.1587991 131.318008 23.1587991 131.318008 97.7217991 33.3433923 97.7217991"></polygon>
                        <rect id="Rectangle" fill="#3056C4" fill-rule="nonzero" x="87.6937" y="32.4405983" width="6.90846667" height="1"></rect>
                        <rect id="Rectangle" fill="#3056C4" fill-rule="nonzero" x="64.4367333" y="32.4405983" width="20.6792667" height="1"></rect>
                        <rect id="Rectangle" fill="#3056C4" fill-rule="nonzero" x="78.1383333" y="35.7562393" width="16.4638333" height="1"></rect>
                        <rect id="Rectangle" fill="#3056C4" fill-rule="nonzero" x="76.1603667" y="35.7562393" width="1" height="1"></rect>
                        <rect id="Rectangle" fill="#3056C4" fill-rule="nonzero" x="55.0601333" y="35.7562393" width="18.7474333" height="1"></rect>
                        <rect id="Rectangle" fill="#3056C4" fill-rule="nonzero" x="55.0601333" y="39.0718803" width="26.7919333" height="1"></rect>
                        <rect id="Rectangle" fill="#3056C4" fill-rule="nonzero" x="64.4367333" y="49.7632479" width="30.1654333" height="1"></rect>
                        <rect id="Rectangle" fill="#3056C4" fill-rule="nonzero" x="55.0601333" y="49.7632479" width="7.01803333" height="1"></rect>
                        <rect id="Rectangle" fill="#3056C4" fill-rule="nonzero" x="55.0601333" y="53.0788889" width="36.5433667" height="1"></rect>
                        <rect id="Rectangle" fill="#3056C4" fill-rule="nonzero" x="68.3465333" y="56.3945299" width="1" height="1"></rect>
                        <rect id="Rectangle" fill="#3056C4" fill-rule="nonzero" x="55.0601333" y="56.3945299" width="11.8793333" height="1"></rect>
                        <rect id="Rectangle" fill="#3056C4" fill-rule="nonzero" x="55.0601333" y="67.0858974" width="39.5420333" height="1"></rect>
                        <rect id="Rectangle" fill="#3056C4" fill-rule="nonzero" x="82.3364667" y="70.4015385" width="12.2657" height="1"></rect>
                        <rect id="Rectangle" fill="#3056C4" fill-rule="nonzero" x="55.0601333" y="70.4015385" width="24.4391333" height="1"></rect>
                        <rect id="Rectangle" fill="#3056C4" fill-rule="nonzero" x="55.0601333" y="73.7171795" width="33.9253" height="1"></rect>
                        <polygon id="Path" fill="#FFFFFF" fill-rule="nonzero" points="103.217567 39.2952137 101.747067 39.2952137 101.747067 36.872906"></polygon>
                        <polygon id="Path" fill="#3056C4" fill-rule="nonzero" points="103.217567 39.5242735 101.522167 39.5242735 101.522167 36.872906 101.977733 36.872906 101.977733 39.0718803 103.217567 39.0718803"></polygon>
                        <polygon id="Path" fill="#3056C4" fill-rule="nonzero" points="111.0833 39.5242735 104.307467 39.5242735 104.307467 39.0718803 110.627733 39.0718803 110.627733 32.1771795 111.0833 32.1771795"></polygon>
                        <rect id="Rectangle" fill="#3056C4" fill-rule="nonzero" x="107.271533" y="30.0240171" width="1" height="1"></rect>
                        <polygon id="Path" fill="#FFFFFF" fill-rule="nonzero" points="101.747067 31.2723932 101.747067 30.2530769 106.458433 30.2530769"></polygon>
                        <polygon id="Path" fill="#3056C4" fill-rule="nonzero" points="101.977733 31.2723932 101.522167 31.2723932 101.522167 30.0240171 106.458433 30.0240171 106.458433 30.4764103 101.977733 30.4764103"></polygon>
                        <polygon id="Path" fill="#3056C4" fill-rule="nonzero" points="105.8068 56.8469231 101.522167 56.8469231 101.522167 55.621453 101.977733 55.621453 101.977733 56.3945299 105.8068 56.3945299"></polygon>
                        <polygon id="Path" fill="#3056C4" fill-rule="nonzero" points="111.0833 56.8469231 106.648733 56.8469231 106.648733 56.3945299 110.627733 56.3945299 110.627733 51.2578632 111.0833 51.2578632"></polygon>
                        <rect id="Rectangle" fill="#3056C4" fill-rule="nonzero" x="110.627733" y="49.3967521" width="1" height="1"></rect>
                        <polygon id="Path" fill="#3056C4" fill-rule="nonzero" points="101.977733 54.7624786 101.522167 54.7624786 101.522167 47.3466667 108.084633 47.3466667 108.084633 47.7990598 101.977733 47.7990598"></polygon>
                        <polygon id="Path" fill="#3056C4" fill-rule="nonzero" points="111.0833 74.1695726 101.522167 74.1695726 101.522167 69.7888034 101.977733 69.7888034 101.977733 73.7171795 110.627733 73.7171795 110.627733 72.1423932 111.0833 72.1423932"></polygon>
                        <rect id="Rectangle" fill="#3056C4" fill-rule="nonzero" x="110.627733" y="71.3922222" width="1" height="1"></rect>
                        <rect id="Rectangle" fill="#3056C4" fill-rule="nonzero" x="110.627733" y="67.5382906" width="1" height="2.85179487"></rect>
                        <rect id="Rectangle" fill="#3056C4" fill-rule="nonzero" x="110.627733" y="66.9713675" width="1" height="1"></rect>
                        <rect id="Rectangle" fill="#3056C4" fill-rule="nonzero" x="106.8794" y="64.6693162" width="1" height="1"></rect>
                        <polygon id="Path" fill="#3056C4" fill-rule="nonzero" points="101.977733 66.4788889 101.522167 66.4788889 101.522167 64.6750427 106.1009 64.6750427 106.1009 65.1217094 101.977733 65.1217094"></polygon>
                        <rect id="Rectangle" fill="#3056C4" fill-rule="nonzero" x="101.522167" y="88.2510256" width="1" height="1"></rect>
                        <polygon id="Path" fill="#3056C4" fill-rule="nonzero" points="111.0833 91.4922222 101.522167 91.4922222 101.522167 89.7399145 101.977733 89.7399145 101.977733 91.0398291 110.627733 91.0398291 110.627733 89.9174359 111.0833 89.9174359"></polygon>
                        <rect id="Rectangle" fill="#3056C4" fill-rule="nonzero" x="110.627733" y="83.8416239" width="1" height="5.02786325"></rect>
                        <rect id="Rectangle" fill="#3056C4" fill-rule="nonzero" x="55.0601333" y="84.408547" width="36.5433667" height="1"></rect>
                        <rect id="Rectangle" fill="#3056C4" fill-rule="nonzero" x="65.7746" y="87.724188" width="28.8275667" height="1"></rect>
                        <rect id="Rectangle" fill="#3056C4" fill-rule="nonzero" x="63.0296667" y="87.724188" width="1" height="1"></rect>
                        <rect id="Rectangle" fill="#3056C4" fill-rule="nonzero" x="55.0601333" y="87.724188" width="5.3111" height="1"></rect>
                        <rect id="Rectangle" fill="#3056C4" fill-rule="nonzero" x="55.0601333" y="91.0398291" width="14.0418333" height="1"></rect>
                        <rect id="Rectangle" fill="#3056C4" fill-rule="nonzero" x="45.0549667" y="109.204274" width="74.563" height="1"></rect>
                        <polygon id="Path" fill="#DDEBFA" fill-rule="nonzero" points="61.8417333 6.92905983 61.8417333 18.2331624 102.825433 18.2331624 102.825433 6.92905983 90.2483333 6.92905983 87.0074667 0 77.6654667 0 74.4303667 6.92905983"></polygon>
                        <polygon id="Path" fill="#739ED7" fill-rule="nonzero" points="61.8417333 6.92905983 61.8417333 15.1694872 102.825433 8.83025641 102.825433 6.92905983 90.2483333 6.92905983 87.0074667 0 77.6654667 0 74.4303667 6.92905983"></polygon>
                        <rect id="Rectangle" fill="#3056C4" fill-rule="nonzero" x="123.942967" y="100.047607" width="1" height="10.5882906"></rect>
                        <rect id="Rectangle" fill="#3056C4" fill-rule="nonzero" x="123.942967" y="51.2578632" width="1" height="43.9623077"></rect>
                        <rect id="Rectangle" fill="#3056C4" fill-rule="nonzero" x="40.2686333" y="81.4307692" width="1" height="13.5259829"></rect>
                        <rect id="Rectangle" fill="#3056C4" fill-rule="nonzero" x="40.2686333" y="78.3613675" width="1" height="1"></rect>
                        <rect id="Rectangle" fill="#3056C4" fill-rule="nonzero" x="40.2686333" y="66.3586325" width="1" height="10.8860684"></rect>
                        <polygon id="Path" fill="#3056C4" fill-rule="nonzero" points="103.0561 18.4622222 81.2984667 18.4622222 81.2984667 18.0098291 102.600533 18.0098291 102.600533 6.92905983 103.0561 6.92905983"></polygon>
                        <rect id="Rectangle" fill="#3056C4" fill-rule="nonzero" x="65.5381667" y="18.0098291" width="13.2864" height="1"></rect>
                        <polygon id="Path" fill="#739ED7" fill-rule="nonzero" points="124.398533 24.4120513 123.942967 24.4120513 123.942967 7.15811966 117.351667 7.15811966 117.351667 6.7057265 124.398533 6.7057265"></polygon>
                        <rect id="Rectangle" fill="#739ED7" fill-rule="nonzero" x="112.115533" y="6.7057265" width="3.26393333" height="1"></rect>
                        <ellipse id="Oval" fill="#FFFFFF" fill-rule="nonzero" transform="translate(82.339004, 4.107890) rotate(-80.780000) translate(-82.339004, -4.107890) " cx="82.3390037" cy="4.1078901" rx="1.93017781" ry="1.94302033"></ellipse>
                        <path d="M84.4067,4.75871795 L83.9742,4.62128205 C84.0273694,4.45456888 84.0545942,4.28077141 84.0549333,4.10589744 C84.0549333,3.15710056 83.280386,2.38794872 82.3249333,2.38794872 C81.6709238,2.39208377 81.0751702,2.76211299 80.7852333,3.3442735 L80.3758,3.14384615 C80.8227842,2.24539176 81.8336015,1.77049951 82.8166045,1.99713138 C83.7996075,2.22376325 84.4963289,3.09232948 84.4989667,4.09444444 C84.5042112,4.31934564 84.4730592,4.54362434 84.4067,4.75871795 L84.4067,4.75871795 Z" id="Path" fill="#3056C4" fill-rule="nonzero"></path>
                        <path d="M82.3364667,6.26478632 C81.7588787,6.26630772 81.2044222,6.03952582 80.7954638,5.6344906 C80.3865053,5.22945538 80.1566646,4.67946393 80.1566667,4.10589744 L80.1566667,4.04290598 L80.6122333,4.04290598 L80.6122333,4.09444444 C80.6122333,5.04324132 81.3867807,5.81239316 82.3422333,5.81239316 C82.5202058,5.81184334 82.6970911,5.78481978 82.867,5.73222222 L83.0054,6.1617094 C82.7892762,6.23082032 82.5635182,6.2656077 82.3364667,6.26478632 L82.3364667,6.26478632 Z" id="Path" fill="#3056C4" fill-rule="nonzero"></path>
                        <polygon id="Path" fill="#3056C4" fill-rule="nonzero" points="101.977733 85.5023077 101.522167 85.5023077 101.522167 81.9976923 107.2081 81.9976923 107.2081 82.444359 101.977733 82.444359"></polygon>
                        <rect id="Rectangle" fill="#FFFFFF" fill-rule="nonzero" x="61.6168333" y="6.92905983" width="1" height="11.7049573"></rect>
                        <polygon id="Path" fill="#76D160" fill-rule="nonzero" points="104.866833 38.3675214 99.5730333 34.0268376 101.020467 32.2802564 104.5266 35.1549573 111.884867 25.9639316 113.666767 27.3726496"></polygon>
                        <polygon id="Path" fill="#76D160" fill-rule="nonzero" points="104.866833 55.6901709 99.5730333 51.3494872 101.020467 49.602906 104.5266 52.4776068 111.884867 43.2865812 113.666767 44.6952991"></polygon>
                        <polygon id="Path" fill="#76D160" fill-rule="nonzero" points="104.866833 73.0128205 99.5730333 68.6721368 101.020467 66.9312821 104.5266 69.8002564 111.884867 60.6092308 113.666767 62.0179487"></polygon>
                        <polygon id="Path" fill="#76D160" fill-rule="nonzero" points="104.866833 90.3354701 99.5730333 85.9947863 101.020467 84.2539316 104.5266 87.122906 111.884867 77.9318803 113.666767 79.3405983"></polygon>
                        <polygon id="Path" fill="#DDEBFA" fill-rule="nonzero" points="45.6143333 38.2300855 47.7768333 37.8578632 50.5102333 49.1505128 46.8541667 49.7689744"></polygon>
                        <polygon id="Rectangle" fill="#FF9D45" fill-rule="nonzero" transform="translate(36.623877, 47.848390) rotate(-14.270000) translate(-36.623877, -47.848390) " points="9.7803119 46.3428266 63.4625482 46.4321967 63.4674423 49.3539543 9.78520601 49.2645841"></polygon>
                        <polygon id="Rectangle" fill="#FFC359" fill-rule="nonzero" transform="translate(35.903563, 45.014083) rotate(-14.270000) translate(-35.903563, -45.014083) " points="9.05999775 43.5085196 62.7422341 43.5978897 62.7471282 46.5196473 9.06489186 46.4302772"></polygon>
                        <polygon id="Rectangle" fill="#FFC359" fill-rule="nonzero" transform="translate(35.176239, 42.181365) rotate(-14.270000) translate(-35.176239, -42.181365) " points="8.33267344 40.6758008 62.0149098 40.765171 62.0198039 43.6869286 8.33756754 43.5975584"></polygon>
                        <polygon id="Rectangle" fill="#FF809F" fill-rule="nonzero" transform="translate(3.460721, 53.206632) rotate(-14.270000) translate(-3.460721, -53.206632) " points="1.24856335 48.8203246 5.6581962 48.8276658 5.67287851 57.5929385 1.26324565 57.5855974"></polygon>
                        <polygon id="Rectangle" fill="#EEEBFF" fill-rule="nonzero" transform="translate(7.738944, 52.132275) rotate(-14.270000) translate(-7.738944, -52.132275) " points="5.52678142 47.743104 9.93641428 47.7504452 9.95110618 56.5214469 5.54147333 56.5141057"></polygon>
                        <polygon id="Path" fill="#DDEBFA" fill-rule="nonzero" points="75.2434667 35.0747863 60.8383333 34.192906 63.0123667 42.6852991"></polygon>
                        <polygon id="Path" fill="#739ED7" fill-rule="nonzero" points="70.9184667 37.7719658 63.0123667 42.6852991 62.2915333 39.8564103 70.6589667 36.7698291"></polygon>
                        <polygon id="Path" fill="#4D4D4D" fill-rule="nonzero" points="75.2434667 35.0747863 70.9184667 37.7719658 70.6589667 36.7698291"></polygon>
                        <polygon id="Path" fill="#4D4D4D" fill-rule="nonzero" points="75.2434667 35.0747863 70.6589667 36.7698291 70.1457333 34.7655556"></polygon>
                        <polygon id="Rectangle" fill="#DDD6FF" fill-rule="nonzero" transform="translate(8.464136, 54.956670) rotate(-14.270000) translate(-8.464136, -54.956670) " points="6.25687249 53.4921201 10.6665053 53.4994613 10.6713994 56.4212189 6.26176659 56.4138777"></polygon>
                        <polygon id="Rectangle" fill="#E5659B" fill-rule="nonzero" transform="translate(4.188045, 56.039350) rotate(-14.270000) translate(-4.188045, -56.039350) " points="1.98078177 54.574801 6.39041462 54.5821421 6.39530873 57.5038997 1.98567587 57.4965586"></polygon>
                        <polygon id="Rectangle" fill="#3056C4" fill-rule="nonzero" transform="translate(40.151107, 48.424547) rotate(-14.280000) translate(-40.151107, -48.424547) " points="19.1228967 48.194733 61.1786648 48.2647924 61.1793178 48.6543603 19.1235496 48.5843009"></polygon>
                        <polygon id="Rectangle" fill="#3056C4" fill-rule="nonzero" transform="translate(13.321932, 55.244304) rotate(-14.280000) translate(-13.321932, -55.244304) " points="9.04455223 55.0423948 17.5986586 55.0566449 17.5993115 55.4462128 9.0452052 55.4319627"></polygon>
                        <polygon id="Path" fill="#3056C4" fill-rule="nonzero" points="2.27206667 58.232735 0.7612 52.3344444 1.1418 52.237094 2.55463333 57.7574359 8.39626667 56.28 8.4943 56.6636752"></polygon>
                        <polygon id="Path" fill="#3056C4" fill-rule="nonzero" points="0.455566667 51.1261538 0 49.3623932 4.46916667 48.2342735 4.5672 48.6122222 0.478633333 49.6429915 0.836166667 51.0288034"></polygon>
                        <polygon id="Rectangle" fill="#FFFFFF" fill-rule="nonzero" transform="translate(9.725185, 51.007859) rotate(-14.270000) translate(-9.725185, -51.007859) " points="9.52286741 47.2264346 9.91483478 47.2270872 9.92750187 54.7892833 9.5355345 54.7886307"></polygon>
                        <polygon id="Rectangle" fill="#FFFFFF" fill-rule="nonzero" transform="translate(5.866753, 53.683419) rotate(-14.270000) translate(-5.866753, -53.683419) " points="5.6700731 53.2677446 6.06204047 53.2683971 6.06343193 54.0990929 5.67146456 54.0984404"></polygon>
                        <polygon id="Rectangle" fill="#FFFFFF" fill-rule="nonzero" transform="translate(5.293195, 51.466458) rotate(-14.270000) translate(-5.293195, -51.466458) " points="5.09532083 50.3375308 5.48728819 50.3381833 5.49106913 52.5953843 5.09910176 52.5947317"></polygon>
                        <polygon id="Rectangle" fill="#FFFFFF" fill-rule="nonzero" transform="translate(61.563743, 37.015459) rotate(-14.280000) translate(-61.563743, -37.015459) " points="61.3628618 34.0933732 61.754829 34.0940262 61.7646235 39.9375448 61.3726563 39.9368918"></polygon>
                        <path d="M37.4256667,37.3367521 L36.4107333,34.1184615 L37.4256667,37.3367521 Z" id="Path"></path>
                        <path d="M24.1681,58.982906 C24.7793667,58.1582906 25.3964,57.3508547 25.4194667,56.1196581 C25.4771333,53.1304274 24.1335,52.9929915 24.3122667,50.0094872 C24.4910333,47.0259829 26.7169667,47.1805983 26.8957333,44.197094 C26.9169405,43.8536219 26.8917275,43.5088763 26.8207667,43.1720513 C26.5878863,42.7756591 26.3947386,42.3575302 26.2441,41.9236752 C26.2152667,41.8492308 26.1922,41.7690598 26.1691333,41.6946154 C25.917042,40.9043503 25.7981855,40.0781501 25.8173667,39.2494017 C25.8136766,36.4672831 27.3244817,33.9004331 29.7673828,32.5383446 C32.210284,31.176256 35.2037605,31.2316533 37.5938597,32.6831816 C39.9839588,34.1347099 41.3974063,36.7556762 41.2893333,39.5357265 C41.2755315,40.36369 41.1255431,41.1838468 40.8453,41.9637607 C40.8453,42.0382051 40.7934,42.1126496 40.7645667,42.187094 L40.7645667,42.187094 C40.594286,42.6169132 40.3858658,43.03085 40.1417667,43.4240171 C40.0607625,43.757612 40.0239295,44.1002755 40.0322,44.4433333 C40.0956333,47.4325641 42.3388667,47.3523932 42.3907667,50.3416239 C42.4426667,53.3308547 41.1163333,53.4224786 41.0586667,56.4059829 C41.0586667,57.62 41.6353333,58.4446154 42.212,59.2692308 C42.9249145,60.1146696 43.3310929,61.1734607 43.3653333,62.275641 C43.2959041,65.973954 40.2215251,68.9166922 36.4972333,68.8496581 L29.5368667,68.7179487 C27.7488774,68.6848486 26.0473987,67.9476144 24.806897,66.6684987 C23.5663953,65.3893831 22.8885344,63.6732145 22.9225,61.8976923 C23.0024194,60.8162223 23.4403714,59.7913857 24.1681,58.982906 Z" id="Path" fill="#3056C4" fill-rule="nonzero"></path>
                        <ellipse id="Oval" fill="#DDEBFA" fill-rule="nonzero" cx="36.2665667" cy="65.3622222" rx="4.5672" ry="4.53538462"></ellipse>
                        <ellipse id="Oval" fill="#E8C3AE" fill-rule="nonzero" cx="37.9792667" cy="50.908547" rx="2.55463333" ry="2.53683761"></ellipse>
                        <path d="M48.267,47.7876068 C48.9972677,47.6111906 49.7626115,47.8893119 50.2057244,48.4921275 C50.6488372,49.0949431 50.6823256,49.903562 50.2905551,50.5404736 C49.8987846,51.1773852 49.1590227,51.5169739 48.4166335,51.4006999 C47.6742442,51.2844259 47.0756463,50.7352214 46.9003,50.0094872 C46.6649391,49.021957 47.2747795,48.0305233 48.267,47.7876068 L48.267,47.7876068 Z" id="Path" fill="#DDEBFA" fill-rule="nonzero"></path>
                        <polygon id="Path" fill="#DDEBFA" fill-rule="nonzero" points="37.8293333 48.3774359 48.5957 47.7360684 49.0512667 51.3895726 38.4579 53.3995726"></polygon>
                        <ellipse id="Oval" fill="#E8C3AE" fill-rule="nonzero" cx="23.2454333" cy="112.193504" rx="1.27443333" ry="1.26555556"></ellipse>
                        <path d="M40.5339,50.8570085 L40.828,65.0587179 L31.7166667,65.6657265 L26.9418667,51.0459829 C26.7911257,50.588368 26.861972,50.0872488 27.1337762,49.6885423 C27.4055805,49.2898358 27.8477871,49.0383638 28.3316333,49.0073504 L37.8120333,48.3774359 C38.5077216,48.3336022 39.191333,48.5733415 39.705013,49.041295 C40.218693,49.5092484 40.5180288,50.1649567 40.5339,50.8570085 Z" id="Path" fill="#DDEBFA" fill-rule="nonzero"></path>
                        <ellipse id="Oval" fill="#DDEBFA" fill-rule="nonzero" transform="translate(37.981015, 50.906228) rotate(-12.700000) translate(-37.981015, -50.906228) " cx="37.9810155" cy="50.9062277" rx="2.55377614" ry="2.53770065"></ellipse>
                        <path d="M40.8395333,65.3679487 L31.7166667,65.3679487 L31.2265,65.7458974 C29.5657065,67.0251524 28.5947706,68.9957852 28.5969,71.0829915 L28.5969,73.03 C28.5953648,73.7549153 28.8846768,74.450579 29.4008663,74.9631726 C29.9170558,75.4757663 30.6175994,75.763063 31.3476,75.7615385 L39.2652333,75.7615385 C40.784403,75.7615385 42.0159333,74.538587 42.0159333,73.03 L42.0159333,70.361453 C42.0158682,68.6292459 41.6132915,66.9204151 40.8395333,65.3679487 L40.8395333,65.3679487 Z" id="Path" fill="#283570" fill-rule="nonzero"></path>
                        <path d="M42.7771333,55.621453 C42.7551074,55.3159736 42.6769289,55.0170829 42.5464667,54.7395726 L42.5464667,54.7395726 L40.2974667,49.8548718 L35.6495333,51.9622222 L37.8985333,56.8469231 L37.8985333,56.8469231 C38.4108501,57.9605773 39.6510526,58.5519643 40.8466009,58.2527005 C42.0421493,57.9534367 42.8518658,56.8489242 42.7713667,55.6271795 L42.7771333,55.621453 Z" id="Path" fill="#DDEBFA" fill-rule="nonzero"></path>
                        <polygon id="Rectangle" fill="#739ED7" fill-rule="nonzero" transform="translate(40.991938, 51.358568) rotate(-24.550000) translate(-40.991938, -51.358568) " points="40.7950443 50.9567121 41.1867061 50.9577445 41.1888315 51.7604247 40.7971697 51.7593924"></polygon>
                        <path d="M40.2225,58.5247863 C39.8494797,58.5253809 39.4803682,58.4493433 39.1383667,58.301453 L39.2940667,57.9406838 C40.0457318,58.2655562 40.9134889,58.1784897 41.58452,57.7108711 C42.2555511,57.2432524 42.633101,56.4625068 42.5810667,55.6500855 C42.5578453,55.3688161 42.4856523,55.093681 42.3677,54.8369231 L42.2869667,54.6536752 L42.2869667,54.6536752 L41.3008667,52.5119658 L41.6584,52.3458974 L42.8117333,54.8541026 L42.8117333,54.8541026 C42.9047895,55.1004403 42.9611281,55.3589502 42.9789667,55.621453 C43.07455,57.1268601 41.9281576,58.4264344 40.4128,58.5305128 L40.2225,58.5247863 Z" id="Path" fill="#739ED7" fill-rule="nonzero"></path>
                        <path d="M26.4632333,52.9471795 C27.249896,54.1098686 28.8366446,54.419372 30.0077357,53.6385526 C31.1788268,52.8577333 31.4909972,51.2821349 30.7050665,50.1189577 C29.9191358,48.9557805 28.3325823,48.6452923 27.161,49.4253846 C26.5979173,49.8003105 26.2080009,50.3821218 26.0771255,51.0426814 C25.94625,51.703241 26.0851496,52.388371 26.4632333,52.9471795 L26.4632333,52.9471795 Z" id="Path" fill="#DDEBFA" fill-rule="nonzero"></path>
                        <polygon id="Path" fill="#DDEBFA" fill-rule="nonzero" points="26.8957333 49.6315385 18.7878 56.6865812 21.0483333 59.6013675 30.0039667 53.6400855"></polygon>
                        <ellipse id="Oval" fill="#283570" fill-rule="nonzero" cx="39.2652333" cy="73.03" rx="2.7507" ry="2.73153846"></ellipse>
                        <polygon id="Path" fill="#E8C3AE" fill-rule="nonzero" points="36.5145333 73.03 36.5145333 87.157265 40.9491 87.3233333 42.0044 73.2361538"></polygon>
                        <polygon id="Rectangle" fill="#E8C3AE" fill-rule="nonzero" transform="translate(34.184777, 45.978601) rotate(172.350000) translate(-34.184777, -45.978601) " points="32.0200981 43.3335071 36.3445642 43.3374822 36.3494561 48.6236948 32.02499 48.6197198"></polygon>
                        <path d="M32.3971333,48.8813675 C32.5125519,49.7430074 33.1396617,50.4505726 33.9856598,50.673695 C34.8316579,50.8968175 35.7296689,50.5914856 36.260404,49.9002615 C36.791139,49.2090373 36.8499091,48.2682667 36.409274,47.5172034 C35.9686389,46.7661401 35.1155151,46.3529333 34.2482333,46.4705128 C33.0677734,46.6305506 32.2400367,47.7085869 32.3971333,48.8813675 Z" id="Path" fill="#E8C3AE" fill-rule="nonzero"></path>
                        <path d="M31.2380333,41.8492308 L32.2126,41.7175214 L31.9531,39.7819658 L30.9785333,39.9136752 C30.7196866,39.9477972 30.485244,40.0830556 30.3271913,40.2894579 C30.1691386,40.4958601 30.1005376,40.7563487 30.1366,41.0131624 L30.1366,41.0131624 C30.2082721,41.5460624 30.7013914,41.9203759 31.2380333,41.8492308 Z" id="Path" fill="#E8C3AE" fill-rule="nonzero"></path>
                        <path d="M37.9965667,35.2351282 L30.6786667,36.214359 L31.9473333,45.594359 L36.4914667,44.9873504 C37.367621,44.8755996 38.157846,44.4079644 38.6737623,43.6959232 C39.1896785,42.9838819 39.3850611,42.0912319 39.2133333,41.2307692 L37.9965667,35.2351282 Z" id="Path" fill="#E8C3AE" fill-rule="nonzero"></path>
                        <path d="M31.1746,39.8907692 L30.9785333,39.8907692 L30.2231,34.3589744 L36.0186,33.557265 C36.7543453,33.4579616 37.4996586,33.6532609 38.0902746,34.1001194 C38.6808906,34.5469779 39.0683293,35.2087156 39.1672,35.9394872 L39.1672,36.0482906 L38.9711333,36.0482906 C37.3148801,36.2794807 35.7800015,37.041574 34.6,38.2186325 L34.6,38.2186325 C33.6695969,39.1281537 32.4680772,39.7146853 31.1746,39.8907692 L31.1746,39.8907692 Z" id="Path" fill="#3056C4" fill-rule="nonzero"></path>
                        <polygon id="Path" fill="#E8C3AE" fill-rule="nonzero" points="37.6390333 52.9128205 37.3391667 48.4117949 30.4249333 48.8699145"></polygon>
                        <polygon id="Path" fill="#E8C3AE" fill-rule="nonzero" points="40.9491 87.3233333 39.0634 112.290855 36.5145333 112.193504 36.5145333 87.157265"></polygon>
                        <path d="M29.6695,68.374359 C29.6525127,68.8890961 29.2369145,69.3027974 28.7186091,69.3209098 C28.2003037,69.3390223 27.7564488,68.955355 27.7030667,68.4430769 C27.6651571,68.0792803 27.8345655,67.7248261 28.1423517,67.5239579 C28.4501379,67.3230898 28.8449959,67.3092913 29.1662397,67.4881777 C29.4874834,67.667064 29.6815636,68.008816 29.6695,68.374359 L29.6695,68.374359 Z" id="Path" fill="#E8C3AE" fill-rule="nonzero"></path>
                        <path d="M31.1054,70.0808547 C30.9529157,70.0860486 30.8006909,70.0647305 30.6556,70.0178632 L30.6556,70.0178632 L28.4008333,69.3364103 L28.6545667,67.4237607 L31.0073667,67.3435897 C31.5154884,67.2982374 32.0072743,67.5353263 32.2856759,67.9598597 C32.5640775,68.3843931 32.5835484,68.9269177 32.336287,69.3700549 C32.0890256,69.8131922 31.6154838,70.0844451 31.1054,70.0751282 L31.1054,70.0808547 Z" id="Path" fill="#E8C3AE" fill-rule="nonzero"></path>
                        <path d="M21.106,59.5555556 C21.7140229,59.1165719 21.9955215,58.3568528 21.8190248,57.6312171 C21.6425282,56.9055814 21.0428629,56.3572125 20.3000963,56.2422203 C19.5573297,56.1272282 18.8180256,56.4683033 18.4274682,57.1061499 C18.0369107,57.7439966 18.0721653,58.5527542 18.5167667,59.1547009 C19.1232629,59.9705592 20.2781928,60.1493608 21.106,59.5555556 L21.106,59.5555556 Z" id="Path" fill="#DDEBFA" fill-rule="nonzero"></path>
                        <polygon id="Path" fill="#E8C3AE" fill-rule="nonzero" points="18.6667 59.3436752 27.9741 69.0787179 29.4792 67.8303419 21.5154333 56.984359"></polygon>
                        <polygon id="Path" fill="#DDEBFA" fill-rule="nonzero" points="26.7169667 67.7616239 28.4008333 66.364359 21.5154333 56.984359 18.6667 59.3436752"></polygon>
                        <polygon id="Path" fill="#E8C3AE" fill-rule="nonzero" points="28.6142 72.5776068 21.9883 111.981624 24.4910333 112.497009 34.0002667 73.677094"></polygon>
                        <path d="M21.971,112.193504 L24.5256333,112.193504 L24.5256333,113.957265 L20.9445333,113.957265 C20.6260491,113.957265 20.3678667,113.700881 20.3678667,113.384615 L20.3678667,113.384615 C20.3726464,113.189723 20.4769431,113.010633 20.6446667,112.909316 L21.971,112.193504 Z" id="Path" fill="#3056C4" fill-rule="nonzero"></path>
                        <path d="M37.7716667,42.0496581 C37.8640271,42.6347495 37.4612624,43.1834112 36.8720667,43.2751282 C36.2828709,43.3668452 35.7303604,42.9668863 35.638,42.3817949 L37.7716667,42.0496581 Z" id="Path" fill="#FFFFFF" fill-rule="nonzero"></path>
                        <polygon id="Rectangle" fill="#3056C4" fill-rule="nonzero" transform="translate(22.258064, 110.365235) rotate(-80.500000) translate(-22.258064, -110.365235) " points="21.6850826 110.168551 22.8306006 110.169859 22.8310453 110.561918 21.6855273 110.56061"></polygon>
                        <rect id="Rectangle" fill="#3056C4" fill-rule="nonzero" x="36.3184667" y="81.4479487" width="1" height="1.25982906"></rect>
                        <polygon id="Rectangle" fill="#739ED7" fill-rule="nonzero" transform="translate(23.881752, 57.716811) rotate(-33.810000) translate(-23.881752, -57.716811) " points="23.4610617 57.520331 24.301179 57.5230426 24.302442 57.9132901 23.4623246 57.9105785"></polygon>
                        <polygon id="Rectangle" fill="#739ED7" fill-rule="nonzero" transform="translate(27.074165, 55.597205) rotate(-33.810000) translate(-27.074165, -55.597205) " points="24.4380969 55.3935754 29.7089704 55.410588 29.7102333 55.8008354 24.4393598 55.7838229"></polygon>
                        <polygon id="Rectangle" fill="#739ED7" fill-rule="nonzero" transform="translate(43.451642, 48.046036) rotate(-3.430000) translate(-43.451642, -48.046036) " points="39.5793406 47.8497196 47.3237808 47.8529415 47.3239439 48.242353 39.5795037 48.239131"></polygon>
                        <polygon id="Rectangle" fill="#3056C4" fill-rule="nonzero" transform="translate(45.654344, 38.028909) rotate(-14.280000) translate(-45.654344, -38.028909) " points="41.6853501 37.8275138 49.6226847 37.8407364 49.6233376 38.2303043 41.6860031 38.2170817"></polygon>
                        <path d="M45.1357,37.7490598 C44.8924057,37.2694014 45.0862468,36.6846968 45.5688962,36.4423617 C46.0515456,36.2000267 46.6406486,36.3916203 46.8854237,36.8705352 C47.1301988,37.3494502 46.9381651,37.9347426 46.4562667,38.178547 C46.2239031,38.2961055 45.9539474,38.3168822 45.706118,38.2362808 C45.4582887,38.1556794 45.2530126,37.9803434 45.1357,37.7490598 Z" id="Path" fill="#E8C3AE" fill-rule="nonzero"></path>
                        <path d="M43.1058333,36.804188 C43.2400341,36.7284653 43.3863228,36.6761682 43.5383333,36.6495726 L43.5383333,36.6495726 L45.845,36.3231624 L46.4216667,38.1613675 L44.3168333,39.2207692 C43.6400544,39.5623361 42.8125797,39.2944148 42.4686167,38.6223504 C42.1246538,37.950286 42.3944544,37.1285754 43.0712333,36.7870085 L43.1058333,36.804188 Z" id="Path" fill="#E8C3AE" fill-rule="nonzero"></path>
                        <polygon id="Path" fill="#283570" fill-rule="nonzero" points="26.3882667 85.8287179 41.0644333 85.8287179 42.0044 73.2361538 28.6142 72.5776068"></polygon>
                        <polygon id="Rectangle" fill="#3056C4" fill-rule="nonzero" transform="translate(25.429213, 91.515737) rotate(-80.500000) translate(-25.429213, -91.515737) " points="7.58754792 91.2993378 43.2704337 91.340077 43.2708784 91.7321359 7.58799259 91.6913967"></polygon>
                        <rect id="Rectangle" fill="#3056C4" fill-rule="nonzero" x="36.3184667" y="88.0162393" width="1" height="22.9059829"></rect>
                        <path d="M39.0691667,112.193504 L36.5145333,112.193504 L36.5145333,113.957265 L40.0898667,113.957265 C40.4083509,113.957265 40.6665333,113.700881 40.6665333,113.384615 L40.6665333,113.384615 C40.6630009,113.190846 40.5610156,113.011999 40.3955,112.909316 L39.0691667,112.193504 Z" id="Path" fill="#3056C4" fill-rule="nonzero"></path>
                        <ellipse id="Oval" fill="#3056C4" fill-rule="nonzero" transform="translate(112.548724, 40.927818) rotate(-41.850000) translate(-112.548724, -40.927818) " cx="112.548724" cy="40.9278185" rx="3.00088439" ry="2.99858336"></ellipse>
                        <polygon id="Path" fill="#3056C4" fill-rule="nonzero" points="109.901133 39.5013675 117.582333 25.4542735 120.015867 26.4621368 115.437133 41.7805128"></polygon>
                        <polygon id="Rectangle" fill="#FF9D45" fill-rule="nonzero" transform="translate(131.676032, 37.845331) rotate(-170.330000) translate(-131.676032, -37.845331) " points="101.51555 36.2391637 161.840325 36.1695662 161.836513 39.4514977 101.511739 39.5210952"></polygon>
                        <polygon id="Rectangle" fill="#FFC359" fill-rule="nonzero" transform="translate(132.232279, 34.608983) rotate(-170.330000) translate(-132.232279, -34.608983) " points="102.071798 33.0028163 162.396572 32.9332188 162.392761 36.2151503 102.067986 36.2847478"></polygon>
                        <polygon id="Rectangle" fill="#FFC359" fill-rule="nonzero" transform="translate(132.788527, 31.378362) rotate(-170.330000) translate(-132.788527, -31.378362) " points="102.628045 29.7721954 162.95282 29.7025979 162.949008 32.9845294 102.624234 33.0541269"></polygon>
                        <polygon id="Rectangle" fill="#FF809F" fill-rule="nonzero" transform="translate(169.305335, 40.886651) rotate(-170.330000) translate(-169.305335, -40.886651) " points="166.831877 35.9637498 171.790235 35.9580292 171.778794 45.8095514 166.820436 45.8152719"></polygon>
                        <polygon id="Rectangle" fill="#EEEBFF" fill-rule="nonzero" transform="translate(164.413918, 40.057610) rotate(-170.330000) translate(-164.413918, -40.057610) " points="161.940459 35.1347096 166.898818 35.1289891 166.887377 44.9805113 161.929018 44.9862318"></polygon>
                        <polygon id="Path" fill="#DDEBFA" fill-rule="nonzero" points="87.2785 27.0004274 103.327133 24.7212821 101.660567 34.4276923"></polygon>
                        <polygon id="Path" fill="#739ED7" fill-rule="nonzero" points="92.3647 29.6288889 101.660567 34.4334188 102.214167 31.1979487 92.5607667 28.4835897"></polygon>
                        <polygon id="Path" fill="#333333" fill-rule="nonzero" points="87.2727333 27.0004274 92.3647 29.6288889 92.5607667 28.4835897"></polygon>
                        <polygon id="Path" fill="#4D4D4D" fill-rule="nonzero" points="87.2727333 27.0004274 92.5607667 28.4835897 92.9529 26.1929915"></polygon>
                        <polygon id="Rectangle" fill="#DDD6FF" fill-rule="nonzero" transform="translate(163.857186, 43.296780) rotate(-170.330000) translate(-163.857186, -43.296780) " points="161.379912 41.6586749 166.338271 41.6529544 166.334459 44.9348859 161.376101 44.9406064"></polygon>
                        <polygon id="Rectangle" fill="#E5659B" fill-rule="nonzero" transform="translate(168.749572, 44.120175) rotate(-170.330000) translate(-168.749572, -44.120175) " points="166.272299 42.4820699 171.230657 42.4763494 171.226846 45.7582809 166.268487 45.7640014"></polygon>
                        <polygon id="Rectangle" fill="#283570" fill-rule="nonzero" transform="translate(127.780138, 38.807263) rotate(-80.330000) translate(-127.780138, -38.807263) " points="127.532362 15.1769689 127.973389 15.1774811 128.027914 62.4375571 127.586886 62.4370449"></polygon>
                        <polygon id="Rectangle" fill="#3056C4" fill-rule="nonzero" transform="translate(158.464453, 44.041643) rotate(-80.320000) translate(-158.464453, -44.041643) " points="158.238389 39.235817 158.679417 39.2363297 158.690516 48.8474697 158.249488 48.846957"></polygon>
                        <polygon id="Path" fill="#3056C4" fill-rule="nonzero" points="171.097 46.4017949 172.2561 39.6617094 171.817833 39.587265 170.7337 45.8978632 164.061667 44.7697436 163.9867 45.1992308"></polygon>
                        <polygon id="Path" fill="#3056C4" fill-rule="nonzero" points="172.492533 38.2816239 172.838533 36.2658974 167.729267 35.4011966 167.660067 35.8306838 172.3253 36.6209402 172.054267 38.2071795"></polygon>
                        <polygon id="Rectangle" fill="#FFFFFF" fill-rule="nonzero" transform="translate(162.090033, 38.975525) rotate(-80.330000) translate(-162.090033, -38.975525) " points="157.84274 38.7486196 166.336814 38.7584842 166.337326 39.2024302 157.843252 39.1925657"></polygon>
                        <polygon id="Rectangle" fill="#FFFFFF" fill-rule="nonzero" transform="translate(102.776909, 27.963669) rotate(-80.320000) translate(-102.776909, -27.963669) " points="99.4918562 27.7378779 106.061449 27.7455151 106.061962 28.1894609 99.4923689 28.1818238"></polygon>
                        <polygon id="Rectangle" fill="#FFFFFF" fill-rule="nonzero" transform="translate(166.667568, 41.627197) rotate(-80.330000) translate(-166.667568, -41.627197) " points="166.20051 41.4046815 167.134114 41.4057657 167.134626 41.8497118 166.201022 41.8486275"></polygon>
                        <polygon id="Rectangle" fill="#FFFFFF" fill-rule="nonzero" transform="translate(167.093196, 39.096924) rotate(-80.330000) translate(-167.093196, -39.096924) " points="165.827134 38.8734807 168.358746 38.8764208 168.359258 39.3203668 165.827646 39.3174268"></polygon>
                        <polygon id="Rectangle" fill="#3056C4" fill-rule="nonzero" transform="translate(119.513364, 27.461451) rotate(-80.330000) translate(-119.513364, -27.461451) " points="119.287047 22.4307667 119.728074 22.4312788 119.739682 32.4921343 119.298654 32.4916222"></polygon>
                        <polygon id="Path" fill="#3056C4" fill-rule="nonzero" points="141.871533 64.5719658 153.099233 111.328803 149.495067 112.273675 136.0472 66.1009402"></polygon>
                        <circle id="Oval" fill="#3056C4" fill-rule="nonzero" transform="translate(151.283513, 111.756324) rotate(-45.000000) translate(-151.283513, -111.756324) " cx="151.283513" cy="111.756324" r="1.85615731"></circle>
                        <path d="M155.0253,113.957265 L149.4201,113.957265 L149.4201,111.764017 L153.151133,111.764017 L155.290567,112.909316 C155.46616,113.009954 155.575636,113.194766 155.5789,113.396068 L155.5789,113.396068 C155.573037,113.699155 155.330327,113.945195 155.0253,113.957265 Z" id="Path" fill="#283570" fill-rule="nonzero"></path>
                        <ellipse id="Oval" fill="#3056C4" fill-rule="nonzero" transform="translate(128.919019, 41.365652) rotate(-2.030000) translate(-128.919019, -41.365652) " cx="128.919019" cy="41.3656524" rx="4.41722819" ry="4.38653448"></ellipse>
                        <path d="M150.567667,53.5198291 C151.988369,54.3755951 153.838636,53.92636 154.701431,52.5161725 C155.564226,51.105985 155.113176,49.2682835 153.69372,48.4104802 C152.274264,47.5526768 150.423346,47.999257 149.5585,49.4082051 C149.140825,50.0857141 149.012483,50.900658 149.201913,51.6724501 C149.391344,52.4442423 149.882904,53.1091483 150.567667,53.5198291 Z" id="Path" fill="#3056C4" fill-rule="nonzero"></path>
                        <polygon id="Path" fill="#3056C4" fill-rule="nonzero" points="138.411533 45.4970085 150.463867 53.4568376 154.252567 48.8412821 143.964833 38.7340171"></polygon>
                        <ellipse id="Oval" fill="#3056C4" fill-rule="nonzero" transform="translate(140.856828, 41.850021) rotate(-43.750000) translate(-140.856828, -41.850021) " cx="140.856828" cy="41.8500206" rx="4.40257971" ry="4.40123751"></ellipse>
                        <ellipse id="Oval" fill="#3056C4" fill-rule="nonzero" transform="translate(140.862452, 41.855116) rotate(-42.700000) translate(-140.862452, -41.855116) " cx="140.862452" cy="41.8551163" rx="4.40314238" ry="4.4006746"></ellipse>
                        <ellipse id="Oval" fill="#3056C4" fill-rule="nonzero" transform="translate(128.922749, 41.382044) rotate(-46.080000) translate(-128.922749, -41.382044) " cx="128.922749" cy="41.3820436" rx="4.40132875" ry="4.4024885"></ellipse>
                        <ellipse id="Oval" fill="#3056C4" fill-rule="nonzero" cx="138.942067" cy="65.2705983" rx="3.01596667" ry="2.99495726"></ellipse>
                        <ellipse id="Oval" fill="#3056C4" fill-rule="nonzero" cx="129.167567" cy="65.2705983" rx="3.01596667" ry="2.99495726"></ellipse>
                        <path d="M125.811367,40.0854701 L126.007433,61.9606838 L142.096433,62.6020513 L144.051333,40.8413675 C144.127868,40.0047962 143.855138,39.173714 143.296946,38.5425441 C142.738754,37.9113743 141.944069,37.5354882 141.0988,37.5028205 L129.029167,37.0217949 C128.188648,36.987507 127.370365,37.2948979 126.763144,37.8730341 C126.155923,38.4511702 125.812227,39.2501029 125.811367,40.0854701 L125.811367,40.0854701 Z" id="Path" fill="#3056C4" fill-rule="nonzero"></path>
                        <path d="M126.001667,62.275641 L126.1516,65.2705983 L126.1516,65.4137607 C126.21963,67.0152701 127.547623,68.2784328 129.1618,68.2770085 L138.930533,68.2770085 C140.543523,68.2754955 141.8698,67.0139649 141.940733,65.4137607 L141.940733,65.2820513 L142.090667,62.287094 L126.001667,62.275641 Z" id="Path" fill="#3056C4" fill-rule="nonzero"></path>
                        <circle id="Oval" fill="#3056C4" fill-rule="nonzero" transform="translate(130.315681, 111.756555) rotate(-45.000000) translate(-130.315681, -111.756555) " cx="130.315681" cy="111.756555" r="1.85615731"></circle>
                        <polygon id="Path" fill="#FFFFFF" fill-rule="nonzero" points="137.488867 37.3252991 132.8813 52.952906 130.522733 41.6717094 130.707267 37.0561538"></polygon>
                        <polygon id="Path" fill="#FFFFFF" fill-rule="nonzero" points="130.707267 37.0561538 130.522733 41.6717094 131.508833 46.3674359 132.8813 52.952906 134.7843 46.4991453 137.488867 37.3252991"></polygon>
                        <path d="M127.0685,83.8473504 L126.1516,65.2820513 L132.177767,65.2820513 L132.177767,83.8588034 L132.177767,83.8588034 L132.177767,111.769744 L128.4525,111.769744 L127.0858,84.1394017 C127.080026,84.0459568 127.080026,83.9522483 127.0858,83.8588034 L127.0685,83.8473504 Z" id="Path" fill="#3056C4" fill-rule="nonzero"></path>
                        <ellipse id="Oval" fill="#3056C4" fill-rule="nonzero" transform="translate(134.052695, 62.282841) rotate(-52.050000) translate(-134.052695, -62.282841) " cx="134.052695" cy="62.282841" rx="8.01544368" ry="8.0291052"></ellipse>
                        <polygon id="Path" fill="#283570" fill-rule="nonzero" points="131.508833 46.3674359 132.8813 52.952906 134.7843 46.4991453 133.700167 38.224359 133.256133 38.2071795"></polygon>
                        <path d="M126.578333,113.957265 L132.177767,113.957265 L132.177767,111.764017 L128.4525,111.764017 L126.313067,112.909316 C126.135253,113.008507 126.023424,113.193589 126.018967,113.396068 L126.018967,113.396068 C126.024978,113.70129 126.271048,113.948165 126.578333,113.957265 Z" id="Path" fill="#283570" fill-rule="nonzero"></path>
                        <polygon id="Rectangle" fill="#E8C3AE" fill-rule="nonzero" transform="translate(134.855500, 34.243620) rotate(-177.700000) translate(-134.855500, -34.243620) " points="132.097016 31.2751691 137.615654 31.2736276 137.613984 37.2120707 132.095346 37.2136123"></polygon>
                        <path d="M129.173333,26.3819658 L129.9749,26.4793162 L130.620767,21.1364957 L129.824967,21.0448718 C129.112159,20.9592689 128.394328,21.1586432 127.829676,21.5990546 C127.265024,22.039466 126.899897,22.6847652 126.814767,23.392735 L126.814767,23.392735 C126.726907,24.0999742 126.926305,24.8128409 127.368889,25.3737678 C127.811472,25.9346947 128.460794,26.2974907 129.173333,26.3819658 L129.173333,26.3819658 Z" id="Path" fill="#283570" fill-rule="nonzero"></path>
                        <path d="M137.374612,28.3008473 L139.38121,28.29918 L139.377717,32.474218 L135.341457,32.4775718 L135.343282,30.295556 C135.343692,29.7629805 135.558691,29.2523664 135.940318,28.8776198 C136.321944,28.5028732 136.838449,28.2951712 137.374612,28.3008473 L137.374612,28.3008473 Z" id="Path" fill="#283570" fill-rule="nonzero" transform="translate(137.361333, 30.388376) rotate(-173.100000) translate(-137.361333, -30.388376) "></path>
                        <path d="M127.975488,19.4097592 L130.155069,19.4079482 C131.355634,19.4069506 132.328075,20.3728073 132.327078,21.5652494 L132.325094,23.9362587 C132.327631,24.5716259 132.075149,25.1822276 131.623516,25.6329555 C131.171883,26.0836834 130.558334,26.337377 129.918628,26.3379012 L127.969691,26.3395206 L127.975488,19.4097592 L127.975488,19.4097592 Z" id="Path" fill="#283570" fill-rule="nonzero" transform="translate(130.148385, 22.873734) rotate(-173.100000) translate(-130.148385, -22.873734) "></path>
                        <path d="M129.588533,33.5916239 L136.67,34.4391453 L137.633033,26.5308547 C137.774681,25.3773244 137.448984,24.2151705 136.727618,23.3001442 C136.006252,22.3851179 134.94833,21.792203 133.786667,21.6518803 L133.786667,21.6518803 C131.447832,21.3742869 129.300243,22.9655758 128.9023,25.2710256 L127.847,31.2781197 C127.754687,31.8163358 127.888782,32.3685926 128.217962,32.8058853 C128.547143,33.243178 129.042577,33.5272068 129.588533,33.5916239 L129.588533,33.5916239 Z" id="Path" fill="#E8C3AE" fill-rule="nonzero"></path>
                        <path d="M128.239133,29.0047009 L128.879233,25.2710256 L128.239133,29.0047009 Z" id="Path"></path>
                        <path d="M135.380712,21.400554 L139.993582,21.3967212 L139.987305,28.8991901 L139.410697,28.8996692 C137.181531,28.9015214 135.375937,27.1081536 135.37779,24.8940701 L135.380712,21.400554 Z" id="Path" fill="#283570" fill-rule="nonzero" transform="translate(137.685685, 25.148196) rotate(-173.100000) translate(-137.685685, -25.148196) "></path>
                        <path d="M137.246667,29.6231624 L136.052967,29.48 L136.197133,28.2888889 C136.278237,27.6350492 136.876197,27.1692276 137.535,27.2466667 L137.535,27.2466667 C137.852393,27.2853065 138.141314,27.4476158 138.338157,27.697863 C138.535,27.9481102 138.62363,28.2657804 138.584533,28.5809402 L138.584533,28.5809402 C138.50343,29.2347799 137.90547,29.7006015 137.246667,29.6231624 L137.246667,29.6231624 Z" id="Path" fill="#E8C3AE" fill-rule="nonzero"></path>
                        <path d="M128.4006,23.9940171 L132.938967,24.5666667 C134.790728,24.7888368 136.473576,23.4791055 136.698833,21.6404274 C136.805247,21.0567784 136.577301,20.4626232 136.106792,20.0972367 C135.636282,19.7318502 135.000657,19.655376 134.455892,19.8986114 C133.911126,20.1418468 133.54689,20.6647546 133.509867,21.2567521 C133.505509,21.3008926 133.483551,21.3414679 133.448887,21.369436 C133.414224,21.3974041 133.369734,21.4104408 133.325333,21.405641 L128.786967,20.8329915 L128.4006,23.9940171 Z" id="Path" fill="#283570" fill-rule="nonzero"></path>
                        <path d="M130.2863,22.6139316 L132.546833,22.8888034 C133.427442,22.9931711 134.226517,22.3688762 134.331617,21.4944017 C134.436716,20.6199273 133.808042,19.8264189 132.927433,19.7220513 L130.672667,19.4700855 C130.104043,19.4015485 129.541792,19.6394617 129.197709,20.0942056 C128.853626,20.5489495 128.779985,21.1514376 129.004526,21.6747185 C129.229066,22.1979993 129.717676,22.5625742 130.2863,22.6311111 L130.2863,22.6139316 Z" id="Path" fill="#283570" fill-rule="nonzero"></path>
                        <path d="M127.575967,32.8700855 C127.501751,33.3000485 127.608464,33.7414176 127.871167,34.0910527 C128.13387,34.4406879 128.529546,34.6679542 128.965733,34.7197436 L132.131633,35.1034188 C133.891967,35.3121747 135.490721,34.0676876 135.706967,32.3203419 L136.156767,28.6152991 L134.94,28.4721368 L134.94,28.4721368 C134.841257,29.1927476 134.179573,29.7021079 133.4522,29.6174359 L128.216067,28.9875214 L127.575967,32.8700855 Z" id="Path" fill="#283570" fill-rule="nonzero"></path>
                        <path d="M128.7293,30.15 C128.649572,30.5890068 128.819909,31.0359221 129.172371,31.312491 C129.524833,31.5890598 130.002074,31.6502835 130.413743,31.4717425 C130.825412,31.2932016 131.104529,30.9039451 131.139767,30.4592308 L128.7293,30.15 Z" id="Path" fill="#FFFFFF" fill-rule="nonzero"></path>
                        <path d="M136.9122,65.9635043 C136.770124,65.0065584 137.435759,64.1162908 138.399318,63.9745295 C139.362876,63.8327683 140.259858,64.4931395 140.403293,65.4498856 C140.546728,66.4066316 139.882356,67.2978302 138.919,67.4409402 C138.45551,67.5097933 137.983476,67.392729 137.607006,67.1155661 C137.230536,66.8384033 136.980556,66.4239102 136.9122,65.9635043 Z" id="Path" fill="#E8C3AE" fill-rule="nonzero"></path>
                        <path d="M140.343367,65.0186325 C140.421437,65.5433726 140.810154,65.969732 141.328237,66.098876 C141.846321,66.22802 142.391729,66.0345122 142.710108,65.6085958 C143.028487,65.1826794 143.057128,64.6082438 142.782675,64.1531794 C142.508221,63.698115 141.98473,63.4520523 141.456333,63.5297436 C141.109255,63.5792286 140.796459,63.7643332 140.587466,64.043918 C140.378472,64.3235028 140.290595,64.6744036 140.343367,65.0186325 Z" id="Path" fill="#E8C3AE" fill-rule="nonzero"></path>
                        <polygon id="Path" fill="#E8C3AE" fill-rule="nonzero" points="139.397633 67.3035043 142.206 66.0264957 141.4621 63.5297436 138.405767 63.9706838"></polygon>
                        <polygon id="Path" fill="#3056C4" fill-rule="nonzero" points="142.632733 65.717265 140.522133 64.1424786 149.564267 49.4082051 154.356367 52.987265 144.1263 64.0909402 143.232467 65.0587179"></polygon>
                        <polygon id="Path" fill="#FFFFFF" fill-rule="nonzero" points="142.632733 65.717265 140.522133 64.1424786 141.831167 62.0064957 144.1263 64.0909402 143.232467 65.0587179"></polygon>
                        <polygon id="Path" fill="#E8C3AE" fill-rule="nonzero" points="142.626967 65.717265 140.522133 64.1424786 141.127633 63.1517949 143.232467 65.0587179"></polygon>
                        <polygon id="Path" fill="#3056C4" fill-rule="nonzero" points="128.654333 36.9931624 112.369267 37.9494872 112.213567 43.9050427 128.412133 45.7260684"></polygon>
                        <path d="M120.038933,26.3876923 C119.916489,26.9071876 119.490537,27.3020102 118.960213,27.3875761 C118.42989,27.473142 117.899971,27.2325459 117.6182,26.7782693 C117.33643,26.3239928 117.358476,25.7457867 117.674032,25.3139691 C117.989588,24.8821516 118.536311,24.6820363 119.0586,24.8071795 C119.399831,24.8873833 119.694929,25.0990651 119.878829,25.3955528 C120.062729,25.6920406 120.120331,26.0489871 120.038933,26.3876923 L120.038933,26.3876923 Z" id="Path" fill="#E8C3AE" fill-rule="nonzero"></path>
                        <path d="M123.3663,27.6303419 C123.590995,26.689166 123.005242,25.7452013 122.057631,25.5213709 C121.11002,25.2975405 120.158998,25.8785112 119.932893,26.819354 C119.706787,27.7601968 120.291126,28.705026 121.2384,28.9302564 C121.6943,29.0402311 122.175551,28.9647739 122.575151,28.720662 C122.974751,28.4765501 123.259577,28.084018 123.3663,27.6303419 L123.3663,27.6303419 Z" id="Path" fill="#E8C3AE" fill-rule="nonzero"></path>
                        <polygon id="Path" fill="#E8C3AE" fill-rule="nonzero" points="120.777067 28.7470085 118.0898 27.2294872 119.0586 24.8071795 122.057267 25.517265"></polygon>
                        <rect id="Rectangle" fill="#283570" fill-rule="nonzero" x="131.958633" y="104.319573" width="1" height="4.08299145"></rect>
                        <rect id="Rectangle" fill="#283570" fill-rule="nonzero" x="131.958633" y="86.9911966" width="1" height="15.8223077"></rect>
                        <path d="M142.869167,68.7179487 L146.0639,82.0263248 L142.869167,68.7179487 Z" id="Path" fill="#FFFFFF" fill-rule="nonzero"></path>
                        <polygon id="Rectangle" fill="#283570" fill-rule="nonzero" transform="translate(144.472823, 75.372306) rotate(-13.390000) translate(-144.472823, -75.372306) " points="144.24008 68.5290849 144.683947 68.5297817 144.705567 82.2155266 144.2617 82.2148298"></polygon>
                        <path d="M146.265733,82.8623932 L146.623267,84.3684615 L146.265733,82.8623932 Z" id="Path" fill="#FFFFFF" fill-rule="nonzero"></path>
                        <polygon id="Rectangle" fill="#283570" fill-rule="nonzero" transform="translate(146.454074, 83.601235) rotate(-13.390000) translate(-146.454074, -83.601235) " points="146.230919 82.827519 146.674786 82.8282158 146.67723 84.3749513 146.233362 84.3742545"></polygon>
                        <path d="M152.107367,107.211453 L152.4995,108.837778 L152.107367,107.211453 Z" id="Path" fill="#FFFFFF" fill-rule="nonzero"></path>
                        <polygon id="Rectangle" fill="#283570" fill-rule="nonzero" transform="translate(152.309359, 108.006757) rotate(-13.390000) translate(-152.309359, -108.006757) " points="152.086104 107.170025 152.529972 107.170722 152.532614 108.843488 152.088747 108.842791"></polygon>
                        <path d="M151.052067,102.807778 L151.905533,106.358205 L151.052067,102.807778 Z" id="Path" fill="#FFFFFF" fill-rule="nonzero"></path>
                        <polygon id="Rectangle" fill="#283570" fill-rule="nonzero" transform="translate(151.478386, 104.603065) rotate(-13.380000) translate(-151.478386, -104.603065) " points="151.253568 102.775279 151.697435 102.775975 151.703205 106.430852 151.259337 106.430155"></polygon>
                        <path d="M145.360367,50.0839316 L141.537067,47.558547 L145.360367,50.0839316 Z" id="Path" fill="#FFFFFF" fill-rule="nonzero"></path>
                        <polygon id="Rectangle" fill="#283570" fill-rule="nonzero" transform="translate(143.444415, 48.819805) rotate(-56.390000) translate(-143.444415, -48.819805) " points="143.216091 46.5259804 143.657979 46.5274063 143.672738 51.1136298 143.23085 51.1122038"></polygon>
                        <path d="M147.436367,51.4582906 L146.334933,50.7252991 L147.436367,51.4582906 Z" id="Path" fill="#FFFFFF" fill-rule="nonzero"></path>
                        <polygon id="Rectangle" fill="#283570" fill-rule="nonzero" transform="translate(146.882057, 51.088150) rotate(-56.390000) translate(-146.882057, -51.088150) " points="146.658983 50.4256855 147.100871 50.4271114 147.105131 51.7506138 146.663243 51.7491879"></polygon>
                        <path d="M122.547433,45.0675214 L113.724433,44.0940171 L122.547433,45.0675214 Z" id="Path" fill="#FFFFFF" fill-rule="nonzero"></path>
                        <polygon id="Rectangle" fill="#283570" fill-rule="nonzero" transform="translate(118.140581, 44.568168) rotate(-83.520000) translate(-118.140581, -44.568168) " points="117.916625 40.1309387 118.357605 40.1312855 118.364537 49.0053981 117.923558 49.0050513"></polygon>
                        <path d="M125.263533,45.3767521 L123.683467,45.1935043 L125.263533,45.3767521 Z" id="Path" fill="#FFFFFF" fill-rule="nonzero"></path>
                        <polygon id="Rectangle" fill="#283570" fill-rule="nonzero" transform="translate(124.476612, 45.284391) rotate(-83.520000) translate(-124.476612, -45.284391) " points="124.255501 44.4884887 124.696481 44.4888355 124.697724 46.0802943 124.256744 46.0799474"></polygon>
                        <path d="M143.342033,48.6752137 L142.765367,55.3351282 L143.342033,48.6752137 Z" id="Path" fill="#FFFFFF" fill-rule="nonzero"></path>
                        <polygon id="Rectangle" fill="#283570" fill-rule="nonzero" transform="translate(143.052115, 52.035608) rotate(-84.890000) translate(-143.052115, -52.035608) " points="139.707518 51.8115226 146.396437 51.815685 146.396712 52.2596938 139.707793 52.2555314"></polygon>
                        <path d="M142.592367,56.927094 L142.523167,57.7345299 L142.592367,56.927094 Z" id="Path" fill="#FFFFFF" fill-rule="nonzero"></path>
                        <polygon id="Rectangle" fill="#283570" fill-rule="nonzero" transform="translate(142.554990, 57.330562) rotate(-84.890000) translate(-142.554990, -57.330562) " points="142.151113 57.1083067 142.958593 57.1088092 142.958868 57.552818 142.151387 57.5523155"></polygon>
                        <path d="M61.9397667,59.6586325 C63.7908667,59.6586325 63.7966333,56.7953846 61.9397667,56.7953846 C60.0829,56.7953846 60.0771333,59.6586325 61.9397667,59.6586325 Z" id="Path" fill="#3056C4" fill-rule="nonzero"></path>
                    </g>
                </g>
            </g>
        </g>
    </g>
</svg>