<?xml version="1.0" encoding="UTF-8"?>
<svg width="34px" height="17px" viewBox="0 0 34 17" version="1.1" xmlns="http://www.w3.org/2000/svg" xmlns:xlink="http://www.w3.org/1999/xlink">
    <!-- Generator: sketchtool 54.1 (76490) - https://sketchapp.com -->
    <title>6409D9A9-82A7-4397-AE62-97C080EE7EFE</title>
    <desc>Created with sketchtool.</desc>
    <g id="Web" stroke="none" stroke-width="1" fill="none" fill-rule="evenodd">
        <g id="Home-Web-Nueva-Menu" transform="translate(-1003.000000, -163.000000)">
            <g id="Group-8" transform="translate(1004.000000, 163.000000)">
                <g id="Group-11" transform="translate(0.000000, 1.125000)">
                    <path d="M5.50980392,12.375 C5.50980392,14.2371718 6.99318324,15.75 8.81631235,15.75 C10.6386067,15.75 12.1215686,14.2371718 12.1215686,12.375 C12.1215686,10.5128282 10.6386067,9 8.81631235,9 C6.99193109,9 5.50980392,10.5128282 5.50980392,12.375 Z M9.91764706,12.375 C9.91764706,12.9954013 9.42344924,13.5 8.81599348,13.5 C8.20833292,13.5 7.71372549,12.9954013 7.71372549,12.375 C7.71372549,11.7545987 8.20833292,11.25 8.81599348,11.25 C9.42344924,11.25 9.91764706,11.7545987 9.91764706,12.375 Z" id="Fill-1" fill="#00AAFF"></path>
                    <path d="M22.0392157,12.375 C22.0392157,14.2371718 23.522595,15.75 25.3457241,15.75 C27.1676011,15.75 28.6509804,14.2371718 28.6509804,12.375 C28.6509804,10.5128282 27.1676011,9 25.3457241,9 C23.5213429,9 22.0392157,10.5128282 22.0392157,12.375 Z M26.4470588,12.375 C26.4470588,12.9954013 25.952861,13.5 25.3454052,13.5 C24.7375399,13.5 24.2431373,12.9954013 24.2431373,12.375 C24.2431373,11.7545987 24.7375399,11.25 25.3454052,11.25 C25.952861,11.25 26.4470588,11.7545987 26.4470588,12.375 Z" id="Fill-3" fill="#00AAFF"></path>
                    <path d="M28.6509804,12.5635387 L29.814916,12.5635387 C30.5061734,12.5639325 31.0947122,12.0430012 31.201996,11.33622 L31.7570563,7.66962 C31.8525464,7.03922625 31.4264549,6.452145 30.8150897,6.37063875 L24.5367075,5.538645 L18.3720765,0.28405125 C18.2370207,0.16907625 18.0681058,0.10607625 17.893104,0.10607625 L7.93435641,0.10607625 C7.68402765,0.10607625 7.44967732,0.23522625 7.30967583,0.45021375 L4.3357854,5.01377625 L1.00618465,6.036345 C0.400526013,6.222195 0.0212284874,6.84313875 0.117859953,7.48888875 L0.625745808,10.8802575 C0.770693007,11.8488825 1.57608204,12.5627512 2.52299431,12.5627512 L5.50980392,12.5627513" id="Stroke-5" stroke="#00AAFF" stroke-width="1.54000003" stroke-linecap="round"></path>
                    <path d="M12.1254609,12.563145 L21.8848585,12.5635387" id="Stroke-7" stroke="#00AAFF" stroke-width="1.54000003" stroke-linecap="round"></path>
                    <path d="M8.70242438,5.87671875 L19.3543315,5.87671875" id="Stroke-9" stroke="#00AAFF" stroke-width="1.54000003" stroke-linecap="round"></path>
                </g>
            </g>
        </g>
    </g>
</svg>