<?xml version="1.0" encoding="UTF-8"?>
<svg width="170px" height="128px" viewBox="0 0 170 128" version="1.1" xmlns="http://www.w3.org/2000/svg" xmlns:xlink="http://www.w3.org/1999/xlink">
    <!-- Generator: sketchtool 53.2 (72643) - https://sketchapp.com -->
    <title>098A999E-7520-4E44-813E-6F8B5731E9C8</title>
    <desc>Created with sketchtool.</desc>
    <g id="Web" stroke="none" stroke-width="1" fill="none" fill-rule="evenodd">
        <g id="Tu-carro-GPS-Manual" transform="translate(-883.000000, -174.000000)">
            <g id="Group-4" transform="translate(864.000000, 174.000000)">
                <g id="Recurso-56" transform="translate(19.000000, 0.000000)">
                    <ellipse id="Oval" fill="#0055C7" fill-rule="nonzero" opacity="0.2" cx="84.9824875" cy="63.5964889" rx="63.8084283" ry="63.5964889"></ellipse>
                    <path d="M51.5818333,22.8689381 C49.9607127,21.257885 47.7619342,20.3527954 45.4692444,20.3527954 C43.1765546,20.3527954 40.9777761,21.257885 39.3566554,22.8689381 L29.4257354,32.7389126 C27.804503,34.3498547 26.8936948,36.5348276 26.8936948,38.8131222 C26.8936948,41.0914169 27.804503,43.2763898 29.4257354,44.8873319 L39.3566554,54.7573064 C40.9777761,56.3683595 43.1765546,57.273449 45.4692444,57.273449 C47.7619342,57.273449 49.9607127,56.3683595 51.5818333,54.7573064 L61.5141704,44.8873319 C63.1354028,43.2763898 64.0462111,41.0914169 64.0462111,38.8131222 C64.0462111,36.5348276 63.1354028,34.3498547 61.5141704,32.7389126 L51.5818333,22.8689381 Z" id="Path" fill="#FFB18F" fill-rule="nonzero"></path>
                    <path d="M58.4957829,68.8476139 C57.0745906,70.2574646 54.7729627,70.2574646 53.3517704,68.8476139 L34.4152858,50.0286184 C33.7333039,49.3509662 33.3501663,48.4318439 33.3501663,47.4734652 C33.3501663,46.5150864 33.7333039,45.5959641 34.4152858,44.9183119 L34.4152858,44.9183119 C35.836155,43.5076853 38.1384292,43.5076853 39.5592983,44.9183119 L58.4957829,63.7358993 C59.9153225,65.1478472 59.9153225,67.435666 58.4957829,68.8476139 Z" id="Path" fill="#FFB18F" fill-rule="nonzero"></path>
                    <path d="M71.0582267,68.5195066 C70.3762928,69.1972066 69.4513631,69.5779385 68.486929,69.5779385 C67.5224948,69.5779385 66.5975651,69.1972066 65.9156313,68.5195066 L46.9791467,49.7089602 C45.560388,48.2966912 45.560388,46.0095146 46.9791467,44.5972456 L46.9791467,44.5972456 C48.4000158,43.1866189 50.70229,43.1866189 52.1231592,44.5972456 L71.0582267,63.407792 C71.7406422,64.0855014 72.124055,65.0049255 72.124055,65.9636493 C72.124055,66.9223732 71.7406422,67.8417973 71.0582267,68.5195066 L71.0582267,68.5195066 Z" id="Path" fill="#FFB18F" fill-rule="nonzero"></path>
                    <path d="M83.6220875,68.1899912 C82.9403381,68.8680364 82.0153393,69.2490068 81.0507898,69.2490068 C80.0862403,69.2490068 79.1612415,68.8680364 78.4794921,68.1899912 L59.5430075,49.3738119 C58.8610255,48.6961598 58.477888,47.7770375 58.477888,46.8186587 C58.477888,45.86028 58.8610255,44.9411577 59.5430075,44.2635055 L59.5430075,44.2635055 C60.2243869,43.5847684 61.1495244,43.20332 62.1143052,43.20332 C63.079086,43.20332 64.0042235,43.5847684 64.6856029,44.2635055 L83.6220875,63.0867257 C84.3040695,63.7643779 84.687207,64.6835002 84.687207,65.6418789 C84.687207,66.6002576 84.3040695,67.5193799 83.6220875,68.1970321 L83.6220875,68.1899912 Z" id="Path" fill="#FFB18F" fill-rule="nonzero"></path>
                    <path d="M7.2630284e-10,36.2241726 C7.26301611e-10,37.4327348 0.483132932,38.5917974 1.34311506,39.4463799 C2.2030972,40.3009625 3.36948327,40.7810619 4.58568167,40.7810619 L44.0188596,40.7810619 C47.5615679,40.7810619 50.4283275,38.4195343 50.4283275,35.507406 L50.4283275,26.9385951 C50.4283275,24.0264668 47.5601508,21.6649392 44.0188596,21.6649392 L4.58568167,21.6649392 C3.36923771,21.6649391 2.20263683,22.1452319 1.34261395,23.000119 C0.482591068,23.8550061 -0.000375909027,25.0144306 7.26303349e-10,26.2232367 L7.2630284e-10,36.2241726 Z" id="Path" fill="#FFB18F" fill-rule="nonzero"></path>
                    <path d="M0,38.7476416 C0,39.8741903 1.10674208,40.7810619 2.47139333,40.7810619 L13.3276687,40.7810619 C15.2350629,40.7810619 16.7811008,39.7277389 16.7811008,38.4279834 L16.7811008,34.6019425 C16.7811008,33.3021869 15.2350629,32.2488639 13.3276687,32.2488639 L2.47139333,32.2488639 C1.10674208,32.2474558 0,33.1599602 0,34.2836925 L0,38.7476416 Z" id="Path" fill="#DD9980" fill-rule="nonzero"></path>
                    <path d="M25.932625,39.2151593 C25.9322491,41.0700757 26.6735041,42.8491473 27.9932826,44.1609033 C29.313061,45.4726594 31.1032243,46.2096184 32.9698608,46.2096184 L44.0160254,46.2096184 C45.7157917,46.2099919 47.3460686,45.5392638 48.5481177,44.3450261 C49.7501669,43.1507884 50.4254934,41.5308959 50.4254933,39.841802 L50.4254933,29.4916361 C50.4258693,27.8022982 49.7507088,26.1820439 48.5486189,24.9875016 C47.3465289,23.7929593 45.7160372,23.1220379 44.0160254,23.1224115 L30.30291,23.1224115 C29.1445899,23.1216643 28.033413,23.5781996 27.2138255,24.3915848 C26.394238,25.2049699 25.9333764,26.3085766 25.932625,27.4596239 L25.932625,39.2151593 Z" id="Path" fill="#DD9980" fill-rule="nonzero"></path>
                    <path d="M54.0022117,62.4628993 C54.8156175,53.7828418 55.6299681,45.1037231 56.4452633,36.4255431 C73.6132279,24.361615 86.9649871,52.912583 104.134369,40.8472467 L101.6899,66.8888274 C84.5219354,78.9471228 71.1687592,50.3975631 54.0022117,62.4628993 Z" id="Path" fill="#BAD63B" fill-rule="nonzero"></path>
                    <path d="M78.9457125,48.313448 C78.1515372,47.8638492 77.2492081,47.6374927 76.335445,47.6586416 C76.2419175,46.9615896 76.1455558,46.2659458 76.0520283,45.5717102 C76.6670425,45.5336892 77.6887596,45.7561825 78.7175621,46.2603131 C78.7657429,45.7589989 78.8125067,45.2590929 78.8592704,44.7577788 L80.3727154,45.5759347 C80.3217004,46.1194945 80.2702131,46.6625848 80.2182533,47.2052058 C81.9527633,48.457083 82.7888425,50.1314159 82.6584708,51.5396018 C82.5167625,52.9773595 81.7217787,53.4941637 79.8370579,53.1787301 C78.4766579,52.9590531 77.9084075,53.0196051 77.8616437,53.5279602 C77.8177142,53.9701305 78.0968796,54.6009978 79.0916721,55.140333 C80.1913287,55.7345874 80.9466342,55.7472611 81.3476687,55.7613429 C81.4454475,56.4358639 81.5403921,57.1132013 81.6381708,57.7891305 C81.0713375,57.762375 80.3627958,57.6370465 79.3566667,57.1272832 L79.2248779,58.519979 L77.7241867,57.7102721 C77.7709504,57.208958 77.8191312,56.7076438 77.865895,56.2049215 C76.2575054,55.0065553 75.4115067,53.4322035 75.5432954,52.0254259 C75.6850037,50.4876869 76.8810221,50.2623772 78.5701854,50.5834436 C79.7520329,50.8073451 80.280605,50.6904657 80.3387054,50.0891704 C80.3968058,49.487875 79.8299725,48.7894148 78.9457125,48.313448 Z" id="Path" fill="#FF3D0C" fill-rule="nonzero"></path>
                    <path d="M92.6545767,54.5221394 C93.9299517,54.6502843 94.8992367,55.6036261 94.7802017,56.8808507 C94.6611667,58.1580752 93.5048267,59.2747666 92.2209492,59.1508462 C90.9370717,59.0269259 90.0032138,57.7356195 90.1265,56.4598031 C90.2497862,55.1839867 91.3706992,54.4024436 92.6545767,54.5221394 Z" id="Path" fill="#FF3D0C" fill-rule="nonzero"></path>
                    <path d="M65.9085458,44.1592998 C67.1938404,44.2789956 68.1248642,45.5787511 68.0058292,46.8517511 C67.8867942,48.1247511 66.7602129,48.9077024 65.4749183,48.7851903 C64.1896237,48.6626781 63.2288412,47.7093363 63.3492933,46.4321117 C63.4697454,45.1548872 64.6275025,44.0325631 65.9085458,44.1592998 Z" id="Path" fill="#FF3D0C" fill-rule="nonzero"></path>
                    <path d="M58.2180346,40.1135819 C58.0713482,40.2757853 57.968899,40.47261 57.9204471,40.6853053 C57.448086,45.7050184 56.9757249,50.7275479 56.5033637,55.7528938 C56.4863587,55.9246925 56.5472933,56.0429801 56.6748308,56.0824093 C56.8464694,56.114038 57.0236102,56.0732198 57.1637246,55.9697544 C58.5893104,55.0896383 59.8561829,55.8500586 59.7229771,57.2371217 C59.7003037,57.3990631 59.7229771,57.6285973 59.8349267,57.7159049 C59.9468762,57.8032124 60.0758308,57.9200918 60.2402125,57.8862954 C72.64536,55.2741106 83.3882688,70.3811283 95.7948333,67.7773927 C95.9755059,67.7348741 96.1378295,67.636217 96.2582196,67.4957555 C96.376784,67.361461 96.4479425,67.1923462 96.4608625,67.014156 C96.2610538,67.0240133 96.0626621,67.0282378 95.8671046,67.0282378 C96.0640792,66.976135 96.2596367,66.9183993 96.4566112,66.8564392 C96.5841487,65.476417 98.0394933,64.0682312 99.4480742,63.573958 C99.6507852,63.4961338 99.8275098,63.3634469 99.9582242,63.1909314 C100.096359,63.0346535 100.185944,62.8419346 100.216133,62.6361062 C100.688494,57.6145155 101.160856,52.591986 101.633217,47.5685177 C101.667747,47.4326348 101.59648,47.2921976 101.466001,47.2390022 C101.298703,47.2055567 101.124957,47.2433568 100.987027,47.343208 C100.869516,47.4178639 100.747407,47.4851195 100.621419,47.5445785 C99.2723558,48.1515066 98.2931513,47.3516571 98.407935,46.0800653 C98.4376938,45.9153075 98.407935,45.6928142 98.3044879,45.6012821 C98.2033012,45.4838326 98.0513948,45.421984 97.8963679,45.4351162 C85.4940546,48.0388518 74.7525629,32.9332423 62.3488325,35.5397942 C62.1704365,35.5839412 62.0103966,35.6824148 61.8911146,35.8214314 C61.7709512,35.9516501 61.6985492,36.1183696 61.6856375,36.2945819 C61.6856375,36.2945819 61.6856375,36.4607478 61.6856375,36.4635642 C61.5581,37.8182389 60.146685,39.2376903 58.7777825,39.7192898 C58.5607766,39.801807 58.3682455,39.9374278 58.2180346,40.1135819 Z M88.9687429,56.1584513 C89.1501296,54.2264204 90.8350417,53.1674646 92.7679433,53.3505288 C94.700845,53.5335929 96.1689433,54.8333485 95.9847225,56.7583385 C95.8005017,58.6833285 94.0461525,60.5196029 92.116085,60.3224569 C90.1860175,60.1253108 88.783105,58.0693595 88.9630746,56.1584513 L88.9687429,56.1584513 Z M70.9306892,47.7375 C71.3714021,43.0552821 75.3930846,40.7613473 79.8469775,43.2791836 C84.3008704,45.7970199 87.6295992,51.0044912 87.2002229,55.5825033 C86.7637612,60.2562721 82.7378275,62.5558396 78.2725979,60.0337788 C73.8073683,57.5117179 70.5013129,52.3056549 70.9306892,47.7375 Z M62.1447725,46.5588485 C62.3261592,44.6408993 64.0847596,42.7947677 66.0162442,42.9919137 C67.9477287,43.1890597 69.3435558,45.2450111 69.1650033,47.1573274 C68.9864508,49.0696438 67.2972875,50.146906 65.3601346,49.9624336 C63.4229817,49.7779613 61.9690542,48.4782058 62.1490237,46.5546239 L62.1447725,46.5588485 Z" id="Shape" fill="#99B400" fill-rule="nonzero"></path>
                    <g id="Group" transform="translate(50.731583, 30.135177)">
                        <path d="M0.05526625,30.1041969 C0.0713265278,21.3875265 0.0869144444,12.671795 0.10203,3.95700221 C16.0895642,-9.61368473 32.0076612,17.6079558 47.9994467,4.03726881 C47.9824417,12.7548779 47.9668537,21.4715483 47.9526829,30.1872799 C31.9623146,43.7565586 16.0456346,16.53351 0.05526625,30.1041969 Z" id="Path" fill="#D1DCDB" fill-rule="nonzero" style="mix-blend-mode: multiply;"></path>
                        <path d="M3.27062833,32.3277223 C4.08403417,23.6476648 4.89838472,14.9685461 5.71368,6.29036615 C22.8816446,-5.77356195 36.2334038,22.777406 53.4027854,10.7120697 L50.9583167,36.7536504 C33.7903521,48.8119458 20.4371758,20.2623861 3.27062833,32.3277223 Z" id="Path"></path>
                    </g>
                    <path d="M50.1803379,61.4039436 C49.0759576,52.7558049 47.9701603,44.1090745 46.8629458,35.4637522 C60.9756787,19.973708 80.2650171,44.9549248 94.3763329,29.4634723 C95.4826026,38.1125498 96.5884,46.7592802 97.693725,55.4036637 C83.5838262,70.893708 64.2944879,45.9138993 50.1803379,61.4039436 Z" id="Path" fill="#BAD63B" fill-rule="nonzero"></path>
                    <path d="M71.4280854,42.1991051 C70.5539231,41.932622 69.6233794,41.9068277 68.7356271,42.1244712 C68.4933058,41.4640321 68.2467333,40.8078175 68.002995,40.1530111 C68.5939188,39.9840288 69.6411433,39.9812124 70.7549708,40.2501759 C70.6926192,39.7507393 70.6293228,39.2517721 70.5650817,38.7532743 C71.1177442,38.9081748 71.6675725,39.0658916 72.2216521,39.2222002 C72.2906168,39.7629436 72.3595815,40.3046257 72.4285463,40.8472467 C74.3926238,41.6921582 75.5773054,43.1524469 75.757275,44.5564082 C75.9414958,45.987125 75.2712154,46.6686869 73.3638213,46.7658518 C71.9878333,46.8475265 71.4465075,47.0263662 71.5116933,47.5304967 C71.5669596,47.9740752 71.9779138,48.5317168 73.070485,48.8401095 C74.2735888,49.1822987 75.0133063,49.033031 75.4072554,48.9583971 C75.6509938,49.5977135 75.8937874,50.2365605 76.1356363,50.8749381 C75.5843908,50.9692865 74.8602613,51.003083 73.7634388,50.722854 L73.9419913,52.1085088 L72.2995917,51.6466239 C72.2344058,51.1453097 72.1720542,50.6468119 72.1068683,50.146906 C70.2745796,49.3245254 69.1040688,47.9698507 68.9255163,46.5672976 C68.7285417,45.032375 69.8409521,44.555 71.5627083,44.4986726 C72.7658121,44.4620597 73.2561229,44.2339336 73.1810175,43.6340465 C73.1059121,43.0341593 72.3959533,42.4737013 71.4280854,42.1991051 Z" id="Path" fill="#FF3D0C" fill-rule="nonzero"></path>
                    <path d="M86.1685862,45.2957058 C87.4439612,45.1408053 88.5946329,45.8589801 88.7604317,47.1376128 C88.9262304,48.4162456 88.0377192,49.7512058 86.7566758,49.904698 C85.4756325,50.0581903 84.2838654,49.0048673 84.1209008,47.7375 C83.9579362,46.4701327 84.8832917,45.4534226 86.1685862,45.2957058 Z" id="Path" fill="#99B400" fill-rule="nonzero"></path>
                    <path d="M57.7943267,40.9641261 C59.0697017,40.8050011 60.2699712,41.8709978 60.4301017,43.138365 C60.5902321,44.4057323 59.6662937,45.4154015 58.3852504,45.5759347 C57.1042071,45.7364679 55.9549525,45.0126604 55.793405,43.7452931 C55.6318575,42.4779259 56.5147004,41.1190265 57.7943267,40.9641261 Z" id="Path" fill="#FF3D0C" fill-rule="nonzero"></path>
                    <path d="M49.4023592,38.6800487 C49.294628,38.8695838 49.2375478,39.0833815 49.2365604,39.3010586 C49.8751926,44.3029347 50.5152419,49.3052802 51.1567083,54.3080951 C51.1779646,54.4770774 51.2644067,54.5826914 51.3961954,54.5897323 C51.5705771,54.5839298 51.7345346,54.5057857 51.848245,54.3742799 C53.0485146,53.208302 54.4485929,53.6701869 54.6243113,55.05725 C54.6384821,55.2220077 54.7164217,55.4388684 54.8368738,55.5008285 C54.9573258,55.5627887 55.1202904,55.6486881 55.2719183,55.5796869 C66.8055596,50.3539093 80.5980317,62.7741084 92.1316729,57.5511471 C92.299093,57.4690095 92.4356564,57.3357708 92.5213708,57.1709369 C92.6080521,57.0148288 92.6399613,56.8344846 92.6120642,56.6583573 C92.4207579,56.7104602 92.2294517,56.7569303 92.0367283,56.7991759 C92.2166979,56.7062356 92.3966675,56.6076626 92.57522,56.504865 C92.3980846,55.1290675 93.5090779,53.4420608 94.7745333,52.6534768 C94.9560775,52.5343001 95.1004027,52.3669779 95.1911558,52.170469 C95.2898662,51.9864676 95.33455,51.7786021 95.3201104,51.5705819 C94.6795888,46.5687058 94.0395394,41.5668296 93.3999625,36.5649535 C93.3815404,36.3945631 93.2936813,36.2917655 93.1647267,36.2833164 C92.9935672,36.2855732 92.8313777,36.3597631 92.7183454,36.4875033 C92.6211927,36.5880103 92.517524,36.6820905 92.4080042,36.7691405 C91.2233225,37.6534812 90.0896558,37.0859823 89.9266913,35.818615 C89.9196058,35.6524491 89.8430833,35.4398131 89.7197971,35.3736283 C89.5953076,35.2805688 89.4331374,35.2532727 89.2847525,35.3004027 C77.7511113,40.5233639 63.9572221,28.1031648 52.4235808,33.3289425 C52.2582576,33.4098576 52.1232273,33.5410802 52.0381342,33.7035199 C51.9496823,33.8564473 51.9162008,34.0347219 51.9431896,34.2090586 C51.9431896,34.2090586 51.9771996,34.371 51.9771996,34.3752246 C52.1515008,35.7256748 51.0816029,37.4140896 49.8515746,38.1773263 C49.6615014,38.3044971 49.5069537,38.4774533 49.4023592,38.6800487 L49.4023592,38.6800487 Z M82.9234654,47.6924381 C82.67831,45.767448 84.0911421,44.3677113 86.0183754,44.1283197 C87.9456088,43.8889281 89.6560283,44.8408617 89.9026008,46.7574027 C90.1491733,48.6739436 88.8355371,50.8495907 86.9068867,51.0734923 C84.9782363,51.2973938 83.1672037,49.5948971 82.9234654,47.6910299 L82.9234654,47.6924381 Z M63.4853333,43.3721239 C62.8873242,38.7096206 66.3109975,35.6003462 71.2126887,37.0930232 C76.11438,38.5857002 80.5002529,42.94826 81.0826742,47.5135985 C81.6778492,52.170469 78.2555929,55.2839679 73.3468162,53.7870664 C68.4380396,52.2901648 64.0606692,47.9233805 63.4853333,43.3721239 Z M54.6554871,44.1240951 C54.4103317,42.2117788 55.725385,40.0290907 57.6512012,39.803781 C59.5770175,39.5784712 61.3937183,41.2837843 61.6360396,43.183427 C61.8783608,45.0830697 60.4711971,46.5039292 58.5397125,46.744729 C56.6082279,46.9855288 54.8949742,46.0321869 54.6498187,44.1170542 L54.6554871,44.1240951 Z" id="Shape" fill="#99B400" fill-rule="nonzero"></path>
                    <g id="Group" transform="translate(40.812000, 24.079978)">
                        <path d="M5.74627292,35.8495951 C3.85116014,27.3394587 1.95604736,18.8293223 0.0609345833,10.3191858 C12.6956496,-6.38189823 34.1942208,16.7419215 46.8246846,0.0394292035 C48.7197974,8.55050442 50.6139654,17.0611103 52.5071888,25.5712467 C39.8781421,42.2737389 18.3781537,19.1513274 5.74627292,35.8495951 Z" id="Path" fill="#D1DCDB" fill-rule="nonzero" style="mix-blend-mode: multiply;"></path>
                        <path d="M9.36833792,37.3239657 C8.26395764,28.6758271 7.15816028,20.0290966 6.05094583,11.3837743 C20.1636787,-4.10626991 39.4530171,20.8749469 53.5643329,5.38349447 C54.6706026,14.0325719 55.7764,22.6793024 56.881725,31.3236858 C42.7718263,46.8137301 23.4824879,21.8339215 9.36833792,37.3239657 Z" id="Path"></path>
                    </g>
                    <path d="M44.230005,60.0844735 L36.1951425,35.1849314 C47.2214679,17.3953197 70.7719758,38.4448816 81.8039696,20.6524535 C84.4822571,28.9513621 87.1605446,37.2512094 89.8388321,45.5519956 C78.8139238,63.3430155 55.2549133,42.2920454 44.230005,60.0844735 Z" id="Path" fill="#BAD63B" fill-rule="nonzero"></path>
                    <path d="M61.5836075,37.3436803 C60.6765435,37.2399999 59.7581735,37.3830962 58.9265763,37.7576869 L57.8410904,35.9495763 C58.3909187,35.6749801 59.4197212,35.4820586 60.5661417,35.5440188 C60.4102625,35.0642968 60.2553281,34.5850442 60.1013383,34.1062611 L61.8160092,34.2682024 C61.9846421,34.787823 62.1518579,35.3088518 62.3204908,35.8270642 C64.4078546,36.303031 65.8405258,37.5168872 66.2755704,38.8687456 C66.7191175,40.243135 66.1862942,41.0289027 64.3270808,41.4752976 C62.9907713,41.8048131 62.4919579,42.0808175 62.6478371,42.5666416 C62.7895454,42.9890973 63.2911929,43.4622478 64.4191912,43.5692699 C65.6633904,43.6875575 66.3634296,43.4059204 66.7375396,43.2608772 C67.0946446,43.8457437 67.4508049,44.4301409 67.8060204,45.0140686 C67.2802825,45.2083982 66.5774092,45.3689314 65.4465767,45.2957058 C65.588285,45.7378761 65.7299933,46.1828628 65.8717017,46.6250332 L64.1712017,46.4673164 L63.7063983,45.0295586 C61.7536575,44.5521836 60.3521621,43.4354923 59.9185346,42.0892666 C59.4438117,40.6191206 60.4513579,39.9474159 62.1320188,39.5798794 C63.3081979,39.3249978 63.7503279,39.0166051 63.5632729,38.4378407 C63.3762179,37.8590763 62.5869025,37.4366206 61.5836075,37.3436803 Z" id="Path" fill="#99B400" fill-rule="nonzero"></path>
                    <path d="M76.6443692,37.7069923 C77.8758146,37.3239657 79.1384358,37.8252799 79.532385,39.0475852 C79.9263342,40.2698905 79.3028175,41.7484856 78.0727892,42.1329204 C76.8427608,42.5173551 75.4752754,41.6921582 75.0827433,40.4754856 C74.6902113,39.2588131 75.417175,38.0956515 76.6443692,37.7069923 Z" id="Path" fill="#99B400" fill-rule="nonzero"></path>
                    <path d="M47.9541,38.6054148 C49.1827113,38.2153473 50.5530308,39.0475852 50.9455629,40.2642577 C51.338095,41.4809303 50.6125483,42.6426836 49.3867713,43.0327511 C48.1609942,43.4228186 46.8941217,42.9172799 46.5015896,41.6963827 C46.1090575,40.4754856 46.7254888,38.9912577 47.9541,38.6054148 Z" id="Path" fill="#99B400" fill-rule="nonzero"></path>
                    <path d="M39.2801329,37.8886482 C39.2108396,38.093999 39.1947561,38.3133943 39.2333692,38.5265564 C40.7836583,43.3275313 42.3334751,48.1289757 43.8828196,52.9308894 C43.9366688,53.0942389 44.0401158,53.1815465 44.1733217,53.1688728 C44.3426367,53.1293813 44.488164,53.0224487 44.5757733,52.8731538 C45.5422242,51.5086217 47.0032371,51.7128086 47.4326133,53.0421361 C47.4751258,53.1984447 47.5927438,53.3969989 47.71603,53.4378363 C47.8393163,53.4786737 48.0207029,53.5321847 48.15816,53.4378363 C58.5397125,46.2025774 74.3883725,55.9049779 84.7656737,48.6753518 C84.9144428,48.5630207 85.0235819,48.4067486 85.0774321,48.2289569 C85.1358446,48.0606131 85.1358446,47.87768 85.0774321,47.7093363 C84.8988796,47.7952356 84.7174929,47.8769104 84.5361062,47.9543606 C84.6976538,47.8285627 84.8563671,47.6985402 85.0122463,47.5642931 C84.5871212,46.244823 85.3651,44.3832013 86.4661737,43.3791648 C86.622266,43.2287123 86.7331547,43.0380696 86.7864346,42.8285642 C86.8492009,42.6293659 86.8546006,42.4166852 86.8020225,42.2145951 C85.2536228,37.414559 83.7042783,32.6131147 82.1539892,27.8102622 C82.1029742,27.6483208 81.99811,27.5624215 81.8705725,27.5736869 C81.7027726,27.6068532 81.5570153,27.7092152 81.4695379,27.8553241 C81.3921235,27.9694412 81.3068971,28.0781283 81.2144629,28.180615 C80.2111679,29.2677345 78.9953104,28.9128717 78.6013612,27.6990155 C78.5699425,27.5307192 78.4665258,27.3842758 78.3179446,27.2976825 C78.1774197,27.2296327 78.0126634,27.232248 77.8743975,27.3047235 C67.4970963,34.5357577 51.6498533,24.8333573 41.2725521,32.0686162 C41.1240453,32.1772879 41.0151227,32.3309968 40.9622108,32.5065619 C40.9040101,32.6734931 40.9040101,32.8550268 40.9622108,33.021958 C40.9622108,33.021958 41.0273967,33.1726338 41.0273967,33.1768584 C41.4525217,34.4723894 40.7085529,36.3283783 39.638655,37.3056593 C39.4727995,37.467796 39.3496681,37.6680187 39.2801329,37.8886482 Z M73.8980617,40.652917 C73.3014696,38.8053772 74.4351362,37.1718816 76.2830129,36.5860763 C78.1308896,36.000271 79.99152,36.6255055 80.586695,38.4645962 C81.18187,40.3036869 80.2891075,42.6891538 78.4355625,43.2524281 C76.5820175,43.8157024 74.4861513,42.4793341 73.8980617,40.652917 Z M53.990875,39.9347423 C52.54545,35.4581195 55.3385212,31.7799381 60.4343529,32.3558861 C65.5301846,32.9318341 70.6373529,36.4255431 72.0544363,40.8050011 C73.4970271,45.2759912 70.7053729,48.9583971 65.6038729,48.3782246 C60.5023729,47.798052 55.3952046,44.3085675 53.990875,39.9347423 Z M45.4486967,42.2779635 C44.8563558,40.4473219 45.7462842,38.053406 47.5998292,37.4901316 C49.4533742,36.9268573 51.5506575,38.2646338 52.1344958,40.0924591 C52.7183342,41.9202843 51.5974212,43.5706781 49.7452933,44.1578916 C47.8931654,44.7451051 46.0353692,44.1170542 45.4416112,42.2779635 L45.4486967,42.2779635 Z" id="Shape" fill="#99B400" fill-rule="nonzero"></path>
                    <path d="M59.4934096,22.0930277 L59.1688975,32.0643916 C59.1404756,33.7287671 59.7788805,35.3361324 60.9435469,36.5325753 C62.1082133,37.7290182 63.7036448,38.4164365 65.3785567,38.4434735 L67.4800913,38.4772699 C67.5707846,38.4772699 67.6558096,38.4688208 67.7450858,38.4660044 L67.9378092,25.9078031 L59.4934096,22.0930277 Z" id="Path" fill="#FFB18F" fill-rule="nonzero"></path>
                    <polygon id="Path" fill="#FFB18F" fill-rule="nonzero" points="63.9132925 32.2474558 52.4476713 28.4538031 55.1953958 20.2595697 67.8655379 25.8219038"></polygon>
                    <path d="M30.16687,20.3004071 L55.283255,20.3004071 C55.4422513,21.0067716 55.5230329,21.7282968 55.5241592,22.452115 C55.5241592,29.58176 47.8719092,35.3595465 38.4199633,35.3595465 C33.4941817,35.3595465 29.0572938,33.7851947 25.9354592,31.2758075 L25.9354592,24.5024336 C25.9370237,22.1812629 27.8310327,20.3004066 30.16687,20.3004071 L30.16687,20.3004071 Z" id="Path" fill="#FFB18F" fill-rule="nonzero"></path>
                    <path d="M148.779579,104.928152 L109.009135,104.928152 C107.073345,104.928152 105.216861,104.163894 103.848184,102.803546 C102.479506,101.443198 101.71078,99.5982219 101.711156,97.6745863 L101.711156,92.429094 C101.711156,88.4242135 99.8689479,85.1783451 103.90055,85.1783451 L148.779579,85.1783451 L148.779579,104.928152 Z" id="Path" fill="#FFB18F" fill-rule="nonzero"></path>
                    <rect id="Rectangle" fill="#999999" fill-rule="nonzero" x="123.372692" y="83.2477223" width="16.9780754" height="33.11349"></rect>
                    <path d="M169.966392,108.711947 L169.966392,90.8913551 C169.966392,85.980056 165.959841,81.9986615 161.017511,81.9986615 L126.545542,81.9986615 L126.545542,117.608865 L161.021762,117.608865 C163.395153,117.607745 165.670888,116.669764 167.348332,115.001268 C169.025775,113.332773 169.96752,111.070436 169.966392,108.711947 Z" id="Path" fill="#4D4D4D" fill-rule="nonzero"></path>
                    <rect id="Rectangle" fill="#1A1A1A" fill-rule="nonzero" x="126.54129" y="81.9986615" width="2.669785" height="35.6102035"></rect>
                    <rect id="Rectangle" fill="#666666" fill-rule="nonzero" x="123.372692" y="99.8234779" width="3.16859833" height="16.5377345"></rect>
                    <path d="M129.211075,99.8234779 L161.017511,99.8234779 C165.958182,99.8234773 169.964045,103.802298 169.966392,108.711947 L169.966392,108.711947 C169.966392,113.623246 165.959841,117.60464 161.017511,117.60464 L129.211075,117.60464 L129.211075,99.8234779 Z" id="Path" fill="#333333" fill-rule="nonzero"></path>
                    <polygon id="Path" fill="#000000" fill-rule="nonzero" points="126.54129 99.8234779 129.211075 99.8234779 129.211075 117.608865 126.54129 117.608865 126.54129 116.361212"></polygon>
                    <path d="M110.91653,83.6603208 L90.4651829,83.3547445 C87.1470252,83.2581453 84.5351304,80.5082312 84.6296338,77.2108296 L84.6891512,75.2252876 C84.6891512,75.1379801 84.7033221,75.0591217 84.7118246,74.9746305 L107.810283,75.7744801 L110.91653,83.6603208 Z" id="Path" fill="#FFB18F" fill-rule="nonzero"></path>
                    <path d="M106.706375,96.6226715 L103.794269,83.9715299 C102.813647,82.9435542 97.4173938,76.7785166 97.2629317,75.4717201 L107.800363,75.7744801 L121.607006,90.3125907 L106.706375,96.6226715 Z" id="Path" fill="#FFB18F" fill-rule="nonzero"></path>
                    <path d="M53.0825246,77.7825531 L67.0280417,91.6376936 L67.0280417,91.6376936 C67.8665621,92.4727368 69.0052697,92.9414744 70.1923888,92.9402655 L101.6899,92.890979 C103.24327,92.9190158 104.690871,92.1115527 105.475815,90.7792182 C106.260759,89.4468837 106.260759,87.7972435 105.475815,86.464909 C104.690871,85.1325745 103.24327,84.3251114 101.6899,84.3531482 L72.0246775,84.3531482 L63.7219863,76.1025874 C62.5325964,74.9197706 60.9188971,74.2551958 59.236209,74.2551958 C57.5535209,74.2551958 55.9398215,74.9197706 54.7504317,76.1025874 L53.2582429,77.5910398 C53.1930571,77.6473673 53.140625,77.7149602 53.0825246,77.7825531 Z" id="Path" fill="#FFB18F" fill-rule="nonzero"></path>
                    <polygon id="Path" fill="#FFB18F" fill-rule="nonzero" points="104.106027 84.32076 95.3583717 84.32076 84.2413529 84.32076 80.2919417 84.32076 81.72603 106.181437 96.0173154 106.181437 108.249579 102.583522 114.45357 102.627176 114.45357 84.32076"></polygon>
                    <path d="M98.5411408,93.6316847 L71.7809392,93.6753385 C71.3546364,93.6762405 70.9707123,93.9318339 70.8076961,94.323265 C70.6446798,94.7146961 70.7345647,95.1651429 71.0355533,95.4651427 L73.7039212,98.1167566 L73.7039212,98.1167566 L74.7057992,99.112344 C74.9046909,99.3087445 75.1736266,99.4190851 75.4540192,99.4193285 L108.368614,99.3658175 C109.522406,99.3656639 110.62762,98.9042325 111.435304,98.0854617 C112.242988,97.266691 112.685216,96.1594384 112.662376,95.013115 C112.618447,92.6642611 110.589183,90.8279867 108.225488,90.8279867 L102.569909,90.8279867 C101.950651,92.5089592 100.342517,93.628091 98.5411408,93.6316847 Z" id="Path" fill="#FFB18F" fill-rule="nonzero"></path>
                    <path d="M102.83632,100.389569 L78.0373621,100.428998 C77.6518313,100.430234 77.3048511,100.661679 77.1576701,101.015775 C77.010489,101.369871 77.0919701,101.777177 77.3642475,102.048412 L80.2069167,104.871824 L80.2069167,104.871824 L81.5177188,106.174396 L97.0319471,106.149049 L102.83632,100.389569 Z" id="Path" fill="#FFB18F" fill-rule="nonzero"></path>
                    <path d="M107.060646,106.177212 C111.143645,106.177212 114.45357,102.88807 114.45357,98.8307069 L114.45357,94.2118573 C114.450441,90.1566942 111.141432,86.8709833 107.060646,86.8709845 L95.0480304,86.8709845 C90.965814,86.8709845 87.6565238,90.1594966 87.6565238,94.2160819 L87.6565238,98.8349314 C87.6580886,102.890417 90.9669206,106.177213 95.0480304,106.177212 L107.060646,106.177212 Z" id="Path" fill="#FFB18F" fill-rule="nonzero"></path>
                </g>
            </g>
        </g>
    </g>
</svg>