<?xml version="1.0" encoding="UTF-8"?>
<svg width="137px" height="128px" viewBox="0 0 137 128" version="1.1" xmlns="http://www.w3.org/2000/svg" xmlns:xlink="http://www.w3.org/1999/xlink">
    <!-- Generator: sketchtool 53.2 (72643) - https://sketchapp.com -->
    <title>9C82F6B6-CCBB-4A7C-9B75-F93669F54684</title>
    <desc>Created with sketchtool.</desc>
    <g id="Web" stroke="none" stroke-width="1" fill="none" fill-rule="evenodd">
        <g id="Tu-carro-GPS-Manual" transform="translate(-384.000000, -174.000000)" fill-rule="nonzero">
            <g id="Group-3" transform="translate(354.000000, 174.000000)">
                <g id="Recurso-59" transform="translate(30.400000, 0.000000)">
                    <ellipse id="Oval" fill="#0055C7" opacity="0.2" cx="63.6530052" cy="63.5964889" rx="63.6530052" ry="63.5964889"></ellipse>
                    <polygon id="Path" fill="#DDEBFA" points="62.5263408 81.077708 71.4138429 66.4945354 79.3740026 78.0163119"></polygon>
                    <ellipse id="Oval" fill="#DDEBFA" cx="97.5490645" cy="46.229333" rx="38.2316675" ry="38.0843861"></ellipse>
                    <g id="Group" transform="translate(65.451145, 15.630863)">
                        <ellipse id="Oval" fill="#8DC3F7" cx="53.8551243" cy="45.7364679" rx="5.21347347" ry="5.19338938"></ellipse>
                        <polygon id="Path" fill="#8DC3F7" points="44.27777 33.7035199 56.600397 41.3203971 53.8551243 50.9312655 44.0445208 50.9312655"></polygon>
                        <ellipse id="Oval" fill="#8DC3F7" cx="19.8063928" cy="51.359354" rx="5.21347347" ry="5.19338938"></ellipse>
                        <path d="M35.8002211,0.0760420354 L35.8002211,0.0760420354 C39.3184556,0.0760420354 42.6925923,1.46827114 45.1803597,3.94645485 C47.6681272,6.42463856 49.0657404,9.78577696 49.0657404,13.290458 L49.0657404,34.5118186 L22.5347019,34.5118186 L22.5347019,13.2918662 C22.5347019,9.78718514 23.9323151,6.42604674 26.4200825,3.94786304 C28.9078499,1.46967933 32.2819867,0.0774502212 35.8002211,0.0774502212 L35.8002211,0.0760420354 Z" id="Path" fill="#DD005D"></path>
                        <path d="M35.8002211,68.8535987 L34.7380363,68.8535987 C28.1271878,68.8535987 22.7680363,63.4944472 22.7680363,56.8835987 C22.7680363,56.703509 22.7721005,56.5234423 22.7802258,56.343536 L22.8866961,53.98612 L22.9828231,51.8671811 L23.5482758,39.4870962 C23.6885876,36.3828679 25.9548855,33.6972671 29.2028023,32.7863882 L31.8024709,32.0559425 L39.8121077,32.0559425 L42.408949,32.7902666 C45.6570523,33.7024657 47.9230816,36.3887843 48.0634755,39.4935603 L48.7742633,55.282344 C49.0968375,62.4477096 43.549659,68.5178842 36.3842933,68.8404583 C36.1897258,68.8492175 35.9949858,68.8535987 35.8002211,68.8535987 Z" id="Path" fill="#8DC3F7"></path>
                        <path d="M42.408949,32.855792 L42.408949,34.272427 C42.4089491,36.0167951 41.713225,37.6896978 40.4748679,38.9230203 C39.2365108,40.1563427 37.5569896,40.8490284 35.8058757,40.8486549 L35.8058757,40.8486549 C32.1596509,40.848655 29.2035829,37.9046051 29.2028023,34.272427 L29.2028023,32.8572002 L31.8024709,32.0615752 L39.8121077,32.0615752 L42.408949,32.855792 Z" id="Path" fill="#FFB18F"></path>
                        <path d="M39.8644121,26.0514381 L31.7430981,26.0514381 L31.7430983,32.1798628 C31.7427233,33.2519775 32.1700034,34.2803089 32.9309022,35.0385406 C33.6918009,35.7967722 34.7239603,36.2227644 35.8002211,36.2227644 L35.8002211,36.2227644 C36.8773464,36.2242594 37.9108899,35.7991654 38.6731958,35.0411168 C39.4355017,34.2830682 39.8640379,33.2542478 39.8644121,32.181271 L39.8644121,26.0514381 Z" id="Path" fill="#DD9980"></path>
                        <path d="M44.0713798,6.86772235 L44.0713798,24.8643374 L39.1236691,30.2774038 L38.897488,30.5238363 C38.1026347,31.3940163 36.9763208,31.8900411 35.7952734,31.8900411 C34.614226,31.8900411 33.4879121,31.3940163 32.6930588,30.5238363 L32.4725323,30.2759956 L27.5248215,24.861521 L27.5248215,6.86772235 L44.0713798,6.86772235 Z" id="Path" fill="#FFB18F"></path>
                        <ellipse id="Oval" fill="#FFB18F" transform="translate(26.710283, 19.368764) rotate(-19.980000) translate(-26.710283, -19.368764) " cx="26.7102834" cy="19.3687641" rx="2.28340303" ry="2.27665759"></ellipse>
                        <polygon id="Path" fill="#DD005D" points="27.3721493 14.5000896 44.7654729 10.9078075 44.7654729 4.31045686 27.3721493 4.32031416"></polygon>
                        <path d="M44.7400276,6.65931084 C44.7400276,6.65931084 47.0781743,10.5642102 44.7400276,12.4666692 C42.4018809,14.3691283 38.2458039,14.6563982 36.1041519,14.6563982 C39.4629407,12.0751936 41.791192,10.3262268 44.1250978,6.66071903 L44.7400276,6.65931084 Z" id="Path" fill="#DD005D"></path>
                        <ellipse id="Oval" fill="#FFB18F" transform="translate(44.891612, 19.370948) rotate(-76.800000) translate(-44.891612, -19.370948) " cx="44.8916124" cy="19.3709476" rx="2.27608807" ry="2.28397069"></ellipse>
                        <polygon id="Path" fill="#FFFFFF" points="39.12791 24.8403982 37.3735931 26.8724104 34.2268491 26.8724104 32.4725323 24.8403982"></polygon>
                        <path d="M34.9760739,23.7532788 L34.9760739,23.7532788 C34.3365341,23.7533215 33.7253479,24.0162145 33.2867841,24.4799027 L32.9475125,24.8418064 L36.0673975,24.8418064 C36.067398,24.2411787 35.5790239,23.7540558 34.9760739,23.7532788 L34.9760739,23.7532788 Z" id="Path" fill="#F76866"></path>
                        <path d="M36.6243684,23.7532788 L36.6243684,23.7532788 C37.2624337,23.7544837 37.8718649,24.0172816 38.3094173,24.4799027 L38.6486889,24.8418064 L35.5330447,24.8418064 C35.5330442,24.2411787 36.0214184,23.7540558 36.6243684,23.7532788 L36.6243684,23.7532788 Z" id="Path" fill="#F76866"></path>
                        <path d="M37.3750068,26.8724104 L36.8491358,27.4793385 C36.5866348,27.7842628 36.2034656,27.959677 35.8002211,27.9595299 L35.8002211,27.9595299 C35.396483,27.9600885 35.012715,27.7846366 34.7498928,27.4793385 L34.2254355,26.8724104 L37.3750068,26.8724104 Z" id="Path" fill="#F76866"></path>
                        <path d="M45.2560031,20.5313496 L40.8737451,29.733844 L45.2560031,20.5313496 Z" id="Path" fill="#262763"></path>
                        <path d="M40.8751587,30.8223717 C40.5000963,30.822539 40.1510843,30.6313252 39.9503723,30.3157075 C39.7496602,30.0000898 39.7252216,29.6040561 39.8856165,29.2663263 L44.2678746,20.06524 C44.5262953,19.5208364 45.1788198,19.2881944 45.7253288,19.5456196 C46.2718378,19.8030447 46.5053795,20.4530554 46.2469589,20.9974591 L41.8647008,30.1999535 C41.6827753,30.5800061 41.297836,30.8221314 40.8751587,30.8223717 Z" id="Path" fill="#283570"></path>
                        <path d="M45.2941712,28.3228418 L56.8138554,43.7621914 C57.8978951,45.2157492 57.5937845,47.2694931 56.1346054,48.3493567 C54.6754262,49.4292204 52.61374,49.1262813 51.5297003,47.6727235 C51.4490338,47.5640807 51.374923,47.4507565 51.3077601,47.3333507 L51.0914745,46.9460996 L41.7516103,30.294302 C41.2305177,29.3679241 41.521724,28.197634 42.4168292,27.6209423 C43.3119344,27.0442506 44.5028295,27.2596635 45.1372581,28.1130221 L45.2941712,28.3228418 Z" id="Path" fill="#FFB18F"></path>
                        <path d="M47.5715317,31.5842002 L48.0479256,28.7269912 C48.3952902,26.6516385 47.2341229,24.6180198 45.2658985,23.8546681 L45.2658985,23.8546681 C43.6226591,23.2177418 41.7599368,23.5480997 40.4383465,24.7108451 L39.2410005,25.7698009 L42.8245567,32.1474746 L47.5715317,31.5842002 Z" id="Path" fill="#FFB18F"></path>
                        <polygon id="Path" fill="#8DC3F7" points="15.641834 48.2331814 25.1527477 35.6792046 32.2774511 49.1132976"></polygon>
                        <path d="M13.2598647,33.6387434 L22.2576301,49.6836128 L22.4470567,50.0201692 C23.3327917,51.5997177 22.7653929,53.5954587 21.179736,54.4777815 C19.594079,55.3601044 17.59062,54.7948914 16.704885,53.2153429 C16.6423968,53.102373 16.5857769,52.9862793 16.5352492,52.867521 L9.44588658,35.7679204 L9.34693236,35.5313451 C8.90166647,34.469109 9.36713556,33.2454047 10.4072412,32.7438251 C11.4473468,32.2422455 12.6996311,32.6375819 13.2598647,33.6443761 L13.2598647,33.6387434 Z" id="Path" fill="#FFB18F"></path>
                        <path d="M4.55189386,30.5477754 C7.18690323,30.9237611 10.8072138,31.5799757 10.8072138,31.5799757 L12.521949,29.3874303 C12.8248168,29.0003008 13.2902025,28.7742213 13.7829084,28.7748681 L13.7829084,28.7748681 L13.7829084,35.4862832 L10.5824464,38.1914082 L0.0480634755,31.5799757 L0.0480634755,31.5799757 C1.36830152,30.6900853 2.97400293,30.3220863 4.55189386,30.5477754 Z" id="Path" fill="#FFB18F"></path>
                    </g>
                    <path d="M41.5466337,97.5422168 L40.164102,103.15947 L40.164102,103.15947 L39.6721582,105.156278 L45.3931254,105.156278 L45.3931254,115.912001 L43.6812175,123.102198 C47.1589085,122.917647 50.4140909,121.340763 52.7072555,118.729781 L51.8944173,114.893883 C50.4458857,108.13719 46.8104588,102.04113 41.5466337,97.5422168 Z" id="Path" fill="#3056C4"></path>
                    <path d="M6.49139646,116.292211 C6.38678772,116.455561 6.28359261,116.620319 6.18181113,116.786485 C6.28359261,116.620319 6.38678772,116.455561 6.49139646,116.292211 Z" id="Path" fill="#3056C4"></path>
                    <path d="M7.50214308,114.837555 C7.3598375,115.025313 7.21847433,115.217296 7.07805359,115.413503 C7.21847433,115.219174 7.3598375,115.027191 7.50214308,114.837555 Z" id="Path" fill="#3056C4"></path>
                    <path d="M7.04554006,115.471239 C6.89852237,115.682467 6.75386074,115.896042 6.61155515,116.111963 C6.75480316,115.892287 6.89946479,115.678712 7.04554006,115.471239 Z" id="Path" fill="#3056C4"></path>
                    <path d="M24.2946733,106.558831 L23.9568153,105.792778 L23.8578611,105.570284 L23.7037752,105.221054 C17.2881311,106.156717 11.499506,109.568966 7.58837461,114.720676 C9.12357856,112.770338 12.2985952,113.850417 12.2985952,116.347131 L12.2985952,122.857174 C13.1595549,123.033465 14.0362671,123.122167 14.9152274,123.121913 L31.5960806,123.121913 L28.8974579,116.994896 L24.2946733,106.558831 Z" id="Path" fill="#3056C4"></path>
                    <path d="M6.06306608,116.982222 C5.9301847,117.206124 5.79871696,117.431434 5.67149011,117.65956 C5.7958897,117.431434 5.93725286,117.206124 6.06306608,116.982222 Z" id="Path" fill="#3056C4"></path>
                    <path d="M38.1751223,111.238232 L35.5259766,121.992548 L35.5259766,121.992548 L35.2432503,123.119096 L41.7996738,123.119096 L40.5556779,117.290615 C40.1008984,115.156707 39.29663,113.111916 38.1751223,111.238232 Z" id="Path" fill="#3056C4"></path>
                    <path d="M45.3931254,105.156278 L39.6721582,105.156278 L39.2749277,106.767242 L39.2749277,106.767242 L38.1751223,111.238232 C39.2983988,113.112514 40.104114,115.158292 40.5599188,117.293431 L41.8039147,123.121913 L42.9970198,123.121913 C43.2288554,123.121913 43.4578637,123.113463 43.686872,123.102198 L45.3931254,115.912001 L45.3931254,105.156278 Z" id="Path" fill="#3056C4"></path>
                    <path d="M7.59120187,114.720676 L7.50214308,114.837555 C7.3598375,115.025313 7.21847433,115.217296 7.07805359,115.413503 L7.04129917,115.464198 C6.89428148,115.675426 6.74961984,115.889001 6.60731426,116.104923 C6.56773257,116.166883 6.52815088,116.230251 6.48715557,116.292211 C6.38254683,116.455561 6.27935172,116.620319 6.17757024,116.786485 L6.05882518,116.982222 C5.92594381,117.206124 5.79447607,117.431434 5.66724922,117.65956 L5.11734651,118.64529 C6.97750467,120.801883 9.5030517,122.283145 12.2985952,122.857174 L12.2985952,116.347131 C12.2985952,113.850417 9.12357856,112.770338 7.59120187,114.720676 Z" id="Path" fill="#283570"></path>
                    <path d="M23.6755026,105.156278 L23.5341394,104.82817 L18.9299412,94.3850642 C12.5488253,95.8887668 6.69650412,99.0881113 1.99604787,103.642478 L1.99604787,110.260951 C1.99517018,111.440641 2.15737658,112.614831 2.47809625,113.750436 L4.51655307,105.160502 L23.6755026,105.156278 Z" id="Path" fill="#3056C4"></path>
                    <path d="M6.06306608,116.982222 L6.18181113,116.786485 C6.28359261,116.620319 6.38678772,116.455561 6.49139646,116.292211 C6.53239178,116.230251 6.57197347,116.166883 6.61155515,116.104923 C6.75386074,115.88994 6.89852237,115.676365 7.04554006,115.464198 L7.08229448,115.413503 C7.21894554,115.219174 7.36030871,115.027191 7.50638398,114.837555 L7.56292924,114.761513 C7.57282466,114.747431 7.58554735,114.734758 7.59544277,114.720676 C11.5065741,109.568966 17.2951993,106.156717 23.7108434,105.221054 L23.6825708,105.156278 L4.52362123,105.156278 L2.48516441,113.746211 C2.99545371,115.552831 3.89788064,117.225744 5.12865557,118.646698 L5.67855827,117.660968 C5.7958897,117.431434 5.93725286,117.206124 6.06306608,116.982222 Z" id="Path" fill="#3056C4"></path>
                    <path d="M7.08229448,115.413503 L7.04554006,115.464198 L7.08229448,115.413503 Z" id="Path" fill="#3056C4"></path>
                    <path d="M6.18181113,116.786485 L6.06306608,116.982222 L6.18181113,116.786485 Z" id="Path" fill="#3056C4"></path>
                    <path d="M7.50214308,114.837555 L7.59120187,114.720676 C7.58130645,114.734758 7.56858377,114.747431 7.55868835,114.761513 L7.50214308,114.837555 Z" id="Path" fill="#3056C4"></path>
                    <path d="M6.61155515,116.104923 C6.57197347,116.166883 6.53239178,116.230251 6.49139646,116.292211 C6.53239178,116.230251 6.57197347,116.166883 6.61155515,116.104923 Z" id="Path" fill="#3056C4"></path>
                    <polygon id="Path" fill="#DDEBFA" points="26.6314063 105.156278 32.0442019 105.156278 30.6220884 102.759545"></polygon>
                    <path d="M24.9887664,103.952279 L29.6636462,101.145764 L29.6636462,101.145764 L33.9271592,98.5884989 L33.9907726,98.5532942 L34.1208267,98.4800686 L34.2098855,98.4321903 L34.3187352,98.3786792 C34.3781077,98.3505155 34.4360666,98.3251681 34.4954391,98.2998208 L34.5901524,98.2603916 L34.7074839,98.2153296 L34.7979563,98.1843496 C34.8516743,98.1660431 34.9039787,98.1491449 34.9576967,98.1336549 L35.0863371,98.097042 L35.1810505,98.0745111 L35.3096909,98.0477555 L35.3817862,98.0336737 C35.4510541,98.021 35.5231493,98.0111427 35.5881764,98.0026936 L35.6037263,98.0026936 L35.8101165,97.9857954 L35.8299074,97.9857954 C36.0463648,97.9740589 36.2634617,97.9858635 36.4773507,98.021 L36.4773507,98.021 L36.5381368,98.0294491 C36.654716,98.0512636 36.7698936,98.0799471 36.883063,98.1153485 L36.883063,98.1153485 C36.9424355,98.1336549 37.0003944,98.1547777 37.0569396,98.1773086 L37.0880395,98.1885741 C37.1375166,98.2096969 37.1869938,98.2308197 37.2294027,98.2547588 L37.2576753,98.2674325 C37.3085661,98.2927799 37.3556871,98.3195354 37.3990385,98.3476991 L37.4782019,98.3969856 C37.4979927,98.4096593 37.5177836,98.4209248 37.5361608,98.4350066 C37.554538,98.4490885 37.5700879,98.4547212 37.5856379,98.4659867 L37.6308741,98.5011914 L37.6534922,98.5180896 C37.9685713,98.7559212 38.2180574,99.0693631 38.3786852,99.4291858 L38.4790531,99.6432301 L40.7055229,96.869104 C40.9882492,97.0915973 41.2554256,97.3183153 41.5254292,97.5478496 L42.0399912,95.4581018 L42.0399912,95.4581018 L42.0484729,95.4285299 C42.1076825,95.1901047 42.1230091,94.9429615 42.0937092,94.6990896 C41.2946548,94.481227 40.522687,94.1746686 39.7923169,93.785177 L35.5910036,96.5790177 L24.9279802,90.201344 L24.9279802,90.201344 L18.9285276,94.383656 L18.9285276,94.383656 C20.6137817,93.9863637 22.3253109,93.7091881 24.050115,93.5542345 L24.9887664,103.952279 Z" id="Path" fill="#DDEBFA"></path>
                    <polygon id="Path" fill="#DDEBFA" points="38.5158075 105.156278 37.8938096 103.839624 37.5700879 105.156278"></polygon>
                    <path d="M38.5002575,99.6375973 L40.164102,103.158062 L41.5466337,97.5408086 C41.2766301,97.3112743 41.0052128,97.0845564 40.7267274,96.8620631 L38.5002575,99.6375973 Z" id="Path" fill="#DDEBFA"></path>
                    <path d="M35.5259766,121.992548 L38.1751223,111.238232 C37.7819294,110.582055 37.3514864,109.948751 36.8858902,109.341406 L35.5259766,121.992548 Z" id="Path" fill="#DDEBFA"></path>
                    <polygon id="Path" fill="#DDEBFA" points="32.0442019 105.156278 26.6314063 105.156278 24.2946733 106.558831 28.8960442 116.994896 33.0620166 106.868632 33.060603 106.868632 33.060603 106.868632"></polygon>
                    <path d="M37.5700879,105.156278 L37.1459984,106.855958 L37.1459984,106.868632 L36.8802357,109.341406 C37.3458319,109.948751 37.7762749,110.582055 38.1694677,111.238232 L39.2692732,106.767242 L38.510153,105.156278 L37.5700879,105.156278 Z" id="Path" fill="#DDEBFA"></path>
                    <path d="M24.9887664,103.952279 L24.0472877,93.5556427 C22.3224836,93.7105963 20.6109545,93.9877719 18.9257003,94.3850642 L23.5298985,104.82817 L24.9887664,103.952279 Z" id="Path" fill="#DDEBFA"></path>
                    <polygon id="Path" fill="#739ED7" points="39.6721582 105.156278 40.164102 103.15947 40.164102 103.15947 39.6721582 105.156278"></polygon>
                    <polygon id="Path" fill="#739ED7" points="39.2749277 106.767242 39.2749277 106.767242 39.6721582 105.156278 39.6721582 105.156278"></polygon>
                    <path d="M36.8957856,98.1097157 C36.9551582,98.1280221 37.0131171,98.1491449 37.0696623,98.1716759 C37.0088762,98.1505531 36.9509173,98.1280221 36.8957856,98.1097157 Z" id="Path" fill="#739ED7"></path>
                    <path d="M37.0965213,98.1829414 L37.2378845,98.2491261 C37.1954755,98.2251869 37.1459984,98.2040642 37.0965213,98.1829414 Z" id="Path" fill="#739ED7"></path>
                    <path d="M36.4830052,98.0097345 C36.2691162,97.9745981 36.0520194,97.9627934 35.8355619,97.9745299 C36.052019,97.9633407 36.2690568,97.9751421 36.4830052,98.0097345 Z" id="Path" fill="#739ED7"></path>
                    <path d="M34.7131384,98.2096969 L34.8036108,98.1787168 L34.7131384,98.2096969 Z" id="Path" fill="#739ED7"></path>
                    <path d="M35.186705,98.0688783 L35.3153455,98.0421228 L35.186705,98.0688783 Z" id="Path" fill="#739ED7"></path>
                    <path d="M36.5437914,98.0224082 L36.4830052,98.0139591 C36.620355,98.0355945 36.7559482,98.0671267 36.8887175,98.1083075 C36.7755482,98.0729062 36.6603705,98.0442227 36.5437914,98.0224082 L36.5437914,98.0224082 Z" id="Path" fill="#739ED7"></path>
                    <path d="M34.9633512,98.1280221 L35.0919917,98.0914093 L34.9633512,98.1280221 Z" id="Path" fill="#739ED7"></path>
                    <path d="M34.5010937,98.2913717 L34.595807,98.2519425 L34.5010937,98.2913717 Z" id="Path" fill="#739ED7"></path>
                    <path d="M35.6093809,97.9956527 L35.8157711,97.9787544 L35.6093809,97.9956527 Z" id="Path" fill="#739ED7"></path>
                    <path d="M35.3874407,98.0280409 C35.4567086,98.0153673 35.5288039,98.00551 35.5938309,97.9970608 C35.524563,98.0097345 35.4567086,98.0097345 35.3874407,98.0280409 Z" id="Path" fill="#739ED7"></path>
                    <path d="M24.157551,105.156278 L26.6314063,105.156278 L30.6220884,102.762362 L29.6636462,101.148581 L24.9887664,103.952279 L25.0877206,105.054888 C24.7767216,105.081644 24.4657227,105.116848 24.157551,105.156278 Z" id="Path" fill="#739ED7"></path>
                    <path d="M34.2098855,98.4321903 L34.3187352,98.3786792 L34.2098855,98.4321903 Z" id="Path" fill="#739ED7"></path>
                    <path d="M37.6520786,98.4955586 L37.6746967,98.5124569 L37.6520786,98.4955586 Z" id="Path" fill="#739ED7"></path>
                    <path d="M38.5002575,99.6375973 L38.3998897,99.4235531 C38.4324032,99.4981869 38.4620895,99.574229 38.4889485,99.6530874 L38.5002575,99.6375973 Z" id="Path" fill="#739ED7"></path>
                    <path d="M33.9837045,98.5532942 L34.1137586,98.4800686 L33.9837045,98.5532942 Z" id="Path" fill="#739ED7"></path>
                    <path d="M37.4994063,98.3913529 C37.5191972,98.4040265 37.538988,98.415292 37.5573652,98.4293739 C37.538988,98.415292 37.5191972,98.4040265 37.4994063,98.3913529 Z" id="Path" fill="#739ED7"></path>
                    <path d="M37.2718117,98.2617998 C37.3227024,98.2871471 37.3698234,98.3139027 37.4131748,98.3420664 C37.3698234,98.3139027 37.3227024,98.2871471 37.2718117,98.2617998 Z" id="Path" fill="#739ED7"></path>
                    <path d="M38.4889485,99.6530874 C38.6552487,100.190808 38.66554,100.764409 38.5186348,101.307706 L37.8938096,103.84244 L38.5158075,105.159094 L39.6721582,105.159094 L40.164102,103.162287 L38.5002575,99.6418219 L38.4889485,99.6530874 Z" id="Path" fill="#739ED7"></path>
                    <path d="M24.157551,105.156278 C24.0062924,105.175992 23.8550338,105.198523 23.7037752,105.221054 L23.8578611,105.570284 L23.9568153,105.792778 L24.2946733,106.558831 L26.6314063,105.150645 L24.157551,105.156278 Z" id="Path" fill="#739ED7"></path>
                    <polygon id="Path" fill="#739ED7" points="38.5158075 105.156278 39.2749277 106.767242 39.6721582 105.156278"></polygon>
                    <path d="M25.0877206,105.050664 L24.9887664,103.948054 L23.5298985,104.823946 L23.6712617,105.152053 L24.1533101,105.152053 C24.4657227,105.116848 24.7767216,105.081644 25.0877206,105.050664 Z" id="Path" fill="#739ED7"></path>
                    <path d="M23.6755026,105.156278 L23.7037752,105.221054 C23.8550338,105.198523 24.0062924,105.175992 24.157551,105.156278 L23.6755026,105.156278 Z" id="Path" fill="#739ED7"></path>
                    <polygon id="Path" fill="#76D160" points="35.5259766 121.992548 35.2474912 123.121913 35.2474912 123.121913 35.5259766 121.992548"></polygon>
                    <path d="M38.3942352,99.4179204 L38.3942352,99.4179204 L38.3942352,99.4277777 C38.2336074,99.0679549 37.9841213,98.754513 37.6690421,98.5166814 L37.6690421,98.5166814 C37.9828159,98.7517631 38.2321962,99.0616823 38.3942352,99.4179204 L38.3942352,99.4179204 Z" id="Path" fill="#76D160"></path>
                    <path d="M37.6520786,98.4955586 L37.6068424,98.460354 L37.6520786,98.4955586 Z" id="Path" fill="#76D160"></path>
                    <polygon id="Path" fill="#76D160" points="37.5700879 105.156278 37.5700879 105.156278 37.8938096 103.839624 37.8938096 103.839624"></polygon>
                    <path d="M36.8858902,109.341406 C36.2061091,108.455768 35.4528205,107.6286 34.633975,106.868632 L33.0620166,106.868632 L28.8960442,116.994896 L31.594667,123.121913 L35.2474912,123.121913 L35.5302175,121.995364 L36.8858902,109.341406 Z" id="Path" fill="#76D160"></path>
                    <path d="M37.151653,106.855958 L37.5757425,105.156278 L37.5757425,105.156278 L37.151653,106.855958 L37.151653,106.868632 L34.633975,106.868632 C35.4513523,107.628774 36.2032178,108.455937 36.8816493,109.341406 L37.1474121,106.868632 L37.151653,106.855958 Z" id="Path" fill="#76D160"></path>
                    <path d="M38.3942352,99.4179204 C38.429576,99.4953706 38.4606759,99.5756372 38.4889485,99.6587201 L38.4889485,99.6587201 C38.4620895,99.5798617 38.4324032,99.5038197 38.3998897,99.4291858 L38.3998897,99.4193285 L38.3942352,99.4179204 Z" id="Path" fill="#76D160"></path>
                    <polygon id="Path" fill="#76D160" points="37.6746967 98.5124569 37.6746967 98.5124569 37.6520786 98.4955586 37.6520786 98.4955586"></polygon>
                    <path d="M38.5172211,101.306298 L37.8938096,103.841032 L37.8938096,103.841032 L38.5186348,101.306298 C38.66554,100.763001 38.6552487,100.1894 38.4889485,99.6516792 L38.4889485,99.6516792 C38.6550151,100.189496 38.6648174,100.763162 38.5172211,101.306298 Z" id="Path" fill="#76D160"></path>
                    <polygon id="Path" fill="#58A542" points="29.6622326 101.14154 33.9271592 98.5899071 33.9907726 98.5532942 33.9271592 98.5884989 29.6693007 101.14154 29.6693007 101.14154 29.6693007 101.14154"></polygon>
                    <polygon id="Path" fill="#58A542" points="35.1626733 98.0745111 35.186705 98.0745111 35.0919917 98.097042 35.1089553 98.097042"></polygon>
                    <polygon id="Path" fill="#58A542" points="37.270398 98.2617998 37.270398 98.2617998 37.2421254 98.2491261 37.2520208 98.2491261"></polygon>
                    <path d="M34.4233439,98.3265763 L34.5010937,98.2941881 C34.4417211,98.3195354 34.3837622,98.3448827 34.3243897,98.3730465 L34.3795213,98.3476991 L34.4233439,98.3265763 Z" id="Path" fill="#58A542"></path>
                    <polygon id="Path" fill="#58A542" points="34.1957492 98.4321903 34.2098855 98.4321903 34.1081041 98.4857013 34.1293085 98.4744358"></polygon>
                    <polygon id="Path" fill="#58A542" points="34.6919339 98.218146 34.7131384 98.2096969 34.595807 98.2547588 34.6155978 98.2547588"></polygon>
                    <path d="M37.6026015,98.460354 C37.5870515,98.4490885 37.5700879,98.4392312 37.5531243,98.4293739 L37.5531243,98.4293739 L37.6026015,98.460354 Z" id="Path" fill="#58A542"></path>
                    <polygon id="Path" fill="#58A542" points="37.4965791 98.3885365 37.4965791 98.3885365 37.4174157 98.33925 37.4174157 98.33925"></polygon>
                    <path d="M34.9039787,98.1505531 L34.9633512,98.1336549 C34.9096332,98.1491449 34.8573288,98.1660431 34.8036108,98.1843496 L34.8474334,98.1702677 L34.9039787,98.1505531 Z" id="Path" fill="#58A542"></path>
                    <polygon id="Path" fill="#58A542" points="37.0908668 98.1815332 37.0908668 98.1815332 37.0597669 98.1702677 37.0668351 98.1702677"></polygon>
                    <polygon id="Path" fill="#58A542" points="35.374718 98.0308573 35.3874407 98.0308573 35.3153455 98.0449392 35.3450317 98.0449392"></polygon>
                    <polygon id="Path" fill="#58A542" points="30.6220884 102.759545 32.0442019 105.156278 32.0456155 105.156278 30.6235021 102.759545"></polygon>
                    <polygon id="Path" fill="#58A542" points="32.0442019 105.156278 33.060603 106.868632 33.060603 106.868632 32.0456155 105.156278"></polygon>
                    <path d="M34.3795213,98.3476991 L34.3243897,98.3730465 L34.2098855,98.4321903 L34.1900947,98.4434558 C34.2565354,98.4054347 34.3187352,98.3758628 34.3795213,98.3476991 Z" id="Path" fill="#58A542"></path>
                    <path d="M34.1349631,98.4688031 L34.1137586,98.4800686 L33.9837045,98.5532942 L33.9200911,98.5899071 C33.9921863,98.5462533 34.0685224,98.5068241 34.1349631,98.4688031 Z" id="Path" fill="#58A542"></path>
                    <path d="M35.3407908,98.03649 L35.3111046,98.03649 L35.1824641,98.0632456 L35.1584324,98.0632456 C35.222517,98.056674 35.2833032,98.0477555 35.3407908,98.03649 Z" id="Path" fill="#58A542"></path>
                    <path d="M37.0724896,98.1744923 L37.0654214,98.1744923 C37.0088762,98.1519613 36.9509173,98.1308385 36.8915447,98.1125321 L36.8915447,98.1125321 C36.7587755,98.0713512 36.6231822,98.039819 36.4858325,98.0181836 L36.4858325,98.0181836 C36.2718841,97.9835912 36.0548462,97.9717898 35.8383892,97.982979 L35.8185983,97.982979 L35.6122081,97.9998772 L35.5966582,97.9998772 C35.5273902,98.0083263 35.455295,98.0181836 35.390268,98.0308573 L35.3775453,98.0308573 C35.944972,97.9213448 36.5317871,97.9710734 37.0724896,98.1744923 Z" id="Path" fill="#58A542"></path>
                    <path d="M34.8474334,98.164635 L34.8036108,98.1787168 L34.7131384,98.2096969 L34.6919339,98.218146 C34.7428247,98.1984314 34.795129,98.1815332 34.8474334,98.164635 Z" id="Path" fill="#58A542"></path>
                    <path d="M35.1089553,98.0885929 L35.0919917,98.0885929 L34.9633512,98.1252058 L34.9039787,98.142104 C34.971833,98.1237976 35.0396873,98.1054912 35.1089553,98.0885929 Z" id="Path" fill="#58A542"></path>
                    <path d="M37.2534344,98.2533507 L37.243539,98.2533507 L37.1021759,98.1871659 L37.1021759,98.1871659 C37.1474121,98.2040642 37.2011301,98.2280033 37.2534344,98.2533507 Z" id="Path" fill="#58A542"></path>
                    <path d="M34.6155978,98.2477179 L34.595807,98.2477179 L34.5010937,98.2871471 L34.4233439,98.3195354 C34.4926119,98.2984126 34.5505708,98.2716571 34.6155978,98.2477179 Z" id="Path" fill="#58A542"></path>
                    <path d="M37.5587789,98.4321903 L37.5587789,98.4321903 C37.5404017,98.4181084 37.5206108,98.4068429 37.50082,98.3941692 L37.50082,98.3941692 L37.5587789,98.4321903 Z" id="Path" fill="#58A542"></path>
                    <path d="M37.4216566,98.3434746 L37.4216566,98.3434746 C37.3735931,98.3153108 37.3264721,98.2885553 37.2802934,98.263208 L37.2802934,98.263208 C37.3198751,98.2913717 37.3721795,98.3139027 37.4216566,98.3434746 Z" id="Path" fill="#58A542"></path>
                    <polygon id="Path" fill="#58A542" points="30.6235021 102.759545 29.6650598 101.144356 29.6636462 101.144356 30.6220884 102.759545"></polygon>
                    <path d="M35.3407908,98.03649 L35.3704771,98.03649 L35.3407908,98.03649 Z" id="Path" fill="#58A542"></path>
                    <path d="M37.4216566,98.3434746 L37.4965791,98.3885365 L37.4216566,98.3434746 Z" id="Path" fill="#58A542"></path>
                    <path d="M37.0724896,98.1744923 L37.0908668,98.1815332 L37.0724896,98.1744923 Z" id="Path" fill="#58A542"></path>
                    <path d="M35.1089553,98.0885929 L35.1626733,98.0745111 L35.1089553,98.0885929 Z" id="Path" fill="#58A542"></path>
                    <polygon id="Path" fill="#58A542" points="37.6520786 98.4955586 37.6068424 98.460354 37.5587789 98.4293739"></polygon>
                    <path d="M34.8474334,98.164635 L34.9039787,98.1449204 L34.8474334,98.164635 Z" id="Path" fill="#58A542"></path>
                    <path d="M36.3783965,100.627552 C36.247427,100.342173 35.9824158,100.140485 35.6715806,100.089625 C35.3376889,100.042528 34.9980034,100.118112 34.7159657,100.302261 L30.6164339,102.759545 L32.0371337,105.153461 L34.0685224,105.153461 L36.8703403,101.671018 L36.3783965,100.627552 Z" id="Path" fill="#58A542"></path>
                    <path d="M38.3942352,99.4179204 C38.233589,99.0628255 37.9862157,98.7534686 37.6746967,98.5180896 C37.9856282,98.7540672 38.2328719,99.063262 38.3942352,99.4179204 L38.3942352,99.4179204 Z" id="Path" fill="#58A542"></path>
                    <path d="M37.2534344,98.2533507 L37.270398,98.2617998 L37.2534344,98.2533507 Z" id="Path" fill="#58A542"></path>
                    <path d="M34.6155978,98.2477179 L34.6919339,98.218146 L34.6155978,98.2477179 Z" id="Path" fill="#58A542"></path>
                    <polygon id="Path" fill="#58A542" points="29.6636462 101.14154 29.6650598 101.144356 33.9200911 98.5899071"></polygon>
                    <path d="M34.3795213,98.3476991 L34.4233439,98.3265763 L34.3795213,98.3476991 Z" id="Path" fill="#58A542"></path>
                    <path d="M34.1349631,98.4688031 L34.1957492,98.437823 L34.1349631,98.4688031 Z" id="Path" fill="#58A542"></path>
                    <polygon id="Path" fill="#58A542" points="36.8703403 101.66961 34.0727633 105.156278 37.5700879 105.156278 37.8938096 103.839624"></polygon>
                    <path d="M34.0685224,105.156278 L32.0442019,105.156278 L33.060603,106.868632 L34.633975,106.868632 C34.264546,106.525034 33.8823942,106.196458 33.4875198,105.882902 L34.0685224,105.156278 Z" id="Path" fill="#58A542"></path>
                    <path d="M37.151653,106.855958 L37.5757425,105.156278 L34.0685224,105.156278 L33.4875198,105.880085 C33.8833366,106.195519 34.2654884,106.524096 34.633975,106.865815 L37.1502393,106.865815 L37.151653,106.855958 Z" id="Path" fill="#58A542"></path>
                    <path d="M35.6715806,100.089625 C35.9824158,100.140485 36.247427,100.342173 36.3783965,100.627552 L36.8703403,101.66961 L38.4889485,99.6530874 C38.4606759,99.5700044 38.429576,99.4897378 38.3942352,99.4122876 C38.2328719,99.0576293 37.9856282,98.7484345 37.6746967,98.5124569 L37.6520786,98.4955586 L37.5587789,98.4293739 L37.4965791,98.3885365 L37.4216566,98.3434746 C37.3721795,98.3139027 37.3212888,98.2871471 37.270398,98.2617998 L37.2534344,98.2533507 C37.2011301,98.2280033 37.1474121,98.2040642 37.0908668,98.1815332 L37.0724896,98.1744923 C36.531088,97.9717528 35.9437522,97.9229967 35.3761316,98.0336737 L35.3464454,98.0336737 C35.285188,98.0449392 35.2244018,98.0576128 35.1640869,98.0716947 L35.1103689,98.0857765 C35.0411009,98.1026748 34.9690057,98.1209812 34.9053923,98.142104 L34.848847,98.1618186 C34.7965427,98.1787168 34.7442383,98.195615 34.6933476,98.2153296 L34.6170114,98.2449015 C34.5519844,98.2688407 34.488371,98.2955962 34.4247575,98.32376 L34.380935,98.3448827 C34.3201488,98.3730465 34.257949,98.4026184 34.1971629,98.4350066 L34.1363767,98.4659867 C34.0642815,98.5040077 33.9950135,98.5434369 33.9215047,98.5870907 L29.6664735,101.14154 L30.6249157,102.756729 L34.7244475,100.299445 C35.0045456,100.118296 35.3408116,100.043802 35.6715806,100.089625 L35.6715806,100.089625 Z" id="Path" fill="#58A542"></path>
                    <path d="M37.8938096,103.839624 L38.5172211,101.304889 C38.6645448,100.762197 38.6547432,100.189058 38.4889485,99.6516792 L36.8703403,101.671018 L37.8938096,103.839624 Z" id="Path" fill="#58A542"></path>
                    <path d="M37.2788798,92.3037655 L27.0102596,86.1570343 C26.6436371,85.9370979 26.2998507,85.6814307 25.9839631,85.3937976 L24.9237393,90.201344 L24.9237393,90.201344 L38.2359084,92.8768971 L37.2788798,92.3037655 Z" id="Path" fill="#DD9980"></path>
                    <path d="M39.7923169,93.785177 C39.6127856,93.6908285 39.4360817,93.5922555 39.2607914,93.4880498 L38.2401493,92.8783053 L24.9279802,90.2027522 L35.5910036,96.5804259 L39.7923169,93.785177 Z" id="Path" fill="#DD9980"></path>
                    <path d="M59.8800224,71.431635 C59.7541651,72.6984069 58.9297619,73.7895747 57.7426113,74.2606803 L57.7864339,74.8239546 L57.7864339,74.8239546 C59.5062789,74.6910881 60.9788493,73.5447615 61.5239749,71.9144555 C62.0691006,70.2841494 61.5806838,68.4871696 60.284321,67.3535288 C60.284321,67.3619779 60.284321,67.3690188 60.284321,67.3774679 L59.8800224,71.431635 Z" id="Path" fill="#FFB18F"></path>
                    <path d="M56.0165671,52.0352832 L56.0165671,52.0352832 C56.790346,51.4415158 57.5038681,50.7736624 58.14691,50.041292 L58.14691,50.041292 C57.5031252,50.7729479 56.7896764,51.4407327 56.0165671,52.0352832 Z" id="Path" fill="#2B70BA"></path>
                    <polygon id="Rectangle" fill="#2B70BA" transform="translate(57.942185, 62.128295) rotate(-4.420000) translate(-57.942185, -62.128295) " points="56.80207 59.589644 59.0807921 59.5903186 59.0823006 64.6669451 56.8035785 64.6662706"></polygon>
                    <path d="M48.1765661,55.0459845 C51.0286029,54.8249921 53.7536339,53.7785312 56.0165671,52.0352832 L56.0165671,52.0352832 C49.9480829,56.7049975 41.2957782,55.9441933 36.14232,50.2877246 L36.14232,50.2877246 C39.2083521,53.629144 43.6447315,55.3832586 48.1765661,55.0459845 L48.1765661,55.0459845 Z" id="Path" fill="#FFB18F"></path>
                    <path d="M27.2689542,71.6555365 L28.7405447,71.5414735 C28.3269799,70.4697349 27.4951588,69.6106357 26.4349116,69.1602312 L26.5041795,70.0487965 C26.8405123,70.5420248 27.0984693,71.083975 27.2689542,71.6555365 Z" id="Path" fill="#FFB18F"></path>
                    <path d="M25.0764116,78.0585575 C24.6560888,78.3588327 24.1979036,78.6026671 23.7136707,78.7837732 L23.8903746,81.13826 C24.0184953,82.7694558 24.7649974,84.2909444 25.9783085,85.3937976 L27.1558637,80.0581814 L25.0764116,78.0585575 Z" id="Path" fill="#FFB18F"></path>
                    <path d="M43.8692305,56.9611173 L44.1307523,60.3478042 C40.5107313,59.9629918 37.0968366,58.4794065 34.3512487,56.0978993 L25.4807102,56.7808695 L26.2822393,67.112729 L57.0103502,64.7455686 L56.6173606,59.6845487 L55.0029932,59.808469 C51.0772717,60.117594 47.1599783,59.1157842 43.8692305,56.9611173 L43.8692305,56.9611173 Z" id="Path" fill="#FFB18F"></path>
                    <path d="M55.9317492,74.5578075 L50.2885317,74.9929369 C48.595611,75.1158477 47.0656453,73.9905818 46.6851847,72.3427312 L45.8765874,68.7603064 L42.7764932,69.0011062 L42.5291077,72.6623894 C42.4089215,74.3500256 41.0696104,75.6973392 39.3767092,75.8336239 L32.9376171,76.3307135 C31.934339,76.4083348 30.9475229,76.0427296 30.2389943,75.3309015 L30.2912986,75.9955653 L26.7148106,76.2772024 C26.659679,76.3701427 26.6017201,76.4602666 26.5423476,76.5503905 L27.8782294,77.8318396 L43.9936301,77.8318396 L43.3094324,80.8622555 L51.3671327,80.2426538 L49.5831296,84.4911504 C49.1442804,85.5486834 48.1457882,86.2705773 47.0004246,86.3584049 L44.2805973,86.5682246 C43.517382,86.6256425 42.7604183,86.394904 42.1601498,85.9218673 L41.5791472,88.4918064 C42.9873046,88.8435098 44.4432683,88.9661956 45.8907237,88.8551184 L48.6473054,88.6424823 C49.0225516,88.6135542 49.384786,88.7862439 49.5975584,89.0955006 C49.8103308,89.4047574 49.841316,89.8035979 49.6788422,90.1417828 C49.5163684,90.4799676 49.1851192,90.7061184 48.809873,90.7350465 L46.0532914,90.9476825 C44.39649,91.075009 42.7299098,90.9371378 41.1168897,90.5393086 L40.4878236,93.3275166 L40.4878236,93.3275166 C41.0043737,93.3068838 41.4995516,93.5341442 41.8194646,93.9386692 C41.982741,94.1587502 42.0855521,94.4174573 42.1177409,94.6892323 C47.2593227,96.0598641 52.6520623,93.5900972 54.9549298,88.8100564 L57.5814573,83.3716427 C58.0747272,82.3494819 58.2883162,81.2157007 58.200628,80.0849369 L57.7920884,74.8197301 C57.1601259,74.8717398 56.5244882,74.7822466 55.9317492,74.5578075 L55.9317492,74.5578075 Z" id="Path" fill="#FFB18F"></path>
                    <path d="M40.4821691,93.3317412 L40.4821691,93.3317412 L39.7923169,93.785177 C40.5288287,94.1735121 41.3070183,94.4777312 42.1120864,94.6920487 C42.0798976,94.4202737 41.9770865,94.1615665 41.8138101,93.9414856 C41.493603,93.5374884 40.9984714,93.3107729 40.4821691,93.3317412 L40.4821691,93.3317412 Z" id="Path" fill="#FFB18F"></path>
                    <path d="M37.2788798,92.3037655 L38.2401493,92.8797135 L40.4793418,93.3289248 L40.4793418,93.3289248 L41.1084079,90.5407168 C38.450577,89.8868336 36.0126646,88.5467758 34.0402497,86.6555321 L27.1615182,80.0595896 L25.9839631,85.3952058 C26.2998507,85.6828389 26.6436371,85.9385061 27.0102596,86.1584425 L37.2788798,92.3037655 Z" id="Path" fill="#FFB18F"></path>
                    <path d="M41.5734927,88.4918064 L42.1544953,85.9218673 C41.8710198,85.6981934 41.6293585,85.4264779 41.4406113,85.1192013 L39.0374376,81.1847301 L43.2981233,80.8566228 L43.982321,77.8262069 L27.8669204,77.8262069 L35.5005312,85.1487732 C37.1977815,86.7713004 39.291291,87.9237319 41.5734927,88.4918064 L41.5734927,88.4918064 Z" id="Path" fill="#FFB18F"></path>
                    <path d="M38.2401493,92.8797135 L39.2607914,93.489458 C39.4360817,93.5936637 39.6127856,93.6922367 39.7923169,93.7865852 L40.4793418,93.3289248 L38.2401493,92.8797135 Z" id="Path" fill="#FFB18F"></path>
                    <path d="M56.7375193,74.493031 L55.9317492,74.5549912 C56.5224071,74.7800308 57.1560285,74.8709554 57.7864339,74.8211383 L57.7426113,74.2578639 C57.4215459,74.3867453 57.0826112,74.4660478 56.7375193,74.493031 Z" id="Path" fill="#FFB18F"></path>
                    <polygon id="Path" fill="#FFB18F" points="57.003282 64.7455686 57.003282 64.7455686 56.6102924 59.6845487 56.6102924 59.6845487"></polygon>
                    <polygon id="Path" fill="#FFB18F" points="56.0165671 52.0352832 56.0165671 52.033875 56.0165671 52.0352832 56.0165671 52.0352832"></polygon>
                    <polygon id="Path" fill="#2B70BA" points="28.946935 46.2997423 33.3546384 45.9617777 33.3546384 45.9617777 33.3546384 45.9519204 28.9497622 46.2912931"></polygon>
                    <path d="M34.8841878,48.7232301 C34.7216202,48.4908794 34.5632934,48.2543042 34.4134485,48.0191372 C34.5632934,48.2613451 34.7216202,48.4979204 34.8841878,48.7232301 Z" id="Path" fill="#2B70BA"></path>
                    <polygon id="Path" fill="#2B70BA" points="32.2746238 41.4795221 46.7728299 40.3628308 46.7714162 40.3628308 28.597768 41.7625675 28.5963543 41.7625675 32.2746238 41.4795221"></polygon>
                    <polygon id="Path" fill="#2B70BA" points="22.0257945 57.0470166 21.45186 57.0906704 21.45186 57.1455896 22.2491483 67.4253462 22.8244964 67.3802843"></polygon>
                    <path d="M19.3554443,57.3131637 L19.3554443,57.2582445 L17.4852097,57.3990631 L17.5968866,58.8480863 L18.347525,68.5124657 C18.9004005,68.1335632 19.514994,67.8529398 20.1640416,67.6830442 L19.3554443,57.3131637 Z" id="Path" fill="#2B70BA"></path>
                    <polygon id="Path" fill="#2B70BA" points="25.043898 42.0357555 16.3401681 42.706052 16.3401681 42.7074602 25.043898 42.0371637"></polygon>
                    <path d="M26.5027659,70.0487965 L26.4334979,69.1602312 C26.1165648,69.0260812 25.7841957,68.9314845 25.4439558,68.878594 C25.848055,69.219516 26.2041959,69.6131248 26.5027659,70.0487965 L26.5027659,70.0487965 Z" id="Path" fill="#2B70BA"></path>
                    <path d="M36.14232,50.2877246 L36.14232,50.2877246 C35.6886377,49.7960326 35.2683303,49.2747893 34.8841878,48.7274546 L34.8841878,48.7274546 C35.2683303,49.2747893 35.6886377,49.7960326 36.14232,50.2877246 L36.14232,50.2877246 Z" id="Path" fill="#2B70BA"></path>
                    <polygon id="Path" fill="#2B70BA" points="25.4001332 56.7865022 25.4001332 56.7865022 22.0257945 57.0470166 22.8287373 67.3774679 26.2751712 67.112729 25.473642 56.7808695"></polygon>
                    <path d="M29.3512336,73.7889381 L28.8946306,72.0174403 L28.8946306,72.0174403 C28.85253,71.858589 28.8020402,71.7020626 28.743372,71.5485144 L27.2717815,71.6625774 C27.3893947,72.0587281 27.4651987,72.4660207 27.4979625,72.8778418 C27.5905449,74.0649508 27.3157459,75.251814 26.7105697,76.2786106 L30.2870578,75.9969735 L30.2347534,75.3323097 C29.8082701,74.9048467 29.5033754,74.3722431 29.3512336,73.7889381 Z" id="Path" fill="#FFB18F"></path>
                    <path d="M65.637744,58.9889049 C65.3923464,55.7702889 63.7274068,52.8255807 61.0915047,50.9481637 C61.7962739,50.3872819 62.4470052,49.7621578 63.0352482,49.0809093 C65.4716559,46.2556431 66.6760167,42.578931 66.3813143,38.8659292 L61.7969069,39.2193838 C62.0938498,43.1692557 60.7777703,47.0713117 58.14691,50.041292 L58.8819984,59.5099336 L65.637744,58.9889049 Z" id="Path" fill="#2B70BA"></path>
                    <path d="M56.0165671,52.0352832 L56.6102924,59.6845487 L58.8819984,59.5099336 L58.14691,50.041292 C57.5038681,50.7736624 56.790346,51.4415158 56.0165671,52.0352832 Z" id="Path" fill="#2B70BA"></path>
                    <path d="M35.0057601,56.0457965 L34.3441805,56.0964912 C37.0916923,58.4793133 40.5082507,59.9629838 44.1307523,60.346396 L43.8692305,56.9597091 C47.1562742,59.1121282 51.0686385,60.1143174 54.9902706,59.808469 L56.6046379,59.6845487 L56.0109126,52.0352832 C49.9424284,56.7049975 41.2901237,55.9441933 36.1366655,50.2877246 L34.5618798,50.4102367 L35.0057601,56.0457965 Z" id="Path" fill="#2B70BA"></path>
                    <polygon id="Path" fill="#2B70BA" points="56.6102924 59.6845487 56.6102924 59.6845487 56.0165671 52.0352832 56.0165671 52.0352832"></polygon>
                    <path d="M29.1688751,49.1668086 L34.8841878,48.7232301 C34.7216202,48.4908794 34.5632934,48.2543042 34.4134485,48.0191372 C34.0090644,47.3619897 33.6573912,46.6740661 33.3617066,45.9617777 L28.9540031,46.2997423 L29.1688751,49.1668086 Z" id="Path" fill="#2B70BA"></path>
                    <path d="M34.4403075,48.7767412 L34.5675343,50.4102367 L36.14232,50.2877246 C35.6886377,49.7960326 35.2683303,49.2747893 34.8841878,48.7274546 L29.1688751,49.1668086 L29.1688751,49.1837069 L34.4403075,48.7767412 Z" id="Path" fill="#2B70BA"></path>
                    <path d="M60.284321,67.3535288 C60.3677194,66.6034119 60.9750605,66.018518 61.7304662,65.960833 L61.8718293,65.9495675 L61.750257,64.3808485 L59.2806426,64.5709535 L59.451692,66.7789889 C59.7507552,66.9375381 60.0301935,67.1303592 60.284321,67.3535288 L60.284321,67.3535288 Z" id="Path" fill="#283570"></path>
                    <path d="M59.7273502,70.3881692 L58.3844001,70.492375 L58.3278548,71.0697312 L58.3066504,71.2753263 C58.2594297,71.7756822 58.006701,72.2343452 57.6083163,72.5426936 L57.7496795,74.2620885 C58.93683,73.7909829 59.7612333,72.6998151 59.8870905,71.4330431 L60.2885619,67.3788761 C60.2885619,67.370427 60.2885619,67.3633861 60.2885619,67.3549369 C60.0326687,67.1314035 59.751315,66.9385703 59.4502784,66.7803971 L59.7273502,70.3881692 Z" id="Path" fill="#283570"></path>
                    <path d="M57.1248543,66.3030221 C57.2252222,66.3030221 57.32559,66.2931648 57.4259579,66.2917566 L58.807076,66.1847345 L58.7759761,66.49876 C59.006093,66.5733798 59.2293296,66.6676072 59.4432102,66.7803971 L59.2721608,64.5723617 L57.0004547,64.7469768 L57.1248543,66.3030221 Z" id="Path" fill="#283570"></path>
                    <path d="M59.7273502,70.3881692 L59.4446238,66.7789889 C59.2307432,66.666199 59.0075066,66.5719716 58.7773897,66.4973518 L58.3829865,70.492375 L59.7273502,70.3881692 Z" id="Path" fill="#283570"></path>
                    <path d="M57.4259579,66.2917566 C57.32559,66.2917566 57.2252222,66.2917566 57.1248543,66.3030221 L57.1248543,66.3142876 L57.4259579,66.2917566 Z" id="Path" fill="#283570"></path>
                    <path d="M54.0233465,73.1270907 L50.1669594,73.4242179 C49.2558979,73.4898254 48.4327108,72.8843763 48.2274568,71.9977257 L47.117756,67.0859735 L56.8279917,66.3382268 C56.9269459,66.3241449 57.0273137,66.3114712 57.1290952,66.3030221 L57.0075229,64.7455686 L26.2751712,67.112729 L26.4349116,69.1602312 C27.4940491,69.6093352 28.325702,70.4662289 28.7405447,71.5358407 L29.9308226,71.4443086 L30.2319261,75.3379425 C30.9404548,76.0497706 31.9272708,76.4153757 32.9305489,76.3377544 L39.3767092,75.8406648 C41.0720951,75.7039336 42.4122605,74.3527673 42.5291077,72.6623894 L42.7764932,69.0011062 L45.8765874,68.7631228 L46.6851847,72.3455476 C47.0656453,73.9933981 48.595611,75.1186641 50.2885317,74.9957533 L55.9317492,74.5606239 C55.1725197,74.2718221 54.5108752,73.7748151 54.0233465,73.1270907 L54.0233465,73.1270907 Z M40.9529084,72.5638164 C40.8876704,73.4719942 40.1674846,74.1971776 39.2565505,74.2719458 L32.8103902,74.7676272 C31.9191193,74.8378467 31.106442,74.2589199 30.8850239,73.3960542 L29.5986191,68.4378319 L41.2907664,67.5380011 L40.9529084,72.5638164 Z M44.2042612,67.3169159 L44.0826889,65.7481969 L46.0843913,65.5876637 L46.2059636,67.1563827 L44.2042612,67.3169159 Z" id="Shape" fill="#283570"></path>
                    <path d="M57.1248543,66.3156958 L57.1248543,66.3030221 C57.0230728,66.3114712 56.922705,66.3241449 56.8237508,66.3382268 L57.1248543,66.3156958 Z" id="Path" fill="#283570"></path>
                    <path d="M54.0233465,73.1270907 C54.5112614,73.7737764 55.1728681,74.2697785 55.9317492,74.5578075 L56.7375193,74.4958473 C57.0826112,74.4688641 57.4215459,74.3895617 57.7426113,74.2606803 L57.6012482,72.5412854 C57.3167414,72.7641647 56.9724997,72.8983917 56.611706,72.9271283 L54.0233465,73.1270907 Z" id="Path" fill="#283570"></path>
                    <polygon id="Path" fill="#283570" points="57.1248543 66.3030221 57.1248543 66.3030221 57.1248543 66.3030221 57.003282 64.7455686 57.003282 64.7455686"></polygon>
                    <polygon id="Path" fill="#283570" points="57.1248543 66.3030221 57.1248543 66.3156958 57.1248543 66.3156958 57.1248543 66.3030221 57.1248543 66.3030221"></polygon>
                    <path d="M22.8457008,67.6084104 L22.8287373,67.3774679 L22.2533892,67.4225299 L22.2604573,67.5182865 C22.4583658,67.5394093 22.6534469,67.5689812 22.8457008,67.6084104 Z" id="Path" fill="#283570"></path>
                    <path d="M22.8457008,67.6084104 C23.8060692,67.8070569 24.7009544,68.2428494 25.4481967,68.8757777 C25.7884366,68.9286681 26.1208057,69.0232649 26.4377388,69.1574148 L26.2794121,67.1099126 L22.8329781,67.3746515 L22.8457008,67.6084104 Z" id="Path" fill="#283570"></path>
                    <path d="M28.7405447,71.5358407 C28.7992129,71.6893889 28.8497027,71.8459154 28.8918033,72.0047666 L28.8918033,72.0047666 L29.3512336,73.7889381 C29.5016464,74.3739597 29.8056078,74.9085817 30.2319261,75.3379425 L29.9308226,71.4569823 L28.7405447,71.5358407 Z" id="Path" fill="#283570"></path>
                    <polygon id="Rectangle" fill="#283570" transform="translate(45.145255, 66.451400) rotate(-4.420000) translate(-45.145255, -66.451400) " points="44.1427792 65.6639092 46.1472629 65.6645026 46.1477308 67.2388905 44.143247 67.2382971"></polygon>
                    <path d="M27.8711613,77.8262069 L26.5352794,76.5447577 C26.143794,77.1322145 25.6496768,77.6449371 25.0764116,78.0585575 L27.1615182,80.0581814 L27.6548757,77.8262069 L27.8711613,77.8262069 Z" id="Path" fill="#283570"></path>
                    <path d="M46.0476368,90.9476825 L48.8042185,90.7350465 C49.1794647,90.7061184 49.5107139,90.4799676 49.6731877,90.1417828 C49.8356615,89.8035979 49.8046762,89.4047574 49.5919038,89.0955006 C49.3791314,88.7862439 49.0168971,88.6135542 48.6416509,88.6424823 L45.8850692,88.8565265 C44.4376137,88.9676038 42.9816501,88.844918 41.5734927,88.4932146 L41.1112352,90.5463496 C42.7246378,90.9418158 44.391213,91.0773096 46.0476368,90.9476825 Z" id="Path" fill="#283570"></path>
                    <path d="M35.5019448,85.1431405 L27.868334,77.8205741 L27.6520484,77.8205741 L27.1586909,80.0525487 L34.0374225,86.6484912 C36.0098374,88.5397349 38.4477498,89.8797926 41.1055806,90.5336759 L41.5678382,88.4861737 C39.2881584,87.9169646 37.1972128,86.7646034 35.5019448,85.1431405 L35.5019448,85.1431405 Z" id="Path" fill="#283570"></path>
                    <path d="M17.0017477,51.2312091 L16.6921623,47.237594 L16.6921623,47.237594 L16.6525806,46.7250144 C16.5352492,46.6757279 16.4207451,46.6208086 16.3090682,46.563073 C13.4537002,49.5805631 12.010993,53.6593055 12.3367633,57.7933551 L17.4809688,57.3962467 L17.0017477,51.2312091 L17.0017477,51.2312091 Z" id="Path" fill="#2B70BA"></path>
                    <polygon id="Path" fill="#2B70BA" points="22.0257945 57.0470166 21.45186 57.0906704 21.45186 57.0906704 22.0257945 57.0470166"></polygon>
                    <polygon id="Path" fill="#2B70BA" points="28.946935 46.2997423 28.946935 46.2912931 24.023256 46.6700951 24.023256 46.6771361"></polygon>
                    <polygon id="Path" fill="#2B70BA" points="19.3512034 57.2526117 17.4809688 57.3962467 17.0017477 51.2312091 17.0017477 51.2312091 17.4809688 57.3962467 19.3512034 57.2526117"></polygon>
                    <path d="M21.4872008,46.865833 L18.7843371,47.0742445 C18.0554088,47.1309995 17.3235195,47.0111789 16.651167,46.7250144 L16.6907487,47.237594 L21.4872008,46.8700575 L21.4872008,46.865833 Z" id="Path" fill="#2B70BA"></path>
                    <polygon id="Path" fill="#2B70BA" points="25.4001332 56.7865022 22.0257945 57.0470166 22.0257945 57.0470166 25.4001332 56.7865022"></polygon>
                    <polygon id="Path" fill="#2B70BA" points="16.6921623 47.237594 17.0017477 51.2312091 17.0017477 51.2312091 16.6921623 47.237594"></polygon>
                    <path d="M22.5290473,49.6793883 L29.173116,49.1668086 L28.9511759,46.2997423 L24.023256,46.6771361 C23.4285743,47.6272197 22.928145,48.6327118 22.5290473,49.6793883 L22.5290473,49.6793883 Z" id="Path" fill="#2B70BA"></path>
                    <path d="M20.2290687,49.8723097 C20.5641476,48.8385374 20.9849761,47.8343239 21.4872008,46.8700575 L16.693576,47.237594 L17.0031613,51.2312091 L17.0031613,51.2312091 L16.9183434,50.1271914 L20.2290687,49.8723097 Z" id="Path" fill="#2B70BA"></path>
                    <polygon id="Path" fill="#2B70BA" points="22.5219792 49.6948783 29.1660479 49.1837069 29.1660479 49.1668086 22.5219792 49.6793883"></polygon>
                    <path d="M16.6158262,46.2476394 L16.3330999,42.7074602 L13.8818626,42.8961571 C14.0044586,44.4494084 14.9180571,45.8315378 16.302,46.5574403 C16.409436,46.4560509 16.5112175,46.3518451 16.6158262,46.2476394 Z" id="Path" fill="#739ED7"></path>
                    <path d="M25.0099709,42.069552 L25.043898,42.0371637 L16.3401681,42.7074602 L16.6228944,46.2476394 C18.8869771,43.9819153 21.8319925,42.514833 25.0099709,42.069552 Z" id="Path" fill="#739ED7"></path>
                    <path d="M28.9455213,46.2912931 L33.3503975,45.9519204 C32.7561219,44.5274155 32.393457,43.0176965 32.2760375,41.4795221 L28.6005952,41.7611593 L28.6005952,41.7611593 L28.9455213,46.2912931 Z" id="Path" fill="#739ED7"></path>
                    <path d="M16.6158262,46.2476394 C16.5112175,46.3518451 16.409436,46.4560509 16.3090682,46.563073 C16.4207451,46.6208086 16.5352492,46.6757279 16.6525806,46.7250144 L16.6158262,46.2476394 Z" id="Path" fill="#739ED7"></path>
                    <path d="M28.5949407,41.7653838 C26.7677138,43.0916578 25.2148982,44.7570741 24.0218424,46.6700951 L28.9455213,46.2912931 L28.5949407,41.7653838 Z" id="Path" fill="#739ED7"></path>
                    <path d="M18.7857508,47.0742445 L21.4872008,46.865833 C22.4097918,45.0982925 23.5971857,43.4809968 25.0085572,42.069552 C21.8280671,42.513365 18.8803571,43.9805532 16.6144126,46.2476394 L16.651167,46.7250144 C17.3239512,47.0114043 18.0563532,47.1312294 18.7857508,47.0742445 Z" id="Path" fill="#739ED7"></path>
                    <path d="M30.1513491,50.760875 L25.0368299,51.1509425 L25.473642,56.7836858 L34.3512487,56.0978993 C32.6192276,54.6050042 31.1931195,52.7927766 30.1513491,50.760875 L30.1513491,50.760875 Z" id="Path" fill="#2B70BA"></path>
                    <polygon id="Rectangle" fill="#2B70BA" transform="translate(25.487778, 54.034738) rotate(-4.573921) translate(-25.487778, -54.034738) " points="25.4500367 51.202224 25.5237786 51.2022466 25.52552 56.8672522 25.4517781 56.8672296"></polygon>
                    <path d="M29.2975156,50.8157942 L25.0354162,51.1439015 L25.0354162,51.1509425 L30.1499355,50.760875 C31.1921242,52.7928982 32.6187192,54.6051345 34.3512487,56.0978993 L35.0128283,56.0472046 L34.5746025,50.4144613 L29.3045838,50.8200188 L29.2975156,50.8157942 Z" id="Path" fill="#2B70BA"></path>
                    <polygon id="Rectangle" fill="#2B70BA" transform="translate(31.867832, 49.797576) rotate(-4.420000) translate(-31.867832, -49.797576) " points="29.2241576 48.9779145 34.511019 48.9794795 34.5115056 50.6172372 29.2246443 50.6156723"></polygon>
                    <polygon id="Path" fill="#2B70BA" points="25.0354162 51.1439015 24.9619074 51.1495343 24.9619074 51.1565752 25.0368299 51.1509425"></polygon>
                    <path d="M19.7682248,51.5536836 L19.180154,51.5973374 C18.4348254,51.6559831 17.6865001,51.5302108 17.0017477,51.2312091 L17.4809688,57.3962467 L19.3512034,57.2554281 C19.2072748,55.3447602 19.3478022,53.4233927 19.7682248,51.5536836 Z" id="Path" fill="#2B70BA"></path>
                    <path d="M21.6879365,52.6830487 C21.4211796,54.136251 21.3418455,55.617443 21.45186,57.0906704 L22.0257945,57.0470166 L21.6879365,52.6830487 Z" id="Path" fill="#2B70BA"></path>
                    <path d="M25.4001332,56.7865022 L24.9619074,51.1537588 L21.9791446,51.381885 C21.8660541,51.8090347 21.7689847,52.2418171 21.6879365,52.6802323 L22.0257945,57.0456084 L25.4001332,56.7865022 Z" id="Path" fill="#2B70BA"></path>
                    <polygon id="Path" fill="#2B70BA" points="29.2975156 50.8157942 25.0354162 51.1439015 25.0354162 51.1439015 29.2975156 50.8157942"></polygon>
                    <path d="M19.180154,51.5973374 L19.7682248,51.5536836 C19.896394,50.982899 20.0500087,50.422441 20.2290687,49.8723097 L16.9169298,50.1314159 L17.0017477,51.2354336 C17.6868666,51.5329913 18.4351774,51.65731 19.180154,51.5973374 L19.180154,51.5973374 Z" id="Path" fill="#2B70BA"></path>
                    <path d="M25.0354162,51.1439015 L25.0354162,51.1439015 L29.2975156,50.8157942 L29.1702888,49.1837069 L22.5262201,49.6948783 C22.3164655,50.2485628 22.1352839,50.8125742 21.9833855,51.3847013 L24.9661483,51.1565752 L24.9661483,51.1565752 L25.0354162,51.1439015 Z" id="Path" fill="#2B70BA"></path>
                    <path d="M37.4880973,38.4998009 C40.6958541,38.2551959 43.9089684,38.9000222 46.7714162,40.3628308 L47.0343517,40.3431162 L48.5624875,38.9433794 C40.9216534,34.559495 31.2782156,35.8297861 25.043898,42.0413883 L28.597768,41.7682002 C31.1985318,39.8765549 34.2772441,38.7447114 37.4880973,38.4998009 L37.4880973,38.4998009 Z" id="Path" fill="#283570"></path>
                    <polygon id="Path" fill="#283570" points="47.0343517 40.3431162 47.0343517 40.3431162 46.7714162 40.3628308 46.7728299 40.3628308"></polygon>
                    <path d="M21.2044745,67.5042046 L21.2044745,67.5042046 L22.2548028,67.4239381 L21.4575146,57.1441814 L21.4575146,57.0892622 L19.356858,57.2512035 L19.356858,57.3061228 L20.1612144,67.6788197 C20.5029384,67.588976 20.8521103,67.5300623 21.2044745,67.5027965 L21.2044745,67.5042046 Z" id="Path" fill="#283570"></path>
                    <polygon id="Path" fill="#283570" points="25.9415541 41.9681626 25.9429677 41.9681626 28.5949407 41.7639757 28.5949407 41.7639757 28.5963543 41.7625675 28.597768 41.7625675 25.043898 42.0357555 25.043898 42.0371637"></polygon>
                    <path d="M22.2604573,67.5182865 L22.2533892,67.4225299 L21.2030609,67.5027965 L21.2030609,67.5027965 C21.5552715,67.4761005 21.9091871,67.4812851 22.2604573,67.5182865 L22.2604573,67.5182865 Z" id="Path" fill="#283570"></path>
                    <polygon id="Path" fill="#283570" points="28.5949407 41.7639757 25.9429677 41.9681626 25.9415541 41.9681626 28.5949407 41.7639757"></polygon>
                    <polygon id="Path" fill="#283570" points="24.0218424 46.6700951 21.4872008 46.865833 21.4872008 46.865833 24.0204287 46.6729115"></polygon>
                    <polygon id="Path" fill="#283570" points="21.45186 57.0906704 19.3512034 57.2526117 19.3512034 57.2526117 21.45186 57.0906704"></polygon>
                    <path d="M21.4603418,49.7610631 L22.5290473,49.6793883 C22.926791,48.6328732 23.4257973,47.6273865 24.0190151,46.6771361 L21.4872008,46.8700575 C20.9854602,47.8343693 20.565105,48.8385817 20.2304823,49.8723097 L21.4631691,49.7765531 L21.4603418,49.7610631 Z" id="Path" fill="#283570"></path>
                    <polygon id="Path" fill="#283570" points="21.4603418 49.7610631 21.4603418 49.7765531 22.5205656 49.6948783 22.5276337 49.6793883"></polygon>
                    <path d="M25.043898,42.0371637 L25.0099709,42.069552 C25.3181426,42.0273064 25.6277279,41.9921018 25.9415541,41.9681626 L25.043898,42.0371637 Z" id="Path" fill="#283570"></path>
                    <path d="M21.4872008,46.865833 L24.0204287,46.6700951 C25.2134846,44.7570741 26.7663002,43.0916578 28.5935271,41.7653838 L28.5935271,41.7653838 L25.9415541,41.9639381 C25.6277279,41.9878772 25.3181426,42.0230819 25.0099709,42.0653274 C23.5977488,43.4779587 22.4098586,45.0967058 21.4872008,46.865833 Z" id="Path" fill="#283570"></path>
                    <path d="M21.6879365,52.6830487 L21.5889823,51.4156814 L19.7682248,51.5565 C19.3457121,53.4249452 19.2028042,55.3453467 19.3441353,57.2554281 L21.4447919,57.0934867 C21.3368655,55.6190259 21.4185758,54.1368699 21.6879365,52.6830487 L21.6879365,52.6830487 Z" id="Path" fill="#283570"></path>
                    <path d="M21.5889823,51.4142732 L21.6879365,52.6816405 C21.7689847,52.2422865 21.8660541,51.8095041 21.9791446,51.3832931 L21.5889823,51.4142732 Z" id="Path" fill="#283570"></path>
                    <path d="M20.2290687,49.8723097 C20.0509511,50.422441 19.8973365,50.982899 19.7682248,51.5536836 L21.5889823,51.412865 L21.4617555,49.7751449 L20.2290687,49.8723097 Z" id="Path" fill="#283570"></path>
                    <path d="M22.5219792,49.6948783 L21.4617555,49.7765531 L21.5889823,51.4142732 L21.9791446,51.3847013 C22.131043,50.8125742 22.3122246,50.2485628 22.5219792,49.6948783 L22.5219792,49.6948783 Z" id="Path" fill="#283570"></path>
                    <path d="M23.5030395,76.5503905 C22.2929084,77.6531329 20.5574225,77.9718674 19.0320817,77.371514 C17.5067409,76.7711607 16.4586452,75.3568466 16.3319781,73.7279587 C16.2053111,72.0990708 17.0222531,70.5408411 18.4365838,69.7136482 L18.3432841,68.5096493 C15.8851441,70.1721831 15.0662113,73.4048625 16.4381083,76.0301961 C17.8100054,78.6555298 20.9379868,79.841566 23.7150843,78.789406 L23.5440349,76.5940442 L23.5030395,76.5503905 Z" id="Path" fill="#283570"></path>
                    <path d="M26.5352794,76.5447577 C26.5946519,76.4546338 26.6526108,76.36451 26.7077425,76.2715697 L26.283653,76.303958 L26.5352794,76.5447577 Z" id="Path" fill="#283570"></path>
                    <path d="M23.5426212,76.5884115 L23.7136707,78.7837732 C24.1979036,78.6026671 24.6560888,78.3588327 25.0764116,78.0585575 L23.5426212,76.5884115 Z" id="Path" fill="#283570"></path>
                    <path d="M26.6314063,71.704823 L27.2689542,71.6555365 C27.0980305,71.0838913 26.8395946,70.5419367 26.5027659,70.0487965 L26.6314063,71.704823 Z" id="Path" fill="#283570"></path>
                    <path d="M22.9503096,68.9475951 L22.3749615,68.9912489 L22.4173704,69.5291759 C22.6276885,69.6279048 22.829977,69.7427839 23.0224048,69.8727732 L22.9503096,68.9475951 Z" id="Path" fill="#283570"></path>
                    <path d="M20.2728913,69.1419248 L20.2728913,69.1419248 L20.1583871,67.6802279 C19.5093395,67.8501235 18.894746,68.1307469 18.3418704,68.5096493 L18.4351701,69.7136482 C18.9963552,69.3868532 19.6247487,69.1913571 20.2728913,69.1419248 L20.2728913,69.1419248 Z" id="Path" fill="#283570"></path>
                    <path d="M25.4453694,68.8757777 C25.1094771,68.8213249 24.7682467,68.807142 24.4289683,68.8335321 L22.9474823,68.9475951 L23.0195775,69.8727732 C23.1758444,69.9800297 23.3250525,70.097149 23.4662851,70.2234115 C24.1098309,70.5973974 24.6214109,71.1606238 24.9308075,71.8357843 L26.6271655,71.704823 L26.498525,70.0487965 C26.2018984,69.6124898 25.8476663,69.2179413 25.4453694,68.8757777 L25.4453694,68.8757777 Z" id="Path" fill="#283570"></path>
                    <path d="M27.4951353,72.8708009 C27.4623714,72.4589798 27.3865675,72.0516872 27.2689542,71.6555365 L26.6314063,71.704823 L26.7275333,72.9313529 L25.2446337,73.0454159 C25.297016,73.7013394 25.1658779,74.3588911 24.8657804,74.9450586 L26.2794121,76.303958 L26.7035016,76.2715697 C27.3101544,75.245243 27.5864405,74.0583494 27.4951353,72.8708009 L27.4951353,72.8708009 Z" id="Path" fill="#283570"></path>
                    <path d="M25.2446337,73.0440077 L25.2446337,73.0440077 L26.7275333,72.9299447 L26.6314063,71.7034148 L24.9350484,71.8343761 C25.1089048,72.2162946 25.2137084,72.6257897 25.2446337,73.0440077 L25.2446337,73.0440077 Z" id="Path" fill="#283570"></path>
                    <path d="M22.8457008,67.6084104 C22.6534469,67.5689812 22.4583658,67.5394093 22.2604573,67.5182865 L22.3749615,68.9912489 L22.9503096,68.9475951 L22.8457008,67.6084104 Z" id="Path" fill="#283570"></path>
                    <path d="M25.4453694,68.8757777 C24.6981271,68.2428494 23.803242,67.8070569 22.8428736,67.6084104 L22.9474823,68.9475951 L24.4289683,68.8335321 C24.7682467,68.807142 25.1094771,68.8213249 25.4453694,68.8757777 L25.4453694,68.8757777 Z" id="Path" fill="#283570"></path>
                    <path d="M21.9324948,76.8982124 C20.5875479,77.0012919 19.2975105,76.3471437 18.5897967,75.2032074 C17.8820829,74.0592712 17.8753275,72.617306 18.5722924,71.4668396 L18.4309292,69.7136482 C17.0108329,70.5383627 16.188611,72.0988432 16.3138821,73.731555 C16.4391533,75.3642667 17.4898923,76.7821478 19.0193126,77.3822985 C20.5487329,77.9824492 22.2879332,77.6593516 23.497385,76.5503905 L23.3998444,76.456042 C22.9480389,76.7061245 22.4476976,76.856897 21.9324948,76.8982124 Z" id="Path" fill="#283570"></path>
                    <path d="M20.3393319,69.9868363 L20.2743049,69.1419248 L20.2743049,69.1419248 C19.6261623,69.1913571 18.9977688,69.3868532 18.4365838,69.7136482 L18.5779469,71.4668396 C18.9873492,70.7953679 19.6058962,70.275634 20.3393319,69.9868363 L20.3393319,69.9868363 Z" id="Path" fill="#283570"></path>
                    <path d="M23.0224048,69.8727732 C22.829977,69.7427839 22.6276885,69.6279048 22.4173704,69.5291759 L22.4399886,69.8192622 C22.6425237,69.8643921 22.8407142,69.9270598 23.0323002,70.0065509 L23.0224048,69.8727732 Z" id="Path" fill="#283570"></path>
                    <path d="M23.0224048,69.8727732 L23.0323002,70.0065509 C23.1825392,70.0691773 23.3284609,70.1416219 23.4691124,70.2234115 C23.3278798,70.097149 23.1786716,69.9800297 23.0224048,69.8727732 L23.0224048,69.8727732 Z" id="Path" fill="#283570"></path>
                    <polygon id="Path" fill="#283570" points="23.5030395 76.5503905 23.5426212 76.5884115 23.5426212 76.5180022"></polygon>
                    <path d="M26.5352794,76.5447577 L26.283653,76.303958 L23.5412076,76.5151858 L23.5412076,76.5151858 L23.5412076,76.5855951 L25.0749979,78.0557412 C25.6485191,77.6430877 26.1431072,77.1313272 26.5352794,76.5447577 Z" id="Path" fill="#283570"></path>
                    <path d="M23.9257154,76.1054038 C23.8064594,76.2500345 23.6780273,76.3869087 23.5412076,76.5151858 L26.283653,76.303958 L24.8700213,74.9450586 C24.6402064,75.3933873 24.3185057,75.788687 23.9257154,76.1054038 Z" id="Path" fill="#283570"></path>
                    <path d="M23.5270713,76.3842246 C23.4874896,76.4095719 23.4464943,76.4335111 23.405499,76.456042 L23.5030395,76.5503905 L23.5383803,76.5180022 L23.5270713,76.3842246 Z" id="Path" fill="#283570"></path>
                    <polygon id="Path" fill="#283570" points="23.5270713 76.3842246 23.5270713 76.3842246 23.5383803 76.5250431 23.5383803 76.5250431 23.5383803 76.5250431"></polygon>
                    <path d="M23.9257154,76.1054038 C23.7993961,76.2081755 23.6662075,76.3022716 23.5270713,76.3870409 L23.5369667,76.5180022 L23.5369667,76.5180022 C23.6753346,76.3889529 23.805188,76.2511331 23.9257154,76.1054038 L23.9257154,76.1054038 Z" id="Path" fill="#283570"></path>
                    <path d="M22.4173704,69.5291759 L22.3749615,68.9912489 L21.3260468,69.0729237 L21.2044745,67.5042046 L21.2044745,67.5042046 C20.8521103,67.5314704 20.5029384,67.5903842 20.1612144,67.6802279 L20.2757185,69.1419248 C21.0112002,69.0845082 21.7490668,69.2179284 22.4173704,69.5291759 L22.4173704,69.5291759 Z" id="Path" fill="#283570"></path>
                    <path d="M21.2044745,67.5042046 L21.3260468,69.0729237 L22.3749615,68.9912489 L22.2604573,67.5182865 C21.909612,67.4818394 21.5561735,67.4771262 21.2044745,67.5042046 L21.2044745,67.5042046 Z" id="Path" fill="#283570"></path>
                    <path d="M21.3769376,69.7446283 C21.7330444,69.7173391 22.0912444,69.7424873 22.4399886,69.8192622 L22.4173704,69.5291759 C21.7486416,69.2176877 21.0102562,69.0842617 20.2743049,69.1419248 L20.3393319,69.9868363 C20.6711993,69.8551955 21.0209097,69.7735626 21.3769376,69.7446283 Z" id="Path" fill="#283570"></path>
                    <path d="M24.6056722,71.8611316 L24.9336348,71.8357843 C24.6234922,71.1602189 24.1108818,70.5969455 23.4662851,70.2234115 C23.9703505,70.6722319 24.360763,71.2333988 24.6056722,71.8611316 L24.6056722,71.8611316 Z" id="Path" fill="#3056C4"></path>
                    <path d="M24.6735265,74.7591781 L24.8657804,74.9450586 C25.1658779,74.3588911 25.297016,73.7013394 25.2446337,73.0454159 L24.8813304,73.0735796 C24.9258749,73.6436343 24.855214,74.2167993 24.6735265,74.7591781 L24.6735265,74.7591781 Z" id="Path" fill="#3056C4"></path>
                    <path d="M24.9336348,71.8357843 L24.6056722,71.8611316 C24.7558884,72.2494015 24.8487422,72.6573329 24.8813304,73.0721715 L24.8813304,73.0721715 L25.2446337,73.0440077 L25.2446337,73.0440077 C25.2130973,72.6261825 25.1078179,72.2171744 24.9336348,71.8357843 L24.9336348,71.8357843 Z" id="Path" fill="#3056C4"></path>
                    <polygon id="Path" fill="#3056C4" points="23.0619865 73.2143982 23.2994766 73.4411162 23.2796857 73.1975"></polygon>
                    <path d="M20.6050947,73.4030951 L18.73486,73.5439137 L18.5722924,71.4640232 C17.7273385,72.8559437 17.9285158,74.6400239 19.0624143,75.81052 C20.1963128,76.981016 21.9789925,77.2448235 23.405499,76.4532257 L20.9217482,74.0776162 C20.7370592,73.8988329 20.6244266,73.6589082 20.6050947,73.4030951 L20.6050947,73.4030951 Z" id="Path" fill="#3056C4"></path>
                    <polygon id="Path" fill="#3056C4" points="23.2796857 73.1975 23.2994766 73.4411162 23.2994766 73.4411162 23.2796857 73.1975"></polygon>
                    <path d="M21.832127,72.2878119 C22.0408786,72.3233825 22.2337335,72.4216495 22.3848569,72.5694491 L23.0619865,73.2186228 L23.2796857,73.2017246 L23.0323002,70.0107754 C22.8407142,69.9312844 22.6425237,69.8686166 22.4399886,69.8234867 L22.5474246,71.2175907 C22.582084,71.6951305 22.2877827,72.1354612 21.832127,72.2878119 L21.832127,72.2878119 Z" id="Path" fill="#3056C4"></path>
                    <path d="M20.6050947,73.4030951 C20.5809759,73.1040643 20.6870471,72.8091322 20.8963028,72.5933883 C21.0135975,72.4713474 21.159245,72.3799429 21.3203923,72.3272412 C20.8444208,72.2461801 20.4845249,71.8534439 20.446768,71.3738993 L20.3393319,69.9812035 C19.6029669,70.270417 18.9822038,70.7923228 18.5722924,71.4668396 L18.73486,73.5467301 L20.6050947,73.4030951 Z" id="Path" fill="#3056C4"></path>
                    <path d="M23.1835588,71.9695619 L24.6042586,71.8611316 C24.36179,71.234247 23.974336,70.6731555 23.4733533,70.2234115 C23.3327018,70.1416219 23.18678,70.0691773 23.0365411,70.0065509 L23.2839266,73.1975 L23.2839266,73.1975 L23.1835588,71.9695619 Z" id="Path" fill="#3056C4"></path>
                    <path d="M24.8799168,73.0735796 L23.2782721,73.1975 L23.298063,73.4411162 L24.6721129,74.7591781 C24.8538003,74.2167993 24.9244612,73.6436343 24.8799168,73.0735796 L24.8799168,73.0735796 Z" id="Path" fill="#3056C4"></path>
                    <path d="M23.2796857,73.1975 L24.8813304,73.0735796 L24.8813304,73.0735796 C24.8487422,72.6587411 24.7558884,72.2508097 24.6056722,71.8625398 L23.1849724,71.9709701 L23.2796857,73.1975 Z" id="Path" fill="#3056C4"></path>
                    <path d="M23.9257154,76.1054038 C24.3169721,75.7882569 24.6372029,75.3929881 24.8657804,74.9450586 L24.6735265,74.7591781 C24.5072365,75.2489262 24.2539398,75.7049164 23.9257154,76.1054038 L23.9257154,76.1054038 Z" id="Path" fill="#3056C4"></path>
                    <path d="M23.0619865,73.2143982 L20.6050947,73.4030951 C20.6251829,73.6592929 20.7388457,73.8992696 20.9245754,74.0776162 L23.405499,76.456042 C23.4464943,76.4335111 23.4874896,76.4095719 23.5270713,76.3842246 L23.2994766,73.4411162 L23.0619865,73.2143982 Z" id="Path" fill="#3056C4"></path>
                    <polygon id="Path" fill="#3056C4" points="23.2994766 73.4411162 23.2994766 73.4411162 23.5270713 76.3842246 23.5270713 76.3842246"></polygon>
                    <path d="M21.832127,72.2878119 C21.7501952,72.3152702 21.6652326,72.3327647 21.5790869,72.3399148 C21.4926613,72.3463818 21.4057638,72.3421246 21.3203923,72.3272412 C21.159245,72.3799429 21.0135975,72.4713474 20.8963028,72.5933883 C20.6870471,72.8091322 20.5809759,73.1040643 20.6050947,73.4030951 L23.0619865,73.2143982 L22.3848569,72.5652246 C22.2331815,72.418968 22.0403823,72.322203 21.832127,72.2878119 Z" id="Path" fill="#3056C4"></path>
                    <path d="M23.2994766,73.4411162 L23.5270713,76.3842246 C23.6662075,76.2994552 23.7993961,76.2053591 23.9257154,76.1025874 C24.2539398,75.7021001 24.5072365,75.2461098 24.6735265,74.7563617 L23.2994766,73.4411162 Z" id="Path" fill="#3056C4"></path>
                    <path d="M21.3203923,72.3272412 C21.4850605,72.2720858 21.660903,72.2585371 21.832127,72.2878119 C22.2894097,72.1350732 22.5840991,71.6924214 22.5474246,71.2133662 L22.4399886,69.8192622 C22.0912444,69.7424873 21.7330444,69.7173391 21.3769376,69.7446283 C21.0212003,69.7717587 20.6714991,69.851491 20.3393319,69.9812035 L20.446768,71.3738993 C20.4845249,71.8534439 20.8444208,72.2461801 21.3203923,72.3272412 Z" id="Path" fill="#3056C4"></path>
                    <path d="M21.5790869,72.3399148 C21.6652326,72.3327647 21.7501952,72.3152702 21.832127,72.2878119 C21.660903,72.2585371 21.4850605,72.2720858 21.3203923,72.3272412 C21.4057638,72.3421246 21.4926613,72.3463818 21.5790869,72.3399148 L21.5790869,72.3399148 Z" id="Path" fill="#3056C4"></path>
                    <path d="M50.333768,40.0882345 L54.8093257,39.743229 L55.3846738,47.1474701 L55.6363002,47.1291637 L55.0609521,39.7263308 L57.3326582,39.5503075 L58.14691,50.041292 C60.7773448,47.071067 62.0933624,43.1691948 61.7969069,39.2193838 L61.7969069,39.205302 C61.5403576,35.9077089 60.1787028,32.7916872 57.9306243,30.3576704 L48.5639011,38.947604 C49.1741341,39.295644 49.7649583,39.6764139 50.333768,40.0882345 Z" id="Path" fill="#739ED7"></path>
                    <path d="M56.0165671,52.0352832 C56.7896764,51.4407327 57.5031252,50.7729479 58.14691,50.041292 L57.3326582,39.5503075 L55.0609521,39.7263308 L55.6363002,47.1291637 L55.6363002,47.1291637 L56.0165671,52.0352832 Z" id="Path" fill="#739ED7"></path>
                    <path d="M36.14232,50.2877246 C41.2957782,55.9441933 49.9480829,56.7049975 56.0165671,52.0352832 L55.6363002,47.1291637 L55.3846738,47.1474701 L55.5119006,48.7964558 L36.14232,50.2877246 Z" id="Path" fill="#739ED7"></path>
                    <polygon id="Path" fill="#739ED7" points="56.0165671 52.033875 55.6363002 47.1291637 55.6363002 47.1291637 56.0165671 52.0352832"></polygon>
                    <path d="M55.0666067,44.9830885 C55.2860432,45.2941636 55.319354,45.699159 55.1536746,46.0416662 C54.9879951,46.3841735 54.6492574,46.6105835 54.2682814,46.6334572 C53.8873053,46.6563308 53.5237211,46.4720879 53.3179443,46.1518827 C51.6651566,43.6998305 49.41265,41.7075235 46.7728299,40.3628308 L32.2746238,41.4795221 L32.2746238,41.4795221 L36.5960957,41.1471903 L36.94809,45.6745077 L33.3489839,45.9561449 L33.3489839,45.9660022 L33.3489839,45.9660022 C33.6489658,46.6772408 34.004895,47.3637556 34.4134485,48.0191372 C34.5632934,48.2613451 34.7216202,48.4979204 34.8841878,48.7232301 L55.3818465,47.1432456 L54.8064984,39.7390044 L50.3309407,40.08401 C52.1860477,41.4273464 53.7890983,43.0857132 55.0666067,44.9830885 L55.0666067,44.9830885 Z" id="Path" fill="#739ED7"></path>
                    <path d="M36.14232,50.2877246 L55.5090734,48.7964558 L55.3818465,47.1474701 L34.8841878,48.7232301 C35.2681771,49.2720154 35.6884875,49.7946738 36.14232,50.2877246 L36.14232,50.2877246 Z" id="Path" fill="#739ED7"></path>
                    <path d="M33.3617066,45.9617777 L33.3617066,45.9617777 C33.6573912,46.6740661 34.0090644,47.3619897 34.4134485,48.0191372 C34.0090644,47.3619897 33.6573912,46.6740661 33.3617066,45.9617777 Z" id="Path" fill="#739ED7"></path>
                    <path d="M36.9495036,45.6745077 L36.5975094,41.1471903 L32.2760375,41.4795221 C32.393457,43.0176965 32.7561219,44.5274155 33.3503975,45.9519204 L36.9495036,45.6745077 Z" id="Path" fill="#739ED7"></path>
                    <path d="M50.333768,40.0882345 C49.7646001,39.6749293 49.1733011,39.2927472 48.5624875,38.9433794 L47.0343517,40.3431162 L50.333768,40.0882345 Z" id="Path" fill="#739ED7"></path>
                    <path d="M47.0343517,40.3431162 L46.7728299,40.3628308 C49.41265,41.7075235 51.6651566,43.6998305 53.3179443,46.1518827 C53.5237211,46.4720879 53.8873053,46.6563308 54.2682814,46.6334572 C54.6492574,46.6105835 54.9879951,46.3841735 55.1536746,46.0416662 C55.319354,45.699159 55.2860432,45.2941636 55.0666067,44.9830885 C53.7895508,43.0874635 52.1874937,41.4305645 50.333768,40.0882345 L47.0343517,40.3431162 L47.0343517,40.3431162 Z" id="Path" fill="#739ED7"></path>
                    <path d="M44.2805973,86.5682246 L47.0004246,86.3584049 C48.1457882,86.2705773 49.1442804,85.5486834 49.5831296,84.4911504 L51.3501691,80.237021 L43.2924688,80.8566228 L42.1488408,85.9260918 C42.7526673,86.4003521 43.5141374,86.629724 44.2805973,86.5682246 Z" id="Path" fill="#FFFFFF"></path>
                    <path d="M41.4406113,85.1192013 C41.6293585,85.4264779 41.8710198,85.6981934 42.1544953,85.9218673 L43.2981233,80.8523982 L39.0374376,81.1805055 L41.4406113,85.1192013 Z" id="Path" fill="#FFFFFF"></path>
                    <path d="M30.8821967,73.3890133 C31.1036147,74.2518789 31.916292,74.8308058 32.807563,74.7605863 L39.2537232,74.2649049 C40.1646574,74.1901366 40.8848432,73.4649533 40.9500812,72.5567754 L41.2879391,67.5351847 L29.5986191,68.4378319 L30.8821967,73.3890133 Z" id="Path" fill="#DDEBFA"></path>
                    <path d="M57.6083163,72.5412854 C58.006701,72.232937 58.2594297,71.774274 58.3066504,71.2739181 L58.3278548,71.068323 L58.3844001,70.4909668 L57.4556441,70.5627843 L57.6083163,72.5412854 Z" id="Path" fill="#DDEBFA"></path>
                    <path d="M58.7788033,66.49876 L58.807076,66.1847345 L57.4231306,66.2917566 C57.8832889,66.2872292 58.3411339,66.3571394 58.7788033,66.49876 L58.7788033,66.49876 Z" id="Path" fill="#DDEBFA"></path>
                    <path d="M57.4556441,70.5641925 L58.3844001,70.492375 L58.7788033,66.49876 C58.3420346,66.3574405 57.885169,66.287534 57.4259579,66.2917566 L57.1248543,66.3142876 L57.4556441,70.5641925 Z" id="Path" fill="#DDEBFA"></path>
                    <path d="M48.2274568,71.9977257 C48.4327108,72.8843763 49.2558979,73.4898254 50.1669594,73.4242179 L54.0233465,73.1270907 C53.115969,71.9225092 52.9125032,70.3309286 53.4878506,68.9382549 C54.0631981,67.5455811 55.3323105,66.5576804 56.8279917,66.3382268 L47.1219969,67.0859735 L48.2274568,71.9977257 Z" id="Path" fill="#DDEBFA"></path>
                    <path d="M57.4542305,70.5641925 L57.1248543,66.3156958 L56.8237508,66.3382268 C55.3288248,66.5589391 54.0609489,67.5473351 53.4865594,68.9397955 C52.9121699,70.3322559 53.1161077,71.9231059 54.0233465,73.1270907 L56.6159469,72.9271283 C56.9767406,72.8983917 57.3209823,72.7641647 57.6054891,72.5412854 L57.4528169,70.5698252 L57.4542305,70.5641925 Z" id="Path" fill="#DDEBFA"></path>
                    <polygon id="Path" fill="#DDEBFA" points="57.4556441 70.5641925 57.1248543 66.3156958 57.1248543 66.3156958 57.4542305 70.5641925"></polygon>
                </g>
            </g>
        </g>
    </g>
</svg>