<?xml version="1.0" encoding="utf-8"?>
<!-- Generator: Adobe Illustrator 23.0.1, SVG Export Plug-In . SVG Version: 6.00 Build 0)  -->
<svg version="1.1" xmlns="http://www.w3.org/2000/svg" xmlns:xlink="http://www.w3.org/1999/xlink" x="0px" y="0px"
	 viewBox="0 0 100 100" style="enable-background:new 0 0 100 100;" xml:space="preserve">
<style type="text/css">
	.st0{fill:#ECF9FF;}
	.st1{fill:#FFFFFF;}
	.st2{fill:#535D66;}
	.st3{fill-rule:evenodd;clip-rule:evenodd;fill:#ECF9FF;}
	.st4{fill-rule:evenodd;clip-rule:evenodd;fill:#FFFFFF;}
	.st5{fill-rule:evenodd;clip-rule:evenodd;fill:#00AAFF;}
	.st6{fill-rule:evenodd;clip-rule:evenodd;}
	.st7{fill:#00AAFF;}
	.st8{fill:#808099;}
	.st9{fill:#FFC037;}
	.st10{fill:#FF7108;}
	.st11{fill:#AEFFCF;}
	.st12{fill:#0BD360;}
	.st13{fill:#343434;}
	.st14{fill-rule:evenodd;clip-rule:evenodd;fill:#104EFF;}
	.st15{fill:#002E75;}
	.st16{fill:#0855C4;}
	.st17{fill:#99E2FF;}
	.st18{fill:#AED3FF;}
	.st19{fill:#231F20;}
	.st20{fill:#EFF1F4;}
	.st21{clip-path:url(#SVGID_2_);}
	.st22{fill:#8EEA00;}
	.st23{fill-rule:evenodd;clip-rule:evenodd;fill:#8EEA00;}
	.st24{fill:#0021CE;}
	.st25{fill:#104EFF;}
	.st26{fill:#303030;}
	.st27{fill:#00E1CF;}
	.st28{fill-rule:evenodd;clip-rule:evenodd;fill:#0BD360;}
	.st29{fill-rule:evenodd;clip-rule:evenodd;fill:#00E1CF;}
	.st30{fill:none;stroke:#5C006A;stroke-width:1.29;stroke-linecap:round;stroke-linejoin:round;}
	.st31{fill:#B6FFD3;}
	.st32{clip-path:url(#SVGID_4_);}
	.st33{fill:#DFE6E8;}
	.st34{fill:#B3B3B3;}
	.st35{fill:#96E0FD;}
	.st36{fill:#0ED160;}
	.st37{fill:#08A8FD;}
	.st38{fill:#6EEE89;}
	.st39{fill:#DFF8F5;}
	.st40{clip-path:url(#SVGID_6_);fill:#96E0FD;}
	.st41{fill:#F5F5F6;}
	.st42{fill:none;stroke:#002E75;stroke-width:1.5207;stroke-linecap:round;stroke-linejoin:round;}
	.st43{fill:#E9EAEB;}
	.st44{clip-path:url(#SVGID_8_);fill:#FFFFFF;}
	.st45{clip-path:url(#SVGID_8_);fill:#FFCF9B;}
	.st46{clip-path:url(#SVGID_8_);fill:#002E75;}
	.st47{clip-path:url(#SVGID_8_);fill:#F9BC90;}
	.st48{clip-path:url(#SVGID_8_);fill:#0ED160;}
	.st49{fill-rule:evenodd;clip-rule:evenodd;fill:#002E75;}
	.st50{fill-rule:evenodd;clip-rule:evenodd;fill:#0ED160;}
	.st51{fill-rule:evenodd;clip-rule:evenodd;fill:#DFE6E8;}
	.st52{fill-rule:evenodd;clip-rule:evenodd;fill:#DCE6E8;}
	.st53{fill-rule:evenodd;clip-rule:evenodd;fill:#6EEE89;}
	.st54{fill-rule:evenodd;clip-rule:evenodd;fill:#FFC037;}
	.st55{fill:#F4F4F5;}
	.st56{fill:#606060;}
	.st57{fill-rule:evenodd;clip-rule:evenodd;fill:#005EA1;}
	.st58{fill-rule:evenodd;clip-rule:evenodd;fill:#00A5D8;}
	.st59{fill:#444444;}
	.st60{clip-path:url(#SVGID_10_);}
	.st61{clip-path:url(#SVGID_12_);}
	.st62{clip-path:url(#SVGID_14_);}
	.st63{clip-path:url(#SVGID_16_);}
	.st64{clip-path:url(#SVGID_18_);}
	.st65{clip-path:url(#SVGID_20_);}
</style>
<g id="Layer_3">
</g>
<g id="Layer_1">
</g>
<g id="Layer_2">
</g>
<g id="Layer_4">
</g>
<g id="Layer_5">
</g>
<g id="Isolation_Mode">
</g>
<g id="Art">
</g>
<g id="Capa_8">
	<path class="st15" d="M35.3,24.6c0,0.3-0.2,0.7-0.4,0.9C35.1,25.2,35.2,25,35.3,24.6c0-0.8,0.3-1.6,0.8-2.1
		C35.7,23,35.4,23.7,35.3,24.6L35.3,24.6z"/>
	<path class="st15" d="M42,43.3L42,43.3c-0.4,0.3-1,0.5-1.5,0.6c-1.9,0.2-3.7-1.2-3.8-3.1c0-0.1,0-0.2-0.1-0.3
		c-0.2-0.9-1.1-1.3-2-1.1c-0.6,0.2-1.2,0.2-1.8,0.2c-3.5-0.1-6.3-2.9-6.5-6.5c-0.1-1.5,0.4-3,1.3-4.2c-0.7,1-1.1,2.2-1.2,3.5
		c-0.1,3.7,2.8,6.8,6.5,7c0.6,0,1.2-0.1,1.8-0.2c0.1,0,0.2,0,0.3-0.1c0.9-0.1,1.7,0.6,1.8,1.4c0,0.6,0.2,1.1,0.5,1.5
		C38.3,43.7,40.4,44.2,42,43.3z"/>
	<path class="st15" d="M42.9,36.3c-0.1,0.2-0.2,0.5-0.2,0.7C42.7,36.8,42.7,36.6,42.9,36.3c0-0.6-0.3-1.2-0.9-1.6
		c-0.6-0.4-1.4-0.2-1.9,0.2c0.4-0.4,0.9-0.6,1.5-0.5C42.5,34.6,43,35.4,42.9,36.3z"/>
	<path class="st15" d="M42.6,20.9c0.3-0.6,0.6-1.2,1-1.7C43.2,19.7,42.9,20.2,42.6,20.9C42.7,20.8,42.7,20.8,42.6,20.9
		c0,0.1-0.1,0.2-0.2,0.3C42.5,21.1,42.5,21,42.6,20.9z"/>
	<path class="st15" d="M52.2,37.9c-0.3,0-0.7,0-1,0.2c-0.1,0-0.2,0.1-0.3,0.2c0.1-0.1,0.2-0.1,0.3-0.2
		C51.5,37.9,51.8,37.9,52.2,37.9z"/>
	<path class="st15" d="M52.5,38c0.1,0,0.1,0.1,0.2,0.1C52.6,38.1,52.5,38,52.5,38C52.4,38,52.4,38,52.5,38L52.5,38z"/>
	<path class="st15" d="M52.7,38.1c0.2,0.1,0.3,0.2,0.4,0.3C53,38.3,52.8,38.2,52.7,38.1z"/>
	<path class="st15" d="M54.2,42.4c-0.6-0.2-1.1-0.5-1.5-1c0.3-0.4,0.5-0.9,0.7-1.3l0,0c0.2-0.6,0-1.2-0.4-1.7
		c0.4,0.4,0.6,1.1,0.4,1.7c-0.2,0.5-0.4,0.9-0.7,1.3C53.2,41.9,53.7,42.2,54.2,42.4z"/>
	<path class="st15" d="M60.1,35.5c1.9,2.4,1.8,5.8-0.2,8.1l0,0C61.9,41.4,62,37.9,60.1,35.5c-0.1-0.1-0.2-0.1-0.3-0.2
		C59.9,35.4,60,35.5,60.1,35.5z"/>
	<path class="st15" d="M65.7,26.2c0.2,0,0.5-0.1,0.7-0.1C66.2,26.1,66,26.2,65.7,26.2z"/>
	<path class="st15" d="M79.3,71.3c-1.9,0-3.7,0.6-5.2,1.6c-0.8-0.4-1.7-0.6-2.5-0.6c-0.5,0-0.9,0.1-1.4,0.2
		c-1.8-3.7-5.5-6.1-9.7-6.1c-1.5,0-3,0.4-4.4,1v-5.2c2.3-0.1,4.7-0.4,7-0.7c4.5-0.8,6.5-1.9,6.5-3.7s-2.1-2.7-3.9-3.1
		c-2.4-0.6-4.8-1-7.2-1.1c-0.4,0-0.9,0.1-1.2,0.4c-0.3,0.3-0.5,0.7-0.6,1.1c0,0.4,0.1,0.9,0.4,1.2c0.3,0.3,0.7,0.5,1.1,0.6
		c2.3,0.1,4.5,0.5,6.7,1c-1.1,0.3-2.2,0.5-3.3,0.7c-1.6,0.2-3.5,0.4-5.5,0.5v-11c0-0.9-0.7-1.6-1.6-1.6c-0.9,0-1.6,0.7-1.6,1.6V59
		c-0.8,0-1.6,0-2.5,0h-1.8V46.9c0-0.9-0.7-1.6-1.6-1.6c-0.9,0-1.6,0.7-1.6,1.6v12c-2.3-0.1-4.4-0.3-6.2-0.6
		c-1.1-0.1-2.2-0.4-3.3-0.7c2.5-0.6,5-1,7.6-1.1c0.4,0,0.8-0.2,1.1-0.6c0.3-0.3,0.4-0.7,0.4-1.1c-0.1-0.9-0.8-1.6-1.7-1.5
		c-2.6,0.2-5.2,0.5-7.8,1.1c-1.9,0.5-4.1,1.3-4.1,3.2s1.9,2.9,6.5,3.7c2.5,0.4,5.1,0.7,7.6,0.8v5.8c-1.5-0.7-3.1-1.1-4.7-1.1
		c-4,0-7.7,2.3-9.5,5.8c-1.5-0.6-3.2-0.5-4.6,0.2c-4.3-2.9-10.1-1.7-13,2.6c-2.3,3.4-2.1,7.9,0.5,11.1c0.3,0.4,0.8,0.6,1.3,0.6
		c0.4,0,0.7-0.1,1-0.4c0.7-0.6,0.8-1.6,0.2-2.3l0,0c-2.1-2.6-1.7-6.5,0.9-8.6c1.1-0.9,2.4-1.4,3.8-1.4c0.9,0,1.8,0.2,2.6,0.6
		c-0.1,0.2-0.2,0.3-0.3,0.5c-0.4,0.8-0.1,1.8,0.7,2.2s1.8,0.1,2.2-0.7c0.7-1.4,2.5-1.9,3.8-1.2s1.9,2.5,1.2,3.8v0.1
		c-0.7,1-1.2,2.1-1.3,3.3c-0.1,0.9,0.6,1.6,1.4,1.7h0.2c0.8,0,1.5-0.6,1.6-1.5c0.1-0.8,0.4-1.6,1-2.2c1.4-1.3,3.6-1.3,5.1,0
		c0.6,0.6,0.9,1.3,1,2.2c0,0.4,0.3,0.8,0.6,1.1c0.7,0.6,1.7,0.5,2.3-0.2c0.3-0.3,0.4-0.8,0.4-1.2c-0.4-3.8-3.8-6.5-7.5-6.1
		c-0.4,0-0.8,0.1-1.2,0.2c-0.2-1-0.6-2-1.2-2.8c1.2-2.7,3.8-4.5,6.8-4.5c1.7,0,3.4,0.6,4.7,1.7v5.8c0,0.9,0.7,1.6,1.6,1.6
		c0.9,0,1.6-0.7,1.6-1.6V62.3h1.8c0.8,0,1.6,0,2.5,0v15.3c0,0.9,0.7,1.6,1.6,1.6c0.9,0,1.6-0.7,1.6-1.6V71c3.3-2.4,7.9-1.8,10.4,1.5
		c0.3,0.5,0.6,1,0.9,1.5c-0.9,0.9-1.5,2.1-1.8,3.3c-3.6-1.1-7.4,1-8.5,4.6c-0.1,0.4-0.2,0.8-0.2,1.2c0,0.4,0.1,0.9,0.3,1.2
		c0.3,0.3,0.7,0.6,1.1,0.6c0.4,0,0.9-0.1,1.2-0.3c0.3-0.3,0.5-0.7,0.6-1.1c0.1-0.8,0.4-1.6,1-2.2c1.4-1.4,3.6-1.4,5.1,0
		c0.6,0.6,0.9,1.4,1,2.2c0.1,0.9,0.8,1.5,1.7,1.5h0c0.9-0.1,1.5-0.9,1.4-1.8c-0.1-1.2-0.6-2.4-1.3-3.3c0,0,0-0.1-0.1-0.1
		c-0.7-1.4-0.2-3.1,1.2-3.8s3.1-0.2,3.8,1.2c0.4,0.8,1.4,1.1,2.2,0.7l0,0c0.8-0.4,1.1-1.4,0.7-2.2c-0.1-0.2-0.2-0.3-0.3-0.5
		c0.8-0.4,1.7-0.6,2.7-0.6c3.4,0,6.1,2.8,6.1,6.2c0,1.4-0.5,2.8-1.4,3.8c-0.6,0.7-0.5,1.7,0.2,2.3c0.7,0.6,1.7,0.5,2.3-0.2l0,0
		c3.3-4,2.7-9.9-1.3-13.2C83.6,72,81.5,71.2,79.3,71.3L79.3,71.3z"/>
	<path class="st15" d="M67.1,22.8c-0.5,0-1,0-1.5,0.1c-0.9-1.8-2.5-3-4.4-3.5c-2.8-5.9-9.9-8.4-15.8-5.6c-2.1,1-3.8,2.5-5,4.5
		c-0.5-0.1-1-0.2-1.6-0.2c-3,0-5.6,2-6.5,4.8c-5.5,0.3-9.6,5.1-9.3,10.5c0.3,5.2,4.6,9.3,9.8,9.3l0,0c0.4,0,0.7,0,1.1-0.1
		c1.3,3.5,5.3,5.2,8.8,3.9c1-0.4,1.9-1,2.7-1.9c1.8,0.4,3.7,0,5.2-1c1,1.1,2.5,1.9,4,2h0.7c0.5,0,1-0.1,1.4-0.2
		c3,2.3,7.2,1.8,9.5-1.2c0.4-0.5,0.7-1.1,1-1.7c5.4-0.2,9.6-4.6,9.6-9.9v-0.3C76.5,27.2,72.3,22.9,67.1,22.8z M69.1,39.2
		c-0.6,0.2-1.3,0.3-2,0.3l0,0c-0.3,0-0.7,0-1-0.1c-0.3,0-0.5,0-0.8,0.1c-0.5,0.2-1,0.7-1,1.3c-0.2,1.3-1,2.3-2.1,2.7
		c-0.2,0.1-0.3,0.1-0.5,0.2c-0.1,0-0.2,0-0.3,0.1c-0.1,0-0.2,0-0.3,0c-0.2,0-0.5,0-0.8,0c-0.1,0-0.3,0-0.4-0.1
		c2-2.3,2.1-5.7,0.2-8.1c-0.1-0.1-0.2-0.1-0.3-0.2c-0.3-0.2-0.6-0.3-0.9-0.3c-0.1,0-0.2,0-0.3,0c-0.3,0.1-0.6,0.2-0.8,0.5
		c-0.5,0.5-0.6,1.4-0.2,2c1.1,1.3,0.9,3.2-0.4,4.3c-0.4,0.3-0.9,0.6-1.4,0.7c-0.3,0-0.6,0.1-0.9,0c-0.2,0-0.4-0.1-0.6-0.1
		c-0.6-0.2-1.1-0.5-1.5-1c0.3-0.4,0.5-0.9,0.7-1.3c0.2-0.6,0-1.2-0.4-1.7c-0.1-0.1-0.2-0.2-0.4-0.3c-0.1,0-0.1-0.1-0.2-0.1l0,0l0,0
		c-0.1,0-0.2-0.1-0.3-0.1c-0.3-0.1-0.6,0-1,0.1c-0.1,0-0.2,0.1-0.3,0.2c-0.2,0.1-0.3,0.3-0.4,0.5c-0.1,0.1-0.1,0.2-0.1,0.3
		c-0.5,2.1-2.7,3.5-4.8,2.9c-2.1-0.5-3.5-2.7-2.9-4.8l0,0l0,0c0-0.2,0.1-0.5,0.2-0.7c0.2-0.9-0.4-1.7-1.3-1.9
		c-0.6-0.1-1.1,0.1-1.5,0.5c0,0,0,0-0.1,0.1c0,0.1-0.1,0.1-0.1,0.2c-1,2.9-0.1,6.1,2.2,8L42,43.5c-1.6,0.9-3.7,0.5-4.7-1.1
		c-0.3-0.5-0.5-1-0.5-1.5c-0.1-0.9-0.9-1.5-1.8-1.4c-0.1,0-0.2,0-0.3,0.1c-0.6,0.2-1.2,0.2-1.8,0.2c-3.7-0.1-6.6-3.3-6.5-7
		c0-1.3,0.5-2.5,1.2-3.5c0.1-0.1,0.2-0.3,0.3-0.4c0.1-0.1,0.2-0.2,0.3-0.4c1.2-1.3,2.8-2.1,4.7-2.2c0.2,0,0.5,0,0.7,0
		c0.5,0,0.9-0.1,1.2-0.4c0.1,0,0.1-0.1,0.1-0.2c0.2-0.2,0.4-0.6,0.4-0.9l0,0c0-0.8,0.4-1.5,0.8-2.1c0-0.1,0.1-0.1,0.2-0.2
		c0.6-0.7,1.5-1.1,2.5-1.1c0.6,0,1.1,0.1,1.6,0.4c0.7,0.3,1.4,0.2,1.9-0.3l0,0c0.1-0.1,0.2-0.2,0.3-0.4l0,0c0.3-0.6,0.6-1.1,1-1.6
		c0.1-0.2,0.3-0.4,0.4-0.5c2.4-2.8,6.5-3.8,10.1-2.2c2.1,1,3.8,2.7,4.6,4.9c0.2,0.6,0.7,1,1.3,1c1.5,0.2,2.7,1.4,3,2.9
		c0,0.1,0.1,0.2,0.1,0.3c0,0.1,0.1,0.1,0.1,0.2c0,0,0,0,0,0.1c0.1,0.1,0.1,0.1,0.2,0.2c0.1,0.1,0.3,0.2,0.4,0.3
		c0.2,0.1,0.3,0.1,0.5,0.2c0.2,0,0.4,0,0.6,0H65c0.2-0.1,0.3-0.1,0.5-0.1c0.1,0,0.1,0,0.2,0c0.2-0.1,0.5-0.1,0.7-0.1h0.1
		c0.2,0,0.5,0,0.7,0c2.8,0.1,5.3,1.9,6.2,4.7C74.6,34.3,72.6,38.1,69.1,39.2z"/>
	<path class="st15" d="M26,70.5c0.7,0.6,1.7,0.5,2.3-0.2l0,0c0.3-0.3,0.4-0.7,0.4-1.2c0-0.4-0.2-0.8-0.6-1.1l-5.7-4.9
		c-0.7-0.6-1.7-0.5-2.3,0.2s-0.5,1.7,0.2,2.3L26,70.5z"/>
	<path class="st15" d="M26.4,53.7c0.1-0.4,0.1-0.9-0.1-1.2l-0.4-0.8c-0.2-0.4-0.5-0.7-0.9-0.8c-0.8-0.3-1.8,0.2-2,1
		c-0.2,0.4-0.1,0.9,0,1.2l0.4,0.8c0.3,0.6,0.8,0.9,1.5,0.9c0.2,0,0.5-0.1,0.7-0.2C25.9,54.4,26.2,54.1,26.4,53.7z"/>
	<path class="st15" d="M29.7,66.8c0.3,0.6,0.8,0.9,1.5,0.9c0.2,0,0.5-0.1,0.7-0.2c0.8-0.4,1.1-1.4,0.7-2.2l0,0l-4.4-9
		c-0.4-0.8-1.4-1.1-2.2-0.7c-0.8,0.4-1.1,1.4-0.7,2.2l0,0L29.7,66.8z"/>
	<path class="st15" d="M73.5,69.2c0,0.4,0.1,0.9,0.4,1.2c0.3,0.4,0.7,0.6,1.2,0.6c0.4,0,0.8-0.1,1.1-0.4l5.7-4.9
		c0.7-0.6,0.8-1.6,0.2-2.3c-0.6-0.7-1.6-0.8-2.3-0.2l-5.7,4.9C73.7,68.4,73.5,68.8,73.5,69.2z"/>
	<path class="st15" d="M76.2,51.6l-0.4,0.8c-0.2,0.4-0.2,0.8-0.1,1.2s0.4,0.7,0.8,0.9c0.2,0.1,0.5,0.2,0.7,0.2
		c0.6,0,1.2-0.4,1.5-0.9l0.4-0.8c0.4-0.8,0-1.8-0.8-2.2c-0.4-0.2-0.8-0.2-1.2-0.1C76.8,51,76.4,51.2,76.2,51.6z"/>
	<path class="st15" d="M76.9,56.6c-0.1-0.4-0.4-0.7-0.8-0.9c-0.8-0.4-1.8-0.1-2.2,0.7l-4.4,9c-0.4,0.8-0.1,1.8,0.8,2.2
		c0.2,0.1,0.5,0.2,0.7,0.2c0.6,0,1.2-0.4,1.5-0.9l4.4-9C77,57.4,77.1,57,76.9,56.6z"/>
</g>
</svg>
