<svg xmlns="http://www.w3.org/2000/svg" width="31.82" height="27.588" viewBox="0 0 31.82 27.588"><defs><style>.a{fill:#0855c4;}</style></defs><g transform="translate(0 0)"><path class="a" d="M338.92,7226.189h-5.314v-2.311a1.38,1.38,0,1,0-2.76,0v2.311H319.024v-2.311a1.38,1.38,0,1,0-2.76,0v2.311h-5.67a1.748,1.748,0,0,0-1.747,1.746v20.4a1.749,1.749,0,0,0,1.747,1.748H338.92a1.749,1.749,0,0,0,1.747-1.748v-20.4A1.749,1.749,0,0,0,338.92,7226.189Zm-22.655,2.259v1.02a1.38,1.38,0,1,0,2.76,0v-1.02h11.822v1.02a1.38,1.38,0,1,0,2.76,0v-1.02h4.8v5.648h-27.3v-5.648Zm-5.159,19.38v-11.473h27.3v11.473Z" transform="translate(-308.847 -7222.499)"/><path class="a" d="M333.65,7278.371h-4.863a1.291,1.291,0,0,0,0,2.582h4.863a1.291,1.291,0,0,0,0-2.582Z" transform="translate(-321.479 -7260.343)"/><path class="a" d="M371.645,7278.371h-4.863a1.291,1.291,0,0,0,0,2.582h4.863a1.291,1.291,0,0,0,0-2.582Z" transform="translate(-347.214 -7260.343)"/></g></svg>