<svg xmlns="http://www.w3.org/2000/svg" width="30" height="31" viewBox="0 0 30 31"><defs><style>.a{fill:#bfd4f2;}.b{fill:#fff;stroke:#fff;stroke-width:0.5px;}</style></defs><g transform="translate(-908 -104)"><ellipse class="a" cx="15" cy="15.5" rx="15" ry="15.5" transform="translate(908 104)"/><path class="b" d="M10.309.208a.9.9,0,0,0-.694-.2.943.943,0,0,0-.623.367l-5.267,7.1-2.154-2.2a.95.95,0,0,0-1.313,0,1,1,0,0,0,0,1.343l2.9,2.968a.916.916,0,0,0,.655.265,1.138,1.138,0,0,0,.568-.172l.1-.053,5.978-8.074a.949.949,0,0,0,.2-.693.963.963,0,0,0-.351-.646" transform="translate(917.618 114.77)"/></g></svg>