<svg xmlns="http://www.w3.org/2000/svg" width="25.623" height="25.103" viewBox="0 0 25.623 25.103"><defs><style>.a{fill:#0855c4;}</style></defs><g transform="translate(0 0.001)"><path class="a" d="M1328.379,754.635h21.177a2.226,2.226,0,0,0,2.223-2.223V738.721a2.225,2.225,0,0,0-2.223-2.223h-2.226v-.1a6.877,6.877,0,0,0-6.869-6.869h-2.986a6.877,6.877,0,0,0-6.869,6.869v.1h-2.226a2.225,2.225,0,0,0-2.223,2.223v13.692A2.225,2.225,0,0,0,1328.379,754.635Zm4.384-18.234a4.717,4.717,0,0,1,4.712-4.712h2.986a4.717,4.717,0,0,1,4.711,4.712v.1h-12.409Zm-4.449,2.319a.065.065,0,0,1,.065-.065h21.177a.065.065,0,0,1,.065.065v13.692a.065.065,0,0,1-.065.065h-21.177a.065.065,0,0,1-.065-.065Z" transform="translate(-1326.156 -729.533)"/><path class="a" d="M1379.228,786.8a1.117,1.117,0,0,0,1.176-1.047v-4.58a1.183,1.183,0,0,0-2.351,0v4.58A1.117,1.117,0,0,0,1379.228,786.8Z" transform="translate(-1365.611 -767.992)"/></g></svg>