<?xml version="1.0" encoding="utf-8"?>
<!-- Generator: Adobe Illustrator 23.0.6, SVG Export Plug-In . SVG Version: 6.00 Build 0)  -->
<svg version="1.1" id="Capa_1" xmlns="http://www.w3.org/2000/svg" xmlns:xlink="http://www.w3.org/1999/xlink" x="0px" y="0px"
	 viewBox="0 0 204 27" style="enable-background:new 0 0 204 27;" xml:space="preserve">
<style type="text/css">
	.st0{opacity:0.664;}
	.st1{fill:#BCBBBB;}
	.st2{fill:#888989;}
	.st3{fill:#AAAAAA;}
	.st4{fill:#FFFFFF;}
</style>
<g id="Grupo_1820" transform="translate(0 6.698)" class="st0">
	<g id="Grupo_1819" transform="translate(0 0)">
		<path id="Trazado_3965" class="st1" d="M17,14.2h-3l1.9-11.6h3L17,14.2z"/>
		<path id="Trazado_3966" class="st1" d="M11.4,2.5l-2.9,8L8.2,8.8l0,0l-1-5.2c-0.1-0.7-0.8-1.1-1.4-1H1L0.9,2.7
			C2,3,3.1,3.5,4.1,4.1l2.6,10.1h3.2l4.8-11.6H11.4z"/>
		<path id="Trazado_3967" class="st1" d="M35.2,14.2H38L35.6,2.5h-2.4c-0.6,0-1.2,0.3-1.4,0.9l-4.5,10.8h3.2l0.6-1.7h3.8L35.2,14.2z
			 M31.9,10.1l1.6-4.4l0.9,4.4H31.9z"/>
		<path id="Trazado_3968" class="st1" d="M27.5,5.3l0.4-2.5c-0.9-0.3-1.8-0.5-2.7-0.5c-1.5,0-5.1,0.7-5.1,3.8c0,3,4.2,3,4.2,4.6
			s-3.8,1.3-5,0.3l-0.4,2.6c1.1,0.5,2.2,0.7,3.4,0.7c2.1,0,5.2-1.1,5.2-4c0-3-4.2-3.3-4.2-4.6S26.2,4.6,27.5,5.3z"/>
	</g>
	<path id="Trazado_3969" class="st2" d="M8.2,8.8l-1-5.2c-0.1-0.7-0.8-1.1-1.4-1H1L0.9,2.7C2.6,3.2,4.1,3.9,5.4,5
		C6.7,6,7.6,7.3,8.2,8.8z"/>
</g>
<g id="Grupo_1821" transform="translate(54.106 1.489)" class="st0">
	<path id="Trazado_3970" class="st2" d="M6.2,24.6v-1.5c0-0.5-0.3-0.9-0.8-0.9c0,0-0.1,0-0.1,0c-0.3,0-0.7,0.1-0.8,0.4
		c-0.2-0.3-0.5-0.4-0.8-0.4c-0.3,0-0.5,0.1-0.7,0.3v-0.3H2.4v2.4h0.5v-1.3c0-0.4,0.2-0.6,0.6-0.6S4,22.9,4,23.3v1.3h0.5v-1.3
		c0-0.3,0.2-0.6,0.5-0.6c0,0,0.1,0,0.1,0c0.3,0,0.5,0.2,0.5,0.6v1.3L6.2,24.6z M13.8,22.2H13v-0.7h-0.5v0.7H12v0.5h0.5v1.1
		c0,0.5,0.2,0.9,0.8,0.9c0.2,0,0.4-0.1,0.6-0.2L13.8,24c-0.1,0.1-0.3,0.1-0.4,0.1c-0.2,0-0.3-0.1-0.3-0.4v-1.1h0.8L13.8,22.2
		L13.8,22.2z M18.2,22.2c-0.3,0-0.5,0.1-0.6,0.3v-0.3h-0.5v2.4h0.5v-1.3c0-0.4,0.2-0.6,0.5-0.6c0.1,0,0.2,0,0.3,0l0.1-0.5
		C18.5,22.2,18.4,22.2,18.2,22.2L18.2,22.2z M11.6,22.4c-0.3-0.2-0.6-0.3-1-0.2c-0.6,0-1,0.3-1,0.8c0,0.4,0.3,0.6,0.8,0.7l0.2,0
		c0.3,0,0.4,0.1,0.4,0.2c0,0.2-0.2,0.3-0.5,0.3c-0.3,0-0.6-0.1-0.8-0.2l-0.2,0.4c0.3,0.2,0.7,0.3,1,0.3c0.7,0,1.1-0.3,1.1-0.8
		c0-0.4-0.3-0.6-0.8-0.7l-0.2,0c-0.2,0-0.4-0.1-0.4-0.2c0-0.2,0.2-0.3,0.4-0.3c0.3,0,0.5,0.1,0.7,0.2L11.6,22.4L11.6,22.4z
		 M25.4,22.2c-0.3,0-0.5,0.1-0.6,0.3v-0.3h-0.5v2.4h0.5v-1.3c0-0.4,0.2-0.6,0.5-0.6c0.1,0,0.2,0,0.3,0l0.1-0.5
		C25.6,22.2,25.5,22.2,25.4,22.2L25.4,22.2z M18.8,23.4c0,0.7,0.5,1.2,1.1,1.2c0,0,0.1,0,0.1,0c0.3,0,0.6-0.1,0.8-0.3L20.6,24
		c-0.2,0.1-0.4,0.2-0.6,0.2c-0.4,0-0.7-0.3-0.7-0.7c0,0,0-0.1,0-0.1c0-0.4,0.3-0.7,0.7-0.8c0,0,0,0,0,0c0.2,0,0.4,0.1,0.6,0.2
		l0.2-0.4c-0.2-0.2-0.5-0.3-0.8-0.3c-0.7,0-1.2,0.5-1.3,1.1C18.8,23.3,18.8,23.4,18.8,23.4L18.8,23.4z M23.5,23.4v-1.2H23v0.3
		c-0.2-0.2-0.5-0.4-0.7-0.3c-0.7,0-1.2,0.6-1.2,1.3c0,0.6,0.5,1.2,1.2,1.2c0.3,0,0.6-0.1,0.7-0.3v0.3h0.5V23.4z M21.6,23.4
		c0-0.4,0.3-0.7,0.7-0.8c0.4,0,0.7,0.3,0.8,0.7c0,0,0,0.1,0,0.1c0,0.4-0.3,0.7-0.7,0.8c-0.4,0-0.7-0.3-0.8-0.7
		C21.6,23.5,21.6,23.5,21.6,23.4z M15.4,22.2c-0.7,0-1.2,0.6-1.2,1.2s0.6,1.2,1.2,1.2c0.3,0,0.7-0.1,1-0.3L16.2,24
		c-0.2,0.2-0.4,0.2-0.7,0.2c-0.4,0-0.7-0.2-0.7-0.6h1.8v-0.2c0.1-0.6-0.3-1.2-0.9-1.2C15.6,22.2,15.5,22.2,15.4,22.2L15.4,22.2z
		 M15.4,22.6c0.3,0,0.6,0.2,0.6,0.6c0,0,0,0,0,0h-1.2C14.8,22.9,15.1,22.6,15.4,22.6L15.4,22.6z M28.3,23.4v-2.1h-0.5v1.2
		c-0.2-0.2-0.5-0.4-0.7-0.3c-0.7,0-1.2,0.6-1.2,1.3c0,0.6,0.5,1.2,1.2,1.2c0.3,0,0.6-0.1,0.7-0.3v0.3h0.5L28.3,23.4z M26.4,23.4
		c0-0.4,0.3-0.7,0.7-0.8c0.4,0,0.7,0.3,0.8,0.7c0,0,0,0.1,0,0.1c0,0.4-0.3,0.7-0.7,0.8c-0.4,0-0.7-0.3-0.8-0.7
		C26.4,23.5,26.4,23.5,26.4,23.4z M9.1,23.4v-1.2H8.6v0.3c-0.2-0.2-0.5-0.4-0.7-0.3c-0.7,0-1.2,0.6-1.2,1.3c0,0.6,0.5,1.2,1.2,1.2
		c0.3,0,0.6-0.1,0.7-0.3v0.3h0.5V23.4z M7.1,23.4c0-0.4,0.3-0.7,0.7-0.8c0.4,0,0.7,0.3,0.8,0.7c0,0,0,0.1,0,0.1
		c0,0.4-0.3,0.7-0.7,0.8c-0.4,0-0.7-0.3-0.8-0.7C7.1,23.5,7.1,23.5,7.1,23.4z"/>
	<rect id="Rectángulo_1799" x="11.4" y="4.2" class="st3" width="7.8" height="14"/>
	<path id="Trazado_3971" class="st2" d="M11.9,11.2c0-2.7,1.2-5.3,3.4-7c-3.9-3-9.4-2.4-12.5,1.5c-3,3.9-2.4,9.4,1.5,12.5
		c3.2,2.5,7.8,2.5,11,0C13.2,16.5,11.9,13.9,11.9,11.2z"/>
	<path id="Trazado_3972" class="st1" d="M29.7,11.2c0,4.9-4,8.9-8.9,8.9c-2,0-3.9-0.7-5.5-1.9c3.9-3.1,4.5-8.7,1.5-12.5
		c-0.4-0.5-0.9-1-1.5-1.5c3.9-3,9.4-2.4,12.5,1.5C29,7.3,29.7,9.2,29.7,11.2z"/>
</g>
<g id="Grupo_1822" transform="translate(100.025 1.488)" class="st0">
	<path id="Trazado_3973" class="st2" d="M13.7,19.6c4.7,0,9-3.8,9-8.5c-0.1-4.9-4.1-8.8-8.9-8.7c0,0-0.1,0-0.1,0H9.6
		C4.9,2.2,1,5.9,0.9,10.6c0,0.1,0,0.3,0,0.4c0.1,4.8,4,8.6,8.7,8.5H13.7"/>
	<path id="Trazado_3974" class="st4" d="M11.4,15.6V6.3c1.9,0.7,3.2,2.6,3.2,4.7C14.7,13,13.4,14.9,11.4,15.6 M4.6,10.9
		c0-2.1,1.3-3.9,3.2-4.7v9.3C5.9,14.9,4.6,13,4.6,10.9 M9.7,3c-4.4,0-7.9,3.5-7.9,7.9c0,0,0,0,0,0c0,4.4,3.5,7.9,7.9,7.9
		c0,0,0,0,0,0c4.4,0,7.9-3.5,7.9-7.9c0,0,0,0,0,0C17.6,6.6,14,3,9.7,3C9.7,3,9.7,3,9.7,3"/>
	<path id="Trazado_3975" class="st2" d="M25.5,6c0-0.8-0.4-0.8-0.8-0.8V5c0.4,0,0.7,0,1.1,0c0.4,0,0.9,0,1.6,0
		c1.8-0.2,3.4,1.1,3.6,3c0,0.1,0,0.1,0,0.2c0,0.9-0.5,3.2-3.7,3.2c-0.5,0-0.9,0-1.3,0c-0.4,0-0.8,0-1.2,0v-0.2
		c0.5-0.1,0.8-0.1,0.8-0.7L25.5,6z M26.4,10.3c0,0.7,0.5,0.8,0.9,0.8c1.4,0.1,2.6-1,2.6-2.4c0-0.1,0-0.3,0-0.4
		c0.1-1.5-1-2.8-2.5-2.9c-0.1,0-0.2,0-0.3,0c-0.4,0-0.5,0-0.7,0V10.3z M31.3,11.1h0.2c0.3,0,0.4,0,0.4-0.3V8.4
		c0-0.4-0.1-0.5-0.5-0.6V7.6c0.4-0.1,0.9-0.3,1-0.3c0,0,0.1,0,0.2,0c0,0,0.1,0.1,0.1,0.1v3.5c0,0.3,0.2,0.3,0.5,0.3h0.2v0.2
		c-0.3,0-0.6,0-1,0c-0.3,0-0.7,0-1,0L31.3,11.1z M32.2,5.8c-0.2,0-0.4-0.2-0.4-0.5c0-0.2,0.2-0.4,0.4-0.4c0.2,0,0.4,0.2,0.4,0.4
		C32.7,5.6,32.5,5.8,32.2,5.8L32.2,5.8z M34.1,8.4c0-0.3-0.1-0.4-0.5-0.6V7.7c0.4-0.1,0.8-0.3,1.2-0.4c0,0,0.1,0,0.1,0.1v0.6
		c0.4-0.4,1-0.6,1.6-0.7c0.8,0,1,0.6,1,1.3v2.3c0,0.3,0.2,0.3,0.5,0.3H38v0.2c-0.3,0-0.6,0-1,0s-0.7,0-1,0v-0.2h0.2
		c0.3,0,0.4,0,0.4-0.3V8.5c0-0.5-0.3-0.8-0.8-0.8c-0.4,0.1-0.7,0.2-1.1,0.4v2.7c0,0.3,0.2,0.3,0.5,0.3h0.2v0.2c-0.3,0-0.6,0-1,0
		s-0.7,0-1,0v-0.2h0.2c0.3,0,0.4,0,0.4-0.3L34.1,8.4z M38.7,8.9c0,0.2,0,0.4,0,0.5c0,0.8,0.5,1.5,1.3,1.6c0.5,0,0.9-0.2,1.2-0.6
		l0.1,0.1c-0.4,0.6-1,1-1.7,1c-1,0-1.8-0.9-1.7-1.9c0,0,0-0.1,0-0.1c0-1.8,1.2-2.3,1.8-2.3c0.8-0.1,1.5,0.6,1.5,1.3c0,0,0,0.1,0,0.1
		c0,0.1,0,0.1,0,0.2l-0.1,0.1L38.7,8.9z M40.3,8.6c0.2,0,0.3-0.1,0.3-0.2c0-0.4-0.3-0.8-0.7-0.8c0,0-0.1,0-0.1,0
		c-0.6,0-0.9,0.4-1,1.1H40.3z M41.6,11.1h0.2c0.3,0,0.4,0,0.4-0.3V8.3c0-0.3-0.3-0.3-0.5-0.4V7.7c0.7-0.3,1-0.5,1.1-0.5
		c0.1,0,0.1,0,0.1,0.1v0.8h0c0.2-0.4,0.6-0.9,1.2-0.9c0.3,0,0.5,0.2,0.5,0.5c0,0.2-0.2,0.5-0.4,0.5c0,0,0,0,0,0
		c-0.3,0-0.3-0.2-0.6-0.2C43.3,8,43,8.3,43,8.7v2.1c0,0.3,0.2,0.3,0.4,0.3h0.5v0.2c-0.5,0-0.9,0-1.3,0c-0.4,0-0.8,0-1.1,0L41.6,11.1
		z M45.1,10.1c0,0.6,0.5,1.1,1.1,1.1c0.4,0.1,0.7-0.2,0.7-0.5c0,0,0-0.1,0-0.1c0-1.1-2-0.7-2-2.2c0-0.7,0.6-1.2,1.3-1.2
		c0,0,0.1,0,0.1,0c0.4,0,0.7,0.1,1,0.3l0.1,0.9h-0.2c0-0.5-0.4-0.9-1-0.9c0,0,0,0,0,0c-0.4,0-0.7,0.2-0.7,0.6c0,0,0,0,0,0
		c0,1.1,2.1,0.7,2.1,2.2c0,0.6-0.5,1.2-1.6,1.2c-0.4,0-0.8-0.1-1.1-0.3l-0.1-1L45.1,10.1z M55.9,6.7h-0.2c-0.1-0.9-1-1.6-1.9-1.5
		c0,0,0,0,0,0c-1.4,0-2.6,1.2-2.6,2.6c0,0.1,0,0.2,0,0.3c-0.1,1.6,1.1,3,2.7,3.1c0.9,0,1.7-0.7,1.8-1.6l0.2,0.1L55.7,11
		c-0.6,0.3-1.3,0.5-2,0.5c-1.8,0.1-3.3-1.2-3.5-3c0-0.1,0-0.3,0-0.4c0.1-1.8,1.6-3.3,3.4-3.2c0.7,0,1.5,0.2,2.1,0.5L55.9,6.7z
		 M56.2,11.1h0.2c0.3,0,0.4,0,0.4-0.3V5.8c0-0.6-0.1-0.6-0.5-0.7V4.9c0.3-0.1,0.6-0.2,0.9-0.4c0.1,0,0.1-0.1,0.2-0.1
		c0.1,0,0.1,0.1,0.1,0.1v6.3c0,0.3,0.2,0.3,0.5,0.3h0.2v0.2c-0.3,0-0.6,0-1,0s-0.7,0-1,0L56.2,11.1z M62.1,10.9
		c0,0.2,0.1,0.2,0.3,0.2c0.1,0,0.2,0,0.4,0v0.2c-0.4,0.1-0.9,0.2-1.3,0.3l0,0v-0.7c-0.4,0.4-1,0.7-1.6,0.8c-0.5,0-1-0.4-1-1
		c0,0,0-0.1,0-0.1V8.1c0-0.2,0-0.5-0.5-0.5V7.4c0.3,0,1.1-0.1,1.2-0.1c0.1,0,0.1,0.1,0.1,0.3V10c0,0.3,0,1.1,0.8,1.1
		c0.4-0.1,0.8-0.3,1.1-0.6V8c0-0.2-0.4-0.3-0.8-0.4V7.5c0.8-0.1,1.3-0.1,1.4-0.1c0.1,0,0.1,0.1,0.1,0.2L62.1,10.9z M63.9,7.9
		c0.4-0.4,0.8-0.6,1.4-0.7c1,0,1.7,0.9,1.7,1.8c0,0,0,0,0,0.1c0,1.3-0.9,2.3-2.2,2.4c-0.4,0-0.9-0.1-1.3-0.3l-0.3,0.2L63,11.3
		c0.1-0.5,0.1-1.1,0.1-1.6V5.8c0-0.6-0.1-0.6-0.5-0.7V4.9c0.3-0.1,0.6-0.2,0.9-0.4c0.1,0,0.1-0.1,0.2-0.1c0.1,0,0.1,0.1,0.1,0.1
		L63.9,7.9z M63.9,10.3c0,0.5,0.4,0.9,0.9,0.9c1,0,1.4-1,1.4-1.8c0-0.9-0.6-1.7-1.5-1.8c-0.3,0-0.6,0.2-0.9,0.4L63.9,10.3z
		 M24.7,16.6L24.7,16.6c0.2,0,0.4,0,0.4-0.3v-2.6c0-0.3-0.2-0.3-0.4-0.3h-0.1v-0.1c0.2,0,0.5,0,0.7,0s0.5,0,0.8,0v0.1h-0.1
		c-0.2,0-0.4,0-0.4,0.3v2.6c0,0.3,0.2,0.3,0.4,0.3h0.1v0.1c-0.2,0-0.5,0-0.8,0s-0.5,0-0.7,0L24.7,16.6z M29.6,15.8L29.6,15.8l0-1.9
		c0-0.2-0.1-0.4-0.3-0.5c0,0-0.1,0-0.1,0H29v-0.1c0.2,0,0.5,0,0.7,0c0.2,0,0.4,0,0.6,0v0.1h-0.1c-0.2,0-0.4,0-0.4,0.6v2.2
		c0,0.2,0,0.3,0,0.5h-0.2L27.1,14v2c0,0.4,0.1,0.6,0.5,0.6h0.1v0.1c-0.2,0-0.4,0-0.6,0s-0.5,0-0.7,0v-0.1h0.1c0.3,0,0.4-0.2,0.4-0.6
		v-2.1c0-0.2-0.2-0.4-0.4-0.4c0,0,0,0,0,0h-0.1v-0.1c0.2,0,0.4,0,0.6,0c0.1,0,0.3,0,0.4,0L29.6,15.8z M31.1,13.6
		c-0.4,0-0.4,0.1-0.5,0.4h-0.1c0-0.1,0-0.3,0.1-0.4c0-0.1,0-0.3,0-0.4h0.1c0,0.1,0.2,0.1,0.3,0.1h2.6c0.1,0,0.3,0,0.3-0.2l0.1,0
		c0,0.1,0,0.3-0.1,0.4s0,0.3,0,0.4l-0.1,0.1c0-0.2,0-0.5-0.4-0.5h-0.8v2.6c0,0.4,0.2,0.4,0.4,0.4H33v0.1c-0.2,0-0.5,0-0.8,0
		c-0.3,0-0.6,0-0.8,0v-0.1h0.1c0.3,0,0.4,0,0.4-0.4v-2.6L31.1,13.6z M34.1,16.6L34.1,16.6c0.2,0,0.4,0,0.4-0.3v-2.6
		c0-0.3-0.2-0.3-0.4-0.3h-0.1v-0.1c0.3,0,0.8,0,1.2,0s0.9,0,1.3,0c0,0.2,0,0.5,0,0.8l-0.1,0c0-0.3-0.1-0.6-0.6-0.6h-0.7v1.3h0.6
		c0.3,0,0.4-0.2,0.4-0.4h0.1c0,0.2,0,0.4,0,0.6c0,0.2,0,0.4,0,0.6l-0.1,0c0-0.3,0-0.5-0.4-0.5h-0.6v1.2c0,0.3,0.3,0.3,0.6,0.3
		c0.6,0,0.9,0,1-0.6l0.1,0c-0.1,0.3-0.1,0.5-0.2,0.8c-0.3,0-0.9,0-1.3,0s-1,0-1.3,0L34.1,16.6z M37.6,13.9c0-0.4-0.2-0.4-0.4-0.4
		h-0.1v-0.1c0.2,0,0.5,0,0.8,0s0.5,0,0.8,0c0.6,0,1.2,0.2,1.2,0.9c0,0.4-0.3,0.8-0.7,0.9l0.8,1.3c0.1,0.2,0.3,0.3,0.5,0.3v0.1
		c-0.2,0-0.3,0-0.5,0s-0.3,0-0.5,0c-0.4-0.5-0.7-1-1-1.6h-0.3v1.1c0,0.4,0.2,0.4,0.4,0.4h0.1v0.1c-0.3,0-0.6,0-0.9,0
		c-0.2,0-0.5,0-0.7,0v-0.1h0.1c0.2,0,0.4-0.1,0.4-0.3L37.6,13.9z M38.2,15h0.2c0.5,0,0.8-0.2,0.8-0.8c0-0.4-0.3-0.7-0.6-0.7
		c0,0-0.1,0-0.1,0c-0.1,0-0.2,0-0.3,0V15z M43.8,15.8L43.8,15.8l0-1.9c0-0.2-0.1-0.4-0.3-0.5c0,0-0.1,0-0.1,0h-0.1v-0.1
		c0.2,0,0.5,0,0.7,0c0.2,0,0.4,0,0.6,0v0.1h-0.1c-0.2,0-0.4,0-0.4,0.6v2.2c0,0.2,0,0.3,0,0.5h-0.2L41.4,14v2c0,0.4,0.1,0.6,0.5,0.6
		h0.1v0.1c-0.2,0-0.4,0-0.6,0s-0.5,0-0.7,0v-0.1h0.1c0.3,0,0.4-0.2,0.4-0.6v-2.1c0-0.2-0.2-0.4-0.4-0.4c0,0,0,0,0,0h-0.1v-0.1
		c0.2,0,0.4,0,0.6,0c0.1,0,0.3,0,0.4,0L43.8,15.8z M45.4,16.1c0,0.1-0.1,0.3-0.1,0.4c0,0.1,0.2,0.2,0.4,0.2h0.1v0.1
		c-0.2,0-0.4,0-0.6,0c-0.2,0-0.4,0-0.5,0v-0.1h0c0.2,0,0.4-0.1,0.4-0.3l0.8-2.3c0.1-0.2,0.1-0.4,0.2-0.6c0.2-0.1,0.3-0.1,0.4-0.2
		c0,0,0,0,0,0c0,0,0,0,0,0c0,0,0,0.1,0,0.1l0.9,2.6c0.1,0.2,0.1,0.4,0.2,0.5c0.1,0.1,0.2,0.2,0.3,0.2h0v0.1c-0.2,0-0.4,0-0.7,0
		s-0.5,0-0.7,0v-0.1h0.1c0.1,0,0.3,0,0.3-0.1c0-0.1-0.1-0.2-0.1-0.4l-0.2-0.6h-1.1L45.4,16.1z M46.1,13.9L46.1,13.9l-0.5,1.4h0.9
		L46.1,13.9z M48.3,13.6c-0.4,0-0.4,0.1-0.5,0.4h-0.2c0-0.1,0-0.3,0.1-0.4c0-0.1,0-0.3,0-0.4h0.1c0,0.1,0.2,0.1,0.3,0.1h2.6
		c0.1,0,0.3,0,0.3-0.2l0.1,0c0,0.1,0,0.3-0.1,0.4s0,0.3,0,0.4l-0.1,0.1c0-0.2,0-0.5-0.4-0.5h-0.8v2.6c0,0.4,0.2,0.4,0.4,0.4h0.1v0.1
		c-0.2,0-0.5,0-0.8,0c-0.3,0-0.6,0-0.8,0v-0.1h0.1c0.3,0,0.4,0,0.4-0.4v-2.6L48.3,13.6z M51.3,16.6L51.3,16.6c0.2,0,0.4,0,0.4-0.3
		v-2.6c0-0.3-0.2-0.3-0.4-0.3h-0.1v-0.1c0.2,0,0.5,0,0.7,0s0.5,0,0.8,0v0.1h-0.1c-0.2,0-0.4,0-0.4,0.3v2.6c0,0.3,0.2,0.3,0.4,0.3
		h0.1v0.1c-0.2,0-0.5,0-0.8,0s-0.5,0-0.7,0L51.3,16.6z M54.8,13.3c1-0.1,1.8,0.6,1.9,1.6c0,0,0,0.1,0,0.1c0,1-0.7,1.8-1.7,1.9
		c0,0-0.1,0-0.1,0c-1,0.1-1.8-0.7-1.8-1.6c0,0,0-0.1,0-0.1C52.9,14.1,53.7,13.3,54.8,13.3C54.7,13.3,54.8,13.3,54.8,13.3L54.8,13.3z
		 M54.8,16.6c1,0,1.1-0.8,1.1-1.6s-0.4-1.6-1.2-1.6c-0.9,0-1.1,0.8-1.1,1.4C53.6,15.8,54,16.6,54.8,16.6L54.8,16.6z M60,15.8
		L60,15.8l0-1.9c0-0.2-0.1-0.4-0.3-0.5c0,0-0.1,0-0.1,0h-0.1v-0.1c0.2,0,0.5,0,0.7,0c0.2,0,0.4,0,0.6,0v0.1h-0.1
		c-0.2,0-0.4,0-0.4,0.6v2.2c0,0.2,0,0.3,0,0.5h-0.2L57.5,14v2c0,0.4,0.1,0.6,0.5,0.6h0.1v0.1c-0.2,0-0.4,0-0.6,0s-0.5,0-0.7,0v-0.1
		h0.1c0.3,0,0.4-0.2,0.4-0.6v-2.1c0-0.2-0.2-0.4-0.4-0.4c0,0,0,0,0,0h-0.1v-0.1c0.2,0,0.4,0,0.6,0c0.1,0,0.3,0,0.4,0L60,15.8z
		 M61.6,16.1c0,0.1-0.1,0.3-0.1,0.4c0,0.1,0.2,0.2,0.4,0.2h0.1v0.1c-0.2,0-0.4,0-0.6,0c-0.2,0-0.4,0-0.5,0v-0.1h0
		c0.2,0,0.4-0.1,0.4-0.3L62,14c0.1-0.2,0.1-0.4,0.2-0.6c0.2-0.1,0.3-0.1,0.5-0.2c0,0,0,0,0,0c0,0,0,0,0,0c0,0,0,0.1,0,0.1l0.9,2.6
		c0.1,0.2,0.1,0.4,0.2,0.5c0.1,0.1,0.2,0.2,0.3,0.2h0v0.1c-0.2,0-0.4,0-0.7,0s-0.5,0-0.7,0v-0.1h0.1c0.1,0,0.3,0,0.3-0.1
		c0-0.1-0.1-0.2-0.1-0.4l-0.2-0.6h-1.1L61.6,16.1z M62.3,13.9L62.3,13.9l-0.5,1.4h0.9L62.3,13.9z M65.4,16.3c0,0.2,0.1,0.3,0.3,0.3
		c0.2,0,0.4,0,0.7,0c0.2,0,0.4-0.1,0.5-0.3c0.1-0.1,0.1-0.2,0.2-0.4h0.1c-0.1,0.3-0.1,0.6-0.2,0.8c-0.4,0-0.9,0-1.3,0s-0.9,0-1.3,0
		v-0.1h0.1c0.2,0,0.4,0,0.4-0.3v-2.5c0-0.3-0.2-0.3-0.4-0.3h-0.1v-0.1c0.3,0,0.5,0,0.8,0s0.5,0,0.8,0v0.1h-0.1c-0.2,0-0.3,0-0.3,0.3
		L65.4,16.3z"/>
</g>
<g id="Grupo_1823" transform="translate(181.406)" class="st0">
	<path id="Trazado_3976" class="st2" d="M21.1,2.3H0.9v20.2h20.2v-6.7c0.1-0.1,0.1-0.3,0.1-0.4c0-0.2,0-0.3-0.1-0.4"/>
	<path id="Trazado_3977" class="st4" d="M2.7,11.1l-0.4-0.9L2,11.1 M11.3,10.7c-0.1,0-0.2,0.1-0.3,0h-0.7v-0.5H11c0.1,0,0.2,0,0.3,0
		c0.1,0,0.1,0.1,0.1,0.2C11.4,10.6,11.4,10.7,11.3,10.7L11.3,10.7z M16.2,11.1l-0.4-0.9l-0.4,0.9H16.2z M7,12.1H6.5v-1.9l-0.8,1.9
		H5.1l-0.8-1.9v1.9H3.2l-0.2-0.5H1.8l-0.2,0.5H0.9l1-2.4h0.8l1,2.2V9.7h0.9l0.7,1.6l0.7-1.6H7L7,12.1L7,12.1z M9.3,12.1H7.5V9.7h1.9
		v0.5H8v0.4h1.3v0.5H8v0.5h1.3L9.3,12.1z M12,10.4c0,0.3-0.1,0.5-0.4,0.6c0.1,0,0.2,0.1,0.3,0.2c0.1,0.1,0.1,0.3,0.1,0.4v0.5h-0.6
		v-0.3c0-0.2,0-0.3-0.1-0.5c-0.1-0.1-0.2-0.1-0.4-0.1h-0.6v0.9H9.7V9.7H11c0.2,0,0.5,0,0.7,0.1C11.9,10,12,10.2,12,10.4L12,10.4z
		 M12.9,12.1h-0.6V9.7h0.6V12.1z M19.6,12.1h-0.8l-1.1-1.8v1.8h-1.1l-0.2-0.5h-1.2L15,12.1h-0.7c-0.5,0.1-1.1-0.3-1.1-0.9
		c0-0.1,0-0.2,0-0.3c0-0.3,0.1-0.7,0.3-0.9c0.2-0.2,0.5-0.3,0.9-0.3h0.5v0.5h-0.5c-0.2,0-0.3,0-0.4,0.1c-0.1,0.2-0.2,0.3-0.2,0.5
		c0,0.2,0,0.4,0.2,0.6c0.1,0.1,0.3,0.1,0.4,0.1h0.3l0.8-1.9h0.8l1,2.2V9.7h0.9l1,1.6V9.7h0.6L19.6,12.1L19.6,12.1z M0.9,12.6h1
		L2.1,12h0.5l0.2,0.5h1.9v-0.4l0.2,0.4h1L6,12.2v0.4h4.7v-0.9h0.1c0.1,0,0.1,0,0.1,0.1v0.8h2.4v-0.2c0.3,0.1,0.6,0.2,0.9,0.2h1
		l0.2-0.5H16l0.2,0.5h2v-0.5l0.3,0.5h1.6V9.3h-1.6v0.4l-0.2-0.4h-1.6v0.4l-0.2-0.4h-2.2c-0.3,0-0.7,0.1-0.9,0.2V9.3h-1.5v0.2
		c-0.2-0.1-0.4-0.2-0.6-0.2H5.7l-0.4,0.9L5,9.3H3.3v0.4L3.1,9.3H1.6l-0.7,1.6L0.9,12.6L0.9,12.6z"/>
	<path id="Trazado_3978" class="st4" d="M21.1,14.3h-1c-0.1,0-0.2,0-0.2,0c-0.1,0-0.1,0.1-0.1,0.2c0,0.1,0,0.2,0.1,0.2
		c0.1,0,0.1,0,0.2,0l0.3,0c0.2,0,0.5,0,0.6,0.2c0,0,0,0,0.1,0.1 M21.1,15.9c-0.2,0.2-0.5,0.3-0.8,0.3h-1.1v-0.5h1.1
		c0.1,0,0.2,0,0.2-0.1c0,0,0.1-0.1,0.1-0.2c0-0.1,0-0.1-0.1-0.2c-0.1,0-0.1-0.1-0.2-0.1c-0.5,0-1.2,0-1.2-0.7c0-0.3,0.2-0.7,0.8-0.7
		h1.1v-0.5h-1c-0.3,0-0.5,0.1-0.7,0.2v-0.2h-1.6c-0.2,0-0.5,0.1-0.7,0.2v-0.2h-2.8v0.2c-0.2-0.1-0.5-0.2-0.8-0.2h-1.8v0.2
		c-0.2-0.2-0.5-0.2-0.8-0.2h-2l-0.5,0.5L8,13.3h-3v3.3h3l0.5-0.5l0.5,0.5h1.8v-0.8h0.2c0.3,0,0.5,0,0.8-0.1v0.9h1.5v-0.9h0.1
		c0.1,0,0.1,0,0.1,0.1v0.8H18c0.3,0,0.5-0.1,0.8-0.2v0.2h1.5c0.3,0,0.6,0,0.8-0.2L21.1,15.9L21.1,15.9z M18.8,14.9
		c0.1,0.1,0.2,0.3,0.2,0.5c0,0.5-0.3,0.7-0.9,0.7H17v-0.5h1.1c0.1,0,0.2,0,0.2-0.1c0,0,0.1-0.1,0.1-0.2c0-0.1,0-0.1-0.1-0.2
		c-0.1,0-0.1-0.1-0.2-0.1c-0.5,0-1.2,0-1.2-0.7c0-0.3,0.2-0.7,0.8-0.7h1.1v0.5h-1c-0.1,0-0.2,0-0.2,0c-0.1,0.1-0.1,0.2,0,0.3
		c0,0,0.1,0.1,0.1,0.1c0.1,0,0.1,0,0.2,0l0.3,0C18.4,14.7,18.6,14.8,18.8,14.9L18.8,14.9z M13.7,14.8c-0.1,0-0.2,0.1-0.3,0h-0.7
		v-0.5h0.7c0.1,0,0.2,0,0.3,0c0.1,0,0.1,0.1,0.1,0.2C13.8,14.7,13.8,14.7,13.7,14.8L13.7,14.8z M14,15.1c0.1,0,0.2,0.1,0.3,0.2
		c0.1,0.1,0.1,0.3,0.1,0.4v0.5h-0.6v-0.3c0-0.1,0-0.4-0.1-0.5c-0.1-0.1-0.3-0.1-0.4-0.1h-0.6v0.9h-0.6v-2.4h1.3c0.2,0,0.5,0,0.7,0.1
		c0.2,0.1,0.3,0.3,0.3,0.5C14.5,14.7,14.3,15,14,15.1L14,15.1z M14.8,13.8h1.9v0.5h-1.3v0.4h1.3v0.5h-1.3v0.5h1.3v0.5h-1.9
		L14.8,13.8z M10.9,14.9h-0.7v-0.6h0.7c0.2,0,0.3,0.1,0.3,0.3S11.2,14.9,10.9,14.9L10.9,14.9z M9.6,16l-0.9-1l0.9-0.9V16z M7.4,15.7
		H6v-0.5h1.2v-0.5H6v-0.4h1.4L8,15L7.4,15.7z M11.9,14.6c0,0.7-0.5,0.8-1,0.8h-0.7v0.8H9.1l-0.7-0.8l-0.7,0.8H5.4v-2.4h2.3l0.7,0.8
		l0.7-0.8h1.8C11.4,13.8,11.9,13.9,11.9,14.6L11.9,14.6z"/>
</g>
</svg>
